<?xml version="1.0" encoding="UTF-8" standalone="no"?>
<!DOCTYPE svg PUBLIC "-//W3C//DTD SVG 1.1//EN"
"http://www.w3.org/Graphics/SVG/1.1/DTD/svg11.dtd">


<!-- Page 2 -->
<svg x="0" y="0" width="736" height="410" viewBox="0 0 736 410" version="1.1" xmlns="http://www.w3.org/2000/svg" xmlns:xlink="http://www.w3.org/1999/xlink"
style="display: block;margin-left: auto;margin-right: auto;">
<defs>
<clipPath id="c0_2"><path d="M-90.5,1205.5l0,-1286l908,0l0,1286Z" /></clipPath>
<clipPath id="c1_2"><path d="M70.5,74.5l0,-27l418,0l0,27Z" /></clipPath>
<clipPath id="c2_2"><path d="M70.5,164.5l0,-27l119,0l0,27Z" /></clipPath>
<clipPath id="c3_2"><path d="M70.5,191.5l0,-28l126,0l0,28Z" /></clipPath>
<clipPath id="c4_2"><path d="M70.5,282.5l0,-28l152,0l0,28Z" /></clipPath>
<clipPath id="c5_2"><path d="M70.5,308.5l0,-27l98,0l0,27Z" /></clipPath>
<clipPath id="c6_2"><path d="M70.5,335.5l0,-28l152,0l0,28Z" /></clipPath>

<style type="text/css"><![CDATA[


.s5_2{
font-size: 18.56px;
font-family: SymbolMT_5v;
fill: TRANSPARENT;
}
.s10_2{
font-size: 12.28px;
font-family: Times_5h;
fill: TRANSPARENT;
}
.s8_2{
font-size: 10.85px;
font-family: TimesNewRomanPS-ItalicMT_66;
fill: TRANSPARENT;
}
.s11_2{
font-size: 12.28px;
font-family: Times_5_;
fill: TRANSPARENT;
}
.s12_2{
font-size: 12.28px;
font-family: Times-Italic_5n;
fill: TRANSPARENT;
}
.s3_2{
font-size: 10.85px;
font-family: TimesNewRomanPSMT_69;
fill: TRANSPARENT;
}
.s13_2{
font-size: 18.33px;
font-family: CambriaMath_5p;
fill: TRANSPARENT;
}
.s7_2{
font-size: 10.85px;
font-family: SymbolMT_5v;
fill: TRANSPARENT;
}
.s9_2{
font-size: 18.33px;
font-family: Times-Italic_5n;
fill: TRANSPARENT;
}
.s1_2{
font-size: 18.33px;
font-family: Times_5h;
fill: TRANSPARENT;
}
.s14_2{
font-size: 18.33px;
font-family: SymbolMT_5v;
fill: TRANSPARENT;
}
.s4_2{
font-size: 22.83px;
font-family: SymbolMT_5v;
fill: TRANSPARENT;
}
.s2_2{
font-size: 18.56px;
font-family: TimesNewRomanPS-ItalicMT_66;
fill: TRANSPARENT;
}
.s6_2{
font-size: 18.56px;
font-family: TimesNewRomanPSMT_69;
fill: TRANSPARENT;
}

]]></style>

</defs>
<path d="M0,0
L0,410
L736,410
L736,0 Z " 
fill="#FFFFFF" stroke="none" />
<g clip-path="url(#c0_2)">
<g fill="#000000" >
<use xlink:href="#f0_12" transform="matrix(12,0,0,12,70.4,43.5)" />
<use xlink:href="#f0_i" transform="matrix(12,0,0,12,82.5,43.5)" />
<use xlink:href="#f0_l" transform="matrix(12,0,0,12,87.1,43.5)" />
<use xlink:href="#f0_i" transform="matrix(12,0,0,12,96.2,43.5)" />
<use xlink:href="#f0_1z" transform="matrix(12,0,0,12,100.8,43.5)" />
<use xlink:href="#f0_d" transform="matrix(12,0,0,12,108.9,43.5)" />
<use xlink:href="#f0_1f" transform="matrix(12,0,0,12,119.7,43.5)" />
<use xlink:href="#f0_2a" transform="matrix(12,0,0,12,132.9,43.5)" />
<use xlink:href="#f0_1x" transform="matrix(12,0,0,12,146.7,43.5)" />
<use xlink:href="#f0_u" transform="matrix(12,0,0,12,159.3,43.5)" />
</g>
</g>
<text 
x="70" 
y="43" 
dx="0,-0.1,0,0,0,-0.1,0,0.1,0,0,0,-0.1,0,0.2" 
class="s1_2"
>B.1.c) On a : </text>

<g clip-path="url(#c1_2)">
<g fill="#000000" >
<use xlink:href="#f1_23" transform="matrix(12.3,0,0,12.1,73.5,66.8)" />
<use xlink:href="#f2_k" transform="matrix(7.2,0,0,7.1,82.7,71.4)" />
</g>
</g>
<text 
transform="matrix(1.01, 0, 0, 1, 73, 66)"
dx="0" 
class="s2_2"
>g</text>

<g clip-path="url(#c1_2)">
<g fill="#000000" >
<use xlink:href="#f1_2k" transform="matrix(12.3,0,0,12.1,97,66.8)" />
</g>
</g>
<text 
transform="matrix(1.01, 0, 0, 1, 82, 71)"
dx="0" 
class="s3_2"
>0</text>

<g clip-path="url(#c1_2)">
<g fill="#000000" >
<use xlink:href="#f3_c" transform="matrix(15.1,0,0,14.9,89.4,67.1)" />
</g>
</g>
<text 
transform="matrix(1.01, 0, 0, 1, 97, 66)"
dx="0" 
class="s2_2"
>x</text>

<g clip-path="url(#c1_2)">
<g fill="#000000" >
<use xlink:href="#f3_d" transform="matrix(15.1,0,0,14.9,106,67.1)" />
<use xlink:href="#f3_x" transform="matrix(12.3,0,0,12.1,116.7,66.8)" />
</g>
</g>
<text 
transform="matrix(1.01, 0, 0, 1, 89, 67)"
dx="0,0,3.1" 
class="s4_2"
> </text>

<g clip-path="url(#c1_2)">
<g fill="#000000" >
<use xlink:href="#f1_2k" transform="matrix(12.3,0,0,12.1,131.9,66.8)" />
</g>
</g>
<text 
transform="matrix(1.01, 0, 0, 1, 116, 66)"
dx="0" 
class="s5_2"
></text>

<g clip-path="url(#c1_2)">
<g fill="#000000" >
<use xlink:href="#f3_f" transform="matrix(12.3,0,0,12.1,144.2,66.8)" />
</g>
</g>
<text 
transform="matrix(1.01, 0, 0, 1, 131, 66)"
dx="0" 
class="s2_2"
>x</text>

<g clip-path="url(#c1_2)">
<g fill="#000000" >
<use xlink:href="#f2_l" transform="matrix(12.3,0,0,12.1,155.6,66.8)" />
</g>
</g>
<text 
transform="matrix(1.01, 0, 0, 1, 144, 66)"
dx="0" 
class="s5_2"
></text>

<g clip-path="url(#c1_2)">
<g fill="#000000" >
<use xlink:href="#f2_g" transform="matrix(12.3,0,0,12.1,162.5,66.8)" />
<use xlink:href="#f1_23" transform="matrix(12.3,0,0,12.1,173.2,66.8)" />
</g>
</g>
<text 
transform="matrix(1.01, 0, 0, 1, 155, 66)"
dx="0,-2.5,1.4" 
class="s6_2"
>1, </text>

<g clip-path="url(#c1_2)">
<g fill="#000000" >
<use xlink:href="#f2_21" transform="matrix(7.2,0,0,7.1,182.4,71.4)" />
</g>
</g>
<text 
transform="matrix(1.01, 0, 0, 1, 173, 66)"
dx="0" 
class="s2_2"
>g</text>

<g clip-path="url(#c1_2)">
<g fill="#000000" >
<use xlink:href="#f1_2k" transform="matrix(12.3,0,0,12.1,195.9,66.8)" />
</g>
</g>
<text 
transform="matrix(1.01, 0, 0, 1, 182, 71)"
dx="0" 
class="s3_2"
>e</text>

<g clip-path="url(#c1_2)">
<g fill="#000000" >
<use xlink:href="#f3_c" transform="matrix(15.1,0,0,14.9,188.3,67.1)" />
</g>
</g>
<text 
transform="matrix(1.01, 0, 0, 1, 195, 66)"
dx="0" 
class="s2_2"
>x</text>

<g clip-path="url(#c1_2)">
<g fill="#000000" >
<use xlink:href="#f3_d" transform="matrix(15.1,0,0,14.9,204.9,67.1)" />
<use xlink:href="#f3_x" transform="matrix(12.3,0,0,12.1,215.6,66.8)" />
</g>
</g>
<text 
transform="matrix(1.01, 0, 0, 1, 188, 67)"
dx="0,0,3.1" 
class="s4_2"
> </text>

<g clip-path="url(#c1_2)">
<g fill="#000000" >
<use xlink:href="#f1_2k" transform="matrix(12.3,0,0,12.1,230.9,66.8)" />
</g>
</g>
<text 
transform="matrix(1.01, 0, 0, 1, 215, 66)"
dx="0" 
class="s5_2"
></text>

<g clip-path="url(#c1_2)">
<g fill="#000000" >
<use xlink:href="#f3_f" transform="matrix(12.3,0,0,12.1,243.1,66.8)" />
</g>
</g>
<text 
transform="matrix(1.01, 0, 0, 1, 230, 66)"
dx="0" 
class="s2_2"
>x</text>

<g clip-path="url(#c1_2)">
<g fill="#000000" >
<use xlink:href="#f2_l" transform="matrix(12.3,0,0,12.1,254.5,66.8)" />
</g>
</g>
<text 
transform="matrix(1.01, 0, 0, 1, 243, 66)"
dx="0" 
class="s5_2"
></text>

<g clip-path="url(#c1_2)">
<g fill="#000000" >
<use xlink:href="#f3_h" transform="matrix(12.3,0,0,12.1,266,66.8)" />
</g>
</g>
<text 
transform="matrix(1.01, 0, 0, 1, 254, 66)"
dx="0" 
class="s6_2"
>1</text>

<g clip-path="url(#c1_2)">
<g fill="#000000" >
<use xlink:href="#f2_21" transform="matrix(12.3,0,0,12.1,279,66.8)" />
</g>
</g>
<text 
transform="matrix(1.01, 0, 0, 1, 266, 66)"
dx="0" 
class="s5_2"
></text>

<g clip-path="url(#c1_2)">
<g fill="#000000" >
<use xlink:href="#f2_21" transform="matrix(12.3,0,0,12.1,288.9,66.8)" />
<use xlink:href="#f3_h" transform="matrix(7.2,0,0,7.1,298.1,58.5)" />
</g>
</g>
<text 
transform="matrix(1.01, 0, 0, 1, 278, 66)"
dx="0,1.6" 
class="s6_2"
>ee</text>

<g clip-path="url(#c1_2)">
<g fill="#000000" >
<use xlink:href="#f1_2k" transform="matrix(7.2,0,0,7.1,305,58.5)" />
</g>
</g>
<text 
transform="matrix(1.01, 0, 0, 1, 298, 58)"
dx="0" 
class="s7_2"
></text>

<text 
transform="matrix(1.01, 0, 0, 1, 304, 58)"
dx="0" 
class="s8_2"
>x</text>

<g clip-path="url(#c1_2)">
<g fill="#000000" >
<use xlink:href="#f2_21" transform="matrix(12.3,0,0,12.1,319.1,66.8)" />
<use xlink:href="#f2_2g" transform="matrix(12.3,0,0,12.1,327.5,66.8)" />
<use xlink:href="#f1_23" transform="matrix(12.3,0,0,12.1,336.5,66.8)" />
</g>
</g>
<text 
transform="matrix(1.01, 0, 0, 1, 319, 66)"
dx="0,0.1,-0.2" 
class="s6_2"
>et </text>

<g clip-path="url(#c1_2)">
<g fill="#000000" >
<use xlink:href="#f3_h" transform="matrix(7.2,0,0,7.1,345.6,71.4)" />
</g>
</g>
<text 
transform="matrix(1.01, 0, 0, 1, 336, 66)"
dx="0" 
class="s2_2"
>g</text>

<g clip-path="url(#c1_2)">
<g fill="#000000" >
<use xlink:href="#f2_21" transform="matrix(7.2,0,0,7.1,353.3,71.4)" />
</g>
</g>
<text 
transform="matrix(1.01, 0, 0, 1, 345, 71)"
dx="0" 
class="s7_2"
></text>

<g clip-path="url(#c1_2)">
<g fill="#000000" >
<use xlink:href="#f1_2k" transform="matrix(12.3,0,0,12.1,366.8,66.8)" />
</g>
</g>
<text 
transform="matrix(1.01, 0, 0, 1, 353, 71)"
dx="0" 
class="s3_2"
>e</text>

<g clip-path="url(#c1_2)">
<g fill="#000000" >
<use xlink:href="#f3_c" transform="matrix(15.1,0,0,14.9,359.2,67.1)" />
</g>
</g>
<text 
transform="matrix(1.01, 0, 0, 1, 366, 66)"
dx="0" 
class="s2_2"
>x</text>

<g clip-path="url(#c1_2)">
<g fill="#000000" >
<use xlink:href="#f3_d" transform="matrix(15.1,0,0,14.9,375.8,67.1)" />
<use xlink:href="#f3_x" transform="matrix(12.3,0,0,12.1,386.5,66.8)" />
</g>
</g>
<text 
transform="matrix(1.01, 0, 0, 1, 359, 67)"
dx="0,0,3.1" 
class="s4_2"
> </text>

<g clip-path="url(#c1_2)">
<g fill="#000000" >
<use xlink:href="#f1_2k" transform="matrix(12.3,0,0,12.1,401.8,66.8)" />
</g>
</g>
<text 
transform="matrix(1.01, 0, 0, 1, 386, 66)"
dx="0" 
class="s5_2"
></text>

<g clip-path="url(#c1_2)">
<g fill="#000000" >
<use xlink:href="#f3_f" transform="matrix(12.3,0,0,12.1,414,66.8)" />
</g>
</g>
<text 
transform="matrix(1.01, 0, 0, 1, 401, 66)"
dx="0" 
class="s2_2"
>x</text>

<g clip-path="url(#c1_2)">
<g fill="#000000" >
<use xlink:href="#f2_l" transform="matrix(12.3,0,0,12.1,425.5,66.8)" />
</g>
</g>
<text 
transform="matrix(1.01, 0, 0, 1, 413, 66)"
dx="0" 
class="s5_2"
></text>

<g clip-path="url(#c1_2)">
<g fill="#000000" >
<use xlink:href="#f3_f" transform="matrix(12.3,0,0,12.1,436.2,66.8)" />
</g>
</g>
<text 
transform="matrix(1.01, 0, 0, 1, 425, 66)"
dx="0" 
class="s6_2"
>1</text>

<g clip-path="url(#c1_2)">
<g fill="#000000" >
<use xlink:href="#f2_21" transform="matrix(12.3,0,0,12.1,449.2,66.8)" />
</g>
</g>
<text 
transform="matrix(1.01, 0, 0, 1, 436, 66)"
dx="0" 
class="s5_2"
></text>

<g clip-path="url(#c1_2)">
<g fill="#000000" >
<use xlink:href="#f2_21" transform="matrix(12.3,0,0,12.1,459.1,66.8)" />
<use xlink:href="#f3_h" transform="matrix(7.2,0,0,7.1,468.2,58.5)" />
</g>
</g>
<text 
transform="matrix(1.01, 0, 0, 1, 449, 66)"
dx="0,1.6" 
class="s6_2"
>ee</text>

<g clip-path="url(#c1_2)">
<g fill="#000000" >
<use xlink:href="#f1_2k" transform="matrix(7.2,0,0,7.1,475.1,58.5)" />
</g>
</g>
<text 
transform="matrix(1.01, 0, 0, 1, 468, 58)"
dx="0" 
class="s7_2"
></text>

<g clip-path="url(#c1_2)">
<g fill="#000000" >
<use xlink:href="#f2_i" transform="matrix(12.3,0,0,12.1,483.5,66.8)" />
</g>
</g>
<text 
transform="matrix(1.01, 0, 0, 1, 475, 58)"
dx="0" 
class="s8_2"
>x</text>

<text 
transform="matrix(1.01, 0, 0, 1, 483, 66)"
dx="0" 
class="s6_2"
>.</text>

<g clip-path="url(#c0_2)">
<g fill="#000000" >
<use xlink:href="#f0_1f" transform="matrix(12,0,0,12,70.4,91.2)" />
<use xlink:href="#f0_2a" transform="matrix(12,0,0,12,83.6,91.2)" />
<use xlink:href="#f0_21" transform="matrix(12,0,0,12,97.4,91.2)" />
<use xlink:href="#f0_2a" transform="matrix(12,0,0,12,105.4,91.2)" />
<use xlink:href="#f0_20" transform="matrix(12,0,0,12,119.2,91.2)" />
<use xlink:href="#f0_35" transform="matrix(12,0,0,12,128.3,91.2)" />
<use xlink:href="#f0_20" transform="matrix(12,0,0,12,136.4,91.2)" />
<use xlink:href="#f0_2h" transform="matrix(12,0,0,12,145.6,91.2)" />
<use xlink:href="#f0_25" transform="matrix(12,0,0,12,154.7,91.2)" />
<use xlink:href="#f0_2g" transform="matrix(12,0,0,12,159.8,91.2)" />
<use xlink:href="#f0_25" transform="matrix(12,0,0,12,169.6,91.2)" />
<use xlink:href="#f0_29" transform="matrix(12,0,0,12,174.7,91.2)" />
<use xlink:href="#f0_29" transform="matrix(12,0,0,12,189,91.2)" />
<use xlink:href="#f0_35" transform="matrix(12,0,0,12,203.2,91.2)" />
<use xlink:href="#f0_20" transform="matrix(12,0,0,12,211.4,91.2)" />
<use xlink:href="#f0_25" transform="matrix(12,0,0,12,220.5,91.2)" />
<use xlink:href="#f0_1x" transform="matrix(12,0,0,12,225.6,91.2)" />
<use xlink:href="#f0_2g" transform="matrix(12,0,0,12,233.7,91.2)" />
<use xlink:href="#f0_21" transform="matrix(12,0,0,12,238.8,91.2)" />
<use xlink:href="#f0_29" transform="matrix(12,0,0,12,247.1,91.2)" />
<use xlink:href="#f0_21" transform="matrix(12,0,0,12,261.3,91.2)" />
<use xlink:href="#f0_2a" transform="matrix(12,0,0,12,269.5,91.2)" />
<use xlink:href="#f0_2g" transform="matrix(12,0,0,12,278.6,91.2)" />
<use xlink:href="#f0_2d" transform="matrix(12,0,0,12,288.3,91.2)" />
<use xlink:href="#f0_2h" transform="matrix(12,0,0,12,297.5,91.2)" />
<use xlink:href="#f0_21" transform="matrix(12,0,0,12,306.7,91.2)" />
<use xlink:href="#f0_28" transform="matrix(12,0,0,12,319.3,91.2)" />
<use xlink:href="#f0_1x" transform="matrix(12,0,0,12,324.4,91.2)" />
<use xlink:href="#f0_1z" transform="matrix(12,0,0,12,337.1,91.2)" />
<use xlink:href="#f0_2b" transform="matrix(12,0,0,12,345.2,91.2)" />
<use xlink:href="#f0_2h" transform="matrix(12,0,0,12,354.3,91.2)" />
<use xlink:href="#f0_2e" transform="matrix(12,0,0,12,363.5,91.2)" />
<use xlink:href="#f0_1y" transform="matrix(12,0,0,12,369.6,91.2)" />
<use xlink:href="#f0_21" transform="matrix(12,0,0,12,378.9,91.2)" />
<use xlink:href="#f0_m" transform="matrix(12,0,0,12,391.5,91.2)" />
<use xlink:href="#f0_2f" transform="matrix(12,0,0,12,405.3,91.2)" />
<use xlink:href="#f0_2h" transform="matrix(12,0,0,12,412.4,91.2)" />
<use xlink:href="#f0_2e" transform="matrix(12,0,0,12,421.6,91.2)" />
<use xlink:href="#f0_28" transform="matrix(12,0,0,12,432.4,91.2)" />
<use xlink:href="#f0_1x" transform="matrix(12,0,0,12,437.5,91.2)" />
<use xlink:href="#f0_22" transform="matrix(12,0,0,12,450.2,91.2)" />
<use xlink:href="#f0_25" transform="matrix(12,0,0,12,456.2,91.2)" />
<use xlink:href="#f0_23" transform="matrix(12,0,0,12,461.3,91.2)" />
<use xlink:href="#f0_2h" transform="matrix(12,0,0,12,470.3,91.2)" />
<use xlink:href="#f0_2e" transform="matrix(12,0,0,12,479.7,91.2)" />
<use xlink:href="#f0_21" transform="matrix(12,0,0,12,485.8,91.2)" />
<use xlink:href="#f0_21" transform="matrix(12,0,0,12,498.4,91.2)" />
<use xlink:href="#f0_2f" transform="matrix(12,0,0,12,506.4,91.2)" />
<use xlink:href="#f0_2g" transform="matrix(12,0,0,12,513.6,91.2)" />
<use xlink:href="#f0_1z" transform="matrix(12,0,0,12,523.2,91.2)" />
<use xlink:href="#f0_21" transform="matrix(12,0,0,12,531.5,91.2)" />
<use xlink:href="#f0_28" transform="matrix(12,0,0,12,539.6,91.2)" />
<use xlink:href="#f0_28" transform="matrix(12,0,0,12,544.7,91.2)" />
<use xlink:href="#f0_21" transform="matrix(12,0,0,12,549.8,91.2)" />
<use xlink:href="#f0_20" transform="matrix(12,0,0,12,562.5,91.2)" />
<use xlink:href="#f0_21" transform="matrix(12,0,0,12,571.7,91.2)" />
<use xlink:href="#f4_23" transform="matrix(12,0,0,12,584.6,91.2)" />
</g>
</g>
<text 
x="70" 
y="91" 
dx="0,0,0,0,-0.1,0,0,0,-0.1,0,0,0,0.1,0,0,0.1,0,0,0,0,-0.1,0,0.1,0,0,0,0,0,0,0,-0.1,0,0,0,0,-0.1,0,0,0,0.1,-0.1,0,0,0,0,0,0,0.1,0,0,0,-0.1,0,-0.1,0.2,0,-0.1,0,-0.1,0,0,0,0.1,-0.1,0,0.1,-0.1,0,0,-0.1" 
class="s1_2"
>On en déduit immédiatement que la courbe 2 sur la figure est celle de </text>

<g clip-path="url(#c0_2)">
<g fill="#000000" >
<use xlink:href="#f0_k" transform="matrix(8,0,0,8,593.8,92.7)" />
</g>
</g>
<text 
x="584" 
y="91" 
dx="0" 
class="s9_2"
>g</text>

<g clip-path="url(#c0_2)">
<g fill="#000000" >
<use xlink:href="#f0_c" transform="matrix(12,0,0,12,600,91.2)" />
</g>
</g>
<text 
x="593" 
y="92" 
dx="0" 
class="s10_2"
>0</text>

<g clip-path="url(#c0_2)">
<g fill="#000000" >
<use xlink:href="#f4_2k" transform="matrix(12,0,0,12,606,91.2)" />
</g>
</g>
<text 
x="599" 
y="91" 
dx="0" 
class="s1_2"
>(</text>

<g clip-path="url(#c0_2)">
<g fill="#000000" >
<use xlink:href="#f0_d" transform="matrix(12,0,0,12,614.3,91.2)" />
</g>
</g>
<text 
x="606" 
y="91" 
dx="0" 
class="s9_2"
>x</text>

<g clip-path="url(#c0_2)">
<g fill="#000000" >
<use xlink:href="#f0_g" transform="matrix(12,0,0,12,620.3,91.2)" />
<use xlink:href="#f0_1z" transform="matrix(12,0,0,12,70.4,112.3)" />
</g>
</g>
<text 
x="614" 
y="91" 
dx="0,-0.1,0" 
class="s1_2"
>), </text>

<g clip-path="url(#c0_2)">
<g fill="#000000" >
<use xlink:href="#f0_b" transform="matrix(12,0,0,12,78.5,112.3)" />
<use xlink:href="#f0_21" transform="matrix(12,0,0,12,81.8,112.3)" />
<use xlink:href="#f0_2f" transform="matrix(12,0,0,12,89.8,112.3)" />
<use xlink:href="#f0_2g" transform="matrix(12,0,0,12,97,112.3)" />
<use xlink:href="#f0_2z" transform="matrix(12,0,0,12,106.6,112.3)" />
<use xlink:href="#f0_20" transform="matrix(12,0,0,12,119.4,112.3)" />
<use xlink:href="#f0_25" transform="matrix(12,0,0,12,128.5,112.3)" />
<use xlink:href="#f0_2e" transform="matrix(12,0,0,12,133.6,112.3)" />
<use xlink:href="#f0_21" transform="matrix(12,0,0,12,139.7,112.3)" />
<use xlink:href="#f4_13" transform="matrix(12,0,0,12,152.3,112.3)" />
</g>
</g>
<text 
x="70" 
y="112" 
dx="0,-0.1,0,-0.1,0,0,0,0,0,0,0,0,-0.1" 
class="s1_2"
>c'est à dire </text>

<g clip-path="url(#c0_2)">
<g fill="#000000" >
<use xlink:href="#f0_k" transform="matrix(8,0,0,8,164.6,113.8)" />
</g>
</g>
<text 
x="152" 
y="112" 
dx="0" 
class="s9_2"
>C</text>

<g clip-path="url(#c0_2)">
<g fill="#000000" >
<use xlink:href="#f0_i" transform="matrix(12,0,0,12,170.9,112.3)" />
</g>
</g>
<text 
x="164" 
y="113" 
dx="0" 
class="s10_2"
>0</text>

<g clip-path="url(#c0_2)">
<g fill="#000000" >
<use xlink:href="#f0_1g" transform="matrix(12,0,0,12,70.4,133.4)" />
</g>
</g>
<text 
x="170" 
y="112" 
dx="0,0" 
class="s1_2"
>. </text>

<g clip-path="url(#c0_2)">
<g fill="#000000" >
<use xlink:href="#f0_1x" transform="matrix(12,0,0,12,80.6,133.4)" />
<use xlink:href="#f0_2e" transform="matrix(12,0,0,12,88.7,133.4)" />
<use xlink:href="#f0_1x" transform="matrix(12,0,0,12,99.4,133.4)" />
<use xlink:href="#f0_25" transform="matrix(12,0,0,12,107.4,133.4)" />
<use xlink:href="#f0_28" transform="matrix(12,0,0,12,112.5,133.4)" />
<use xlink:href="#f0_28" transform="matrix(12,0,0,12,117.7,133.4)" />
<use xlink:href="#f0_21" transform="matrix(12,0,0,12,122.8,133.4)" />
<use xlink:href="#f0_2h" transform="matrix(12,0,0,12,130.9,133.4)" />
<use xlink:href="#f0_2e" transform="matrix(12,0,0,12,140.1,133.4)" />
<use xlink:href="#f0_2f" transform="matrix(12,0,0,12,146.1,133.4)" />
<use xlink:href="#f0_u" transform="matrix(12,0,0,12,157.8,133.4)" />
</g>
</g>
<text 
x="70" 
y="133" 
dx="0,0.1,-0.1,0,0,-0.1,0,0.1,0,0,0,-0.1,0,0.1,0" 
class="s1_2"
>Par ailleurs : </text>

<g clip-path="url(#c2_2)">
<g fill="#000000" >
<use xlink:href="#f1_23" transform="matrix(12.2,0,0,12.1,73.5,156.4)" />
<use xlink:href="#f2_21" transform="matrix(7.2,0,0,7.1,82.7,161.1)" />
</g>
</g>
<text 
transform="matrix(1.01, 0, 0, 1, 73, 156)"
dx="0" 
class="s2_2"
>g</text>

<g clip-path="url(#c2_2)">
<g fill="#000000" >
<use xlink:href="#f2_k" transform="matrix(12.2,0,0,12.1,94.8,156.4)" />
</g>
</g>
<text 
transform="matrix(1.01, 0, 0, 1, 82, 161)"
dx="0" 
class="s3_2"
>e</text>

<g clip-path="url(#c2_2)">
<g fill="#000000" >
<use xlink:href="#f3_c" transform="matrix(15.1,0,0,14.9,88.6,156.8)" />
</g>
</g>
<text 
transform="matrix(1.01, 0, 0, 1, 94, 156)"
dx="0" 
class="s6_2"
>0</text>

<g clip-path="url(#c2_2)">
<g fill="#000000" >
<use xlink:href="#f3_d" transform="matrix(15.1,0,0,14.9,103.8,156.8)" />
<use xlink:href="#f3_x" transform="matrix(12.2,0,0,12.1,114.5,156.4)" />
</g>
</g>
<text 
transform="matrix(1.01, 0, 0, 1, 88, 156)"
dx="0,0,1.7" 
class="s4_2"
> </text>

<g clip-path="url(#c2_2)">
<g fill="#000000" >
<use xlink:href="#f2_l" transform="matrix(12.2,0,0,12.1,126.7,156.4)" />
</g>
</g>
<text 
transform="matrix(1.01, 0, 0, 1, 114, 156)"
dx="0" 
class="s5_2"
></text>

<g clip-path="url(#c2_2)">
<g fill="#000000" >
<use xlink:href="#f3_h" transform="matrix(12.2,0,0,12.1,138.2,156.4)" />
</g>
</g>
<text 
transform="matrix(1.01, 0, 0, 1, 126, 156)"
dx="0" 
class="s6_2"
>1</text>

<g clip-path="url(#c2_2)">
<g fill="#000000" >
<use xlink:href="#f2_21" transform="matrix(12.2,0,0,12.1,151.3,156.4)" />
</g>
</g>
<text 
transform="matrix(1.01, 0, 0, 1, 138, 156)"
dx="0" 
class="s5_2"
></text>

<g clip-path="url(#c2_2)">
<g fill="#000000" >
<use xlink:href="#f3_w" transform="matrix(12.2,0,0,12.1,164.2,156.4)" />
</g>
</g>
<text 
transform="matrix(1.01, 0, 0, 1, 151, 156)"
dx="0" 
class="s6_2"
>e</text>

<g clip-path="url(#c2_2)">
<g fill="#000000" >
<use xlink:href="#f2_k" transform="matrix(12.2,0,0,12.1,178,156.4)" />
</g>
</g>
<text 
transform="matrix(1.01, 0, 0, 1, 164, 156)"
dx="0" 
class="s5_2"
></text>

<text 
transform="matrix(1.01, 0, 0, 1, 178, 156)"
dx="0" 
class="s6_2"
>0</text>

<g clip-path="url(#c0_2)">
<g fill="#000000" >
<use xlink:href="#f0_21" transform="matrix(12,0,0,12,193.3,156.7)" />
<use xlink:href="#f0_2g" transform="matrix(12,0,0,12,201.3,156.7)" />
</g>
</g>
<text 
x="193" 
y="156" 
dx="0,-0.1,0" 
class="s1_2"
>et </text>

<g clip-path="url(#c3_2)">
<g fill="#000000" >
<use xlink:href="#f1_23" transform="matrix(12.1,0,0,12.1,73.5,183)" />
<use xlink:href="#f3_h" transform="matrix(7.1,0,0,7.1,82.7,187.7)" />
</g>
</g>
<text 
x="73" 
y="183" 
dx="0" 
class="s2_2"
>g</text>

<g clip-path="url(#c3_2)">
<g fill="#000000" >
<use xlink:href="#f2_21" transform="matrix(7.1,0,0,7.1,90.4,187.7)" />
</g>
</g>
<text 
x="82" 
y="187" 
dx="0" 
class="s7_2"
></text>

<g clip-path="url(#c3_2)">
<g fill="#000000" >
<use xlink:href="#f2_k" transform="matrix(12.1,0,0,12.1,102.5,183)" />
</g>
</g>
<text 
x="90" 
y="187" 
dx="0" 
class="s3_2"
>e</text>

<g clip-path="url(#c3_2)">
<g fill="#000000" >
<use xlink:href="#f3_c" transform="matrix(14.9,0,0,14.9,96.3,183.4)" />
</g>
</g>
<text 
x="102" 
y="183" 
dx="0" 
class="s6_2"
>0</text>

<g clip-path="url(#c3_2)">
<g fill="#000000" >
<use xlink:href="#f3_d" transform="matrix(14.9,0,0,14.9,111.5,183.4)" />
<use xlink:href="#f3_x" transform="matrix(12.1,0,0,12.1,122.2,183)" />
</g>
</g>
<text 
x="96" 
y="183" 
dx="0,0,1.9" 
class="s4_2"
> </text>

<g clip-path="url(#c3_2)">
<g fill="#000000" >
<use xlink:href="#f2_l" transform="matrix(12.1,0,0,12.1,134.5,183)" />
</g>
</g>
<text 
x="122" 
y="183" 
dx="0" 
class="s5_2"
></text>

<g clip-path="url(#c3_2)">
<g fill="#000000" >
<use xlink:href="#f3_f" transform="matrix(12.1,0,0,12.1,145.2,183)" />
</g>
</g>
<text 
x="134" 
y="183" 
dx="0" 
class="s6_2"
>1</text>

<g clip-path="url(#c3_2)">
<g fill="#000000" >
<use xlink:href="#f2_21" transform="matrix(12.1,0,0,12.1,158.3,183)" />
</g>
</g>
<text 
x="145" 
y="183" 
dx="0" 
class="s5_2"
></text>

<g clip-path="url(#c3_2)">
<g fill="#000000" >
<use xlink:href="#f3_y" transform="matrix(12.1,0,0,12.1,171.4,183)" />
</g>
</g>
<text 
x="158" 
y="183" 
dx="0" 
class="s6_2"
>e</text>

<g clip-path="url(#c3_2)">
<g fill="#000000" >
<use xlink:href="#f2_k" transform="matrix(12.1,0,0,12.1,185.2,183)" />
</g>
</g>
<text 
x="171" 
y="183" 
dx="0" 
class="s5_2"
></text>

<g clip-path="url(#c0_2)">
<g fill="#000000" >
<use xlink:href="#f0_i" transform="matrix(12,0,0,12,195.7,183.3)" />
</g>
</g>
<text 
x="185" 
y="183" 
dx="0" 
class="s6_2"
>0</text>

<g clip-path="url(#c0_2)">
<g fill="#000000" >
<use xlink:href="#f0_1f" transform="matrix(12,0,0,12,70.4,207.5)" />
</g>
</g>
<text 
x="195" 
y="183" 
dx="0,0" 
class="s1_2"
>. </text>

<g clip-path="url(#c0_2)">
<g fill="#000000" >
<use xlink:href="#f0_2a" transform="matrix(12,0,0,12,83.6,207.5)" />
<use xlink:href="#f0_21" transform="matrix(12,0,0,12,97.4,207.5)" />
<use xlink:href="#f0_2a" transform="matrix(12,0,0,12,105.4,207.5)" />
<use xlink:href="#f0_20" transform="matrix(12,0,0,12,119.2,207.5)" />
<use xlink:href="#f0_35" transform="matrix(12,0,0,12,128.3,207.5)" />
<use xlink:href="#f0_20" transform="matrix(12,0,0,12,136.4,207.5)" />
<use xlink:href="#f0_2h" transform="matrix(12,0,0,12,145.6,207.5)" />
<use xlink:href="#f0_25" transform="matrix(12,0,0,12,154.7,207.5)" />
<use xlink:href="#f0_2g" transform="matrix(12,0,0,12,159.8,207.5)" />
<use xlink:href="#f0_2d" transform="matrix(12,0,0,12,169.6,207.5)" />
<use xlink:href="#f0_2h" transform="matrix(12,0,0,12,178.7,207.5)" />
<use xlink:href="#f0_21" transform="matrix(12,0,0,12,187.9,207.5)" />
<use xlink:href="#f0_28" transform="matrix(12,0,0,12,200.5,207.5)" />
<use xlink:href="#f0_1x" transform="matrix(12,0,0,12,205.6,207.5)" />
<use xlink:href="#f0_1z" transform="matrix(12,0,0,12,218.5,207.5)" />
<use xlink:href="#f0_2b" transform="matrix(12,0,0,12,226.6,207.5)" />
<use xlink:href="#f0_2h" transform="matrix(12,0,0,12,235.7,207.5)" />
<use xlink:href="#f0_2e" transform="matrix(12,0,0,12,244.9,207.5)" />
<use xlink:href="#f0_1y" transform="matrix(12,0,0,12,251.1,207.5)" />
<use xlink:href="#f0_21" transform="matrix(12,0,0,12,260.3,207.5)" />
<use xlink:href="#f0_n" transform="matrix(12,0,0,12,272.9,207.5)" />
<use xlink:href="#f0_1z" transform="matrix(12,0,0,12,286.8,207.5)" />
<use xlink:href="#f0_2b" transform="matrix(12,0,0,12,294.8,207.5)" />
<use xlink:href="#f0_2e" transform="matrix(12,0,0,12,304,207.5)" />
<use xlink:href="#f0_2e" transform="matrix(12,0,0,12,310.1,207.5)" />
<use xlink:href="#f0_21" transform="matrix(12,0,0,12,316.3,207.5)" />
<use xlink:href="#f0_2f" transform="matrix(12,0,0,12,324.3,207.5)" />
<use xlink:href="#f0_2c" transform="matrix(12,0,0,12,331.5,207.5)" />
<use xlink:href="#f0_2b" transform="matrix(12,0,0,12,340.6,207.5)" />
<use xlink:href="#f0_2a" transform="matrix(12,0,0,12,349.8,207.5)" />
<use xlink:href="#f0_20" transform="matrix(12,0,0,12,359,207.5)" />
<use xlink:href="#f0_2z" transform="matrix(12,0,0,12,372.7,207.5)" />
<use xlink:href="#f4_13" transform="matrix(12,0,0,12,385.4,207.5)" />
</g>
</g>
<text 
x="70" 
y="207" 
dx="0,0,0,0,-0.1,0,0,0,-0.1,0,0,0,0.1,0,0,0,-0.1,0,0,0,0.1,-0.1,0,0,0.1,0,-0.1,0,0,0.1,-0.1,0,0,0.1,-0.1,0,0,0,0,0,0,0" 
class="s1_2"
>On en déduit que la courbe 3 correspond à </text>

<g clip-path="url(#c0_2)">
<g fill="#000000" >
<use xlink:href="#f0_21" transform="matrix(8,0,0,8,397.7,208.9)" />
</g>
</g>
<text 
x="385" 
y="207" 
dx="0" 
class="s9_2"
>C</text>

<text 
x="397" 
y="208" 
dx="0" 
class="s10_2"
>e</text>

<g clip-path="url(#c0_2)">
<g fill="#000000" >
<use xlink:href="#f0_21" transform="matrix(12,0,0,12,407.8,207.5)" />
<use xlink:href="#f0_2g" transform="matrix(12,0,0,12,415.9,207.5)" />
<use xlink:href="#f0_28" transform="matrix(12,0,0,12,425.6,207.5)" />
<use xlink:href="#f0_1x" transform="matrix(12,0,0,12,430.7,207.5)" />
<use xlink:href="#f0_1z" transform="matrix(12,0,0,12,443.4,207.5)" />
<use xlink:href="#f0_2b" transform="matrix(12,0,0,12,451.4,207.5)" />
<use xlink:href="#f0_2h" transform="matrix(12,0,0,12,460.6,207.5)" />
<use xlink:href="#f0_2e" transform="matrix(12,0,0,12,469.8,207.5)" />
<use xlink:href="#f0_1y" transform="matrix(12,0,0,12,475.9,207.5)" />
<use xlink:href="#f0_21" transform="matrix(12,0,0,12,485,207.5)" />
<use xlink:href="#f0_l" transform="matrix(12,0,0,12,497.6,207.5)" />
<use xlink:href="#f0_2z" transform="matrix(12,0,0,12,511.6,207.5)" />
<use xlink:href="#f4_13" transform="matrix(12,0,0,12,524.2,207.5)" />
</g>
</g>
<text 
x="407" 
y="207" 
dx="0,-0.1,0,0,0,0,0,-0.1,0,0,0,0,-0.1,0,0,0.2,-0.1" 
class="s1_2"
>et la courbe 1 à </text>

<g clip-path="url(#c0_2)">
<g fill="#000000" >
<use xlink:href="#f5_4y" transform="matrix(8,0,0,8,536.5,208.9)" />
</g>
</g>
<text 
x="524" 
y="207" 
dx="0" 
class="s9_2"
>C</text>

<g clip-path="url(#c0_2)">
<g fill="#000000" >
<use xlink:href="#f0_21" transform="matrix(8,0,0,8,542.7,208.9)" />
</g>
</g>
<text 
x="536" 
y="208" 
dx="0" 
class="s11_2"
>–</text>

<g clip-path="url(#c0_2)">
<g fill="#000000" >
<use xlink:href="#f0_i" transform="matrix(12,0,0,12,548.1,207.5)" />
</g>
</g>
<text 
x="542" 
y="208" 
dx="0" 
class="s10_2"
>e</text>

<text 
x="548" 
y="207" 
dx="0,0.2" 
class="s1_2"
>. </text>

<g clip-path="url(#c0_2)">
<g fill="#000000" >
<use xlink:href="#f0_12" transform="matrix(12,0,0,12,70.4,251.1)" />
<use xlink:href="#f0_i" transform="matrix(12,0,0,12,82.5,251.1)" />
<use xlink:href="#f0_l" transform="matrix(12,0,0,12,87.1,251.1)" />
<use xlink:href="#f0_i" transform="matrix(12,0,0,12,96.2,251.1)" />
<use xlink:href="#f0_20" transform="matrix(12,0,0,12,100.8,251.1)" />
<use xlink:href="#f0_d" transform="matrix(12,0,0,12,110,251.1)" />
<use xlink:href="#f0_1g" transform="matrix(12,0,0,12,120.6,251.1)" />
<use xlink:href="#f0_2h" transform="matrix(12,0,0,12,130.9,251.1)" />
<use xlink:href="#f0_25" transform="matrix(12,0,0,12,140,251.1)" />
<use xlink:href="#f0_2f" transform="matrix(12,0,0,12,145.1,251.1)" />
<use xlink:href="#f0_2d" transform="matrix(12,0,0,12,152.3,251.1)" />
<use xlink:href="#f0_2h" transform="matrix(12,0,0,12,161.4,251.1)" />
<use xlink:href="#f0_21" transform="matrix(12,0,0,12,170.6,251.1)" />
<use xlink:href="#f0_21" transform="matrix(12,0,0,12,183.3,251.1)" />
<use xlink:href="#f5_4y" transform="matrix(8,0,0,8,191.4,244.1)" />
</g>
</g>
<text 
x="70" 
y="251" 
dx="0,-0.1,0,0,0,0,0,-0.1,0.1,0,0,0,0,0,-0.1,0" 
class="s1_2"
>B.1.d) Puisque e</text>

<g clip-path="url(#c0_2)">
<g fill="#000000" >
<use xlink:href="#f4_2k" transform="matrix(8,0,0,8,197.7,244.1)" />
</g>
</g>
<text 
x="191" 
y="244" 
dx="0" 
class="s11_2"
>–</text>

<text 
x="197" 
y="244" 
dx="0" 
class="s12_2"
>x</text>

<g clip-path="url(#c0_2)">
<g fill="#000000" >
<use xlink:href="#f0_21" transform="matrix(12,0,0,12,207.8,251.1)" />
<use xlink:href="#f0_2f" transform="matrix(12,0,0,12,215.8,251.1)" />
<use xlink:href="#f0_2g" transform="matrix(12,0,0,12,223,251.1)" />
<use xlink:href="#f0_2f" transform="matrix(12,0,0,12,232.6,251.1)" />
<use xlink:href="#f0_2g" transform="matrix(12,0,0,12,239.8,251.1)" />
<use xlink:href="#f0_2e" transform="matrix(12,0,0,12,244.9,251.1)" />
<use xlink:href="#f0_25" transform="matrix(12,0,0,12,251,251.1)" />
<use xlink:href="#f0_1z" transform="matrix(12,0,0,12,256.1,251.1)" />
<use xlink:href="#f0_2g" transform="matrix(12,0,0,12,264.2,251.1)" />
<use xlink:href="#f0_21" transform="matrix(12,0,0,12,269.3,251.1)" />
<use xlink:href="#f0_29" transform="matrix(12,0,0,12,277.4,251.1)" />
<use xlink:href="#f0_21" transform="matrix(12,0,0,12,291.7,251.1)" />
<use xlink:href="#f0_2a" transform="matrix(12,0,0,12,299.8,251.1)" />
<use xlink:href="#f0_2g" transform="matrix(12,0,0,12,308.9,251.1)" />
<use xlink:href="#f0_2c" transform="matrix(12,0,0,12,318.6,251.1)" />
<use xlink:href="#f0_2b" transform="matrix(12,0,0,12,327.8,251.1)" />
<use xlink:href="#f0_2f" transform="matrix(12,0,0,12,337,251.1)" />
<use xlink:href="#f0_25" transform="matrix(12,0,0,12,344.1,251.1)" />
<use xlink:href="#f0_2g" transform="matrix(12,0,0,12,349.2,251.1)" />
<use xlink:href="#f0_25" transform="matrix(12,0,0,12,354.4,251.1)" />
<use xlink:href="#f0_22" transform="matrix(12,0,0,12,359.5,251.1)" />
<use xlink:href="#f0_2f" transform="matrix(12,0,0,12,370.2,251.1)" />
<use xlink:href="#f0_2h" transform="matrix(12,0,0,12,377.3,251.1)" />
<use xlink:href="#f0_2e" transform="matrix(12,0,0,12,386.5,251.1)" />
<use xlink:href="#f6_116" transform="matrix(12,0,0,12,397.2,251.1)" />
</g>
</g>
<text 
x="207" 
y="251" 
dx="0,-0.1,0,0,0,0.1,0,0,0,-0.1,0,0,0,-0.1,0,0,0,0,0,0,0,0.1,0,0,0,0,0,-0.1" 
class="s1_2"
>est strictement positif sur </text>

<g clip-path="url(#c0_2)">
<g fill="#000000" >
<use xlink:href="#f0_g" transform="matrix(12,0,0,12,410.7,251.1)" />
</g>
</g>
<text 
x="397" 
y="251" 
dx="0" 
class="s13_2"
>ℝ</text>

<g clip-path="url(#c0_2)">
<g fill="#000000" >
<use xlink:href="#f0_2b" transform="matrix(12,0,0,12,424.5,251.1)" />
<use xlink:href="#f0_2a" transform="matrix(12,0,0,12,433.7,251.1)" />
<use xlink:href="#f0_21" transform="matrix(12,0,0,12,447.4,251.1)" />
<use xlink:href="#f0_2a" transform="matrix(12,0,0,12,455.6,251.1)" />
<use xlink:href="#f0_20" transform="matrix(12,0,0,12,469.4,251.1)" />
<use xlink:href="#f0_35" transform="matrix(12,0,0,12,478.6,251.1)" />
<use xlink:href="#f0_20" transform="matrix(12,0,0,12,486.6,251.1)" />
<use xlink:href="#f0_2h" transform="matrix(12,0,0,12,495.8,251.1)" />
<use xlink:href="#f0_25" transform="matrix(12,0,0,12,505,251.1)" />
<use xlink:href="#f0_2g" transform="matrix(12,0,0,12,510,251.1)" />
<use xlink:href="#f0_2d" transform="matrix(12,0,0,12,519.8,251.1)" />
<use xlink:href="#f0_2h" transform="matrix(12,0,0,12,529,251.1)" />
<use xlink:href="#f0_21" transform="matrix(12,0,0,12,538.1,251.1)" />
<use xlink:href="#f0_2c" transform="matrix(12,0,0,12,550.8,251.1)" />
<use xlink:href="#f0_2b" transform="matrix(12,0,0,12,559.9,251.1)" />
<use xlink:href="#f0_2h" transform="matrix(12,0,0,12,569.1,251.1)" />
<use xlink:href="#f0_2e" transform="matrix(12,0,0,12,578.3,251.1)" />
<use xlink:href="#f0_2g" transform="matrix(12,0,0,12,588.9,251.1)" />
<use xlink:href="#f0_2b" transform="matrix(12,0,0,12,594,251.1)" />
<use xlink:href="#f0_2h" transform="matrix(12,0,0,12,603.2,251.1)" />
<use xlink:href="#f0_2g" transform="matrix(12,0,0,12,612.3,251.1)" />
<use xlink:href="#f4_2k" transform="matrix(12,0,0,12,622.2,251.1)" />
</g>
</g>
<text 
x="410" 
y="251" 
dx="0,0,0,0,0,0,0,0.1,0,0,0,-0.1,0,0,0,0.1,0,0,0,-0.1,0,0,0,0,-0.1,0,0,0,0,0.1" 
class="s1_2"
>,  on en déduit que pour tout </text>

<text 
x="622" 
y="251" 
dx="0" 
class="s9_2"
>x</text>

<g clip-path="url(#c0_2)">
<g fill="#000000" >
<use xlink:href="#f3_40" transform="matrix(12,0,0,12,635,251.1)" />
</g>
</g>
<text 
x="635" 
y="251" 
dx="0" 
class="s14_2"
></text>

<g clip-path="url(#c0_2)">
<g fill="#000000" >
<use xlink:href="#f6_116" transform="matrix(12,0,0,12,652.6,251.1)" />
</g>
</g>
<text 
x="652" 
y="251" 
dx="0" 
class="s13_2"
>ℝ</text>

<g clip-path="url(#c0_2)">
<g fill="#000000" >
<use xlink:href="#f0_u" transform="matrix(12,0,0,12,670.8,251.1)" />
</g>
</g>
<text 
x="670" 
y="251" 
dx="0,0" 
class="s1_2"
>: </text>

<g clip-path="url(#c4_2)">
<g fill="#000000" >
<use xlink:href="#f1_23" transform="matrix(12.2,0,0,12.1,73.5,274.1)" />
<use xlink:href="#f1_29" transform="matrix(7.1,0,0,7.1,82.8,278.7)" />
</g>
</g>
<text 
x="73" 
y="274" 
dx="0" 
class="s2_2"
>g</text>

<g clip-path="url(#c4_2)">
<g fill="#000000" >
<use xlink:href="#f1_2k" transform="matrix(12.2,0,0,12.1,100.2,274.1)" />
</g>
</g>
<text 
x="82" 
y="278" 
dx="0" 
class="s8_2"
>m</text>

<g clip-path="url(#c4_2)">
<g fill="#000000" >
<use xlink:href="#f3_c" transform="matrix(15,0,0,14.9,92.5,274.5)" />
</g>
</g>
<text 
x="100" 
y="274" 
dx="0" 
class="s2_2"
>x</text>

<g clip-path="url(#c4_2)">
<g fill="#000000" >
<use xlink:href="#f3_d" transform="matrix(15,0,0,14.9,109.2,274.5)" />
<use xlink:href="#f3_x" transform="matrix(12.2,0,0,12.1,120,274.1)" />
</g>
</g>
<text 
x="92" 
y="274" 
dx="0,0,3.3" 
class="s4_2"
> </text>

<g clip-path="url(#c4_2)">
<g fill="#000000" >
<use xlink:href="#f1_2k" transform="matrix(12.2,0,0,12.1,135.3,274.1)" />
</g>
</g>
<text 
x="120" 
y="274" 
dx="0" 
class="s5_2"
></text>

<g clip-path="url(#c4_2)">
<g fill="#000000" >
<use xlink:href="#f3_f" transform="matrix(12.2,0,0,12.1,147.6,274.1)" />
</g>
</g>
<text 
x="135" 
y="274" 
dx="0" 
class="s2_2"
>x</text>

<g clip-path="url(#c4_2)">
<g fill="#000000" >
<use xlink:href="#f2_l" transform="matrix(12.2,0,0,12.1,159.2,274.1)" />
</g>
</g>
<text 
x="147" 
y="274" 
dx="0" 
class="s5_2"
></text>

<g clip-path="url(#c4_2)">
<g fill="#000000" >
<use xlink:href="#f3_h" transform="matrix(12.2,0,0,12.1,170.7,274.1)" />
</g>
</g>
<text 
x="159" 
y="274" 
dx="0" 
class="s6_2"
>1</text>

<g clip-path="url(#c4_2)">
<g fill="#000000" >
<use xlink:href="#f1_29" transform="matrix(12.2,0,0,12.1,184.5,274.1)" />
</g>
</g>
<text 
x="170" 
y="274" 
dx="0" 
class="s5_2"
></text>

<g clip-path="url(#c4_2)">
<g fill="#000000" >
<use xlink:href="#f2_21" transform="matrix(12.2,0,0,12.1,199.9,274.1)" />
</g>
</g>
<text 
x="184" 
y="274" 
dx="0" 
class="s2_2"
>m</text>

<g clip-path="url(#c4_2)">
<g fill="#000000" >
<use xlink:href="#f3_h" transform="matrix(7.1,0,0,7.1,209.1,265.8)" />
</g>
</g>
<text 
x="199" 
y="274" 
dx="0" 
class="s6_2"
>e</text>

<g clip-path="url(#c4_2)">
<g fill="#000000" >
<use xlink:href="#f1_2k" transform="matrix(7.1,0,0,7.1,216,265.8)" />
</g>
</g>
<text 
x="209" 
y="265" 
dx="0" 
class="s7_2"
></text>

<text 
x="216" 
y="265" 
dx="0" 
class="s8_2"
>x</text>

<g clip-path="url(#c0_2)">
<g fill="#000000" >
<use xlink:href="#f0_w" transform="matrix(12,0,0,12,226.8,274.4)" />
<use xlink:href="#f4_2k" transform="matrix(12,0,0,12,241.7,274.4)" />
</g>
</g>
<text 
x="226" 
y="274" 
dx="0,-0.1" 
class="s1_2"
>&lt; </text>

<text 
x="241" 
y="274" 
dx="0" 
class="s9_2"
>x</text>

<g clip-path="url(#c0_2)">
<g fill="#000000" >
<use xlink:href="#f0_f" transform="matrix(12,0,0,12,254.3,274.4)" />
<use xlink:href="#f0_l" transform="matrix(12,0,0,12,269.2,274.4)" />
<use xlink:href="#f0_2c" transform="matrix(12,0,0,12,282.9,274.4)" />
<use xlink:href="#f0_2b" transform="matrix(12,0,0,12,292.1,274.4)" />
<use xlink:href="#f0_2h" transform="matrix(12,0,0,12,301.3,274.4)" />
<use xlink:href="#f0_2e" transform="matrix(12,0,0,12,310.6,274.4)" />
<use xlink:href="#f4_29" transform="matrix(12,0,0,12,321.2,274.4)" />
</g>
</g>
<text 
x="254" 
y="274" 
dx="0,-0.1,0,0,0,0,0,0.2,0" 
class="s1_2"
>+ 1 pour </text>

<text 
x="321" 
y="274" 
dx="0" 
class="s9_2"
>m</text>

<g clip-path="url(#c0_2)">
<g fill="#000000" >
<use xlink:href="#f0_y" transform="matrix(12,0,0,12,339,274.4)" />
<use xlink:href="#f0_k" transform="matrix(12,0,0,12,353.9,274.4)" />
<use xlink:href="#f0_g" transform="matrix(12,0,0,12,363,274.4)" />
</g>
</g>
<text 
x="339" 
y="274" 
dx="0,-0.1,0,0,0.2" 
class="s1_2"
>&gt; 0, </text>

<g clip-path="url(#c5_2)">
<g fill="#000000" >
<use xlink:href="#f1_23" transform="matrix(12.1,0,0,12.1,73.5,300.7)" />
<use xlink:href="#f1_29" transform="matrix(7.1,0,0,7.1,82.7,305.3)" />
</g>
</g>
<text 
x="73" 
y="300" 
dx="0" 
class="s2_2"
>g</text>

<g clip-path="url(#c5_2)">
<g fill="#000000" >
<use xlink:href="#f1_2k" transform="matrix(12.1,0,0,12.1,100,300.7)" />
</g>
</g>
<text 
x="82" 
y="305" 
dx="0" 
class="s8_2"
>m</text>

<g clip-path="url(#c5_2)">
<g fill="#000000" >
<use xlink:href="#f3_c" transform="matrix(14.9,0,0,14.9,92.4,301)" />
</g>
</g>
<text 
x="100" 
y="300" 
dx="0" 
class="s2_2"
>x</text>

<g clip-path="url(#c5_2)">
<g fill="#000000" >
<use xlink:href="#f3_d" transform="matrix(14.9,0,0,14.9,109,301)" />
<use xlink:href="#f3_x" transform="matrix(12.1,0,0,12.1,119.7,300.7)" />
</g>
</g>
<text 
x="92" 
y="301" 
dx="0,0,3.4" 
class="s4_2"
> </text>

<g clip-path="url(#c5_2)">
<g fill="#000000" >
<use xlink:href="#f1_2k" transform="matrix(12.1,0,0,12.1,134.9,300.7)" />
</g>
</g>
<text 
x="119" 
y="300" 
dx="0" 
class="s5_2"
></text>

<g clip-path="url(#c5_2)">
<g fill="#000000" >
<use xlink:href="#f3_f" transform="matrix(12.1,0,0,12.1,147.2,300.7)" />
</g>
</g>
<text 
x="134" 
y="300" 
dx="0" 
class="s2_2"
>x</text>

<g clip-path="url(#c5_2)">
<g fill="#000000" >
<use xlink:href="#f2_l" transform="matrix(12.1,0,0,12.1,158.6,300.7)" />
</g>
</g>
<text 
x="147" 
y="300" 
dx="0" 
class="s5_2"
></text>

<text 
x="158" 
y="300" 
dx="0" 
class="s6_2"
>1</text>

<g clip-path="url(#c0_2)">
<g fill="#000000" >
<use xlink:href="#f0_2c" transform="matrix(12,0,0,12,172.7,301)" />
<use xlink:href="#f0_2b" transform="matrix(12,0,0,12,181.9,301)" />
<use xlink:href="#f0_2h" transform="matrix(12,0,0,12,191,301)" />
<use xlink:href="#f0_2e" transform="matrix(12,0,0,12,200.2,301)" />
<use xlink:href="#f4_29" transform="matrix(12,0,0,12,210.9,301)" />
</g>
</g>
<text 
x="172" 
y="300" 
dx="0,0,0,0,0" 
class="s1_2"
>pour </text>

<text 
x="210" 
y="300" 
dx="0" 
class="s9_2"
>m</text>

<g clip-path="url(#c0_2)">
<g fill="#000000" >
<use xlink:href="#f0_x" transform="matrix(12,0,0,12,228.7,301)" />
<use xlink:href="#f0_k" transform="matrix(12,0,0,12,243.5,301)" />
<use xlink:href="#f0_21" transform="matrix(12,0,0,12,257.3,301)" />
<use xlink:href="#f0_2g" transform="matrix(12,0,0,12,265.3,301)" />
</g>
</g>
<text 
x="228" 
y="300" 
dx="0,-0.1,0,0,0,-0.1,0.2" 
class="s1_2"
>= 0 et </text>

<g clip-path="url(#c6_2)">
<g fill="#000000" >
<use xlink:href="#f1_23" transform="matrix(12.2,0,0,12.1,73.5,327.1)" />
<use xlink:href="#f1_29" transform="matrix(7.1,0,0,7.1,82.8,331.7)" />
</g>
</g>
<text 
x="73" 
y="327" 
dx="0" 
class="s2_2"
>g</text>

<g clip-path="url(#c6_2)">
<g fill="#000000" >
<use xlink:href="#f1_2k" transform="matrix(12.2,0,0,12.1,100.2,327.1)" />
</g>
</g>
<text 
x="82" 
y="331" 
dx="0" 
class="s8_2"
>m</text>

<g clip-path="url(#c6_2)">
<g fill="#000000" >
<use xlink:href="#f3_c" transform="matrix(15,0,0,14.9,92.5,327.5)" />
</g>
</g>
<text 
x="100" 
y="327" 
dx="0" 
class="s2_2"
>x</text>

<g clip-path="url(#c6_2)">
<g fill="#000000" >
<use xlink:href="#f3_d" transform="matrix(15,0,0,14.9,109.2,327.5)" />
<use xlink:href="#f3_x" transform="matrix(12.2,0,0,12.1,120,327.1)" />
</g>
</g>
<text 
x="92" 
y="327" 
dx="0,0,3.3" 
class="s4_2"
> </text>

<g clip-path="url(#c6_2)">
<g fill="#000000" >
<use xlink:href="#f1_2k" transform="matrix(12.2,0,0,12.1,135.3,327.1)" />
</g>
</g>
<text 
x="120" 
y="327" 
dx="0" 
class="s5_2"
></text>

<g clip-path="url(#c6_2)">
<g fill="#000000" >
<use xlink:href="#f3_f" transform="matrix(12.2,0,0,12.1,147.6,327.1)" />
</g>
</g>
<text 
x="135" 
y="327" 
dx="0" 
class="s2_2"
>x</text>

<g clip-path="url(#c6_2)">
<g fill="#000000" >
<use xlink:href="#f2_l" transform="matrix(12.2,0,0,12.1,159.2,327.1)" />
</g>
</g>
<text 
x="147" 
y="327" 
dx="0" 
class="s5_2"
></text>

<g clip-path="url(#c6_2)">
<g fill="#000000" >
<use xlink:href="#f3_h" transform="matrix(12.2,0,0,12.1,170.7,327.1)" />
</g>
</g>
<text 
x="159" 
y="327" 
dx="0" 
class="s6_2"
>1</text>

<g clip-path="url(#c6_2)">
<g fill="#000000" >
<use xlink:href="#f1_29" transform="matrix(12.2,0,0,12.1,184.5,327.1)" />
</g>
</g>
<text 
x="170" 
y="327" 
dx="0" 
class="s5_2"
></text>

<g clip-path="url(#c6_2)">
<g fill="#000000" >
<use xlink:href="#f2_21" transform="matrix(12.2,0,0,12.1,199.9,327.1)" />
</g>
</g>
<text 
x="184" 
y="327" 
dx="0" 
class="s2_2"
>m</text>

<g clip-path="url(#c6_2)">
<g fill="#000000" >
<use xlink:href="#f3_h" transform="matrix(7.1,0,0,7.1,209.1,318.8)" />
</g>
</g>
<text 
x="199" 
y="327" 
dx="0" 
class="s6_2"
>e</text>

<g clip-path="url(#c6_2)">
<g fill="#000000" >
<use xlink:href="#f1_2k" transform="matrix(7.1,0,0,7.1,216,318.8)" />
</g>
</g>
<text 
x="209" 
y="318" 
dx="0" 
class="s7_2"
></text>

<text 
x="216" 
y="318" 
dx="0" 
class="s8_2"
>x</text>

<g clip-path="url(#c0_2)">
<g fill="#000000" >
<use xlink:href="#f0_y" transform="matrix(12,0,0,12,226.8,327.4)" />
<use xlink:href="#f4_2k" transform="matrix(12,0,0,12,241.7,327.4)" />
</g>
</g>
<text 
x="226" 
y="327" 
dx="0,-0.1" 
class="s1_2"
>&gt; </text>

<text 
x="241" 
y="327" 
dx="0" 
class="s9_2"
>x</text>

<g clip-path="url(#c0_2)">
<g fill="#000000" >
<use xlink:href="#f0_f" transform="matrix(12,0,0,12,254.3,327.4)" />
<use xlink:href="#f0_l" transform="matrix(12,0,0,12,269.2,327.4)" />
<use xlink:href="#f0_2c" transform="matrix(12,0,0,12,282.9,327.4)" />
<use xlink:href="#f0_2b" transform="matrix(12,0,0,12,292.1,327.4)" />
<use xlink:href="#f0_2h" transform="matrix(12,0,0,12,301.3,327.4)" />
<use xlink:href="#f0_2e" transform="matrix(12,0,0,12,310.6,327.4)" />
<use xlink:href="#f4_29" transform="matrix(12,0,0,12,321.2,327.4)" />
</g>
</g>
<text 
x="254" 
y="327" 
dx="0,-0.1,0,0,0,0,0,0.2,0" 
class="s1_2"
>+ 1 pour </text>

<text 
x="321" 
y="327" 
dx="0" 
class="s9_2"
>m</text>

<g clip-path="url(#c0_2)">
<g fill="#000000" >
<use xlink:href="#f0_w" transform="matrix(12,0,0,12,339,327.4)" />
<use xlink:href="#f0_k" transform="matrix(12,0,0,12,353.9,327.4)" />
<use xlink:href="#f0_i" transform="matrix(12,0,0,12,363,327.4)" />
<use xlink:href="#f0_14" transform="matrix(12,0,0,12,70.4,351.8)" />
</g>
</g>
<text 
x="339" 
y="327" 
dx="0,-0.1,0,0,0.2" 
class="s1_2"
>&lt; 0. </text>

<g clip-path="url(#c0_2)">
<g fill="#000000" >
<use xlink:href="#f0_2b" transform="matrix(12,0,0,12,83.6,351.8)" />
<use xlink:href="#f0_2a" transform="matrix(12,0,0,12,92.8,351.8)" />
<use xlink:href="#f0_1z" transform="matrix(12,0,0,12,102,351.8)" />
<use xlink:href="#f4_13" transform="matrix(12,0,0,12,114.6,351.8)" />
</g>
</g>
<text 
x="70" 
y="351" 
dx="0,0,0,0,-0.1" 
class="s1_2"
>Donc </text>

<g clip-path="url(#c0_2)">
<g fill="#000000" >
<use xlink:href="#f4_29" transform="matrix(12,0,0,12,126.9,351.8)" />
</g>
</g>
<text 
x="114" 
y="351" 
dx="0,0.1" 
class="s9_2"
>Cm</text>

<g clip-path="url(#c0_2)">
<g fill="#000000" >
<use xlink:href="#f0_21" transform="matrix(12,0,0,12,144.6,351.8)" />
<use xlink:href="#f0_2f" transform="matrix(12,0,0,12,152.7,351.8)" />
<use xlink:href="#f0_2g" transform="matrix(12,0,0,12,159.8,351.8)" />
<use xlink:href="#f0_1x" transform="matrix(12,0,0,12,169.5,351.8)" />
<use xlink:href="#f0_2h" transform="matrix(12,0,0,12,177.7,351.8)" />
<use xlink:href="#f0_20" transform="matrix(12,0,0,12,191.4,351.8)" />
<use xlink:href="#f0_21" transform="matrix(12,0,0,12,200.6,351.8)" />
<use xlink:href="#f0_2f" transform="matrix(12,0,0,12,208.6,351.8)" />
<use xlink:href="#f0_2f" transform="matrix(12,0,0,12,215.8,351.8)" />
<use xlink:href="#f0_2b" transform="matrix(12,0,0,12,222.9,351.8)" />
<use xlink:href="#f0_2h" transform="matrix(12,0,0,12,232.1,351.8)" />
<use xlink:href="#f0_2f" transform="matrix(12,0,0,12,241.2,351.8)" />
<use xlink:href="#f0_20" transform="matrix(12,0,0,12,253.1,351.8)" />
<use xlink:href="#f0_21" transform="matrix(12,0,0,12,262.3,351.8)" />
<use xlink:href="#f4_14" transform="matrix(12,0,0,12,275,351.8)" />
</g>
</g>
<text 
x="144" 
y="351" 
dx="0,-0.1,0,0,0,0,0,0,0,-0.1,0,0,0,0,0,0.2,0,-0.1" 
class="s1_2"
>est au dessous de </text>

<text 
x="275" 
y="351" 
dx="0" 
class="s9_2"
>D</text>

<g clip-path="url(#c0_2)">
<g fill="#000000" >
<use xlink:href="#f0_2c" transform="matrix(12,0,0,12,292.8,351.8)" />
<use xlink:href="#f0_2b" transform="matrix(12,0,0,12,302,351.8)" />
<use xlink:href="#f0_2h" transform="matrix(12,0,0,12,311.2,351.8)" />
<use xlink:href="#f0_2e" transform="matrix(12,0,0,12,320.3,351.8)" />
<use xlink:href="#f4_29" transform="matrix(12,0,0,12,331,351.8)" />
</g>
</g>
<text 
x="292" 
y="351" 
dx="0,0,0,0,0" 
class="s1_2"
>pour </text>

<text 
x="330" 
y="351" 
dx="0" 
class="s9_2"
>m</text>

<g clip-path="url(#c0_2)">
<g fill="#000000" >
<use xlink:href="#f0_y" transform="matrix(12,0,0,12,348.9,351.8)" />
<use xlink:href="#f0_k" transform="matrix(12,0,0,12,363.8,351.8)" />
<use xlink:href="#f0_g" transform="matrix(12,0,0,12,372.9,351.8)" />
<use xlink:href="#f0_1z" transform="matrix(12,0,0,12,70.4,372.9)" />
</g>
</g>
<text 
x="348" 
y="351" 
dx="0,-0.1,0,0,0.2" 
class="s1_2"
>&gt; 0, </text>

<g clip-path="url(#c0_2)">
<g fill="#000000" >
<use xlink:href="#f0_2b" transform="matrix(12,0,0,12,78.5,372.9)" />
<use xlink:href="#f0_2a" transform="matrix(12,0,0,12,87.6,372.9)" />
<use xlink:href="#f0_22" transform="matrix(12,0,0,12,96.8,372.9)" />
<use xlink:href="#f0_2b" transform="matrix(12,0,0,12,102.9,372.9)" />
<use xlink:href="#f0_2a" transform="matrix(12,0,0,12,112.1,372.9)" />
<use xlink:href="#f0_20" transform="matrix(12,0,0,12,121.2,372.9)" />
<use xlink:href="#f0_2h" transform="matrix(12,0,0,12,130.3,372.9)" />
<use xlink:href="#f0_21" transform="matrix(12,0,0,12,139.5,372.9)" />
<use xlink:href="#f0_1x" transform="matrix(12,0,0,12,152.2,372.9)" />
<use xlink:href="#f0_2i" transform="matrix(12,0,0,12,160.2,372.9)" />
<use xlink:href="#f0_21" transform="matrix(12,0,0,12,169.6,372.9)" />
<use xlink:href="#f0_1z" transform="matrix(12,0,0,12,177.6,372.9)" />
<use xlink:href="#f4_14" transform="matrix(12,0,0,12,190.3,372.9)" />
</g>
</g>
<text 
x="70" 
y="372" 
dx="0,-0.1,0,0,0,0,-0.1,0,0,-0.1,0,-0.1,0.2,-0.1,-0.1" 
class="s1_2"
>confondue avec </text>

<text 
x="190" 
y="372" 
dx="0" 
class="s9_2"
>D</text>

<g clip-path="url(#c0_2)">
<g fill="#000000" >
<use xlink:href="#f0_2c" transform="matrix(12,0,0,12,208.3,372.9)" />
<use xlink:href="#f0_2b" transform="matrix(12,0,0,12,217.5,372.9)" />
<use xlink:href="#f0_2h" transform="matrix(12,0,0,12,226.6,372.9)" />
<use xlink:href="#f0_2e" transform="matrix(12,0,0,12,235.8,372.9)" />
<use xlink:href="#f4_29" transform="matrix(12,0,0,12,246.6,372.9)" />
</g>
</g>
<text 
x="208" 
y="372" 
dx="0,0,0,0,0" 
class="s1_2"
>pour </text>

<text 
x="246" 
y="372" 
dx="0" 
class="s9_2"
>m</text>

<g clip-path="url(#c0_2)">
<g fill="#000000" >
<use xlink:href="#f0_x" transform="matrix(12,0,0,12,264.4,372.9)" />
<use xlink:href="#f0_k" transform="matrix(12,0,0,12,279.3,372.9)" />
<use xlink:href="#f0_21" transform="matrix(12,0,0,12,293,372.9)" />
<use xlink:href="#f0_2g" transform="matrix(12,0,0,12,301.1,372.9)" />
<use xlink:href="#f0_1x" transform="matrix(12,0,0,12,70.4,394)" />
</g>
</g>
<text 
x="264" 
y="372" 
dx="0,-0.1,0,0,0,-0.1,0.2" 
class="s1_2"
>= 0 et </text>

<g clip-path="url(#c0_2)">
<g fill="#000000" >
<use xlink:href="#f0_2h" transform="matrix(12,0,0,12,78.5,394)" />
<use xlink:href="#f0_h" transform="matrix(12,0,0,12,87.6,394)" />
<use xlink:href="#f0_20" transform="matrix(12,0,0,12,93.7,394)" />
<use xlink:href="#f0_21" transform="matrix(12,0,0,12,102.8,394)" />
<use xlink:href="#f0_2f" transform="matrix(12,0,0,12,110.9,394)" />
<use xlink:href="#f0_2f" transform="matrix(12,0,0,12,118,394)" />
<use xlink:href="#f0_2h" transform="matrix(12,0,0,12,125.2,394)" />
<use xlink:href="#f0_2f" transform="matrix(12,0,0,12,134.3,394)" />
<use xlink:href="#f0_20" transform="matrix(12,0,0,12,146.1,394)" />
<use xlink:href="#f0_21" transform="matrix(12,0,0,12,155.3,394)" />
<use xlink:href="#f4_14" transform="matrix(12,0,0,12,167.9,394)" />
</g>
</g>
<text 
x="70" 
y="393" 
dx="0,-0.1,0,-0.1,0,-0.1,0,0,0,0.1,0,0,-0.1" 
class="s1_2"
>au-dessus de </text>

<text 
x="167" 
y="393" 
dx="0" 
class="s9_2"
>D</text>

<g clip-path="url(#c0_2)">
<g fill="#000000" >
<use xlink:href="#f0_2c" transform="matrix(12,0,0,12,185.8,394)" />
<use xlink:href="#f0_2b" transform="matrix(12,0,0,12,194.9,394)" />
<use xlink:href="#f0_2h" transform="matrix(12,0,0,12,204.1,394)" />
<use xlink:href="#f0_2e" transform="matrix(12,0,0,12,213.4,394)" />
<use xlink:href="#f4_29" transform="matrix(12,0,0,12,224.1,394)" />
</g>
</g>
<text 
x="185" 
y="393" 
dx="0,0,0,0.2,0" 
class="s1_2"
>pour </text>

<text 
x="224" 
y="393" 
dx="0" 
class="s9_2"
>m</text>

<g clip-path="url(#c0_2)">
<g fill="#000000" >
<use xlink:href="#f0_w" transform="matrix(12,0,0,12,241.9,394)" />
<use xlink:href="#f0_k" transform="matrix(12,0,0,12,256.9,394)" />
<use xlink:href="#f0_i" transform="matrix(12,0,0,12,266,394)" />
</g>
</g>
<text 
x="241" 
y="393" 
dx="0,-0.1,0.2,0,0" 
class="s1_2"
>&lt; 0. </text>


<defs>
	<path d="M484.8,52.8c0,0,135.1,0,206,60.8c0,0,70.9,60.9,70.9,150.5c0,0,0,58.9,-32.1,113.4c0,0,-32.2,54.5,-104.5,85.9c0,0,-72.4,31.4,-179.1,31.4c0,0,-46.3,0,-79.1,-1.5c0,0,-32.9,-1.5,-53,-5.3l0,-415c0,0,86.5,-20.2,170.9,-20.2ZM454.9,546.6c0,0,109,0,163.8,23.5c0,0,54.9,23.5,84.3,72c0,0,29.4,48.5,29.4,105.9c0,0,0,88.8,-72.5,151.5c0,0,-72.5,62.6,-211.5,62.6c0,0,-74.7,0,-134.5,-16.4l0,-388.7c0,0,27.6,-5.2,63,-7.8c0,0,35.5,-2.6,78,-2.6ZM24.5,0l0,27.4l38.1,0c0,0,63.6,0,91.3,40.3c0,0,17.2,26.1,17.2,111.2l0,654.2c0,0,0,94,-21.7,118.7c0,0,-29.2,32.8,-86.8,32.8l-38.1,0l0,27.4l437.2,0c0,0,122.4,0,196.3,-17.9c0,0,111.9,-26.9,170.9,-95.1c0,0,58.9,-68.3,58.9,-157.1c0,0,0,-76.1,-46.3,-136.2c0,0,-46.2,-60.1,-136.6,-89.2c0,0,105.2,-22.4,157.5,-71.6c0,0,72.4,-68.7,72.4,-168c0,0,0,-75.4,-47.8,-144.4c0,0,-47.8,-69.1,-130.9,-100.8C756.1,31.7,672.9,0,502,0Z" 
	id="f0_12"
	transform="scale(0.001,-0.001)" />

	<path d="M191.2,-20.4c0,0,-34.3,0,-58.5,24.1c0,0,-24.2,24.2,-24.2,58.4c0,0,0,35,24.2,58.8c0,0,24.2,23.8,58.5,23.8c0,0,34.9,0,58.7,-24.2c0,0,23.9,-24.2,23.9,-58.4c0,0,0,-34.2,-24.2,-58.4c0,0,-24.2,-24.1,-58.4,-24.1Z" 
	id="f0_i"
	transform="scale(0.001,-0.001)" />

	<path d="M196.5,0l0,27.4c0,0,71.8,1.4,92.7,12.2c0,0,20.9,10.9,29.2,29.1c0,0,8.2,18.3,8.2,109.3l0,546.6c0,0,0,110,-7.5,141.2c0,0,-5.2,23.8,-19,35c0,0,-13.8,11.2,-33.2,11.2c0,0,-27.6,0,-76.8,-23.2l-11.2,23.5l246.2,120.2l24.7,0l0,-854.5c0,0,0,-85,7,-105.9c0,0,7.1,-20.9,29.4,-32.1c0,0,22.3,-11.2,90.7,-12.6L576.9,0Z" 
	id="f0_l"
	transform="scale(0.001,-0.001)" />

	<path d="M342.2,-20.4c0,0,-116.3,0,-202.9,97.5c0,0,-86.5,97.6,-86.5,263.8c0,0,0,160.9,95.8,261.5c0,0,95.9,100.6,230.1,100.6c0,0,100.7,0,165.6,-53.4c0,0,64.9,-53.4,64.9,-110.9c0,0,0,-28.4,-18.3,-45.9c0,0,-18.3,-17.6,-51,-17.6c0,0,-44,0,-66.3,28.4c0,0,-12.7,15.7,-16.8,59.8c0,0,-4.1,44.2,-30.2,67.3c0,0,-26.1,22.5,-72.2,22.5c0,0,-74.6,0,-120,-55.2c0,0,-60.4,-73,-60.4,-192.9c0,0,0,-122.2,60.1,-215.7c0,0,60,-93.6,162.1,-93.6c0,0,73.1,0,131.2,50.1c0,0,41,34.4,79.8,125l21.5,-10c0,0,-27.6,-135.5,-108.2,-208.5c0,0,-80.5,-72.8,-178.3,-72.8Z" 
	id="f0_1z"
	transform="scale(0.001,-0.001)" />

	<path d="M34.6,-326.5l0,28.4c0,0,92.1,51.4,151.6,138.9c0,0,59.6,87.6,88.4,222.7c0,0,28.9,135.2,28.9,281.9c0,0,0,158.8,-24.8,289.9c0,0,-18.7,102.8,-46.8,164.6c0,0,-28.1,61.8,-74.5,119.2c0,0,-46.4,57.4,-122.8,109.5l0,31.3c0,0,113.3,-55.9,188.6,-131.9c0,0,106.7,-108.9,164.8,-255.3c0,0,58.2,-146.5,58.2,-305.3c0,0,0,-231.1,-113.7,-421.4c0,0,-113.7,-190.5,-297.9,-272.5Z" 
	id="f0_d"
	transform="scale(0.001,-0.001)" />

	<path d="M545.5,30.3c0,0,142.4,0,235.2,111.1c0,0,92.9,111,92.9,350.2c0,0,0,259.4,-102.2,386.8c0,0,-82,101.3,-226.6,101.3c0,0,-135.8,0,-217.8,-100.6c0,0,-102.1,-125.2,-102.1,-366.6c0,0,0,-247.4,105.9,-380.8c0,0,81.2,-101.4,214.7,-101.4ZM547,-22.4c0,0,-208.9,0,-351.1,148.2c0,0,-142.1,148.4,-142.1,383.9c0,0,0,240.8,164.1,392.8c0,0,142.5,132,341,132c0,0,197,0,341.4,-149.5c0,0,144.4,-149.4,144.4,-373c0,0,0,-230.4,-145.5,-382.4c0,0,-145.5,-152,-352.2,-152Z" 
	id="f0_1f"
	transform="scale(0.001,-0.001)" />

	<path d="M20.5,0l0,26.4l15,0c0,0,52.1,0,70.4,26.6c0,0,18.3,26.6,18.3,101.5l0,253.3c0,0,0,123.6,-5.6,150.5c0,0,-5.6,27,-17.1,36.7c0,0,-11.5,9.7,-30.8,9.7c0,0,-20.8,0,-49.8,-11.2L9.8,619.9L216.2,703l32.2,0l0,-144.8c0,0,119.7,144.8,228.4,144.8c0,0,55.8,0,96,-27.9c0,0,40.2,-28,64,-92.1c0,0,16.4,-44.7,16.4,-137.1l0,-291.4c0,0,0,-65.2,10.4,-88.4c0,0,8.2,-18.7,26.5,-29.2c0,0,18.3,-10.5,67.7,-10.5L757.8,0L418.5,0l0,26.4l14.2,0c0,0,47.8,0,66.8,14.6c0,0,19,14.6,26.5,43.1c0,0,3,11.2,3,70.4l0,279.3c0,0,0,93.1,-24.1,135.2c0,0,-24,42.1,-81.1,42.1c0,0,-88.1,0,-175.4,-96.9l0,-359.7c0,0,0,-69.7,8.2,-86.2c0,0,10.5,-21.7,28.8,-31.8c0,0,18.3,-10.1,74.4,-10.1L359.8,0Z" 
	id="f0_2a"
	transform="scale(0.001,-0.001)" />

	<path d="M285.9,72.4c0,0,56.7,0,149.2,74.5l0,259.9c0,0,-112.7,-44.7,-145.5,-63.3c0,0,-59,-32.8,-84.3,-68.5c0,0,-25.4,-35.8,-25.4,-78.3c0,0,0,-53.6,32.1,-88.9c0,0,32.1,-35.4,73.9,-35.4Zm-68.6,-86c0,0,-70.8,0,-116.7,48.3c0,0,-45.8,48.5,-45.8,127.4c0,0,0,50,22.3,86.5c0,0,30.6,50.6,106.3,95.3c0,0,75.7,44.7,251.7,108.8l0,26.7c0,0,0,101.9,-32.2,139.8c0,0,-32.3,37.9,-93.8,37.9c0,0,-46.7,0,-74.1,-25.3c0,0,-28.2,-25.2,-28.2,-57.9l1.5,-43c0,0,0,-34.2,-17.7,-52.8c0,0,-17.7,-18.5,-46.3,-18.5c0,0,-27.8,0,-45.5,19.3c0,0,-17.6,19.4,-17.6,52.9c0,0,0,64,65.6,117.6c0,0,65.6,53.6,184.1,53.6c0,0,91,0,149.1,-30.5c0,0,44,-23.1,64.9,-72.3c0,0,13.4,-32,13.4,-131l0,-231.6c0,0,0,-97.6,3.7,-119.6c0,0,3.8,-21.9,12.4,-29.4c0,0,8.6,-7.4,19.8,-7.4c0,0,11.9,0,20.9,5.2c0,0,15.7,9.7,60.5,54.4l0,-41.7c0,0,-83.6,-111.7,-159.8,-111.7c0,0,-36.6,0,-58.3,25.1c0,0,-21.6,25.2,-22.4,85.9c0,0,-105.1,-80.9,-132,-93.5c0,0,-40.3,-18.5,-85.8,-18.5Z" 
	id="f0_1x"
	transform="scale(0.001,-0.001)" />

	<path d="M213.3,-20.4c0,0,-34.1,0,-58.2,24c0,0,-24.1,24,-24.1,58.1c0,0,0,34.1,24.1,58.6c0,0,24.1,24.4,58.2,24.4c0,0,34.8,0,58.9,-24.4c0,0,24.1,-24.5,24.1,-58.6c0,0,0,-34.1,-24.5,-58.1c0,0,-24.4,-24,-58.5,-24Zm2.3,559.2c0,0,-34.3,0,-58.4,24.2c0,0,-24.2,24.1,-24.2,58.4c0,0,0,34.2,24.2,58.4c0,0,24.1,24.2,58.4,24.2c0,0,34.2,0,58.4,-24.2c0,0,24.2,-24.2,24.2,-58.4c0,0,0,-34.3,-24.2,-58.4c0,0,-24.2,-24.2,-58.4,-24.2Z" 
	id="f0_u"
	transform="scale(0.001,-0.001)" />

	<path d="M311.8,78.2c0,0,41.8,0,92.9,27.6c0,0,51.1,27.6,99.6,76l82,460.6c0,0,-17.9,4.4,-32,8.1c0,0,-14.2,3.8,-28,6c0,0,-13.8,2.2,-29.5,3.4c0,0,-15.6,1.1,-35.8,1.1c0,0,-74.6,0,-138.7,-55.9c0,0,-64.2,-55.9,-100.7,-150.5c0,0,-36.6,-94.7,-36.6,-201.2c0,0,0,-80.5,33.2,-127.8c0,0,33.2,-47.4,93.6,-47.4ZM249.2,-325.5c0,0,-65.7,0,-135.8,15.3c0,0,-70.1,15.3,-112.7,37.7l13.5,169.9l33.5,0l26.9,-93.7c0,0,60.4,-58.8,173.8,-58.8c0,0,91,0,144.7,47.5c0,0,53.7,47.4,71.7,152.1l29,175.5c0,0,-53.7,-58.8,-119.7,-96.7c0,0,-66,-37.9,-119,-37.9c0,0,-94.7,0,-149.2,66.7c0,0,-54.4,66.7,-54.4,182.2c0,0,0,130.5,57,242.7c0,0,57.1,112.2,154.5,177.4c0,0,97.3,65.2,211.5,65.2c0,0,44.7,0,116.7,-8.5c0,0,72,-8.6,127.9,-22.1L593.8,-26.1c0,0,-27.6,-157.5,-107.8,-228.5c0,0,-80.2,-70.9,-236.8,-70.9Z" 
	id="f1_23"
	transform="scale(0.001,-0.001)" />

	<path d="M377.5,45c0,0,98.4,0,144.7,108.4c0,0,46.2,108.4,46.2,351.3c0,0,0,240,-45.5,345.8c0,0,-45.5,105.8,-145.4,105.8c0,0,-97,0,-139.5,-99.9c0,0,-42.6,-99.8,-42.6,-351.7c0,0,0,-253.3,43.3,-356.5C238.7,148.2,282,45,377.5,45Zm0,-59.6c0,0,-158.2,0,-238.7,132.7c0,0,-80.6,132.7,-80.6,386.3c0,0,0,248.3,80.6,379.9c0,0,80.5,131.6,244.6,131.6c0,0,158.2,0,240.2,-130.1c0,0,82.1,-130.1,82.1,-381.4c0,0,0,-519,-328.2,-519Z" 
	id="f2_k"
	transform="scale(0.001,-0.001)" />

	<path d="M-6.6,0c0,0,-11.9,9.6,-11.9,32c0,0,0,20.9,23.3,51.5c0,0,23.5,30.6,78.8,81.3L287.2,354.3l-128.3,295L79.1,667.8L85,701.1l185,0l108.2,-267l92.5,88c0,0,47.8,45.5,67.2,71.6c0,0,19.4,26.1,19.4,44.7c0,0,0,7.5,-6.7,13.1c0,0,-6.8,5.6,-37.4,16l6,33.6l132,0c0,0,15.7,-12,15.7,-32.1c0,0,0,-44,-102.9,-141.7L404.3,377.4L547.6,48.9L634.1,33.3L628.1,0l-191,0L312.6,298.3L185,176c0,0,-41,-39.5,-60,-65.3c0,0,-19.1,-25.7,-19.1,-48.1c0,0,0,-20.9,31.4,-29.1L131.3,0Z" 
	id="f1_2k"
	transform="scale(0.001,-0.001)" />

	<path d="M411.6,-329.4c0,0,-194.6,96.9,-303.1,284.4C108.5,-45,0,142.3,0,365.2c0,0,0,231.8,114.1,422.2c0,0,114.1,190.5,297.5,272.5l0,-31.3c0,0,-91.8,-50.7,-150.7,-138.6c0,0,-59,-88,-88.1,-223.3c0,0,-29.1,-135.3,-29.1,-282.1c0,0,0,-166.2,26.9,-300.4c0,0,26.9,-134.1,82.1,-222.4c0,0,55.2,-88.3,158.9,-159.1l0,-32.1Z" 
	id="f3_c"
	transform="scale(0.001,-0.001)" />

	<path d="M33.6,-329.4l0,32.1c0,0,92.5,50.6,151.5,138.6c0,0,58.9,88,87.7,222.8c0,0,28.7,134.9,28.7,282.5c0,0,0,165.4,-26.5,300c0,0,-26.5,134.5,-82.1,222.8c0,0,-55.6,88.4,-159.3,159.2l0,31.3c0,0,194.6,-96.2,303.1,-283.6c0,0,108.5,-187.5,108.5,-410.4c0,0,0,-231.8,-114.1,-422.5c0,0,-114,-190.8,-297.5,-272.8Z" 
	id="f3_d"
	transform="scale(0.001,-0.001)" />

	<path d="M0,214l0,74l783,0l0,-74ZM0,493l0,73l783,0l0,-73Z" 
	id="f3_x"
	transform="scale(0.001,-0.001)" />

	<path d="M354,0l0,354L0,354l0,73l354,0l0,357l73,0l0,-357l355,0l0,-73l-355,0L427,0Z" 
	id="f3_f"
	transform="scale(0.001,-0.001)" />

	<path d="M134.3,0l0,39.5L339.4,59.6l0,816.5L137.3,803.7l0,39.6l291.6,165.8l38.8,0l0,-949.5L672.1,39.5L672.1,0Z" 
	id="f2_l"
	transform="scale(0.001,-0.001)" />

	<path d="M58.2,-234.6l0,57.7c0,0,131.3,41.6,131.3,124.8c0,0,0,14.9,-11.2,26.9c0,0,-11.2,11.9,-38.8,26c0,0,-50.7,26.1,-50.7,73.8c0,0,0,40.3,25.3,61.6c0,0,25.4,21.2,64.9,21.2c0,0,47.8,0,77.2,-34.3c0,0,29.5,-34.3,29.5,-86.4c0,0,0,-102.1,-59.3,-171c0,0,-59.3,-68.9,-168.2,-100.3Z" 
	id="f2_g"
	transform="scale(0.001,-0.001)" />

	<path d="M495.3,412.6c0,0,0,133.4,-34.3,190.4c0,0,-34.3,57,-105.2,57c0,0,-77.5,0,-118.9,-62.6c0,0,-41.5,-62.6,-41.5,-184.8ZM374.5,-14.6c0,0,-163.4,0,-239.1,87.9c0,0,-75.7,88,-75.7,282.5c0,0,0,183.4,76.8,273.6c0,0,76.9,90.2,219.3,90.2c0,0,269.3,0,269.3,-305.5l0,-61.1L194,353l0,-13.4c0,0,0,-102.7,22.7,-159.6c0,0,22.8,-56.9,70.1,-86.7c0,0,47.4,-29.7,124.2,-29.7c0,0,40.3,0,95.5,6.7c0,0,55.2,6.7,91,14.9l0,-41.9c0,0,-35.8,-23.4,-97.3,-40.7c0,0,-61.6,-17.2,-125.7,-17.2Z" 
	id="f2_21"
	transform="scale(0.001,-0.001)" />

	<path d="M0,355l0,75l783,0l0,-75Z" 
	id="f3_h"
	transform="scale(0.001,-0.001)" />

	<path d="M249.2,-14.6c0,0,-71.7,0,-107.1,42.4c0,0,-35.4,42.5,-35.4,119.3l0,491.4l-91.8,0l0,33.5l93.3,29.1L183.5,860l47,0l0,-158.9l160.4,0l0,-62.6l-160.4,0l0,-477.4c0,0,0,-48.4,22,-73c0,0,22,-24.5,57.8,-24.5c0,0,43.3,0,105.2,11.9l0,-49.1c0,0,-26.1,-17.9,-75.3,-29.4c0,0,-49.3,-11.6,-91,-11.6Z" 
	id="f2_2g"
	transform="scale(0.001,-0.001)" />

	<path d="M191,-21.4c0,0,-38.8,0,-64.5,26.8c0,0,-25.8,26.9,-25.8,63.5c0,0,0,38.2,26.1,64.3c0,0,26.1,26.2,64.2,26.2c0,0,38,0,64.1,-26.2c0,0,26.1,-26.1,26.1,-64.3c0,0,0,-36.6,-25.7,-63.5c0,0,-25.7,-26.8,-64.5,-26.8Z" 
	id="f2_i"
	transform="scale(0.001,-0.001)" />

	<path d="M479.1,469.3c0,0,-3.7,65.6,-15.7,92.5c0,0,-18.6,41.7,-55.6,65.6c0,0,-37,23.8,-77.4,23.8c0,0,-62,0,-110.9,-48.1c0,0,-49,-48.1,-57.2,-133.8ZM354.9,-20.4c0,0,-123,0,-210.6,95.7c0,0,-87.6,95.7,-87.6,257.5c0,0,0,175.2,89.9,273.2c0,0,89.8,98,225.5,98c0,0,114.8,0,188.7,-75.6c0,0,73.8,-75.5,73.8,-202.1l-472.3,0c0,0,-0.7,-152.3,73.8,-238.9c0,0,74.6,-86.7,175.2,-86.7c0,0,67.1,0,116.7,36.9c0,0,49.6,36.9,83.1,126.4l23.5,-14.9c0,0,-15.7,-102.1,-91,-185.8c0,0,-75.3,-83.7,-188.7,-83.7Z" 
	id="f0_21"
	transform="scale(0.001,-0.001)" />

	<path d="M399,61.6c0,0,67.7,0,131,67.8l0,352c0,0,-4.5,50.6,-26.8,92.4c0,0,-22.3,41.8,-59.2,63c0,0,-36.8,21.3,-71.8,21.3c0,0,-65.4,0,-116.8,-58.9c0,0,-67.7,-77.6,-67.7,-226.7c0,0,0,-150.6,65.5,-230.7c0,0,65.5,-80.2,145.8,-80.2Zm-69.5,-82c0,0,-111.7,0,-195.2,93.4c0,0,-83.5,93.6,-83.5,240.4c0,0,0,146.8,92.4,268.7c0,0,92.4,121.9,237.7,121.9c0,0,90.2,0,149.1,-57.1l0,126.6c0,0,0,116.8,-5.6,143.6c0,0,-5.7,26.9,-17.6,36.5c0,0,-12,9.7,-29.9,9.7c0,0,-19.5,0,-51.6,-11.9l-9.7,26.4l203.9,83.1l33.7,0l0,-791c0,0,0,-119.9,5.6,-146.3c0,0,5.6,-26.4,17.9,-36.9c0,0,12.3,-10.4,28.8,-10.4c0,0,20.2,0,53.8,12.7l8.3,-26.4l-203.3,-83l-34.3,0l0,97.7C530,77.3,480,25,432.3,2.2c0,0,-47.7,-22.6,-102.8,-22.6Z" 
	id="f0_20"
	transform="scale(0.001,-0.001)" />

	<path d="M478.9,469.2c0,0,-3.7,65.7,-15.6,92.5c0,0,-18.7,41.8,-55.6,65.7c0,0,-36.9,23.8,-77.2,23.8c0,0,-61.9,0,-110.8,-48.1c0,0,-48.9,-48.1,-57.1,-133.9ZM355.1,-20.8c0,0,-123.1,0,-210.7,95.8c0,0,-87.7,95.8,-87.7,257.7c0,0,0,175.3,89.9,273.4c0,0,89.9,98.1,225.6,98.1c0,0,114.9,0,188.8,-75.7c0,0,73.8,-75.7,73.8,-202.5l-472.2,0c0,0,-0.7,-152.2,73.9,-238.8c0,0,74.6,-86.5,175.3,-86.5c0,0,67.1,0,116.7,36.9c0,0,49.6,37,83.2,126.5l23.1,-14.9c0,0,-15.6,-102.2,-91,-186.1c0,0,-75.3,-83.9,-188.7,-83.9ZM331.4,779.3l78.3,257.4l167.1,0L356.7,779.3Z" 
	id="f0_35"
	transform="scale(0.001,-0.001)" />

	<path d="M292,-20.4c0,0,-57.5,0,-99.7,33.1c0,0,-42.1,33.1,-58.5,85.3c0,0,-16.5,52.2,-16.5,147.6l0,304.9c0,0,0,49.1,-10.4,68c0,0,-10.4,18.9,-30.9,29.1c0,0,-19,9.5,-68.5,9.5c-1.8,0,-3.6,0,-5.5,0l0,26.4l239.5,0l0,-457.1c0,0,0,-95.4,33.2,-125.2c0,0,33.2,-29.8,80.1,-29.8c0,0,32.1,0,72.7,20.1c0,0,40.7,20.1,96.6,76.8l0,387.1c0,0,0,58.7,-21.4,79.5c0,0,-21.4,20.7,-89.1,22.2l0,26.4l233.7,0l0,-414.6c0,0,0,-118.7,5.6,-145.2c0,0,5.6,-26.5,18,-36.9c0,0,12.3,-10.5,28.8,-10.5c0,0,23.2,0,52.5,12.7L762.7,62.6l-204.9,-83l-33.7,0l0,144.7c0,0,-88.1,-95.6,-134.3,-120.2c0,0,-46.3,-24.5,-97.8,-24.5Z" 
	id="f0_2h"
	transform="scale(0.001,-0.001)" />

	<path d="M54.8,0l0,26.4c0,0,50,0,67.2,9.7c0,0,17.2,9.8,27.3,32.2c0,0,10.1,22.5,10.1,86.2l0,263c0,0,0,111.6,-6.7,144.6c0,0,-5.2,24,-16.3,33.3c0,0,-11.2,9.3,-30.5,9.3c0,0,-20.8,0,-50.5,-11.2L45,619.9L250.7,703l32.9,0l0,-548.5c0,0,0,-64.4,9.3,-85.8c0,0,9.3,-21.3,27.6,-31.8c0,0,18.2,-10.5,66.7,-10.5L387.2,0Zm167,909.3c0,0,-31.3,0,-53.7,22.4c0,0,-22.4,22.4,-22.4,53.8c0,0,0,31.3,22,53.4c0,0,22,22,54.1,22c0,0,31.4,0,53.4,-22c0,0,22,-22.1,22,-53.4c0,0,0,-31.4,-22,-53.8c0,0,-22,-22.4,-53.4,-22.4Z" 
	id="f0_25"
	transform="scale(0.001,-0.001)" />

	<path d="M254.7,-10.6c0,0,-34.3,0,-67.2,18.9c0,0,-32.9,19,-48.6,54.4c0,0,-15.7,35.5,-15.7,109.3l0,459.7l-108.5,0l0,24.4c0,0,41.2,16.4,84.2,55.5c0,0,43.1,39.1,76.9,92.9c0,0,17.3,28.4,48.1,103.9l23.5,0l0,-224.9l159.6,0l0,-51.8l-159.6,0l0,-443.6c0,0,0,-66.5,18.9,-89.6c0,0,18.9,-23.2,48.6,-23.2c0,0,24.5,0,47.5,15.3c0,0,23.1,15.4,35.7,45.3l29.3,0c0,0,-26.2,-73,-74,-109.8c0,0,-47.8,-36.7,-98.7,-36.7Z" 
	id="f0_2g"
	transform="scale(0.001,-0.001)" />

	<path d="M23.5,0l0,26.4c0,0,46.9,0,65.6,10.1c0,0,18.6,10.1,28.3,32.2c0,0,9.7,22.1,9.7,85.8l0,261.1c0,0,0,112.9,-6.7,145.8c0,0,-5.3,24.7,-16.5,34c0,0,-11.3,9.3,-30.7,9.3c0,0,-21,0,-50.2,-11.2L11.7,619.9L219,703l32.3,0l0,-145.8c0,0,74.5,74.8,87.9,86c0,0,33.5,28.4,72.2,44.1c0,0,38.7,15.7,76.7,15.7c0,0,64.1,0,110.3,-37.4c0,0,46.1,-37.4,61.8,-108.4c0,0,76.8,89.7,129.7,117.8c0,0,53,28,108.9,28c0,0,54.4,0,96.5,-27.9c0,0,42.2,-28,66.8,-91.3c0,0,16.4,-43.3,16.4,-135.7l0,-293.6c0,0,0,-64.4,9.7,-88.4c0,0,7.4,-16.5,27.5,-28.1c0,0,20.1,-11.6,65.5,-11.6l0,-26.4L843.8,0l0,26.4l14.2,0c0,0,44.1,0,68.7,17.2c0,0,17.1,12,24.6,38.2c0,0,3,12.8,3,72.7l0,293.3c0,0,0,83.4,-20.1,117.6c0,0,-29,47.7,-93.1,47.7c0,0,-39.4,0,-79.3,-19.8c0,0,-39.8,-19.7,-96.4,-73.3l-1.5,-8.2l2,-32.1l0,-325.2c0,0,0,-70.4,7.7,-87.7c0,0,7.8,-17.2,29.3,-28.8c0,0,21.5,-11.6,73.5,-11.6L776.4,0L431.2,0l0,26.4c0,0,56.4,0,77.5,13.5c0,0,21.1,13.5,29.3,40.4c0,0,3.7,12.8,3.7,74.2l0,293.3c0,0,0,83.3,-24.5,120.1c0,0,-32.7,48.1,-91.4,48.1c0,0,-40.1,0,-79.5,-21.8c0,0,-61.6,-33,-95,-74.2l0,-365.5c0,0,0,-67.4,9.2,-87.7c0,0,9.3,-20.2,27.5,-30.3c0,0,18.2,-10.1,73.8,-10.1L361.8,0Z" 
	id="f0_29"
	transform="scale(0.001,-0.001)" />

	<path d="M383.6,85.1c0,0,44.1,0,78.4,19c0,0,34.4,19,68,62.2l0,320.3c0,0,0,55.8,-14.6,87.9c0,0,-14.5,32,-51.9,54.4c0,0,-37.3,22.3,-84.4,22.3c0,0,-83.6,0,-143.3,-70.8c0,0,-59.8,-70.7,-59.8,-214.5c0,0,0,-137.8,60.9,-209.3c0,0,60.8,-71.5,146.7,-71.5Zm35.9,-411.6l0,26.4l14.2,0c0,0,41.8,0,63.4,12.1c0,0,15,8.3,23.9,29.8c0,0,9,21.5,9,83.3l0,294.3C530,119.4,462.1,38.5,411.3,9c0,0,-50.7,-29.4,-105.2,-29.4c0,0,-99.3,0,-177.3,90c0,0,-78,90.2,-78,241.5c0,0,0,173.6,103,282.7c0,0,102.9,109.2,248.3,109.2c0,0,42.6,0,78.4,-11.8c0,0,35.8,-11.9,64.1,-35.5c0,0,43.4,20.7,83.1,47.3l25.5,0l0,-877.9c0,0,0,-66.4,8.8,-85.2c0,0,8.9,-18.9,27.9,-29.4c0,0,18.9,-10.6,73.7,-10.6l0,-26.4Z" 
	id="f0_2d"
	transform="scale(0.001,-0.001)" />

	<path d="M57.7,0l0,26.4c0,0,47.4,0,64.8,9.7c0,0,17.3,9.8,27.1,32.2c0,0,9.8,22.5,9.8,86.2l0,620.9c0,0,0,115.6,-5.2,142.1c0,0,-5.3,26.5,-16.8,36.1c0,0,-11.6,9.7,-29.5,9.7c0,0,-19.4,0,-49.2,-11.9L46,977.8l203.9,83.1l33.7,0l0,-906.4c0,0,0,-64.4,9.3,-85.4c0,0,9.3,-21,28.7,-31.8c0,0,19.4,-10.9,72.4,-10.9L394,0Z" 
	id="f0_28"
	transform="scale(0.001,-0.001)" />

	<path d="M405.9,32.3c0,0,72.3,0,119.2,59.6c0,0,47,59.5,47,204.8c0,0,0,181.7,-78.3,285.9c0,0,-52.9,71.5,-134.8,71.5c0,0,-39.5,0,-79.4,-23.4c0,0,-39.8,-23.5,-64.4,-82.3c0,0,-24.6,-58.9,-24.6,-151.2c0,0,0,-149,59.2,-256.9c0,0,59.3,-108,156.1,-108Zm-32,-52.7c0,0,-154.4,0,-245.3,122.8c0,0,-76.8,103.6,-76.8,232.5c0,0,0,93.9,46.6,186.7c0,0,46.6,92.7,122.7,137.1c0,0,76,44.3,161,44.3c0,0,155,0,249,-117.7c0,0,79.7,-100.6,79.7,-231c0,0,0,-91.7,-43.9,-185.6c0,0,-44,-93.9,-121.2,-141.5c0,0,-77.1,-47.6,-171.8,-47.6Z" 
	id="f0_2b"
	transform="scale(0.001,-0.001)" />

	<path d="M16.6,0l0,26.4c0,0,52.3,0,77.7,16.6c0,0,18.7,12,26.1,38.4c0,0,3.8,12.8,3.8,73.1l0,264c0,0,0,119.7,-4.8,142.5c0,0,-4.9,22.8,-17.9,33.3c0,0,-13,10.4,-32.3,10.4c0,0,-23,0,-52,-11.2L9.8,619.9L216.9,703l31.5,0l0,-154c0,0,85.5,154,175.6,154c0,0,40.9,0,67.7,-25c0,0,26.8,-25.1,26.8,-58c0,0,0,-29.1,-19.3,-49.3c0,0,-19.4,-20.2,-46.2,-20.2c0,0,-26.1,0,-58.4,25.9c0,0,-32.4,25.9,-48.1,25.9c0,0,-13.3,0,-29,-14.9c0,0,-33.4,-30.7,-69.1,-101l0,-327c0,0,0,-56.6,14.1,-85.7c0,0,9.7,-20.1,34.3,-33.7c0,0,24.6,-13.6,70.8,-13.6L367.6,0Z" 
	id="f0_2e"
	transform="scale(0.001,-0.001)" />

	<path d="M396.7,34.2c0,0,67.6,0,125.8,74.4c0,0,58.3,74.4,58.3,216.4c0,0,0,130.9,-58.3,201.2c0,0,-58.2,70.3,-132.5,70.3c0,0,-39.3,0,-78.7,-20.1c0,0,-29.6,-14.9,-75.7,-59.5l0,-407.5c0,0,37.9,-37.2,78.3,-56.2c0,0,40.5,-19,82.8,-19ZM358.1,-20.4c0,0,-59.6,0,-121.1,21.6c0,0,-61.5,21.6,-125.5,65l0,707.3c0,0,0,116.6,-5.6,143.5c0,0,-5.6,26.9,-17.5,36.6c0,0,-11.9,9.7,-29.8,9.7c0,0,-20.8,0,-52.1,-11.9L-3.8,977.8L202,1060.9l33.6,0l0,-496.4c0,0,98.9,138.5,213.4,138.5c0,0,104.8,0,182.8,-89.8c0,0,78.1,-89.8,78.1,-245.5c0,0,0,-181.8,-120.8,-292.9c0,0,-103.5,-95.2,-231,-95.2Z" 
	id="f0_1y"
	transform="scale(0.001,-0.001)" />

	<path d="M33.2,0l0,27.3c0,0,263.5,240.3,371,392.6c0,0,107.5,152.3,107.5,278.3c0,0,0,96.2,-59,158.1c0,0,-58.9,61.8,-141,61.8c0,0,-74.6,0,-133.9,-43.5c0,0,-59.3,-43.5,-87.6,-127.5l-27.6,0c0,0,18.6,137.8,95.7,211.6c0,0,77.2,73.8,192.7,73.8c0,0,123,0,205.4,-79.1c0,0,82.4,-79.1,82.4,-186.5c0,0,0,-76.9,-35.9,-153.7c0,0,-55.2,-120.8,-179,-255.9c0,0,-185.8,-203,-233,-244.9l264.6,0c0,0,80.7,0,113.2,6c0,0,32.5,6,58.7,24.2c0,0,26.1,18.3,45.6,51.9l27.3,0L629.5,0Z" 
	id="f0_m"
	transform="scale(0.001,-0.001)" />

	<path d="M312.2,-20.4c0,0,-62.7,0,-143.3,22.6c0,0,-24.6,7.6,-40.3,7.6c0,0,-17.2,0,-26.9,-19.5l-24.5,0l0,243.4l24.5,0c0,0,20.9,-104.4,79.9,-157.3c0,0,59,-52.9,132.1,-52.9c0,0,51.6,0,84.1,30.1c0,0,32.4,30.2,32.4,72.6c0,0,0,51.4,-36.2,86.4c0,0,-36.1,35.1,-144.4,88.6c0,0,-108.2,53.6,-141.8,96.8c0,0,-33.5,42.5,-33.5,107.4c0,0,0,84.3,57.8,140.9c0,0,57.8,56.7,149.6,56.7c0,0,40.3,0,97.7,-17.1c0,0,38.1,-11.2,50.7,-11.2c0,0,12,0,18.7,5.2c0,0,6.7,5.2,15.7,23.1l24.4,0l0,-232.7l-24.4,0c0,0,-28.4,109.7,-72.8,149.2c0,0,-44.4,39.5,-113,39.5c0,0,-52.2,0,-84.3,-27.5c0,0,-32.1,-27.6,-32.1,-61.1c0,0,0,-41.8,23.9,-71.6c0,0,23.2,-30.5,94.1,-64.8L389.2,381.1c0,0,151.5,-73.8,151.5,-194.5c0,0,0,-93.1,-70.5,-150.1c0,0,-70.6,-56.9,-158,-56.9Z" 
	id="f0_2f"
	transform="scale(0.001,-0.001)" />

	<path d="M62.6,0l0,26.4l30.5,0c0,0,29.8,0,54.4,15c0,0,24.5,15,33.8,40.5c0,0,9.4,25.5,9.4,99l0,448.8l-133,0l0,53.8l133,0l0,44.7c0,0,0,102,32.9,172.8c0,0,32.9,70.8,100.5,114.3c0,0,67.7,43.6,152.2,43.6c0,0,78.5,0,144.2,-50.6c0,0,43.4,-33.6,43.4,-75.3c0,0,0,-22.3,-19.4,-42.1c0,0,-19.4,-19.7,-41.8,-19.7c0,0,-17.1,0,-36.1,12.3c0,0,-19,12.3,-46.6,52.8c0,0,-27.6,40.6,-50.8,54.7c0,0,-23.1,14.2,-51.4,14.2c0,0,-34.3,0,-58.2,-18.3c0,0,-23.9,-18.2,-34.3,-56.6c0,0,-10.5,-38.3,-10.5,-197.7l0,-49.1l176,0l0,-53.8l-176,0l0,-448.8c0,0,0,-96,20.9,-121.5c0,0,27.6,-33,73.8,-33l61.8,0L471.3,0Z" 
	id="f0_22"
	transform="scale(0.001,-0.001)" />

	<path d="M411.3,-239.4c0,0,134.2,0,197.9,47.1c0,0,63.8,47.1,63.8,100.6c0,0,0,38.6,-38.1,54.9c0,0,-38.7,16.3,-153.6,19.3c0,0,-167.8,4.6,-258,17.5c0,0,-35,-37.8,-52.9,-70.6c0,0,-17.9,-32.7,-17.9,-60.2c0,0,0,-35.8,43.3,-62.5c0,0,74.6,-46.1,215.5,-46.1ZM379.8,257.2c0,0,56.6,0,93.1,42.3c0,0,36.5,42.4,36.5,133.1c0,0,0,118.3,-51.4,185.2c0,0,-38,49.1,-97.6,49.1c0,0,-55.1,0,-92.4,-43.9c0,0,-37.2,-43.9,-37.2,-134.6c0,0,0,-117.5,50.6,-182.2c0,0,38.8,-49,98.4,-49ZM345.1,-329.4c0,0,-144,0,-243.2,64.9c0,0,-55.9,37.2,-55.9,77.5c0,0,0,17.9,8.1,35.8c0,0,12.7,27.6,52.2,76.8c0,0,5.2,6.7,75.9,80.4c0,0,-38.7,23.1,-54.7,41.4c0,0,-16,18.4,-16,41.5c0,0,0,26.2,21.2,61.3c0,0,21.2,35.1,97.9,99.4c0,0,-62.7,30.5,-96.3,85.2c0,0,-33.6,54.8,-33.6,121c0,0,0,101.3,76.6,174.3c0,0,76.6,72.9,196.1,72.9c0,0,97.9,0,169.6,-47.9l144.9,0c0,0,32.2,0,37.4,-1.8c0,0,5.2,-1.9,7.5,-6.4c0,0,4.4,-6.8,4.4,-24c0,0,0,-19.5,-3.7,-27c0,0,-2.3,-3.7,-7.9,-6c0,0,-5.6,-2.2,-37.9,-2.2l-89,0c0,0,41.7,-53.6,41.7,-137c0,0,0,-95.2,-73.1,-163c0,0,-73.2,-67.7,-196.4,-67.7c0,0,-50.7,0,-103.7,15.2c0,0,-32.9,-28.4,-44.4,-49.7c0,0,-11.6,-21.2,-11.6,-36.1c0,0,0,-12.7,12.3,-24.7c0,0,12.3,-11.9,48.2,-17.1c0,0,20.9,-3.2,104.5,-5.6c0,0,153.7,-3.9,199.3,-11.1c0,0,69.4,-9.6,110.8,-51.3c0,0,41.4,-41.6,41.4,-102.6c0,0,0,-84.1,-79,-157.8c0,0,-116.4,-108.6,-303.6,-108.6Z" 
	id="f0_23"
	transform="scale(0.001,-0.001)" />

	<path d="M290.4,-283.4c0,0,106.7,0,182.4,36.1c0,0,75.8,36.2,75.8,93.6c0,0,0,29.1,-28,55.3c0,0,-28,26.1,-108.5,42.4c0,0,-44,8.9,-232,55.7c0,0,-60.4,-27.5,-91.4,-70.8c0,0,-31,-43.2,-31,-84.9c0,0,0,-49.2,44.8,-81.2c0,0,64.1,-46.2,187.9,-46.2Zm52.5,531.8c0,0,39.6,0,76.6,21.6c0,0,36.9,21.6,62.3,59.6c0,0,25.4,38,40.3,96.8c0,0,15,58.9,15,84.9c0,0,0,59.6,-33.2,93.9c0,0,-33.3,34.3,-87,34.3c0,0,-84.4,0,-139.3,-84.6c0,0,-54.9,-84.5,-54.9,-176.2c0,0,0,-57.3,35.1,-93.8c0,0,35.1,-36.5,85.1,-36.5ZM269.3,-329.4c0,0,-92.6,0,-168.6,22c0,0,-76.1,22,-108.8,59.2c0,0,-32.9,37.3,-32.9,76.8c0,0,0,32,21.3,66.6c0,0,21.2,34.7,53.3,57c0,0,20.2,14.2,114.3,67c0,0,-34.5,26.8,-34.5,58.8c0,0,0,29.8,30.2,63.4c0,0,30.1,33.5,127.6,73.7c0,0,-82.1,15.7,-130.2,68.7c0,0,-48.1,52.9,-48.1,117.8c0,0,0,106,92.9,189.5c0,0,93,83.6,247.5,83.6c0,0,56,0,91.8,-11.1c0,0,35.8,-11.2,69.4,-34.9l201.5,0L774.4,551.5l-124.7,0c0,0,14.2,-40.4,14.2,-75.5c0,0,0,-98.7,-83.6,-175.7c0,0,-84.4,-77,-231.4,-85.2c0,0,-78.7,-23.9,-118,-56.9c0,0,-14.8,-12,-14.8,-24.7c0,0,0,-15,13.3,-27.3c0,0,13.3,-12.4,67.4,-25.1L441.7,47.9c0,0,120.2,-28,158.9,-66.7c0,0,37.9,-39.4,37.9,-90.8c0,0,0,-61.1,-45.1,-111.8c0,0,-45.2,-50.6,-132.1,-79.3c0,0,-86.9,-28.7,-192,-28.7Z" 
	id="f4_23"
	transform="scale(0.001,-0.001)" />

	<path d="M379.3,29.3c0,0,40.2,0,83.4,36.2c0,0,43.2,36.2,65.5,121.3c0,0,34.3,128.3,34.3,361.9c0,0,0,173.1,-35.8,288.7c0,0,-26.7,85.8,-69.2,121.6c0,0,-30.5,24.7,-73.7,24.7c0,0,-50.6,0,-90.1,-45.6c0,0,-53.6,-61.9,-72.9,-194.7c0,0,-19.4,-132.8,-19.4,-261.9c0,0,0,-208.9,51.4,-341c0,0,42.4,-111.2,126.5,-111.2Zm-2.2,-46.8c0,0,-144.8,0,-241,170.7c0,0,-81.3,143.9,-81.3,346.8c0,0,0,173,52.2,298c0,0,52.2,124.9,138.8,186c0,0,67.1,48.5,138.8,48.5c0,0,116.4,0,208.9,-118.6c0,0,115.6,-146.9,115.6,-398.2c0,0,0,-176,-50.7,-299.1c0,0,-50.7,-123.1,-129.5,-178.6c0,0,-78.7,-55.5,-151.8,-55.5Z" 
	id="f0_k"
	transform="scale(0.001,-0.001)" />

	<path d="M474.2,-326.5c0,0,-112.6,56.7,-187.9,132.7c0,0,-107.4,108.1,-165.6,254.9c0,0,-58.1,146.8,-58.1,304.8c0,0,0,231.1,114.1,421.5c0,0,114.1,190.5,297.5,272.5l0,-31.3c0,0,-92.1,-50.6,-151.3,-138.5c0,0,-59.1,-88,-88.4,-222.8c0,0,-29.2,-134.9,-29.2,-281.6c0,0,0,-159.5,24.8,-289.8c0,0,19.4,-102.7,47.1,-164.9c0,0,27.7,-62.2,74.6,-119.6c0,0,46.8,-57.4,122.4,-109.5l0,-28.4Z" 
	id="f0_c"
	transform="scale(0.001,-0.001)" />

	<path d="M18.7,-17.5c0,0,-29.8,0,-54.4,21.5c0,0,-18,16.5,-18,44.1c0,0,0,24.6,16.4,41.1c0,0,16.4,16.4,40.1,16.4c0,0,23.8,0,50.6,-23.9c0,0,19.3,-17.2,29.7,-17.2c0,0,9,0,23.1,11.9c0,0,35,28.1,95.3,121.2c0,0,60.2,93.1,78.8,134.5c0,0,-45.8,182.2,-49.5,192.7c0,0,-17.2,48.8,-44.7,69c0,0,-27.5,20.3,-81.1,20.3c0,0,-17.1,0,-39.5,-1.5l0,26.9l198.9,35.2c0,0,36.5,-38.6,55.1,-77.2c0,0,13.4,-27,43.9,-141.4l65.8,98.4c0,0,26.1,35.8,63.5,68.3c0,0,37.4,32.5,65.8,44.4c0,0,17.9,7.5,39.6,7.5c0,0,32.1,0,51.2,-17.2c0,0,19,-17.1,19,-41.7c0,0,0,-28.4,-11.2,-38.8c0,0,-21,-18.7,-48,-18.7c0,0,-15.7,0,-33.7,6.7c0,0,-35.3,11.9,-47.3,11.9c0,0,-18,0,-42.7,-20.9c0,0,-46.5,-38.8,-111,-150.1L436,149.7c0,0,14.3,-58.8,24.1,-70.3c0,0,9.8,-11.5,19.6,-11.5c0,0,15.9,0,36.9,17.1c0,0,41.5,34.2,70.9,89.3l26.1,-13.4c0,0,-47.1,-87.8,-119.7,-145.8c0,0,-41.1,-32.6,-69.5,-32.6c0,0,-41.9,0,-66.5,46.6c0,0,-15.5,29.1,-64.2,250.9C293.7,280,177.1,77.9,106.9,19.7c0,0,-45.6,-37.2,-88.2,-37.2Z" 
	id="f4_2k"
	transform="scale(0.001,-0.001)" />

	<path d="M82.1,-254.1l0,32.8c0,0,76.5,25.4,118.5,78.8c0,0,41.9,53.4,41.9,113.1c0,0,0,14.2,-6.7,23.9c0,0,-5.2,6.6,-10.4,6.6c0,0,-8.1,0,-35.6,-14.8c0,0,-13.4,-6.7,-28.2,-6.7c0,0,-36.4,0,-57.9,21.5c0,0,-21.6,21.6,-21.6,59.7c0,0,0,36.6,28,62.7c0,0,27.9,26.1,68.1,26.1c0,0,49.2,0,87.5,-42.9c0,0,38.4,-42.9,38.4,-113.7c0,0,0,-76.9,-53.3,-143c0,0,-53.2,-66,-168.7,-104.1Z" 
	id="f0_g"
	transform="scale(0.001,-0.001)" />

	<path d="M118.3,598.4l-40.4,221c0,0,-17.3,91.9,-17.3,124c0,0,0,47.8,19.5,69.4c0,0,19.5,21.7,53.2,21.7c0,0,33.7,0,55.8,-22c0,0,22.1,-22.1,22.1,-57.9c0,0,0,-27.7,-19.4,-135.9L151.6,598.4Z" 
	id="f0_b"
	transform="scale(0.001,-0.001)" />

	<path d="M285.7,72.4c0,0,56.7,0,149.2,74.6l0,260.3c0,0,-112.6,-44.8,-145.5,-63.4c0,0,-58.9,-32.8,-84.2,-68.6c0,0,-25.4,-35.8,-25.4,-78.4c0,0,0,-53.7,32.1,-89.1c0,0,32,-35.4,73.8,-35.4ZM217.1,-14.1c0,0,-70.9,0,-116.8,48.4c0,0,-45.8,48.5,-45.8,127.6c0,0,0,50,22.3,86.5c0,0,30.6,50.7,106.3,95.5c0,0,75.8,44.8,251.8,108.9l0,26.9c0,0,0,102.2,-32.4,140.2c0,0,-32.5,38.1,-94.4,38.1c0,0,-47,0,-74.6,-25.4c0,0,-28.3,-25.4,-28.3,-58.2l1.4,-43.3c0,0,0,-34.3,-17.5,-52.9c0,0,-17.5,-18.7,-45.9,-18.7c0,0,-27.6,0,-45.1,19.4c0,0,-17.5,19.4,-17.5,53c0,0,0,64.1,65.6,117.8c0,0,65.7,53.8,184.3,53.8c0,0,91,0,149.2,-30.6c0,0,44,-23.2,64.9,-72.4c0,0,13.4,-32.1,13.4,-131.3l0,-232c0,0,0,-97.7,3.7,-119.7c0,0,3.8,-22,12.3,-29.5c0,0,8.6,-7.4,19.8,-7.4c0,0,11.9,0,20.9,5.2c0,0,15.7,9.7,60.4,54.5l0,-41.8c0,0,-83.5,-111.8,-159.6,-111.8c0,0,-36.6,0,-58.2,25.2c0,0,-21.6,25.4,-22.4,86.6c0,0,-105.2,-81.3,-132,-94c0,0,-40.3,-18.6,-85.8,-18.6Zm183,793.4L180.8,1036.7l166.3,0L426.2,779.3Z" 
	id="f0_2z"
	transform="scale(0.001,-0.001)" />

	<path d="M517.8,-22.4c0,0,-123.9,0,-219.5,51.7c0,0,-95.6,51.8,-145.6,145.7c0,0,-50,94,-50,202c0,0,0,165.5,88.7,322.1c0,0,88.8,156.5,243.6,245.9c0,0,154.9,89.5,312.3,89.5c0,0,73.9,0,165.6,-35c0,0,40.3,-14.9,58.2,-14.9c0,0,17.9,0,31.3,7.5c0,0,13.5,7.4,44.8,42.4l27.4,0L999.3,707l-27.4,0L969,789.1c0,0,-3.8,44.8,-17.2,79.8c0,0,-13.4,35.1,-40.2,60.9c0,0,-26.9,25.7,-67.9,40.3c0,0,-41,14.5,-90.9,14.5c0,0,-133.5,0,-233.3,-73.1c0,0,-127.5,-93.2,-199.8,-263.2c0,0,-59.6,-140.2,-59.6,-284.1c0,0,0,-146.9,85.9,-234.5c0,0,85.8,-87.6,223.3,-87.6c0,0,103.7,0,184.8,46.2c0,0,81,46.3,150.5,142.5l35.1,0c0,0,-82.2,-130.4,-182.2,-191.8c0,0,-100.1,-61.4,-239.7,-61.4Z" 
	id="f4_13"
	transform="scale(0.001,-0.001)" />

	<path d="M435.4,501.6c0,0,77.6,0,134,60c0,0,56.4,60.1,56.4,155.6c0,0,0,65.6,-26.9,121.9c0,0,-26.9,56.3,-76.2,84.3c0,0,-49.2,28,-112,28c0,0,-38.1,0,-97.8,-14.2l0,-420.7c0,0,39.6,-7.4,70.2,-11.2c0,0,30.6,-3.7,52.3,-3.7ZM25.4,0l0,27.4l38.1,0c0,0,64.1,0,91.7,41.8c0,0,14.9,23.1,14.9,109.7l0,654.2c0,0,0,95.5,-20.1,118.7c0,0,-29.1,32.8,-86.5,32.8l-38.1,0l0,27.4l370.7,0c0,0,135.8,0,214.1,-28c0,0,78.3,-28,132,-94.5c0,0,53.7,-66.4,53.7,-157.5c0,0,0,-124,-81.7,-201.6c0,0,-81.8,-77.7,-231.1,-77.7c0,0,-36.6,0,-79.1,5.3c0,0,-42.6,5.2,-91.1,15.8l0,-294.9c0,0,0,-95.5,20.8,-118.7c0,0,28.2,-32.8,85.3,-32.8l38.6,0L457.6,0Z" 
	id="f0_1g"
	transform="scale(0.001,-0.001)" />

	<path d="M750.9,0L0,371.4l0,38.1L750.9,783.2l0,-81L122.3,392.3L750.9,79.5L750.9,0Z" 
	id="f3_w"
	transform="scale(0.001,-0.001)" />

	<path d="M44.6,0l0,81.1L673.3,391.3L44.6,703.5l0,80.7l750.9,-372l0,-38L44.6,0Z" 
	id="f3_y"
	transform="scale(0.001,-0.001)" />

	<path d="M237.6,-17.5c0,0,-102.1,0,-139.1,25.2C98.5,7.7,61.6,33,61.6,62c0,0,0,21.6,17.5,38c0,0,17.5,16.4,42.2,16.4c0,0,18.6,0,38,-6c0,0,12.7,-3.7,57.4,-27.3c0,0,44.8,-23.5,62,-27.9c0,0,27.5,-8.3,58.9,-8.3c0,0,76.1,0,132.4,59.1c0,0,56.3,59,56.3,139.6c0,0,0,59,-26.1,115.1c0,0,-19.3,41.8,-42.4,63.4c0,0,-32.1,29.9,-87.9,54.2c0,0,-55.9,24.3,-114,24.3l-23.8,0l0,22.5c0,0,58.7,7.4,117.9,42.4c0,0,59.2,35,86,84.1c0,0,26.8,49.2,26.8,108c0,0,0,76.7,-48.1,124c0,0,-48.1,47.3,-119.7,47.3c0,0,-115.6,0,-193.2,-123.4L77.2,819.4c0,0,43.3,102.1,109.4,157.6c0,0,66,55.5,164.5,55.5c0,0,121.6,0,186.6,-79c0,0,49.2,-59,49.2,-126.1c0,0,0,-110.4,-138.8,-228.2c0,0,93.2,-36.5,141,-104.4c0,0,47.7,-67.9,47.7,-159.6c0,0,0,-131.3,-83.6,-227.5c0,0,-108.9,-125.2,-315.6,-125.2Z" 
	id="f0_n"
	transform="scale(0.001,-0.001)" />

	<path d="M397.8,24.5c0,0,74.5,0,120.7,58c0,0,60.4,75.9,60.4,213.6c0,0,0,156.3,-68.6,240.3c0,0,-47.7,58.1,-113.2,58.1c0,0,-35.8,0,-70.8,-17.9c0,0,-26.9,-13.4,-88.7,-80.3l0,-254.6c0,0,0,-82.6,6.7,-108.6c0,0,10.4,-43.2,51,-75.9c0,0,40.7,-32.7,102.5,-32.7ZM-4.8,-326.5l0,26.4l18.5,0c0,0,0.3,0,0.8,0c5.9,0,42.5,0.7,69.2,15.8c0,0,14.1,8.3,21.9,26.6c0,0,7.8,18.4,7.8,93.5l0,645.3c0,0,0,66.9,-5.9,84.9c0,0,-6,18.1,-19,27c0,0,-13,9,-35.3,9c0,0,-17.8,0,-45.3,-10.4L-0.9,615l210.2,85.1l28.3,0l0,-159.9c0,0,52.9,90.4,106.2,126.6c0,0,53.4,36.2,112.3,36.2c0,0,102.9,0,171.5,-80.5c0,0,84.2,-98.3,84.2,-256.3c0,0,0,-176.6,-101.4,-292.1c0,0,-83.5,-94.5,-210.3,-94.5c0,0,-55.1,0,-95.4,15.7c0,0,-29.8,11.1,-67.1,44.8l0,-208.2c0,0,0,-70.9,8.6,-90.1c0,0,8.5,-19.2,29.7,-30.5c0,0,21.3,-11.4,77.1,-11.4l0,-26.4Z" 
	id="f0_2c"
	transform="scale(0.001,-0.001)" />

	<path d="M-12,338l0,55l788,0l0,-55Z" 
	id="f5_4y"
	transform="scale(0.001,-0.001)" />

	<path d="M528.9,508.8c0,0,64.2,0,101.4,27.6c0,0,37.4,27.6,52.3,75.7c0,0,14.9,48.1,14.9,119c0,0,0,106.6,-39.9,158.9c0,0,-39.9,52.2,-119.7,52.2c0,0,-51.5,0,-69.4,-1.5l0,-431.9ZM385.7,65.6l0,887l-125.4,0l0,-887Zm595.3,0l0,7.5c0,0,-15,14.9,-32.8,42.9c0,0,-18,28,-29.1,49.6l-70.9,135c0,0,-35.1,66.4,-70.9,104.5c0,0,-35.8,38,-90.2,57.4l0,24.6c0,0,227.5,62,227.5,256.7c0,0,0,93.2,-64.2,149.9c0,0,-64.1,56.7,-190.2,73.8l-3.7,-7.4c0,0,65.6,-40.3,94.7,-97.7c0,0,29.1,-57.5,29.1,-135.1c0,0,0,-108.1,-43.6,-170c0,0,-43.7,-62,-140.7,-91.1l0,-8.9c0,0,18,-12,32.1,-27.2c0,0,14.2,-15.3,26.1,-34.4c0,0,12,-19,34.3,-61.5L776.6,166.4c0,0,15.6,-31.4,30.6,-58.2c0,0,14.9,-26.9,25.3,-42.6ZM90.3,0l0,36.6c0,0,46.2,11.9,61.9,26.4c0,0,15.6,14.6,20.5,41.4c0,0,4.8,26.9,4.8,82.1l0,645.3c0,0,0,51.5,-3.7,75c0,0,-3.7,23.4,-12.3,36.5c0,0,-8.6,13.1,-22.7,20.9c0,0,-14.2,7.8,-48.5,17.5l0,36.6l499.8,0c0,0,152.2,0,238.7,-31c0,0,86.5,-30.9,129.4,-91.7c0,0,42.9,-60.8,42.9,-151.8c0,0,0,-185.8,-199.2,-273.1l0,-7.4c0,0,38.1,-20.2,68.7,-56.7c0,0,30.5,-36.6,72.3,-112.7L998.1,192.5c0,0,19.4,-35.1,34.3,-59.7c0,0,15,-24.6,31.4,-44.8c0,0,16.4,-20.1,33.5,-32.1c0,0,17.2,-11.9,40.3,-19.3l0,-36.6L775.1,0c0,0,-10.5,14.2,-21.6,33.2c0,0,-11.2,19,-32.9,60.1L611,305.1c0,0,-16.4,30.6,-34,63.4c0,0,-17.5,32.8,-29.1,45.1c0,0,-11.5,12.4,-24.6,17.6c0,0,-13.1,5.2,-41.4,5.2l-13.4,0l0,-247.7c0,0,0,-53.7,4.1,-77.9c0,0,4.1,-24.3,12.3,-36.6c0,0,8.2,-12.3,22.7,-20.5c0,0,14.6,-8.2,48.2,-17.1L555.8,0Z" 
	id="f6_116"
	transform="scale(0.001,-0.001)" />

	<path d="M397.5,0c0,0,-131.1,0,-212.7,38.8c0,0,-81.7,38.8,-133.1,123.8c0,0,-51.4,85.1,-51.4,179.9c0,0,0,144,102.8,242.5c0,0,102.9,98.5,292.2,98.5l298.8,0l0,-72.4l-307.5,0c0,0,-98.3,0,-166,-31.9c0,0,-67.8,-32,-105,-87.8c0,0,-26.1,-40.1,-41,-113l619.5,0l0,-74.3l-619.5,0c0,0,30.6,-119.6,103.6,-175.7c0,0,73.1,-56,209.5,-56l306.4,0L694.1,0Z" 
	id="f3_40"
	transform="scale(0.001,-0.001)" />

	<path d="M55.2,0L169.3,649.3l-88,18.5l6,33.3l207.4,0L273.8,556.6c0,0,52.2,73.7,117.1,118.4c0,0,64.9,44.6,122.3,44.6c0,0,65.7,0,101.9,-41.3c0,0,36.1,-41.3,36.1,-121.7c0,0,50.8,72.2,114.9,117.6c0,0,64.2,45.4,123.1,45.4c0,0,62.7,0,98.9,-39.9c0,0,36.1,-39.9,36.1,-115.3c0,0,0,-16.4,-3.3,-42.9c0,0,-3.4,-26.5,-79.5,-469.7l97.8,-18.5L1032.4,0L807.9,0l76.8,434.2c0,0,17.2,90.3,17.2,123.8c0,0,0,33.6,-15.7,54.1c0,0,-15.6,20.5,-49.2,20.5c0,0,-32.8,0,-78.3,-31.3c0,0,-45.5,-31.3,-82.5,-80.2c0,0,-36.9,-48.9,-44.4,-91.4L558,0L434.2,0l76,434.2c0,0,18.7,97.7,18.7,123.8c0,0,0,33.6,-16.4,54.1c0,0,-16.4,20.5,-51.5,20.5c0,0,-32.8,0,-80.6,-33.2c0,0,-47.7,-33.2,-84.2,-80.5c0,0,-36.6,-47.4,-43.3,-89.2L179,0Z" 
	id="f1_29"
	transform="scale(0.001,-0.001)" />

	<path d="M830.1,139.8L27.4,490.9l0,36.1L830.1,875.1l0,-65.6L139.6,510L830.1,207.1l0,-67.3Z" 
	id="f0_w"
	transform="scale(0.001,-0.001)" />

	<path d="M398.9,104.6l0,372.6l-371.5,0l0,61.6l371.5,0l0,370.5l59.7,0l0,-370.5l372.5,0l0,-61.6l-372.5,0l0,-372.6Z" 
	id="f0_f"
	transform="scale(0.001,-0.001)" />

	<path d="M838.2,-17.5c0,0,-24.9,0,-41.7,17.7c0,0,-16.7,17.8,-16.7,43.8c0,0,0,35.8,35.2,143.8L893.2,427c0,0,26.6,82.7,28.4,91.6c0,0,2.5,14.2,2.5,27.6c0,0,0,18.6,-8.8,29.1c0,0,-9.7,10.4,-21.7,10.4c0,0,-33.8,0,-71.6,-32c0,0,-111,-94.7,-207.6,-265.3c0,0,-63.5,-112.6,-119,-288.4L382.3,0L517.2,450.6c0,0,22.1,73,22.1,97.6c0,0,0,20.1,-8.4,29.8c0,0,-8.4,9.7,-20.6,9.7c0,0,-25.2,0,-53.4,-17.9c0,0,-45.9,-29.1,-118,-124.4c0,0,-72.2,-95.3,-111.9,-182.5C227,262.9,207.9,222,136.2,0L26.4,0L164.5,483l17.9,62.6c0,0,5.2,14.5,5.2,21.4c0,0,0,16.8,-14.9,30.1c0,0,-14.9,13.2,-37.9,13.2c0,0,-9.7,0,-53.6,-8.9l-7.3,26.3l256.2,47L234.2,338.1c0,0,66.3,118.7,112.9,178.4c0,0,72.4,92.5,141.1,134.3c0,0,40.4,23.9,84.7,23.9c0,0,38.1,0,63.3,-24.4c0,0,25.2,-24.4,25.2,-62.5c0,0,0,-36.3,-18.1,-94.8L587.4,304.9c0,0,128.6,227.4,243.8,319.1c0,0,63.9,50.7,126.3,50.7c0,0,36.2,0,59.5,-25.4c0,0,23.3,-25.3,23.3,-78.4c0,0,0,-42.9,-15.2,-91L932.4,192.3c0,0,-30.3,-93.9,-30.3,-104.2c0,0,0,-10.1,6,-17.3c0,0,4,-5,10.6,-5c0,0,6.6,0,23.2,13.7c0,0,37.8,32.5,70.9,86.2L1037.4,150c0,0,-17.8,-29.8,-63,-80.7c0,0,-45.2,-51,-77.2,-68.9c0,0,-32,-17.9,-59,-17.9Z" 
	id="f4_29"
	transform="scale(0.001,-0.001)" />

	<path d="M27.6,139.8l0,64.6L718.8,504.1L27.6,805.5l0,68.6l802.7,-350l0,-36.2L27.6,139.8Z" 
	id="f0_y"
	transform="scale(0.001,-0.001)" />

	<path d="M27,354l0,61l804,0l0,-61Zm0,243l0,62l804,0l0,-62Z" 
	id="f0_x"
	transform="scale(0.001,-0.001)" />

	<path d="M472.6,52.8c0,0,172.9,0,286.9,121.6c0,0,114.1,121.5,114.1,329.6c0,0,0,209.6,-114,330.5c0,0,-114.1,120.8,-293,120.8c0,0,-67,0,-152.7,-21.6l0,-860c0,0,94.6,-20.9,158.7,-20.9ZM26.4,0l0,27.4l37.8,0c0,0,63.9,0,90.6,41c0,0,16.3,24.7,16.3,110.5l0,654.2c0,0,0,94.8,-20.8,118.7c0,0,-28.9,32.8,-86.1,32.8l-37.8,0l0,27.4l411.5,0c0,0,226.6,0,344.7,-51.5c0,0,118.2,-51.5,190.1,-171.6c0,0,72,-120.2,72,-277.7c0,0,0,-211.2,-128.2,-353C916.5,158.2,772.6,0,478.1,0Z" 
	id="f0_14"
	transform="scale(0.001,-0.001)" />

	<path d="M330.3,48.9c0,0,118.5,0,219.9,24.2c0,0,101.5,24.3,166.4,72c0,0,92,69.4,147.1,191.1c0,0,55.1,121.6,55.1,276.8c0,0,0,175.3,-84.8,260.8c0,0,-84.8,85.4,-247.6,85.4c0,0,-40.1,0,-103.7,-3L262.4,184.5c0,0,-24.6,-76.9,-24.6,-95.1c0,0,0,-10.8,7.8,-21c0,0,7.8,-10.1,21.3,-13.5c0,0,19.6,-6,63.4,-6ZM-47.5,0l9.7,26.4c0,0,58.8,1.5,78.9,10.5c0,0,29.9,12.8,44,34.6c0,0,21.7,31.5,48.5,126.9l176.8,613c0,0,20.9,72.5,20.9,113.7c0,0,0,29.1,-19.4,44.8c0,0,-19.4,15.7,-76.1,15.7l-16.4,0l8.9,26.4l324.9,0c0,0,206.4,0,305.8,-47c0,0,99.4,-47,158.7,-148.2c0,0,59.2,-101.1,59.2,-216.8c0,0,0,-99.2,-34,-192.9c0,0,-34,-93.7,-77,-150c0,0,-43,-56.3,-132,-124.3c0,0,-89,-67.9,-192.9,-100.3C641,32.5,537.1,0,381.5,0Z" 
	id="f4_14"
	transform="scale(0.001,-0.001)" />

	<path d="M376.4,-20.4L132.8,555.7c0,0,-16.4,40.8,-31.3,58.6c0,0,-14.9,17.8,-38,29.9c0,0,-12.7,6.8,-50,12.9l0,26.4l321.1,0l0,-26.4l-20.8,0c0,0,-29.1,0,-44.3,-14.2c0,0,-15.1,-14.2,-14.5,-38c0,0,-0.6,-26.1,14.9,-62L428.8,165.5L587.6,557.1c0,0,17.2,41.8,17.2,63.4c0,0,0,10.5,-6,17.2c0,0,-8.2,11.2,-20.9,15.3c0,0,-12.6,4.1,-51.4,4.1l0,26.4l223.6,0l0,-26.4c0,0,-38.8,-3.1,-53.7,-15.9c0,0,-26.1,-22.8,-47,-75.8L408.6,-20.4Z" 
	id="f0_2i"
	transform="scale(0.001,-0.001)" />

	<path d="M61,286l0,112l386,0l0,-112Z" 
	id="f0_h"
	transform="scale(0.001,-0.001)" />


</defs>

<!-- Any embedded fonts defined here -->
<style type="text/css" ><![CDATA[

@font-face {
	font-family: TimesNewRomanPSMT_69;
	src: url("fonts/TimesNewRomanPSMT_69.woff") format("woff");
}

@font-face {
	font-family: Times-Italic_5n;
	src: url("fonts/Times-Italic_5n.woff") format("woff");
}

@font-face {
	font-family: Times_5_;
	src: url("fonts/Times_5_.woff") format("woff");
}

@font-face {
	font-family: SymbolMT_5v;
	src: url("fonts/SymbolMT_5v.woff") format("woff");
}

@font-face {
	font-family: CambriaMath_5p;
	src: url("fonts/CambriaMath_5p.woff") format("woff");
}

@font-face {
	font-family: Times_5h;
	src: url("fonts/Times_5h.woff") format("woff");
}

@font-face {
	font-family: TimesNewRomanPS-ItalicMT_66;
	src: url("fonts/TimesNewRomanPS-ItalicMT_66.woff") format("woff");
}

]]></style>

</svg>
