<?xml version="1.0" encoding="utf-8"?>
<!-- Generator: Adobe Illustrator 22.1.0, SVG Export Plug-In . SVG Version: 6.00 Build 0)  -->
<svg version="1.1" id="Calque_1" xmlns="http://www.w3.org/2000/svg" xmlns:xlink="http://www.w3.org/1999/xlink" x="0px" y="0px"
	 viewBox="0 0 420 420.5" style="enable-background:new 0 0 420 420.5;" xml:space="preserve">
<style type="text/css">
	.st0{clip-path:url(#SVGID_2_);fill:#FFFFFF;}
	.st1{clip-path:url(#SVGID_2_);fill:none;stroke:#C0C0C0;stroke-linecap:round;stroke-linejoin:round;stroke-miterlimit:10;}
	.st2{clip-path:url(#SVGID_2_);fill:none;stroke:#F0F0F0;stroke-linecap:round;stroke-linejoin:round;stroke-miterlimit:10;}
	.st3{clip-path:url(#SVGID_2_);fill:none;stroke:#000000;stroke-miterlimit:10;}
	
		.st4{clip-path:url(#SVGID_4_);fill:none;stroke:#FF4D4D;stroke-width:1.5;stroke-linecap:round;stroke-linejoin:round;stroke-miterlimit:10;}
	
		.st5{clip-path:url(#SVGID_4_);fill:none;stroke:#4D4DFF;stroke-width:1.5;stroke-linecap:round;stroke-linejoin:round;stroke-miterlimit:10;}
	.st6{fill:none;stroke:#4D9471;stroke-width:1.5;stroke-linejoin:round;stroke-miterlimit:10;stroke-dasharray:5.5,4;}
	.st7{fill:#CC66FF;}
	.st8{fill:none;stroke:#000000;stroke-linecap:round;stroke-linejoin:round;stroke-miterlimit:10;}
	.st9{fill:#006633;}
	.st10{fill:#0000FF;}
	.st11{fill:#FF0000;}
</style>
<g>
	<g>
		<defs>
			<rect id="SVGID_1_" x="2.3" y="2.3" width="415.3" height="418"/>
		</defs>
		<clipPath id="SVGID_2_">
			<use xlink:href="#SVGID_1_"  style="overflow:visible;"/>
		</clipPath>
		<polygon class="st0" points="2.3,2.3 417.7,2.3 417.7,420.5 2.3,420.5 2.3,2.3 		"/>
		<path class="st1" d="M32.8,2.3v418.2 M51.7,2.3v418.2 M70.6,2.3v418.2 M89.5,2.3v418.2 M108.4,2.3v418.2 M127.3,2.3v418.2
			 M146.2,2.3v418.2 M165.1,2.3v418.2 M184,2.3v418.2 M202.9,2.3v418.2 M221.8,2.3v418.2 M240.7,2.3v418.2 M259.6,2.3v418.2
			 M278.5,2.3v418.2 M297.4,2.3v418.2 M316.3,2.3v418.2 M335.2,2.3v418.2 M354.1,2.3v418.2 M373,2.3v418.2 M391.9,2.3v418.2
			 M410.8,2.3v418.2"/>
		<path class="st2" d="M2.6,2.3v418.2 M6.4,2.3v418.2 M10.2,2.3v418.2 M17.7,2.3v418.2 M21.5,2.3v418.2 M25.3,2.3v418.2 M29.1,2.3
			v418.2 M36.6,2.3v418.2 M40.4,2.3v418.2 M44.2,2.3v418.2 M48,2.3v418.2 M55.5,2.3v418.2 M59.3,2.3v418.2 M63.1,2.3v418.2
			 M66.9,2.3v418.2 M74.4,2.3v418.2 M78.2,2.3v418.2 M82,2.3v418.2 M85.7,2.3v418.2 M93.3,2.3v418.2 M97.1,2.3v418.2 M100.9,2.3
			v418.2 M104.6,2.3v418.2 M112.2,2.3v418.2 M116,2.3v418.2 M119.8,2.3v418.2 M123.5,2.3v418.2 M131.1,2.3v418.2 M134.9,2.3v418.2
			 M138.7,2.3v418.2 M142.4,2.3v418.2 M150,2.3v418.2 M153.8,2.3v418.2 M157.6,2.3v418.2 M161.3,2.3v418.2 M168.9,2.3v418.2
			 M172.7,2.3v418.2 M176.5,2.3v418.2 M180.2,2.3v418.2 M187.8,2.3v418.2 M191.6,2.3v418.2 M195.4,2.3v418.2 M199.1,2.3v418.2
			 M206.7,2.3v418.2 M210.5,2.3v418.2 M214.3,2.3v418.2 M218,2.3v418.2 M225.6,2.3v418.2 M229.4,2.3v418.2 M233.1,2.3v418.2
			 M236.9,2.3v418.2 M244.5,2.3v418.2 M248.3,2.3v418.2 M252,2.3v418.2 M255.8,2.3v418.2 M263.4,2.3v418.2 M267.2,2.3v418.2
			 M270.9,2.3v418.2 M274.7,2.3v418.2 M282.3,2.3v418.2 M286.1,2.3v418.2 M289.8,2.3v418.2 M293.6,2.3v418.2 M301.2,2.3v418.2
			 M305,2.3v418.2 M308.7,2.3v418.2 M312.5,2.3v418.2 M320.1,2.3v418.2 M323.9,2.3v418.2 M327.6,2.3v418.2 M331.4,2.3v418.2
			 M339,2.3v418.2 M342.8,2.3v418.2 M346.5,2.3v418.2 M350.3,2.3v418.2 M357.9,2.3v418.2 M361.7,2.3v418.2 M365.4,2.3v418.2
			 M369.2,2.3v418.2 M376.8,2.3v418.2 M380.6,2.3v418.2 M384.3,2.3v418.2 M388.1,2.3v418.2 M395.7,2.3v418.2 M399.4,2.3v418.2
			 M403.2,2.3v418.2 M407,2.3v418.2 M414.6,2.3v418.2"/>
		<path class="st1" d="M2.3,6.9h415.3 M2.3,6.9h415.3 M2.3,25.8h415.3 M2.3,44.7h415.3 M2.3,63.6h415.3 M2.3,82.5h415.3 M2.3,101.4
			h415.3 M2.3,120.3h415.3 M2.3,139.2h415.3 M2.3,158.1h415.3 M2.3,177h415.3 M2.3,195.9h415.3 M2.3,214.8h415.3 M2.3,233.7h415.3
			 M2.3,252.5h415.3 M2.3,271.4h415.3 M2.3,290.3h415.3 M2.3,309.2h415.3 M2.3,328.1h415.3 M2.3,347h415.3 M2.3,365.9h415.3
			 M2.3,384.8h415.3"/>
		<path class="st2" d="M2.3,3.1h415.3 M2.3,3.1h415.3 M2.3,10.7h415.3 M2.3,14.4h415.3 M2.3,18.2h415.3 M2.3,22h415.3 M2.3,29.6
			h415.3 M2.3,33.3h415.3 M2.3,37.1h415.3 M2.3,40.9h415.3 M2.3,48.5h415.3 M2.3,52.2h415.3 M2.3,56h415.3 M2.3,59.8h415.3
			 M2.3,67.4h415.3 M2.3,71.1h415.3 M2.3,74.9h415.3 M2.3,78.7h415.3 M2.3,86.2h415.3 M2.3,90h415.3 M2.3,93.8h415.3 M2.3,97.6
			h415.3 M2.3,105.1h415.3 M2.3,108.9h415.3 M2.3,112.7h415.3 M2.3,116.5h415.3 M2.3,124h415.3 M2.3,127.8h415.3 M2.3,131.6h415.3
			 M2.3,135.4h415.3 M2.3,142.9h415.3 M2.3,146.7h415.3 M2.3,150.5h415.3 M2.3,154.3h415.3 M2.3,161.8h415.3 M2.3,165.6h415.3
			 M2.3,169.4h415.3 M2.3,173.2h415.3 M2.3,180.7h415.3 M2.3,184.5h415.3 M2.3,188.3h415.3 M2.3,192.1h415.3 M2.3,199.6h415.3
			 M2.3,203.4h415.3 M2.3,207.2h415.3 M2.3,211h415.3 M2.3,218.5h415.3 M2.3,222.3h415.3 M2.3,226.1h415.3 M2.3,229.9h415.3
			 M2.3,237.4h415.3 M2.3,241.2h415.3 M2.3,245h415.3 M2.3,248.8h415.3 M2.3,256.3h415.3 M2.3,260.1h415.3 M2.3,263.9h415.3
			 M2.3,267.7h415.3 M2.3,275.2h415.3 M2.3,279h415.3 M2.3,282.8h415.3 M2.3,286.6h415.3 M2.3,294.1h415.3 M2.3,297.9h415.3
			 M2.3,301.7h415.3 M2.3,305.5h415.3 M2.3,313h415.3 M2.3,316.8h415.3 M2.3,320.6h415.3 M2.3,324.4h415.3 M2.3,331.9h415.3
			 M2.3,335.7h415.3 M2.3,339.5h415.3 M2.3,343.3h415.3 M2.3,350.8h415.3 M2.3,354.6h415.3 M2.3,358.4h415.3 M2.3,362.2h415.3
			 M2.3,369.7h415.3 M2.3,373.5h415.3 M2.3,377.3h415.3 M2.3,381.1h415.3 M2.3,388.6h415.3 M2.3,392.4h415.3 M2.3,396.2h415.3
			 M2.3,399.9h415.3 M2.3,407.5h415.3 M2.3,411.3h415.3 M2.3,415.1h415.3 M2.3,418.8h415.3"/>
		<path class="st3" d="M13.9,3v417.5 M13.9,2.6L12,4.5 M13.9,2.6l1.9,1.9 M2.3,403.7H417 M417.3,403.7l-1.9-1.9 M417.3,403.7
			l-1.9,1.9"/>
	</g>
	<path d="M33.8,410.4h-0.5v-3.2c-0.1,0.1-0.3,0.2-0.5,0.3c-0.2,0.1-0.4,0.2-0.5,0.3v-0.5c0.3-0.1,0.5-0.3,0.7-0.5
		c0.2-0.2,0.4-0.4,0.4-0.5h0.3V410.4L33.8,410.4z"/>
	<path d="M53.2,409.9v0.5h-2.7c0-0.1,0-0.2,0.1-0.3c0.1-0.2,0.2-0.4,0.3-0.5c0.1-0.2,0.4-0.4,0.7-0.6c0.4-0.4,0.7-0.6,0.9-0.9
		c0.2-0.2,0.2-0.4,0.2-0.6c0-0.2-0.1-0.4-0.2-0.5c-0.1-0.1-0.3-0.2-0.6-0.2c-0.2,0-0.4,0.1-0.6,0.2c-0.1,0.1-0.2,0.3-0.2,0.6
		l-0.5-0.1c0-0.4,0.2-0.7,0.4-0.9c0.2-0.2,0.5-0.3,0.9-0.3c0.4,0,0.7,0.1,0.9,0.3c0.2,0.2,0.3,0.5,0.3,0.8c0,0.2,0,0.3-0.1,0.5
		c-0.1,0.2-0.2,0.3-0.3,0.5c-0.2,0.2-0.4,0.4-0.8,0.7c-0.3,0.3-0.5,0.4-0.6,0.5c-0.1,0.1-0.2,0.2-0.2,0.3H53.2L53.2,409.9z"/>
	<path d="M69.6,409.3l0.5-0.1c0.1,0.3,0.2,0.5,0.3,0.6c0.1,0.1,0.3,0.2,0.5,0.2c0.2,0,0.4-0.1,0.6-0.2c0.2-0.2,0.2-0.4,0.2-0.6
		c0-0.2-0.1-0.4-0.2-0.6c-0.1-0.1-0.3-0.2-0.6-0.2c-0.1,0-0.2,0-0.4,0.1l0.1-0.4c0,0,0.1,0,0.1,0c0.2,0,0.4-0.1,0.6-0.2
		c0.2-0.1,0.3-0.3,0.3-0.5c0-0.2-0.1-0.3-0.2-0.5s-0.3-0.2-0.5-0.2s-0.4,0.1-0.5,0.2c-0.1,0.1-0.2,0.3-0.2,0.6l-0.5-0.1
		c0.1-0.3,0.2-0.6,0.4-0.8c0.2-0.2,0.5-0.3,0.8-0.3c0.2,0,0.4,0,0.6,0.1c0.2,0.1,0.3,0.2,0.4,0.4c0.1,0.2,0.1,0.3,0.1,0.5
		c0,0.2,0,0.3-0.1,0.5c-0.1,0.1-0.2,0.3-0.4,0.3c0.2,0.1,0.4,0.2,0.6,0.3s0.2,0.4,0.2,0.7c0,0.4-0.1,0.7-0.4,0.9
		c-0.3,0.2-0.6,0.4-1,0.4c-0.4,0-0.7-0.1-0.9-0.3C69.7,409.9,69.6,409.6,69.6,409.3L69.6,409.3z"/>
	<path d="M90.1,410.4v-1h-1.8v-0.5l1.9-2.6h0.4v2.6h0.5v0.5h-0.5v1H90.1L90.1,410.4z M90.1,408.9v-1.8l-1.3,1.8H90.1L90.1,408.9z"/>
	<path d="M107.5,409.3l0.5,0c0,0.3,0.1,0.4,0.3,0.6c0.1,0.1,0.3,0.2,0.5,0.2c0.2,0,0.4-0.1,0.6-0.3c0.2-0.2,0.2-0.4,0.2-0.7
		c0-0.3-0.1-0.5-0.2-0.7c-0.2-0.2-0.4-0.2-0.6-0.2c-0.2,0-0.3,0-0.4,0.1c-0.1,0.1-0.2,0.2-0.3,0.3l-0.5-0.1l0.4-2.1h2v0.5h-1.6
		l-0.2,1.1c0.2-0.2,0.5-0.3,0.8-0.3c0.4,0,0.7,0.1,0.9,0.4c0.2,0.2,0.4,0.6,0.4,0.9c0,0.4-0.1,0.7-0.3,1c-0.3,0.3-0.6,0.5-1.1,0.5
		c-0.4,0-0.7-0.1-0.9-0.3C107.7,409.9,107.5,409.7,107.5,409.3L107.5,409.3z"/>
	<path d="M128.7,407.3l-0.5,0c0-0.2-0.1-0.3-0.2-0.4c-0.1-0.1-0.3-0.2-0.5-0.2c-0.2,0-0.3,0-0.4,0.1c-0.2,0.1-0.3,0.3-0.4,0.5
		c-0.1,0.2-0.1,0.5-0.1,0.9c0.1-0.2,0.3-0.3,0.4-0.4c0.2-0.1,0.4-0.1,0.5-0.1c0.3,0,0.6,0.1,0.9,0.4c0.2,0.2,0.4,0.6,0.4,1
		c0,0.3-0.1,0.5-0.2,0.7c-0.1,0.2-0.3,0.4-0.5,0.5c-0.2,0.1-0.4,0.2-0.7,0.2c-0.4,0-0.8-0.2-1-0.5c-0.3-0.3-0.4-0.8-0.4-1.5
		c0-0.8,0.1-1.4,0.4-1.7c0.3-0.3,0.6-0.5,1-0.5c0.3,0,0.6,0.1,0.8,0.3C128.6,406.7,128.7,407,128.7,407.3L128.7,407.3z M126.7,409.1
		c0,0.2,0,0.3,0.1,0.5c0.1,0.2,0.2,0.3,0.3,0.4c0.1,0.1,0.3,0.1,0.4,0.1c0.2,0,0.4-0.1,0.5-0.3c0.2-0.2,0.2-0.4,0.2-0.7
		c0-0.3-0.1-0.5-0.2-0.7c-0.1-0.2-0.3-0.2-0.6-0.2c-0.2,0-0.4,0.1-0.6,0.2C126.8,408.6,126.7,408.8,126.7,409.1L126.7,409.1z"/>
	<path d="M145.2,406.8v-0.5h2.6v0.4c-0.3,0.3-0.5,0.6-0.8,1.1c-0.3,0.5-0.5,0.9-0.6,1.4c-0.1,0.3-0.2,0.7-0.2,1.1h-0.5
		c0-0.3,0.1-0.7,0.2-1.2c0.1-0.5,0.3-0.9,0.5-1.3c0.2-0.4,0.5-0.8,0.7-1.1H145.2L145.2,406.8z"/>
	<path d="M164.9,408.2c-0.2-0.1-0.4-0.2-0.5-0.3c-0.1-0.1-0.2-0.3-0.2-0.5c0-0.3,0.1-0.5,0.3-0.7c0.2-0.2,0.5-0.3,0.9-0.3
		c0.4,0,0.6,0.1,0.9,0.3c0.2,0.2,0.3,0.5,0.3,0.8c0,0.2,0,0.4-0.1,0.5c-0.1,0.1-0.2,0.2-0.4,0.3c0.3,0.1,0.4,0.2,0.6,0.4
		c0.1,0.2,0.2,0.4,0.2,0.6c0,0.3-0.1,0.6-0.4,0.9c-0.2,0.2-0.6,0.4-1,0.4s-0.7-0.1-1-0.4c-0.2-0.2-0.4-0.5-0.4-0.9
		c0-0.3,0.1-0.5,0.2-0.7S164.6,408.2,164.9,408.2L164.9,408.2z M164.7,407.3c0,0.2,0.1,0.4,0.2,0.5c0.1,0.1,0.3,0.2,0.5,0.2
		c0.2,0,0.3-0.1,0.5-0.2c0.1-0.1,0.2-0.3,0.2-0.4c0-0.2-0.1-0.3-0.2-0.5s-0.3-0.2-0.5-0.2c-0.2,0-0.3,0.1-0.5,0.2
		C164.8,407,164.7,407.2,164.7,407.3L164.7,407.3z M164.6,409.2c0,0.1,0,0.3,0.1,0.4c0.1,0.1,0.2,0.2,0.3,0.3
		c0.1,0.1,0.3,0.1,0.4,0.1c0.2,0,0.4-0.1,0.6-0.2c0.2-0.2,0.2-0.4,0.2-0.6c0-0.2-0.1-0.4-0.2-0.6c-0.2-0.2-0.4-0.2-0.6-0.2
		c-0.2,0-0.4,0.1-0.6,0.2S164.6,409,164.6,409.2L164.6,409.2z"/>
	<path d="M183.1,409.4l0.5,0c0,0.2,0.1,0.4,0.2,0.5c0.1,0.1,0.3,0.2,0.4,0.2c0.2,0,0.3,0,0.4-0.1c0.1-0.1,0.2-0.2,0.3-0.3
		c0.1-0.1,0.1-0.3,0.2-0.5c0-0.2,0.1-0.4,0.1-0.6c0,0,0-0.1,0-0.1c-0.1,0.2-0.2,0.3-0.4,0.4s-0.4,0.1-0.6,0.1
		c-0.3,0-0.6-0.1-0.9-0.4c-0.2-0.2-0.4-0.6-0.4-1c0-0.4,0.1-0.7,0.4-1c0.2-0.3,0.5-0.4,0.9-0.4c0.3,0,0.5,0.1,0.7,0.2
		c0.2,0.1,0.4,0.3,0.5,0.6c0.1,0.3,0.2,0.6,0.2,1.1c0,0.5-0.1,0.9-0.2,1.2c-0.1,0.3-0.3,0.5-0.5,0.7c-0.2,0.2-0.5,0.2-0.8,0.2
		c-0.3,0-0.6-0.1-0.8-0.3C183.3,410,183.2,409.8,183.1,409.4L183.1,409.4z M185.2,407.6c0-0.3-0.1-0.5-0.2-0.7
		c-0.2-0.2-0.3-0.3-0.6-0.3c-0.2,0-0.4,0.1-0.6,0.3c-0.2,0.2-0.2,0.4-0.2,0.7c0,0.3,0.1,0.5,0.2,0.6c0.2,0.2,0.3,0.2,0.6,0.2
		s0.4-0.1,0.6-0.2C185.1,408.2,185.2,407.9,185.2,407.6L185.2,407.6z"/>
	<path d="M202.3,410.4h-0.5v-3.2c-0.1,0.1-0.3,0.2-0.5,0.3c-0.2,0.1-0.4,0.2-0.5,0.3v-0.5c0.3-0.1,0.5-0.3,0.7-0.5
		c0.2-0.2,0.4-0.4,0.4-0.5h0.3V410.4L202.3,410.4z M203.6,408.4c0-0.5,0-0.9,0.1-1.2c0.1-0.3,0.2-0.5,0.4-0.7
		c0.2-0.2,0.4-0.2,0.7-0.2c0.2,0,0.4,0,0.6,0.1c0.2,0.1,0.3,0.2,0.4,0.4c0.1,0.2,0.2,0.4,0.3,0.6c0.1,0.2,0.1,0.6,0.1,1
		c0,0.5,0,0.9-0.1,1.2c-0.1,0.3-0.2,0.5-0.4,0.7c-0.2,0.2-0.4,0.2-0.7,0.2c-0.4,0-0.7-0.1-0.9-0.4
		C203.7,409.7,203.6,409.1,203.6,408.4L203.6,408.4z M204.1,408.4c0,0.7,0.1,1.1,0.2,1.3c0.2,0.2,0.3,0.3,0.6,0.3
		c0.2,0,0.4-0.1,0.6-0.3c0.2-0.2,0.2-0.7,0.2-1.3c0-0.7-0.1-1.1-0.2-1.3c-0.2-0.2-0.4-0.3-0.6-0.3s-0.4,0.1-0.6,0.3
		C204.2,407.2,204.1,407.7,204.1,408.4L204.1,408.4z"/>
	<path d="M221.3,410.4h-0.5v-3.2c-0.1,0.1-0.3,0.2-0.5,0.3c-0.2,0.1-0.4,0.2-0.5,0.3v-0.5c0.3-0.1,0.5-0.3,0.7-0.5
		c0.2-0.2,0.4-0.4,0.4-0.5h0.3V410.4L221.3,410.4z M224.4,410.4h-0.5v-3.2c-0.1,0.1-0.3,0.2-0.5,0.3c-0.2,0.1-0.4,0.2-0.5,0.3v-0.5
		c0.3-0.1,0.5-0.3,0.7-0.5c0.2-0.2,0.4-0.4,0.4-0.5h0.3V410.4L224.4,410.4z"/>
	<path d="M240.2,410.4h-0.5v-3.2c-0.1,0.1-0.3,0.2-0.5,0.3c-0.2,0.1-0.4,0.2-0.5,0.3v-0.5c0.3-0.1,0.5-0.3,0.7-0.5
		c0.2-0.2,0.4-0.4,0.4-0.5h0.3V410.4L240.2,410.4z M244.1,409.9v0.5h-2.7c0-0.1,0-0.2,0.1-0.3c0.1-0.2,0.2-0.4,0.3-0.5
		c0.1-0.2,0.4-0.4,0.7-0.6c0.4-0.4,0.7-0.6,0.9-0.9c0.2-0.2,0.2-0.4,0.2-0.6c0-0.2-0.1-0.4-0.2-0.5c-0.1-0.1-0.3-0.2-0.6-0.2
		c-0.2,0-0.4,0.1-0.6,0.2c-0.1,0.1-0.2,0.3-0.2,0.6l-0.5-0.1c0-0.4,0.2-0.7,0.4-0.9c0.2-0.2,0.5-0.3,0.9-0.3c0.4,0,0.7,0.1,0.9,0.3
		c0.2,0.2,0.3,0.5,0.3,0.8c0,0.2,0,0.3-0.1,0.5c-0.1,0.2-0.2,0.3-0.3,0.5c-0.2,0.2-0.4,0.4-0.8,0.7c-0.3,0.3-0.5,0.4-0.6,0.5
		c-0.1,0.1-0.2,0.2-0.2,0.3H244.1L244.1,409.9z"/>
	<path d="M258.9,410.4h-0.5v-3.2c-0.1,0.1-0.3,0.2-0.5,0.3c-0.2,0.1-0.4,0.2-0.5,0.3v-0.5c0.3-0.1,0.5-0.3,0.7-0.5
		c0.2-0.2,0.4-0.4,0.4-0.5h0.3V410.4L258.9,410.4z M260.2,409.3l0.5-0.1c0.1,0.3,0.2,0.5,0.3,0.6c0.1,0.1,0.3,0.2,0.5,0.2
		c0.2,0,0.4-0.1,0.6-0.2c0.2-0.2,0.2-0.4,0.2-0.6c0-0.2-0.1-0.4-0.2-0.6c-0.1-0.1-0.3-0.2-0.6-0.2c-0.1,0-0.2,0-0.4,0.1l0.1-0.4
		c0,0,0.1,0,0.1,0c0.2,0,0.4-0.1,0.6-0.2c0.2-0.1,0.3-0.3,0.3-0.5c0-0.2-0.1-0.3-0.2-0.5c-0.1-0.1-0.3-0.2-0.5-0.2
		c-0.2,0-0.4,0.1-0.5,0.2c-0.1,0.1-0.2,0.3-0.2,0.6l-0.5-0.1c0.1-0.3,0.2-0.6,0.4-0.8c0.2-0.2,0.5-0.3,0.8-0.3c0.2,0,0.4,0,0.6,0.1
		c0.2,0.1,0.3,0.2,0.4,0.4c0.1,0.2,0.1,0.3,0.1,0.5c0,0.2,0,0.3-0.1,0.5s-0.2,0.3-0.4,0.3c0.2,0.1,0.4,0.2,0.6,0.3s0.2,0.4,0.2,0.7
		c0,0.4-0.1,0.7-0.4,0.9c-0.3,0.2-0.6,0.4-1,0.4c-0.4,0-0.7-0.1-0.9-0.3S260.2,409.6,260.2,409.3L260.2,409.3z"/>
	<path d="M277.9,410.4h-0.5v-3.2c-0.1,0.1-0.3,0.2-0.5,0.3c-0.2,0.1-0.4,0.2-0.5,0.3v-0.5c0.3-0.1,0.5-0.3,0.7-0.5
		c0.2-0.2,0.4-0.4,0.4-0.5h0.3V410.4L277.9,410.4z M280.7,410.4v-1H279v-0.5l1.9-2.6h0.4v2.6h0.5v0.5h-0.5v1H280.7L280.7,410.4z
		 M280.7,408.9v-1.8l-1.3,1.8H280.7L280.7,408.9z"/>
	<path d="M296.8,410.4h-0.5v-3.2c-0.1,0.1-0.3,0.2-0.5,0.3s-0.4,0.2-0.5,0.3v-0.5c0.3-0.1,0.5-0.3,0.7-0.5c0.2-0.2,0.4-0.4,0.4-0.5
		h0.3V410.4L296.8,410.4z M298.1,409.3l0.5,0c0,0.3,0.1,0.4,0.3,0.6c0.1,0.1,0.3,0.2,0.5,0.2c0.2,0,0.4-0.1,0.6-0.3
		c0.2-0.2,0.2-0.4,0.2-0.7c0-0.3-0.1-0.5-0.2-0.7c-0.2-0.2-0.4-0.2-0.6-0.2c-0.2,0-0.3,0-0.4,0.1c-0.1,0.1-0.2,0.2-0.3,0.3l-0.5-0.1
		l0.4-2.1h2v0.5H299l-0.2,1.1c0.2-0.2,0.5-0.3,0.8-0.3c0.4,0,0.7,0.1,0.9,0.4c0.2,0.2,0.4,0.6,0.4,0.9c0,0.4-0.1,0.7-0.3,1
		c-0.3,0.3-0.6,0.5-1.1,0.5c-0.4,0-0.7-0.1-0.9-0.3C298.3,409.9,298.1,409.7,298.1,409.3L298.1,409.3z"/>
	<path d="M315.8,410.4h-0.5v-3.2c-0.1,0.1-0.3,0.2-0.5,0.3c-0.2,0.1-0.4,0.2-0.5,0.3v-0.5c0.3-0.1,0.5-0.3,0.7-0.5
		c0.2-0.2,0.4-0.4,0.4-0.5h0.3V410.4L315.8,410.4z M319.7,407.3l-0.5,0c0-0.2-0.1-0.3-0.2-0.4c-0.1-0.1-0.3-0.2-0.5-0.2
		c-0.2,0-0.3,0-0.4,0.1c-0.2,0.1-0.3,0.3-0.4,0.5c-0.1,0.2-0.1,0.5-0.1,0.9c0.1-0.2,0.3-0.3,0.4-0.4c0.2-0.1,0.4-0.1,0.5-0.1
		c0.3,0,0.6,0.1,0.9,0.4c0.2,0.2,0.4,0.6,0.4,1c0,0.3-0.1,0.5-0.2,0.7c-0.1,0.2-0.3,0.4-0.5,0.5c-0.2,0.1-0.4,0.2-0.7,0.2
		c-0.4,0-0.8-0.2-1-0.5c-0.3-0.3-0.4-0.8-0.4-1.5c0-0.8,0.1-1.4,0.4-1.7c0.3-0.3,0.6-0.5,1-0.5c0.3,0,0.6,0.1,0.8,0.3
		C319.5,406.7,319.6,407,319.7,407.3L319.7,407.3z M317.6,409.1c0,0.2,0,0.3,0.1,0.5c0.1,0.2,0.2,0.3,0.3,0.4
		c0.1,0.1,0.3,0.1,0.4,0.1c0.2,0,0.4-0.1,0.5-0.3c0.2-0.2,0.2-0.4,0.2-0.7c0-0.3-0.1-0.5-0.2-0.7c-0.1-0.2-0.3-0.2-0.6-0.2
		c-0.2,0-0.4,0.1-0.6,0.2C317.7,408.6,317.6,408.8,317.6,409.1L317.6,409.1z"/>
	<path d="M334.7,410.4h-0.5v-3.2c-0.1,0.1-0.3,0.2-0.5,0.3c-0.2,0.1-0.4,0.2-0.5,0.3v-0.5c0.3-0.1,0.5-0.3,0.7-0.5
		c0.2-0.2,0.4-0.4,0.4-0.5h0.3V410.4L334.7,410.4z M336.1,406.8v-0.5h2.6v0.4c-0.3,0.3-0.5,0.6-0.8,1.1c-0.3,0.5-0.5,0.9-0.6,1.4
		c-0.1,0.3-0.2,0.7-0.2,1.1h-0.5c0-0.3,0.1-0.7,0.2-1.2c0.1-0.5,0.3-0.9,0.5-1.3c0.2-0.4,0.5-0.8,0.7-1.1H336.1L336.1,406.8z"/>
	<path d="M353.4,410.4h-0.5v-3.2c-0.1,0.1-0.3,0.2-0.5,0.3c-0.2,0.1-0.4,0.2-0.5,0.3v-0.5c0.3-0.1,0.5-0.3,0.7-0.5
		c0.2-0.2,0.4-0.4,0.4-0.5h0.3V410.4L353.4,410.4z M355.4,408.2c-0.2-0.1-0.4-0.2-0.5-0.3c-0.1-0.1-0.2-0.3-0.2-0.5
		c0-0.3,0.1-0.5,0.3-0.7c0.2-0.2,0.5-0.3,0.9-0.3c0.4,0,0.6,0.1,0.9,0.3c0.2,0.2,0.3,0.5,0.3,0.8c0,0.2,0,0.4-0.1,0.5
		c-0.1,0.1-0.2,0.2-0.4,0.3c0.3,0.1,0.4,0.2,0.6,0.4c0.1,0.2,0.2,0.4,0.2,0.6c0,0.3-0.1,0.6-0.4,0.9c-0.2,0.2-0.6,0.4-1,0.4
		c-0.4,0-0.7-0.1-1-0.4c-0.2-0.2-0.4-0.5-0.4-0.9c0-0.3,0.1-0.5,0.2-0.7C355,408.4,355.2,408.2,355.4,408.2L355.4,408.2z
		 M355.3,407.3c0,0.2,0.1,0.4,0.2,0.5c0.1,0.1,0.3,0.2,0.5,0.2c0.2,0,0.3-0.1,0.5-0.2c0.1-0.1,0.2-0.3,0.2-0.4
		c0-0.2-0.1-0.3-0.2-0.5s-0.3-0.2-0.5-0.2c-0.2,0-0.3,0.1-0.5,0.2C355.4,407,355.3,407.2,355.3,407.3L355.3,407.3z M355.2,409.2
		c0,0.1,0,0.3,0.1,0.4c0.1,0.1,0.2,0.2,0.3,0.3c0.1,0.1,0.3,0.1,0.4,0.1c0.2,0,0.4-0.1,0.6-0.2c0.2-0.2,0.2-0.4,0.2-0.6
		c0-0.2-0.1-0.4-0.2-0.6c-0.2-0.2-0.4-0.2-0.6-0.2c-0.2,0-0.4,0.1-0.6,0.2C355.3,408.8,355.2,409,355.2,409.2L355.2,409.2z"/>
	<path d="M372.4,410.4h-0.5v-3.2c-0.1,0.1-0.3,0.2-0.5,0.3c-0.2,0.1-0.4,0.2-0.5,0.3v-0.5c0.3-0.1,0.5-0.3,0.7-0.5
		c0.2-0.2,0.4-0.4,0.4-0.5h0.3V410.4L372.4,410.4z M373.7,409.4l0.5,0c0,0.2,0.1,0.4,0.2,0.5c0.1,0.1,0.3,0.2,0.4,0.2
		c0.2,0,0.3,0,0.4-0.1c0.1-0.1,0.2-0.2,0.3-0.3c0.1-0.1,0.1-0.3,0.2-0.5c0-0.2,0.1-0.4,0.1-0.6c0,0,0-0.1,0-0.1
		c-0.1,0.2-0.2,0.3-0.4,0.4s-0.4,0.1-0.6,0.1c-0.3,0-0.6-0.1-0.9-0.4c-0.2-0.2-0.4-0.6-0.4-1c0-0.4,0.1-0.7,0.4-1
		c0.2-0.3,0.5-0.4,0.9-0.4c0.3,0,0.5,0.1,0.7,0.2s0.4,0.3,0.5,0.6c0.1,0.3,0.2,0.6,0.2,1.1c0,0.5-0.1,0.9-0.2,1.2
		c-0.1,0.3-0.3,0.5-0.5,0.7c-0.2,0.2-0.5,0.2-0.8,0.2c-0.3,0-0.6-0.1-0.8-0.3C373.9,410,373.8,409.8,373.7,409.4L373.7,409.4z
		 M375.8,407.6c0-0.3-0.1-0.5-0.2-0.7s-0.3-0.3-0.6-0.3c-0.2,0-0.4,0.1-0.6,0.3c-0.2,0.2-0.2,0.4-0.2,0.7c0,0.3,0.1,0.5,0.2,0.6
		c0.2,0.2,0.3,0.2,0.6,0.2c0.2,0,0.4-0.1,0.6-0.2C375.7,408.2,375.8,407.9,375.8,407.6L375.8,407.6z"/>
	<path d="M392.1,409.9v0.5h-2.7c0-0.1,0-0.2,0.1-0.3c0.1-0.2,0.2-0.4,0.3-0.5c0.1-0.2,0.4-0.4,0.7-0.6c0.4-0.4,0.7-0.6,0.9-0.9
		s0.2-0.4,0.2-0.6c0-0.2-0.1-0.4-0.2-0.5c-0.1-0.1-0.3-0.2-0.6-0.2c-0.2,0-0.4,0.1-0.6,0.2c-0.1,0.1-0.2,0.3-0.2,0.6l-0.5-0.1
		c0-0.4,0.2-0.7,0.4-0.9c0.2-0.2,0.5-0.3,0.9-0.3c0.4,0,0.7,0.1,0.9,0.3c0.2,0.2,0.3,0.5,0.3,0.8c0,0.2,0,0.3-0.1,0.5
		c-0.1,0.2-0.2,0.3-0.3,0.5c-0.2,0.2-0.4,0.4-0.8,0.7c-0.3,0.3-0.5,0.4-0.6,0.5c-0.1,0.1-0.2,0.2-0.2,0.3H392.1L392.1,409.9z
		 M392.6,408.4c0-0.5,0-0.9,0.1-1.2c0.1-0.3,0.2-0.5,0.4-0.7c0.2-0.2,0.4-0.2,0.7-0.2c0.2,0,0.4,0,0.6,0.1c0.2,0.1,0.3,0.2,0.4,0.4
		c0.1,0.2,0.2,0.4,0.3,0.6c0.1,0.2,0.1,0.6,0.1,1c0,0.5,0,0.9-0.1,1.2c-0.1,0.3-0.2,0.5-0.4,0.7c-0.2,0.2-0.4,0.2-0.7,0.2
		c-0.4,0-0.7-0.1-0.9-0.4C392.7,409.7,392.6,409.1,392.6,408.4L392.6,408.4z M393.1,408.4c0,0.7,0.1,1.1,0.2,1.3
		c0.2,0.2,0.3,0.3,0.6,0.3c0.2,0,0.4-0.1,0.6-0.3c0.2-0.2,0.2-0.7,0.2-1.3c0-0.7-0.1-1.1-0.2-1.3c-0.2-0.2-0.4-0.3-0.6-0.3
		c-0.2,0-0.4,0.1-0.6,0.3C393.2,407.2,393.1,407.7,393.1,408.4L393.1,408.4z"/>
	<path d="M411,409.9v0.5h-2.7c0-0.1,0-0.2,0.1-0.3c0.1-0.2,0.2-0.4,0.3-0.5c0.1-0.2,0.4-0.4,0.7-0.6c0.4-0.4,0.7-0.6,0.9-0.9
		c0.2-0.2,0.2-0.4,0.2-0.6c0-0.2-0.1-0.4-0.2-0.5c-0.1-0.1-0.3-0.2-0.6-0.2c-0.2,0-0.4,0.1-0.6,0.2c-0.1,0.1-0.2,0.3-0.2,0.6
		l-0.5-0.1c0-0.4,0.2-0.7,0.4-0.9c0.2-0.2,0.5-0.3,0.9-0.3s0.7,0.1,0.9,0.3c0.2,0.2,0.3,0.5,0.3,0.8c0,0.2,0,0.3-0.1,0.5
		c-0.1,0.2-0.2,0.3-0.3,0.5c-0.2,0.2-0.4,0.4-0.8,0.7c-0.3,0.3-0.5,0.4-0.6,0.5c-0.1,0.1-0.2,0.2-0.2,0.3H411L411,409.9z
		 M413.5,410.4H413v-3.2c-0.1,0.1-0.3,0.2-0.5,0.3c-0.2,0.1-0.4,0.2-0.5,0.3v-0.5c0.3-0.1,0.5-0.3,0.7-0.5c0.2-0.2,0.4-0.4,0.4-0.5
		h0.3V410.4L413.5,410.4z"/>
	<path d="M10.1,387.3H9.6v-3.2c-0.1,0.1-0.3,0.2-0.5,0.3c-0.2,0.1-0.4,0.2-0.5,0.3v-0.5c0.3-0.1,0.5-0.3,0.7-0.5
		c0.2-0.2,0.4-0.4,0.4-0.5h0.3V387.3L10.1,387.3z"/>
	<path d="M10.9,367.9v0.5H8.2c0-0.1,0-0.2,0.1-0.3c0.1-0.2,0.2-0.4,0.3-0.5c0.1-0.2,0.4-0.4,0.7-0.6c0.4-0.4,0.7-0.6,0.9-0.9
		c0.2-0.2,0.2-0.4,0.2-0.6c0-0.2-0.1-0.4-0.2-0.5c-0.1-0.1-0.3-0.2-0.6-0.2c-0.2,0-0.4,0.1-0.6,0.2c-0.1,0.1-0.2,0.3-0.2,0.6
		l-0.5-0.1c0-0.4,0.2-0.7,0.4-0.9c0.2-0.2,0.5-0.3,0.9-0.3c0.4,0,0.7,0.1,0.9,0.3c0.2,0.2,0.3,0.5,0.3,0.8c0,0.2,0,0.3-0.1,0.5
		c-0.1,0.2-0.2,0.3-0.3,0.5c-0.2,0.2-0.4,0.4-0.8,0.7c-0.3,0.3-0.5,0.4-0.6,0.5c-0.1,0.1-0.2,0.2-0.2,0.3H10.9L10.9,367.9z"/>
	<path d="M8.3,348.3l0.5-0.1c0.1,0.3,0.2,0.5,0.3,0.6c0.1,0.1,0.3,0.2,0.5,0.2c0.2,0,0.4-0.1,0.6-0.2c0.2-0.2,0.2-0.4,0.2-0.6
		c0-0.2-0.1-0.4-0.2-0.6c-0.1-0.1-0.3-0.2-0.6-0.2c-0.1,0-0.2,0-0.4,0.1l0.1-0.4c0,0,0.1,0,0.1,0c0.2,0,0.4-0.1,0.6-0.2
		c0.2-0.1,0.3-0.3,0.3-0.5c0-0.2-0.1-0.3-0.2-0.5c-0.1-0.1-0.3-0.2-0.5-0.2c-0.2,0-0.4,0.1-0.5,0.2c-0.1,0.1-0.2,0.3-0.2,0.6
		l-0.5-0.1c0.1-0.3,0.2-0.6,0.4-0.8c0.2-0.2,0.5-0.3,0.8-0.3c0.2,0,0.4,0,0.6,0.1c0.2,0.1,0.3,0.2,0.4,0.4c0.1,0.2,0.1,0.3,0.1,0.5
		c0,0.2,0,0.3-0.1,0.5c-0.1,0.1-0.2,0.3-0.4,0.3c0.2,0.1,0.4,0.2,0.6,0.3c0.1,0.2,0.2,0.4,0.2,0.7c0,0.4-0.1,0.7-0.4,0.9
		c-0.3,0.2-0.6,0.4-1,0.4c-0.4,0-0.7-0.1-0.9-0.3C8.4,348.9,8.3,348.6,8.3,348.3L8.3,348.3z"/>
	<path d="M9.9,330.4v-1H8.1V329l1.9-2.6h0.4v2.6h0.5v0.5h-0.5v1H9.9L9.9,330.4z M9.9,329v-1.8L8.6,329H9.9L9.9,329z"/>
	<path d="M8.3,310.7l0.5,0c0,0.3,0.1,0.4,0.3,0.6c0.1,0.1,0.3,0.2,0.5,0.2c0.2,0,0.4-0.1,0.6-0.3c0.2-0.2,0.2-0.4,0.2-0.7
		c0-0.3-0.1-0.5-0.2-0.7c-0.2-0.2-0.4-0.2-0.6-0.2c-0.2,0-0.3,0-0.4,0.1c-0.1,0.1-0.2,0.2-0.3,0.3l-0.5-0.1l0.4-2.1h2v0.5H9.1
		l-0.2,1.1c0.2-0.2,0.5-0.3,0.8-0.3c0.4,0,0.7,0.1,0.9,0.4c0.2,0.2,0.4,0.6,0.4,0.9c0,0.4-0.1,0.7-0.3,1c-0.3,0.3-0.6,0.5-1.1,0.5
		c-0.4,0-0.7-0.1-0.9-0.3C8.4,311.3,8.3,311,8.3,310.7L8.3,310.7z"/>
	<path d="M10.8,289.7l-0.5,0c0-0.2-0.1-0.3-0.2-0.4c-0.1-0.1-0.3-0.2-0.5-0.2c-0.2,0-0.3,0-0.4,0.1c-0.2,0.1-0.3,0.3-0.4,0.5
		c-0.1,0.2-0.1,0.5-0.1,0.9c0.1-0.2,0.3-0.3,0.4-0.4s0.4-0.1,0.5-0.1c0.3,0,0.6,0.1,0.9,0.4s0.4,0.6,0.4,1c0,0.3-0.1,0.5-0.2,0.7
		c-0.1,0.2-0.3,0.4-0.5,0.5s-0.4,0.2-0.7,0.2c-0.4,0-0.8-0.2-1-0.5c-0.3-0.3-0.4-0.8-0.4-1.5c0-0.8,0.1-1.4,0.4-1.7
		c0.3-0.3,0.6-0.5,1-0.5c0.3,0,0.6,0.1,0.8,0.3C10.7,289.2,10.8,289.4,10.8,289.7L10.8,289.7z M8.8,291.5c0,0.2,0,0.3,0.1,0.5
		c0.1,0.2,0.2,0.3,0.3,0.4c0.1,0.1,0.3,0.1,0.4,0.1c0.2,0,0.4-0.1,0.5-0.3c0.2-0.2,0.2-0.4,0.2-0.7c0-0.3-0.1-0.5-0.2-0.7
		c-0.1-0.2-0.3-0.2-0.6-0.2s-0.4,0.1-0.6,0.2C8.9,291,8.8,291.2,8.8,291.5L8.8,291.5z"/>
	<path d="M8.3,270.3v-0.5h2.6v0.4c-0.3,0.3-0.5,0.6-0.8,1.1c-0.3,0.5-0.5,0.9-0.6,1.4c-0.1,0.3-0.2,0.7-0.2,1.1H8.9
		c0-0.3,0.1-0.7,0.2-1.2c0.1-0.5,0.3-0.9,0.5-1.3c0.2-0.4,0.5-0.8,0.7-1.1H8.3L8.3,270.3z"/>
	<path d="M9,252.7c-0.2-0.1-0.4-0.2-0.5-0.3c-0.1-0.1-0.2-0.3-0.2-0.5c0-0.3,0.1-0.5,0.3-0.7c0.2-0.2,0.5-0.3,0.9-0.3
		c0.4,0,0.6,0.1,0.9,0.3c0.2,0.2,0.3,0.5,0.3,0.8c0,0.2,0,0.4-0.1,0.5c-0.1,0.1-0.2,0.2-0.4,0.3c0.3,0.1,0.4,0.2,0.6,0.4
		c0.1,0.2,0.2,0.4,0.2,0.6c0,0.3-0.1,0.6-0.4,0.9c-0.2,0.2-0.6,0.4-1,0.4s-0.7-0.1-1-0.4c-0.2-0.2-0.4-0.5-0.4-0.9
		c0-0.3,0.1-0.5,0.2-0.7C8.6,252.8,8.8,252.7,9,252.7L9,252.7z M8.9,251.8c0,0.2,0.1,0.4,0.2,0.5c0.1,0.1,0.3,0.2,0.5,0.2
		c0.2,0,0.3-0.1,0.5-0.2c0.1-0.1,0.2-0.3,0.2-0.4c0-0.2-0.1-0.3-0.2-0.5c-0.1-0.1-0.3-0.2-0.5-0.2c-0.2,0-0.3,0.1-0.5,0.2
		C9,251.5,8.9,251.6,8.9,251.8L8.9,251.8z M8.8,253.7c0,0.1,0,0.3,0.1,0.4s0.2,0.2,0.3,0.3c0.1,0.1,0.3,0.1,0.4,0.1
		c0.2,0,0.4-0.1,0.6-0.2c0.2-0.2,0.2-0.4,0.2-0.6c0-0.2-0.1-0.4-0.2-0.6c-0.2-0.2-0.4-0.2-0.6-0.2c-0.2,0-0.4,0.1-0.6,0.2
		C8.8,253.3,8.8,253.5,8.8,253.7L8.8,253.7z"/>
	<path d="M8.3,235l0.5,0c0,0.2,0.1,0.4,0.2,0.5c0.1,0.1,0.3,0.2,0.4,0.2c0.2,0,0.3,0,0.4-0.1c0.1-0.1,0.2-0.2,0.3-0.3
		c0.1-0.1,0.1-0.3,0.2-0.5c0-0.2,0.1-0.4,0.1-0.6c0,0,0-0.1,0-0.1c-0.1,0.2-0.2,0.3-0.4,0.4c-0.2,0.1-0.4,0.1-0.6,0.1
		c-0.3,0-0.6-0.1-0.9-0.4c-0.2-0.2-0.4-0.6-0.4-1c0-0.4,0.1-0.7,0.4-1c0.2-0.3,0.5-0.4,0.9-0.4c0.3,0,0.5,0.1,0.7,0.2
		c0.2,0.1,0.4,0.3,0.5,0.6c0.1,0.3,0.2,0.6,0.2,1.1c0,0.5-0.1,0.9-0.2,1.2c-0.1,0.3-0.3,0.5-0.5,0.7c-0.2,0.2-0.5,0.2-0.8,0.2
		c-0.3,0-0.6-0.1-0.8-0.3C8.5,235.5,8.4,235.3,8.3,235L8.3,235z M10.4,233.2c0-0.3-0.1-0.5-0.2-0.7c-0.2-0.2-0.3-0.3-0.6-0.3
		c-0.2,0-0.4,0.1-0.6,0.3c-0.2,0.2-0.2,0.4-0.2,0.7c0,0.3,0.1,0.5,0.2,0.6c0.2,0.2,0.3,0.2,0.6,0.2c0.2,0,0.4-0.1,0.6-0.2
		C10.3,233.7,10.4,233.5,10.4,233.2L10.4,233.2z"/>
	<path d="M7,217.3H6.5v-3.2c-0.1,0.1-0.3,0.2-0.5,0.3c-0.2,0.1-0.4,0.2-0.5,0.3v-0.5c0.3-0.1,0.5-0.3,0.7-0.5
		c0.2-0.2,0.4-0.4,0.4-0.5H7V217.3L7,217.3z M8.3,215.3c0-0.5,0-0.9,0.1-1.2c0.1-0.3,0.2-0.5,0.4-0.7c0.2-0.2,0.4-0.2,0.7-0.2
		c0.2,0,0.4,0,0.6,0.1c0.2,0.1,0.3,0.2,0.4,0.4c0.1,0.2,0.2,0.4,0.3,0.6c0.1,0.2,0.1,0.6,0.1,1c0,0.5,0,0.9-0.1,1.2
		c-0.1,0.3-0.2,0.5-0.4,0.7s-0.4,0.2-0.7,0.2c-0.4,0-0.7-0.1-0.9-0.4C8.4,216.6,8.3,216,8.3,215.3L8.3,215.3z M8.8,215.3
		c0,0.7,0.1,1.1,0.2,1.3c0.2,0.2,0.3,0.3,0.6,0.3c0.2,0,0.4-0.1,0.6-0.3c0.2-0.2,0.2-0.7,0.2-1.3c0-0.7-0.1-1.1-0.2-1.3
		c-0.2-0.2-0.4-0.3-0.6-0.3c-0.2,0-0.4,0.1-0.6,0.3C8.9,214.1,8.8,214.6,8.8,215.3L8.8,215.3z"/>
	<path d="M7,198.3H6.5v-3.2c-0.1,0.1-0.3,0.2-0.5,0.3c-0.2,0.1-0.4,0.2-0.5,0.3v-0.5c0.3-0.1,0.5-0.3,0.7-0.5
		c0.2-0.2,0.4-0.4,0.4-0.5H7V198.3L7,198.3z M10.1,198.3H9.6v-3.2c-0.1,0.1-0.3,0.2-0.5,0.3c-0.2,0.1-0.4,0.2-0.5,0.3v-0.5
		c0.3-0.1,0.5-0.3,0.7-0.5c0.2-0.2,0.4-0.4,0.4-0.5h0.3V198.3L10.1,198.3z"/>
	<path d="M7,179.3H6.5v-3.2c-0.1,0.1-0.3,0.2-0.5,0.3c-0.2,0.1-0.4,0.2-0.5,0.3v-0.5c0.3-0.1,0.5-0.3,0.7-0.5
		c0.2-0.2,0.4-0.4,0.4-0.5H7V179.3L7,179.3z M10.9,178.9v0.5H8.2c0-0.1,0-0.2,0.1-0.3c0.1-0.2,0.2-0.4,0.3-0.5
		c0.1-0.2,0.4-0.4,0.7-0.6c0.4-0.4,0.7-0.6,0.9-0.9c0.2-0.2,0.2-0.4,0.2-0.6c0-0.2-0.1-0.4-0.2-0.5c-0.1-0.1-0.3-0.2-0.6-0.2
		c-0.2,0-0.4,0.1-0.6,0.2c-0.1,0.1-0.2,0.3-0.2,0.6l-0.5-0.1c0-0.4,0.2-0.7,0.4-0.9c0.2-0.2,0.5-0.3,0.9-0.3c0.4,0,0.7,0.1,0.9,0.3
		c0.2,0.2,0.3,0.5,0.3,0.8c0,0.2,0,0.3-0.1,0.5s-0.2,0.3-0.3,0.5c-0.2,0.2-0.4,0.4-0.8,0.7c-0.3,0.3-0.5,0.4-0.6,0.5
		c-0.1,0.1-0.2,0.2-0.2,0.3H10.9L10.9,178.9z"/>
	<path d="M7,160.4H6.5v-3.2c-0.1,0.1-0.3,0.2-0.5,0.3c-0.2,0.1-0.4,0.2-0.5,0.3v-0.5c0.3-0.1,0.5-0.3,0.7-0.5
		c0.2-0.2,0.4-0.4,0.4-0.5H7V160.4L7,160.4z M8.3,159.3l0.5-0.1c0.1,0.3,0.2,0.5,0.3,0.6c0.1,0.1,0.3,0.2,0.5,0.2
		c0.2,0,0.4-0.1,0.6-0.2c0.2-0.2,0.2-0.4,0.2-0.6c0-0.2-0.1-0.4-0.2-0.6c-0.1-0.1-0.3-0.2-0.6-0.2c-0.1,0-0.2,0-0.4,0.1l0.1-0.4
		c0,0,0.1,0,0.1,0c0.2,0,0.4-0.1,0.6-0.2s0.3-0.3,0.3-0.5c0-0.2-0.1-0.3-0.2-0.5c-0.1-0.1-0.3-0.2-0.5-0.2s-0.4,0.1-0.5,0.2
		c-0.1,0.1-0.2,0.3-0.2,0.6l-0.5-0.1c0.1-0.3,0.2-0.6,0.4-0.8s0.5-0.3,0.8-0.3c0.2,0,0.4,0,0.6,0.1c0.2,0.1,0.3,0.2,0.4,0.4
		c0.1,0.2,0.1,0.3,0.1,0.5c0,0.2,0,0.3-0.1,0.5c-0.1,0.1-0.2,0.3-0.4,0.3c0.2,0.1,0.4,0.2,0.6,0.3c0.1,0.2,0.2,0.4,0.2,0.7
		c0,0.4-0.1,0.7-0.4,0.9c-0.3,0.2-0.6,0.4-1,0.4c-0.4,0-0.7-0.1-0.9-0.3C8.4,159.9,8.3,159.6,8.3,159.3L8.3,159.3z"/>
	<path d="M7,141.4H6.5v-3.2c-0.1,0.1-0.3,0.2-0.5,0.3c-0.2,0.1-0.4,0.2-0.5,0.3v-0.5c0.3-0.1,0.5-0.3,0.7-0.5
		c0.2-0.2,0.4-0.4,0.4-0.5H7V141.4L7,141.4z M9.9,141.4v-1H8.1V140l1.9-2.6h0.4v2.6h0.5v0.5h-0.5v1H9.9L9.9,141.4z M9.9,140v-1.8
		L8.6,140H9.9L9.9,140z"/>
	<path d="M7,122.8H6.5v-3.2c-0.1,0.1-0.3,0.2-0.5,0.3c-0.2,0.1-0.4,0.2-0.5,0.3v-0.5c0.3-0.1,0.5-0.3,0.7-0.5
		c0.2-0.2,0.4-0.4,0.4-0.5H7V122.8L7,122.8z M8.3,121.7l0.5,0c0,0.3,0.1,0.4,0.3,0.6s0.3,0.2,0.5,0.2c0.2,0,0.4-0.1,0.6-0.3
		s0.2-0.4,0.2-0.7c0-0.3-0.1-0.5-0.2-0.7c-0.2-0.2-0.4-0.2-0.6-0.2c-0.2,0-0.3,0-0.4,0.1c-0.1,0.1-0.2,0.2-0.3,0.3l-0.5-0.1l0.4-2.1
		h2v0.5H9.1l-0.2,1.1c0.2-0.2,0.5-0.3,0.8-0.3c0.4,0,0.7,0.1,0.9,0.4c0.2,0.2,0.4,0.6,0.4,0.9c0,0.4-0.1,0.7-0.3,1
		c-0.3,0.3-0.6,0.5-1.1,0.5c-0.4,0-0.7-0.1-0.9-0.3S8.3,122,8.3,121.7L8.3,121.7z"/>
	<path d="M7,103.8H6.5v-3.2c-0.1,0.1-0.3,0.2-0.5,0.3c-0.2,0.1-0.4,0.2-0.5,0.3v-0.5c0.3-0.1,0.5-0.3,0.7-0.5
		c0.2-0.2,0.4-0.4,0.4-0.5H7V103.8L7,103.8z M10.9,100.7l-0.5,0c0-0.2-0.1-0.3-0.2-0.4c-0.1-0.1-0.3-0.2-0.5-0.2
		c-0.2,0-0.3,0-0.4,0.1c-0.2,0.1-0.3,0.3-0.4,0.5c-0.1,0.2-0.1,0.5-0.1,0.9c0.1-0.2,0.3-0.3,0.4-0.4s0.4-0.1,0.5-0.1
		c0.3,0,0.6,0.1,0.9,0.4c0.2,0.2,0.4,0.6,0.4,1c0,0.3-0.1,0.5-0.2,0.7c-0.1,0.2-0.3,0.4-0.5,0.5s-0.4,0.2-0.7,0.2
		c-0.4,0-0.8-0.2-1-0.5c-0.3-0.3-0.4-0.8-0.4-1.5c0-0.8,0.1-1.4,0.4-1.7c0.3-0.3,0.6-0.5,1-0.5c0.3,0,0.6,0.1,0.8,0.3
		C10.7,100.1,10.8,100.4,10.9,100.7L10.9,100.7z M8.8,102.5c0,0.2,0,0.3,0.1,0.5c0.1,0.2,0.2,0.3,0.3,0.4s0.3,0.1,0.4,0.1
		c0.2,0,0.4-0.1,0.5-0.3s0.2-0.4,0.2-0.7c0-0.3-0.1-0.5-0.2-0.7c-0.1-0.2-0.3-0.2-0.6-0.2s-0.4,0.1-0.6,0.2
		C8.9,102,8.8,102.2,8.8,102.5L8.8,102.5z"/>
	<path d="M7,84.8H6.5v-3.2C6.4,81.8,6.2,81.9,6,82c-0.2,0.1-0.4,0.2-0.5,0.3v-0.5c0.3-0.1,0.5-0.3,0.7-0.5c0.2-0.2,0.4-0.4,0.4-0.5
		H7V84.8L7,84.8z M8.3,81.3v-0.5h2.6v0.4c-0.3,0.3-0.5,0.6-0.8,1.1c-0.3,0.5-0.5,0.9-0.6,1.4c-0.1,0.3-0.2,0.7-0.2,1.1H8.9
		c0-0.3,0.1-0.7,0.2-1.2s0.3-0.9,0.5-1.3c0.2-0.4,0.5-0.8,0.7-1.1H8.3L8.3,81.3z"/>
	<path d="M7,65.9H6.5v-3.2C6.4,62.8,6.2,62.9,6,63c-0.2,0.1-0.4,0.2-0.5,0.3v-0.5c0.3-0.1,0.5-0.3,0.7-0.5c0.2-0.2,0.4-0.4,0.4-0.5
		H7V65.9L7,65.9z M9,63.7c-0.2-0.1-0.4-0.2-0.5-0.3c-0.1-0.1-0.2-0.3-0.2-0.5c0-0.3,0.1-0.5,0.3-0.7s0.5-0.3,0.9-0.3
		c0.4,0,0.6,0.1,0.9,0.3c0.2,0.2,0.3,0.5,0.3,0.8c0,0.2,0,0.4-0.1,0.5c-0.1,0.1-0.2,0.2-0.4,0.3c0.3,0.1,0.4,0.2,0.6,0.4
		c0.1,0.2,0.2,0.4,0.2,0.6c0,0.3-0.1,0.6-0.4,0.9s-0.6,0.4-1,0.4s-0.7-0.1-1-0.4c-0.2-0.2-0.4-0.5-0.4-0.9c0-0.3,0.1-0.5,0.2-0.7
		C8.6,63.8,8.8,63.7,9,63.7L9,63.7z M8.9,62.8c0,0.2,0.1,0.4,0.2,0.5c0.1,0.1,0.3,0.2,0.5,0.2c0.2,0,0.3-0.1,0.5-0.2
		s0.2-0.3,0.2-0.4c0-0.2-0.1-0.3-0.2-0.5s-0.3-0.2-0.5-0.2c-0.2,0-0.3,0.1-0.5,0.2S8.9,62.6,8.9,62.8L8.9,62.8z M8.8,64.7
		c0,0.1,0,0.3,0.1,0.4c0.1,0.1,0.2,0.2,0.3,0.3c0.1,0.1,0.3,0.1,0.4,0.1c0.2,0,0.4-0.1,0.6-0.2c0.2-0.2,0.2-0.4,0.2-0.6
		c0-0.2-0.1-0.4-0.2-0.6c-0.2-0.2-0.4-0.2-0.6-0.2c-0.2,0-0.4,0.1-0.6,0.2S8.8,64.5,8.8,64.7L8.8,64.7z"/>
	<path d="M7,46.9H6.5v-3.2c-0.1,0.1-0.3,0.2-0.5,0.3c-0.2,0.1-0.4,0.2-0.5,0.3v-0.5c0.3-0.1,0.5-0.3,0.7-0.5
		c0.2-0.2,0.4-0.4,0.4-0.5H7V46.9L7,46.9z M8.3,46l0.5,0c0,0.2,0.1,0.4,0.2,0.5s0.3,0.2,0.4,0.2c0.2,0,0.3,0,0.4-0.1
		c0.1-0.1,0.2-0.2,0.3-0.3c0.1-0.1,0.1-0.3,0.2-0.5c0-0.2,0.1-0.4,0.1-0.6c0,0,0-0.1,0-0.1c-0.1,0.2-0.2,0.3-0.4,0.4
		c-0.2,0.1-0.4,0.1-0.6,0.1c-0.3,0-0.6-0.1-0.9-0.4c-0.2-0.2-0.4-0.6-0.4-1c0-0.4,0.1-0.7,0.4-1c0.2-0.3,0.5-0.4,0.9-0.4
		c0.3,0,0.5,0.1,0.7,0.2s0.4,0.3,0.5,0.6c0.1,0.3,0.2,0.6,0.2,1.1c0,0.5-0.1,0.9-0.2,1.2c-0.1,0.3-0.3,0.5-0.5,0.7
		C10,46.9,9.8,47,9.5,47c-0.3,0-0.6-0.1-0.8-0.3S8.4,46.3,8.3,46L8.3,46z M10.4,44.2c0-0.3-0.1-0.5-0.2-0.7
		c-0.2-0.2-0.3-0.3-0.6-0.3c-0.2,0-0.4,0.1-0.6,0.3c-0.2,0.2-0.2,0.4-0.2,0.7c0,0.3,0.1,0.5,0.2,0.6c0.2,0.2,0.3,0.2,0.6,0.2
		c0.2,0,0.4-0.1,0.6-0.2C10.3,44.7,10.4,44.4,10.4,44.2L10.4,44.2z"/>
	<path d="M7.7,27.8v0.5H5c0-0.1,0-0.2,0.1-0.3c0.1-0.2,0.2-0.4,0.3-0.5c0.1-0.2,0.4-0.4,0.7-0.6c0.4-0.4,0.7-0.6,0.9-0.9
		c0.2-0.2,0.2-0.4,0.2-0.6c0-0.2-0.1-0.4-0.2-0.5c-0.1-0.1-0.3-0.2-0.6-0.2c-0.2,0-0.4,0.1-0.6,0.2c-0.1,0.1-0.2,0.3-0.2,0.6
		l-0.5-0.1c0-0.4,0.2-0.7,0.4-0.9c0.2-0.2,0.5-0.3,0.9-0.3s0.7,0.1,0.9,0.3c0.2,0.2,0.3,0.5,0.3,0.8c0,0.2,0,0.3-0.1,0.5
		c-0.1,0.2-0.2,0.3-0.3,0.5c-0.2,0.2-0.4,0.4-0.8,0.7c-0.3,0.3-0.5,0.4-0.6,0.5s-0.2,0.2-0.2,0.3H7.7L7.7,27.8z M8.3,26.2
		c0-0.5,0-0.9,0.1-1.2s0.2-0.5,0.4-0.7c0.2-0.2,0.4-0.2,0.7-0.2c0.2,0,0.4,0,0.6,0.1c0.2,0.1,0.3,0.2,0.4,0.4
		c0.1,0.2,0.2,0.4,0.3,0.6s0.1,0.6,0.1,1c0,0.5,0,0.9-0.1,1.2c-0.1,0.3-0.2,0.5-0.4,0.7c-0.2,0.2-0.4,0.2-0.7,0.2
		c-0.4,0-0.7-0.1-0.9-0.4C8.4,27.6,8.3,27,8.3,26.2L8.3,26.2z M8.8,26.2c0,0.7,0.1,1.1,0.2,1.3c0.2,0.2,0.3,0.3,0.6,0.3
		c0.2,0,0.4-0.1,0.6-0.3c0.2-0.2,0.2-0.7,0.2-1.3s-0.1-1.1-0.2-1.3c-0.2-0.2-0.4-0.3-0.6-0.3c-0.2,0-0.4,0.1-0.6,0.3
		C8.9,25.1,8.8,25.6,8.8,26.2L8.8,26.2z"/>
	<path d="M7.7,8.8v0.5H5C5,9.2,5,9,5.1,8.9c0.1-0.2,0.2-0.4,0.3-0.5C5.6,8.2,5.8,8,6.1,7.8C6.5,7.4,6.8,7.1,7,6.9
		c0.2-0.2,0.2-0.4,0.2-0.6c0-0.2-0.1-0.4-0.2-0.5C6.9,5.7,6.7,5.6,6.4,5.6C6.2,5.6,6,5.7,5.9,5.8C5.7,6,5.6,6.2,5.6,6.4L5.1,6.4
		c0-0.4,0.2-0.7,0.4-0.9c0.2-0.2,0.5-0.3,0.9-0.3s0.7,0.1,0.9,0.3C7.6,5.7,7.7,6,7.7,6.3c0,0.2,0,0.3-0.1,0.5C7.5,7,7.4,7.1,7.3,7.3
		C7.1,7.5,6.9,7.7,6.5,8C6.2,8.3,6,8.4,5.9,8.5S5.8,8.7,5.7,8.8H7.7L7.7,8.8z M10.1,9.3H9.6V6.1C9.5,6.2,9.4,6.3,9.2,6.4
		C9,6.6,8.8,6.6,8.6,6.7V6.2c0.3-0.1,0.5-0.3,0.7-0.5c0.2-0.2,0.4-0.4,0.4-0.5h0.3V9.3L10.1,9.3z"/>
	<path d="M8.3,408.4c0-0.5,0-0.9,0.1-1.2c0.1-0.3,0.2-0.5,0.4-0.7c0.2-0.2,0.4-0.2,0.7-0.2c0.2,0,0.4,0,0.6,0.1s0.3,0.2,0.4,0.4
		c0.1,0.2,0.2,0.4,0.3,0.6c0.1,0.2,0.1,0.6,0.1,1c0,0.5,0,0.9-0.1,1.2c-0.1,0.3-0.2,0.5-0.4,0.7c-0.2,0.2-0.4,0.2-0.7,0.2
		c-0.4,0-0.7-0.1-0.9-0.4C8.4,409.7,8.3,409.1,8.3,408.4L8.3,408.4z M8.8,408.4c0,0.7,0.1,1.1,0.2,1.3c0.2,0.2,0.3,0.3,0.6,0.3
		c0.2,0,0.4-0.1,0.6-0.3c0.2-0.2,0.2-0.7,0.2-1.3c0-0.7-0.1-1.1-0.2-1.3c-0.2-0.2-0.4-0.3-0.6-0.3c-0.2,0-0.4,0.1-0.6,0.3
		C8.9,407.2,8.8,407.7,8.8,408.4L8.8,408.4z"/>
	<g>
		<defs>
			<rect id="SVGID_3_" x="2.3" y="2.3" width="415.3" height="418"/>
		</defs>
		<clipPath id="SVGID_4_">
			<use xlink:href="#SVGID_3_"  style="overflow:visible;"/>
		</clipPath>
		<line class="st4" x1="0.8" y1="416.9" x2="416.9" y2="0.8"/>
		<line class="st5" x1="0.8" y1="377.8" x2="419.2" y2="1.2"/>
	</g>
	<path class="st6" d="M51.7,403.7l0-71.8 M51.7,331.9l34,0 M85.8,331.9l0,71.8 M85.8,331.9l0-30.6 M85.7,301.3l30.6,0 M116.4,403.7
		l0-130 M116.4,273.8l27.6,0 M144,403.7l0-154.8 M143.9,249l24.8,0 M168.8,403.7l-0.1-177.1 M168.7,226.6l22.3,0 M191.1,403.7
		L191,206.5 M191,206.5l20.1,0 M211.1,206.5l0.1,197.2"/>
	<path class="st7" d="M392.5,25.8c0,0.3-0.3,0.6-0.6,0.6c-0.3,0-0.6-0.3-0.6-0.6s0.3-0.6,0.6-0.6C392.2,25.1,392.5,25.4,392.5,25.8
		L392.5,25.8z"/>
	<path class="st8" d="M392.5,25.8c0,0.3-0.3,0.6-0.6,0.6c-0.3,0-0.6-0.3-0.6-0.6s0.3-0.6,0.6-0.6C392.2,25.1,392.5,25.4,392.5,25.8
		L392.5,25.8z"/>
	<path class="st7" d="M384.4,24.1v-5.4h1.1l1.3,3.8c0.1,0.4,0.2,0.6,0.3,0.8c0.1-0.2,0.2-0.5,0.3-0.9l1.3-3.8h1v5.4h-0.7v-4.5
		l-1.6,4.5h-0.7l-1.6-4.6v4.6H384.4L384.4,24.1z"/>
	<path class="st9" d="M52,331.9c0,0.2-0.1,0.3-0.3,0.3c-0.2,0-0.3-0.1-0.3-0.3c0-0.2,0.1-0.3,0.3-0.3C51.9,331.6,52,331.7,52,331.9
		L52,331.9z"/>
	<path class="st8" d="M52,331.9c0,0.2-0.1,0.3-0.3,0.3c-0.2,0-0.3-0.1-0.3-0.3c0-0.2,0.1-0.3,0.3-0.3C51.9,331.6,52,331.7,52,331.9
		L52,331.9z"/>
	<path class="st9" d="M42.1,327.3l2.1-5.4H45l2.2,5.4h-0.8l-0.6-1.6h-2.3l-0.6,1.6H42.1L42.1,327.3z M43.7,325h1.8l-0.6-1.5
		c-0.2-0.5-0.3-0.8-0.4-1.1c-0.1,0.3-0.2,0.7-0.3,1L43.7,325L43.7,325z"/>
	<path class="st9" d="M47.5,328.1c0-0.6,0.1-1,0.2-1.4c0.1-0.3,0.3-0.6,0.5-0.8c0.2-0.2,0.5-0.3,0.9-0.3c0.3,0,0.5,0.1,0.7,0.2
		s0.4,0.3,0.5,0.4c0.1,0.2,0.2,0.4,0.3,0.7c0.1,0.3,0.1,0.7,0.1,1.1c0,0.6-0.1,1-0.2,1.3s-0.3,0.6-0.5,0.8c-0.2,0.2-0.5,0.3-0.9,0.3
		c-0.5,0-0.8-0.2-1.1-0.5C47.6,329.6,47.5,329,47.5,328.1L47.5,328.1z M48.1,328.1c0,0.8,0.1,1.3,0.3,1.6s0.4,0.4,0.7,0.4
		c0.3,0,0.5-0.1,0.7-0.4s0.3-0.8,0.3-1.6c0-0.8-0.1-1.3-0.3-1.6s-0.4-0.4-0.7-0.4c-0.3,0-0.5,0.1-0.6,0.3
		C48.2,326.8,48.1,327.3,48.1,328.1L48.1,328.1z"/>
	<path class="st9" d="M86.1,331.9c0,0.2-0.1,0.3-0.3,0.3c-0.2,0-0.3-0.1-0.3-0.3c0-0.2,0.1-0.3,0.3-0.3
		C85.9,331.6,86.1,331.7,86.1,331.9L86.1,331.9z"/>
	<path class="st8" d="M86.1,331.9c0,0.2-0.1,0.3-0.3,0.3c-0.2,0-0.3-0.1-0.3-0.3c0-0.2,0.1-0.3,0.3-0.3
		C85.9,331.6,86.1,331.7,86.1,331.9L86.1,331.9z"/>
	<path class="st9" d="M90.1,335.5V330h2c0.4,0,0.7,0.1,1,0.2c0.3,0.1,0.4,0.3,0.6,0.5c0.1,0.2,0.2,0.5,0.2,0.7
		c0,0.2-0.1,0.4-0.2,0.7c-0.1,0.2-0.3,0.4-0.6,0.5c0.3,0.1,0.6,0.3,0.8,0.5c0.2,0.2,0.3,0.5,0.3,0.8c0,0.3-0.1,0.5-0.2,0.7
		c-0.1,0.2-0.2,0.4-0.4,0.5c-0.2,0.1-0.4,0.2-0.6,0.3c-0.2,0.1-0.5,0.1-0.9,0.1H90.1L90.1,335.5z M90.8,332.3H92
		c0.3,0,0.5,0,0.7-0.1c0.2-0.1,0.3-0.1,0.4-0.3c0.1-0.1,0.1-0.3,0.1-0.5c0-0.2,0-0.3-0.1-0.5c-0.1-0.1-0.2-0.2-0.4-0.3
		c-0.2-0.1-0.4-0.1-0.8-0.1h-1.1V332.3L90.8,332.3z M90.8,334.8h1.4c0.2,0,0.4,0,0.5,0c0.2,0,0.3-0.1,0.4-0.1s0.2-0.2,0.3-0.3
		s0.1-0.3,0.1-0.5c0-0.2-0.1-0.4-0.2-0.5c-0.1-0.1-0.2-0.3-0.4-0.3c-0.2-0.1-0.4-0.1-0.8-0.1h-1.3V334.8L90.8,334.8z"/>
	<path class="st9" d="M97.1,338.6h-0.6v-3.7c-0.1,0.1-0.3,0.3-0.6,0.4c-0.2,0.1-0.4,0.2-0.6,0.3v-0.6c0.3-0.2,0.6-0.3,0.9-0.6
		c0.2-0.2,0.4-0.4,0.5-0.6h0.4V338.6L97.1,338.6z"/>
	<path class="st9" d="M86.1,301.3c0,0.2-0.1,0.3-0.3,0.3c-0.2,0-0.3-0.1-0.3-0.3c0-0.2,0.1-0.3,0.3-0.3
		C85.9,301,86.1,301.1,86.1,301.3L86.1,301.3z"/>
	<path class="st8" d="M86.1,301.3c0,0.2-0.1,0.3-0.3,0.3c-0.2,0-0.3-0.1-0.3-0.3c0-0.2,0.1-0.3,0.3-0.3
		C85.9,301,86.1,301.1,86.1,301.3L86.1,301.3z"/>
	<path class="st9" d="M79.8,295l2.1-5.4h0.8l2.2,5.4H84l-0.6-1.6h-2.3l-0.6,1.6H79.8L79.8,295z M81.3,292.8h1.8l-0.6-1.5
		c-0.2-0.5-0.3-0.8-0.4-1.1c-0.1,0.3-0.2,0.7-0.3,1L81.3,292.8L81.3,292.8z"/>
	<path class="st9" d="M87.3,298.2h-0.6v-3.7c-0.1,0.1-0.3,0.3-0.6,0.4c-0.2,0.1-0.4,0.2-0.6,0.3v-0.6c0.3-0.2,0.6-0.3,0.9-0.6
		s0.4-0.4,0.5-0.6h0.4V298.2L87.3,298.2z"/>
	<path class="st9" d="M116.7,301.3c0,0.2-0.1,0.3-0.3,0.3c-0.2,0-0.3-0.1-0.3-0.3s0.1-0.3,0.3-0.3
		C116.5,301,116.7,301.1,116.7,301.3L116.7,301.3z"/>
	<path class="st8" d="M116.7,301.3c0,0.2-0.1,0.3-0.3,0.3c-0.2,0-0.3-0.1-0.3-0.3s0.1-0.3,0.3-0.3
		C116.5,301,116.7,301.1,116.7,301.3L116.7,301.3z"/>
	<path class="st9" d="M119.5,305.8v-5.4h2c0.4,0,0.7,0.1,1,0.2s0.4,0.3,0.6,0.5c0.1,0.2,0.2,0.5,0.2,0.7c0,0.2-0.1,0.4-0.2,0.7
		c-0.1,0.2-0.3,0.4-0.6,0.5c0.3,0.1,0.6,0.3,0.8,0.5c0.2,0.2,0.3,0.5,0.3,0.8c0,0.3-0.1,0.5-0.2,0.7c-0.1,0.2-0.2,0.4-0.4,0.5
		c-0.2,0.1-0.4,0.2-0.6,0.3s-0.5,0.1-0.9,0.1H119.5L119.5,305.8z M120.2,302.6h1.2c0.3,0,0.5,0,0.7-0.1c0.2-0.1,0.3-0.1,0.4-0.3
		c0.1-0.1,0.1-0.3,0.1-0.5c0-0.2,0-0.3-0.1-0.5c-0.1-0.1-0.2-0.2-0.4-0.3c-0.2-0.1-0.4-0.1-0.8-0.1h-1.1V302.6L120.2,302.6z
		 M120.2,305.1h1.4c0.2,0,0.4,0,0.5,0c0.2,0,0.3-0.1,0.4-0.1c0.1-0.1,0.2-0.2,0.3-0.3c0.1-0.1,0.1-0.3,0.1-0.5
		c0-0.2-0.1-0.4-0.2-0.5c-0.1-0.1-0.2-0.3-0.4-0.3c-0.2-0.1-0.4-0.1-0.8-0.1h-1.3V305.1L120.2,305.1z"/>
	<path class="st9" d="M127.4,308.4v0.6h-3.1c0-0.1,0-0.3,0.1-0.4c0.1-0.2,0.2-0.4,0.4-0.6c0.2-0.2,0.4-0.4,0.8-0.7
		c0.5-0.4,0.9-0.8,1-1c0.2-0.2,0.3-0.5,0.3-0.7c0-0.2-0.1-0.4-0.2-0.6c-0.2-0.2-0.4-0.2-0.6-0.2c-0.3,0-0.5,0.1-0.7,0.3
		c-0.2,0.2-0.3,0.4-0.3,0.7l-0.6-0.1c0-0.4,0.2-0.8,0.5-1c0.3-0.2,0.6-0.4,1.1-0.4c0.5,0,0.8,0.1,1.1,0.4c0.3,0.3,0.4,0.6,0.4,0.9
		c0,0.2,0,0.4-0.1,0.6c-0.1,0.2-0.2,0.4-0.4,0.6c-0.2,0.2-0.5,0.5-0.9,0.8c-0.3,0.3-0.6,0.5-0.7,0.6c-0.1,0.1-0.2,0.2-0.2,0.3H127.4
		L127.4,308.4z"/>
	<path class="st9" d="M116.7,273.8c0,0.2-0.1,0.3-0.3,0.3s-0.3-0.1-0.3-0.3s0.1-0.3,0.3-0.3S116.7,273.6,116.7,273.8L116.7,273.8z"
		/>
	<path class="st8" d="M116.7,273.8c0,0.2-0.1,0.3-0.3,0.3s-0.3-0.1-0.3-0.3s0.1-0.3,0.3-0.3S116.7,273.6,116.7,273.8L116.7,273.8z"
		/>
	<path class="st9" d="M110.1,267.5l2.1-5.4h0.8l2.2,5.4h-0.8l-0.6-1.6h-2.3l-0.6,1.6H110.1L110.1,267.5z M111.7,265.3h1.8l-0.6-1.5
		c-0.2-0.5-0.3-0.8-0.4-1.1c-0.1,0.3-0.2,0.7-0.3,1L111.7,265.3L111.7,265.3z"/>
	<path class="st9" d="M118.5,270.1v0.6h-3.1c0-0.1,0-0.3,0.1-0.4c0.1-0.2,0.2-0.4,0.4-0.6c0.2-0.2,0.4-0.4,0.8-0.7
		c0.5-0.4,0.9-0.8,1-1c0.2-0.2,0.3-0.5,0.3-0.7c0-0.2-0.1-0.4-0.2-0.6c-0.2-0.2-0.4-0.2-0.6-0.2c-0.3,0-0.5,0.1-0.7,0.3
		c-0.2,0.2-0.3,0.4-0.3,0.7l-0.6-0.1c0-0.4,0.2-0.8,0.5-1c0.3-0.2,0.6-0.4,1.1-0.4c0.5,0,0.8,0.1,1.1,0.4c0.3,0.3,0.4,0.6,0.4,0.9
		c0,0.2,0,0.4-0.1,0.6c-0.1,0.2-0.2,0.4-0.4,0.6c-0.2,0.2-0.5,0.5-0.9,0.8c-0.3,0.3-0.6,0.5-0.7,0.6c-0.1,0.1-0.2,0.2-0.2,0.3H118.5
		L118.5,270.1z"/>
	<path class="st9" d="M144.2,273.7c0,0.2-0.1,0.3-0.3,0.3s-0.3-0.1-0.3-0.3c0-0.2,0.1-0.3,0.3-0.3S144.2,273.6,144.2,273.7
		L144.2,273.7z"/>
	<path class="st8" d="M144.2,273.7c0,0.2-0.1,0.3-0.3,0.3s-0.3-0.1-0.3-0.3c0-0.2,0.1-0.3,0.3-0.3S144.2,273.6,144.2,273.7
		L144.2,273.7z"/>
	<path class="st9" d="M146.7,278.9v-5.4h2c0.4,0,0.7,0.1,1,0.2s0.4,0.3,0.6,0.5c0.1,0.2,0.2,0.5,0.2,0.7c0,0.2-0.1,0.4-0.2,0.7
		c-0.1,0.2-0.3,0.4-0.6,0.5c0.3,0.1,0.6,0.3,0.8,0.5s0.3,0.5,0.3,0.8c0,0.3-0.1,0.5-0.2,0.7c-0.1,0.2-0.2,0.4-0.4,0.5
		c-0.2,0.1-0.4,0.2-0.6,0.3c-0.2,0.1-0.5,0.1-0.9,0.1H146.7L146.7,278.9z M147.4,275.7h1.2c0.3,0,0.5,0,0.7-0.1
		c0.2-0.1,0.3-0.1,0.4-0.3c0.1-0.1,0.1-0.3,0.1-0.5c0-0.2,0-0.3-0.1-0.5c-0.1-0.1-0.2-0.2-0.4-0.3c-0.2-0.1-0.4-0.1-0.8-0.1h-1.1
		V275.7L147.4,275.7z M147.4,278.3h1.4c0.2,0,0.4,0,0.5,0c0.2,0,0.3-0.1,0.4-0.1c0.1-0.1,0.2-0.2,0.3-0.3s0.1-0.3,0.1-0.5
		c0-0.2-0.1-0.4-0.2-0.5s-0.2-0.3-0.4-0.3c-0.2-0.1-0.4-0.1-0.8-0.1h-1.3V278.3L147.4,278.3z"/>
	<path class="st9" d="M151.5,280.8l0.6-0.1c0.1,0.3,0.2,0.6,0.3,0.7c0.2,0.1,0.4,0.2,0.6,0.2c0.3,0,0.5-0.1,0.7-0.3
		c0.2-0.2,0.3-0.4,0.3-0.7c0-0.3-0.1-0.5-0.3-0.7c-0.2-0.2-0.4-0.3-0.7-0.3c-0.1,0-0.3,0-0.4,0.1l0.1-0.5c0,0,0.1,0,0.1,0
		c0.2,0,0.5-0.1,0.7-0.2c0.2-0.1,0.3-0.3,0.3-0.6c0-0.2-0.1-0.4-0.2-0.5c-0.1-0.1-0.3-0.2-0.6-0.2c-0.2,0-0.4,0.1-0.6,0.2
		c-0.1,0.1-0.2,0.4-0.3,0.6l-0.6-0.1c0.1-0.4,0.2-0.7,0.5-0.9c0.3-0.2,0.6-0.3,0.9-0.3c0.3,0,0.5,0.1,0.7,0.2
		c0.2,0.1,0.4,0.3,0.5,0.5c0.1,0.2,0.2,0.4,0.2,0.6c0,0.2-0.1,0.4-0.2,0.6c-0.1,0.2-0.3,0.3-0.5,0.4c0.3,0.1,0.5,0.2,0.7,0.4
		c0.2,0.2,0.2,0.5,0.2,0.8c0,0.4-0.2,0.8-0.5,1.1c-0.3,0.3-0.7,0.4-1.1,0.4c-0.4,0-0.8-0.1-1-0.4
		C151.7,281.5,151.5,281.2,151.5,280.8L151.5,280.8z"/>
	<path class="st9" d="M144.2,249c0,0.2-0.1,0.3-0.3,0.3c-0.2,0-0.3-0.1-0.3-0.3c0-0.2,0.1-0.3,0.3-0.3
		C144.1,248.6,144.2,248.8,144.2,249L144.2,249z"/>
	<path class="st8" d="M144.2,249c0,0.2-0.1,0.3-0.3,0.3c-0.2,0-0.3-0.1-0.3-0.3c0-0.2,0.1-0.3,0.3-0.3
		C144.1,248.6,144.2,248.8,144.2,249L144.2,249z"/>
	<path class="st9" d="M138.5,243.2l2.1-5.4h0.8l2.2,5.4h-0.8l-0.6-1.6h-2.3l-0.6,1.6H138.5L138.5,243.2z M140.1,240.9h1.8l-0.6-1.5
		c-0.2-0.5-0.3-0.8-0.4-1.1c-0.1,0.3-0.2,0.7-0.3,1L140.1,240.9L140.1,240.9z"/>
	<path class="st9" d="M143.9,245.1l0.6-0.1c0.1,0.3,0.2,0.6,0.3,0.7c0.2,0.1,0.4,0.2,0.6,0.2c0.3,0,0.5-0.1,0.7-0.3s0.3-0.4,0.3-0.7
		c0-0.3-0.1-0.5-0.3-0.7c-0.2-0.2-0.4-0.3-0.7-0.3c-0.1,0-0.3,0-0.4,0.1l0.1-0.5c0,0,0.1,0,0.1,0c0.2,0,0.5-0.1,0.7-0.2
		c0.2-0.1,0.3-0.3,0.3-0.6c0-0.2-0.1-0.4-0.2-0.5c-0.1-0.1-0.3-0.2-0.6-0.2c-0.2,0-0.4,0.1-0.6,0.2c-0.1,0.1-0.2,0.4-0.3,0.6
		l-0.6-0.1c0.1-0.4,0.2-0.7,0.5-0.9c0.3-0.2,0.6-0.3,0.9-0.3c0.3,0,0.5,0.1,0.7,0.2c0.2,0.1,0.4,0.3,0.5,0.5
		c0.1,0.2,0.2,0.4,0.2,0.6c0,0.2-0.1,0.4-0.2,0.6c-0.1,0.2-0.3,0.3-0.5,0.4c0.3,0.1,0.5,0.2,0.7,0.4c0.2,0.2,0.2,0.5,0.2,0.8
		c0,0.4-0.2,0.8-0.5,1.1c-0.3,0.3-0.7,0.4-1.1,0.4c-0.4,0-0.8-0.1-1-0.4C144.1,245.8,143.9,245.5,143.9,245.1L143.9,245.1z"/>
	<path class="st9" d="M169,248.9c0,0.2-0.1,0.3-0.3,0.3c-0.2,0-0.3-0.1-0.3-0.3c0-0.2,0.1-0.3,0.3-0.3
		C168.9,248.6,169,248.8,169,248.9L169,248.9z"/>
	<path class="st8" d="M169,248.9c0,0.2-0.1,0.3-0.3,0.3c-0.2,0-0.3-0.1-0.3-0.3c0-0.2,0.1-0.3,0.3-0.3
		C168.9,248.6,169,248.8,169,248.9L169,248.9z"/>
	<path class="st9" d="M170.7,255.2v-5.4h2c0.4,0,0.7,0.1,1,0.2c0.3,0.1,0.4,0.3,0.6,0.5c0.1,0.2,0.2,0.5,0.2,0.7
		c0,0.2-0.1,0.4-0.2,0.7c-0.1,0.2-0.3,0.4-0.6,0.5c0.3,0.1,0.6,0.3,0.8,0.5c0.2,0.2,0.3,0.5,0.3,0.8c0,0.3-0.1,0.5-0.2,0.7
		c-0.1,0.2-0.2,0.4-0.4,0.5c-0.2,0.1-0.4,0.2-0.6,0.3c-0.2,0.1-0.5,0.1-0.9,0.1H170.7L170.7,255.2z M171.4,252h1.2
		c0.3,0,0.5,0,0.7-0.1c0.2-0.1,0.3-0.1,0.4-0.3c0.1-0.1,0.1-0.3,0.1-0.5c0-0.2,0-0.3-0.1-0.5c-0.1-0.1-0.2-0.2-0.4-0.3
		c-0.2-0.1-0.4-0.1-0.8-0.1h-1.1V252L171.4,252z M171.4,254.5h1.4c0.2,0,0.4,0,0.5,0c0.2,0,0.3-0.1,0.4-0.1c0.1-0.1,0.2-0.2,0.3-0.3
		c0.1-0.1,0.1-0.3,0.1-0.5c0-0.2-0.1-0.4-0.2-0.5c-0.1-0.1-0.2-0.3-0.4-0.3s-0.4-0.1-0.8-0.1h-1.3V254.5L171.4,254.5z"/>
	<path class="st9" d="M177.4,258.3v-1.1h-2.1v-0.5l2.2-3.1h0.5v3.1h0.6v0.5H178v1.1H177.4L177.4,258.3z M177.4,256.7v-2.1l-1.5,2.1
		H177.4L177.4,256.7z"/>
	<path class="st9" d="M169,226.6c0,0.2-0.1,0.3-0.3,0.3s-0.3-0.1-0.3-0.3c0-0.2,0.1-0.3,0.3-0.3S169,226.5,169,226.6L169,226.6z"/>
	<path class="st8" d="M169,226.6c0,0.2-0.1,0.3-0.3,0.3s-0.3-0.1-0.3-0.3c0-0.2,0.1-0.3,0.3-0.3S169,226.5,169,226.6L169,226.6z"/>
	<path class="st9" d="M160.7,223.3l2.1-5.4h0.8l2.2,5.4h-0.8l-0.6-1.6H162l-0.6,1.6H160.7L160.7,223.3z M162.2,221h1.8l-0.6-1.5
		c-0.2-0.5-0.3-0.8-0.4-1.1c-0.1,0.3-0.2,0.7-0.3,1L162.2,221L162.2,221z"/>
	<path class="st9" d="M167.9,226.4v-1.1h-2.1v-0.5l2.2-3.1h0.5v3.1h0.6v0.5h-0.6v1.1H167.9L167.9,226.4z M167.9,224.8v-2.1l-1.5,2.1
		H167.9L167.9,224.8z"/>
	<path class="st9" d="M191.4,226.6c0,0.2-0.1,0.3-0.3,0.3c-0.2,0-0.3-0.1-0.3-0.3c0-0.2,0.1-0.3,0.3-0.3
		C191.2,226.3,191.4,226.5,191.4,226.6L191.4,226.6z"/>
	<path class="st8" d="M191.4,226.6c0,0.2-0.1,0.3-0.3,0.3c-0.2,0-0.3-0.1-0.3-0.3c0-0.2,0.1-0.3,0.3-0.3
		C191.2,226.3,191.4,226.5,191.4,226.6L191.4,226.6z"/>
	<path class="st9" d="M194.4,232.1v-5.4h2c0.4,0,0.7,0.1,1,0.2c0.3,0.1,0.4,0.3,0.6,0.5c0.1,0.2,0.2,0.5,0.2,0.7
		c0,0.2-0.1,0.4-0.2,0.7c-0.1,0.2-0.3,0.4-0.6,0.5c0.3,0.1,0.6,0.3,0.8,0.5c0.2,0.2,0.3,0.5,0.3,0.8c0,0.3-0.1,0.5-0.2,0.7
		c-0.1,0.2-0.2,0.4-0.4,0.5c-0.2,0.1-0.4,0.2-0.6,0.3c-0.2,0.1-0.5,0.1-0.9,0.1H194.4L194.4,232.1z M195.1,229h1.2
		c0.3,0,0.5,0,0.7-0.1c0.2-0.1,0.3-0.1,0.4-0.3c0.1-0.1,0.1-0.3,0.1-0.5c0-0.2,0-0.3-0.1-0.5c-0.1-0.1-0.2-0.2-0.4-0.3
		c-0.2-0.1-0.4-0.1-0.8-0.1h-1.1V229L195.1,229z M195.1,231.5h1.4c0.2,0,0.4,0,0.5,0c0.2,0,0.3-0.1,0.4-0.1c0.1-0.1,0.2-0.2,0.3-0.3
		c0.1-0.1,0.1-0.3,0.1-0.5c0-0.2-0.1-0.4-0.2-0.5s-0.2-0.3-0.4-0.3c-0.2-0.1-0.4-0.1-0.8-0.1h-1.3V231.5L195.1,231.5z"/>
	<path class="st9" d="M199.2,234l0.6-0.1c0,0.3,0.2,0.5,0.3,0.7c0.2,0.1,0.4,0.2,0.6,0.2c0.3,0,0.5-0.1,0.7-0.3
		c0.2-0.2,0.3-0.5,0.3-0.8c0-0.3-0.1-0.6-0.3-0.8c-0.2-0.2-0.4-0.3-0.7-0.3c-0.2,0-0.4,0-0.5,0.1c-0.2,0.1-0.3,0.2-0.4,0.3l-0.5-0.1
		l0.5-2.4h2.4v0.6h-1.9l-0.3,1.3c0.3-0.2,0.6-0.3,0.9-0.3c0.4,0,0.8,0.1,1.1,0.4c0.3,0.3,0.4,0.7,0.4,1.1c0,0.4-0.1,0.8-0.4,1.1
		c-0.3,0.4-0.7,0.6-1.2,0.6c-0.4,0-0.8-0.1-1.1-0.4C199.4,234.8,199.2,234.4,199.2,234L199.2,234z"/>
	<path class="st9" d="M191.3,206.5c0,0.2-0.1,0.3-0.3,0.3s-0.3-0.1-0.3-0.3c0-0.2,0.1-0.3,0.3-0.3S191.3,206.4,191.3,206.5
		L191.3,206.5z"/>
	<path class="st8" d="M191.3,206.5c0,0.2-0.1,0.3-0.3,0.3s-0.3-0.1-0.3-0.3c0-0.2,0.1-0.3,0.3-0.3S191.3,206.4,191.3,206.5
		L191.3,206.5z"/>
	<path class="st9" d="M183.4,202.4l2.1-5.4h0.8l2.2,5.4h-0.8l-0.6-1.6h-2.3l-0.6,1.6H183.4L183.4,202.4z M185,200.2h1.8l-0.6-1.5
		c-0.2-0.5-0.3-0.8-0.4-1.1c-0.1,0.3-0.2,0.7-0.3,1L185,200.2L185,200.2z"/>
	<path class="st9" d="M188.8,204.3l0.6-0.1c0,0.3,0.2,0.5,0.3,0.7s0.4,0.2,0.6,0.2c0.3,0,0.5-0.1,0.7-0.3c0.2-0.2,0.3-0.5,0.3-0.8
		c0-0.3-0.1-0.6-0.3-0.8c-0.2-0.2-0.4-0.3-0.7-0.3c-0.2,0-0.4,0-0.5,0.1c-0.2,0.1-0.3,0.2-0.4,0.3l-0.5-0.1l0.5-2.4h2.4v0.6h-1.9
		l-0.3,1.3c0.3-0.2,0.6-0.3,0.9-0.3c0.4,0,0.8,0.1,1.1,0.4s0.4,0.7,0.4,1.1c0,0.4-0.1,0.8-0.4,1.1c-0.3,0.4-0.7,0.6-1.2,0.6
		c-0.4,0-0.8-0.1-1.1-0.4C189,205,188.8,204.7,188.8,204.3L188.8,204.3z"/>
	<path class="st9" d="M211.4,206.5c0,0.2-0.1,0.3-0.3,0.3c-0.2,0-0.3-0.1-0.3-0.3c0-0.2,0.1-0.3,0.3-0.3
		C211.3,206.2,211.4,206.4,211.4,206.5L211.4,206.5z"/>
	<path class="st8" d="M211.4,206.5c0,0.2-0.1,0.3-0.3,0.3c-0.2,0-0.3-0.1-0.3-0.3c0-0.2,0.1-0.3,0.3-0.3
		C211.3,206.2,211.4,206.4,211.4,206.5L211.4,206.5z"/>
	<path class="st9" d="M214.3,213.8v-5.4h2c0.4,0,0.7,0.1,1,0.2c0.3,0.1,0.4,0.3,0.6,0.5c0.1,0.2,0.2,0.5,0.2,0.7
		c0,0.2-0.1,0.4-0.2,0.7s-0.3,0.4-0.6,0.5c0.3,0.1,0.6,0.3,0.8,0.5s0.3,0.5,0.3,0.8c0,0.3-0.1,0.5-0.2,0.7c-0.1,0.2-0.2,0.4-0.4,0.5
		c-0.2,0.1-0.4,0.2-0.6,0.3c-0.2,0.1-0.5,0.1-0.9,0.1H214.3L214.3,213.8z M215.1,210.6h1.2c0.3,0,0.5,0,0.7-0.1
		c0.2-0.1,0.3-0.1,0.4-0.3c0.1-0.1,0.1-0.3,0.1-0.5c0-0.2,0-0.3-0.1-0.5c-0.1-0.1-0.2-0.2-0.4-0.3c-0.2-0.1-0.4-0.1-0.8-0.1h-1.1
		V210.6L215.1,210.6z M215.1,213.1h1.4c0.2,0,0.4,0,0.5,0c0.2,0,0.3-0.1,0.4-0.1c0.1-0.1,0.2-0.2,0.3-0.3c0.1-0.1,0.1-0.3,0.1-0.5
		c0-0.2-0.1-0.4-0.2-0.5c-0.1-0.1-0.2-0.3-0.4-0.3c-0.2-0.1-0.4-0.1-0.8-0.1h-1.3V213.1L215.1,213.1z"/>
	<path class="st9" d="M222.1,213.4l-0.6,0c0-0.2-0.1-0.4-0.2-0.5c-0.2-0.2-0.4-0.3-0.6-0.3c-0.2,0-0.4,0.1-0.5,0.2
		c-0.2,0.1-0.3,0.3-0.4,0.6s-0.2,0.6-0.2,1.1c0.1-0.2,0.3-0.4,0.5-0.5s0.4-0.2,0.6-0.2c0.4,0,0.7,0.1,1,0.4c0.3,0.3,0.4,0.7,0.4,1.1
		c0,0.3-0.1,0.6-0.2,0.8c-0.1,0.3-0.3,0.5-0.5,0.6c-0.2,0.1-0.5,0.2-0.8,0.2c-0.5,0-0.9-0.2-1.2-0.5c-0.3-0.4-0.5-0.9-0.5-1.8
		c0-0.9,0.2-1.6,0.5-2c0.3-0.4,0.7-0.5,1.2-0.5c0.4,0,0.7,0.1,0.9,0.3C222,212.7,222.1,213,222.1,213.4L222.1,213.4z M219.8,215.4
		c0,0.2,0,0.4,0.1,0.6c0.1,0.2,0.2,0.3,0.4,0.4c0.2,0.1,0.3,0.1,0.5,0.1c0.2,0,0.5-0.1,0.6-0.3s0.3-0.5,0.3-0.8
		c0-0.3-0.1-0.6-0.3-0.8s-0.4-0.3-0.7-0.3c-0.3,0-0.5,0.1-0.7,0.3C219.9,214.8,219.8,215.1,219.8,215.4L219.8,215.4z"/>
	<path class="st10" d="M20.1,353.3L20.1,353.3l1.2-4.5c0-0.1,0-0.2,0-0.3c0,0,0,0-0.1-0.1l0,0l0,0l0,0c-0.2,0-0.3,0-0.4,0
		c-0.2,0-0.3,0-0.3,0l0,0c0-0.2,0-0.3,0.1-0.3l0,0h0.1h2.8c0.8,0,1.4,0.3,1.7,0.9c0.2,0.4,0.3,0.8,0.3,1.2c0,0.9-0.3,1.7-0.8,2.4
		c-0.5,0.6-1.2,1-1.9,1.2c-0.3,0.1-0.5,0.1-0.7,0.1h-2.9c-0.1,0-0.1,0-0.1-0.1l0,0c0-0.1,0-0.1,0.1-0.1l0,0c0.4,0,0.7,0,0.7-0.1
		C20.1,353.5,20.1,353.5,20.1,353.3L20.1,353.3L20.1,353.3z M22,348.7l-1.2,4.7c0,0.1,0,0.1,0,0.1c0,0.1,0,0.1,0,0.1l0,0l0,0h0.1
		c0,0,0,0,0.1,0H22c0.7,0,1.3-0.3,1.9-0.8c0.1-0.1,0.1-0.1,0.1-0.1c0.4-0.6,0.8-1.4,0.9-2.4c0-0.2,0-0.3,0-0.4
		c0-0.7-0.3-1.2-0.9-1.5c-0.2-0.1-0.4-0.1-0.7-0.1h-0.9c-0.2,0-0.3,0-0.3,0.1l0,0l0,0l0,0l0,0C22,348.5,22,348.6,22,348.7L22,348.7z
		"/>
	<path class="st11" d="M22.8,382.1l2.9,5.9l0,0c0,0.1,0,0.1-0.1,0.1h-6c-0.1,0-0.1,0-0.1-0.1l0,0l2.9-5.9c0-0.1,0-0.1,0.1-0.1
		c0,0,0,0,0.1,0C22.8,381.9,22.8,382,22.8,382.1L22.8,382.1L22.8,382.1z M22.4,382.9l-2.4,4.5h4.7L22.4,382.9L22.4,382.9z"/>
	<path class="st9" d="M52,415.4L52,415.4c-0.3,0.4-0.6,0.7-0.9,0.7c-0.4,0-0.8-0.2-0.9-0.5c-0.1-0.2-0.1-0.4-0.1-0.5
		c0-0.3,0.1-0.8,0.4-1.7c0,0,0,0,0.1,0c0.1-0.3,0.1-0.5,0.1-0.7s-0.1-0.3-0.3-0.3c-0.3,0-0.5,0.3-0.8,0.8l0,0l0,0c0,0.1,0,0.2,0,0.3
		c-0.1,0.1-0.1,0.1-0.1,0.1c-0.1,0-0.1,0-0.1,0c0-0.2,0-0.4,0.1-0.5c0.3-0.5,0.6-0.8,0.9-0.8c0.4,0,0.6,0.1,0.7,0.4
		c0.1,0.1,0.1,0.2,0.1,0.3c0,0.1-0.1,0.3-0.3,0.5c-0.3,0.8-0.4,1.4-0.4,1.7c0,0.4,0.2,0.7,0.5,0.7s0.7-0.2,0.9-0.5
		c0-0.1,0-0.1,0-0.1c0.2-0.5,0.4-1.4,0.7-2.5c0.1-0.3,0.2-0.4,0.4-0.4c0.1,0.1,0.1,0.2,0.1,0.3c0,0,0,0.2-0.1,0.5
		c0,0.4,0,0.6-0.1,0.7l-0.1,0.9c-0.2,0.4-0.3,0.7-0.3,0.8c0,0.3,0.1,0.4,0.3,0.4c0.3,0,0.5-0.3,0.7-0.8c0-0.1,0-0.2,0-0.3
		c0.1-0.1,0.1-0.1,0.1-0.1c0.1,0,0.1,0,0.1,0.1c0,0.1,0,0.3-0.1,0.5c-0.1,0.1-0.1,0.2-0.1,0.3c-0.2,0.4-0.4,0.5-0.7,0.5
		c-0.4,0-0.6-0.1-0.7-0.4C52.2,415.6,52.1,415.5,52,415.4L52,415.4z"/>
	<path class="st9" d="M56.7,415.4c0,0.6-0.1,1-0.2,1.3c-0.2,0.4-0.6,0.7-1,0.7c-0.4,0-0.7-0.1-0.8-0.4c-0.1-0.1-0.1-0.1-0.2-0.2
		c-0.2-0.3-0.3-0.8-0.3-1.4c0-0.6,0.1-1.1,0.3-1.4c0.2-0.4,0.5-0.7,0.9-0.7h0.1c0.4,0,0.7,0.2,0.8,0.5l0,0c0.1,0.1,0.1,0.2,0.2,0.3
		C56.6,414.3,56.7,414.7,56.7,415.4L56.7,415.4z M55.5,417.2L55.5,417.2c0.2,0,0.4-0.1,0.6-0.4c0.1-0.1,0.1-0.2,0.1-0.4
		c0.1-0.2,0.1-0.7,0.1-1.2s0-1-0.1-1.2c-0.1-0.4-0.2-0.6-0.5-0.7c-0.1,0-0.1,0-0.2,0c-0.3,0-0.5,0.1-0.7,0.4c0,0.1,0,0.2-0.1,0.4
		c0,0.2,0,0.6,0,1.1s0,1,0.1,1.2c0.1,0.4,0.2,0.6,0.5,0.7C55.4,417.2,55.4,417.2,55.5,417.2L55.5,417.2z"/>
	<path class="st9" d="M84,415.4L84,415.4c-0.3,0.4-0.6,0.7-0.9,0.7c-0.4,0-0.8-0.2-0.9-0.5c-0.1-0.2-0.1-0.4-0.1-0.5
		c0-0.3,0.1-0.8,0.4-1.7c0,0,0,0,0.1,0c0.1-0.3,0.1-0.5,0.1-0.7s-0.1-0.3-0.3-0.3c-0.3,0-0.5,0.3-0.8,0.8l0,0l0,0c0,0.1,0,0.2,0,0.3
		c-0.1,0.1-0.1,0.1-0.1,0.1c-0.1,0-0.1,0-0.1,0c0-0.2,0-0.4,0.1-0.5c0.3-0.5,0.6-0.8,0.9-0.8c0.4,0,0.6,0.1,0.7,0.4
		c0.1,0.1,0.1,0.2,0.1,0.3c0,0.1-0.1,0.3-0.3,0.5c-0.3,0.8-0.4,1.4-0.4,1.7c0,0.4,0.2,0.7,0.5,0.7s0.7-0.2,0.9-0.5
		c0-0.1,0-0.1,0-0.1c0.2-0.5,0.4-1.4,0.7-2.5c0.1-0.3,0.2-0.4,0.4-0.4c0.1,0.1,0.1,0.2,0.1,0.3c0,0,0,0.2-0.1,0.5
		c0,0.4,0,0.6-0.1,0.7l-0.1,0.9c-0.2,0.4-0.3,0.7-0.3,0.8c0,0.3,0.1,0.4,0.3,0.4c0.3,0,0.5-0.3,0.7-0.8c0-0.1,0-0.2,0-0.3
		c0.1-0.1,0.1-0.1,0.1-0.1c0.1,0,0.1,0,0.1,0.1c0,0.1,0,0.3-0.1,0.5c-0.1,0.1-0.1,0.2-0.1,0.3c-0.2,0.4-0.4,0.5-0.7,0.5
		c-0.4,0-0.6-0.1-0.7-0.4C84.1,415.6,84.1,415.5,84,415.4L84,415.4z"/>
	<path class="st9" d="M87.7,413.4v3.4c0,0.1,0,0.2,0.1,0.2c0.1,0.1,0.2,0.1,0.5,0.1h0.2v0.2c-0.1,0-0.5,0-1,0c-0.5,0-0.8,0-0.9,0
		V417h0.2c0.3,0,0.5,0,0.6-0.1l0,0c0-0.1,0-0.1,0-0.2v-3.1c-0.2,0.1-0.4,0.1-0.7,0.1v-0.2c0.4,0,0.8-0.1,1-0.4
		C87.6,413.2,87.7,413.2,87.7,413.4L87.7,413.4L87.7,413.4C87.7,413.3,87.7,413.3,87.7,413.4L87.7,413.4z"/>
	<path class="st9" d="M116.2,415.4L116.2,415.4c-0.3,0.4-0.6,0.7-0.9,0.7c-0.4,0-0.8-0.2-0.9-0.5c-0.1-0.2-0.1-0.4-0.1-0.5
		c0-0.3,0.1-0.8,0.4-1.7c0,0,0,0,0.1,0c0.1-0.3,0.1-0.5,0.1-0.7s-0.1-0.3-0.3-0.3c-0.3,0-0.5,0.3-0.8,0.8l0,0l0,0c0,0.1,0,0.2,0,0.3
		c-0.1,0.1-0.1,0.1-0.1,0.1c-0.1,0-0.1,0-0.1,0c0-0.2,0-0.4,0.1-0.5c0.3-0.5,0.6-0.8,0.9-0.8c0.4,0,0.6,0.1,0.7,0.4
		c0.1,0.1,0.1,0.2,0.1,0.3c0,0.1-0.1,0.3-0.3,0.5c-0.3,0.8-0.4,1.4-0.4,1.7c0,0.4,0.2,0.7,0.5,0.7c0.4,0,0.7-0.2,0.9-0.5
		c0-0.1,0-0.1,0-0.1c0.2-0.5,0.4-1.4,0.7-2.5c0.1-0.3,0.2-0.4,0.4-0.4c0.1,0.1,0.1,0.2,0.1,0.3c0,0,0,0.2-0.1,0.5
		c0,0.4,0,0.6-0.1,0.7l-0.1,0.9c-0.2,0.4-0.3,0.7-0.3,0.8c0,0.3,0.1,0.4,0.3,0.4c0.3,0,0.5-0.3,0.7-0.8c0-0.1,0-0.2,0-0.3
		c0.1-0.1,0.1-0.1,0.1-0.1c0.1,0,0.1,0,0.1,0.1c0,0.1,0,0.3-0.1,0.5c-0.1,0.1-0.1,0.2-0.1,0.3c-0.2,0.4-0.4,0.5-0.7,0.5
		c-0.4,0-0.6-0.1-0.7-0.4C116.3,415.6,116.3,415.5,116.2,415.4L116.2,415.4z"/>
	<path class="st9" d="M120.9,416.2L120.9,416.2l-0.2,1h-2.2c0-0.1,0-0.2,0.1-0.2l0,0l1.1-1.3c0.4-0.5,0.7-0.9,0.7-1.3
		c0-0.4-0.1-0.7-0.4-0.8l0,0l0,0c-0.1-0.1-0.3-0.2-0.5-0.2c-0.2,0-0.5,0.1-0.7,0.4c-0.1,0.1-0.1,0.2-0.1,0.3c0,0,0,0,0.1,0
		c0.1,0,0.2,0.1,0.3,0.2l0,0c0,0.1,0,0.1,0,0.1c0,0.2-0.1,0.3-0.3,0.3c0,0.1,0,0.1,0,0.1c-0.2,0-0.3-0.1-0.4-0.2c0-0.1,0-0.1,0-0.2
		c0-0.3,0.1-0.6,0.4-0.7c0.2-0.2,0.4-0.4,0.7-0.4c0.4,0,0.8,0.2,1,0.5c0.1,0.2,0.2,0.4,0.3,0.7c0,0,0,0,0,0.1c0,0.2-0.1,0.5-0.4,0.8
		c-0.1,0.1-0.3,0.3-0.6,0.5l-0.3,0.4h-0.1l-0.7,0.7h1.1c0.3,0,0.5,0,0.6,0c0-0.1,0-0.2,0.1-0.6H120.9L120.9,416.2z"/>
	<path class="st9" d="M143.7,415.4L143.7,415.4c-0.3,0.4-0.6,0.7-0.9,0.7c-0.4,0-0.8-0.2-0.9-0.5c-0.1-0.2-0.1-0.4-0.1-0.5
		c0-0.3,0.1-0.8,0.4-1.7c0,0,0,0,0.1,0c0.1-0.3,0.1-0.5,0.1-0.7s-0.1-0.3-0.3-0.3c-0.3,0-0.5,0.3-0.8,0.8l0,0l0,0c0,0.1,0,0.2,0,0.3
		c-0.1,0.1-0.1,0.1-0.1,0.1c-0.1,0-0.1,0-0.1,0c0-0.2,0-0.4,0.1-0.5c0.3-0.5,0.6-0.8,0.9-0.8c0.4,0,0.6,0.1,0.7,0.4
		c0.1,0.1,0.1,0.2,0.1,0.3c0,0.1-0.1,0.3-0.3,0.5c-0.3,0.8-0.4,1.4-0.4,1.7c0,0.4,0.2,0.7,0.5,0.7c0.4,0,0.7-0.2,0.9-0.5
		c0-0.1,0-0.1,0-0.1c0.2-0.5,0.4-1.4,0.7-2.5c0.1-0.3,0.2-0.4,0.4-0.4c0.1,0.1,0.1,0.2,0.1,0.3c0,0,0,0.2-0.1,0.5
		c0,0.4,0,0.6-0.1,0.7l-0.1,0.9c-0.2,0.4-0.3,0.7-0.3,0.8c0,0.3,0.1,0.4,0.3,0.4c0.3,0,0.5-0.3,0.7-0.8c0-0.1,0-0.2,0-0.3
		c0.1-0.1,0.1-0.1,0.1-0.1c0.1,0,0.1,0,0.1,0.1c0,0.1,0,0.3-0.1,0.5c-0.1,0.1-0.1,0.2-0.1,0.3c-0.2,0.4-0.4,0.5-0.7,0.5
		c-0.4,0-0.6-0.1-0.7-0.4C143.8,415.6,143.8,415.5,143.7,415.4L143.7,415.4z"/>
	<path class="st9" d="M147.4,415.1L147.4,415.1c0.4,0.1,0.7,0.3,0.8,0.7c0.1,0.1,0.1,0.3,0.1,0.5c0,0.3-0.1,0.6-0.4,0.8
		c-0.2,0.2-0.5,0.3-0.8,0.3c-0.4,0-0.8-0.1-1-0.3c-0.1-0.2-0.2-0.4-0.2-0.7c0-0.2,0.1-0.3,0.2-0.3c0.1,0,0.1,0,0.1,0
		c0.2,0,0.3,0.1,0.4,0.2c0,0.1,0,0.1,0,0.1c0,0.2-0.1,0.3-0.2,0.4c-0.1,0-0.1,0-0.2,0c0.1,0.2,0.4,0.4,0.7,0.4
		c0.1,0.1,0.1,0.1,0.1,0.1c0.3,0,0.5-0.1,0.6-0.4c0.1-0.2,0.2-0.4,0.2-0.7c0-0.5-0.2-0.8-0.5-0.9c-0.1-0.1-0.2-0.1-0.3-0.1h-0.3
		c-0.1,0-0.1,0-0.1,0c0-0.1,0-0.1,0.1-0.1s0.1,0,0.2,0c0.2,0,0.3-0.1,0.5-0.3l0,0l0,0l0,0l0,0l0.1-0.1c0.1-0.2,0.2-0.4,0.2-0.7
		c0-0.4-0.2-0.6-0.5-0.7c-0.1,0-0.1,0-0.2,0c-0.2,0-0.5,0.1-0.7,0.3c-0.1,0-0.1,0-0.1,0.1c0.2,0,0.4,0.1,0.4,0.3
		c0,0.1-0.1,0.2-0.2,0.3c-0.1,0-0.1,0-0.1,0c-0.2,0-0.3-0.1-0.3-0.2l0,0l0,0c-0.1,0-0.1,0-0.1-0.1c0-0.2,0.2-0.5,0.5-0.7
		c0.2-0.1,0.4-0.2,0.7-0.2c0.4,0,0.7,0.1,0.8,0.4l0,0c0.2,0.1,0.3,0.3,0.3,0.5c0,0.4-0.2,0.7-0.5,0.8
		C147.7,415,147.6,415.1,147.4,415.1L147.4,415.1z"/>
	<path class="st9" d="M168.7,415.4L168.7,415.4c-0.3,0.4-0.6,0.7-0.9,0.7c-0.4,0-0.8-0.2-0.9-0.5c-0.1-0.2-0.1-0.4-0.1-0.5
		c0-0.3,0.1-0.8,0.4-1.7c0,0,0,0,0.1,0c0.1-0.3,0.1-0.5,0.1-0.7s-0.1-0.3-0.3-0.3c-0.3,0-0.5,0.3-0.8,0.8l0,0l0,0c0,0.1,0,0.2,0,0.3
		c-0.1,0.1-0.1,0.1-0.1,0.1c-0.1,0-0.1,0-0.1,0c0-0.2,0-0.4,0.1-0.5c0.3-0.5,0.6-0.8,0.9-0.8c0.4,0,0.6,0.1,0.7,0.4
		c0.1,0.1,0.1,0.2,0.1,0.3c0,0.1-0.1,0.3-0.3,0.5c-0.3,0.8-0.4,1.4-0.4,1.7c0,0.4,0.2,0.7,0.5,0.7s0.7-0.2,0.9-0.5
		c0-0.1,0-0.1,0-0.1c0.2-0.5,0.4-1.4,0.7-2.5c0.1-0.3,0.2-0.4,0.4-0.4c0.1,0.1,0.1,0.2,0.1,0.3c0,0,0,0.2-0.1,0.5
		c0,0.4,0,0.6-0.1,0.7l-0.1,0.9c-0.2,0.4-0.3,0.7-0.3,0.8c0,0.3,0.1,0.4,0.3,0.4c0.3,0,0.5-0.3,0.7-0.8c0-0.1,0-0.2,0-0.3
		c0.1-0.1,0.1-0.1,0.1-0.1c0.1,0,0.1,0,0.1,0.1c0,0.1,0,0.3-0.1,0.5c-0.1,0.1-0.1,0.2-0.1,0.3c-0.2,0.4-0.4,0.5-0.7,0.5
		c-0.4,0-0.6-0.1-0.7-0.4C168.8,415.6,168.8,415.5,168.7,415.4L168.7,415.4z"/>
	<path class="st9" d="M170.8,416.2V416l1.8-2.8c0.1,0,0.1,0,0.2,0s0.1,0,0.1,0v0.1v2.7h0.6v0.2h-0.6v0.6c0,0.1,0,0.2,0.1,0.2
		c0,0.1,0.1,0.1,0.4,0.1h0.1v0.2c-0.2,0-0.5,0-0.8,0c-0.4,0-0.6,0-0.7,0V417h0.1c0.2,0,0.4,0,0.5-0.1c0-0.1,0-0.1,0-0.2v-0.6H170.8
		L170.8,416.2z M172.4,416v-2.1L171,416H172.4L172.4,416z"/>
	<path class="st9" d="M190.5,415.4L190.5,415.4c-0.3,0.4-0.6,0.7-0.9,0.7c-0.4,0-0.8-0.2-0.9-0.5c-0.1-0.2-0.1-0.4-0.1-0.5
		c0-0.3,0.1-0.8,0.4-1.7c0,0,0,0,0.1,0c0.1-0.3,0.1-0.5,0.1-0.7s-0.1-0.3-0.3-0.3c-0.3,0-0.5,0.3-0.8,0.8l0,0l0,0c0,0.1,0,0.2,0,0.3
		c-0.1,0.1-0.1,0.1-0.1,0.1c-0.1,0-0.1,0-0.1,0c0-0.2,0-0.4,0.1-0.5c0.3-0.5,0.6-0.8,0.9-0.8c0.4,0,0.6,0.1,0.7,0.4
		c0.1,0.1,0.1,0.2,0.1,0.3c0,0.1-0.1,0.3-0.3,0.5c-0.3,0.8-0.4,1.4-0.4,1.7c0,0.4,0.2,0.7,0.5,0.7c0.4,0,0.7-0.2,0.9-0.5
		c0-0.1,0-0.1,0-0.1c0.2-0.5,0.4-1.4,0.7-2.5c0.1-0.3,0.2-0.4,0.4-0.4c0.1,0.1,0.1,0.2,0.1,0.3c0,0,0,0.2-0.1,0.5
		c0,0.4,0,0.6-0.1,0.7l-0.1,0.9c-0.2,0.4-0.3,0.7-0.3,0.8c0,0.3,0.1,0.4,0.3,0.4c0.3,0,0.5-0.3,0.7-0.8c0-0.1,0-0.2,0-0.3
		c0.1-0.1,0.1-0.1,0.1-0.1c0.1,0,0.1,0,0.1,0.1c0,0.1,0,0.3-0.1,0.5c-0.1,0.1-0.1,0.2-0.1,0.3c-0.2,0.4-0.4,0.5-0.7,0.5
		c-0.4,0-0.6-0.1-0.7-0.4C190.6,415.6,190.6,415.5,190.5,415.4L190.5,415.4z"/>
	<path class="st9" d="M195.1,416L195.1,416c0,0.4-0.2,0.8-0.5,1c-0.2,0.2-0.5,0.3-0.8,0.3c-0.4,0-0.7-0.2-0.9-0.5
		c-0.1-0.2-0.2-0.4-0.2-0.6c0-0.2,0.1-0.3,0.3-0.4l0,0c0.2,0,0.3,0.1,0.3,0.2c0.1,0.1,0.1,0.1,0.1,0.1c0,0.1-0.1,0.2-0.2,0.3
		c-0.1,0.1-0.1,0.1-0.2,0.1c0,0,0,0-0.1-0.1c0.1,0.2,0.2,0.4,0.5,0.6c0.1,0.1,0.3,0.2,0.5,0.2c0.2,0,0.5-0.2,0.7-0.5
		c0.1-0.1,0.1-0.4,0.1-0.7c0-0.4,0-0.6-0.1-0.7c-0.1-0.2-0.3-0.4-0.6-0.4c-0.3,0-0.6,0.1-0.7,0.4c0,0.1,0,0.1-0.1,0.1
		c0,0,0,0-0.1-0.1v-0.1v-1.8c0-0.1,0-0.1,0.1-0.2c0,0,0,0,0.1,0.1c0.2,0.1,0.5,0.1,0.7,0.1c0.3,0,0.6,0,0.8-0.1c0-0.1,0-0.1,0.1-0.1
		c0,0,0,0,0,0.1c0,0.1-0.1,0.2-0.2,0.3c-0.2,0.2-0.6,0.4-0.9,0.4c-0.2,0-0.4,0-0.6-0.1v1.1c0.2-0.2,0.5-0.3,0.8-0.3
		c0.3,0,0.6,0.2,0.8,0.5C195,415.4,195.1,415.7,195.1,416L195.1,416z"/>
	<path class="st9" d="M210.7,415.4L210.7,415.4c-0.3,0.4-0.6,0.7-0.9,0.7c-0.4,0-0.8-0.2-0.9-0.5c-0.1-0.2-0.1-0.4-0.1-0.5
		c0-0.3,0.1-0.8,0.4-1.7c0,0,0,0,0.1,0c0.1-0.3,0.1-0.5,0.1-0.7s-0.1-0.3-0.3-0.3c-0.3,0-0.5,0.3-0.8,0.8l0,0l0,0c0,0.1,0,0.2,0,0.3
		c-0.1,0.1-0.1,0.1-0.1,0.1c-0.1,0-0.1,0-0.1,0c0-0.2,0-0.4,0.1-0.5c0.3-0.5,0.6-0.8,0.9-0.8c0.4,0,0.6,0.1,0.7,0.4
		c0.1,0.1,0.1,0.2,0.1,0.3c0,0.1-0.1,0.3-0.3,0.5c-0.3,0.8-0.4,1.4-0.4,1.7c0,0.4,0.2,0.7,0.5,0.7s0.7-0.2,0.9-0.5
		c0-0.1,0-0.1,0-0.1c0.2-0.5,0.4-1.4,0.7-2.5c0.1-0.3,0.2-0.4,0.4-0.4c0.1,0.1,0.1,0.2,0.1,0.3c0,0,0,0.2-0.1,0.5
		c0,0.4,0,0.6-0.1,0.7l-0.1,0.9c-0.2,0.4-0.3,0.7-0.3,0.8c0,0.3,0.1,0.4,0.3,0.4c0.3,0,0.5-0.3,0.7-0.8c0-0.1,0-0.2,0-0.3
		c0.1-0.1,0.1-0.1,0.1-0.1c0.1,0,0.1,0,0.1,0.1c0,0.1,0,0.3-0.1,0.5c-0.1,0.1-0.1,0.2-0.1,0.3c-0.2,0.4-0.4,0.5-0.7,0.5
		c-0.4,0-0.6-0.1-0.7-0.4C210.8,415.6,210.8,415.5,210.7,415.4L210.7,415.4z"/>
	<path class="st9" d="M213.4,415.3L213.4,415.3c0.2-0.4,0.4-0.6,0.7-0.6c0.4,0,0.7,0.2,0.9,0.5c0.1,0.1,0.2,0.3,0.3,0.6
		c0,0.1,0,0.2,0,0.3c0,0.4-0.2,0.8-0.5,1c-0.2,0.2-0.4,0.3-0.7,0.3c-0.4,0-0.7-0.2-0.9-0.6c-0.2-0.3-0.3-0.8-0.3-1.4
		c0-0.7,0.2-1.2,0.6-1.7c0.3-0.3,0.7-0.5,1-0.5c0.3,0,0.5,0.1,0.7,0.4c0.1,0.1,0.1,0.2,0.1,0.3c0,0.2-0.1,0.3-0.3,0.3l0,0
		c-0.1,0-0.2,0-0.3-0.1c0-0.1,0-0.1,0-0.2c0-0.1,0.1-0.2,0.3-0.2c-0.1-0.2-0.2-0.3-0.5-0.3c-0.3,0-0.6,0.1-0.7,0.4
		c-0.2,0.3-0.4,0.7-0.4,1.3V415.3L213.4,415.3z M214.2,417.2L214.2,417.2c0.2,0,0.4-0.2,0.6-0.5c0.1-0.1,0.1-0.4,0.1-0.7
		c0-0.4,0-0.7-0.1-0.8c-0.1-0.2-0.3-0.4-0.6-0.4c-0.3,0-0.5,0.2-0.7,0.6c0,0.2,0,0.4,0,0.6c0,0.4,0,0.7,0.1,0.8s0.2,0.3,0.4,0.4
		C214,417.2,214.1,417.2,214.2,417.2L214.2,417.2z"/>
</g>
</svg>
