<?xml version="1.0" encoding="utf-8"?>
<!-- Generator: Adobe Illustrator 22.1.0, SVG Export Plug-In . SVG Version: 6.00 Build 0)  -->
<svg version="1.1" id="Calque_1" xmlns="http://www.w3.org/2000/svg" xmlns:xlink="http://www.w3.org/1999/xlink" x="0px" y="0px"
	 viewBox="0 0 409.3 370" style="enable-background:new 0 0 409.3 370;" xml:space="preserve">
<style type="text/css">
	.st0{clip-path:url(#SVGID_2_);fill:#FFFFFF;}
	.st1{clip-path:url(#SVGID_2_);fill:none;stroke:#C0C0C0;stroke-linecap:round;stroke-linejoin:round;stroke-miterlimit:10;}
	.st2{clip-path:url(#SVGID_2_);fill:none;stroke:#000000;stroke-miterlimit:10;}
	.st3{clip-path:url(#SVGID_4_);fill:none;stroke:#7171FF;stroke-linecap:round;stroke-linejoin:round;stroke-miterlimit:10;}
	.st4{clip-path:url(#SVGID_4_);fill:none;stroke:#4DB84D;stroke-linecap:round;stroke-linejoin:round;stroke-miterlimit:10;}
	.st5{fill:none;stroke:#FF4D4D;stroke-linecap:round;stroke-linejoin:round;stroke-miterlimit:10;}
	.st6{fill:#FF4D4D;}
	.st7{fill:#444444;}
	.st8{fill:none;stroke:#000000;stroke-linecap:round;stroke-linejoin:round;stroke-miterlimit:10;}
	.st9{fill:#7D7DFF;}
	.st10{fill:#4D4DFF;}
</style>
<g>
	<g>
		<defs>
			<rect id="SVGID_1_" width="409.3" height="370"/>
		</defs>
		<clipPath id="SVGID_2_">
			<use xlink:href="#SVGID_1_"  style="overflow:visible;"/>
		</clipPath>
		<polygon class="st0" points="0,0 409.3,0 409.3,370.6 0,370.6 0,0 		"/>
		<path class="st1" d="M19,0v370.6 M19,0v370.6 M75.7,0v370.6 M132.4,0v370.6 M189.1,0v370.6 M302.5,0v370.6 M359.1,0v370.6 M0,12.6
			h409.3 M0,12.6h409.3 M0,40.9h409.3 M0,69.3h409.3 M0,97.6h409.3 M0,126h409.3 M0,154.3h409.3 M0,182.6h409.3 M0,211h409.3
			 M0,239.3h409.3 M0,267.7h409.3 M0,324.4h409.3 M0,352.7h409.3"/>
		<path class="st2" d="M245.8,0.9v369.7 M245.8,0.5l-2.4,2.4 M245.8,0.5l2.4,2.4 M0,296h408.4 M408.9,296l-2.4-2.4 M408.9,296
			l-2.4,2.4"/>
	</g>
	<path d="M15.9,303.1v-0.5h2.8v0.5H15.9L15.9,303.1z M21.4,305v-1.2h-2.2v-0.6l2.3-3.3H22v3.3h0.7v0.6H22v1.2H21.4L21.4,305z
		 M21.4,303.2v-2.3l-1.6,2.3H21.4L21.4,303.2z"/>
	<path d="M72.6,303.1v-0.5h2.8v0.5H72.6L72.6,303.1z M76.1,303.7l0.6-0.1c0.1,0.4,0.2,0.6,0.4,0.8c0.2,0.2,0.4,0.2,0.6,0.2
		c0.3,0,0.5-0.1,0.7-0.3c0.2-0.2,0.3-0.5,0.3-0.8c0-0.3-0.1-0.5-0.3-0.7c-0.2-0.2-0.4-0.3-0.7-0.3c-0.1,0-0.3,0-0.4,0.1l0.1-0.5
		c0,0,0.1,0,0.1,0c0.3,0,0.5-0.1,0.7-0.2c0.2-0.1,0.3-0.4,0.3-0.6c0-0.2-0.1-0.4-0.2-0.6c-0.2-0.1-0.4-0.2-0.6-0.2
		c-0.2,0-0.4,0.1-0.6,0.2c-0.2,0.2-0.3,0.4-0.3,0.7l-0.6-0.1c0.1-0.4,0.2-0.7,0.5-1s0.6-0.3,1-0.3c0.3,0,0.5,0.1,0.8,0.2
		c0.2,0.1,0.4,0.3,0.5,0.5c0.1,0.2,0.2,0.4,0.2,0.7c0,0.2-0.1,0.4-0.2,0.6c-0.1,0.2-0.3,0.3-0.5,0.4c0.3,0.1,0.5,0.2,0.7,0.4
		c0.2,0.2,0.2,0.5,0.2,0.8c0,0.4-0.2,0.8-0.5,1.1c-0.3,0.3-0.7,0.5-1.2,0.5c-0.4,0-0.8-0.1-1.1-0.4
		C76.3,304.4,76.1,304.1,76.1,303.7L76.1,303.7z"/>
	<path d="M129.2,303.1v-0.5h2.8v0.5H129.2L129.2,303.1z M136,304.4v0.6h-3.3c0-0.1,0-0.3,0.1-0.4c0.1-0.2,0.2-0.4,0.4-0.7
		c0.2-0.2,0.5-0.5,0.8-0.8c0.6-0.5,0.9-0.8,1.1-1.1c0.2-0.3,0.3-0.5,0.3-0.7c0-0.2-0.1-0.5-0.3-0.6c-0.2-0.2-0.4-0.3-0.7-0.3
		c-0.3,0-0.5,0.1-0.7,0.3c-0.2,0.2-0.3,0.4-0.3,0.7l-0.6-0.1c0-0.5,0.2-0.8,0.5-1.1c0.3-0.3,0.7-0.4,1.2-0.4c0.5,0,0.9,0.1,1.2,0.4
		c0.3,0.3,0.4,0.6,0.4,1c0,0.2,0,0.4-0.1,0.6c-0.1,0.2-0.2,0.4-0.4,0.6c-0.2,0.2-0.5,0.5-1,0.9c-0.4,0.3-0.6,0.5-0.7,0.6
		c-0.1,0.1-0.2,0.2-0.3,0.3H136L136,304.4z"/>
	<path d="M185.9,303.1v-0.5h2.8v0.5H185.9L185.9,303.1z M191.7,305h-0.6v-4c-0.1,0.1-0.3,0.3-0.6,0.4c-0.2,0.1-0.5,0.3-0.7,0.3v-0.6
		c0.3-0.2,0.6-0.4,0.9-0.6c0.3-0.2,0.4-0.5,0.6-0.7h0.4V305L191.7,305z"/>
	<path d="M303.4,305h-0.6v-4c-0.1,0.1-0.3,0.3-0.6,0.4c-0.2,0.1-0.5,0.3-0.7,0.3v-0.6c0.3-0.2,0.6-0.4,0.9-0.6
		c0.3-0.2,0.4-0.5,0.6-0.7h0.4V305L303.4,305z"/>
	<path d="M361,304.4v0.6h-3.3c0-0.1,0-0.3,0.1-0.4c0.1-0.2,0.2-0.4,0.4-0.7c0.2-0.2,0.5-0.5,0.8-0.8c0.6-0.5,0.9-0.8,1.1-1.1
		c0.2-0.3,0.3-0.5,0.3-0.7c0-0.2-0.1-0.5-0.3-0.6c-0.2-0.2-0.4-0.3-0.7-0.3c-0.3,0-0.5,0.1-0.7,0.3c-0.2,0.2-0.3,0.4-0.3,0.7
		l-0.6-0.1c0-0.5,0.2-0.8,0.5-1.1c0.3-0.3,0.7-0.4,1.2-0.4c0.5,0,0.9,0.1,1.2,0.4c0.3,0.3,0.4,0.6,0.4,1c0,0.2,0,0.4-0.1,0.6
		c-0.1,0.2-0.2,0.4-0.4,0.6c-0.2,0.2-0.5,0.5-1,0.9c-0.4,0.3-0.6,0.5-0.7,0.6c-0.1,0.1-0.2,0.2-0.3,0.3H361L361,304.4z"/>
	<path d="M235,353.6v-0.5h2.8v0.5H235L235,353.6z M241.7,354.9v0.6h-3.3c0-0.1,0-0.3,0.1-0.4c0.1-0.2,0.2-0.4,0.4-0.7
		c0.2-0.2,0.5-0.5,0.8-0.8c0.6-0.5,0.9-0.8,1.1-1.1c0.2-0.3,0.3-0.5,0.3-0.7c0-0.2-0.1-0.5-0.3-0.6s-0.4-0.3-0.7-0.3
		c-0.3,0-0.5,0.1-0.7,0.3s-0.3,0.4-0.3,0.7l-0.6-0.1c0-0.5,0.2-0.8,0.5-1.1s0.7-0.4,1.2-0.4c0.5,0,0.9,0.1,1.2,0.4
		c0.3,0.3,0.4,0.6,0.4,1c0,0.2,0,0.4-0.1,0.6c-0.1,0.2-0.2,0.4-0.4,0.6c-0.2,0.2-0.5,0.5-1,0.9c-0.4,0.3-0.6,0.5-0.7,0.6
		c-0.1,0.1-0.2,0.2-0.3,0.3H241.7L241.7,354.9z"/>
	<path d="M235,325.3v-0.5h2.8v0.5H235L235,325.3z M240.8,327.2h-0.6v-4c-0.1,0.1-0.3,0.3-0.6,0.4c-0.2,0.1-0.5,0.3-0.7,0.3v-0.6
		c0.3-0.2,0.6-0.4,0.9-0.6c0.3-0.2,0.4-0.5,0.6-0.7h0.4V327.2L240.8,327.2z"/>
	<path d="M241.1,270.1h-0.6v-4c-0.1,0.1-0.3,0.3-0.6,0.4c-0.2,0.1-0.5,0.3-0.7,0.3v-0.6c0.3-0.2,0.6-0.4,0.9-0.6
		c0.3-0.2,0.4-0.5,0.6-0.7h0.4V270.1L241.1,270.1z"/>
	<path d="M242,241.1v0.6h-3.3c0-0.1,0-0.3,0.1-0.4c0.1-0.2,0.2-0.4,0.4-0.7c0.2-0.2,0.5-0.5,0.8-0.8c0.6-0.5,0.9-0.8,1.1-1.1
		c0.2-0.3,0.3-0.5,0.3-0.7c0-0.2-0.1-0.5-0.3-0.6c-0.2-0.2-0.4-0.3-0.7-0.3c-0.3,0-0.5,0.1-0.7,0.3s-0.3,0.4-0.3,0.7l-0.6-0.1
		c0-0.5,0.2-0.8,0.5-1.1s0.7-0.4,1.2-0.4c0.5,0,0.9,0.1,1.2,0.4c0.3,0.3,0.4,0.6,0.4,1c0,0.2,0,0.4-0.1,0.6
		c-0.1,0.2-0.2,0.4-0.4,0.6c-0.2,0.2-0.5,0.5-1,0.9c-0.4,0.3-0.6,0.5-0.7,0.6c-0.1,0.1-0.2,0.2-0.3,0.3H242L242,241.1z"/>
	<path d="M238.7,212.1l0.6-0.1c0.1,0.4,0.2,0.6,0.4,0.8c0.2,0.2,0.4,0.2,0.6,0.2c0.3,0,0.5-0.1,0.7-0.3c0.2-0.2,0.3-0.5,0.3-0.8
		c0-0.3-0.1-0.5-0.3-0.7c-0.2-0.2-0.4-0.3-0.7-0.3c-0.1,0-0.3,0-0.4,0.1l0.1-0.5c0,0,0.1,0,0.1,0c0.3,0,0.5-0.1,0.7-0.2
		c0.2-0.1,0.3-0.4,0.3-0.6c0-0.2-0.1-0.4-0.2-0.6c-0.2-0.1-0.4-0.2-0.6-0.2c-0.2,0-0.4,0.1-0.6,0.2c-0.2,0.2-0.3,0.4-0.3,0.7
		l-0.6-0.1c0.1-0.4,0.2-0.7,0.5-1c0.3-0.2,0.6-0.3,1-0.3c0.3,0,0.5,0.1,0.8,0.2s0.4,0.3,0.5,0.5c0.1,0.2,0.2,0.4,0.2,0.7
		c0,0.2-0.1,0.4-0.2,0.6c-0.1,0.2-0.3,0.3-0.5,0.4c0.3,0.1,0.5,0.2,0.7,0.4c0.2,0.2,0.2,0.5,0.2,0.8c0,0.4-0.2,0.8-0.5,1.1
		c-0.3,0.3-0.7,0.5-1.2,0.5c-0.4,0-0.8-0.1-1.1-0.4C238.9,212.8,238.8,212.5,238.7,212.1L238.7,212.1z"/>
	<path d="M240.7,185.1v-1.2h-2.2v-0.6l2.3-3.3h0.5v3.3h0.7v0.6h-0.7v1.2H240.7L240.7,185.1z M240.7,183.3V181l-1.6,2.3H240.7
		L240.7,183.3z"/>
	<path d="M238.7,155.4l0.6-0.1c0,0.3,0.2,0.6,0.3,0.7c0.2,0.2,0.4,0.2,0.6,0.2c0.3,0,0.6-0.1,0.8-0.3c0.2-0.2,0.3-0.5,0.3-0.9
		c0-0.4-0.1-0.6-0.3-0.8c-0.2-0.2-0.5-0.3-0.8-0.3c-0.2,0-0.4,0-0.5,0.1c-0.2,0.1-0.3,0.2-0.4,0.4l-0.6-0.1l0.5-2.6h2.5v0.6h-2
		l-0.3,1.4c0.3-0.2,0.6-0.3,1-0.3c0.4,0,0.8,0.2,1.1,0.5c0.3,0.3,0.5,0.7,0.5,1.2c0,0.5-0.1,0.9-0.4,1.2c-0.3,0.4-0.8,0.6-1.3,0.6
		c-0.5,0-0.8-0.1-1.1-0.4C238.9,156.2,238.8,155.8,238.7,155.4L238.7,155.4z"/>
	<path d="M241.9,124.6l-0.6,0.1c-0.1-0.2-0.1-0.4-0.2-0.5c-0.2-0.2-0.4-0.3-0.6-0.3c-0.2,0-0.4,0.1-0.5,0.2
		c-0.2,0.1-0.4,0.4-0.5,0.6c-0.1,0.3-0.2,0.7-0.2,1.2c0.1-0.2,0.3-0.4,0.5-0.5c0.2-0.1,0.4-0.2,0.7-0.2c0.4,0,0.8,0.2,1.1,0.5
		c0.3,0.3,0.4,0.7,0.4,1.2c0,0.3-0.1,0.6-0.2,0.9c-0.1,0.3-0.3,0.5-0.6,0.6c-0.2,0.1-0.5,0.2-0.8,0.2c-0.5,0-0.9-0.2-1.3-0.6
		c-0.3-0.4-0.5-1-0.5-1.9c0-1,0.2-1.7,0.5-2.1c0.3-0.4,0.7-0.6,1.3-0.6c0.4,0,0.7,0.1,1,0.3S241.9,124.2,241.9,124.6L241.9,124.6z
		 M239.4,126.8c0,0.2,0,0.4,0.1,0.6c0.1,0.2,0.2,0.3,0.4,0.4c0.2,0.1,0.3,0.2,0.5,0.2c0.3,0,0.5-0.1,0.7-0.3
		c0.2-0.2,0.3-0.5,0.3-0.9c0-0.3-0.1-0.6-0.3-0.8c-0.2-0.2-0.4-0.3-0.7-0.3c-0.3,0-0.5,0.1-0.7,0.3
		C239.5,126.2,239.4,126.4,239.4,126.8L239.4,126.8z"/>
	<path d="M238.8,95.7v-0.6h3.3v0.5c-0.3,0.3-0.6,0.8-1,1.4c-0.3,0.6-0.6,1.2-0.7,1.8c-0.1,0.4-0.2,0.9-0.2,1.4h-0.6
		c0-0.4,0.1-0.9,0.2-1.4c0.1-0.6,0.4-1.1,0.6-1.6c0.3-0.5,0.6-1,0.9-1.3H238.8L238.8,95.7z"/>
	<path d="M239.7,69c-0.3-0.1-0.5-0.2-0.6-0.4c-0.1-0.2-0.2-0.4-0.2-0.6c0-0.4,0.1-0.7,0.4-0.9c0.3-0.3,0.6-0.4,1.1-0.4
		s0.8,0.1,1.1,0.4c0.3,0.3,0.4,0.6,0.4,0.9c0,0.2-0.1,0.4-0.2,0.6c-0.1,0.2-0.3,0.3-0.6,0.4c0.3,0.1,0.6,0.3,0.7,0.5
		s0.2,0.5,0.2,0.8c0,0.4-0.2,0.8-0.5,1.1c-0.3,0.3-0.7,0.4-1.2,0.4c-0.5,0-0.9-0.1-1.2-0.4c-0.3-0.3-0.5-0.7-0.5-1.1
		c0-0.3,0.1-0.6,0.3-0.8C239.1,69.2,239.4,69.1,239.7,69L239.7,69z M239.5,68c0,0.2,0.1,0.4,0.2,0.6c0.2,0.2,0.4,0.2,0.6,0.2
		c0.2,0,0.4-0.1,0.6-0.2c0.2-0.2,0.2-0.3,0.2-0.6c0-0.2-0.1-0.4-0.2-0.6c-0.2-0.2-0.4-0.2-0.6-0.2c-0.2,0-0.4,0.1-0.6,0.2
		C239.6,67.6,239.5,67.7,239.5,68L239.5,68z M239.3,70.3c0,0.2,0,0.3,0.1,0.5c0.1,0.2,0.2,0.3,0.4,0.4c0.2,0.1,0.3,0.1,0.5,0.1
		c0.3,0,0.5-0.1,0.7-0.3c0.2-0.2,0.3-0.4,0.3-0.7c0-0.3-0.1-0.5-0.3-0.7c-0.2-0.2-0.4-0.3-0.7-0.3c-0.3,0-0.5,0.1-0.7,0.3
		C239.4,69.8,239.3,70,239.3,70.3L239.3,70.3z"/>
	<path d="M238.8,42.3l0.6-0.1c0,0.3,0.1,0.5,0.3,0.6c0.1,0.1,0.3,0.2,0.6,0.2c0.2,0,0.4,0,0.5-0.1c0.1-0.1,0.3-0.2,0.4-0.4
		c0.1-0.1,0.2-0.3,0.2-0.6c0.1-0.2,0.1-0.5,0.1-0.8c0,0,0-0.1,0-0.1c-0.1,0.2-0.3,0.4-0.5,0.5c-0.2,0.1-0.4,0.2-0.7,0.2
		c-0.4,0-0.8-0.2-1.1-0.5c-0.3-0.3-0.4-0.7-0.4-1.2c0-0.5,0.2-0.9,0.5-1.2c0.3-0.3,0.7-0.5,1.1-0.5c0.3,0,0.6,0.1,0.9,0.3
		c0.3,0.2,0.5,0.4,0.6,0.8c0.1,0.3,0.2,0.8,0.2,1.4c0,0.6-0.1,1.2-0.2,1.5c-0.1,0.4-0.3,0.7-0.6,0.9s-0.6,0.3-1,0.3
		c-0.4,0-0.7-0.1-1-0.3C239,43,238.9,42.7,238.8,42.3L238.8,42.3z M241.4,40c0-0.4-0.1-0.6-0.3-0.9c-0.2-0.2-0.4-0.3-0.7-0.3
		c-0.3,0-0.5,0.1-0.7,0.3c-0.2,0.2-0.3,0.5-0.3,0.9c0,0.3,0.1,0.6,0.3,0.8c0.2,0.2,0.4,0.3,0.7,0.3c0.3,0,0.5-0.1,0.7-0.3
		C241.3,40.7,241.4,40.4,241.4,40L241.4,40z"/>
	<path d="M236.8,15.1h-0.6v-4c-0.1,0.1-0.3,0.3-0.6,0.4c-0.2,0.1-0.5,0.3-0.7,0.3v-0.6c0.3-0.2,0.6-0.4,0.9-0.6
		c0.3-0.2,0.4-0.5,0.6-0.7h0.4V15.1L236.8,15.1z M238.4,12.6c0-0.6,0.1-1.1,0.2-1.4c0.1-0.4,0.3-0.6,0.5-0.8
		c0.2-0.2,0.5-0.3,0.9-0.3c0.3,0,0.5,0.1,0.7,0.2c0.2,0.1,0.4,0.3,0.5,0.5s0.2,0.5,0.3,0.8c0.1,0.3,0.1,0.7,0.1,1.2
		c0,0.6-0.1,1.1-0.2,1.4c-0.1,0.4-0.3,0.6-0.5,0.8c-0.2,0.2-0.5,0.3-0.9,0.3c-0.5,0-0.9-0.2-1.2-0.5
		C238.6,14.2,238.4,13.6,238.4,12.6L238.4,12.6z M239,12.6c0,0.8,0.1,1.4,0.3,1.7c0.2,0.3,0.4,0.4,0.7,0.4s0.5-0.1,0.7-0.4
		c0.2-0.3,0.3-0.8,0.3-1.7c0-0.8-0.1-1.4-0.3-1.7c-0.2-0.3-0.4-0.4-0.7-0.4c-0.3,0-0.5,0.1-0.7,0.4C239.2,11.2,239,11.8,239,12.6
		L239,12.6z"/>
	<path d="M238.7,302.5c0-0.6,0.1-1.1,0.2-1.4s0.3-0.6,0.5-0.8c0.2-0.2,0.5-0.3,0.9-0.3c0.3,0,0.5,0.1,0.7,0.2
		c0.2,0.1,0.4,0.3,0.5,0.5c0.1,0.2,0.2,0.5,0.3,0.8c0.1,0.3,0.1,0.7,0.1,1.2c0,0.6-0.1,1.1-0.2,1.4s-0.3,0.6-0.5,0.8
		c-0.2,0.2-0.5,0.3-0.9,0.3c-0.5,0-0.9-0.2-1.2-0.5C238.9,304.1,238.7,303.4,238.7,302.5L238.7,302.5z M239.4,302.5
		c0,0.8,0.1,1.4,0.3,1.7c0.2,0.3,0.4,0.4,0.7,0.4c0.3,0,0.5-0.1,0.7-0.4c0.2-0.3,0.3-0.8,0.3-1.7c0-0.8-0.1-1.4-0.3-1.7
		c-0.2-0.3-0.4-0.4-0.7-0.4c-0.3,0-0.5,0.1-0.7,0.4C239.5,301.1,239.4,301.7,239.4,302.5L239.4,302.5z"/>
	<g>
		<defs>
			<rect id="SVGID_3_" width="409.3" height="370"/>
		</defs>
		<clipPath id="SVGID_4_">
			<use xlink:href="#SVGID_3_"  style="overflow:visible;"/>
		</clipPath>
		<path class="st3" d="M19,107.1l0.2-0.5 M19.2,106.6l1.6-3.9l1.6-3.8l1.6-3.6l1.6-3.5 M25.6,91.7l1.6-3.4l1.6-3.3l1.6-3.1l1.6-3
			l1.6-2.9l1.6-2.8l1.6-2.6l1.6-2.5l3.2-4.7l3.2-4.2l3.2-3.7l3.2-3.3 M51.2,52.3l3.2-2.8l3.2-2.4l3.2-2l3.2-1.6l3.2-1.2l3.2-0.8
			l3.2-0.4l3.2-0.1l3.2,0.3l3.2,0.6l3.2,1l3.2,1.3l3.2,1.6l3.2,1.9l3.2,2.2l3.2,2.5 M102.3,52.5l3.2,2.8l3.2,3.1l3.2,3.3l3.2,3.6
			l3.2,3.8l3.2,4l3.2,4.2l3.2,4.4l3.2,4.6l1.6,2.4l1.6,2.4l1.6,2.5l1.6,2.5l1.6,2.6l1.6,2.6l1.6,2.6l1.6,2.7l1.6,2.7l1.6,2.7
			l1.6,2.8l1.6,2.8l1.6,2.8l1.6,2.9l1.6,2.9l1.6,2.9l1.6,2.9l1.6,3l1.6,3l1.6,3l1.6,3l1.6,3.1l1.6,3.1l1.6,3.1l1.6,3.1l1.6,3.1
			l1.6,3.1l1.6,3.1l1.6,3.2l1.6,3.2l1.6,3.2l1.6,3.2l1.6,3.2l1.6,3.2l1.6,3.2l1.6,3.2l1.6,3.2l1.6,3.2l1.6,3.2l1.6,3.2l1.6,3.2
			l1.6,3.2l1.6,3.2l1.6,3.2l1.6,3.2l1.6,3.1 M204.7,223.1l1.6,3.1l1.6,3.1l1.6,3.1l1.6,3.1l1.6,3.1l1.6,3l1.6,3l1.6,3l1.6,3l1.6,3
			l1.6,2.9l1.6,2.9l1.6,2.9l1.6,2.9l1.6,2.8l1.6,2.8l1.6,2.8l1.6,2.7l1.6,2.7l1.6,2.7l1.6,2.6l1.6,2.6l1.6,2.5l1.6,2.5l1.6,2.5
			l1.6,2.4l3.2,4.7l3.2,4.5l3.2,4.3l3.2,4.1l3.2,3.8l3.2,3.6l3.2,3.4l3.2,3.1l3.2,2.9l3.2,2.6l3.2,2.3l3.2,2l3.2,1.7l3.2,1.4
			l3.2,1.1l3.2,0.7l3.2,0.4l3.2,0l3.2-0.3 M307,342.9l3.2-0.7l3.2-1.1l3.2-1.5l3.2-1.9l3.2-2.3l3.2-2.7l3.2-3.2l3.2-3.6l3.2-4.1
			l3.2-4.5l1.6-2.5l1.6-2.6l1.6-2.7l1.6-2.8l1.6-2.9l1.6-3.1l1.6-3.2l1.6-3.3l1.6-3.5l1.6-3.6l1.6-3.7l1.6-3.8 M358.2,279.6l1-2.4"
			/>
		<line class="st4" x1="297.1" y1="373" x2="46.8" y2="-2.4"/>
	</g>
	<line class="st5" x1="302.5" y1="343.3" x2="352.2" y2="343.3"/>
	<polygon class="st6" points="358.8,343.3 352.2,344.9 352.2,341.6 	"/>
	<line class="st5" x1="302.5" y1="343.3" x2="252.4" y2="343.1"/>
	<polygon class="st6" points="245.8,343.1 252.4,341.5 252.4,344.8 	"/>
	<line class="st5" x1="75.7" y1="40.9" x2="125.8" y2="40.9"/>
	<polygon class="st6" points="132.4,40.9 125.8,42.6 125.8,39.3 	"/>
	<line class="st5" x1="75.7" y1="40.9" x2="25.6" y2="40.9"/>
	<polygon class="st6" points="19,40.9 25.6,39.3 25.6,42.6 	"/>
	<path class="st7" d="M246.2,296c0,0.3-0.2,0.5-0.5,0.5s-0.5-0.2-0.5-0.5s0.2-0.5,0.5-0.5S246.2,295.8,246.2,296L246.2,296z"/>
	<path class="st8" d="M246.2,296c0,0.3-0.2,0.5-0.5,0.5s-0.5-0.2-0.5-0.5s0.2-0.5,0.5-0.5S246.2,295.8,246.2,296L246.2,296z"/>
	<path class="st7" d="M254.9,287.1c0-1.1,0.3-2,0.9-2.6c0.6-0.6,1.4-1,2.3-1c0.6,0,1.2,0.2,1.7,0.5c0.5,0.3,0.9,0.7,1.1,1.3
		c0.3,0.5,0.4,1.1,0.4,1.8c0,0.7-0.1,1.3-0.4,1.8c-0.3,0.5-0.7,1-1.2,1.2c-0.5,0.3-1.1,0.4-1.6,0.4c-0.6,0-1.2-0.2-1.7-0.5
		c-0.5-0.3-0.9-0.7-1.1-1.3C255.1,288.2,254.9,287.7,254.9,287.1L254.9,287.1z M255.9,287.1c0,0.8,0.2,1.5,0.7,1.9
		c0.4,0.5,1,0.7,1.6,0.7c0.7,0,1.2-0.2,1.7-0.7c0.4-0.5,0.7-1.1,0.7-2c0-0.5-0.1-1-0.3-1.4c-0.2-0.4-0.5-0.7-0.8-1
		c-0.4-0.2-0.8-0.3-1.2-0.3c-0.6,0-1.2,0.2-1.6,0.7C256.1,285.3,255.9,286.1,255.9,287.1L255.9,287.1z"/>
	<path class="st9" d="M76.2,40.9c0,0.3-0.2,0.5-0.5,0.5s-0.5-0.2-0.5-0.5s0.2-0.5,0.5-0.5S76.2,40.7,76.2,40.9L76.2,40.9z"/>
	<path class="st8" d="M76.2,40.9c0,0.3-0.2,0.5-0.5,0.5s-0.5-0.2-0.5-0.5s0.2-0.5,0.5-0.5S76.2,40.7,76.2,40.9L76.2,40.9z"/>
	<path class="st9" d="M78.8,38.2l2.6-6.8h1l2.8,6.8h-1l-0.8-2.1h-2.8l-0.7,2.1H78.8L78.8,38.2z M80.8,35.5h2.3l-0.7-1.9
		c-0.2-0.6-0.4-1-0.5-1.4c-0.1,0.4-0.2,0.9-0.4,1.3L80.8,35.5L80.8,35.5z"/>
	<path class="st10" d="M302.9,343.3c0,0.3-0.2,0.5-0.5,0.5s-0.5-0.2-0.5-0.5c0-0.3,0.2-0.5,0.5-0.5S302.9,343,302.9,343.3
		L302.9,343.3z"/>
	<path class="st8" d="M302.9,343.3c0,0.3-0.2,0.5-0.5,0.5s-0.5-0.2-0.5-0.5c0-0.3,0.2-0.5,0.5-0.5S302.9,343,302.9,343.3
		L302.9,343.3z"/>
	<path class="st10" d="M301,338v-6.8h2.5c0.5,0,0.9,0.1,1.2,0.2c0.3,0.1,0.6,0.3,0.7,0.6c0.2,0.3,0.3,0.6,0.3,0.9
		c0,0.3-0.1,0.6-0.2,0.8c-0.2,0.3-0.4,0.5-0.7,0.6c0.4,0.1,0.7,0.3,0.9,0.6c0.2,0.3,0.3,0.6,0.3,1c0,0.3-0.1,0.6-0.2,0.9
		c-0.1,0.3-0.3,0.5-0.5,0.6c-0.2,0.1-0.4,0.3-0.7,0.3s-0.7,0.1-1.1,0.1H301L301,338z M301.9,334.1h1.5c0.4,0,0.7,0,0.9-0.1
		c0.2-0.1,0.4-0.2,0.5-0.3c0.1-0.2,0.2-0.4,0.2-0.6c0-0.2-0.1-0.4-0.2-0.6s-0.3-0.3-0.5-0.4c-0.2-0.1-0.5-0.1-1-0.1h-1.3V334.1
		L301.9,334.1z M301.9,337.2h1.7c0.3,0,0.5,0,0.6,0c0.2,0,0.4-0.1,0.5-0.2c0.1-0.1,0.3-0.2,0.3-0.4c0.1-0.2,0.1-0.4,0.1-0.6
		c0-0.3-0.1-0.5-0.2-0.7c-0.1-0.2-0.3-0.3-0.5-0.4c-0.2-0.1-0.6-0.1-1-0.1h-1.6V337.2L301.9,337.2z"/>
	<path class="st10" d="M35.2,112.3c0,0.2,0,0.2,0,0.2l0,0l0,0l0,0c-0.2,0.2-0.2,0.2-0.2,0.2s0-0.1,0-0.2c-0.3-0.2-0.5-0.3-0.5-0.6
		c0-0.2,0.2-0.6,0.5-1c0.3-0.5,0.7-0.8,1.1-1.1c0.5-0.3,0.8-0.5,1.1-0.5c0.8,0,1.2,0.3,1.4,0.9c0,0.2,0,0.2,0,0.2
		c0,0.6-0.2,1.2-0.7,1.8c-0.3,0.5-0.8,0.8-1.4,1.1c-0.6,0.3-1.2,0.5-1.8,0.5c-0.6,0-1.1-0.2-1.5-0.5c-0.4-0.3-0.6-0.7-0.6-1.1
		c0,0,0-0.1,0-0.2c0-1.1,0.5-2.2,1.4-3.4h-0.2c-1.4,0-2.4-0.3-3-0.9c-0.2-0.3-0.2-0.7-0.2-1.1c0-0.3,0.2-0.7,0.5-1.1
		s0.8-0.8,1.4-1.1c0.8-0.3,1.4-0.5,2.1-0.5c0.2,0,0.2,0,0.2,0s-0.1,0.1-0.2,0.2l0,0c-0.6,0-1.1,0.2-1.6,0.5
		c-0.5,0.3-0.8,0.6-1.1,0.9c-0.3,0.5-0.5,0.9-0.5,1.4c0,0.3,0.1,0.5,0.2,0.7c0.3,0.5,1.1,0.7,2.3,0.7c0.2,0,0.3,0,0.5,0
		c0.9-1.4,2.1-2.5,3.4-3.4c1.4-1.1,2.4-1.6,3.2-1.6c0.6,0,1,0.3,1.1,0.9l0,0c0,0.5-0.2,0.9-0.5,1.4c-0.6,0.9-1.7,1.7-3.2,2.3
		c-0.9,0.3-1.9,0.5-3,0.7c-1.2,1.7-1.8,3-1.8,3.9l0,0c0,0.5,0.1,0.8,0.3,1s0.6,0.3,1,0.3c0.3,0,0.7-0.2,1.1-0.5
		c0.5-0.3,0.8-0.7,1.1-1.1c0.5-0.8,0.7-1.3,0.7-1.6v-0.2c0-0.3-0.2-0.5-0.7-0.5c-0.3,0-0.6,0.1-0.9,0.3c-0.3,0.2-0.6,0.6-0.9,1
		c-0.3,0.3-0.5,0.5-0.5,0.7C35,112.1,35.1,112.3,35.2,112.3L35.2,112.3z M35.2,112.5L35.2,112.5L35.2,112.5L35.2,112.5L35.2,112.5
		L35.2,112.5z M41,103.6c-0.6,0-1.4,0.5-2.5,1.4c-0.8,0.8-1.7,1.8-2.7,3c0.9,0,1.8-0.2,2.5-0.5c1.4-0.6,2.4-1.3,3-2.1
		c0.3-0.5,0.5-0.9,0.5-1.4l0,0C41.6,103.7,41.4,103.6,41,103.6L41,103.6z"/>
	<path class="st10" d="M43.6,113.9L43.6,113.9l-0.5,3.4c-0.1,0.4-0.3,0.9-0.5,1.4c0,0.2-0.1,0.4-0.2,0.5c-0.2,0.5-0.5,0.9-1,1
		c0,0-0.1,0-0.2,0c-0.3,0-0.6-0.1-0.8-0.3c-0.1-0.1-0.2-0.2-0.2-0.3c0-0.3,0.2-0.5,0.5-0.6c0,0,0.1,0,0.2,0c0.2,0,0.3,0.1,0.3,0.2
		c0,0.1,0,0.2,0,0.2c0,0.2-0.1,0.4-0.3,0.5c0,0-0.1,0.1-0.2,0.2c0.1,0.1,0.3,0.2,0.5,0.2c0.3,0,0.5-0.4,0.6-1.1
		c0.1-0.1,0.2-0.3,0.2-0.5V118l0.8-4.2h-0.6c-0.2,0-0.3,0-0.3,0l0,0l0,0c0-0.1,0.1-0.2,0.2-0.3l0,0h0.2h0.8c0.1-0.9,0.2-1.4,0.3-1.6
		c0.2-0.6,0.5-1,1-1.1c0.1,0,0.2,0,0.3,0c0.3,0,0.6,0.1,0.8,0.3l0,0c0,0.1,0,0.2,0,0.3c0,0.3-0.1,0.5-0.3,0.6c0,0-0.1,0-0.2,0
		c-0.2,0-0.3-0.1-0.3-0.2c-0.1-0.1-0.2-0.2-0.2-0.2c0-0.2,0.1-0.4,0.3-0.5c0.1,0,0.2-0.1,0.3-0.2c-0.1-0.1-0.3-0.2-0.5-0.2
		c-0.2,0-0.4,0.1-0.5,0.3c-0.1,0.1-0.2,0.5-0.3,1.1l-0.2,1.1h0.8c0.2,0,0.3,0.1,0.3,0.2s-0.1,0.2-0.2,0.2l0,0h-0.2H43.6L43.6,113.9z
		"/>
</g>
</svg>
