<?xml version="1.0" encoding="UTF-8" standalone="no"?>
<!DOCTYPE svg PUBLIC "-//W3C//DTD SVG 1.1//EN"
"http://www.w3.org/Graphics/SVG/1.1/DTD/svg11.dtd">


<!-- Page 2 -->
<svg x="0" y="0" width="709" height="776" viewBox="0 0 709 776" version="1.1" xmlns="http://www.w3.org/2000/svg" xmlns:xlink="http://www.w3.org/1999/xlink"
style="display: block;margin-left: auto;margin-right: auto;">
<defs>
<clipPath id="c0_2"><path d="M-102.5,1213.5l0,-1285l908,0l0,1285Z" /></clipPath>
<clipPath id="c1_2"><path d="M91.5,67.5l0,-33l109,0l0,33Z" /></clipPath>
<clipPath id="c2_2"><path d="M310.5,67.5l0,-33l103,0l0,33Z" /></clipPath>
<clipPath id="c3_2"><path d="M91.5,233.5l0,-58l158,0l0,58Z" /></clipPath>
<clipPath id="c4_2"><path d="M60.5,743.5l0,-351l550,0l0,351Z" /></clipPath>

<style type="text/css"><![CDATA[

.g3_2{
fill: none;
stroke: #858585;
stroke-width: 2;
stroke-linecap: butt;
stroke-linejoin: round;
}
.g4_2{
fill: none;
stroke: #1F497D;
stroke-width: 2;
stroke-linecap: round;
stroke-linejoin: round;
}
.g2_2{
fill: #FFFFFF;
}
.g5_2{
fill: none;
stroke: #FF0000;
stroke-width: 2;
stroke-linecap: round;
stroke-linejoin: round;
}
.g6_2{
fill: none;
stroke: #008000;
stroke-width: 2;
stroke-linecap: round;
stroke-linejoin: round;
}
.g1_2{
fill: none;
stroke: #000000;
stroke-width: 1;
stroke-linecap: butt;
stroke-linejoin: round;
}

.s5_2{
font-size: 18.48px;
font-family: SymbolMT_l;
fill: TRANSPARENT;
}
.s10_2{
font-size: 18.39px;
font-family: TimesNewRomanPSMT_o;
fill: TRANSPARENT;
}
.s9_2{
font-size: 12.28px;
font-family: Times-Italic_x;
fill: TRANSPARENT;
}
.s16_2{
font-size: 15.22px;
font-family: Cambria_1k;
fill: TRANSPARENT;
}
.s4_2{
font-size: 10.77px;
font-family: TimesNewRomanPSMT_o;
fill: TRANSPARENT;
}
.s3_2{
font-size: 10.77px;
font-family: TimesNewRomanPS-ItalicMT_m;
fill: TRANSPARENT;
}
.s13_2{
font-size: 18.39px;
font-family: SymbolMT_l;
fill: TRANSPARENT;
}
.s14_2{
font-size: 18.33px;
font-family: CambriaMath_v;
fill: TRANSPARENT;
}
.s8_2{
font-size: 18.33px;
font-family: Times-Italic_x;
fill: TRANSPARENT;
}
.s7_2{
font-size: 18.33px;
font-family: Times_13;
fill: TRANSPARENT;
}
.s1_2{
font-size: 18.33px;
font-family: Times_e;
fill: TRANSPARENT;
}
.s12_2{
font-size: 10.73px;
font-family: TimesNewRomanPSMT_o;
fill: TRANSPARENT;
}
.s11_2{
font-size: 10.73px;
font-family: TimesNewRomanPS-ItalicMT_m;
fill: TRANSPARENT;
}
.s15_2{
font-size: 18.33px;
font-family: SymbolMT_l;
fill: TRANSPARENT;
}
.s17_2{
font-size: 15.25px;
font-family: Cambria_1k;
fill: TRANSPARENT;
}
.s18_2{
font-size: 15.22px;
font-family: Cambria-Italic_1m;
fill: TRANSPARENT;
}
.s19_2{
font-size: 15.22px;
font-family: Cambria-Italic_1s;
fill: TRANSPARENT;
}
.s2_2{
font-size: 18.48px;
font-family: TimesNewRomanPSMT_o;
fill: TRANSPARENT;
}
.s6_2{
font-size: 18.48px;
font-family: TimesNewRomanPS-ItalicMT_m;
fill: TRANSPARENT;
}

]]></style>

</defs>
<path d="M0,0
L0,776
L709,776
L709,0 Z " 
fill="#FFFFFF" stroke="none" />
<g clip-path="url(#c0_2)">
<g fill="#000000" >
<use xlink:href="#f0_13" transform="matrix(12,0,0,12,5.1,66)" />
<use xlink:href="#f0_b" transform="matrix(12,0,0,12,17.3,66)" />
<use xlink:href="#f0_21" transform="matrix(12,0,0,12,20.4,66)" />
<use xlink:href="#f0_2f" transform="matrix(12,0,0,12,28.5,66)" />
<use xlink:href="#f0_2g" transform="matrix(12,0,0,12,35.6,66)" />
<use xlink:href="#f0_2z" transform="matrix(12,0,0,12,45.3,66)" />
<use xlink:href="#f0_20" transform="matrix(12,0,0,12,58,66)" />
<use xlink:href="#f0_25" transform="matrix(12,0,0,12,67.2,66)" />
<use xlink:href="#f0_2e" transform="matrix(12,0,0,12,72.3,66)" />
<use xlink:href="#f0_21" transform="matrix(12,0,0,12,78.5,66)" />
</g>
</g>
<text 
x="5" 
y="65" 
dx="0,0,-0.2,-0.1,0,0,0,0,0,0,0,0.1,-0.1" 
class="s1_2"
>C'est à dire </text>

<g clip-path="url(#c1_2)">
<g fill="#000000" >
<use xlink:href="#f1_m" transform="matrix(12.1,0,0,12.1,93.7,65.7)" />
<use xlink:href="#f1_21" transform="matrix(12.1,0,0,12.1,104.5,65.7)" />
<use xlink:href="#f2_2k" transform="matrix(7.1,0,0,7,114.5,44.7)" />
</g>
</g>
<text 
x="93" 
y="65" 
dx="0,1.5" 
class="s2_2"
>2e</text>

<g clip-path="url(#c1_2)">
<g fill="#000000" >
<use xlink:href="#f1_m" transform="matrix(7.1,0,0,7,114.5,60.1)" />
</g>
</g>
<text 
x="114" 
y="44" 
dx="0" 
class="s3_2"
>x</text>

<text 
x="114" 
y="60" 
dx="0" 
class="s4_2"
>2</text>

<path d="M113.5,48.5l6,0" class="g1_2" />
<g clip-path="url(#c1_2)">
<g fill="#000000" >
<use xlink:href="#f3_h" transform="matrix(12.1,0,0,12.1,123,65.7)" />
<use xlink:href="#f2_2k" transform="matrix(12.1,0,0,12.1,137.6,65.7)" />
</g>
</g>
<text 
x="123" 
y="65" 
dx="0" 
class="s5_2"
></text>

<g clip-path="url(#c1_2)">
<g fill="#000000" >
<use xlink:href="#f3_h" transform="matrix(12.1,0,0,12.1,150.7,65.7)" />
</g>
</g>
<text 
x="137" 
y="65" 
dx="0" 
class="s6_2"
>x</text>

<g clip-path="url(#c1_2)">
<g fill="#000000" >
<use xlink:href="#f1_m" transform="matrix(12.1,0,0,12.1,163.8,65.7)" />
</g>
</g>
<text 
x="150" 
y="65" 
dx="0" 
class="s5_2"
></text>

<g clip-path="url(#c1_2)">
<g fill="#000000" >
<use xlink:href="#f3_39" transform="matrix(12.1,0,0,12.1,177,65.7)" />
</g>
</g>
<text 
x="163" 
y="65" 
dx="0" 
class="s2_2"
>2</text>

<g clip-path="url(#c1_2)">
<g fill="#000000" >
<use xlink:href="#f1_k" transform="matrix(12.1,0,0,12.1,190,65.7)" />
</g>
</g>
<text 
x="176" 
y="65" 
dx="0" 
class="s5_2"
></text>

<text 
x="190" 
y="65" 
dx="0" 
class="s2_2"
>0</text>

<g clip-path="url(#c0_2)">
<g fill="#000000" >
<use xlink:href="#f0_20" transform="matrix(12,0,0,12,205.1,66)" />
<use xlink:href="#f0_b" transform="matrix(12,0,0,12,214.3,66)" />
<use xlink:href="#f0_2b" transform="matrix(12,0,0,12,217.4,66)" />
<use xlink:href="#f0_3k" transform="matrix(12,0,0,12,226.6,66)" />
<use xlink:href="#f0_28" transform="matrix(12,0,0,12,240.3,66)" />
<use xlink:href="#f0_b" transform="matrix(12,0,0,12,245.6,66)" />
<use xlink:href="#f0_2b" transform="matrix(12,0,0,12,248.7,66)" />
<use xlink:href="#f0_2a" transform="matrix(12,0,0,12,257.9,66)" />
<use xlink:href="#f0_2g" transform="matrix(12,0,0,12,271.6,66)" />
<use xlink:href="#f0_25" transform="matrix(12,0,0,12,276.7,66)" />
<use xlink:href="#f0_2e" transform="matrix(12,0,0,12,281.9,66)" />
<use xlink:href="#f0_21" transform="matrix(12,0,0,12,288,66)" />
<use xlink:href="#f0_u" transform="matrix(12,0,0,12,300.8,66)" />
</g>
</g>
<text 
x="205" 
y="65" 
dx="0,0,-0.2,0,0,0,0.2,-0.2,0,0,0,0,0.1,0,-0.1,0.2,0" 
class="s1_2"
>d'où l'on tire : </text>

<g clip-path="url(#c2_2)">
<g fill="#000000" >
<use xlink:href="#f1_m" transform="matrix(12.1,0,0,12.1,312.8,65.7)" />
<use xlink:href="#f1_21" transform="matrix(12.1,0,0,12.1,323.6,65.7)" />
<use xlink:href="#f2_2k" transform="matrix(7.1,0,0,7,333.6,44.7)" />
</g>
</g>
<text 
x="312" 
y="65" 
dx="0,1.5" 
class="s2_2"
>2e</text>

<g clip-path="url(#c2_2)">
<g fill="#000000" >
<use xlink:href="#f1_m" transform="matrix(7.1,0,0,7,333.6,60.1)" />
</g>
</g>
<text 
x="333" 
y="44" 
dx="0" 
class="s3_2"
>x</text>

<text 
x="333" 
y="60" 
dx="0" 
class="s4_2"
>2</text>

<path d="M332.5,48.5l6,0" class="g1_2" />
<g clip-path="url(#c2_2)">
<g fill="#000000" >
<use xlink:href="#f3_h" transform="matrix(12.1,0,0,12.1,342.1,65.7)" />
<use xlink:href="#f1_l" transform="matrix(12.1,0,0,12.1,353.6,65.7)" />
</g>
</g>
<text 
x="342" 
y="65" 
dx="0" 
class="s5_2"
></text>

<g clip-path="url(#c2_2)">
<g fill="#000000" >
<use xlink:href="#f3_39" transform="matrix(12.1,0,0,12.1,365.2,65.7)" />
</g>
</g>
<text 
x="353" 
y="65" 
dx="0" 
class="s2_2"
>1</text>

<g clip-path="url(#c2_2)">
<g fill="#000000" >
<use xlink:href="#f2_2k" transform="matrix(12.1,0,0,12.1,379.8,65.7)" />
</g>
</g>
<text 
x="365" 
y="65" 
dx="0" 
class="s5_2"
></text>

<g clip-path="url(#c2_2)">
<g fill="#000000" >
<use xlink:href="#f3_f" transform="matrix(12.1,0,0,12.1,392.1,65.7)" />
</g>
</g>
<text 
x="379" 
y="65" 
dx="0" 
class="s6_2"
>x</text>

<g clip-path="url(#c2_2)">
<g fill="#000000" >
<use xlink:href="#f1_l" transform="matrix(12.1,0,0,12.1,403.7,65.7)" />
</g>
</g>
<text 
x="392" 
y="65" 
dx="0" 
class="s5_2"
></text>

<g clip-path="url(#c0_2)">
<g fill="#000000" >
<use xlink:href="#f0_i" transform="matrix(12,0,0,12,413.4,66)" />
</g>
</g>
<text 
x="403" 
y="65" 
dx="0" 
class="s2_2"
>1</text>

<text 
x="413" 
y="65" 
dx="0,0" 
class="s1_2"
>. </text>

<g clip-path="url(#c0_2)">
<g fill="#000000" >
<use xlink:href="#f4_m" transform="matrix(12,0,0,12,59.1,108.1)" />
<use xlink:href="#f4_i" transform="matrix(12,0,0,12,68.3,108.1)" />
<use xlink:href="#f4_22" transform="matrix(12,0,0,12,72.9,108.1)" />
<use xlink:href="#f4_d" transform="matrix(12,0,0,12,79,108.1)" />
<use xlink:href="#f4_1f" transform="matrix(12,0,0,12,89.6,108.1)" />
<use xlink:href="#f4_2a" transform="matrix(12,0,0,12,102.8,108.1)" />
<use xlink:href="#f4_21" transform="matrix(12,0,0,12,116.6,108.1)" />
<use xlink:href="#f4_2a" transform="matrix(12,0,0,12,124.6,108.1)" />
<use xlink:href="#f4_20" transform="matrix(12,0,0,12,138.3,108.1)" />
<use xlink:href="#f4_35" transform="matrix(12,0,0,12,147.7,108.1)" />
<use xlink:href="#f4_20" transform="matrix(12,0,0,12,155.7,108.1)" />
<use xlink:href="#f4_2h" transform="matrix(12,0,0,12,164.9,108.1)" />
<use xlink:href="#f4_25" transform="matrix(12,0,0,12,174.1,108.1)" />
<use xlink:href="#f4_2g" transform="matrix(12,0,0,12,179.2,108.1)" />
<use xlink:href="#f4_2d" transform="matrix(12,0,0,12,188.9,108.1)" />
<use xlink:href="#f4_2h" transform="matrix(12,0,0,12,198.1,108.1)" />
<use xlink:href="#f4_21" transform="matrix(12,0,0,12,207.2,108.1)" />
<use xlink:href="#f4_4p" transform="matrix(12,0,0,12,219.9,108.1)" />
<use xlink:href="#f4_21" transform="matrix(12,0,0,12,235.7,108.1)" />
<use xlink:href="#f4_2f" transform="matrix(12,0,0,12,243.9,108.1)" />
<use xlink:href="#f4_2g" transform="matrix(12,0,0,12,251,108.1)" />
<use xlink:href="#f0_1x" transform="matrix(12,0,0,12,260.8,108.1)" />
</g>
</g>
<text 
x="59" 
y="108" 
dx="0,0,0,0,-0.1,0,0,0,0,-0.1,0,0,0.2,-0.1,0,0,0,0.1,0,0,0,-0.1,0,0,0,0.1,0,0" 
class="s7_2"
>2.f) On en déduit que ∆ est </text>

<g clip-path="url(#c0_2)">
<g fill="#000000" >
<use xlink:href="#f0_2h" transform="matrix(12,0,0,12,268.9,108.1)" />
<use xlink:href="#f0_h" transform="matrix(12,0,0,12,278.1,108.1)" />
<use xlink:href="#f0_20" transform="matrix(12,0,0,12,284.1,108.1)" />
<use xlink:href="#f0_21" transform="matrix(12,0,0,12,293.3,108.1)" />
<use xlink:href="#f0_2f" transform="matrix(12,0,0,12,301.4,108.1)" />
<use xlink:href="#f0_2f" transform="matrix(12,0,0,12,308.5,108.1)" />
<use xlink:href="#f0_2b" transform="matrix(12,0,0,12,315.6,108.1)" />
<use xlink:href="#f0_2h" transform="matrix(12,0,0,12,324.8,108.1)" />
<use xlink:href="#f0_2f" transform="matrix(12,0,0,12,334,108.1)" />
<use xlink:href="#f0_20" transform="matrix(12,0,0,12,345.7,108.1)" />
<use xlink:href="#f0_21" transform="matrix(12,0,0,12,354.9,108.1)" />
<use xlink:href="#f5_13" transform="matrix(12,0,0,12,367.6,108.1)" />
</g>
</g>
<text 
x="260" 
y="108" 
dx="0,-0.1,0,-0.1,0,-0.1,0,0,0,0,0.1,0,0,-0.1" 
class="s1_2"
>au-dessous de </text>

<g clip-path="url(#c0_2)">
<g fill="#000000" >
<use xlink:href="#f5_23" transform="matrix(8,0,0,8,379.9,109.6)" />
</g>
</g>
<text 
x="367" 
y="108" 
dx="0" 
class="s8_2"
>C</text>

<text 
x="379" 
y="109" 
dx="0" 
class="s9_2"
>g</text>

<g clip-path="url(#c0_2)">
<g fill="#000000" >
<use xlink:href="#f0_2f" transform="matrix(12,0,0,12,390.7,108.1)" />
<use xlink:href="#f0_1x" transform="matrix(12,0,0,12,397.8,108.1)" />
<use xlink:href="#f0_2h" transform="matrix(12,0,0,12,405.9,108.1)" />
<use xlink:href="#f0_22" transform="matrix(12,0,0,12,415.1,108.1)" />
<use xlink:href="#f0_2c" transform="matrix(12,0,0,12,425.9,108.1)" />
<use xlink:href="#f0_2b" transform="matrix(12,0,0,12,435,108.1)" />
<use xlink:href="#f0_2h" transform="matrix(12,0,0,12,444.2,108.1)" />
<use xlink:href="#f0_2e" transform="matrix(12,0,0,12,453.4,108.1)" />
<use xlink:href="#f5_2k" transform="matrix(12,0,0,12,464,108.1)" />
</g>
</g>
<text 
x="390" 
y="108" 
dx="0,0,-0.1,0,0,0.1,0,0,0,0" 
class="s1_2"
>sauf pour </text>

<text 
x="464" 
y="108" 
dx="0" 
class="s8_2"
>x</text>

<g clip-path="url(#c0_2)">
<g fill="#000000" >
<use xlink:href="#f0_x" transform="matrix(12,0,0,12,476.7,108.1)" />
<use xlink:href="#f0_k" transform="matrix(12,0,0,12,491.5,108.1)" />
<use xlink:href="#f0_2b" transform="matrix(12,0,0,12,505.3,108.1)" />
<use xlink:href="#f0_3k" transform="matrix(12,0,0,12,514.4,108.1)" />
<use xlink:href="#f0_21" transform="matrix(12,0,0,12,528.3,108.1)" />
<use xlink:href="#f0_28" transform="matrix(12,0,0,12,536.4,108.1)" />
<use xlink:href="#f0_28" transform="matrix(12,0,0,12,541.5,108.1)" />
<use xlink:href="#f0_21" transform="matrix(12,0,0,12,546.7,108.1)" />
<use xlink:href="#f0_21" transform="matrix(12,0,0,12,559.3,108.1)" />
<use xlink:href="#f0_2f" transform="matrix(12,0,0,12,567.4,108.1)" />
<use xlink:href="#f0_2g" transform="matrix(12,0,0,12,574.5,108.1)" />
<use xlink:href="#f0_2g" transform="matrix(12,0,0,12,584.2,108.1)" />
<use xlink:href="#f0_1x" transform="matrix(12,0,0,12,589.4,108.1)" />
<use xlink:href="#f0_2a" transform="matrix(12,0,0,12,597.4,108.1)" />
<use xlink:href="#f0_23" transform="matrix(12,0,0,12,606.7,108.1)" />
<use xlink:href="#f0_21" transform="matrix(12,0,0,12,615.7,108.1)" />
<use xlink:href="#f0_2a" transform="matrix(12,0,0,12,623.8,108.1)" />
<use xlink:href="#f0_2g" transform="matrix(12,0,0,12,633,108.1)" />
<use xlink:href="#f0_21" transform="matrix(12,0,0,12,638.3,108.1)" />
<use xlink:href="#f0_2z" transform="matrix(12,0,0,12,650.9,108.1)" />
<use xlink:href="#f5_13" transform="matrix(12,0,0,12,663.7,108.1)" />
</g>
</g>
<text 
x="476" 
y="108" 
dx="0,-0.1,0,0,0,0,0,0.2,-0.1,0,0.1,-0.1,0,-0.1,0,0,0,0.1,-0.1,0.2,-0.2,-0.1,0,0.2,-0.1,0,-0.1" 
class="s1_2"
>= 0 où elle est tangente à </text>

<g clip-path="url(#c0_2)">
<g fill="#000000" >
<use xlink:href="#f5_23" transform="matrix(8,0,0,8,676,109.6)" />
</g>
</g>
<text 
x="663" 
y="108" 
dx="0" 
class="s8_2"
>C</text>

<g clip-path="url(#c0_2)">
<g fill="#000000" >
<use xlink:href="#f0_i" transform="matrix(12,0,0,12,682.2,108.1)" />
</g>
</g>
<text 
x="675" 
y="109" 
dx="0" 
class="s9_2"
>g</text>

<g clip-path="url(#c0_2)">
<g fill="#000000" >
<use xlink:href="#f0_c" transform="matrix(12,0,0,12,5.1,129.2)" />
</g>
</g>
<text 
x="682" 
y="108" 
dx="0,0" 
class="s1_2"
>. </text>

<g clip-path="url(#c0_2)">
<g fill="#000000" >
<use xlink:href="#f0_1m" transform="matrix(12,0,0,12,11.2,129.2)" />
<use xlink:href="#f0_2b" transform="matrix(12,0,0,12,24.3,129.2)" />
<use xlink:href="#f0_25" transform="matrix(12,0,0,12,33.5,129.2)" />
<use xlink:href="#f0_2e" transform="matrix(12,0,0,12,38.6,129.2)" />
<use xlink:href="#f0_23" transform="matrix(12,0,0,12,49.4,129.2)" />
<use xlink:href="#f0_2e" transform="matrix(12,0,0,12,58.4,129.2)" />
<use xlink:href="#f0_1x" transform="matrix(12,0,0,12,64.5,129.2)" />
<use xlink:href="#f0_2c" transform="matrix(12,0,0,12,72.5,129.2)" />
<use xlink:href="#f0_24" transform="matrix(12,0,0,12,81.7,129.2)" />
<use xlink:href="#f0_21" transform="matrix(12,0,0,12,91,129.2)" />
<use xlink:href="#f0_1z" transform="matrix(12,0,0,12,103.6,129.2)" />
<use xlink:href="#f0_25" transform="matrix(12,0,0,12,111.7,129.2)" />
<use xlink:href="#f0_h" transform="matrix(12,0,0,12,116.9,129.2)" />
<use xlink:href="#f0_20" transform="matrix(12,0,0,12,122.9,129.2)" />
<use xlink:href="#f0_21" transform="matrix(12,0,0,12,132.3,129.2)" />
<use xlink:href="#f0_2f" transform="matrix(12,0,0,12,140.3,129.2)" />
<use xlink:href="#f0_2f" transform="matrix(12,0,0,12,147.5,129.2)" />
<use xlink:href="#f0_2b" transform="matrix(12,0,0,12,154.6,129.2)" />
<use xlink:href="#f0_2h" transform="matrix(12,0,0,12,163.8,129.2)" />
<use xlink:href="#f0_2f" transform="matrix(12,0,0,12,172.9,129.2)" />
<use xlink:href="#f0_d" transform="matrix(12,0,0,12,180.1,129.2)" />
<use xlink:href="#f0_i" transform="matrix(12,0,0,12,186.2,129.2)" />
</g>
</g>
<text 
x="5" 
y="129" 
dx="0,0,-0.1,0,0,0,0.1,-0.2,0,-0.1,0,0.2,-0.1,0,-0.1,0.1,-0.1,0.2,-0.1,0,0,0,0,0,0,0.2" 
class="s1_2"
>(Voir graphe ci-dessous). </text>

<g clip-path="url(#c0_2)">
<g fill="#000000" >
<use xlink:href="#f0_n" transform="matrix(12,0,0,12,5.1,171.4)" />
<use xlink:href="#f0_d" transform="matrix(12,0,0,12,14.2,171.4)" />
</g>
</g>
<text 
x="5" 
y="171" 
dx="0,0,-0.1" 
class="s1_2"
>3) </text>

<g clip-path="url(#c0_2)">
<g fill="#000000" >
<use xlink:href="#f0_n" transform="matrix(12,0,0,12,59.1,211.5)" />
<use xlink:href="#f0_i" transform="matrix(12,0,0,12,68.3,211.5)" />
<use xlink:href="#f0_1x" transform="matrix(12,0,0,12,72.9,211.5)" />
<use xlink:href="#f0_d" transform="matrix(12,0,0,12,80.9,211.5)" />
</g>
</g>
<text 
x="59" 
y="211" 
dx="0,0,0,-0.1,0" 
class="s1_2"
>3.a) </text>

<g clip-path="url(#c3_2)">
<g fill="#000000" >
<use xlink:href="#f1_21" transform="matrix(12,0,0,12,100.8,211.2)" />
<use xlink:href="#f2_2k" transform="matrix(7,0,0,7,111,190.4)" />
</g>
</g>
<text 
x="100" 
y="211" 
dx="0" 
class="s10_2"
>e</text>

<g clip-path="url(#c3_2)">
<g fill="#000000" >
<use xlink:href="#f1_m" transform="matrix(7,0,0,7,111,205.7)" />
</g>
</g>
<text 
x="111" 
y="190" 
dx="0" 
class="s11_2"
>x</text>

<text 
x="111" 
y="205" 
dx="0" 
class="s12_2"
>2</text>

<path d="M110.5,194.5l6,0" class="g1_2" />
<g clip-path="url(#c3_2)">
<g fill="#000000" >
<use xlink:href="#f3_h" transform="matrix(12,0,0,12,119.4,211.2)" />
<use xlink:href="#f1_l" transform="matrix(12,0,0,12,131,211.2)" />
</g>
</g>
<text 
x="119" 
y="211" 
dx="0" 
class="s13_2"
></text>

<g clip-path="url(#c3_2)">
<g fill="#000000" >
<use xlink:href="#f3_4o" transform="matrix(12,0,0,12,93.3,194.4)" />
</g>
</g>
<text 
x="130" 
y="211" 
dx="0" 
class="s10_2"
>1</text>

<g clip-path="url(#c3_2)">
<g fill="#000000" >
<use xlink:href="#f3_4q" transform="matrix(12,0,0,12,93.3,226.9)" />
</g>
</g>
<text 
x="93" 
y="194" 
dx="0" 
class="s13_2"
></text>

<g clip-path="url(#c3_2)">
<g fill="#000000" >
<use xlink:href="#f3_4p" transform="matrix(12,0,0,12,93.3,212.8)" />
</g>
</g>
<text 
x="93" 
y="226" 
dx="0" 
class="s13_2"
></text>

<g clip-path="url(#c3_2)">
<g fill="#000000" >
<use xlink:href="#f3_54" transform="matrix(12,0,0,12,138.5,194.4)" />
</g>
</g>
<text 
x="93" 
y="212" 
dx="0" 
class="s13_2"
></text>

<g clip-path="url(#c3_2)">
<g fill="#000000" >
<use xlink:href="#f3_56" transform="matrix(12,0,0,12,138.5,226.9)" />
</g>
</g>
<text 
x="138" 
y="194" 
dx="0" 
class="s13_2"
></text>

<g clip-path="url(#c3_2)">
<g fill="#000000" >
<use xlink:href="#f3_55" transform="matrix(12,0,0,12,138.5,212.8)" />
</g>
</g>
<text 
x="138" 
y="226" 
dx="0" 
class="s13_2"
></text>

<g clip-path="url(#c3_2)">
<g fill="#000000" >
<use xlink:href="#f1_m" transform="matrix(7,0,0,7,146.1,185.8)" />
</g>
</g>
<text 
x="138" 
y="212" 
dx="0" 
class="s13_2"
></text>

<g clip-path="url(#c3_2)">
<g fill="#000000" >
<use xlink:href="#f3_x" transform="matrix(12,0,0,12,157.7,211.2)" />
</g>
</g>
<text 
x="146" 
y="185" 
dx="0" 
class="s12_2"
>2</text>

<g clip-path="url(#c3_2)">
<g fill="#000000" >
<use xlink:href="#f1_21" transform="matrix(12,0,0,12,171.5,211.2)" />
</g>
</g>
<text 
x="157" 
y="211" 
dx="0" 
class="s13_2"
></text>

<g clip-path="url(#c3_2)">
<g fill="#000000" >
<use xlink:href="#f2_2k" transform="matrix(7,0,0,7,180.7,203)" />
</g>
</g>
<text 
x="171" 
y="211" 
dx="0" 
class="s10_2"
>e</text>

<g clip-path="url(#c3_2)">
<g fill="#000000" >
<use xlink:href="#f3_h" transform="matrix(12,0,0,12,188.4,211.2)" />
</g>
</g>
<text 
x="180" 
y="203" 
dx="0" 
class="s11_2"
>x</text>

<g clip-path="url(#c3_2)">
<g fill="#000000" >
<use xlink:href="#f1_m" transform="matrix(12,0,0,12,201.4,211.2)" />
</g>
</g>
<text 
x="188" 
y="211" 
dx="0" 
class="s13_2"
></text>

<g clip-path="url(#c3_2)">
<g fill="#000000" >
<use xlink:href="#f1_21" transform="matrix(12,0,0,12,212.2,211.2)" />
<use xlink:href="#f2_2k" transform="matrix(7,0,0,7,222.1,190.4)" />
</g>
</g>
<text 
x="201" 
y="211" 
dx="0,1.5" 
class="s10_2"
>2e</text>

<g clip-path="url(#c3_2)">
<g fill="#000000" >
<use xlink:href="#f1_m" transform="matrix(7,0,0,7,222.1,205.7)" />
</g>
</g>
<text 
x="222" 
y="190" 
dx="0" 
class="s11_2"
>x</text>

<text 
x="222" 
y="205" 
dx="0" 
class="s12_2"
>2</text>

<path d="M221.5,194.5l6,0" class="g1_2" />
<g clip-path="url(#c3_2)">
<g fill="#000000" >
<use xlink:href="#f3_f" transform="matrix(12,0,0,12,229.9,211.2)" />
<use xlink:href="#f1_l" transform="matrix(12,0,0,12,241.4,211.2)" />
</g>
</g>
<text 
x="229" 
y="211" 
dx="0" 
class="s13_2"
></text>

<text 
x="241" 
y="211" 
dx="0" 
class="s10_2"
>1</text>

<g clip-path="url(#c0_2)">
<g fill="#000000" >
<use xlink:href="#f0_n" transform="matrix(12,0,0,12,59.1,270.6)" />
<use xlink:href="#f0_i" transform="matrix(12,0,0,12,68.3,270.6)" />
<use xlink:href="#f0_1y" transform="matrix(12,0,0,12,72.9,270.6)" />
<use xlink:href="#f0_d" transform="matrix(12,0,0,12,82,270.6)" />
<use xlink:href="#f0_1f" transform="matrix(12,0,0,12,92.7,270.6)" />
<use xlink:href="#f0_2a" transform="matrix(12,0,0,12,105.9,270.6)" />
<use xlink:href="#f0_2e" transform="matrix(12,0,0,12,119.6,270.6)" />
<use xlink:href="#f0_21" transform="matrix(12,0,0,12,125.7,270.6)" />
<use xlink:href="#f0_29" transform="matrix(12,0,0,12,133.7,270.6)" />
<use xlink:href="#f0_1x" transform="matrix(12,0,0,12,148,270.6)" />
<use xlink:href="#f0_2e" transform="matrix(12,0,0,12,156.3,270.6)" />
<use xlink:href="#f0_2d" transform="matrix(12,0,0,12,162.4,270.6)" />
<use xlink:href="#f0_2h" transform="matrix(12,0,0,12,171.6,270.6)" />
<use xlink:href="#f0_21" transform="matrix(12,0,0,12,180.7,270.6)" />
<use xlink:href="#f0_2d" transform="matrix(12,0,0,12,193.3,270.6)" />
<use xlink:href="#f0_2h" transform="matrix(12,0,0,12,202.5,270.6)" />
<use xlink:href="#f0_21" transform="matrix(12,0,0,12,211.8,270.6)" />
<use xlink:href="#f0_28" transform="matrix(12,0,0,12,224.5,270.6)" />
<use xlink:href="#f0_b" transform="matrix(12,0,0,12,229.6,270.6)" />
<use xlink:href="#f0_21" transform="matrix(12,0,0,12,232.9,270.6)" />
<use xlink:href="#f0_2k" transform="matrix(12,0,0,12,241.1,270.6)" />
<use xlink:href="#f0_2c" transform="matrix(12,0,0,12,250.5,270.6)" />
<use xlink:href="#f0_2e" transform="matrix(12,0,0,12,259.6,270.6)" />
<use xlink:href="#f0_21" transform="matrix(12,0,0,12,265.7,270.6)" />
<use xlink:href="#f0_2f" transform="matrix(12,0,0,12,273.7,270.6)" />
<use xlink:href="#f0_2f" transform="matrix(12,0,0,12,280.9,270.6)" />
<use xlink:href="#f0_25" transform="matrix(12,0,0,12,288,270.6)" />
<use xlink:href="#f0_2b" transform="matrix(12,0,0,12,293.2,270.6)" />
<use xlink:href="#f0_2a" transform="matrix(12,0,0,12,302.3,270.6)" />
<use xlink:href="#f0_1z" transform="matrix(12,0,0,12,316.1,270.6)" />
<use xlink:href="#f0_25" transform="matrix(12,0,0,12,324.1,270.6)" />
<use xlink:href="#f0_h" transform="matrix(12,0,0,12,329.4,270.6)" />
<use xlink:href="#f0_20" transform="matrix(12,0,0,12,335.5,270.6)" />
<use xlink:href="#f0_21" transform="matrix(12,0,0,12,344.6,270.6)" />
<use xlink:href="#f0_2f" transform="matrix(12,0,0,12,352.7,270.6)" />
<use xlink:href="#f0_2f" transform="matrix(12,0,0,12,359.8,270.6)" />
<use xlink:href="#f0_2h" transform="matrix(12,0,0,12,367,270.6)" />
<use xlink:href="#f0_2f" transform="matrix(12,0,0,12,376.1,270.6)" />
<use xlink:href="#f0_21" transform="matrix(12,0,0,12,387.8,270.6)" />
<use xlink:href="#f0_2f" transform="matrix(12,0,0,12,396,270.6)" />
<use xlink:href="#f0_2g" transform="matrix(12,0,0,12,403.1,270.6)" />
<use xlink:href="#f0_35" transform="matrix(12,0,0,12,412.8,270.6)" />
<use xlink:href="#f0_23" transform="matrix(12,0,0,12,420.9,270.6)" />
<use xlink:href="#f0_1x" transform="matrix(12,0,0,12,429.9,270.6)" />
<use xlink:href="#f0_28" transform="matrix(12,0,0,12,437.9,270.6)" />
<use xlink:href="#f0_21" transform="matrix(12,0,0,12,443.2,270.6)" />
<use xlink:href="#f0_2z" transform="matrix(12,0,0,12,455.9,270.6)" />
<use xlink:href="#f5_22" transform="matrix(12,0,0,12,468.6,270.6)" />
</g>
</g>
<text 
x="59" 
y="270" 
dx="0,0,0,0,0,0,-0.1,0,0,0,-0.1,0,0.1,0,0,0,-0.1,0,0,0.2,-0.1,0,0,0,0.1,0.2,0,0,-0.1,0,0,0.1,0,0,0,-0.1,0.2,-0.1,0,-0.1,0,0,0,0,0,0,0,0,0,0,-0.2,-0.1,0.2,-0.1,0,-0.1" 
class="s1_2"
>3.b) On remarque que l'expression ci-dessus est égale à </text>

<g clip-path="url(#c0_2)">
<g fill="#000000" >
<use xlink:href="#f0_c" transform="matrix(12,0,0,12,473.7,270.6)" />
</g>
</g>
<text 
x="468" 
y="270" 
dx="0" 
class="s8_2"
>f</text>

<g clip-path="url(#c0_2)">
<g fill="#000000" >
<use xlink:href="#f5_2k" transform="matrix(12,0,0,12,479.8,270.6)" />
</g>
</g>
<text 
x="473" 
y="270" 
dx="0" 
class="s1_2"
>(</text>

<g clip-path="url(#c0_2)">
<g fill="#000000" >
<use xlink:href="#f0_d" transform="matrix(12,0,0,12,488,270.6)" />
</g>
</g>
<text 
x="479" 
y="270" 
dx="0" 
class="s8_2"
>x</text>

<g clip-path="url(#c0_2)">
<g fill="#000000" >
<use xlink:href="#f4_4y" transform="matrix(12,0,0,12,498.7,270.6)" />
</g>
</g>
<text 
x="488" 
y="270" 
dx="0,-0.1" 
class="s1_2"
>) </text>

<text 
x="498" 
y="270" 
dx="0" 
class="s7_2"
>–</text>

<g clip-path="url(#c0_2)">
<g fill="#000000" >
<use xlink:href="#f5_23" transform="matrix(12,0,0,12,512.4,270.6)" />
<use xlink:href="#f0_c" transform="matrix(12,0,0,12,521.6,270.6)" />
</g>
</g>
<text 
x="512" 
y="270" 
dx="0" 
class="s8_2"
>g</text>

<g clip-path="url(#c0_2)">
<g fill="#000000" >
<use xlink:href="#f5_2k" transform="matrix(12,0,0,12,527.6,270.6)" />
</g>
</g>
<text 
x="521" 
y="270" 
dx="0" 
class="s1_2"
>(</text>

<g clip-path="url(#c0_2)">
<g fill="#000000" >
<use xlink:href="#f0_d" transform="matrix(12,0,0,12,535.9,270.6)" />
</g>
</g>
<text 
x="527" 
y="270" 
dx="0" 
class="s8_2"
>x</text>

<g clip-path="url(#c0_2)">
<g fill="#000000" >
<use xlink:href="#f0_i" transform="matrix(12,0,0,12,542,270.6)" />
<use xlink:href="#f0_14" transform="matrix(12,0,0,12,551.1,270.6)" />
<use xlink:href="#f0_21" transform="matrix(12,0,0,12,564.3,270.6)" />
<use xlink:href="#f0_2c" transform="matrix(12,0,0,12,576.9,270.6)" />
<use xlink:href="#f0_28" transform="matrix(12,0,0,12,586.1,270.6)" />
<use xlink:href="#f0_2h" transform="matrix(12,0,0,12,591.2,270.6)" />
<use xlink:href="#f0_2f" transform="matrix(12,0,0,12,600.4,270.6)" />
<use xlink:href="#f0_g" transform="matrix(12,0,0,12,607.7,270.6)" />
<use xlink:href="#f0_35" transform="matrix(12,0,0,12,616.9,270.6)" />
<use xlink:href="#f0_2g" transform="matrix(12,0,0,12,625,270.6)" />
<use xlink:href="#f0_1x" transform="matrix(12,0,0,12,630.1,270.6)" />
<use xlink:href="#f0_2a" transform="matrix(12,0,0,12,638.2,270.6)" />
<use xlink:href="#f0_2g" transform="matrix(12,0,0,12,647.4,270.6)" />
<use xlink:href="#f0_2h" transform="matrix(12,0,0,12,657,270.6)" />
<use xlink:href="#f0_2a" transform="matrix(12,0,0,12,666.2,270.6)" />
<use xlink:href="#f0_1z" transform="matrix(12,0,0,12,5.1,292.2)" />
</g>
</g>
<text 
x="535" 
y="270" 
dx="0,0,0,0,-0.1,-0.1,0,0,0,0,0.2,0,0,-0.1,0,0,0,0,0,0,0" 
class="s1_2"
>). De plus, étant un </text>

<g clip-path="url(#c0_2)">
<g fill="#000000" >
<use xlink:href="#f0_1x" transform="matrix(12,0,0,12,13.1,292.2)" />
<use xlink:href="#f0_2e" transform="matrix(12,0,0,12,21.2,292.2)" />
<use xlink:href="#f0_2e" transform="matrix(12,0,0,12,27.3,292.2)" />
<use xlink:href="#f0_35" transform="matrix(12,0,0,12,33.5,292.2)" />
<use xlink:href="#f0_2d" transform="matrix(12,0,0,12,46.1,292.2)" />
<use xlink:href="#f0_2h" transform="matrix(12,0,0,12,55.3,292.2)" />
<use xlink:href="#f0_25" transform="matrix(12,0,0,12,64.4,292.2)" />
<use xlink:href="#f0_2f" transform="matrix(12,0,0,12,74.1,292.2)" />
<use xlink:href="#f0_b" transform="matrix(12,0,0,12,81.5,292.2)" />
<use xlink:href="#f0_1x" transform="matrix(12,0,0,12,84.6,292.2)" />
<use xlink:href="#f0_2a" transform="matrix(12,0,0,12,92.6,292.2)" />
<use xlink:href="#f0_2a" transform="matrix(12,0,0,12,101.8,292.2)" />
<use xlink:href="#f0_2h" transform="matrix(12,0,0,12,111,292.2)" />
<use xlink:href="#f0_28" transform="matrix(12,0,0,12,120.1,292.2)" />
<use xlink:href="#f0_21" transform="matrix(12,0,0,12,125.2,292.2)" />
<use xlink:href="#f0_2c" transform="matrix(12,0,0,12,138,292.2)" />
<use xlink:href="#f0_2b" transform="matrix(12,0,0,12,147.1,292.2)" />
<use xlink:href="#f0_2h" transform="matrix(12,0,0,12,156.3,292.2)" />
<use xlink:href="#f0_2e" transform="matrix(12,0,0,12,165.5,292.2)" />
<use xlink:href="#f5_2k" transform="matrix(12,0,0,12,176.3,292.2)" />
</g>
</g>
<text 
x="5" 
y="292" 
dx="0,-0.1,-0.1,0,0.1,-0.1,0,0,0,0,0,0.2,-0.2,-0.1,0,0,0,0,0,0,0,0,0,-0.1" 
class="s1_2"
>carré qui s'annule pour </text>

<text 
x="176" 
y="292" 
dx="0" 
class="s8_2"
>x</text>

<g clip-path="url(#c0_2)">
<g fill="#000000" >
<use xlink:href="#f4_x" transform="matrix(12,0,0,12,189.2,292.2)" />
<use xlink:href="#f4_k" transform="matrix(12,0,0,12,204,292.2)" />
<use xlink:href="#f4_g" transform="matrix(12,0,0,12,213.2,292.2)" />
<use xlink:href="#f4_21" transform="matrix(12,0,0,12,222.3,292.2)" />
<use xlink:href="#f4_28" transform="matrix(12,0,0,12,230.4,292.2)" />
<use xlink:href="#f4_28" transform="matrix(12,0,0,12,235.5,292.2)" />
<use xlink:href="#f4_21" transform="matrix(12,0,0,12,240.7,292.2)" />
<use xlink:href="#f4_21" transform="matrix(12,0,0,12,253.3,292.2)" />
<use xlink:href="#f4_2f" transform="matrix(12,0,0,12,261.4,292.2)" />
<use xlink:href="#f4_2g" transform="matrix(12,0,0,12,268.5,292.2)" />
<use xlink:href="#f4_46" transform="matrix(12,0,0,12,278.2,292.2)" />
<use xlink:href="#f4_k" transform="matrix(12,0,0,12,292.9,292.2)" />
<use xlink:href="#f4_2f" transform="matrix(12,0,0,12,306.6,292.2)" />
<use xlink:href="#f4_2h" transform="matrix(12,0,0,12,313.8,292.2)" />
<use xlink:href="#f4_2e" transform="matrix(12,0,0,12,322.9,292.2)" />
<use xlink:href="#f6_116" transform="matrix(12,0,0,12,333.8,292.2)" />
</g>
</g>
<text 
x="189" 
y="292" 
dx="0,-0.1,0,0,0,0,-0.1,0,0.1,-0.1,0,-0.1,0,0,0,0.1,0,0,0,0,0,0" 
class="s7_2"
>= 0, elle est ≥ 0 sur </text>

<g clip-path="url(#c0_2)">
<g fill="#000000" >
<use xlink:href="#f0_i" transform="matrix(12,0,0,12,347.4,292.2)" />
</g>
</g>
<text 
x="333" 
y="292" 
dx="0" 
class="s14_2"
>ℝ</text>

<g clip-path="url(#c0_2)">
<g fill="#000000" >
<use xlink:href="#f0_14" transform="matrix(12,0,0,12,356.5,292.2)" />
<use xlink:href="#f0_b" transform="matrix(12,0,0,12,369.8,292.2)" />
<use xlink:href="#f0_2b" transform="matrix(12,0,0,12,372.9,292.2)" />
<use xlink:href="#f0_3k" transform="matrix(12,0,0,12,382.2,292.2)" />
<use xlink:href="#f0_28" transform="matrix(12,0,0,12,395.9,292.2)" />
<use xlink:href="#f0_b" transform="matrix(12,0,0,12,401,292.2)" />
<use xlink:href="#f0_2b" transform="matrix(12,0,0,12,404.2,292.2)" />
<use xlink:href="#f0_2a" transform="matrix(12,0,0,12,413.4,292.2)" />
<use xlink:href="#f0_20" transform="matrix(12,0,0,12,427.1,292.2)" />
<use xlink:href="#f0_35" transform="matrix(12,0,0,12,436.3,292.2)" />
<use xlink:href="#f0_20" transform="matrix(12,0,0,12,444.3,292.2)" />
<use xlink:href="#f0_2h" transform="matrix(12,0,0,12,453.5,292.2)" />
<use xlink:href="#f0_25" transform="matrix(12,0,0,12,462.7,292.2)" />
<use xlink:href="#f0_2g" transform="matrix(12,0,0,12,467.8,292.2)" />
<use xlink:href="#f0_2d" transform="matrix(12,0,0,12,477.5,292.2)" />
<use xlink:href="#f0_2h" transform="matrix(12,0,0,12,486.7,292.2)" />
<use xlink:href="#f0_21" transform="matrix(12,0,0,12,495.8,292.2)" />
<use xlink:href="#f0_u" transform="matrix(12,0,0,12,508.5,292.2)" />
<use xlink:href="#f5_22" transform="matrix(12,0,0,12,5.1,314.6)" />
</g>
</g>
<text 
x="347" 
y="292" 
dx="0,0,0,0,-0.2,0.2,0,0,0,-0.1,0,0,0,0,-0.1,0,0,0,0.1,0,0,0,-0.1,0,0.3" 
class="s1_2"
>. D'où l'on déduit que : </text>

<g clip-path="url(#c0_2)">
<g fill="#000000" >
<use xlink:href="#f0_c" transform="matrix(12,0,0,12,10.2,314.6)" />
</g>
</g>
<text 
x="5" 
y="314" 
dx="0" 
class="s8_2"
>f</text>

<g clip-path="url(#c0_2)">
<g fill="#000000" >
<use xlink:href="#f5_2k" transform="matrix(12,0,0,12,16.2,314.6)" />
</g>
</g>
<text 
x="10" 
y="314" 
dx="0" 
class="s1_2"
>(</text>

<g clip-path="url(#c0_2)">
<g fill="#000000" >
<use xlink:href="#f4_d" transform="matrix(12,0,0,12,24.3,314.6)" />
</g>
</g>
<text 
x="16" 
y="314" 
dx="0" 
class="s8_2"
>x</text>

<g clip-path="url(#c0_2)">
<g fill="#000000" >
<use xlink:href="#f4_46" transform="matrix(12,0,0,12,35,314.6)" />
<use xlink:href="#f5_23" transform="matrix(12,0,0,12,49.6,314.6)" />
</g>
</g>
<text 
x="24" 
y="314" 
dx="0,0,0,0" 
class="s7_2"
>) ≥ </text>

<g clip-path="url(#c0_2)">
<g fill="#000000" >
<use xlink:href="#f0_c" transform="matrix(12,0,0,12,58.8,314.6)" />
</g>
</g>
<text 
x="49" 
y="314" 
dx="0" 
class="s8_2"
>g</text>

<g clip-path="url(#c0_2)">
<g fill="#000000" >
<use xlink:href="#f5_2k" transform="matrix(12,0,0,12,64.8,314.6)" />
</g>
</g>
<text 
x="58" 
y="314" 
dx="0" 
class="s1_2"
>(</text>

<g clip-path="url(#c0_2)">
<g fill="#000000" >
<use xlink:href="#f0_d" transform="matrix(12,0,0,12,73.1,314.6)" />
</g>
</g>
<text 
x="64" 
y="314" 
dx="0" 
class="s8_2"
>x</text>

<g clip-path="url(#c0_2)">
<g fill="#000000" >
<use xlink:href="#f0_2c" transform="matrix(12,0,0,12,83.8,314.6)" />
<use xlink:href="#f0_2b" transform="matrix(12,0,0,12,92.9,314.6)" />
<use xlink:href="#f0_2h" transform="matrix(12,0,0,12,102.1,314.6)" />
<use xlink:href="#f0_2e" transform="matrix(12,0,0,12,111.2,314.6)" />
<use xlink:href="#f0_2g" transform="matrix(12,0,0,12,121.9,314.6)" />
<use xlink:href="#f0_2b" transform="matrix(12,0,0,12,127,314.6)" />
<use xlink:href="#f0_2h" transform="matrix(12,0,0,12,136.1,314.6)" />
<use xlink:href="#f0_2g" transform="matrix(12,0,0,12,145.3,314.6)" />
<use xlink:href="#f5_2k" transform="matrix(12,0,0,12,155,314.6)" />
</g>
</g>
<text 
x="73" 
y="314" 
dx="0,0,0,0,0,-0.1,0,0,0,0,0,0" 
class="s1_2"
>) pour tout </text>

<g clip-path="url(#c0_2)">
<g fill="#000000" >
<use xlink:href="#f3_40" transform="matrix(12,0,0,12,167.8,314.6)" />
</g>
</g>
<text 
x="155" 
y="314" 
dx="0,-0.1" 
class="s8_2"
>x </text>

<text 
x="167" 
y="314" 
dx="0" 
class="s15_2"
></text>

<g clip-path="url(#c0_2)">
<g fill="#000000" >
<use xlink:href="#f6_116" transform="matrix(12,0,0,12,185.5,314.6)" />
<use xlink:href="#f0_g" transform="matrix(12,0,0,12,199.1,314.6)" />
</g>
</g>
<text 
x="185" 
y="314" 
dx="0" 
class="s14_2"
>ℝ</text>

<g clip-path="url(#c0_2)">
<g fill="#000000" >
<use xlink:href="#f0_21" transform="matrix(12,0,0,12,208.2,314.6)" />
<use xlink:href="#f0_2g" transform="matrix(12,0,0,12,216.3,314.6)" />
<use xlink:href="#f5_13" transform="matrix(12,0,0,12,226,314.6)" />
</g>
</g>
<text 
x="199" 
y="314" 
dx="0,0,0,-0.1,0" 
class="s1_2"
>, et </text>

<g clip-path="url(#c0_2)">
<g fill="#000000" >
<use xlink:href="#f5_22" transform="matrix(8,0,0,8,238.3,316)" />
</g>
</g>
<text 
x="226" 
y="314" 
dx="0" 
class="s8_2"
>C</text>

<text 
x="238" 
y="316" 
dx="0" 
class="s9_2"
>f</text>

<g clip-path="url(#c0_2)">
<g fill="#000000" >
<use xlink:href="#f0_21" transform="matrix(12,0,0,12,246.4,314.6)" />
<use xlink:href="#f0_2f" transform="matrix(12,0,0,12,254.4,314.6)" />
<use xlink:href="#f0_2g" transform="matrix(12,0,0,12,261.6,314.6)" />
<use xlink:href="#f0_1x" transform="matrix(12,0,0,12,271.3,314.6)" />
<use xlink:href="#f0_2h" transform="matrix(12,0,0,12,279.4,314.6)" />
<use xlink:href="#f0_h" transform="matrix(12,0,0,12,288.5,314.6)" />
<use xlink:href="#f0_20" transform="matrix(12,0,0,12,294.6,314.6)" />
<use xlink:href="#f0_21" transform="matrix(12,0,0,12,303.7,314.6)" />
<use xlink:href="#f0_2f" transform="matrix(12,0,0,12,311.8,314.6)" />
<use xlink:href="#f0_2f" transform="matrix(12,0,0,12,318.9,314.6)" />
<use xlink:href="#f0_2h" transform="matrix(12,0,0,12,326.1,314.6)" />
<use xlink:href="#f0_2f" transform="matrix(12,0,0,12,335.2,314.6)" />
<use xlink:href="#f0_20" transform="matrix(12,0,0,12,347,314.6)" />
<use xlink:href="#f0_21" transform="matrix(12,0,0,12,356.2,314.6)" />
<use xlink:href="#f5_13" transform="matrix(12,0,0,12,368.9,314.6)" />
</g>
</g>
<text 
x="246" 
y="314" 
dx="0,-0.1,0,0,0.1,-0.1,0,-0.1,0,-0.1,0,0,0,0.1,0,0,-0.1" 
class="s1_2"
>est au-dessus de </text>

<g clip-path="url(#c0_2)">
<g fill="#000000" >
<use xlink:href="#f5_23" transform="matrix(8,0,0,8,381.1,316)" />
</g>
</g>
<text 
x="368" 
y="314" 
dx="0" 
class="s8_2"
>C</text>

<text 
x="381" 
y="316" 
dx="0" 
class="s9_2"
>g</text>

<g clip-path="url(#c0_2)">
<g fill="#000000" >
<use xlink:href="#f0_2f" transform="matrix(12,0,0,12,392,314.6)" />
<use xlink:href="#f0_1x" transform="matrix(12,0,0,12,399.1,314.6)" />
<use xlink:href="#f0_2h" transform="matrix(12,0,0,12,407.2,314.6)" />
<use xlink:href="#f0_22" transform="matrix(12,0,0,12,416.3,314.6)" />
<use xlink:href="#f0_2c" transform="matrix(12,0,0,12,427,314.6)" />
<use xlink:href="#f0_2b" transform="matrix(12,0,0,12,436.2,314.6)" />
<use xlink:href="#f0_2h" transform="matrix(12,0,0,12,445.3,314.6)" />
<use xlink:href="#f0_2e" transform="matrix(12,0,0,12,454.5,314.6)" />
<use xlink:href="#f5_2k" transform="matrix(12,0,0,12,465.1,314.6)" />
</g>
</g>
<text 
x="391" 
y="314" 
dx="0,0,-0.1,0,0,0,0,-0.1,0,0" 
class="s1_2"
>sauf pour </text>

<text 
x="465" 
y="314" 
dx="0" 
class="s8_2"
>x</text>

<g clip-path="url(#c0_2)">
<g fill="#000000" >
<use xlink:href="#f0_x" transform="matrix(12,0,0,12,477.9,314.6)" />
<use xlink:href="#f0_k" transform="matrix(12,0,0,12,492.8,314.6)" />
<use xlink:href="#f0_2b" transform="matrix(12,0,0,12,506.5,314.6)" />
<use xlink:href="#f0_3k" transform="matrix(12,0,0,12,515.7,314.6)" />
<use xlink:href="#f0_28" transform="matrix(12,0,0,12,529.5,314.6)" />
<use xlink:href="#f0_21" transform="matrix(12,0,0,12,534.6,314.6)" />
<use xlink:href="#f0_2f" transform="matrix(12,0,0,12,542.7,314.6)" />
<use xlink:href="#f0_20" transform="matrix(12,0,0,12,554.4,314.6)" />
<use xlink:href="#f0_21" transform="matrix(12,0,0,12,563.6,314.6)" />
<use xlink:href="#f0_2h" transform="matrix(12,0,0,12,571.8,314.6)" />
<use xlink:href="#f0_2k" transform="matrix(12,0,0,12,581,314.6)" />
<use xlink:href="#f0_1z" transform="matrix(12,0,0,12,594.9,314.6)" />
<use xlink:href="#f0_2b" transform="matrix(12,0,0,12,602.9,314.6)" />
<use xlink:href="#f0_2h" transform="matrix(12,0,0,12,612.1,314.6)" />
<use xlink:href="#f0_2e" transform="matrix(12,0,0,12,621.3,314.6)" />
<use xlink:href="#f0_1y" transform="matrix(12,0,0,12,627.4,314.6)" />
<use xlink:href="#f0_21" transform="matrix(12,0,0,12,636.5,314.6)" />
<use xlink:href="#f0_2f" transform="matrix(12,0,0,12,644.6,314.6)" />
<use xlink:href="#f0_2f" transform="matrix(12,0,0,12,656.3,314.6)" />
<use xlink:href="#f0_2b" transform="matrix(12,0,0,12,663.4,314.6)" />
<use xlink:href="#f0_2a" transform="matrix(12,0,0,12,672.6,314.6)" />
<use xlink:href="#f0_2g" transform="matrix(12,0,0,12,681.7,314.6)" />
<use xlink:href="#f0_2g" transform="matrix(12,0,0,12,5.1,335.7)" />
</g>
</g>
<text 
x="477" 
y="314" 
dx="0,-0.1,0,0,0,0,0,0,0,0,0,0,0,0.1,0,0.2,0,-0.1,0,0,0,0,-0.1,0,0,0,0,0,0.1" 
class="s1_2"
>= 0 où les deux courbes sont </text>

<g clip-path="url(#c0_2)">
<g fill="#000000" >
<use xlink:href="#f0_1x" transform="matrix(12,0,0,12,10.1,335.7)" />
<use xlink:href="#f0_2a" transform="matrix(12,0,0,12,18.3,335.7)" />
<use xlink:href="#f0_23" transform="matrix(12,0,0,12,27.5,335.7)" />
<use xlink:href="#f0_21" transform="matrix(12,0,0,12,36.6,335.7)" />
<use xlink:href="#f0_2a" transform="matrix(12,0,0,12,44.7,335.7)" />
<use xlink:href="#f0_2g" transform="matrix(12,0,0,12,53.8,335.7)" />
<use xlink:href="#f0_21" transform="matrix(12,0,0,12,58.9,335.7)" />
<use xlink:href="#f0_2f" transform="matrix(12,0,0,12,67.1,335.7)" />
<use xlink:href="#f0_i" transform="matrix(12,0,0,12,74.2,335.7)" />
<use xlink:href="#f0_c" transform="matrix(12,0,0,12,83.4,335.7)" />
<use xlink:href="#f0_1m" transform="matrix(12,0,0,12,89.4,335.7)" />
<use xlink:href="#f0_2b" transform="matrix(12,0,0,12,102.6,335.7)" />
<use xlink:href="#f0_25" transform="matrix(12,0,0,12,111.8,335.7)" />
<use xlink:href="#f0_2e" transform="matrix(12,0,0,12,116.9,335.7)" />
<use xlink:href="#f0_23" transform="matrix(12,0,0,12,127.7,335.7)" />
<use xlink:href="#f0_2e" transform="matrix(12,0,0,12,136.9,335.7)" />
<use xlink:href="#f0_1x" transform="matrix(12,0,0,12,143,335.7)" />
<use xlink:href="#f0_2c" transform="matrix(12,0,0,12,151,335.7)" />
<use xlink:href="#f0_24" transform="matrix(12,0,0,12,160.1,335.7)" />
<use xlink:href="#f0_21" transform="matrix(12,0,0,12,169.3,335.7)" />
<use xlink:href="#f0_1z" transform="matrix(12,0,0,12,182.1,335.7)" />
<use xlink:href="#f0_25" transform="matrix(12,0,0,12,190.3,335.7)" />
<use xlink:href="#f0_h" transform="matrix(12,0,0,12,195.6,335.7)" />
<use xlink:href="#f0_20" transform="matrix(12,0,0,12,201.6,335.7)" />
<use xlink:href="#f0_21" transform="matrix(12,0,0,12,210.8,335.7)" />
<use xlink:href="#f0_2f" transform="matrix(12,0,0,12,218.9,335.7)" />
<use xlink:href="#f0_2f" transform="matrix(12,0,0,12,226,335.7)" />
<use xlink:href="#f0_2b" transform="matrix(12,0,0,12,233.1,335.7)" />
<use xlink:href="#f0_2h" transform="matrix(12,0,0,12,242.3,335.7)" />
<use xlink:href="#f0_2f" transform="matrix(12,0,0,12,251.5,335.7)" />
<use xlink:href="#f0_d" transform="matrix(12,0,0,12,258.6,335.7)" />
<use xlink:href="#f0_i" transform="matrix(12,0,0,12,264.7,335.7)" />
</g>
</g>
<text 
x="5" 
y="335" 
dx="0,0,0,0,0,-0.1,0,0,0,0,0,0,-0.1,0,0,0,0,0.1,0,0,-0.1,0,0,-0.1,0.2,0.1,0.1,-0.1,0,-0.1,0,0,0,0,0,0,0.1" 
class="s1_2"
>tangentes. (Voir graphe ci-dessous). </text>

<path fill-rule="evenodd" d="M60,743l550,0l0,-351L60,392l0,351Z" class="g2_2" />
<path fill-rule="evenodd" d="M83,726l434,0l0,-317L83,409l0,317Z" class="g2_2" />
<path d="M83,726l434,0M83,681l434,0M83,635l434,0M83,545l434,0M83,500l434,0M83,454l434,0M83,409l434,0" class="g3_2" />
<path d="M344,726l0,-317" class="g3_2" />
<path d="M339,726l5,0m-5,-45l5,0m-5,-46l5,0m-5,-45l5,0m-5,-45l5,0m-5,-45l5,0m-5,-46l5,0m-5,-45l5,0" class="g3_2" />
<path d="M83,590l434,0" class="g3_2" />
<path d="M83,590l0,5m87,-5l0,5m87,-5l0,5m87,-5l0,5m87,-5l0,5m86,-5l0,5" class="g3_2" />
<path d="M127.1,590.5c14.5,-0.1,28.9,-0.1,43.4,-0.3c14.5,-0.1,28.9,-0.2,43.4,-0.7c14.5,-0.4,29,-0.7,43.4,-1.9c14.5,-1.2,32.6,-3.5,43.4,-5.3c10.9,-1.8,14.5,-3,21.8,-5.4c7.2,-2.4,16.6,-6.6,21.7,-8.9c4.5,-2.1,6,-3.3,8.6,-5c2.9,-1.8,5.8,-3.8,8.7,-6.1c2.9,-2.3,5.8,-4.7,8.7,-7.5c2.9,-2.7,5.8,-5.7,8.7,-9.1c2.9,-3.4,5.8,-7,8.7,-11.2c2.9,-4.1,5,-6.9,8.7,-13.6c3.2,-5.9,7.8,-12.5,13,-26.2c5.8,-15.4,14.5,-43.9,21.7,-65.8" class="g4_2" />
<path d="M127.1,609.6c14.5,-0.9,28.9,-1.4,43.4,-2.5c14.5,-1,28.9,-2.2,43.4,-3.9c14.5,-1.8,29,-3.7,43.4,-6.6c14.5,-2.9,32.6,-7.7,43.4,-10.8c10.9,-3.1,14.5,-4.8,21.8,-7.8c7.2,-2.9,16.6,-7.5,21.7,-10c4.4,-2.1,6.1,-3.3,8.6,-4.7c2.9,-1.7,5.8,-3.5,8.7,-5.3c2.9,-1.8,5.8,-3.8,8.7,-5.8c2.9,-2,5.8,-4.2,8.7,-6.4c2.9,-2.3,5.8,-4.6,8.7,-7.1c2.9,-2.5,5,-4.3,8.7,-7.9c3.6,-3.5,7.2,-6.6,13,-13.3c5.8,-6.8,14.5,-18.2,21.7,-27.2" class="g5_2" />
<path d="M127.1,681.1c14.5,-7.5,28.9,-15,43.4,-22.6C185,651,199.4,643.4,213.9,635.9c14.5,-7.6,29,-15.1,43.4,-22.6c14.5,-7.6,32.6,-17,43.4,-22.7c10.9,-5.6,14.5,-7.5,21.8,-11.3c7.2,-3.7,16.6,-8.6,21.7,-11.3c4.3,-2.2,6.2,-3.2,8.6,-4.5c2.9,-1.5,5.8,-3,8.7,-4.5c2.9,-1.5,5.8,-3,8.7,-4.6c2.9,-1.5,5.8,-3,8.7,-4.5c2.9,-1.5,5.8,-3,8.7,-4.5c2.9,-1.5,5,-2.6,8.7,-4.5c3.6,-1.9,7.2,-3.8,13,-6.8c5.8,-3,14.5,-7.5,21.7,-11.3" class="g6_2" />
<g clip-path="url(#c4_2)">
<g fill="#000000" >
<use xlink:href="#f7_dj" transform="matrix(10,0,0,10,316.9,731.4)" />
<use xlink:href="#f7_op" transform="matrix(10,0,0,10,322.1,731.4)" />
<use xlink:href="#f7_dj" transform="matrix(10,0,0,10,316.9,686.1)" />
</g>
</g>
<text 
x="316" 
y="731" 
dx="0,0.1" 
class="s16_2"
>-6</text>

<g clip-path="url(#c4_2)">
<g fill="#000000" >
<use xlink:href="#f7_on" transform="matrix(10,0,0,10,322.1,686.1)" />
<use xlink:href="#f7_dj" transform="matrix(10,0,0,10,316.9,640.8)" />
</g>
</g>
<text 
x="316" 
y="686" 
dx="0,0.1" 
class="s16_2"
>-4</text>

<g clip-path="url(#c4_2)">
<g fill="#000000" >
<use xlink:href="#f7_ol" transform="matrix(10,0,0,10,322.1,640.8)" />
<use xlink:href="#f7_oj" transform="matrix(10,0,0,10,322,595.6)" />
</g>
</g>
<text 
x="316" 
y="640" 
dx="0,0.1" 
class="s17_2"
>-2</text>

<g clip-path="url(#c4_2)">
<g fill="#000000" >
<use xlink:href="#f7_ol" transform="matrix(10,0,0,10,322,550.3)" />
</g>
</g>
<text 
x="321" 
y="595" 
dx="0" 
class="s16_2"
>0</text>

<g clip-path="url(#c4_2)">
<g fill="#000000" >
<use xlink:href="#f7_on" transform="matrix(10,0,0,10,322,505.1)" />
</g>
</g>
<text 
x="321" 
y="550" 
dx="0" 
class="s16_2"
>2</text>

<g clip-path="url(#c4_2)">
<g fill="#000000" >
<use xlink:href="#f7_op" transform="matrix(10,0,0,10,322,459.8)" />
</g>
</g>
<text 
x="321" 
y="505" 
dx="0" 
class="s16_2"
>4</text>

<g clip-path="url(#c4_2)">
<g fill="#000000" >
<use xlink:href="#f7_or" transform="matrix(10,0,0,10,322,414.6)" />
</g>
</g>
<text 
x="321" 
y="459" 
dx="0" 
class="s16_2"
>6</text>

<g clip-path="url(#c4_2)">
<g fill="#000000" >
<use xlink:href="#f7_dj" transform="matrix(10,0,0,10,76.9,614.9)" />
</g>
</g>
<text 
x="321" 
y="414" 
dx="0" 
class="s16_2"
>8</text>

<g clip-path="url(#c4_2)">
<g fill="#000000" >
<use xlink:href="#f7_op" transform="matrix(10,0,0,10,82,614.9)" />
<use xlink:href="#f7_dj" transform="matrix(10,0,0,10,163.8,614.9)" />
<use xlink:href="#f7_on" transform="matrix(10,0,0,10,168.9,614.9)" />
<use xlink:href="#f7_dj" transform="matrix(10,0,0,10,250.7,614.9)" />
<use xlink:href="#f7_ol" transform="matrix(10,0,0,10,255.8,614.9)" />
<use xlink:href="#f7_oj" transform="matrix(10,0,0,10,340,614.9)" />
<use xlink:href="#f7_ol" transform="matrix(10,0,0,10,426.9,614.9)" />
<use xlink:href="#f7_on" transform="matrix(10,0,0,10,513.7,614.9)" />
</g>
</g>
<text 
x="76" 
y="614" 
dx="0,0.1" 
class="s17_2"
>-6</text>

<text 
x="163" 
y="614" 
dx="0,0.1" 
class="s17_2"
>-4</text>

<text 
x="250" 
y="614" 
dx="0,0.1" 
class="s17_2"
>-2</text>

<text 
x="340" 
y="614" 
dx="0" 
class="s17_2"
>0</text>

<text 
x="426" 
y="614" 
dx="0" 
class="s17_2"
>2</text>

<text 
x="513" 
y="614" 
dx="0" 
class="s17_2"
>4</text>

<path d="M545,541l30,0" class="g4_2" />
<g clip-path="url(#c4_2)">
<g fill="#000000" >
<use xlink:href="#f8_7" transform="matrix(10,0,0,10,578.5,546.1)" />
<use xlink:href="#f8_3t" transform="matrix(10,0,0,10,586.8,546.1)" />
</g>
</g>
<text 
x="578" 
y="546" 
dx="0,0" 
class="s18_2"
>Cf</text>

<path d="M545,568l30,0" class="g5_2" />
<g clip-path="url(#c4_2)">
<g fill="#000000" >
<use xlink:href="#f8_7" transform="matrix(10,0,0,10,578.5,573)" />
<use xlink:href="#f8_3u" transform="matrix(10,0,0,10,586.8,573)" />
</g>
</g>
<text 
x="578" 
y="572" 
dx="0,0" 
class="s18_2"
>Cg</text>

<path d="M545,594l30,0" class="g6_2" />
<g clip-path="url(#c4_2)">
<g fill="#000000" >
<use xlink:href="#f9_qs" transform="matrix(10,0,0,10,578.5,599.9)" />
</g>
</g>
<text 
x="578" 
y="599" 
dx="0" 
class="s19_2"
>∆</text>

<path d="M60,743l550,0l0,-351L60,392l0,351Z" class="g3_2" />

<defs>
	<path d="M547.9,-22.4c0,0,-251.3,0,-389.3,186.3c0,0,-102.9,138.6,-102.9,326.4c0,0,0,151.4,67.8,278.1c0,0,67.8,126.7,186.6,196.4c0,0,118.8,69.7,259.6,69.7c0,0,109.5,0,216,-53.9c0,0,31.3,-16.5,44.7,-16.5c0,0,20.1,0,35,14.2c0,0,19.3,20.2,27.5,56.2l26.4,0L942.8,690.3l-23.5,0c0,0,-46.1,155.1,-131.6,223.2c0,0,-85.6,68.2,-205.3,68.2c0,0,-100.4,0,-181.5,-51.1c0,0,-81.1,-51.1,-127.6,-163c0,0,-46.5,-112,-46.5,-278.4c0,0,0,-137.3,44,-238c0,0,43.9,-100.7,132.1,-154.4c0,0,88.3,-53.8,201.4,-53.8c0,0,98.3,0,173.5,42.1c0,0,75.2,42.1,165.3,167.2l23.1,-14.7c0,0,-76,-134.9,-177.4,-197.5c0,0,-101.5,-62.5,-240.9,-62.5Z" 
	id="f0_13"
	transform="scale(0.001,-0.001)" />

	<path d="M118.3,598.4l-40.4,221c0,0,-17.3,91.9,-17.3,124c0,0,0,47.8,19.5,69.4c0,0,19.5,21.7,53.2,21.7c0,0,33.7,0,55.8,-22c0,0,22.1,-22.1,22.1,-57.9c0,0,0,-27.7,-19.4,-135.9L151.6,598.4Z" 
	id="f0_b"
	transform="scale(0.001,-0.001)" />

	<path d="M479.1,469.3c0,0,-3.7,65.6,-15.7,92.5c0,0,-18.6,41.7,-55.6,65.6c0,0,-37,23.8,-77.4,23.8c0,0,-62,0,-110.9,-48.1c0,0,-49,-48.1,-57.2,-133.8ZM354.9,-20.4c0,0,-123,0,-210.6,95.7c0,0,-87.6,95.7,-87.6,257.5c0,0,0,175.2,89.9,273.2c0,0,89.8,98,225.5,98c0,0,114.8,0,188.7,-75.6c0,0,73.8,-75.5,73.8,-202.1l-472.3,0c0,0,-0.7,-152.3,73.8,-238.9c0,0,74.6,-86.7,175.2,-86.7c0,0,67.1,0,116.7,36.9c0,0,49.6,36.9,83.1,126.4l23.5,-14.9c0,0,-15.7,-102.1,-91,-185.8c0,0,-75.3,-83.7,-188.7,-83.7Z" 
	id="f0_21"
	transform="scale(0.001,-0.001)" />

	<path d="M312.2,-20.4c0,0,-62.7,0,-143.3,22.6c0,0,-24.6,7.6,-40.3,7.6c0,0,-17.2,0,-26.9,-19.5l-24.5,0l0,243.4l24.5,0c0,0,20.9,-104.4,79.9,-157.3c0,0,59,-52.9,132.1,-52.9c0,0,51.6,0,84.1,30.1c0,0,32.4,30.2,32.4,72.6c0,0,0,51.4,-36.2,86.4c0,0,-36.1,35.1,-144.4,88.6c0,0,-108.2,53.6,-141.8,96.8c0,0,-33.5,42.5,-33.5,107.4c0,0,0,84.3,57.8,140.9c0,0,57.8,56.7,149.6,56.7c0,0,40.3,0,97.7,-17.1c0,0,38.1,-11.2,50.7,-11.2c0,0,12,0,18.7,5.2c0,0,6.7,5.2,15.7,23.1l24.4,0l0,-232.7l-24.4,0c0,0,-28.4,109.7,-72.8,149.2c0,0,-44.4,39.5,-113,39.5c0,0,-52.2,0,-84.3,-27.5c0,0,-32.1,-27.6,-32.1,-61.1c0,0,0,-41.8,23.9,-71.6c0,0,23.2,-30.5,94.1,-64.8L389.2,381.1c0,0,151.5,-73.8,151.5,-194.5c0,0,0,-93.1,-70.5,-150.1c0,0,-70.6,-56.9,-158,-56.9Z" 
	id="f0_2f"
	transform="scale(0.001,-0.001)" />

	<path d="M254.7,-10.6c0,0,-34.3,0,-67.2,18.9c0,0,-32.9,19,-48.6,54.4c0,0,-15.7,35.5,-15.7,109.3l0,459.7l-108.5,0l0,24.4c0,0,41.2,16.4,84.2,55.5c0,0,43.1,39.1,76.9,92.9c0,0,17.3,28.4,48.1,103.9l23.5,0l0,-224.9l159.6,0l0,-51.8l-159.6,0l0,-443.6c0,0,0,-66.5,18.9,-89.6c0,0,18.9,-23.2,48.6,-23.2c0,0,24.5,0,47.5,15.3c0,0,23.1,15.4,35.7,45.3l29.3,0c0,0,-26.2,-73,-74,-109.8c0,0,-47.8,-36.7,-98.7,-36.7Z" 
	id="f0_2g"
	transform="scale(0.001,-0.001)" />

	<path d="M285.7,72.4c0,0,56.7,0,149.2,74.6l0,260.3c0,0,-112.6,-44.8,-145.5,-63.4c0,0,-58.9,-32.8,-84.2,-68.6c0,0,-25.4,-35.8,-25.4,-78.4c0,0,0,-53.7,32.1,-89.1c0,0,32,-35.4,73.8,-35.4ZM217.1,-14.1c0,0,-70.9,0,-116.8,48.4c0,0,-45.8,48.5,-45.8,127.6c0,0,0,50,22.3,86.5c0,0,30.6,50.7,106.3,95.5c0,0,75.8,44.8,251.8,108.9l0,26.9c0,0,0,102.2,-32.4,140.2c0,0,-32.5,38.1,-94.4,38.1c0,0,-47,0,-74.6,-25.4c0,0,-28.3,-25.4,-28.3,-58.2l1.4,-43.3c0,0,0,-34.3,-17.5,-52.9c0,0,-17.5,-18.7,-45.9,-18.7c0,0,-27.6,0,-45.1,19.4c0,0,-17.5,19.4,-17.5,53c0,0,0,64.1,65.6,117.8c0,0,65.7,53.8,184.3,53.8c0,0,91,0,149.2,-30.6c0,0,44,-23.2,64.9,-72.4c0,0,13.4,-32.1,13.4,-131.3l0,-232c0,0,0,-97.7,3.7,-119.7c0,0,3.8,-22,12.3,-29.5c0,0,8.6,-7.4,19.8,-7.4c0,0,11.9,0,20.9,5.2c0,0,15.7,9.7,60.4,54.5l0,-41.8c0,0,-83.5,-111.8,-159.6,-111.8c0,0,-36.6,0,-58.2,25.2c0,0,-21.6,25.4,-22.4,86.6c0,0,-105.2,-81.3,-132,-94c0,0,-40.3,-18.6,-85.8,-18.6Zm183,793.4L180.8,1036.7l166.3,0L426.2,779.3Z" 
	id="f0_2z"
	transform="scale(0.001,-0.001)" />

	<path d="M399,61.6c0,0,67.7,0,131,67.8l0,352c0,0,-4.5,50.6,-26.8,92.4c0,0,-22.3,41.8,-59.2,63c0,0,-36.8,21.3,-71.8,21.3c0,0,-65.4,0,-116.8,-58.9c0,0,-67.7,-77.6,-67.7,-226.7c0,0,0,-150.6,65.5,-230.7c0,0,65.5,-80.2,145.8,-80.2Zm-69.5,-82c0,0,-111.7,0,-195.2,93.4c0,0,-83.5,93.6,-83.5,240.4c0,0,0,146.8,92.4,268.7c0,0,92.4,121.9,237.7,121.9c0,0,90.2,0,149.1,-57.1l0,126.6c0,0,0,116.8,-5.6,143.6c0,0,-5.7,26.9,-17.6,36.5c0,0,-12,9.7,-29.9,9.7c0,0,-19.5,0,-51.6,-11.9l-9.7,26.4l203.9,83.1l33.7,0l0,-791c0,0,0,-119.9,5.6,-146.3c0,0,5.6,-26.4,17.9,-36.9c0,0,12.3,-10.4,28.8,-10.4c0,0,20.2,0,53.8,12.7l8.3,-26.4l-203.3,-83l-34.3,0l0,97.7C530,77.3,480,25,432.3,2.2c0,0,-47.7,-22.6,-102.8,-22.6Z" 
	id="f0_20"
	transform="scale(0.001,-0.001)" />

	<path d="M54.8,0l0,26.4c0,0,50,0,67.2,9.7c0,0,17.2,9.8,27.3,32.2c0,0,10.1,22.5,10.1,86.2l0,263c0,0,0,111.6,-6.7,144.6c0,0,-5.2,24,-16.3,33.3c0,0,-11.2,9.3,-30.5,9.3c0,0,-20.8,0,-50.5,-11.2L45,619.9L250.7,703l32.9,0l0,-548.5c0,0,0,-64.4,9.3,-85.8c0,0,9.3,-21.3,27.6,-31.8c0,0,18.2,-10.5,66.7,-10.5L387.2,0Zm167,909.3c0,0,-31.3,0,-53.7,22.4c0,0,-22.4,22.4,-22.4,53.8c0,0,0,31.3,22,53.4c0,0,22,22,54.1,22c0,0,31.4,0,53.4,-22c0,0,22,-22.1,22,-53.4c0,0,0,-31.4,-22,-53.8c0,0,-22,-22.4,-53.4,-22.4Z" 
	id="f0_25"
	transform="scale(0.001,-0.001)" />

	<path d="M16.6,0l0,26.4c0,0,52.3,0,77.7,16.6c0,0,18.7,12,26.1,38.4c0,0,3.8,12.8,3.8,73.1l0,264c0,0,0,119.7,-4.8,142.5c0,0,-4.9,22.8,-17.9,33.3c0,0,-13,10.4,-32.3,10.4c0,0,-23,0,-52,-11.2L9.8,619.9L216.9,703l31.5,0l0,-154c0,0,85.5,154,175.6,154c0,0,40.9,0,67.7,-25c0,0,26.8,-25.1,26.8,-58c0,0,0,-29.1,-19.3,-49.3c0,0,-19.4,-20.2,-46.2,-20.2c0,0,-26.1,0,-58.4,25.9c0,0,-32.4,25.9,-48.1,25.9c0,0,-13.3,0,-29,-14.9c0,0,-33.4,-30.7,-69.1,-101l0,-327c0,0,0,-56.6,14.1,-85.7c0,0,9.7,-20.1,34.3,-33.7c0,0,24.6,-13.6,70.8,-13.6L367.6,0Z" 
	id="f0_2e"
	transform="scale(0.001,-0.001)" />

	<path d="M67.1,0l0,109.2L205.9,235.4c0,0,133.5,117.2,196.2,189.6c0,0,62.7,72.5,89.9,149.4c0,0,27.2,76.9,27.2,176.2c0,0,0,97.2,-44,148c0,0,-44,50.8,-144,50.8c0,0,-39.5,0,-81.3,-10.8c0,0,-41.8,-10.9,-73.9,-28.8L149.9,787.1l-49.2,0l0,192.8c0,0,135.8,32.1,230.5,32.1c0,0,164.1,0,246.6,-68.3c0,0,82.4,-68.4,82.4,-193.1c0,0,0,-83.6,-32.5,-157.9c0,0,-32.4,-74.3,-99.5,-147.9c0,0,-67.2,-73.5,-222.3,-205.7c0,0,-66.4,-56.8,-141,-124.7l514.7,0L679.6,0Z" 
	id="f1_m"
	transform="scale(0.001,-0.001)" />

	<path d="M495.3,412.6c0,0,0,133.4,-34.3,190.4c0,0,-34.3,57,-105.2,57c0,0,-77.5,0,-118.9,-62.6c0,0,-41.5,-62.6,-41.5,-184.8ZM374.5,-14.6c0,0,-163.4,0,-239.1,87.9c0,0,-75.7,88,-75.7,282.5c0,0,0,183.4,76.8,273.6c0,0,76.9,90.2,219.3,90.2c0,0,269.3,0,269.3,-305.5l0,-61.1L194,353l0,-13.4c0,0,0,-102.7,22.7,-159.6c0,0,22.8,-56.9,70.1,-86.7c0,0,47.4,-29.7,124.2,-29.7c0,0,40.3,0,95.5,6.7c0,0,55.2,6.7,91,14.9l0,-41.9c0,0,-35.8,-23.4,-97.3,-40.7c0,0,-61.6,-17.2,-125.7,-17.2Z" 
	id="f1_21"
	transform="scale(0.001,-0.001)" />

	<path d="M-6.6,0c0,0,-11.9,9.6,-11.9,32c0,0,0,20.9,23.3,51.5c0,0,23.5,30.6,78.8,81.3L287.2,354.3l-128.3,295L79.1,667.8L85,701.1l185,0l108.2,-267l92.5,88c0,0,47.8,45.5,67.2,71.6c0,0,19.4,26.1,19.4,44.7c0,0,0,7.5,-6.7,13.1c0,0,-6.8,5.6,-37.4,16l6,33.6l132,0c0,0,15.7,-12,15.7,-32.1c0,0,0,-44,-102.9,-141.7L404.3,377.4L547.6,48.9L634.1,33.3L628.1,0l-191,0L312.6,298.3L185,176c0,0,-41,-39.5,-60,-65.3c0,0,-19.1,-25.7,-19.1,-48.1c0,0,0,-20.9,31.4,-29.1L131.3,0Z" 
	id="f2_2k"
	transform="scale(0.001,-0.001)" />

	<path d="M0,355l0,75l783,0l0,-75Z" 
	id="f3_h"
	transform="scale(0.001,-0.001)" />

	<path d="M45,0l0,72.4l750.5,0L795.5,0Zm0,166.2l0,81.7L672.6,557.7L45,870.2l0,80.9L795.5,578.5l0,-38.2L45,166.2Z" 
	id="f3_39"
	transform="scale(0.001,-0.001)" />

	<path d="M377.5,45c0,0,98.4,0,144.7,108.4c0,0,46.2,108.4,46.2,351.3c0,0,0,240,-45.5,345.8c0,0,-45.5,105.8,-145.4,105.8c0,0,-97,0,-139.5,-99.9c0,0,-42.6,-99.8,-42.6,-351.7c0,0,0,-253.3,43.3,-356.5C238.7,148.2,282,45,377.5,45Zm0,-59.6c0,0,-158.2,0,-238.7,132.7c0,0,-80.6,132.7,-80.6,386.3c0,0,0,248.3,80.6,379.9c0,0,80.5,131.6,244.6,131.6c0,0,158.2,0,240.2,-130.1c0,0,82.1,-130.1,82.1,-381.4c0,0,0,-519,-328.2,-519Z" 
	id="f1_k"
	transform="scale(0.001,-0.001)" />

	<path d="M405.9,32.3c0,0,72.3,0,119.2,59.6c0,0,47,59.5,47,204.8c0,0,0,181.7,-78.3,285.9c0,0,-52.9,71.5,-134.8,71.5c0,0,-39.5,0,-79.4,-23.4c0,0,-39.8,-23.5,-64.4,-82.3c0,0,-24.6,-58.9,-24.6,-151.2c0,0,0,-149,59.2,-256.9c0,0,59.3,-108,156.1,-108Zm-32,-52.7c0,0,-154.4,0,-245.3,122.8c0,0,-76.8,103.6,-76.8,232.5c0,0,0,93.9,46.6,186.7c0,0,46.6,92.7,122.7,137.1c0,0,76,44.3,161,44.3c0,0,155,0,249,-117.7c0,0,79.7,-100.6,79.7,-231c0,0,0,-91.7,-43.9,-185.6c0,0,-44,-93.9,-121.2,-141.5c0,0,-77.1,-47.6,-171.8,-47.6Z" 
	id="f0_2b"
	transform="scale(0.001,-0.001)" />

	<path d="M291.7,-20.8c0,0,-57.5,0,-99.6,33.1c0,0,-42.2,33.2,-58.6,85.4c0,0,-16.4,52.2,-16.4,147.7l0,305.1c0,0,0,48.5,-10.4,67.2c0,0,-10.5,18.6,-31,28.7c0,0,-19.1,9.4,-68.6,9.4c-1.8,0,-3.7,-0.1,-5.6,-0.1l0,27.6l239.4,0l0,-457.3c0,0,0,-95.5,33.2,-125.3c0,0,33.2,-29.8,80.2,-29.8c0,0,32.1,0,72.8,20.1c0,0,40.6,20.1,96.6,76.8l0,387.2c0,0,0,58.2,-21.3,78.7c0,0,-21.2,20.5,-88.4,22l0,27.6l232.8,0l0,-414c0,0,0,-118.6,5.6,-145.1c0,0,5.6,-26.5,17.9,-36.9c0,0,12.3,-10.5,28.7,-10.5c0,0,23.1,0,52.2,12.7L761.7,63.4L557.3,-20.8l-33.6,0l0,144.6c0,0,-88,-95.5,-134.3,-120.1c0,0,-46.2,-24.5,-97.7,-24.5ZM422.6,779.3L203.2,1036.7l166.4,0L448.7,779.3Z" 
	id="f0_3k"
	transform="scale(0.001,-0.001)" />

	<path d="M57.7,0l0,26.4c0,0,47.4,0,64.8,9.7c0,0,17.3,9.8,27.1,32.2c0,0,9.8,22.5,9.8,86.2l0,620.9c0,0,0,115.6,-5.2,142.1c0,0,-5.3,26.5,-16.8,36.1c0,0,-11.6,9.7,-29.5,9.7c0,0,-19.4,0,-49.2,-11.9L46,977.8l203.9,83.1l33.7,0l0,-906.4c0,0,0,-64.4,9.3,-85.4c0,0,9.3,-21,28.7,-31.8c0,0,19.4,-10.9,72.4,-10.9L394,0Z" 
	id="f0_28"
	transform="scale(0.001,-0.001)" />

	<path d="M20.5,0l0,26.4l15,0c0,0,52.1,0,70.4,26.6c0,0,18.3,26.6,18.3,101.5l0,253.3c0,0,0,123.6,-5.6,150.5c0,0,-5.6,27,-17.1,36.7c0,0,-11.5,9.7,-30.8,9.7c0,0,-20.8,0,-49.8,-11.2L9.8,619.9L216.2,703l32.2,0l0,-144.8c0,0,119.7,144.8,228.4,144.8c0,0,55.8,0,96,-27.9c0,0,40.2,-28,64,-92.1c0,0,16.4,-44.7,16.4,-137.1l0,-291.4c0,0,0,-65.2,10.4,-88.4c0,0,8.2,-18.7,26.5,-29.2c0,0,18.3,-10.5,67.7,-10.5L757.8,0L418.5,0l0,26.4l14.2,0c0,0,47.8,0,66.8,14.6c0,0,19,14.6,26.5,43.1c0,0,3,11.2,3,70.4l0,279.3c0,0,0,93.1,-24.1,135.2c0,0,-24,42.1,-81.1,42.1c0,0,-88.1,0,-175.4,-96.9l0,-359.7c0,0,0,-69.7,8.2,-86.2c0,0,10.5,-21.7,28.8,-31.8c0,0,18.3,-10.1,74.4,-10.1L359.8,0Z" 
	id="f0_2a"
	transform="scale(0.001,-0.001)" />

	<path d="M213.3,-20.4c0,0,-34.1,0,-58.2,24c0,0,-24.1,24,-24.1,58.1c0,0,0,34.1,24.1,58.6c0,0,24.1,24.4,58.2,24.4c0,0,34.8,0,58.9,-24.4c0,0,24.1,-24.5,24.1,-58.6c0,0,0,-34.1,-24.5,-58.1c0,0,-24.4,-24,-58.5,-24Zm2.3,559.2c0,0,-34.3,0,-58.4,24.2c0,0,-24.2,24.1,-24.2,58.4c0,0,0,34.2,24.2,58.4c0,0,24.1,24.2,58.4,24.2c0,0,34.2,0,58.4,-24.2c0,0,24.2,-24.2,24.2,-58.4c0,0,0,-34.3,-24.2,-58.4c0,0,-24.2,-24.2,-58.4,-24.2Z" 
	id="f0_u"
	transform="scale(0.001,-0.001)" />

	<path d="M134.3,0l0,39.5L339.4,59.6l0,816.5L137.3,803.7l0,39.6l291.6,165.8l38.8,0l0,-949.5L672.1,39.5L672.1,0Z" 
	id="f1_l"
	transform="scale(0.001,-0.001)" />

	<path d="M354,0l0,354L0,354l0,73l354,0l0,357l73,0l0,-357l355,0l0,-73l-355,0L427,0Z" 
	id="f3_f"
	transform="scale(0.001,-0.001)" />

	<path d="M191.2,-20.4c0,0,-34.3,0,-58.5,24.1c0,0,-24.2,24.2,-24.2,58.4c0,0,0,35,24.2,58.8c0,0,24.2,23.8,58.5,23.8c0,0,34.9,0,58.7,-24.2c0,0,23.9,-24.2,23.9,-58.4c0,0,0,-34.2,-24.2,-58.4c0,0,-24.2,-24.1,-58.4,-24.1Z" 
	id="f0_i"
	transform="scale(0.001,-0.001)" />

	<path d="M33.2,0l0,27.3c0,0,263.5,240.3,371,392.6c0,0,107.5,152.3,107.5,278.3c0,0,0,96.2,-59,158.1c0,0,-58.9,61.8,-141,61.8c0,0,-74.6,0,-133.9,-43.5c0,0,-59.3,-43.5,-87.6,-127.5l-27.6,0c0,0,18.6,137.8,95.7,211.6c0,0,77.2,73.8,192.7,73.8c0,0,123,0,205.4,-79.1c0,0,82.4,-79.1,82.4,-186.5c0,0,0,-76.9,-35.9,-153.7c0,0,-55.2,-120.8,-179,-255.9c0,0,-185.8,-203,-233,-244.9l264.6,0c0,0,80.7,0,113.2,6c0,0,32.5,6,58.7,24.2c0,0,26.1,18.3,45.6,51.9l27.3,0L629.5,0Z" 
	id="f4_m"
	transform="scale(0.001,-0.001)" />

	<path d="M191.2,-20.4c0,0,-34.3,0,-58.5,24.1c0,0,-24.2,24.2,-24.2,58.4c0,0,0,35,24.2,58.8c0,0,24.2,23.8,58.5,23.8c0,0,34.9,0,58.7,-24.2c0,0,23.9,-24.2,23.9,-58.4c0,0,0,-34.2,-24.2,-58.4c0,0,-24.2,-24.1,-58.4,-24.1Z" 
	id="f4_i"
	transform="scale(0.001,-0.001)" />

	<path d="M62.6,0l0,26.4l30.5,0c0,0,29.8,0,54.4,15c0,0,24.5,15,33.8,40.5c0,0,9.4,25.5,9.4,99l0,448.8l-133,0l0,53.8l133,0l0,44.7c0,0,0,102,32.9,172.8c0,0,32.9,70.8,100.5,114.3c0,0,67.7,43.6,152.2,43.6c0,0,78.5,0,144.2,-50.6c0,0,43.4,-33.6,43.4,-75.3c0,0,0,-22.3,-19.4,-42.1c0,0,-19.4,-19.7,-41.8,-19.7c0,0,-17.1,0,-36.1,12.3c0,0,-19,12.3,-46.6,52.8c0,0,-27.6,40.6,-50.8,54.7c0,0,-23.1,14.2,-51.4,14.2c0,0,-34.3,0,-58.2,-18.3c0,0,-23.9,-18.2,-34.3,-56.6c0,0,-10.5,-38.3,-10.5,-197.7l0,-49.1l176,0l0,-53.8l-176,0l0,-448.8c0,0,0,-96,20.9,-121.5c0,0,27.6,-33,73.8,-33l61.8,0L471.3,0Z" 
	id="f4_22"
	transform="scale(0.001,-0.001)" />

	<path d="M34.6,-326.5l0,28.4c0,0,92.1,51.4,151.6,138.9c0,0,59.6,87.6,88.4,222.7c0,0,28.9,135.2,28.9,281.9c0,0,0,158.8,-24.8,289.9c0,0,-18.7,102.8,-46.8,164.6c0,0,-28.1,61.8,-74.5,119.2c0,0,-46.4,57.4,-122.8,109.5l0,31.3c0,0,113.3,-55.9,188.6,-131.9c0,0,106.7,-108.9,164.8,-255.3c0,0,58.2,-146.5,58.2,-305.3c0,0,0,-231.1,-113.7,-421.4c0,0,-113.7,-190.5,-297.9,-272.5Z" 
	id="f4_d"
	transform="scale(0.001,-0.001)" />

	<path d="M545.5,30.3c0,0,142.4,0,235.2,111.1c0,0,92.9,111,92.9,350.2c0,0,0,259.4,-102.2,386.8c0,0,-82,101.3,-226.6,101.3c0,0,-135.8,0,-217.8,-100.6c0,0,-102.1,-125.2,-102.1,-366.6c0,0,0,-247.4,105.9,-380.8c0,0,81.2,-101.4,214.7,-101.4ZM547,-22.4c0,0,-208.9,0,-351.1,148.2c0,0,-142.1,148.4,-142.1,383.9c0,0,0,240.8,164.1,392.8c0,0,142.5,132,341,132c0,0,197,0,341.4,-149.5c0,0,144.4,-149.4,144.4,-373c0,0,0,-230.4,-145.5,-382.4c0,0,-145.5,-152,-352.2,-152Z" 
	id="f4_1f"
	transform="scale(0.001,-0.001)" />

	<path d="M20.5,0l0,26.4l15,0c0,0,52.1,0,70.4,26.6c0,0,18.3,26.6,18.3,101.5l0,253.3c0,0,0,123.6,-5.6,150.5c0,0,-5.6,27,-17.1,36.7c0,0,-11.5,9.7,-30.8,9.7c0,0,-20.8,0,-49.8,-11.2L9.8,619.9L216.2,703l32.2,0l0,-144.8c0,0,119.7,144.8,228.4,144.8c0,0,55.8,0,96,-27.9c0,0,40.2,-28,64,-92.1c0,0,16.4,-44.7,16.4,-137.1l0,-291.4c0,0,0,-65.2,10.4,-88.4c0,0,8.2,-18.7,26.5,-29.2c0,0,18.3,-10.5,67.7,-10.5L757.8,0L418.5,0l0,26.4l14.2,0c0,0,47.8,0,66.8,14.6c0,0,19,14.6,26.5,43.1c0,0,3,11.2,3,70.4l0,279.3c0,0,0,93.1,-24.1,135.2c0,0,-24,42.1,-81.1,42.1c0,0,-88.1,0,-175.4,-96.9l0,-359.7c0,0,0,-69.7,8.2,-86.2c0,0,10.5,-21.7,28.8,-31.8c0,0,18.3,-10.1,74.4,-10.1L359.8,0Z" 
	id="f4_2a"
	transform="scale(0.001,-0.001)" />

	<path d="M479.1,469.3c0,0,-3.7,65.6,-15.7,92.5c0,0,-18.6,41.7,-55.6,65.6c0,0,-37,23.8,-77.4,23.8c0,0,-62,0,-110.9,-48.1c0,0,-49,-48.1,-57.2,-133.8ZM354.9,-20.4c0,0,-123,0,-210.6,95.7c0,0,-87.6,95.7,-87.6,257.5c0,0,0,175.2,89.9,273.2c0,0,89.8,98,225.5,98c0,0,114.8,0,188.7,-75.6c0,0,73.8,-75.5,73.8,-202.1l-472.3,0c0,0,-0.7,-152.3,73.8,-238.9c0,0,74.6,-86.7,175.2,-86.7c0,0,67.1,0,116.7,36.9c0,0,49.6,36.9,83.1,126.4l23.5,-14.9c0,0,-15.7,-102.1,-91,-185.8c0,0,-75.3,-83.7,-188.7,-83.7Z" 
	id="f4_21"
	transform="scale(0.001,-0.001)" />

	<path d="M399,61.6c0,0,67.7,0,131,67.8l0,352c0,0,-4.5,50.6,-26.8,92.4c0,0,-22.3,41.8,-59.2,63c0,0,-36.8,21.3,-71.8,21.3c0,0,-65.4,0,-116.8,-58.9c0,0,-67.7,-77.6,-67.7,-226.7c0,0,0,-150.6,65.5,-230.7c0,0,65.5,-80.2,145.8,-80.2Zm-69.5,-82c0,0,-111.7,0,-195.2,93.4c0,0,-83.5,93.6,-83.5,240.4c0,0,0,146.8,92.4,268.7c0,0,92.4,121.9,237.7,121.9c0,0,90.2,0,149.1,-57.1l0,126.6c0,0,0,116.8,-5.6,143.6c0,0,-5.7,26.9,-17.6,36.5c0,0,-12,9.7,-29.9,9.7c0,0,-19.5,0,-51.6,-11.9l-9.7,26.4l203.9,83.1l33.7,0l0,-791c0,0,0,-119.9,5.6,-146.3c0,0,5.6,-26.4,17.9,-36.9c0,0,12.3,-10.4,28.8,-10.4c0,0,20.2,0,53.8,12.7l8.3,-26.4l-203.3,-83l-34.3,0l0,97.7C530,77.3,480,25,432.3,2.2c0,0,-47.7,-22.6,-102.8,-22.6Z" 
	id="f4_20"
	transform="scale(0.001,-0.001)" />

	<path d="M478.9,469.2c0,0,-3.7,65.7,-15.6,92.5c0,0,-18.7,41.8,-55.6,65.7c0,0,-36.9,23.8,-77.2,23.8c0,0,-61.9,0,-110.8,-48.1c0,0,-48.9,-48.1,-57.1,-133.9ZM355.1,-20.8c0,0,-123.1,0,-210.7,95.8c0,0,-87.7,95.8,-87.7,257.7c0,0,0,175.3,89.9,273.4c0,0,89.9,98.1,225.6,98.1c0,0,114.9,0,188.8,-75.7c0,0,73.8,-75.7,73.8,-202.5l-472.2,0c0,0,-0.7,-152.2,73.9,-238.8c0,0,74.6,-86.5,175.3,-86.5c0,0,67.1,0,116.7,36.9c0,0,49.6,37,83.2,126.5l23.1,-14.9c0,0,-15.6,-102.2,-91,-186.1c0,0,-75.3,-83.9,-188.7,-83.9ZM331.4,779.3l78.3,257.4l167.1,0L356.7,779.3Z" 
	id="f4_35"
	transform="scale(0.001,-0.001)" />

	<path d="M292,-20.4c0,0,-57.5,0,-99.7,33.1c0,0,-42.1,33.1,-58.5,85.3c0,0,-16.5,52.2,-16.5,147.6l0,304.9c0,0,0,49.1,-10.4,68c0,0,-10.4,18.9,-30.9,29.1c0,0,-19,9.5,-68.5,9.5c-1.8,0,-3.6,0,-5.5,0l0,26.4l239.5,0l0,-457.1c0,0,0,-95.4,33.2,-125.2c0,0,33.2,-29.8,80.1,-29.8c0,0,32.1,0,72.7,20.1c0,0,40.7,20.1,96.6,76.8l0,387.1c0,0,0,58.7,-21.4,79.5c0,0,-21.4,20.7,-89.1,22.2l0,26.4l233.7,0l0,-414.6c0,0,0,-118.7,5.6,-145.2c0,0,5.6,-26.5,18,-36.9c0,0,12.3,-10.5,28.8,-10.5c0,0,23.2,0,52.5,12.7L762.7,62.6l-204.9,-83l-33.7,0l0,144.7c0,0,-88.1,-95.6,-134.3,-120.2c0,0,-46.3,-24.5,-97.8,-24.5Z" 
	id="f4_2h"
	transform="scale(0.001,-0.001)" />

	<path d="M54.8,0l0,26.4c0,0,50,0,67.2,9.7c0,0,17.2,9.8,27.3,32.2c0,0,10.1,22.5,10.1,86.2l0,263c0,0,0,111.6,-6.7,144.6c0,0,-5.2,24,-16.3,33.3c0,0,-11.2,9.3,-30.5,9.3c0,0,-20.8,0,-50.5,-11.2L45,619.9L250.7,703l32.9,0l0,-548.5c0,0,0,-64.4,9.3,-85.8c0,0,9.3,-21.3,27.6,-31.8c0,0,18.2,-10.5,66.7,-10.5L387.2,0Zm167,909.3c0,0,-31.3,0,-53.7,22.4c0,0,-22.4,22.4,-22.4,53.8c0,0,0,31.3,22,53.4c0,0,22,22,54.1,22c0,0,31.4,0,53.4,-22c0,0,22,-22.1,22,-53.4c0,0,0,-31.4,-22,-53.8c0,0,-22,-22.4,-53.4,-22.4Z" 
	id="f4_25"
	transform="scale(0.001,-0.001)" />

	<path d="M254.7,-10.6c0,0,-34.3,0,-67.2,18.9c0,0,-32.9,19,-48.6,54.4c0,0,-15.7,35.5,-15.7,109.3l0,459.7l-108.5,0l0,24.4c0,0,41.2,16.4,84.2,55.5c0,0,43.1,39.1,76.9,92.9c0,0,17.3,28.4,48.1,103.9l23.5,0l0,-224.9l159.6,0l0,-51.8l-159.6,0l0,-443.6c0,0,0,-66.5,18.9,-89.6c0,0,18.9,-23.2,48.6,-23.2c0,0,24.5,0,47.5,15.3c0,0,23.1,15.4,35.7,45.3l29.3,0c0,0,-26.2,-73,-74,-109.8c0,0,-47.8,-36.7,-98.7,-36.7Z" 
	id="f4_2g"
	transform="scale(0.001,-0.001)" />

	<path d="M383.6,85.1c0,0,44.1,0,78.4,19c0,0,34.4,19,68,62.2l0,320.3c0,0,0,55.8,-14.6,87.9c0,0,-14.5,32,-51.9,54.4c0,0,-37.3,22.3,-84.4,22.3c0,0,-83.6,0,-143.3,-70.8c0,0,-59.8,-70.7,-59.8,-214.5c0,0,0,-137.8,60.9,-209.3c0,0,60.8,-71.5,146.7,-71.5Zm35.9,-411.6l0,26.4l14.2,0c0,0,41.8,0,63.4,12.1c0,0,15,8.3,23.9,29.8c0,0,9,21.5,9,83.3l0,294.3C530,119.4,462.1,38.5,411.3,9c0,0,-50.7,-29.4,-105.2,-29.4c0,0,-99.3,0,-177.3,90c0,0,-78,90.2,-78,241.5c0,0,0,173.6,103,282.7c0,0,102.9,109.2,248.3,109.2c0,0,42.6,0,78.4,-11.8c0,0,35.8,-11.9,64.1,-35.5c0,0,43.4,20.7,83.1,47.3l25.5,0l0,-877.9c0,0,0,-66.4,8.8,-85.2c0,0,8.9,-18.9,27.9,-29.4c0,0,18.9,-10.6,73.7,-10.6l0,-26.4Z" 
	id="f4_2d"
	transform="scale(0.001,-0.001)" />

	<path d="M738,61.6L440.6,782.8L112.7,61.6ZM19.3,0L487.5,1034.7L914.2,0Z" 
	id="f4_4p"
	transform="scale(0.001,-0.001)" />

	<path d="M312.2,-20.4c0,0,-62.7,0,-143.3,22.6c0,0,-24.6,7.6,-40.3,7.6c0,0,-17.2,0,-26.9,-19.5l-24.5,0l0,243.4l24.5,0c0,0,20.9,-104.4,79.9,-157.3c0,0,59,-52.9,132.1,-52.9c0,0,51.6,0,84.1,30.1c0,0,32.4,30.2,32.4,72.6c0,0,0,51.4,-36.2,86.4c0,0,-36.1,35.1,-144.4,88.6c0,0,-108.2,53.6,-141.8,96.8c0,0,-33.5,42.5,-33.5,107.4c0,0,0,84.3,57.8,140.9c0,0,57.8,56.7,149.6,56.7c0,0,40.3,0,97.7,-17.1c0,0,38.1,-11.2,50.7,-11.2c0,0,12,0,18.7,5.2c0,0,6.7,5.2,15.7,23.1l24.4,0l0,-232.7l-24.4,0c0,0,-28.4,109.7,-72.8,149.2c0,0,-44.4,39.5,-113,39.5c0,0,-52.2,0,-84.3,-27.5c0,0,-32.1,-27.6,-32.1,-61.1c0,0,0,-41.8,23.9,-71.6c0,0,23.2,-30.5,94.1,-64.8L389.2,381.1c0,0,151.5,-73.8,151.5,-194.5c0,0,0,-93.1,-70.5,-150.1c0,0,-70.6,-56.9,-158,-56.9Z" 
	id="f4_2f"
	transform="scale(0.001,-0.001)" />

	<path d="M285.9,72.4c0,0,56.7,0,149.2,74.5l0,259.9c0,0,-112.7,-44.7,-145.5,-63.3c0,0,-59,-32.8,-84.3,-68.5c0,0,-25.4,-35.8,-25.4,-78.3c0,0,0,-53.6,32.1,-88.9c0,0,32.1,-35.4,73.9,-35.4Zm-68.6,-86c0,0,-70.8,0,-116.7,48.3c0,0,-45.8,48.5,-45.8,127.4c0,0,0,50,22.3,86.5c0,0,30.6,50.6,106.3,95.3c0,0,75.7,44.7,251.7,108.8l0,26.7c0,0,0,101.9,-32.2,139.8c0,0,-32.3,37.9,-93.8,37.9c0,0,-46.7,0,-74.1,-25.3c0,0,-28.2,-25.2,-28.2,-57.9l1.5,-43c0,0,0,-34.2,-17.7,-52.8c0,0,-17.7,-18.5,-46.3,-18.5c0,0,-27.8,0,-45.5,19.3c0,0,-17.6,19.4,-17.6,52.9c0,0,0,64,65.6,117.6c0,0,65.6,53.6,184.1,53.6c0,0,91,0,149.1,-30.5c0,0,44,-23.1,64.9,-72.3c0,0,13.4,-32,13.4,-131l0,-231.6c0,0,0,-97.6,3.7,-119.6c0,0,3.8,-21.9,12.4,-29.4c0,0,8.6,-7.4,19.8,-7.4c0,0,11.9,0,20.9,5.2c0,0,15.7,9.7,60.5,54.4l0,-41.7c0,0,-83.6,-111.7,-159.8,-111.7c0,0,-36.6,0,-58.3,25.1c0,0,-21.6,25.2,-22.4,85.9c0,0,-105.1,-80.9,-132,-93.5c0,0,-40.3,-18.5,-85.8,-18.5Z" 
	id="f0_1x"
	transform="scale(0.001,-0.001)" />

	<path d="M292,-20.4c0,0,-57.5,0,-99.7,33.1c0,0,-42.1,33.1,-58.5,85.3c0,0,-16.5,52.2,-16.5,147.6l0,304.9c0,0,0,49.1,-10.4,68c0,0,-10.4,18.9,-30.9,29.1c0,0,-19,9.5,-68.5,9.5c-1.8,0,-3.6,0,-5.5,0l0,26.4l239.5,0l0,-457.1c0,0,0,-95.4,33.2,-125.2c0,0,33.2,-29.8,80.1,-29.8c0,0,32.1,0,72.7,20.1c0,0,40.7,20.1,96.6,76.8l0,387.1c0,0,0,58.7,-21.4,79.5c0,0,-21.4,20.7,-89.1,22.2l0,26.4l233.7,0l0,-414.6c0,0,0,-118.7,5.6,-145.2c0,0,5.6,-26.5,18,-36.9c0,0,12.3,-10.5,28.8,-10.5c0,0,23.2,0,52.5,12.7L762.7,62.6l-204.9,-83l-33.7,0l0,144.7c0,0,-88.1,-95.6,-134.3,-120.2c0,0,-46.3,-24.5,-97.8,-24.5Z" 
	id="f0_2h"
	transform="scale(0.001,-0.001)" />

	<path d="M61,286l0,112l386,0l0,-112Z" 
	id="f0_h"
	transform="scale(0.001,-0.001)" />

	<path d="M517.8,-22.4c0,0,-123.9,0,-219.5,51.7c0,0,-95.6,51.8,-145.6,145.7c0,0,-50,94,-50,202c0,0,0,165.5,88.7,322.1c0,0,88.8,156.5,243.6,245.9c0,0,154.9,89.5,312.3,89.5c0,0,73.9,0,165.6,-35c0,0,40.3,-14.9,58.2,-14.9c0,0,17.9,0,31.3,7.5c0,0,13.5,7.4,44.8,42.4l27.4,0L999.3,707l-27.4,0L969,789.1c0,0,-3.8,44.8,-17.2,79.8c0,0,-13.4,35.1,-40.2,60.9c0,0,-26.9,25.7,-67.9,40.3c0,0,-41,14.5,-90.9,14.5c0,0,-133.5,0,-233.3,-73.1c0,0,-127.5,-93.2,-199.8,-263.2c0,0,-59.6,-140.2,-59.6,-284.1c0,0,0,-146.9,85.9,-234.5c0,0,85.8,-87.6,223.3,-87.6c0,0,103.7,0,184.8,46.2c0,0,81,46.3,150.5,142.5l35.1,0c0,0,-82.2,-130.4,-182.2,-191.8c0,0,-100.1,-61.4,-239.7,-61.4Z" 
	id="f5_13"
	transform="scale(0.001,-0.001)" />

	<path d="M290.4,-283.4c0,0,106.7,0,182.4,36.1c0,0,75.8,36.2,75.8,93.6c0,0,0,29.1,-28,55.3c0,0,-28,26.1,-108.5,42.4c0,0,-44,8.9,-232,55.7c0,0,-60.4,-27.5,-91.4,-70.8c0,0,-31,-43.2,-31,-84.9c0,0,0,-49.2,44.8,-81.2c0,0,64.1,-46.2,187.9,-46.2Zm52.5,531.8c0,0,39.6,0,76.6,21.6c0,0,36.9,21.6,62.3,59.6c0,0,25.4,38,40.3,96.8c0,0,15,58.9,15,84.9c0,0,0,59.6,-33.2,93.9c0,0,-33.3,34.3,-87,34.3c0,0,-84.4,0,-139.3,-84.6c0,0,-54.9,-84.5,-54.9,-176.2c0,0,0,-57.3,35.1,-93.8c0,0,35.1,-36.5,85.1,-36.5ZM269.3,-329.4c0,0,-92.6,0,-168.6,22c0,0,-76.1,22,-108.8,59.2c0,0,-32.9,37.3,-32.9,76.8c0,0,0,32,21.3,66.6c0,0,21.2,34.7,53.3,57c0,0,20.2,14.2,114.3,67c0,0,-34.5,26.8,-34.5,58.8c0,0,0,29.8,30.2,63.4c0,0,30.1,33.5,127.6,73.7c0,0,-82.1,15.7,-130.2,68.7c0,0,-48.1,52.9,-48.1,117.8c0,0,0,106,92.9,189.5c0,0,93,83.6,247.5,83.6c0,0,56,0,91.8,-11.1c0,0,35.8,-11.2,69.4,-34.9l201.5,0L774.4,551.5l-124.7,0c0,0,14.2,-40.4,14.2,-75.5c0,0,0,-98.7,-83.6,-175.7c0,0,-84.4,-77,-231.4,-85.2c0,0,-78.7,-23.9,-118,-56.9c0,0,-14.8,-12,-14.8,-24.7c0,0,0,-15,13.3,-27.3c0,0,13.3,-12.4,67.4,-25.1L441.7,47.9c0,0,120.2,-28,158.9,-66.7c0,0,37.9,-39.4,37.9,-90.8c0,0,0,-61.1,-45.1,-111.8c0,0,-45.2,-50.6,-132.1,-79.3c0,0,-86.9,-28.7,-192,-28.7Z" 
	id="f5_23"
	transform="scale(0.001,-0.001)" />

	<path d="M62.6,0l0,26.4l30.5,0c0,0,29.8,0,54.4,15c0,0,24.5,15,33.8,40.5c0,0,9.4,25.5,9.4,99l0,448.8l-133,0l0,53.8l133,0l0,44.7c0,0,0,102,32.9,172.8c0,0,32.9,70.8,100.5,114.3c0,0,67.7,43.6,152.2,43.6c0,0,78.5,0,144.2,-50.6c0,0,43.4,-33.6,43.4,-75.3c0,0,0,-22.3,-19.4,-42.1c0,0,-19.4,-19.7,-41.8,-19.7c0,0,-17.1,0,-36.1,12.3c0,0,-19,12.3,-46.6,52.8c0,0,-27.6,40.6,-50.8,54.7c0,0,-23.1,14.2,-51.4,14.2c0,0,-34.3,0,-58.2,-18.3c0,0,-23.9,-18.2,-34.3,-56.6c0,0,-10.5,-38.3,-10.5,-197.7l0,-49.1l176,0l0,-53.8l-176,0l0,-448.8c0,0,0,-96,20.9,-121.5c0,0,27.6,-33,73.8,-33l61.8,0L471.3,0Z" 
	id="f0_22"
	transform="scale(0.001,-0.001)" />

	<path d="M397.8,24.5c0,0,74.5,0,120.7,58c0,0,60.4,75.9,60.4,213.6c0,0,0,156.3,-68.6,240.3c0,0,-47.7,58.1,-113.2,58.1c0,0,-35.8,0,-70.8,-17.9c0,0,-26.9,-13.4,-88.7,-80.3l0,-254.6c0,0,0,-82.6,6.7,-108.6c0,0,10.4,-43.2,51,-75.9c0,0,40.7,-32.7,102.5,-32.7ZM-4.8,-326.5l0,26.4l18.5,0c0,0,0.3,0,0.8,0c5.9,0,42.5,0.7,69.2,15.8c0,0,14.1,8.3,21.9,26.6c0,0,7.8,18.4,7.8,93.5l0,645.3c0,0,0,66.9,-5.9,84.9c0,0,-6,18.1,-19,27c0,0,-13,9,-35.3,9c0,0,-17.8,0,-45.3,-10.4L-0.9,615l210.2,85.1l28.3,0l0,-159.9c0,0,52.9,90.4,106.2,126.6c0,0,53.4,36.2,112.3,36.2c0,0,102.9,0,171.5,-80.5c0,0,84.2,-98.3,84.2,-256.3c0,0,0,-176.6,-101.4,-292.1c0,0,-83.5,-94.5,-210.3,-94.5c0,0,-55.1,0,-95.4,15.7c0,0,-29.8,11.1,-67.1,44.8l0,-208.2c0,0,0,-70.9,8.6,-90.1c0,0,8.5,-19.2,29.7,-30.5c0,0,21.3,-11.4,77.1,-11.4l0,-26.4Z" 
	id="f0_2c"
	transform="scale(0.001,-0.001)" />

	<path d="M18.7,-17.5c0,0,-29.8,0,-54.4,21.5c0,0,-18,16.5,-18,44.1c0,0,0,24.6,16.4,41.1c0,0,16.4,16.4,40.1,16.4c0,0,23.8,0,50.6,-23.9c0,0,19.3,-17.2,29.7,-17.2c0,0,9,0,23.1,11.9c0,0,35,28.1,95.3,121.2c0,0,60.2,93.1,78.8,134.5c0,0,-45.8,182.2,-49.5,192.7c0,0,-17.2,48.8,-44.7,69c0,0,-27.5,20.3,-81.1,20.3c0,0,-17.1,0,-39.5,-1.5l0,26.9l198.9,35.2c0,0,36.5,-38.6,55.1,-77.2c0,0,13.4,-27,43.9,-141.4l65.8,98.4c0,0,26.1,35.8,63.5,68.3c0,0,37.4,32.5,65.8,44.4c0,0,17.9,7.5,39.6,7.5c0,0,32.1,0,51.2,-17.2c0,0,19,-17.1,19,-41.7c0,0,0,-28.4,-11.2,-38.8c0,0,-21,-18.7,-48,-18.7c0,0,-15.7,0,-33.7,6.7c0,0,-35.3,11.9,-47.3,11.9c0,0,-18,0,-42.7,-20.9c0,0,-46.5,-38.8,-111,-150.1L436,149.7c0,0,14.3,-58.8,24.1,-70.3c0,0,9.8,-11.5,19.6,-11.5c0,0,15.9,0,36.9,17.1c0,0,41.5,34.2,70.9,89.3l26.1,-13.4c0,0,-47.1,-87.8,-119.7,-145.8c0,0,-41.1,-32.6,-69.5,-32.6c0,0,-41.9,0,-66.5,46.6c0,0,-15.5,29.1,-64.2,250.9C293.7,280,177.1,77.9,106.9,19.7c0,0,-45.6,-37.2,-88.2,-37.2Z" 
	id="f5_2k"
	transform="scale(0.001,-0.001)" />

	<path d="M27,354l0,61l804,0l0,-61Zm0,243l0,62l804,0l0,-62Z" 
	id="f0_x"
	transform="scale(0.001,-0.001)" />

	<path d="M379.3,29.3c0,0,40.2,0,83.4,36.2c0,0,43.2,36.2,65.5,121.3c0,0,34.3,128.3,34.3,361.9c0,0,0,173.1,-35.8,288.7c0,0,-26.7,85.8,-69.2,121.6c0,0,-30.5,24.7,-73.7,24.7c0,0,-50.6,0,-90.1,-45.6c0,0,-53.6,-61.9,-72.9,-194.7c0,0,-19.4,-132.8,-19.4,-261.9c0,0,0,-208.9,51.4,-341c0,0,42.4,-111.2,126.5,-111.2Zm-2.2,-46.8c0,0,-144.8,0,-241,170.7c0,0,-81.3,143.9,-81.3,346.8c0,0,0,173,52.2,298c0,0,52.2,124.9,138.8,186c0,0,67.1,48.5,138.8,48.5c0,0,116.4,0,208.9,-118.6c0,0,115.6,-146.9,115.6,-398.2c0,0,0,-176,-50.7,-299.1c0,0,-50.7,-123.1,-129.5,-178.6c0,0,-78.7,-55.5,-151.8,-55.5Z" 
	id="f0_k"
	transform="scale(0.001,-0.001)" />

	<path d="M411.3,-239.4c0,0,134.2,0,197.9,47.1c0,0,63.8,47.1,63.8,100.6c0,0,0,38.6,-38.1,54.9c0,0,-38.7,16.3,-153.6,19.3c0,0,-167.8,4.6,-258,17.5c0,0,-35,-37.8,-52.9,-70.6c0,0,-17.9,-32.7,-17.9,-60.2c0,0,0,-35.8,43.3,-62.5c0,0,74.6,-46.1,215.5,-46.1ZM379.8,257.2c0,0,56.6,0,93.1,42.3c0,0,36.5,42.4,36.5,133.1c0,0,0,118.3,-51.4,185.2c0,0,-38,49.1,-97.6,49.1c0,0,-55.1,0,-92.4,-43.9c0,0,-37.2,-43.9,-37.2,-134.6c0,0,0,-117.5,50.6,-182.2c0,0,38.8,-49,98.4,-49ZM345.1,-329.4c0,0,-144,0,-243.2,64.9c0,0,-55.9,37.2,-55.9,77.5c0,0,0,17.9,8.1,35.8c0,0,12.7,27.6,52.2,76.8c0,0,5.2,6.7,75.9,80.4c0,0,-38.7,23.1,-54.7,41.4c0,0,-16,18.4,-16,41.5c0,0,0,26.2,21.2,61.3c0,0,21.2,35.1,97.9,99.4c0,0,-62.7,30.5,-96.3,85.2c0,0,-33.6,54.8,-33.6,121c0,0,0,101.3,76.6,174.3c0,0,76.6,72.9,196.1,72.9c0,0,97.9,0,169.6,-47.9l144.9,0c0,0,32.2,0,37.4,-1.8c0,0,5.2,-1.9,7.5,-6.4c0,0,4.4,-6.8,4.4,-24c0,0,0,-19.5,-3.7,-27c0,0,-2.3,-3.7,-7.9,-6c0,0,-5.6,-2.2,-37.9,-2.2l-89,0c0,0,41.7,-53.6,41.7,-137c0,0,0,-95.2,-73.1,-163c0,0,-73.2,-67.7,-196.4,-67.7c0,0,-50.7,0,-103.7,15.2c0,0,-32.9,-28.4,-44.4,-49.7c0,0,-11.6,-21.2,-11.6,-36.1c0,0,0,-12.7,12.3,-24.7c0,0,12.3,-11.9,48.2,-17.1c0,0,20.9,-3.2,104.5,-5.6c0,0,153.7,-3.9,199.3,-11.1c0,0,69.4,-9.6,110.8,-51.3c0,0,41.4,-41.6,41.4,-102.6c0,0,0,-84.1,-79,-157.8c0,0,-116.4,-108.6,-303.6,-108.6Z" 
	id="f0_23"
	transform="scale(0.001,-0.001)" />

	<path d="M474.2,-326.5c0,0,-112.6,56.7,-187.9,132.7c0,0,-107.4,108.1,-165.6,254.9c0,0,-58.1,146.8,-58.1,304.8c0,0,0,231.1,114.1,421.5c0,0,114.1,190.5,297.5,272.5l0,-31.3c0,0,-92.1,-50.6,-151.3,-138.5c0,0,-59.1,-88,-88.4,-222.8c0,0,-29.2,-134.9,-29.2,-281.6c0,0,0,-159.5,24.8,-289.8c0,0,19.4,-102.7,47.1,-164.9c0,0,27.7,-62.2,74.6,-119.6c0,0,46.8,-57.4,122.4,-109.5l0,-28.4Z" 
	id="f0_c"
	transform="scale(0.001,-0.001)" />

	<path d="M552.8,-22.4L174.2,849.1c0,0,-29.1,67.4,-41.1,82.4c0,0,-18.6,23.2,-45.8,36.3c0,0,-27.3,13.1,-73.5,16.8l0,27.4l412.8,0l0,-27.4c0,0,-70.1,-6.7,-91,-23.8c0,0,-20.9,-17.2,-20.9,-44c0,0,0,-37.3,34.4,-116.4L606.7,207.3L845.8,792.9c0,0,35,86.6,35,120.1c0,0,0,21.7,-21.6,41.4c0,0,-21.6,19.8,-73.1,28c0,0,-3.7,0.8,-12.7,2.2l0,27.4l311,0l0,-27.4c0,0,-53.7,-9.7,-81.3,-34.4c0,0,-39.5,-36.7,-70.1,-112.4L580.7,-22.4Z" 
	id="f0_1m"
	transform="scale(0.001,-0.001)" />

	<path d="M19.6,0l0,26.4c0,0,45.5,0,71.7,14.2c0,0,14.9,7.5,23.9,28.5c0,0,9,21,9,85.4l0,619c0,0,0,116.8,-5.6,143.6c0,0,-5.6,26.9,-17.1,36.5c0,0,-11.5,9.7,-30.8,9.7c0,0,-15.6,0,-50.5,-11.9L9.8,977.8l204.3,83.1l34.3,0l0,-500c0,0,82.7,90.8,131.1,116.4c0,0,48.4,25.7,96.8,25.7c0,0,58.1,0,99.9,-32c0,0,41.7,-32.1,61.8,-100.6c0,0,14.2,-47.7,14.2,-174.4l0,-241.5c0,0,0,-65.2,10.4,-89.2c0,0,7.5,-17.9,25.5,-28.4c0,0,17.9,-10.5,65.8,-10.5L753.9,0L417.5,0l0,26.4l15.7,0c0,0,47.8,0,66.4,14.6c0,0,18.7,14.6,26.2,43.1c0,0,2.2,12,2.2,70.4l0,241.6c0,0,0,111.8,-11.5,146.9c0,0,-11.6,35,-36.8,52.5c0,0,-25.3,17.6,-61,17.6c0,0,-36.5,0,-75.9,-19.4c0,0,-39.4,-19.4,-94.4,-78.3l0,-360.9c0,0,0,-70.4,7.8,-87.7c0,0,7.8,-17.2,29.1,-28.8c0,0,21.3,-11.6,73.5,-11.6L358.8,0Z" 
	id="f0_24"
	transform="scale(0.001,-0.001)" />

	<path d="M342.2,-20.4c0,0,-116.3,0,-202.9,97.5c0,0,-86.5,97.6,-86.5,263.8c0,0,0,160.9,95.8,261.5c0,0,95.9,100.6,230.1,100.6c0,0,100.7,0,165.6,-53.4c0,0,64.9,-53.4,64.9,-110.9c0,0,0,-28.4,-18.3,-45.9c0,0,-18.3,-17.6,-51,-17.6c0,0,-44,0,-66.3,28.4c0,0,-12.7,15.7,-16.8,59.8c0,0,-4.1,44.2,-30.2,67.3c0,0,-26.1,22.5,-72.2,22.5c0,0,-74.6,0,-120,-55.2c0,0,-60.4,-73,-60.4,-192.9c0,0,0,-122.2,60.1,-215.7c0,0,60,-93.6,162.1,-93.6c0,0,73.1,0,131.2,50.1c0,0,41,34.4,79.8,125l21.5,-10c0,0,-27.6,-135.5,-108.2,-208.5c0,0,-80.5,-72.8,-178.3,-72.8Z" 
	id="f0_1z"
	transform="scale(0.001,-0.001)" />

	<path d="M34.6,-326.5l0,28.4c0,0,92.1,51.4,151.6,138.9c0,0,59.6,87.6,88.4,222.7c0,0,28.9,135.2,28.9,281.9c0,0,0,158.8,-24.8,289.9c0,0,-18.7,102.8,-46.8,164.6c0,0,-28.1,61.8,-74.5,119.2c0,0,-46.4,57.4,-122.8,109.5l0,31.3c0,0,113.3,-55.9,188.6,-131.9c0,0,106.7,-108.9,164.8,-255.3c0,0,58.2,-146.5,58.2,-305.3c0,0,0,-231.1,-113.7,-421.4c0,0,-113.7,-190.5,-297.9,-272.5Z" 
	id="f0_d"
	transform="scale(0.001,-0.001)" />

	<path d="M237.6,-17.5c0,0,-102.1,0,-139.1,25.2C98.5,7.7,61.6,33,61.6,62c0,0,0,21.6,17.5,38c0,0,17.5,16.4,42.2,16.4c0,0,18.6,0,38,-6c0,0,12.7,-3.7,57.4,-27.3c0,0,44.8,-23.5,62,-27.9c0,0,27.5,-8.3,58.9,-8.3c0,0,76.1,0,132.4,59.1c0,0,56.3,59,56.3,139.6c0,0,0,59,-26.1,115.1c0,0,-19.3,41.8,-42.4,63.4c0,0,-32.1,29.9,-87.9,54.2c0,0,-55.9,24.3,-114,24.3l-23.8,0l0,22.5c0,0,58.7,7.4,117.9,42.4c0,0,59.2,35,86,84.1c0,0,26.8,49.2,26.8,108c0,0,0,76.7,-48.1,124c0,0,-48.1,47.3,-119.7,47.3c0,0,-115.6,0,-193.2,-123.4L77.2,819.4c0,0,43.3,102.1,109.4,157.6c0,0,66,55.5,164.5,55.5c0,0,121.6,0,186.6,-79c0,0,49.2,-59,49.2,-126.1c0,0,0,-110.4,-138.8,-228.2c0,0,93.2,-36.5,141,-104.4c0,0,47.7,-67.9,47.7,-159.6c0,0,0,-131.3,-83.6,-227.5c0,0,-108.9,-125.2,-315.6,-125.2Z" 
	id="f0_n"
	transform="scale(0.001,-0.001)" />

	<path d="M61.6,-124.1l0,392.3c0,0,0,229.8,55.9,451.4c0,0,47.8,190.2,134.7,334.2c0,0,86.9,144,203.3,242.4c0,0,85,72.4,194.7,118.7l17.6,-15.7c0,0,-210.5,-144.7,-334.5,-339.4c0,0,-98.5,-156,-148.9,-373.8C184.4,686,134,468.2,134,283.1l0,-407.2Z" 
	id="f3_4o"
	transform="scale(0.001,-0.001)" />

	<path d="M650.2,-124.1c0,0,-179.8,75.4,-319.6,247.2c0,0,-139.9,172,-204.5,417.4c0,0,-64.5,245.5,-64.5,481.2l0,393.2l72.4,0L134,1007c0,0,0,-235.7,63,-458.6c0,0,63.1,-223,188.6,-391.5c0,0,108.2,-145.4,282.2,-265.3l-17.6,-15.7Z" 
	id="f3_4q"
	transform="scale(0.001,-0.001)" />

	<path d="M61,-124l0,1538l72,0l0,-1538Z" 
	id="f3_4p"
	transform="scale(0.001,-0.001)" />

	<path d="M616.7,-124.1l0,407.2c0,0,0,235.8,-62.7,458.9c0,0,-62.7,223,-188.1,391.6c0,0,-108.2,146.3,-282.1,265.6l17.6,15.7c0,0,179.5,-75.4,319.1,-247.7c0,0,139.7,-172.4,204.1,-417.4c0,0,64.4,-245.1,64.4,-481.6l0,-392.3Z" 
	id="f3_54"
	transform="scale(0.001,-0.001)" />

	<path d="M101.4,-124.1l-17.6,15.7c0,0,210.5,144.5,334.4,339.1c0,0,98.5,155.9,148.5,373.6c0,0,50,217.8,50,402.7l0,407.9l72.3,0l0,-393.2c0,0,0,-229.8,-55.9,-450.6c0,0,-47.6,-191,-134.4,-335C498.7,236.1,412,92.2,295,-6.2c0,0,-84.1,-72.4,-193.6,-117.9Z" 
	id="f3_56"
	transform="scale(0.001,-0.001)" />

	<path d="M616,-124l0,1538l73,0l0,-1538Z" 
	id="f3_55"
	transform="scale(0.001,-0.001)" />

	<path d="M0,214l0,74l783,0l0,-74ZM0,493l0,73l783,0l0,-73Z" 
	id="f3_x"
	transform="scale(0.001,-0.001)" />

	<path d="M396.7,34.2c0,0,67.6,0,125.8,74.4c0,0,58.3,74.4,58.3,216.4c0,0,0,130.9,-58.3,201.2c0,0,-58.2,70.3,-132.5,70.3c0,0,-39.3,0,-78.7,-20.1c0,0,-29.6,-14.9,-75.7,-59.5l0,-407.5c0,0,37.9,-37.2,78.3,-56.2c0,0,40.5,-19,82.8,-19ZM358.1,-20.4c0,0,-59.6,0,-121.1,21.6c0,0,-61.5,21.6,-125.5,65l0,707.3c0,0,0,116.6,-5.6,143.5c0,0,-5.6,26.9,-17.5,36.6c0,0,-11.9,9.7,-29.8,9.7c0,0,-20.8,0,-52.1,-11.9L-3.8,977.8L202,1060.9l33.6,0l0,-496.4c0,0,98.9,138.5,213.4,138.5c0,0,104.8,0,182.8,-89.8c0,0,78.1,-89.8,78.1,-245.5c0,0,0,-181.8,-120.8,-292.9c0,0,-103.5,-95.2,-231,-95.2Z" 
	id="f0_1y"
	transform="scale(0.001,-0.001)" />

	<path d="M545.5,30.3c0,0,142.4,0,235.2,111.1c0,0,92.9,111,92.9,350.2c0,0,0,259.4,-102.2,386.8c0,0,-82,101.3,-226.6,101.3c0,0,-135.8,0,-217.8,-100.6c0,0,-102.1,-125.2,-102.1,-366.6c0,0,0,-247.4,105.9,-380.8c0,0,81.2,-101.4,214.7,-101.4ZM547,-22.4c0,0,-208.9,0,-351.1,148.2c0,0,-142.1,148.4,-142.1,383.9c0,0,0,240.8,164.1,392.8c0,0,142.5,132,341,132c0,0,197,0,341.4,-149.5c0,0,144.4,-149.4,144.4,-373c0,0,0,-230.4,-145.5,-382.4c0,0,-145.5,-152,-352.2,-152Z" 
	id="f0_1f"
	transform="scale(0.001,-0.001)" />

	<path d="M23.5,0l0,26.4c0,0,46.9,0,65.6,10.1c0,0,18.6,10.1,28.3,32.2c0,0,9.7,22.1,9.7,85.8l0,261.1c0,0,0,112.9,-6.7,145.8c0,0,-5.3,24.7,-16.5,34c0,0,-11.3,9.3,-30.7,9.3c0,0,-21,0,-50.2,-11.2L11.7,619.9L219,703l32.3,0l0,-145.8c0,0,74.5,74.8,87.9,86c0,0,33.5,28.4,72.2,44.1c0,0,38.7,15.7,76.7,15.7c0,0,64.1,0,110.3,-37.4c0,0,46.1,-37.4,61.8,-108.4c0,0,76.8,89.7,129.7,117.8c0,0,53,28,108.9,28c0,0,54.4,0,96.5,-27.9c0,0,42.2,-28,66.8,-91.3c0,0,16.4,-43.3,16.4,-135.7l0,-293.6c0,0,0,-64.4,9.7,-88.4c0,0,7.4,-16.5,27.5,-28.1c0,0,20.1,-11.6,65.5,-11.6l0,-26.4L843.8,0l0,26.4l14.2,0c0,0,44.1,0,68.7,17.2c0,0,17.1,12,24.6,38.2c0,0,3,12.8,3,72.7l0,293.3c0,0,0,83.4,-20.1,117.6c0,0,-29,47.7,-93.1,47.7c0,0,-39.4,0,-79.3,-19.8c0,0,-39.8,-19.7,-96.4,-73.3l-1.5,-8.2l2,-32.1l0,-325.2c0,0,0,-70.4,7.7,-87.7c0,0,7.8,-17.2,29.3,-28.8c0,0,21.5,-11.6,73.5,-11.6L776.4,0L431.2,0l0,26.4c0,0,56.4,0,77.5,13.5c0,0,21.1,13.5,29.3,40.4c0,0,3.7,12.8,3.7,74.2l0,293.3c0,0,0,83.3,-24.5,120.1c0,0,-32.7,48.1,-91.4,48.1c0,0,-40.1,0,-79.5,-21.8c0,0,-61.6,-33,-95,-74.2l0,-365.5c0,0,0,-67.4,9.2,-87.7c0,0,9.3,-20.2,27.5,-30.3c0,0,18.2,-10.1,73.8,-10.1L361.8,0Z" 
	id="f0_29"
	transform="scale(0.001,-0.001)" />

	<path d="M383.6,85.1c0,0,44.1,0,78.4,19c0,0,34.4,19,68,62.2l0,320.3c0,0,0,55.8,-14.6,87.9c0,0,-14.5,32,-51.9,54.4c0,0,-37.3,22.3,-84.4,22.3c0,0,-83.6,0,-143.3,-70.8c0,0,-59.8,-70.7,-59.8,-214.5c0,0,0,-137.8,60.9,-209.3c0,0,60.8,-71.5,146.7,-71.5Zm35.9,-411.6l0,26.4l14.2,0c0,0,41.8,0,63.4,12.1c0,0,15,8.3,23.9,29.8c0,0,9,21.5,9,83.3l0,294.3C530,119.4,462.1,38.5,411.3,9c0,0,-50.7,-29.4,-105.2,-29.4c0,0,-99.3,0,-177.3,90c0,0,-78,90.2,-78,241.5c0,0,0,173.6,103,282.7c0,0,102.9,109.2,248.3,109.2c0,0,42.6,0,78.4,-11.8c0,0,35.8,-11.9,64.1,-35.5c0,0,43.4,20.7,83.1,47.3l25.5,0l0,-877.9c0,0,0,-66.4,8.8,-85.2c0,0,8.9,-18.9,27.9,-29.4c0,0,18.9,-10.6,73.7,-10.6l0,-26.4Z" 
	id="f0_2d"
	transform="scale(0.001,-0.001)" />

	<path d="M25.4,0l0,26.4c0,0,26.9,3.7,47.1,18.7c0,0,28.4,21.7,95.7,110.7l143.2,190L181.9,535.1c0,0,-55.3,80.8,-85.5,101.4c0,0,-30.3,20.6,-75.9,20.6l0,26.4l320.7,0l0,-26.4c0,0,-30.3,0,-42.5,-10.6c0,0,-12.2,-10.6,-12.2,-27.9c0,0,0,-18.1,26.8,-55.9c0,0,8.1,-11.6,24.3,-36.2l48.7,-78.1L441.9,525c0,0,55.1,74.3,54.8,94.1c0,0,0,15.9,0.1,27c0,0,0,11,0.2,11l0,26.4l176.7,0l0,-26.4c0,0,-36.8,-2.3,-63.9,-20.2c0,0,-36.8,-25.5,-100.1,-110.9L416.5,402.1L586.7,155.8c0,0,62.8,-90.5,89.7,-108.8c0,0,27,-18.4,69.6,-20.6L746,0L423,0l0,26.4c0,0,33.8,0,52.6,14.9c0,0,14.3,10.5,14.3,27.6c0,0,0,17.2,-48.3,86.7L341.2,302.2L231.7,156.6c0,0,-49.8,-68.5,-49.8,-81.3c0,0,0,-18.1,16.8,-32.7c0,0,16.9,-14.7,50.6,-16.2L249.3,0Z" 
	id="f0_2k"
	transform="scale(0.001,-0.001)" />

	<path d="M478.9,469.2c0,0,-3.7,65.7,-15.6,92.5c0,0,-18.7,41.8,-55.6,65.7c0,0,-36.9,23.8,-77.2,23.8c0,0,-61.9,0,-110.8,-48.1c0,0,-48.9,-48.1,-57.1,-133.9ZM355.1,-20.8c0,0,-123.1,0,-210.7,95.8c0,0,-87.7,95.8,-87.7,257.7c0,0,0,175.3,89.9,273.4c0,0,89.9,98.1,225.6,98.1c0,0,114.9,0,188.8,-75.7c0,0,73.8,-75.7,73.8,-202.5l-472.2,0c0,0,-0.7,-152.2,73.9,-238.8c0,0,74.6,-86.5,175.3,-86.5c0,0,67.1,0,116.7,36.9c0,0,49.6,37,83.2,126.5l23.1,-14.9c0,0,-15.6,-102.2,-91,-186.1c0,0,-75.3,-83.9,-188.7,-83.9ZM331.4,779.3l78.3,257.4l167.1,0L356.7,779.3Z" 
	id="f0_35"
	transform="scale(0.001,-0.001)" />

	<path d="M-165.6,-329.4c0,0,-45.2,0,-76.9,26.8c0,0,-23.3,18.6,-23.3,48.4c0,0,0,23.8,19,41.3c0,0,19,17.5,46.6,17.5c0,0,20.2,0,34,-12.7c0,0,13.8,-12.7,13.8,-29.1c0,0,0,-16.4,-15.6,-30.6c0,0,-11.8,-10.4,-11.8,-15.6c0,0,0,-6.7,5.2,-10.5c0,0,6.8,-5.2,21,-5.2c0,0,32.2,0,67.8,20.2c0,0,35.6,20.1,63.3,60c0,0,27.6,39.9,52.3,115.3c0,0,10.9,31.2,58.5,205.4L230.8,608.2L87,608.2l10.7,48.9c0,0,68.2,0,95.4,8.5c0,0,27.1,8.6,49.7,32.9c0,0,22.7,24.2,54.2,90.7c0,0,42.4,89.5,81.2,138.8c0,0,53.1,66.4,111.6,99.7c0,0,58.5,33.2,110.2,33.2c0,0,54.6,0,87.6,-28.7c0,0,33.1,-28.6,33.1,-62.1c0,0,0,-26,-17.2,-43.9c0,0,-17.2,-17.8,-44,-17.8c0,0,-23.1,0,-37.7,13.4c0,0,-14.6,13.4,-14.6,31.9c0,0,0,11.9,9.8,29.4c0,0,9.8,17.5,9.8,23.4c0,0,0,10.5,-6.2,15.7c0,0,-8.9,7.4,-26.1,7.4c0,0,-43.2,0,-77.6,-30.6c0,0,-46,-40.7,-82.4,-127.2c0,0,-18.5,-45.3,-73.9,-214.7l109.7,0L456.9,608.2l-110.3,0L258,279.2C258,279.2,199.1,65,143.3,-52.3c0,0,-79.1,-165.7,-170.2,-228.8c0,0,-69.3,-48.3,-138.7,-48.3Z" 
	id="f5_22"
	transform="scale(0.001,-0.001)" />

	<path d="M-12,338l0,55l788,0l0,-55Z" 
	id="f4_4y"
	transform="scale(0.001,-0.001)" />

	<path d="M472.6,52.8c0,0,172.9,0,286.9,121.6c0,0,114.1,121.5,114.1,329.6c0,0,0,209.6,-114,330.5c0,0,-114.1,120.8,-293,120.8c0,0,-67,0,-152.7,-21.6l0,-860c0,0,94.6,-20.9,158.7,-20.9ZM26.4,0l0,27.4l37.8,0c0,0,63.9,0,90.6,41c0,0,16.3,24.7,16.3,110.5l0,654.2c0,0,0,94.8,-20.8,118.7c0,0,-28.9,32.8,-86.1,32.8l-37.8,0l0,27.4l411.5,0c0,0,226.6,0,344.7,-51.5c0,0,118.2,-51.5,190.1,-171.6c0,0,72,-120.2,72,-277.7c0,0,0,-211.2,-128.2,-353C916.5,158.2,772.6,0,478.1,0Z" 
	id="f0_14"
	transform="scale(0.001,-0.001)" />

	<path d="M82.1,-254.1l0,32.8c0,0,76.5,25.4,118.5,78.8c0,0,41.9,53.4,41.9,113.1c0,0,0,14.2,-6.7,23.9c0,0,-5.2,6.6,-10.4,6.6c0,0,-8.1,0,-35.6,-14.8c0,0,-13.4,-6.7,-28.2,-6.7c0,0,-36.4,0,-57.9,21.5c0,0,-21.6,21.6,-21.6,59.7c0,0,0,36.6,28,62.7c0,0,27.9,26.1,68.1,26.1c0,0,49.2,0,87.5,-42.9c0,0,38.4,-42.9,38.4,-113.7c0,0,0,-76.9,-53.3,-143c0,0,-53.2,-66,-168.7,-104.1Z" 
	id="f0_g"
	transform="scale(0.001,-0.001)" />

	<path d="M27,354l0,61l804,0l0,-61Zm0,243l0,62l804,0l0,-62Z" 
	id="f4_x"
	transform="scale(0.001,-0.001)" />

	<path d="M379.3,29.3c0,0,40.2,0,83.4,36.2c0,0,43.2,36.2,65.5,121.3c0,0,34.3,128.3,34.3,361.9c0,0,0,173.1,-35.8,288.7c0,0,-26.7,85.8,-69.2,121.6c0,0,-30.5,24.7,-73.7,24.7c0,0,-50.6,0,-90.1,-45.6c0,0,-53.6,-61.9,-72.9,-194.7c0,0,-19.4,-132.8,-19.4,-261.9c0,0,0,-208.9,51.4,-341c0,0,42.4,-111.2,126.5,-111.2Zm-2.2,-46.8c0,0,-144.8,0,-241,170.7c0,0,-81.3,143.9,-81.3,346.8c0,0,0,173,52.2,298c0,0,52.2,124.9,138.8,186c0,0,67.1,48.5,138.8,48.5c0,0,116.4,0,208.9,-118.6c0,0,115.6,-146.9,115.6,-398.2c0,0,0,-176,-50.7,-299.1c0,0,-50.7,-123.1,-129.5,-178.6c0,0,-78.7,-55.5,-151.8,-55.5Z" 
	id="f4_k"
	transform="scale(0.001,-0.001)" />

	<path d="M82.1,-254.1l0,32.8c0,0,76.5,25.4,118.5,78.8c0,0,41.9,53.4,41.9,113.1c0,0,0,14.2,-6.7,23.9c0,0,-5.2,6.6,-10.4,6.6c0,0,-8.1,0,-35.6,-14.8c0,0,-13.4,-6.7,-28.2,-6.7c0,0,-36.4,0,-57.9,21.5c0,0,-21.6,21.6,-21.6,59.7c0,0,0,36.6,28,62.7c0,0,27.9,26.1,68.1,26.1c0,0,49.2,0,87.5,-42.9c0,0,38.4,-42.9,38.4,-113.7c0,0,0,-76.9,-53.3,-143c0,0,-53.2,-66,-168.7,-104.1Z" 
	id="f4_g"
	transform="scale(0.001,-0.001)" />

	<path d="M57.7,0l0,26.4c0,0,47.4,0,64.8,9.7c0,0,17.3,9.8,27.1,32.2c0,0,9.8,22.5,9.8,86.2l0,620.9c0,0,0,115.6,-5.2,142.1c0,0,-5.3,26.5,-16.8,36.1c0,0,-11.6,9.7,-29.5,9.7c0,0,-19.4,0,-49.2,-11.9L46,977.8l203.9,83.1l33.7,0l0,-906.4c0,0,0,-64.4,9.3,-85.4c0,0,9.3,-21,28.7,-31.8c0,0,19.4,-10.9,72.4,-10.9L394,0Z" 
	id="f4_28"
	transform="scale(0.001,-0.001)" />

	<path d="M16.2,-121.1l0,69.4l804.7,0l0,-69.4Zm2,304.9l0,76.1L727,553.9L18.2,848.9l0,76.1L819,585.7l0,-62.6L18.2,183.8Z" 
	id="f4_46"
	transform="scale(0.001,-0.001)" />

	<path d="M16.6,0l0,26.4c0,0,52.3,0,77.7,16.6c0,0,18.7,12,26.1,38.4c0,0,3.8,12.8,3.8,73.1l0,264c0,0,0,119.7,-4.8,142.5c0,0,-4.9,22.8,-17.9,33.3c0,0,-13,10.4,-32.3,10.4c0,0,-23,0,-52,-11.2L9.8,619.9L216.9,703l31.5,0l0,-154c0,0,85.5,154,175.6,154c0,0,40.9,0,67.7,-25c0,0,26.8,-25.1,26.8,-58c0,0,0,-29.1,-19.3,-49.3c0,0,-19.4,-20.2,-46.2,-20.2c0,0,-26.1,0,-58.4,25.9c0,0,-32.4,25.9,-48.1,25.9c0,0,-13.3,0,-29,-14.9c0,0,-33.4,-30.7,-69.1,-101l0,-327c0,0,0,-56.6,14.1,-85.7c0,0,9.7,-20.1,34.3,-33.7c0,0,24.6,-13.6,70.8,-13.6L367.6,0Z" 
	id="f4_2e"
	transform="scale(0.001,-0.001)" />

	<path d="M528.9,508.8c0,0,64.2,0,101.4,27.6c0,0,37.4,27.6,52.3,75.7c0,0,14.9,48.1,14.9,119c0,0,0,106.6,-39.9,158.9c0,0,-39.9,52.2,-119.7,52.2c0,0,-51.5,0,-69.4,-1.5l0,-431.9ZM385.7,65.6l0,887l-125.4,0l0,-887Zm595.3,0l0,7.5c0,0,-15,14.9,-32.8,42.9c0,0,-18,28,-29.1,49.6l-70.9,135c0,0,-35.1,66.4,-70.9,104.5c0,0,-35.8,38,-90.2,57.4l0,24.6c0,0,227.5,62,227.5,256.7c0,0,0,93.2,-64.2,149.9c0,0,-64.1,56.7,-190.2,73.8l-3.7,-7.4c0,0,65.6,-40.3,94.7,-97.7c0,0,29.1,-57.5,29.1,-135.1c0,0,0,-108.1,-43.6,-170c0,0,-43.7,-62,-140.7,-91.1l0,-8.9c0,0,18,-12,32.1,-27.2c0,0,14.2,-15.3,26.1,-34.4c0,0,12,-19,34.3,-61.5L776.6,166.4c0,0,15.6,-31.4,30.6,-58.2c0,0,14.9,-26.9,25.3,-42.6ZM90.3,0l0,36.6c0,0,46.2,11.9,61.9,26.4c0,0,15.6,14.6,20.5,41.4c0,0,4.8,26.9,4.8,82.1l0,645.3c0,0,0,51.5,-3.7,75c0,0,-3.7,23.4,-12.3,36.5c0,0,-8.6,13.1,-22.7,20.9c0,0,-14.2,7.8,-48.5,17.5l0,36.6l499.8,0c0,0,152.2,0,238.7,-31c0,0,86.5,-30.9,129.4,-91.7c0,0,42.9,-60.8,42.9,-151.8c0,0,0,-185.8,-199.2,-273.1l0,-7.4c0,0,38.1,-20.2,68.7,-56.7c0,0,30.5,-36.6,72.3,-112.7L998.1,192.5c0,0,19.4,-35.1,34.3,-59.7c0,0,15,-24.6,31.4,-44.8c0,0,16.4,-20.1,33.5,-32.1c0,0,17.2,-11.9,40.3,-19.3l0,-36.6L775.1,0c0,0,-10.5,14.2,-21.6,33.2c0,0,-11.2,19,-32.9,60.1L611,305.1c0,0,-16.4,30.6,-34,63.4c0,0,-17.5,32.8,-29.1,45.1c0,0,-11.5,12.4,-24.6,17.6c0,0,-13.1,5.2,-41.4,5.2l-13.4,0l0,-247.7c0,0,0,-53.7,4.1,-77.9c0,0,4.1,-24.3,12.3,-36.6c0,0,8.2,-12.3,22.7,-20.5c0,0,14.6,-8.2,48.2,-17.1L555.8,0Z" 
	id="f6_116"
	transform="scale(0.001,-0.001)" />

	<path d="M397.5,0c0,0,-131.1,0,-212.7,38.8c0,0,-81.7,38.8,-133.1,123.8c0,0,-51.4,85.1,-51.4,179.9c0,0,0,144,102.8,242.5c0,0,102.9,98.5,292.2,98.5l298.8,0l0,-72.4l-307.5,0c0,0,-98.3,0,-166,-31.9c0,0,-67.8,-32,-105,-87.8c0,0,-26.1,-40.1,-41,-113l619.5,0l0,-74.3l-619.5,0c0,0,30.6,-119.6,103.6,-175.7c0,0,73.1,-56,209.5,-56l306.4,0L694.1,0Z" 
	id="f3_40"
	transform="scale(0.001,-0.001)" />

	<path d="M80,334l0,116l346,0l0,-116Z" 
	id="f7_dj"
	transform="scale(0.001,-0.001)" />

	<path d="M431.9,51.5c0,0,56,0,94,19.4c0,0,38.1,19.4,61.6,53.3c0,0,23.5,34,33.5,79.8c0,0,10.1,45.9,10.1,99.6c0,0,0,110.4,-45.5,172c0,0,-45.5,61.5,-128.3,61.5c0,0,-36.6,0,-70.5,-8.2c0,0,-33.9,-8.2,-63.8,-23.9c0,0,-29.8,-15.6,-58.2,-39.5c0,0,-8.9,-8.2,-13.4,-17.2c0,0,-7.5,-14.1,-9.7,-35c0,0,-2.2,-20.9,-2.2,-70.1c0,0,0,-142.5,47.7,-217.1c0,0,47.8,-74.6,144.7,-74.6Zm-5.2,-63.3c0,0,-163.4,0,-246.5,101.3C180.2,89.5,97,191,97,388.7c0,0,0,132.7,41.8,248.4c0,0,41.7,115.6,118.6,201.8c0,0,76.8,86.1,178.2,135.7c0,0,101.5,49.6,213.4,55.6l30.6,-41l0,-36.6c0,0,-114.9,0,-203.7,-49.2c0,0,-88.7,-49.2,-147.3,-144.7c0,0,-58.5,-95.5,-82.4,-226.8l7.4,-3c0,0,62.7,44.8,123.5,65.7c0,0,60.8,20.8,131.7,20.8c0,0,84.3,0,143.6,-36.9c0,0,59.3,-36.9,89.1,-103.7c0,0,29.8,-66.7,29.8,-156.3c0,0,0,-96.9,-37.2,-171.2c0,0,-37.4,-74.2,-115.3,-116.7c0,0,-78,-42.4,-192.1,-42.4Z" 
	id="f7_op"
	transform="scale(0.001,-0.001)" />

	<path d="M472.2,381.2l0,185.7c0,0,0,70.2,2.2,157.1c0,0,2.3,86.9,5.3,130.9l-7.5,0L180.5,391.6l0,-10.4ZM384.9,0l0,36.6c0,0,46.3,11.9,61.9,26.4c0,0,15.7,14.6,20.5,41.4c0,0,4.9,26.9,4.9,82.1l0,122.3l-414.8,0l0,56l436.4,658.7l106.7,0l0,-642.3l15.7,0c0,0,43.3,0,61.9,6.3c0,0,18.6,6.4,31,22.4c0,0,12.3,16.1,22.7,52.6l56.7,0l-9,-153.7l-179,0l0,-122.3c0,0,0,-50,3.4,-73.1c0,0,3.3,-23.1,11.2,-36.6c0,0,7.8,-13.4,23.1,-22.3c0,0,15.3,-9,49.6,-17.9L687.8,0Z" 
	id="f7_on"
	transform="scale(0.001,-0.001)" />

	<path d="M96.2,0l0,35.8c0,0,32.1,78.3,86.6,160.4c0,0,54.4,82.1,154.4,193.2c0,0,86.5,95.5,124.6,144.7c0,0,41.7,53.7,62.3,92.9c0,0,20.5,39.2,29.4,73.9c0,0,9,34.6,9,69.7c0,0,0,56,-17.9,98.8c0,0,-17.9,42.9,-54.9,67.6c0,0,-36.9,24.6,-92.8,24.6c0,0,-139.5,0,-188,-155.2l-90.3,0l0,143.2c0,0,90.3,42.6,169,61.6c0,0,78.7,19,141.3,19c0,0,138.8,0,209.7,-60.8c0,0,70.8,-60.8,70.8,-176.4c0,0,0,-39.6,-7.8,-72.7c0,0,-7.8,-33.2,-24.6,-65.7c0,0,-16.8,-32.4,-45.1,-69.7c0,0,-28.4,-37.3,-62.7,-75.8c0,0,-34.3,-38.4,-118.6,-127.9c0,0,-141.8,-149.9,-208.2,-261.8l281.3,0c0,0,36.5,0,58.9,4.4c0,0,22.4,4.5,35.8,15c0,0,13.4,10.4,21.3,27.2c0,0,7.8,16.8,19.8,51.8l63.4,0L710.2,0Z" 
	id="f7_ol"
	transform="scale(0.001,-0.001)" />

	<path d="M426.7,51.5c0,0,90.3,0,133.9,107c0,0,43.7,107.1,43.7,331.6c0,0,0,171.6,-22.4,277.9c0,0,-22.4,106.3,-62.3,152.5c0,0,-39.9,46.3,-96.6,46.3c0,0,-51.5,0,-86.2,-30.6c0,0,-34.7,-30.6,-55.9,-88c0,0,-21.3,-57.5,-30.3,-139.9c0,0,-8.9,-82.4,-8.9,-186.1c0,0,0,-243.2,45.1,-357c0,0,45.2,-113.7,139.9,-113.7ZM414.8,-11.8c0,0,-161.2,0,-239.9,126.7c0,0,-78.7,126.8,-78.7,384.9c0,0,0,137.3,24.3,237.2c0,0,24.2,100,67.9,165.3c0,0,43.6,65.2,104.8,96.6c0,0,61.1,31.3,133.5,31.3c0,0,163.4,0,243.2,-126.1c0,0,79.8,-126,79.8,-381.2c0,0,0,-264,-85.4,-399.4c0,0,-85.4,-135.3,-249.5,-135.3Z" 
	id="f7_oj"
	transform="scale(0.001,-0.001)" />

	<path d="M426.7,51.5c0,0,61.2,0,104.8,25c0,0,43.6,25,66.4,74.2c0,0,22.8,49.2,22.8,116.4c0,0,0,71.6,-24.7,123.4c0,0,-24.6,51.9,-69.3,79.1c0,0,-44.8,27.2,-103.7,27.2c0,0,-55.2,0,-92.9,-17.1c0,0,-37.7,-17.2,-61.2,-46.3c0,0,-23.5,-29.1,-33.5,-68.2c0,0,-10.1,-39.2,-10.1,-84c0,0,0,-48.5,11.2,-90.6c0,0,11.2,-42.1,35.4,-72.7c0,0,24.3,-30.6,62.3,-48.5c0,0,38,-17.9,92.5,-17.9Zm1.5,507.2c0,0,61.9,0,104.1,24.3c0,0,42.1,24.2,62.6,70.9c0,0,20.5,46.6,20.5,107.8c0,0,0,67.1,-24.2,113.7c0,0,-24.3,46.6,-66.8,69c0,0,-42.5,22.4,-97.7,22.4c0,0,-94,0,-143.6,-51.1c0,0,-49.6,-51.1,-49.6,-145.1c0,0,0,-44,10.4,-82.8c0,0,10.5,-38.8,33.6,-67.1c0,0,23.1,-28.4,60.1,-45.2c0,0,36.9,-16.8,90.6,-16.8ZM414.8,-11.8c0,0,-99.3,0,-174.2,33.1c0,0,-75,33.2,-116.4,96.9c0,0,-41.4,63.8,-41.4,150.4c0,0,0,64.9,22.4,112.6c0,0,22.4,47.7,58.5,78.7c0,0,36.2,31,91.4,56.3l-1.5,9.7c0,0,-160.3,69.4,-160.3,238c0,0,0,76.8,42.1,137.2c0,0,42.1,60.5,120.1,94.8c0,0,78,34.3,172.7,34.3c0,0,107.4,0,180.5,-30.2c0,0,73.1,-30.2,110.1,-87.3c0,0,36.9,-57.1,36.9,-136.9c0,0,0,-82,-40.3,-141.3c0,0,-40.3,-59.4,-124.6,-96.6l1.5,-9.7c0,0,84.3,-32.9,127.6,-95.9c0,0,43.2,-63,43.2,-151.8c0,0,0,-87.3,-41.7,-153.7c0,0,-41.8,-66.4,-121.3,-102.5c0,0,-79.4,-36.1,-185.3,-36.1Z" 
	id="f7_or"
	transform="scale(0.001,-0.001)" />

	<path d="M381.2,-11.8c0,0,-92.5,0,-157.4,38.3c0,0,-64.9,38.4,-97.7,111.1c0,0,-32.8,72.8,-32.8,175c0,0,0,53.7,7.4,104.4c0,0,9,62.7,28.4,136.5c0,0,24.6,91.8,61.9,167.1c0,0,40.3,79.8,91.7,141c0,0,48.5,56.7,105.2,94.8c0,0,52.2,35,112.7,54.4c0,0,60.4,19.4,128.3,19.4c0,0,67.8,0,125.7,-8.2c0,0,57.8,-8.2,128.7,-29.8L838.5,790l-71.6,0c0,0,-6,91.8,-39.9,132.4c0,0,-34,40.7,-109.3,40.7c0,0,-62.7,0,-117.9,-37c0,0,-55.2,-36.9,-104.4,-106.6c0,0,-49.3,-69.8,-85.8,-163.4c0,0,-36.6,-93.6,-56,-191c0,0,-19.4,-97.3,-19.4,-175.7c0,0,0,-121.6,39.9,-178.6c0,0,40,-57.1,125,-57.1c0,0,55.9,0,97.7,16.8c0,0,41.8,16.8,78.3,56.7c0,0,36.6,39.9,72.4,111.5l71.6,0L673.6,26.9c0,0,-76.1,-20.9,-146.9,-29.8c0,0,-70.9,-8.9,-145.5,-8.9Z" 
	id="f8_7"
	transform="scale(0.001,-0.001)" />

	<path d="M-141.6,-333.3c0,0,-32.8,0,-59,7.4l17.2,65.7c0,0,17.9,-6,52.2,-6c0,0,39.6,0,64.6,10.4c0,0,24.9,10.5,46.2,34c0,0,21.1,23.5,40.2,68.6c0,0,19,45.1,36.1,119l151.5,672l-90.3,0l9,38.1c0,0,36.5,3.7,51.4,10c0,0,15,6.4,24.3,17.2c0,0,9.3,10.8,16.8,30.6c0,0,7.4,19.7,21.6,68.2c0,0,39.6,134.3,122,201.8c0,0,82.4,67.5,210,67.5c0,0,73.1,0,126,-11.9l-29,-126.8l-65.7,0c0,0,-10.4,42.5,-27.2,61.2c0,0,-16.8,18.6,-49.6,18.6c0,0,-42.6,0,-72.4,-23.1c0,0,-29.8,-23.2,-51.1,-69.8c0,0,-21.3,-46.6,-39.2,-124.9L345.4,713.2l170.8,0L499.8,637.8l-171.6,0L189.5,-12.6c0,0,-25.4,-119.3,-69.8,-189.4c0,0,-44.3,-70.2,-107.8,-100.8c0,0,-63.3,-30.5,-153.5,-30.5Z" 
	id="f8_3t"
	transform="scale(0.001,-0.001)" />

	<path d="M290.2,76.8c0,0,38,0,75.7,26.1c0,0,37.7,26.2,80.6,82.8c0,0,42.9,56.7,66.7,108.2c0,0,23.9,51.5,40.7,128.3c0,0,16.8,76.9,16.8,133.6c0,0,0,58.2,-24.6,84.6c0,0,-24.7,26.5,-82.1,26.5c0,0,-31.3,0,-59.7,-10.1c0,0,-28.3,-10,-57.4,-33.5c0,0,-29.1,-23.5,-55.6,-61.6c0,0,-26.5,-38,-48.1,-92.5c0,0,-21.6,-54.4,-33.6,-116.7c0,0,-11.9,-62.3,-11.9,-121.2c0,0,0,-77.6,22.4,-116c0,0,22.3,-38.5,70.1,-38.5ZM197.7,-333.3c0,0,-281.9,0,-281.9,164.1c0,0,0,41.7,25.4,76.1c0,0,25.3,34.3,81.2,72.3L76.1,-64c0,0,-14.2,-17.2,-23.9,-34c0,0,-9.7,-16.8,-13.8,-32.4c0,0,-4.1,-15.7,-4.1,-37.3c0,0,0,-56,40.3,-81.7c0,0,40.3,-25.8,121.6,-25.8c0,0,73.9,0,123.1,26.1c0,0,49.2,26.2,83.5,80.2c0,0,34.3,54.1,60.1,133.6c0,0,25.7,79.3,52.6,212.1L505,179C505,179,432.7,79.8,370.8,34.3c0,0,-62,-45.4,-133.6,-45.4c0,0,-81.3,0,-126.4,61.1c0,0,-45.2,61.1,-45.2,174.5c0,0,0,82.8,21.7,163.4c0,0,21.6,80.6,60.4,145.5c0,0,38.8,64.9,87.7,107.8c0,0,48.8,42.9,103.3,63.7c0,0,54.4,20.9,113.4,20.9c0,0,47,0,88.7,-11.1c0,0,41.8,-11.2,84.3,-38.1l68.7,49.2l47.7,-11.9L663.9,364c0,0,-8.2,-37.3,-17.1,-84.2L627.4,182c0,0,-35.1,-176,-56,-242.3c0,0,-25.3,-76.8,-59.7,-128.3c0,0,-32,-47,-76,-78.7c0,0,-44.1,-31.7,-101.9,-48.9c0,0,-57.8,-17.1,-136.1,-17.1Z" 
	id="f8_3u"
	transform="scale(0.001,-0.001)" />

	<path d="M609.5,111.9L578.1,539.4c0,0,-17.1,234.2,-17.1,325.9l-9,0L114.1,111.9ZM-43.2,0l9.7,47.7l590,982.5l107.4,0L749.7,47.7L740,0Z" 
	id="f9_qs"
	transform="scale(0.001,-0.001)" />


</defs>

<!-- Any embedded fonts defined here -->
<style type="text/css" ><![CDATA[

@font-face {
	font-family: TimesNewRomanPSMT_o;
	src: url("fonts/TimesNewRomanPSMT_o.woff") format("woff");
}

@font-face {
	font-family: Cambria_1k;
	src: url("fonts/Cambria_1k.woff") format("woff");
}

@font-face {
	font-family: TimesNewRomanPS-ItalicMT_m;
	src: url("fonts/TimesNewRomanPS-ItalicMT_m.woff") format("woff");
}

@font-face {
	font-family: Cambria-Italic_1s;
	src: url("fonts/Cambria-Italic_1s.woff") format("woff");
}

@font-face {
	font-family: SymbolMT_l;
	src: url("fonts/SymbolMT_l.woff") format("woff");
}

@font-face {
	font-family: Times-Italic_x;
	src: url("fonts/Times-Italic_x.woff") format("woff");
}

@font-face {
	font-family: Cambria-Italic_1m;
	src: url("fonts/Cambria-Italic_1m.woff") format("woff");
}

@font-face {
	font-family: Times_e;
	src: url("fonts/Times_e.woff") format("woff");
}

@font-face {
	font-family: Times_13;
	src: url("fonts/Times_13.woff") format("woff");
}

@font-face {
	font-family: CambriaMath_v;
	src: url("fonts/CambriaMath_v.woff") format("woff");
}

]]></style>

</svg>
