<svg xmlns="http://www.w3.org/2000/svg" width="755.03" height="637.27" viewBox="0 0 544 459" xmlns:xlink="http://www.w3.org/1999/xlink"><defs><clipPath id="0"><path d="m0 0v460h545v-460z"/></clipPath></defs><g stroke-miterlimit="10" stroke-linecap="square"><g clip-path="url(#0)"><path d="m16.591 2v458" stroke-linecap="butt" fill="none" stroke="#000"/></g><g clip-path="url(#0)"><path d="m16.591 1l-3 3" stroke-linecap="butt" fill="none" stroke="#000"/></g><g clip-path="url(#0)"><path d="m16.591 1l3 3" stroke-linecap="butt" fill="none" stroke="#000"/></g><g clip-path="url(#0)"><path d="m0 441.34h543" stroke-linecap="butt" fill="none" stroke="#000"/></g><g clip-path="url(#0)"><path d="m544 441.34l-3-3" stroke-linecap="butt" fill="none" stroke="#000"/></g><g clip-path="url(#0)"><path d="m544 441.34l-3 3" stroke-linecap="butt" fill="none" stroke="#000"/></g><g clip-path="url(#0)"><text font-style="italic" font-family="serif" font-size="10" x="0" y="0" transform="translate(22 455)">0</text></g><g clip-path="url(#0)"><text font-style="italic" font-family="serif" font-size="10" x="0" y="0" transform="translate(40 455)">1</text></g><g clip-path="url(#0)"><path d="m42.17 441.34v3" stroke-linecap="butt" fill="none" stroke="#000"/></g><g clip-path="url(#0)"><text font-style="italic" font-family="serif" font-size="10" x="0" y="0" transform="translate(66 455)">2</text></g><g clip-path="url(#0)"><path d="m67.744 441.34v3" stroke-linecap="butt" fill="none" stroke="#000"/></g><g clip-path="url(#0)"><text font-style="italic" font-family="serif" font-size="10" x="0" y="0" transform="translate(91 455)">3</text></g><g clip-path="url(#0)"><path d="m93.32 441.34v3" stroke-linecap="butt" fill="none" stroke="#000"/></g><g clip-path="url(#0)"><text font-style="italic" font-family="serif" font-size="10" x="0" y="0" transform="translate(117 455)">4</text></g><g clip-path="url(#0)"><path d="m118.9 441.34v3" stroke-linecap="butt" fill="none" stroke="#000"/></g><g clip-path="url(#0)"><text font-style="italic" font-family="serif" font-size="10" x="0" y="0" transform="translate(142 455)">5</text></g><g clip-path="url(#0)"><path d="m144.47 441.34v3" stroke-linecap="butt" fill="none" stroke="#000"/></g><g clip-path="url(#0)"><text font-style="italic" font-family="serif" font-size="10" x="0" y="0" transform="translate(168 455)">6</text></g><g clip-path="url(#0)"><path d="m170.05 441.34v3" stroke-linecap="butt" fill="none" stroke="#000"/></g><g clip-path="url(#0)"><text font-style="italic" font-family="serif" font-size="10" x="0" y="0" transform="translate(194 455)">7</text></g><g clip-path="url(#0)"><path d="m195.63 441.34v3" stroke-linecap="butt" fill="none" stroke="#000"/></g><g clip-path="url(#0)"><text font-style="italic" font-family="serif" font-size="10" x="0" y="0" transform="translate(219 455)">8</text></g><g clip-path="url(#0)"><path d="m221.2 441.34v3" stroke-linecap="butt" fill="none" stroke="#000"/></g><g clip-path="url(#0)"><text font-style="italic" font-family="serif" font-size="10" x="0" y="0" transform="translate(245 455)">9</text></g><g clip-path="url(#0)"><path d="m246.78 441.34v3" stroke-linecap="butt" fill="none" stroke="#000"/></g><g clip-path="url(#0)"><text font-style="italic" font-family="serif" font-size="10" x="0" y="0" transform="translate(268 455)">10</text></g><g clip-path="url(#0)"><path d="m272.36 441.34v3" stroke-linecap="butt" fill="none" stroke="#000"/></g><g clip-path="url(#0)"><text font-style="italic" font-family="serif" font-size="10" x="0" y="0" transform="translate(293 455)">11</text></g><g clip-path="url(#0)"><path d="m297.93 441.34v3" stroke-linecap="butt" fill="none" stroke="#000"/></g><g clip-path="url(#0)"><text font-style="italic" font-family="serif" font-size="10" x="0" y="0" transform="translate(319 455)">12</text></g><g clip-path="url(#0)"><path d="m323.51 441.34v3" stroke-linecap="butt" fill="none" stroke="#000"/></g><g clip-path="url(#0)"><text font-style="italic" font-family="serif" font-size="10" x="0" y="0" transform="translate(345 455)">13</text></g><g clip-path="url(#0)"><path d="m349.09 441.34v3" stroke-linecap="butt" fill="none" stroke="#000"/></g><g clip-path="url(#0)"><text font-style="italic" font-family="serif" font-size="10" x="0" y="0" transform="translate(370 455)">14</text></g><g clip-path="url(#0)"><path d="m374.66 441.34v3" stroke-linecap="butt" fill="none" stroke="#000"/></g><g clip-path="url(#0)"><text font-style="italic" font-family="serif" font-size="10" x="0" y="0" transform="translate(396 455)">15</text></g><g clip-path="url(#0)"><path d="m400.24 441.34v3" stroke-linecap="butt" fill="none" stroke="#000"/></g><g clip-path="url(#0)"><text font-style="italic" font-family="serif" font-size="10" x="0" y="0" transform="translate(421 455)">16</text></g><g clip-path="url(#0)"><path d="m425.82 441.34v3" stroke-linecap="butt" fill="none" stroke="#000"/></g><g clip-path="url(#0)"><text font-style="italic" font-family="serif" font-size="10" x="0" y="0" transform="translate(447 455)">17</text></g><g clip-path="url(#0)"><path d="m451.39 441.34v3" stroke-linecap="butt" fill="none" stroke="#000"/></g><g clip-path="url(#0)"><text font-style="italic" font-family="serif" font-size="10" x="0" y="0" transform="translate(472 455)">18</text></g><g clip-path="url(#0)"><path d="m476.97 441.34v3" stroke-linecap="butt" fill="none" stroke="#000"/></g><g clip-path="url(#0)"><text font-style="italic" font-family="serif" font-size="10" x="0" y="0" transform="translate(498 455)">19</text></g><g clip-path="url(#0)"><path d="m502.54 441.34v3" stroke-linecap="butt" fill="none" stroke="#000"/></g><g clip-path="url(#0)"><text font-style="italic" font-family="serif" font-size="10" x="0" y="0" transform="translate(524 455)">20</text></g><g clip-path="url(#0)"><path d="m528.12 441.34v3" stroke-linecap="butt" fill="none" stroke="#000"/></g><g clip-path="url(#0)"><text font-style="italic" font-family="serif" font-size="10" x="0" y="0" transform="translate(5 439)">0</text></g><g clip-path="url(#0)"><text font-style="italic" font-family="serif" font-size="10" x="0" y="0" transform="translate(5 394)">1</text></g><g clip-path="url(#0)"><path d="m13.591 390.19h3" stroke-linecap="butt" fill="none" stroke="#000"/></g><g clip-path="url(#0)"><text font-style="italic" font-family="serif" font-size="10" x="0" y="0" transform="translate(5 343)">2</text></g><g clip-path="url(#0)"><path d="m13.591 339.03h3" stroke-linecap="butt" fill="none" stroke="#000"/></g><g clip-path="url(#0)"><text font-style="italic" font-family="serif" font-size="10" x="0" y="0" transform="translate(5 291)">3</text></g><g clip-path="url(#0)"><path d="m13.591 287.88h3" stroke-linecap="butt" fill="none" stroke="#000"/></g><g clip-path="url(#0)"><text font-style="italic" font-family="serif" font-size="10" x="0" y="0" transform="translate(5 240)">4</text></g><g clip-path="url(#0)"><path d="m13.591 236.73h3" stroke-linecap="butt" fill="none" stroke="#000"/></g><g clip-path="url(#0)"><text font-style="italic" font-family="serif" font-size="10" x="0" y="0" transform="translate(5 189)">5</text></g><g clip-path="url(#0)"><path d="m13.591 185.58h3" stroke-linecap="butt" fill="none" stroke="#000"/></g><g clip-path="url(#0)"><text font-style="italic" font-family="serif" font-size="10" x="0" y="0" transform="translate(5 138)">6</text></g><g clip-path="url(#0)"><path d="m13.591 134.42h3" stroke-linecap="butt" fill="none" stroke="#000"/></g><g clip-path="url(#0)"><text font-style="italic" font-family="serif" font-size="10" x="0" y="0" transform="translate(5 87)">7</text></g><g clip-path="url(#0)"><path d="m13.591 83.27h3" stroke-linecap="butt" fill="none" stroke="#000"/></g><g clip-path="url(#0)"><text font-style="italic" font-family="serif" font-size="10" x="0" y="0" transform="translate(5 36)">8</text></g><g clip-path="url(#0)"><path d="m13.591 32.12h3" stroke-linecap="butt" fill="none" stroke="#000"/></g><g clip-path="url(#0)"><path d="m42.17 0v441.34" stroke-linejoin="round" stroke-linecap="round" fill="none" stroke="#c0c0c0"/></g><g clip-path="url(#0)"/><g clip-path="url(#0)"><path d="m67.744 0v441.34" stroke-linejoin="round" stroke-linecap="round" fill="none" stroke="#c0c0c0"/></g><g clip-path="url(#0)"/><g clip-path="url(#0)"><path d="m93.32 0v441.34" stroke-linejoin="round" stroke-linecap="round" fill="none" stroke="#c0c0c0"/></g><g clip-path="url(#0)"/><g clip-path="url(#0)"><path d="m118.9 0v441.34" stroke-linejoin="round" stroke-linecap="round" fill="none" stroke="#c0c0c0"/></g><g clip-path="url(#0)"/><g clip-path="url(#0)"><path d="m144.47 0v441.34" stroke-linejoin="round" stroke-linecap="round" fill="none" stroke="#c0c0c0"/></g><g clip-path="url(#0)"/><g clip-path="url(#0)"><path d="m170.05 0v441.34" stroke-linejoin="round" stroke-linecap="round" fill="none" stroke="#c0c0c0"/></g><g clip-path="url(#0)"/><g clip-path="url(#0)"><path d="m195.63 0v441.34" stroke-linejoin="round" stroke-linecap="round" fill="none" stroke="#c0c0c0"/></g><g clip-path="url(#0)"/><g clip-path="url(#0)"><path d="m221.2 0v441.34" stroke-linejoin="round" stroke-linecap="round" fill="none" stroke="#c0c0c0"/></g><g clip-path="url(#0)"/><g clip-path="url(#0)"><path d="m246.78 0v441.34" stroke-linejoin="round" stroke-linecap="round" fill="none" stroke="#c0c0c0"/></g><g clip-path="url(#0)"/><g clip-path="url(#0)"><path d="m272.36 0v441.34" stroke-linejoin="round" stroke-linecap="round" fill="none" stroke="#c0c0c0"/></g><g clip-path="url(#0)"/><g clip-path="url(#0)"><path d="m297.93 0v441.34" stroke-linejoin="round" stroke-linecap="round" fill="none" stroke="#c0c0c0"/></g><g clip-path="url(#0)"/><g clip-path="url(#0)"><path d="m323.51 0v441.34" stroke-linejoin="round" stroke-linecap="round" fill="none" stroke="#c0c0c0"/></g><g clip-path="url(#0)"/><g clip-path="url(#0)"><path d="m349.09 0v441.34" stroke-linejoin="round" stroke-linecap="round" fill="none" stroke="#c0c0c0"/></g><g clip-path="url(#0)"/><g clip-path="url(#0)"><path d="m374.66 0v441.34" stroke-linejoin="round" stroke-linecap="round" fill="none" stroke="#c0c0c0"/></g><g clip-path="url(#0)"/><g clip-path="url(#0)"><path d="m400.24 0v441.34" stroke-linejoin="round" stroke-linecap="round" fill="none" stroke="#c0c0c0"/></g><g clip-path="url(#0)"/><g clip-path="url(#0)"><path d="m425.82 0v441.34" stroke-linejoin="round" stroke-linecap="round" fill="none" stroke="#c0c0c0"/></g><g clip-path="url(#0)"/><g clip-path="url(#0)"><path d="m451.39 0v441.34" stroke-linejoin="round" stroke-linecap="round" fill="none" stroke="#c0c0c0"/></g><g clip-path="url(#0)"/><g clip-path="url(#0)"><path d="m476.97 0v441.34" stroke-linejoin="round" stroke-linecap="round" fill="none" stroke="#c0c0c0"/></g><g clip-path="url(#0)"/><g clip-path="url(#0)"><path d="m502.54 0v441.34" stroke-linejoin="round" stroke-linecap="round" fill="none" stroke="#c0c0c0"/></g><g clip-path="url(#0)"/><g clip-path="url(#0)"><path d="m528.12 0v441.34" stroke-linejoin="round" stroke-linecap="round" fill="none" stroke="#c0c0c0"/></g><g clip-path="url(#0)"/><g clip-path="url(#0)"><path d="m0 32.12h1.03" stroke-linejoin="round" stroke-linecap="round" fill="none" stroke="#c0c0c0" id="1"/></g><g clip-path="url(#0)"><path d="m16.591 32.12h528.41" stroke-linejoin="round" stroke-linecap="round" fill="none" stroke="#c0c0c0" id="2"/></g><g clip-path="url(#0)"><use xlink:href="#1"/></g><g clip-path="url(#0)"><use xlink:href="#2"/></g><g clip-path="url(#0)"><path d="m0 83.27h1.03" stroke-linejoin="round" stroke-linecap="round" fill="none" stroke="#c0c0c0"/></g><g clip-path="url(#0)"><path d="m16.591 83.27h528.41" stroke-linejoin="round" stroke-linecap="round" fill="none" stroke="#c0c0c0"/></g><g clip-path="url(#0)"><path d="m0 134.42h1.03" stroke-linejoin="round" stroke-linecap="round" fill="none" stroke="#c0c0c0"/></g><g clip-path="url(#0)"><path d="m16.591 134.42h528.41" stroke-linejoin="round" stroke-linecap="round" fill="none" stroke="#c0c0c0"/></g><g clip-path="url(#0)"><path d="m0 185.58h1.03" stroke-linejoin="round" stroke-linecap="round" fill="none" stroke="#c0c0c0"/></g><g clip-path="url(#0)"><path d="m16.591 185.58h528.41" stroke-linejoin="round" stroke-linecap="round" fill="none" stroke="#c0c0c0"/></g><g clip-path="url(#0)"><path d="m0 236.73h1.03" stroke-linejoin="round" stroke-linecap="round" fill="none" stroke="#c0c0c0"/></g><g clip-path="url(#0)"><path d="m16.591 236.73h528.41" stroke-linejoin="round" stroke-linecap="round" fill="none" stroke="#c0c0c0"/></g><g clip-path="url(#0)"><path d="m0 287.88h1.03" stroke-linejoin="round" stroke-linecap="round" fill="none" stroke="#c0c0c0"/></g><g clip-path="url(#0)"><path d="m16.591 287.88h528.41" stroke-linejoin="round" stroke-linecap="round" fill="none" stroke="#c0c0c0"/></g><g clip-path="url(#0)"><path d="m0 339.03h1.03" stroke-linejoin="round" stroke-linecap="round" fill="none" stroke="#c0c0c0"/></g><g clip-path="url(#0)"><path d="m16.591 339.03h528.41" stroke-linejoin="round" stroke-linecap="round" fill="none" stroke="#c0c0c0"/></g><g clip-path="url(#0)"><path d="m0 390.19h1.03" stroke-linejoin="round" stroke-linecap="round" fill="none" stroke="#c0c0c0"/></g><g clip-path="url(#0)"><path d="m16.591 390.19h528.41" stroke-linejoin="round" stroke-linecap="round" fill="none" stroke="#c0c0c0"/></g><g><g clip-path="url(#0)"><path d="m16.591 441.34l4.698-4.1 4.258-4.32 4.258-4.88 4.257-5.45 4.258-6.02 4.258-6.58 4.258-7.15 4.258-7.72 4.258-8.28 4.257-8.86 4.258-9.42 3.877-9.06" stroke-linejoin="round" stroke-width="1.5" stroke-linecap="round" fill="none" stroke="#090"/></g><g clip-path="url(#0)"><path d="m67.744 359.5l4.639-.17 4.258-.45 4.257-.74 4.258-1.02 4.258-1.3 4.258-1.58 4.258-1.87 4.26-2.15 4.26-2.44 4.25-2.72 4.26-3 4.26-3.28 4.26-3.57 4.25-3.86 4.26-4.13 4.26-4.42 4.26-4.71 4.26-4.98 4.25-5.27 4.26-5.56 4.26-5.84 4.26-6.12 4.25-6.4 4.26-6.69 4.26-6.97 4.26-7.26 4.26-7.54 4.25-7.82 4.26-8.1 4.26-8.39 4.26-8.68 4.26-8.95 4.25-9.24 4.26-9.53 4.26-9.8 2.13-5.01 2.13-5.08 2.13-5.16 2.12-5.22 2.13-5.29 2.13-5.37 2.13-5.43 2.13-5.51 2.13-5.57 2.13-5.65 2.13-5.72 2.13-5.79 2.12-5.86 2.13-5.93 2.13-6 2.13-6.076 2.13-6.144 2.13-6.214 2.13-6.286 2.13-6.357 2.13-6.427 2.12-6.498 2.13-6.57 2.13-6.64 2.06-6.483 2.06-6.549" stroke-linejoin="round" stroke-width="1.5" stroke-linecap="round" fill="none" stroke="#090"/></g><g clip-path="url(#0)"><path d="m272.36 32.12h4.4 4.26 4.25 4.26 4.26 4.26 4.25 4.26 4.26 4.26 4.26 4.25 4.26 4.26 4.26 4.25 4.26 4.26 4.26 4.26 4.25 4.26 4.26 4.26 4.26 4.25 4.26 4.26 4.26 4.25 4.26 4.26 4.26 4.26 4.25 4.26 4.26 4.26 4.25 4.26 4.26 4.26 4.26 4.25 4.26 4.26 4.26 4.26 4.25 4.26 4.26 4.26 4.25 4.26 4.26 4.26 4.26 4.25 4.26 4.26" stroke-linejoin="round" stroke-width="1.5" stroke-linecap="round" fill="none" stroke="#090"/></g><g clip-path="url(#0)"><path d="m16.591 32.12h255.77" stroke-linejoin="round" stroke-linecap="round" fill="none" stroke="#00c"/></g><g clip-path="url(#0)"><path d="m272.36 32.12v395.22" stroke-linejoin="round" stroke-linecap="round" fill="none" stroke="#00c"/></g><g clip-path="url(#0)"><path d="m272.36 441.34l-3.5-14h7z" fill-rule="evenodd" fill="#00c"/></g><g clip-path="url(#0)"><path d="m20-1h92v24h-92v-24" fill="#fff"/></g><g clip-path="url(#0)"><text font-style="italic" font-family="serif" font-size="12" x="0" y="0" transform="translate(23 14)">vitesse en km/s</text></g><g clip-path="url(#0)"><path d="m458 414h79v24h-79v-24" fill="#fff"/></g><g clip-path="url(#0)"><text font-style="italic" font-family="serif" font-size="12" x="0" y="0" transform="translate(461 429)">temps en mn</text></g></g></g></svg>