<?xml version="1.0" encoding="utf-8"?>
<!-- Generator: Adobe Illustrator 22.1.0, SVG Export Plug-In . SVG Version: 6.00 Build 0)  -->
<svg version="1.1" id="Calque_1" xmlns="http://www.w3.org/2000/svg" xmlns:xlink="http://www.w3.org/1999/xlink" x="0px" y="0px"
	 viewBox="0 0 570.9 293.3" style="enable-background:new 0 0 570.9 293.3;" xml:space="preserve">
<style type="text/css">
	.st0{clip-path:url(#SVGID_2_);fill:#FFFFFF;}
	.st1{clip-path:url(#SVGID_2_);fill:none;stroke:#C0C0C0;stroke-linecap:round;stroke-linejoin:round;stroke-miterlimit:10;}
	.st2{clip-path:url(#SVGID_2_);fill:none;stroke:#000000;stroke-miterlimit:10;}
	.st3{fill:#FFE6E6;}
	
		.st4{clip-path:url(#SVGID_4_);fill:none;stroke:#FF0000;stroke-width:0.5;stroke-linecap:round;stroke-linejoin:round;stroke-miterlimit:10;}
	.st5{clip-path:url(#SVGID_4_);fill:none;stroke:#DB4D4D;stroke-linecap:round;stroke-linejoin:round;stroke-miterlimit:10;}
	.st6{fill:#FF0000;}
</style>
<g>
	<g>
		<defs>
			<rect id="SVGID_1_" x="1.5" width="568.9" height="293"/>
		</defs>
		<clipPath id="SVGID_2_">
			<use xlink:href="#SVGID_1_"  style="overflow:visible;"/>
		</clipPath>
		<polygon class="st0" points="1.5,0 570.4,0 570.4,293.3 1.5,293.3 1.5,0 		"/>
		<path class="st1" d="M0,0v293.3 M0,0v293.3 M56.7,0v293.3 M113.4,0v293.3 M170.1,0v293.3 M226.8,0v293.3 M283.5,0v293.3 M340.2,0
			v293.3 M396.9,0v293.3 M453.5,0v293.3 M510.2,0v293.3 M566.9,0v293.3 M1.5,15.3h568.9 M1.5,15.3h568.9 M1.5,38.2h568.9 M1.5,61.1
			h568.9 M1.5,84h568.9 M1.5,106.9h568.9 M1.5,129.8h568.9 M1.5,152.7h568.9 M1.5,175.7h568.9 M1.5,198.6h568.9 M1.5,221.5h568.9
			 M1.5,244.4h568.9 M1.5,290.2h568.9"/>
		<path class="st2" d="M1.5,267.3h567.9 M569.9,267.3l-2.9-2.9 M569.9,267.3l-2.9,2.9"/>
	</g>
	<path d="M54.8,272.8l-0.8,0.1c-0.1-0.3-0.2-0.5-0.3-0.7c-0.2-0.2-0.5-0.3-0.8-0.3c-0.2,0-0.5,0.1-0.7,0.2c-0.2,0.2-0.4,0.4-0.6,0.8
		c-0.1,0.3-0.2,0.8-0.2,1.5c0.2-0.3,0.4-0.5,0.7-0.6s0.5-0.2,0.8-0.2c0.5,0,1,0.2,1.3,0.6c0.4,0.4,0.5,0.9,0.5,1.5
		c0,0.4-0.1,0.8-0.3,1.1c-0.2,0.3-0.4,0.6-0.7,0.8c-0.3,0.2-0.6,0.3-1,0.3c-0.6,0-1.2-0.2-1.6-0.7c-0.4-0.5-0.6-1.3-0.6-2.3
		c0-1.2,0.2-2.1,0.7-2.7c0.4-0.5,0.9-0.7,1.6-0.7c0.5,0,0.9,0.1,1.2,0.4C54.6,272,54.7,272.3,54.8,272.8L54.8,272.8z M51.7,275.5
		c0,0.3,0.1,0.5,0.2,0.8c0.1,0.2,0.3,0.4,0.5,0.6c0.2,0.1,0.4,0.2,0.6,0.2c0.3,0,0.6-0.1,0.8-0.4c0.2-0.3,0.4-0.6,0.4-1.1
		c0-0.4-0.1-0.8-0.3-1c-0.2-0.3-0.5-0.4-0.9-0.4c-0.4,0-0.6,0.1-0.9,0.4C51.8,274.8,51.7,275.1,51.7,275.5L51.7,275.5z M55.7,274.5
		c0-0.7,0.1-1.3,0.2-1.8s0.4-0.8,0.7-1.1c0.3-0.2,0.7-0.4,1.1-0.4c0.3,0,0.6,0.1,0.9,0.2c0.3,0.1,0.5,0.3,0.6,0.6
		c0.2,0.3,0.3,0.6,0.4,0.9c0.1,0.4,0.1,0.9,0.1,1.5c0,0.7-0.1,1.3-0.2,1.8c-0.2,0.5-0.4,0.8-0.7,1.1c-0.3,0.2-0.7,0.4-1.1,0.4
		c-0.6,0-1.1-0.2-1.4-0.7C55.9,276.5,55.7,275.7,55.7,274.5L55.7,274.5z M56.5,274.5c0,1,0.1,1.7,0.4,2.1c0.2,0.3,0.5,0.5,0.9,0.5
		c0.4,0,0.7-0.2,0.9-0.5c0.2-0.3,0.4-1,0.4-2.1s-0.1-1.7-0.4-2.1c-0.2-0.3-0.5-0.5-0.9-0.5c-0.4,0-0.6,0.2-0.9,0.5
		C56.6,272.7,56.5,273.4,56.5,274.5L56.5,274.5z M60.6,274.5c0-0.7,0.1-1.3,0.2-1.8s0.4-0.8,0.7-1.1c0.3-0.2,0.7-0.4,1.1-0.4
		c0.3,0,0.6,0.1,0.9,0.2c0.3,0.1,0.5,0.3,0.6,0.6c0.2,0.3,0.3,0.6,0.4,0.9c0.1,0.4,0.1,0.9,0.1,1.5c0,0.7-0.1,1.3-0.2,1.8
		c-0.2,0.5-0.4,0.8-0.7,1.1c-0.3,0.2-0.7,0.4-1.1,0.4c-0.6,0-1.1-0.2-1.4-0.7C60.8,276.5,60.6,275.7,60.6,274.5L60.6,274.5z
		 M61.4,274.5c0,1,0.1,1.7,0.4,2.1c0.2,0.3,0.5,0.5,0.9,0.5c0.4,0,0.7-0.2,0.9-0.5c0.2-0.3,0.4-1,0.4-2.1s-0.1-1.7-0.4-2.1
		c-0.2-0.3-0.5-0.5-0.9-0.5c-0.4,0-0.6,0.2-0.9,0.5C61.5,272.7,61.4,273.4,61.4,274.5L61.4,274.5z"/>
	<path d="M107.6,272.1v-0.7h4.1v0.6c-0.4,0.4-0.8,1-1.2,1.7c-0.4,0.7-0.7,1.4-0.9,2.2c-0.2,0.5-0.3,1.1-0.3,1.7h-0.8
		c0-0.5,0.1-1.1,0.3-1.8c0.2-0.7,0.5-1.4,0.8-2c0.3-0.7,0.7-1.2,1.1-1.7H107.6L107.6,272.1z M112.5,274.5c0-0.7,0.1-1.3,0.2-1.8
		c0.2-0.5,0.4-0.8,0.7-1.1c0.3-0.2,0.7-0.4,1.1-0.4c0.3,0,0.6,0.1,0.9,0.2c0.3,0.1,0.5,0.3,0.6,0.6c0.2,0.3,0.3,0.6,0.4,0.9
		c0.1,0.4,0.1,0.9,0.1,1.5c0,0.7-0.1,1.3-0.2,1.8c-0.2,0.5-0.4,0.8-0.7,1.1c-0.3,0.2-0.7,0.4-1.1,0.4c-0.6,0-1.1-0.2-1.4-0.7
		C112.7,276.5,112.5,275.7,112.5,274.5L112.5,274.5z M113.3,274.5c0,1,0.1,1.7,0.4,2.1c0.2,0.3,0.5,0.5,0.9,0.5
		c0.4,0,0.7-0.2,0.9-0.5c0.2-0.3,0.4-1,0.4-2.1s-0.1-1.7-0.4-2.1c-0.2-0.3-0.5-0.5-0.9-0.5c-0.4,0-0.6,0.2-0.9,0.5
		C113.4,272.7,113.3,273.4,113.3,274.5L113.3,274.5z M117.4,274.5c0-0.7,0.1-1.3,0.2-1.8c0.2-0.5,0.4-0.8,0.7-1.1
		c0.3-0.2,0.7-0.4,1.1-0.4c0.3,0,0.6,0.1,0.9,0.2c0.3,0.1,0.5,0.3,0.6,0.6c0.2,0.3,0.3,0.6,0.4,0.9c0.1,0.4,0.1,0.9,0.1,1.5
		c0,0.7-0.1,1.3-0.2,1.8c-0.2,0.5-0.4,0.8-0.7,1.1c-0.3,0.2-0.7,0.4-1.1,0.4c-0.6,0-1.1-0.2-1.4-0.7
		C117.6,276.5,117.4,275.7,117.4,274.5L117.4,274.5z M118.2,274.5c0,1,0.1,1.7,0.4,2.1s0.5,0.5,0.9,0.5c0.4,0,0.7-0.2,0.9-0.5
		c0.2-0.3,0.4-1,0.4-2.1s-0.1-1.7-0.4-2.1c-0.2-0.3-0.5-0.5-0.9-0.5s-0.6,0.2-0.9,0.5C118.3,272.7,118.2,273.4,118.2,274.5
		L118.2,274.5z"/>
	<path d="M165.1,274.2c-0.3-0.1-0.6-0.3-0.7-0.5c-0.2-0.2-0.2-0.5-0.2-0.8c0-0.5,0.2-0.8,0.5-1.2c0.3-0.3,0.8-0.5,1.3-0.5
		c0.6,0,1,0.2,1.3,0.5c0.3,0.3,0.5,0.7,0.5,1.2c0,0.3-0.1,0.6-0.2,0.8c-0.2,0.2-0.4,0.4-0.7,0.5c0.4,0.1,0.7,0.3,0.9,0.6
		c0.2,0.3,0.3,0.6,0.3,1c0,0.5-0.2,1-0.6,1.4c-0.4,0.4-0.9,0.6-1.5,0.6c-0.6,0-1.1-0.2-1.5-0.6c-0.4-0.4-0.6-0.8-0.6-1.4
		c0-0.4,0.1-0.8,0.3-1C164.4,274.5,164.7,274.3,165.1,274.2L165.1,274.2z M164.9,272.9c0,0.3,0.1,0.5,0.3,0.7
		c0.2,0.2,0.4,0.3,0.7,0.3c0.3,0,0.5-0.1,0.7-0.3c0.2-0.2,0.3-0.4,0.3-0.7c0-0.3-0.1-0.5-0.3-0.7c-0.2-0.2-0.4-0.3-0.7-0.3
		c-0.3,0-0.5,0.1-0.7,0.3C165,272.4,164.9,272.6,164.9,272.9L164.9,272.9z M164.7,275.8c0,0.2,0.1,0.4,0.2,0.6
		c0.1,0.2,0.3,0.4,0.5,0.5c0.2,0.1,0.4,0.2,0.7,0.2c0.4,0,0.7-0.1,0.9-0.4c0.2-0.2,0.4-0.5,0.4-0.9c0-0.4-0.1-0.7-0.4-0.9
		c-0.2-0.2-0.6-0.4-0.9-0.4c-0.4,0-0.7,0.1-0.9,0.4C164.8,275.1,164.7,275.4,164.7,275.8L164.7,275.8z M168.8,274.5
		c0-0.7,0.1-1.3,0.2-1.8c0.2-0.5,0.4-0.8,0.7-1.1c0.3-0.2,0.7-0.4,1.1-0.4c0.3,0,0.6,0.1,0.9,0.2c0.3,0.1,0.5,0.3,0.6,0.6
		s0.3,0.6,0.4,0.9c0.1,0.4,0.1,0.9,0.1,1.5c0,0.7-0.1,1.3-0.2,1.8c-0.2,0.5-0.4,0.8-0.7,1.1c-0.3,0.2-0.7,0.4-1.1,0.4
		c-0.6,0-1.1-0.2-1.4-0.7C169,276.5,168.8,275.7,168.8,274.5L168.8,274.5z M169.6,274.5c0,1,0.1,1.7,0.4,2.1
		c0.2,0.3,0.5,0.5,0.9,0.5c0.4,0,0.7-0.2,0.9-0.5c0.2-0.3,0.4-1,0.4-2.1s-0.1-1.7-0.4-2.1c-0.2-0.3-0.5-0.5-0.9-0.5
		s-0.6,0.2-0.9,0.5C169.7,272.7,169.6,273.4,169.6,274.5L169.6,274.5z M173.7,274.5c0-0.7,0.1-1.3,0.2-1.8c0.2-0.5,0.4-0.8,0.7-1.1
		c0.3-0.2,0.7-0.4,1.1-0.4c0.3,0,0.6,0.1,0.9,0.2c0.3,0.1,0.5,0.3,0.6,0.6s0.3,0.6,0.4,0.9c0.1,0.4,0.1,0.9,0.1,1.5
		c0,0.7-0.1,1.3-0.2,1.8c-0.2,0.5-0.4,0.8-0.7,1.1c-0.3,0.2-0.7,0.4-1.1,0.4c-0.6,0-1.1-0.2-1.4-0.7
		C173.9,276.5,173.7,275.7,173.7,274.5L173.7,274.5z M174.5,274.5c0,1,0.1,1.7,0.4,2.1c0.2,0.3,0.5,0.5,0.9,0.5
		c0.4,0,0.7-0.2,0.9-0.5s0.4-1,0.4-2.1s-0.1-1.7-0.4-2.1s-0.5-0.5-0.9-0.5s-0.6,0.2-0.9,0.5C174.6,272.7,174.5,273.4,174.5,274.5
		L174.5,274.5z"/>
	<path d="M220.8,276.1l0.7-0.1c0.1,0.4,0.2,0.6,0.4,0.8c0.2,0.2,0.4,0.2,0.7,0.2c0.2,0,0.4-0.1,0.6-0.2c0.2-0.1,0.3-0.3,0.4-0.4
		c0.1-0.2,0.2-0.4,0.3-0.7c0.1-0.3,0.1-0.6,0.1-0.9c0,0,0-0.1,0-0.2c-0.2,0.2-0.4,0.4-0.6,0.6c-0.3,0.2-0.6,0.2-0.9,0.2
		c-0.5,0-1-0.2-1.3-0.6c-0.4-0.4-0.5-0.9-0.5-1.5c0-0.6,0.2-1.2,0.6-1.5c0.4-0.4,0.8-0.6,1.4-0.6c0.4,0,0.8,0.1,1.1,0.3
		c0.3,0.2,0.6,0.5,0.8,0.9c0.2,0.4,0.3,1,0.3,1.8c0,0.8-0.1,1.4-0.3,1.9c-0.2,0.5-0.4,0.8-0.8,1.1c-0.3,0.2-0.7,0.4-1.2,0.4
		c-0.5,0-0.9-0.1-1.2-0.4C221,277,220.9,276.6,220.8,276.1L220.8,276.1z M224,273.3c0-0.4-0.1-0.8-0.4-1.1c-0.2-0.3-0.5-0.4-0.9-0.4
		c-0.3,0-0.6,0.1-0.9,0.4s-0.4,0.6-0.4,1.1c0,0.4,0.1,0.7,0.4,1c0.2,0.2,0.5,0.4,0.9,0.4c0.4,0,0.7-0.1,0.9-0.4
		C223.8,274.1,224,273.8,224,273.3L224,273.3z M225.6,274.5c0-0.7,0.1-1.3,0.2-1.8c0.2-0.5,0.4-0.8,0.7-1.1c0.3-0.2,0.7-0.4,1.1-0.4
		c0.3,0,0.6,0.1,0.9,0.2c0.3,0.1,0.5,0.3,0.6,0.6s0.3,0.6,0.4,0.9c0.1,0.4,0.1,0.9,0.1,1.5c0,0.7-0.1,1.3-0.2,1.8
		c-0.2,0.5-0.4,0.8-0.7,1.1c-0.3,0.2-0.7,0.4-1.1,0.4c-0.6,0-1.1-0.2-1.4-0.7C225.8,276.5,225.6,275.7,225.6,274.5L225.6,274.5z
		 M226.4,274.5c0,1,0.1,1.7,0.4,2.1s0.5,0.5,0.9,0.5c0.4,0,0.7-0.2,0.9-0.5c0.2-0.3,0.4-1,0.4-2.1s-0.1-1.7-0.4-2.1
		c-0.2-0.3-0.5-0.5-0.9-0.5s-0.6,0.2-0.9,0.5C226.5,272.7,226.4,273.4,226.4,274.5L226.4,274.5z M230.5,274.5c0-0.7,0.1-1.3,0.2-1.8
		c0.2-0.5,0.4-0.8,0.7-1.1c0.3-0.2,0.7-0.4,1.1-0.4c0.3,0,0.6,0.1,0.9,0.2c0.3,0.1,0.5,0.3,0.6,0.6c0.2,0.3,0.3,0.6,0.4,0.9
		s0.1,0.9,0.1,1.5c0,0.7-0.1,1.3-0.2,1.8c-0.2,0.5-0.4,0.8-0.7,1.1c-0.3,0.2-0.7,0.4-1.1,0.4c-0.6,0-1.1-0.2-1.4-0.7
		C230.7,276.5,230.5,275.7,230.5,274.5L230.5,274.5z M231.3,274.5c0,1,0.1,1.7,0.4,2.1c0.2,0.3,0.5,0.5,0.9,0.5
		c0.4,0,0.7-0.2,0.9-0.5c0.2-0.3,0.4-1,0.4-2.1s-0.1-1.7-0.4-2.1c-0.2-0.3-0.5-0.5-0.9-0.5c-0.4,0-0.6,0.2-0.9,0.5
		C231.4,272.7,231.3,273.4,231.3,274.5L231.3,274.5z"/>
	<path d="M278.4,277.6h-0.8v-4.9c-0.2,0.2-0.4,0.4-0.7,0.5c-0.3,0.2-0.6,0.3-0.8,0.4v-0.7c0.4-0.2,0.8-0.5,1.1-0.7
		c0.3-0.3,0.6-0.6,0.7-0.8h0.5V277.6L278.4,277.6z M280.4,274.5c0-0.7,0.1-1.3,0.2-1.8c0.2-0.5,0.4-0.8,0.7-1.1
		c0.3-0.2,0.7-0.4,1.1-0.4c0.3,0,0.6,0.1,0.9,0.2c0.3,0.1,0.5,0.3,0.6,0.6c0.2,0.3,0.3,0.6,0.4,0.9c0.1,0.4,0.1,0.9,0.1,1.5
		c0,0.7-0.1,1.3-0.2,1.8c-0.2,0.5-0.4,0.8-0.7,1.1c-0.3,0.2-0.7,0.4-1.1,0.4c-0.6,0-1.1-0.2-1.4-0.7
		C280.6,276.5,280.4,275.7,280.4,274.5L280.4,274.5z M281.2,274.5c0,1,0.1,1.7,0.4,2.1s0.5,0.5,0.9,0.5c0.4,0,0.7-0.2,0.9-0.5
		c0.2-0.3,0.4-1,0.4-2.1s-0.1-1.7-0.4-2.1c-0.2-0.3-0.5-0.5-0.9-0.5c-0.4,0-0.6,0.2-0.9,0.5C281.3,272.7,281.2,273.4,281.2,274.5
		L281.2,274.5z M285.3,274.5c0-0.7,0.1-1.3,0.2-1.8c0.2-0.5,0.4-0.8,0.7-1.1c0.3-0.2,0.7-0.4,1.1-0.4c0.3,0,0.6,0.1,0.9,0.2
		c0.3,0.1,0.5,0.3,0.6,0.6c0.2,0.3,0.3,0.6,0.4,0.9s0.1,0.9,0.1,1.5c0,0.7-0.1,1.3-0.2,1.8c-0.2,0.5-0.4,0.8-0.7,1.1
		c-0.3,0.2-0.7,0.4-1.1,0.4c-0.6,0-1.1-0.2-1.4-0.7C285.5,276.5,285.3,275.7,285.3,274.5L285.3,274.5z M286.1,274.5
		c0,1,0.1,1.7,0.4,2.1c0.2,0.3,0.5,0.5,0.9,0.5c0.4,0,0.7-0.2,0.9-0.5c0.2-0.3,0.4-1,0.4-2.1s-0.1-1.7-0.4-2.1
		c-0.2-0.3-0.5-0.5-0.9-0.5c-0.4,0-0.6,0.2-0.9,0.5C286.2,272.7,286.1,273.4,286.1,274.5L286.1,274.5z M290.2,274.5
		c0-0.7,0.1-1.3,0.2-1.8s0.4-0.8,0.7-1.1c0.3-0.2,0.7-0.4,1.1-0.4c0.3,0,0.6,0.1,0.9,0.2c0.3,0.1,0.5,0.3,0.6,0.6
		c0.2,0.3,0.3,0.6,0.4,0.9c0.1,0.4,0.1,0.9,0.1,1.5c0,0.7-0.1,1.3-0.2,1.8c-0.2,0.5-0.4,0.8-0.7,1.1c-0.3,0.2-0.7,0.4-1.1,0.4
		c-0.6,0-1.1-0.2-1.4-0.7C290.4,276.5,290.2,275.7,290.2,274.5L290.2,274.5z M291,274.5c0,1,0.1,1.7,0.4,2.1s0.5,0.5,0.9,0.5
		c0.4,0,0.7-0.2,0.9-0.5c0.2-0.3,0.4-1,0.4-2.1s-0.1-1.7-0.4-2.1c-0.2-0.3-0.5-0.5-0.9-0.5c-0.4,0-0.6,0.2-0.9,0.5
		C291.1,272.7,291,273.4,291,274.5L291,274.5z"/>
	<path d="M334.7,277.6H334v-4.9c-0.2,0.2-0.4,0.4-0.7,0.5c-0.3,0.2-0.6,0.3-0.8,0.4v-0.7c0.4-0.2,0.8-0.5,1.1-0.7
		c0.3-0.3,0.6-0.6,0.7-0.8h0.5V277.6L334.7,277.6z M339.6,277.6h-0.8v-4.9c-0.2,0.2-0.4,0.4-0.7,0.5c-0.3,0.2-0.6,0.3-0.8,0.4v-0.7
		c0.4-0.2,0.8-0.5,1.1-0.7c0.3-0.3,0.6-0.6,0.7-0.8h0.5V277.6L339.6,277.6z M341.6,274.5c0-0.7,0.1-1.3,0.2-1.8s0.4-0.8,0.7-1.1
		c0.3-0.2,0.7-0.4,1.1-0.4c0.3,0,0.6,0.1,0.9,0.2c0.3,0.1,0.5,0.3,0.6,0.6c0.2,0.3,0.3,0.6,0.4,0.9c0.1,0.4,0.1,0.9,0.1,1.5
		c0,0.7-0.1,1.3-0.2,1.8c-0.2,0.5-0.4,0.8-0.7,1.1c-0.3,0.2-0.7,0.4-1.1,0.4c-0.6,0-1.1-0.2-1.4-0.7
		C341.8,276.5,341.6,275.7,341.6,274.5L341.6,274.5z M342.4,274.5c0,1,0.1,1.7,0.4,2.1s0.5,0.5,0.9,0.5c0.4,0,0.7-0.2,0.9-0.5
		c0.2-0.3,0.4-1,0.4-2.1s-0.1-1.7-0.4-2.1c-0.2-0.3-0.5-0.5-0.9-0.5c-0.4,0-0.6,0.2-0.9,0.5C342.5,272.7,342.4,273.4,342.4,274.5
		L342.4,274.5z M346.5,274.5c0-0.7,0.1-1.3,0.2-1.8c0.2-0.5,0.4-0.8,0.7-1.1c0.3-0.2,0.7-0.4,1.1-0.4c0.3,0,0.6,0.1,0.9,0.2
		c0.3,0.1,0.5,0.3,0.6,0.6c0.2,0.3,0.3,0.6,0.4,0.9c0.1,0.4,0.1,0.9,0.1,1.5c0,0.7-0.1,1.3-0.2,1.8c-0.2,0.5-0.4,0.8-0.7,1.1
		c-0.3,0.2-0.7,0.4-1.1,0.4c-0.6,0-1.1-0.2-1.4-0.7C346.7,276.5,346.5,275.7,346.5,274.5L346.5,274.5z M347.3,274.5
		c0,1,0.1,1.7,0.4,2.1c0.2,0.3,0.5,0.5,0.9,0.5c0.4,0,0.7-0.2,0.9-0.5s0.4-1,0.4-2.1s-0.1-1.7-0.4-2.1s-0.5-0.5-0.9-0.5
		c-0.4,0-0.6,0.2-0.9,0.5C347.4,272.7,347.3,273.4,347.3,274.5L347.3,274.5z"/>
	<path d="M391.5,277.6h-0.8v-4.9c-0.2,0.2-0.4,0.4-0.7,0.5c-0.3,0.2-0.6,0.3-0.8,0.4v-0.7c0.4-0.2,0.8-0.5,1.1-0.7s0.6-0.6,0.7-0.8
		h0.5V277.6L391.5,277.6z M397.6,276.8v0.7h-4.2c0-0.2,0-0.4,0.1-0.5c0.1-0.3,0.3-0.6,0.5-0.8c0.2-0.3,0.6-0.6,1-1
		c0.7-0.6,1.1-1,1.4-1.3c0.2-0.3,0.4-0.6,0.4-0.9c0-0.3-0.1-0.6-0.3-0.8c-0.2-0.2-0.5-0.3-0.9-0.3c-0.4,0-0.7,0.1-0.9,0.3
		c-0.2,0.2-0.3,0.5-0.3,0.9l-0.8-0.1c0.1-0.6,0.3-1,0.6-1.4c0.4-0.3,0.8-0.5,1.4-0.5c0.6,0,1.1,0.2,1.4,0.5c0.4,0.3,0.5,0.8,0.5,1.2
		c0,0.2-0.1,0.5-0.2,0.7s-0.3,0.5-0.5,0.8c-0.2,0.3-0.6,0.6-1.2,1.1c-0.5,0.4-0.8,0.7-0.9,0.8c-0.1,0.1-0.2,0.3-0.3,0.4H397.6
		L397.6,276.8z M398.4,274.5c0-0.7,0.1-1.3,0.2-1.8c0.2-0.5,0.4-0.8,0.7-1.1c0.3-0.2,0.7-0.4,1.1-0.4c0.3,0,0.6,0.1,0.9,0.2
		c0.3,0.1,0.5,0.3,0.6,0.6c0.2,0.3,0.3,0.6,0.4,0.9c0.1,0.4,0.1,0.9,0.1,1.5c0,0.7-0.1,1.3-0.2,1.8c-0.2,0.5-0.4,0.8-0.7,1.1
		c-0.3,0.2-0.7,0.4-1.1,0.4c-0.6,0-1.1-0.2-1.4-0.7C398.6,276.5,398.4,275.7,398.4,274.5L398.4,274.5z M399.2,274.5
		c0,1,0.1,1.7,0.4,2.1c0.2,0.3,0.5,0.5,0.9,0.5c0.4,0,0.7-0.2,0.9-0.5c0.2-0.3,0.4-1,0.4-2.1s-0.1-1.7-0.4-2.1
		c-0.2-0.3-0.5-0.5-0.9-0.5c-0.4,0-0.6,0.2-0.9,0.5C399.3,272.7,399.2,273.4,399.2,274.5L399.2,274.5z M403.3,274.5
		c0-0.7,0.1-1.3,0.2-1.8c0.2-0.5,0.4-0.8,0.7-1.1c0.3-0.2,0.7-0.4,1.1-0.4c0.3,0,0.6,0.1,0.9,0.2c0.3,0.1,0.5,0.3,0.6,0.6
		c0.2,0.3,0.3,0.6,0.4,0.9c0.1,0.4,0.1,0.9,0.1,1.5c0,0.7-0.1,1.3-0.2,1.8c-0.2,0.5-0.4,0.8-0.7,1.1c-0.3,0.2-0.7,0.4-1.1,0.4
		c-0.6,0-1.1-0.2-1.4-0.7C403.5,276.5,403.3,275.7,403.3,274.5L403.3,274.5z M404.1,274.5c0,1,0.1,1.7,0.4,2.1s0.5,0.5,0.9,0.5
		c0.4,0,0.7-0.2,0.9-0.5c0.2-0.3,0.4-1,0.4-2.1s-0.1-1.7-0.4-2.1c-0.2-0.3-0.5-0.5-0.9-0.5c-0.4,0-0.6,0.2-0.9,0.5
		C404.2,272.7,404.1,273.4,404.1,274.5L404.1,274.5z"/>
	<path d="M448.3,277.6h-0.8v-4.9c-0.2,0.2-0.4,0.4-0.7,0.5c-0.3,0.2-0.6,0.3-0.8,0.4v-0.7c0.4-0.2,0.8-0.5,1.1-0.7
		c0.3-0.3,0.6-0.6,0.7-0.8h0.5V277.6L448.3,277.6z M450.3,275.9l0.8-0.1c0.1,0.4,0.2,0.8,0.5,0.9c0.2,0.2,0.5,0.3,0.8,0.3
		c0.4,0,0.7-0.1,0.9-0.4c0.2-0.3,0.4-0.6,0.4-0.9c0-0.4-0.1-0.7-0.3-0.9c-0.2-0.2-0.5-0.3-0.9-0.3c-0.1,0-0.3,0-0.6,0.1l0.1-0.7
		c0.1,0,0.1,0,0.1,0c0.3,0,0.6-0.1,0.9-0.3s0.4-0.4,0.4-0.8c0-0.3-0.1-0.5-0.3-0.7c-0.2-0.2-0.4-0.3-0.7-0.3c-0.3,0-0.6,0.1-0.8,0.3
		c-0.2,0.2-0.3,0.5-0.4,0.9l-0.8-0.1c0.1-0.5,0.3-0.9,0.6-1.2c0.3-0.3,0.8-0.4,1.3-0.4c0.3,0,0.7,0.1,0.9,0.2
		c0.3,0.1,0.5,0.3,0.7,0.6c0.2,0.3,0.2,0.5,0.2,0.8c0,0.3-0.1,0.5-0.2,0.7s-0.4,0.4-0.7,0.5c0.4,0.1,0.7,0.3,0.9,0.5s0.3,0.6,0.3,1
		c0,0.6-0.2,1-0.6,1.4c-0.4,0.4-0.9,0.6-1.5,0.6c-0.6,0-1-0.2-1.4-0.5C450.6,276.9,450.3,276.4,450.3,275.9L450.3,275.9z
		 M455.2,274.5c0-0.7,0.1-1.3,0.2-1.8s0.4-0.8,0.7-1.1c0.3-0.2,0.7-0.4,1.1-0.4c0.3,0,0.6,0.1,0.9,0.2c0.3,0.1,0.5,0.3,0.6,0.6
		c0.2,0.3,0.3,0.6,0.4,0.9c0.1,0.4,0.1,0.9,0.1,1.5c0,0.7-0.1,1.3-0.2,1.8c-0.2,0.5-0.4,0.8-0.7,1.1c-0.3,0.2-0.7,0.4-1.1,0.4
		c-0.6,0-1.1-0.2-1.4-0.7C455.4,276.5,455.2,275.7,455.2,274.5L455.2,274.5z M456,274.5c0,1,0.1,1.7,0.4,2.1s0.5,0.5,0.9,0.5
		c0.4,0,0.7-0.2,0.9-0.5c0.2-0.3,0.4-1,0.4-2.1s-0.1-1.7-0.4-2.1c-0.2-0.3-0.5-0.5-0.9-0.5s-0.6,0.2-0.9,0.5
		C456.1,272.7,456,273.4,456,274.5L456,274.5z M460.1,274.5c0-0.7,0.1-1.3,0.2-1.8c0.2-0.5,0.4-0.8,0.7-1.1c0.3-0.2,0.7-0.4,1.1-0.4
		c0.3,0,0.6,0.1,0.9,0.2c0.3,0.1,0.5,0.3,0.6,0.6c0.2,0.3,0.3,0.6,0.4,0.9s0.1,0.9,0.1,1.5c0,0.7-0.1,1.3-0.2,1.8
		c-0.2,0.5-0.4,0.8-0.7,1.1c-0.3,0.2-0.7,0.4-1.1,0.4c-0.6,0-1.1-0.2-1.4-0.7C460.3,276.5,460.1,275.7,460.1,274.5L460.1,274.5z
		 M460.9,274.5c0,1,0.1,1.7,0.4,2.1c0.2,0.3,0.5,0.5,0.9,0.5c0.4,0,0.7-0.2,0.9-0.5s0.4-1,0.4-2.1s-0.1-1.7-0.4-2.1
		s-0.5-0.5-0.9-0.5c-0.4,0-0.6,0.2-0.9,0.5C461,272.7,460.9,273.4,460.9,274.5L460.9,274.5z"/>
	<path d="M505.1,277.6h-0.8v-4.9c-0.2,0.2-0.4,0.4-0.7,0.5c-0.3,0.2-0.6,0.3-0.8,0.4v-0.7c0.4-0.2,0.8-0.5,1.1-0.7
		c0.3-0.3,0.6-0.6,0.7-0.8h0.5V277.6L505.1,277.6z M509.6,277.6v-1.5h-2.7v-0.7l2.9-4.1h0.6v4.1h0.8v0.7h-0.8v1.5H509.6L509.6,277.6
		z M509.6,275.4v-2.8l-2,2.8H509.6L509.6,275.4z M512,274.5c0-0.7,0.1-1.3,0.2-1.8c0.2-0.5,0.4-0.8,0.7-1.1c0.3-0.2,0.7-0.4,1.1-0.4
		c0.3,0,0.6,0.1,0.9,0.2c0.3,0.1,0.5,0.3,0.6,0.6c0.2,0.3,0.3,0.6,0.4,0.9c0.1,0.4,0.1,0.9,0.1,1.5c0,0.7-0.1,1.3-0.2,1.8
		c-0.2,0.5-0.4,0.8-0.7,1.1c-0.3,0.2-0.7,0.4-1.1,0.4c-0.6,0-1.1-0.2-1.4-0.7C512.2,276.5,512,275.7,512,274.5L512,274.5z
		 M512.8,274.5c0,1,0.1,1.7,0.4,2.1c0.2,0.3,0.5,0.5,0.9,0.5c0.4,0,0.7-0.2,0.9-0.5c0.2-0.3,0.4-1,0.4-2.1s-0.1-1.7-0.4-2.1
		c-0.2-0.3-0.5-0.5-0.9-0.5c-0.4,0-0.6,0.2-0.9,0.5C512.9,272.7,512.8,273.4,512.8,274.5L512.8,274.5z M516.9,274.5
		c0-0.7,0.1-1.3,0.2-1.8c0.2-0.5,0.4-0.8,0.7-1.1c0.3-0.2,0.7-0.4,1.1-0.4c0.3,0,0.6,0.1,0.9,0.2c0.3,0.1,0.5,0.3,0.6,0.6
		s0.3,0.6,0.4,0.9c0.1,0.4,0.1,0.9,0.1,1.5c0,0.7-0.1,1.3-0.2,1.8c-0.2,0.5-0.4,0.8-0.7,1.1c-0.3,0.2-0.7,0.4-1.1,0.4
		c-0.6,0-1.1-0.2-1.4-0.7C517.1,276.5,516.9,275.7,516.9,274.5L516.9,274.5z M517.7,274.5c0,1,0.1,1.7,0.4,2.1
		c0.2,0.3,0.5,0.5,0.9,0.5c0.4,0,0.7-0.2,0.9-0.5c0.2-0.3,0.4-1,0.4-2.1s-0.1-1.7-0.4-2.1c-0.2-0.3-0.5-0.5-0.9-0.5
		c-0.4,0-0.6,0.2-0.9,0.5C517.8,272.7,517.7,273.4,517.7,274.5L517.7,274.5z"/>
	<polyline class="st3" points="170.1,267.3 170.1,128.7 171,127.6 171.9,126.5 172.7,125.5 173.6,124.4 174.5,123.3 175.4,122.2 
		176.3,121.1 177.2,120.1 178.1,119 178.9,117.9 179.8,116.8 180.7,115.8 181.6,114.7 182.5,113.6 183.4,112.5 184.3,111.5 
		185.1,110.4 186,109.3 186.9,108.3 187.8,107.2 188.7,106.2 189.6,105.1 190.5,104.1 191.3,103 192.2,102 193.1,101 194,99.9 
		194.9,98.9 195.8,97.9 196.7,96.8 197.5,95.8 198.4,94.8 199.3,93.8 200.2,92.8 201.1,91.8 202,90.8 202.9,89.8 203.7,88.8 
		204.6,87.9 205.5,86.9 206.4,85.9 207.3,85 208.2,84 209.1,83.1 209.9,82.1 210.8,81.2 211.7,80.3 212.6,79.3 213.5,78.4 
		214.4,77.5 215.3,76.6 216.1,75.7 217,74.8 217.9,74 218.8,73.1 219.7,72.2 220.6,71.4 221.5,70.5 222.3,69.7 223.2,68.9 224.1,68 
		225,67.2 225.9,66.4 226.8,65.6 227.7,64.9 228.5,64.1 229.4,63.3 230.3,62.6 231.2,61.8 232.1,61.1 233,60.4 233.9,59.6 
		234.7,58.9 235.6,58.2 236.5,57.6 237.4,56.9 238.3,56.2 239.2,55.6 240.1,54.9 240.9,54.3 241.8,53.7 242.7,53.1 243.6,52.5 
		244.5,51.9 245.4,51.3 246.3,50.8 247.1,50.2 248,49.7 248.9,49.2 249.8,48.6 250.7,48.1 251.6,47.7 252.5,47.2 253.3,46.7 
		254.2,46.3 255.1,45.8 256,45.4 256.9,45 257.8,44.6 258.7,44.2 259.5,43.8 260.4,43.5 261.3,43.1 262.2,42.8 263.1,42.5 264,42.1 
		264.9,41.8 265.7,41.6 266.6,41.3 267.5,41 268.4,40.8 269.3,40.6 270.2,40.4 271.1,40.2 271.9,40 272.8,39.8 273.7,39.6 
		274.6,39.5 275.5,39.4 276.4,39.2 277.3,39.1 278.1,39 279,39 279.9,38.9 280.8,38.9 281.7,38.8 282.6,38.8 283.5,38.8 284.4,38.8 
		285.2,38.8 286.1,38.9 287,38.9 287.9,39 288.8,39 289.7,39.1 290.6,39.2 291.4,39.4 292.3,39.5 293.2,39.6 294.1,39.8 295,40 
		295.9,40.2 296.8,40.4 297.6,40.6 298.5,40.8 299.4,41 300.3,41.3 301.2,41.6 302.1,41.8 303,42.1 303.8,42.5 304.7,42.8 
		305.6,43.1 306.5,43.5 307.4,43.8 308.3,44.2 309.2,44.6 310,45 310.9,45.4 311.8,45.8 312.7,46.3 313.6,46.7 314.5,47.2 
		315.4,47.7 316.2,48.1 317.1,48.6 318,49.2 318.9,49.7 319.8,50.2 320.7,50.8 321.6,51.3 322.4,51.9 323.3,52.5 324.2,53.1 
		325.1,53.7 326,54.3 326.9,54.9 327.8,55.6 328.6,56.2 329.5,56.9 330.4,57.6 331.3,58.2 332.2,58.9 333.1,59.6 334,60.4 
		334.8,61.1 335.7,61.8 336.6,62.6 337.5,63.3 338.4,64.1 339.3,64.9 340.2,65.6 341,66.4 341.9,67.2 342.8,68 343.7,68.9 
		344.6,69.7 345.5,70.5 346.4,71.4 347.2,72.2 348.1,73.1 349,74 349.9,74.8 350.8,75.7 351.7,76.6 352.6,77.5 353.4,78.4 
		354.3,79.3 355.2,80.3 356.1,81.2 357,82.1 357.9,83.1 358.8,84 359.6,85 360.5,85.9 361.4,86.9 362.3,87.9 363.2,88.8 364.1,89.8 
		365,90.8 365.8,91.8 366.7,92.8 367.6,93.8 368.5,94.8 369.4,95.8 370.3,96.8 371.2,97.9 372,98.9 372.9,99.9 373.8,101 374.7,102 
		375.6,103 376.5,104.1 377.4,105.1 378.2,106.2 379.1,107.2 380,108.3 380.9,109.3 381.8,110.4 382.7,111.5 383.6,112.5 
		384.4,113.6 385.3,114.7 386.2,115.8 387.1,116.8 388,117.9 388.9,119 389.8,120.1 390.6,121.1 391.5,122.2 392.4,123.3 
		393.3,124.4 394.2,125.5 395.1,126.5 396,127.6 396.9,128.7 396.9,267.3 170.1,267.3 	"/>
	<g>
		<defs>
			<rect id="SVGID_3_" x="1.5" width="568.9" height="293"/>
		</defs>
		<clipPath id="SVGID_4_">
			<use xlink:href="#SVGID_3_"  style="overflow:visible;"/>
		</clipPath>
		<polyline class="st4" points="170.1,267.3 170.1,128.7 171,127.6 171.9,126.5 172.7,125.5 173.6,124.4 174.5,123.3 175.4,122.2 
			176.3,121.1 177.2,120.1 178.1,119 178.9,117.9 179.8,116.8 180.7,115.8 181.6,114.7 182.5,113.6 183.4,112.5 184.3,111.5 
			185.1,110.4 186,109.3 186.9,108.3 187.8,107.2 188.7,106.2 189.6,105.1 190.5,104.1 191.3,103 192.2,102 193.1,101 194,99.9 
			194.9,98.9 195.8,97.9 196.7,96.8 197.5,95.8 198.4,94.8 199.3,93.8 200.2,92.8 201.1,91.8 202,90.8 202.9,89.8 203.7,88.8 
			204.6,87.9 205.5,86.9 206.4,85.9 207.3,85 208.2,84 209.1,83.1 209.9,82.1 210.8,81.2 211.7,80.3 212.6,79.3 213.5,78.4 
			214.4,77.5 215.3,76.6 216.1,75.7 217,74.8 217.9,74 218.8,73.1 219.7,72.2 220.6,71.4 221.5,70.5 222.3,69.7 223.2,68.9 
			224.1,68 225,67.2 225.9,66.4 226.8,65.6 227.7,64.9 228.5,64.1 229.4,63.3 230.3,62.6 231.2,61.8 232.1,61.1 233,60.4 
			233.9,59.6 234.7,58.9 235.6,58.2 236.5,57.6 237.4,56.9 238.3,56.2 239.2,55.6 240.1,54.9 240.9,54.3 241.8,53.7 242.7,53.1 
			243.6,52.5 244.5,51.9 245.4,51.3 246.3,50.8 247.1,50.2 248,49.7 248.9,49.2 249.8,48.6 250.7,48.1 251.6,47.7 252.5,47.2 
			253.3,46.7 254.2,46.3 255.1,45.8 256,45.4 256.9,45 257.8,44.6 258.7,44.2 259.5,43.8 260.4,43.5 261.3,43.1 262.2,42.8 
			263.1,42.5 264,42.1 264.9,41.8 265.7,41.6 266.6,41.3 267.5,41 268.4,40.8 269.3,40.6 270.2,40.4 271.1,40.2 271.9,40 
			272.8,39.8 273.7,39.6 274.6,39.5 275.5,39.4 276.4,39.2 277.3,39.1 278.1,39 279,39 279.9,38.9 280.8,38.9 281.7,38.8 
			282.6,38.8 283.5,38.8 284.4,38.8 285.2,38.8 286.1,38.9 287,38.9 287.9,39 288.8,39 289.7,39.1 290.6,39.2 291.4,39.4 
			292.3,39.5 293.2,39.6 294.1,39.8 295,40 295.9,40.2 296.8,40.4 297.6,40.6 298.5,40.8 299.4,41 300.3,41.3 301.2,41.6 
			302.1,41.8 303,42.1 303.8,42.5 304.7,42.8 305.6,43.1 306.5,43.5 307.4,43.8 308.3,44.2 309.2,44.6 310,45 310.9,45.4 
			311.8,45.8 312.7,46.3 313.6,46.7 314.5,47.2 315.4,47.7 316.2,48.1 317.1,48.6 318,49.2 318.9,49.7 319.8,50.2 320.7,50.8 
			321.6,51.3 322.4,51.9 323.3,52.5 324.2,53.1 325.1,53.7 326,54.3 326.9,54.9 327.8,55.6 328.6,56.2 329.5,56.9 330.4,57.6 
			331.3,58.2 332.2,58.9 333.1,59.6 334,60.4 334.8,61.1 335.7,61.8 336.6,62.6 337.5,63.3 338.4,64.1 339.3,64.9 340.2,65.6 
			341,66.4 341.9,67.2 342.8,68 343.7,68.9 344.6,69.7 345.5,70.5 346.4,71.4 347.2,72.2 348.1,73.1 349,74 349.9,74.8 350.8,75.7 
			351.7,76.6 352.6,77.5 353.4,78.4 354.3,79.3 355.2,80.3 356.1,81.2 357,82.1 357.9,83.1 358.8,84 359.6,85 360.5,85.9 
			361.4,86.9 362.3,87.9 363.2,88.8 364.1,89.8 365,90.8 365.8,91.8 366.7,92.8 367.6,93.8 368.5,94.8 369.4,95.8 370.3,96.8 
			371.2,97.9 372,98.9 372.9,99.9 373.8,101 374.7,102 375.6,103 376.5,104.1 377.4,105.1 378.2,106.2 379.1,107.2 380,108.3 
			380.9,109.3 381.8,110.4 382.7,111.5 383.6,112.5 384.4,113.6 385.3,114.7 386.2,115.8 387.1,116.8 388,117.9 388.9,119 
			389.8,120.1 390.6,121.1 391.5,122.2 392.4,123.3 393.3,124.4 394.2,125.5 395.1,126.5 396,127.6 396.9,128.7 396.9,267.3 
			170.1,267.3 		"/>
		<polyline class="st5" points="1.5,256.9 3.7,256.4 5.9,255.9 8.1,255.3 10.4,254.7 12.6,254.1 14.8,253.5 17,252.9 19.2,252.2 
			21.5,251.5 23.7,250.7 25.9,250 28.1,249.2 30.4,248.4 32.6,247.5 34.8,246.7 37,245.8 39.2,244.8 41.5,243.9 43.7,242.9 
			45.9,241.9 48.1,240.8 50.4,239.7 52.6,238.6 54.8,237.4 57,236.2 59.2,235 61.5,233.7 63.7,232.4 65.9,231 68.1,229.7 
			70.4,228.2 72.6,226.8 74.8,225.3 77,223.7 79.2,222.2 81.5,220.6 83.7,218.9 85.9,217.2 88.1,215.5 90.4,213.7 92.6,211.9 
			94.8,210.1 97,208.2 99.2,206.3 101.5,204.3 103.7,202.3 105.9,200.2 108.1,198.2 110.4,196.1 112.6,193.9 114.8,191.7 117,189.5 
			119.2,187.2 121.5,185 123.7,182.6 125.9,180.3 128.1,177.9 130.4,175.5 132.6,173 134.8,170.6 137,168.1 139.2,165.5 141.5,163 
			143.7,160.4 145.9,157.8 148.1,155.2 150.4,152.6 152.6,149.9 154.8,147.3 157,144.6 159.2,141.9 161.5,139.2 163.7,136.5 
			165.9,133.8 168.1,131.1 170.4,128.4 172.6,125.7 174.8,122.9 177,120.2 179.2,117.5 181.5,114.8 183.7,112.2 185.9,109.5 
			188.1,106.8 190.4,104.2 192.6,101.6 194.8,99 197,96.4 199.2,93.9 201.5,91.4 203.7,88.9 205.9,86.5 208.1,84 210.4,81.7 
			212.6,79.4 214.8,77.1 217,74.8 219.2,72.7 221.5,70.5 223.7,68.4 225.9,66.4 228.1,64.4 230.4,62.5 232.6,60.7 234.8,58.9 
			237,57.2 239.2,55.5 241.5,53.9 243.7,52.4 245.9,51 248.1,49.6 250.4,48.3 252.6,47.1 254.8,46 257,44.9 259.2,43.9 261.5,43.1 
			263.7,42.2 265.9,41.5 268.1,40.9 270.4,40.3 272.6,39.8 274.8,39.5 277,39.2 279.2,39 281.5,38.8 283.7,38.8 285.9,38.8 
			288.1,39 290.4,39.2 292.6,39.5 294.8,39.9 297,40.4 299.2,41 301.5,41.7 303.7,42.4 305.9,43.2 308.1,44.1 310.4,45.1 
			312.6,46.2 314.8,47.4 317,48.6 319.2,49.9 321.5,51.3 323.7,52.7 325.9,54.3 328.1,55.9 330.4,57.5 332.6,59.3 334.8,61.1 
			337,62.9 339.2,64.8 341.5,66.8 343.7,68.9 345.9,71 348.1,73.1 350.4,75.3 352.6,77.5 354.8,79.8 357,82.2 359.2,84.5 
			361.5,86.9 363.7,89.4 365.9,91.9 368.1,94.4 370.4,96.9 372.6,99.5 374.8,102.1 377,104.7 379.2,107.4 381.5,110 383.7,112.7 
			385.9,115.4 388.1,118.1 390.4,120.8 392.6,123.5 394.8,126.2 397,128.9 399.2,131.6 401.5,134.3 403.7,137.1 405.9,139.8 
			408.1,142.5 410.4,145.1 412.6,147.8 414.8,150.5 417,153.1 419.2,155.7 421.5,158.4 423.7,160.9 425.9,163.5 428.1,166.1 
			430.4,168.6 432.6,171.1 434.8,173.5 437,176 439.2,178.4 441.5,180.8 443.7,183.1 445.9,185.4 448.1,187.7 450.4,190 
			452.6,192.2 454.8,194.3 457,196.5 459.2,198.6 461.5,200.7 463.7,202.7 465.9,204.7 468.1,206.6 470.4,208.6 472.6,210.4 
			474.8,212.3 477,214.1 479.2,215.8 481.5,217.6 483.7,219.2 485.9,220.9 488.1,222.5 490.4,224.1 492.6,225.6 494.8,227.1 
			497,228.5 499.2,229.9 501.5,231.3 503.7,232.7 505.9,234 508.1,235.2 510.4,236.4 512.6,237.6 514.8,238.8 517,239.9 519.2,241 
			521.5,242.1 523.7,243.1 525.9,244.1 528.1,245 530.4,246 532.6,246.9 534.8,247.7 537,248.6 539.2,249.4 541.5,250.1 
			543.7,250.9 545.9,251.6 548.1,252.3 550.4,253 552.6,253.6 554.8,254.3 557,254.9 559.2,255.4 561.5,256 563.7,256.5 565.9,257 
			568.1,257.5 570.4,258 		"/>
	</g>
	<path class="st6" d="M247.8,157l3.9,11c0.2,0.4,0.4,0.6,0.6,0.8c0.4,0,0.7,0,1.1,0h0.3v0.6c-0.7,0-1.5,0-2.2,0c-1.3,0-2.2,0-2.8,0
		v-0.6c1.1,0,1.7-0.2,1.7-0.6c0,0-0.1-0.1-0.3-0.3l-0.8-2.8h-4.4l-0.8,2.5c0,0,0,0.1,0,0.3c0,0.4,0.3,0.6,0.8,0.8l0,0
		c0.2,0,0.4,0,0.6,0v0.6c-1.1,0-1.7,0-1.9,0c-0.6,0-1.2,0-1.9,0v-0.6c0.9,0,1.6-0.4,1.9-1.1l0,0l3.6-10.7c0.2-0.2,0.3-0.3,0.3-0.3
		c0.2,0,0.3,0,0.3,0C247.7,156.7,247.8,156.8,247.8,157L247.8,157L247.8,157L247.8,157L247.8,157z M246.9,159.2l-1.9,5.5h3.9
		L246.9,159.2L246.9,159.2z"/>
	<path class="st6" d="M257.1,161.7L257.1,161.7v6.3c0,0.4,0.1,0.6,0.3,0.8l0,0c0.2,0,0.6,0,1.1,0v0.6c-1.3,0-1.9,0-1.9,0
		c-0.2,0-0.8,0-1.9,0v-0.6c0.7,0,1.2-0.1,1.4-0.3l0,0c0,0,0-0.2,0-0.6v-4.7c0-0.6-0.1-0.8-0.3-0.8l0,0l0,0l0,0l0,0
		c-0.2-0.2-0.6-0.3-1.1-0.3v-0.6H257.1L257.1,161.7z M257.4,158.7c0,0.4-0.3,0.6-0.8,0.8c0,0-0.1,0-0.3,0c-0.4,0-0.6-0.2-0.8-0.6
		l0,0c0-0.2,0-0.3,0-0.3c0-0.4,0.2-0.6,0.6-0.8c0-0.2,0.1-0.3,0.3-0.3c0.4,0,0.6,0.2,0.8,0.6C257.3,158.3,257.4,158.5,257.4,158.7
		L257.4,158.7z"/>
	<path class="st6" d="M262,168c0,0.4,0.1,0.6,0.3,0.6l0,0v0.3c0.2,0,0.6,0,1.1,0h0.3v0.6c-0.4,0-1.1,0-2.2,0c0,0-0.6,0-1.9,0v-0.6
		c0.7,0,1.1-0.1,1.1-0.3l0,0c0.2,0,0.3-0.2,0.3-0.6v-4.7c0-0.6-0.1-0.8-0.3-0.8c-0.2-0.2-0.5-0.3-0.8-0.3h-0.3v-0.6h2.5v1.9
		c0.2-1.1,0.6-1.7,1.4-1.9c0.2,0,0.5,0,0.8,0c0.6,0,0.9,0.2,1.1,0.6c0,0.2,0,0.4,0,0.6c0,0.4-0.2,0.6-0.6,0.6l0,0
		c-0.4,0-0.6-0.1-0.8-0.3c0-0.2,0-0.3,0-0.3c0-0.4,0.1-0.6,0.3-0.8l0,0c-0.9,0-1.6,0.5-1.9,1.4c-0.2,0.6-0.3,1.2-0.3,1.9V168
		L262,168z"/>
	<path class="st6" d="M272.8,165.3L272.8,165.3h-5c0,1.3,0.2,2.2,0.6,2.8c0.6,0.7,1.2,1.1,1.9,1.1c0.9,0,1.6-0.3,1.9-0.8
		c0.2-0.4,0.4-0.6,0.6-0.8c0-0.2,0.1-0.3,0.3-0.3c0.2,0,0.3,0,0.3,0c0,0.4-0.2,0.7-0.6,1.1c-0.6,0.7-1.2,1.2-1.9,1.4
		c-0.2,0-0.4,0-0.6,0c-1.1,0-2-0.5-2.8-1.4c-0.7-0.7-1.1-1.7-1.1-2.8c0-1.3,0.4-2.3,1.1-3c0.7-0.7,1.6-1.1,2.5-1.1
		c1.3,0,2.2,0.6,2.8,1.7c0.4,0.6,0.6,1.2,0.6,1.9c0,0.2-0.1,0.3-0.3,0.3C273,165.3,273,165.3,272.8,165.3L272.8,165.3z M267.8,165
		L267.8,165h4.1c0-1.1-0.2-1.9-0.6-2.5c-0.4-0.4-0.8-0.6-1.4-0.6s-1,0.3-1.4,0.8C268.1,163.3,267.8,164.1,267.8,165L267.8,165z"/>
	<path class="st6" d="M291.3,161.4c0,0.9-0.4,1.7-1.1,2.2c-0.6,0.6-1.1,0.8-1.7,0.8c-0.9,0-1.8-0.4-2.8-1.1c0,0-0.1-0.1-0.3-0.3
		c-0.9-0.6-1.7-0.9-2.2-1.1c-0.2,0-0.5,0-0.8,0c-0.7,0-1.3,0.2-1.7,0.6c-0.2,0-0.3,0-0.3,0c-0.2,0.4-0.4,0.8-0.6,1.4
		c0,0.2-0.1,0.3-0.3,0.3c0,0,0-0.1,0-0.3c0-1.1,0.4-1.9,1.1-2.5c0.6-0.4,1.1-0.6,1.7-0.6c0.7,0,1.7,0.4,2.8,1.1l0,0
		c1.1,0.7,1.8,1.1,2.2,1.1c0.4,0.2,0.7,0.3,1.1,0.3c0.7,0,1.3-0.3,1.7-0.8c0.4-0.4,0.6-0.7,0.6-1.1c0.2-0.4,0.3-0.6,0.3-0.6
		C291.2,160.9,291.3,161,291.3,161.4L291.3,161.4z M291.3,165.5c0,0.9-0.4,1.7-1.1,2.2c-0.6,0.4-1.1,0.6-1.7,0.6
		c-0.9,0-1.8-0.3-2.8-0.8c0,0-0.1-0.1-0.3-0.3c-0.9-0.6-1.7-0.9-2.2-1.1c-0.2,0-0.5,0-0.8,0c-0.7,0-1.3,0.2-1.7,0.6
		c-0.4,0.4-0.6,0.8-0.8,1.4c0,0.2-0.1,0.3-0.3,0.3c0,0,0-0.2,0-0.6c0-0.9,0.4-1.7,1.1-2.2c0.6-0.4,1.1-0.6,1.7-0.6
		c0.7,0,1.7,0.4,2.8,1.1l0,0c1.1,0.7,1.8,1.1,2.2,1.1c0.4,0.2,0.7,0.3,1.1,0.3c0.7,0,1.4-0.3,1.9-0.8c0.2-0.4,0.3-0.7,0.3-1.1
		c0-0.4,0.1-0.6,0.3-0.6C291.2,165,291.3,165.2,291.3,165.5L291.3,165.5z"/>
	<path class="st6" d="M299.4,163.6L299.4,163.6c0.6-1.1,1.3-1.7,2.2-1.7c1.1,0,2,0.5,2.8,1.4c0.4,0.4,0.6,0.9,0.8,1.7
		c0,0.2,0,0.5,0,0.8c0,1.3-0.5,2.3-1.4,3c-0.6,0.6-1.3,0.8-2.2,0.8c-1.1,0-2-0.6-2.8-1.7c-0.6-0.9-0.8-2.3-0.8-4.1
		c0-2,0.6-3.7,1.7-5c0.9-0.9,1.9-1.4,3-1.4c0.9,0,1.6,0.4,1.9,1.1c0.2,0.4,0.3,0.6,0.3,0.8c0,0.6-0.3,0.8-0.8,0.8l0,0
		c-0.4,0-0.6-0.1-0.8-0.3c0-0.2,0-0.4,0-0.6c0-0.4,0.3-0.6,0.8-0.6c-0.2-0.6-0.6-0.8-1.4-0.8c-0.9,0-1.7,0.4-2.2,1.1
		c-0.7,0.9-1.1,2.2-1.1,3.9V163.6L299.4,163.6z M301.6,169.4L301.6,169.4c0.7,0,1.3-0.5,1.7-1.4c0.2-0.4,0.3-1.1,0.3-2.2
		c0-1.3-0.1-2.1-0.3-2.5c-0.4-0.7-0.9-1.1-1.7-1.1c-0.9,0-1.6,0.6-1.9,1.7c0,0.6,0,1.1,0,1.7c0,1.1,0.1,1.9,0.3,2.5
		c0.2,0.6,0.6,0.9,1.1,1.1C301.3,169.3,301.4,169.4,301.6,169.4L301.6,169.4z"/>
	<path class="st6" d="M308.8,161.4l2.2,1.4c1.3-0.7,1.9-1.6,1.9-2.5c0-0.7-0.4-1.4-1.1-1.9c-0.4-0.2-0.8-0.3-1.4-0.3
		c-0.9,0-1.6,0.3-1.9,0.8l0,0l0,0c-0.4,0.4-0.6,0.7-0.6,1.1C308,160.6,308.2,161,308.8,161.4L308.8,161.4z M311.5,163.1L311.5,163.1
		c0.9,0.6,1.5,0.9,1.7,1.1l0,0c0.6,0.7,0.8,1.5,0.8,2.2c0,1.1-0.4,2-1.1,2.8c-0.7,0.4-1.6,0.6-2.5,0.6c-1.1,0-2-0.3-2.8-0.8
		c-0.6-0.6-0.8-1.3-0.8-2.2c0-1.3,0.8-2.3,2.5-3c-0.7-0.6-1.2-0.9-1.4-1.1c-0.6-0.6-0.8-1.2-0.8-1.9c0-0.9,0.5-1.7,1.4-2.2
		c0.6-0.6,1.2-0.8,1.9-0.8c1.1,0,1.9,0.4,2.5,1.1c0.6,0.4,0.8,0.9,0.8,1.7C313.7,161.4,313,162.3,311.5,163.1L311.5,163.1z
		 M309.6,163.9L309.6,163.9c-1.3,0.7-1.9,1.7-1.9,2.8c0,0.9,0.4,1.7,1.1,2.2c0.6,0.4,1.1,0.6,1.7,0.6c0.9,0,1.7-0.4,2.2-1.1
		c0.4-0.4,0.6-0.7,0.6-1.1c0-0.7-0.4-1.4-1.1-1.9c0,0-0.1,0-0.3,0L309.6,163.9L309.6,163.9z"/>
	<path class="st6" d="M327,156.7l-9.1,13.5c0,0.2-0.1,0.3-0.3,0.3c-0.2,0-0.3-0.1-0.3-0.3c0-0.2,0-0.3,0-0.3s0-0.1,0-0.3l8-11.8l0,0
		c-0.6,0.4-1.2,0.6-1.9,0.6c-0.2,0-0.3,0-0.3,0c-0.9,0-1.8-0.2-2.8-0.6c0.2,0.6,0.3,1.2,0.3,1.9c0,1.3-0.3,2.3-0.8,3
		c-0.4,0.4-0.8,0.6-1.4,0.6c-0.7,0-1.4-0.4-1.9-1.1c-0.4-0.7-0.6-1.6-0.6-2.5c0-1.3,0.4-2.3,1.1-3c0.4-0.4,0.8-0.6,1.4-0.6
		c0.4,0,0.8,0.2,1.4,0.6c0.9,0.9,2,1.4,3.3,1.4c1.3,0,2.4-0.6,3.3-1.7c0-0.2,0.1-0.3,0.3-0.3c0.2,0,0.3,0.1,0.3,0.3l0,0
		C327,156.6,327,156.7,327,156.7L327,156.7z M318.4,162.8c0.6,0,1-0.3,1.4-0.8c0.4-0.7,0.6-1.5,0.6-2.2c0-1.3-0.3-2.2-0.8-2.8
		c-0.4-0.4-0.7-0.6-1.1-0.6c-0.6,0-0.9,0.5-1.1,1.4c-0.2,0.4-0.3,1-0.3,1.9c0,1.8,0.4,2.8,1.1,3
		C318.2,162.8,318.2,162.8,318.4,162.8L318.4,162.8z M326.1,169.9c0.6,0,1-0.4,1.4-1.1c0.4-0.6,0.6-1.2,0.6-1.9
		c0-1.3-0.3-2.2-0.8-2.8c-0.4-0.4-0.7-0.6-1.1-0.6c-0.6,0-0.9,0.4-1.1,1.1l0,0c-0.2,0.6-0.3,1.3-0.3,2.2c0,1.8,0.4,2.8,1.1,3
		C326,169.9,326.1,169.9,326.1,169.9L326.1,169.9z M328.6,166.9c0,1.3-0.4,2.2-1.1,2.8c-0.4,0.6-0.8,0.8-1.4,0.8
		c-0.7,0-1.4-0.5-1.9-1.4c-0.4-0.6-0.6-1.3-0.6-2.2c0-1.3,0.4-2.3,1.1-3c0.4-0.4,0.8-0.6,1.4-0.6c0.7,0,1.4,0.4,1.9,1.1
		C328.4,165.2,328.6,166,328.6,166.9L328.6,166.9z"/>
</g>
</svg>
