<?xml version="1.0" encoding="UTF-8" standalone="no"?>
<svg
   xmlns:dc="http://purl.org/dc/elements/1.1/"
   xmlns:cc="http://creativecommons.org/ns#"
   xmlns:rdf="http://www.w3.org/1999/02/22-rdf-syntax-ns#"
   xmlns:svg="http://www.w3.org/2000/svg"
   xmlns="http://www.w3.org/2000/svg"
   viewBox="0 0 511.25 462.5"
   height="462.5"
   width="511.25"
   xml:space="preserve"
   version="1.1"
   id="svg2"><metadata
     id="metadata8"><rdf:RDF><cc:Work
         rdf:about=""><dc:format>image/svg+xml</dc:format><dc:type
           rdf:resource="http://purl.org/dc/dcmitype/StillImage" /></cc:Work></rdf:RDF></metadata><defs
     id="defs6" /><g
     transform="matrix(1.25,0,0,-1.25,0,462.5)"
     id="g10"><g
       transform="scale(0.1,0.1)"
       id="g12"><path
         id="path14"
         style="fill:#ffffff;fill-opacity:1;fill-rule:nonzero;stroke:none"
         d="m 0,0 4093.25,0 0,3700 L 0,3700 0,0 Z" /><path
         id="path16"
         style="fill:none;stroke:#c0c0c0;stroke-width:10;stroke-linecap:round;stroke-linejoin:round;stroke-miterlimit:10;stroke-dasharray:none;stroke-opacity:1"
         d="m 189.863,3700 0,-3706.12109" /><path
         id="path18"
         style="fill:none;stroke:#c0c0c0;stroke-width:10;stroke-linecap:round;stroke-linejoin:round;stroke-miterlimit:10;stroke-dasharray:none;stroke-opacity:1"
         d="m 189.863,3700 0,-3706.12109" /><path
         id="path20"
         style="fill:none;stroke:#c0c0c0;stroke-width:10;stroke-linecap:round;stroke-linejoin:round;stroke-miterlimit:10;stroke-dasharray:none;stroke-opacity:1"
         d="m 756.793,3700 0,-3706.12109" /><path
         id="path22"
         style="fill:none;stroke:#c0c0c0;stroke-width:10;stroke-linecap:round;stroke-linejoin:round;stroke-miterlimit:10;stroke-dasharray:none;stroke-opacity:1"
         d="m 1323.72,3700 0,-3706.12109" /><path
         id="path24"
         style="fill:none;stroke:#c0c0c0;stroke-width:10;stroke-linecap:round;stroke-linejoin:round;stroke-miterlimit:10;stroke-dasharray:none;stroke-opacity:1"
         d="m 1890.65,3700 0,-3706.12109" /><path
         id="path26"
         style="fill:none;stroke:#c0c0c0;stroke-width:10;stroke-linecap:round;stroke-linejoin:round;stroke-miterlimit:10;stroke-dasharray:none;stroke-opacity:1"
         d="m 3024.51,3700 0,-3706.12109" /><path
         id="path28"
         style="fill:none;stroke:#c0c0c0;stroke-width:10;stroke-linecap:round;stroke-linejoin:round;stroke-miterlimit:10;stroke-dasharray:none;stroke-opacity:1"
         d="m 3591.44,3700 0,-3706.12109" /><path
         id="path30"
         style="fill:none;stroke:#c0c0c0;stroke-width:10;stroke-linecap:round;stroke-linejoin:round;stroke-miterlimit:10;stroke-dasharray:none;stroke-opacity:1"
         d="m 0,3574.35 4093.25,0" /><path
         id="path32"
         style="fill:none;stroke:#c0c0c0;stroke-width:10;stroke-linecap:round;stroke-linejoin:round;stroke-miterlimit:10;stroke-dasharray:none;stroke-opacity:1"
         d="m 0,3574.35 4093.25,0" /><path
         id="path34"
         style="fill:none;stroke:#c0c0c0;stroke-width:10;stroke-linecap:round;stroke-linejoin:round;stroke-miterlimit:10;stroke-dasharray:none;stroke-opacity:1"
         d="m 0,3290.88 4093.25,0" /><path
         id="path36"
         style="fill:none;stroke:#c0c0c0;stroke-width:10;stroke-linecap:round;stroke-linejoin:round;stroke-miterlimit:10;stroke-dasharray:none;stroke-opacity:1"
         d="m 0,3007.42 4093.25,0" /><path
         id="path38"
         style="fill:none;stroke:#c0c0c0;stroke-width:10;stroke-linecap:round;stroke-linejoin:round;stroke-miterlimit:10;stroke-dasharray:none;stroke-opacity:1"
         d="m 0,2723.96 4093.25,0" /><path
         id="path40"
         style="fill:none;stroke:#c0c0c0;stroke-width:10;stroke-linecap:round;stroke-linejoin:round;stroke-miterlimit:10;stroke-dasharray:none;stroke-opacity:1"
         d="m 0,2440.49 4093.25,0" /><path
         id="path42"
         style="fill:none;stroke:#c0c0c0;stroke-width:10;stroke-linecap:round;stroke-linejoin:round;stroke-miterlimit:10;stroke-dasharray:none;stroke-opacity:1"
         d="m 0,2157.03 4093.25,0" /><path
         id="path44"
         style="fill:none;stroke:#c0c0c0;stroke-width:10;stroke-linecap:round;stroke-linejoin:round;stroke-miterlimit:10;stroke-dasharray:none;stroke-opacity:1"
         d="m 0,1873.56 4093.25,0" /><path
         id="path46"
         style="fill:none;stroke:#c0c0c0;stroke-width:10;stroke-linecap:round;stroke-linejoin:round;stroke-miterlimit:10;stroke-dasharray:none;stroke-opacity:1"
         d="m 0,1590.1 4093.25,0" /><path
         id="path48"
         style="fill:none;stroke:#c0c0c0;stroke-width:10;stroke-linecap:round;stroke-linejoin:round;stroke-miterlimit:10;stroke-dasharray:none;stroke-opacity:1"
         d="m 0,1306.63 4093.25,0" /><path
         id="path50"
         style="fill:none;stroke:#c0c0c0;stroke-width:10;stroke-linecap:round;stroke-linejoin:round;stroke-miterlimit:10;stroke-dasharray:none;stroke-opacity:1"
         d="m 0,1023.17 4093.25,0" /><path
         id="path52"
         style="fill:none;stroke:#c0c0c0;stroke-width:10;stroke-linecap:round;stroke-linejoin:round;stroke-miterlimit:10;stroke-dasharray:none;stroke-opacity:1"
         d="m 0,456.238 4093.25,0" /><path
         id="path54"
         style="fill:none;stroke:#c0c0c0;stroke-width:10;stroke-linecap:round;stroke-linejoin:round;stroke-miterlimit:10;stroke-dasharray:none;stroke-opacity:1"
         d="m 0,172.773 4093.25,0" /><path
         id="path56"
         style="fill:none;stroke:#000000;stroke-width:10;stroke-linecap:butt;stroke-linejoin:miter;stroke-miterlimit:10;stroke-dasharray:none;stroke-opacity:1"
         d="m 2457.58,3690.56 0,-3696.68109" /><path
         id="path58"
         style="fill:none;stroke:#000000;stroke-width:10;stroke-linecap:butt;stroke-linejoin:miter;stroke-miterlimit:10;stroke-dasharray:none;stroke-opacity:1"
         d="m 2457.58,3695.28 -23.6,-23.61" /><path
         id="path60"
         style="fill:none;stroke:#000000;stroke-width:10;stroke-linecap:butt;stroke-linejoin:miter;stroke-miterlimit:10;stroke-dasharray:none;stroke-opacity:1"
         d="m 2457.58,3695.28 23.61,-23.61" /><path
         id="path62"
         style="fill:none;stroke:#000000;stroke-width:10;stroke-linecap:butt;stroke-linejoin:miter;stroke-miterlimit:10;stroke-dasharray:none;stroke-opacity:1"
         d="m 0,739.703 4083.81,0" /><path
         id="path64"
         style="fill:none;stroke:#000000;stroke-width:10;stroke-linecap:butt;stroke-linejoin:miter;stroke-miterlimit:10;stroke-dasharray:none;stroke-opacity:1"
         d="m 4088.54,739.703 -23.61,23.606" /><path
         id="path66"
         style="fill:none;stroke:#000000;stroke-width:10;stroke-linecap:butt;stroke-linejoin:miter;stroke-miterlimit:10;stroke-dasharray:none;stroke-opacity:1"
         d="m 4088.54,739.703 -23.61,-23.605" /><path
         id="path68"
         style="fill:#000000;fill-opacity:1;fill-rule:nonzero;stroke:none"
         d="m 159.414,668.934 0,4.648 28.18,0 0,-4.648 -28.18,0 z m 54.66,-18.809 0,12.172 -21.98,0 0,5.68 23.164,32.824 5.09,0 0,-32.824 6.859,0 0,-5.68 -6.859,0 0,-12.172 -6.274,0 z m 0,17.852 0,22.867 -15.859,-22.867 15.859,0" /><path
         id="path70"
         style="fill:#000000;fill-opacity:1;fill-rule:nonzero;stroke:none"
         d="m 725.953,668.934 0,4.648 28.18,0 0,-4.648 -28.18,0 z m 34.746,-5.457 6.27,0.882 c 0.687,-3.539 1.894,-6.086 3.613,-7.632 1.723,-1.551 3.813,-2.325 6.273,-2.325 2.95,0 5.434,1.008 7.45,3.024 2.015,2.015 3.023,4.523 3.023,7.523 0,2.856 -0.933,5.215 -2.801,7.082 -1.871,1.871 -4.254,2.805 -7.156,2.805 -1.18,0 -2.633,-0.246 -4.351,-0.738 l 0.664,5.461 c 0.441,-0.051 0.785,-0.075 1.031,-0.075 2.656,0 5.039,0.7 7.156,2.102 2.113,1.402 3.172,3.527 3.172,6.379 0,2.312 -0.773,4.219 -2.324,5.719 -1.551,1.5 -3.555,2.25 -6.012,2.25 -2.41,0 -4.414,-0.762 -6.012,-2.286 -1.597,-1.527 -2.644,-3.812 -3.136,-6.863 l -6.196,1.11 c 0.739,4.179 2.457,7.41 5.164,9.699 2.703,2.285 6.047,3.429 10.032,3.429 2.804,0 5.359,-0.589 7.671,-1.769 2.313,-1.18 4.094,-2.805 5.348,-4.871 1.254,-2.063 1.883,-4.254 1.883,-6.563 0,-2.164 -0.59,-4.144 -1.77,-5.941 -1.183,-1.793 -2.929,-3.231 -5.238,-4.313 3,-0.691 5.324,-2.117 6.969,-4.281 1.648,-2.164 2.473,-4.89 2.473,-8.187 0,-4.426 -1.61,-8.176 -4.832,-11.25 -3.223,-3.075 -7.29,-4.61 -12.208,-4.61 -4.476,0 -8.175,1.328 -11.105,3.985 -2.926,2.656 -4.609,6.074 -5.051,10.254" /><path
         id="path72"
         style="fill:#000000;fill-opacity:1;fill-rule:nonzero;stroke:none"
         d="m 1292.5,668.934 0,4.648 28.18,0 0,-4.648 -28.18,0 z m 67.42,-12.836 0,-5.973 -33.49,0 c -0.05,1.473 0.2,2.926 0.73,4.352 0.84,2.261 2.21,4.5 4.1,6.711 1.89,2.214 4.61,4.773 8.15,7.671 5.51,4.528 9.23,8.102 11.18,10.735 1.94,2.633 2.91,5.125 2.91,7.488 0,2.457 -0.88,4.535 -2.66,6.234 -1.77,1.696 -4.08,2.543 -6.93,2.543 -3,0 -5.39,-0.898 -7.19,-2.691 -1.8,-1.797 -2.69,-4.293 -2.69,-7.488 l -6.42,0.664 c 0.44,4.769 2.09,8.41 4.94,10.918 2.85,2.508 6.69,3.761 11.51,3.761 4.87,0 8.72,-1.351 11.54,-4.058 2.83,-2.703 4.24,-6.047 4.24,-10.031 0,-2.016 -0.4,-4.008 -1.21,-5.977 -0.81,-1.965 -2.19,-4.031 -4.13,-6.195 -1.95,-2.164 -5.16,-5.141 -9.63,-8.926 -3.74,-3.098 -6.14,-5.215 -7.19,-6.344 -1.06,-1.133 -1.93,-2.262 -2.62,-3.394 l 24.86,0" /><path
         id="path74"
         style="fill:#000000;fill-opacity:1;fill-rule:nonzero;stroke:none"
         d="m 1859.04,668.934 0,4.648 28.17,0 0,-4.648 -28.17,0 z m 58.2,-18.809 -6.27,0 0,39.688 c -1.48,-1.43 -3.43,-2.868 -5.87,-4.317 -2.43,-1.453 -4.61,-2.519 -6.53,-3.211 l 0,6.051 c 3.45,1.621 6.47,3.59 9.08,5.902 2.6,2.309 4.45,4.571 5.53,6.785 l 4.06,0 0,-50.898" /><path
         id="path76"
         style="fill:#000000;fill-opacity:1;fill-rule:nonzero;stroke:none"
         d="m 3033.8,650.125 -6.28,0 0,39.688 c -1.47,-1.43 -3.43,-2.868 -5.86,-4.317 -2.43,-1.453 -4.61,-2.519 -6.53,-3.211 l 0,6.051 c 3.44,1.621 6.47,3.59 9.08,5.902 2.6,2.309 4.45,4.571 5.53,6.785 l 4.06,0 0,-50.898" /><path
         id="path78"
         style="fill:#000000;fill-opacity:1;fill-rule:nonzero;stroke:none"
         d="m 3609.56,656.098 0,-5.973 -33.49,0 c -0.05,1.473 0.19,2.926 0.73,4.352 0.84,2.261 2.2,4.5 4.1,6.711 1.89,2.214 4.61,4.773 8.15,7.671 5.51,4.528 9.23,8.102 11.18,10.735 1.94,2.633 2.91,5.125 2.91,7.488 0,2.457 -0.89,4.535 -2.66,6.234 -1.77,1.696 -4.08,2.543 -6.93,2.543 -3,0 -5.4,-0.898 -7.19,-2.691 -1.8,-1.797 -2.7,-4.293 -2.7,-7.488 l -6.41,0.664 c 0.44,4.769 2.09,8.41 4.94,10.918 2.85,2.508 6.69,3.761 11.51,3.761 4.87,0 8.71,-1.351 11.54,-4.058 2.83,-2.703 4.24,-6.047 4.24,-10.031 0,-2.016 -0.4,-4.008 -1.21,-5.977 -0.82,-1.965 -2.19,-4.031 -4.13,-6.195 -1.95,-2.164 -5.16,-5.141 -9.63,-8.926 -3.74,-3.098 -6.13,-5.215 -7.19,-6.344 -1.06,-1.133 -1.93,-2.262 -2.62,-3.394 l 24.86,0" /><path
         id="path80"
         style="fill:#000000;fill-opacity:1;fill-rule:nonzero;stroke:none"
         d="m 2350.04,163.77 0,4.648 28.17,0 0,-4.648 -28.17,0 z m 67.42,-12.836 0,-5.977 -33.49,0 c -0.05,1.477 0.2,2.926 0.74,4.352 0.83,2.265 2.2,4.5 4.09,6.714 1.9,2.211 4.61,4.77 8.15,7.672 5.51,4.524 9.24,8.102 11.18,10.735 1.94,2.629 2.91,5.125 2.91,7.488 0,2.457 -0.88,4.535 -2.65,6.23 -1.77,1.7 -4.09,2.547 -6.94,2.547 -3,0 -5.4,-0.898 -7.19,-2.695 -1.8,-1.793 -2.69,-4.289 -2.69,-7.484 l -6.42,0.664 c 0.44,4.769 2.09,8.406 4.94,10.918 2.86,2.507 6.69,3.761 11.51,3.761 4.87,0 8.72,-1.355 11.54,-4.058 2.83,-2.703 4.25,-6.051 4.25,-10.031 0,-2.016 -0.41,-4.008 -1.22,-5.977 -0.81,-1.969 -2.19,-4.031 -4.13,-6.195 -1.94,-2.164 -5.15,-5.141 -9.63,-8.926 -3.73,-3.098 -6.13,-5.215 -7.19,-6.344 -1.06,-1.133 -1.93,-2.265 -2.62,-3.394 l 24.86,0" /><path
         id="path82"
         style="fill:#000000;fill-opacity:1;fill-rule:nonzero;stroke:none"
         d="m 2350.04,447.039 0,4.649 28.17,0 0,-4.649 -28.17,0 z m 58.2,-18.812 -6.27,0 0,39.687 c -1.47,-1.426 -3.43,-2.863 -5.86,-4.312 -2.44,-1.454 -4.61,-2.524 -6.53,-3.211 l 0,6.05 c 3.44,1.622 6.46,3.59 9.07,5.899 2.61,2.312 4.45,4.574 5.53,6.789 l 4.06,0 0,-50.902" /><path
         id="path84"
         style="fill:#000000;fill-opacity:1;fill-rule:nonzero;stroke:none"
         d="m 2410.6,999.488 -6.27,0 0,39.692 c -1.47,-1.43 -3.43,-2.87 -5.87,-4.32 -2.43,-1.45 -4.6,-2.52 -6.52,-3.21 l 0,6.05 c 3.44,1.62 6.47,3.59 9.07,5.9 2.61,2.31 4.45,4.58 5.53,6.79 l 4.06,0 0,-50.902" /><path
         id="path86"
         style="fill:#000000;fill-opacity:1;fill-rule:nonzero;stroke:none"
         d="m 2419.82,1288.73 0,-5.97 -33.49,0 c -0.05,1.47 0.2,2.93 0.74,4.35 0.84,2.27 2.2,4.5 4.09,6.71 1.89,2.22 4.61,4.78 8.15,7.68 5.51,4.52 9.24,8.1 11.18,10.73 1.94,2.63 2.91,5.13 2.91,7.49 0,2.46 -0.88,4.53 -2.65,6.23 -1.77,1.7 -4.08,2.55 -6.94,2.55 -3,0 -5.39,-0.9 -7.19,-2.7 -1.79,-1.79 -2.69,-4.29 -2.69,-7.48 l -6.42,0.66 c 0.44,4.77 2.09,8.41 4.94,10.92 2.85,2.51 6.69,3.76 11.51,3.76 4.87,0 8.72,-1.35 11.55,-4.06 2.83,-2.7 4.24,-6.05 4.24,-10.03 0,-2.02 -0.41,-4.01 -1.22,-5.98 -0.81,-1.96 -2.19,-4.03 -4.13,-6.19 -1.94,-2.17 -5.15,-5.14 -9.63,-8.93 -3.73,-3.09 -6.13,-5.21 -7.19,-6.34 -1.06,-1.13 -1.93,-2.26 -2.62,-3.4 l 24.86,0" /><path
         id="path88"
         style="fill:#000000;fill-opacity:1;fill-rule:nonzero;stroke:none"
         d="m 2387.14,1579.38 6.27,0.89 c 0.69,-3.54 1.89,-6.09 3.62,-7.64 1.72,-1.55 3.81,-2.32 6.27,-2.32 2.95,0 5.43,1.01 7.45,3.02 2.02,2.02 3.02,4.53 3.02,7.53 0,2.85 -0.93,5.21 -2.8,7.08 -1.87,1.87 -4.26,2.8 -7.16,2.8 -1.18,0 -2.63,-0.24 -4.35,-0.74 l 0.67,5.46 c 0.44,-0.05 0.78,-0.07 1.03,-0.07 2.65,0 5.04,0.7 7.15,2.1 2.12,1.4 3.17,3.53 3.17,6.39 0,2.3 -0.77,4.21 -2.32,5.71 -1.55,1.5 -3.55,2.25 -6.01,2.25 -2.41,0 -4.41,-0.76 -6.01,-2.29 -1.6,-1.52 -2.64,-3.81 -3.14,-6.85 l -6.2,1.1 c 0.74,4.18 2.47,7.41 5.17,9.7 2.71,2.29 6.05,3.43 10.03,3.43 2.8,0 5.36,-0.59 7.68,-1.77 2.3,-1.18 4.09,-2.8 5.34,-4.87 1.26,-2.06 1.88,-4.25 1.88,-6.56 0,-2.17 -0.59,-4.15 -1.77,-5.94 -1.18,-1.8 -2.92,-3.24 -5.24,-4.32 3,-0.68 5.33,-2.11 6.98,-4.27 1.65,-2.17 2.47,-4.9 2.47,-8.2 0,-4.42 -1.61,-8.17 -4.83,-11.25 -3.22,-3.07 -7.3,-4.61 -12.21,-4.61 -4.48,0 -8.18,1.33 -11.1,3.99 -2.93,2.66 -4.61,6.07 -5.06,10.25" /><path
         id="path90"
         style="fill:#000000;fill-opacity:1;fill-rule:nonzero;stroke:none"
         d="m 2407.06,1849.3 0,12.17 -21.98,0 0,5.68 23.16,32.83 5.09,0 0,-32.83 6.86,0 0,-5.68 -6.86,0 0,-12.17 -6.27,0 z m 0,17.85 0,22.87 -15.86,-22.87 15.86,0" /><path
         id="path92"
         style="fill:#000000;fill-opacity:1;fill-rule:nonzero;stroke:none"
         d="m 2387.14,2145.85 6.49,0.59 c 0.5,-3.2 1.63,-5.6 3.4,-7.19 1.77,-1.6 3.91,-2.4 6.42,-2.4 3,0 5.53,1.13 7.59,3.39 2.07,2.26 3.1,5.24 3.1,8.93 0,3.59 -1,6.4 -2.99,8.45 -1.99,2.04 -4.61,3.06 -7.85,3.06 -2.02,0 -3.83,-0.46 -5.42,-1.37 -1.6,-0.91 -2.87,-2.08 -3.8,-3.5 l -5.83,0.74 4.87,26.04 25.23,0 0,-5.98 -20.22,0 -2.72,-13.57 c 3.04,2.11 6.24,3.17 9.59,3.17 4.42,0 8.14,-1.54 11.17,-4.61 3.03,-3.07 4.54,-7.02 4.54,-11.84 0,-4.57 -1.33,-8.53 -3.99,-11.88 -3.24,-4.13 -7.67,-6.19 -13.27,-6.19 -4.63,0 -8.4,1.29 -11.33,3.87 -2.92,2.58 -4.58,6.01 -4.98,10.29" /><path
         id="path94"
         style="fill:#000000;fill-opacity:1;fill-rule:nonzero;stroke:none"
         d="m 2419.45,2454.13 -6.19,-0.52 c -0.55,2.46 -1.33,4.25 -2.37,5.39 -1.67,1.77 -3.73,2.65 -6.19,2.65 -2.02,0 -3.76,-0.56 -5.24,-1.7 -1.96,-1.42 -3.51,-3.5 -4.65,-6.23 -1.13,-2.73 -1.72,-6.65 -1.77,-11.76 1.48,2.31 3.31,4.02 5.5,5.12 2.19,1.11 4.46,1.66 6.82,1.66 4.14,0 7.66,-1.52 10.59,-4.57 2.93,-3.05 4.39,-7.01 4.39,-11.88 0,-3.2 -0.69,-6.16 -2.07,-8.89 -1.38,-2.73 -3.25,-4.82 -5.64,-6.27 -2.38,-1.45 -5.1,-2.17 -8.15,-2.17 -5.21,0 -9.46,1.9 -12.73,5.71 -3.27,3.81 -4.9,10.12 -4.9,18.92 0,9.79 1.82,16.9 5.45,21.32 3.15,3.89 7.41,5.83 12.77,5.83 3.98,0 7.24,-1.12 9.77,-3.35 2.54,-2.24 4.07,-5.33 4.61,-9.26 z M 2394,2432.29 c 0,-2.16 0.46,-4.23 1.37,-6.2 0.91,-1.96 2.18,-3.45 3.83,-4.46 1.65,-1 3.36,-1.51 5.13,-1.51 2.65,0 4.93,1.06 6.82,3.17 1.9,2.12 2.84,5 2.84,8.63 0,3.49 -0.93,6.25 -2.8,8.26 -1.87,2.02 -4.23,3.03 -7.08,3.03 -2.81,0 -5.19,-1.01 -7.16,-3.03 -1.96,-2.01 -2.95,-4.64 -2.95,-7.89" /><path
         id="path96"
         style="fill:#000000;fill-opacity:1;fill-rule:nonzero;stroke:none"
         d="m 2387.51,2743.15 0,5.98 32.83,0 0,-4.8 c -3.2,-3.44 -6.38,-8.01 -9.55,-13.72 -3.18,-5.7 -5.62,-11.56 -7.34,-17.56 -1.28,-4.23 -2.09,-8.87 -2.44,-13.94 l -6.34,0 c 0.04,3.98 0.82,8.8 2.32,14.46 1.5,5.66 3.65,11.1 6.46,16.34 2.8,5.24 5.77,9.65 8.92,13.24 l -24.86,0" /><path
         id="path98"
         style="fill:#000000;fill-opacity:1;fill-rule:nonzero;stroke:none"
         d="m 2396.73,3009.9 c -2.6,0.93 -4.52,2.27 -5.75,4.02 -1.23,1.74 -1.85,3.85 -1.85,6.31 0,3.68 1.32,6.78 3.95,9.29 2.63,2.51 6.16,3.76 10.59,3.76 4.42,0 7.99,-1.29 10.69,-3.87 2.71,-2.58 4.06,-5.72 4.06,-9.41 0,-2.31 -0.63,-4.34 -1.88,-6.08 -1.25,-1.75 -3.14,-3.09 -5.65,-4.02 3.15,-1.04 5.54,-2.68 7.16,-4.94 1.63,-2.27 2.43,-4.97 2.43,-8.12 0,-4.33 -1.53,-7.96 -4.6,-10.92 -3.08,-2.95 -7.12,-4.42 -12.14,-4.42 -4.97,0 -8.99,1.48 -12.06,4.46 -3.07,2.97 -4.61,6.68 -4.61,11.1 0,3.3 0.84,6.05 2.51,8.26 1.67,2.22 4.05,3.74 7.15,4.58 z m -1.25,10.55 c 0,-2.41 0.77,-4.38 2.32,-5.9 1.55,-1.53 3.56,-2.29 6.01,-2.29 2.41,0 4.38,0.75 5.9,2.25 1.53,1.5 2.29,3.35 2.29,5.57 0,2.26 -0.79,4.18 -2.36,5.75 -1.57,1.58 -3.54,2.36 -5.9,2.36 -2.36,0 -4.33,-0.76 -5.9,-2.28 -1.57,-1.53 -2.36,-3.35 -2.36,-5.46 z m -1.99,-23.46 c 0,-1.77 0.42,-3.48 1.25,-5.13 0.84,-1.65 2.08,-2.93 3.72,-3.84 1.65,-0.9 3.43,-1.36 5.35,-1.36 3,0 5.46,0.95 7.38,2.84 1.92,1.89 2.88,4.32 2.88,7.27 0,3 -1,5.48 -2.99,7.45 -1.99,1.96 -4.49,2.95 -7.49,2.95 -2.9,0 -5.31,-0.97 -7.23,-2.92 -1.91,-1.94 -2.87,-4.36 -2.87,-7.26" /><path
         id="path100"
         style="fill:#000000;fill-opacity:1;fill-rule:nonzero;stroke:none"
         d="m 2388.1,3277.38 5.98,0.52 c 0.49,-2.81 1.45,-4.83 2.87,-6.09 1.43,-1.25 3.27,-1.88 5.53,-1.88 1.88,0 3.54,0.43 4.98,1.29 1.46,0.86 2.65,2.03 3.58,3.51 0.94,1.47 1.71,3.45 2.33,5.93 0.61,2.49 0.92,5.03 0.92,7.64 0,0.25 -0.02,0.64 -0.08,1.18 -1.23,-1.97 -2.92,-3.57 -5.08,-4.8 -2.17,-1.22 -4.5,-1.84 -7.01,-1.84 -4.18,0 -7.73,1.52 -10.62,4.57 -2.91,3.05 -4.36,7.06 -4.36,12.03 0,5.16 1.52,9.31 4.54,12.43 3.02,3.12 6.82,4.68 11.4,4.68 3.29,0 6.3,-0.88 9.03,-2.65 2.73,-1.77 4.81,-4.31 6.24,-7.6 1.42,-3.3 2.13,-8.04 2.13,-14.24 0,-6.49 -0.69,-11.65 -2.1,-15.49 -1.4,-3.84 -3.49,-6.76 -6.27,-8.78 -2.77,-2.02 -6.03,-3.02 -9.77,-3.02 -3.98,0 -7.23,1.11 -9.74,3.32 -2.51,2.21 -4.01,5.31 -4.5,9.29 z m 25.45,22.35 c 0,3.59 -0.94,6.43 -2.84,8.52 -1.89,2.09 -4.19,3.14 -6.9,3.14 -2.75,0 -5.15,-1.13 -7.19,-3.39 -2.04,-2.27 -3.06,-5.19 -3.06,-8.78 0,-3.2 0.97,-5.81 2.91,-7.82 1.95,-2.02 4.34,-3.03 7.2,-3.03 2.9,0 5.27,1.01 7.12,3.03 1.84,2.01 2.76,4.79 2.76,8.33" /><path
         id="path102"
         style="fill:#000000;fill-opacity:1;fill-rule:nonzero;stroke:none"
         d="m 2368.11,3548.92 -6.27,0 0,39.69 c -1.48,-1.43 -3.43,-2.86 -5.86,-4.32 -2.44,-1.45 -4.62,-2.52 -6.53,-3.2 l 0,6.04 c 3.44,1.63 6.46,3.6 9.07,5.91 2.61,2.31 4.45,4.57 5.53,6.78 l 4.06,0 0,-50.9 z m 15.93,25.01 c 0,6 0.61,10.82 1.84,14.46 1.23,3.64 3.06,6.45 5.5,8.45 2.43,1.99 5.49,2.98 9.18,2.98 2.71,0 5.09,-0.55 7.16,-1.66 2.06,-1.11 3.76,-2.68 5.09,-4.72 1.33,-2.04 2.37,-4.55 3.13,-7.52 0.76,-2.98 1.15,-6.97 1.15,-11.99 0,-5.95 -0.62,-10.76 -1.85,-14.42 -1.23,-3.67 -3.06,-6.49 -5.49,-8.49 -2.44,-1.98 -5.5,-2.98 -9.19,-2.98 -4.87,0 -8.7,1.77 -11.51,5.31 -3.34,4.18 -5.01,11.04 -5.01,20.58 z m 6.42,0 c 0,-8.31 0.97,-13.84 2.91,-16.6 1.94,-2.75 4.34,-4.13 7.19,-4.13 2.85,0 5.25,1.38 7.19,4.13 1.95,2.76 2.92,8.29 2.92,16.6 0,8.36 -0.97,13.91 -2.92,16.64 -1.94,2.72 -4.36,4.09 -7.26,4.09 -2.85,0 -5.14,-1.21 -6.86,-3.62 -2.12,-3.09 -3.17,-8.8 -3.17,-17.11" /><path
         id="path104"
         style="fill:#000000;fill-opacity:1;fill-rule:nonzero;stroke:none"
         d="m 2387.14,675.129 c 0,6 0.62,10.82 1.85,14.461 1.22,3.64 3.06,6.453 5.49,8.445 2.44,1.992 5.5,2.988 9.19,2.988 2.7,0 5.09,-0.554 7.15,-1.66 2.07,-1.105 3.77,-2.679 5.09,-4.722 1.33,-2.039 2.38,-4.547 3.14,-7.524 0.76,-2.972 1.14,-6.969 1.14,-11.988 0,-5.949 -0.62,-10.758 -1.84,-14.418 -1.23,-3.664 -3.06,-6.492 -5.5,-8.484 -2.43,-1.993 -5.49,-2.989 -9.18,-2.989 -4.87,0 -8.71,1.77 -11.51,5.313 -3.34,4.179 -5.02,11.039 -5.02,20.578 z m 6.42,0 c 0,-8.309 0.97,-13.844 2.91,-16.598 1.95,-2.754 4.34,-4.129 7.2,-4.129 2.85,0 5.25,1.375 7.19,4.129 1.94,2.754 2.91,8.289 2.91,16.598 0,8.363 -0.97,13.906 -2.91,16.637 -1.94,2.73 -4.36,4.093 -7.27,4.093 -2.85,0 -5.14,-1.203 -6.86,-3.613 -2.11,-3.098 -3.17,-8.805 -3.17,-17.117" /><path
         id="path106"
         style="fill:none;stroke:#7171ff;stroke-width:10;stroke-linecap:round;stroke-linejoin:round;stroke-miterlimit:10;stroke-dasharray:none;stroke-opacity:1"
         d="m 189.863,2629.47 2.008,5 m 0,0 15.988,39.13 15.993,37.79 15.988,36.47 15.988,35.15 m 0,0 15.988,33.85 15.993,32.57 15.988,31.29 15.988,30.03 15.988,28.77 15.993,27.55 15.988,26.31 15.988,25.11 31.981,46.63 31.976,41.93 31.981,37.34 31.976,32.86 m 0,0 31.981,28.47 31.976,24.18 31.981,19.99 31.976,15.92 31.981,11.94 31.976,8.05 31.981,4.28 31.976,0.6 31.981,-2.97 31.976,-6.44 31.981,-9.81 31.976,-13.08 31.981,-16.25 31.976,-19.31 31.981,-22.28 31.974,-25.13 m 0,0 31.98,-27.9 31.98,-30.55 31.98,-33.11 31.98,-35.57 31.98,-37.91 31.97,-40.17 31.98,-42.32 31.98,-44.36 31.98,-46.31 15.99,-23.86 15.99,-24.3 15.99,-24.73 15.99,-25.16 15.99,-25.57 15.99,-25.97 15.99,-26.35 15.99,-26.73 15.98,-27.08 16,-27.43 15.98,-27.76 15.99,-28.09 15.99,-28.39 15.99,-28.68 15.99,-28.98 15.99,-29.24 15.99,-29.5 15.99,-29.74 15.99,-29.98 15.99,-30.19 15.98,-30.4 16,-30.6 15.99,-30.78 15.98,-30.94 15.99,-31.1 15.99,-31.25 15.99,-31.37 15.99,-31.49 15.99,-31.6 15.99,-31.69 15.99,-31.76 15.99,-31.84 15.99,-31.89 15.99,-31.93 15.99,-31.96 15.98,-31.97 15.99,-31.98 15.99,-31.97 15.99,-31.94 15.99,-31.91 15.99,-31.87 15.99,-31.8 15.99,-31.73 15.99,-31.64 15.99,-31.55 15.99,-31.43 m 0,0 15.99,-31.31 15.99,-31.17 15.99,-31.02 15.99,-30.86 15.98,-30.69 15.99,-30.5 15.99,-30.3 15.99,-30.08 15.99,-29.86 15.99,-29.62 15.99,-29.37 15.99,-29.1 15.99,-28.83 15.99,-28.54 15.99,-28.24 15.99,-27.92 15.99,-27.594 15.98,-27.258 16,-26.898 15.98,-26.535 15.99,-26.161 15.99,-25.765 15.99,-25.36 15.99,-24.945 15.99,-24.516 15.99,-24.074 31.98,-46.773 31.97,-44.852 31.99,-42.828 31.97,-40.703 31.98,-38.477 31.98,-36.152 31.98,-33.719 31.98,-31.191 31.98,-28.555 31.98,-25.824 31.97,-22.984 31.98,-20.047 31.98,-17.008 31.98,-13.867 31.98,-10.621 31.98,-7.278 31.97,-3.832 31.98,-0.281 31.98,3.371 m 0,0 31.98,7.121 31.98,10.973 31.98,14.93 31.98,18.988 31.98,23.148 31.97,27.407 31.98,31.773 31.98,36.234 31.98,40.801 31.98,45.469 15.98,24.516 16,25.722 15.99,26.938 15.98,28.172 16,29.414 15.98,30.668 15.99,31.937 15.99,33.223 15.99,34.511 15.99,35.821 15.99,37.14 15.99,38.473 m 0,0 9.84,24.348" /><path
         id="path108"
         style="fill:none;stroke:#4db84d;stroke-width:10;stroke-linecap:round;stroke-linejoin:round;stroke-miterlimit:10;stroke-dasharray:none;stroke-opacity:1"
         d="M 2970.54,-29.7266 468.313,3723.61" /><path
         id="path110"
         style="fill:none;stroke:#ff4d4d;stroke-width:10;stroke-linecap:round;stroke-linejoin:round;stroke-miterlimit:10;stroke-dasharray:none;stroke-opacity:1"
         d="m 3024.51,267.262 497.53,0" /><path
         id="path112"
         style="fill:#ff4d4d;fill-opacity:1;fill-rule:nonzero;stroke:none"
         d="m 3588.14,267.262 -66.1,-16.524 0,33.047" /><path
         id="path114"
         style="fill:none;stroke:#ff4d4d;stroke-width:10;stroke-linecap:round;stroke-linejoin:round;stroke-miterlimit:10;stroke-dasharray:none;stroke-opacity:1"
         d="m 3024.51,267.262 -500.83,1.261" /><path
         id="path116"
         style="fill:#ff4d4d;fill-opacity:1;fill-rule:nonzero;stroke:none"
         d="m 2457.58,268.691 66.14,16.356 -0.08,-33.047" /><path
         id="path118"
         style="fill:none;stroke:#ff4d4d;stroke-width:10;stroke-linecap:round;stroke-linejoin:round;stroke-miterlimit:10;stroke-dasharray:none;stroke-opacity:1"
         d="m 756.793,3290.88 500.837,0" /><path
         id="path120"
         style="fill:#ff4d4d;fill-opacity:1;fill-rule:nonzero;stroke:none"
         d="m 1323.72,3290.88 -66.09,-16.52 0,33.05" /><path
         id="path122"
         style="fill:none;stroke:#ff4d4d;stroke-width:10;stroke-linecap:round;stroke-linejoin:round;stroke-miterlimit:10;stroke-dasharray:none;stroke-opacity:1"
         d="m 756.793,3290.88 -500.832,0" /><path
         id="path124"
         style="fill:#ff4d4d;fill-opacity:1;fill-rule:nonzero;stroke:none"
         d="m 189.863,3290.88 66.098,16.53 0,-33.05" /><path
         id="path126"
         style="fill:#444444;fill-opacity:1;fill-rule:nonzero;stroke:none"
         d="m 2462.3,739.703 c 0,-2.605 -2.11,-4.719 -4.72,-4.719 -2.61,0 -4.72,2.114 -4.72,4.719 0,2.61 2.11,4.723 4.72,4.723 2.61,0 4.72,-2.113 4.72,-4.723" /><path
         id="path128"
         style="fill:none;stroke:#000000;stroke-width:10;stroke-linecap:round;stroke-linejoin:round;stroke-miterlimit:10;stroke-dasharray:none;stroke-opacity:1"
         d="m 2462.3,739.703 c 0,-2.605 -2.11,-4.719 -4.72,-4.719 -2.61,0 -4.72,2.114 -4.72,4.719 0,2.61 2.11,4.723 4.72,4.723 2.61,0 4.72,-2.113 4.72,-4.723 z" /><path
         id="path130"
         style="fill:#444444;fill-opacity:1;fill-rule:nonzero;stroke:none"
         d="m 2549.29,829.379 c 0,11.215 3.01,20.004 9.03,26.375 6.03,6.367 13.81,9.551 23.35,9.551 6.24,0 11.87,-1.5 16.86,-4.5 4.99,-3 8.8,-7.168 11.43,-12.504 2.63,-5.336 3.95,-11.371 3.95,-18.11 0,-6.836 -1.38,-12.957 -4.14,-18.367 -2.75,-5.41 -6.67,-9.515 -11.76,-12.32 -5.09,-2.805 -10.56,-4.203 -16.42,-4.203 -6.34,0 -12.02,1.535 -17.04,4.609 -5.01,3.074 -8.81,7.278 -11.39,12.613 -2.59,5.336 -3.87,10.957 -3.87,16.856 z m 9.22,-0.145 c 0,-8.117 2.19,-14.523 6.56,-19.218 4.38,-4.696 9.86,-7.043 16.45,-7.043 6.74,0 12.28,2.371 16.64,7.117 4.35,4.746 6.52,11.473 6.52,20.176 0,5.457 -0.92,10.242 -2.76,14.347 -1.85,4.106 -4.56,7.289 -8.15,9.555 -3.59,2.262 -7.63,3.391 -12.1,3.391 -6.29,0 -11.73,-2.176 -16.3,-6.528 -4.58,-4.351 -6.86,-11.617 -6.86,-21.797" /><path
         id="path132"
         style="fill:#7d7dff;fill-opacity:1;fill-rule:nonzero;stroke:none"
         d="m 761.516,3290.88 c 0,-2.6 -2.114,-4.72 -4.723,-4.72 -2.605,0 -4.719,2.12 -4.719,4.72 0,2.61 2.114,4.73 4.719,4.73 2.609,0 4.723,-2.12 4.723,-4.73" /><path
         id="path134"
         style="fill:none;stroke:#000000;stroke-width:10;stroke-linecap:round;stroke-linejoin:round;stroke-miterlimit:10;stroke-dasharray:none;stroke-opacity:1"
         d="m 761.516,3290.88 c 0,-2.6 -2.114,-4.72 -4.723,-4.72 -2.605,0 -4.719,2.12 -4.719,4.72 0,2.61 2.114,4.73 4.719,4.73 2.609,0 4.723,-2.12 4.723,-4.73 z" /><path
         id="path136"
         style="fill:#7d7dff;fill-opacity:1;fill-rule:nonzero;stroke:none"
         d="m 788.289,3317.59 25.965,67.57 9.664,0 27.664,-67.57 -10.18,0 -7.894,20.5 -28.254,0 -7.449,-20.5 -9.516,0 z m 19.547,27.73 22.867,0 -7.008,18.74 c -2.164,5.71 -3.761,10.38 -4.793,14.01 -0.886,-4.32 -2.113,-8.62 -3.687,-12.91 l -7.379,-19.84" /><path
         id="path138"
         style="fill:#4d4dff;fill-opacity:1;fill-rule:nonzero;stroke:none"
         d="m 3029.23,267.262 c 0,-2.61 -2.11,-4.723 -4.72,-4.723 -2.61,0 -4.72,2.113 -4.72,4.723 0,2.609 2.11,4.722 4.72,4.722 2.61,0 4.72,-2.113 4.72,-4.722" /><path
         id="path140"
         style="fill:none;stroke:#000000;stroke-width:10;stroke-linecap:round;stroke-linejoin:round;stroke-miterlimit:10;stroke-dasharray:none;stroke-opacity:1"
         d="m 3029.23,267.262 c 0,-2.61 -2.11,-4.723 -4.72,-4.723 -2.61,0 -4.72,2.113 -4.72,4.723 0,2.609 2.11,4.722 4.72,4.722 2.61,0 4.72,-2.113 4.72,-4.722 z" /><path
         id="path142"
         style="fill:#4d4dff;fill-opacity:1;fill-rule:nonzero;stroke:none"
         d="m 3009.6,319.641 0,67.574 25.38,0 c 5.16,0 9.29,-0.68 12.39,-2.031 3.1,-1.352 5.53,-3.454 7.3,-6.305 1.77,-2.856 2.66,-5.828 2.66,-8.926 0,-2.902 -0.78,-5.633 -2.33,-8.191 -1.55,-2.555 -3.92,-4.598 -7.11,-6.121 4.08,-1.231 7.22,-3.282 9.44,-6.161 2.21,-2.875 3.32,-6.281 3.32,-10.214 0,-3.2 -0.68,-6.149 -2.03,-8.856 -1.35,-2.703 -3.01,-4.793 -4.98,-6.269 -1.97,-1.477 -4.43,-2.594 -7.38,-3.356 -2.95,-0.762 -6.59,-1.144 -10.92,-1.144 l -25.74,0 z m 8.93,39.172 14.6,0 c 3.98,0 6.84,0.269 8.56,0.812 2.26,0.688 3.97,1.805 5.13,3.355 1.15,1.547 1.73,3.528 1.73,5.938 0,2.215 -0.54,4.18 -1.62,5.902 -1.09,1.723 -2.62,2.891 -4.61,3.504 -2,0.614 -5.43,0.922 -10.3,0.922 l -13.49,0 0,-20.433 z m 0,-31.204 16.81,0 c 2.91,0 4.95,0.121 6.13,0.368 2.06,0.343 3.78,0.945 5.16,1.808 1.38,0.86 2.51,2.113 3.39,3.762 0.89,1.648 1.33,3.555 1.33,5.719 0,2.507 -0.64,4.695 -1.92,6.562 -1.27,1.871 -3.07,3.172 -5.38,3.91 -2.31,0.739 -5.61,1.106 -9.89,1.106 l -15.63,0 0,-23.235" /><path
         id="path144"
         style="fill:#4d4dff;fill-opacity:1;fill-rule:nonzero;stroke:none"
         d="m 352.465,2577.34 c 0,-1.53 0,-2.29 0,-2.29 l 0,0 0,0 c -1.524,-1.53 -2.285,-2.29 -2.285,-2.29 0,0 0,0.76 0,2.29 -3.051,1.52 -4.575,3.43 -4.575,5.72 0,2.28 1.524,5.71 4.575,10.28 3.047,4.58 6.859,8.39 11.433,11.44 4.575,3.05 8.383,4.57 11.434,4.57 7.621,0 12.195,-3.04 13.719,-9.14 0,-1.53 0,-2.29 0,-2.29 0,-6.1 -2.286,-12.2 -6.86,-18.29 -3.047,-4.58 -7.621,-8.39 -13.718,-11.44 -6.102,-3.05 -12.2,-4.57 -18.297,-4.57 -6.098,0 -11.051,1.52 -14.864,4.57 -3.812,3.05 -5.718,6.86 -5.718,11.44 0,0 0,0.76 0,2.28 0,10.67 4.574,22.11 13.722,34.31 l -2.289,0 c -13.719,0 -23.629,3.04 -29.726,9.14 -1.524,3.05 -2.286,6.86 -2.286,11.43 0,3.05 1.524,6.87 4.571,11.44 3.051,4.57 7.625,8.38 13.722,11.44 7.622,3.04 14.485,4.57 20.582,4.57 1.524,0 2.286,0 2.286,0 0,0 -0.762,-0.77 -2.286,-2.29 l 0,0 c -6.097,0 -11.433,-1.52 -16.007,-4.57 -4.575,-3.05 -8.387,-6.1 -11.434,-9.15 -3.051,-4.57 -4.574,-9.15 -4.574,-13.72 0,-3.05 0.762,-5.34 2.285,-6.86 3.051,-4.57 10.672,-6.86 22.867,-6.86 1.528,0 3.051,0 4.574,0 9.149,13.72 20.582,25.15 34.305,34.3 13.719,10.67 24.391,16.01 32.016,16.01 6.097,0 9.91,-3.05 11.433,-9.15 l 0,0 c 0,-4.57 -1.523,-9.15 -4.574,-13.72 -6.098,-9.15 -16.769,-16.77 -32.016,-22.87 -9.148,-3.05 -19.058,-5.34 -29.73,-6.86 -12.195,-16.77 -18.293,-29.73 -18.293,-38.87 l 0,0 c 0,-4.58 1.145,-8.01 3.43,-10.3 2.289,-2.28 5.718,-3.43 10.293,-3.43 3.047,0 6.859,1.53 11.433,4.58 4.575,3.05 8.383,6.86 11.434,11.43 4.574,7.63 6.859,12.96 6.859,16.01 l 0,2.29 c 0,3.04 -2.285,4.57 -6.859,4.57 -3.051,0 -6.098,-1.14 -9.149,-3.43 -3.046,-2.29 -6.097,-5.72 -9.148,-10.29 -3.047,-3.05 -4.57,-5.34 -4.57,-6.86 0,-3.05 0.761,-4.57 2.285,-4.57 z m 0,-2.29 0,0 0,0 0,0 z m 57.172,89.18 c -6.098,0 -14.485,-4.57 -25.157,-13.72 -7.621,-7.62 -16.769,-17.53 -27.441,-29.72 9.149,0 17.531,1.52 25.156,4.57 13.719,6.1 23.629,12.96 29.727,20.58 3.051,4.57 4.574,9.15 4.574,13.72 l 0,0 c 0,3.05 -2.285,4.57 -6.859,4.57" /><path
         id="path146"
         style="fill:#4d4dff;fill-opacity:1;fill-rule:nonzero;stroke:none"
         d="m 436.473,2561.41 0,0 -4.801,-33.62 c -1.067,-4.27 -2.668,-9.07 -4.805,-14.4 0,-2.14 -0.531,-3.74 -1.597,-4.81 -2.137,-5.33 -5.336,-8.53 -9.606,-9.6 0,0 -0.535,0 -1.601,0 -3.204,0 -5.872,1.07 -8.004,3.2 -1.067,1.07 -1.602,2.13 -1.602,3.2 0,3.2 1.602,5.34 4.805,6.41 0,0 0.531,0 1.597,0 2.137,0 3.204,-0.54 3.204,-1.61 0,-1.06 0,-1.6 0,-1.6 0,-2.13 -1.067,-3.73 -3.204,-4.8 0,0 -0.531,-0.53 -1.597,-1.6 1.066,-1.07 2.668,-1.6 4.801,-1.6 3.203,0 5.335,3.73 6.402,11.21 1.066,1.06 1.601,2.66 1.601,4.8 l 0,3.2 8.004,41.62 -6.402,0 c -2.137,0 -3.203,0 -3.203,0 l 0,0 c 0,1.07 0.535,2.13 1.601,3.2 l 9.606,0 c 1.066,8.54 2.133,13.87 3.199,16.01 2.137,6.4 5.336,10.14 9.606,11.2 1.066,0 2.136,0 3.203,0 3.199,0 5.867,-1.06 8.004,-3.2 l 0,0 c 0,-1.07 0,-2.13 0,-3.2 0,-3.2 -1.067,-5.33 -3.204,-6.4 0,0 -0.531,0 -1.601,0 -2.133,0 -3.199,0.53 -3.199,1.6 -1.067,1.06 -1.602,1.6 -1.602,1.6 0,2.13 1.067,3.73 3.203,4.8 1.067,0 2.133,0.53 3.199,1.6 -1.066,1.07 -2.667,1.6 -4.8,1.6 -2.137,0 -3.735,-1.06 -4.805,-3.2 -1.066,-1.07 -2.133,-4.8 -3.199,-11.2 l -1.602,-11.21 8.004,0 c 2.133,0 3.203,-0.53 3.203,-1.6 0,-1.07 -0.535,-1.6 -1.601,-1.6 l -11.207,0" /></g></g></svg>