<?xml version="1.0" encoding="utf-8"?>
<!-- Generator: Adobe Illustrator 22.1.0, SVG Export Plug-In . SVG Version: 6.00 Build 0)  -->
<svg version="1.1" id="Calque_1" xmlns="http://www.w3.org/2000/svg" xmlns:xlink="http://www.w3.org/1999/xlink" x="0px" y="0px"
	 viewBox="0 0 498 332.2" style="enable-background:new 0 0 498 332.2;" xml:space="preserve">
<style type="text/css">
	.st0{clip-path:url(#SVGID_2_);fill:#FFFFFF;}
	.st1{clip-path:url(#SVGID_2_);fill:none;stroke:#C0C0C0;stroke-linecap:round;stroke-linejoin:round;stroke-miterlimit:10;}
	.st2{clip-path:url(#SVGID_2_);fill:none;stroke:#F0F0F0;stroke-linecap:round;stroke-linejoin:round;stroke-miterlimit:10;}
	.st3{clip-path:url(#SVGID_2_);fill:none;stroke:#000000;stroke-miterlimit:10;}
	.st4{fill:none;stroke:#DB4D4D;stroke-width:1.5;stroke-linecap:round;stroke-linejoin:round;stroke-miterlimit:10;}
	.st5{fill:#006400;}
	.st6{fill:none;stroke:#000000;stroke-linecap:round;stroke-linejoin:round;stroke-miterlimit:10;}
	.st7{fill:#FF0000;}
</style>
<g>
	<g>
		<defs>
			<rect id="SVGID_1_" width="498" height="332"/>
		</defs>
		<clipPath id="SVGID_2_">
			<use xlink:href="#SVGID_1_"  style="overflow:visible;"/>
		</clipPath>
		<polygon class="st0" points="0,0 498,0 498,332.2 0,332.2 0,0 		"/>
		<path class="st1" d="M160.2,0v332.2 M301.9,0v332.2 M443.6,0v332.2"/>
		<path class="st2" d="M46.8,0v332.2 M75.1,0v332.2 M103.5,0v332.2 M131.8,0v332.2 M188.5,0v332.2 M216.8,0v332.2 M245.2,0v332.2
			 M273.5,0v332.2 M330.2,0v332.2 M358.6,0v332.2 M386.9,0v332.2 M415.3,0v332.2 M472,0v332.2"/>
		<path class="st1" d="M0,27.9h498 M0,27.9h498 M0,169.7h498"/>
		<path class="st2" d="M0,27.9h498 M0,56.3h498 M0,84.6h498 M0,113h498 M0,141.3h498 M0,198h498 M0,226.4h498 M0,254.7h498 M0,283
			h498"/>
		<path class="st3" d="M18.4,1.2v331 M18.4,0.6l-2.5,2.5 M18.4,0.6l2.5,2.5 M0,311.4h496.8 M497.4,311.4l-2.5-2.5 M497.4,311.4
			l-2.5,2.5"/>
	</g>
	<path d="M161.6,322.2h-0.8v-4.9c-0.2,0.2-0.4,0.4-0.7,0.5c-0.3,0.2-0.6,0.3-0.8,0.4v-0.7c0.4-0.2,0.8-0.4,1.1-0.7
		c0.3-0.3,0.5-0.6,0.7-0.8h0.5V322.2L161.6,322.2z"/>
	<path d="M304.2,321.5v0.7h-4.1c0-0.2,0-0.4,0.1-0.5c0.1-0.3,0.3-0.6,0.5-0.8c0.2-0.3,0.6-0.6,1-0.9c0.7-0.6,1.1-1,1.4-1.3
		c0.2-0.3,0.4-0.6,0.4-0.9c0-0.3-0.1-0.6-0.3-0.8c-0.2-0.2-0.5-0.3-0.8-0.3c-0.4,0-0.7,0.1-0.9,0.3c-0.2,0.2-0.3,0.5-0.3,0.9
		l-0.8-0.1c0.1-0.6,0.3-1,0.6-1.3c0.4-0.3,0.8-0.5,1.4-0.5c0.6,0,1.1,0.2,1.4,0.5c0.3,0.3,0.5,0.7,0.5,1.2c0,0.3-0.1,0.5-0.2,0.7
		s-0.3,0.5-0.5,0.8c-0.2,0.3-0.6,0.6-1.2,1.1c-0.5,0.4-0.8,0.6-0.9,0.8c-0.1,0.1-0.2,0.3-0.3,0.4H304.2L304.2,321.5z"/>
	<path d="M442.3,320.6l0.8-0.1c0.1,0.4,0.2,0.7,0.5,0.9c0.2,0.2,0.5,0.3,0.8,0.3c0.4,0,0.7-0.1,0.9-0.4c0.2-0.2,0.4-0.6,0.4-0.9
		c0-0.4-0.1-0.6-0.3-0.9c-0.2-0.2-0.5-0.3-0.9-0.3c-0.1,0-0.3,0-0.5,0.1l0.1-0.7c0.1,0,0.1,0,0.1,0c0.3,0,0.6-0.1,0.9-0.3
		c0.3-0.2,0.4-0.4,0.4-0.8c0-0.3-0.1-0.5-0.3-0.7c-0.2-0.2-0.4-0.3-0.7-0.3c-0.3,0-0.5,0.1-0.7,0.3c-0.2,0.2-0.3,0.5-0.4,0.8
		l-0.8-0.1c0.1-0.5,0.3-0.9,0.6-1.2c0.3-0.3,0.7-0.4,1.2-0.4c0.3,0,0.7,0.1,0.9,0.2c0.3,0.1,0.5,0.3,0.7,0.6
		c0.2,0.3,0.2,0.5,0.2,0.8c0,0.3-0.1,0.5-0.2,0.7c-0.1,0.2-0.4,0.4-0.6,0.5c0.4,0.1,0.7,0.3,0.9,0.5c0.2,0.3,0.3,0.6,0.3,1
		c0,0.5-0.2,1-0.6,1.4c-0.4,0.4-0.9,0.6-1.5,0.6c-0.6,0-1-0.2-1.4-0.5S442.3,321.1,442.3,320.6L442.3,320.6z"/>
	<path d="M12,173.3h-0.8v-4.9c-0.2,0.2-0.4,0.4-0.7,0.5c-0.3,0.2-0.6,0.3-0.8,0.4v-0.7c0.4-0.2,0.8-0.4,1.1-0.7
		c0.3-0.3,0.5-0.6,0.7-0.8H12V173.3L12,173.3z"/>
	<path d="M13.1,30.4v0.7H9c0-0.2,0-0.4,0.1-0.5c0.1-0.3,0.3-0.6,0.5-0.8c0.2-0.3,0.6-0.6,1-0.9c0.7-0.6,1.1-1,1.4-1.3
		c0.2-0.3,0.4-0.6,0.4-0.9c0-0.3-0.1-0.6-0.3-0.8s-0.5-0.3-0.8-0.3c-0.4,0-0.7,0.1-0.9,0.3s-0.3,0.5-0.3,0.9l-0.8-0.1
		c0.1-0.6,0.3-1,0.6-1.3c0.4-0.3,0.8-0.5,1.4-0.5c0.6,0,1.1,0.2,1.4,0.5c0.3,0.3,0.5,0.7,0.5,1.2c0,0.3-0.1,0.5-0.2,0.7
		c-0.1,0.2-0.3,0.5-0.5,0.8c-0.2,0.3-0.6,0.6-1.2,1.1c-0.5,0.4-0.8,0.6-0.9,0.8c-0.1,0.1-0.2,0.3-0.3,0.4H13.1L13.1,30.4z"/>
	<path d="M9.1,319.2c0-0.7,0.1-1.3,0.2-1.8s0.4-0.8,0.7-1c0.3-0.2,0.7-0.4,1.1-0.4c0.3,0,0.6,0.1,0.9,0.2c0.3,0.1,0.5,0.3,0.6,0.6
		c0.2,0.3,0.3,0.6,0.4,0.9c0.1,0.4,0.1,0.9,0.1,1.5c0,0.7-0.1,1.3-0.2,1.8s-0.4,0.8-0.7,1c-0.3,0.2-0.7,0.4-1.1,0.4
		c-0.6,0-1.1-0.2-1.4-0.7C9.3,321.2,9.1,320.3,9.1,319.2L9.1,319.2z M9.9,319.2c0,1,0.1,1.7,0.4,2s0.5,0.5,0.9,0.5
		c0.4,0,0.7-0.2,0.9-0.5c0.2-0.3,0.4-1,0.4-2c0-1-0.1-1.7-0.4-2.1c-0.2-0.3-0.5-0.5-0.9-0.5c-0.4,0-0.6,0.1-0.8,0.4
		C10,317.4,9.9,318.1,9.9,319.2L9.9,319.2z"/>
	<path class="st4" d="M18.4,27.9l1,0.1 M19.5,28l1.9,0.2l1.9,0.3 M23.3,28.6l1.9,0.3l1.9,0.3l1.9,0.4l1.9,0.4 M31.1,29.9l1.9,0.4
		l1.9,0.4l1.9,0.5l1.9,0.5l1.9,0.5l1.9,0.5l1.9,0.6l1.9,0.6l1.9,0.6l1.9,0.6l1.9,0.6l1.9,0.7l1.9,0.7l1.9,0.7l1.9,0.7l1.9,0.8
		 M62.3,39.3l1.9,0.8l1.9,0.8l1.9,0.8l1.9,0.8l1.9,0.9l1.9,0.9l1.9,0.9l1.9,0.9l1.9,0.9l1.9,1l1.9,1l1.9,1l1.9,1l1.9,1l1.9,1.1
		l1.9,1.1l1.9,1.1l1.9,1.1l1.9,1.1l1.9,1.1l1.9,1.2l1.9,1.2l1.9,1.2l1.9,1.2l1.9,1.2l1.9,1.2l1.9,1.3l1.9,1.3l1.9,1.3l1.9,1.3
		l1.9,1.3l1.9,1.3 M124.5,73.8l1.9,1.3l1.9,1.4l1.9,1.4l1.9,1.4l1.9,1.4l1.9,1.4l1.9,1.4l1.9,1.4l1.9,1.4l1.9,1.5l1.9,1.5l1.9,1.5
		l1.9,1.5l1.9,1.5l1.9,1.5l1.9,1.5l1.9,1.5l1.9,1.5l1.9,1.5l1.9,1.5l1.9,1.6l1.9,1.6l1.9,1.6l1.9,1.6l1.9,1.6l1.9,1.6l1.9,1.6
		l1.9,1.6l1.9,1.6l1.9,1.6l1.9,1.6l1.9,1.6l1.9,1.6l1.9,1.6l1.9,1.6l1.9,1.6l1.9,1.6l1.9,1.7l1.9,1.7l1.9,1.7l1.9,1.7l1.9,1.7
		l1.9,1.7l1.9,1.7l1.9,1.7l1.9,1.7l1.9,1.7l1.9,1.7l1.9,1.7l1.9,1.7l1.9,1.7l1.9,1.7l1.9,1.7l1.9,1.7l1.9,1.7l1.9,1.7l1.9,1.7
		l1.9,1.7l1.9,1.7l1.9,1.7l1.9,1.7l1.9,1.7l1.9,1.7l1.9,1.7 M249,175.1l1.9,1.7l1.9,1.6l1.9,1.6l1.9,1.6l1.9,1.6l1.9,1.6l1.9,1.6
		l1.9,1.6l1.9,1.6l1.9,1.6l1.9,1.6l1.9,1.6l1.9,1.6l1.9,1.6l1.9,1.6l1.9,1.6l1.9,1.6l1.9,1.6l1.9,1.5l1.9,1.5l1.9,1.5l1.9,1.5
		l1.9,1.5l1.9,1.5l1.9,1.5l1.9,1.5l1.9,1.5l1.9,1.5l1.9,1.4l1.9,1.4l1.9,1.4l1.9,1.4l1.9,1.4l1.9,1.4l1.9,1.4l1.9,1.4l1.9,1.3
		l1.9,1.3l1.9,1.3l1.9,1.3l1.9,1.3l1.9,1.3l1.9,1.3l1.9,1.2l1.9,1.2l1.9,1.2l1.9,1.2l1.9,1.2l1.9,1.2l1.9,1.2l1.9,1.1l1.9,1.1
		l1.9,1.1l1.9,1.1l1.9,1.1l1.9,1.1l1.9,1l1.9,1l1.9,1l1.9,1l1.9,1l1.9,0.9l1.9,0.9l1.9,0.9 M373.5,262.1l1.9,0.9l1.9,0.9l1.9,0.8
		l1.9,0.8l1.9,0.8l1.9,0.8l1.9,0.7l1.9,0.7l1.9,0.7l1.9,0.7l1.9,0.7l1.9,0.6l1.9,0.6l1.9,0.6l1.9,0.6l1.9,0.5l1.9,0.5l1.9,0.5
		l1.9,0.5l1.9,0.4l1.9,0.4l1.9,0.4l1.9,0.4l1.9,0.3l1.9,0.3l1.9,0.3l1.9,0.3l1.9,0.2l1.9,0.2l1.9,0.2l1.9,0.1l1.9,0.1 M435.8,278.6
		l1.9,0.1l1.9,0.1l1.9,0l1.9,0 M443.5,278.8L443.5,278.8"/>
	<path class="st5" d="M19.7,27.9c0,0.7-0.6,1.2-1.2,1.2c-0.7,0-1.2-0.6-1.2-1.2c0-0.7,0.6-1.2,1.2-1.2
		C19.1,26.7,19.7,27.2,19.7,27.9L19.7,27.9z"/>
	<path class="st6" d="M19.7,27.9c0,0.7-0.6,1.2-1.2,1.2c-0.7,0-1.2-0.6-1.2-1.2c0-0.7,0.6-1.2,1.2-1.2
		C19.1,26.7,19.7,27.2,19.7,27.9L19.7,27.9z"/>
	<path class="st5" d="M21.2,25.6l3.1-8h1.1l3.3,8h-1.2l-0.9-2.4h-3.4l-0.9,2.4H21.2L21.2,25.6z M23.5,22.3h2.7L25.4,20
		c-0.3-0.7-0.5-1.2-0.6-1.7c-0.1,0.5-0.2,1-0.4,1.5L23.5,22.3L23.5,22.3z"/>
	<path class="st5" d="M303.5,218.2c0,0.7-0.6,1.2-1.2,1.2s-1.2-0.6-1.2-1.2s0.6-1.2,1.2-1.2S303.5,217.5,303.5,218.2L303.5,218.2z"
		/>
	<path class="st6" d="M303.5,218.2c0,0.7-0.6,1.2-1.2,1.2s-1.2-0.6-1.2-1.2s0.6-1.2,1.2-1.2S303.5,217.5,303.5,218.2L303.5,218.2z"
		/>
	<path class="st5" d="M311.4,212.8l1.1,0.3c-0.2,0.9-0.6,1.5-1.2,2s-1.3,0.7-2.1,0.7c-0.9,0-1.6-0.2-2.1-0.5c-0.5-0.4-1-0.9-1.2-1.5
		c-0.3-0.7-0.4-1.4-0.4-2.2c0-0.8,0.2-1.6,0.5-2.2c0.3-0.6,0.8-1.1,1.4-1.4c0.6-0.3,1.2-0.5,1.9-0.5c0.8,0,1.5,0.2,2,0.6
		c0.5,0.4,0.9,1,1.1,1.7l-1,0.3c-0.2-0.6-0.5-1-0.8-1.3c-0.4-0.3-0.8-0.4-1.3-0.4c-0.6,0-1.1,0.1-1.5,0.4c-0.4,0.3-0.7,0.7-0.9,1.2
		c-0.2,0.5-0.3,1-0.3,1.5c0,0.7,0.1,1.3,0.3,1.8c0.2,0.5,0.5,0.9,0.9,1.1c0.4,0.3,0.9,0.4,1.4,0.4c0.6,0,1.1-0.2,1.5-0.5
		C311,214,311.2,213.5,311.4,212.8L311.4,212.8z"/>
	<path class="st5" d="M444.9,278.8c0,0.7-0.6,1.2-1.2,1.2s-1.2-0.6-1.2-1.2s0.6-1.2,1.2-1.2S444.9,278.1,444.9,278.8L444.9,278.8z"
		/>
	<path class="st6" d="M444.9,278.8c0,0.7-0.6,1.2-1.2,1.2s-1.2-0.6-1.2-1.2s0.6-1.2,1.2-1.2S444.9,278.1,444.9,278.8L444.9,278.8z"
		/>
	<path class="st5" d="M447.2,276.1v-8h2.8c0.6,0,1.1,0,1.4,0.1c0.5,0.1,0.9,0.3,1.2,0.6c0.4,0.4,0.7,0.8,0.9,1.4
		c0.2,0.6,0.3,1.2,0.3,1.9c0,0.6-0.1,1.2-0.2,1.6c-0.1,0.5-0.3,0.9-0.6,1.2c-0.2,0.3-0.5,0.6-0.7,0.7c-0.3,0.2-0.6,0.3-1,0.4
		c-0.4,0.1-0.8,0.1-1.3,0.1H447.2L447.2,276.1z M448.2,275.2h1.7c0.5,0,0.9-0.1,1.2-0.2c0.3-0.1,0.5-0.2,0.7-0.4
		c0.3-0.3,0.4-0.6,0.6-1c0.1-0.4,0.2-0.9,0.2-1.6c0-0.8-0.1-1.5-0.4-1.9c-0.3-0.5-0.6-0.8-1-0.9c-0.3-0.1-0.7-0.2-1.4-0.2h-1.7
		V275.2L448.2,275.2z"/>
	<path class="st5" d="M161.4,100.2c0,0.7-0.6,1.2-1.2,1.2c-0.7,0-1.2-0.6-1.2-1.2s0.6-1.2,1.2-1.2C160.8,99,161.4,99.5,161.4,100.2
		L161.4,100.2z"/>
	<path class="st6" d="M161.4,100.2c0,0.7-0.6,1.2-1.2,1.2c-0.7,0-1.2-0.6-1.2-1.2s0.6-1.2,1.2-1.2C160.8,99,161.4,99.5,161.4,100.2
		L161.4,100.2z"/>
	<path class="st5" d="M163.5,97.9v-8h3c0.6,0,1.1,0.1,1.5,0.2c0.4,0.2,0.7,0.4,0.9,0.7c0.2,0.3,0.3,0.7,0.3,1.1c0,0.3-0.1,0.7-0.3,1
		c-0.2,0.3-0.5,0.5-0.8,0.7c0.5,0.1,0.9,0.4,1.1,0.7c0.3,0.3,0.4,0.7,0.4,1.2c0,0.4-0.1,0.7-0.2,1c-0.2,0.3-0.4,0.6-0.6,0.7
		c-0.2,0.2-0.5,0.3-0.9,0.4c-0.4,0.1-0.8,0.1-1.3,0.1H163.5L163.5,97.9z M164.6,93.2h1.7c0.5,0,0.8,0,1-0.1c0.3-0.1,0.5-0.2,0.6-0.4
		c0.1-0.2,0.2-0.4,0.2-0.7c0-0.3-0.1-0.5-0.2-0.7c-0.1-0.2-0.3-0.3-0.6-0.4c-0.2-0.1-0.6-0.1-1.2-0.1h-1.6V93.2L164.6,93.2z
		 M164.6,96.9h2c0.3,0,0.6,0,0.7,0c0.2,0,0.5-0.1,0.6-0.2c0.2-0.1,0.3-0.3,0.4-0.4c0.1-0.2,0.2-0.4,0.2-0.7c0-0.3-0.1-0.6-0.2-0.8
		c-0.2-0.2-0.4-0.4-0.6-0.5c-0.3-0.1-0.7-0.1-1.2-0.1h-1.9V96.9L164.6,96.9z"/>
	<path class="st7" d="M399,288.4c0,0.1,0,0.2,0,0.2l0,0l0,0l0,0c-0.1,0.1-0.2,0.2-0.2,0.2s0-0.1,0-0.2c-0.3-0.1-0.4-0.3-0.4-0.5
		c0-0.2,0.1-0.5,0.4-0.9c0.3-0.4,0.6-0.7,1-1c0.4-0.3,0.7-0.4,1-0.4c0.7,0,1.1,0.3,1.2,0.8c0,0.1,0,0.2,0,0.2c0,0.5-0.2,1.1-0.6,1.6
		c-0.3,0.4-0.7,0.7-1.2,1c-0.5,0.3-1.1,0.4-1.6,0.4c-0.5,0-1-0.1-1.3-0.4c-0.3-0.3-0.5-0.6-0.5-1c0,0,0-0.1,0-0.2c0-1,0.4-2,1.2-3.1
		h-0.2c-1.2,0-2.1-0.3-2.7-0.8c-0.1-0.3-0.2-0.6-0.2-1c0-0.3,0.1-0.6,0.4-1c0.3-0.4,0.7-0.7,1.2-1c0.7-0.3,1.3-0.4,1.8-0.4
		c0.1,0,0.2,0,0.2,0s-0.1,0.1-0.2,0.2l0,0c-0.5,0-1,0.1-1.4,0.4c-0.4,0.3-0.7,0.5-1,0.8c-0.3,0.4-0.4,0.8-0.4,1.2
		c0,0.3,0.1,0.5,0.2,0.6c0.3,0.4,1,0.6,2,0.6c0.1,0,0.3,0,0.4,0c0.8-1.2,1.8-2.2,3.1-3.1c1.2-1,2.2-1.4,2.9-1.4c0.5,0,0.9,0.3,1,0.8
		l0,0c0,0.4-0.1,0.8-0.4,1.2c-0.5,0.8-1.5,1.5-2.9,2c-0.8,0.3-1.7,0.5-2.7,0.6c-1.1,1.5-1.6,2.7-1.6,3.5l0,0c0,0.4,0.1,0.7,0.3,0.9
		c0.2,0.2,0.5,0.3,0.9,0.3c0.3,0,0.6-0.1,1-0.4c0.4-0.3,0.7-0.6,1-1c0.4-0.7,0.6-1.2,0.6-1.4v-0.2c0-0.3-0.2-0.4-0.6-0.4
		c-0.3,0-0.5,0.1-0.8,0.3c-0.3,0.2-0.5,0.5-0.8,0.9c-0.3,0.3-0.4,0.5-0.4,0.6C398.8,288.3,398.9,288.4,399,288.4L399,288.4z
		 M399,288.6L399,288.6L399,288.6L399,288.6L399,288.6L399,288.6z M404.2,280.6c-0.5,0-1.3,0.4-2.2,1.2c-0.7,0.7-1.5,1.6-2.5,2.7
		c0.8,0,1.6-0.1,2.2-0.4c1.2-0.5,2.1-1.2,2.7-1.8c0.3-0.4,0.4-0.8,0.4-1.2l0,0C404.8,280.8,404.6,280.6,404.2,280.6L404.2,280.6z"/>
</g>
</svg>
