<?xml version="1.0" encoding="utf-8"?>
<!-- Generator: Adobe Illustrator 22.1.0, SVG Export Plug-In . SVG Version: 6.00 Build 0)  -->
<svg version="1.1" id="Calque_1" xmlns="http://www.w3.org/2000/svg" xmlns:xlink="http://www.w3.org/1999/xlink" x="0px" y="0px"
	 viewBox="0 0 344.1 164.8" style="enable-background:new 0 0 344.1 164.8;" xml:space="preserve">
<style type="text/css">
	.st0{clip-path:url(#SVGID_2_);fill:#FFFFFF;}
	.st1{clip-path:url(#SVGID_2_);fill:none;stroke:#C0C0C0;stroke-linecap:round;stroke-linejoin:round;stroke-miterlimit:10;}
	.st2{clip-path:url(#SVGID_2_);fill:none;stroke:#000000;stroke-miterlimit:10;}
	.st3{clip-path:url(#SVGID_4_);fill:none;stroke:#DB4D4D;stroke-linecap:round;stroke-linejoin:round;stroke-miterlimit:10;}
</style>
<g>
	<g>
		<defs>
			<rect id="SVGID_1_" x="0.5" y="0.1" width="343.1" height="164"/>
		</defs>
		<clipPath id="SVGID_2_">
			<use xlink:href="#SVGID_1_"  style="overflow:visible;"/>
		</clipPath>
		<polygon class="st0" points="0.5,0.1 343.6,0.1 343.6,164.8 0.5,164.8 0.5,0.1 		"/>
		<path class="st1" d="M2,0.1v164.7 M2,0.1v164.7 M115.4,0.1v164.7 M172,0.1v164.7 M228.7,0.1v164.7 M285.4,0.1v164.7 M342.1,0.1
			v164.7 M0.5,11.3h343.1 M0.5,11.3h343.1 M0.5,28.7h343.1 M0.5,46.1h343.1 M0.5,63.5h343.1 M0.5,80.9h343.1 M0.5,98.2h343.1
			 M0.5,115.6h343.1 M0.5,133h343.1"/>
		<path class="st2" d="M58.7,0.6v164.1 M58.7,0.4l-1.8,1.8 M58.7,0.4l1.8,1.8 M0.5,150.4H343 M343.3,150.4l-1.8-1.8 M343.3,150.4
			l-1.8,1.8"/>
	</g>
	<path d="M113.6,156.8h-0.5v-3c-0.1,0.1-0.3,0.2-0.4,0.3c-0.2,0.1-0.3,0.2-0.5,0.2v-0.5c0.3-0.1,0.5-0.3,0.7-0.4s0.3-0.3,0.4-0.5
		h0.3V156.8L113.6,156.8z M114.8,154.9c0-0.5,0-0.8,0.1-1.1c0.1-0.3,0.2-0.5,0.4-0.6c0.2-0.1,0.4-0.2,0.7-0.2c0.2,0,0.4,0,0.5,0.1
		c0.2,0.1,0.3,0.2,0.4,0.4s0.2,0.3,0.2,0.6c0.1,0.2,0.1,0.5,0.1,0.9c0,0.4,0,0.8-0.1,1.1c-0.1,0.3-0.2,0.5-0.4,0.6
		c-0.2,0.1-0.4,0.2-0.7,0.2c-0.4,0-0.7-0.1-0.9-0.4C114.9,156.1,114.8,155.6,114.8,154.9L114.8,154.9z M115.3,154.9
		c0,0.6,0.1,1,0.2,1.3c0.1,0.2,0.3,0.3,0.5,0.3c0.2,0,0.4-0.1,0.5-0.3c0.1-0.2,0.2-0.6,0.2-1.3c0-0.6-0.1-1-0.2-1.2
		c-0.1-0.2-0.3-0.3-0.5-0.3c-0.2,0-0.4,0.1-0.5,0.3C115.4,153.9,115.3,154.3,115.3,154.9L115.3,154.9z M117.8,154.9
		c0-0.5,0-0.8,0.1-1.1c0.1-0.3,0.2-0.5,0.4-0.6c0.2-0.1,0.4-0.2,0.7-0.2c0.2,0,0.4,0,0.5,0.1s0.3,0.2,0.4,0.4s0.2,0.3,0.2,0.6
		c0.1,0.2,0.1,0.5,0.1,0.9c0,0.4,0,0.8-0.1,1.1c-0.1,0.3-0.2,0.5-0.4,0.6c-0.2,0.1-0.4,0.2-0.7,0.2c-0.4,0-0.7-0.1-0.9-0.4
		C117.9,156.1,117.8,155.6,117.8,154.9L117.8,154.9z M118.2,154.9c0,0.6,0.1,1,0.2,1.3c0.1,0.2,0.3,0.3,0.5,0.3
		c0.2,0,0.4-0.1,0.5-0.3c0.1-0.2,0.2-0.6,0.2-1.3c0-0.6-0.1-1-0.2-1.2c-0.1-0.2-0.3-0.3-0.5-0.3s-0.4,0.1-0.5,0.3
		C118.3,153.9,118.2,154.3,118.2,154.9L118.2,154.9z"/>
	<path d="M170.9,156.3v0.4h-2.5c0-0.1,0-0.2,0.1-0.3c0.1-0.2,0.2-0.3,0.3-0.5c0.1-0.2,0.3-0.4,0.6-0.6c0.4-0.3,0.7-0.6,0.8-0.8
		c0.1-0.2,0.2-0.4,0.2-0.6c0-0.2-0.1-0.3-0.2-0.5c-0.1-0.1-0.3-0.2-0.5-0.2c-0.2,0-0.4,0.1-0.5,0.2c-0.1,0.1-0.2,0.3-0.2,0.6
		l-0.5-0.1c0-0.4,0.2-0.6,0.4-0.8s0.5-0.3,0.9-0.3s0.7,0.1,0.9,0.3c0.2,0.2,0.3,0.5,0.3,0.8c0,0.2,0,0.3-0.1,0.4
		c-0.1,0.1-0.2,0.3-0.3,0.5c-0.1,0.2-0.4,0.4-0.7,0.7c-0.3,0.2-0.5,0.4-0.5,0.5c-0.1,0.1-0.1,0.2-0.2,0.3H170.9L170.9,156.3z
		 M171.4,154.9c0-0.5,0-0.8,0.1-1.1c0.1-0.3,0.2-0.5,0.4-0.6c0.2-0.1,0.4-0.2,0.7-0.2c0.2,0,0.4,0,0.5,0.1s0.3,0.2,0.4,0.4
		c0.1,0.2,0.2,0.3,0.2,0.6c0.1,0.2,0.1,0.5,0.1,0.9c0,0.4,0,0.8-0.1,1.1c-0.1,0.3-0.2,0.5-0.4,0.6c-0.2,0.1-0.4,0.2-0.7,0.2
		c-0.4,0-0.7-0.1-0.9-0.4C171.5,156.1,171.4,155.6,171.4,154.9L171.4,154.9z M171.9,154.9c0,0.6,0.1,1,0.2,1.3
		c0.1,0.2,0.3,0.3,0.5,0.3c0.2,0,0.4-0.1,0.5-0.3c0.1-0.2,0.2-0.6,0.2-1.3c0-0.6-0.1-1-0.2-1.2c-0.1-0.2-0.3-0.3-0.5-0.3
		c-0.2,0-0.4,0.1-0.5,0.3C171.9,153.9,171.9,154.3,171.9,154.9L171.9,154.9z M174.4,154.9c0-0.5,0-0.8,0.1-1.1s0.2-0.5,0.4-0.6
		c0.2-0.1,0.4-0.2,0.7-0.2c0.2,0,0.4,0,0.5,0.1c0.2,0.1,0.3,0.2,0.4,0.4c0.1,0.2,0.2,0.3,0.2,0.6c0.1,0.2,0.1,0.5,0.1,0.9
		c0,0.4,0,0.8-0.1,1.1c-0.1,0.3-0.2,0.5-0.4,0.6c-0.2,0.1-0.4,0.2-0.7,0.2c-0.4,0-0.7-0.1-0.9-0.4
		C174.5,156.1,174.4,155.6,174.4,154.9L174.4,154.9z M174.8,154.9c0,0.6,0.1,1,0.2,1.3c0.1,0.2,0.3,0.3,0.5,0.3
		c0.2,0,0.4-0.1,0.5-0.3c0.1-0.2,0.2-0.6,0.2-1.3c0-0.6-0.1-1-0.2-1.2c-0.1-0.2-0.3-0.3-0.5-0.3c-0.2,0-0.4,0.1-0.5,0.3
		C174.9,153.9,174.8,154.3,174.8,154.9L174.8,154.9z"/>
	<path d="M225,155.8l0.5-0.1c0.1,0.3,0.1,0.5,0.3,0.6c0.1,0.1,0.3,0.2,0.5,0.2c0.2,0,0.4-0.1,0.6-0.2c0.2-0.2,0.2-0.3,0.2-0.6
		c0-0.2-0.1-0.4-0.2-0.5c-0.1-0.1-0.3-0.2-0.5-0.2c-0.1,0-0.2,0-0.3,0.1l0.1-0.4c0,0,0.1,0,0.1,0c0.2,0,0.4-0.1,0.5-0.2
		s0.2-0.3,0.2-0.5c0-0.2-0.1-0.3-0.2-0.4c-0.1-0.1-0.3-0.2-0.4-0.2c-0.2,0-0.3,0.1-0.5,0.2c-0.1,0.1-0.2,0.3-0.2,0.5l-0.5-0.1
		c0.1-0.3,0.2-0.6,0.4-0.7c0.2-0.2,0.5-0.3,0.8-0.3c0.2,0,0.4,0,0.6,0.1c0.2,0.1,0.3,0.2,0.4,0.4c0.1,0.2,0.1,0.3,0.1,0.5
		c0,0.2,0,0.3-0.1,0.5c-0.1,0.1-0.2,0.2-0.4,0.3c0.2,0.1,0.4,0.2,0.5,0.3c0.1,0.2,0.2,0.4,0.2,0.6c0,0.3-0.1,0.6-0.4,0.8
		c-0.2,0.2-0.5,0.3-0.9,0.3c-0.3,0-0.6-0.1-0.8-0.3C225.2,156.4,225,156.1,225,155.8L225,155.8z M228,154.9c0-0.5,0-0.8,0.1-1.1
		s0.2-0.5,0.4-0.6c0.2-0.1,0.4-0.2,0.7-0.2c0.2,0,0.4,0,0.5,0.1c0.2,0.1,0.3,0.2,0.4,0.4s0.2,0.3,0.2,0.6c0.1,0.2,0.1,0.5,0.1,0.9
		c0,0.4,0,0.8-0.1,1.1c-0.1,0.3-0.2,0.5-0.4,0.6c-0.2,0.1-0.4,0.2-0.7,0.2c-0.4,0-0.7-0.1-0.9-0.4C228.1,156.1,228,155.6,228,154.9
		L228,154.9z M228.5,154.9c0,0.6,0.1,1,0.2,1.3c0.1,0.2,0.3,0.3,0.5,0.3c0.2,0,0.4-0.1,0.5-0.3c0.1-0.2,0.2-0.6,0.2-1.3
		c0-0.6-0.1-1-0.2-1.2c-0.1-0.2-0.3-0.3-0.5-0.3c-0.2,0-0.4,0.1-0.5,0.3C228.5,153.9,228.5,154.3,228.5,154.9L228.5,154.9z
		 M230.9,154.9c0-0.5,0-0.8,0.1-1.1s0.2-0.5,0.4-0.6c0.2-0.1,0.4-0.2,0.7-0.2c0.2,0,0.4,0,0.5,0.1c0.2,0.1,0.3,0.2,0.4,0.4
		s0.2,0.3,0.2,0.6c0.1,0.2,0.1,0.5,0.1,0.9c0,0.4,0,0.8-0.1,1.1c-0.1,0.3-0.2,0.5-0.4,0.6c-0.2,0.1-0.4,0.2-0.7,0.2
		c-0.4,0-0.7-0.1-0.9-0.4C231.1,156.1,230.9,155.6,230.9,154.9L230.9,154.9z M231.4,154.9c0,0.6,0.1,1,0.2,1.3
		c0.1,0.2,0.3,0.3,0.5,0.3c0.2,0,0.4-0.1,0.5-0.3c0.1-0.2,0.2-0.6,0.2-1.3c0-0.6-0.1-1-0.2-1.2c-0.1-0.2-0.3-0.3-0.5-0.3
		s-0.4,0.1-0.5,0.3C231.5,153.9,231.4,154.3,231.4,154.9L231.4,154.9z"/>
	<path d="M283.4,156.8v-0.9h-1.7v-0.4l1.7-2.5h0.4v2.5h0.5v0.4h-0.5v0.9H283.4L283.4,156.8z M283.4,155.4v-1.7l-1.2,1.7H283.4
		L283.4,155.4z M284.9,154.9c0-0.5,0-0.8,0.1-1.1c0.1-0.3,0.2-0.5,0.4-0.6c0.2-0.1,0.4-0.2,0.7-0.2c0.2,0,0.4,0,0.5,0.1
		c0.2,0.1,0.3,0.2,0.4,0.4c0.1,0.2,0.2,0.3,0.2,0.6c0.1,0.2,0.1,0.5,0.1,0.9c0,0.4,0,0.8-0.1,1.1c-0.1,0.3-0.2,0.5-0.4,0.6
		c-0.2,0.1-0.4,0.2-0.7,0.2c-0.4,0-0.7-0.1-0.9-0.4C285,156.1,284.9,155.6,284.9,154.9L284.9,154.9z M285.3,154.9
		c0,0.6,0.1,1,0.2,1.3c0.1,0.2,0.3,0.3,0.5,0.3c0.2,0,0.4-0.1,0.5-0.3c0.1-0.2,0.2-0.6,0.2-1.3c0-0.6-0.1-1-0.2-1.2
		c-0.1-0.2-0.3-0.3-0.5-0.3s-0.4,0.1-0.5,0.3C285.4,153.9,285.3,154.3,285.3,154.9L285.3,154.9z M287.8,154.9c0-0.5,0-0.8,0.1-1.1
		c0.1-0.3,0.2-0.5,0.4-0.6c0.2-0.1,0.4-0.2,0.7-0.2c0.2,0,0.4,0,0.5,0.1s0.3,0.2,0.4,0.4c0.1,0.2,0.2,0.3,0.2,0.6
		c0.1,0.2,0.1,0.5,0.1,0.9c0,0.4,0,0.8-0.1,1.1c-0.1,0.3-0.2,0.5-0.4,0.6c-0.2,0.1-0.4,0.2-0.7,0.2c-0.4,0-0.7-0.1-0.9-0.4
		C288,156.1,287.8,155.6,287.8,154.9L287.8,154.9z M288.3,154.9c0,0.6,0.1,1,0.2,1.3c0.1,0.2,0.3,0.3,0.5,0.3c0.2,0,0.4-0.1,0.5-0.3
		c0.1-0.2,0.2-0.6,0.2-1.3c0-0.6-0.1-1-0.2-1.2c-0.1-0.2-0.3-0.3-0.5-0.3c-0.2,0-0.4,0.1-0.5,0.3
		C288.4,153.9,288.3,154.3,288.3,154.9L288.3,154.9z"/>
	<path d="M53.5,154.9c0-0.5,0-0.8,0.1-1.1c0.1-0.3,0.2-0.5,0.4-0.6c0.2-0.1,0.4-0.2,0.7-0.2c0.2,0,0.4,0,0.5,0.1
		c0.2,0.1,0.3,0.2,0.4,0.4s0.2,0.3,0.2,0.6c0.1,0.2,0.1,0.5,0.1,0.9c0,0.4,0,0.8-0.1,1.1c-0.1,0.3-0.2,0.5-0.4,0.6
		c-0.2,0.1-0.4,0.2-0.7,0.2c-0.4,0-0.7-0.1-0.9-0.4C53.6,156.1,53.5,155.6,53.5,154.9L53.5,154.9z M53.9,154.9c0,0.6,0.1,1,0.2,1.3
		c0.1,0.2,0.3,0.3,0.5,0.3c0.2,0,0.4-0.1,0.5-0.3c0.1-0.2,0.2-0.6,0.2-1.3c0-0.6-0.1-1-0.2-1.2c-0.1-0.2-0.3-0.3-0.5-0.3
		s-0.4,0.1-0.5,0.3C54,153.9,53.9,154.3,53.9,154.9L53.9,154.9z"/>
	<g>
		<defs>
			<rect id="SVGID_3_" x="0.5" y="0.1" width="343.1" height="164"/>
		</defs>
		<clipPath id="SVGID_4_">
			<use xlink:href="#SVGID_3_"  style="overflow:visible;"/>
		</clipPath>
		<polyline class="st3" points="0.5,150.4 1.8,150.4 3.2,150.4 4.5,150.4 5.9,150.4 7.2,150.4 8.5,150.4 9.9,150.4 11.2,150.4 
			12.6,150.4 13.9,150.4 15.2,150.4 16.6,150.4 17.9,150.4 19.3,150.4 20.6,150.4 21.9,150.4 23.3,150.4 24.6,150.4 26,150.4 
			27.3,150.4 28.6,150.4 30,150.4 31.3,150.4 32.7,150.4 34,150.4 35.3,150.4 36.7,150.4 38,150.4 39.4,150.4 40.7,150.4 42,150.4 
			43.4,150.4 44.7,150.4 46.1,150.4 47.4,150.4 48.7,150.4 50.1,150.4 51.4,150.4 52.8,150.4 54.1,150.4 55.4,150.4 56.8,150.4 
			58.1,150.4 59.5,150.4 60.8,150.3 62.1,150.3 63.5,150.3 64.8,150.3 66.2,150.3 67.5,150.2 68.9,150.2 70.2,150.2 71.5,150.1 
			72.9,150.1 74.2,150 75.6,150 76.9,149.9 78.2,149.8 79.6,149.7 80.9,149.6 82.3,149.5 83.6,149.3 84.9,149.2 86.3,149 
			87.6,148.8 89,148.5 90.3,148.2 91.6,147.9 93,147.6 94.3,147.2 95.7,146.7 97,146.2 98.3,145.7 99.7,145.1 101,144.4 
			102.4,143.6 103.7,142.8 105,141.9 106.4,140.9 107.7,139.8 109.1,138.7 110.4,137.4 111.7,136 113.1,134.5 114.4,132.8 
			115.8,131.1 117.1,129.2 118.4,127.2 119.8,125.1 121.1,122.8 122.5,120.4 123.8,117.8 125.1,115.1 126.5,112.3 127.2,110.8 
			127.8,109.3 128.5,107.8 129.2,106.2 129.8,104.6 130.5,103 131.2,101.4 131.8,99.7 132.5,98 133.2,96.2 133.9,94.4 134.5,92.7 
			135.2,90.8 135.9,89 136.5,87.1 137.2,85.2 137.9,83.3 138.5,81.4 139.2,79.5 139.9,77.5 140.6,75.6 141.2,73.6 141.9,71.6 
			142.6,69.6 143.2,67.7 143.9,65.7 144.6,63.7 145.2,61.7 145.9,59.7 146.6,57.7 147.3,55.8 147.9,53.8 148.6,51.9 149.3,50 
			149.9,48.1 150.6,46.2 151.3,44.4 151.9,42.5 152.6,40.7 153.3,39 154,37.2 154.6,35.6 155.3,33.9 156,32.3 156.6,30.7 
			157.3,29.2 158.6,26.4 160,23.7 161.3,21.3 162.7,19.1 164,17.2 165.3,15.5 166.7,14.1 168,13.1 169.4,12.3 170,12 170.7,11.8 
			172,11.7 172.7,11.7 173.4,11.8 174.7,12.3 175.4,12.7 176.1,13.1 177.4,14.1 178.7,15.5 180.1,17.2 181.4,19.1 182.8,21.3 
			184.1,23.7 185.4,26.4 186.8,29.2 187.5,30.7 188.1,32.3 188.8,33.9 189.5,35.6 190.1,37.2 190.8,39 191.5,40.7 192.2,42.5 
			192.8,44.4 193.5,46.2 194.2,48.1 194.8,50 195.5,51.9 196.2,53.8 196.8,55.8 197.5,57.7 198.2,59.7 198.9,61.7 199.5,63.7 
			200.2,65.7 200.9,67.7 201.5,69.6 202.2,71.6 202.9,73.6 203.5,75.6 204.2,77.5 204.9,79.5 205.6,81.4 206.2,83.3 206.9,85.2 
			207.6,87.1 208.2,89 208.9,90.8 209.6,92.7 210.2,94.4 210.9,96.2 211.6,98 212.3,99.7 212.9,101.4 213.6,103 214.3,104.6 
			214.9,106.2 215.6,107.8 216.3,109.3 216.9,110.8 217.6,112.3 219,115.1 220.3,117.8 221.6,120.4 223,122.8 224.3,125.1 
			225.7,127.2 227,129.2 228.3,131.1 229.7,132.8 231,134.5 232.4,136 233.7,137.4 235,138.7 236.4,139.8 237.7,140.9 239.1,141.9 
			240.4,142.8 241.7,143.6 243.1,144.4 244.4,145.1 245.8,145.7 247.1,146.2 248.4,146.7 249.8,147.2 251.1,147.6 252.5,147.9 
			253.8,148.2 255.1,148.5 256.5,148.8 257.8,149 259.2,149.2 260.5,149.3 261.8,149.5 263.2,149.6 264.5,149.7 265.9,149.8 
			267.2,149.9 268.5,150 269.9,150 271.2,150.1 272.6,150.1 273.9,150.2 275.2,150.2 276.6,150.2 277.9,150.3 279.3,150.3 
			280.6,150.3 281.9,150.3 283.3,150.3 284.6,150.4 286,150.4 287.3,150.4 288.6,150.4 290,150.4 291.3,150.4 292.7,150.4 
			294,150.4 295.3,150.4 296.7,150.4 298,150.4 299.4,150.4 300.7,150.4 302,150.4 303.4,150.4 304.7,150.4 306.1,150.4 
			307.4,150.4 308.7,150.4 310.1,150.4 311.4,150.4 312.8,150.4 314.1,150.4 315.5,150.4 316.8,150.4 318.1,150.4 319.5,150.4 
			320.8,150.4 322.2,150.4 323.5,150.4 324.8,150.4 326.2,150.4 327.5,150.4 328.9,150.4 330.2,150.4 331.5,150.4 332.9,150.4 
			334.2,150.4 335.6,150.4 336.9,150.4 338.2,150.4 339.6,150.4 340.9,150.4 342.3,150.4 343.6,150.4 		"/>
	</g>
</g>
</svg>
