<?xml version="1.0" encoding="utf-8"?>
<!-- Generator: Adobe Illustrator 22.1.0, SVG Export Plug-In . SVG Version: 6.00 Build 0)  -->
<svg version="1.1" id="Calque_1" xmlns="http://www.w3.org/2000/svg" xmlns:xlink="http://www.w3.org/1999/xlink" x="0px" y="0px"
	 viewBox="0 0 488.8 278.1" style="enable-background:new 0 0 488.8 278.1;" xml:space="preserve">
<style type="text/css">
	.st0{clip-path:url(#SVGID_2_);fill:#FFFFFF;}
	.st1{clip-path:url(#SVGID_2_);fill:none;stroke:#C0C0C0;stroke-linecap:round;stroke-linejoin:round;stroke-miterlimit:10;}
	.st2{clip-path:url(#SVGID_2_);fill:none;stroke:#000000;stroke-miterlimit:10;}
	.st3{clip-path:url(#SVGID_4_);fill:none;stroke:#4D4DFF;stroke-linecap:round;stroke-linejoin:round;stroke-miterlimit:10;}
	.st4{clip-path:url(#SVGID_4_);fill:none;stroke:#FF4D4D;stroke-linecap:round;stroke-linejoin:round;stroke-miterlimit:10;}
	.st5{fill:#0000FF;}
	.st6{fill:none;stroke:#000000;stroke-linecap:round;stroke-linejoin:round;stroke-miterlimit:10;}
	.st7{fill:#FF0000;}
</style>
<g>
	<g>
		<defs>
			<rect id="SVGID_1_" x="2.5" width="483.8" height="274"/>
		</defs>
		<clipPath id="SVGID_2_">
			<use xlink:href="#SVGID_1_"  style="overflow:visible;"/>
		</clipPath>
		<polygon class="st0" points="2.5,0 486.3,0 486.3,274.6 2.5,274.6 2.5,0 		"/>
		<path class="st1" d="M109.9,0v274.6 M195,0v274.6 M280,0v274.6 M365.1,0v274.6 M450.1,0v274.6 M2.5,34.3h483.8 M2.5,34.3h483.8
			 M2.5,119.3h483.8"/>
		<path class="st2" d="M24.9,1v273.6 M24.9,0.5l-3,3 M24.9,0.5l3,3 M2.5,204.4h482.8 M485.8,204.4l-3-3 M485.8,204.4l-3,3"/>
	</g>
	<path d="M111.2,215.2h-0.8v-5.1c-0.2,0.2-0.4,0.4-0.8,0.5c-0.3,0.2-0.6,0.3-0.8,0.4v-0.8c0.4-0.2,0.8-0.5,1.2-0.8
		c0.3-0.3,0.6-0.6,0.7-0.9h0.5V215.2L111.2,215.2z"/>
	<path d="M197.6,214.4v0.8h-4.3c0-0.2,0-0.4,0.1-0.6c0.1-0.3,0.3-0.6,0.5-0.9c0.2-0.3,0.6-0.6,1-1c0.7-0.6,1.2-1,1.4-1.4
		c0.2-0.3,0.4-0.7,0.4-1c0-0.3-0.1-0.6-0.3-0.8c-0.2-0.2-0.5-0.3-0.9-0.3c-0.4,0-0.7,0.1-0.9,0.3c-0.2,0.2-0.3,0.5-0.4,1l-0.8-0.1
		c0.1-0.6,0.3-1.1,0.6-1.4c0.4-0.3,0.9-0.5,1.5-0.5c0.6,0,1.1,0.2,1.5,0.5c0.4,0.3,0.5,0.8,0.5,1.3c0,0.3-0.1,0.5-0.2,0.8
		c-0.1,0.3-0.3,0.5-0.5,0.8c-0.2,0.3-0.7,0.7-1.2,1.1c-0.5,0.4-0.8,0.7-0.9,0.8c-0.1,0.1-0.2,0.3-0.3,0.4H197.6L197.6,214.4z"/>
	<path d="M278.6,213.5l0.8-0.1c0.1,0.5,0.2,0.8,0.5,1c0.2,0.2,0.5,0.3,0.8,0.3c0.4,0,0.7-0.1,1-0.4c0.3-0.3,0.4-0.6,0.4-1
		c0-0.4-0.1-0.7-0.4-0.9c-0.2-0.2-0.5-0.4-0.9-0.4c-0.2,0-0.3,0-0.6,0.1l0.1-0.7c0.1,0,0.1,0,0.1,0c0.3,0,0.6-0.1,0.9-0.3
		c0.3-0.2,0.4-0.5,0.4-0.8c0-0.3-0.1-0.5-0.3-0.7c-0.2-0.2-0.5-0.3-0.8-0.3s-0.6,0.1-0.8,0.3c-0.2,0.2-0.3,0.5-0.4,0.9l-0.8-0.1
		c0.1-0.5,0.3-1,0.7-1.2c0.3-0.3,0.8-0.4,1.3-0.4c0.4,0,0.7,0.1,1,0.2c0.3,0.2,0.5,0.4,0.7,0.6c0.2,0.3,0.2,0.5,0.2,0.8
		c0,0.3-0.1,0.5-0.2,0.8c-0.1,0.2-0.4,0.4-0.7,0.5c0.4,0.1,0.7,0.3,0.9,0.6c0.2,0.3,0.3,0.6,0.3,1c0,0.6-0.2,1-0.6,1.4
		s-0.9,0.6-1.6,0.6c-0.6,0-1-0.2-1.4-0.5C278.8,214.4,278.6,214,278.6,213.5L278.6,213.5z"/>
	<path d="M365.8,215.2v-1.6H363v-0.7l3-4.2h0.7v4.2h0.9v0.7h-0.9v1.6H365.8L365.8,215.2z M365.8,212.9V210l-2,2.9H365.8L365.8,212.9
		z"/>
	<path d="M448.4,213.5l0.8-0.1c0.1,0.4,0.2,0.7,0.4,0.9c0.2,0.2,0.5,0.3,0.8,0.3c0.4,0,0.7-0.1,1-0.4c0.3-0.3,0.4-0.7,0.4-1.2
		c0-0.5-0.1-0.8-0.4-1.1c-0.3-0.3-0.6-0.4-1-0.4c-0.3,0-0.5,0.1-0.7,0.2c-0.2,0.1-0.4,0.3-0.5,0.5l-0.7-0.1l0.6-3.3h3.2v0.8h-2.6
		l-0.4,1.7c0.4-0.3,0.8-0.4,1.2-0.4c0.6,0,1,0.2,1.4,0.6c0.4,0.4,0.6,0.9,0.6,1.5c0,0.6-0.2,1.1-0.5,1.5c-0.4,0.5-1,0.8-1.7,0.8
		c-0.6,0-1.1-0.2-1.4-0.5C448.6,214.5,448.4,214,448.4,213.5L448.4,213.5z"/>
	<path d="M19,123h-0.8v-5.1c-0.2,0.2-0.4,0.4-0.8,0.5c-0.3,0.2-0.6,0.3-0.8,0.4v-0.8c0.4-0.2,0.8-0.5,1.2-0.8
		c0.3-0.3,0.6-0.6,0.7-0.9H19V123L19,123z"/>
	<path d="M20.2,37.5v0.8h-4.3c0-0.2,0-0.4,0.1-0.6c0.1-0.3,0.3-0.6,0.5-0.9c0.2-0.3,0.6-0.6,1-1c0.7-0.6,1.2-1,1.4-1.4
		c0.2-0.3,0.4-0.7,0.4-1c0-0.3-0.1-0.6-0.3-0.8c-0.2-0.2-0.5-0.3-0.9-0.3c-0.4,0-0.7,0.1-0.9,0.3c-0.2,0.2-0.3,0.5-0.4,1L16,33.7
		c0.1-0.6,0.3-1.1,0.6-1.4c0.4-0.3,0.9-0.5,1.5-0.5s1.1,0.2,1.5,0.5c0.4,0.3,0.5,0.8,0.5,1.3c0,0.3-0.1,0.5-0.2,0.8
		s-0.3,0.5-0.5,0.8c-0.2,0.3-0.7,0.7-1.2,1.1c-0.5,0.4-0.8,0.7-0.9,0.8c-0.1,0.1-0.2,0.3-0.3,0.4H20.2L20.2,37.5z"/>
	<path d="M16,212c0-0.8,0.1-1.4,0.2-1.9s0.4-0.8,0.7-1.1c0.3-0.3,0.7-0.4,1.2-0.4c0.3,0,0.7,0.1,0.9,0.2c0.3,0.1,0.5,0.3,0.6,0.6
		c0.2,0.3,0.3,0.6,0.4,1c0.1,0.4,0.1,0.9,0.1,1.5c0,0.8-0.1,1.4-0.2,1.8c-0.2,0.5-0.4,0.8-0.7,1.1c-0.3,0.3-0.7,0.4-1.2,0.4
		c-0.6,0-1.1-0.2-1.5-0.7C16.2,214.1,16,213.2,16,212L16,212z M16.8,212c0,1.1,0.1,1.8,0.4,2.1c0.2,0.4,0.6,0.5,0.9,0.5
		c0.4,0,0.7-0.2,0.9-0.5c0.3-0.4,0.4-1.1,0.4-2.1s-0.1-1.8-0.4-2.1c-0.3-0.4-0.6-0.5-0.9-0.5c-0.4,0-0.7,0.2-0.9,0.5
		C17,210.2,16.8,210.9,16.8,212L16.8,212z"/>
	<g>
		<defs>
			<rect id="SVGID_3_" x="2.5" width="483.8" height="274"/>
		</defs>
		<clipPath id="SVGID_4_">
			<use xlink:href="#SVGID_3_"  style="overflow:visible;"/>
		</clipPath>
		<path class="st3" d="M26.7,277.6L26.7,277.6l0.1-2.6l0,0l0,0l0.1-2.6l0,0l0.1-4.9l0.1-4.6l0.1-4.4l0.1-4.1l0.1-3.9l0.1-3.7
			l0.1-3.6l0.1-3.4l0.1-3.3l0.1-3.2l0.1-3l0.1-2.9l0.1-2.8l0.1-2.7l0.1-2.6l0.1-2.5l0.2-4.8l0.2-4.6l0.2-4.3l0.2-4.1l0.2-3.9
			l0.2-3.7l0.2-3.5l0.2-3.3l0.2-3.2l0.2-3.1l0.2-2.9l0.2-2.8l0.2-2.7L32,167l0.2-2.5l0.5-4.8 M32.8,159.7l0.5-4.5l0.5-4.2l0.5-4
			l0.5-3.8l0.5-3.6l0.5-3.4l0.5-3.2l0.5-3.1l0.5-2.9l0.5-2.8l0.5-2.7l0.5-2.6l0.9-4.8l0.9-4.4l0.9-4.1l0.9-3.8l0.9-3.6l0.9-3.3
			l0.9-3.1l0.9-3l0.9-2.8l0.9-2.6l1.9-4.8l1.9-4.3l1.9-3.9l1.9-3.5l1.9-3.2l1.9-2.9l1.9-2.7l1.9-2.4 M63,55.6l1.9-2.2l1.9-2l1.9-1.9
			l1.9-1.7l1.9-1.6l1.9-1.4l1.9-1.3l1.9-1.2l1.9-1.1l1.9-1l1.9-0.9l1.9-0.8l1.9-0.7l1.9-0.6l1.9-0.6l1.9-0.5l1.9-0.4l1.9-0.4
			l1.9-0.3l1.9-0.3l1.9-0.2l1.9-0.2l1.9-0.1l1.9-0.1l1.9,0l1.9,0l1.9,0.1l1.9,0.1l1.9,0.1l1.9,0.2l1.9,0.2l1.9,0.2 M123.5,35.3
			l1.9,0.3l1.9,0.3l1.9,0.3l1.9,0.4l1.9,0.4l1.9,0.4l1.9,0.4l1.9,0.5l1.9,0.5l1.9,0.5l1.9,0.5l1.9,0.6l1.9,0.6l1.9,0.6l1.9,0.6
			l1.9,0.6l1.9,0.7l1.9,0.7l1.9,0.7l1.9,0.7l1.9,0.7l1.9,0.7l1.9,0.8l1.9,0.8l1.9,0.8l1.9,0.8l1.9,0.8l1.9,0.8l1.9,0.8l1.9,0.8
			l1.9,0.9l1.9,0.9l1.9,0.9l1.9,0.9l1.9,0.9l1.9,0.9l1.9,0.9l1.9,0.9l1.9,1l1.9,1l1.9,1l1.9,1l1.9,1l1.9,1l1.9,1l1.9,1l1.9,1l1.9,1
			l1.9,1l1.9,1.1l1.9,1.1l1.9,1.1l1.9,1.1l1.9,1.1l1.9,1.1l1.9,1.1l1.9,1.1l1.9,1.1l1.9,1.1l1.9,1.1l1.9,1.1l1.9,1.1l1.9,1.1
			l1.9,1.2 M244.4,88.1l1.9,1.2l1.9,1.2l1.9,1.2l1.9,1.2l1.9,1.2l1.9,1.2l1.9,1.2l1.9,1.2l1.9,1.2l1.9,1.2l1.9,1.2l1.9,1.2l1.9,1.2
			l1.9,1.2l1.9,1.2l1.9,1.2l1.9,1.2l1.9,1.3l1.9,1.3l1.9,1.3l1.9,1.3l1.9,1.3l1.9,1.3l1.9,1.3l1.9,1.3l1.9,1.3l1.9,1.3l1.9,1.3
			l1.9,1.3l1.9,1.3l1.9,1.3l1.9,1.3l1.9,1.3l1.9,1.3l1.9,1.3l1.9,1.3l1.9,1.3l1.9,1.3l1.9,1.3l1.9,1.3l1.9,1.3l1.9,1.4l1.9,1.4
			l1.9,1.4l1.9,1.4l1.9,1.4l1.9,1.4l1.9,1.4l1.9,1.4l1.9,1.4l1.9,1.4l1.9,1.4l1.9,1.4l1.9,1.4l1.9,1.4l1.9,1.4l1.9,1.4l1.9,1.4
			l1.9,1.4l1.9,1.4l1.9,1.4l1.9,1.4l1.9,1.4l1.9,1.4 M365.4,171.7l1.9,1.4l1.9,1.4l1.9,1.4l1.9,1.4l1.9,1.4l1.9,1.4l1.9,1.4l1.9,1.4
			l1.9,1.4l1.9,1.4l1.9,1.4l1.9,1.4l1.9,1.4l1.9,1.5l1.9,1.5l1.9,1.5l1.9,1.5l1.9,1.5l1.9,1.5l1.9,1.5l1.9,1.5l1.9,1.5l1.9,1.5
			l1.9,1.5l1.9,1.5l1.9,1.5l1.9,1.5l1.9,1.5l1.9,1.5l1.9,1.5l1.9,1.5l1.9,1.5 M425.8,218.3l1.9,1.5l1.9,1.5l1.9,1.5l1.9,1.5l1.9,1.5
			l1.9,1.5l1.9,1.5l1.9,1.5 M440.9,230.3l1.9,1.5l1.9,1.5l1.9,1.5l1.9,1.5 M448.5,236.3l1.6,1.3"/>
		<line class="st4" x1="0" y1="34.3" x2="488.8" y2="34.3"/>
	</g>
	<path class="st5" d="M111,34.3c0,0.6-0.5,1-1,1c-0.6,0-1-0.5-1-1c0-0.6,0.5-1,1-1C110.5,33.3,111,33.7,111,34.3L111,34.3z"/>
	<path class="st6" d="M111,34.3c0,0.6-0.5,1-1,1c-0.6,0-1-0.5-1-1c0-0.6,0.5-1,1-1C110.5,33.3,111,33.7,111,34.3L111,34.3z"/>
	<path class="st5" d="M112.9,28.2l3.3-8.7h1.2l3.5,8.7h-1.3l-1-2.6H115l-1,2.6H112.9L112.9,28.2z M115.4,24.7h2.9l-0.9-2.4
		c-0.3-0.7-0.5-1.3-0.6-1.8c-0.1,0.6-0.3,1.1-0.5,1.7L115.4,24.7L115.4,24.7z"/>
	<path class="st5" d="M407.3,232.5c0,0.1,0,0.2,0,0.2l0,0l0,0l0,0c-0.1,0.1-0.2,0.2-0.2,0.2s0-0.1,0-0.2c-0.3-0.1-0.4-0.3-0.4-0.5
		c0-0.2,0.1-0.5,0.4-1c0.3-0.4,0.6-0.8,1.1-1.1c0.4-0.3,0.8-0.4,1.1-0.4c0.7,0,1.1,0.3,1.3,0.9c0,0.1,0,0.2,0,0.2
		c0,0.6-0.2,1.1-0.6,1.7c-0.3,0.4-0.7,0.8-1.3,1.1s-1.1,0.4-1.7,0.4c-0.6,0-1-0.1-1.4-0.4c-0.4-0.3-0.5-0.6-0.5-1.1c0,0,0-0.1,0-0.2
		c0-1,0.4-2.1,1.3-3.2H406c-1.3,0-2.2-0.3-2.8-0.9c-0.1-0.3-0.2-0.6-0.2-1.1c0-0.3,0.1-0.6,0.4-1.1s0.7-0.8,1.3-1.1
		c0.7-0.3,1.3-0.4,1.9-0.4c0.1,0,0.2,0,0.2,0s-0.1,0.1-0.2,0.2l0,0c-0.6,0-1.1,0.1-1.5,0.4c-0.4,0.3-0.8,0.6-1.1,0.9
		c-0.3,0.4-0.4,0.9-0.4,1.3c0,0.3,0.1,0.5,0.2,0.6c0.3,0.4,1,0.6,2.1,0.6c0.1,0,0.3,0,0.4,0c0.9-1.3,1.9-2.3,3.2-3.2
		c1.3-1,2.3-1.5,3-1.5c0.6,0,0.9,0.3,1.1,0.9l0,0c0,0.4-0.1,0.9-0.4,1.3c-0.6,0.9-1.6,1.6-3,2.1c-0.9,0.3-1.8,0.5-2.8,0.6
		c-1.1,1.6-1.7,2.8-1.7,3.6l0,0c0,0.4,0.1,0.7,0.3,1c0.2,0.2,0.5,0.3,1,0.3c0.3,0,0.6-0.1,1.1-0.4c0.4-0.3,0.8-0.6,1.1-1.1
		c0.4-0.7,0.6-1.2,0.6-1.5v-0.2c0-0.3-0.2-0.4-0.6-0.4c-0.3,0-0.6,0.1-0.9,0.3c-0.3,0.2-0.6,0.5-0.9,1c-0.3,0.3-0.4,0.5-0.4,0.6
		C407.1,232.4,407.2,232.5,407.3,232.5L407.3,232.5z M407.3,232.7L407.3,232.7L407.3,232.7L407.3,232.7L407.3,232.7L407.3,232.7z
		 M412.6,224.4c-0.6,0-1.3,0.4-2.3,1.3c-0.7,0.7-1.6,1.6-2.6,2.8c0.9,0,1.6-0.1,2.3-0.4c1.3-0.6,2.2-1.2,2.8-1.9
		c0.3-0.4,0.4-0.9,0.4-1.3l0,0C413.3,224.6,413.1,224.4,412.6,224.4L412.6,224.4z"/>
	<path class="st5" d="M415.1,234L415.1,234l-0.4,3.1c-0.1,0.4-0.2,0.8-0.4,1.3c0,0.2,0,0.3-0.1,0.4c-0.2,0.5-0.5,0.8-0.9,0.9
		c0,0,0,0-0.1,0c-0.3,0-0.5-0.1-0.7-0.3c-0.1-0.1-0.1-0.2-0.1-0.3c0-0.3,0.1-0.5,0.4-0.6c0,0,0,0,0.1,0c0.2,0,0.3,0,0.3,0.1
		c0,0.1,0,0.1,0,0.1c0,0.2-0.1,0.3-0.3,0.4c0,0,0,0-0.1,0.1c0.1,0.1,0.2,0.1,0.4,0.1c0.3,0,0.5-0.3,0.6-1c0.1-0.1,0.1-0.2,0.1-0.4
		v-0.3l0.7-3.9h-0.6c-0.2,0-0.3,0-0.3,0l0,0l0,0c0-0.1,0-0.2,0.1-0.3l0,0h0.1h0.7c0.1-0.8,0.2-1.3,0.3-1.5c0.2-0.6,0.5-0.9,0.9-1
		c0.1,0,0.2,0,0.3,0c0.3,0,0.5,0.1,0.7,0.3l0,0c0,0.1,0,0.2,0,0.3c0,0.3-0.1,0.5-0.3,0.6c0,0,0,0-0.1,0c-0.2,0-0.3,0-0.3-0.1
		c-0.1-0.1-0.1-0.1-0.1-0.1c0-0.2,0.1-0.3,0.3-0.4c0.1,0,0.2,0,0.3-0.1c-0.1-0.1-0.2-0.1-0.4-0.1c-0.2,0-0.3,0.1-0.4,0.3
		c-0.1,0.1-0.2,0.4-0.3,1l-0.1,1h0.7c0.2,0,0.3,0,0.3,0.1c0,0.1,0,0.1-0.1,0.1l0,0H416H415.1L415.1,234z"/>
	<path class="st7" d="M432.8,42.7c0,0,0,0.1,0,0.2l0,0c-0.3,0-0.5,0.1-0.6,0.2c0,0.1,0,0.4,0,0.6c0,1-0.4,2.1-1.1,3.4
		c-0.3,0.9-0.7,1.6-1.4,2.1c-0.6,0.6-1.3,1-2,1.3c-0.4,0.1-0.8,0.2-1.1,0.2s-0.8-0.1-1.5-0.4c-0.3,0.1-0.6,0.2-0.9,0.2h-0.4
		c-1.1,0-1.7-0.1-1.7-0.4l0,0c0.3-0.3,0.9-0.4,1.7-0.4l0,0c0.4,0,0.9,0.1,1.3,0.2c0.1-0.1,0.4-0.4,0.9-0.9c0.4-0.4,0.7-0.8,1-1.2
		s0.5-0.8,1-1.4c1.4-2,2.7-3.2,3.8-3.6c-0.4-1.3-1.4-1.9-3-1.9c-0.7,0-1.5,0.2-2.2,0.6c-0.8,0.4-1.4,1-1.8,1.7
		c-0.6,0.9-0.9,1.6-0.9,2.1s0.3,0.9,0.9,0.9c0.4,0,0.9-0.2,1.4-0.5c0.5-0.4,0.9-0.7,1.2-1.2c0.6-0.7,0.9-1.3,0.9-1.9l0,0
		c0,0,0.1,0,0.2,0l0,0l0,0c0,0,0,0.1,0,0.2c0,0.6-0.2,1.1-0.6,1.7c-0.4,0.6-0.9,1.1-1.5,1.5c-0.6,0.4-1.1,0.6-1.5,0.6
		c-0.6,0-1-0.1-1.2-0.4c-0.2-0.3-0.3-0.6-0.3-1.1c0-0.6,0.3-1.3,0.9-2.1c0.4-0.7,1.1-1.3,2-1.7c0.9-0.4,1.8-0.6,2.7-0.6
		c1.8,0,3,0.6,3.4,1.9c0.1-0.1,0.4-0.2,0.6-0.2C432.8,42.5,432.8,42.5,432.8,42.7L432.8,42.7z M430.9,47.2c0.6-1.3,0.9-2.4,0.9-3.4
		c0-0.1,0-0.3,0-0.4c-0.6,0.4-1.4,1.6-2.6,3.4c-1.3,1.7-2.5,2.8-3.6,3.4c0.4,0.3,0.8,0.4,1.1,0.4s0.6-0.1,1.1-0.2
		c0.6-0.3,1.1-0.7,1.7-1.3C429.9,48.5,430.4,47.9,430.9,47.2L430.9,47.2z M424.3,50.3c0.1,0,0.3-0.1,0.4-0.2
		c-0.3-0.1-0.6-0.2-0.9-0.2c-0.6,0-0.9,0.1-0.9,0.2l0,0c0,0,0,0,0.1,0c0.1,0,0.2,0,0.4,0.1C423.7,50.3,424,50.3,424.3,50.3
		L424.3,50.3z"/>
</g>
</svg>
