<?xml version="1.0" encoding="utf-8"?>
<!-- Generator: Adobe Illustrator 22.1.0, SVG Export Plug-In . SVG Version: 6.00 Build 0)  -->
<svg version="1.1" id="Calque_1" xmlns="http://www.w3.org/2000/svg" xmlns:xlink="http://www.w3.org/1999/xlink" x="0px" y="0px"
	 viewBox="0 0 446.2 305.4" style="enable-background:new 0 0 446.2 305.4;" xml:space="preserve">
<style type="text/css">
	.st0{clip-path:url(#SVGID_2_);fill:#FFFFFF;}
	
		.st1{clip-path:url(#SVGID_2_);fill:none;stroke:#7A7A7A;stroke-width:3;stroke-linecap:round;stroke-linejoin:round;stroke-miterlimit:10;}
	.st2{fill:none;stroke:#4D4D4D;stroke-width:1.5;stroke-linecap:round;stroke-linejoin:round;stroke-miterlimit:10;}
</style>
<g>
	<g>
		<defs>
			<rect id="SVGID_1_" width="446.2" height="305"/>
		</defs>
		<clipPath id="SVGID_2_">
			<use xlink:href="#SVGID_1_"  style="overflow:visible;"/>
		</clipPath>
		<polygon class="st0" points="0,0 446.2,0 446.2,305.4 0,305.4 0,0 		"/>
		<path class="st1" d="M8.3,9.1v283.5 M8.3,292.5h425.2 M433.5,292.5V9.1 M433.5,9.1H8.3"/>
	</g>
	<path class="st2" d="M220.9,37.4V9.1 M220.9,65.8v28.3 M220.9,94.1h70.9 M291.8,94.1v85 M291.8,136.6h85 M405.2,136.6h28.3
		 M65,94.1H8.3 M107.5,94.1v85 M107.5,207.5v85 M178.4,94.1h42.5 M150,94.1H93.4 M291.8,235.8h85 M405.2,235.8h28.3 M291.8,207.5
		V250 M291.8,278.4v14.2"/>
	<path d="M116.7,52h-3.1l-0.5,1.3c-0.1,0.3-0.2,0.5-0.2,0.7c0,0.1,0.1,0.2,0.2,0.3c0.1,0.1,0.4,0.2,0.8,0.2v0.2h-2.5v-0.2
		c0.3-0.1,0.6-0.1,0.6-0.2c0.2-0.2,0.4-0.6,0.7-1.2l2.8-6.6h0.2l2.8,6.7c0.2,0.5,0.4,0.9,0.6,1c0.2,0.2,0.4,0.2,0.8,0.3v0.2h-3.2
		v-0.2c0.3,0,0.5-0.1,0.6-0.2c0.1-0.1,0.2-0.2,0.2-0.3c0-0.2-0.1-0.4-0.2-0.8L116.7,52L116.7,52z M116.5,51.6l-1.4-3.2l-1.4,3.2
		H116.5L116.5,51.6z"/>
	<path d="M336.9,53.1c0.6,0.1,1,0.3,1.2,0.6c0.4,0.4,0.6,0.8,0.6,1.3c0,0.4-0.1,0.8-0.4,1.1c-0.3,0.4-0.6,0.6-1,0.8
		c-0.4,0.2-1.1,0.3-2,0.3h-3.8V57h0.3c0.3,0,0.6-0.1,0.7-0.3c0.1-0.1,0.1-0.4,0.1-0.9v-5.2c0-0.5-0.1-0.8-0.2-0.9
		c-0.2-0.2-0.4-0.3-0.7-0.3h-0.3v-0.2h3.5c0.6,0,1.2,0,1.6,0.1c0.6,0.1,1,0.4,1.4,0.8c0.3,0.4,0.5,0.8,0.5,1.2
		c0,0.4-0.1,0.8-0.4,1.1S337.4,53,336.9,53.1L336.9,53.1z M333.8,52.8c0.1,0,0.3,0,0.5,0.1c0.2,0,0.4,0,0.6,0c0.6,0,1-0.1,1.3-0.2
		c0.3-0.1,0.5-0.3,0.7-0.6c0.2-0.3,0.2-0.5,0.2-0.8c0-0.5-0.2-0.9-0.6-1.2c-0.4-0.3-0.9-0.5-1.7-0.5c-0.4,0-0.7,0-1.1,0.1V52.8
		L333.8,52.8z M333.8,56.6c0.5,0.1,0.9,0.2,1.4,0.2c0.7,0,1.3-0.2,1.6-0.5c0.4-0.3,0.6-0.7,0.6-1.2c0-0.3-0.1-0.6-0.3-0.9
		c-0.2-0.3-0.4-0.5-0.8-0.7c-0.4-0.2-0.9-0.2-1.4-0.2c-0.2,0-0.5,0-0.6,0c-0.2,0-0.3,0-0.4,0V56.6L333.8,56.6z"/>
	<path d="M367.1,183.8l0.2,2.7h-0.2c-0.2-0.8-0.6-1.4-1-1.8s-1-0.5-1.6-0.5c-0.5,0-1,0.1-1.4,0.4c-0.4,0.3-0.8,0.7-1,1.3
		c-0.2,0.6-0.4,1.3-0.4,2.2c0,0.7,0.1,1.4,0.3,1.9c0.2,0.5,0.6,0.9,1,1.2c0.5,0.3,1,0.4,1.6,0.4c0.5,0,1-0.1,1.4-0.3
		c0.4-0.2,0.8-0.7,1.3-1.3l0.2,0.1c-0.4,0.7-0.9,1.2-1.4,1.6c-0.5,0.3-1.2,0.5-1.9,0.5c-1.3,0-2.4-0.5-3.1-1.5
		c-0.5-0.7-0.8-1.6-0.8-2.6c0-0.8,0.2-1.5,0.5-2.2c0.4-0.7,0.9-1.2,1.5-1.6c0.6-0.4,1.3-0.6,2.1-0.6c0.6,0,1.2,0.1,1.7,0.4
		c0.2,0.1,0.3,0.1,0.4,0.1c0.1,0,0.2,0,0.3-0.1c0.1-0.1,0.2-0.3,0.2-0.4H367.1L367.1,183.8z"/>
	<path d="M358.5,266.8v-0.2h0.3c0.3,0,0.6-0.1,0.7-0.3c0.1-0.1,0.1-0.4,0.1-0.9v-5.2c0-0.5-0.1-0.8-0.2-0.9
		c-0.2-0.2-0.4-0.3-0.7-0.3h-0.3v-0.2h3.3c1.2,0,2.1,0.1,2.7,0.4c0.6,0.3,1.1,0.7,1.5,1.4c0.4,0.6,0.6,1.4,0.6,2.2
		c0,1.1-0.3,2-1,2.8c-0.8,0.8-1.9,1.3-3.5,1.3H358.5L358.5,266.8z M360.8,266.3c0.5,0.1,0.9,0.2,1.3,0.2c0.9,0,1.7-0.3,2.3-1
		c0.6-0.6,0.9-1.5,0.9-2.6c0-1.1-0.3-2-0.9-2.6c-0.6-0.6-1.4-1-2.3-1c-0.4,0-0.8,0.1-1.2,0.2V266.3L360.8,266.3z"/>
	<path d="M199.8,183.7v3.2h1.8c0.5,0,0.8-0.1,0.9-0.2c0.2-0.2,0.3-0.5,0.3-1h0.2v2.8h-0.2c-0.1-0.4-0.1-0.6-0.2-0.7
		c-0.1-0.1-0.2-0.2-0.3-0.3c-0.2-0.1-0.4-0.1-0.7-0.1h-1.8v2.6c0,0.4,0,0.6,0,0.6c0,0.1,0.1,0.1,0.2,0.2s0.2,0.1,0.4,0.1h1.4
		c0.5,0,0.8,0,1-0.1c0.2-0.1,0.4-0.2,0.6-0.4c0.2-0.2,0.5-0.6,0.7-1.1h0.2l-0.7,2h-6.2V191h0.3c0.2,0,0.4,0,0.5-0.1
		c0.1-0.1,0.2-0.2,0.3-0.3c0-0.1,0.1-0.4,0.1-0.8v-5.2c0-0.5-0.1-0.8-0.2-0.9c-0.1-0.2-0.4-0.2-0.7-0.2h-0.3v-0.2h6.2l0.1,1.8h-0.2
		c-0.1-0.4-0.2-0.7-0.3-0.9c-0.1-0.2-0.2-0.3-0.4-0.4c-0.2-0.1-0.4-0.1-0.8-0.1H199.8L199.8,183.7z"/>
	<path d="M57.4,183.7v3.1h1.5c0.3,0,0.6-0.1,0.7-0.2s0.3-0.4,0.3-0.9h0.2v2.7h-0.2c0-0.3,0-0.5-0.1-0.7c-0.1-0.1-0.2-0.3-0.3-0.3
		c-0.1-0.1-0.3-0.1-0.6-0.1h-1.5v2.5c0,0.4,0,0.7,0.1,0.8c0,0.1,0.1,0.2,0.2,0.3c0.2,0.1,0.4,0.1,0.5,0.1h0.3v0.2h-3.4V191h0.3
		c0.3,0,0.6-0.1,0.7-0.3c0.1-0.1,0.1-0.4,0.1-0.9v-5.2c0-0.4,0-0.7-0.1-0.8c0-0.1-0.1-0.2-0.2-0.3c-0.2-0.1-0.4-0.1-0.5-0.1h-0.3
		v-0.2h6l0.1,1.8H61c-0.1-0.4-0.2-0.7-0.4-0.8c-0.1-0.2-0.3-0.3-0.5-0.4c-0.2-0.1-0.5-0.1-0.9-0.1H57.4L57.4,183.7z"/>
</g>
</svg>
