<?xml version="1.0" encoding="utf-8"?>
<!-- Generator: Adobe Illustrator 22.1.0, SVG Export Plug-In . SVG Version: 6.00 Build 0)  -->
<svg version="1.1" id="Calque_1" xmlns="http://www.w3.org/2000/svg" xmlns:xlink="http://www.w3.org/1999/xlink" x="0px" y="0px"
	 viewBox="0 0 483.8 274" style="enable-background:new 0 0 483.8 274;" xml:space="preserve">
<style type="text/css">
	.st0{clip-path:url(#SVGID_2_);fill:#FFFFFF;}
	.st1{clip-path:url(#SVGID_2_);fill:none;stroke:#C0C0C0;stroke-linecap:round;stroke-linejoin:round;stroke-miterlimit:10;}
	.st2{clip-path:url(#SVGID_2_);fill:none;stroke:#000000;stroke-miterlimit:10;}
	.st3{fill:none;stroke:#4D4DFF;stroke-linecap:round;stroke-linejoin:round;stroke-miterlimit:10;}
	.st4{fill:#0000FF;}
</style>
<g>
	<g>
		<defs>
			<rect id="SVGID_1_" width="483.8" height="274"/>
		</defs>
		<clipPath id="SVGID_2_">
			<use xlink:href="#SVGID_1_"  style="overflow:visible;"/>
		</clipPath>
		<polygon class="st0" points="0,0 483.8,0 483.8,274.6 0,274.6 0,0 		"/>
		<path class="st1" d="M107.4,0v274.6 M192.5,0v274.6 M277.5,0v274.6 M362.5,0v274.6 M447.6,0v274.6 M0,34.3h483.8 M0,34.3h483.8
			 M0,119.3h483.8"/>
		<path class="st2" d="M22.4,1v273.6 M22.4,0.5l-3,3 M22.4,0.5l3,3 M0,204.4h482.8 M483.3,204.4l-3-3 M483.3,204.4l-3,3"/>
	</g>
	<path d="M108.7,215.2h-0.8v-5.1c-0.2,0.2-0.4,0.4-0.8,0.5c-0.3,0.2-0.6,0.3-0.8,0.4v-0.8c0.4-0.2,0.8-0.5,1.2-0.8
		c0.3-0.3,0.6-0.6,0.7-0.9h0.5V215.2L108.7,215.2z"/>
	<path d="M195.1,214.4v0.8h-4.3c0-0.2,0-0.4,0.1-0.6c0.1-0.3,0.3-0.6,0.5-0.9c0.2-0.3,0.6-0.6,1-1c0.7-0.6,1.2-1,1.4-1.4
		c0.2-0.3,0.4-0.7,0.4-1c0-0.3-0.1-0.6-0.3-0.8c-0.2-0.2-0.5-0.3-0.9-0.3c-0.4,0-0.7,0.1-0.9,0.3c-0.2,0.2-0.3,0.5-0.4,1l-0.8-0.1
		c0.1-0.6,0.3-1.1,0.6-1.4c0.4-0.3,0.9-0.5,1.5-0.5c0.6,0,1.1,0.2,1.5,0.5c0.4,0.3,0.5,0.8,0.5,1.3c0,0.3-0.1,0.5-0.2,0.8
		c-0.1,0.3-0.3,0.5-0.5,0.8c-0.2,0.3-0.7,0.7-1.2,1.1c-0.5,0.4-0.8,0.7-0.9,0.8c-0.1,0.1-0.2,0.3-0.3,0.4H195.1L195.1,214.4z"/>
	<path d="M276,213.5l0.8-0.1c0.1,0.5,0.2,0.8,0.5,1c0.2,0.2,0.5,0.3,0.8,0.3c0.4,0,0.7-0.1,1-0.4c0.3-0.3,0.4-0.6,0.4-1
		c0-0.4-0.1-0.7-0.4-0.9c-0.2-0.2-0.5-0.4-0.9-0.4c-0.2,0-0.3,0-0.6,0.1l0.1-0.7c0.1,0,0.1,0,0.1,0c0.3,0,0.6-0.1,0.9-0.3
		c0.3-0.2,0.4-0.5,0.4-0.8c0-0.3-0.1-0.5-0.3-0.7c-0.2-0.2-0.5-0.3-0.8-0.3s-0.6,0.1-0.8,0.3c-0.2,0.2-0.3,0.5-0.4,0.9l-0.8-0.1
		c0.1-0.5,0.3-1,0.7-1.2c0.3-0.3,0.8-0.4,1.3-0.4c0.4,0,0.7,0.1,1,0.2c0.3,0.2,0.5,0.4,0.7,0.6c0.2,0.3,0.2,0.5,0.2,0.8
		c0,0.3-0.1,0.5-0.2,0.8c-0.1,0.2-0.4,0.4-0.7,0.5c0.4,0.1,0.7,0.3,0.9,0.6c0.2,0.3,0.3,0.6,0.3,1c0,0.6-0.2,1-0.6,1.4
		s-0.9,0.6-1.6,0.6c-0.6,0-1-0.2-1.4-0.5C276.3,214.4,276.1,214,276,213.5L276,213.5z"/>
	<path d="M363.2,215.2v-1.6h-2.8v-0.7l3-4.2h0.7v4.2h0.9v0.7H364v1.6H363.2L363.2,215.2z M363.2,212.9V210l-2,2.9H363.2L363.2,212.9
		z"/>
	<path d="M445.9,213.5l0.8-0.1c0.1,0.4,0.2,0.7,0.4,0.9c0.2,0.2,0.5,0.3,0.8,0.3c0.4,0,0.7-0.1,1-0.4c0.3-0.3,0.4-0.7,0.4-1.2
		c0-0.5-0.1-0.8-0.4-1.1c-0.3-0.3-0.6-0.4-1-0.4c-0.3,0-0.5,0.1-0.7,0.2c-0.2,0.1-0.4,0.3-0.5,0.5l-0.7-0.1l0.6-3.3h3.2v0.8h-2.6
		l-0.4,1.7c0.4-0.3,0.8-0.4,1.2-0.4c0.6,0,1,0.2,1.4,0.6c0.4,0.4,0.6,0.9,0.6,1.5c0,0.6-0.2,1.1-0.5,1.5c-0.4,0.5-1,0.8-1.7,0.8
		c-0.6,0-1.1-0.2-1.4-0.5C446.1,214.5,445.9,214,445.9,213.5L445.9,213.5z"/>
	<path d="M16.5,123h-0.8v-5.1c-0.2,0.2-0.4,0.4-0.8,0.5c-0.3,0.2-0.6,0.3-0.8,0.4v-0.8c0.4-0.2,0.8-0.5,1.2-0.8
		c0.3-0.3,0.6-0.6,0.7-0.9h0.5V123L16.5,123z"/>
	<path d="M17.7,37.5v0.8h-4.3c0-0.2,0-0.4,0.1-0.6c0.1-0.3,0.3-0.6,0.5-0.9c0.2-0.3,0.6-0.6,1-1c0.7-0.6,1.2-1,1.4-1.4
		c0.2-0.3,0.4-0.7,0.4-1c0-0.3-0.1-0.6-0.3-0.8c-0.2-0.2-0.5-0.3-0.9-0.3c-0.4,0-0.7,0.1-0.9,0.3c-0.2,0.2-0.3,0.5-0.4,1l-0.8-0.1
		c0.1-0.6,0.3-1.1,0.6-1.4c0.4-0.3,0.9-0.5,1.5-0.5s1.1,0.2,1.5,0.5c0.4,0.3,0.5,0.8,0.5,1.3c0,0.3-0.1,0.5-0.2,0.8
		s-0.3,0.5-0.5,0.8c-0.2,0.3-0.7,0.7-1.2,1.1c-0.5,0.4-0.8,0.7-0.9,0.8c-0.1,0.1-0.2,0.3-0.3,0.4H17.7L17.7,37.5z"/>
	<path d="M13.5,212c0-0.8,0.1-1.4,0.2-1.9s0.4-0.8,0.7-1.1c0.3-0.3,0.7-0.4,1.2-0.4c0.3,0,0.7,0.1,0.9,0.2c0.3,0.1,0.5,0.3,0.6,0.6
		c0.2,0.3,0.3,0.6,0.4,1c0.1,0.4,0.1,0.9,0.1,1.5c0,0.8-0.1,1.4-0.2,1.8c-0.2,0.5-0.4,0.8-0.7,1.1c-0.3,0.3-0.7,0.4-1.2,0.4
		c-0.6,0-1.1-0.2-1.5-0.7C13.7,214.1,13.5,213.2,13.5,212L13.5,212z M14.3,212c0,1.1,0.1,1.8,0.4,2.1c0.2,0.4,0.6,0.5,0.9,0.5
		c0.4,0,0.7-0.2,0.9-0.5c0.3-0.4,0.4-1.1,0.4-2.1s-0.1-1.8-0.4-2.1c-0.3-0.4-0.6-0.5-0.9-0.5c-0.4,0-0.7,0.2-0.9,0.5
		C14.4,210.2,14.3,210.9,14.3,212L14.3,212z"/>
	<path class="st3" d="M446,238.7l0.9,0.6 M446.9,239.4l0.7,0.4"/>
	<path class="st4" d="M404.8,234c0,0.1,0,0.2,0,0.2l0,0l0,0l0,0c-0.1,0.1-0.2,0.2-0.2,0.2s0-0.1,0-0.2c-0.3-0.1-0.4-0.3-0.4-0.5
		c0-0.2,0.1-0.5,0.4-1c0.3-0.4,0.6-0.8,1.1-1.1c0.4-0.3,0.8-0.4,1.1-0.4c0.7,0,1.1,0.3,1.3,0.9c0,0.1,0,0.2,0,0.2
		c0,0.6-0.2,1.1-0.6,1.7c-0.3,0.4-0.7,0.8-1.3,1.1s-1.1,0.4-1.7,0.4c-0.6,0-1-0.1-1.4-0.4c-0.4-0.3-0.5-0.6-0.5-1.1c0,0,0-0.1,0-0.2
		c0-1,0.4-2.1,1.3-3.2h-0.2c-1.3,0-2.2-0.3-2.8-0.9c-0.1-0.3-0.2-0.6-0.2-1.1c0-0.3,0.1-0.6,0.4-1.1c0.3-0.4,0.7-0.8,1.3-1.1
		c0.7-0.3,1.3-0.4,1.9-0.4c0.1,0,0.2,0,0.2,0s-0.1,0.1-0.2,0.2l0,0c-0.6,0-1.1,0.1-1.5,0.4c-0.4,0.3-0.8,0.6-1.1,0.9
		c-0.3,0.4-0.4,0.9-0.4,1.3c0,0.3,0.1,0.5,0.2,0.6c0.3,0.4,1,0.6,2.1,0.6c0.1,0,0.3,0,0.4,0c0.9-1.3,1.9-2.3,3.2-3.2
		c1.3-1,2.3-1.5,3-1.5c0.6,0,0.9,0.3,1.1,0.9l0,0c0,0.4-0.1,0.9-0.4,1.3c-0.6,0.9-1.6,1.6-3,2.1c-0.9,0.3-1.8,0.5-2.8,0.6
		c-1.1,1.6-1.7,2.8-1.7,3.6l0,0c0,0.4,0.1,0.7,0.3,1c0.2,0.2,0.5,0.3,1,0.3c0.3,0,0.6-0.1,1.1-0.4c0.4-0.3,0.8-0.6,1.1-1.1
		c0.4-0.7,0.6-1.2,0.6-1.5v-0.2c0-0.3-0.2-0.4-0.6-0.4c-0.3,0-0.6,0.1-0.9,0.3c-0.3,0.2-0.6,0.5-0.9,1c-0.3,0.3-0.4,0.5-0.4,0.6
		C404.6,233.9,404.7,234,404.8,234L404.8,234z M404.8,234.2L404.8,234.2L404.8,234.2L404.8,234.2L404.8,234.2L404.8,234.2z
		 M410.1,225.9c-0.6,0-1.3,0.4-2.3,1.3c-0.7,0.7-1.6,1.6-2.6,2.8c0.9,0,1.6-0.1,2.3-0.4c1.3-0.6,2.2-1.2,2.8-1.9
		c0.3-0.4,0.4-0.9,0.4-1.3l0,0C410.8,226.1,410.5,225.9,410.1,225.9L410.1,225.9z"/>
</g>
</svg>
