<?xml version="1.0" encoding="utf-8"?>
<!-- Generator: Adobe Illustrator 22.1.0, SVG Export Plug-In . SVG Version: 6.00 Build 0)  -->
<svg version="1.1" id="Calque_1" xmlns="http://www.w3.org/2000/svg" xmlns:xlink="http://www.w3.org/1999/xlink" x="0px" y="0px"
	 viewBox="0 0 316 259.8" style="enable-background:new 0 0 316 259.8;" xml:space="preserve">
<style type="text/css">
	.st0{clip-path:url(#SVGID_2_);fill:#FFFFFF;}
	.st1{clip-path:url(#SVGID_2_);fill:none;stroke:#C0C0C0;stroke-linecap:round;stroke-linejoin:round;stroke-miterlimit:10;}
	.st2{clip-path:url(#SVGID_2_);fill:none;stroke:#000000;stroke-miterlimit:10;}
	.st3{fill:none;stroke:#4D4DFF;stroke-width:1.5;stroke-linecap:round;stroke-linejoin:round;stroke-miterlimit:10;}
	.st4{fill:#4D4DFF;}
	.st5{fill:none;stroke:#000000;stroke-linecap:round;stroke-linejoin:round;stroke-miterlimit:10;}
	.st6{fill:#0000FF;}
</style>
<g>
	<g>
		<defs>
			<rect id="SVGID_1_" y="0" width="316" height="259"/>
		</defs>
		<clipPath id="SVGID_2_">
			<use xlink:href="#SVGID_1_"  style="overflow:visible;"/>
		</clipPath>
		<polygon class="st0" points="0,0 316,0 316,259.8 0,259.8 0,0 		"/>
		<path class="st1" d="M44.9,0v259.8 M73.3,0v259.8 M101.6,0v259.8 M130,0v259.8 M158.3,0v259.8 M186.7,0v259.8 M215,0v259.8
			 M243.3,0v259.8 M271.7,0v259.8 M300,0v259.8 M0,3.3h316 M0,3.3h316 M0,31.6h316 M0,60h316 M0,88.3h316 M0,116.7h316 M0,173.4h316
			 M0,201.7h316 M0,230h316 M0,258.4h316"/>
		<path class="st2" d="M16.6,0.7v259.2 M16.6,0.4l-1.9,1.9 M16.6,0.4l1.9,1.9 M0,145h315.3 M315.7,145l-1.9-1.9 M315.7,145l-1.9,1.9
			"/>
	</g>
	<path d="M45.9,151.5h-0.5v-3.1c-0.1,0.1-0.3,0.2-0.5,0.3c-0.2,0.1-0.4,0.2-0.5,0.3v-0.5c0.3-0.1,0.5-0.3,0.7-0.5
		c0.2-0.2,0.4-0.4,0.4-0.5h0.3V151.5L45.9,151.5z"/>
	<path d="M74.7,151.1v0.5h-2.6c0-0.1,0-0.2,0.1-0.3c0.1-0.2,0.2-0.4,0.3-0.5c0.1-0.2,0.4-0.4,0.6-0.6c0.4-0.4,0.7-0.6,0.9-0.8
		c0.2-0.2,0.2-0.4,0.2-0.6c0-0.2-0.1-0.4-0.2-0.5c-0.1-0.1-0.3-0.2-0.5-0.2c-0.2,0-0.4,0.1-0.6,0.2c-0.1,0.1-0.2,0.3-0.2,0.6
		l-0.5-0.1c0-0.4,0.2-0.7,0.4-0.9c0.2-0.2,0.5-0.3,0.9-0.3c0.4,0,0.7,0.1,0.9,0.3s0.3,0.5,0.3,0.8c0,0.2,0,0.3-0.1,0.5
		c-0.1,0.2-0.2,0.3-0.3,0.5c-0.2,0.2-0.4,0.4-0.8,0.7c-0.3,0.2-0.5,0.4-0.6,0.5c-0.1,0.1-0.2,0.2-0.2,0.3H74.7L74.7,151.1z"/>
	<path d="M100.5,150.5l0.5-0.1c0.1,0.3,0.1,0.5,0.3,0.6c0.1,0.1,0.3,0.2,0.5,0.2c0.2,0,0.4-0.1,0.6-0.2c0.2-0.2,0.2-0.4,0.2-0.6
		c0-0.2-0.1-0.4-0.2-0.6s-0.3-0.2-0.6-0.2c-0.1,0-0.2,0-0.3,0.1l0.1-0.4c0,0,0.1,0,0.1,0c0.2,0,0.4-0.1,0.6-0.2
		c0.2-0.1,0.3-0.3,0.3-0.5c0-0.2-0.1-0.3-0.2-0.4c-0.1-0.1-0.3-0.2-0.5-0.2s-0.3,0.1-0.5,0.2c-0.1,0.1-0.2,0.3-0.2,0.5l-0.5-0.1
		c0.1-0.3,0.2-0.6,0.4-0.8c0.2-0.2,0.5-0.3,0.8-0.3c0.2,0,0.4,0,0.6,0.1c0.2,0.1,0.3,0.2,0.4,0.4c0.1,0.2,0.1,0.3,0.1,0.5
		c0,0.2,0,0.3-0.1,0.5c-0.1,0.1-0.2,0.3-0.4,0.3c0.2,0.1,0.4,0.2,0.5,0.3c0.1,0.2,0.2,0.4,0.2,0.6c0,0.3-0.1,0.6-0.4,0.9
		c-0.3,0.2-0.6,0.4-1,0.4c-0.4,0-0.6-0.1-0.9-0.3C100.7,151.1,100.5,150.8,100.5,150.5L100.5,150.5z"/>
	<path d="M130.5,151.5v-0.9h-1.7v-0.4l1.8-2.6h0.4v2.6h0.5v0.4H131v0.9H130.5L130.5,151.5z M130.5,150.1v-1.8l-1.2,1.8H130.5
		L130.5,150.1z"/>
	<path d="M157.3,150.5l0.5,0c0,0.3,0.1,0.4,0.3,0.6c0.1,0.1,0.3,0.2,0.5,0.2c0.2,0,0.4-0.1,0.6-0.3c0.2-0.2,0.2-0.4,0.2-0.7
		c0-0.3-0.1-0.5-0.2-0.7c-0.2-0.2-0.4-0.2-0.6-0.2c-0.2,0-0.3,0-0.4,0.1c-0.1,0.1-0.2,0.2-0.3,0.3l-0.5-0.1l0.4-2h2v0.5h-1.6
		l-0.2,1.1c0.2-0.2,0.5-0.3,0.8-0.3c0.3,0,0.6,0.1,0.9,0.4c0.2,0.2,0.4,0.5,0.4,0.9c0,0.4-0.1,0.7-0.3,0.9c-0.3,0.3-0.6,0.5-1,0.5
		c-0.4,0-0.7-0.1-0.9-0.3C157.4,151.1,157.3,150.8,157.3,150.5L157.3,150.5z"/>
	<path d="M188.2,148.5l-0.5,0c0-0.2-0.1-0.3-0.2-0.4c-0.1-0.1-0.3-0.2-0.5-0.2c-0.2,0-0.3,0-0.4,0.1c-0.2,0.1-0.3,0.3-0.4,0.5
		s-0.1,0.5-0.1,0.9c0.1-0.2,0.3-0.3,0.4-0.4c0.2-0.1,0.3-0.1,0.5-0.1c0.3,0,0.6,0.1,0.8,0.4c0.2,0.2,0.3,0.5,0.3,0.9
		c0,0.3-0.1,0.5-0.2,0.7c-0.1,0.2-0.3,0.4-0.4,0.5c-0.2,0.1-0.4,0.2-0.6,0.2c-0.4,0-0.7-0.1-1-0.4c-0.3-0.3-0.4-0.8-0.4-1.5
		c0-0.8,0.1-1.3,0.4-1.7c0.2-0.3,0.6-0.5,1-0.5c0.3,0,0.6,0.1,0.8,0.3C188,148,188.2,148.2,188.2,148.5L188.2,148.5z M186.2,150.3
		c0,0.2,0,0.3,0.1,0.5c0.1,0.2,0.2,0.3,0.3,0.4c0.1,0.1,0.3,0.1,0.4,0.1c0.2,0,0.4-0.1,0.5-0.3c0.1-0.2,0.2-0.4,0.2-0.7
		c0-0.3-0.1-0.5-0.2-0.6c-0.1-0.2-0.3-0.2-0.6-0.2s-0.4,0.1-0.6,0.2C186.3,149.8,186.2,150,186.2,150.3L186.2,150.3z"/>
	<path d="M214.1,148.1v-0.5h2.6v0.4c-0.3,0.3-0.5,0.6-0.7,1.1c-0.2,0.4-0.4,0.9-0.6,1.4c-0.1,0.3-0.2,0.7-0.2,1.1h-0.5
		c0-0.3,0.1-0.7,0.2-1.1c0.1-0.4,0.3-0.9,0.5-1.3s0.5-0.8,0.7-1H214.1L214.1,148.1z"/>
	<path d="M243.2,149.4c-0.2-0.1-0.4-0.2-0.5-0.3s-0.1-0.3-0.1-0.5c0-0.3,0.1-0.5,0.3-0.7s0.5-0.3,0.8-0.3c0.3,0,0.6,0.1,0.8,0.3
		c0.2,0.2,0.3,0.4,0.3,0.7c0,0.2,0,0.3-0.1,0.5c-0.1,0.1-0.2,0.2-0.4,0.3c0.2,0.1,0.4,0.2,0.6,0.4c0.1,0.2,0.2,0.4,0.2,0.6
		c0,0.3-0.1,0.6-0.4,0.9c-0.2,0.2-0.6,0.3-0.9,0.3c-0.4,0-0.7-0.1-0.9-0.3c-0.2-0.2-0.4-0.5-0.4-0.9c0-0.3,0.1-0.5,0.2-0.6
		C242.8,149.6,243,149.5,243.2,149.4L243.2,149.4z M243.1,148.6c0,0.2,0.1,0.3,0.2,0.5c0.1,0.1,0.3,0.2,0.5,0.2
		c0.2,0,0.3-0.1,0.5-0.2c0.1-0.1,0.2-0.3,0.2-0.4c0-0.2-0.1-0.3-0.2-0.5c-0.1-0.1-0.3-0.2-0.5-0.2c-0.2,0-0.3,0.1-0.5,0.2
		C243.2,148.3,243.1,148.4,243.1,148.6L243.1,148.6z M242.9,150.4c0,0.1,0,0.3,0.1,0.4s0.2,0.2,0.3,0.3c0.1,0.1,0.3,0.1,0.4,0.1
		c0.2,0,0.4-0.1,0.6-0.2c0.2-0.2,0.2-0.3,0.2-0.6c0-0.2-0.1-0.4-0.2-0.6c-0.2-0.2-0.4-0.2-0.6-0.2c-0.2,0-0.4,0.1-0.6,0.2
		S242.9,150.2,242.9,150.4L242.9,150.4z"/>
	<path d="M270.9,150.6l0.5,0c0,0.2,0.1,0.4,0.2,0.5c0.1,0.1,0.3,0.1,0.4,0.1c0.2,0,0.3,0,0.4-0.1c0.1-0.1,0.2-0.2,0.3-0.3
		c0.1-0.1,0.1-0.3,0.2-0.5c0-0.2,0.1-0.4,0.1-0.6c0,0,0-0.1,0-0.1c-0.1,0.2-0.2,0.3-0.4,0.4c-0.2,0.1-0.4,0.1-0.5,0.1
		c-0.3,0-0.6-0.1-0.8-0.4c-0.2-0.2-0.3-0.6-0.3-0.9c0-0.4,0.1-0.7,0.4-1c0.2-0.2,0.5-0.4,0.9-0.4c0.3,0,0.5,0.1,0.7,0.2
		c0.2,0.1,0.4,0.3,0.5,0.6c0.1,0.3,0.2,0.6,0.2,1.1c0,0.5-0.1,0.9-0.2,1.2c-0.1,0.3-0.3,0.5-0.5,0.7c-0.2,0.2-0.5,0.2-0.8,0.2
		c-0.3,0-0.6-0.1-0.8-0.3C271.1,151.2,270.9,150.9,270.9,150.6L270.9,150.6z M272.9,148.9c0-0.3-0.1-0.5-0.2-0.7
		c-0.1-0.2-0.3-0.2-0.5-0.2c-0.2,0-0.4,0.1-0.6,0.3c-0.2,0.2-0.2,0.4-0.2,0.7c0,0.3,0.1,0.5,0.2,0.6c0.2,0.2,0.3,0.2,0.6,0.2
		c0.2,0,0.4-0.1,0.6-0.2C272.8,149.4,272.9,149.2,272.9,148.9L272.9,148.9z"/>
	<path d="M299.5,151.5H299v-3.1c-0.1,0.1-0.3,0.2-0.5,0.3s-0.4,0.2-0.5,0.3v-0.5c0.3-0.1,0.5-0.3,0.7-0.5c0.2-0.2,0.4-0.4,0.4-0.5
		h0.3V151.5L299.5,151.5z M300.8,149.6c0-0.5,0-0.8,0.1-1.1c0.1-0.3,0.2-0.5,0.4-0.7c0.2-0.2,0.4-0.2,0.7-0.2c0.2,0,0.4,0,0.6,0.1
		c0.2,0.1,0.3,0.2,0.4,0.4c0.1,0.2,0.2,0.4,0.2,0.6c0.1,0.2,0.1,0.5,0.1,0.9c0,0.5,0,0.8-0.1,1.1c-0.1,0.3-0.2,0.5-0.4,0.7
		s-0.4,0.2-0.7,0.2c-0.4,0-0.7-0.1-0.9-0.4C300.9,150.9,300.8,150.3,300.8,149.6L300.8,149.6z M301.3,149.6c0,0.7,0.1,1.1,0.2,1.3
		c0.2,0.2,0.3,0.3,0.6,0.3c0.2,0,0.4-0.1,0.6-0.3c0.2-0.2,0.2-0.7,0.2-1.3s-0.1-1.1-0.2-1.3c-0.2-0.2-0.3-0.3-0.6-0.3
		c-0.2,0-0.4,0.1-0.5,0.3C301.4,148.5,301.3,148.9,301.3,149.6L301.3,149.6z"/>
	<path d="M8.3,230.9v-0.4h2.2v0.4H8.3L8.3,230.9z M11,231.3l0.5-0.1c0.1,0.3,0.1,0.5,0.3,0.6c0.1,0.1,0.3,0.2,0.5,0.2
		c0.2,0,0.4-0.1,0.6-0.2c0.2-0.2,0.2-0.4,0.2-0.6c0-0.2-0.1-0.4-0.2-0.6c-0.1-0.1-0.3-0.2-0.6-0.2c-0.1,0-0.2,0-0.3,0.1l0.1-0.4
		c0,0,0.1,0,0.1,0c0.2,0,0.4-0.1,0.6-0.2c0.2-0.1,0.3-0.3,0.3-0.5c0-0.2-0.1-0.3-0.2-0.4s-0.3-0.2-0.5-0.2s-0.3,0.1-0.5,0.2
		c-0.1,0.1-0.2,0.3-0.2,0.5l-0.5-0.1c0.1-0.3,0.2-0.6,0.4-0.8c0.2-0.2,0.5-0.3,0.8-0.3c0.2,0,0.4,0,0.6,0.1c0.2,0.1,0.3,0.2,0.4,0.4
		c0.1,0.2,0.1,0.3,0.1,0.5c0,0.2,0,0.3-0.1,0.5c-0.1,0.1-0.2,0.3-0.4,0.3c0.2,0.1,0.4,0.2,0.5,0.3c0.1,0.2,0.2,0.4,0.2,0.6
		c0,0.3-0.1,0.6-0.4,0.9c-0.3,0.2-0.6,0.4-1,0.4c-0.4,0-0.6-0.1-0.9-0.3C11.2,231.9,11.1,231.7,11,231.3L11,231.3z"/>
	<path d="M8.3,202.5v-0.4h2.2v0.4H8.3L8.3,202.5z M13.6,203.5v0.5H11c0-0.1,0-0.2,0.1-0.3c0.1-0.2,0.2-0.4,0.3-0.5
		c0.1-0.2,0.4-0.4,0.6-0.6c0.4-0.4,0.7-0.6,0.9-0.8c0.2-0.2,0.2-0.4,0.2-0.6c0-0.2-0.1-0.4-0.2-0.5c-0.1-0.1-0.3-0.2-0.5-0.2
		c-0.2,0-0.4,0.1-0.6,0.2s-0.2,0.3-0.2,0.6l-0.5-0.1c0-0.4,0.2-0.7,0.4-0.9c0.2-0.2,0.5-0.3,0.9-0.3c0.4,0,0.7,0.1,0.9,0.3
		c0.2,0.2,0.3,0.5,0.3,0.8c0,0.2,0,0.3-0.1,0.5c-0.1,0.2-0.2,0.3-0.3,0.5c-0.2,0.2-0.4,0.4-0.8,0.7c-0.3,0.2-0.5,0.4-0.6,0.5
		c-0.1,0.1-0.2,0.2-0.2,0.3H13.6L13.6,203.5z"/>
	<path d="M8.3,174.1v-0.4h2.2v0.4H8.3L8.3,174.1z M12.9,175.6h-0.5v-3.1c-0.1,0.1-0.3,0.2-0.5,0.3c-0.2,0.1-0.4,0.2-0.5,0.3v-0.5
		c0.3-0.1,0.5-0.3,0.7-0.5c0.2-0.2,0.4-0.4,0.4-0.5h0.3V175.6L12.9,175.6z"/>
	<path d="M12.9,118.8h-0.5v-3.1c-0.1,0.1-0.3,0.2-0.5,0.3c-0.2,0.1-0.4,0.2-0.5,0.3v-0.5c0.3-0.1,0.5-0.3,0.7-0.5
		c0.2-0.2,0.4-0.4,0.4-0.5h0.3V118.8L12.9,118.8z"/>
	<path d="M13.6,90.3v0.5H11c0-0.1,0-0.2,0.1-0.3c0.1-0.2,0.2-0.4,0.3-0.5c0.1-0.2,0.4-0.4,0.6-0.6c0.4-0.4,0.7-0.6,0.9-0.8
		c0.2-0.2,0.2-0.4,0.2-0.6c0-0.2-0.1-0.4-0.2-0.5c-0.1-0.1-0.3-0.2-0.5-0.2c-0.2,0-0.4,0.1-0.6,0.2s-0.2,0.3-0.2,0.6l-0.5-0.1
		c0-0.4,0.2-0.7,0.4-0.9c0.2-0.2,0.5-0.3,0.9-0.3c0.4,0,0.7,0.1,0.9,0.3s0.3,0.5,0.3,0.8c0,0.2,0,0.3-0.1,0.5
		c-0.1,0.2-0.2,0.3-0.3,0.5c-0.2,0.2-0.4,0.4-0.8,0.7c-0.3,0.2-0.5,0.4-0.6,0.5c-0.1,0.1-0.2,0.2-0.2,0.3H13.6L13.6,90.3z"/>
	<path d="M11,61.3l0.5-0.1c0.1,0.3,0.1,0.5,0.3,0.6c0.1,0.1,0.3,0.2,0.5,0.2c0.2,0,0.4-0.1,0.6-0.2c0.2-0.2,0.2-0.4,0.2-0.6
		c0-0.2-0.1-0.4-0.2-0.6c-0.1-0.1-0.3-0.2-0.6-0.2c-0.1,0-0.2,0-0.3,0.1l0.1-0.4c0,0,0.1,0,0.1,0c0.2,0,0.4-0.1,0.6-0.2
		c0.2-0.1,0.3-0.3,0.3-0.5c0-0.2-0.1-0.3-0.2-0.4c-0.1-0.1-0.3-0.2-0.5-0.2s-0.3,0.1-0.5,0.2c-0.1,0.1-0.2,0.3-0.2,0.5l-0.5-0.1
		c0.1-0.3,0.2-0.6,0.4-0.8c0.2-0.2,0.5-0.3,0.8-0.3c0.2,0,0.4,0,0.6,0.1c0.2,0.1,0.3,0.2,0.4,0.4c0.1,0.2,0.1,0.3,0.1,0.5
		c0,0.2,0,0.3-0.1,0.5c-0.1,0.1-0.2,0.3-0.4,0.3c0.2,0.1,0.4,0.2,0.5,0.3c0.1,0.2,0.2,0.4,0.2,0.6c0,0.3-0.1,0.6-0.4,0.9
		c-0.3,0.2-0.6,0.4-1,0.4c-0.4,0-0.6-0.1-0.9-0.3C11.2,61.9,11.1,61.7,11,61.3L11,61.3z"/>
	<path d="M12.6,34V33h-1.7v-0.4l1.8-2.6h0.4v2.6h0.5V33h-0.5V34H12.6L12.6,34z M12.6,32.6v-1.8l-1.2,1.8H12.6L12.6,32.6z"/>
	<path d="M11,4.6l0.5,0c0,0.3,0.1,0.4,0.3,0.6c0.1,0.1,0.3,0.2,0.5,0.2c0.2,0,0.4-0.1,0.6-0.3c0.2-0.2,0.2-0.4,0.2-0.7
		c0-0.3-0.1-0.5-0.2-0.7c-0.2-0.2-0.4-0.2-0.6-0.2c-0.2,0-0.3,0-0.4,0.1c-0.1,0.1-0.2,0.2-0.3,0.3l-0.5-0.1l0.4-2h2v0.5h-1.6
		l-0.2,1.1C11.9,3,12.2,3,12.4,3c0.3,0,0.6,0.1,0.9,0.4c0.2,0.2,0.4,0.5,0.4,0.9c0,0.4-0.1,0.7-0.3,0.9c-0.3,0.3-0.6,0.5-1,0.5
		c-0.4,0-0.7-0.1-0.9-0.3C11.2,5.2,11.1,4.9,11,4.6L11,4.6z"/>
	<path d="M11,149.6c0-0.5,0-0.8,0.1-1.1c0.1-0.3,0.2-0.5,0.4-0.7c0.2-0.2,0.4-0.2,0.7-0.2c0.2,0,0.4,0,0.6,0.1
		c0.2,0.1,0.3,0.2,0.4,0.4c0.1,0.2,0.2,0.4,0.2,0.6c0.1,0.2,0.1,0.5,0.1,0.9c0,0.5,0,0.8-0.1,1.1c-0.1,0.3-0.2,0.5-0.4,0.7
		c-0.2,0.2-0.4,0.2-0.7,0.2c-0.4,0-0.7-0.1-0.9-0.4C11.2,150.9,11,150.3,11,149.6L11,149.6z M11.5,149.6c0,0.7,0.1,1.1,0.2,1.3
		c0.2,0.2,0.3,0.3,0.6,0.3c0.2,0,0.4-0.1,0.6-0.3c0.2-0.2,0.2-0.7,0.2-1.3s-0.1-1.1-0.2-1.3s-0.3-0.3-0.6-0.3
		c-0.2,0-0.4,0.1-0.5,0.3C11.6,148.5,11.5,148.9,11.5,149.6L11.5,149.6z"/>
	<path class="st3" d="M30.7,148.2l0.1,0.3 M30.9,148.5l0.6,1.8l0.6,1.7 M32.1,152l0.6,1.6l0.6,1.5l1.2,2.8 M34.6,157.9l1.2,2.5
		l1.2,2.3l1.2,2.1l1.2,1.9 M39.5,166.7l1.2,1.7l1.2,1.6l1.2,1.5l1.2,1.3l1.2,1.2l1.2,1.1l1.2,1l1.2,0.9l1.2,0.9l1.2,0.8l1.2,0.7
		l1.2,0.7l1.2,0.6l1.2,0.5l1.2,0.5l1.2,0.4l1.2,0.4l1.2,0.3l1.2,0.3l1.2,0.3l1.2,0.2l1.2,0.2l1.2,0.1l1.2,0.1l1.2,0.1l1.2,0.1l1.2,0
		l1.2,0l1.2,0l1.2-0.1l1.2-0.1L79,184 M79,184l1.2-0.1l1.2-0.1l1.2-0.2l1.2-0.2l1.2-0.2l1.2-0.2l1.2-0.2l1.2-0.3l1.2-0.3l1.2-0.3
		l1.2-0.3l1.2-0.3L95,181l1.2-0.3l1.2-0.4l1.2-0.4l1.2-0.4l1.2-0.4l1.2-0.4l1.2-0.4l1.2-0.4l1.2-0.4l1.2-0.5l1.2-0.5l1.2-0.5
		l1.2-0.5l1.2-0.5l1.2-0.5l1.2-0.5l1.2-0.5l1.2-0.5l1.2-0.5l1.2-0.6l1.2-0.6l1.2-0.6l1.2-0.6l1.2-0.6l1.2-0.6l1.2-0.6l1.2-0.6
		l1.2-0.6l1.2-0.6l1.2-0.6l1.2-0.6l1.2-0.6l1.2-0.6l1.2-0.7l1.2-0.7l1.2-0.7l1.2-0.7l1.2-0.7l1.2-0.7l1.2-0.7l1.2-0.7l1.2-0.7
		l1.2-0.7l1.2-0.7l1.2-0.7l1.2-0.7l1.2-0.7l1.2-0.7l1.2-0.7l1.2-0.7l1.2-0.7 M158,151.4l1.2-0.7l1.2-0.7l1.2-0.7l1.2-0.8l1.2-0.8
		l1.2-0.8l1.2-0.8l1.2-0.8l1.2-0.8l1.2-0.8l1.2-0.8l1.2-0.8l1.2-0.8l1.2-0.8l1.2-0.8l1.2-0.8l1.2-0.8l1.2-0.8l1.2-0.8l1.2-0.8
		l1.2-0.8l1.2-0.8l1.2-0.8l1.2-0.8l1.2-0.8l1.2-0.8l1.2-0.8l1.2-0.8l1.2-0.8l1.2-0.8l1.2-0.8l1.2-0.8l1.2-0.8l1.2-0.9l1.2-0.9
		l1.2-0.9l1.2-0.9l1.2-0.9l1.2-0.9l1.2-0.9l1.2-0.9l1.2-0.9l1.2-0.9l1.2-0.9l1.2-0.9l1.2-0.9l1.2-0.9l1.2-0.9l1.2-0.9l1.2-0.9
		l1.2-0.9l1.2-0.9l1.2-0.9l1.2-0.9l1.2-0.9l1.2-0.9l1.2-0.9l1.2-0.9l1.2-0.9l1.2-0.9l1.2-0.9l1.2-0.9l1.2-0.9l1.2-0.9 M237,97.6
		l1.2-0.9l1.2-0.9l1.2-0.9l1.2-0.9l1.2-0.9l1.2-0.9l1.2-0.9l1.2-0.9l1.2-0.9l1.2-0.9l1.2-0.9l1.2-0.9l1.2-0.9l1.2-0.9l1.2-0.9
		l1.2-0.9l1.2-0.9l1.2-0.9l1.2-0.9l1.2-0.9l1.2-0.9l1.2-1l1.2-1l1.2-1l1.2-1l1.2-1l1.2-1l1.2-1l1.2-1l1.2-1l1.2-1l1.2-1 M276.5,67.4
		l1.2-1l1.2-1l1.2-1l1.2-1l1.2-1l1.2-1l1.2-1l1.2-1l1.2-1l1.2-1l1.2-1l1.2-1l1.2-1l1.2-1l1.2-1l1.2-1 M296.2,51.8l1.2-1l1.2-1
		 M298.7,49.9l1.2-1 M299.9,48.9l0.1-0.1"/>
	<path class="st4" d="M45.5,173.4c0,0.3-0.3,0.6-0.6,0.6s-0.6-0.3-0.6-0.6s0.3-0.6,0.6-0.6S45.5,173,45.5,173.4L45.5,173.4z"/>
	<path class="st5" d="M45.5,173.4c0,0.3-0.3,0.6-0.6,0.6s-0.6-0.3-0.6-0.6s0.3-0.6,0.6-0.6S45.5,173,45.5,173.4L45.5,173.4z"/>
	<path class="st4" d="M46.3,172.2l2-5.3h0.8l2.2,5.3h-0.8l-0.6-1.6h-2.2l-0.6,1.6H46.3L46.3,172.2z M47.8,170h1.8l-0.6-1.5
		c-0.2-0.4-0.3-0.8-0.4-1.1c-0.1,0.3-0.2,0.7-0.3,1L47.8,170L47.8,170z"/>
	<path class="st6" d="M285.8,70.5c0,0.1,0,0.1,0,0.1l0,0l0,0l0,0c-0.1,0.1-0.1,0.1-0.1,0.1s0,0,0-0.1c-0.2-0.1-0.3-0.2-0.3-0.3
		s0.1-0.3,0.3-0.6c0.2-0.3,0.4-0.5,0.7-0.7c0.3-0.2,0.5-0.3,0.7-0.3c0.4,0,0.7,0.2,0.8,0.5c0,0.1,0,0.1,0,0.1c0,0.3-0.1,0.7-0.4,1
		c-0.2,0.3-0.4,0.5-0.8,0.7c-0.3,0.2-0.7,0.3-1,0.3c-0.3,0-0.6-0.1-0.8-0.3c-0.2-0.2-0.3-0.4-0.3-0.7c0,0,0,0,0-0.1
		c0-0.6,0.3-1.3,0.8-2H285c-0.8,0-1.3-0.2-1.7-0.5c-0.1-0.2-0.1-0.4-0.1-0.7c0-0.2,0.1-0.4,0.3-0.7c0.2-0.3,0.4-0.5,0.8-0.7
		c0.4-0.2,0.8-0.3,1.2-0.3c0.1,0,0.1,0,0.1,0s0,0-0.1,0.1l0,0c-0.3,0-0.7,0.1-0.9,0.3c-0.3,0.2-0.5,0.3-0.7,0.5
		c-0.2,0.3-0.3,0.5-0.3,0.8c0,0.2,0,0.3,0.1,0.4c0.2,0.3,0.6,0.4,1.3,0.4c0.1,0,0.2,0,0.3,0c0.5-0.8,1.2-1.4,2-2
		c0.8-0.6,1.4-0.9,1.8-0.9c0.3,0,0.6,0.2,0.7,0.5l0,0c0,0.3-0.1,0.5-0.3,0.8c-0.3,0.5-1,1-1.8,1.3c-0.5,0.2-1.1,0.3-1.7,0.4
		c-0.7,1-1,1.7-1,2.2l0,0c0,0.3,0.1,0.5,0.2,0.6c0.1,0.1,0.3,0.2,0.6,0.2c0.2,0,0.4-0.1,0.7-0.3c0.3-0.2,0.5-0.4,0.7-0.7
		c0.3-0.4,0.4-0.7,0.4-0.9v-0.1c0-0.2-0.1-0.3-0.4-0.3c-0.2,0-0.3,0.1-0.5,0.2c-0.2,0.1-0.3,0.3-0.5,0.6c-0.2,0.2-0.3,0.3-0.3,0.4
		C285.7,70.4,285.7,70.5,285.8,70.5L285.8,70.5z M285.8,70.6L285.8,70.6L285.8,70.6L285.8,70.6L285.8,70.6L285.8,70.6z M289.1,65.6
		c-0.3,0-0.8,0.3-1.4,0.8c-0.4,0.4-1,1-1.6,1.7c0.5,0,1-0.1,1.4-0.3c0.8-0.3,1.3-0.7,1.7-1.2c0.2-0.3,0.3-0.5,0.3-0.8l0,0
		C289.5,65.6,289.3,65.6,289.1,65.6L289.1,65.6z"/>
	<path class="st6" d="M290.6,71.4L290.6,71.4l-0.3,1.9c-0.1,0.2-0.2,0.5-0.3,0.8c0,0.1,0,0.2-0.1,0.3c-0.1,0.3-0.3,0.5-0.5,0.5
		c0,0,0,0-0.1,0c-0.2,0-0.3-0.1-0.5-0.2c-0.1-0.1-0.1-0.1-0.1-0.2c0-0.2,0.1-0.3,0.3-0.4c0,0,0,0,0.1,0c0.1,0,0.2,0,0.2,0.1
		c0,0.1,0,0.1,0,0.1c0,0.1-0.1,0.2-0.2,0.3c0,0,0,0-0.1,0.1c0.1,0.1,0.2,0.1,0.3,0.1c0.2,0,0.3-0.2,0.4-0.6c0.1-0.1,0.1-0.2,0.1-0.3
		v-0.2l0.5-2.4h-0.4c-0.1,0-0.2,0-0.2,0l0,0l0,0c0-0.1,0-0.1,0.1-0.2l0,0h0.1h0.5c0.1-0.5,0.1-0.8,0.2-0.9c0.1-0.4,0.3-0.6,0.5-0.6
		c0.1,0,0.1,0,0.2,0c0.2,0,0.3,0.1,0.5,0.2l0,0c0,0.1,0,0.1,0,0.2c0,0.2-0.1,0.3-0.2,0.4c0,0,0,0-0.1,0c-0.1,0-0.2,0-0.2-0.1
		c-0.1-0.1-0.1-0.1-0.1-0.1c0-0.1,0.1-0.2,0.2-0.3c0.1,0,0.1,0,0.2-0.1c-0.1-0.1-0.2-0.1-0.3-0.1c-0.1,0-0.2,0.1-0.3,0.2
		c-0.1,0.1-0.1,0.3-0.2,0.6l-0.1,0.6h0.5c0.1,0,0.2,0,0.2,0.1c0,0.1,0,0.1-0.1,0.1l0,0h-0.1H290.6L290.6,71.4z"/>
</g>
</svg>
