<?xml version="1.0" encoding="utf-8"?>
<!-- Generator: Adobe Illustrator 22.1.0, SVG Export Plug-In . SVG Version: 6.00 Build 0)  -->
<svg version="1.1" id="Calque_1" xmlns="http://www.w3.org/2000/svg" xmlns:xlink="http://www.w3.org/1999/xlink" x="0px" y="0px"
	 viewBox="0 0 488.3 376.3" style="enable-background:new 0 0 488.3 376.3;" xml:space="preserve">
<style type="text/css">
	.st0{clip-path:url(#SVGID_2_);fill:#FFFFFF;}
	.st1{clip-path:url(#SVGID_2_);fill:none;stroke:#C0C0C0;stroke-linecap:round;stroke-linejoin:round;stroke-miterlimit:10;}
	.st2{clip-path:url(#SVGID_2_);fill:none;stroke:#F0F0F0;stroke-linecap:round;stroke-linejoin:round;stroke-miterlimit:10;}
	.st3{clip-path:url(#SVGID_2_);fill:none;stroke:#000000;stroke-miterlimit:10;}
	
		.st4{clip-path:url(#SVGID_4_);fill:none;stroke:#FF4D4D;stroke-width:2;stroke-linecap:round;stroke-linejoin:round;stroke-miterlimit:10;}
	
		.st5{clip-path:url(#SVGID_4_);fill:none;stroke:#4D4DFF;stroke-width:1.5;stroke-linecap:round;stroke-linejoin:round;stroke-miterlimit:10;}
	.st6{fill:none;stroke:#FF0000;stroke-width:1.5;stroke-linecap:square;stroke-miterlimit:10;}
	.st7{fill:#FF0000;}
	.st8{fill:none;stroke:#0000FF;stroke-width:1.5;stroke-linecap:square;stroke-miterlimit:10;}
	.st9{fill:#0000FF;}
	.st10{fill:#006633;}
	.st11{fill:none;stroke:#4D9471;stroke-width:1.5;stroke-linecap:round;stroke-linejoin:round;stroke-miterlimit:10;}
</style>
<g>
	<g>
		<defs>
			<rect id="SVGID_1_" x="3" y="2.8" width="482.3" height="370"/>
		</defs>
		<clipPath id="SVGID_2_">
			<use xlink:href="#SVGID_1_"  style="overflow:visible;"/>
		</clipPath>
		<polygon class="st0" points="3,2.8 485.3,2.8 485.3,373.5 3,373.5 3,2.8 		"/>
		<path class="st1" d="M113.6,2.8v370.8 M198.6,2.8v370.8 M283.6,2.8v370.8 M368.7,2.8v370.8 M453.7,2.8v370.8"/>
		<path class="st2" d="M11.5,2.8v370.8 M45.5,2.8v370.8 M62.5,2.8v370.8 M79.6,2.8v370.8 M96.6,2.8v370.8 M130.6,2.8v370.8
			 M147.6,2.8v370.8 M164.6,2.8v370.8 M181.6,2.8v370.8 M215.6,2.8v370.8 M232.6,2.8v370.8 M249.6,2.8v370.8 M266.6,2.8v370.8
			 M300.7,2.8v370.8 M317.7,2.8v370.8 M334.7,2.8v370.8 M351.7,2.8v370.8 M385.7,2.8v370.8 M402.7,2.8v370.8 M419.7,2.8v370.8
			 M436.7,2.8v370.8 M470.7,2.8v370.8"/>
		<path class="st1" d="M3,22.3h482.3 M3,22.3h482.3 M3,87.4h482.3 M3,152.6h482.3 M3,217.7h482.3 M3,282.8h482.3"/>
		<path class="st2" d="M3,9.3h482.3 M3,9.3h482.3 M3,35.3h482.3 M3,48.4h482.3 M3,61.4h482.3 M3,74.4h482.3 M3,100.5h482.3 M3,113.5
			h482.3 M3,126.5h482.3 M3,139.5h482.3 M3,165.6h482.3 M3,178.6h482.3 M3,191.6h482.3 M3,204.7h482.3 M3,230.7h482.3 M3,243.7
			h482.3 M3,256.8h482.3 M3,269.8h482.3 M3,295.8h482.3 M3,308.9h482.3 M3,321.9h482.3 M3,334.9h482.3 M3,361h482.3"/>
		<path class="st3" d="M28.5,3.6v370 M28.5,3.2L25.7,6 M28.5,3.2L31.4,6 M3,348h481.4 M484.9,348l-2.8-2.8 M484.9,348l-2.8,2.8"/>
	</g>
	<path d="M114.8,357.8h-0.7V353c-0.2,0.2-0.4,0.3-0.7,0.5c-0.3,0.2-0.6,0.3-0.8,0.4v-0.7c0.4-0.2,0.8-0.4,1.1-0.7s0.5-0.6,0.7-0.8
		h0.5V357.8L114.8,357.8z"/>
	<path d="M201.2,357.1v0.7h-4c0-0.2,0-0.4,0.1-0.5c0.1-0.3,0.3-0.5,0.5-0.8c0.2-0.3,0.6-0.6,1-0.9c0.7-0.5,1.1-1,1.3-1.3
		c0.2-0.3,0.3-0.6,0.3-0.9c0-0.3-0.1-0.5-0.3-0.7s-0.5-0.3-0.8-0.3c-0.4,0-0.7,0.1-0.9,0.3c-0.2,0.2-0.3,0.5-0.3,0.9l-0.8-0.1
		c0.1-0.6,0.2-1,0.6-1.3c0.3-0.3,0.8-0.4,1.4-0.4c0.6,0,1,0.2,1.4,0.5c0.3,0.3,0.5,0.7,0.5,1.2c0,0.2,0,0.5-0.1,0.7
		c-0.1,0.2-0.3,0.5-0.5,0.7c-0.2,0.3-0.6,0.6-1.1,1.1c-0.4,0.4-0.7,0.6-0.9,0.8c-0.1,0.1-0.2,0.3-0.3,0.4H201.2L201.2,357.1z"/>
	<path d="M282.1,356.2l0.8-0.1c0.1,0.4,0.2,0.7,0.4,0.9c0.2,0.2,0.5,0.3,0.8,0.3c0.3,0,0.6-0.1,0.9-0.4c0.2-0.2,0.4-0.5,0.4-0.9
		c0-0.3-0.1-0.6-0.3-0.8c-0.2-0.2-0.5-0.3-0.9-0.3c-0.1,0-0.3,0-0.5,0.1l0.1-0.7c0,0,0.1,0,0.1,0c0.3,0,0.6-0.1,0.9-0.2
		c0.3-0.2,0.4-0.4,0.4-0.8c0-0.3-0.1-0.5-0.3-0.7c-0.2-0.2-0.4-0.3-0.7-0.3c-0.3,0-0.5,0.1-0.7,0.3c-0.2,0.2-0.3,0.5-0.4,0.8
		l-0.7-0.1c0.1-0.5,0.3-0.9,0.6-1.2c0.3-0.3,0.7-0.4,1.2-0.4c0.3,0,0.6,0.1,0.9,0.2c0.3,0.1,0.5,0.3,0.6,0.6
		c0.1,0.2,0.2,0.5,0.2,0.8c0,0.3-0.1,0.5-0.2,0.7c-0.1,0.2-0.3,0.4-0.6,0.5c0.4,0.1,0.6,0.3,0.8,0.5c0.2,0.3,0.3,0.6,0.3,1
		c0,0.5-0.2,1-0.6,1.3c-0.4,0.4-0.9,0.6-1.5,0.6c-0.5,0-1-0.2-1.3-0.5C282.3,357.1,282.1,356.7,282.1,356.2L282.1,356.2z"/>
	<path d="M369.7,357.8v-1.5H367v-0.7l2.8-3.9h0.6v3.9h0.8v0.7h-0.8v1.5H369.7L369.7,357.8z M369.7,355.7v-2.7l-1.9,2.7H369.7
		L369.7,355.7z"/>
	<path d="M452.1,356.2l0.8-0.1c0.1,0.4,0.2,0.7,0.4,0.9c0.2,0.2,0.5,0.3,0.8,0.3c0.4,0,0.7-0.1,0.9-0.4c0.2-0.3,0.4-0.6,0.4-1.1
		c0-0.4-0.1-0.8-0.4-1c-0.2-0.2-0.6-0.4-0.9-0.4c-0.2,0-0.5,0.1-0.7,0.2c-0.2,0.1-0.3,0.3-0.5,0.4l-0.7-0.1l0.6-3.1h3v0.7h-2.4
		l-0.3,1.6c0.4-0.3,0.7-0.4,1.1-0.4c0.5,0,1,0.2,1.3,0.6c0.4,0.4,0.5,0.8,0.5,1.4c0,0.5-0.2,1-0.5,1.4c-0.4,0.5-0.9,0.7-1.6,0.7
		c-0.6,0-1-0.2-1.4-0.5C452.4,357.1,452.2,356.7,452.1,356.2L452.1,356.2z"/>
	<path d="M13.9,286.3h-0.7v-4.8c-0.2,0.2-0.4,0.3-0.7,0.5c-0.3,0.2-0.6,0.3-0.8,0.4v-0.7c0.4-0.2,0.8-0.4,1.1-0.7
		c0.3-0.3,0.5-0.6,0.7-0.8h0.5V286.3L13.9,286.3z M15.8,283.3c0-0.7,0.1-1.3,0.2-1.7c0.1-0.4,0.4-0.8,0.7-1c0.3-0.2,0.7-0.4,1.1-0.4
		c0.3,0,0.6,0.1,0.9,0.2s0.4,0.3,0.6,0.6c0.2,0.2,0.3,0.5,0.4,0.9c0.1,0.4,0.1,0.8,0.1,1.4c0,0.7-0.1,1.3-0.2,1.7
		c-0.1,0.4-0.4,0.8-0.7,1c-0.3,0.2-0.7,0.4-1.1,0.4c-0.6,0-1-0.2-1.4-0.6C16,285.3,15.8,284.5,15.8,283.3L15.8,283.3z M16.5,283.3
		c0,1,0.1,1.7,0.4,2c0.2,0.3,0.5,0.5,0.9,0.5c0.3,0,0.6-0.2,0.9-0.5c0.2-0.3,0.4-1,0.4-2c0-1-0.1-1.7-0.4-2
		c-0.2-0.3-0.5-0.5-0.9-0.5c-0.3,0-0.6,0.1-0.8,0.4C16.7,281.6,16.5,282.3,16.5,283.3L16.5,283.3z M20.5,283.3
		c0-0.7,0.1-1.3,0.2-1.7c0.1-0.4,0.4-0.8,0.7-1c0.3-0.2,0.7-0.4,1.1-0.4c0.3,0,0.6,0.1,0.9,0.2s0.4,0.3,0.6,0.6
		c0.2,0.2,0.3,0.5,0.4,0.9c0.1,0.4,0.1,0.8,0.1,1.4c0,0.7-0.1,1.3-0.2,1.7c-0.1,0.4-0.4,0.8-0.7,1c-0.3,0.2-0.7,0.4-1.1,0.4
		c-0.6,0-1-0.2-1.4-0.6C20.7,285.3,20.5,284.5,20.5,283.3L20.5,283.3z M21.2,283.3c0,1,0.1,1.7,0.4,2c0.2,0.3,0.5,0.5,0.9,0.5
		c0.3,0,0.6-0.2,0.9-0.5c0.2-0.3,0.4-1,0.4-2c0-1-0.1-1.7-0.4-2c-0.2-0.3-0.5-0.5-0.9-0.5c-0.3,0-0.6,0.1-0.8,0.4
		C21.4,281.6,21.2,282.3,21.2,283.3L21.2,283.3z"/>
	<path d="M15,220.6v0.7h-4c0-0.2,0-0.4,0.1-0.5c0.1-0.3,0.3-0.5,0.5-0.8c0.2-0.3,0.6-0.6,1-0.9c0.7-0.5,1.1-1,1.3-1.3
		c0.2-0.3,0.3-0.6,0.3-0.9c0-0.3-0.1-0.5-0.3-0.7c-0.2-0.2-0.5-0.3-0.8-0.3c-0.4,0-0.7,0.1-0.9,0.3s-0.3,0.5-0.3,0.9l-0.8-0.1
		c0.1-0.6,0.2-1,0.6-1.3c0.3-0.3,0.8-0.4,1.4-0.4c0.6,0,1,0.2,1.4,0.5c0.3,0.3,0.5,0.7,0.5,1.2c0,0.2,0,0.5-0.1,0.7
		s-0.3,0.5-0.5,0.7c-0.2,0.3-0.6,0.6-1.1,1.1c-0.4,0.4-0.7,0.6-0.9,0.8c-0.1,0.1-0.2,0.3-0.3,0.4H15L15,220.6z M15.8,218.3
		c0-0.7,0.1-1.3,0.2-1.7c0.1-0.4,0.4-0.8,0.7-1c0.3-0.2,0.7-0.4,1.1-0.4c0.3,0,0.6,0.1,0.9,0.2c0.2,0.1,0.4,0.3,0.6,0.6
		c0.2,0.2,0.3,0.5,0.4,0.9s0.1,0.8,0.1,1.4c0,0.7-0.1,1.3-0.2,1.7s-0.4,0.8-0.7,1c-0.3,0.2-0.7,0.4-1.1,0.4c-0.6,0-1-0.2-1.4-0.6
		C16,220.3,15.8,219.4,15.8,218.3L15.8,218.3z M16.5,218.3c0,1,0.1,1.7,0.4,2c0.2,0.3,0.5,0.5,0.9,0.5c0.3,0,0.6-0.2,0.9-0.5
		c0.2-0.3,0.4-1,0.4-2c0-1-0.1-1.7-0.4-2c-0.2-0.3-0.5-0.5-0.9-0.5c-0.3,0-0.6,0.1-0.8,0.4C16.7,216.6,16.5,217.3,16.5,218.3
		L16.5,218.3z M20.5,218.3c0-0.7,0.1-1.3,0.2-1.7s0.4-0.8,0.7-1c0.3-0.2,0.7-0.4,1.1-0.4c0.3,0,0.6,0.1,0.9,0.2
		c0.2,0.1,0.4,0.3,0.6,0.6c0.2,0.2,0.3,0.5,0.4,0.9s0.1,0.8,0.1,1.4c0,0.7-0.1,1.3-0.2,1.7c-0.1,0.4-0.4,0.8-0.7,1
		c-0.3,0.2-0.7,0.4-1.1,0.4c-0.6,0-1-0.2-1.4-0.6C20.7,220.3,20.5,219.4,20.5,218.3L20.5,218.3z M21.2,218.3c0,1,0.1,1.7,0.4,2
		c0.2,0.3,0.5,0.5,0.9,0.5c0.3,0,0.6-0.2,0.9-0.5c0.2-0.3,0.4-1,0.4-2c0-1-0.1-1.7-0.4-2c-0.2-0.3-0.5-0.5-0.9-0.5
		c-0.3,0-0.6,0.1-0.8,0.4C21.4,216.6,21.2,217.3,21.2,218.3L21.2,218.3z"/>
	<path d="M11,154.2l0.8-0.1c0.1,0.4,0.2,0.7,0.4,0.9s0.5,0.3,0.8,0.3c0.3,0,0.6-0.1,0.9-0.4c0.2-0.2,0.4-0.5,0.4-0.9
		c0-0.3-0.1-0.6-0.3-0.8c-0.2-0.2-0.5-0.3-0.9-0.3c-0.1,0-0.3,0-0.5,0.1l0.1-0.7c0,0,0.1,0,0.1,0c0.3,0,0.6-0.1,0.9-0.2
		c0.3-0.2,0.4-0.4,0.4-0.8c0-0.3-0.1-0.5-0.3-0.7c-0.2-0.2-0.4-0.3-0.7-0.3c-0.3,0-0.5,0.1-0.7,0.3c-0.2,0.2-0.3,0.5-0.4,0.8
		l-0.7-0.1c0.1-0.5,0.3-0.9,0.6-1.2c0.3-0.3,0.7-0.4,1.2-0.4c0.3,0,0.6,0.1,0.9,0.2c0.3,0.1,0.5,0.3,0.6,0.6
		c0.1,0.2,0.2,0.5,0.2,0.8c0,0.3-0.1,0.5-0.2,0.7c-0.1,0.2-0.3,0.4-0.6,0.5c0.4,0.1,0.6,0.3,0.8,0.5s0.3,0.6,0.3,1
		c0,0.5-0.2,1-0.6,1.3c-0.4,0.4-0.9,0.6-1.5,0.6c-0.5,0-1-0.2-1.3-0.5S11.1,154.7,11,154.2L11,154.2z M15.8,152.9
		c0-0.7,0.1-1.3,0.2-1.7c0.1-0.4,0.4-0.8,0.7-1s0.7-0.4,1.1-0.4c0.3,0,0.6,0.1,0.9,0.2c0.2,0.1,0.4,0.3,0.6,0.6
		c0.2,0.2,0.3,0.5,0.4,0.9c0.1,0.4,0.1,0.8,0.1,1.4c0,0.7-0.1,1.3-0.2,1.7c-0.1,0.4-0.4,0.8-0.7,1c-0.3,0.2-0.7,0.4-1.1,0.4
		c-0.6,0-1-0.2-1.4-0.6C16,154.8,15.8,154,15.8,152.9L15.8,152.9z M16.5,152.9c0,1,0.1,1.7,0.4,2c0.2,0.3,0.5,0.5,0.9,0.5
		c0.3,0,0.6-0.2,0.9-0.5c0.2-0.3,0.4-1,0.4-2c0-1-0.1-1.7-0.4-2c-0.2-0.3-0.5-0.5-0.9-0.5c-0.3,0-0.6,0.1-0.8,0.4
		C16.7,151.2,16.5,151.9,16.5,152.9L16.5,152.9z M20.5,152.9c0-0.7,0.1-1.3,0.2-1.7c0.1-0.4,0.4-0.8,0.7-1c0.3-0.2,0.7-0.4,1.1-0.4
		c0.3,0,0.6,0.1,0.9,0.2c0.2,0.1,0.4,0.3,0.6,0.6c0.2,0.2,0.3,0.5,0.4,0.9c0.1,0.4,0.1,0.8,0.1,1.4c0,0.7-0.1,1.3-0.2,1.7
		c-0.1,0.4-0.4,0.8-0.7,1c-0.3,0.2-0.7,0.4-1.1,0.4c-0.6,0-1-0.2-1.4-0.6C20.7,154.8,20.5,154,20.5,152.9L20.5,152.9z M21.2,152.9
		c0,1,0.1,1.7,0.4,2c0.2,0.3,0.5,0.5,0.9,0.5c0.3,0,0.6-0.2,0.9-0.5c0.2-0.3,0.4-1,0.4-2c0-1-0.1-1.7-0.4-2
		c-0.2-0.3-0.5-0.5-0.9-0.5c-0.3,0-0.6,0.1-0.8,0.4C21.4,151.2,21.2,151.9,21.2,152.9L21.2,152.9z"/>
	<path d="M13.4,90.8v-1.5h-2.6v-0.7l2.8-3.9h0.6v3.9H15v0.7h-0.8v1.5H13.4L13.4,90.8z M13.4,88.7v-2.7l-1.9,2.7H13.4L13.4,88.7z
		 M15.8,87.8c0-0.7,0.1-1.3,0.2-1.7c0.1-0.4,0.4-0.8,0.7-1c0.3-0.2,0.7-0.4,1.1-0.4c0.3,0,0.6,0.1,0.9,0.2c0.2,0.1,0.4,0.3,0.6,0.6
		c0.2,0.2,0.3,0.5,0.4,0.9s0.1,0.8,0.1,1.4c0,0.7-0.1,1.3-0.2,1.7s-0.4,0.8-0.7,1c-0.3,0.2-0.7,0.4-1.1,0.4c-0.6,0-1-0.2-1.4-0.6
		C16,89.8,15.8,89,15.8,87.8L15.8,87.8z M16.5,87.8c0,1,0.1,1.7,0.4,2c0.2,0.3,0.5,0.5,0.9,0.5c0.3,0,0.6-0.2,0.9-0.5
		c0.2-0.3,0.4-1,0.4-2c0-1-0.1-1.7-0.4-2c-0.2-0.3-0.5-0.5-0.9-0.5c-0.3,0-0.6,0.1-0.8,0.4C16.7,86.1,16.5,86.8,16.5,87.8L16.5,87.8
		z M20.5,87.8c0-0.7,0.1-1.3,0.2-1.7c0.1-0.4,0.4-0.8,0.7-1c0.3-0.2,0.7-0.4,1.1-0.4c0.3,0,0.6,0.1,0.9,0.2c0.2,0.1,0.4,0.3,0.6,0.6
		s0.3,0.5,0.4,0.9s0.1,0.8,0.1,1.4c0,0.7-0.1,1.3-0.2,1.7c-0.1,0.4-0.4,0.8-0.7,1s-0.7,0.4-1.1,0.4c-0.6,0-1-0.2-1.4-0.6
		C20.7,89.8,20.5,89,20.5,87.8L20.5,87.8z M21.2,87.8c0,1,0.1,1.7,0.4,2c0.2,0.3,0.5,0.5,0.9,0.5c0.3,0,0.6-0.2,0.9-0.5
		c0.2-0.3,0.4-1,0.4-2c0-1-0.1-1.7-0.4-2c-0.2-0.3-0.5-0.5-0.9-0.5c-0.3,0-0.6,0.1-0.8,0.4C21.4,86.1,21.2,86.8,21.2,87.8L21.2,87.8
		z"/>
	<path d="M11,24.2l0.8-0.1c0.1,0.4,0.2,0.7,0.4,0.9s0.5,0.3,0.8,0.3c0.4,0,0.7-0.1,0.9-0.4s0.4-0.6,0.4-1.1c0-0.4-0.1-0.8-0.4-1
		c-0.2-0.2-0.6-0.4-0.9-0.4c-0.2,0-0.5,0.1-0.7,0.2c-0.2,0.1-0.3,0.3-0.5,0.4l-0.7-0.1l0.6-3.1h3v0.7h-2.4L12,22.1
		c0.4-0.3,0.7-0.4,1.1-0.4c0.5,0,1,0.2,1.3,0.6c0.4,0.4,0.5,0.8,0.5,1.4c0,0.5-0.2,1-0.5,1.4c-0.4,0.5-0.9,0.7-1.6,0.7
		c-0.6,0-1-0.2-1.4-0.5C11.3,25.1,11.1,24.7,11,24.2L11,24.2z M15.8,22.8c0-0.7,0.1-1.3,0.2-1.7c0.1-0.4,0.4-0.8,0.7-1
		s0.7-0.4,1.1-0.4c0.3,0,0.6,0.1,0.9,0.2c0.2,0.1,0.4,0.3,0.6,0.6c0.2,0.2,0.3,0.5,0.4,0.9c0.1,0.4,0.1,0.8,0.1,1.4
		c0,0.7-0.1,1.3-0.2,1.7c-0.1,0.4-0.4,0.8-0.7,1c-0.3,0.2-0.7,0.4-1.1,0.4c-0.6,0-1-0.2-1.4-0.6C16,24.8,15.8,23.9,15.8,22.8
		L15.8,22.8z M16.5,22.8c0,1,0.1,1.7,0.4,2c0.2,0.3,0.5,0.5,0.9,0.5c0.3,0,0.6-0.2,0.9-0.5c0.2-0.3,0.4-1,0.4-2c0-1-0.1-1.7-0.4-2
		c-0.2-0.3-0.5-0.5-0.9-0.5c-0.3,0-0.6,0.1-0.8,0.4C16.7,21.1,16.5,21.8,16.5,22.8L16.5,22.8z M20.5,22.8c0-0.7,0.1-1.3,0.2-1.7
		s0.4-0.8,0.7-1c0.3-0.2,0.7-0.4,1.1-0.4c0.3,0,0.6,0.1,0.9,0.2c0.2,0.1,0.4,0.3,0.6,0.6s0.3,0.5,0.4,0.9c0.1,0.4,0.1,0.8,0.1,1.4
		c0,0.7-0.1,1.3-0.2,1.7c-0.1,0.4-0.4,0.8-0.7,1c-0.3,0.2-0.7,0.4-1.1,0.4c-0.6,0-1-0.2-1.4-0.6C20.7,24.8,20.5,23.9,20.5,22.8
		L20.5,22.8z M21.2,22.8c0,1,0.1,1.7,0.4,2c0.2,0.3,0.5,0.5,0.9,0.5c0.3,0,0.6-0.2,0.9-0.5c0.2-0.3,0.4-1,0.4-2c0-1-0.1-1.7-0.4-2
		c-0.2-0.3-0.5-0.5-0.9-0.5c-0.3,0-0.6,0.1-0.8,0.4C21.4,21.1,21.2,21.8,21.2,22.8L21.2,22.8z"/>
	<path d="M20.3,354.8c0-0.7,0.1-1.3,0.2-1.7c0.1-0.4,0.4-0.8,0.7-1c0.3-0.2,0.7-0.4,1.1-0.4c0.3,0,0.6,0.1,0.9,0.2s0.4,0.3,0.6,0.6
		c0.2,0.2,0.3,0.5,0.4,0.9c0.1,0.4,0.1,0.8,0.1,1.4c0,0.7-0.1,1.3-0.2,1.7c-0.1,0.4-0.4,0.8-0.7,1c-0.3,0.2-0.7,0.4-1.1,0.4
		c-0.6,0-1-0.2-1.4-0.6C20.5,356.8,20.3,355.9,20.3,354.8L20.3,354.8z M21.1,354.8c0,1,0.1,1.7,0.4,2s0.5,0.5,0.9,0.5
		c0.3,0,0.6-0.2,0.9-0.5c0.2-0.3,0.4-1,0.4-2c0-1-0.1-1.7-0.4-2c-0.2-0.3-0.5-0.5-0.9-0.5c-0.3,0-0.6,0.1-0.8,0.4
		C21.2,353.1,21.1,353.8,21.1,354.8L21.1,354.8z"/>
	<g>
		<defs>
			<rect id="SVGID_3_" x="3" y="2.8" width="482.3" height="370"/>
		</defs>
		<clipPath id="SVGID_4_">
			<use xlink:href="#SVGID_3_"  style="overflow:visible;"/>
		</clipPath>
		<line class="st4" x1="1" y1="280.6" x2="487.3" y2="106.8"/>
		<line class="st5" x1="197.5" y1="375.6" x2="469.4" y2="0.8"/>
	</g>
	<path class="st6" d="M169.1,218.9l2.4,2.4 M169.1,221.3l2.4-2.4"/>
	<path class="st7" d="M160.2,217.2v-8.1h3c0.6,0,1.1,0.1,1.5,0.2c0.4,0.2,0.7,0.4,0.9,0.8c0.2,0.3,0.3,0.7,0.3,1.1
		c0,0.3-0.1,0.7-0.3,1c-0.2,0.3-0.5,0.6-0.9,0.7c0.5,0.1,0.9,0.4,1.1,0.7c0.3,0.3,0.4,0.8,0.4,1.2c0,0.4-0.1,0.7-0.2,1.1
		c-0.2,0.3-0.4,0.6-0.6,0.8c-0.2,0.2-0.5,0.3-0.9,0.4s-0.8,0.1-1.3,0.1H160.2L160.2,217.2z M161.2,212.5h1.7c0.5,0,0.8,0,1-0.1
		c0.3-0.1,0.5-0.2,0.6-0.4c0.1-0.2,0.2-0.4,0.2-0.7c0-0.3-0.1-0.5-0.2-0.7c-0.1-0.2-0.3-0.3-0.6-0.4s-0.6-0.1-1.2-0.1h-1.6V212.5
		L161.2,212.5z M161.2,216.3h2c0.3,0,0.6,0,0.7,0c0.2,0,0.5-0.1,0.6-0.2c0.2-0.1,0.3-0.3,0.4-0.5s0.2-0.4,0.2-0.7
		c0-0.3-0.1-0.6-0.2-0.8c-0.2-0.2-0.4-0.4-0.6-0.5c-0.3-0.1-0.7-0.1-1.2-0.1h-1.9V216.3L161.2,216.3z"/>
	<path class="st8" d="M452.5,21.1l2.4,2.4 M452.5,23.5l2.4-2.4"/>
	<path class="st9" d="M440.8,20.5l3.1-8.1h1.2l3.3,8.1h-1.2l-0.9-2.5h-3.4l-0.9,2.5H440.8L440.8,20.5z M443.2,17.2h2.7l-0.8-2.2
		c-0.3-0.7-0.5-1.2-0.6-1.7c-0.1,0.5-0.3,1-0.4,1.5L443.2,17.2L443.2,17.2z"/>
	<path class="st10" d="M38.7,299.8c0,0.2,0,0.3,0,0.3l0,0l0,0l0,0c-0.2,0.2-0.3,0.3-0.3,0.3s0-0.1,0-0.3c-0.4-0.2-0.5-0.4-0.5-0.7
		s0.2-0.7,0.5-1.2c0.4-0.5,0.8-1,1.3-1.3c0.5-0.4,1-0.5,1.3-0.5c0.9,0,1.4,0.4,1.6,1.1c0,0.2,0,0.3,0,0.3c0,0.7-0.3,1.4-0.8,2.1
		c-0.4,0.5-0.9,1-1.6,1.3c-0.7,0.4-1.4,0.5-2.1,0.5c-0.7,0-1.3-0.2-1.7-0.5c-0.4-0.4-0.7-0.8-0.7-1.3c0,0,0-0.1,0-0.3
		c0-1.2,0.5-2.6,1.6-4h-0.3c-1.6,0-2.7-0.4-3.4-1.1c-0.2-0.4-0.3-0.8-0.3-1.3c0-0.4,0.2-0.8,0.5-1.3c0.4-0.5,0.9-1,1.6-1.3
		c0.9-0.4,1.7-0.5,2.4-0.5c0.2,0,0.3,0,0.3,0s-0.1,0.1-0.3,0.3l0,0c-0.7,0-1.3,0.2-1.9,0.5c-0.5,0.4-1,0.7-1.3,1.1
		c-0.4,0.5-0.5,1.1-0.5,1.6c0,0.4,0.1,0.6,0.3,0.8c0.4,0.5,1.2,0.8,2.7,0.8c0.2,0,0.4,0,0.5,0c1.1-1.6,2.4-2.9,4-4
		c1.6-1.2,2.8-1.9,3.7-1.9c0.7,0,1.1,0.4,1.3,1.1l0,0c0,0.5-0.2,1.1-0.5,1.6c-0.7,1.1-1.9,1.9-3.7,2.7c-1.1,0.4-2.2,0.6-3.4,0.8
		c-1.4,1.9-2.1,3.4-2.1,4.5l0,0c0,0.5,0.1,0.9,0.4,1.2c0.3,0.3,0.7,0.4,1.2,0.4c0.4,0,0.8-0.2,1.3-0.5c0.5-0.4,1-0.8,1.3-1.3
		c0.5-0.9,0.8-1.5,0.8-1.9v-0.3c0-0.4-0.3-0.5-0.8-0.5c-0.4,0-0.7,0.1-1.1,0.4c-0.4,0.3-0.7,0.7-1.1,1.2c-0.4,0.4-0.5,0.6-0.5,0.8
		C38.5,299.6,38.6,299.8,38.7,299.8L38.7,299.8z M38.7,300.1L38.7,300.1L38.7,300.1L38.7,300.1L38.7,300.1L38.7,300.1z M45.4,289.8
		c-0.7,0-1.7,0.5-2.9,1.6c-0.9,0.9-1.9,2-3.2,3.4c1.1,0,2-0.2,2.9-0.5c1.6-0.7,2.7-1.5,3.4-2.4c0.4-0.5,0.5-1.1,0.5-1.6l0,0
		C46.2,289.9,45.9,289.8,45.4,289.8L45.4,289.8z"/>
	<path class="st11" d="M28.5,282.8l0.9-0.5 M29.4,282.3l1.9-1.1l1.9-1.1 M33.2,280l1.9-1.1l1.9-1.1l1.9-1.1l1.9-1.1l1.9-1.1l1.9-1.1
		l1.9-1l1.9-1l1.9-1l1.9-1l1.9-1l1.9-1l1.9-1l1.9-1l1.9-1l1.9-1 M63.3,263.5l1.9-0.9l1.9-0.9l1.9-0.9l1.9-0.9l1.9-0.9l1.9-0.9
		l1.9-0.9l1.9-0.9l1.9-0.9l1.9-0.9l1.9-0.9l1.9-0.8l1.9-0.8l1.9-0.8l1.9-0.8l1.9-0.8l1.9-0.8l1.9-0.8l1.9-0.8l1.9-0.8l1.9-0.8
		l1.9-0.8l1.9-0.8l1.9-0.8l1.9-0.8l1.9-0.8l1.9-0.8l1.9-0.7l1.9-0.7l1.9-0.7l1.9-0.7l1.9-0.7 M123.6,237.2l1.9-0.7l1.9-0.7l1.9-0.7
		l1.9-0.7l1.9-0.7l1.9-0.7l1.9-0.7l1.9-0.7l1.9-0.7l1.9-0.7l1.9-0.7l1.9-0.7l1.9-0.7l1.9-0.7l1.9-0.7l1.9-0.7l1.9-0.7l1.9-0.7
		l1.9-0.7l1.9-0.7l1.9-0.7l1.9-0.7l1.9-0.7l1.9-0.7l1.9-0.7l1.9-0.7l1.9-0.7l1.9-0.7l1.9-0.7l1.9-0.7l1.9-0.7l1.9-0.7l1.9-0.7
		l1.9-0.7l1.9-0.7l1.9-0.7l1.9-0.7l1.9-0.7l1.9-0.7l1.9-0.7l1.9-0.7l1.9-0.7l1.9-0.7l1.9-0.7l1.9-0.7l1.9-0.7l1.9-0.7l1.9-0.7
		l1.9-0.7l1.9-0.7l1.9-0.7l1.9-0.7l1.9-0.7l1.9-0.7l1.9-0.7l1.9-0.8l1.9-0.8l1.9-0.8l1.9-0.8l1.9-0.8l1.9-0.8l1.9-0.8l1.9-0.8
		l1.9-0.8 M244.1,192l1.9-0.8l1.9-0.8l1.9-0.8l1.9-0.8l1.9-0.8l1.9-0.8l1.9-0.9l1.9-0.9l1.9-0.9l1.9-0.9l1.9-0.9l1.9-0.9l1.9-0.9
		l1.9-0.9l1.9-0.9l1.9-0.9l1.9-0.9l1.9-0.9l1.9-1l1.9-1l1.9-1l1.9-1l1.9-1l1.9-1l1.9-1l1.9-1l1.9-1l1.9-1.1l1.9-1.1l1.9-1.1l1.9-1.1
		l1.9-1.1l1.9-1.1l1.9-1.1l1.9-1.1l1.9-1.1l1.9-1.2l1.9-1.2l1.9-1.2l1.9-1.2l1.9-1.2l1.9-1.2l1.9-1.2l1.9-1.3l1.9-1.3l1.9-1.3
		l1.9-1.3l1.9-1.3l1.9-1.3l1.9-1.3l1.9-1.4l1.9-1.4l1.9-1.4l1.9-1.4l1.9-1.4l1.9-1.4l1.9-1.5l1.9-1.5l1.9-1.5l1.9-1.5l1.9-1.5
		l1.9-1.5l1.9-1.6l1.9-1.6 M364.7,119.5l1.9-1.6l1.9-1.6l1.9-1.6l1.9-1.6l1.9-1.7l1.9-1.7l1.9-1.7l1.9-1.7l1.9-1.7l1.9-1.8l1.9-1.8
		l1.9-1.8l1.9-1.8l1.9-1.8l1.9-1.9l1.9-1.9l1.9-1.9l1.9-1.9l1.9-1.9l1.9-2l1.9-2l1.9-2l1.9-2l1.9-2l1.9-2.1l1.9-2.1l1.9-2.1l1.9-2.1
		l1.9-2.1l1.9-2.2l1.9-2.2L425,59 M425,59l1.9-2.2l1.9-2.3l1.9-2.3l1.9-2.3l1.9-2.3l1.9-2.4l1.9-2.4l1.9-2.4 M440.1,40.5l1.9-2.4
		l1.9-2.5l1.9-2.5l1.9-2.5 M447.6,30.6l1.9-2.5l1.9-2.6 M451.4,25.5l1.9-2.6 M453.3,23l0.5-0.7"/>
	<path class="st9" d="M245.8,330l-1.6,6.7c0,0.1,0,0.2,0,0.2c0,0.1,0.1,0.3,0.2,0.4l0,0c0,0,0.1,0,0.2,0c0.3,0,0.5,0,0.8,0
		c0.3,0,0.4,0,0.4,0c0,0.1,0,0.2,0,0.2c0,0.1-0.1,0.2-0.2,0.2h-1.2l0,0h-1l0,0h-1h-0.2h-1l0,0c-0.1,0-0.2-0.1-0.2-0.2
		s0.1-0.2,0.2-0.2c0,0,0.1,0,0.4,0c0.8,0,1.2-0.1,1.4-0.2c0,0,0-0.1,0-0.2c0,0,0-0.1,0-0.2l0,0l0,0l0,0l0,0l1.8-6.7
		c0-0.1,0-0.2,0-0.3s0-0.1,0-0.1c-0.1,0-0.3,0-0.4,0H244c-0.9,0-1.5,0.1-1.8,0.2c-0.1,0.1-0.3,0.3-0.4,0.4v0.2l0,0h-0.2
		c-0.1,0.3-0.3,0.7-0.6,1.4c0,0.1,0,0.2,0,0.2c-0.1,0-0.2,0-0.2,0s0-0.1,0-0.2c0,0,0-0.1,0-0.2l0.8-2.2c0-0.1,0.1-0.2,0.2-0.2
		c0,0,0.1,0,0.2,0h6.8c0.3,0,0.4,0,0.4,0c0,0.1,0,0.2,0,0.2l-0.4,2.3c0,0.1-0.1,0.2-0.2,0.2c-0.1,0-0.2-0.1-0.2-0.2
		c0,0,0.1-0.1,0.2-0.2c0-0.4,0-0.7,0-1c0-0.5-0.1-0.8-0.4-1c-0.3,0-0.7,0-1.4,0c-0.5,0-0.8,0-0.8,0c-0.1,0-0.2,0.1-0.2,0.2l0,0
		C245.9,330,245.8,330,245.8,330L245.8,330z"/>
	<path class="st9" d="M250.4,333.9v4.9c0,0.2,0,0.3,0.1,0.3c0.1,0.1,0.3,0.1,0.7,0.1h0.3v0.3c-0.2,0-0.7,0-1.5,0c-0.7,0-1.2,0-1.4,0
		v-0.3h0.3c0.5,0,0.7,0,0.8-0.1l0,0c0-0.1,0-0.2,0-0.3v-4.5c-0.3,0.1-0.6,0.1-1.1,0.1v-0.3c0.6,0,1.1-0.2,1.5-0.5
		c0.2,0,0.3,0,0.3,0.1l0,0l0,0C250.4,333.8,250.4,333.8,250.4,333.9L250.4,333.9z"/>
	<path class="st7" d="M465.5,124.5l-1.6,6.7c0,0.1,0,0.2,0,0.2c0,0.1,0.1,0.3,0.2,0.4l0,0c0,0,0.1,0,0.2,0c0.3,0,0.5,0,0.8,0
		s0.4,0,0.4,0c0,0.1,0,0.2,0,0.2c0,0.1-0.1,0.2-0.2,0.2h-1.2l0,0h-1l0,0h-1H462h-1l0,0c-0.1,0-0.2-0.1-0.2-0.2
		c0-0.1,0.1-0.2,0.2-0.2c0,0,0.1,0,0.4,0c0.8,0,1.2-0.1,1.4-0.2c0,0,0-0.1,0-0.2c0,0,0-0.1,0-0.2l0,0l0,0l0,0l0,0l1.8-6.7
		c0-0.1,0-0.2,0-0.3c0-0.1,0-0.1,0-0.1c-0.1,0-0.3,0-0.4,0h-0.4c-0.9,0-1.5,0.1-1.8,0.2c-0.1,0.1-0.3,0.3-0.4,0.4v0.2l0,0h-0.2
		c-0.1,0.3-0.3,0.7-0.6,1.4c0,0.1,0,0.2,0,0.2c-0.1,0-0.2,0-0.2,0s0-0.1,0-0.2c0,0,0-0.1,0-0.2l0.8-2.2c0-0.1,0.1-0.2,0.2-0.2
		c0,0,0.1,0,0.2,0h6.8c0.3,0,0.4,0,0.4,0c0,0.1,0,0.2,0,0.2l-0.4,2.3c0,0.1-0.1,0.2-0.2,0.2s-0.2-0.1-0.2-0.2c0,0,0.1-0.1,0.2-0.2
		c0-0.4,0-0.7,0-1c0-0.5-0.1-0.8-0.4-1c-0.3,0-0.7,0-1.4,0c-0.5,0-0.8,0-0.8,0c-0.1,0-0.2,0.1-0.2,0.2l0,0
		C465.6,124.4,465.5,124.5,465.5,124.5L465.5,124.5z"/>
	<path class="st7" d="M471.5,132.5L471.5,132.5l-0.3,1.5H468c0-0.2,0-0.3,0.1-0.3l0,0l1.6-1.9c0.6-0.7,1-1.4,1-1.9
		c0-0.5-0.2-1-0.5-1.2l0,0l0,0c-0.2-0.2-0.4-0.3-0.7-0.3c-0.4,0-0.7,0.2-1,0.5c-0.1,0.1-0.1,0.2-0.1,0.4c0,0,0,0,0.1,0
		c0.2,0,0.3,0.1,0.4,0.3l0,0c0,0.1,0,0.1,0,0.1c0,0.3-0.1,0.4-0.4,0.4c0,0.1,0,0.1,0,0.1c-0.3,0-0.5-0.1-0.5-0.3c0-0.1,0-0.2,0-0.3
		c0-0.5,0.2-0.8,0.5-1.1c0.3-0.4,0.6-0.5,1.1-0.5c0.6,0,1.1,0.2,1.5,0.7c0.2,0.3,0.3,0.6,0.4,1c0,0,0,0,0,0.1c0,0.4-0.2,0.8-0.5,1.2
		c-0.2,0.2-0.5,0.4-0.8,0.7l-0.4,0.5h-0.1l-1,1h1.6c0.5,0,0.7,0,0.8,0c0-0.1,0-0.4,0.1-0.8H471.5L471.5,132.5z"/>
</g>
</svg>
