<?xml version="1.0" encoding="utf-8"?>
<!-- Generator: Adobe Illustrator 22.1.0, SVG Export Plug-In . SVG Version: 6.00 Build 0)  -->
<svg version="1.1" id="Calque_1" xmlns="http://www.w3.org/2000/svg" xmlns:xlink="http://www.w3.org/1999/xlink" x="0px" y="0px"
	 viewBox="0 0 343.3 167.7" style="enable-background:new 0 0 343.3 167.7;" xml:space="preserve">
<style type="text/css">
	.st0{clip-path:url(#SVGID_2_);fill:#FFFFFF;}
	.st1{clip-path:url(#SVGID_2_);fill:none;stroke:#C0C0C0;stroke-linecap:round;stroke-linejoin:round;stroke-miterlimit:10;}
	.st2{clip-path:url(#SVGID_2_);fill:none;stroke:#000000;stroke-miterlimit:10;}
	.st3{fill:#FFE6E6;}
	
		.st4{clip-path:url(#SVGID_4_);fill:none;stroke:#FF0000;stroke-width:0.5;stroke-linecap:round;stroke-linejoin:round;stroke-miterlimit:10;}
	.st5{clip-path:url(#SVGID_4_);fill:none;stroke:#DB4D4D;stroke-linecap:round;stroke-linejoin:round;stroke-miterlimit:10;}
	.st6{fill:#FF0000;}
</style>
<g>
	<g>
		<defs>
			<rect id="SVGID_1_" x="1.5" width="341.3" height="167"/>
		</defs>
		<clipPath id="SVGID_2_">
			<use xlink:href="#SVGID_1_"  style="overflow:visible;"/>
		</clipPath>
		<polygon class="st0" points="1.5,0 342.8,0 342.8,167.7 1.5,167.7 1.5,0 		"/>
		<path class="st1" d="M0,0v167.7 M0,0v167.7 M56.7,0v167.7 M113.4,0v167.7 M170.1,0v167.7 M226.8,0v167.7 M283.5,0v167.7 M340.2,0
			v167.7 M1.5,11.2h341.3 M1.5,11.2h341.3 M1.5,28.4h341.3 M1.5,45.7h341.3 M1.5,62.9h341.3 M1.5,80.1h341.3 M1.5,97.4h341.3
			 M1.5,114.6h341.3 M1.5,131.8h341.3 M1.5,166.3h341.3"/>
		<path class="st2" d="M1.5,149.1h340.7 M342.5,149.1l-1.8-1.8 M342.5,149.1l-1.8,1.8"/>
	</g>
	<path d="M53.8,153.3c-0.2-0.1-0.3-0.2-0.4-0.3c-0.1-0.1-0.1-0.3-0.1-0.5c0-0.3,0.1-0.5,0.3-0.7c0.2-0.2,0.5-0.3,0.8-0.3
		c0.3,0,0.6,0.1,0.8,0.3c0.2,0.2,0.3,0.4,0.3,0.7c0,0.2,0,0.3-0.1,0.5c-0.1,0.1-0.2,0.2-0.4,0.3c0.2,0.1,0.4,0.2,0.5,0.4
		c0.1,0.2,0.2,0.4,0.2,0.6c0,0.3-0.1,0.6-0.3,0.8c-0.2,0.2-0.5,0.3-0.9,0.3c-0.4,0-0.7-0.1-0.9-0.3c-0.2-0.2-0.3-0.5-0.3-0.8
		c0-0.2,0.1-0.5,0.2-0.6C53.4,153.5,53.6,153.4,53.8,153.3L53.8,153.3z M53.7,152.6c0,0.2,0.1,0.3,0.2,0.4c0.1,0.1,0.3,0.2,0.4,0.2
		c0.2,0,0.3-0.1,0.4-0.2c0.1-0.1,0.2-0.3,0.2-0.4c0-0.2-0.1-0.3-0.2-0.4c-0.1-0.1-0.3-0.2-0.4-0.2c-0.2,0-0.3,0.1-0.4,0.2
		S53.7,152.4,53.7,152.6L53.7,152.6z M53.6,154.3c0,0.1,0,0.3,0.1,0.4c0.1,0.1,0.2,0.2,0.3,0.3c0.1,0.1,0.3,0.1,0.4,0.1
		c0.2,0,0.4-0.1,0.5-0.2c0.1-0.1,0.2-0.3,0.2-0.5c0-0.2-0.1-0.4-0.2-0.6c-0.1-0.1-0.3-0.2-0.6-0.2c-0.2,0-0.4,0.1-0.5,0.2
		C53.6,153.9,53.6,154.1,53.6,154.3L53.6,154.3z M56,153.5c0-0.4,0-0.8,0.1-1.1c0.1-0.3,0.2-0.5,0.4-0.6c0.2-0.1,0.4-0.2,0.7-0.2
		c0.2,0,0.4,0,0.5,0.1c0.2,0.1,0.3,0.2,0.4,0.4c0.1,0.2,0.2,0.3,0.2,0.6c0.1,0.2,0.1,0.5,0.1,0.9c0,0.4,0,0.8-0.1,1.1
		c-0.1,0.3-0.2,0.5-0.4,0.6c-0.2,0.1-0.4,0.2-0.7,0.2c-0.4,0-0.7-0.1-0.9-0.4C56.2,154.8,56,154.2,56,153.5L56,153.5z M56.5,153.5
		c0,0.6,0.1,1,0.2,1.2s0.3,0.3,0.5,0.3c0.2,0,0.4-0.1,0.5-0.3s0.2-0.6,0.2-1.2s-0.1-1-0.2-1.2c-0.1-0.2-0.3-0.3-0.5-0.3
		c-0.2,0-0.4,0.1-0.5,0.3C56.6,152.5,56.5,152.9,56.5,153.5L56.5,153.5z M59,153.5c0-0.4,0-0.8,0.1-1.1c0.1-0.3,0.2-0.5,0.4-0.6
		c0.2-0.1,0.4-0.2,0.7-0.2c0.2,0,0.4,0,0.5,0.1c0.2,0.1,0.3,0.2,0.4,0.4c0.1,0.2,0.2,0.3,0.2,0.6c0.1,0.2,0.1,0.5,0.1,0.9
		c0,0.4,0,0.8-0.1,1.1c-0.1,0.3-0.2,0.5-0.4,0.6c-0.2,0.1-0.4,0.2-0.7,0.2c-0.4,0-0.7-0.1-0.9-0.4C59.1,154.8,59,154.2,59,153.5
		L59,153.5z M59.5,153.5c0,0.6,0.1,1,0.2,1.2s0.3,0.3,0.5,0.3c0.2,0,0.4-0.1,0.5-0.3s0.2-0.6,0.2-1.2s-0.1-1-0.2-1.2
		c-0.1-0.2-0.3-0.3-0.5-0.3c-0.2,0-0.4,0.1-0.5,0.3C59.5,152.5,59.5,152.9,59.5,153.5L59.5,153.5z"/>
	<path d="M109.9,154.5l0.4,0c0,0.2,0.1,0.4,0.2,0.5c0.1,0.1,0.2,0.1,0.4,0.1c0.1,0,0.3,0,0.4-0.1c0.1-0.1,0.2-0.2,0.3-0.3
		c0.1-0.1,0.1-0.3,0.2-0.4c0-0.2,0.1-0.4,0.1-0.6c0,0,0-0.1,0-0.1c-0.1,0.1-0.2,0.3-0.4,0.4c-0.2,0.1-0.3,0.1-0.5,0.1
		c-0.3,0-0.6-0.1-0.8-0.3c-0.2-0.2-0.3-0.5-0.3-0.9c0-0.4,0.1-0.7,0.3-0.9c0.2-0.2,0.5-0.4,0.8-0.4c0.2,0,0.5,0.1,0.7,0.2
		c0.2,0.1,0.4,0.3,0.5,0.6c0.1,0.2,0.2,0.6,0.2,1.1c0,0.5-0.1,0.9-0.2,1.2c-0.1,0.3-0.3,0.5-0.5,0.7c-0.2,0.1-0.4,0.2-0.7,0.2
		c-0.3,0-0.5-0.1-0.7-0.2C110,155,109.9,154.8,109.9,154.5L109.9,154.5z M111.8,152.8c0-0.3-0.1-0.5-0.2-0.6
		c-0.1-0.2-0.3-0.2-0.5-0.2c-0.2,0-0.4,0.1-0.5,0.3c-0.2,0.2-0.2,0.4-0.2,0.7c0,0.2,0.1,0.4,0.2,0.6c0.1,0.1,0.3,0.2,0.5,0.2
		c0.2,0,0.4-0.1,0.5-0.2C111.7,153.3,111.8,153.1,111.8,152.8L111.8,152.8z M112.7,153.5c0-0.4,0-0.8,0.1-1.1
		c0.1-0.3,0.2-0.5,0.4-0.6c0.2-0.1,0.4-0.2,0.7-0.2c0.2,0,0.4,0,0.5,0.1c0.2,0.1,0.3,0.2,0.4,0.4c0.1,0.2,0.2,0.3,0.2,0.6
		c0.1,0.2,0.1,0.5,0.1,0.9c0,0.4,0,0.8-0.1,1.1c-0.1,0.3-0.2,0.5-0.4,0.6c-0.2,0.1-0.4,0.2-0.7,0.2c-0.4,0-0.7-0.1-0.9-0.4
		C112.9,154.8,112.7,154.2,112.7,153.5L112.7,153.5z M113.2,153.5c0,0.6,0.1,1,0.2,1.2c0.1,0.2,0.3,0.3,0.5,0.3
		c0.2,0,0.4-0.1,0.5-0.3s0.2-0.6,0.2-1.2s-0.1-1-0.2-1.2c-0.1-0.2-0.3-0.3-0.5-0.3c-0.2,0-0.4,0.1-0.5,0.3
		C113.3,152.5,113.2,152.9,113.2,153.5L113.2,153.5z M115.7,153.5c0-0.4,0-0.8,0.1-1.1c0.1-0.3,0.2-0.5,0.4-0.6
		c0.2-0.1,0.4-0.2,0.7-0.2c0.2,0,0.4,0,0.5,0.1c0.2,0.1,0.3,0.2,0.4,0.4c0.1,0.2,0.2,0.3,0.2,0.6c0.1,0.2,0.1,0.5,0.1,0.9
		c0,0.4,0,0.8-0.1,1.1c-0.1,0.3-0.2,0.5-0.4,0.6c-0.2,0.1-0.4,0.2-0.7,0.2c-0.4,0-0.7-0.1-0.9-0.4
		C115.8,154.8,115.7,154.2,115.7,153.5L115.7,153.5z M116.1,153.5c0,0.6,0.1,1,0.2,1.2s0.3,0.3,0.5,0.3c0.2,0,0.4-0.1,0.5-0.3
		s0.2-0.6,0.2-1.2s-0.1-1-0.2-1.2c-0.1-0.2-0.3-0.3-0.5-0.3c-0.2,0-0.4,0.1-0.5,0.3C116.2,152.5,116.1,152.9,116.1,153.5
		L116.1,153.5z"/>
	<path d="M167.1,155.4h-0.5v-3c-0.1,0.1-0.3,0.2-0.4,0.3c-0.2,0.1-0.3,0.2-0.5,0.2v-0.4c0.3-0.1,0.5-0.3,0.7-0.4
		c0.2-0.2,0.3-0.3,0.4-0.5h0.3V155.4L167.1,155.4z M168.2,153.5c0-0.4,0-0.8,0.1-1.1c0.1-0.3,0.2-0.5,0.4-0.6
		c0.2-0.1,0.4-0.2,0.7-0.2c0.2,0,0.4,0,0.5,0.1c0.2,0.1,0.3,0.2,0.4,0.4c0.1,0.2,0.2,0.3,0.2,0.6c0.1,0.2,0.1,0.5,0.1,0.9
		c0,0.4,0,0.8-0.1,1.1c-0.1,0.3-0.2,0.5-0.4,0.6c-0.2,0.1-0.4,0.2-0.7,0.2c-0.4,0-0.7-0.1-0.9-0.4
		C168.4,154.8,168.2,154.2,168.2,153.5L168.2,153.5z M168.7,153.5c0,0.6,0.1,1,0.2,1.2c0.1,0.2,0.3,0.3,0.5,0.3
		c0.2,0,0.4-0.1,0.5-0.3c0.1-0.2,0.2-0.6,0.2-1.2s-0.1-1-0.2-1.2c-0.1-0.2-0.3-0.3-0.5-0.3c-0.2,0-0.4,0.1-0.5,0.3
		C168.8,152.5,168.7,152.9,168.7,153.5L168.7,153.5z M171.2,153.5c0-0.4,0-0.8,0.1-1.1c0.1-0.3,0.2-0.5,0.4-0.6
		c0.2-0.1,0.4-0.2,0.7-0.2c0.2,0,0.4,0,0.5,0.1c0.2,0.1,0.3,0.2,0.4,0.4c0.1,0.2,0.2,0.3,0.2,0.6s0.1,0.5,0.1,0.9
		c0,0.4,0,0.8-0.1,1.1c-0.1,0.3-0.2,0.5-0.4,0.6c-0.2,0.1-0.4,0.2-0.7,0.2c-0.4,0-0.7-0.1-0.9-0.4
		C171.3,154.8,171.2,154.2,171.2,153.5L171.2,153.5z M171.7,153.5c0,0.6,0.1,1,0.2,1.2s0.3,0.3,0.5,0.3c0.2,0,0.4-0.1,0.5-0.3
		c0.1-0.2,0.2-0.6,0.2-1.2s-0.1-1-0.2-1.2c-0.1-0.2-0.3-0.3-0.5-0.3c-0.2,0-0.4,0.1-0.5,0.3C171.7,152.5,171.7,152.9,171.7,153.5
		L171.7,153.5z M174.1,153.5c0-0.4,0-0.8,0.1-1.1c0.1-0.3,0.2-0.5,0.4-0.6c0.2-0.1,0.4-0.2,0.7-0.2c0.2,0,0.4,0,0.5,0.1
		c0.2,0.1,0.3,0.2,0.4,0.4c0.1,0.2,0.2,0.3,0.2,0.6s0.1,0.5,0.1,0.9c0,0.4,0,0.8-0.1,1.1c-0.1,0.3-0.2,0.5-0.4,0.6
		c-0.2,0.1-0.4,0.2-0.7,0.2c-0.4,0-0.7-0.1-0.9-0.4C174.3,154.8,174.1,154.2,174.1,153.5L174.1,153.5z M174.6,153.5
		c0,0.6,0.1,1,0.2,1.2s0.3,0.3,0.5,0.3c0.2,0,0.4-0.1,0.5-0.3c0.1-0.2,0.2-0.6,0.2-1.2s-0.1-1-0.2-1.2c-0.1-0.2-0.3-0.3-0.5-0.3
		c-0.2,0-0.4,0.1-0.5,0.3C174.7,152.5,174.6,152.9,174.6,153.5L174.6,153.5z"/>
	<path d="M223.7,155.4h-0.5v-3c-0.1,0.1-0.3,0.2-0.4,0.3c-0.2,0.1-0.3,0.2-0.5,0.2v-0.4c0.3-0.1,0.5-0.3,0.7-0.4
		c0.2-0.2,0.3-0.3,0.4-0.5h0.3V155.4L223.7,155.4z M226.7,155.4h-0.5v-3c-0.1,0.1-0.3,0.2-0.4,0.3c-0.2,0.1-0.3,0.2-0.5,0.2v-0.4
		c0.3-0.1,0.5-0.3,0.7-0.4c0.2-0.2,0.3-0.3,0.4-0.5h0.3V155.4L226.7,155.4z M227.9,153.5c0-0.4,0-0.8,0.1-1.1
		c0.1-0.3,0.2-0.5,0.4-0.6c0.2-0.1,0.4-0.2,0.7-0.2c0.2,0,0.4,0,0.5,0.1c0.2,0.1,0.3,0.2,0.4,0.4c0.1,0.2,0.2,0.3,0.2,0.6
		c0.1,0.2,0.1,0.5,0.1,0.9c0,0.4,0,0.8-0.1,1.1c-0.1,0.3-0.2,0.5-0.4,0.6c-0.2,0.1-0.4,0.2-0.7,0.2c-0.4,0-0.7-0.1-0.9-0.4
		C228,154.8,227.9,154.2,227.9,153.5L227.9,153.5z M228.4,153.5c0,0.6,0.1,1,0.2,1.2c0.1,0.2,0.3,0.3,0.5,0.3c0.2,0,0.4-0.1,0.5-0.3
		s0.2-0.6,0.2-1.2s-0.1-1-0.2-1.2c-0.1-0.2-0.3-0.3-0.5-0.3c-0.2,0-0.4,0.1-0.5,0.3C228.4,152.5,228.4,152.9,228.4,153.5
		L228.4,153.5z M230.8,153.5c0-0.4,0-0.8,0.1-1.1c0.1-0.3,0.2-0.5,0.4-0.6c0.2-0.1,0.4-0.2,0.7-0.2c0.2,0,0.4,0,0.5,0.1
		c0.2,0.1,0.3,0.2,0.4,0.4c0.1,0.2,0.2,0.3,0.2,0.6c0.1,0.2,0.1,0.5,0.1,0.9c0,0.4,0,0.8-0.1,1.1c-0.1,0.3-0.2,0.5-0.4,0.6
		c-0.2,0.1-0.4,0.2-0.7,0.2c-0.4,0-0.7-0.1-0.9-0.4C230.9,154.8,230.8,154.2,230.8,153.5L230.8,153.5z M231.3,153.5
		c0,0.6,0.1,1,0.2,1.2c0.1,0.2,0.3,0.3,0.5,0.3c0.2,0,0.4-0.1,0.5-0.3c0.1-0.2,0.2-0.6,0.2-1.2s-0.1-1-0.2-1.2
		c-0.1-0.2-0.3-0.3-0.5-0.3s-0.4,0.1-0.5,0.3C231.4,152.5,231.3,152.9,231.3,153.5L231.3,153.5z"/>
	<path d="M280.4,155.4H280v-3c-0.1,0.1-0.3,0.2-0.4,0.3c-0.2,0.1-0.3,0.2-0.5,0.2v-0.4c0.3-0.1,0.5-0.3,0.7-0.4
		c0.2-0.2,0.3-0.3,0.4-0.5h0.3V155.4L280.4,155.4z M284.1,154.9v0.4h-2.5c0-0.1,0-0.2,0.1-0.3c0.1-0.2,0.2-0.3,0.3-0.5
		c0.1-0.2,0.3-0.4,0.6-0.6c0.4-0.3,0.7-0.6,0.8-0.8c0.1-0.2,0.2-0.4,0.2-0.6c0-0.2-0.1-0.3-0.2-0.5c-0.1-0.1-0.3-0.2-0.5-0.2
		c-0.2,0-0.4,0.1-0.5,0.2c-0.1,0.1-0.2,0.3-0.2,0.6l-0.5-0.1c0-0.4,0.2-0.6,0.4-0.8c0.2-0.2,0.5-0.3,0.9-0.3s0.6,0.1,0.9,0.3
		c0.2,0.2,0.3,0.5,0.3,0.7c0,0.1,0,0.3-0.1,0.4c-0.1,0.1-0.2,0.3-0.3,0.5c-0.1,0.2-0.4,0.4-0.7,0.7c-0.3,0.2-0.5,0.4-0.5,0.5
		c-0.1,0.1-0.1,0.2-0.2,0.3H284.1L284.1,154.9z M284.6,153.5c0-0.4,0-0.8,0.1-1.1c0.1-0.3,0.2-0.5,0.4-0.6c0.2-0.1,0.4-0.2,0.7-0.2
		c0.2,0,0.4,0,0.5,0.1c0.2,0.1,0.3,0.2,0.4,0.4c0.1,0.2,0.2,0.3,0.2,0.6c0.1,0.2,0.1,0.5,0.1,0.9c0,0.4,0,0.8-0.1,1.1
		c-0.1,0.3-0.2,0.5-0.4,0.6c-0.2,0.1-0.4,0.2-0.7,0.2c-0.4,0-0.7-0.1-0.9-0.4C284.7,154.8,284.6,154.2,284.6,153.5L284.6,153.5z
		 M285,153.5c0,0.6,0.1,1,0.2,1.2s0.3,0.3,0.5,0.3c0.2,0,0.4-0.1,0.5-0.3c0.1-0.2,0.2-0.6,0.2-1.2s-0.1-1-0.2-1.2
		c-0.1-0.2-0.3-0.3-0.5-0.3c-0.2,0-0.4,0.1-0.5,0.3C285.1,152.5,285,152.9,285,153.5L285,153.5z M287.5,153.5c0-0.4,0-0.8,0.1-1.1
		c0.1-0.3,0.2-0.5,0.4-0.6c0.2-0.1,0.4-0.2,0.7-0.2c0.2,0,0.4,0,0.5,0.1c0.2,0.1,0.3,0.2,0.4,0.4c0.1,0.2,0.2,0.3,0.2,0.6
		c0.1,0.2,0.1,0.5,0.1,0.9c0,0.4,0,0.8-0.1,1.1c-0.1,0.3-0.2,0.5-0.4,0.6c-0.2,0.1-0.4,0.2-0.7,0.2c-0.4,0-0.7-0.1-0.9-0.4
		C287.6,154.8,287.5,154.2,287.5,153.5L287.5,153.5z M288,153.5c0,0.6,0.1,1,0.2,1.2c0.1,0.2,0.3,0.3,0.5,0.3c0.2,0,0.4-0.1,0.5-0.3
		c0.1-0.2,0.2-0.6,0.2-1.2s-0.1-1-0.2-1.2c-0.1-0.2-0.3-0.3-0.5-0.3c-0.2,0-0.4,0.1-0.5,0.3C288.1,152.5,288,152.9,288,153.5
		L288,153.5z"/>
	<polyline class="st3" points="56.7,149.1 57.6,149 58.5,149 59.4,149 60.2,149 61.1,149 62,149 62.9,149 63.8,148.9 64.7,148.9 
		65.6,148.9 66.4,148.9 67.3,148.9 68.2,148.8 69.1,148.8 70,148.8 70.9,148.8 71.8,148.7 72.6,148.7 73.5,148.6 74.4,148.6 
		75.3,148.5 76.2,148.5 77.1,148.4 78,148.4 78.8,148.3 79.7,148.2 80.6,148.1 81.5,148 82.4,147.9 83.3,147.8 84.2,147.7 85,147.5 
		85.9,147.4 86.8,147.2 87.7,147 88.6,146.9 89.5,146.7 90.4,146.4 91.2,146.2 92.1,145.9 93,145.6 93.9,145.3 94.8,145 95.7,144.7 
		96.6,144.3 97.4,143.9 98.3,143.5 99.2,143 100.1,142.5 101,142 101.9,141.5 102.8,140.9 103.6,140.2 104.5,139.6 105.4,138.9 
		106.3,138.1 107.2,137.3 108.1,136.5 109,135.6 109.8,134.7 110.7,133.7 111.6,132.7 112.5,131.6 113.4,130.5 114.3,129.3 
		115.2,128 116,126.7 116.9,125.4 117.8,123.9 118.7,122.5 119.6,120.9 120.5,119.3 121.4,117.7 122.2,116 123.1,114.2 124,112.3 
		124.9,110.5 125.8,108.5 126.7,106.5 127.6,104.4 128.4,102.3 129.3,100.1 130.2,97.9 131.1,95.6 132,93.3 132.9,91 133.8,88.6 
		134.6,86.1 135.5,83.6 136.4,81.1 137.3,78.6 138.2,76 139.1,73.5 140,70.9 140.8,68.3 141.7,65.7 142.6,63.1 143.5,60.5 
		144.4,57.9 145.3,55.3 146.2,52.7 147,50.2 147.9,47.7 148.8,45.3 149.7,42.9 150.6,40.5 151.5,38.2 152.4,36 153.2,33.8 
		154.1,31.7 155,29.7 155.9,27.7 156.8,25.9 157.7,24.1 158.6,22.5 159.4,20.9 160.3,19.5 161.2,18.1 162.1,16.9 163,15.8 
		163.9,14.8 164.8,14 165.6,13.2 166.5,12.6 167.4,12.2 168.3,11.8 169.2,11.6 170.1,11.6 171,11.6 171.9,11.8 172.7,12.2 
		173.6,12.6 174.5,13.2 175.4,14 176.3,14.8 177.2,15.8 178.1,16.9 178.9,18.1 179.8,19.5 180.7,20.9 181.6,22.5 182.5,24.1 
		183.4,25.9 184.3,27.7 185.1,29.7 186,31.7 186.9,33.8 187.8,36 188.7,38.2 189.6,40.5 190.5,42.9 191.3,45.3 192.2,47.7 
		193.1,50.2 194,52.7 194.9,55.3 195.8,57.9 196.7,60.5 197.5,63.1 198.4,65.7 199.3,68.3 200.2,70.9 201.1,73.5 202,76 202.9,78.6 
		203.7,81.1 204.6,83.6 205.5,86.1 206.4,88.6 207.3,91 208.2,93.3 209.1,95.6 209.9,97.9 210.8,100.1 211.7,102.3 212.6,104.4 
		213.5,106.5 214.4,108.5 215.3,110.5 216.1,112.3 217,114.2 217.9,116 218.8,117.7 219.7,119.3 220.6,120.9 221.5,122.5 
		222.3,123.9 223.2,125.4 224.1,126.7 225,128 225.9,129.3 226.8,130.5 227.7,131.6 228.5,132.7 229.4,133.7 230.3,134.7 
		231.2,135.6 232.1,136.5 233,137.3 233.9,138.1 234.7,138.9 235.6,139.6 236.5,140.2 237.4,140.9 238.3,141.5 239.2,142 
		240.1,142.5 240.9,143 241.8,143.5 242.7,143.9 243.6,144.3 244.5,144.7 245.4,145 246.3,145.3 247.1,145.6 248,145.9 248.9,146.2 
		249.8,146.4 250.7,146.7 251.6,146.9 252.5,147 253.3,147.2 254.2,147.4 255.1,147.5 256,147.7 256.9,147.8 257.8,147.9 258.7,148 
		259.5,148.1 260.4,148.2 261.3,148.3 262.2,148.4 263.1,148.4 264,148.5 264.9,148.5 265.7,148.6 266.6,148.6 267.5,148.7 
		268.4,148.7 269.3,148.8 270.2,148.8 271.1,148.8 271.9,148.8 272.8,148.9 273.7,148.9 274.6,148.9 275.5,148.9 276.4,148.9 
		277.3,149 278.1,149 279,149 279.9,149 280.8,149 281.7,149 282.6,149 283.5,149 283.5,149.1 56.7,149.1 	"/>
	<g>
		<defs>
			<rect id="SVGID_3_" x="1.5" width="341.3" height="167"/>
		</defs>
		<clipPath id="SVGID_4_">
			<use xlink:href="#SVGID_3_"  style="overflow:visible;"/>
		</clipPath>
		<polyline class="st4" points="56.7,149.1 57.6,149 58.5,149 59.4,149 60.2,149 61.1,149 62,149 62.9,149 63.8,148.9 64.7,148.9 
			65.6,148.9 66.4,148.9 67.3,148.9 68.2,148.8 69.1,148.8 70,148.8 70.9,148.8 71.8,148.7 72.6,148.7 73.5,148.6 74.4,148.6 
			75.3,148.5 76.2,148.5 77.1,148.4 78,148.4 78.8,148.3 79.7,148.2 80.6,148.1 81.5,148 82.4,147.9 83.3,147.8 84.2,147.7 
			85,147.5 85.9,147.4 86.8,147.2 87.7,147 88.6,146.9 89.5,146.7 90.4,146.4 91.2,146.2 92.1,145.9 93,145.6 93.9,145.3 94.8,145 
			95.7,144.7 96.6,144.3 97.4,143.9 98.3,143.5 99.2,143 100.1,142.5 101,142 101.9,141.5 102.8,140.9 103.6,140.2 104.5,139.6 
			105.4,138.9 106.3,138.1 107.2,137.3 108.1,136.5 109,135.6 109.8,134.7 110.7,133.7 111.6,132.7 112.5,131.6 113.4,130.5 
			114.3,129.3 115.2,128 116,126.7 116.9,125.4 117.8,123.9 118.7,122.5 119.6,120.9 120.5,119.3 121.4,117.7 122.2,116 
			123.1,114.2 124,112.3 124.9,110.5 125.8,108.5 126.7,106.5 127.6,104.4 128.4,102.3 129.3,100.1 130.2,97.9 131.1,95.6 132,93.3 
			132.9,91 133.8,88.6 134.6,86.1 135.5,83.6 136.4,81.1 137.3,78.6 138.2,76 139.1,73.5 140,70.9 140.8,68.3 141.7,65.7 
			142.6,63.1 143.5,60.5 144.4,57.9 145.3,55.3 146.2,52.7 147,50.2 147.9,47.7 148.8,45.3 149.7,42.9 150.6,40.5 151.5,38.2 
			152.4,36 153.2,33.8 154.1,31.7 155,29.7 155.9,27.7 156.8,25.9 157.7,24.1 158.6,22.5 159.4,20.9 160.3,19.5 161.2,18.1 
			162.1,16.9 163,15.8 163.9,14.8 164.8,14 165.6,13.2 166.5,12.6 167.4,12.2 168.3,11.8 169.2,11.6 170.1,11.6 171,11.6 
			171.9,11.8 172.7,12.2 173.6,12.6 174.5,13.2 175.4,14 176.3,14.8 177.2,15.8 178.1,16.9 178.9,18.1 179.8,19.5 180.7,20.9 
			181.6,22.5 182.5,24.1 183.4,25.9 184.3,27.7 185.1,29.7 186,31.7 186.9,33.8 187.8,36 188.7,38.2 189.6,40.5 190.5,42.9 
			191.3,45.3 192.2,47.7 193.1,50.2 194,52.7 194.9,55.3 195.8,57.9 196.7,60.5 197.5,63.1 198.4,65.7 199.3,68.3 200.2,70.9 
			201.1,73.5 202,76 202.9,78.6 203.7,81.1 204.6,83.6 205.5,86.1 206.4,88.6 207.3,91 208.2,93.3 209.1,95.6 209.9,97.9 
			210.8,100.1 211.7,102.3 212.6,104.4 213.5,106.5 214.4,108.5 215.3,110.5 216.1,112.3 217,114.2 217.9,116 218.8,117.7 
			219.7,119.3 220.6,120.9 221.5,122.5 222.3,123.9 223.2,125.4 224.1,126.7 225,128 225.9,129.3 226.8,130.5 227.7,131.6 
			228.5,132.7 229.4,133.7 230.3,134.7 231.2,135.6 232.1,136.5 233,137.3 233.9,138.1 234.7,138.9 235.6,139.6 236.5,140.2 
			237.4,140.9 238.3,141.5 239.2,142 240.1,142.5 240.9,143 241.8,143.5 242.7,143.9 243.6,144.3 244.5,144.7 245.4,145 
			246.3,145.3 247.1,145.6 248,145.9 248.9,146.2 249.8,146.4 250.7,146.7 251.6,146.9 252.5,147 253.3,147.2 254.2,147.4 
			255.1,147.5 256,147.7 256.9,147.8 257.8,147.9 258.7,148 259.5,148.1 260.4,148.2 261.3,148.3 262.2,148.4 263.1,148.4 
			264,148.5 264.9,148.5 265.7,148.6 266.6,148.6 267.5,148.7 268.4,148.7 269.3,148.8 270.2,148.8 271.1,148.8 271.9,148.8 
			272.8,148.9 273.7,148.9 274.6,148.9 275.5,148.9 276.4,148.9 277.3,149 278.1,149 279,149 279.9,149 280.8,149 281.7,149 
			282.6,149 283.5,149 283.5,149.1 56.7,149.1 		"/>
		<polyline class="st5" points="1.5,149.1 2.8,149.1 4.1,149.1 5.5,149.1 6.8,149.1 8.1,149.1 9.5,149.1 10.8,149.1 12.1,149.1 
			13.5,149.1 14.8,149.1 16.1,149.1 17.5,149.1 18.8,149.1 20.1,149.1 21.5,149.1 22.8,149.1 24.1,149.1 25.5,149.1 26.8,149.1 
			28.1,149.1 29.5,149.1 30.8,149.1 32.1,149.1 33.5,149.1 34.8,149.1 36.1,149.1 37.5,149.1 38.8,149.1 40.1,149.1 41.5,149.1 
			42.8,149.1 44.1,149.1 45.5,149.1 46.8,149.1 48.1,149.1 49.5,149 50.8,149 52.1,149 53.5,149 54.8,149 56.1,149 57.5,149 
			58.8,149 60.1,149 61.5,149 62.8,149 64.1,148.9 65.5,148.9 66.8,148.9 68.1,148.8 69.5,148.8 70.8,148.8 72.1,148.7 73.5,148.7 
			74.8,148.6 76.1,148.5 77.5,148.4 78.8,148.3 80.1,148.2 81.5,148 82.8,147.9 84.1,147.7 85.5,147.5 86.8,147.2 88.1,147 
			89.5,146.7 90.8,146.3 92.1,145.9 93.5,145.5 94.8,145 96.1,144.5 97.5,143.9 98.8,143.2 100.1,142.5 101.5,141.7 102.8,140.8 
			104.1,139.9 105.5,138.8 106.8,137.7 108.1,136.4 109.5,135.1 110.8,133.6 112.1,132 113.5,130.3 114.8,128.5 116.1,126.6 
			117.5,124.5 118.8,122.3 120.1,119.9 121.5,117.5 122.8,114.8 124.1,112.1 125.5,109.2 126.1,107.7 126.8,106.2 127.5,104.6 
			128.1,103.1 128.8,101.4 129.5,99.8 130.1,98.1 130.8,96.4 131.5,94.7 132.1,92.9 132.8,91.2 133.5,89.3 134.1,87.5 134.8,85.7 
			135.5,83.8 136.1,81.9 136.8,80 137.5,78.1 138.1,76.2 138.8,74.3 139.5,72.3 140.1,70.4 140.8,68.4 141.5,66.4 142.1,64.5 
			142.8,62.5 143.5,60.6 144.1,58.6 144.8,56.7 145.5,54.7 146.1,52.8 146.8,50.9 147.5,49 148.1,47.2 148.8,45.3 149.5,43.5 
			150.1,41.7 150.8,40 151.5,38.2 152.1,36.5 152.8,34.9 153.5,33.3 154.1,31.7 154.8,30.2 156.1,27.2 157.5,24.5 158.8,22 
			160.1,19.8 161.5,17.8 162.8,16 164.1,14.6 165.5,13.4 166.8,12.5 168.1,11.9 168.8,11.7 169.5,11.6 170.8,11.6 171.5,11.7 
			172.1,11.9 173.5,12.5 174.8,13.5 176.1,14.7 177.5,16.2 178.8,17.9 180.1,20 181.5,22.2 182.8,24.7 184.1,27.5 185.5,30.4 
			186.1,31.9 186.8,33.5 187.5,35.2 188.1,36.8 188.8,38.5 189.5,40.2 190.1,42 190.8,43.8 191.5,45.6 192.1,47.5 192.8,49.3 
			193.5,51.2 194.1,53.1 194.8,55.1 195.5,57 196.1,58.9 196.8,60.9 197.5,62.9 198.1,64.8 198.8,66.8 199.5,68.7 200.1,70.7 
			200.8,72.6 201.5,74.6 202.1,76.5 202.8,78.4 203.5,80.4 204.1,82.3 204.8,84.1 205.5,86 206.1,87.8 206.8,89.7 207.5,91.5 
			208.1,93.2 208.8,95 209.5,96.7 210.1,98.4 210.8,100.1 211.5,101.7 212.1,103.3 212.8,104.9 213.5,106.5 214.1,108 214.8,109.5 
			216.1,112.3 217.5,115.1 218.8,117.7 220.1,120.1 221.5,122.5 222.8,124.7 224.1,126.7 225.5,128.7 226.8,130.5 228.1,132.2 
			229.5,133.7 230.8,135.2 232.1,136.5 233.5,137.8 234.8,138.9 236.1,140 237.5,140.9 238.8,141.8 240.1,142.6 241.5,143.3 
			242.8,143.9 244.1,144.5 245.5,145.1 246.8,145.5 248.1,146 249.5,146.3 250.8,146.7 252.1,147 253.5,147.2 254.8,147.5 
			256.1,147.7 257.5,147.9 258.8,148 260.1,148.2 261.5,148.3 262.8,148.4 264.1,148.5 265.5,148.6 266.8,148.7 268.1,148.7 
			269.5,148.8 270.8,148.8 272.1,148.9 273.5,148.9 274.8,148.9 276.1,148.9 277.5,149 278.8,149 280.1,149 281.5,149 282.8,149 
			284.1,149 285.5,149 286.8,149 288.1,149 289.5,149 290.8,149 292.1,149.1 293.5,149.1 294.8,149.1 296.1,149.1 297.5,149.1 
			298.8,149.1 300.1,149.1 301.5,149.1 302.8,149.1 304.1,149.1 305.5,149.1 306.8,149.1 308.1,149.1 309.5,149.1 310.8,149.1 
			312.1,149.1 313.5,149.1 314.8,149.1 316.1,149.1 317.5,149.1 318.8,149.1 320.1,149.1 321.5,149.1 322.8,149.1 324.1,149.1 
			325.5,149.1 326.8,149.1 328.1,149.1 329.5,149.1 330.8,149.1 332.1,149.1 333.5,149.1 334.8,149.1 336.1,149.1 337.5,149.1 
			338.8,149.1 340.1,149.1 341.5,149.1 342.8,149.1 		"/>
	</g>
	<path class="st6" d="M144,89.5l2.3,6.6c0.1,0.2,0.2,0.4,0.3,0.5c0.2,0,0.4,0,0.7,0h0.2v0.3c-0.4,0-0.9,0-1.3,0c-0.8,0-1.3,0-1.7,0
		v-0.3c0.7,0,1-0.1,1-0.3c0,0-0.1-0.1-0.2-0.2l-0.5-1.7h-2.6l-0.5,1.5c0,0,0,0.1,0,0.2c0,0.2,0.2,0.4,0.5,0.5l0,0c0.1,0,0.2,0,0.3,0
		v0.3c-0.7,0-1,0-1.2,0c-0.3,0-0.7,0-1.2,0v-0.3c0.6,0,0.9-0.2,1.2-0.7l0,0l2.1-6.4c0.1-0.1,0.2-0.2,0.2-0.2c0.1,0,0.2,0,0.2,0
		C143.9,89.3,144,89.4,144,89.5L144,89.5L144,89.5L144,89.5L144,89.5z M143.5,90.8l-1.2,3.3h2.3L143.5,90.8L143.5,90.8z"/>
	<path class="st6" d="M149.6,92.3L149.6,92.3v3.8c0,0.2,0.1,0.4,0.2,0.5l0,0c0.1,0,0.3,0,0.7,0v0.3c-0.8,0-1.2,0-1.2,0
		c-0.1,0-0.5,0-1.2,0v-0.3c0.4,0,0.7-0.1,0.8-0.2l0,0c0,0,0-0.1,0-0.3v-2.8c0-0.3-0.1-0.5-0.2-0.5l0,0l0,0l0,0l0,0
		c-0.1-0.1-0.3-0.2-0.7-0.2v-0.3H149.6L149.6,92.3z M149.7,90.5c0,0.2-0.2,0.4-0.5,0.5c0,0-0.1,0-0.2,0c-0.2,0-0.4-0.1-0.5-0.3l0,0
		c0-0.1,0-0.2,0-0.2c0-0.2,0.1-0.4,0.3-0.5c0-0.1,0.1-0.2,0.2-0.2c0.2,0,0.4,0.1,0.5,0.3C149.7,90.3,149.7,90.4,149.7,90.5
		L149.7,90.5z"/>
	<path class="st6" d="M152.5,96.1c0,0.2,0.1,0.3,0.2,0.3l0,0v0.2c0.1,0,0.3,0,0.7,0h0.2v0.3c-0.2,0-0.7,0-1.3,0c0,0-0.4,0-1.2,0
		v-0.3c0.4,0,0.7-0.1,0.7-0.2l0,0c0.1,0,0.2-0.1,0.2-0.3v-2.8c0-0.3-0.1-0.5-0.2-0.5c-0.1-0.1-0.3-0.2-0.5-0.2H151v-0.3h1.5v1.2
		c0.1-0.7,0.4-1,0.8-1.2c0.1,0,0.3,0,0.5,0c0.3,0,0.6,0.1,0.7,0.3c0,0.1,0,0.2,0,0.3c0,0.2-0.1,0.3-0.3,0.3l0,0
		c-0.2,0-0.4-0.1-0.5-0.2c0-0.1,0-0.2,0-0.2c0-0.2,0.1-0.4,0.2-0.5l0,0c-0.6,0-0.9,0.3-1.2,0.8c-0.1,0.3-0.2,0.7-0.2,1.2V96.1
		L152.5,96.1z"/>
	<path class="st6" d="M159,94.5L159,94.5h-3c0,0.8,0.1,1.3,0.3,1.7c0.3,0.4,0.7,0.7,1.2,0.7c0.6,0,0.9-0.2,1.2-0.5
		c0.1-0.2,0.2-0.4,0.3-0.5c0-0.1,0.1-0.2,0.2-0.2c0.1,0,0.2,0,0.2,0c0,0.2-0.1,0.4-0.3,0.7c-0.3,0.4-0.7,0.7-1.2,0.8
		c-0.1,0-0.2,0-0.3,0c-0.7,0-1.2-0.3-1.7-0.8c-0.4-0.4-0.7-1-0.7-1.7c0-0.8,0.2-1.4,0.7-1.8c0.4-0.4,0.9-0.7,1.5-0.7
		c0.8,0,1.3,0.3,1.7,1c0.2,0.3,0.3,0.7,0.3,1.2c0,0.1-0.1,0.2-0.2,0.2C159.1,94.5,159.1,94.5,159,94.5L159,94.5z M156,94.3L156,94.3
		h2.5c0-0.7-0.1-1.2-0.3-1.5c-0.2-0.2-0.5-0.3-0.8-0.3c-0.3,0-0.6,0.2-0.8,0.5C156.2,93.3,156,93.7,156,94.3L156,94.3z"/>
	<path class="st6" d="M170.1,92.1c0,0.6-0.2,1-0.7,1.3c-0.3,0.3-0.7,0.5-1,0.5c-0.6,0-1.1-0.2-1.7-0.7c0,0-0.1-0.1-0.2-0.2
		c-0.6-0.3-1-0.6-1.3-0.7c-0.1,0-0.3,0-0.5,0c-0.4,0-0.8,0.1-1,0.3c-0.1,0-0.2,0-0.2,0c-0.1,0.2-0.2,0.5-0.3,0.8
		c0,0.1-0.1,0.2-0.2,0.2c0,0,0-0.1,0-0.2c0-0.7,0.2-1.2,0.7-1.5c0.3-0.2,0.7-0.3,1-0.3c0.4,0,1,0.2,1.7,0.7l0,0
		c0.7,0.4,1.1,0.7,1.3,0.7c0.2,0.1,0.4,0.2,0.7,0.2c0.4,0,0.8-0.2,1-0.5c0.2-0.2,0.3-0.4,0.3-0.7c0.1-0.2,0.2-0.3,0.2-0.3
		C170,91.8,170.1,91.9,170.1,92.1L170.1,92.1z M170.1,94.6c0,0.6-0.2,1-0.7,1.3c-0.3,0.2-0.7,0.3-1,0.3c-0.6,0-1.1-0.2-1.7-0.5
		c0,0-0.1-0.1-0.2-0.2c-0.6-0.3-1-0.6-1.3-0.7c-0.1,0-0.3,0-0.5,0c-0.4,0-0.8,0.1-1,0.3c-0.2,0.2-0.4,0.5-0.5,0.8
		c0,0.1-0.1,0.2-0.2,0.2c0,0,0-0.1,0-0.3c0-0.6,0.2-1,0.7-1.3c0.3-0.2,0.7-0.3,1-0.3c0.4,0,1,0.2,1.7,0.7l0,0
		c0.7,0.4,1.1,0.7,1.3,0.7c0.2,0.1,0.4,0.2,0.7,0.2c0.4,0,0.8-0.2,1.2-0.5c0.1-0.2,0.2-0.4,0.2-0.7c0-0.2,0.1-0.3,0.2-0.3
		S170.1,94.4,170.1,94.6L170.1,94.6z"/>
	<path class="st6" d="M176.8,90.2v5.9c0,0.2,0.1,0.3,0.2,0.3c0.1,0.1,0.4,0.2,0.8,0.2h0.3v0.3c-0.2,0-0.8,0-1.8,0
		c-0.9,0-1.4,0-1.7,0v-0.3h0.3c0.6,0,0.9-0.1,1-0.2l0,0c0-0.1,0-0.2,0-0.3v-5.5c-0.3,0.1-0.8,0.2-1.3,0.2v-0.3
		c0.8,0,1.4-0.2,1.8-0.7c0.2,0,0.3,0.1,0.3,0.2l0,0l0,0C176.8,90,176.8,90.1,176.8,90.2L176.8,90.2z"/>
	<path class="st6" d="M183.7,93.6c0,1-0.1,1.8-0.3,2.3c-0.4,0.8-1,1.2-1.8,1.2c-0.7,0-1.2-0.2-1.5-0.7c-0.1-0.1-0.2-0.2-0.3-0.3
		c-0.3-0.6-0.5-1.4-0.5-2.5c0-1.1,0.2-1.9,0.5-2.5c0.3-0.8,0.9-1.2,1.7-1.3h0.2c0.7,0,1.2,0.3,1.5,0.8l0,0c0.1,0.1,0.2,0.3,0.3,0.5
		C183.6,91.7,183.7,92.5,183.7,93.6L183.7,93.6z M181.6,96.9L181.6,96.9c0.4,0,0.8-0.2,1-0.7c0.1-0.2,0.2-0.4,0.2-0.7
		c0.1-0.4,0.2-1.2,0.2-2.1s-0.1-1.7-0.2-2.1c-0.1-0.7-0.4-1-0.8-1.2c-0.1,0-0.2,0-0.3,0c-0.6,0-0.9,0.2-1.2,0.7
		c0,0.2-0.1,0.4-0.2,0.7c0,0.3,0,1,0,2s0.1,1.7,0.2,2.1c0.1,0.7,0.4,1.1,0.8,1.3C181.3,96.9,181.5,96.9,181.6,96.9L181.6,96.9z"/>
	<path class="st6" d="M189,93.6c0,1-0.1,1.8-0.3,2.3c-0.4,0.8-1,1.2-1.8,1.2c-0.7,0-1.2-0.2-1.5-0.7c-0.1-0.1-0.2-0.2-0.3-0.3
		c-0.3-0.6-0.5-1.4-0.5-2.5c0-1.1,0.2-1.9,0.5-2.5c0.3-0.8,0.9-1.2,1.7-1.3h0.2c0.7,0,1.2,0.3,1.5,0.8l0,0c0.1,0.1,0.2,0.3,0.3,0.5
		C188.9,91.7,189,92.5,189,93.6L189,93.6z M186.9,96.9L186.9,96.9c0.4,0,0.8-0.2,1-0.7c0.1-0.2,0.2-0.4,0.2-0.7
		c0.1-0.4,0.2-1.2,0.2-2.1s-0.1-1.7-0.2-2.1c-0.1-0.7-0.4-1-0.8-1.2c-0.1,0-0.2,0-0.3,0c-0.6,0-0.9,0.2-1.2,0.7
		c0,0.2-0.1,0.4-0.2,0.7c0,0.3,0,1,0,2s0.1,1.7,0.2,2.1c0.1,0.7,0.4,1.1,0.8,1.3C186.6,96.9,186.7,96.9,186.9,96.9L186.9,96.9z"/>
	<path class="st6" d="M196.8,89.3l-5.5,8.1c0,0.1-0.1,0.2-0.2,0.2c-0.1,0-0.2-0.1-0.2-0.2c0-0.1,0-0.2,0-0.2s0-0.1,0-0.2l4.8-7.1
		l0,0c-0.3,0.2-0.7,0.3-1.2,0.3c-0.1,0-0.2,0-0.2,0c-0.6,0-1.1-0.1-1.7-0.3c0.1,0.3,0.2,0.7,0.2,1.2c0,0.8-0.2,1.4-0.5,1.8
		c-0.2,0.2-0.5,0.3-0.8,0.3c-0.4,0-0.8-0.2-1.2-0.7c-0.2-0.4-0.3-0.9-0.3-1.5c0-0.8,0.2-1.4,0.7-1.8c0.2-0.2,0.5-0.3,0.8-0.3
		c0.2,0,0.5,0.1,0.8,0.3c0.6,0.6,1.2,0.8,2,0.8c0.8,0,1.4-0.3,2-1c0-0.1,0.1-0.2,0.2-0.2c0.1,0,0.2,0.1,0.2,0.2l0,0
		C196.8,89.3,196.8,89.3,196.8,89.3L196.8,89.3z M191.6,93c0.3,0,0.6-0.2,0.8-0.5c0.2-0.4,0.3-0.9,0.3-1.3c0-0.8-0.2-1.3-0.5-1.7
		c-0.2-0.2-0.4-0.3-0.7-0.3c-0.3,0-0.6,0.3-0.7,0.8c-0.1,0.2-0.2,0.6-0.2,1.2c0,1.1,0.2,1.7,0.7,1.8C191.5,93,191.5,93,191.6,93
		L191.6,93z M196.3,97.3c0.3,0,0.6-0.2,0.8-0.7c0.2-0.3,0.3-0.7,0.3-1.2c0-0.8-0.2-1.3-0.5-1.7c-0.2-0.2-0.4-0.3-0.7-0.3
		c-0.3,0-0.6,0.2-0.7,0.7l0,0c-0.1,0.3-0.2,0.8-0.2,1.3c0,1.1,0.2,1.7,0.7,1.8C196.2,97.3,196.3,97.3,196.3,97.3L196.3,97.3z
		 M197.8,95.4c0,0.8-0.2,1.3-0.7,1.7c-0.2,0.3-0.5,0.5-0.8,0.5c-0.4,0-0.8-0.3-1.2-0.8c-0.2-0.3-0.3-0.8-0.3-1.3
		c0-0.8,0.2-1.4,0.7-1.8c0.2-0.2,0.5-0.3,0.8-0.3c0.4,0,0.8,0.2,1.2,0.7C197.6,94.4,197.8,94.9,197.8,95.4L197.8,95.4z"/>
</g>
</svg>
