<?xml version="1.0" encoding="utf-8"?>
<!-- Generator: Adobe Illustrator 22.1.0, SVG Export Plug-In . SVG Version: 6.00 Build 0)  -->
<svg version="1.1" id="Calque_1" xmlns="http://www.w3.org/2000/svg" xmlns:xlink="http://www.w3.org/1999/xlink" x="0px" y="0px"
	 viewBox="0 0 342.1 163.3" style="enable-background:new 0 0 342.1 163.3;" xml:space="preserve">
<style type="text/css">
	.st0{clip-path:url(#SVGID_2_);fill:#FFFFFF;}
	.st1{clip-path:url(#SVGID_2_);fill:none;stroke:#C0C0C0;stroke-linecap:round;stroke-linejoin:round;stroke-miterlimit:10;}
	.st2{clip-path:url(#SVGID_2_);fill:none;stroke:#000000;stroke-miterlimit:10;}
	.st3{clip-path:url(#SVGID_4_);fill:none;stroke:#DB4D4D;stroke-linecap:round;stroke-linejoin:round;stroke-miterlimit:10;}
</style>
<g>
	<g>
		<defs>
			<rect id="SVGID_1_" x="1.5" width="340.2" height="163"/>
		</defs>
		<clipPath id="SVGID_2_">
			<use xlink:href="#SVGID_1_"  style="overflow:visible;"/>
		</clipPath>
		<polygon class="st0" points="1.5,0 341.6,0 341.6,163.3 1.5,163.3 1.5,0 		"/>
		<path class="st1" d="M0,0v163.3 M0,0v163.3 M56.7,0v163.3 M113.4,0v163.3 M170.1,0v163.3 M226.8,0v163.3 M283.5,0v163.3 M340.2,0
			v163.3 M1.5,11.2h340.2 M1.5,11.2h340.2 M1.5,28.4h340.2 M1.5,45.7h340.2 M1.5,62.9h340.2 M1.5,80.1h340.2 M1.5,97.4h340.2
			 M1.5,114.6h340.2 M1.5,131.8h340.2"/>
		<path class="st2" d="M1.5,149.1H341 M341.3,149.1l-1.8-1.8 M341.3,149.1l-1.8,1.8"/>
	</g>
	<path d="M53.8,153.3c-0.2-0.1-0.3-0.2-0.4-0.3c-0.1-0.1-0.1-0.3-0.1-0.5c0-0.3,0.1-0.5,0.3-0.7c0.2-0.2,0.5-0.3,0.8-0.3
		c0.3,0,0.6,0.1,0.8,0.3c0.2,0.2,0.3,0.4,0.3,0.7c0,0.2,0,0.3-0.1,0.5c-0.1,0.1-0.2,0.2-0.4,0.3c0.2,0.1,0.4,0.2,0.5,0.4
		c0.1,0.2,0.2,0.4,0.2,0.6c0,0.3-0.1,0.6-0.3,0.8c-0.2,0.2-0.5,0.3-0.9,0.3c-0.4,0-0.7-0.1-0.9-0.3c-0.2-0.2-0.3-0.5-0.3-0.8
		c0-0.2,0.1-0.5,0.2-0.6C53.4,153.5,53.6,153.4,53.8,153.3L53.8,153.3z M53.7,152.6c0,0.2,0.1,0.3,0.2,0.4c0.1,0.1,0.3,0.2,0.4,0.2
		c0.2,0,0.3-0.1,0.4-0.2c0.1-0.1,0.2-0.3,0.2-0.4c0-0.2-0.1-0.3-0.2-0.4c-0.1-0.1-0.3-0.2-0.4-0.2c-0.2,0-0.3,0.1-0.4,0.2
		C53.8,152.3,53.7,152.4,53.7,152.6L53.7,152.6z M53.6,154.3c0,0.1,0,0.3,0.1,0.4c0.1,0.1,0.2,0.2,0.3,0.3c0.1,0.1,0.3,0.1,0.4,0.1
		c0.2,0,0.4-0.1,0.5-0.2c0.1-0.1,0.2-0.3,0.2-0.5c0-0.2-0.1-0.4-0.2-0.6c-0.1-0.1-0.3-0.2-0.6-0.2c-0.2,0-0.4,0.1-0.5,0.2
		C53.6,153.9,53.6,154.1,53.6,154.3L53.6,154.3z M56,153.5c0-0.4,0-0.8,0.1-1.1c0.1-0.3,0.2-0.5,0.4-0.6c0.2-0.1,0.4-0.2,0.7-0.2
		c0.2,0,0.4,0,0.5,0.1c0.2,0.1,0.3,0.2,0.4,0.4c0.1,0.2,0.2,0.3,0.2,0.6c0.1,0.2,0.1,0.5,0.1,0.9c0,0.4,0,0.8-0.1,1.1
		c-0.1,0.3-0.2,0.5-0.4,0.6c-0.2,0.1-0.4,0.2-0.7,0.2c-0.4,0-0.7-0.1-0.9-0.4C56.2,154.8,56,154.2,56,153.5L56,153.5z M56.5,153.5
		c0,0.6,0.1,1,0.2,1.2s0.3,0.3,0.5,0.3c0.2,0,0.4-0.1,0.5-0.3s0.2-0.6,0.2-1.2c0-0.6-0.1-1-0.2-1.2c-0.1-0.2-0.3-0.3-0.5-0.3
		c-0.2,0-0.4,0.1-0.5,0.3C56.6,152.5,56.5,152.9,56.5,153.5L56.5,153.5z M59,153.5c0-0.4,0-0.8,0.1-1.1c0.1-0.3,0.2-0.5,0.4-0.6
		s0.4-0.2,0.7-0.2c0.2,0,0.4,0,0.5,0.1c0.2,0.1,0.3,0.2,0.4,0.4c0.1,0.2,0.2,0.3,0.2,0.6c0.1,0.2,0.1,0.5,0.1,0.9
		c0,0.4,0,0.8-0.1,1.1c-0.1,0.3-0.2,0.5-0.4,0.6c-0.2,0.1-0.4,0.2-0.7,0.2c-0.4,0-0.7-0.1-0.9-0.4C59.1,154.8,59,154.2,59,153.5
		L59,153.5z M59.5,153.5c0,0.6,0.1,1,0.2,1.2s0.3,0.3,0.5,0.3c0.2,0,0.4-0.1,0.5-0.3s0.2-0.6,0.2-1.2c0-0.6-0.1-1-0.2-1.2
		c-0.1-0.2-0.3-0.3-0.5-0.3c-0.2,0-0.4,0.1-0.5,0.3C59.5,152.5,59.5,152.9,59.5,153.5L59.5,153.5z"/>
	<path d="M109.9,154.5l0.4,0c0,0.2,0.1,0.4,0.2,0.5c0.1,0.1,0.2,0.1,0.4,0.1c0.1,0,0.3,0,0.4-0.1c0.1-0.1,0.2-0.2,0.3-0.3
		c0.1-0.1,0.1-0.3,0.2-0.4s0.1-0.4,0.1-0.6c0,0,0-0.1,0-0.1c-0.1,0.1-0.2,0.3-0.4,0.4c-0.2,0.1-0.3,0.1-0.5,0.1
		c-0.3,0-0.6-0.1-0.8-0.3c-0.2-0.2-0.3-0.5-0.3-0.9c0-0.4,0.1-0.7,0.3-0.9c0.2-0.2,0.5-0.4,0.8-0.4c0.2,0,0.5,0.1,0.7,0.2
		c0.2,0.1,0.4,0.3,0.5,0.6c0.1,0.2,0.2,0.6,0.2,1.1c0,0.5-0.1,0.9-0.2,1.2c-0.1,0.3-0.3,0.5-0.5,0.7s-0.4,0.2-0.7,0.2
		c-0.3,0-0.5-0.1-0.7-0.2C110,155,109.9,154.8,109.9,154.5L109.9,154.5z M111.8,152.8c0-0.3-0.1-0.5-0.2-0.6
		c-0.1-0.2-0.3-0.2-0.5-0.2c-0.2,0-0.4,0.1-0.5,0.3s-0.2,0.4-0.2,0.7c0,0.2,0.1,0.4,0.2,0.6c0.1,0.1,0.3,0.2,0.5,0.2
		c0.2,0,0.4-0.1,0.5-0.2C111.7,153.3,111.8,153.1,111.8,152.8L111.8,152.8z M112.7,153.5c0-0.4,0-0.8,0.1-1.1
		c0.1-0.3,0.2-0.5,0.4-0.6c0.2-0.1,0.4-0.2,0.7-0.2c0.2,0,0.4,0,0.5,0.1c0.2,0.1,0.3,0.2,0.4,0.4c0.1,0.2,0.2,0.3,0.2,0.6
		c0.1,0.2,0.1,0.5,0.1,0.9c0,0.4,0,0.8-0.1,1.1c-0.1,0.3-0.2,0.5-0.4,0.6s-0.4,0.2-0.7,0.2c-0.4,0-0.7-0.1-0.9-0.4
		C112.9,154.8,112.7,154.2,112.7,153.5L112.7,153.5z M113.2,153.5c0,0.6,0.1,1,0.2,1.2c0.1,0.2,0.3,0.3,0.5,0.3
		c0.2,0,0.4-0.1,0.5-0.3s0.2-0.6,0.2-1.2c0-0.6-0.1-1-0.2-1.2c-0.1-0.2-0.3-0.3-0.5-0.3c-0.2,0-0.4,0.1-0.5,0.3
		C113.3,152.5,113.2,152.9,113.2,153.5L113.2,153.5z M115.7,153.5c0-0.4,0-0.8,0.1-1.1c0.1-0.3,0.2-0.5,0.4-0.6
		c0.2-0.1,0.4-0.2,0.7-0.2c0.2,0,0.4,0,0.5,0.1c0.2,0.1,0.3,0.2,0.4,0.4c0.1,0.2,0.2,0.3,0.2,0.6c0.1,0.2,0.1,0.5,0.1,0.9
		c0,0.4,0,0.8-0.1,1.1c-0.1,0.3-0.2,0.5-0.4,0.6c-0.2,0.1-0.4,0.2-0.7,0.2c-0.4,0-0.7-0.1-0.9-0.4
		C115.8,154.8,115.7,154.2,115.7,153.5L115.7,153.5z M116.1,153.5c0,0.6,0.1,1,0.2,1.2s0.3,0.3,0.5,0.3c0.2,0,0.4-0.1,0.5-0.3
		s0.2-0.6,0.2-1.2c0-0.6-0.1-1-0.2-1.2c-0.1-0.2-0.3-0.3-0.5-0.3c-0.2,0-0.4,0.1-0.5,0.3C116.2,152.5,116.1,152.9,116.1,153.5
		L116.1,153.5z"/>
	<path d="M167.1,155.4h-0.5v-3c-0.1,0.1-0.3,0.2-0.4,0.3c-0.2,0.1-0.3,0.2-0.5,0.2v-0.4c0.3-0.1,0.5-0.3,0.7-0.4
		c0.2-0.2,0.3-0.3,0.4-0.5h0.3V155.4L167.1,155.4z M168.2,153.5c0-0.4,0-0.8,0.1-1.1c0.1-0.3,0.2-0.5,0.4-0.6
		c0.2-0.1,0.4-0.2,0.7-0.2c0.2,0,0.4,0,0.5,0.1s0.3,0.2,0.4,0.4s0.2,0.3,0.2,0.6c0.1,0.2,0.1,0.5,0.1,0.9c0,0.4,0,0.8-0.1,1.1
		c-0.1,0.3-0.2,0.5-0.4,0.6c-0.2,0.1-0.4,0.2-0.7,0.2c-0.4,0-0.7-0.1-0.9-0.4C168.4,154.8,168.2,154.2,168.2,153.5L168.2,153.5z
		 M168.7,153.5c0,0.6,0.1,1,0.2,1.2c0.1,0.2,0.3,0.3,0.5,0.3c0.2,0,0.4-0.1,0.5-0.3c0.1-0.2,0.2-0.6,0.2-1.2c0-0.6-0.1-1-0.2-1.2
		c-0.1-0.2-0.3-0.3-0.5-0.3c-0.2,0-0.4,0.1-0.5,0.3C168.8,152.5,168.7,152.9,168.7,153.5L168.7,153.5z M171.2,153.5
		c0-0.4,0-0.8,0.1-1.1s0.2-0.5,0.4-0.6c0.2-0.1,0.4-0.2,0.7-0.2c0.2,0,0.4,0,0.5,0.1s0.3,0.2,0.4,0.4s0.2,0.3,0.2,0.6
		s0.1,0.5,0.1,0.9c0,0.4,0,0.8-0.1,1.1c-0.1,0.3-0.2,0.5-0.4,0.6c-0.2,0.1-0.4,0.2-0.7,0.2c-0.4,0-0.7-0.1-0.9-0.4
		C171.3,154.8,171.2,154.2,171.2,153.5L171.2,153.5z M171.7,153.5c0,0.6,0.1,1,0.2,1.2s0.3,0.3,0.5,0.3c0.2,0,0.4-0.1,0.5-0.3
		c0.1-0.2,0.2-0.6,0.2-1.2c0-0.6-0.1-1-0.2-1.2c-0.1-0.2-0.3-0.3-0.5-0.3c-0.2,0-0.4,0.1-0.5,0.3
		C171.7,152.5,171.7,152.9,171.7,153.5L171.7,153.5z M174.1,153.5c0-0.4,0-0.8,0.1-1.1c0.1-0.3,0.2-0.5,0.4-0.6
		c0.2-0.1,0.4-0.2,0.7-0.2c0.2,0,0.4,0,0.5,0.1c0.2,0.1,0.3,0.2,0.4,0.4c0.1,0.2,0.2,0.3,0.2,0.6s0.1,0.5,0.1,0.9
		c0,0.4,0,0.8-0.1,1.1c-0.1,0.3-0.2,0.5-0.4,0.6c-0.2,0.1-0.4,0.2-0.7,0.2c-0.4,0-0.7-0.1-0.9-0.4
		C174.3,154.8,174.1,154.2,174.1,153.5L174.1,153.5z M174.6,153.5c0,0.6,0.1,1,0.2,1.2s0.3,0.3,0.5,0.3c0.2,0,0.4-0.1,0.5-0.3
		c0.1-0.2,0.2-0.6,0.2-1.2c0-0.6-0.1-1-0.2-1.2c-0.1-0.2-0.3-0.3-0.5-0.3c-0.2,0-0.4,0.1-0.5,0.3
		C174.7,152.5,174.6,152.9,174.6,153.5L174.6,153.5z"/>
	<path d="M223.7,155.4h-0.5v-3c-0.1,0.1-0.3,0.2-0.4,0.3c-0.2,0.1-0.3,0.2-0.5,0.2v-0.4c0.3-0.1,0.5-0.3,0.7-0.4
		c0.2-0.2,0.3-0.3,0.4-0.5h0.3V155.4L223.7,155.4z M226.7,155.4h-0.5v-3c-0.1,0.1-0.3,0.2-0.4,0.3c-0.2,0.1-0.3,0.2-0.5,0.2v-0.4
		c0.3-0.1,0.5-0.3,0.7-0.4c0.2-0.2,0.3-0.3,0.4-0.5h0.3V155.4L226.7,155.4z M227.9,153.5c0-0.4,0-0.8,0.1-1.1s0.2-0.5,0.4-0.6
		c0.2-0.1,0.4-0.2,0.7-0.2c0.2,0,0.4,0,0.5,0.1c0.2,0.1,0.3,0.2,0.4,0.4c0.1,0.2,0.2,0.3,0.2,0.6c0.1,0.2,0.1,0.5,0.1,0.9
		c0,0.4,0,0.8-0.1,1.1c-0.1,0.3-0.2,0.5-0.4,0.6c-0.2,0.1-0.4,0.2-0.7,0.2c-0.4,0-0.7-0.1-0.9-0.4
		C228,154.8,227.9,154.2,227.9,153.5L227.9,153.5z M228.4,153.5c0,0.6,0.1,1,0.2,1.2c0.1,0.2,0.3,0.3,0.5,0.3c0.2,0,0.4-0.1,0.5-0.3
		s0.2-0.6,0.2-1.2c0-0.6-0.1-1-0.2-1.2c-0.1-0.2-0.3-0.3-0.5-0.3c-0.2,0-0.4,0.1-0.5,0.3C228.4,152.5,228.4,152.9,228.4,153.5
		L228.4,153.5z M230.8,153.5c0-0.4,0-0.8,0.1-1.1s0.2-0.5,0.4-0.6c0.2-0.1,0.4-0.2,0.7-0.2c0.2,0,0.4,0,0.5,0.1
		c0.2,0.1,0.3,0.2,0.4,0.4s0.2,0.3,0.2,0.6c0.1,0.2,0.1,0.5,0.1,0.9c0,0.4,0,0.8-0.1,1.1c-0.1,0.3-0.2,0.5-0.4,0.6
		c-0.2,0.1-0.4,0.2-0.7,0.2c-0.4,0-0.7-0.1-0.9-0.4C230.9,154.8,230.8,154.2,230.8,153.5L230.8,153.5z M231.3,153.5
		c0,0.6,0.1,1,0.2,1.2c0.1,0.2,0.3,0.3,0.5,0.3c0.2,0,0.4-0.1,0.5-0.3c0.1-0.2,0.2-0.6,0.2-1.2c0-0.6-0.1-1-0.2-1.2
		c-0.1-0.2-0.3-0.3-0.5-0.3s-0.4,0.1-0.5,0.3C231.4,152.5,231.3,152.9,231.3,153.5L231.3,153.5z"/>
	<path d="M280.4,155.4H280v-3c-0.1,0.1-0.3,0.2-0.4,0.3c-0.2,0.1-0.3,0.2-0.5,0.2v-0.4c0.3-0.1,0.5-0.3,0.7-0.4
		c0.2-0.2,0.3-0.3,0.4-0.5h0.3V155.4L280.4,155.4z M284.1,154.9v0.4h-2.5c0-0.1,0-0.2,0.1-0.3c0.1-0.2,0.2-0.3,0.3-0.5
		c0.1-0.2,0.3-0.4,0.6-0.6c0.4-0.3,0.7-0.6,0.8-0.8c0.1-0.2,0.2-0.4,0.2-0.6c0-0.2-0.1-0.3-0.2-0.5c-0.1-0.1-0.3-0.2-0.5-0.2
		c-0.2,0-0.4,0.1-0.5,0.2s-0.2,0.3-0.2,0.6l-0.5-0.1c0-0.4,0.2-0.6,0.4-0.8c0.2-0.2,0.5-0.3,0.9-0.3s0.6,0.1,0.9,0.3
		c0.2,0.2,0.3,0.5,0.3,0.7c0,0.1,0,0.3-0.1,0.4c-0.1,0.1-0.2,0.3-0.3,0.5c-0.1,0.2-0.4,0.4-0.7,0.7c-0.3,0.2-0.5,0.4-0.5,0.5
		c-0.1,0.1-0.1,0.2-0.2,0.3H284.1L284.1,154.9z M284.6,153.5c0-0.4,0-0.8,0.1-1.1c0.1-0.3,0.2-0.5,0.4-0.6c0.2-0.1,0.4-0.2,0.7-0.2
		c0.2,0,0.4,0,0.5,0.1c0.2,0.1,0.3,0.2,0.4,0.4s0.2,0.3,0.2,0.6c0.1,0.2,0.1,0.5,0.1,0.9c0,0.4,0,0.8-0.1,1.1
		c-0.1,0.3-0.2,0.5-0.4,0.6c-0.2,0.1-0.4,0.2-0.7,0.2c-0.4,0-0.7-0.1-0.9-0.4C284.7,154.8,284.6,154.2,284.6,153.5L284.6,153.5z
		 M285,153.5c0,0.6,0.1,1,0.2,1.2s0.3,0.3,0.5,0.3c0.2,0,0.4-0.1,0.5-0.3c0.1-0.2,0.2-0.6,0.2-1.2c0-0.6-0.1-1-0.2-1.2
		c-0.1-0.2-0.3-0.3-0.5-0.3c-0.2,0-0.4,0.1-0.5,0.3C285.1,152.5,285,152.9,285,153.5L285,153.5z M287.5,153.5c0-0.4,0-0.8,0.1-1.1
		c0.1-0.3,0.2-0.5,0.4-0.6c0.2-0.1,0.4-0.2,0.7-0.2c0.2,0,0.4,0,0.5,0.1c0.2,0.1,0.3,0.2,0.4,0.4c0.1,0.2,0.2,0.3,0.2,0.6
		c0.1,0.2,0.1,0.5,0.1,0.9c0,0.4,0,0.8-0.1,1.1c-0.1,0.3-0.2,0.5-0.4,0.6s-0.4,0.2-0.7,0.2c-0.4,0-0.7-0.1-0.9-0.4
		C287.6,154.8,287.5,154.2,287.5,153.5L287.5,153.5z M288,153.5c0,0.6,0.1,1,0.2,1.2c0.1,0.2,0.3,0.3,0.5,0.3c0.2,0,0.4-0.1,0.5-0.3
		c0.1-0.2,0.2-0.6,0.2-1.2c0-0.6-0.1-1-0.2-1.2c-0.1-0.2-0.3-0.3-0.5-0.3c-0.2,0-0.4,0.1-0.5,0.3C288.1,152.5,288,152.9,288,153.5
		L288,153.5z"/>
	<g>
		<defs>
			<rect id="SVGID_3_" x="1.5" width="340.2" height="163"/>
		</defs>
		<clipPath id="SVGID_4_">
			<use xlink:href="#SVGID_3_"  style="overflow:visible;"/>
		</clipPath>
		<polyline class="st3" points="1.5,149.1 2.8,149.1 4.1,149.1 5.5,149.1 6.8,149.1 8.1,149.1 9.4,149.1 10.8,149.1 12.1,149.1 
			13.4,149.1 14.8,149.1 16.1,149.1 17.4,149.1 18.7,149.1 20.1,149.1 21.4,149.1 22.7,149.1 24.1,149.1 25.4,149.1 26.7,149.1 
			28,149.1 29.4,149.1 30.7,149.1 32,149.1 33.4,149.1 34.7,149.1 36,149.1 37.3,149.1 38.7,149.1 40,149.1 41.3,149.1 42.7,149.1 
			44,149.1 45.3,149.1 46.6,149.1 48,149.1 49.3,149 50.6,149 52,149 53.3,149 54.6,149 55.9,149 57.3,149 58.6,149 59.9,149 
			61.3,149 62.6,149 63.9,148.9 65.2,148.9 66.6,148.9 67.9,148.9 69.2,148.8 70.6,148.8 71.9,148.7 73.2,148.7 74.5,148.6 
			75.9,148.5 77.2,148.4 78.5,148.3 79.9,148.2 81.2,148.1 82.5,147.9 83.9,147.7 85.2,147.5 86.5,147.3 87.8,147 89.2,146.7 
			90.5,146.4 91.8,146 93.2,145.6 94.5,145.1 95.8,144.6 97.1,144 98.5,143.4 99.8,142.7 101.1,141.9 102.5,141.1 103.8,140.1 
			105.1,139.1 106.4,138 107.8,136.8 109.1,135.5 110.4,134 111.8,132.5 113.1,130.8 114.4,129.1 115.7,127.2 117.1,125.1 
			118.4,123 119.7,120.7 121.1,118.2 122.4,115.7 123.7,113 125,110.1 125.7,108.7 126.4,107.2 127,105.7 127.7,104.1 128.4,102.5 
			129,100.9 129.7,99.2 130.4,97.6 131,95.8 131.7,94.1 132.3,92.4 133,90.6 133.7,88.8 134.3,87 135,85.1 135.7,83.2 136.3,81.4 
			137,79.5 137.7,77.6 138.3,75.6 139,73.7 139.7,71.8 140.3,69.8 141,67.9 141.7,65.9 142.3,64 143,62 143.6,60.1 144.3,58.1 
			145,56.2 145.6,54.3 146.3,52.3 147,50.5 147.6,48.6 148.3,46.7 149,44.9 149.6,43.1 150.3,41.3 151,39.6 151.6,37.8 152.3,36.2 
			152.9,34.5 153.6,32.9 154.3,31.4 154.9,29.8 155.6,28.4 156.9,25.6 158.3,23 159.6,20.7 160.9,18.6 162.2,16.7 163.6,15.1 
			164.9,13.8 166.2,12.8 167.6,12.1 168.2,11.9 168.9,11.7 170.2,11.6 170.9,11.6 171.5,11.8 172.9,12.2 173.5,12.6 174.2,13 
			175.5,14.1 176.9,15.4 178.2,17.1 179.5,19 180.8,21.1 182.2,23.5 183.5,26.2 184.8,29 185.5,30.5 186.2,32 186.8,33.6 
			187.5,35.2 188.2,36.9 188.8,38.6 189.5,40.3 190.1,42.1 190.8,43.8 191.5,45.7 192.1,47.5 192.8,49.4 193.5,51.2 194.1,53.1 
			194.8,55.1 195.5,57 196.1,58.9 196.8,60.9 197.5,62.8 198.1,64.8 198.8,66.7 199.5,68.7 200.1,70.6 200.8,72.6 201.4,74.5 
			202.1,76.4 202.8,78.4 203.4,80.3 204.1,82.2 204.8,84 205.4,85.9 206.1,87.7 206.8,89.5 207.4,91.3 208.1,93.1 208.8,94.8 
			209.4,96.6 210.1,98.3 210.7,99.9 211.4,101.6 212.1,103.2 212.7,104.8 213.4,106.3 214.1,107.8 215.4,110.8 216.7,113.6 
			218.1,116.2 219.4,118.8 220.7,121.2 222,123.4 223.4,125.6 224.7,127.6 226,129.5 227.4,131.2 228.7,132.8 230,134.4 
			231.3,135.8 232.7,137.1 234,138.2 235.3,139.3 236.7,140.3 238,141.3 239.3,142.1 240.6,142.9 242,143.5 243.3,144.2 
			244.6,144.7 246,145.2 247.3,145.7 248.6,146.1 249.9,146.5 251.3,146.8 252.6,147.1 253.9,147.3 255.3,147.6 256.6,147.8 
			257.9,147.9 259.2,148.1 260.6,148.2 261.9,148.3 263.2,148.4 264.6,148.5 265.9,148.6 267.2,148.7 268.5,148.7 269.9,148.8 
			271.2,148.8 272.5,148.9 273.9,148.9 275.2,148.9 276.5,148.9 277.8,149 279.2,149 280.5,149 281.8,149 283.2,149 284.5,149 
			285.8,149 287.1,149 288.5,149 289.8,149 291.1,149 292.5,149.1 293.8,149.1 295.1,149.1 296.4,149.1 297.8,149.1 299.1,149.1 
			300.4,149.1 301.8,149.1 303.1,149.1 304.4,149.1 305.8,149.1 307.1,149.1 308.4,149.1 309.7,149.1 311.1,149.1 312.4,149.1 
			313.7,149.1 315.1,149.1 316.4,149.1 317.7,149.1 319,149.1 320.4,149.1 321.7,149.1 323,149.1 324.4,149.1 325.7,149.1 
			327,149.1 328.3,149.1 329.7,149.1 331,149.1 332.3,149.1 333.7,149.1 335,149.1 336.3,149.1 337.6,149.1 339,149.1 340.3,149.1 
			341.6,149.1 		"/>
	</g>
</g>
</svg>
