<?xml version="1.0" encoding="utf-8"?>
<!-- Generator: Adobe Illustrator 22.1.0, SVG Export Plug-In . SVG Version: 6.00 Build 0)  -->
<svg version="1.1" id="Calque_1" xmlns="http://www.w3.org/2000/svg" xmlns:xlink="http://www.w3.org/1999/xlink" x="0px" y="0px"
	 viewBox="0 0 488.8 303.7" style="enable-background:new 0 0 488.8 303.7;" xml:space="preserve">
<style type="text/css">
	.st0{clip-path:url(#SVGID_2_);fill:#FFFFFF;}
	.st1{clip-path:url(#SVGID_2_);fill:none;stroke:#C0C0C0;stroke-linecap:round;stroke-linejoin:round;stroke-miterlimit:10;}
	.st2{clip-path:url(#SVGID_2_);fill:none;stroke:#000000;stroke-miterlimit:10;}
	.st3{clip-path:url(#SVGID_4_);}
	.st4{clip-path:url(#SVGID_4_);fill:#E6F5E6;}
	
		.st5{clip-path:url(#SVGID_4_);fill:none;stroke:#009900;stroke-width:0.5;stroke-linecap:round;stroke-linejoin:round;stroke-miterlimit:10;}
	.st6{clip-path:url(#SVGID_4_);fill:none;stroke:#4D4DFF;stroke-linecap:round;stroke-linejoin:round;stroke-miterlimit:10;}
	.st7{clip-path:url(#SVGID_4_);fill:none;stroke:#FF4D4D;stroke-linecap:round;stroke-linejoin:round;stroke-miterlimit:10;}
	.st8{fill:#0000FF;}
	.st9{fill:none;stroke:#000000;stroke-linecap:round;stroke-linejoin:round;stroke-miterlimit:10;}
	.st10{fill:#FF0000;}
</style>
<g>
	<g>
		<defs>
			<rect id="SVGID_1_" x="2.5" y="25.6" width="483.8" height="274"/>
		</defs>
		<clipPath id="SVGID_2_">
			<use xlink:href="#SVGID_1_"  style="overflow:visible;"/>
		</clipPath>
		<polygon class="st0" points="2.5,25.6 486.3,25.6 486.3,300.2 2.5,300.2 2.5,25.6 		"/>
		<path class="st1" d="M109.9,25.6v274.6 M195,25.6v274.6 M280,25.6v274.6 M365.1,25.6v274.6 M450.1,25.6v274.6 M2.5,59.9h483.8
			 M2.5,59.9h483.8 M2.5,144.9h483.8"/>
		<path class="st2" d="M24.9,26.6v273.6 M24.9,26.1l-3,3 M24.9,26.1l3,3 M2.5,230h482.8 M485.8,230l-3-3 M485.8,230l-3,3"/>
	</g>
	<path d="M111.2,240.8h-0.8v-5.1c-0.2,0.2-0.4,0.4-0.8,0.5c-0.3,0.2-0.6,0.3-0.8,0.4v-0.8c0.4-0.2,0.8-0.5,1.2-0.8
		c0.3-0.3,0.6-0.6,0.7-0.9h0.5V240.8L111.2,240.8z"/>
	<path d="M197.6,240v0.8h-4.3c0-0.2,0-0.4,0.1-0.6c0.1-0.3,0.3-0.6,0.5-0.9c0.2-0.3,0.6-0.6,1-1c0.7-0.6,1.2-1,1.4-1.4
		c0.2-0.3,0.4-0.7,0.4-1c0-0.3-0.1-0.6-0.3-0.8c-0.2-0.2-0.5-0.3-0.9-0.3c-0.4,0-0.7,0.1-0.9,0.3c-0.2,0.2-0.3,0.5-0.4,1l-0.8-0.1
		c0.1-0.6,0.3-1.1,0.6-1.4c0.4-0.3,0.9-0.5,1.5-0.5c0.6,0,1.1,0.2,1.5,0.5c0.4,0.3,0.5,0.8,0.5,1.3c0,0.3-0.1,0.5-0.2,0.8
		c-0.1,0.3-0.3,0.5-0.5,0.8c-0.2,0.3-0.7,0.7-1.2,1.1c-0.5,0.4-0.8,0.7-0.9,0.8c-0.1,0.1-0.2,0.3-0.3,0.4H197.6L197.6,240z"/>
	<path d="M278.6,239.1l0.8-0.1c0.1,0.5,0.2,0.8,0.5,1c0.2,0.2,0.5,0.3,0.8,0.3c0.4,0,0.7-0.1,1-0.4c0.3-0.3,0.4-0.6,0.4-1
		c0-0.4-0.1-0.7-0.4-0.9c-0.2-0.2-0.5-0.4-0.9-0.4c-0.2,0-0.3,0-0.6,0.1l0.1-0.7c0.1,0,0.1,0,0.1,0c0.3,0,0.6-0.1,0.9-0.3
		c0.3-0.2,0.4-0.5,0.4-0.8c0-0.3-0.1-0.5-0.3-0.7c-0.2-0.2-0.5-0.3-0.8-0.3s-0.6,0.1-0.8,0.3c-0.2,0.2-0.3,0.5-0.4,0.9l-0.8-0.1
		c0.1-0.5,0.3-1,0.7-1.2c0.3-0.3,0.8-0.4,1.3-0.4c0.4,0,0.7,0.1,1,0.2c0.3,0.2,0.5,0.4,0.7,0.6c0.2,0.3,0.2,0.5,0.2,0.8
		c0,0.3-0.1,0.5-0.2,0.8c-0.1,0.2-0.4,0.4-0.7,0.5c0.4,0.1,0.7,0.3,0.9,0.6c0.2,0.3,0.3,0.6,0.3,1c0,0.6-0.2,1-0.6,1.4
		s-0.9,0.6-1.6,0.6c-0.6,0-1-0.2-1.4-0.5C278.8,240,278.6,239.6,278.6,239.1L278.6,239.1z"/>
	<path d="M365.8,240.8v-1.6H363v-0.7l3-4.2h0.7v4.2h0.9v0.7h-0.9v1.6H365.8L365.8,240.8z M365.8,238.5v-2.9l-2,2.9H365.8
		L365.8,238.5z"/>
	<path d="M448.4,239.1l0.8-0.1c0.1,0.4,0.2,0.7,0.4,0.9c0.2,0.2,0.5,0.3,0.8,0.3c0.4,0,0.7-0.1,1-0.4c0.3-0.3,0.4-0.7,0.4-1.2
		c0-0.5-0.1-0.8-0.4-1.1c-0.3-0.3-0.6-0.4-1-0.4c-0.3,0-0.5,0.1-0.7,0.2c-0.2,0.1-0.4,0.3-0.5,0.5l-0.7-0.1l0.6-3.3h3.2v0.8h-2.6
		l-0.4,1.7c0.4-0.3,0.8-0.4,1.2-0.4c0.6,0,1,0.2,1.4,0.6c0.4,0.4,0.6,0.9,0.6,1.5c0,0.6-0.2,1.1-0.5,1.5c-0.4,0.5-1,0.8-1.7,0.8
		c-0.6,0-1.1-0.2-1.4-0.5C448.6,240.1,448.4,239.6,448.4,239.1L448.4,239.1z"/>
	<path d="M19,148.6h-0.8v-5.1c-0.2,0.2-0.4,0.4-0.8,0.5c-0.3,0.2-0.6,0.3-0.8,0.4v-0.8c0.4-0.2,0.8-0.5,1.2-0.8
		c0.3-0.3,0.6-0.6,0.7-0.9H19V148.6L19,148.6z"/>
	<path d="M20.2,63.1v0.8h-4.3c0-0.2,0-0.4,0.1-0.6c0.1-0.3,0.3-0.6,0.5-0.9c0.2-0.3,0.6-0.6,1-1c0.7-0.6,1.2-1,1.4-1.4
		c0.2-0.3,0.4-0.7,0.4-1c0-0.3-0.1-0.6-0.3-0.8c-0.2-0.2-0.5-0.3-0.9-0.3c-0.4,0-0.7,0.1-0.9,0.3c-0.2,0.2-0.3,0.5-0.4,1L16,59.3
		c0.1-0.6,0.3-1.1,0.6-1.4c0.4-0.3,0.9-0.5,1.5-0.5s1.1,0.2,1.5,0.5c0.4,0.3,0.5,0.8,0.5,1.3c0,0.3-0.1,0.5-0.2,0.8
		s-0.3,0.5-0.5,0.8c-0.2,0.3-0.7,0.7-1.2,1.1c-0.5,0.4-0.8,0.7-0.9,0.8c-0.1,0.1-0.2,0.3-0.3,0.4H20.2L20.2,63.1z"/>
	<g>
		<defs>
			<rect id="SVGID_3_" x="2.5" y="25.6" width="483.8" height="274"/>
		</defs>
		<clipPath id="SVGID_4_">
			<use xlink:href="#SVGID_3_"  style="overflow:visible;"/>
		</clipPath>
		<path class="st3" d="M16,237.6c0-0.8,0.1-1.4,0.2-1.9s0.4-0.8,0.7-1.1c0.3-0.3,0.7-0.4,1.2-0.4c0.3,0,0.7,0.1,0.9,0.2
			c0.3,0.1,0.5,0.3,0.6,0.6c0.2,0.3,0.3,0.6,0.4,1c0.1,0.4,0.1,0.9,0.1,1.5c0,0.8-0.1,1.4-0.2,1.8c-0.2,0.5-0.4,0.8-0.7,1.1
			c-0.3,0.3-0.7,0.4-1.2,0.4c-0.6,0-1.1-0.2-1.5-0.7C16.2,239.7,16,238.8,16,237.6L16,237.6z M16.8,237.6c0,1.1,0.1,1.8,0.4,2.1
			c0.2,0.4,0.6,0.5,0.9,0.5c0.4,0,0.7-0.2,0.9-0.5c0.3-0.4,0.4-1.1,0.4-2.1s-0.1-1.8-0.4-2.1c-0.3-0.4-0.6-0.5-0.9-0.5
			c-0.4,0-0.7,0.2-0.9,0.5C17,235.8,16.8,236.5,16.8,237.6L16.8,237.6z"/>
		<polyline class="st4" points="132.2,62.4 132.5,62.4 132.9,62.5 133.2,62.6 133.4,0.3 133.4,62.6 133.5,74.3 133.5,62.7 
			133.9,62.7 134.2,62.8 134.5,62.9 134.9,63 135.2,63 135.5,63.1 135.9,63.2 136.2,63.3 136.5,63.3 136.8,63.4 137.2,63.5 
			137.5,63.6 137.8,63.7 138.2,63.7 138.5,63.8 138.8,63.9 139.2,64 139.5,64.1 139.8,64.2 140.2,64.3 140.5,64.3 140.8,64.4 
			141.2,64.5 141.5,64.6 141.8,64.7 142.2,64.8 142.5,64.9 142.8,65 143.2,65.1 143.5,65.2 143.8,65.3 144.2,65.3 144.5,65.4 
			144.8,65.5 145.2,65.6 145.5,65.7 145.8,65.8 146.2,65.9 146.5,66 146.8,66.1 147.1,66.2 147.5,66.3 147.8,66.4 148.1,66.5 
			148.5,66.6 148.8,66.7 149.1,66.8 149.5,67 149.8,67.1 150.1,67.2 150.5,67.3 150.8,67.4 151.1,67.5 151.5,67.6 151.8,67.7 
			152.1,67.8 152.5,67.9 152.8,68 153.1,68.2 153.5,68.3 153.8,68.4 154.1,68.5 154.5,68.6 154.8,68.7 155.1,68.8 155.5,68.9 
			155.8,69.1 156.1,69.2 156.4,69.3 156.8,69.4 157.1,69.5 157.4,69.7 157.8,69.8 158.1,69.9 158.4,70 158.8,70.1 159.1,70.3 
			159.4,70.4 159.8,70.5 160.1,70.6 160.4,70.7 160.8,70.9 161.1,71 161.4,71.1 161.8,71.2 162.1,71.4 162.4,71.5 162.8,71.6 
			163.1,71.8 163.4,71.9 163.8,72 164.1,72.1 164.4,72.3 164.8,72.4 165.1,72.5 165.4,72.7 165.7,72.8 166.1,72.9 166.4,73.1 
			166.7,73.2 167.1,73.3 167.4,73.5 167.7,73.6 168.1,73.7 168.4,73.9 168.7,74 169.1,74.1 169.4,74.3 169.7,74.4 170.1,74.5 
			170.4,74.7 170.7,74.8 171.1,75 171.4,75.1 171.7,75.2 172.1,75.4 172.4,75.5 172.7,75.7 173.1,75.8 173.4,75.9 173.7,76.1 
			174.1,76.2 174.4,76.4 174.7,76.5 175.1,76.7 175.4,76.8 175.7,76.9 176,77.1 176.4,77.2 176.7,77.4 177,77.5 177.4,77.7 
			177.7,77.8 178,78 178.4,78.1 178.7,78.3 179,78.4 179.4,78.6 179.7,78.7 180,78.9 180.4,79 180.7,79.2 181,79.3 181.4,79.5 
			181.7,79.6 182,79.8 182.4,79.9 182.7,80.1 183,80.2 183.4,80.4 183.7,80.5 184,80.7 184.4,80.8 184.7,81 185,81.2 185.3,81.3 
			185.7,81.5 186,81.6 186.3,81.8 186.7,81.9 187,82.1 187.3,82.3 187.7,82.4 188,82.6 188.3,82.7 188.7,82.9 189,83 189.3,83.2 
			189.7,83.4 190,83.5 190.3,83.7 190.7,83.9 191,84 191.3,84.2 191.7,84.3 192,84.5 192.3,84.7 192.7,84.8 193,85 193.3,85.2 
			193.7,85.3 194,85.5 194.3,85.7 194.6,85.8 195,86 195,230 109.9,230 		"/>
		<polyline class="st5" points="132.2,62.4 132.5,62.4 132.9,62.5 133.2,62.6 133.4,0.3 133.4,62.6 133.5,74.3 133.5,62.7 
			133.9,62.7 134.2,62.8 134.5,62.9 134.9,63 135.2,63 135.5,63.1 135.9,63.2 136.2,63.3 136.5,63.3 136.8,63.4 137.2,63.5 
			137.5,63.6 137.8,63.7 138.2,63.7 138.5,63.8 138.8,63.9 139.2,64 139.5,64.1 139.8,64.2 140.2,64.3 140.5,64.3 140.8,64.4 
			141.2,64.5 141.5,64.6 141.8,64.7 142.2,64.8 142.5,64.9 142.8,65 143.2,65.1 143.5,65.2 143.8,65.3 144.2,65.3 144.5,65.4 
			144.8,65.5 145.2,65.6 145.5,65.7 145.8,65.8 146.2,65.9 146.5,66 146.8,66.1 147.1,66.2 147.5,66.3 147.8,66.4 148.1,66.5 
			148.5,66.6 148.8,66.7 149.1,66.8 149.5,67 149.8,67.1 150.1,67.2 150.5,67.3 150.8,67.4 151.1,67.5 151.5,67.6 151.8,67.7 
			152.1,67.8 152.5,67.9 152.8,68 153.1,68.2 153.5,68.3 153.8,68.4 154.1,68.5 154.5,68.6 154.8,68.7 155.1,68.8 155.5,68.9 
			155.8,69.1 156.1,69.2 156.4,69.3 156.8,69.4 157.1,69.5 157.4,69.7 157.8,69.8 158.1,69.9 158.4,70 158.8,70.1 159.1,70.3 
			159.4,70.4 159.8,70.5 160.1,70.6 160.4,70.7 160.8,70.9 161.1,71 161.4,71.1 161.8,71.2 162.1,71.4 162.4,71.5 162.8,71.6 
			163.1,71.8 163.4,71.9 163.8,72 164.1,72.1 164.4,72.3 164.8,72.4 165.1,72.5 165.4,72.7 165.7,72.8 166.1,72.9 166.4,73.1 
			166.7,73.2 167.1,73.3 167.4,73.5 167.7,73.6 168.1,73.7 168.4,73.9 168.7,74 169.1,74.1 169.4,74.3 169.7,74.4 170.1,74.5 
			170.4,74.7 170.7,74.8 171.1,75 171.4,75.1 171.7,75.2 172.1,75.4 172.4,75.5 172.7,75.7 173.1,75.8 173.4,75.9 173.7,76.1 
			174.1,76.2 174.4,76.4 174.7,76.5 175.1,76.7 175.4,76.8 175.7,76.9 176,77.1 176.4,77.2 176.7,77.4 177,77.5 177.4,77.7 
			177.7,77.8 178,78 178.4,78.1 178.7,78.3 179,78.4 179.4,78.6 179.7,78.7 180,78.9 180.4,79 180.7,79.2 181,79.3 181.4,79.5 
			181.7,79.6 182,79.8 182.4,79.9 182.7,80.1 183,80.2 183.4,80.4 183.7,80.5 184,80.7 184.4,80.8 184.7,81 185,81.2 185.3,81.3 
			185.7,81.5 186,81.6 186.3,81.8 186.7,81.9 187,82.1 187.3,82.3 187.7,82.4 188,82.6 188.3,82.7 188.7,82.9 189,83 189.3,83.2 
			189.7,83.4 190,83.5 190.3,83.7 190.7,83.9 191,84 191.3,84.2 191.7,84.3 192,84.5 192.3,84.7 192.7,84.8 193,85 193.3,85.2 
			193.7,85.3 194,85.5 194.3,85.7 194.6,85.8 195,86 195,230 109.9,230 		"/>
		<path class="st6" d="M26.7,303.2L26.7,303.2l0.1-2.6l0,0l0,0l0.1-2.6l0,0l0.1-4.9l0.1-4.6l0.1-4.4l0.1-4.1l0.1-3.9l0.1-3.7
			l0.1-3.6l0.1-3.4l0.1-3.3l0.1-3.2l0.1-3l0.1-2.9l0.1-2.8l0.1-2.7l0.1-2.6l0.1-2.5l0.2-4.8l0.2-4.6l0.2-4.3l0.2-4.1l0.2-3.9
			l0.2-3.7l0.2-3.5l0.2-3.3l0.2-3.2l0.2-3.1l0.2-2.9l0.2-2.8l0.2-2.7l0.2-2.6l0.2-2.5l0.5-4.8 M32.8,185.3l0.5-4.5l0.5-4.2l0.5-4
			l0.5-3.8l0.5-3.6l0.5-3.4l0.5-3.2l0.5-3.1l0.5-2.9l0.5-2.8l0.5-2.7l0.5-2.6l0.9-4.8l0.9-4.4l0.9-4.1l0.9-3.8l0.9-3.6l0.9-3.3
			l0.9-3.1l0.9-3l0.9-2.8l0.9-2.6l1.9-4.8l1.9-4.3l1.9-3.9l1.9-3.5l1.9-3.2l1.9-2.9l1.9-2.7l1.9-2.4 M63,81.2l1.9-2.2l1.9-2l1.9-1.9
			l1.9-1.7l1.9-1.6l1.9-1.4l1.9-1.3l1.9-1.2l1.9-1.1l1.9-1l1.9-0.9l1.9-0.8l1.9-0.7l1.9-0.6l1.9-0.6l1.9-0.5l1.9-0.4L97,61l1.9-0.3
			l1.9-0.3l1.9-0.2l1.9-0.2l1.9-0.1l1.9-0.1l1.9,0l1.9,0L114,60l1.9,0.1l1.9,0.1l1.9,0.2l1.9,0.2l1.9,0.2 M123.5,60.9l1.9,0.3
			l1.9,0.3l1.9,0.3l1.9,0.4l1.9,0.4l1.9,0.4l1.9,0.4l1.9,0.5l1.9,0.5l1.9,0.5l1.9,0.5l1.9,0.6l1.9,0.6l1.9,0.6l1.9,0.6l1.9,0.6
			l1.9,0.7l1.9,0.7l1.9,0.7l1.9,0.7l1.9,0.7l1.9,0.7l1.9,0.8l1.9,0.8l1.9,0.8l1.9,0.8l1.9,0.8l1.9,0.8l1.9,0.8l1.9,0.8l1.9,0.9
			l1.9,0.9l1.9,0.9l1.9,0.9l1.9,0.9l1.9,0.9l1.9,0.9l1.9,0.9l1.9,1l1.9,1l1.9,1l1.9,1l1.9,1l1.9,1l1.9,1l1.9,1l1.9,1l1.9,1l1.9,1
			l1.9,1.1l1.9,1.1l1.9,1.1l1.9,1.1l1.9,1.1l1.9,1.1l1.9,1.1l1.9,1.1l1.9,1.1l1.9,1.1l1.9,1.1l1.9,1.1l1.9,1.1l1.9,1.1l1.9,1.2
			 M244.4,113.7l1.9,1.2l1.9,1.2l1.9,1.2l1.9,1.2l1.9,1.2l1.9,1.2l1.9,1.2l1.9,1.2l1.9,1.2l1.9,1.2l1.9,1.2l1.9,1.2l1.9,1.2l1.9,1.2
			l1.9,1.2l1.9,1.2l1.9,1.2l1.9,1.3l1.9,1.3l1.9,1.3l1.9,1.3l1.9,1.3l1.9,1.3l1.9,1.3l1.9,1.3l1.9,1.3l1.9,1.3l1.9,1.3l1.9,1.3
			l1.9,1.3l1.9,1.3l1.9,1.3l1.9,1.3l1.9,1.3l1.9,1.3l1.9,1.3l1.9,1.3l1.9,1.3l1.9,1.3l1.9,1.3l1.9,1.3l1.9,1.4l1.9,1.4l1.9,1.4
			l1.9,1.4l1.9,1.4l1.9,1.4l1.9,1.4l1.9,1.4l1.9,1.4l1.9,1.4l1.9,1.4l1.9,1.4l1.9,1.4l1.9,1.4l1.9,1.4l1.9,1.4l1.9,1.4l1.9,1.4
			l1.9,1.4l1.9,1.4l1.9,1.4l1.9,1.4l1.9,1.4 M365.4,197.3l1.9,1.4l1.9,1.4l1.9,1.4l1.9,1.4l1.9,1.4l1.9,1.4l1.9,1.4l1.9,1.4l1.9,1.4
			l1.9,1.4l1.9,1.4l1.9,1.4l1.9,1.4l1.9,1.5l1.9,1.5l1.9,1.5l1.9,1.5l1.9,1.5l1.9,1.5l1.9,1.5l1.9,1.5l1.9,1.5l1.9,1.5l1.9,1.5
			l1.9,1.5l1.9,1.5l1.9,1.5l1.9,1.5l1.9,1.5l1.9,1.5l1.9,1.5l1.9,1.5 M425.8,243.9l1.9,1.5l1.9,1.5l1.9,1.5l1.9,1.5l1.9,1.5l1.9,1.5
			l1.9,1.5l1.9,1.5 M440.9,255.9l1.9,1.5l1.9,1.5l1.9,1.5l1.9,1.5 M448.5,261.9l1.6,1.3"/>
		<line class="st7" x1="0" y1="59.9" x2="488.8" y2="59.9"/>
	</g>
	<path class="st8" d="M111,59.9c0,0.6-0.5,1-1,1c-0.6,0-1-0.5-1-1c0-0.6,0.5-1,1-1C110.5,58.9,111,59.3,111,59.9L111,59.9z"/>
	<path class="st9" d="M111,59.9c0,0.6-0.5,1-1,1c-0.6,0-1-0.5-1-1c0-0.6,0.5-1,1-1C110.5,58.9,111,59.3,111,59.9L111,59.9z"/>
	<path class="st8" d="M112.9,53.8l3.3-8.7h1.2l3.5,8.7h-1.3l-1-2.6H115l-1,2.6H112.9L112.9,53.8z M115.4,50.3h2.9l-0.9-2.4
		c-0.3-0.7-0.5-1.3-0.6-1.8c-0.1,0.6-0.3,1.1-0.5,1.7L115.4,50.3L115.4,50.3z"/>
	<path class="st8" d="M407.3,258.1c0,0.1,0,0.2,0,0.2l0,0l0,0l0,0c-0.1,0.1-0.2,0.2-0.2,0.2s0-0.1,0-0.2c-0.3-0.1-0.4-0.3-0.4-0.5
		c0-0.2,0.1-0.5,0.4-1c0.3-0.4,0.6-0.8,1.1-1.1c0.4-0.3,0.8-0.4,1.1-0.4c0.7,0,1.1,0.3,1.3,0.9c0,0.1,0,0.2,0,0.2
		c0,0.6-0.2,1.1-0.6,1.7c-0.3,0.4-0.7,0.8-1.3,1.1s-1.1,0.4-1.7,0.4c-0.6,0-1-0.1-1.4-0.4c-0.4-0.3-0.5-0.6-0.5-1.1c0,0,0-0.1,0-0.2
		c0-1,0.4-2.1,1.3-3.2H406c-1.3,0-2.2-0.3-2.8-0.9c-0.1-0.3-0.2-0.6-0.2-1.1c0-0.3,0.1-0.6,0.4-1.1s0.7-0.8,1.3-1.1
		c0.7-0.3,1.3-0.4,1.9-0.4c0.1,0,0.2,0,0.2,0s-0.1,0.1-0.2,0.2l0,0c-0.6,0-1.1,0.1-1.5,0.4c-0.4,0.3-0.8,0.6-1.1,0.9
		c-0.3,0.4-0.4,0.9-0.4,1.3c0,0.3,0.1,0.5,0.2,0.6c0.3,0.4,1,0.6,2.1,0.6c0.1,0,0.3,0,0.4,0c0.9-1.3,1.9-2.3,3.2-3.2
		c1.3-1,2.3-1.5,3-1.5c0.6,0,0.9,0.3,1.1,0.9l0,0c0,0.4-0.1,0.9-0.4,1.3c-0.6,0.9-1.6,1.6-3,2.1c-0.9,0.3-1.8,0.5-2.8,0.6
		c-1.1,1.6-1.7,2.8-1.7,3.6l0,0c0,0.4,0.1,0.7,0.3,1c0.2,0.2,0.5,0.3,1,0.3c0.3,0,0.6-0.1,1.1-0.4c0.4-0.3,0.8-0.6,1.1-1.1
		c0.4-0.7,0.6-1.2,0.6-1.5v-0.2c0-0.3-0.2-0.4-0.6-0.4c-0.3,0-0.6,0.1-0.9,0.3c-0.3,0.2-0.6,0.5-0.9,1c-0.3,0.3-0.4,0.5-0.4,0.6
		C407.1,258,407.2,258.1,407.3,258.1L407.3,258.1z M407.3,258.3L407.3,258.3L407.3,258.3L407.3,258.3L407.3,258.3L407.3,258.3z
		 M412.6,250c-0.6,0-1.3,0.4-2.3,1.3c-0.7,0.7-1.6,1.6-2.6,2.8c0.9,0,1.6-0.1,2.3-0.4c1.3-0.6,2.2-1.2,2.8-1.9
		c0.3-0.4,0.4-0.9,0.4-1.3l0,0C413.3,250.2,413.1,250,412.6,250L412.6,250z"/>
	<path class="st8" d="M415.1,259.6L415.1,259.6l-0.4,3.1c-0.1,0.4-0.2,0.8-0.4,1.3c0,0.2,0,0.3-0.1,0.4c-0.2,0.5-0.5,0.8-0.9,0.9
		c0,0,0,0-0.1,0c-0.3,0-0.5-0.1-0.7-0.3c-0.1-0.1-0.1-0.2-0.1-0.3c0-0.3,0.1-0.5,0.4-0.6c0,0,0,0,0.1,0c0.2,0,0.3,0,0.3,0.1
		c0,0.1,0,0.1,0,0.1c0,0.2-0.1,0.3-0.3,0.4c0,0,0,0-0.1,0.1c0.1,0.1,0.2,0.1,0.4,0.1c0.3,0,0.5-0.3,0.6-1c0.1-0.1,0.1-0.2,0.1-0.4
		v-0.3l0.7-3.9h-0.6c-0.2,0-0.3,0-0.3,0l0,0l0,0c0-0.1,0-0.2,0.1-0.3l0,0h0.1h0.7c0.1-0.8,0.2-1.3,0.3-1.5c0.2-0.6,0.5-0.9,0.9-1
		c0.1,0,0.2,0,0.3,0c0.3,0,0.5,0.1,0.7,0.3l0,0c0,0.1,0,0.2,0,0.3c0,0.3-0.1,0.5-0.3,0.6c0,0,0,0-0.1,0c-0.2,0-0.3,0-0.3-0.1
		c-0.1-0.1-0.1-0.1-0.1-0.1c0-0.2,0.1-0.3,0.3-0.4c0.1,0,0.2,0,0.3-0.1c-0.1-0.1-0.2-0.1-0.4-0.1c-0.2,0-0.3,0.1-0.4,0.3
		c-0.1,0.1-0.2,0.4-0.3,1l-0.1,1h0.7c0.2,0,0.3,0,0.3,0.1c0,0.1,0,0.1-0.1,0.1l0,0H416H415.1L415.1,259.6z"/>
	<path class="st10" d="M432.8,68.3c0,0,0,0.1,0,0.2l0,0c-0.3,0-0.5,0.1-0.6,0.2c0,0.1,0,0.4,0,0.6c0,1-0.4,2.1-1.1,3.4
		c-0.3,0.9-0.7,1.6-1.4,2.1c-0.6,0.6-1.3,1-2,1.3c-0.4,0.1-0.8,0.2-1.1,0.2s-0.8-0.1-1.5-0.4c-0.3,0.1-0.6,0.2-0.9,0.2h-0.4
		c-1.1,0-1.7-0.1-1.7-0.4l0,0c0.3-0.3,0.9-0.4,1.7-0.4l0,0c0.4,0,0.9,0.1,1.3,0.2c0.1-0.1,0.4-0.4,0.9-0.9c0.4-0.4,0.7-0.8,1-1.2
		s0.5-0.8,1-1.4c1.4-2,2.7-3.2,3.8-3.6c-0.4-1.3-1.4-1.9-3-1.9c-0.7,0-1.5,0.2-2.2,0.6c-0.8,0.4-1.4,1-1.8,1.7
		c-0.6,0.9-0.9,1.6-0.9,2.1s0.3,0.9,0.9,0.9c0.4,0,0.9-0.2,1.4-0.5c0.5-0.4,0.9-0.7,1.2-1.2c0.6-0.7,0.9-1.3,0.9-1.9l0,0
		c0,0,0.1,0,0.2,0l0,0l0,0c0,0,0,0.1,0,0.2c0,0.6-0.2,1.1-0.6,1.7c-0.4,0.6-0.9,1.1-1.5,1.5c-0.6,0.4-1.1,0.6-1.5,0.6
		c-0.6,0-1-0.1-1.2-0.4c-0.2-0.3-0.3-0.6-0.3-1.1c0-0.6,0.3-1.3,0.9-2.1c0.4-0.7,1.1-1.3,2-1.7c0.9-0.4,1.8-0.6,2.7-0.6
		c1.8,0,3,0.6,3.4,1.9c0.1-0.1,0.4-0.2,0.6-0.2C432.8,68.1,432.8,68.1,432.8,68.3L432.8,68.3z M430.9,72.8c0.6-1.3,0.9-2.4,0.9-3.4
		c0-0.1,0-0.3,0-0.4c-0.6,0.4-1.4,1.6-2.6,3.4c-1.3,1.7-2.5,2.8-3.6,3.4c0.4,0.3,0.8,0.4,1.1,0.4s0.6-0.1,1.1-0.2
		c0.6-0.3,1.1-0.7,1.7-1.3C429.9,74.1,430.4,73.5,430.9,72.8L430.9,72.8z M424.3,75.9c0.1,0,0.3-0.1,0.4-0.2
		c-0.3-0.1-0.6-0.2-0.9-0.2c-0.6,0-0.9,0.1-0.9,0.2l0,0c0,0,0,0,0.1,0c0.1,0,0.2,0,0.4,0.1C423.7,75.9,424,75.9,424.3,75.9
		L424.3,75.9z"/>
</g>
</svg>
