<?xml version="1.0" encoding="utf-8"?>
<!-- Generator: Adobe Illustrator 22.1.0, SVG Export Plug-In . SVG Version: 6.00 Build 0)  -->
<svg version="1.1" id="Calque_1" xmlns="http://www.w3.org/2000/svg" xmlns:xlink="http://www.w3.org/1999/xlink" x="0px" y="0px"
	 viewBox="0 0 484.1 319" style="enable-background:new 0 0 484.1 319;" xml:space="preserve">
<style type="text/css">
	.st0{clip-path:url(#SVGID_2_);fill:#FFFFFF;}
	.st1{clip-path:url(#SVGID_2_);fill:none;stroke:#C0C0C0;stroke-linecap:round;stroke-linejoin:round;stroke-miterlimit:10;}
	.st2{clip-path:url(#SVGID_2_);fill:none;stroke:#F0F0F0;stroke-linecap:round;stroke-linejoin:round;stroke-miterlimit:10;}
	.st3{clip-path:url(#SVGID_2_);fill:none;stroke:#000000;stroke-miterlimit:10;}
	
		.st4{clip-path:url(#SVGID_4_);fill:none;stroke:#4D934D;stroke-width:1.5;stroke-linecap:round;stroke-linejoin:round;stroke-miterlimit:10;}
	
		.st5{clip-path:url(#SVGID_4_);fill:none;stroke:#A64DA6;stroke-width:1.5;stroke-linecap:round;stroke-linejoin:round;stroke-miterlimit:10;}
	.st6{fill:#0000FF;}
	.st7{fill:none;stroke:#000000;stroke-linecap:round;stroke-linejoin:round;stroke-miterlimit:10;}
	.st8{fill:#800080;}
	.st9{fill:#006400;}
</style>
<g>
	<g>
		<defs>
			<rect id="SVGID_1_" y="3.1" width="484.1" height="312"/>
		</defs>
		<clipPath id="SVGID_2_">
			<use xlink:href="#SVGID_1_"  style="overflow:visible;"/>
		</clipPath>
		<polygon class="st0" points="0,3.1 484.1,3.1 484.1,315.9 0,315.9 0,3.1 		"/>
		<path class="st1" d="M103.9,3.1v312.8 M189,3.1v312.8 M274,3.1v312.8 M359.1,3.1v312.8 M444.1,3.1v312.8"/>
		<path class="st2" d="M1.9,3.1v312.8 M35.9,3.1v312.8 M52.9,3.1v312.8 M69.9,3.1v312.8 M86.9,3.1v312.8 M121,3.1v312.8 M138,3.1
			v312.8 M155,3.1v312.8 M172,3.1v312.8 M206,3.1v312.8 M223,3.1v312.8 M240,3.1v312.8 M257,3.1v312.8 M291,3.1v312.8 M308,3.1
			v312.8 M325.1,3.1v312.8 M342.1,3.1v312.8 M376.1,3.1v312.8 M393.1,3.1v312.8 M410.1,3.1v312.8 M427.1,3.1v312.8 M461.1,3.1v312.8
			 M478.1,3.1v312.8"/>
		<path class="st1" d="M0,42.2h484.1 M0,42.2h484.1 M0,127.3h484.1 M0,212.3h484.1"/>
		<path class="st2" d="M0,8.2h484.1 M0,8.2h484.1 M0,25.2h484.1 M0,59.3h484.1 M0,76.3h484.1 M0,93.3h484.1 M0,110.3h484.1 M0,144.3
			h484.1 M0,161.3h484.1 M0,178.3h484.1 M0,195.3h484.1 M0,229.3h484.1 M0,246.3h484.1 M0,263.3h484.1 M0,280.4h484.1 M0,314.4
			h484.1"/>
		<path class="st3" d="M18.9,4v311.9 M18.9,3.5l-2.8,2.8 M18.9,3.5l2.8,2.8 M0,297.4h483.2 M483.7,297.4l-2.8-2.8 M483.7,297.4
			l-2.8,2.8"/>
	</g>
	<path d="M105.1,307.5h-0.7v-4.7c-0.2,0.2-0.4,0.3-0.7,0.5c-0.3,0.2-0.5,0.3-0.8,0.4V303c0.4-0.2,0.8-0.4,1.1-0.7
		c0.3-0.3,0.5-0.5,0.7-0.8h0.5V307.5L105.1,307.5z"/>
	<path d="M191.4,306.8v0.7h-4c0-0.2,0-0.3,0.1-0.5c0.1-0.3,0.3-0.5,0.5-0.8c0.2-0.3,0.5-0.6,1-0.9c0.6-0.5,1.1-1,1.3-1.3
		c0.2-0.3,0.3-0.6,0.3-0.9c0-0.3-0.1-0.5-0.3-0.7c-0.2-0.2-0.5-0.3-0.8-0.3c-0.4,0-0.6,0.1-0.9,0.3c-0.2,0.2-0.3,0.5-0.3,0.9
		l-0.8-0.1c0.1-0.6,0.2-1,0.6-1.3c0.3-0.3,0.8-0.4,1.4-0.4c0.6,0,1,0.2,1.4,0.5c0.3,0.3,0.5,0.7,0.5,1.2c0,0.2,0,0.5-0.1,0.7
		c-0.1,0.2-0.3,0.5-0.5,0.7c-0.2,0.3-0.6,0.6-1.1,1.1c-0.4,0.4-0.7,0.6-0.9,0.8s-0.2,0.3-0.3,0.4H191.4L191.4,306.8z"/>
	<path d="M272.7,305.9l0.7-0.1c0.1,0.4,0.2,0.7,0.4,0.9c0.2,0.2,0.5,0.3,0.7,0.3c0.3,0,0.6-0.1,0.9-0.4c0.2-0.2,0.4-0.5,0.4-0.9
		c0-0.3-0.1-0.6-0.3-0.8c-0.2-0.2-0.5-0.3-0.8-0.3c-0.1,0-0.3,0-0.5,0.1l0.1-0.6c0,0,0.1,0,0.1,0c0.3,0,0.6-0.1,0.8-0.2
		c0.3-0.2,0.4-0.4,0.4-0.8c0-0.3-0.1-0.5-0.3-0.7c-0.2-0.2-0.4-0.3-0.7-0.3c-0.3,0-0.5,0.1-0.7,0.3c-0.2,0.2-0.3,0.5-0.4,0.8
		l-0.7-0.1c0.1-0.5,0.3-0.9,0.6-1.1c0.3-0.3,0.7-0.4,1.2-0.4c0.3,0,0.6,0.1,0.9,0.2c0.3,0.1,0.5,0.3,0.6,0.6
		c0.1,0.2,0.2,0.5,0.2,0.8c0,0.3-0.1,0.5-0.2,0.7s-0.3,0.4-0.6,0.5c0.4,0.1,0.6,0.3,0.8,0.5c0.2,0.3,0.3,0.6,0.3,1
		c0,0.5-0.2,1-0.6,1.3c-0.4,0.4-0.9,0.5-1.4,0.5c-0.5,0-1-0.2-1.3-0.5C272.9,306.8,272.7,306.4,272.7,305.9L272.7,305.9z"/>
	<path d="M359.8,307.5v-1.4h-2.6v-0.7l2.7-3.9h0.6v3.9h0.8v0.7h-0.8v1.4H359.8L359.8,307.5z M359.8,305.4v-2.7l-1.9,2.7H359.8
		L359.8,305.4z"/>
	<path d="M442.6,305.9l0.8-0.1c0.1,0.4,0.2,0.7,0.4,0.9s0.5,0.3,0.8,0.3c0.4,0,0.7-0.1,0.9-0.4s0.4-0.6,0.4-1.1c0-0.4-0.1-0.7-0.4-1
		c-0.2-0.2-0.5-0.4-0.9-0.4c-0.2,0-0.5,0.1-0.6,0.2s-0.3,0.2-0.4,0.4l-0.7-0.1l0.6-3.1h3v0.7h-2.4l-0.3,1.6c0.4-0.3,0.7-0.4,1.1-0.4
		c0.5,0,1,0.2,1.3,0.5s0.5,0.8,0.5,1.4c0,0.5-0.2,1-0.5,1.4c-0.4,0.5-0.9,0.7-1.6,0.7c-0.5,0-1-0.2-1.3-0.5
		C442.8,306.9,442.6,306.5,442.6,305.9L442.6,305.9z"/>
	<path d="M13.4,215.8h-0.7v-4.7c-0.2,0.2-0.4,0.3-0.7,0.5c-0.3,0.2-0.5,0.3-0.8,0.4v-0.7c0.4-0.2,0.8-0.4,1.1-0.7
		c0.3-0.3,0.5-0.5,0.7-0.8h0.5V215.8L13.4,215.8z"/>
	<path d="M14.5,129.9v0.7h-4c0-0.2,0-0.3,0.1-0.5c0.1-0.3,0.3-0.5,0.5-0.8s0.5-0.6,1-0.9c0.6-0.5,1.1-1,1.3-1.3
		c0.2-0.3,0.3-0.6,0.3-0.9c0-0.3-0.1-0.5-0.3-0.7c-0.2-0.2-0.5-0.3-0.8-0.3c-0.4,0-0.6,0.1-0.9,0.3c-0.2,0.2-0.3,0.5-0.3,0.9
		l-0.8-0.1c0.1-0.6,0.2-1,0.6-1.3c0.3-0.3,0.8-0.4,1.4-0.4c0.6,0,1,0.2,1.4,0.5c0.3,0.3,0.5,0.7,0.5,1.2c0,0.2,0,0.5-0.1,0.7
		c-0.1,0.2-0.3,0.5-0.5,0.7c-0.2,0.3-0.6,0.6-1.1,1.1c-0.4,0.4-0.7,0.6-0.9,0.8c-0.1,0.1-0.2,0.3-0.3,0.4H14.5L14.5,129.9z"/>
	<path d="M10.6,44.3l0.7-0.1c0.1,0.4,0.2,0.7,0.4,0.9s0.5,0.3,0.7,0.3c0.3,0,0.6-0.1,0.9-0.4c0.2-0.2,0.4-0.5,0.4-0.9
		c0-0.3-0.1-0.6-0.3-0.8c-0.2-0.2-0.5-0.3-0.8-0.3c-0.1,0-0.3,0-0.5,0.1l0.1-0.6c0,0,0.1,0,0.1,0c0.3,0,0.6-0.1,0.8-0.2
		c0.3-0.2,0.4-0.4,0.4-0.8c0-0.3-0.1-0.5-0.3-0.7c-0.2-0.2-0.4-0.3-0.7-0.3c-0.3,0-0.5,0.1-0.7,0.3s-0.3,0.5-0.4,0.8l-0.7-0.1
		c0.1-0.5,0.3-0.9,0.6-1.1s0.7-0.4,1.2-0.4c0.3,0,0.6,0.1,0.9,0.2s0.5,0.3,0.6,0.6c0.1,0.2,0.2,0.5,0.2,0.8c0,0.3-0.1,0.5-0.2,0.7
		c-0.1,0.2-0.3,0.4-0.6,0.5c0.4,0.1,0.6,0.3,0.8,0.5c0.2,0.3,0.3,0.6,0.3,1c0,0.5-0.2,1-0.6,1.3c-0.4,0.4-0.9,0.5-1.4,0.5
		c-0.5,0-1-0.2-1.3-0.5C10.8,45.2,10.6,44.8,10.6,44.3L10.6,44.3z"/>
	<path d="M10.6,304.6c0-0.7,0.1-1.3,0.2-1.7c0.1-0.4,0.4-0.8,0.7-1c0.3-0.2,0.7-0.4,1.1-0.4c0.3,0,0.6,0.1,0.8,0.2s0.4,0.3,0.6,0.6
		s0.3,0.5,0.4,0.9c0.1,0.4,0.1,0.8,0.1,1.4c0,0.7-0.1,1.3-0.2,1.7c-0.1,0.4-0.4,0.8-0.7,1c-0.3,0.2-0.7,0.4-1.1,0.4
		c-0.6,0-1-0.2-1.4-0.6C10.8,306.5,10.6,305.7,10.6,304.6L10.6,304.6z M11.3,304.6c0,1,0.1,1.6,0.3,2c0.2,0.3,0.5,0.5,0.9,0.5
		c0.3,0,0.6-0.2,0.9-0.5c0.2-0.3,0.3-1,0.3-2c0-1-0.1-1.6-0.3-2c-0.2-0.3-0.5-0.5-0.9-0.5c-0.3,0-0.6,0.1-0.8,0.4
		C11.5,302.9,11.3,303.6,11.3,304.6L11.3,304.6z"/>
	<g>
		<defs>
			<rect id="SVGID_3_" y="3.1" width="484.1" height="312"/>
		</defs>
		<clipPath id="SVGID_4_">
			<use xlink:href="#SVGID_3_"  style="overflow:visible;"/>
		</clipPath>
		<path class="st4" d="M18.9,297.4L18.9,297.4 M18.9,297.4l0.9-2.8l0.9-2.8l0.9-2.7l0.9-2.7 M22.7,286.3l0.9-2.7l0.9-2.6l0.9-2.6
			l0.9-2.5l0.9-2.5l0.9-2.5l0.9-2.4l0.9-2.4 M30.3,266.2l0.9-2.4l0.9-2.3L34,257l1.9-4.4l1.9-4.3l1.9-4.1l1.9-4l1.9-3.9l1.9-3.8
			l1.9-3.7l1.9-3.6l1.9-3.5l1.9-3.3l1.9-3.2l1.9-3.1l1.9-3l1.9-3 M60.5,206l1.9-2.9l1.9-2.8l1.9-2.7l1.9-2.6l1.9-2.5l1.9-2.5
			l1.9-2.4l1.9-2.3l1.9-2.2l1.9-2.2l1.9-2.1l1.9-2l1.9-2l1.9-1.9l1.9-1.8l1.9-1.8l1.9-1.7l1.9-1.7l1.9-1.6l1.9-1.6l1.9-1.5l1.9-1.5
			l1.9-1.4l1.9-1.4l1.9-1.3l1.9-1.3l1.9-1.2l1.9-1.2l1.9-1.2l1.9-1.1l1.9-1.1l1.9-1 M121,147.7l1.9-1l1.9-1l1.9-0.9l1.9-0.9l1.9-0.9
			l1.9-0.8l1.9-0.8l1.9-0.8l1.9-0.8l1.9-0.7l1.9-0.7l1.9-0.7l1.9-0.7l1.9-0.6l1.9-0.6l1.9-0.6l1.9-0.6l1.9-0.5l1.9-0.5l1.9-0.5
			l1.9-0.5l1.9-0.5l1.9-0.4l1.9-0.4l1.9-0.4l1.9-0.4l1.9-0.4l1.9-0.4l1.9-0.4l1.9-0.3l1.9-0.3l1.9-0.3l1.9-0.3l1.9-0.3l1.9-0.3
			l1.9-0.3l1.9-0.2l1.9-0.2l1.9-0.2l1.9-0.2l1.9-0.2l1.9-0.2l1.9-0.2l1.9-0.2l1.9-0.2l1.9-0.2l1.9-0.2l1.9-0.1l1.9-0.1l1.9-0.1
			l1.9-0.1l1.9-0.1l1.9-0.1l1.9-0.1l1.9-0.1l1.9-0.1l1.9-0.1l1.9-0.1l1.9-0.1l1.9-0.1l1.9-0.1l1.9-0.1l1.9-0.1l1.9-0.1 M242.1,123.4
			l1.9,0l1.9,0l1.9,0l1.9,0l1.9,0l1.9,0l1.9,0l1.9,0l1.9,0l1.9,0l1.9,0l1.9,0l1.9,0l1.9,0l1.9,0l1.9,0l1.9,0l1.9,0l1.9,0l1.9,0
			l1.9,0l1.9,0l1.9,0l1.9,0l1.9,0l1.9,0l1.9,0l1.9,0l1.9,0l1.9,0l1.9,0l1.9,0l1.9,0l1.9,0l1.9,0l1.9,0l1.9,0l1.9,0l1.9,0l1.9,0
			l1.9,0l1.9,0l1.9,0l1.9,0l1.9,0l1.9,0l1.9,0l1.9,0l1.9,0l1.9,0l1.9,0l1.9,0l1.9,0l1.9,0l1.9,0l1.9,0l1.9,0l1.9,0l1.9,0l1.9,0
			l1.9,0l1.9,0l1.9,0l1.9,0 M363.1,124.2l1.9,0l1.9,0l1.9,0l1.9,0l1.9,0l1.9,0l1.9,0l1.9,0l1.9,0l1.9,0l1.9,0l1.9,0l1.9,0l1.9,0
			l1.9,0l1.9,0l1.9,0l1.9,0l1.9,0l1.9,0l1.9,0l1.9,0l1.9,0l1.9,0l1.9,0l1.9,0l1.9,0l1.9,0l1.9,0l1.9,0l1.9,0l1.9,0 M423.6,125.3
			l1.9,0l1.9,0l1.9,0l1.9,0l1.9,0l1.9,0l1.9,0l1.9,0 M438.7,125.5l1.9,0l1.9,0 M442.5,125.5l1.6,0"/>
		<line class="st5" x1="12" y1="318.2" x2="117.8" y2="0.8"/>
	</g>
	<path class="st6" d="M104.9,42.2c0,0.5-0.4,0.9-0.9,0.9s-0.9-0.4-0.9-0.9s0.4-0.9,0.9-0.9S104.9,41.7,104.9,42.2L104.9,42.2z"/>
	<path class="st7" d="M104.9,42.2c0,0.5-0.4,0.9-0.9,0.9s-0.9-0.4-0.9-0.9s0.4-0.9,0.9-0.9S104.9,41.7,104.9,42.2L104.9,42.2z"/>
	<path class="st6" d="M93.6,39.4l3.1-8h1.1l3.3,8h-1.2L98.9,37h-3.3l-0.9,2.4H93.6L93.6,39.4z M95.9,36.1h2.7l-0.8-2.2
		c-0.3-0.7-0.4-1.2-0.6-1.7c-0.1,0.5-0.2,1-0.4,1.5L95.9,36.1L95.9,36.1z"/>
	<path class="st6" d="M19.8,297.4c0,0.5-0.4,0.9-0.9,0.9s-0.9-0.4-0.9-0.9c0-0.5,0.4-0.9,0.9-0.9S19.8,296.9,19.8,297.4L19.8,297.4z
		"/>
	<path class="st7" d="M19.8,297.4c0,0.5-0.4,0.9-0.9,0.9s-0.9-0.4-0.9-0.9c0-0.5,0.4-0.9,0.9-0.9S19.8,296.9,19.8,297.4L19.8,297.4z
		"/>
	<path class="st6" d="M8.5,290.6c0-1.3,0.4-2.4,1.1-3.1c0.7-0.8,1.6-1.1,2.8-1.1c0.7,0,1.4,0.2,2,0.5c0.6,0.4,1,0.8,1.4,1.5
		c0.3,0.6,0.5,1.3,0.5,2.1c0,0.8-0.2,1.5-0.5,2.2s-0.8,1.1-1.4,1.5s-1.2,0.5-1.9,0.5c-0.8,0-1.4-0.2-2-0.5c-0.6-0.4-1-0.9-1.3-1.5
		C8.6,292,8.5,291.3,8.5,290.6L8.5,290.6z M9.5,290.6c0,1,0.3,1.7,0.8,2.3c0.5,0.6,1.2,0.8,1.9,0.8c0.8,0,1.5-0.3,2-0.8
		c0.5-0.6,0.8-1.4,0.8-2.4c0-0.6-0.1-1.2-0.3-1.7s-0.5-0.9-1-1.1c-0.4-0.3-0.9-0.4-1.4-0.4c-0.8,0-1.4,0.3-1.9,0.8
		C9.8,288.5,9.5,289.4,9.5,290.6L9.5,290.6z"/>
	<path class="st8" d="M125.4,8.7l-1.6,6.7c0,0.1,0,0.2,0,0.2c0,0.1,0.1,0.3,0.2,0.4l0,0c0,0,0.1,0,0.2,0c0.3,0,0.5,0,0.8,0
		c0.3,0,0.4,0,0.4,0c0,0.1,0,0.2,0,0.2c0,0.1-0.1,0.2-0.2,0.2H124l0,0h-1l0,0h-1h-0.2h-1l0,0c-0.1,0-0.2-0.1-0.2-0.2
		s0.1-0.2,0.2-0.2c0,0,0.1,0,0.4,0c0.8,0,1.2-0.1,1.4-0.2c0,0,0-0.1,0-0.2c0,0,0-0.1,0-0.2l0,0l0,0l0,0l0,0l1.8-6.7
		c0-0.1,0-0.2,0-0.3s0-0.1,0-0.1c-0.1,0-0.3,0-0.4,0h-0.4c-0.9,0-1.5,0.1-1.8,0.2c-0.1,0.1-0.3,0.3-0.4,0.4v0.2l0,0h-0.2
		c-0.1,0.3-0.3,0.7-0.6,1.4c0,0.1,0,0.2,0,0.2c-0.1,0-0.2,0-0.2,0s0-0.1,0-0.2c0,0,0-0.1,0-0.2l0.8-2.2c0-0.1,0.1-0.2,0.2-0.2
		c0,0,0.1,0,0.2,0h6.9c0.3,0,0.4,0,0.4,0c0,0.1,0,0.2,0,0.2l-0.4,2.4c0,0.1-0.1,0.2-0.2,0.2c-0.1,0-0.2-0.1-0.2-0.2
		c0,0,0.1-0.1,0.2-0.2c0-0.4,0-0.7,0-1c0-0.5-0.1-0.9-0.4-1c-0.3,0-0.7,0-1.4,0c-0.5,0-0.8,0-0.8,0c-0.1,0-0.2,0.1-0.2,0.2l0,0
		C125.5,8.6,125.4,8.7,125.4,8.7L125.4,8.7z"/>
	<path class="st9" d="M430.7,118.7c0,0.1,0,0.2,0,0.2l0,0l0,0l0,0c-0.1,0.1-0.2,0.2-0.2,0.2s0-0.1,0-0.2c-0.3-0.1-0.4-0.3-0.4-0.5
		c0-0.2,0.1-0.5,0.4-0.9c0.3-0.4,0.6-0.7,1-1c0.4-0.3,0.7-0.4,1-0.4c0.7,0,1,0.3,1.2,0.8c0,0.1,0,0.2,0,0.2c0,0.5-0.2,1-0.6,1.6
		c-0.3,0.4-0.7,0.7-1.2,1c-0.5,0.3-1,0.4-1.6,0.4c-0.5,0-0.9-0.1-1.3-0.4s-0.5-0.6-0.5-1c0,0,0-0.1,0-0.2c0-0.9,0.4-1.9,1.2-2.9
		h-0.2c-1.2,0-2-0.3-2.6-0.8c-0.1-0.3-0.2-0.6-0.2-1c0-0.3,0.1-0.6,0.4-1c0.3-0.4,0.7-0.7,1.2-1c0.7-0.3,1.2-0.4,1.8-0.4
		c0.1,0,0.2,0,0.2,0s-0.1,0.1-0.2,0.2l0,0c-0.5,0-1,0.1-1.4,0.4c-0.4,0.3-0.7,0.5-1,0.8c-0.3,0.4-0.4,0.8-0.4,1.2
		c0,0.3,0.1,0.5,0.2,0.6c0.3,0.4,0.9,0.6,2,0.6c0.1,0,0.3,0,0.4,0c0.8-1.2,1.8-2.2,2.9-2.9c1.2-0.9,2.1-1.4,2.7-1.4
		c0.5,0,0.9,0.3,1,0.8l0,0c0,0.4-0.1,0.8-0.4,1.2c-0.5,0.8-1.4,1.4-2.7,2c-0.8,0.3-1.6,0.5-2.6,0.6c-1,1.4-1.6,2.6-1.6,3.3l0,0
		c0,0.4,0.1,0.7,0.3,0.9c0.2,0.2,0.5,0.3,0.9,0.3c0.3,0,0.6-0.1,1-0.4c0.4-0.3,0.7-0.6,1-1c0.4-0.7,0.6-1.1,0.6-1.4v-0.2
		c0-0.3-0.2-0.4-0.6-0.4c-0.3,0-0.5,0.1-0.8,0.3c-0.3,0.2-0.5,0.5-0.8,0.9c-0.3,0.3-0.4,0.5-0.4,0.6
		C430.5,118.6,430.6,118.7,430.7,118.7L430.7,118.7z M430.7,118.9L430.7,118.9L430.7,118.9L430.7,118.9L430.7,118.9L430.7,118.9z
		 M435.6,111.2c-0.5,0-1.2,0.4-2.2,1.2c-0.7,0.7-1.4,1.5-2.4,2.6c0.8,0,1.5-0.1,2.2-0.4c1.2-0.5,2-1.1,2.6-1.8
		c0.3-0.4,0.4-0.8,0.4-1.2l0,0C436.2,111.4,436,111.2,435.6,111.2L435.6,111.2z"/>
</g>
</svg>
