<?xml version="1.0" encoding="utf-8"?>
<!-- Generator: Adobe Illustrator 22.1.0, SVG Export Plug-In . SVG Version: 6.00 Build 0)  -->
<svg version="1.1" id="Calque_1" xmlns="http://www.w3.org/2000/svg" xmlns:xlink="http://www.w3.org/1999/xlink" x="0px" y="0px"
	 viewBox="0 0 567.9 285.9" style="enable-background:new 0 0 567.9 285.9;" xml:space="preserve">
<style type="text/css">
	.st0{clip-path:url(#SVGID_2_);fill:#FFFFFF;}
	.st1{clip-path:url(#SVGID_2_);fill:none;stroke:#C0C0C0;stroke-linecap:round;stroke-linejoin:round;stroke-miterlimit:10;}
	.st2{clip-path:url(#SVGID_2_);fill:none;stroke:#000000;stroke-miterlimit:10;}
	.st3{clip-path:url(#SVGID_4_);fill:none;stroke:#DB4D4D;stroke-linecap:round;stroke-linejoin:round;stroke-miterlimit:10;}
</style>
<g>
	<g>
		<defs>
			<rect id="SVGID_1_" x="0.5" width="566.9" height="285"/>
		</defs>
		<clipPath id="SVGID_2_">
			<use xlink:href="#SVGID_1_"  style="overflow:visible;"/>
		</clipPath>
		<polygon class="st0" points="0.5,0 567.4,0 567.4,285.9 0.5,285.9 0.5,0 		"/>
		<path class="st1" d="M57.2,0v285.9 M57.2,0v285.9 M113.9,0v285.9 M227.3,0v285.9 M284,0v285.9 M340.7,0v285.9 M397.4,0v285.9
			 M454,0v285.9 M510.7,0v285.9 M567.4,0v285.9 M0.5,10.3h566.9 M0.5,10.3h566.9 M0.5,33.2h566.9 M0.5,56.1h566.9 M0.5,79.1h566.9
			 M0.5,102h566.9 M0.5,124.9h566.9 M0.5,147.8h566.9 M0.5,170.7h566.9 M0.5,193.7h566.9 M0.5,216.6h566.9 M0.5,239.5h566.9
			 M0.5,285.3h566.9"/>
		<path class="st2" d="M170.6,1v284.9 M170.6,0.5l-2.9,2.9 M170.6,0.5l2.9,2.9 M0.5,262.4h565.9 M566.9,262.4l-2.9-2.9 M566.9,262.4
			l-2.9,2.9"/>
	</g>
	<path d="M48.9,270.4v-0.6h3.5v0.6H48.9L48.9,270.4z M57.3,272v0.7h-4.2c0-0.2,0-0.4,0.1-0.5c0.1-0.3,0.3-0.6,0.5-0.8
		c0.2-0.3,0.6-0.6,1-1c0.7-0.6,1.1-1,1.4-1.3c0.2-0.3,0.4-0.6,0.4-0.9c0-0.3-0.1-0.6-0.3-0.8c-0.2-0.2-0.5-0.3-0.9-0.3
		c-0.4,0-0.7,0.1-0.9,0.3c-0.2,0.2-0.3,0.5-0.3,0.9l-0.8-0.1c0.1-0.6,0.3-1,0.6-1.4s0.8-0.5,1.4-0.5c0.6,0,1.1,0.2,1.4,0.5
		c0.4,0.3,0.5,0.8,0.5,1.2c0,0.2-0.1,0.5-0.2,0.7c-0.1,0.2-0.3,0.5-0.5,0.8c-0.2,0.3-0.6,0.6-1.2,1.1c-0.5,0.4-0.8,0.7-0.9,0.8
		s-0.2,0.3-0.3,0.4H57.3L57.3,272z M58.2,269.6c0-0.7,0.1-1.3,0.2-1.8s0.4-0.8,0.7-1.1c0.3-0.2,0.7-0.4,1.1-0.4
		c0.3,0,0.6,0.1,0.9,0.2c0.3,0.1,0.5,0.3,0.6,0.6s0.3,0.6,0.4,0.9c0.1,0.4,0.1,0.9,0.1,1.5c0,0.7-0.1,1.3-0.2,1.8
		c-0.2,0.5-0.4,0.8-0.7,1.1c-0.3,0.2-0.7,0.4-1.1,0.4c-0.6,0-1.1-0.2-1.4-0.7C58.4,271.6,58.2,270.8,58.2,269.6L58.2,269.6z
		 M58.9,269.6c0,1,0.1,1.7,0.4,2.1c0.2,0.3,0.5,0.5,0.9,0.5c0.4,0,0.7-0.2,0.9-0.5c0.2-0.3,0.4-1,0.4-2.1s-0.1-1.7-0.4-2.1
		c-0.2-0.3-0.5-0.5-0.9-0.5c-0.4,0-0.6,0.2-0.9,0.5C59.1,267.8,58.9,268.5,58.9,269.6L58.9,269.6z M63.1,269.6
		c0-0.7,0.1-1.3,0.2-1.8s0.4-0.8,0.7-1.1c0.3-0.2,0.7-0.4,1.1-0.4c0.3,0,0.6,0.1,0.9,0.2c0.3,0.1,0.5,0.3,0.6,0.6
		c0.2,0.3,0.3,0.6,0.4,0.9c0.1,0.4,0.1,0.9,0.1,1.5c0,0.7-0.1,1.3-0.2,1.8c-0.2,0.5-0.4,0.8-0.7,1.1c-0.3,0.2-0.7,0.4-1.1,0.4
		c-0.6,0-1.1-0.2-1.4-0.7C63.3,271.6,63.1,270.8,63.1,269.6L63.1,269.6z M63.8,269.6c0,1,0.1,1.7,0.4,2.1s0.5,0.5,0.9,0.5
		c0.4,0,0.7-0.2,0.9-0.5c0.2-0.3,0.4-1,0.4-2.1s-0.1-1.7-0.4-2.1c-0.2-0.3-0.5-0.5-0.9-0.5c-0.4,0-0.6,0.2-0.9,0.5
		C64,267.8,63.8,268.5,63.8,269.6L63.8,269.6z"/>
	<path d="M105.7,270.4v-0.6h3.5v0.6H105.7L105.7,270.4z M113,272.7h-0.8v-4.9c-0.2,0.2-0.4,0.4-0.7,0.5c-0.3,0.2-0.6,0.3-0.8,0.4
		v-0.7c0.4-0.2,0.8-0.5,1.1-0.7c0.3-0.3,0.6-0.6,0.7-0.8h0.5V272.7L113,272.7z M114.9,269.6c0-0.7,0.1-1.3,0.2-1.8
		c0.2-0.5,0.4-0.8,0.7-1.1c0.3-0.2,0.7-0.4,1.1-0.4c0.3,0,0.6,0.1,0.9,0.2c0.3,0.1,0.5,0.3,0.6,0.6c0.2,0.3,0.3,0.6,0.4,0.9
		c0.1,0.4,0.1,0.9,0.1,1.5c0,0.7-0.1,1.3-0.2,1.8s-0.4,0.8-0.7,1.1c-0.3,0.2-0.7,0.4-1.1,0.4c-0.6,0-1.1-0.2-1.4-0.7
		C115.2,271.6,114.9,270.8,114.9,269.6L114.9,269.6z M115.7,269.6c0,1,0.1,1.7,0.4,2.1c0.2,0.3,0.5,0.5,0.9,0.5
		c0.4,0,0.7-0.2,0.9-0.5c0.2-0.3,0.4-1,0.4-2.1s-0.1-1.7-0.4-2.1c-0.2-0.3-0.5-0.5-0.9-0.5c-0.4,0-0.6,0.2-0.9,0.5
		C115.9,267.8,115.7,268.5,115.7,269.6L115.7,269.6z M119.8,269.6c0-0.7,0.1-1.3,0.2-1.8c0.2-0.5,0.4-0.8,0.7-1.1
		c0.3-0.2,0.7-0.4,1.1-0.4c0.3,0,0.6,0.1,0.9,0.2c0.3,0.1,0.5,0.3,0.6,0.6c0.2,0.3,0.3,0.6,0.4,0.9c0.1,0.4,0.1,0.9,0.1,1.5
		c0,0.7-0.1,1.3-0.2,1.8c-0.2,0.5-0.4,0.8-0.7,1.1c-0.3,0.2-0.7,0.4-1.1,0.4c-0.6,0-1.1-0.2-1.4-0.7
		C120.1,271.6,119.8,270.8,119.8,269.6L119.8,269.6z M120.6,269.6c0,1,0.1,1.7,0.4,2.1s0.5,0.5,0.9,0.5c0.4,0,0.7-0.2,0.9-0.5
		c0.2-0.3,0.4-1,0.4-2.1s-0.1-1.7-0.4-2.1c-0.2-0.3-0.5-0.5-0.9-0.5s-0.6,0.2-0.9,0.5C120.8,267.8,120.6,268.5,120.6,269.6
		L120.6,269.6z"/>
	<path d="M224.1,272.7h-0.8v-4.9c-0.2,0.2-0.4,0.4-0.7,0.5c-0.3,0.2-0.6,0.3-0.8,0.4v-0.7c0.4-0.2,0.8-0.5,1.1-0.7
		c0.3-0.3,0.6-0.6,0.7-0.8h0.5V272.7L224.1,272.7z M226.1,269.6c0-0.7,0.1-1.3,0.2-1.8c0.2-0.5,0.4-0.8,0.7-1.1
		c0.3-0.2,0.7-0.4,1.1-0.4c0.3,0,0.6,0.1,0.9,0.2c0.3,0.1,0.5,0.3,0.6,0.6c0.2,0.3,0.3,0.6,0.4,0.9c0.1,0.4,0.1,0.9,0.1,1.5
		c0,0.7-0.1,1.3-0.2,1.8c-0.2,0.5-0.4,0.8-0.7,1.1c-0.3,0.2-0.7,0.4-1.1,0.4c-0.6,0-1.1-0.2-1.4-0.7
		C226.3,271.6,226.1,270.8,226.1,269.6L226.1,269.6z M226.9,269.6c0,1,0.1,1.7,0.4,2.1c0.2,0.3,0.5,0.5,0.9,0.5
		c0.4,0,0.7-0.2,0.9-0.5s0.4-1,0.4-2.1s-0.1-1.7-0.4-2.1c-0.2-0.3-0.5-0.5-0.9-0.5c-0.4,0-0.6,0.2-0.9,0.5
		C227,267.8,226.9,268.5,226.9,269.6L226.9,269.6z M231,269.6c0-0.7,0.1-1.3,0.2-1.8c0.2-0.5,0.4-0.8,0.7-1.1
		c0.3-0.2,0.7-0.4,1.1-0.4c0.3,0,0.6,0.1,0.9,0.2c0.3,0.1,0.5,0.3,0.6,0.6s0.3,0.6,0.4,0.9c0.1,0.4,0.1,0.9,0.1,1.5
		c0,0.7-0.1,1.3-0.2,1.8s-0.4,0.8-0.7,1.1c-0.3,0.2-0.7,0.4-1.1,0.4c-0.6,0-1.1-0.2-1.4-0.7C231.2,271.6,231,270.8,231,269.6
		L231,269.6z M231.8,269.6c0,1,0.1,1.7,0.4,2.1c0.2,0.3,0.5,0.5,0.9,0.5c0.4,0,0.7-0.2,0.9-0.5s0.4-1,0.4-2.1s-0.1-1.7-0.4-2.1
		c-0.2-0.3-0.5-0.5-0.9-0.5c-0.4,0-0.6,0.2-0.9,0.5C231.9,267.8,231.8,268.5,231.8,269.6L231.8,269.6z"/>
	<path d="M282,272v0.7h-4.2c0-0.2,0-0.4,0.1-0.5c0.1-0.3,0.3-0.6,0.5-0.8c0.2-0.3,0.6-0.6,1-1c0.7-0.6,1.1-1,1.4-1.3
		c0.2-0.3,0.4-0.6,0.4-0.9c0-0.3-0.1-0.6-0.3-0.8c-0.2-0.2-0.5-0.3-0.9-0.3c-0.4,0-0.7,0.1-0.9,0.3c-0.2,0.2-0.3,0.5-0.3,0.9
		l-0.8-0.1c0.1-0.6,0.3-1,0.6-1.4c0.4-0.3,0.8-0.5,1.4-0.5c0.6,0,1.1,0.2,1.4,0.5c0.4,0.3,0.5,0.8,0.5,1.2c0,0.2-0.1,0.5-0.2,0.7
		c-0.1,0.2-0.3,0.5-0.5,0.8c-0.2,0.3-0.6,0.6-1.2,1.1c-0.5,0.4-0.8,0.7-0.9,0.8c-0.1,0.1-0.2,0.3-0.3,0.4H282L282,272z M282.9,269.6
		c0-0.7,0.1-1.3,0.2-1.8c0.2-0.5,0.4-0.8,0.7-1.1c0.3-0.2,0.7-0.4,1.1-0.4c0.3,0,0.6,0.1,0.9,0.2c0.3,0.1,0.5,0.3,0.6,0.6
		c0.2,0.3,0.3,0.6,0.4,0.9c0.1,0.4,0.1,0.9,0.1,1.5c0,0.7-0.1,1.3-0.2,1.8s-0.4,0.8-0.7,1.1c-0.3,0.2-0.7,0.4-1.1,0.4
		c-0.6,0-1.1-0.2-1.4-0.7C283.1,271.6,282.9,270.8,282.9,269.6L282.9,269.6z M283.7,269.6c0,1,0.1,1.7,0.4,2.1
		c0.2,0.3,0.5,0.5,0.9,0.5c0.4,0,0.7-0.2,0.9-0.5c0.2-0.3,0.4-1,0.4-2.1s-0.1-1.7-0.4-2.1c-0.2-0.3-0.5-0.5-0.9-0.5
		c-0.4,0-0.6,0.2-0.9,0.5C283.8,267.8,283.7,268.5,283.7,269.6L283.7,269.6z M287.8,269.6c0-0.7,0.1-1.3,0.2-1.8
		c0.2-0.5,0.4-0.8,0.7-1.1c0.3-0.2,0.7-0.4,1.1-0.4c0.3,0,0.6,0.1,0.9,0.2c0.3,0.1,0.5,0.3,0.6,0.6c0.2,0.3,0.3,0.6,0.4,0.9
		c0.1,0.4,0.1,0.9,0.1,1.5c0,0.7-0.1,1.3-0.2,1.8s-0.4,0.8-0.7,1.1c-0.3,0.2-0.7,0.4-1.1,0.4c-0.6,0-1.1-0.2-1.4-0.7
		C288,271.6,287.8,270.8,287.8,269.6L287.8,269.6z M288.6,269.6c0,1,0.1,1.7,0.4,2.1c0.2,0.3,0.5,0.5,0.9,0.5c0.4,0,0.7-0.2,0.9-0.5
		c0.2-0.3,0.4-1,0.4-2.1s-0.1-1.7-0.4-2.1c-0.2-0.3-0.5-0.5-0.9-0.5c-0.4,0-0.6,0.2-0.9,0.5C288.7,267.8,288.6,268.5,288.6,269.6
		L288.6,269.6z"/>
	<path d="M334.8,271l0.8-0.1c0.1,0.4,0.2,0.8,0.5,0.9c0.2,0.2,0.5,0.3,0.8,0.3c0.4,0,0.7-0.1,0.9-0.4c0.2-0.3,0.4-0.6,0.4-0.9
		c0-0.4-0.1-0.7-0.3-0.9c-0.2-0.2-0.5-0.3-0.9-0.3c-0.1,0-0.3,0-0.6,0.1l0.1-0.7c0.1,0,0.1,0,0.1,0c0.3,0,0.6-0.1,0.9-0.3
		c0.3-0.2,0.4-0.4,0.4-0.8c0-0.3-0.1-0.5-0.3-0.7c-0.2-0.2-0.4-0.3-0.7-0.3c-0.3,0-0.6,0.1-0.8,0.3c-0.2,0.2-0.3,0.5-0.4,0.9
		l-0.8-0.1c0.1-0.5,0.3-0.9,0.6-1.2c0.3-0.3,0.8-0.4,1.3-0.4c0.3,0,0.7,0.1,0.9,0.2c0.3,0.1,0.5,0.3,0.7,0.6
		c0.2,0.3,0.2,0.5,0.2,0.8c0,0.3-0.1,0.5-0.2,0.7c-0.1,0.2-0.4,0.4-0.7,0.5c0.4,0.1,0.7,0.3,0.9,0.5s0.3,0.6,0.3,1
		c0,0.6-0.2,1-0.6,1.4c-0.4,0.4-0.9,0.6-1.5,0.6c-0.6,0-1-0.2-1.4-0.5C335,272,334.8,271.6,334.8,271L334.8,271z M339.7,269.6
		c0-0.7,0.1-1.3,0.2-1.8c0.2-0.5,0.4-0.8,0.7-1.1c0.3-0.2,0.7-0.4,1.1-0.4c0.3,0,0.6,0.1,0.9,0.2c0.3,0.1,0.5,0.3,0.6,0.6
		c0.2,0.3,0.3,0.6,0.4,0.9c0.1,0.4,0.1,0.9,0.1,1.5c0,0.7-0.1,1.3-0.2,1.8c-0.2,0.5-0.4,0.8-0.7,1.1c-0.3,0.2-0.7,0.4-1.1,0.4
		c-0.6,0-1.1-0.2-1.4-0.7C339.9,271.6,339.7,270.8,339.7,269.6L339.7,269.6z M340.5,269.6c0,1,0.1,1.7,0.4,2.1
		c0.2,0.3,0.5,0.5,0.9,0.5c0.4,0,0.7-0.2,0.9-0.5c0.2-0.3,0.4-1,0.4-2.1s-0.1-1.7-0.4-2.1c-0.2-0.3-0.5-0.5-0.9-0.5
		c-0.4,0-0.6,0.2-0.9,0.5C340.6,267.8,340.5,268.5,340.5,269.6L340.5,269.6z M344.6,269.6c0-0.7,0.1-1.3,0.2-1.8s0.4-0.8,0.7-1.1
		c0.3-0.2,0.7-0.4,1.1-0.4c0.3,0,0.6,0.1,0.9,0.2c0.3,0.1,0.5,0.3,0.6,0.6c0.2,0.3,0.3,0.6,0.4,0.9c0.1,0.4,0.1,0.9,0.1,1.5
		c0,0.7-0.1,1.3-0.2,1.8s-0.4,0.8-0.7,1.1c-0.3,0.2-0.7,0.4-1.1,0.4c-0.6,0-1.1-0.2-1.4-0.7C344.8,271.6,344.6,270.8,344.6,269.6
		L344.6,269.6z M345.4,269.6c0,1,0.1,1.7,0.4,2.1c0.2,0.3,0.5,0.5,0.9,0.5c0.4,0,0.7-0.2,0.9-0.5s0.4-1,0.4-2.1s-0.1-1.7-0.4-2.1
		c-0.2-0.3-0.5-0.5-0.9-0.5c-0.4,0-0.6,0.2-0.9,0.5C345.5,267.8,345.4,268.5,345.4,269.6L345.4,269.6z"/>
	<path d="M394,272.7v-1.5h-2.7v-0.7l2.9-4.1h0.6v4.1h0.8v0.7h-0.8v1.5H394L394,272.7z M394,270.5v-2.8l-2,2.8H394L394,270.5z
		 M396.4,269.6c0-0.7,0.1-1.3,0.2-1.8c0.2-0.5,0.4-0.8,0.7-1.1c0.3-0.2,0.7-0.4,1.1-0.4c0.3,0,0.6,0.1,0.9,0.2
		c0.3,0.1,0.5,0.3,0.6,0.6c0.2,0.3,0.3,0.6,0.4,0.9c0.1,0.4,0.1,0.9,0.1,1.5c0,0.7-0.1,1.3-0.2,1.8c-0.2,0.5-0.4,0.8-0.7,1.1
		c-0.3,0.2-0.7,0.4-1.1,0.4c-0.6,0-1.1-0.2-1.4-0.7C396.7,271.6,396.4,270.8,396.4,269.6L396.4,269.6z M397.2,269.6
		c0,1,0.1,1.7,0.4,2.1c0.2,0.3,0.5,0.5,0.9,0.5c0.4,0,0.7-0.2,0.9-0.5s0.4-1,0.4-2.1s-0.1-1.7-0.4-2.1c-0.2-0.3-0.5-0.5-0.9-0.5
		c-0.4,0-0.6,0.2-0.9,0.5C397.4,267.8,397.2,268.5,397.2,269.6L397.2,269.6z M401.4,269.6c0-0.7,0.1-1.3,0.2-1.8
		c0.2-0.5,0.4-0.8,0.7-1.1c0.3-0.2,0.7-0.4,1.1-0.4c0.3,0,0.6,0.1,0.9,0.2c0.3,0.1,0.5,0.3,0.6,0.6c0.2,0.3,0.3,0.6,0.4,0.9
		c0.1,0.4,0.1,0.9,0.1,1.5c0,0.7-0.1,1.3-0.2,1.8c-0.2,0.5-0.4,0.8-0.7,1.1c-0.3,0.2-0.7,0.4-1.1,0.4c-0.6,0-1.1-0.2-1.4-0.7
		C401.6,271.6,401.4,270.8,401.4,269.6L401.4,269.6z M402.1,269.6c0,1,0.1,1.7,0.4,2.1c0.2,0.3,0.5,0.5,0.9,0.5
		c0.4,0,0.7-0.2,0.9-0.5c0.2-0.3,0.4-1,0.4-2.1s-0.1-1.7-0.4-2.1c-0.2-0.3-0.5-0.5-0.9-0.5c-0.4,0-0.6,0.2-0.9,0.5
		C402.3,267.8,402.1,268.5,402.1,269.6L402.1,269.6z"/>
	<path d="M447.9,271l0.8-0.1c0.1,0.4,0.2,0.7,0.4,0.9c0.2,0.2,0.5,0.3,0.8,0.3c0.4,0,0.7-0.1,0.9-0.4c0.3-0.3,0.4-0.7,0.4-1.1
		c0-0.4-0.1-0.8-0.4-1c-0.2-0.3-0.6-0.4-1-0.4c-0.2,0-0.5,0.1-0.7,0.2c-0.2,0.1-0.4,0.3-0.5,0.4l-0.7-0.1l0.6-3.2h3.1v0.7h-2.5
		l-0.3,1.7c0.4-0.3,0.8-0.4,1.2-0.4c0.6,0,1,0.2,1.4,0.6c0.4,0.4,0.6,0.9,0.6,1.5c0,0.6-0.2,1.1-0.5,1.5c-0.4,0.5-1,0.8-1.7,0.8
		c-0.6,0-1-0.2-1.4-0.5C448.1,272,447.9,271.6,447.9,271L447.9,271z M452.8,269.6c0-0.7,0.1-1.3,0.2-1.8c0.2-0.5,0.4-0.8,0.7-1.1
		c0.3-0.2,0.7-0.4,1.1-0.4c0.3,0,0.6,0.1,0.9,0.2c0.3,0.1,0.5,0.3,0.6,0.6c0.2,0.3,0.3,0.6,0.4,0.9c0.1,0.4,0.1,0.9,0.1,1.5
		c0,0.7-0.1,1.3-0.2,1.8s-0.4,0.8-0.7,1.1c-0.3,0.2-0.7,0.4-1.1,0.4c-0.6,0-1.1-0.2-1.4-0.7C453,271.6,452.8,270.8,452.8,269.6
		L452.8,269.6z M453.5,269.6c0,1,0.1,1.7,0.4,2.1c0.2,0.3,0.5,0.5,0.9,0.5c0.4,0,0.7-0.2,0.9-0.5s0.4-1,0.4-2.1s-0.1-1.7-0.4-2.1
		c-0.2-0.3-0.5-0.5-0.9-0.5s-0.6,0.2-0.9,0.5C453.7,267.8,453.5,268.5,453.5,269.6L453.5,269.6z M457.7,269.6c0-0.7,0.1-1.3,0.2-1.8
		c0.2-0.5,0.4-0.8,0.7-1.1c0.3-0.2,0.7-0.4,1.1-0.4c0.3,0,0.6,0.1,0.9,0.2c0.3,0.1,0.5,0.3,0.6,0.6c0.2,0.3,0.3,0.6,0.4,0.9
		c0.1,0.4,0.1,0.9,0.1,1.5c0,0.7-0.1,1.3-0.2,1.8s-0.4,0.8-0.7,1.1c-0.3,0.2-0.7,0.4-1.1,0.4c-0.6,0-1.1-0.2-1.4-0.7
		C457.9,271.6,457.7,270.8,457.7,269.6L457.7,269.6z M458.4,269.6c0,1,0.1,1.7,0.4,2.1c0.2,0.3,0.5,0.5,0.9,0.5
		c0.4,0,0.7-0.2,0.9-0.5c0.2-0.3,0.4-1,0.4-2.1s-0.1-1.7-0.4-2.1c-0.2-0.3-0.5-0.5-0.9-0.5s-0.6,0.2-0.9,0.5
		C458.6,267.8,458.4,268.5,458.4,269.6L458.4,269.6z"/>
	<path d="M508.7,267.9l-0.8,0.1c-0.1-0.3-0.2-0.5-0.3-0.7c-0.2-0.2-0.5-0.3-0.8-0.3c-0.2,0-0.5,0.1-0.7,0.2
		c-0.2,0.2-0.4,0.4-0.6,0.8c-0.1,0.3-0.2,0.8-0.2,1.5c0.2-0.3,0.4-0.5,0.7-0.6c0.3-0.1,0.5-0.2,0.8-0.2c0.5,0,1,0.2,1.3,0.6
		c0.4,0.4,0.5,0.9,0.5,1.5c0,0.4-0.1,0.8-0.3,1.1c-0.2,0.3-0.4,0.6-0.7,0.8c-0.3,0.2-0.6,0.3-1,0.3c-0.6,0-1.2-0.2-1.6-0.7
		c-0.4-0.5-0.6-1.3-0.6-2.3c0-1.2,0.2-2.1,0.7-2.7c0.4-0.5,0.9-0.7,1.6-0.7c0.5,0,0.9,0.1,1.2,0.4
		C508.4,267.1,508.6,267.4,508.7,267.9L508.7,267.9z M505.5,270.7c0,0.3,0.1,0.5,0.2,0.8c0.1,0.2,0.3,0.4,0.5,0.6
		c0.2,0.1,0.4,0.2,0.6,0.2c0.3,0,0.6-0.1,0.8-0.4c0.2-0.3,0.4-0.6,0.4-1.1c0-0.4-0.1-0.8-0.3-1c-0.2-0.3-0.5-0.4-0.9-0.4
		s-0.6,0.1-0.9,0.4C505.6,269.9,505.5,270.2,505.5,270.7L505.5,270.7z M509.5,269.6c0-0.7,0.1-1.3,0.2-1.8c0.2-0.5,0.4-0.8,0.7-1.1
		c0.3-0.2,0.7-0.4,1.1-0.4c0.3,0,0.6,0.1,0.9,0.2c0.3,0.1,0.5,0.3,0.6,0.6c0.2,0.3,0.3,0.6,0.4,0.9c0.1,0.4,0.1,0.9,0.1,1.5
		c0,0.7-0.1,1.3-0.2,1.8c-0.2,0.5-0.4,0.8-0.7,1.1c-0.3,0.2-0.7,0.4-1.1,0.4c-0.6,0-1.1-0.2-1.4-0.7
		C509.7,271.6,509.5,270.8,509.5,269.6L509.5,269.6z M510.3,269.6c0,1,0.1,1.7,0.4,2.1c0.2,0.3,0.5,0.5,0.9,0.5
		c0.4,0,0.7-0.2,0.9-0.5c0.2-0.3,0.4-1,0.4-2.1s-0.1-1.7-0.4-2.1c-0.2-0.3-0.5-0.5-0.9-0.5c-0.4,0-0.6,0.2-0.9,0.5
		C510.5,267.8,510.3,268.5,510.3,269.6L510.3,269.6z M514.4,269.6c0-0.7,0.1-1.3,0.2-1.8c0.2-0.5,0.4-0.8,0.7-1.1
		c0.3-0.2,0.7-0.4,1.1-0.4c0.3,0,0.6,0.1,0.9,0.2c0.3,0.1,0.5,0.3,0.6,0.6c0.2,0.3,0.3,0.6,0.4,0.9c0.1,0.4,0.1,0.9,0.1,1.5
		c0,0.7-0.1,1.3-0.2,1.8c-0.2,0.5-0.4,0.8-0.7,1.1c-0.3,0.2-0.7,0.4-1.1,0.4c-0.6,0-1.1-0.2-1.4-0.7
		C514.6,271.6,514.4,270.8,514.4,269.6L514.4,269.6z M515.2,269.6c0,1,0.1,1.7,0.4,2.1c0.2,0.3,0.5,0.5,0.9,0.5
		c0.4,0,0.7-0.2,0.9-0.5s0.4-1,0.4-2.1s-0.1-1.7-0.4-2.1c-0.2-0.3-0.5-0.5-0.9-0.5c-0.4,0-0.6,0.2-0.9,0.5
		C515.4,267.8,515.2,268.5,515.2,269.6L515.2,269.6z"/>
	<path d="M161.9,269.6c0-0.7,0.1-1.3,0.2-1.8c0.2-0.5,0.4-0.8,0.7-1.1c0.3-0.2,0.7-0.4,1.1-0.4c0.3,0,0.6,0.1,0.9,0.2
		c0.3,0.1,0.5,0.3,0.6,0.6c0.2,0.3,0.3,0.6,0.4,0.9c0.1,0.4,0.1,0.9,0.1,1.5c0,0.7-0.1,1.3-0.2,1.8c-0.2,0.5-0.4,0.8-0.7,1.1
		c-0.3,0.2-0.7,0.4-1.1,0.4c-0.6,0-1.1-0.2-1.4-0.7C162.1,271.6,161.9,270.8,161.9,269.6L161.9,269.6z M162.7,269.6
		c0,1,0.1,1.7,0.4,2.1c0.2,0.3,0.5,0.5,0.9,0.5c0.4,0,0.7-0.2,0.9-0.5c0.2-0.3,0.4-1,0.4-2.1s-0.1-1.7-0.4-2.1
		c-0.2-0.3-0.5-0.5-0.9-0.5c-0.4,0-0.6,0.2-0.9,0.5C162.9,267.8,162.7,268.5,162.7,269.6L162.7,269.6z"/>
	<g>
		<defs>
			<rect id="SVGID_3_" x="0.5" width="566.9" height="285"/>
		</defs>
		<clipPath id="SVGID_4_">
			<use xlink:href="#SVGID_3_"  style="overflow:visible;"/>
		</clipPath>
		<polyline class="st3" points="0.5,252.4 2.7,251.9 4.9,251.3 7.1,250.8 9.4,250.2 11.6,249.6 13.8,249 16,248.4 18.2,247.7 
			20.4,247.1 22.6,246.4 24.9,245.6 27.1,244.9 29.3,244.1 31.5,243.2 33.7,242.4 35.9,241.5 38.1,240.6 40.4,239.7 42.6,238.7 
			44.8,237.7 47,236.7 49.2,235.6 51.4,234.5 53.6,233.4 55.9,232.2 58.1,231 60.3,229.7 62.5,228.5 64.7,227.2 66.9,225.8 
			69.2,224.4 71.4,223 73.6,221.5 75.8,220 78,218.5 80.2,216.9 82.4,215.3 84.7,213.6 86.9,212 89.1,210.2 91.3,208.5 93.5,206.6 
			95.7,204.8 97.9,202.9 100.2,201 102.4,199 104.6,197 106.8,195 109,192.9 111.2,190.8 113.4,188.6 115.7,186.5 117.9,184.2 
			120.1,182 122.3,179.7 124.5,177.4 126.7,175 128.9,172.6 131.2,170.2 133.4,167.8 135.6,165.3 137.8,162.8 140,160.3 
			142.2,157.8 144.4,155.2 146.7,152.6 148.9,150 151.1,147.4 153.3,144.7 155.5,142.1 157.7,139.4 159.9,136.7 162.2,134 
			164.4,131.3 166.6,128.6 168.8,125.9 171,123.2 173.2,120.5 175.5,117.8 177.7,115.1 179.9,112.4 182.1,109.7 184.3,107.1 
			186.5,104.4 188.7,101.8 191,99.1 193.2,96.5 195.4,94 197.6,91.4 199.8,88.9 202,86.4 204.2,83.9 206.5,81.5 208.7,79.1 
			210.9,76.7 213.1,74.4 215.3,72.1 217.5,69.9 219.7,67.7 222,65.6 224.2,63.5 226.4,61.5 228.6,59.5 230.8,57.6 233,55.8 
			235.2,54 237.5,52.3 239.7,50.6 241.9,49 244.1,47.5 246.3,46.1 248.5,44.7 250.7,43.4 253,42.2 255.2,41.1 257.4,40 259.6,39.1 
			261.8,38.2 264,37.3 266.2,36.6 268.5,36 270.7,35.4 272.9,34.9 275.1,34.5 277.3,34.2 279.5,34 281.8,33.9 284,33.8 286.2,33.9 
			288.4,34 290.6,34.2 292.8,34.5 295,34.9 297.3,35.4 299.5,36 301.7,36.6 303.9,37.3 306.1,38.2 308.3,39.1 310.5,40 312.8,41.1 
			315,42.2 317.2,43.4 319.4,44.7 321.6,46.1 323.8,47.5 326,49 328.3,50.6 330.5,52.3 332.7,54 334.9,55.8 337.1,57.6 339.3,59.5 
			341.5,61.5 343.8,63.5 346,65.6 348.2,67.7 350.4,69.9 352.6,72.1 354.8,74.4 357,76.7 359.3,79.1 361.5,81.5 363.7,83.9 
			365.9,86.4 368.1,88.9 370.3,91.4 372.5,94 374.8,96.5 377,99.1 379.2,101.8 381.4,104.4 383.6,107.1 385.8,109.7 388,112.4 
			390.3,115.1 392.5,117.8 394.7,120.5 396.9,123.2 399.1,125.9 401.3,128.6 403.6,131.3 405.8,134 408,136.7 410.2,139.4 
			412.4,142.1 414.6,144.7 416.8,147.4 419.1,150 421.3,152.6 423.5,155.2 425.7,157.8 427.9,160.3 430.1,162.8 432.3,165.3 
			434.6,167.8 436.8,170.2 439,172.6 441.2,175 443.4,177.4 445.6,179.7 447.8,182 450.1,184.2 452.3,186.5 454.5,188.6 
			456.7,190.8 458.9,192.9 461.1,195 463.3,197 465.6,199 467.8,201 470,202.9 472.2,204.8 474.4,206.6 476.6,208.5 478.8,210.2 
			481.1,212 483.3,213.6 485.5,215.3 487.7,216.9 489.9,218.5 492.1,220 494.3,221.5 496.6,223 498.8,224.4 501,225.8 503.2,227.2 
			505.4,228.5 507.6,229.7 509.9,231 512.1,232.2 514.3,233.4 516.5,234.5 518.7,235.6 520.9,236.7 523.1,237.7 525.4,238.7 
			527.6,239.7 529.8,240.6 532,241.5 534.2,242.4 536.4,243.2 538.6,244.1 540.9,244.9 543.1,245.6 545.3,246.4 547.5,247.1 
			549.7,247.7 551.9,248.4 554.1,249 556.4,249.6 558.6,250.2 560.8,250.8 563,251.3 565.2,251.9 567.4,252.4 		"/>
	</g>
</g>
</svg>
