<?xml version="1.0" encoding="utf-8"?>
<!-- Generator: Adobe Illustrator 22.1.0, SVG Export Plug-In . SVG Version: 6.00 Build 0)  -->
<svg version="1.1" id="Calque_1" xmlns="http://www.w3.org/2000/svg" xmlns:xlink="http://www.w3.org/1999/xlink" x="0px" y="0px"
	 viewBox="0 0 635.1 319.3" style="enable-background:new 0 0 635.1 319.3;" xml:space="preserve">
<style type="text/css">
	.st0{clip-path:url(#SVGID_2_);fill:#FFFFFF;}
	.st1{clip-path:url(#SVGID_2_);fill:none;stroke:#E0E0E0;stroke-linecap:round;stroke-linejoin:round;stroke-miterlimit:10;}
	.st2{clip-path:url(#SVGID_2_);fill:none;stroke:#F8F8F8;stroke-linecap:round;stroke-linejoin:round;stroke-miterlimit:10;}
	.st3{clip-path:url(#SVGID_2_);fill:none;stroke:#000000;stroke-miterlimit:10;}
	.st4{fill:none;stroke:#FF0000;stroke-width:2.5;stroke-linecap:round;stroke-linejoin:round;stroke-miterlimit:10;}
	.st5{fill:#E6F5E6;}
	.st6{clip-path:url(#SVGID_4_);fill:none;stroke:#009900;stroke-linecap:round;stroke-linejoin:round;stroke-miterlimit:10;}
	
		.st7{clip-path:url(#SVGID_4_);fill:none;stroke:#4D71DB;stroke-width:1.5;stroke-linecap:round;stroke-linejoin:round;stroke-miterlimit:10;}
	.st8{fill:#0033CC;}
</style>
<g>
	<g>
		<defs>
			<rect id="SVGID_1_" x="0.8" width="634.1" height="319"/>
		</defs>
		<clipPath id="SVGID_2_">
			<use xlink:href="#SVGID_1_"  style="overflow:visible;"/>
		</clipPath>
		<polygon class="st0" points="0.8,0 635.1,0 635.1,319.3 0.8,319.3 0.8,0 		"/>
		<path class="st1" d="M92.1,0v319.3 M148.8,0v319.3 M205.5,0v319.3 M262.2,0v319.3 M318.9,0v319.3 M375.6,0v319.3 M432.3,0v319.3
			 M489,0v319.3 M545.7,0v319.3 M602.4,0v319.3"/>
		<path class="st2" d="M1.4,0v319.3 M12.8,0v319.3 M24.1,0v319.3 M46.8,0v319.3 M58.1,0v319.3 M69.4,0v319.3 M80.8,0v319.3 M103.5,0
			v319.3 M114.8,0v319.3 M126.1,0v319.3 M137.5,0v319.3 M160.2,0v319.3 M171.5,0v319.3 M182.8,0v319.3 M194.2,0v319.3 M216.8,0
			v319.3 M228.2,0v319.3 M239.5,0v319.3 M250.9,0v319.3 M273.5,0v319.3 M284.9,0v319.3 M296.2,0v319.3 M307.6,0v319.3 M330.2,0
			v319.3 M341.6,0v319.3 M352.9,0v319.3 M364.2,0v319.3 M386.9,0v319.3 M398.3,0v319.3 M409.6,0v319.3 M420.9,0v319.3 M443.6,0
			v319.3 M455,0v319.3 M466.3,0v319.3 M477.6,0v319.3 M500.3,0v319.3 M511.6,0v319.3 M523,0v319.3 M534.3,0v319.3 M557,0v319.3
			 M568.3,0v319.3 M579.7,0v319.3 M591,0v319.3 M613.7,0v319.3 M625,0v319.3"/>
		<path class="st1" d="M0.8,0h634.3 M0.8,0h634.3 M0.8,56.7h634.3 M0.8,113.4h634.3 M0.8,170.1h634.3 M0.8,226.8h634.3"/>
		<path class="st2" d="M0.8,0h634.3 M0.8,11.3h634.3 M0.8,22.7h634.3 M0.8,34h634.3 M0.8,45.4h634.3 M0.8,68h634.3 M0.8,79.4h634.3
			 M0.8,90.7h634.3 M0.8,102.1h634.3 M0.8,124.7h634.3 M0.8,136.1h634.3 M0.8,147.4h634.3 M0.8,158.7h634.3 M0.8,181.4h634.3
			 M0.8,192.8h634.3 M0.8,204.1h634.3 M0.8,215.4h634.3 M0.8,238.1h634.3 M0.8,249.5h634.3 M0.8,260.8h634.3 M0.8,272.1h634.3
			 M0.8,294.8h634.3 M0.8,306.2h634.3 M0.8,317.5h634.3"/>
		<path class="st3" d="M35.4,1.4v317.9 M35.4,0.7l-4.2,4.2 M35.4,0.7l4.2,4.2 M0.8,283.5h632.9 M634.4,283.5l-4.2-4.2 M634.4,283.5
			l-4.2,4.2"/>
	</g>
	<path d="M150.7,298.3h-1.1v-7c-0.3,0.3-0.6,0.5-1,0.8c-0.4,0.3-0.8,0.4-1.2,0.6v-1.1c0.6-0.3,1.2-0.6,1.6-1.1
		c0.5-0.4,0.8-0.8,1-1.2h0.7V298.3L150.7,298.3z"/>
	<path d="M265.6,297.2v1.1h-5.9c0-0.3,0-0.5,0.1-0.8c0.2-0.4,0.4-0.8,0.7-1.2c0.3-0.4,0.8-0.8,1.4-1.4c1-0.8,1.6-1.4,2-1.9
		c0.3-0.5,0.5-0.9,0.5-1.3c0-0.4-0.2-0.8-0.5-1.1c-0.3-0.3-0.7-0.4-1.2-0.4c-0.5,0-1,0.2-1.3,0.5c-0.3,0.3-0.5,0.8-0.5,1.3l-1.1-0.1
		c0.1-0.8,0.4-1.5,0.9-1.9c0.5-0.4,1.2-0.7,2-0.7s1.5,0.2,2,0.7c0.5,0.5,0.8,1.1,0.8,1.8c0,0.4-0.1,0.7-0.2,1.1
		c-0.1,0.3-0.4,0.7-0.7,1.1c-0.3,0.4-0.9,0.9-1.7,1.6c-0.7,0.6-1.1,0.9-1.3,1.1s-0.3,0.4-0.5,0.6H265.6L265.6,297.2z"/>
	<path d="M373.6,295.9l1.1-0.1c0.1,0.6,0.3,1.1,0.6,1.4c0.3,0.3,0.7,0.4,1.1,0.4c0.5,0,1-0.2,1.3-0.5c0.4-0.4,0.5-0.8,0.5-1.3
		c0-0.5-0.2-0.9-0.5-1.3c-0.3-0.3-0.8-0.5-1.3-0.5c-0.2,0-0.5,0-0.8,0.1l0.1-1c0.1,0,0.1,0,0.2,0c0.5,0,0.9-0.1,1.3-0.4
		c0.4-0.2,0.6-0.6,0.6-1.1c0-0.4-0.1-0.7-0.4-1s-0.6-0.4-1.1-0.4c-0.4,0-0.8,0.1-1.1,0.4c-0.3,0.3-0.5,0.7-0.6,1.2l-1.1-0.2
		c0.1-0.7,0.4-1.3,0.9-1.7c0.5-0.4,1.1-0.6,1.8-0.6c0.5,0,0.9,0.1,1.4,0.3c0.4,0.2,0.7,0.5,0.9,0.9c0.2,0.4,0.3,0.7,0.3,1.2
		c0,0.4-0.1,0.7-0.3,1.1c-0.2,0.3-0.5,0.6-0.9,0.8c0.5,0.1,0.9,0.4,1.2,0.8c0.3,0.4,0.4,0.9,0.4,1.4c0,0.8-0.3,1.5-0.9,2
		c-0.6,0.5-1.3,0.8-2.2,0.8c-0.8,0-1.4-0.2-2-0.7S373.7,296.7,373.6,295.9L373.6,295.9z"/>
	<path d="M490.3,298.3v-2.2h-3.9v-1l4.1-5.8h0.9v5.8h1.2v1h-1.2v2.2H490.3L490.3,298.3z M490.3,295.1v-4.1l-2.8,4.1H490.3
		L490.3,295.1z"/>
	<path d="M600,295.9l1.2-0.1c0.1,0.6,0.3,1,0.6,1.3c0.3,0.3,0.7,0.4,1.1,0.4c0.5,0,1-0.2,1.3-0.6c0.4-0.4,0.6-0.9,0.6-1.6
		c0-0.6-0.2-1.1-0.5-1.5c-0.4-0.4-0.8-0.5-1.4-0.5c-0.4,0-0.7,0.1-1,0.2c-0.3,0.2-0.5,0.4-0.7,0.6l-1-0.1l0.9-4.6h4.5v1h-3.6
		l-0.5,2.4c0.5-0.4,1.1-0.6,1.7-0.6c0.8,0,1.4,0.3,2,0.8c0.5,0.5,0.8,1.2,0.8,2.1c0,0.8-0.2,1.5-0.7,2.1c-0.6,0.7-1.4,1.1-2.4,1.1
		c-0.8,0-1.5-0.2-2-0.7C600.3,297.3,600,296.7,600,295.9L600,295.9z"/>
	<path d="M27.1,175.3H26v-7c-0.3,0.3-0.6,0.5-1,0.8c-0.4,0.3-0.8,0.4-1.2,0.6v-1.1c0.6-0.3,1.2-0.6,1.6-1.1c0.5-0.4,0.8-0.8,1-1.2
		h0.7V175.3L27.1,175.3z"/>
	<path d="M28.7,61.1v1.1h-5.9c0-0.3,0-0.5,0.1-0.8c0.2-0.4,0.4-0.8,0.7-1.2c0.3-0.4,0.8-0.8,1.4-1.4c1-0.8,1.6-1.4,2-1.9
		c0.3-0.5,0.5-0.9,0.5-1.3c0-0.4-0.2-0.8-0.5-1.1c-0.3-0.3-0.7-0.4-1.2-0.4c-0.5,0-1,0.2-1.3,0.5c-0.3,0.3-0.5,0.8-0.5,1.3L23,55.7
		c0.1-0.8,0.4-1.5,0.9-1.9c0.5-0.4,1.2-0.7,2-0.7c0.9,0,1.5,0.2,2,0.7c0.5,0.5,0.8,1.1,0.8,1.8c0,0.4-0.1,0.7-0.2,1.1
		c-0.1,0.3-0.4,0.7-0.7,1.1c-0.3,0.4-0.9,0.9-1.7,1.6c-0.7,0.6-1.1,0.9-1.3,1.1s-0.3,0.4-0.5,0.6H28.7L28.7,61.1z"/>
	<path d="M22.9,293.9c0-1.1,0.1-1.9,0.3-2.6c0.2-0.6,0.5-1.1,1-1.5s1-0.5,1.6-0.5c0.5,0,0.9,0.1,1.3,0.3c0.4,0.2,0.7,0.5,0.9,0.8
		s0.4,0.8,0.6,1.3c0.1,0.5,0.2,1.2,0.2,2.1c0,1.1-0.1,1.9-0.3,2.6c-0.2,0.7-0.5,1.2-1,1.5c-0.4,0.4-1,0.5-1.6,0.5
		c-0.9,0-1.6-0.3-2.1-0.9C23.2,296.8,22.9,295.5,22.9,293.9L22.9,293.9z M24.1,293.9c0,1.5,0.2,2.5,0.5,3c0.3,0.5,0.8,0.7,1.3,0.7
		c0.5,0,0.9-0.2,1.3-0.7c0.3-0.5,0.5-1.5,0.5-3s-0.2-2.5-0.5-2.9c-0.3-0.5-0.8-0.7-1.3-0.7c-0.5,0-0.9,0.2-1.2,0.6
		C24.3,291.4,24.1,292.4,24.1,293.9L24.1,293.9z"/>
	<path class="st4" d="M35.4,283.5L35.4,283.5 M35.4,272.1l11.3,11.3 M35.4,260.8l22.7,22.7 M35.4,249.5l34,34 M35.4,238.1l45.4,45.4
		 M35.4,226.8l56.7,56.7 M35.4,215.4l68,68 M35.4,204.1l79.4,79.4 M35.4,192.8l90.7,90.7 M35.4,181.4l102,102 M35.4,170.1
		l113.4,113.4 M148.8,272.1l-102-102 M148.8,260.8l-90.7-90.7 M148.8,249.5l-79.4-79.4 M148.8,238.1l-68-68 M148.8,226.8l-56.7-56.7
		 M148.8,215.4l-45.4-45.4 M148.8,204.1l-34-34 M148.8,192.8l-22.7-22.7 M148.8,181.4l-11.3-11.3 M148.8,170.1L148.8,170.1"/>
	<polyline class="st5" points="35.4,283.5 35.4,56.7 36.3,57.6 37.2,58.4 38.1,59.3 39,60.1 39.9,61 40.7,61.8 41.6,62.6 42.5,63.4 
		43.4,64.2 44.3,64.9 45.2,65.7 46.1,66.4 46.9,67.2 47.8,67.9 48.7,68.6 49.6,69.3 50.5,70 51.4,70.7 52.3,71.4 53.1,72 54,72.7 
		54.9,73.3 55.8,74 56.7,74.6 57.6,75.2 58.5,75.8 59.3,76.5 60.2,77.1 61.1,77.6 62,78.2 62.9,78.8 63.8,79.4 64.7,79.9 65.5,80.5 
		66.4,81 67.3,81.6 68.2,82.1 69.1,82.7 70,83.2 70.9,83.7 71.7,84.2 72.6,84.7 73.5,85.2 74.4,85.7 75.3,86.2 76.2,86.7 77.1,87.2 
		77.9,87.6 78.8,88.1 79.7,88.6 80.6,89 81.5,89.5 82.4,89.9 83.3,90.3 84.1,90.8 85,91.2 85.9,91.6 86.8,92.1 87.7,92.5 88.6,92.9 
		89.5,93.3 90.4,93.7 91.2,94.1 92.1,94.5 93,94.9 93.9,95.3 94.8,95.7 95.7,96 96.6,96.4 97.4,96.8 98.3,97.2 99.2,97.5 
		100.1,97.9 101,98.2 101.9,98.6 102.8,98.9 103.6,99.3 104.5,99.6 105.4,100 106.3,100.3 107.2,100.6 108.1,101 109,101.3 
		109.8,101.6 110.7,102 111.6,102.3 112.5,102.6 113.4,102.9 114.3,103.2 115.2,103.5 116,103.8 116.9,104.1 117.8,104.4 
		118.7,104.7 119.6,105 120.5,105.3 121.4,105.6 122.2,105.9 123.1,106.2 124,106.4 124.9,106.7 125.8,107 126.7,107.3 127.6,107.5 
		128.4,107.8 129.3,108.1 130.2,108.3 131.1,108.6 132,108.9 132.9,109.1 133.8,109.4 134.6,109.6 135.5,109.9 136.4,110.1 
		137.3,110.4 138.2,110.6 139.1,110.9 140,111.1 140.8,111.3 141.7,111.6 142.6,111.8 143.5,112 144.4,112.3 145.3,112.5 
		146.2,112.7 147,112.9 147.9,113.2 148.8,113.4 149.7,113.6 150.6,113.8 151.5,114.1 152.4,114.3 153.2,114.5 154.1,114.7 
		155,114.9 155.9,115.1 156.8,115.3 157.7,115.5 158.6,115.7 159.4,115.9 160.3,116.1 161.2,116.3 162.1,116.5 163,116.7 
		163.9,116.9 164.8,117.1 165.6,117.3 166.5,117.5 167.4,117.7 168.3,117.9 169.2,118.1 170.1,118.3 171,118.4 171.8,118.6 
		172.7,118.8 173.6,119 174.5,119.2 175.4,119.3 176.3,119.5 177.2,119.7 178,119.9 178.9,120 179.8,120.2 180.7,120.4 181.6,120.6 
		182.5,120.7 183.4,120.9 184.2,121.1 185.1,121.2 186,121.4 186.9,121.5 187.8,121.7 188.7,121.9 189.6,122 190.4,122.2 
		191.3,122.3 192.2,122.5 193.1,122.7 194,122.8 194.9,123 195.8,123.1 196.6,123.3 197.5,123.4 198.4,123.6 199.3,123.7 
		200.2,123.9 201.1,124 202,124.2 202.9,124.3 203.7,124.4 204.6,124.6 205.5,124.7 206.4,124.9 207.3,125 208.2,125.2 209.1,125.3 
		209.9,125.4 210.8,125.6 211.7,125.7 212.6,125.8 213.5,126 214.4,126.1 215.3,126.2 216.1,126.4 217,126.5 217.9,126.6 
		218.8,126.8 219.7,126.9 220.6,127 221.5,127.1 222.3,127.3 223.2,127.4 224.1,127.5 225,127.7 225.9,127.8 226.8,127.9 227.7,128 
		228.5,128.1 229.4,128.3 230.3,128.4 231.2,128.5 232.1,128.6 233,128.7 233.9,128.9 234.7,129 235.6,129.1 236.5,129.2 
		237.4,129.3 238.3,129.4 239.2,129.5 240.1,129.7 240.9,129.8 241.8,129.9 242.7,130 243.6,130.1 244.5,130.2 245.4,130.3 
		246.3,130.4 247.1,130.5 248,130.6 248.9,130.8 249.8,130.9 250.7,131 251.6,131.1 252.5,131.2 253.3,131.3 254.2,131.4 
		255.1,131.5 256,131.6 256.9,131.7 257.8,131.8 258.7,131.9 259.5,132 260.4,132.1 261.3,132.2 262.2,132.3 262.2,283.5 
		35.4,283.5 	"/>
	<g>
		<defs>
			<rect id="SVGID_3_" x="0.8" width="634.1" height="319"/>
		</defs>
		<clipPath id="SVGID_4_">
			<use xlink:href="#SVGID_3_"  style="overflow:visible;"/>
		</clipPath>
		<polyline class="st6" points="35.4,283.5 35.4,56.7 36.3,57.6 37.2,58.4 38.1,59.3 39,60.1 39.9,61 40.7,61.8 41.6,62.6 
			42.5,63.4 43.4,64.2 44.3,64.9 45.2,65.7 46.1,66.4 46.9,67.2 47.8,67.9 48.7,68.6 49.6,69.3 50.5,70 51.4,70.7 52.3,71.4 
			53.1,72 54,72.7 54.9,73.3 55.8,74 56.7,74.6 57.6,75.2 58.5,75.8 59.3,76.5 60.2,77.1 61.1,77.6 62,78.2 62.9,78.8 63.8,79.4 
			64.7,79.9 65.5,80.5 66.4,81 67.3,81.6 68.2,82.1 69.1,82.7 70,83.2 70.9,83.7 71.7,84.2 72.6,84.7 73.5,85.2 74.4,85.7 
			75.3,86.2 76.2,86.7 77.1,87.2 77.9,87.6 78.8,88.1 79.7,88.6 80.6,89 81.5,89.5 82.4,89.9 83.3,90.3 84.1,90.8 85,91.2 
			85.9,91.6 86.8,92.1 87.7,92.5 88.6,92.9 89.5,93.3 90.4,93.7 91.2,94.1 92.1,94.5 93,94.9 93.9,95.3 94.8,95.7 95.7,96 
			96.6,96.4 97.4,96.8 98.3,97.2 99.2,97.5 100.1,97.9 101,98.2 101.9,98.6 102.8,98.9 103.6,99.3 104.5,99.6 105.4,100 
			106.3,100.3 107.2,100.6 108.1,101 109,101.3 109.8,101.6 110.7,102 111.6,102.3 112.5,102.6 113.4,102.9 114.3,103.2 
			115.2,103.5 116,103.8 116.9,104.1 117.8,104.4 118.7,104.7 119.6,105 120.5,105.3 121.4,105.6 122.2,105.9 123.1,106.2 
			124,106.4 124.9,106.7 125.8,107 126.7,107.3 127.6,107.5 128.4,107.8 129.3,108.1 130.2,108.3 131.1,108.6 132,108.9 
			132.9,109.1 133.8,109.4 134.6,109.6 135.5,109.9 136.4,110.1 137.3,110.4 138.2,110.6 139.1,110.9 140,111.1 140.8,111.3 
			141.7,111.6 142.6,111.8 143.5,112 144.4,112.3 145.3,112.5 146.2,112.7 147,112.9 147.9,113.2 148.8,113.4 149.7,113.6 
			150.6,113.8 151.5,114.1 152.4,114.3 153.2,114.5 154.1,114.7 155,114.9 155.9,115.1 156.8,115.3 157.7,115.5 158.6,115.7 
			159.4,115.9 160.3,116.1 161.2,116.3 162.1,116.5 163,116.7 163.9,116.9 164.8,117.1 165.6,117.3 166.5,117.5 167.4,117.7 
			168.3,117.9 169.2,118.1 170.1,118.3 171,118.4 171.8,118.6 172.7,118.8 173.6,119 174.5,119.2 175.4,119.3 176.3,119.5 
			177.2,119.7 178,119.9 178.9,120 179.8,120.2 180.7,120.4 181.6,120.6 182.5,120.7 183.4,120.9 184.2,121.1 185.1,121.2 
			186,121.4 186.9,121.5 187.8,121.7 188.7,121.9 189.6,122 190.4,122.2 191.3,122.3 192.2,122.5 193.1,122.7 194,122.8 194.9,123 
			195.8,123.1 196.6,123.3 197.5,123.4 198.4,123.6 199.3,123.7 200.2,123.9 201.1,124 202,124.2 202.9,124.3 203.7,124.4 
			204.6,124.6 205.5,124.7 206.4,124.9 207.3,125 208.2,125.2 209.1,125.3 209.9,125.4 210.8,125.6 211.7,125.7 212.6,125.8 
			213.5,126 214.4,126.1 215.3,126.2 216.1,126.4 217,126.5 217.9,126.6 218.8,126.8 219.7,126.9 220.6,127 221.5,127.1 
			222.3,127.3 223.2,127.4 224.1,127.5 225,127.7 225.9,127.8 226.8,127.9 227.7,128 228.5,128.1 229.4,128.3 230.3,128.4 
			231.2,128.5 232.1,128.6 233,128.7 233.9,128.9 234.7,129 235.6,129.1 236.5,129.2 237.4,129.3 238.3,129.4 239.2,129.5 
			240.1,129.7 240.9,129.8 241.8,129.9 242.7,130 243.6,130.1 244.5,130.2 245.4,130.3 246.3,130.4 247.1,130.5 248,130.6 
			248.9,130.8 249.8,130.9 250.7,131 251.6,131.1 252.5,131.2 253.3,131.3 254.2,131.4 255.1,131.5 256,131.6 256.9,131.7 
			257.8,131.8 258.7,131.9 259.5,132 260.4,132.1 261.3,132.2 262.2,132.3 262.2,283.5 35.4,283.5 		"/>
		<path class="st7" d="M0.8,6.7l2.5,5l2.5,4.7l2.5,4.4l2.5,4.2l2.5,3.9l2.5,3.7l2.5,3.5l2.5,3.4l2.5,3.2l2.5,3l2.5,2.9l2.5,2.8
			l2.5,2.6l2.5,2.5l2.5,2.4l2.5,2.3l2.5,2.2l2.5,2.1l2.5,2.1l2.5,2l2.5,1.9l2.5,1.8l2.5,1.8l2.5,1.7l2.5,1.6l2.5,1.6l2.5,1.5
			l2.5,1.5l2.5,1.4l2.5,1.4l2.5,1.3l2.5,1.3l2.5,1.3l2.5,1.2l2.5,1.2l2.5,1.1l2.5,1.1l2.5,1.1l2.5,1.1l2.5,1l2.5,1l2.5,1l2.5,0.9
			l2.5,0.9l2.5,0.9l2.5,0.9l2.5,0.8l2.5,0.8l2.5,0.8l2.5,0.8l2.5,0.8l2.5,0.7l2.5,0.7l2.5,0.7l2.5,0.7l2.5,0.7l2.5,0.7l2.5,0.7
			l2.5,0.6l2.5,0.6l2.5,0.6l2.5,0.6l2.5,0.6l2.5,0.6l2.5,0.6l2.5,0.5l2.5,0.5l2.5,0.5l2.5,0.5l2.5,0.5l2.5,0.5l2.5,0.5l2.5,0.5
			l2.5,0.5l2.5,0.5l2.5,0.5l2.5,0.4l2.5,0.4l2.5,0.4l2.5,0.4l2.5,0.4l2.5,0.4l2.5,0.4l2.5,0.4l2.5,0.4l2.5,0.4l2.5,0.4l2.5,0.4
			l2.5,0.4l2.5,0.4l2.5,0.3l2.5,0.3l2.5,0.3l2.5,0.3l2.5,0.3l2.5,0.3l2.5,0.3l2.5,0.3l2.5,0.3l2.5,0.3l2.5,0.3l2.5,0.3l2.5,0.3
			l2.5,0.3l2.5,0.3l2.5,0.3l2.5,0.3l2.5,0.3l2.5,0.3l2.5,0.3l2.5,0.3l2.5,0.3l2.5,0.2l2.5,0.2l2.5,0.2l2.5,0.2l2.5,0.2l2.5,0.2
			l2.5,0.2l2.5,0.2l2.5,0.2l2.5,0.2l2.5,0.2l2.5,0.2l2.5,0.2l2.5,0.2l2.5,0.2l2.5,0.2 M317.9,137.6l2.5,0.2l2.5,0.2l2.5,0.2l2.5,0.2
			l2.5,0.2l2.5,0.2l2.5,0.2l2.5,0.2l2.5,0.2l2.5,0.2l2.5,0.2l2.5,0.2l2.5,0.2l2.5,0.2l2.5,0.2l2.5,0.2l2.5,0.2l2.5,0.2l2.5,0.2
			l2.5,0.2l2.5,0.2l2.5,0.2l2.5,0.2l2.5,0.2l2.5,0.2l2.5,0.2l2.5,0.1l2.5,0.1l2.5,0.1l2.5,0.1l2.5,0.1l2.5,0.1l2.5,0.1l2.5,0.1
			l2.5,0.1l2.5,0.1l2.5,0.1l2.5,0.1l2.5,0.1l2.5,0.1l2.5,0.1l2.5,0.1l2.5,0.1l2.5,0.1l2.5,0.1l2.5,0.1l2.5,0.1l2.5,0.1l2.5,0.1
			l2.5,0.1l2.5,0.1l2.5,0.1l2.5,0.1l2.5,0.1l2.5,0.1l2.5,0.1l2.5,0.1l2.5,0.1l2.5,0.1l2.5,0.1l2.5,0.1l2.5,0.1l2.5,0.1l2.5,0.1
			 M476.5,146.9l2.5,0.1l2.5,0.1l2.5,0.1l2.5,0.1l2.5,0.1l2.5,0.1l2.5,0.1l2.5,0.1l2.5,0.1l2.5,0.1l2.5,0.1l2.5,0.1l2.5,0.1l2.5,0.1
			l2.5,0.1l2.5,0.1l2.5,0.1l2.5,0.1l2.5,0.1l2.5,0.1l2.5,0.1l2.5,0.1l2.5,0.1l2.5,0.1l2.5,0.1l2.5,0.1l2.5,0.1l2.5,0.1l2.5,0.1
			l2.5,0.1l2.5,0.1l2.5,0.1 M555.8,149.8l2.5,0.1l2.5,0.1l2.5,0.1l2.5,0.1l2.5,0.1l2.5,0.1l2.5,0.1l2.5,0.1l2.5,0.1l2.5,0.1l2.5,0.1
			l2.5,0.1l2.5,0.1l2.5,0.1l2.5,0.1l2.5,0.1 M595.4,151l2.5,0.1l2.5,0.1 M600.4,151.1l2,0.1"/>
	</g>
	<path class="st4" d="M35.4,283.5h113.4 M148.8,283.5V170.1 M148.8,170.1H35.4 M35.4,170.1v113.4"/>
	<path class="st8" d="M348.2,161.7c0,0,0.1,0.1,0.1,0.1c0,0,0,0,0,0.1l-0.1,0.1l-0.1,0c0,0,0,0-0.1,0c0,0,0,0-0.1,0
		c-0.3-0.2-0.5-0.5-0.5-0.9c0-0.4,0.2-0.8,0.5-1.3c0.4-0.5,0.8-1,1.4-1.4c0.6-0.4,1-0.6,1.5-0.6c1,0,1.6,0.4,1.8,1.1
		c0,0.1,0.1,0.3,0.1,0.4c0,0.6-0.3,1.3-0.8,2.1c-0.4,0.6-1,1.1-1.9,1.6c-0.8,0.4-1.6,0.7-2.3,0.7c-0.8,0-1.4-0.2-1.9-0.6
		c-0.5-0.4-0.7-0.9-0.8-1.6c0-0.1,0-0.2,0-0.4c0-1.3,0.6-2.8,1.8-4.4h-0.4c-1.7,0-2.9-0.4-3.6-1.2c-0.3-0.4-0.5-0.8-0.5-1.3
		c0-0.5,0.2-1,0.6-1.6c0.4-0.6,1.1-1.1,1.9-1.5c0.9-0.4,1.7-0.6,2.6-0.6c0.1,0,0.2,0.1,0.2,0.2c0,0,0,0.1-0.1,0.2
		c0,0-0.1,0.1-0.1,0.1c-0.7,0-1.3,0.2-2,0.5c-0.6,0.3-1.1,0.8-1.5,1.3c-0.4,0.6-0.6,1.1-0.6,1.6c0,0.3,0.1,0.6,0.2,0.8
		c0.5,0.7,1.5,1,3,1c0.3,0,0.5,0,0.6,0c1.3-1.7,2.7-3.2,4.3-4.4c1.7-1.3,3.2-2,4.3-2c0.8,0,1.2,0.3,1.3,0.9c0,0.1,0,0.1,0,0.2
		c0,0.5-0.2,1.1-0.7,1.8c-0.8,1.1-2.1,2-4.1,2.8c-1.2,0.5-2.4,0.8-3.7,1c-1.5,2.1-2.3,3.8-2.4,4.9v0.2c0,0.5,0.1,0.9,0.4,1.1
		s0.7,0.4,1.2,0.4c0.5,0,1.1-0.2,1.6-0.6c0.5-0.3,1-0.8,1.4-1.5c0.6-0.9,0.9-1.6,0.9-2.1v-0.1c0-0.5-0.4-0.8-1-0.8
		c-0.3,0-0.7,0.2-1.1,0.5c-0.4,0.3-0.8,0.7-1.2,1.2c-0.3,0.4-0.5,0.8-0.5,1.2C347.9,161.4,348,161.6,348.2,161.7L348.2,161.7z
		 M348.2,162l0-0.2v0C348.2,161.8,348.2,161.8,348.2,162C348.2,161.9,348.2,161.9,348.2,162L348.2,162z M355.5,150.3
		c-0.8,0-1.9,0.6-3.3,1.9c-1.1,0.9-2.2,2.3-3.4,3.9c1-0.2,2.1-0.4,3.2-0.8c1.8-0.7,3.1-1.6,3.8-2.6c0.5-0.7,0.7-1.2,0.7-1.6l0-0.2
		C356.4,150.6,356.1,150.3,355.5,150.3L355.5,150.3z"/>
	<path class="st8" d="M359.1,163.8L359.1,163.8l-0.8,4.2c-0.1,0.5-0.2,1.2-0.5,1.9c-0.1,0.3-0.2,0.5-0.3,0.6
		c-0.3,0.7-0.7,1.1-1.1,1.2c-0.1,0-0.2,0.1-0.3,0.1c-0.4,0-0.8-0.1-1-0.4c-0.1-0.1-0.1-0.3-0.1-0.5c0-0.4,0.1-0.6,0.4-0.7
		c0.1,0,0.2-0.1,0.3-0.1c0.3,0,0.4,0.1,0.5,0.3c0,0,0,0.1,0,0.1c0,0.3-0.1,0.5-0.4,0.6c-0.1,0-0.2,0.1-0.3,0.1
		c0.2,0.2,0.4,0.2,0.6,0.2c0.4,0,0.7-0.4,0.9-1.3c0-0.2,0.1-0.5,0.2-0.8l0.1-0.4l1-5.2h-0.9c-0.2,0-0.3,0-0.4-0.1h0v-0.1
		c0-0.1,0.1-0.2,0.2-0.2l0,0h0.2h0.9c0.2-1.1,0.4-1.8,0.4-2.1c0.3-0.9,0.7-1.4,1.4-1.5c0.1,0,0.2,0,0.3,0c0.5,0,0.8,0.1,1,0.4l0,0
		c0.1,0.1,0.1,0.3,0.1,0.5c0,0.4-0.1,0.6-0.4,0.7c-0.1,0-0.2,0.1-0.3,0.1c-0.3,0-0.4-0.1-0.5-0.3c0,0,0-0.1,0-0.1
		c0-0.3,0.1-0.5,0.4-0.6c0.1-0.1,0.2-0.1,0.3-0.1c-0.2-0.2-0.4-0.2-0.6-0.2c-0.3,0-0.5,0.1-0.6,0.4c-0.1,0.1-0.2,0.6-0.3,1.4
		l-0.3,1.5h1.1c0.2,0,0.3,0,0.4,0.1c0,0.2-0.1,0.2-0.2,0.3h0h-0.2H359.1L359.1,163.8z"/>
</g>
</svg>
