<?xml version="1.0" encoding="utf-8"?>
<!-- Generator: Adobe Illustrator 22.1.0, SVG Export Plug-In . SVG Version: 6.00 Build 0)  -->
<svg version="1.1" id="Calque_1" xmlns="http://www.w3.org/2000/svg" xmlns:xlink="http://www.w3.org/1999/xlink" x="0px" y="0px"
	 viewBox="0 0 566.9 285" style="enable-background:new 0 0 566.9 285;" xml:space="preserve">
<style type="text/css">
	.st0{clip-path:url(#SVGID_2_);fill:#FFFFFF;}
	.st1{clip-path:url(#SVGID_2_);fill:none;stroke:#C0C0C0;stroke-linecap:round;stroke-linejoin:round;stroke-miterlimit:10;}
	.st2{clip-path:url(#SVGID_2_);fill:none;stroke:#000000;stroke-miterlimit:10;}
	.st3{clip-path:url(#SVGID_4_);fill:none;stroke:#DB4D4D;stroke-linecap:round;stroke-linejoin:round;stroke-miterlimit:10;}
</style>
<g>
	<g>
		<defs>
			<rect id="SVGID_1_" width="566.9" height="285"/>
		</defs>
		<clipPath id="SVGID_2_">
			<use xlink:href="#SVGID_1_"  style="overflow:visible;"/>
		</clipPath>
		<polygon class="st0" points="0,0 566.9,0 566.9,285.9 0,285.9 0,0 		"/>
		<path class="st1" d="M-1.5,0v285.9 M-1.5,0v285.9 M55.2,0v285.9 M111.9,0v285.9 M168.6,0v285.9 M225.3,0v285.9 M282,0v285.9
			 M338.7,0v285.9 M395.4,0v285.9 M452.1,0v285.9 M508.8,0v285.9 M565.5,0v285.9 M0,15.3h566.9 M0,15.3h566.9 M0,38.2h566.9 M0,61.1
			h566.9 M0,84h566.9 M0,106.9h566.9 M0,129.8h566.9 M0,152.7h566.9 M0,175.7h566.9 M0,198.6h566.9 M0,221.5h566.9 M0,244.4h566.9"
			/>
		<path class="st2" d="M0,267.3h565.9 M566.4,267.3l-2.9-2.9 M566.4,267.3l-2.9,2.9"/>
	</g>
	<path d="M53.3,272.8l-0.8,0.1c-0.1-0.3-0.2-0.5-0.3-0.7c-0.2-0.2-0.5-0.3-0.8-0.3c-0.2,0-0.5,0.1-0.7,0.2c-0.2,0.2-0.4,0.4-0.6,0.8
		c-0.1,0.3-0.2,0.8-0.2,1.5c0.2-0.3,0.4-0.5,0.7-0.6s0.5-0.2,0.8-0.2c0.5,0,1,0.2,1.3,0.6c0.4,0.4,0.5,0.9,0.5,1.5
		c0,0.4-0.1,0.8-0.3,1.1c-0.2,0.3-0.4,0.6-0.7,0.8c-0.3,0.2-0.6,0.3-1,0.3c-0.6,0-1.2-0.2-1.6-0.7c-0.4-0.5-0.6-1.3-0.6-2.3
		c0-1.2,0.2-2.1,0.7-2.7c0.4-0.5,0.9-0.7,1.6-0.7c0.5,0,0.9,0.1,1.2,0.4C53.1,272,53.3,272.3,53.3,272.8L53.3,272.8z M50.2,275.5
		c0,0.3,0.1,0.5,0.2,0.8c0.1,0.2,0.3,0.4,0.5,0.6c0.2,0.1,0.4,0.2,0.6,0.2c0.3,0,0.6-0.1,0.8-0.4c0.2-0.3,0.4-0.6,0.4-1.1
		c0-0.4-0.1-0.8-0.3-1c-0.2-0.3-0.5-0.4-0.9-0.4c-0.4,0-0.6,0.1-0.9,0.4C50.3,274.8,50.2,275.1,50.2,275.5L50.2,275.5z M54.2,274.5
		c0-0.7,0.1-1.3,0.2-1.8c0.2-0.5,0.4-0.8,0.7-1.1c0.3-0.2,0.7-0.4,1.1-0.4c0.3,0,0.6,0.1,0.9,0.2c0.3,0.1,0.5,0.3,0.6,0.6
		c0.2,0.3,0.3,0.6,0.4,0.9c0.1,0.4,0.1,0.9,0.1,1.5c0,0.7-0.1,1.3-0.2,1.8c-0.2,0.5-0.4,0.8-0.7,1.1c-0.3,0.2-0.7,0.4-1.1,0.4
		c-0.6,0-1.1-0.2-1.4-0.7C54.4,276.5,54.2,275.7,54.2,274.5L54.2,274.5z M55,274.5c0,1,0.1,1.7,0.4,2.1c0.2,0.3,0.5,0.5,0.9,0.5
		c0.4,0,0.7-0.2,0.9-0.5c0.2-0.3,0.4-1,0.4-2.1s-0.1-1.7-0.4-2.1c-0.2-0.3-0.5-0.5-0.9-0.5c-0.4,0-0.6,0.2-0.9,0.5
		C55.2,272.7,55,273.4,55,274.5L55,274.5z M59.1,274.5c0-0.7,0.1-1.3,0.2-1.8c0.2-0.5,0.4-0.8,0.7-1.1s0.7-0.4,1.1-0.4
		c0.3,0,0.6,0.1,0.9,0.2c0.3,0.1,0.5,0.3,0.6,0.6c0.2,0.3,0.3,0.6,0.4,0.9c0.1,0.4,0.1,0.9,0.1,1.5c0,0.7-0.1,1.3-0.2,1.8
		c-0.2,0.5-0.4,0.8-0.7,1.1s-0.7,0.4-1.1,0.4c-0.6,0-1.1-0.2-1.4-0.7C59.3,276.5,59.1,275.7,59.1,274.5L59.1,274.5z M59.9,274.5
		c0,1,0.1,1.7,0.4,2.1c0.2,0.3,0.5,0.5,0.9,0.5c0.4,0,0.7-0.2,0.9-0.5c0.2-0.3,0.4-1,0.4-2.1s-0.1-1.7-0.4-2.1
		c-0.2-0.3-0.5-0.5-0.9-0.5c-0.4,0-0.6,0.2-0.9,0.5C60.1,272.7,59.9,273.4,59.9,274.5L59.9,274.5z"/>
	<path d="M106.2,272.1v-0.7h4.1v0.6c-0.4,0.4-0.8,1-1.2,1.7c-0.4,0.7-0.7,1.4-0.9,2.2c-0.2,0.5-0.3,1.1-0.3,1.7H107
		c0-0.5,0.1-1.1,0.3-1.8c0.2-0.7,0.5-1.4,0.8-2s0.7-1.2,1.1-1.7H106.2L106.2,272.1z M111,274.5c0-0.7,0.1-1.3,0.2-1.8
		c0.2-0.5,0.4-0.8,0.7-1.1s0.7-0.4,1.1-0.4c0.3,0,0.6,0.1,0.9,0.2c0.3,0.1,0.5,0.3,0.6,0.6c0.2,0.3,0.3,0.6,0.4,0.9
		c0.1,0.4,0.1,0.9,0.1,1.5c0,0.7-0.1,1.3-0.2,1.8c-0.2,0.5-0.4,0.8-0.7,1.1c-0.3,0.2-0.7,0.4-1.1,0.4c-0.6,0-1.1-0.2-1.4-0.7
		C111.2,276.5,111,275.7,111,274.5L111,274.5z M111.8,274.5c0,1,0.1,1.7,0.4,2.1c0.2,0.3,0.5,0.5,0.9,0.5c0.4,0,0.7-0.2,0.9-0.5
		c0.2-0.3,0.4-1,0.4-2.1s-0.1-1.7-0.4-2.1c-0.2-0.3-0.5-0.5-0.9-0.5c-0.4,0-0.6,0.2-0.9,0.5C111.9,272.7,111.8,273.4,111.8,274.5
		L111.8,274.5z M115.9,274.5c0-0.7,0.1-1.3,0.2-1.8c0.2-0.5,0.4-0.8,0.7-1.1c0.3-0.2,0.7-0.4,1.1-0.4c0.3,0,0.6,0.1,0.9,0.2
		c0.3,0.1,0.5,0.3,0.6,0.6c0.2,0.3,0.3,0.6,0.4,0.9c0.1,0.4,0.1,0.9,0.1,1.5c0,0.7-0.1,1.3-0.2,1.8c-0.2,0.5-0.4,0.8-0.7,1.1
		s-0.7,0.4-1.1,0.4c-0.6,0-1.1-0.2-1.4-0.7C116.1,276.5,115.9,275.7,115.9,274.5L115.9,274.5z M116.7,274.5c0,1,0.1,1.7,0.4,2.1
		s0.5,0.5,0.9,0.5c0.4,0,0.7-0.2,0.9-0.5c0.2-0.3,0.4-1,0.4-2.1s-0.1-1.7-0.4-2.1c-0.2-0.3-0.5-0.5-0.9-0.5s-0.6,0.2-0.9,0.5
		C116.8,272.7,116.7,273.4,116.7,274.5L116.7,274.5z"/>
	<path d="M163.6,274.2c-0.3-0.1-0.6-0.3-0.7-0.5c-0.2-0.2-0.2-0.5-0.2-0.8c0-0.5,0.2-0.8,0.5-1.2c0.3-0.3,0.8-0.5,1.3-0.5
		c0.6,0,1,0.2,1.3,0.5c0.3,0.3,0.5,0.7,0.5,1.2c0,0.3-0.1,0.6-0.2,0.8c-0.2,0.2-0.4,0.4-0.7,0.5c0.4,0.1,0.7,0.3,0.9,0.6
		c0.2,0.3,0.3,0.6,0.3,1c0,0.5-0.2,1-0.6,1.4c-0.4,0.4-0.9,0.6-1.5,0.6c-0.6,0-1.1-0.2-1.5-0.6c-0.4-0.4-0.6-0.8-0.6-1.4
		c0-0.4,0.1-0.8,0.3-1C162.9,274.5,163.2,274.3,163.6,274.2L163.6,274.2z M163.4,272.9c0,0.3,0.1,0.5,0.3,0.7
		c0.2,0.2,0.4,0.3,0.7,0.3c0.3,0,0.5-0.1,0.7-0.3c0.2-0.2,0.3-0.4,0.3-0.7c0-0.3-0.1-0.5-0.3-0.7c-0.2-0.2-0.4-0.3-0.7-0.3
		c-0.3,0-0.5,0.1-0.7,0.3C163.5,272.4,163.4,272.6,163.4,272.9L163.4,272.9z M163.2,275.8c0,0.2,0.1,0.4,0.2,0.6
		c0.1,0.2,0.3,0.4,0.5,0.5s0.4,0.2,0.7,0.2c0.4,0,0.7-0.1,0.9-0.4c0.2-0.2,0.4-0.5,0.4-0.9c0-0.4-0.1-0.7-0.4-0.9
		c-0.2-0.2-0.6-0.4-0.9-0.4c-0.4,0-0.7,0.1-0.9,0.4C163.3,275.1,163.2,275.4,163.2,275.8L163.2,275.8z M167.3,274.5
		c0-0.7,0.1-1.3,0.2-1.8c0.2-0.5,0.4-0.8,0.7-1.1c0.3-0.2,0.7-0.4,1.1-0.4c0.3,0,0.6,0.1,0.9,0.2c0.3,0.1,0.5,0.3,0.6,0.6
		c0.2,0.3,0.3,0.6,0.4,0.9c0.1,0.4,0.1,0.9,0.1,1.5c0,0.7-0.1,1.3-0.2,1.8c-0.2,0.5-0.4,0.8-0.7,1.1s-0.7,0.4-1.1,0.4
		c-0.6,0-1.1-0.2-1.4-0.7C167.5,276.5,167.3,275.7,167.3,274.5L167.3,274.5z M168.1,274.5c0,1,0.1,1.7,0.4,2.1
		c0.2,0.3,0.5,0.5,0.9,0.5c0.4,0,0.7-0.2,0.9-0.5c0.2-0.3,0.4-1,0.4-2.1s-0.1-1.7-0.4-2.1c-0.2-0.3-0.5-0.5-0.9-0.5
		s-0.6,0.2-0.9,0.5C168.2,272.7,168.1,273.4,168.1,274.5L168.1,274.5z M172.2,274.5c0-0.7,0.1-1.3,0.2-1.8c0.2-0.5,0.4-0.8,0.7-1.1
		c0.3-0.2,0.7-0.4,1.1-0.4c0.3,0,0.6,0.1,0.9,0.2c0.3,0.1,0.5,0.3,0.6,0.6c0.2,0.3,0.3,0.6,0.4,0.9c0.1,0.4,0.1,0.9,0.1,1.5
		c0,0.7-0.1,1.3-0.2,1.8c-0.2,0.5-0.4,0.8-0.7,1.1s-0.7,0.4-1.1,0.4c-0.6,0-1.1-0.2-1.4-0.7C172.4,276.5,172.2,275.7,172.2,274.5
		L172.2,274.5z M173,274.5c0,1,0.1,1.7,0.4,2.1c0.2,0.3,0.5,0.5,0.9,0.5c0.4,0,0.7-0.2,0.9-0.5s0.4-1,0.4-2.1s-0.1-1.7-0.4-2.1
		s-0.5-0.5-0.9-0.5s-0.6,0.2-0.9,0.5C173.1,272.7,173,273.4,173,274.5L173,274.5z"/>
	<path d="M219.3,276.1l0.7-0.1c0.1,0.4,0.2,0.6,0.4,0.8c0.2,0.2,0.4,0.2,0.7,0.2c0.2,0,0.4-0.1,0.6-0.2c0.2-0.1,0.3-0.3,0.4-0.4
		c0.1-0.2,0.2-0.4,0.3-0.7c0.1-0.3,0.1-0.6,0.1-0.9c0,0,0-0.1,0-0.2c-0.2,0.2-0.4,0.4-0.6,0.6c-0.3,0.2-0.6,0.2-0.9,0.2
		c-0.5,0-1-0.2-1.3-0.6c-0.4-0.4-0.5-0.9-0.5-1.5c0-0.6,0.2-1.2,0.6-1.5c0.4-0.4,0.8-0.6,1.4-0.6c0.4,0,0.8,0.1,1.1,0.3
		c0.3,0.2,0.6,0.5,0.8,0.9c0.2,0.4,0.3,1,0.3,1.8c0,0.8-0.1,1.4-0.3,1.9c-0.2,0.5-0.4,0.8-0.8,1.1c-0.3,0.2-0.7,0.4-1.2,0.4
		c-0.5,0-0.9-0.1-1.2-0.4C219.6,277,219.4,276.6,219.3,276.1L219.3,276.1z M222.5,273.3c0-0.4-0.1-0.8-0.4-1.1
		c-0.2-0.3-0.5-0.4-0.9-0.4c-0.3,0-0.6,0.1-0.9,0.4s-0.4,0.6-0.4,1.1c0,0.4,0.1,0.7,0.4,1c0.2,0.2,0.5,0.4,0.9,0.4
		c0.4,0,0.7-0.1,0.9-0.4S222.5,273.8,222.5,273.3L222.5,273.3z M224.1,274.5c0-0.7,0.1-1.3,0.2-1.8c0.2-0.5,0.4-0.8,0.7-1.1
		c0.3-0.2,0.7-0.4,1.1-0.4c0.3,0,0.6,0.1,0.9,0.2c0.3,0.1,0.5,0.3,0.6,0.6c0.2,0.3,0.3,0.6,0.4,0.9c0.1,0.4,0.1,0.9,0.1,1.5
		c0,0.7-0.1,1.3-0.2,1.8c-0.2,0.5-0.4,0.8-0.7,1.1c-0.3,0.2-0.7,0.4-1.1,0.4c-0.6,0-1.1-0.2-1.4-0.7
		C224.3,276.5,224.1,275.7,224.1,274.5L224.1,274.5z M224.9,274.5c0,1,0.1,1.7,0.4,2.1s0.5,0.5,0.9,0.5c0.4,0,0.7-0.2,0.9-0.5
		c0.2-0.3,0.4-1,0.4-2.1s-0.1-1.7-0.4-2.1c-0.2-0.3-0.5-0.5-0.9-0.5s-0.6,0.2-0.9,0.5C225,272.7,224.9,273.4,224.9,274.5
		L224.9,274.5z M229,274.5c0-0.7,0.1-1.3,0.2-1.8c0.2-0.5,0.4-0.8,0.7-1.1s0.7-0.4,1.1-0.4c0.3,0,0.6,0.1,0.9,0.2
		c0.3,0.1,0.5,0.3,0.6,0.6c0.2,0.3,0.3,0.6,0.4,0.9c0.1,0.4,0.1,0.9,0.1,1.5c0,0.7-0.1,1.3-0.2,1.8c-0.2,0.5-0.4,0.8-0.7,1.1
		s-0.7,0.4-1.1,0.4c-0.6,0-1.1-0.2-1.4-0.7C229.2,276.5,229,275.7,229,274.5L229,274.5z M229.8,274.5c0,1,0.1,1.7,0.4,2.1
		c0.2,0.3,0.5,0.5,0.9,0.5c0.4,0,0.7-0.2,0.9-0.5c0.2-0.3,0.4-1,0.4-2.1s-0.1-1.7-0.4-2.1c-0.2-0.3-0.5-0.5-0.9-0.5
		c-0.4,0-0.6,0.2-0.9,0.5C229.9,272.7,229.8,273.4,229.8,274.5L229.8,274.5z"/>
	<path d="M277,277.6h-0.8v-4.9c-0.2,0.2-0.4,0.4-0.7,0.5c-0.3,0.2-0.6,0.3-0.8,0.4v-0.7c0.4-0.2,0.8-0.5,1.1-0.7
		c0.3-0.3,0.6-0.6,0.7-0.8h0.5V277.6L277,277.6z M278.9,274.5c0-0.7,0.1-1.3,0.2-1.8c0.2-0.5,0.4-0.8,0.7-1.1
		c0.3-0.2,0.7-0.4,1.1-0.4c0.3,0,0.6,0.1,0.9,0.2c0.3,0.1,0.5,0.3,0.6,0.6c0.2,0.3,0.3,0.6,0.4,0.9c0.1,0.4,0.1,0.9,0.1,1.5
		c0,0.7-0.1,1.3-0.2,1.8c-0.2,0.5-0.4,0.8-0.7,1.1c-0.3,0.2-0.7,0.4-1.1,0.4c-0.6,0-1.1-0.2-1.4-0.7
		C279.1,276.5,278.9,275.7,278.9,274.5L278.9,274.5z M279.7,274.5c0,1,0.1,1.7,0.4,2.1s0.5,0.5,0.9,0.5c0.4,0,0.7-0.2,0.9-0.5
		c0.2-0.3,0.4-1,0.4-2.1s-0.1-1.7-0.4-2.1c-0.2-0.3-0.5-0.5-0.9-0.5c-0.4,0-0.6,0.2-0.9,0.5C279.9,272.7,279.7,273.4,279.7,274.5
		L279.7,274.5z M283.8,274.5c0-0.7,0.1-1.3,0.2-1.8c0.2-0.5,0.4-0.8,0.7-1.1c0.3-0.2,0.7-0.4,1.1-0.4c0.3,0,0.6,0.1,0.9,0.2
		c0.3,0.1,0.5,0.3,0.6,0.6c0.2,0.3,0.3,0.6,0.4,0.9c0.1,0.4,0.1,0.9,0.1,1.5c0,0.7-0.1,1.3-0.2,1.8c-0.2,0.5-0.4,0.8-0.7,1.1
		c-0.3,0.2-0.7,0.4-1.1,0.4c-0.6,0-1.1-0.2-1.4-0.7C284,276.5,283.8,275.7,283.8,274.5L283.8,274.5z M284.6,274.5
		c0,1,0.1,1.7,0.4,2.1c0.2,0.3,0.5,0.5,0.9,0.5c0.4,0,0.7-0.2,0.9-0.5c0.2-0.3,0.4-1,0.4-2.1s-0.1-1.7-0.4-2.1
		c-0.2-0.3-0.5-0.5-0.9-0.5c-0.4,0-0.6,0.2-0.9,0.5C284.8,272.7,284.6,273.4,284.6,274.5L284.6,274.5z M288.7,274.5
		c0-0.7,0.1-1.3,0.2-1.8c0.2-0.5,0.4-0.8,0.7-1.1c0.3-0.2,0.7-0.4,1.1-0.4c0.3,0,0.6,0.1,0.9,0.2c0.3,0.1,0.5,0.3,0.6,0.6
		c0.2,0.3,0.3,0.6,0.4,0.9c0.1,0.4,0.1,0.9,0.1,1.5c0,0.7-0.1,1.3-0.2,1.8c-0.2,0.5-0.4,0.8-0.7,1.1c-0.3,0.2-0.7,0.4-1.1,0.4
		c-0.6,0-1.1-0.2-1.4-0.7C288.9,276.5,288.7,275.7,288.7,274.5L288.7,274.5z M289.5,274.5c0,1,0.1,1.7,0.4,2.1s0.5,0.5,0.9,0.5
		c0.4,0,0.7-0.2,0.9-0.5c0.2-0.3,0.4-1,0.4-2.1s-0.1-1.7-0.4-2.1c-0.2-0.3-0.5-0.5-0.9-0.5c-0.4,0-0.6,0.2-0.9,0.5
		C289.7,272.7,289.5,273.4,289.5,274.5L289.5,274.5z"/>
	<path d="M333.3,277.6h-0.8v-4.9c-0.2,0.2-0.4,0.4-0.7,0.5c-0.3,0.2-0.6,0.3-0.8,0.4v-0.7c0.4-0.2,0.8-0.5,1.1-0.7
		c0.3-0.3,0.6-0.6,0.7-0.8h0.5V277.6L333.3,277.6z M338.2,277.6h-0.8v-4.9c-0.2,0.2-0.4,0.4-0.7,0.5c-0.3,0.2-0.6,0.3-0.8,0.4v-0.7
		c0.4-0.2,0.8-0.5,1.1-0.7c0.3-0.3,0.6-0.6,0.7-0.8h0.5V277.6L338.2,277.6z M340.1,274.5c0-0.7,0.1-1.3,0.2-1.8
		c0.2-0.5,0.4-0.8,0.7-1.1c0.3-0.2,0.7-0.4,1.1-0.4c0.3,0,0.6,0.1,0.9,0.2c0.3,0.1,0.5,0.3,0.6,0.6c0.2,0.3,0.3,0.6,0.4,0.9
		c0.1,0.4,0.1,0.9,0.1,1.5c0,0.7-0.1,1.3-0.2,1.8c-0.2,0.5-0.4,0.8-0.7,1.1c-0.3,0.2-0.7,0.4-1.1,0.4c-0.6,0-1.1-0.2-1.4-0.7
		C340.4,276.5,340.1,275.7,340.1,274.5L340.1,274.5z M340.9,274.5c0,1,0.1,1.7,0.4,2.1s0.5,0.5,0.9,0.5c0.4,0,0.7-0.2,0.9-0.5
		c0.2-0.3,0.4-1,0.4-2.1s-0.1-1.7-0.4-2.1c-0.2-0.3-0.5-0.5-0.9-0.5c-0.4,0-0.6,0.2-0.9,0.5C341.1,272.7,340.9,273.4,340.9,274.5
		L340.9,274.5z M345,274.5c0-0.7,0.1-1.3,0.2-1.8c0.2-0.5,0.4-0.8,0.7-1.1c0.3-0.2,0.7-0.4,1.1-0.4c0.3,0,0.6,0.1,0.9,0.2
		c0.3,0.1,0.5,0.3,0.6,0.6c0.2,0.3,0.3,0.6,0.4,0.9c0.1,0.4,0.1,0.9,0.1,1.5c0,0.7-0.1,1.3-0.2,1.8c-0.2,0.5-0.4,0.8-0.7,1.1
		c-0.3,0.2-0.7,0.4-1.1,0.4c-0.6,0-1.1-0.2-1.4-0.7C345.3,276.5,345,275.7,345,274.5L345,274.5z M345.8,274.5c0,1,0.1,1.7,0.4,2.1
		c0.2,0.3,0.5,0.5,0.9,0.5c0.4,0,0.7-0.2,0.9-0.5s0.4-1,0.4-2.1s-0.1-1.7-0.4-2.1s-0.5-0.5-0.9-0.5c-0.4,0-0.6,0.2-0.9,0.5
		C346,272.7,345.8,273.4,345.8,274.5L345.8,274.5z"/>
	<path d="M390,277.6h-0.8v-4.9c-0.2,0.2-0.4,0.4-0.7,0.5c-0.3,0.2-0.6,0.3-0.8,0.4v-0.7c0.4-0.2,0.8-0.5,1.1-0.7s0.6-0.6,0.7-0.8
		h0.5V277.6L390,277.6z M396.1,276.8v0.7h-4.2c0-0.2,0-0.4,0.1-0.5c0.1-0.3,0.3-0.6,0.5-0.8c0.2-0.3,0.6-0.6,1-1
		c0.7-0.6,1.1-1,1.4-1.3c0.2-0.3,0.4-0.6,0.4-0.9c0-0.3-0.1-0.6-0.3-0.8c-0.2-0.2-0.5-0.3-0.9-0.3c-0.4,0-0.7,0.1-0.9,0.3
		c-0.2,0.2-0.3,0.5-0.3,0.9l-0.8-0.1c0.1-0.6,0.3-1,0.6-1.4c0.4-0.3,0.8-0.5,1.4-0.5c0.6,0,1.1,0.2,1.4,0.5c0.4,0.3,0.5,0.8,0.5,1.2
		c0,0.2-0.1,0.5-0.2,0.7s-0.3,0.5-0.5,0.8c-0.2,0.3-0.6,0.6-1.2,1.1c-0.5,0.4-0.8,0.7-0.9,0.8c-0.1,0.1-0.2,0.3-0.3,0.4H396.1
		L396.1,276.8z M396.9,274.5c0-0.7,0.1-1.3,0.2-1.8c0.2-0.5,0.4-0.8,0.7-1.1c0.3-0.2,0.7-0.4,1.1-0.4c0.3,0,0.6,0.1,0.9,0.2
		c0.3,0.1,0.5,0.3,0.6,0.6c0.2,0.3,0.3,0.6,0.4,0.9c0.1,0.4,0.1,0.9,0.1,1.5c0,0.7-0.1,1.3-0.2,1.8c-0.2,0.5-0.4,0.8-0.7,1.1
		c-0.3,0.2-0.7,0.4-1.1,0.4c-0.6,0-1.1-0.2-1.4-0.7C397.1,276.5,396.9,275.7,396.9,274.5L396.9,274.5z M397.7,274.5
		c0,1,0.1,1.7,0.4,2.1c0.2,0.3,0.5,0.5,0.9,0.5c0.4,0,0.7-0.2,0.9-0.5c0.2-0.3,0.4-1,0.4-2.1s-0.1-1.7-0.4-2.1
		c-0.2-0.3-0.5-0.5-0.9-0.5c-0.4,0-0.6,0.2-0.9,0.5C397.9,272.7,397.7,273.4,397.7,274.5L397.7,274.5z M401.8,274.5
		c0-0.7,0.1-1.3,0.2-1.8c0.2-0.5,0.4-0.8,0.7-1.1c0.3-0.2,0.7-0.4,1.1-0.4c0.3,0,0.6,0.1,0.9,0.2c0.3,0.1,0.5,0.3,0.6,0.6
		c0.2,0.3,0.3,0.6,0.4,0.9c0.1,0.4,0.1,0.9,0.1,1.5c0,0.7-0.1,1.3-0.2,1.8c-0.2,0.5-0.4,0.8-0.7,1.1c-0.3,0.2-0.7,0.4-1.1,0.4
		c-0.6,0-1.1-0.2-1.4-0.7C402,276.5,401.8,275.7,401.8,274.5L401.8,274.5z M402.6,274.5c0,1,0.1,1.7,0.4,2.1s0.5,0.5,0.9,0.5
		c0.4,0,0.7-0.2,0.9-0.5c0.2-0.3,0.4-1,0.4-2.1s-0.1-1.7-0.4-2.1c-0.2-0.3-0.5-0.5-0.9-0.5c-0.4,0-0.6,0.2-0.9,0.5
		C402.8,272.7,402.6,273.4,402.6,274.5L402.6,274.5z"/>
	<path d="M446.8,277.6h-0.8v-4.9c-0.2,0.2-0.4,0.4-0.7,0.5c-0.3,0.2-0.6,0.3-0.8,0.4v-0.7c0.4-0.2,0.8-0.5,1.1-0.7
		c0.3-0.3,0.6-0.6,0.7-0.8h0.5V277.6L446.8,277.6z M448.8,275.9l0.8-0.1c0.1,0.4,0.2,0.8,0.5,0.9c0.2,0.2,0.5,0.3,0.8,0.3
		c0.4,0,0.7-0.1,0.9-0.4c0.2-0.3,0.4-0.6,0.4-0.9c0-0.4-0.1-0.7-0.3-0.9c-0.2-0.2-0.5-0.3-0.9-0.3c-0.1,0-0.3,0-0.6,0.1l0.1-0.7
		c0.1,0,0.1,0,0.1,0c0.3,0,0.6-0.1,0.9-0.3c0.3-0.2,0.4-0.4,0.4-0.8c0-0.3-0.1-0.5-0.3-0.7c-0.2-0.2-0.4-0.3-0.7-0.3
		c-0.3,0-0.6,0.1-0.8,0.3s-0.3,0.5-0.4,0.9l-0.8-0.1c0.1-0.5,0.3-0.9,0.6-1.2c0.3-0.3,0.8-0.4,1.3-0.4c0.3,0,0.7,0.1,0.9,0.2
		c0.3,0.1,0.5,0.3,0.7,0.6c0.2,0.3,0.2,0.5,0.2,0.8c0,0.3-0.1,0.5-0.2,0.7c-0.1,0.2-0.4,0.4-0.7,0.5c0.4,0.1,0.7,0.3,0.9,0.5
		s0.3,0.6,0.3,1c0,0.6-0.2,1-0.6,1.4c-0.4,0.4-0.9,0.6-1.5,0.6c-0.6,0-1-0.2-1.4-0.5C449.1,276.9,448.9,276.4,448.8,275.9
		L448.8,275.9z M453.7,274.5c0-0.7,0.1-1.3,0.2-1.8c0.2-0.5,0.4-0.8,0.7-1.1s0.7-0.4,1.1-0.4c0.3,0,0.6,0.1,0.9,0.2
		c0.3,0.1,0.5,0.3,0.6,0.6c0.2,0.3,0.3,0.6,0.4,0.9c0.1,0.4,0.1,0.9,0.1,1.5c0,0.7-0.1,1.3-0.2,1.8c-0.2,0.5-0.4,0.8-0.7,1.1
		c-0.3,0.2-0.7,0.4-1.1,0.4c-0.6,0-1.1-0.2-1.4-0.7C453.9,276.5,453.7,275.7,453.7,274.5L453.7,274.5z M454.5,274.5
		c0,1,0.1,1.7,0.4,2.1s0.5,0.5,0.9,0.5c0.4,0,0.7-0.2,0.9-0.5c0.2-0.3,0.4-1,0.4-2.1s-0.1-1.7-0.4-2.1c-0.2-0.3-0.5-0.5-0.9-0.5
		s-0.6,0.2-0.9,0.5C454.7,272.7,454.5,273.4,454.5,274.5L454.5,274.5z M458.6,274.5c0-0.7,0.1-1.3,0.2-1.8c0.2-0.5,0.4-0.8,0.7-1.1
		c0.3-0.2,0.7-0.4,1.1-0.4c0.3,0,0.6,0.1,0.9,0.2c0.3,0.1,0.5,0.3,0.6,0.6c0.2,0.3,0.3,0.6,0.4,0.9c0.1,0.4,0.1,0.9,0.1,1.5
		c0,0.7-0.1,1.3-0.2,1.8c-0.2,0.5-0.4,0.8-0.7,1.1c-0.3,0.2-0.7,0.4-1.1,0.4c-0.6,0-1.1-0.2-1.4-0.7
		C458.8,276.5,458.6,275.7,458.6,274.5L458.6,274.5z M459.4,274.5c0,1,0.1,1.7,0.4,2.1c0.2,0.3,0.5,0.5,0.9,0.5
		c0.4,0,0.7-0.2,0.9-0.5s0.4-1,0.4-2.1s-0.1-1.7-0.4-2.1s-0.5-0.5-0.9-0.5c-0.4,0-0.6,0.2-0.9,0.5
		C459.6,272.7,459.4,273.4,459.4,274.5L459.4,274.5z"/>
	<path d="M503.6,277.6h-0.8v-4.9c-0.2,0.2-0.4,0.4-0.7,0.5c-0.3,0.2-0.6,0.3-0.8,0.4v-0.7c0.4-0.2,0.8-0.5,1.1-0.7
		c0.3-0.3,0.6-0.6,0.7-0.8h0.5V277.6L503.6,277.6z M508.1,277.6v-1.5h-2.7v-0.7l2.9-4.1h0.6v4.1h0.8v0.7h-0.8v1.5H508.1L508.1,277.6
		z M508.1,275.4v-2.8l-2,2.8H508.1L508.1,275.4z M510.5,274.5c0-0.7,0.1-1.3,0.2-1.8c0.2-0.5,0.4-0.8,0.7-1.1
		c0.3-0.2,0.7-0.4,1.1-0.4c0.3,0,0.6,0.1,0.9,0.2c0.3,0.1,0.5,0.3,0.6,0.6c0.2,0.3,0.3,0.6,0.4,0.9c0.1,0.4,0.1,0.9,0.1,1.5
		c0,0.7-0.1,1.3-0.2,1.8c-0.2,0.5-0.4,0.8-0.7,1.1c-0.3,0.2-0.7,0.4-1.1,0.4c-0.6,0-1.1-0.2-1.4-0.7
		C510.7,276.5,510.5,275.7,510.5,274.5L510.5,274.5z M511.3,274.5c0,1,0.1,1.7,0.4,2.1c0.2,0.3,0.5,0.5,0.9,0.5
		c0.4,0,0.7-0.2,0.9-0.5c0.2-0.3,0.4-1,0.4-2.1s-0.1-1.7-0.4-2.1c-0.2-0.3-0.5-0.5-0.9-0.5c-0.4,0-0.6,0.2-0.9,0.5
		C511.4,272.7,511.3,273.4,511.3,274.5L511.3,274.5z M515.4,274.5c0-0.7,0.1-1.3,0.2-1.8c0.2-0.5,0.4-0.8,0.7-1.1
		c0.3-0.2,0.7-0.4,1.1-0.4c0.3,0,0.6,0.1,0.9,0.2c0.3,0.1,0.5,0.3,0.6,0.6c0.2,0.3,0.3,0.6,0.4,0.9c0.1,0.4,0.1,0.9,0.1,1.5
		c0,0.7-0.1,1.3-0.2,1.8c-0.2,0.5-0.4,0.8-0.7,1.1c-0.3,0.2-0.7,0.4-1.1,0.4c-0.6,0-1.1-0.2-1.4-0.7
		C515.6,276.5,515.4,275.7,515.4,274.5L515.4,274.5z M516.2,274.5c0,1,0.1,1.7,0.4,2.1c0.2,0.3,0.5,0.5,0.9,0.5
		c0.4,0,0.7-0.2,0.9-0.5c0.2-0.3,0.4-1,0.4-2.1s-0.1-1.7-0.4-2.1c-0.2-0.3-0.5-0.5-0.9-0.5c-0.4,0-0.6,0.2-0.9,0.5
		C516.3,272.7,516.2,273.4,516.2,274.5L516.2,274.5z"/>
	<g>
		<defs>
			<rect id="SVGID_3_" width="566.9" height="285"/>
		</defs>
		<clipPath id="SVGID_4_">
			<use xlink:href="#SVGID_3_"  style="overflow:visible;"/>
		</clipPath>
		<polyline class="st3" points="0,256.9 2.2,256.4 4.4,255.9 6.6,255.3 8.9,254.8 11.1,254.2 13.3,253.5 15.5,252.9 17.7,252.2 
			19.9,251.5 22.1,250.8 24.4,250 26.6,249.2 28.8,248.4 31,247.6 33.2,246.7 35.4,245.8 37.6,244.9 39.9,243.9 42.1,242.9 
			44.3,241.9 46.5,240.9 48.7,239.8 50.9,238.7 53.1,237.5 55.4,236.3 57.6,235.1 59.8,233.8 62,232.5 64.2,231.2 66.4,229.8 
			68.7,228.4 70.9,226.9 73.1,225.5 75.3,223.9 77.5,222.4 79.7,220.8 81.9,219.1 84.2,217.4 86.4,215.7 88.6,214 90.8,212.2 
			93,210.3 95.2,208.5 97.4,206.5 99.7,204.6 101.9,202.6 104.1,200.6 106.3,198.5 108.5,196.4 110.7,194.3 112.9,192.1 
			115.2,189.9 117.4,187.7 119.6,185.4 121.8,183.1 124,180.7 126.2,178.4 128.4,176 130.7,173.5 132.9,171.1 135.1,168.6 
			137.3,166.1 139.5,163.5 141.7,161 143.9,158.4 146.2,155.8 148.4,153.2 150.6,150.6 152.8,147.9 155,145.2 157.2,142.6 
			159.4,139.9 161.7,137.2 163.9,134.5 166.1,131.8 168.3,129.1 170.5,126.4 172.7,123.7 175,121 177.2,118.3 179.4,115.6 
			181.6,112.9 183.8,110.2 186,107.6 188.2,105 190.5,102.4 192.7,99.8 194.9,97.2 197.1,94.7 199.3,92.1 201.5,89.7 203.7,87.2 
			206,84.8 208.2,82.4 210.4,80.1 212.6,77.8 214.8,75.6 217,73.4 219.2,71.2 221.5,69.1 223.7,67.1 225.9,65.1 228.1,63.2 
			230.3,61.3 232.5,59.5 234.7,57.8 237,56.1 239.2,54.5 241.4,53 243.6,51.5 245.8,50.1 248,48.8 250.2,47.6 252.5,46.4 
			254.7,45.3 256.9,44.3 259.1,43.4 261.3,42.6 263.5,41.8 265.7,41.1 268,40.5 270.2,40 272.4,39.6 274.6,39.3 276.8,39 279,38.9 
			281.3,38.8 283.5,38.8 285.7,38.9 287.9,39.1 290.1,39.4 292.3,39.7 294.5,40.2 296.8,40.7 299,41.3 301.2,42 303.4,42.8 
			305.6,43.7 307.8,44.6 310,45.7 312.3,46.8 314.5,48 316.7,49.2 318.9,50.6 321.1,52 323.3,53.5 325.5,55 327.8,56.7 330,58.4 
			332.2,60.1 334.4,61.9 336.6,63.8 338.8,65.8 341,67.8 343.3,69.8 345.5,71.9 347.7,74.1 349.9,76.3 352.1,78.6 354.3,80.9 
			356.5,83.2 358.8,85.6 361,88 363.2,90.5 365.4,93 367.6,95.5 369.8,98 372,100.6 374.3,103.2 376.5,105.8 378.7,108.5 
			380.9,111.1 383.1,113.8 385.3,116.5 387.5,119.1 389.8,121.8 392,124.5 394.2,127.3 396.4,130 398.6,132.7 400.8,135.4 
			403.1,138.1 405.3,140.8 407.5,143.4 409.7,146.1 411.9,148.8 414.1,151.4 416.3,154 418.6,156.7 420.8,159.3 423,161.8 
			425.2,164.4 427.4,166.9 429.6,169.4 431.8,171.9 434.1,174.3 436.3,176.8 438.5,179.1 440.7,181.5 442.9,183.8 445.1,186.1 
			447.3,188.4 449.6,190.6 451.8,192.8 454,195 456.2,197.1 458.4,199.2 460.6,201.2 462.8,203.3 465.1,205.2 467.3,207.2 
			469.5,209.1 471.7,210.9 473.9,212.8 476.1,214.5 478.3,216.3 480.6,218 482.8,219.7 485,221.3 487.2,222.9 489.4,224.4 
			491.6,225.9 493.8,227.4 496.1,228.9 498.3,230.3 500.5,231.6 502.7,232.9 504.9,234.2 507.1,235.5 509.4,236.7 511.6,237.9 
			513.8,239 516,240.1 518.2,241.2 520.4,242.3 522.6,243.3 524.9,244.3 527.1,245.2 529.3,246.1 531.5,247 533.7,247.9 
			535.9,248.7 538.1,249.5 540.4,250.3 542.6,251 544.8,251.7 547,252.4 549.2,253.1 551.4,253.7 553.6,254.3 555.9,254.9 
			558.1,255.5 560.3,256.1 562.5,256.6 564.7,257.1 566.9,257.6 		"/>
	</g>
</g>
</svg>
