<?xml version="1.0" encoding="utf-8"?>
<!-- Generator: Adobe Illustrator 22.1.0, SVG Export Plug-In . SVG Version: 6.00 Build 0)  -->
<svg version="1.1" id="Calque_1" xmlns="http://www.w3.org/2000/svg" xmlns:xlink="http://www.w3.org/1999/xlink" x="0px" y="0px"
	 viewBox="0 0 318 261.9" style="enable-background:new 0 0 318 261.9;" xml:space="preserve">
<style type="text/css">
	.st0{clip-path:url(#SVGID_2_);fill:#FFFFFF;}
	.st1{clip-path:url(#SVGID_2_);fill:none;stroke:#C0C0C0;stroke-linecap:round;stroke-linejoin:round;stroke-miterlimit:10;}
	.st2{clip-path:url(#SVGID_2_);fill:none;stroke:#000000;stroke-miterlimit:10;}
	.st3{fill:#F0FFE6;}
	.st4{fill:none;stroke:#66FF00;stroke-linecap:round;stroke-linejoin:round;stroke-miterlimit:10;}
	
		.st5{clip-path:url(#SVGID_4_);fill:none;stroke:#4D4DFF;stroke-width:1.5;stroke-linecap:round;stroke-linejoin:round;stroke-miterlimit:10;}
	.st6{clip-path:url(#SVGID_4_);fill:none;stroke:#FF4D4D;stroke-linecap:round;stroke-linejoin:round;stroke-miterlimit:10;}
	.st7{fill:#4D4DFF;}
	.st8{fill:none;stroke:#000000;stroke-linecap:round;stroke-linejoin:round;stroke-miterlimit:10;}
	.st9{fill:#0000FF;}
	.st10{fill:#FF0000;}
</style>
<g>
	<g>
		<defs>
			<rect id="SVGID_1_" x="2" y="0" width="316" height="259"/>
		</defs>
		<clipPath id="SVGID_2_">
			<use xlink:href="#SVGID_1_"  style="overflow:visible;"/>
		</clipPath>
		<polygon class="st0" points="2,0 318,0 318,259.8 2,259.8 2,0 		"/>
		<path class="st1" d="M47,0v259.8 M75.3,0v259.8 M103.7,0v259.8 M132,0v259.8 M160.4,0v259.8 M188.7,0v259.8 M217,0v259.8 M245.4,0
			v259.8 M273.7,0v259.8 M302.1,0v259.8 M2,3.3h316 M2,3.3h316 M2,31.6h316 M2,60h316 M2,88.3h316 M2,116.7h316 M2,173.4h316
			 M2,201.7h316 M2,230h316 M2,258.4h316"/>
		<path class="st2" d="M18.6,0.7v259.2 M18.6,0.4l-1.9,1.9 M18.6,0.4l1.9,1.9 M2,145h315.3 M317.7,145l-1.9-1.9 M317.7,145l-1.9,1.9
			"/>
	</g>
	<path d="M47.9,151.5h-0.5v-3.1c-0.1,0.1-0.3,0.2-0.5,0.3c-0.2,0.1-0.4,0.2-0.5,0.3v-0.5c0.3-0.1,0.5-0.3,0.7-0.5
		c0.2-0.2,0.4-0.4,0.4-0.5h0.3V151.5L47.9,151.5z"/>
	<path d="M76.7,151.1v0.5h-2.6c0-0.1,0-0.2,0.1-0.3c0.1-0.2,0.2-0.4,0.3-0.5c0.1-0.2,0.4-0.4,0.6-0.6c0.4-0.4,0.7-0.6,0.9-0.8
		c0.2-0.2,0.2-0.4,0.2-0.6c0-0.2-0.1-0.4-0.2-0.5c-0.1-0.1-0.3-0.2-0.5-0.2c-0.2,0-0.4,0.1-0.6,0.2c-0.1,0.1-0.2,0.3-0.2,0.6
		l-0.5-0.1c0-0.4,0.2-0.7,0.4-0.9c0.2-0.2,0.5-0.3,0.9-0.3c0.4,0,0.7,0.1,0.9,0.3s0.3,0.5,0.3,0.8c0,0.2,0,0.3-0.1,0.5
		c-0.1,0.2-0.2,0.3-0.3,0.5c-0.2,0.2-0.4,0.4-0.8,0.7c-0.3,0.2-0.5,0.4-0.6,0.5c-0.1,0.1-0.2,0.2-0.2,0.3H76.7L76.7,151.1z"/>
	<path d="M102.6,150.5l0.5-0.1c0.1,0.3,0.1,0.5,0.3,0.6c0.1,0.1,0.3,0.2,0.5,0.2c0.2,0,0.4-0.1,0.6-0.2c0.2-0.2,0.2-0.4,0.2-0.6
		c0-0.2-0.1-0.4-0.2-0.6s-0.3-0.2-0.6-0.2c-0.1,0-0.2,0-0.3,0.1l0.1-0.4c0,0,0.1,0,0.1,0c0.2,0,0.4-0.1,0.6-0.2
		c0.2-0.1,0.3-0.3,0.3-0.5c0-0.2-0.1-0.3-0.2-0.4c-0.1-0.1-0.3-0.2-0.5-0.2s-0.3,0.1-0.5,0.2c-0.1,0.1-0.2,0.3-0.2,0.5l-0.5-0.1
		c0.1-0.3,0.2-0.6,0.4-0.8c0.2-0.2,0.5-0.3,0.8-0.3c0.2,0,0.4,0,0.6,0.1c0.2,0.1,0.3,0.2,0.4,0.4c0.1,0.2,0.1,0.3,0.1,0.5
		c0,0.2,0,0.3-0.1,0.5c-0.1,0.1-0.2,0.3-0.4,0.3c0.2,0.1,0.4,0.2,0.5,0.3c0.1,0.2,0.2,0.4,0.2,0.6c0,0.3-0.1,0.6-0.4,0.9
		c-0.3,0.2-0.6,0.4-1,0.4c-0.4,0-0.6-0.1-0.9-0.3C102.7,151.1,102.6,150.8,102.6,150.5L102.6,150.5z"/>
	<path d="M132.5,151.5v-0.9h-1.7v-0.4l1.8-2.6h0.4v2.6h0.5v0.4H133v0.9H132.5L132.5,151.5z M132.5,150.1v-1.8l-1.2,1.8H132.5
		L132.5,150.1z"/>
	<path d="M159.3,150.5l0.5,0c0,0.3,0.1,0.4,0.3,0.6c0.1,0.1,0.3,0.2,0.5,0.2c0.2,0,0.4-0.1,0.6-0.3c0.2-0.2,0.2-0.4,0.2-0.7
		c0-0.3-0.1-0.5-0.2-0.7c-0.2-0.2-0.4-0.2-0.6-0.2c-0.2,0-0.3,0-0.4,0.1c-0.1,0.1-0.2,0.2-0.3,0.3l-0.5-0.1l0.4-2h2v0.5h-1.6
		l-0.2,1.1c0.2-0.2,0.5-0.3,0.8-0.3c0.3,0,0.6,0.1,0.9,0.4c0.2,0.2,0.4,0.5,0.4,0.9c0,0.4-0.1,0.7-0.3,0.9c-0.3,0.3-0.6,0.5-1,0.5
		c-0.4,0-0.7-0.1-0.9-0.3C159.5,151.1,159.4,150.8,159.3,150.5L159.3,150.5z"/>
	<path d="M190.2,148.5l-0.5,0c0-0.2-0.1-0.3-0.2-0.4c-0.1-0.1-0.3-0.2-0.5-0.2c-0.2,0-0.3,0-0.4,0.1c-0.2,0.1-0.3,0.3-0.4,0.5
		s-0.1,0.5-0.1,0.9c0.1-0.2,0.3-0.3,0.4-0.4c0.2-0.1,0.3-0.1,0.5-0.1c0.3,0,0.6,0.1,0.8,0.4c0.2,0.2,0.3,0.5,0.3,0.9
		c0,0.3-0.1,0.5-0.2,0.7c-0.1,0.2-0.3,0.4-0.4,0.5c-0.2,0.1-0.4,0.2-0.6,0.2c-0.4,0-0.7-0.1-1-0.4c-0.3-0.3-0.4-0.8-0.4-1.5
		c0-0.8,0.1-1.3,0.4-1.7c0.2-0.3,0.6-0.5,1-0.5c0.3,0,0.6,0.1,0.8,0.3C190.1,148,190.2,148.2,190.2,148.5L190.2,148.5z M188.3,150.3
		c0,0.2,0,0.3,0.1,0.5c0.1,0.2,0.2,0.3,0.3,0.4c0.1,0.1,0.3,0.1,0.4,0.1c0.2,0,0.4-0.1,0.5-0.3c0.1-0.2,0.2-0.4,0.2-0.7
		c0-0.3-0.1-0.5-0.2-0.6c-0.1-0.2-0.3-0.2-0.6-0.2s-0.4,0.1-0.6,0.2C188.3,149.8,188.3,150,188.3,150.3L188.3,150.3z"/>
	<path d="M216.1,148.1v-0.5h2.6v0.4c-0.3,0.3-0.5,0.6-0.7,1.1c-0.2,0.4-0.4,0.9-0.6,1.4c-0.1,0.3-0.2,0.7-0.2,1.1h-0.5
		c0-0.3,0.1-0.7,0.2-1.1c0.1-0.4,0.3-0.9,0.5-1.3s0.5-0.8,0.7-1H216.1L216.1,148.1z"/>
	<path d="M245.2,149.4c-0.2-0.1-0.4-0.2-0.5-0.3s-0.1-0.3-0.1-0.5c0-0.3,0.1-0.5,0.3-0.7s0.5-0.3,0.8-0.3c0.3,0,0.6,0.1,0.8,0.3
		c0.2,0.2,0.3,0.4,0.3,0.7c0,0.2,0,0.3-0.1,0.5c-0.1,0.1-0.2,0.2-0.4,0.3c0.2,0.1,0.4,0.2,0.6,0.4c0.1,0.2,0.2,0.4,0.2,0.6
		c0,0.3-0.1,0.6-0.4,0.9c-0.2,0.2-0.6,0.3-0.9,0.3c-0.4,0-0.7-0.1-0.9-0.3c-0.2-0.2-0.4-0.5-0.4-0.9c0-0.3,0.1-0.5,0.2-0.6
		C244.8,149.6,245,149.5,245.2,149.4L245.2,149.4z M245.1,148.6c0,0.2,0.1,0.3,0.2,0.5c0.1,0.1,0.3,0.2,0.5,0.2
		c0.2,0,0.3-0.1,0.5-0.2c0.1-0.1,0.2-0.3,0.2-0.4c0-0.2-0.1-0.3-0.2-0.5c-0.1-0.1-0.3-0.2-0.5-0.2c-0.2,0-0.3,0.1-0.5,0.2
		C245.2,148.3,245.1,148.4,245.1,148.6L245.1,148.6z M245,150.4c0,0.1,0,0.3,0.1,0.4s0.2,0.2,0.3,0.3c0.1,0.1,0.3,0.1,0.4,0.1
		c0.2,0,0.4-0.1,0.6-0.2c0.2-0.2,0.2-0.3,0.2-0.6c0-0.2-0.1-0.4-0.2-0.6c-0.2-0.2-0.4-0.2-0.6-0.2c-0.2,0-0.4,0.1-0.6,0.2
		S245,150.2,245,150.4L245,150.4z"/>
	<path d="M273,150.6l0.5,0c0,0.2,0.1,0.4,0.2,0.5c0.1,0.1,0.3,0.1,0.4,0.1c0.2,0,0.3,0,0.4-0.1c0.1-0.1,0.2-0.2,0.3-0.3
		c0.1-0.1,0.1-0.3,0.2-0.5c0-0.2,0.1-0.4,0.1-0.6c0,0,0-0.1,0-0.1c-0.1,0.2-0.2,0.3-0.4,0.4c-0.2,0.1-0.4,0.1-0.5,0.1
		c-0.3,0-0.6-0.1-0.8-0.4c-0.2-0.2-0.3-0.6-0.3-0.9c0-0.4,0.1-0.7,0.4-1c0.2-0.2,0.5-0.4,0.9-0.4c0.3,0,0.5,0.1,0.7,0.2
		c0.2,0.1,0.4,0.3,0.5,0.6c0.1,0.3,0.2,0.6,0.2,1.1c0,0.5-0.1,0.9-0.2,1.2c-0.1,0.3-0.3,0.5-0.5,0.7c-0.2,0.2-0.5,0.2-0.8,0.2
		c-0.3,0-0.6-0.1-0.8-0.3C273.1,151.2,273,150.9,273,150.6L273,150.6z M275,148.9c0-0.3-0.1-0.5-0.2-0.7c-0.1-0.2-0.3-0.2-0.5-0.2
		c-0.2,0-0.4,0.1-0.6,0.3c-0.2,0.2-0.2,0.4-0.2,0.7c0,0.3,0.1,0.5,0.2,0.6c0.2,0.2,0.3,0.2,0.6,0.2c0.2,0,0.4-0.1,0.6-0.2
		C274.9,149.4,275,149.2,275,148.9L275,148.9z"/>
	<path d="M301.6,151.5h-0.5v-3.1c-0.1,0.1-0.3,0.2-0.5,0.3s-0.4,0.2-0.5,0.3v-0.5c0.3-0.1,0.5-0.3,0.7-0.5c0.2-0.2,0.4-0.4,0.4-0.5
		h0.3V151.5L301.6,151.5z M302.8,149.6c0-0.5,0-0.8,0.1-1.1c0.1-0.3,0.2-0.5,0.4-0.7c0.2-0.2,0.4-0.2,0.7-0.2c0.2,0,0.4,0,0.6,0.1
		c0.2,0.1,0.3,0.2,0.4,0.4c0.1,0.2,0.2,0.4,0.2,0.6c0.1,0.2,0.1,0.5,0.1,0.9c0,0.5,0,0.8-0.1,1.1c-0.1,0.3-0.2,0.5-0.4,0.7
		s-0.4,0.2-0.7,0.2c-0.4,0-0.7-0.1-0.9-0.4C302.9,150.9,302.8,150.3,302.8,149.6L302.8,149.6z M303.3,149.6c0,0.7,0.1,1.1,0.2,1.3
		c0.2,0.2,0.3,0.3,0.6,0.3c0.2,0,0.4-0.1,0.6-0.3c0.2-0.2,0.2-0.7,0.2-1.3s-0.1-1.1-0.2-1.3c-0.2-0.2-0.3-0.3-0.6-0.3
		c-0.2,0-0.4,0.1-0.5,0.3C303.4,148.5,303.3,148.9,303.3,149.6L303.3,149.6z"/>
	<path d="M10.3,230.9v-0.4h2.2v0.4H10.3L10.3,230.9z M13.1,231.3l0.5-0.1c0.1,0.3,0.1,0.5,0.3,0.6c0.1,0.1,0.3,0.2,0.5,0.2
		c0.2,0,0.4-0.1,0.6-0.2c0.2-0.2,0.2-0.4,0.2-0.6c0-0.2-0.1-0.4-0.2-0.6c-0.1-0.1-0.3-0.2-0.6-0.2c-0.1,0-0.2,0-0.3,0.1l0.1-0.4
		c0,0,0.1,0,0.1,0c0.2,0,0.4-0.1,0.6-0.2c0.2-0.1,0.3-0.3,0.3-0.5c0-0.2-0.1-0.3-0.2-0.4s-0.3-0.2-0.5-0.2s-0.3,0.1-0.5,0.2
		c-0.1,0.1-0.2,0.3-0.2,0.5l-0.5-0.1c0.1-0.3,0.2-0.6,0.4-0.8c0.2-0.2,0.5-0.3,0.8-0.3c0.2,0,0.4,0,0.6,0.1c0.2,0.1,0.3,0.2,0.4,0.4
		c0.1,0.2,0.1,0.3,0.1,0.5c0,0.2,0,0.3-0.1,0.5c-0.1,0.1-0.2,0.3-0.4,0.3c0.2,0.1,0.4,0.2,0.5,0.3c0.1,0.2,0.2,0.4,0.2,0.6
		c0,0.3-0.1,0.6-0.4,0.9c-0.3,0.2-0.6,0.4-1,0.4c-0.4,0-0.6-0.1-0.9-0.3C13.2,231.9,13.1,231.7,13.1,231.3L13.1,231.3z"/>
	<path d="M10.3,202.5v-0.4h2.2v0.4H10.3L10.3,202.5z M15.6,203.5v0.5H13c0-0.1,0-0.2,0.1-0.3c0.1-0.2,0.2-0.4,0.3-0.5
		c0.1-0.2,0.4-0.4,0.6-0.6c0.4-0.4,0.7-0.6,0.9-0.8c0.2-0.2,0.2-0.4,0.2-0.6c0-0.2-0.1-0.4-0.2-0.5c-0.1-0.1-0.3-0.2-0.5-0.2
		c-0.2,0-0.4,0.1-0.6,0.2s-0.2,0.3-0.2,0.6l-0.5-0.1c0-0.4,0.2-0.7,0.4-0.9c0.2-0.2,0.5-0.3,0.9-0.3c0.4,0,0.7,0.1,0.9,0.3
		c0.2,0.2,0.3,0.5,0.3,0.8c0,0.2,0,0.3-0.1,0.5c-0.1,0.2-0.2,0.3-0.3,0.5c-0.2,0.2-0.4,0.4-0.8,0.7c-0.3,0.2-0.5,0.4-0.6,0.5
		c-0.1,0.1-0.2,0.2-0.2,0.3H15.6L15.6,203.5z"/>
	<path d="M10.3,174.1v-0.4h2.2v0.4H10.3L10.3,174.1z M14.9,175.6h-0.5v-3.1c-0.1,0.1-0.3,0.2-0.5,0.3c-0.2,0.1-0.4,0.2-0.5,0.3v-0.5
		c0.3-0.1,0.5-0.3,0.7-0.5c0.2-0.2,0.4-0.4,0.4-0.5h0.3V175.6L14.9,175.6z"/>
	<path d="M14.9,118.8h-0.5v-3.1c-0.1,0.1-0.3,0.2-0.5,0.3c-0.2,0.1-0.4,0.2-0.5,0.3v-0.5c0.3-0.1,0.5-0.3,0.7-0.5
		c0.2-0.2,0.4-0.4,0.4-0.5h0.3V118.8L14.9,118.8z"/>
	<path d="M15.6,90.3v0.5H13c0-0.1,0-0.2,0.1-0.3c0.1-0.2,0.2-0.4,0.3-0.5c0.1-0.2,0.4-0.4,0.6-0.6c0.4-0.4,0.7-0.6,0.9-0.8
		c0.2-0.2,0.2-0.4,0.2-0.6c0-0.2-0.1-0.4-0.2-0.5c-0.1-0.1-0.3-0.2-0.5-0.2c-0.2,0-0.4,0.1-0.6,0.2s-0.2,0.3-0.2,0.6l-0.5-0.1
		c0-0.4,0.2-0.7,0.4-0.9c0.2-0.2,0.5-0.3,0.9-0.3c0.4,0,0.7,0.1,0.9,0.3s0.3,0.5,0.3,0.8c0,0.2,0,0.3-0.1,0.5
		c-0.1,0.2-0.2,0.3-0.3,0.5c-0.2,0.2-0.4,0.4-0.8,0.7c-0.3,0.2-0.5,0.4-0.6,0.5c-0.1,0.1-0.2,0.2-0.2,0.3H15.6L15.6,90.3z"/>
	<path d="M13.1,61.3l0.5-0.1c0.1,0.3,0.1,0.5,0.3,0.6C14,62,14.1,62,14.3,62c0.2,0,0.4-0.1,0.6-0.2c0.2-0.2,0.2-0.4,0.2-0.6
		c0-0.2-0.1-0.4-0.2-0.6c-0.1-0.1-0.3-0.2-0.6-0.2c-0.1,0-0.2,0-0.3,0.1l0.1-0.4c0,0,0.1,0,0.1,0c0.2,0,0.4-0.1,0.6-0.2
		c0.2-0.1,0.3-0.3,0.3-0.5c0-0.2-0.1-0.3-0.2-0.4c-0.1-0.1-0.3-0.2-0.5-0.2S14,58.8,13.9,59c-0.1,0.1-0.2,0.3-0.2,0.5l-0.5-0.1
		c0.1-0.3,0.2-0.6,0.4-0.8c0.2-0.2,0.5-0.3,0.8-0.3c0.2,0,0.4,0,0.6,0.1c0.2,0.1,0.3,0.2,0.4,0.4c0.1,0.2,0.1,0.3,0.1,0.5
		c0,0.2,0,0.3-0.1,0.5c-0.1,0.1-0.2,0.3-0.4,0.3c0.2,0.1,0.4,0.2,0.5,0.3c0.1,0.2,0.2,0.4,0.2,0.6c0,0.3-0.1,0.6-0.4,0.9
		c-0.3,0.2-0.6,0.4-1,0.4c-0.4,0-0.6-0.1-0.9-0.3C13.2,61.9,13.1,61.7,13.1,61.3L13.1,61.3z"/>
	<path d="M14.6,34V33h-1.7v-0.4l1.8-2.6h0.4v2.6h0.5V33h-0.5V34H14.6L14.6,34z M14.6,32.6v-1.8l-1.2,1.8H14.6L14.6,32.6z"/>
	<path d="M13.1,4.6l0.5,0c0,0.3,0.1,0.4,0.3,0.6c0.1,0.1,0.3,0.2,0.5,0.2c0.2,0,0.4-0.1,0.6-0.3c0.2-0.2,0.2-0.4,0.2-0.7
		c0-0.3-0.1-0.5-0.2-0.7c-0.2-0.2-0.4-0.2-0.6-0.2c-0.2,0-0.3,0-0.4,0.1c-0.1,0.1-0.2,0.2-0.3,0.3l-0.5-0.1l0.4-2h2v0.5h-1.6
		l-0.2,1.1C14,3,14.2,3,14.5,3c0.3,0,0.6,0.1,0.9,0.4c0.2,0.2,0.4,0.5,0.4,0.9c0,0.4-0.1,0.7-0.3,0.9c-0.3,0.3-0.6,0.5-1,0.5
		c-0.4,0-0.7-0.1-0.9-0.3C13.2,5.2,13.1,4.9,13.1,4.6L13.1,4.6z"/>
	<path d="M13.1,149.6c0-0.5,0-0.8,0.1-1.1c0.1-0.3,0.2-0.5,0.4-0.7c0.2-0.2,0.4-0.2,0.7-0.2c0.2,0,0.4,0,0.6,0.1
		c0.2,0.1,0.3,0.2,0.4,0.4c0.1,0.2,0.2,0.4,0.2,0.6c0.1,0.2,0.1,0.5,0.1,0.9c0,0.5,0,0.8-0.1,1.1c-0.1,0.3-0.2,0.5-0.4,0.7
		c-0.2,0.2-0.4,0.2-0.7,0.2c-0.4,0-0.7-0.1-0.9-0.4C13.2,150.9,13.1,150.3,13.1,149.6L13.1,149.6z M13.6,149.6
		c0,0.7,0.1,1.1,0.2,1.3c0.2,0.2,0.3,0.3,0.6,0.3c0.2,0,0.4-0.1,0.6-0.3c0.2-0.2,0.2-0.7,0.2-1.3s-0.1-1.1-0.2-1.3s-0.3-0.3-0.6-0.3
		c-0.2,0-0.4,0.1-0.5,0.3C13.7,148.5,13.6,148.9,13.6,149.6L13.6,149.6z"/>
	<polyline class="st3" points="188.7,145 188.7,133.2 189.1,132.9 189.6,132.6 190,132.3 190.5,132 190.9,131.7 191.4,131.4 
		191.8,131.1 192.2,130.8 192.7,130.5 193.1,130.2 193.6,129.9 194,129.6 194.5,129.3 194.9,129 195.3,128.7 195.8,128.4 
		196.2,128.1 196.7,127.8 197.1,127.5 197.6,127.2 198,126.9 198.4,126.6 198.9,126.3 199.3,126 199.8,125.7 200.2,125.4 
		200.7,125.1 201.1,124.8 201.5,124.5 202,124.2 202.4,123.9 202.9,123.6 203.3,123.3 203.8,123 204.2,122.6 204.6,122.3 205.1,122 
		205.5,121.7 206,121.4 206.4,121.1 206.9,120.8 207.3,120.5 207.7,120.2 208.2,119.9 208.6,119.6 209.1,119.2 209.5,118.9 
		210,118.6 210.4,118.3 210.8,118 211.3,117.7 211.7,117.4 212.2,117.1 212.6,116.7 213.1,116.4 213.5,116.1 213.9,115.8 
		214.4,115.5 214.8,115.2 215.3,114.9 215.7,114.5 216.2,114.2 216.6,113.9 217,113.6 217.5,113.3 217.9,113 218.4,112.6 
		218.8,112.3 219.3,112 219.7,111.7 220.1,111.4 220.6,111.1 221,110.7 221.5,110.4 221.9,110.1 222.4,109.8 222.8,109.5 
		223.2,109.1 223.7,108.8 224.1,108.5 224.6,108.2 225,107.9 225.5,107.5 225.9,107.2 226.3,106.9 226.8,106.6 227.2,106.2 
		227.7,105.9 228.1,105.6 228.6,105.3 229,105 229.4,104.6 229.9,104.3 230.3,104 230.8,103.7 231.2,103.3 231.7,103 232.1,102.7 
		232.5,102.4 233,102 233.4,101.7 233.9,101.4 234.3,101.1 234.8,100.7 235.2,100.4 235.6,100.1 236.1,99.7 236.5,99.4 237,99.1 
		237.4,98.8 237.9,98.4 238.3,98.1 238.7,97.8 239.2,97.4 239.6,97.1 240.1,96.8 240.5,96.5 241,96.1 241.4,95.8 241.8,95.5 
		242.3,95.1 242.7,94.8 243.2,94.5 243.6,94.1 244.1,93.8 244.5,93.5 244.9,93.1 245.4,92.8 245.8,92.5 246.3,92.2 246.7,91.8 
		247.2,91.5 247.6,91.2 248,90.8 248.5,90.5 248.9,90.2 249.4,89.8 249.8,89.5 250.3,89.2 250.7,88.8 251.1,88.5 251.6,88.1 
		252,87.8 252.5,87.5 252.9,87.1 253.4,86.8 253.8,86.5 254.2,86.1 254.7,85.8 255.1,85.5 255.6,85.1 256,84.8 256.5,84.4 
		256.9,84.1 257.3,83.8 257.8,83.4 258.2,83.1 258.7,82.8 259.1,82.4 259.6,82.1 260,81.7 260.5,81.4 260.9,81.1 261.3,80.7 
		261.8,80.4 262.2,80 262.7,79.7 263.1,79.4 263.6,79 264,78.7 264.4,78.3 264.9,78 265.3,77.7 265.8,77.3 266.2,77 266.7,76.6 
		267.1,76.3 267.5,76 268,75.6 268.4,75.3 268.9,74.9 269.3,74.6 269.8,74.2 270.2,73.9 270.6,73.6 271.1,73.2 271.5,72.9 272,72.5 
		272.4,72.2 272.9,71.8 273.3,71.5 273.7,71.1 274.2,70.8 274.6,70.5 275.1,70.1 275.5,69.8 276,69.4 276.4,69.1 276.8,68.7 
		277.3,68.4 277.7,68 278.2,67.7 278.6,67.3 279.1,67 279.5,66.7 279.9,66.3 280.4,66 280.8,65.6 281.3,65.3 281.7,64.9 282.2,64.6 
		282.6,64.2 283,63.9 283.5,63.5 283.9,63.2 284.4,62.8 284.8,62.5 285.3,62.1 285.7,61.8 286.1,61.4 286.6,61.1 287,60.7 
		287.5,60.4 287.9,60 288.4,59.7 288.8,59.3 289.2,59 289.7,58.6 290.1,58.3 290.6,57.9 291,57.6 291.5,57.2 291.9,56.9 292.3,56.5 
		292.8,56.2 293.2,55.8 293.7,55.5 294.1,55.1 294.6,54.8 295,54.4 295.4,54.1 295.9,53.7 296.3,53.4 296.8,53 297.2,52.7 
		297.7,52.3 298.1,52 298.5,51.6 299,51.3 299.4,50.9 299.9,50.5 300.3,50.2 300.8,49.8 301.2,49.5 301.6,49.1 302.1,48.8 
		302.1,145 188.7,145 	"/>
	<polyline class="st4" points="188.7,145 188.7,133.2 189.1,132.9 189.6,132.6 190,132.3 190.5,132 190.9,131.7 191.4,131.4 
		191.8,131.1 192.2,130.8 192.7,130.5 193.1,130.2 193.6,129.9 194,129.6 194.5,129.3 194.9,129 195.3,128.7 195.8,128.4 
		196.2,128.1 196.7,127.8 197.1,127.5 197.6,127.2 198,126.9 198.4,126.6 198.9,126.3 199.3,126 199.8,125.7 200.2,125.4 
		200.7,125.1 201.1,124.8 201.5,124.5 202,124.2 202.4,123.9 202.9,123.6 203.3,123.3 203.8,123 204.2,122.6 204.6,122.3 205.1,122 
		205.5,121.7 206,121.4 206.4,121.1 206.9,120.8 207.3,120.5 207.7,120.2 208.2,119.9 208.6,119.6 209.1,119.2 209.5,118.9 
		210,118.6 210.4,118.3 210.8,118 211.3,117.7 211.7,117.4 212.2,117.1 212.6,116.7 213.1,116.4 213.5,116.1 213.9,115.8 
		214.4,115.5 214.8,115.2 215.3,114.9 215.7,114.5 216.2,114.2 216.6,113.9 217,113.6 217.5,113.3 217.9,113 218.4,112.6 
		218.8,112.3 219.3,112 219.7,111.7 220.1,111.4 220.6,111.1 221,110.7 221.5,110.4 221.9,110.1 222.4,109.8 222.8,109.5 
		223.2,109.1 223.7,108.8 224.1,108.5 224.6,108.2 225,107.9 225.5,107.5 225.9,107.2 226.3,106.9 226.8,106.6 227.2,106.2 
		227.7,105.9 228.1,105.6 228.6,105.3 229,105 229.4,104.6 229.9,104.3 230.3,104 230.8,103.7 231.2,103.3 231.7,103 232.1,102.7 
		232.5,102.4 233,102 233.4,101.7 233.9,101.4 234.3,101.1 234.8,100.7 235.2,100.4 235.6,100.1 236.1,99.7 236.5,99.4 237,99.1 
		237.4,98.8 237.9,98.4 238.3,98.1 238.7,97.8 239.2,97.4 239.6,97.1 240.1,96.8 240.5,96.5 241,96.1 241.4,95.8 241.8,95.5 
		242.3,95.1 242.7,94.8 243.2,94.5 243.6,94.1 244.1,93.8 244.5,93.5 244.9,93.1 245.4,92.8 245.8,92.5 246.3,92.2 246.7,91.8 
		247.2,91.5 247.6,91.2 248,90.8 248.5,90.5 248.9,90.2 249.4,89.8 249.8,89.5 250.3,89.2 250.7,88.8 251.1,88.5 251.6,88.1 
		252,87.8 252.5,87.5 252.9,87.1 253.4,86.8 253.8,86.5 254.2,86.1 254.7,85.8 255.1,85.5 255.6,85.1 256,84.8 256.5,84.4 
		256.9,84.1 257.3,83.8 257.8,83.4 258.2,83.1 258.7,82.8 259.1,82.4 259.6,82.1 260,81.7 260.5,81.4 260.9,81.1 261.3,80.7 
		261.8,80.4 262.2,80 262.7,79.7 263.1,79.4 263.6,79 264,78.7 264.4,78.3 264.9,78 265.3,77.7 265.8,77.3 266.2,77 266.7,76.6 
		267.1,76.3 267.5,76 268,75.6 268.4,75.3 268.9,74.9 269.3,74.6 269.8,74.2 270.2,73.9 270.6,73.6 271.1,73.2 271.5,72.9 272,72.5 
		272.4,72.2 272.9,71.8 273.3,71.5 273.7,71.1 274.2,70.8 274.6,70.5 275.1,70.1 275.5,69.8 276,69.4 276.4,69.1 276.8,68.7 
		277.3,68.4 277.7,68 278.2,67.7 278.6,67.3 279.1,67 279.5,66.7 279.9,66.3 280.4,66 280.8,65.6 281.3,65.3 281.7,64.9 282.2,64.6 
		282.6,64.2 283,63.9 283.5,63.5 283.9,63.2 284.4,62.8 284.8,62.5 285.3,62.1 285.7,61.8 286.1,61.4 286.6,61.1 287,60.7 
		287.5,60.4 287.9,60 288.4,59.7 288.8,59.3 289.2,59 289.7,58.6 290.1,58.3 290.6,57.9 291,57.6 291.5,57.2 291.9,56.9 292.3,56.5 
		292.8,56.2 293.2,55.8 293.7,55.5 294.1,55.1 294.6,54.8 295,54.4 295.4,54.1 295.9,53.7 296.3,53.4 296.8,53 297.2,52.7 
		297.7,52.3 298.1,52 298.5,51.6 299,51.3 299.4,50.9 299.9,50.5 300.3,50.2 300.8,49.8 301.2,49.5 301.6,49.1 302.1,48.8 
		302.1,145 188.7,145 	"/>
	<g>
		<defs>
			<rect id="SVGID_3_" x="2" y="0" width="316" height="259"/>
		</defs>
		<clipPath id="SVGID_4_">
			<use xlink:href="#SVGID_3_"  style="overflow:visible;"/>
		</clipPath>
		<path class="st5" d="M32.8,148.2l0.1,0.3 M32.9,148.5l0.6,1.8l0.6,1.7 M34.1,152l0.6,1.6l0.6,1.5l1.2,2.8 M36.6,157.9l1.2,2.5
			l1.2,2.3l1.2,2.1l1.2,1.9 M41.5,166.7l1.2,1.7l1.2,1.6l1.2,1.5l1.2,1.3l1.2,1.2l1.2,1.1l1.2,1l1.2,0.9l1.2,0.9l1.2,0.8l1.2,0.7
			l1.2,0.7l1.2,0.6l1.2,0.5l1.2,0.5l1.2,0.4l1.2,0.4l1.2,0.3l1.2,0.3l1.2,0.3l1.2,0.2l1.2,0.2l1.2,0.1l1.2,0.1l1.2,0.1l1.2,0.1
			l1.2,0l1.2,0l1.2,0l1.2-0.1l1.2-0.1L81,184 M81,184l1.2-0.1l1.2-0.1l1.2-0.2l1.2-0.2l1.2-0.2l1.2-0.2l1.2-0.2l1.2-0.3l1.2-0.3
			l1.2-0.3l1.2-0.3l1.2-0.3l1.2-0.3l1.2-0.3l1.2-0.4l1.2-0.4l1.2-0.4l1.2-0.4l1.2-0.4l1.2-0.4l1.2-0.4l1.2-0.4l1.2-0.5l1.2-0.5
			l1.2-0.5l1.2-0.5l1.2-0.5l1.2-0.5l1.2-0.5l1.2-0.5l1.2-0.5l1.2-0.5l1.2-0.6l1.2-0.6l1.2-0.6l1.2-0.6l1.2-0.6l1.2-0.6l1.2-0.6
			l1.2-0.6l1.2-0.6l1.2-0.6l1.2-0.6l1.2-0.6l1.2-0.6l1.2-0.6l1.2-0.7l1.2-0.7l1.2-0.7l1.2-0.7l1.2-0.7l1.2-0.7l1.2-0.7l1.2-0.7
			l1.2-0.7l1.2-0.7l1.2-0.7l1.2-0.7l1.2-0.7l1.2-0.7l1.2-0.7l1.2-0.7l1.2-0.7l1.2-0.7 M160,151.4l1.2-0.7l1.2-0.7l1.2-0.7l1.2-0.8
			l1.2-0.8l1.2-0.8l1.2-0.8l1.2-0.8l1.2-0.8l1.2-0.8l1.2-0.8l1.2-0.8l1.2-0.8l1.2-0.8l1.2-0.8l1.2-0.8l1.2-0.8l1.2-0.8l1.2-0.8
			l1.2-0.8l1.2-0.8l1.2-0.8l1.2-0.8l1.2-0.8l1.2-0.8l1.2-0.8l1.2-0.8l1.2-0.8l1.2-0.8l1.2-0.8l1.2-0.8l1.2-0.8l1.2-0.8l1.2-0.9
			l1.2-0.9l1.2-0.9l1.2-0.9l1.2-0.9l1.2-0.9l1.2-0.9l1.2-0.9l1.2-0.9l1.2-0.9l1.2-0.9l1.2-0.9l1.2-0.9l1.2-0.9l1.2-0.9l1.2-0.9
			l1.2-0.9l1.2-0.9l1.2-0.9l1.2-0.9l1.2-0.9l1.2-0.9l1.2-0.9l1.2-0.9l1.2-0.9l1.2-0.9l1.2-0.9l1.2-0.9l1.2-0.9l1.2-0.9l1.2-0.9
			 M239,97.6l1.2-0.9l1.2-0.9l1.2-0.9l1.2-0.9l1.2-0.9l1.2-0.9l1.2-0.9l1.2-0.9l1.2-0.9l1.2-0.9l1.2-0.9l1.2-0.9l1.2-0.9l1.2-0.9
			l1.2-0.9l1.2-0.9l1.2-0.9l1.2-0.9l1.2-0.9l1.2-0.9l1.2-0.9l1.2-1l1.2-1l1.2-1l1.2-1l1.2-1l1.2-1l1.2-1l1.2-1l1.2-1l1.2-1l1.2-1
			 M278.5,67.4l1.2-1l1.2-1l1.2-1l1.2-1l1.2-1l1.2-1l1.2-1l1.2-1l1.2-1l1.2-1l1.2-1l1.2-1l1.2-1l1.2-1l1.2-1l1.2-1 M298.3,51.8
			l1.2-1l1.2-1 M300.7,49.9l1.2-1 M302,48.9l0.1-0.1"/>
		<line class="st6" x1="135" y1="261.4" x2="0.5" y2="126.9"/>
	</g>
	<path class="st7" d="M47.6,173.4c0,0.3-0.3,0.6-0.6,0.6s-0.6-0.3-0.6-0.6s0.3-0.6,0.6-0.6S47.6,173,47.6,173.4L47.6,173.4z"/>
	<path class="st8" d="M47.6,173.4c0,0.3-0.3,0.6-0.6,0.6s-0.6-0.3-0.6-0.6s0.3-0.6,0.6-0.6S47.6,173,47.6,173.4L47.6,173.4z"/>
	<path class="st7" d="M48.3,172.2l2-5.3h0.8l2.2,5.3h-0.8l-0.6-1.6h-2.2l-0.6,1.6H48.3L48.3,172.2z M49.8,170h1.8l-0.6-1.5
		c-0.2-0.4-0.3-0.8-0.4-1.1c-0.1,0.3-0.2,0.7-0.3,1L49.8,170L49.8,170z"/>
	<path class="st9" d="M287.9,70.5c0,0.1,0,0.1,0,0.1l0,0l0,0l0,0c-0.1,0.1-0.1,0.1-0.1,0.1s0,0,0-0.1c-0.2-0.1-0.3-0.2-0.3-0.3
		s0.1-0.3,0.3-0.6c0.2-0.3,0.4-0.5,0.7-0.7c0.3-0.2,0.5-0.3,0.7-0.3c0.4,0,0.7,0.2,0.8,0.5c0,0.1,0,0.1,0,0.1c0,0.3-0.1,0.7-0.4,1
		c-0.2,0.3-0.4,0.5-0.8,0.7c-0.3,0.2-0.7,0.3-1,0.3c-0.3,0-0.6-0.1-0.8-0.3c-0.2-0.2-0.3-0.4-0.3-0.7c0,0,0,0,0-0.1
		c0-0.6,0.3-1.3,0.8-2h-0.1c-0.8,0-1.3-0.2-1.7-0.5c-0.1-0.2-0.1-0.4-0.1-0.7c0-0.2,0.1-0.4,0.3-0.7c0.2-0.3,0.4-0.5,0.8-0.7
		c0.4-0.2,0.8-0.3,1.2-0.3c0.1,0,0.1,0,0.1,0s0,0-0.1,0.1l0,0c-0.3,0-0.7,0.1-0.9,0.3c-0.3,0.2-0.5,0.3-0.7,0.5
		c-0.2,0.3-0.3,0.5-0.3,0.8c0,0.2,0,0.3,0.1,0.4c0.2,0.3,0.6,0.4,1.3,0.4c0.1,0,0.2,0,0.3,0c0.5-0.8,1.2-1.4,2-2
		c0.8-0.6,1.4-0.9,1.8-0.9c0.3,0,0.6,0.2,0.7,0.5l0,0c0,0.3-0.1,0.5-0.3,0.8c-0.3,0.5-1,1-1.8,1.3c-0.5,0.2-1.1,0.3-1.7,0.4
		c-0.7,1-1,1.7-1,2.2l0,0c0,0.3,0.1,0.5,0.2,0.6c0.1,0.1,0.3,0.2,0.6,0.2c0.2,0,0.4-0.1,0.7-0.3c0.3-0.2,0.5-0.4,0.7-0.7
		c0.3-0.4,0.4-0.7,0.4-0.9v-0.1c0-0.2-0.1-0.3-0.4-0.3c-0.2,0-0.3,0.1-0.5,0.2c-0.2,0.1-0.3,0.3-0.5,0.6c-0.2,0.2-0.3,0.3-0.3,0.4
		C287.7,70.4,287.8,70.5,287.9,70.5L287.9,70.5z M287.9,70.6L287.9,70.6L287.9,70.6L287.9,70.6L287.9,70.6L287.9,70.6z M291.1,65.6
		c-0.3,0-0.8,0.3-1.4,0.8c-0.4,0.4-1,1-1.6,1.7c0.5,0,1-0.1,1.4-0.3c0.8-0.3,1.3-0.7,1.7-1.2c0.2-0.3,0.3-0.5,0.3-0.8l0,0
		C291.5,65.6,291.4,65.6,291.1,65.6L291.1,65.6z"/>
	<path class="st9" d="M292.6,71.4L292.6,71.4l-0.3,1.9c-0.1,0.2-0.2,0.5-0.3,0.8c0,0.1,0,0.2-0.1,0.3c-0.1,0.3-0.3,0.5-0.5,0.5
		c0,0,0,0-0.1,0c-0.2,0-0.3-0.1-0.5-0.2c-0.1-0.1-0.1-0.1-0.1-0.2c0-0.2,0.1-0.3,0.3-0.4c0,0,0,0,0.1,0c0.1,0,0.2,0,0.2,0.1
		c0,0.1,0,0.1,0,0.1c0,0.1-0.1,0.2-0.2,0.3c0,0,0,0-0.1,0.1c0.1,0.1,0.2,0.1,0.3,0.1c0.2,0,0.3-0.2,0.4-0.6c0.1-0.1,0.1-0.2,0.1-0.3
		v-0.2l0.5-2.4h-0.4c-0.1,0-0.2,0-0.2,0l0,0l0,0c0-0.1,0-0.1,0.1-0.2l0,0h0.1h0.5c0.1-0.5,0.1-0.8,0.2-0.9c0.1-0.4,0.3-0.6,0.5-0.6
		c0.1,0,0.1,0,0.2,0c0.2,0,0.3,0.1,0.5,0.2l0,0c0,0.1,0,0.1,0,0.2c0,0.2-0.1,0.3-0.2,0.4c0,0,0,0-0.1,0c-0.1,0-0.2,0-0.2-0.1
		c-0.1-0.1-0.1-0.1-0.1-0.1c0-0.1,0.1-0.2,0.2-0.3c0.1,0,0.1,0,0.2-0.1c-0.1-0.1-0.2-0.1-0.3-0.1c-0.1,0-0.2,0.1-0.3,0.2
		c-0.1,0.1-0.1,0.3-0.2,0.6l-0.1,0.6h0.5c0.1,0,0.2,0,0.2,0.1c0,0.1,0,0.1-0.1,0.1l0,0h-0.1H292.6L292.6,71.4z"/>
	<path class="st10" d="M139.2,248.4l-1,4.4c0,0.1,0,0.1,0,0.1c0,0.1,0,0.2,0.1,0.3l0,0c0,0,0,0,0.1,0c0.2,0,0.3,0,0.5,0
		c0.2,0,0.3,0,0.3,0c0,0.1,0,0.1,0,0.1c0,0.1,0,0.1-0.1,0.1h-0.8l0,0h-0.7l0,0h-0.7h-0.1h-0.7l0,0c-0.1,0-0.1,0-0.1-0.1
		c0-0.1,0-0.1,0.1-0.1c0,0,0.1,0,0.3,0c0.5,0,0.8,0,0.9-0.1c0,0,0,0,0-0.1c0,0,0,0,0-0.1l0,0l0,0l0,0l0,0l1.2-4.4c0-0.1,0-0.2,0-0.2
		c0,0,0-0.1,0-0.1c-0.1,0-0.2,0-0.3,0H138c-0.6,0-1,0-1.2,0.1c-0.1,0.1-0.2,0.2-0.3,0.3v0.1l0,0h-0.1c-0.1,0.2-0.2,0.5-0.4,0.9
		c0,0.1,0,0.1,0,0.1c-0.1,0-0.1,0-0.1,0s0,0,0-0.1c0,0,0,0,0-0.1l0.5-1.4c0-0.1,0-0.1,0.1-0.1c0,0,0,0,0.1,0h4.6c0.2,0,0.3,0,0.3,0
		c0,0.1,0,0.1,0,0.1l-0.3,1.6c0,0.1,0,0.1-0.1,0.1c-0.1,0-0.1,0-0.1-0.1c0,0,0,0,0.1-0.1c0-0.3,0-0.5,0-0.7c0-0.3-0.1-0.6-0.3-0.7
		c-0.2,0-0.5,0-0.9,0c-0.3,0-0.5,0-0.5,0c-0.1,0-0.1,0-0.1,0.1l0,0C139.2,248.4,139.2,248.4,139.2,248.4L139.2,248.4z"/>
</g>
</svg>
