<?xml version="1.0" encoding="utf-8"?>
<!-- Generator: Adobe Illustrator 22.1.0, SVG Export Plug-In . SVG Version: 6.00 Build 0)  -->
<svg version="1.1" id="Calque_1" xmlns="http://www.w3.org/2000/svg" xmlns:xlink="http://www.w3.org/1999/xlink" x="0px" y="0px"
	 viewBox="0 0 385 322.7" style="enable-background:new 0 0 385 322.7;" xml:space="preserve">
<style type="text/css">
	.st0{clip-path:url(#SVGID_2_);fill:#FFFFFF;}
	.st1{clip-path:url(#SVGID_2_);fill:none;stroke:#E0E0E0;stroke-linecap:round;stroke-linejoin:round;stroke-miterlimit:10;}
	.st2{clip-path:url(#SVGID_2_);fill:none;stroke:#F8F8F8;stroke-linecap:round;stroke-linejoin:round;stroke-miterlimit:10;}
	.st3{clip-path:url(#SVGID_2_);fill:none;stroke:#000000;stroke-miterlimit:10;}
	
		.st4{clip-path:url(#SVGID_4_);fill:none;stroke:#4D71DB;stroke-width:1.5;stroke-linecap:round;stroke-linejoin:round;stroke-miterlimit:10;}
	.st5{fill:#0033CC;}
</style>
<g>
	<g>
		<defs>
			<rect id="SVGID_1_" x="0.8" width="383.5" height="322"/>
		</defs>
		<clipPath id="SVGID_2_">
			<use xlink:href="#SVGID_1_"  style="overflow:visible;"/>
		</clipPath>
		<polygon class="st0" points="0.8,0 384.3,0 384.3,322.7 0.8,322.7 0.8,0 		"/>
		<path class="st1" d="M92.1,0v322.7 M148.8,0v322.7 M205.5,0v322.7 M262.2,0v322.7 M318.9,0v322.7 M375.6,0v322.7"/>
		<path class="st2" d="M1.4,0v322.7 M12.8,0v322.7 M24.1,0v322.7 M46.8,0v322.7 M58.1,0v322.7 M69.4,0v322.7 M80.8,0v322.7 M103.5,0
			v322.7 M114.8,0v322.7 M126.1,0v322.7 M137.5,0v322.7 M160.2,0v322.7 M171.5,0v322.7 M182.8,0v322.7 M194.2,0v322.7 M216.8,0
			v322.7 M228.2,0v322.7 M239.5,0v322.7 M250.9,0v322.7 M273.5,0v322.7 M284.9,0v322.7 M296.2,0v322.7 M307.6,0v322.7 M330.2,0
			v322.7 M341.6,0v322.7 M352.9,0v322.7 M364.2,0v322.7"/>
		<path class="st1" d="M0.8,0h383.5 M0.8,0h383.5 M0.8,56.7h383.5 M0.8,113.4h383.5 M0.8,170.1h383.5 M0.8,226.8h383.5"/>
		<path class="st2" d="M0.8,0h383.5 M0.8,11.3h383.5 M0.8,22.7h383.5 M0.8,34h383.5 M0.8,45.4h383.5 M0.8,68h383.5 M0.8,79.4h383.5
			 M0.8,90.7h383.5 M0.8,102.1h383.5 M0.8,124.7h383.5 M0.8,136.1h383.5 M0.8,147.4h383.5 M0.8,158.7h383.5 M0.8,181.4h383.5
			 M0.8,192.8h383.5 M0.8,204.1h383.5 M0.8,215.4h383.5 M0.8,238.1h383.5 M0.8,249.5h383.5 M0.8,260.8h383.5 M0.8,272.1h383.5
			 M0.8,294.8h383.5 M0.8,306.2h383.5 M0.8,317.5h383.5"/>
		<path class="st3" d="M35.4,1.4v321.3 M35.4,0.7l-4.2,4.2 M35.4,0.7l4.2,4.2 M0.8,283.5h382.1 M383.6,283.5l-4.2-4.2 M383.6,283.5
			l-4.2,4.2"/>
	</g>
	<path d="M150.7,298.3h-1.1v-7c-0.3,0.3-0.6,0.5-1,0.8c-0.4,0.3-0.8,0.4-1.2,0.6v-1.1c0.6-0.3,1.2-0.6,1.6-1.1s0.8-0.8,1-1.2h0.7
		V298.3L150.7,298.3z"/>
	<path d="M265.6,297.2v1.1h-5.9c0-0.3,0-0.5,0.1-0.8c0.2-0.4,0.4-0.8,0.7-1.2c0.3-0.4,0.8-0.8,1.4-1.4c1-0.8,1.6-1.4,2-1.9
		c0.3-0.5,0.5-0.9,0.5-1.3c0-0.4-0.2-0.8-0.5-1.1c-0.3-0.3-0.7-0.4-1.2-0.4c-0.5,0-1,0.2-1.3,0.5c-0.3,0.3-0.5,0.8-0.5,1.3l-1.1-0.1
		c0.1-0.8,0.4-1.5,0.9-1.9c0.5-0.4,1.2-0.7,2-0.7c0.9,0,1.5,0.2,2,0.7c0.5,0.5,0.8,1.1,0.8,1.8c0,0.4-0.1,0.7-0.2,1.1
		c-0.1,0.3-0.4,0.7-0.7,1.1c-0.3,0.4-0.9,0.9-1.7,1.6c-0.7,0.6-1.1,0.9-1.3,1.1c-0.2,0.2-0.3,0.4-0.5,0.6H265.6L265.6,297.2z"/>
	<path d="M373.6,295.9l1.1-0.1c0.1,0.6,0.3,1.1,0.6,1.4c0.3,0.3,0.7,0.4,1.1,0.4c0.5,0,1-0.2,1.3-0.5c0.4-0.4,0.5-0.8,0.5-1.3
		c0-0.5-0.2-0.9-0.5-1.3c-0.3-0.3-0.8-0.5-1.3-0.5c-0.2,0-0.5,0-0.8,0.1l0.1-1c0.1,0,0.1,0,0.2,0c0.5,0,0.9-0.1,1.3-0.4
		c0.4-0.2,0.6-0.6,0.6-1.1c0-0.4-0.1-0.7-0.4-1s-0.6-0.4-1.1-0.4s-0.8,0.1-1.1,0.4c-0.3,0.3-0.5,0.7-0.6,1.2l-1.1-0.2
		c0.1-0.7,0.4-1.3,0.9-1.7c0.5-0.4,1.1-0.6,1.8-0.6c0.5,0,0.9,0.1,1.4,0.3c0.4,0.2,0.7,0.5,0.9,0.9c0.2,0.4,0.3,0.7,0.3,1.2
		c0,0.4-0.1,0.7-0.3,1.1c-0.2,0.3-0.5,0.6-0.9,0.8c0.5,0.1,0.9,0.4,1.2,0.8c0.3,0.4,0.4,0.9,0.4,1.4c0,0.8-0.3,1.5-0.9,2
		s-1.3,0.8-2.2,0.8c-0.8,0-1.4-0.2-2-0.7C374,297.3,373.7,296.7,373.6,295.9L373.6,295.9z"/>
	<path d="M27.1,175.3H26v-7c-0.3,0.3-0.6,0.5-1,0.8c-0.4,0.3-0.8,0.4-1.2,0.6v-1.1c0.6-0.3,1.2-0.6,1.6-1.1c0.5-0.4,0.8-0.8,1-1.2
		h0.7V175.3L27.1,175.3z"/>
	<path d="M28.7,61.1v1.1h-5.9c0-0.3,0-0.5,0.1-0.8c0.2-0.4,0.4-0.8,0.7-1.2c0.3-0.4,0.8-0.8,1.4-1.4c1-0.8,1.6-1.4,2-1.9
		c0.3-0.5,0.5-0.9,0.5-1.3c0-0.4-0.2-0.8-0.5-1.1c-0.3-0.3-0.7-0.4-1.2-0.4c-0.5,0-1,0.2-1.3,0.5c-0.3,0.3-0.5,0.8-0.5,1.3L23,55.7
		c0.1-0.8,0.4-1.5,0.9-1.9c0.5-0.4,1.2-0.7,2-0.7c0.9,0,1.5,0.2,2,0.7c0.5,0.5,0.8,1.1,0.8,1.8c0,0.4-0.1,0.7-0.2,1.1
		c-0.1,0.3-0.4,0.7-0.7,1.1c-0.3,0.4-0.9,0.9-1.7,1.6c-0.7,0.6-1.1,0.9-1.3,1.1s-0.3,0.4-0.5,0.6H28.7L28.7,61.1z"/>
	<path d="M22.9,293.9c0-1.1,0.1-1.9,0.3-2.6c0.2-0.6,0.5-1.1,1-1.5c0.4-0.4,1-0.5,1.6-0.5c0.5,0,0.9,0.1,1.3,0.3
		c0.4,0.2,0.7,0.5,0.9,0.8c0.2,0.4,0.4,0.8,0.6,1.3c0.1,0.5,0.2,1.2,0.2,2.1c0,1.1-0.1,1.9-0.3,2.6c-0.2,0.7-0.5,1.2-1,1.5
		c-0.4,0.4-1,0.5-1.6,0.5c-0.9,0-1.6-0.3-2.1-0.9C23.2,296.8,22.9,295.5,22.9,293.9L22.9,293.9z M24.1,293.9c0,1.5,0.2,2.5,0.5,3
		c0.3,0.5,0.8,0.7,1.3,0.7c0.5,0,0.9-0.2,1.3-0.7c0.3-0.5,0.5-1.5,0.5-3s-0.2-2.5-0.5-2.9c-0.3-0.5-0.8-0.7-1.3-0.7
		c-0.5,0-0.9,0.2-1.2,0.6C24.3,291.4,24.1,292.4,24.1,293.9L24.1,293.9z"/>
	<g>
		<defs>
			<rect id="SVGID_3_" x="0.8" width="383.5" height="322"/>
		</defs>
		<clipPath id="SVGID_4_">
			<use xlink:href="#SVGID_3_"  style="overflow:visible;"/>
		</clipPath>
		<polyline class="st4" points="0.8,6.7 3.7,12.7 6.7,18.3 9.7,23.5 12.7,28.3 15.7,32.9 18.7,37.1 21.7,41.1 24.7,44.9 27.7,48.4 
			30.7,51.8 33.7,55 36.7,58 39.7,60.8 42.7,63.5 45.7,66.1 48.7,68.6 51.7,70.9 54.7,73.2 57.7,75.3 60.7,77.4 63.7,79.3 
			66.7,81.2 69.7,83 72.7,84.7 75.7,86.4 78.7,88 81.6,89.5 84.6,91 87.6,92.5 90.6,93.8 93.6,95.2 96.6,96.5 99.6,97.7 102.6,98.9 
			105.6,100.1 108.6,101.2 111.6,102.3 114.6,103.3 117.6,104.3 120.6,105.3 123.6,106.3 126.6,107.2 129.6,108.1 132.6,109 
			135.6,109.9 138.6,110.7 141.6,111.5 144.6,112.3 147.6,113.1 150.6,113.8 153.6,114.6 156.6,115.3 159.6,116 162.5,116.6 
			165.5,117.3 168.5,117.9 171.5,118.6 174.5,119.2 177.5,119.8 180.5,120.4 183.5,120.9 186.5,121.5 189.5,122 192.5,122.6 
			195.5,123.1 198.5,123.6 201.5,124.1 204.5,124.6 207.5,125 210.5,125.5 213.5,126 216.5,126.4 219.5,126.9 222.5,127.3 
			225.5,127.7 228.5,128.1 231.5,128.5 234.5,128.9 237.5,129.3 240.5,129.7 243.4,130.1 246.4,130.5 249.4,130.8 252.4,131.2 
			255.4,131.5 258.4,131.9 261.4,132.2 264.4,132.5 267.4,132.9 270.4,133.2 273.4,133.5 276.4,133.8 279.4,134.1 282.4,134.4 
			285.4,134.7 288.4,135 291.4,135.3 294.4,135.6 297.4,135.8 300.4,136.1 303.4,136.4 306.4,136.6 309.4,136.9 312.4,137.2 
			315.4,137.4 318.4,137.6 321.4,137.9 324.3,138.1 327.3,138.4 330.3,138.6 333.3,138.8 336.3,139.1 339.3,139.3 342.3,139.5 
			345.3,139.7 348.3,139.9 351.3,140.1 354.3,140.3 357.3,140.6 360.3,140.8 363.3,141 366.3,141.1 369.3,141.3 372.3,141.5 
			375.3,141.7 378.3,141.9 381.3,142.1 384.3,142.3 		"/>
	</g>
	<path class="st5" d="M348.1,161.6c0,0.2,0,0.3,0,0.3l0,0l0,0l0,0c-0.2,0.2-0.3,0.3-0.3,0.3s0-0.1,0-0.3c-0.4-0.2-0.6-0.4-0.6-0.7
		c0-0.3,0.2-0.7,0.6-1.3c0.4-0.6,0.9-1.1,1.5-1.5c0.6-0.4,1.1-0.6,1.5-0.6c1,0,1.6,0.4,1.8,1.2c0,0.2,0,0.3,0,0.3
		c0,0.8-0.3,1.6-0.9,2.4c-0.4,0.6-1,1.1-1.8,1.5c-0.8,0.4-1.6,0.6-2.4,0.6c-0.8,0-1.4-0.2-1.9-0.6c-0.5-0.4-0.7-0.9-0.7-1.5
		c0,0,0-0.1,0-0.3c0-1.4,0.6-2.8,1.8-4.4h-0.3c-1.8,0-3-0.4-3.8-1.2c-0.2-0.4-0.3-0.9-0.3-1.5c0-0.4,0.2-0.9,0.6-1.5
		c0.4-0.6,1-1.1,1.8-1.5c1-0.4,1.9-0.6,2.7-0.6c0.2,0,0.3,0,0.3,0s-0.1,0.1-0.3,0.3l0,0c-0.8,0-1.5,0.2-2.1,0.6
		c-0.6,0.4-1.1,0.8-1.5,1.2c-0.4,0.6-0.6,1.2-0.6,1.8c0,0.4,0.1,0.7,0.3,0.9c0.4,0.6,1.4,0.9,2.9,0.9c0.2,0,0.4,0,0.6,0
		c1.2-1.8,2.7-3.2,4.4-4.4c1.8-1.4,3.1-2.1,4.1-2.1c0.8,0,1.3,0.4,1.5,1.2l0,0c0,0.6-0.2,1.2-0.6,1.8c-0.8,1.2-2.2,2.2-4.1,2.9
		c-1.2,0.4-2.5,0.7-3.8,0.9c-1.6,2.2-2.4,3.8-2.4,5l0,0c0,0.6,0.1,1,0.4,1.3c0.3,0.3,0.7,0.4,1.3,0.4c0.4,0,0.9-0.2,1.5-0.6
		c0.6-0.4,1.1-0.9,1.5-1.5c0.6-1,0.9-1.7,0.9-2.1V159c0-0.4-0.3-0.6-0.9-0.6c-0.4,0-0.8,0.1-1.2,0.4c-0.4,0.3-0.8,0.7-1.2,1.3
		c-0.4,0.4-0.6,0.7-0.6,0.9C347.8,161.4,347.9,161.6,348.1,161.6L348.1,161.6z M348.1,161.9L348.1,161.9L348.1,161.9L348.1,161.9
		L348.1,161.9L348.1,161.9z M355.5,150.4c-0.8,0-1.9,0.6-3.2,1.8c-1,1-2.2,2.3-3.5,3.8c1.2,0,2.3-0.2,3.2-0.6c1.8-0.8,3-1.7,3.8-2.7
		c0.4-0.6,0.6-1.2,0.6-1.8l0,0C356.4,150.6,356.1,150.4,355.5,150.4L355.5,150.4z"/>
	<path class="st5" d="M359,163.7L359,163.7l-0.6,4.3c-0.1,0.6-0.3,1.2-0.6,1.9c0,0.3-0.1,0.5-0.2,0.6c-0.3,0.7-0.7,1.1-1.2,1.2
		c0,0-0.1,0-0.2,0c-0.4,0-0.8-0.1-1-0.4c-0.1-0.1-0.2-0.3-0.2-0.4c0-0.4,0.2-0.7,0.6-0.8c0,0,0.1,0,0.2,0c0.3,0,0.4,0.1,0.4,0.2
		c0,0.1,0,0.2,0,0.2c0,0.3-0.1,0.5-0.4,0.6c0,0-0.1,0.1-0.2,0.2c0.1,0.1,0.3,0.2,0.6,0.2c0.4,0,0.7-0.5,0.8-1.4
		c0.1-0.1,0.2-0.3,0.2-0.6V169l1-5.4h-0.8c-0.3,0-0.4,0-0.4,0l0,0l0,0c0-0.1,0.1-0.3,0.2-0.4l0,0h0.2h1c0.1-1.1,0.3-1.8,0.4-2.1
		c0.3-0.8,0.7-1.3,1.2-1.4c0.1,0,0.3,0,0.4,0c0.4,0,0.8,0.1,1,0.4l0,0c0,0.1,0,0.3,0,0.4c0,0.4-0.1,0.7-0.4,0.8c0,0-0.1,0-0.2,0
		c-0.3,0-0.4-0.1-0.4-0.2c-0.1-0.1-0.2-0.2-0.2-0.2c0-0.3,0.1-0.5,0.4-0.6c0.1,0,0.3-0.1,0.4-0.2c-0.1-0.1-0.3-0.2-0.6-0.2
		c-0.3,0-0.5,0.1-0.6,0.4c-0.1,0.1-0.3,0.6-0.4,1.4l-0.2,1.4h1c0.3,0,0.4,0.1,0.4,0.2s-0.1,0.2-0.2,0.2l0,0h-0.2H359L359,163.7z"/>
</g>
</svg>
