<?xml version="1.0" encoding="utf-8"?>
<!-- Generator: Adobe Illustrator 22.1.0, SVG Export Plug-In . SVG Version: 6.00 Build 0)  -->
<svg version="1.1" id="Calque_1" xmlns="http://www.w3.org/2000/svg" xmlns:xlink="http://www.w3.org/1999/xlink" x="0px" y="0px"
	 viewBox="0 0 202 109" style="enable-background:new 0 0 202 109;" xml:space="preserve">
<style type="text/css">
	.st0{fill:#FFFFFF;}
</style>
<title>Plan de travail 1</title>
<path class="st0" d="M100,104c-31.2,0-62.5,0-93.8,0c-1.3,0-1.5-0.2-1.5-1.5c0-30.7,0-61.5,0-92.3c0-1.3,0.2-1.5,1.5-1.5
	c62.8,0,125.5,0,188.3,0c1.3,0,1.5,0.2,1.5,1.5c-0.1,9.3,0,18.5,0,27.8h-1.5c-0.1-0.6,0.3-1.5-0.9-1.5c-2.7,0-5.4,0-8.1,0
	c-0.1-0.6,0.3-1.5-0.9-1.5c-2.2,0-4.4,0-6.6,0c-0.1-0.6,0.3-1.5-0.9-1.5c-2.2,0-4.4,0-6.6,0c-0.1-0.6,0.3-1.5-0.9-1.5
	c-1.7,0-3.4,0-5.1,0c-0.1-0.6,0.3-1.5-0.9-1.5c-2.2,0-4.4,0-6.6,0c-0.1-0.6,0.3-1.5-0.9-1.5c-1.7,0-3.4,0-5.1,0
	c-0.1-0.6,0.3-1.5-0.9-1.5c-1.7,0-3.4,0-5.1,0c-0.1-0.6,0.3-1.5-0.9-1.5c-2.7,0-5.4,0-8.1,0c-0.1-0.5,0.4-1.4-0.6-1.5
	c-2.1-0.1-4.2-0.1-6.3,0c-0.9,0-0.5,0.9-0.6,1.5c-1.7,0-3.4,0-5.1,0c-1.2,0-0.8,0.9-0.9,1.5c-1.2-0.2-1.7,0.3-1.5,1.5
	c-0.6,0-1.2,0-1.8,0c-1.3-0.2-1.3,0.6-1.2,1.5c-1.2-0.2-1.7,0.3-1.5,1.5c-1.2-0.2-1.7,0.3-1.5,1.5c-1.2-0.2-1.7,0.3-1.5,1.5
	c-1.2-0.2-1.7,0.3-1.5,1.5c-0.9,0-1.7-0.1-1.5,1.2c0,0.6,0,1.2,0,1.8c-1.2-0.2-1.7,0.3-1.5,1.5c-0.9,0-1.7-0.1-1.5,1.2
	c0,0.6,0,1.2,0,1.8c-1.2-0.2-1.7,0.3-1.5,1.5c-0.9,0-1.7-0.1-1.5,1.2c0,0.6,0,1.2,0,1.8c-0.9,0-1.7-0.1-1.5,1.2c0,0.6,0,1.2,0,1.8
	c-0.7,0-1.5,0.3-1.5-1c0-7.7,0-15.5,0-23.2c0-0.9,0.2-1.3,1.2-1.4c0.5,0,0.5-1.1,0.1-1.2c-1.8-0.2-1.3-1.4-1.3-2.4
	c0-3.6,0-7.3,0-10.9c0.1-0.5,0.1-1,0-1.5c-0.1-0.4-0.5-0.5-0.9-0.4c0,0,0,0,0,0c-0.2,0.1-0.5,0.2-0.5,0.4c-0.1,0.9,0,1.7,0,2.6v39.7
	c0,0.9,0,1.8,0,2.6s-0.1,1.1-1,1.1c-9.2,0-18.5,0-27.7,0c-0.9,0-1.3-0.2-1.4-1.2c0-0.5-1.1-0.5-1.2-0.1c-0.3,1.3-1,1.3-2.1,1.3
	c-8.7,0-17.5,0-26.2,0c-0.9,0-1.9,0.3-2.1-1.2c0-0.5-1.1-0.4-1.2,0c-0.1,1.2-0.8,1.2-1.7,1.2c-9,0-18,0-27,0H7.7
	c-0.7,0-0.6-0.5-0.7-1c-0.2-0.4-0.6-0.6-1-0.4c-0.3,0.1-0.5,0.4-0.5,0.7c-0.2,2.1-0.1,2.3,2.1,2.3h87c0.9,0.1,1.7,0.1,2.6,0
	c1.3-0.1,1.5,0.5,1.4,1.5c0,0.5,0,1,0,1.5c-0.9,0-1.7-0.1-1.5,1.2c0,0.6,0,1.2,0,1.8c-0.9,0-1.7-0.1-1.5,1.2c0,0.6,0,1.2,0,1.8
	c-0.9,0-1.7-0.1-1.5,1.2c0,0.6,0,1.2,0,1.8c-1.2-0.2-1.7,0.3-1.5,1.5c-0.9,0-1.7-0.1-1.5,1.2c0,0.6,0,1.2,0,1.8
	c-1.2-0.2-1.7,0.3-1.5,1.5c-0.9,0-1.7-0.1-1.5,1.2c0,0.6,0,1.2,0,1.8c-1.2-0.2-1.7,0.3-1.5,1.5c-1.2-0.2-1.7,0.3-1.5,1.5
	c-1.2-0.2-1.7,0.3-1.5,1.5c-0.6,0-1.2,0-1.8,0c-1.3-0.2-1.3,0.6-1.2,1.5c-1.2-0.2-1.7,0.3-1.5,1.5c-1.7,0-3.4,0-5.1,0
	c-1.2,0-0.8,0.9-0.9,1.5h-7.5c-0.1-0.6,0.3-1.5-0.9-1.5c-2.7,0-5.4,0-8.1,0c-0.1-0.6,0.3-1.5-0.9-1.5c-1.7,0-3.4,0-5.1,0
	c-0.1-0.6,0.3-1.5-0.9-1.5c-1.7,0-3.4,0-5.1,0c-0.1-0.6,0.3-1.5-0.9-1.5c-2.2,0-4.4,0-6.6,0c-0.1-0.6,0.3-1.5-0.9-1.5
	c-1.7,0-3.4,0-5.1,0c-0.1-0.6,0.3-1.5-0.9-1.5c-2.2,0-4.4,0-6.6,0c-0.1-0.6,0.3-1.5-0.9-1.5c-2.2,0-4.4,0-6.6,0
	c-0.1-0.6,0.3-1.5-0.9-1.5c-2.7,0-5.4,0-8.4,0C6.5,75.2,7.1,75.7,7,75c0-0.5,0.1-1-0.5-1.1s-1,0-1,0.6s0.2,0.9,1.2,0.9
	c0.4,0.6,0,1.5,1.3,1.5c2.7,0,5.4,0,8.1,0c0.1,0.6-0.3,1.5,0.9,1.5c2.2,0,4.4,0,6.6,0c0.1,0.6-0.3,1.5,0.9,1.5c2.2,0,4.4,0,6.6,0
	c0.1,0.6-0.3,1.5,0.9,1.5c1.7,0,3.4,0,5.1,0c0.1,0.6-0.3,1.5,0.9,1.5c2.2,0,4.4,0,6.6,0c0.1,0.6-0.3,1.5,0.9,1.5c1.7,0,3.4,0,5.1,0
	c0.1,0.6-0.3,1.5,0.9,1.5c1.7,0,3.4,0,5.1,0c0.1,0.6-0.3,1.5,0.9,1.5c2.7,0,5.4,0,8.1,0c0.1,0.5-0.4,1.4,0.6,1.5
	c2.1,0.1,4.2,0.1,6.3,0c0.9,0,0.5-0.9,0.6-1.5c1.7,0,3.4,0,5.1,0c1.2,0,0.8-0.9,0.9-1.5c1.2,0.2,1.7-0.3,1.5-1.5c0.6,0,1.2,0,1.8,0
	c1.3,0.2,1.3-0.6,1.2-1.5c1.2,0.2,1.7-0.3,1.5-1.5c1.2,0.2,1.7-0.3,1.5-1.5c1.2,0.2,1.7-0.3,1.5-1.5c0.9,0,1.7,0.1,1.5-1.2
	c0-0.6,0-1.2,0-1.8c1.2,0.2,1.7-0.3,1.5-1.5c0.9,0,1.7,0.1,1.5-1.2c0-0.6,0-1.2,0-1.8c1.2,0.2,1.7-0.3,1.5-1.5
	c0.9,0,1.7,0.1,1.5-1.2c0-0.6,0-1.2,0-1.8c0.9,0,1.7,0.1,1.5-1.2c0-0.6,0-1.2,0-1.8c0.9,0,1.7,0.1,1.5-1.2c0-0.6,0-1.2,0-1.8
	c1.6-0.4,1.5,0.6,1.5,1.7C100,76.1,100,90.1,100,104z"/>
<path class="st0" d="M196,57.5c0,15,0,30,0,45c0,1.3-0.2,1.5-1.5,1.5c-31,0-62,0-93,0V90.9c0-1-0.2-1.9,1.3-2.1c0.4,0,0.5-1,0-1.2
	c-0.7-0.3-1.2-0.3-1.2-1.4c0-9.2,0-18.5,0-27.7c0-0.8,0.1-1.2,1-1.1s2,0,3,0L196,57.5z"/>
<path class="st0" d="M196,39.5v15c-0.4,0-0.7,0-1.1,0c-0.3,1.6-1.5,1.5-2.7,1.5c-8.6,0-17.2,0-25.8,0c-1,0-1.9,0.1-2.1-1.3
	c-0.1-0.4-1.1-0.4-1.2,0.1c0,1.4-0.9,1.2-1.7,1.2c-8.9,0-17.7,0-26.6,0c-1.1,0-1.9,0-2-1.3c-0.3-0.1-0.6-0.1-0.9-0.1
	c-0.5,2.2-2.2,1.4-3.5,1.4c-8,0.1-16,0-24,0c-0.8,0-1.5,0-2.2,0c-0.4,0-0.7-0.2-0.6-0.7c0-0.2,0.1-0.6,0.2-0.6
	c2.3-0.3,0.9-2.1,1.3-3.2c0.9,0,1.7,0.1,1.5-1.2c0-0.6,0-1.2,0-1.8c0.9,0,1.7,0.1,1.5-1.2c0-0.6,0-1.2,0-1.8
	c1.2,0.2,1.7-0.3,1.5-1.5c0.9,0,1.7,0.1,1.5-1.2c0-0.6,0-1.2,0-1.8c1.2,0.2,1.7-0.3,1.5-1.5c0.9,0,1.7,0.1,1.5-1.2
	c0-0.6,0-1.2,0-1.8c1.2,0.2,1.7-0.3,1.5-1.5c1.2,0.2,1.7-0.3,1.5-1.5c1.2,0.2,1.7-0.3,1.5-1.5c1.2,0.2,1.7-0.3,1.5-1.5
	c0.6,0,1.2,0,1.8,0c1.3,0.2,1.3-0.6,1.2-1.5c1.2,0.2,1.7-0.3,1.5-1.5c1.7,0,3.4,0,5.1,0c1.2,0,0.8-0.9,0.9-1.5h7.5
	c0.1,0.6-0.3,1.5,0.9,1.5c2.7,0,5.4,0,8.1,0c0.1,0.6-0.3,1.5,0.9,1.5c1.7,0,3.4,0,5.1,0c0.1,0.6-0.3,1.5,0.9,1.5c1.7,0,3.4,0,5.1,0
	c0.1,0.6-0.3,1.5,0.9,1.5c2.2,0,4.4,0,6.6,0c0.1,0.6-0.3,1.5,0.9,1.5c1.7,0,3.4,0,5.1,0c0.1,0.6-0.3,1.5,0.9,1.5c2.2,0,4.4,0,6.6,0
	c0.1,0.6-0.3,1.5,0.9,1.5c2.2,0,4.4,0,6.6,0c0.1,0.6-0.3,1.5,0.9,1.5c2.7,0,5.4,0,8.1,0C194.3,39.2,194.8,39.7,196,39.5z"/>
<path d="M103,51.5c-0.4,1.1,1,2.8-1.3,3.2c-0.1,0-0.2,0.4-0.2,0.6c0,0.5,0.2,0.7,0.6,0.7c0.7,0,1.5,0,2.2,0c8,0,16,0,24,0
	c1.3,0,3,0.8,3.5-1.4c0.3,0,0.6,0,0.9,0.1c0.2,1.3,1,1.3,2,1.3c8.9,0,17.7,0,26.6,0c0.9,0,1.7,0.2,1.7-1.2c0-0.4,1.1-0.5,1.2-0.1
	c0.2,1.4,1.1,1.3,2.1,1.3c8.6,0,17.2,0,25.8,0c1.3,0,2.4,0.1,2.7-1.5c0.4,0,0.7,0,1.1,0v3h-90.5c-1,0-2,0-3,0s-1,0.4-1,1.1
	c0,9.2,0,18.5,0,27.7c0,1,0.5,1.1,1.2,1.4c0.5,0.2,0.5,1.1,0,1.2c-1.5,0.2-1.3,1.1-1.3,2.1v13H100c0-13.9,0-27.9,0-41.8
	c0-1.1,0.1-2.1-1.5-1.7c0-0.5,0-1,0-1.5c0.1-1-0.1-1.7-1.4-1.5c-0.9,0.1-1.7,0.1-2.6,0h-87c-2.2,0-2.3-0.2-2.1-2.3
	c-0.1-0.4,0.3-0.8,0.7-0.9C6.5,54.3,6.9,54.6,7,55l0,0c0.1,0.5,0,1,0.7,1h0.8c9,0,18,0,27,0c0.9,0,1.6,0,1.7-1.2
	c0-0.5,1.1-0.5,1.2,0c0.2,1.5,1.2,1.2,2.1,1.2c8.8,0,17.5,0,26.2,0c1.1,0,1.8,0,2.1-1.3c0.1-0.4,1.1-0.3,1.2,0.1
	c0.1,1,0.5,1.2,1.4,1.2c9.3,0,18.5,0,27.7,0c0.9,0,1-0.4,1-1.1s0-1.8,0-2.6V12.5c0-0.9,0-1.8,0-2.6c0-0.1,0.3-0.3,0.5-0.4
	c0.4-0.1,0.8,0,0.9,0.4c0,0,0,0,0,0c0.1,0.5,0.1,1,0,1.5c0,3.6,0,7.3,0,10.9c0,1-0.5,2.3,1.3,2.4c0.4,0,0.3,1.1-0.1,1.2
	c-1,0.1-1.2,0.5-1.2,1.4c0,7.8,0,15.5,0,23.2C101.5,51.8,102.3,51.5,103,51.5z"/>
<path d="M196,39.5c-1.2,0.2-1.7-0.3-1.5-1.5h1.5V39.5z"/>
<path d="M145,27.5c-2.7,0-5.4,0-8.1,0c-1.3,0-0.9-0.9-0.9-1.5c2.7,0,5.4,0,8.1,0C145.3,26,144.9,26.9,145,27.5z"/>
<path d="M194.5,38c-2.7,0-5.4,0-8.1,0c-1.3,0-0.9-0.9-0.9-1.5c2.7,0,5.4,0,8.1,0C194.8,36.5,194.4,37.4,194.5,38z"/>
<path d="M7,75.5c2.7,0,5.4,0,8.1,0c1.3,0,0.9,0.9,0.9,1.5c-2.7,0-5.4,0-8.1,0C6.7,77,7.1,76.1,7,75.5z"/>
<path d="M56.5,86c2.7,0,5.4,0,8.1,0c1.3,0,0.9,0.9,0.9,1.5c-2.7,0-5.4,0-8.1,0C56.2,87.5,56.6,86.6,56.5,86z"/>
<path d="M136,26h-7.5c0.1-0.5-0.4-1.4,0.6-1.5c2.1-0.1,4.2-0.1,6.3,0C136.4,24.6,135.9,25.5,136,26z"/>
<path d="M44.5,83c-2.2,0-4.4,0-6.6,0c-1.2,0-0.8-0.9-0.9-1.5c2.2,0,4.4,0,6.6,0C44.8,81.5,44.4,82.4,44.5,83z"/>
<path d="M65.5,87.5H73c-0.1,0.5,0.4,1.4-0.6,1.5c-2.1,0.1-4.2,0.1-6.3,0C65.1,88.9,65.6,88,65.5,87.5z"/>
<path d="M31,80c-2.2,0-4.4,0-6.6,0c-1.2,0-0.8-0.9-0.9-1.5c2.2,0,4.4,0,6.6,0C31.3,78.5,30.9,79.4,31,80z"/>
<path d="M23.5,78.5c-2.2,0-4.4,0-6.6,0c-1.2,0-0.8-0.9-0.9-1.5c2.2,0,4.4,0,6.6,0C23.8,77,23.4,77.9,23.5,78.5z"/>
<path d="M164.5,32c-2.2,0-4.4,0-6.6,0c-1.2,0-0.8-0.9-0.9-1.5c2.2,0,4.4,0,6.6,0C164.8,30.5,164.4,31.4,164.5,32z"/>
<path d="M178,35c-2.2,0-4.4,0-6.6,0c-1.2,0-0.8-0.9-0.9-1.5c2.2,0,4.4,0,6.6,0C178.3,33.5,177.9,34.4,178,35z"/>
<path d="M185.5,36.5c-2.2,0-4.4,0-6.6,0c-1.2,0-0.8-0.9-0.9-1.5c2.2,0,4.4,0,6.6,0C185.8,35,185.4,35.9,185.5,36.5z"/>
<path d="M128.5,26c-0.1,0.6,0.3,1.5-0.9,1.5c-1.7,0-3.4,0-5.1,0c0.1-0.6-0.3-1.5,0.9-1.5C125.1,26,126.8,26,128.5,26z"/>
<path d="M151,29c-1.7,0-3.4,0-5.1,0c-1.2,0-0.8-0.9-0.9-1.5c1.7,0,3.4,0,5.1,0C151.3,27.5,150.9,28.4,151,29z"/>
<path d="M31,80c1.7,0,3.4,0,5.1,0c1.2,0,0.8,0.9,0.9,1.5c-1.7,0-3.4,0-5.1,0C30.7,81.5,31.1,80.6,31,80z"/>
<path d="M157,30.5c-1.7,0-3.4,0-5.1,0c-1.2,0-0.8-0.9-0.9-1.5c1.7,0,3.4,0,5.1,0C157.3,29,156.9,29.9,157,30.5z"/>
<path d="M50.5,84.5c1.7,0,3.4,0,5.1,0c1.2,0,0.8,0.9,0.9,1.5c-1.7,0-3.4,0-5.1,0C50.2,86,50.6,85.1,50.5,84.5z"/>
<path d="M73,87.5c0.1-0.6-0.3-1.5,0.9-1.5c1.7,0,3.4,0,5.1,0c-0.1,0.6,0.3,1.5-0.9,1.5C76.4,87.5,74.7,87.5,73,87.5z"/>
<path d="M170.5,33.5c-1.7,0-3.4,0-5.1,0c-1.2,0-0.8-0.9-0.9-1.5c1.7,0,3.4,0,5.1,0C170.8,32,170.4,32.9,170.5,33.5z"/>
<path d="M50.5,84.5c-1.7,0-3.4,0-5.1,0c-1.2,0-0.8-0.9-0.9-1.5c1.7,0,3.4,0,5.1,0C50.8,83,50.4,83.9,50.5,84.5z"/>
<path d="M121,29c0,0.9,0.1,1.7-1.2,1.5c-0.6,0-1.2,0-1.8,0c0-0.9-0.1-1.7,1.2-1.5C119.8,29,120.4,29,121,29z"/>
<path d="M94,69.5c0-0.6,0-1.2,0-1.8c-0.2-1.3,0.6-1.3,1.5-1.2c0,0.6,0,1.2,0,1.8C95.7,69.6,94.9,69.5,94,69.5z"/>
<path d="M92.5,71c0,0.6,0,1.2,0,1.8c0.2,1.3-0.6,1.3-1.5,1.2c0-0.6,0-1.2,0-1.8C90.8,70.9,91.6,71,92.5,71z"/>
<path d="M88,78.5c0-0.6,0-1.2,0-1.8c-0.2-1.3,0.6-1.3,1.5-1.2c0,0.6,0,1.2,0,1.8C89.7,78.6,88.9,78.5,88,78.5z"/>
<path d="M109,41c0,0.6,0,1.2,0,1.8c0.2,1.3-0.6,1.3-1.5,1.2c0-0.6,0-1.2,0-1.8C107.3,40.9,108.1,41,109,41z"/>
<path d="M104.5,48.5c0,0.6,0,1.2,0,1.8c0.2,1.3-0.6,1.3-1.5,1.2c0-0.6,0-1.2,0-1.8C102.8,48.4,103.6,48.5,104.5,48.5z"/>
<path d="M112,36.5c0,0.6,0,1.2,0,1.8c0.2,1.3-0.6,1.3-1.5,1.2c0-0.6,0-1.2,0-1.8C110.3,36.4,111.1,36.5,112,36.5z"/>
<path d="M83.5,83c0,0.9,0.1,1.7-1.2,1.5c-0.6,0-1.2,0-1.8,0c0-0.9-0.1-1.7,1.2-1.5C82.3,83,82.9,83,83.5,83z"/>
<path d="M98.5,60.5c0,0.6,0,1.2,0,1.8c0.2,1.3-0.6,1.3-1.5,1.2c0-0.6,0-1.2,0-1.8C96.8,60.4,97.6,60.5,98.5,60.5z"/>
<path d="M106,45.5c0,0.6,0,1.2,0,1.8c0.2,1.3-0.6,1.3-1.5,1.2c0-0.6,0-1.2,0-1.8C104.3,45.4,105.1,45.5,106,45.5z"/>
<path d="M97,63.5c0,0.6,0,1.2,0,1.8c0.2,1.3-0.6,1.3-1.5,1.2c0-0.6,0-1.2,0-1.8C95.3,63.4,96.1,63.5,97,63.5z"/>
<path d="M122.5,27.5c0.2,1.2-0.3,1.7-1.5,1.5C120.8,27.8,121.3,27.3,122.5,27.5z"/>
<path d="M118,30.5c0.2,1.2-0.3,1.7-1.5,1.5C116.3,30.8,116.8,30.3,118,30.5z"/>
<path d="M116.5,32c0.2,1.2-0.3,1.7-1.5,1.5C114.8,32.3,115.3,31.8,116.5,32z"/>
<path d="M115,33.5c0.2,1.2-0.3,1.7-1.5,1.5C113.3,33.8,113.8,33.3,115,33.5z"/>
<path d="M92.5,71c-0.2-1.2,0.3-1.7,1.5-1.5C94.2,70.7,93.7,71.2,92.5,71z"/>
<path d="M6.3,75.5c-0.6,0-0.8-0.3-0.8-0.9s0.5-0.7,1-0.6S7,74.7,7,75.1C7,75.9,6.5,75.3,6.3,75.5z"/>
<path d="M89.5,75.5c-0.2-1.2,0.3-1.7,1.5-1.5C91.2,75.2,90.7,75.7,89.5,75.5z"/>
<path d="M107.5,44c0.2,1.2-0.3,1.7-1.5,1.5C105.8,44.3,106.3,43.8,107.5,44z"/>
<path d="M110.5,39.5c0.2,1.2-0.3,1.7-1.5,1.5C108.8,39.8,109.3,39.3,110.5,39.5z"/>
<path d="M88,78.5c0.2,1.2-0.3,1.7-1.5,1.5C86.3,78.8,86.8,78.3,88,78.5z"/>
<path d="M85,81.5c-0.2-1.2,0.3-1.7,1.5-1.5C86.7,81.2,86.2,81.7,85,81.5z"/>
<path d="M83.5,83c-0.2-1.2,0.3-1.7,1.5-1.5C85.2,82.7,84.7,83.2,83.5,83z"/>
<path d="M80.5,84.5c0.2,1.2-0.3,1.7-1.5,1.5C78.8,84.8,79.3,84.3,80.5,84.5z"/>
<path d="M113.5,35c0.2,1.2-0.3,1.7-1.5,1.5C111.8,35.3,112.3,34.8,113.5,35z"/>
</svg>
