<svg xmlns="http://www.w3.org/2000/svg" width="615.37" height="551.59" viewBox="0 0 356 319"><defs><clipPath id="0"><path d="m0 0v320h357v-320z"/></clipPath></defs><g stroke-miterlimit="10" stroke-linecap="square"><g clip-path="url(#0)"><path d="m31.952 2v318" stroke-linecap="butt" fill="none" stroke="#000"/></g><g clip-path="url(#0)"><path d="m31.952 1l-3 3" stroke-linecap="butt" fill="none" stroke="#000"/></g><g clip-path="url(#0)"><path d="m31.952 1l3 3" stroke-linecap="butt" fill="none" stroke="#000"/></g><g clip-path="url(#0)"><path d="m0 282.56h355" stroke-linecap="butt" fill="none" stroke="#000"/></g><g clip-path="url(#0)"><path d="m356 282.56l-3-3" stroke-linecap="butt" fill="none" stroke="#000"/></g><g clip-path="url(#0)"><path d="m356 282.56l-3 3" stroke-linecap="butt" fill="none" stroke="#000"/></g><g clip-path="url(#0)"><text font-style="italic" font-family="serif" font-size="10" x="0" y="0" transform="translate(7 296)">–1</text></g><g clip-path="url(#0)"><path d="m11.396 282.56v3" stroke-linecap="butt" fill="none" stroke="#000"/></g><g clip-path="url(#0)"><text font-style="italic" font-family="serif" font-size="10" x="0" y="0" transform="translate(37 296)">0</text></g><g clip-path="url(#0)"><text font-style="italic" font-family="serif" font-size="10" x="0" y="0" transform="translate(51 296)">1</text></g><g clip-path="url(#0)"><path d="m52.51 282.56v3" stroke-linecap="butt" fill="none" stroke="#000"/></g><g clip-path="url(#0)"><text font-style="italic" font-family="serif" font-size="10" x="0" y="0" transform="translate(71 296)">2</text></g><g clip-path="url(#0)"><path d="m73.06 282.56v3" stroke-linecap="butt" fill="none" stroke="#000"/></g><g clip-path="url(#0)"><text font-style="italic" font-family="serif" font-size="10" x="0" y="0" transform="translate(92 296)">3</text></g><g clip-path="url(#0)"><path d="m93.62 282.56v3" stroke-linecap="butt" fill="none" stroke="#000"/></g><g clip-path="url(#0)"><text font-style="italic" font-family="serif" font-size="10" x="0" y="0" transform="translate(112 296)">4</text></g><g clip-path="url(#0)"><path d="m114.18 282.56v3" stroke-linecap="butt" fill="none" stroke="#000"/></g><g clip-path="url(#0)"><text font-style="italic" font-family="serif" font-size="10" x="0" y="0" transform="translate(133 296)">5</text></g><g clip-path="url(#0)"><path d="m134.73 282.56v3" stroke-linecap="butt" fill="none" stroke="#000"/></g><g clip-path="url(#0)"><text font-style="italic" font-family="serif" font-size="10" x="0" y="0" transform="translate(153 296)">6</text></g><g clip-path="url(#0)"><path d="m155.29 282.56v3" stroke-linecap="butt" fill="none" stroke="#000"/></g><g clip-path="url(#0)"><text font-style="italic" font-family="serif" font-size="10" x="0" y="0" transform="translate(174 296)">7</text></g><g clip-path="url(#0)"><path d="m175.85 282.56v3" stroke-linecap="butt" fill="none" stroke="#000"/></g><g clip-path="url(#0)"><text font-style="italic" font-family="serif" font-size="10" x="0" y="0" transform="translate(194 296)">8</text></g><g clip-path="url(#0)"><path d="m196.4 282.56v3" stroke-linecap="butt" fill="none" stroke="#000"/></g><g clip-path="url(#0)"><text font-style="italic" font-family="serif" font-size="10" x="0" y="0" transform="translate(215 296)">9</text></g><g clip-path="url(#0)"><path d="m216.96 282.56v3" stroke-linecap="butt" fill="none" stroke="#000"/></g><g clip-path="url(#0)"><text font-style="italic" font-family="serif" font-size="10" x="0" y="0" transform="translate(233 296)">10</text></g><g clip-path="url(#0)"><path d="m237.51 282.56v3" stroke-linecap="butt" fill="none" stroke="#000"/></g><g clip-path="url(#0)"><text font-style="italic" font-family="serif" font-size="10" x="0" y="0" transform="translate(254 296)">11</text></g><g clip-path="url(#0)"><path d="m258.07 282.56v3" stroke-linecap="butt" fill="none" stroke="#000"/></g><g clip-path="url(#0)"><text font-style="italic" font-family="serif" font-size="10" x="0" y="0" transform="translate(274 296)">12</text></g><g clip-path="url(#0)"><path d="m278.63 282.56v3" stroke-linecap="butt" fill="none" stroke="#000"/></g><g clip-path="url(#0)"><text font-style="italic" font-family="serif" font-size="10" x="0" y="0" transform="translate(295 296)">13</text></g><g clip-path="url(#0)"><path d="m299.18 282.56v3" stroke-linecap="butt" fill="none" stroke="#000"/></g><g clip-path="url(#0)"><text font-style="italic" font-family="serif" font-size="10" x="0" y="0" transform="translate(315 296)">14</text></g><g clip-path="url(#0)"><path d="m319.74 282.56v3" stroke-linecap="butt" fill="none" stroke="#000"/></g><g clip-path="url(#0)"><text font-style="italic" font-family="serif" font-size="10" x="0" y="0" transform="translate(336 296)">15</text></g><g clip-path="url(#0)"><path d="m340.29 282.56v3" stroke-linecap="butt" fill="none" stroke="#000"/></g><g clip-path="url(#0)"><text font-style="italic" font-family="serif" font-size="10" x="0" y="0" transform="translate(9 307)">–10</text></g><g clip-path="url(#0)"><path d="m28.952 303.11h3" stroke-linecap="butt" fill="none" stroke="#000"/></g><g clip-path="url(#0)"><text font-style="italic" font-family="serif" font-size="10" x="0" y="0" transform="translate(20 280)">0</text></g><g clip-path="url(#0)"><text font-style="italic" font-family="serif" font-size="10" x="0" y="0" transform="translate(14 266)">10</text></g><g clip-path="url(#0)"><path d="m28.952 262h3" stroke-linecap="butt" fill="none" stroke="#000"/></g><g clip-path="url(#0)"><text font-style="italic" font-family="serif" font-size="10" x="0" y="0" transform="translate(14 245)">20</text></g><g clip-path="url(#0)"><path d="m28.952 241.44h3" stroke-linecap="butt" fill="none" stroke="#000"/></g><g clip-path="url(#0)"><text font-style="italic" font-family="serif" font-size="10" x="0" y="0" transform="translate(14 224)">30</text></g><g clip-path="url(#0)"><path d="m28.952 220.89h3" stroke-linecap="butt" fill="none" stroke="#000"/></g><g clip-path="url(#0)"><text font-style="italic" font-family="serif" font-size="10" x="0" y="0" transform="translate(14 204)">40</text></g><g clip-path="url(#0)"><path d="m28.952 200.33h3" stroke-linecap="butt" fill="none" stroke="#000"/></g><g clip-path="url(#0)"><text font-style="italic" font-family="serif" font-size="10" x="0" y="0" transform="translate(14 183)">50</text></g><g clip-path="url(#0)"><path d="m28.952 179.78h3" stroke-linecap="butt" fill="none" stroke="#000"/></g><g clip-path="url(#0)"><text font-style="italic" font-family="serif" font-size="10" x="0" y="0" transform="translate(14 163)">60</text></g><g clip-path="url(#0)"><path d="m28.952 159.22h3" stroke-linecap="butt" fill="none" stroke="#000"/></g><g clip-path="url(#0)"><text font-style="italic" font-family="serif" font-size="10" x="0" y="0" transform="translate(14 142)">70</text></g><g clip-path="url(#0)"><path d="m28.952 138.66h3" stroke-linecap="butt" fill="none" stroke="#000"/></g><g clip-path="url(#0)"><text font-style="italic" font-family="serif" font-size="10" x="0" y="0" transform="translate(14 122)">80</text></g><g clip-path="url(#0)"><path d="m28.952 118.11h3" stroke-linecap="butt" fill="none" stroke="#000"/></g><g clip-path="url(#0)"><text font-style="italic" font-family="serif" font-size="10" x="0" y="0" transform="translate(14 101)">90</text></g><g clip-path="url(#0)"><path d="m28.952 97.55h3" stroke-linecap="butt" fill="none" stroke="#000"/></g><g clip-path="url(#0)"><text font-style="italic" font-family="serif" font-size="10" x="0" y="0" transform="translate(9 80)">100</text></g><g clip-path="url(#0)"><path d="m28.952 76.996h3" stroke-linecap="butt" fill="none" stroke="#000"/></g><g clip-path="url(#0)"><text font-style="italic" font-family="serif" font-size="10" x="0" y="0" transform="translate(9 60)">110</text></g><g clip-path="url(#0)"><path d="m28.952 56.44h3" stroke-linecap="butt" fill="none" stroke="#000"/></g><g clip-path="url(#0)"><text font-style="italic" font-family="serif" font-size="10" x="0" y="0" transform="translate(9 39)">120</text></g><g clip-path="url(#0)"><path d="m28.952 35.884h3" stroke-linecap="butt" fill="none" stroke="#000"/></g><g clip-path="url(#0)"><text font-style="italic" font-family="serif" font-size="10" x="0" y="0" transform="translate(9 19)">130</text></g><g clip-path="url(#0)"><path d="m28.952 15.328h3" stroke-linecap="butt" fill="none" stroke="#000"/></g><g><g clip-path="url(#0)"><path d="m0 195.75l2.789-1.39 2.789-1.4 2.789-1.39 2.789-1.4 2.789-1.39 2.789-1.39 2.789-1.4 2.789-1.39 2.79-1.4 2.789-1.39 2.789-1.4 2.789-1.39 2.789-1.4 2.789-1.39 2.789-1.4 2.789-1.39 2.789-1.39 2.789-1.4 2.789-1.39 2.789-1.4 2.789-1.39 2.789-1.4 2.789-1.39 2.79-1.4 2.789-1.39 2.789-1.4 2.789-1.39 2.789-1.39 2.789-1.4 2.789-1.39 2.789-1.4 2.789-1.39 2.789-1.4 2.789-1.39 2.789-1.4 2.793-1.39 2.79-1.39 2.78-1.4 2.79-1.39 2.79-1.4 2.79-1.39 2.79-1.4 2.79-1.39 2.79-1.4 2.79-1.39 2.79-1.4 2.79-1.39 2.79-1.39 2.78-1.4 2.79-1.39 2.79-1.4 2.79-1.39 2.79-1.4 2.79-1.39 2.79-1.4 2.79-1.39 2.79-1.4 2.79-1.39 2.78-1.39 2.79-1.4 2.79-1.39 2.79-1.4 2.79-1.39 2.79-1.4 2.79-1.39 2.79-1.4 2.79-1.39 2.79-1.4 2.79-1.39 2.78-1.394 2.79-1.395 2.79-1.395 2.79-1.394 2.79-1.395 2.79-1.394 2.79-1.395 2.79-1.394 2.79-1.395 2.79-1.394 2.78-1.395 2.79-1.394 2.79-1.395 2.79-1.394 2.79-1.395 2.79-1.394 2.79-1.395 2.79-1.395 2.79-1.394 2.79-1.395 2.79-1.394 2.78-1.395 2.79-1.394 2.79-1.395 2.79-1.394 2.79-1.395 2.79-1.394 2.79-1.395 2.79-1.394 2.79-1.395 2.79-1.394 2.79-1.395 2.78-1.394 2.79-1.395 2.79-1.395 2.79-1.394 2.79-1.395 2.79-1.394 2.79-1.395 2.79-1.394 2.79-1.395 2.79-1.394 2.79-1.395 2.78-1.394 2.79-1.395 2.79-1.394 2.79-1.395 2.79-1.394 2.79-1.395 2.79-1.395 2.79-1.394 2.79-1.395 2.79-1.394 2.78-1.395 2.79-1.394 2.79-1.395 2.79-1.394 2.79-1.395 2.79-1.394" stroke-linejoin="round" stroke-width="1.5" stroke-linecap="round" fill="none" stroke="#006400"/></g><g clip-path="url(#0)"><text font-style="italic" font-family="serif" fill="#006400" font-size="12" x="0" y="0" transform="translate(39 161)">C</text></g><g clip-path="url(#0)"><text font-style="italic" font-family="serif" fill="#006400" font-size="10" x="0" y="0" transform="translate(47.666 166)">g</text></g><g clip-path="url(#0)"><path d="m0 320.9l2.789-3.35 2.789-3.34 2.789-3.35 2.789-3.35 2.789-3.34 2.789-3.35 2.789-3.35 2.789-3.35 2.79-3.34 2.789-3.35 2.789-3.35 2.789-3.34 2.789-3.35 2.789-3.35 2.789-3.34 2.789-3.35 2.789-3.35 2.789-3.34 2.789-3.35 2.789-3.35 2.789-3.34 2.789-3.35 2.789-3.35 2.79-3.35 2.789-3.34 2.789-3.35 2.789-3.35 2.789-3.34 2.789-3.35 2.789-3.35 2.789-3.34 2.789-3.35 2.789-3.35 2.789-3.34 2.789-3.35 2.793-3.35 2.79-3.34 2.78-3.35 2.79-3.35 2.79-3.35 2.79-3.34 2.79-3.35 2.79-3.35 2.79-3.34 2.79-3.35 2.79-3.35 2.79-3.34 2.79-3.35 2.78-3.35 2.79-3.34 2.79-3.35 2.79-3.35 2.79-3.34 2.79-3.35 2.79-3.35 2.79-3.35 2.79-3.34 2.79-3.35 2.78-3.35 2.79-3.34 2.79-3.35 2.79-3.35 2.79-3.34 2.79-3.35 2.79-3.35 2.79-3.34 2.79-3.351 2.79-3.347 2.79-3.346 2.78-3.347 2.79-3.347 2.79-3.347 2.79-3.347 2.79-3.347 2.79-3.347 2.79-3.347 2.79-3.346 2.79-3.347 2.79-3.347 2.78-3.347 2.79-3.347 2.79-3.347 2.79-3.347 2.79-3.347 2.79-3.346 2.79-3.347 2.79-3.347 2.79-3.347 2.79-3.347 2.79-3.347 2.78-3.347 2.79-3.347 2.79-3.347 2.79-3.347 2.79-3.347 2.79-3.347 2.79-3.347 2.79-3.347" stroke-linejoin="round" stroke-width="1.5" stroke-linecap="round" fill="none" stroke="#c00"/></g><g clip-path="url(#0)"><text font-style="italic" font-family="serif" fill="#c00" font-size="12" x="0" y="0" transform="translate(52 272)">C</text></g><g clip-path="url(#0)"><text font-style="italic" font-family="serif" fill="#c00" font-size="10" x="0" y="0" transform="translate(60.666 277)">f</text></g><g clip-path="url(#0)"><path d="m178.78 325v-330" stroke-linejoin="round" stroke-linecap="round" fill="none" stroke="#c0c0c0"/></g></g></g></svg>