<svg xmlns="http://www.w3.org/2000/svg" width="251.36" height="238.72" viewBox="0 0 516 488"><defs><clipPath id="0"><path d="m0 0v491h517v-491z"/></clipPath></defs><g stroke-miterlimit="10" stroke-linecap="square"><g clip-path="url(#0)"><path d="m245.25 2v489" stroke-linecap="butt" fill="none" stroke="#000"/></g><g clip-path="url(#0)"><path d="m245.25 1l-3 3" stroke-linecap="butt" fill="none" stroke="#000"/></g><g clip-path="url(#0)"><path d="m245.25 1l3 3" stroke-linecap="butt" fill="none" stroke="#000"/></g><g clip-path="url(#0)"><path d="m0 247.76h515" stroke-linecap="butt" fill="none" stroke="#000"/></g><g clip-path="url(#0)"><path d="m516 247.76l-3-3" stroke-linecap="butt" fill="none" stroke="#000"/></g><g clip-path="url(#0)"><path d="m516 247.76l-3 3" stroke-linecap="butt" fill="none" stroke="#000"/></g><g clip-path="url(#0)"><text font-style="italic" font-family="serif" font-size="10" x="0" y="0" transform="translate(22 261)">–1</text></g><g clip-path="url(#0)"><path d="m26.611 247.76v3" stroke-linecap="butt" fill="none" stroke="#000"/></g><g clip-path="url(#0)"><text font-style="italic" font-family="serif" font-size="10" x="0" y="0" transform="translate(251 261)">0</text></g><g clip-path="url(#0)"><text font-style="italic" font-family="serif" font-size="10" x="0" y="0" transform="translate(462 261)">1</text></g><g clip-path="url(#0)"><path d="m463.89 247.76v3" stroke-linecap="butt" fill="none" stroke="#000"/></g><g clip-path="url(#0)"><text font-style="italic" font-family="serif" font-size="10" x="0" y="0" transform="translate(228 470)">–1</text></g><g clip-path="url(#0)"><path d="m242.25 466.4h3" stroke-linecap="butt" fill="none" stroke="#000"/></g><g clip-path="url(#0)"><text font-style="italic" font-family="serif" font-size="10" x="0" y="0" transform="translate(233 245)">0</text></g><g clip-path="url(#0)"><text font-style="italic" font-family="serif" font-size="10" x="0" y="0" transform="translate(233 33)">1</text></g><g clip-path="url(#0)"><path d="m242.25 29.12h3" stroke-linecap="butt" fill="none" stroke="#000"/></g><g><g clip-path="url(#0)"><path d="m463.89 247.76c0 120.75-97.89 218.64-218.64 218.64-120.75 0-218.64-97.89-218.64-218.64 0-120.75 97.89-218.64 218.64-218.64 120.75 0 218.64 97.89 218.64 218.64z" stroke-linejoin="round" stroke-linecap="round" fill="none" stroke="#000"/></g><g clip-path="url(#0)"><path d="m275.25 247.76c0-5.27-1.39-10.44-4.02-15l-25.98 15z" fill-opacity=".098" fill="#006400"/></g><g clip-path="url(#0)"><path d="m275.25 247.76c0-5.27-1.39-10.44-4.02-15l-25.98 15z" stroke-linejoin="round" stroke-linecap="round" fill="none" stroke="#006400"/></g><g clip-path="url(#0)"><path d="m56.61 247.76c0-2.62-.344-5.24-1.022-7.77l-28.978 7.77z" fill-opacity=".098" fill="#f00"/></g><g clip-path="url(#0)"><path d="m56.61 247.76c0-2.62-.344-5.24-1.022-7.77l-28.978 7.77z" stroke-linejoin="round" stroke-linecap="round" fill="none" stroke="#f00"/></g><g clip-path="url(#0)"><path d="m434.6 247.76v-10.61h-10.61v10.61h10.61" stroke-linejoin="round" stroke-linecap="round" fill="none" stroke="#000"/></g><g clip-path="url(#0)"><path d="m245.25 247.76l189.35-109.32" stroke-linejoin="round" stroke-linecap="round" fill="none" stroke="#063"/></g><g clip-path="url(#0)"><path d="m26.611 247.76l407.99-109.32" stroke-linejoin="round" stroke-width="3" stroke-linecap="round" fill="none" stroke-opacity=".392" stroke="#f00"/></g><g clip-path="url(#0)"><path d="m26.611 247.76l407.99-109.32" stroke-linejoin="round" stroke-linecap="round" fill="none" stroke="#f00"/></g><g clip-path="url(#0)"><path d="m434.6 138.44v109.32" stroke-linejoin="round" stroke-linecap="round" fill="none" stroke="#000"/></g><g clip-path="url(#0)"><path d="m246.25 247.76c0 .55-.45 1-1 1-.55 0-1-.45-1-1 0-.56.45-1 1-1 .55 0 1 .44 1 1" fill="#444"/></g><g clip-path="url(#0)"><path d="m246.25 247.76c0 .55-.45 1-1 1-.55 0-1-.45-1-1 0-.56.45-1 1-1 .55 0 1 .44 1 1z" stroke-linejoin="round" stroke-linecap="round" fill="none" stroke="#000"/></g><g clip-path="url(#0)"><text font-style="italic" font-family="serif" fill="#444" font-size="12" x="0" y="0" transform="translate(232 263)">O</text></g><g clip-path="url(#0)"><path d="m464.89 247.76c0 .55-.45 1-1 1-.55 0-1-.45-1-1 0-.56.45-1 1-1 .55 0 1 .44 1 1" fill="#300"/></g><g clip-path="url(#0)"><path d="m464.89 247.76c0 .55-.45 1-1 1-.55 0-1-.45-1-1 0-.56.45-1 1-1 .55 0 1 .44 1 1z" stroke-linejoin="round" stroke-linecap="round" fill="none" stroke="#000"/></g><g clip-path="url(#0)"><text font-style="italic" font-family="serif" fill="#300" font-size="12" x="0" y="0" transform="translate(467 245)">I</text></g><g clip-path="url(#0)"><path d="m435.6 138.44c0 .55-.45 1-1 1-.55 0-1-.45-1-1 0-.56.45-1 1-1 .55 0 1 .44 1 1" fill="#444"/></g><g clip-path="url(#0)"><path d="m435.6 138.44c0 .55-.45 1-1 1-.55 0-1-.45-1-1 0-.56.45-1 1-1 .55 0 1 .44 1 1z" stroke-linejoin="round" stroke-linecap="round" fill="none" stroke="#000"/></g><g clip-path="url(#0)"><text font-style="italic" font-family="serif" fill="#444" font-size="12" x="0" y="0" transform="translate(440 136)">B</text></g><g clip-path="url(#0)"><path d="m27.611 247.76c0 .55-.448 1-1 1-.552 0-1-.45-1-1 0-.56.448-1 1-1 .552 0 1 .44 1 1" fill="#444"/></g><g clip-path="url(#0)"><path d="m27.611 247.76c0 .55-.448 1-1 1-.552 0-1-.45-1-1 0-.56.448-1 1-1 .552 0 1 .44 1 1z" stroke-linejoin="round" stroke-linecap="round" fill="none" stroke="#000"/></g><g clip-path="url(#0)"><text font-style="italic" font-family="serif" fill="#444" font-size="12" x="0" y="0" transform="translate(14 260)">A</text></g><g clip-path="url(#0)"><path d="m435.6 247.76c0 .55-.45 1-1 1-.55 0-1-.45-1-1 0-.56.45-1 1-1 .55 0 1 .44 1 1" fill="#444"/></g><g clip-path="url(#0)"><path d="m435.6 247.76c0 .55-.45 1-1 1-.55 0-1-.45-1-1 0-.56.45-1 1-1 .55 0 1 .44 1 1z" stroke-linejoin="round" stroke-linecap="round" fill="none" stroke="#000"/></g><g clip-path="url(#0)"><text font-style="italic" font-family="serif" fill="#444" font-size="12" x="0" y="0" transform="translate(436 244)">H</text></g></g></g></svg>