<svg xmlns="http://www.w3.org/2000/svg" width="616.96" height="356.36" viewBox="0 0 508 293" xmlns:xlink="http://www.w3.org/1999/xlink"><defs><clipPath id="8"><path d="m-2.904-9.683v19.6h33.933v-19.6z"/></clipPath><clipPath id="5"><path d="m-1.467-9.683v19.6h33.934v-19.6z"/></clipPath><clipPath id="7"><path d="m-3.672-14.05v28h48.48v-28z"/></clipPath><clipPath id="6"><path d="m-1.856-9.683v19.6h33.934v-19.6z"/></clipPath><clipPath id="4"><path d="m-5.05-1.883v19.6h33.933v-19.6z"/></clipPath><clipPath id="3"><path d="m-6.719-2.905v28h48.48v-28z"/></clipPath><clipPath id="0"><path d="m0 0v294h509v-294z"/></clipPath><clipPath id="2"><path d="m-3.989-1.883v19.6h33.933v-19.6z"/></clipPath><clipPath id="1"><path d="m-3.6-1.883v19.6h33.933v-19.6z"/></clipPath></defs><g stroke-miterlimit="10" stroke-linecap="square"><g clip-path="url(#0)"><path d="m183.86 2v292" stroke-linecap="butt" fill="none" stroke="#000"/></g><g clip-path="url(#0)"><path d="m183.86 1l-3 3" stroke-linecap="butt" fill="none" stroke="#000"/></g><g clip-path="url(#0)"><path d="m183.86 1l3 3" stroke-linecap="butt" fill="none" stroke="#000"/></g><g clip-path="url(#0)"><path d="m0 182.7h507" stroke-linecap="butt" fill="none" stroke="#000"/></g><g clip-path="url(#0)"><path d="m508 182.7l-3-3" stroke-linecap="butt" fill="none" stroke="#000"/></g><g clip-path="url(#0)"><path d="m508 182.7l-3 3" stroke-linecap="butt" fill="none" stroke="#000"/></g><g clip-path="url(#0)"><text font-style="italic" font-family="serif" font-size="10" x="0" y="0" transform="translate(82 196)">–5</text></g><g clip-path="url(#0)"><path d="m86.42 182.7v3" stroke-linecap="butt" fill="none" stroke="#000"/></g><g clip-path="url(#0)"><text font-style="italic" font-family="serif" font-size="10" x="0" y="0" transform="translate(189 196)">0</text></g><g clip-path="url(#0)"><path d="m183.86 182.7v3" stroke-linecap="butt" fill="none" stroke="#000"/></g><g clip-path="url(#0)"><text font-style="italic" font-family="serif" font-size="10" x="0" y="0" transform="translate(279 196)">5</text></g><g clip-path="url(#0)"><path d="m281.31 182.7v3" stroke-linecap="butt" fill="none" stroke="#000"/></g><g clip-path="url(#0)"><text font-style="italic" font-family="serif" font-size="10" x="0" y="0" transform="translate(374 196)">10</text></g><g clip-path="url(#0)"><path d="m378.75 182.7v3" stroke-linecap="butt" fill="none" stroke="#000"/></g><g clip-path="url(#0)"><text font-style="italic" font-family="serif" font-size="10" x="0" y="0" transform="translate(472 196)">15</text></g><g clip-path="url(#0)"><path d="m476.19 182.7v3" stroke-linecap="butt" fill="none" stroke="#000"/></g><g clip-path="url(#0)"><text font-style="italic" font-family="serif" font-size="10" x="0" y="0" transform="translate(167 284)">–5</text></g><g clip-path="url(#0)"><path d="m180.86 280.14h3" stroke-linecap="butt" fill="none" stroke="#000"/></g><g clip-path="url(#0)"><text font-style="italic" font-family="serif" font-size="10" x="0" y="0" transform="translate(172 180)">0</text></g><g clip-path="url(#0)"><text font-style="italic" font-family="serif" font-size="10" x="0" y="0" transform="translate(172 89)">5</text></g><g clip-path="url(#0)"><path d="m180.86 85.25h3" stroke-linecap="butt" fill="none" stroke="#000"/></g><g clip-path="url(#0)"><path d="m27.954 0v294" stroke-linejoin="round" stroke-linecap="round" fill="none" stroke="#c0c0c0" id="9"/></g><g clip-path="url(#0)"><path d="m8.465 0v294" stroke-linejoin="round" stroke-linecap="round" fill="none" stroke="#c0c0c0"/></g><g clip-path="url(#0)"><use xlink:href="#9"/></g><g clip-path="url(#0)"><path d="m47.44 0v294" stroke-linejoin="round" stroke-linecap="round" fill="none" stroke="#c0c0c0"/></g><g clip-path="url(#0)"><path d="m66.931 0v294" stroke-linejoin="round" stroke-linecap="round" fill="none" stroke="#c0c0c0"/></g><g clip-path="url(#0)"><path d="m86.42 0v182.7" stroke-linejoin="round" stroke-linecap="round" fill="none" stroke="#c0c0c0"/></g><g clip-path="url(#0)"><path d="m86.42 201.7v92.3" stroke-linejoin="round" stroke-linecap="round" fill="none" stroke="#c0c0c0"/></g><g clip-path="url(#0)"><path d="m105.91 0v294" stroke-linejoin="round" stroke-linecap="round" fill="none" stroke="#c0c0c0"/></g><g clip-path="url(#0)"><path d="m125.4 0v294" stroke-linejoin="round" stroke-linecap="round" fill="none" stroke="#c0c0c0"/></g><g clip-path="url(#0)"><path d="m144.89 0v294" stroke-linejoin="round" stroke-linecap="round" fill="none" stroke="#c0c0c0"/></g><g clip-path="url(#0)"><path d="m164.37 0v294" stroke-linejoin="round" stroke-linecap="round" fill="none" stroke="#c0c0c0"/></g><g clip-path="url(#0)"><path d="m203.35 0v294" stroke-linejoin="round" stroke-linecap="round" fill="none" stroke="#c0c0c0"/></g><g clip-path="url(#0)"><path d="m222.84 0v294" stroke-linejoin="round" stroke-linecap="round" fill="none" stroke="#c0c0c0"/></g><g clip-path="url(#0)"><path d="m242.33 0v294" stroke-linejoin="round" stroke-linecap="round" fill="none" stroke="#c0c0c0"/></g><g clip-path="url(#0)"><path d="m261.82 0v294" stroke-linejoin="round" stroke-linecap="round" fill="none" stroke="#c0c0c0"/></g><g clip-path="url(#0)"><path d="m281.31 0v182.7" stroke-linejoin="round" stroke-linecap="round" fill="none" stroke="#c0c0c0"/></g><g clip-path="url(#0)"><path d="m281.31 201.7v92.3" stroke-linejoin="round" stroke-linecap="round" fill="none" stroke="#c0c0c0"/></g><g clip-path="url(#0)"><path d="m300.79 0v294" stroke-linejoin="round" stroke-linecap="round" fill="none" stroke="#c0c0c0"/></g><g clip-path="url(#0)"><path d="m320.28 0v294" stroke-linejoin="round" stroke-linecap="round" fill="none" stroke="#c0c0c0"/></g><g clip-path="url(#0)"><path d="m339.77 0v294" stroke-linejoin="round" stroke-linecap="round" fill="none" stroke="#c0c0c0"/></g><g clip-path="url(#0)"><path d="m359.26 0v294" stroke-linejoin="round" stroke-linecap="round" fill="none" stroke="#c0c0c0"/></g><g clip-path="url(#0)"><path d="m378.75 0v182.7" stroke-linejoin="round" stroke-linecap="round" fill="none" stroke="#c0c0c0"/></g><g clip-path="url(#0)"><path d="m378.75 201.7v92.3" stroke-linejoin="round" stroke-linecap="round" fill="none" stroke="#c0c0c0"/></g><g clip-path="url(#0)"><path d="m398.24 0v294" stroke-linejoin="round" stroke-linecap="round" fill="none" stroke="#c0c0c0"/></g><g clip-path="url(#0)"><path d="m417.73 0v294" stroke-linejoin="round" stroke-linecap="round" fill="none" stroke="#c0c0c0"/></g><g clip-path="url(#0)"><path d="m437.22 0v294" stroke-linejoin="round" stroke-linecap="round" fill="none" stroke="#c0c0c0"/></g><g clip-path="url(#0)"><path d="m456.7 0v294" stroke-linejoin="round" stroke-linecap="round" fill="none" stroke="#c0c0c0"/></g><g clip-path="url(#0)"><path d="m476.19 0v182.7" stroke-linejoin="round" stroke-linecap="round" fill="none" stroke="#c0c0c0"/></g><g clip-path="url(#0)"><path d="m476.19 201.7v92.3" stroke-linejoin="round" stroke-linecap="round" fill="none" stroke="#c0c0c0"/></g><g clip-path="url(#0)"><path d="m495.68 0v294" stroke-linejoin="round" stroke-linecap="round" fill="none" stroke="#c0c0c0"/></g><g clip-path="url(#0)"><path d="m0 7.299h509" stroke-linejoin="round" stroke-linecap="round" fill="none" stroke="#c0c0c0" id="A"/></g><g clip-path="url(#0)"><use xlink:href="#A"/></g><g clip-path="url(#0)"><path d="m0 26.788h509" stroke-linejoin="round" stroke-linecap="round" fill="none" stroke="#c0c0c0"/></g><g clip-path="url(#0)"><path d="m0 46.28h509" stroke-linejoin="round" stroke-linecap="round" fill="none" stroke="#c0c0c0"/></g><g clip-path="url(#0)"><path d="m0 65.765h509" stroke-linejoin="round" stroke-linecap="round" fill="none" stroke="#c0c0c0"/></g><g clip-path="url(#0)"><path d="m0 85.25h168.3" stroke-linejoin="round" stroke-linecap="round" fill="none" stroke="#c0c0c0"/></g><g clip-path="url(#0)"><path d="m183.86 85.25h325.14" stroke-linejoin="round" stroke-linecap="round" fill="none" stroke="#c0c0c0"/></g><g clip-path="url(#0)"><path d="m0 104.74h509" stroke-linejoin="round" stroke-linecap="round" fill="none" stroke="#c0c0c0"/></g><g clip-path="url(#0)"><path d="m0 124.23h509" stroke-linejoin="round" stroke-linecap="round" fill="none" stroke="#c0c0c0"/></g><g clip-path="url(#0)"><path d="m0 143.72h509" stroke-linejoin="round" stroke-linecap="round" fill="none" stroke="#c0c0c0"/></g><g clip-path="url(#0)"><path d="m0 163.21h509" stroke-linejoin="round" stroke-linecap="round" fill="none" stroke="#c0c0c0"/></g><g clip-path="url(#0)"><path d="m0 202.19h509" stroke-linejoin="round" stroke-linecap="round" fill="none" stroke="#c0c0c0"/></g><g clip-path="url(#0)"><path d="m0 221.67h509" stroke-linejoin="round" stroke-linecap="round" fill="none" stroke="#c0c0c0"/></g><g clip-path="url(#0)"><path d="m0 241.16h509" stroke-linejoin="round" stroke-linecap="round" fill="none" stroke="#c0c0c0"/></g><g clip-path="url(#0)"><path d="m0 260.65h509" stroke-linejoin="round" stroke-linecap="round" fill="none" stroke="#c0c0c0"/></g><g clip-path="url(#0)"><path d="m0 280.14h163.3" stroke-linejoin="round" stroke-linecap="round" fill="none" stroke="#c0c0c0"/></g><g clip-path="url(#0)"><path d="m183.86 280.14h325.14" stroke-linejoin="round" stroke-linecap="round" fill="none" stroke="#c0c0c0"/></g><g><g clip-path="url(#0)"><path d="m261.82 260.65h.63l3.98-.2 3.98-.48 3.97-.76 3.98-1 3.98-1.25 3.97-1.48 3.98-1.68 3.98-1.87 3.97-2.05 3.98-2.22 3.98-2.36 3.97-2.49 3.98-2.61 3.97-2.71 3.98-2.79 3.98-2.86 3.97-2.92 3.98-2.95 3.98-2.97 3.97-2.98 3.98-2.98 3.98-2.95 3.97-2.91 3.98-2.85 3.98-2.78 3.97-2.7 3.98-2.6 3.98-2.47 3.97-2.35 3.98-2.2 3.98-2.03 3.97-1.85 3.98-1.66 3.98-1.45 3.97-1.22 3.98-.98 3.98-.73 3.97-.45 3.98-.16" stroke-linejoin="round" stroke-width="1.5" stroke-linecap="round" fill="none" stroke="#93f"/></g><g clip-path="url(#0)"><path d="m105.91 104.74l1.46.04 3.97.52 3.98 1.08 3.98 1.61 3.97 2.12 3.98 2.6 3.98 3.03 3.97 3.45 3.98 3.82 3.98 4.18 3.97 4.49 3.98 4.78 3.98 5.03 3.97 5.26 3.98 5.45 3.98 5.62 3.97 5.75 3.98 5.84 3.98 5.92 3.97 5.96 3.98 5.96 3.98 5.94 3.97 5.88 3.98 5.8 3.97 5.68 3.98 5.53 3.98 5.36 3.97 5.14 3.98 4.91 3.98 4.63 3.97 4.33 3.98 3.99 3.98 3.63 3.97 3.23 3.98 2.81 3.98 2.35 3.97 1.86 3.98 1.33 3.98.79 3.34.21" stroke-linejoin="round" stroke-width="1.5" stroke-linecap="round" fill="none" stroke="#93f"/></g><g clip-path="url(#0)"><path d="m417.73 182.7l3.79.12 3.97.37 3.98.61 3.98.82 3.97 1.02 3.98 1.2 3.98 1.36 3.97 1.51 3.98 1.63 3.97 1.73 3.98 1.82 3.98 1.89 3.97 1.94 3.98 1.98 2.98 1.49" stroke-linejoin="round" stroke-width="1.5" stroke-linecap="round" fill="none" stroke="#93f"/></g><g clip-path="url(#0)"><path d="m27.954 182.7l3.858-5.79 3.977-5.93 3.977-5.87 3.976-5.77 3.977-5.66 3.976-5.49 3.977-5.32 3.976-5.1 3.977-4.85 3.977-4.57 3.976-4.26 3.977-3.92 3.976-3.55 3.977-3.15 3.976-2.71 3.977-2.25 3.977-1.75 3.976-1.23 3.976-.67 2.52-.12" stroke-linejoin="round" stroke-width="1.5" stroke-linecap="round" fill="none" stroke="#93f"/></g><g clip-path="url(#0)"><path d="m183.86 182.7l3.04-.18 3.98-.71 3.97-1.22 3.98-1.65 3.97-2.03 3.98-2.34 3.98-2.59 3.97-2.78 3.98-2.91 3.98-2.97 3.97-2.97 3.98-2.91 3.98-2.8 3.97-2.6 3.98-2.37 3.98-2.05 3.97-1.68 3.98-1.25 3.98-.76 3.34-.21" stroke-linejoin="round" stroke-width="1.5" stroke-linecap="round" fill="none" stroke="#090"/></g><g clip-path="url(#0)"><path d="m261.82 143.72l.63.02 3.98.77.99.36 1 .43 1.99 1.05 3.97 2.79 3.98 3.62 3.98 4.32 3.97 4.89 3.98 5.35 3.98 5.68 3.97 5.87 3.98 5.96 3.98 5.92 3.97 5.74 3.98 5.45 3.97 5.04 3.98 4.49 3.98 3.83 3.97 3.04 3.98 2.13 3.98 1.09 1.76.11" stroke-linejoin="round" stroke-width="1.5" stroke-linecap="round" fill="none" stroke="#090"/></g><g clip-path="url(#0)"><path d="m27.954 26.788l3.858.282 3.977.86 3.977 1.407 3.976 1.924 3.977 2.409 3.976 2.863 3.977 3.286 3.976 3.679 3.977 4.04 3.977 4.369 3.976 4.669 3.977 4.937 3.976 5.174 3.977 5.38 3.976 5.554 3.977 5.699 3.977 5.811 3.976 5.893 3.976 5.946 3.98 5.96 3.97 5.95 3.98 5.91 3.98 5.84 3.97 5.73 3.98 5.6 3.98 5.42 3.97 5.24 3.98 5 3.98 4.74 3.97 4.45 3.98 4.14 3.98 3.77 3.97 3.4 3.98 2.98 3.98 2.53 3.97 2.06 3.98 1.54 3.98 1.01 3.97.44.94.02" stroke-linejoin="round" stroke-width="1.5" stroke-linecap="round" fill="none" stroke="#090"/></g><g clip-path="url(#0)"><path d="m339.77 221.67l2.21-.04 3.98-.27 3.98-.52 3.97-.74 3.98-.94 3.98-1.13 3.97-1.3 3.98-1.45 3.98-1.59 3.97-1.69 3.98-1.79 3.98-1.86 3.97-1.93 3.98-1.96 3.98-1.98.58-.29" stroke-linejoin="round" stroke-width="1.5" stroke-linecap="round" fill="none" stroke="#090"/></g><g clip-path="url(#1)" transform="matrix(15 0 0 15 54 28.25)"><text font-style="italic" font-family="Jlm_cmr10" fill="#090" font-size="1" x="0" y="0">(</text></g><g clip-path="url(#2)" transform="matrix(15 0 0 15 59.833 28.25)"><text font-style="italic" font-family="serif" fill="#090" font-size="1" x="0" y="0">C</text></g><g clip-path="url(#3)" transform="matrix(10.5 0 0 10.5 70.55 30.5)"><text font-style="italic" font-family="serif" fill="#090" font-size="1" x="0" y="0">f</text></g><g clip-path="url(#4)" transform="matrix(15 0 0 15 75.69 28.25)"><text font-style="italic" font-family="Jlm_cmr10" fill="#090" font-size="1" x="0" y="0">)</text></g><g clip-path="url(#5)" transform="matrix(15 0 0 15 22 145.25)"><text font-style="italic" font-family="Jlm_cmr10" fill="#93f" font-size="1" x="0" y="0">(</text></g><g clip-path="url(#6)" transform="matrix(15 0 0 15 27.833 145.25)"><text font-style="italic" font-family="serif" fill="#93f" font-size="1" x="0" y="0">C</text></g><g clip-path="url(#7)" transform="matrix(10.5 0 0 10.5 38.554 147.5)"><text font-style="italic" font-family="serif" fill="#93f" font-size="1" x="0" y="0">g</text></g><g clip-path="url(#8)" transform="matrix(15 0 0 15 43.562 145.25)"><text font-style="italic" font-family="Jlm_cmr10" fill="#93f" font-size="1" x="0" y="0">)</text></g></g></g></svg>