<svg xmlns="http://www.w3.org/2000/svg" width="634.16" height="433.57" viewBox="0 0 508 347" xmlns:xlink="http://www.w3.org/1999/xlink"><defs><clipPath id="8"><path d="m-2.771-9.483v23.2h33.934v-23.2z"/></clipPath><clipPath id="5"><path d="m-1.333-9.483v23.2h33.933v-23.2z"/></clipPath><clipPath id="7"><path d="m-3.481-13.762v33.14h48.48v-33.14z"/></clipPath><clipPath id="6"><path d="m-1.722-9.483v23.2h33.933v-23.2z"/></clipPath><clipPath id="4"><path d="m-4.913-1.883v23.2h33.933v-23.2z"/></clipPath><clipPath id="3"><path d="m-6.529-2.905v33.14h48.48v-33.14z"/></clipPath><clipPath id="0"><path d="m0 0v348h509v-348z"/></clipPath><clipPath id="2"><path d="m-3.856-1.883v23.2h33.934v-23.2z"/></clipPath><clipPath id="1"><path d="m-3.467-1.883v23.2h33.934v-23.2z"/></clipPath></defs><g stroke-miterlimit="10" stroke-linecap="square"><g clip-path="url(#0)"><path d="m178.26 2v346" stroke-linecap="butt" fill="none" stroke="#000"/></g><g clip-path="url(#0)"><path d="m178.26 1l-3 3" stroke-linecap="butt" fill="none" stroke="#000"/></g><g clip-path="url(#0)"><path d="m178.26 1l3 3" stroke-linecap="butt" fill="none" stroke="#000"/></g><g clip-path="url(#0)"><path d="m0 178.05h507" stroke-linecap="butt" fill="none" stroke="#000"/></g><g clip-path="url(#0)"><path d="m508 178.05l-3-3" stroke-linecap="butt" fill="none" stroke="#000"/></g><g clip-path="url(#0)"><path d="m508 178.05l-3 3" stroke-linecap="butt" fill="none" stroke="#000"/></g><g clip-path="url(#0)"><text font-style="italic" font-family="serif" font-size="10" x="0" y="0" transform="translate(79 192)">–5</text></g><g clip-path="url(#0)"><path d="m83.46 178.05v3" stroke-linecap="butt" fill="none" stroke="#000"/></g><g clip-path="url(#0)"><text font-style="italic" font-family="serif" font-size="10" x="0" y="0" transform="translate(184 192)">0</text></g><g clip-path="url(#0)"><path d="m178.26 178.05v3" stroke-linecap="butt" fill="none" stroke="#000"/></g><g clip-path="url(#0)"><text font-style="italic" font-family="serif" font-size="10" x="0" y="0" transform="translate(271 192)">5</text></g><g clip-path="url(#0)"><path d="m273.06 178.05v3" stroke-linecap="butt" fill="none" stroke="#000"/></g><g clip-path="url(#0)"><text font-style="italic" font-family="serif" font-size="10" x="0" y="0" transform="translate(363 192)">10</text></g><g clip-path="url(#0)"><path d="m367.86 178.05v3" stroke-linecap="butt" fill="none" stroke="#000"/></g><g clip-path="url(#0)"><text font-style="italic" font-family="serif" font-size="10" x="0" y="0" transform="translate(458 192)">15</text></g><g clip-path="url(#0)"><path d="m462.66 178.05v3" stroke-linecap="butt" fill="none" stroke="#000"/></g><g clip-path="url(#0)"><text font-style="italic" font-family="serif" font-size="10" x="0" y="0" transform="translate(161 276)">–5</text></g><g clip-path="url(#0)"><path d="m175.26 272.85h3" stroke-linecap="butt" fill="none" stroke="#000"/></g><g clip-path="url(#0)"><text font-style="italic" font-family="serif" font-size="10" x="0" y="0" transform="translate(166 176)">0</text></g><g clip-path="url(#0)"><text font-style="italic" font-family="serif" font-size="10" x="0" y="0" transform="translate(166 87)">5</text></g><g clip-path="url(#0)"><path d="m175.26 83.25h3" stroke-linecap="butt" fill="none" stroke="#000"/></g><g clip-path="url(#0)"><path d="m26.581 0v348" stroke-linejoin="round" stroke-linecap="round" fill="none" stroke="#c0c0c0" id="9"/></g><g clip-path="url(#0)"><path d="m7.622 0v348" stroke-linejoin="round" stroke-linecap="round" fill="none" stroke="#c0c0c0"/></g><g clip-path="url(#0)"><use xlink:href="#9"/></g><g clip-path="url(#0)"><path d="m45.541 0v348" stroke-linejoin="round" stroke-linecap="round" fill="none" stroke="#c0c0c0"/></g><g clip-path="url(#0)"><path d="m64.5 0v348" stroke-linejoin="round" stroke-linecap="round" fill="none" stroke="#c0c0c0"/></g><g clip-path="url(#0)"><path d="m83.46 0v178.05" stroke-linejoin="round" stroke-linecap="round" fill="none" stroke="#c0c0c0"/></g><g clip-path="url(#0)"><path d="m83.46 197.05v150.95" stroke-linejoin="round" stroke-linecap="round" fill="none" stroke="#c0c0c0"/></g><g clip-path="url(#0)"><path d="m102.42 0v348" stroke-linejoin="round" stroke-linecap="round" fill="none" stroke="#c0c0c0"/></g><g clip-path="url(#0)"><path d="m121.38 0v348" stroke-linejoin="round" stroke-linecap="round" fill="none" stroke="#c0c0c0"/></g><g clip-path="url(#0)"><path d="m140.34 0v348" stroke-linejoin="round" stroke-linecap="round" fill="none" stroke="#c0c0c0"/></g><g clip-path="url(#0)"><path d="m159.3 0v348" stroke-linejoin="round" stroke-linecap="round" fill="none" stroke="#c0c0c0"/></g><g clip-path="url(#0)"><path d="m197.22 0v348" stroke-linejoin="round" stroke-linecap="round" fill="none" stroke="#c0c0c0"/></g><g clip-path="url(#0)"><path d="m216.18 0v348" stroke-linejoin="round" stroke-linecap="round" fill="none" stroke="#c0c0c0"/></g><g clip-path="url(#0)"><path d="m235.14 0v348" stroke-linejoin="round" stroke-linecap="round" fill="none" stroke="#c0c0c0"/></g><g clip-path="url(#0)"><path d="m254.1 0v348" stroke-linejoin="round" stroke-linecap="round" fill="none" stroke="#c0c0c0"/></g><g clip-path="url(#0)"><path d="m273.06 0v178.05" stroke-linejoin="round" stroke-linecap="round" fill="none" stroke="#c0c0c0"/></g><g clip-path="url(#0)"><path d="m273.06 197.05v150.95" stroke-linejoin="round" stroke-linecap="round" fill="none" stroke="#c0c0c0"/></g><g clip-path="url(#0)"><path d="m292.02 0v348" stroke-linejoin="round" stroke-linecap="round" fill="none" stroke="#c0c0c0"/></g><g clip-path="url(#0)"><path d="m310.98 0v348" stroke-linejoin="round" stroke-linecap="round" fill="none" stroke="#c0c0c0"/></g><g clip-path="url(#0)"><path d="m329.94 0v348" stroke-linejoin="round" stroke-linecap="round" fill="none" stroke="#c0c0c0"/></g><g clip-path="url(#0)"><path d="m348.9 0v348" stroke-linejoin="round" stroke-linecap="round" fill="none" stroke="#c0c0c0"/></g><g clip-path="url(#0)"><path d="m367.86 0v178.05" stroke-linejoin="round" stroke-linecap="round" fill="none" stroke="#c0c0c0"/></g><g clip-path="url(#0)"><path d="m367.86 197.05v150.95" stroke-linejoin="round" stroke-linecap="round" fill="none" stroke="#c0c0c0"/></g><g clip-path="url(#0)"><path d="m386.82 0v348" stroke-linejoin="round" stroke-linecap="round" fill="none" stroke="#c0c0c0"/></g><g clip-path="url(#0)"><path d="m405.78 0v348" stroke-linejoin="round" stroke-linecap="round" fill="none" stroke="#c0c0c0"/></g><g clip-path="url(#0)"><path d="m424.74 0v348" stroke-linejoin="round" stroke-linecap="round" fill="none" stroke="#c0c0c0"/></g><g clip-path="url(#0)"><path d="m443.7 0v348" stroke-linejoin="round" stroke-linecap="round" fill="none" stroke="#c0c0c0"/></g><g clip-path="url(#0)"><path d="m462.66 0v178.05" stroke-linejoin="round" stroke-linecap="round" fill="none" stroke="#c0c0c0"/></g><g clip-path="url(#0)"><path d="m462.66 197.05v150.95" stroke-linejoin="round" stroke-linecap="round" fill="none" stroke="#c0c0c0"/></g><g clip-path="url(#0)"><path d="m481.62 0v348" stroke-linejoin="round" stroke-linecap="round" fill="none" stroke="#c0c0c0"/></g><g clip-path="url(#0)"><path d="m500.58 0v348" stroke-linejoin="round" stroke-linecap="round" fill="none" stroke="#c0c0c0"/></g><g clip-path="url(#0)"><path d="m0 7.409h509" stroke-linejoin="round" stroke-linecap="round" fill="none" stroke="#c0c0c0" id="A"/></g><g clip-path="url(#0)"><use xlink:href="#A"/></g><g clip-path="url(#0)"><path d="m0 26.368h509" stroke-linejoin="round" stroke-linecap="round" fill="none" stroke="#c0c0c0"/></g><g clip-path="url(#0)"><path d="m0 45.33h509" stroke-linejoin="round" stroke-linecap="round" fill="none" stroke="#c0c0c0"/></g><g clip-path="url(#0)"><path d="m0 64.29h509" stroke-linejoin="round" stroke-linecap="round" fill="none" stroke="#c0c0c0"/></g><g clip-path="url(#0)"><path d="m0 83.25h162.7" stroke-linejoin="round" stroke-linecap="round" fill="none" stroke="#c0c0c0"/></g><g clip-path="url(#0)"><path d="m178.26 83.25h330.74" stroke-linejoin="round" stroke-linecap="round" fill="none" stroke="#c0c0c0"/></g><g clip-path="url(#0)"><path d="m0 102.21h509" stroke-linejoin="round" stroke-linecap="round" fill="none" stroke="#c0c0c0"/></g><g clip-path="url(#0)"><path d="m0 121.17h509" stroke-linejoin="round" stroke-linecap="round" fill="none" stroke="#c0c0c0"/></g><g clip-path="url(#0)"><path d="m0 140.13h509" stroke-linejoin="round" stroke-linecap="round" fill="none" stroke="#c0c0c0"/></g><g clip-path="url(#0)"><path d="m0 159.09h509" stroke-linejoin="round" stroke-linecap="round" fill="none" stroke="#c0c0c0"/></g><g clip-path="url(#0)"><path d="m0 197.01h509" stroke-linejoin="round" stroke-linecap="round" fill="none" stroke="#c0c0c0"/></g><g clip-path="url(#0)"><path d="m0 215.97h509" stroke-linejoin="round" stroke-linecap="round" fill="none" stroke="#c0c0c0"/></g><g clip-path="url(#0)"><path d="m0 234.93h509" stroke-linejoin="round" stroke-linecap="round" fill="none" stroke="#c0c0c0"/></g><g clip-path="url(#0)"><path d="m0 253.89h509" stroke-linejoin="round" stroke-linecap="round" fill="none" stroke="#c0c0c0"/></g><g clip-path="url(#0)"><path d="m0 272.85h157.7" stroke-linejoin="round" stroke-linecap="round" fill="none" stroke="#c0c0c0"/></g><g clip-path="url(#0)"><path d="m178.26 272.85h330.74" stroke-linejoin="round" stroke-linecap="round" fill="none" stroke="#c0c0c0"/></g><g clip-path="url(#0)"><path d="m0 291.81h509" stroke-linejoin="round" stroke-linecap="round" fill="none" stroke="#c0c0c0"/></g><g clip-path="url(#0)"><path d="m0 310.77h509" stroke-linejoin="round" stroke-linecap="round" fill="none" stroke="#c0c0c0"/></g><g clip-path="url(#0)"><path d="m0 329.73h509" stroke-linejoin="round" stroke-linecap="round" fill="none" stroke="#c0c0c0"/></g><g><g clip-path="url(#0)"><path d="m254.1 253.89l4.38-.37 3.97-.91 3.98-1.4 3.98-1.83 3.97-2.18 3.98-2.47 3.98-2.7 3.97-2.85 3.98-2.95 3.98-2.98 3.97-2.95 3.98-2.84 3.98-2.67 3.97-2.44 3.98-2.13 3.97-1.78 3.98-1.34 3.98-.85 3.86-.28" stroke-linejoin="round" stroke-width="1.5" stroke-linecap="round" fill="none" stroke="#93f"/></g><g clip-path="url(#0)"><path d="m329.94 215.97l4.09.64 3.98 1.75 1.99 1.25 1.98 1.49 3.98 3.59 3.98 4.32 3.97 4.9 3.98 5.37 3.98 5.69 3.97 5.9 3.98 5.96 3.98 5.89 3.97 5.7 3.98 5.37 3.98 4.91 3.97 4.33 3.98 3.6 3.98 2.75 3.97 1.77 1 .28.99.2 1.99.18" stroke-linejoin="round" stroke-width="1.5" stroke-linecap="round" fill="none" stroke="#93f"/></g><g clip-path="url(#0)"><path d="m102.42 102.21l.97.02 3.98.45 3.97 1.04 3.98 1.59 3.98 2.11 3.97 2.6 3.98 3.05 3.98 3.47 3.97 3.86 3.98 4.21 3.98 4.54 3.97 4.83 3.98 5.08 3.98 5.31 3.97 5.5 3.98 5.65 3.98 5.78 3.97 5.88 3.98 5.93 3.98 5.96 3.97 5.96 3.98 5.92 3.98 5.84 3.97 5.75 3.98 5.6 3.97 5.44 3.98 5.23 3.98 5 3.97 4.73 3.98 4.43 3.98 4.1 3.97 3.72 3.98 3.33 3.98 2.9 3.97 2.44 3.98 1.93 3.98 1.41 3.97.84 3.58.25" stroke-linejoin="round" stroke-width="1.5" stroke-linecap="round" fill="none" stroke="#93f"/></g><g clip-path="url(#0)"><path d="m405.78 291.81l3.81-.57 3.97-1.75 3.98-2.87 3.98-3.93 3.97-4.92 3.98-5.85 3.98-6.71 3.97-7.5 3.98-8.23 3.98-8.9 3.97-9.49 1.99-4.95 1.99-5.07 1.99-5.2 1.98-5.3 1.99-5.4 1.99-5.49 1.99-5.58 1.99-5.65 1.99-5.72 1.98-5.78 1.99-5.83 1.99-5.87 1.99-5.91 1.99-5.93 1.99-5.95 1.98-5.96.46-1.37" stroke-linejoin="round" stroke-width="1.5" stroke-linecap="round" fill="none" stroke="#93f"/></g><g clip-path="url(#0)"><path d="m26.581 178.05l1.255-1.88 3.976-5.96 3.977-5.91 3.977-5.83 3.976-5.72 3.977-5.59 3.976-5.41 3.977-5.2 3.976-4.96 3.977-4.69 3.977-4.38 3.976-4.05 3.977-3.67 3.976-3.27 3.977-2.83 3.976-2.37 3.977-1.86 3.977-1.33 3.976-.76 3.01-.17" stroke-linejoin="round" stroke-width="1.5" stroke-linecap="round" fill="none" stroke="#93f"/></g><g clip-path="url(#0)"><path d="m178.26 178.05l.69-.001 3.97-.4 3.98-.96 3.98-1.43 3.97-1.85 3.98-2.21 3.97-2.49 3.98-2.71 3.98-2.86 3.97-2.96 3.98-2.98 3.98-2.93 3.97-2.83 3.98-2.66 3.98-2.42 3.97-2.11 3.98-1.75 3.98-1.31 3.97-.81 3.58-.24" stroke-linejoin="round" stroke-width="1.5" stroke-linecap="round" fill="none" stroke="#090"/></g><g clip-path="url(#0)"><path d="m26.581 26.368l1.255.031 3.976.498 3.977 1.08 3.977 1.63 3.976 2.147 3.977 2.63 3.976 3.082 3.977 3.5 3.976 3.886 3.977 4.238 3.977 4.559 3.976 4.845 3.977 5.1 3.976 5.322 3.977 5.51 3.976 5.667 3.977 5.789 3.977 5.88 3.976 5.938 3.976 5.96 3.98 5.96 3.97 5.91 3.98 5.84 3.98 5.73 3.97 5.6 3.98 5.42 3.98 5.22 3.97 4.98 3.98 4.71 3.98 4.4 3.97 4.08 3.98 3.7 3.98 3.3 3.97 2.86 3.98 2.4 3.98 1.9 3.97 1.37 3.98.8 3.29.21" stroke-linejoin="round" stroke-width="1.5" stroke-linecap="round" fill="none" stroke="#090"/></g><g clip-path="url(#0)"><path d="m254.1 140.13l4.38.3 3.97.8 3.98 1.28 3.98 1.73 3.97 2.19 3.98 2.62 3.98 3.04 3.97 3.44 3.98 3.82 3.98 4.2 3.97 4.55 3.98 4.89 3.98 5.22 3.97 5.53 3.98 5.83 3.97 6.1 3.98 6.37 3.98 6.61 3.97 6.85 3.98 7.07 3.98 7.28 3.97 7.46 3.98 7.63 3.98 7.79 3.97 7.93 3.98 8.06 3.98 8.17 3.97 8.26 3.98 8.35 3.98 8.41 3.97 8.46 3.98 8.5 3.98 8.51 1.09 2.35" stroke-linejoin="round" stroke-width="1.5" stroke-linecap="round" fill="none" stroke="#090"/></g><g clip-path="url(#1)" transform="matrix(15 0 0 15 52 28.25)"><text font-style="italic" font-family="Jlm_cmr10" fill="#090" font-size="1" x="0" y="0">(</text></g><g clip-path="url(#2)" transform="matrix(15 0 0 15 57.833 28.25)"><text font-style="italic" font-family="serif" fill="#090" font-size="1" x="0" y="0">C</text></g><g clip-path="url(#3)" transform="matrix(10.5 0 0 10.5 68.55 30.5)"><text font-style="italic" font-family="serif" fill="#090" font-size="1" x="0" y="0">f</text></g><g clip-path="url(#4)" transform="matrix(15 0 0 15 73.69 28.25)"><text font-style="italic" font-family="Jlm_cmr10" fill="#090" font-size="1" x="0" y="0">)</text></g><g clip-path="url(#5)" transform="matrix(15 0 0 15 20 142.25)"><text font-style="italic" font-family="Jlm_cmr10" fill="#93f" font-size="1" x="0" y="0">(</text></g><g clip-path="url(#6)" transform="matrix(15 0 0 15 25.833 142.25)"><text font-style="italic" font-family="serif" fill="#93f" font-size="1" x="0" y="0">C</text></g><g clip-path="url(#7)" transform="matrix(10.5 0 0 10.5 36.554 144.5)"><text font-style="italic" font-family="serif" fill="#93f" font-size="1" x="0" y="0">g</text></g><g clip-path="url(#8)" transform="matrix(15 0 0 15 41.562 142.25)"><text font-style="italic" font-family="Jlm_cmr10" fill="#93f" font-size="1" x="0" y="0">)</text></g></g></g></svg>