<svg xmlns="http://www.w3.org/2000/svg" width="385.46" height="336.46" viewBox="0 0 353 308" xmlns:xlink="http://www.w3.org/1999/xlink"><defs><clipPath id="3"><path d="m-2.434-10.143v29.429h33.715v-29.429z"/></clipPath><clipPath id="4"><path d="m-2.046-6.95v20.6h23.6v-20.6z"/></clipPath><clipPath id="2"><path d="m-.989-6.95v20.6h23.6v-20.6z"/></clipPath><clipPath id="0"><path d="m0 0v309h354v-309z"/></clipPath><clipPath id="1"><path d="m-.6-6.95v20.6h23.6v-20.6z"/></clipPath></defs><g stroke-miterlimit="10" stroke-linecap="square"><g clip-path="url(#0)"><path d="m68.15 2v307" stroke-linecap="butt" fill="none" stroke="#000"/></g><g clip-path="url(#0)"><path d="m68.15 1l-3 3" stroke-linecap="butt" fill="none" stroke="#000"/></g><g clip-path="url(#0)"><path d="m68.15 1l3 3" stroke-linecap="butt" fill="none" stroke="#000"/></g><g clip-path="url(#0)"><path d="m0 184.34h352" stroke-linecap="butt" fill="none" stroke="#000"/></g><g clip-path="url(#0)"><path d="m353 184.34l-3-3" stroke-linecap="butt" fill="none" stroke="#000"/></g><g clip-path="url(#0)"><path d="m353 184.34l-3 3" stroke-linecap="butt" fill="none" stroke="#000"/></g><g clip-path="url(#0)"><path d="m3.067 184.34v3" stroke-linecap="butt" fill="none" stroke="#000"/></g><g clip-path="url(#0)"><text font-style="italic" font-family="serif" font-size="10" x="0" y="0" transform="translate(31 198)">–1</text></g><g clip-path="url(#0)"><path d="m35.608 184.34v3" stroke-linecap="butt" fill="none" stroke="#000"/></g><g clip-path="url(#0)"><text font-style="italic" font-family="serif" font-size="10" x="0" y="0" transform="translate(74 198)">0</text></g><g clip-path="url(#0)"><path d="m68.15 184.34v3" stroke-linecap="butt" fill="none" stroke="#000"/></g><g clip-path="url(#0)"><text font-style="italic" font-family="serif" font-size="10" x="0" y="0" transform="translate(99 198)">1</text></g><g clip-path="url(#0)"><path d="m100.69 184.34v3" stroke-linecap="butt" fill="none" stroke="#000"/></g><g clip-path="url(#0)"><text font-style="italic" font-family="serif" font-size="10" x="0" y="0" transform="translate(131 198)">2</text></g><g clip-path="url(#0)"><path d="m133.23 184.34v3" stroke-linecap="butt" fill="none" stroke="#000"/></g><g clip-path="url(#0)"><text font-style="italic" font-family="serif" font-size="10" x="0" y="0" transform="translate(164 198)">3</text></g><g clip-path="url(#0)"><path d="m165.77 184.34v3" stroke-linecap="butt" fill="none" stroke="#000"/></g><g clip-path="url(#0)"><text font-style="italic" font-family="serif" font-size="10" x="0" y="0" transform="translate(196 198)">4</text></g><g clip-path="url(#0)"><path d="m198.31 184.34v3" stroke-linecap="butt" fill="none" stroke="#000"/></g><g clip-path="url(#0)"><text font-style="italic" font-family="serif" font-size="10" x="0" y="0" transform="translate(229 198)">5</text></g><g clip-path="url(#0)"><path d="m230.86 184.34v3" stroke-linecap="butt" fill="none" stroke="#000"/></g><g clip-path="url(#0)"><text font-style="italic" font-family="serif" font-size="10" x="0" y="0" transform="translate(261 198)">6</text></g><g clip-path="url(#0)"><path d="m263.4 184.34v3" stroke-linecap="butt" fill="none" stroke="#000"/></g><g clip-path="url(#0)"><text font-style="italic" font-family="serif" font-size="10" x="0" y="0" transform="translate(294 198)">7</text></g><g clip-path="url(#0)"><path d="m295.94 184.34v3" stroke-linecap="butt" fill="none" stroke="#000"/></g><g clip-path="url(#0)"><text font-style="italic" font-family="serif" font-size="10" x="0" y="0" transform="translate(326 198)">8</text></g><g clip-path="url(#0)"><path d="m328.48 184.34v3" stroke-linecap="butt" fill="none" stroke="#000"/></g><g clip-path="url(#0)"><text font-style="italic" font-family="serif" font-size="10" x="0" y="0" transform="translate(51 285)">–3</text></g><g clip-path="url(#0)"><path d="m65.15 281.96h3" stroke-linecap="butt" fill="none" stroke="#000"/></g><g clip-path="url(#0)"><text font-style="italic" font-family="serif" font-size="10" x="0" y="0" transform="translate(51 253)">–2</text></g><g clip-path="url(#0)"><path d="m65.15 249.42h3" stroke-linecap="butt" fill="none" stroke="#000"/></g><g clip-path="url(#0)"><text font-style="italic" font-family="serif" font-size="10" x="0" y="0" transform="translate(51 220)">–1</text></g><g clip-path="url(#0)"><path d="m65.15 216.88h3" stroke-linecap="butt" fill="none" stroke="#000"/></g><g clip-path="url(#0)"><text font-style="italic" font-family="serif" font-size="10" x="0" y="0" transform="translate(56 182)">0</text></g><g clip-path="url(#0)"><text font-style="italic" font-family="serif" font-size="10" x="0" y="0" transform="translate(56 155)">1</text></g><g clip-path="url(#0)"><path d="m65.15 151.79h3" stroke-linecap="butt" fill="none" stroke="#000"/></g><g clip-path="url(#0)"><text font-style="italic" font-family="serif" font-size="10" x="0" y="0" transform="translate(56 123)">2</text></g><g clip-path="url(#0)"><path d="m65.15 119.25h3" stroke-linecap="butt" fill="none" stroke="#000"/></g><g clip-path="url(#0)"><text font-style="italic" font-family="serif" font-size="10" x="0" y="0" transform="translate(56 90)">3</text></g><g clip-path="url(#0)"><path d="m65.15 86.71h3" stroke-linecap="butt" fill="none" stroke="#000"/></g><g clip-path="url(#0)"><text font-style="italic" font-family="serif" font-size="10" x="0" y="0" transform="translate(56 58)">4</text></g><g clip-path="url(#0)"><path d="m65.15 54.17h3" stroke-linecap="butt" fill="none" stroke="#000"/></g><g clip-path="url(#0)"><text font-style="italic" font-family="serif" font-size="10" x="0" y="0" transform="translate(56 25)">5</text></g><g clip-path="url(#0)"><path d="m65.15 21.629h3" stroke-linecap="butt" fill="none" stroke="#000"/></g><g clip-path="url(#0)"><path d="m35.608 0v184.34" stroke-linejoin="round" stroke-linecap="round" fill="none" stroke="#c0c0c0" id="5"/></g><g clip-path="url(#0)"><path d="m35.608 203.34v105.66" stroke-linejoin="round" stroke-linecap="round" fill="none" stroke="#c0c0c0" id="6"/></g><g clip-path="url(#0)"><path d="m3.067 0v309" stroke-linejoin="round" stroke-linecap="round" fill="none" stroke="#c0c0c0"/></g><g clip-path="url(#0)"><use xlink:href="#5"/></g><g clip-path="url(#0)"><use xlink:href="#6"/></g><g clip-path="url(#0)"><path d="m100.69 0v184.34" stroke-linejoin="round" stroke-linecap="round" fill="none" stroke="#c0c0c0"/></g><g clip-path="url(#0)"><path d="m100.69 203.34v105.66" stroke-linejoin="round" stroke-linecap="round" fill="none" stroke="#c0c0c0"/></g><g clip-path="url(#0)"><path d="m133.23 0v184.34" stroke-linejoin="round" stroke-linecap="round" fill="none" stroke="#c0c0c0"/></g><g clip-path="url(#0)"><path d="m133.23 203.34v105.66" stroke-linejoin="round" stroke-linecap="round" fill="none" stroke="#c0c0c0"/></g><g clip-path="url(#0)"><path d="m165.77 0v184.34" stroke-linejoin="round" stroke-linecap="round" fill="none" stroke="#c0c0c0"/></g><g clip-path="url(#0)"><path d="m165.77 203.34v105.66" stroke-linejoin="round" stroke-linecap="round" fill="none" stroke="#c0c0c0"/></g><g clip-path="url(#0)"><path d="m198.31 0v184.34" stroke-linejoin="round" stroke-linecap="round" fill="none" stroke="#c0c0c0"/></g><g clip-path="url(#0)"><path d="m198.31 203.34v105.66" stroke-linejoin="round" stroke-linecap="round" fill="none" stroke="#c0c0c0"/></g><g clip-path="url(#0)"><path d="m230.86 0v184.34" stroke-linejoin="round" stroke-linecap="round" fill="none" stroke="#c0c0c0"/></g><g clip-path="url(#0)"><path d="m230.86 203.34v105.66" stroke-linejoin="round" stroke-linecap="round" fill="none" stroke="#c0c0c0"/></g><g clip-path="url(#0)"><path d="m263.4 0v184.34" stroke-linejoin="round" stroke-linecap="round" fill="none" stroke="#c0c0c0"/></g><g clip-path="url(#0)"><path d="m263.4 203.34v105.66" stroke-linejoin="round" stroke-linecap="round" fill="none" stroke="#c0c0c0"/></g><g clip-path="url(#0)"><path d="m295.94 0v184.34" stroke-linejoin="round" stroke-linecap="round" fill="none" stroke="#c0c0c0"/></g><g clip-path="url(#0)"><path d="m295.94 203.34v105.66" stroke-linejoin="round" stroke-linecap="round" fill="none" stroke="#c0c0c0"/></g><g clip-path="url(#0)"><path d="m328.48 0v184.34" stroke-linejoin="round" stroke-linecap="round" fill="none" stroke="#c0c0c0"/></g><g clip-path="url(#0)"><path d="m328.48 203.34v105.66" stroke-linejoin="round" stroke-linecap="round" fill="none" stroke="#c0c0c0"/></g><g clip-path="url(#0)"><path d="m0 21.629h52.588" stroke-linejoin="round" stroke-linecap="round" fill="none" stroke="#c0c0c0" id="7"/></g><g clip-path="url(#0)"><path d="m68.15 21.629h285.85" stroke-linejoin="round" stroke-linecap="round" fill="none" stroke="#c0c0c0" id="8"/></g><g clip-path="url(#0)"><use xlink:href="#7"/></g><g clip-path="url(#0)"><use xlink:href="#8"/></g><g clip-path="url(#0)"><path d="m0 54.17h52.588" stroke-linejoin="round" stroke-linecap="round" fill="none" stroke="#c0c0c0"/></g><g clip-path="url(#0)"><path d="m68.15 54.17h285.85" stroke-linejoin="round" stroke-linecap="round" fill="none" stroke="#c0c0c0"/></g><g clip-path="url(#0)"><path d="m0 86.71h52.588" stroke-linejoin="round" stroke-linecap="round" fill="none" stroke="#c0c0c0"/></g><g clip-path="url(#0)"><path d="m68.15 86.71h285.85" stroke-linejoin="round" stroke-linecap="round" fill="none" stroke="#c0c0c0"/></g><g clip-path="url(#0)"><path d="m0 119.25h52.588" stroke-linejoin="round" stroke-linecap="round" fill="none" stroke="#c0c0c0"/></g><g clip-path="url(#0)"><path d="m68.15 119.25h285.85" stroke-linejoin="round" stroke-linecap="round" fill="none" stroke="#c0c0c0"/></g><g clip-path="url(#0)"><path d="m0 151.79h52.588" stroke-linejoin="round" stroke-linecap="round" fill="none" stroke="#c0c0c0"/></g><g clip-path="url(#0)"><path d="m68.15 151.79h285.85" stroke-linejoin="round" stroke-linecap="round" fill="none" stroke="#c0c0c0"/></g><g clip-path="url(#0)"><path d="m0 216.88h47.588" stroke-linejoin="round" stroke-linecap="round" fill="none" stroke="#c0c0c0"/></g><g clip-path="url(#0)"><path d="m68.15 216.88h285.85" stroke-linejoin="round" stroke-linecap="round" fill="none" stroke="#c0c0c0"/></g><g clip-path="url(#0)"><path d="m0 249.42h47.588" stroke-linejoin="round" stroke-linecap="round" fill="none" stroke="#c0c0c0"/></g><g clip-path="url(#0)"><path d="m68.15 249.42h285.85" stroke-linejoin="round" stroke-linecap="round" fill="none" stroke="#c0c0c0"/></g><g clip-path="url(#0)"><path d="m0 281.96h47.588" stroke-linejoin="round" stroke-linecap="round" fill="none" stroke="#c0c0c0"/></g><g clip-path="url(#0)"><path d="m68.15 281.96h285.85" stroke-linejoin="round" stroke-linecap="round" fill="none" stroke="#c0c0c0"/></g><g><g clip-path="url(#0)"><path d="m198.31 249.42l.81-.09 1.39-.56.69-.47.69-.59 1.38-1.52 1.39-1.97 2.76-5.2 2.77-6.73 2.76-8.06 2.77-9.23 1.38-5 1.38-5.22 1.39-5.42 1.38-5.6 1.38-5.75 1.39-5.89 1.38-6 1.38-6.09 1.38-6.15 1.39-6.2 1.38-6.22 1.38-6.22 1.39-6.19 1.38-6.15 1.38-6.08 1.38-5.99 1.39-5.88 1.38-5.73 1.38-5.58 1.39-5.404 1.38-5.196 1.38-4.971 2.77-9.172 2.76-7.999 2.77-6.646 2.76-5.113 1.39-1.926 1.38-1.474 1.38-1 .69-.316.69-.19.67-.06" stroke-linejoin="round" stroke-width="1.5" stroke-linecap="round" fill="none" stroke="#03c"/></g><g clip-path="url(#0)"><path d="m263.4 54.17l1.05.176.52.219.53.303 1.38 1.192.69.805.7.939 2.76 5.03 2.77 6.923 2.76 8.603 1.39 4.865 1.38 5.207 1.38 5.521 1.38 5.811 1.39 6.071 1.38 6.31 1.38 6.52 1.38 6.7 1.39 6.86 1.38 6.99 1.38 7.1 1.39 7.18 1.38 7.23 1.38 7.25 1.38 7.26 1.39 7.23 1.38 7.17 1.38 7.1 1.39 7 1.38 6.86 1.38 6.71 1.38 6.52 1.39 6.32 1.38 6.07 1.38 5.82 1.39 5.53 1.38 5.21 1.38 4.88 2.77 8.62 2.76 6.94 2.77 5.06 1.38 1.75.69.68.69.53 1.07.54.54.13.53.05" stroke-linejoin="round" stroke-width="1.5" stroke-linecap="round" fill="none" stroke="#03c"/></g><g clip-path="url(#0)"><path d="m100.69 21.629l1.64.191 2.76 1.158 2.77 2.156 1.38 1.433 1.38 1.659 2.77 3.966 2.77 4.777 2.76 5.527 2.77 6.213 2.76 6.839 2.77 7.402 2.76 7.902 2.77 8.341 2.77 8.717 2.76 9.03 2.77 9.288 2.76 9.47 2.77 9.6 2.76 9.67 2.77 9.67 2.77 9.61 2.76 9.49 2.77 9.31 2.76 9.07 2.77 8.75 2.76 8.39 2.77 7.96 2.76 7.46 2.77 6.9 2.77 6.29 2.76 5.61 2.77 4.87 2.76 4.06 2.77 3.2 2.76 2.26 2.77 1.28 1.95.27" stroke-linejoin="round" stroke-width="1.5" stroke-linecap="round" fill="none" stroke="#03c"/></g><g clip-path="url(#0)"><path d="m35.08 118.29l.869-1.92 2.766-6.1 2.765-6.08 2.766-6.02 2.766-5.953 2.765-5.86 2.766-5.744 2.765-5.607 2.766-5.448 2.766-5.267 2.765-5.065 2.766-4.841 2.766-4.595 2.765-4.328 2.766-4.04 2.766-3.727 2.765-3.395 2.766-3.041 2.765-2.664 2.766-2.267 2.766-1.847 2.765-1.405 2.766-.943 2.765-.458 1.128-.043" stroke-linejoin="round" stroke-width="1.5" stroke-linecap="round" fill="none" stroke="#03c"/></g><g clip-path="url(#1)" transform="matrix(15 0 0 15 9 104.25)"><text font-style="italic" font-family="Jlm_cmr10" fill="#03c" font-size="1" x="0" y="0">(</text></g><g clip-path="url(#2)" transform="matrix(15 0 0 15 14.833 104.25)"><text font-style="italic" font-family="serif" fill="#03c" font-size="1" x="0" y="0">C</text></g><g clip-path="url(#3)" transform="matrix(10.5 0 0 10.5 25.554 106.5)"><text font-style="italic" font-family="serif" fill="#03c" font-size="1" x="0" y="0">f</text></g><g clip-path="url(#4)" transform="matrix(15 0 0 15 30.695 104.25)"><text font-style="italic" font-family="Jlm_cmr10" fill="#03c" font-size="1" x="0" y="0">)</text></g></g></g></svg>