<svg xmlns="http://www.w3.org/2000/svg" width="224.93" height="215.12" viewBox="0 0 410 394"><defs><clipPath id="0"><path d="m0 0v395h413v-395z"/></clipPath></defs><g stroke-miterlimit="10" stroke-linecap="square"><g><g clip-path="url(#0)"><path d="m21.933 366.36h260.24" stroke-linejoin="round" stroke-linecap="round" fill="none" stroke="#000"/></g><g clip-path="url(#0)"><path d="m282.17 366.36l102.8-84.58" stroke-linejoin="round" stroke-linecap="round" fill="none" stroke="#606060"/></g><g clip-path="url(#0)"><path d="m384.97 281.78v-260.24" stroke-linejoin="round" stroke-linecap="round" fill="none" stroke="#000"/></g><g clip-path="url(#0)"><path d="m384.97 21.543l-102.8 84.58" stroke-linejoin="round" stroke-linecap="round" fill="none" stroke="#606060"/></g><g clip-path="url(#0)"><path d="m282.17 106.12h-260.24" stroke-linejoin="round" stroke-linecap="round" fill="none" stroke="#000"/></g><g clip-path="url(#0)"><path d="m21.933 106.12l102.8-84.58" stroke-linejoin="round" stroke-linecap="round" fill="none" stroke="#808080"/></g><g clip-path="url(#0)"><path d="m124.73 21.543h260.24" stroke-linejoin="round" stroke-linecap="round" fill="none" stroke="#000"/></g><g clip-path="url(#0)"><path d="m21.933 106.12v260.24" stroke-linejoin="round" stroke-linecap="round" fill="none" stroke="#000"/></g><g clip-path="url(#0)"><path d="m282.17 106.12v260.24" stroke-linejoin="round" stroke-linecap="round" fill="none" stroke="#000"/></g><g clip-path="url(#0)"><path d="m21.933 366.36l102.8-84.58" stroke-linejoin="round" stroke-dasharray="5 4" stroke-linecap="butt" fill="none" stroke="#000"/></g><g clip-path="url(#0)"><path d="m124.73 281.78v-260.24" stroke-linejoin="round" stroke-dasharray="5 4" stroke-linecap="butt" fill="none" stroke="#000"/></g><g clip-path="url(#0)"><path d="m124.73 281.78h260.24" stroke-linejoin="round" stroke-dasharray="5 4" stroke-linecap="butt" fill="none" stroke="#000"/></g><g clip-path="url(#0)"><path d="m152.05 106.12l130.12 130.12" stroke-linejoin="round" stroke-linecap="round" fill="none" stroke="#00f"/></g><g clip-path="url(#0)"><path d="m333.57 63.832l-181.52 42.29" stroke-linejoin="round" stroke-linecap="round" fill="none" stroke="#00f"/></g><g clip-path="url(#0)"><path d="m333.57 63.832l-51.4 172.41" stroke-linejoin="round" stroke-linecap="round" fill="none" stroke="#00f"/></g><g clip-path="url(#0)"><path d="m22.933 366.36c0 .56-.448 1-1 1-.553 0-1-.44-1-1 0-.55.447-1 1-1 .552 0 1 .45 1 1"/></g><g clip-path="url(#0)"><path d="m22.933 366.36c0 .56-.448 1-1 1-.553 0-1-.44-1-1 0-.55.447-1 1-1 .552 0 1 .45 1 1z" stroke-linejoin="round" stroke-linecap="round" fill="none" stroke="#000"/></g><g clip-path="url(#0)"><text font-style="italic" font-family="serif" font-size="12" x="0" y="0" transform="translate(13 381)">D</text></g><g clip-path="url(#0)"><path d="m283.17 366.36c0 .56-.44 1-1 1-.55 0-1-.44-1-1 0-.55.45-1 1-1 .56 0 1 .45 1 1"/></g><g clip-path="url(#0)"><path d="m283.17 366.36c0 .56-.44 1-1 1-.55 0-1-.44-1-1 0-.55.45-1 1-1 .56 0 1 .45 1 1z" stroke-linejoin="round" stroke-linecap="round" fill="none" stroke="#000"/></g><g clip-path="url(#0)"><text font-style="italic" font-family="serif" font-size="12" x="0" y="0" transform="translate(279 383)">C</text></g><g clip-path="url(#0)"><path d="m385.97 281.78c0 .56-.45 1-1 1-.55 0-1-.44-1-1 0-.55.45-1 1-1 .55 0 1 .45 1 1"/></g><g clip-path="url(#0)"><path d="m385.97 281.78c0 .56-.45 1-1 1-.55 0-1-.44-1-1 0-.55.45-1 1-1 .55 0 1 .45 1 1z" stroke-linejoin="round" stroke-linecap="round" fill="none" stroke="#000"/></g><g clip-path="url(#0)"><text font-style="italic" font-family="serif" font-size="12" x="0" y="0" transform="translate(389 285)">G</text></g><g clip-path="url(#0)"><path d="m125.73 281.78c0 .56-.45 1-1 1-.55 0-1-.44-1-1 0-.55.45-1 1-1 .55 0 1 .45 1 1"/></g><g clip-path="url(#0)"><path d="m125.73 281.78c0 .56-.45 1-1 1-.55 0-1-.44-1-1 0-.55.45-1 1-1 .55 0 1 .45 1 1z" stroke-linejoin="round" stroke-linecap="round" fill="none" stroke="#000"/></g><g clip-path="url(#0)"><text font-style="italic" font-family="serif" font-size="12" x="0" y="0" transform="translate(110 283)">H</text></g><g clip-path="url(#0)"><path d="m22.933 106.12c0 .55-.448 1-1 1-.553 0-1-.45-1-1 0-.55.447-1 1-1 .552 0 1 .45 1 1"/></g><g clip-path="url(#0)"><path d="m22.933 106.12c0 .55-.448 1-1 1-.553 0-1-.45-1-1 0-.55.447-1 1-1 .552 0 1 .45 1 1z" stroke-linejoin="round" stroke-linecap="round" fill="none" stroke="#000"/></g><g clip-path="url(#0)"><text font-style="italic" font-family="serif" font-size="12" x="0" y="0" transform="translate(9 113)">A</text></g><g clip-path="url(#0)"><path d="m283.17 106.12c0 .55-.44 1-1 1-.55 0-1-.45-1-1 0-.55.45-1 1-1 .56 0 1 .45 1 1"/></g><g clip-path="url(#0)"><path d="m283.17 106.12c0 .55-.44 1-1 1-.55 0-1-.45-1-1 0-.55.45-1 1-1 .56 0 1 .45 1 1z" stroke-linejoin="round" stroke-linecap="round" fill="none" stroke="#000"/></g><g clip-path="url(#0)"><text font-style="italic" font-family="serif" font-size="12" x="0" y="0" transform="translate(287 118)">B</text></g><g clip-path="url(#0)"><path d="m385.97 21.543c0 .552-.45 1-1 1-.55 0-1-.448-1-1 0-.552.45-1 1-1 .55 0 1 .448 1 1"/></g><g clip-path="url(#0)"><path d="m385.97 21.543c0 .552-.45 1-1 1-.55 0-1-.448-1-1 0-.552.45-1 1-1 .55 0 1 .448 1 1z" stroke-linejoin="round" stroke-linecap="round" fill="none" stroke="#000"/></g><g clip-path="url(#0)"><text font-style="italic" font-family="serif" font-size="12" x="0" y="0" transform="translate(389 20)">F</text></g><g clip-path="url(#0)"><path d="m125.73 21.543c0 .552-.45 1-1 1-.55 0-1-.448-1-1 0-.552.45-1 1-1 .55 0 1 .448 1 1"/></g><g clip-path="url(#0)"><path d="m125.73 21.543c0 .552-.45 1-1 1-.55 0-1-.448-1-1 0-.552.45-1 1-1 .55 0 1 .448 1 1z" stroke-linejoin="round" stroke-linecap="round" fill="none" stroke="#000"/></g><g clip-path="url(#0)"><text font-style="italic" font-family="serif" font-size="12" x="0" y="0" transform="translate(114 17)">E</text></g><g clip-path="url(#0)"><path d="m153.05 106.12c0 .55-.44 1-1 1-.55 0-1-.45-1-1 0-.55.45-1 1-1 .56 0 1 .45 1 1"/></g><g clip-path="url(#0)"><path d="m153.05 106.12c0 .55-.44 1-1 1-.55 0-1-.45-1-1 0-.55.45-1 1-1 .56 0 1 .45 1 1z" stroke-linejoin="round" stroke-linecap="round" fill="none" stroke="#000"/></g><g clip-path="url(#0)"><text font-style="italic" font-family="serif" font-size="12" x="0" y="0" transform="translate(148 103)">I</text></g><g clip-path="url(#0)"><path d="m283.17 236.24c0 .55-.44 1-1 1-.55 0-1-.45-1-1 0-.55.45-1 1-1 .56 0 1 .45 1 1"/></g><g clip-path="url(#0)"><path d="m283.17 236.24c0 .55-.44 1-1 1-.55 0-1-.45-1-1 0-.55.45-1 1-1 .56 0 1 .45 1 1z" stroke-linejoin="round" stroke-linecap="round" fill="none" stroke="#000"/></g><g clip-path="url(#0)"><text font-style="italic" font-family="serif" font-size="12" x="0" y="0" transform="translate(287 240)">J</text></g><g clip-path="url(#0)"><path d="m334.57 63.832c0 .553-.45 1-1 1-.55 0-1-.447-1-1 0-.552.45-1 1-1 .55 0 1 .448 1 1"/></g><g clip-path="url(#0)"><path d="m334.57 63.832c0 .553-.45 1-1 1-.55 0-1-.447-1-1 0-.552.45-1 1-1 .55 0 1 .448 1 1z" stroke-linejoin="round" stroke-linecap="round" fill="none" stroke="#000"/></g><g clip-path="url(#0)"><text font-style="italic" font-family="serif" font-size="12" x="0" y="0" transform="translate(338 72)">K</text></g></g></g></svg>