<svg xmlns="http://www.w3.org/2000/svg" width="411.32" height="242.32" viewBox="0 0 588 345"><defs><clipPath id="0"><path d="m0 0v347h589v-347z"/></clipPath></defs><g stroke-miterlimit="10" stroke-linecap="square"><g><g clip-path="url(#0)"><path d="m287.11 247.72h101.47v-101.47h-101.47z" stroke-linejoin="round" stroke-linecap="round" fill="none" stroke="#000"/></g><g clip-path="url(#0)"><path d="m287.11 146.25h101.47l-50.74-87.89z" stroke-linejoin="round" stroke-linecap="round" fill="none" stroke="#000"/></g><g clip-path="url(#0)"><path d="m388.58 146.25v101.47l87.89-50.74z" stroke-linejoin="round" stroke-linecap="round" fill="none" stroke="#000"/></g><g clip-path="url(#0)"><path d="m388.58 146.25l87.89 50.73 50.74-87.88-87.89-50.737z" stroke-linejoin="round" stroke-linecap="round" fill="none" stroke="#000"/></g><g clip-path="url(#0)"><path d="m527.21 109.1l-50.74 87.88h101.48z" stroke-linejoin="round" stroke-linecap="round" fill="none" stroke="#000"/></g><g clip-path="url(#0)"><path d="m476.47 196.98l-87.89 50.74 50.74 87.89 87.89-50.74z" stroke-linejoin="round" stroke-linecap="round" fill="none" stroke="#000"/></g><g clip-path="url(#0)"><path d="m439.32 335.61l-50.74-87.89-50.74 87.89z" stroke-linejoin="round" stroke-linecap="round" fill="none" stroke="#000"/></g><g clip-path="url(#0)"><path d="m287.11 247.72v-101.47l-87.89 50.73z" stroke-linejoin="round" stroke-linecap="round" fill="none" stroke="#000"/></g><g clip-path="url(#0)"><path d="m199.22 196.98l87.89-50.73-50.74-87.89-87.89 50.737z" stroke-linejoin="round" stroke-linecap="round" fill="none" stroke="#000"/></g><g clip-path="url(#0)"><path d="m199.22 196.98l-50.74-87.88-50.736 87.88z" stroke-linejoin="round" stroke-linecap="round" fill="none" stroke="#000"/></g><g clip-path="url(#0)"><path d="m199.22 196.98h-101.48v101.48h101.48z" stroke-linejoin="round" stroke-linecap="round" fill="none" stroke="#000"/></g><g clip-path="url(#0)"><path d="m97.74 196.98l50.736-87.88-87.88-50.737-50.739 87.89z" stroke-linejoin="round" stroke-linecap="round" fill="none" stroke="#000"/></g><g clip-path="url(#0)"><path d="m60.6 58.36l87.88 50.737v-101.48z" stroke-linejoin="round" stroke-linecap="round" fill="none" stroke="#000"/></g><g clip-path="url(#0)"><path d="m97.74 298.46v-101.48l-87.88 50.74z" stroke-linejoin="round" stroke-linecap="round" fill="none" stroke="#000"/></g><g clip-path="url(#0)"><path d="m287.11 247.72h101.47" stroke-linejoin="round" stroke-linecap="round" fill="none" stroke="#000"/></g><g clip-path="url(#0)"><path d="m388.58 247.72v-101.47" stroke-linejoin="round" stroke-linecap="round" fill="none" stroke="#000"/></g><g clip-path="url(#0)"><path d="m388.58 146.25h-101.47" stroke-linejoin="round" stroke-linecap="round" fill="none" stroke="#000"/></g><g clip-path="url(#0)"><path d="m287.11 146.25v101.47" stroke-linejoin="round" stroke-linecap="round" fill="none" stroke="#000"/></g><g clip-path="url(#0)"><path d="m287.11 146.25h101.47" stroke-linejoin="round" stroke-linecap="round" fill="none" stroke="#000"/></g><g clip-path="url(#0)"><path d="m388.58 146.25l-50.74-87.89" stroke-linejoin="round" stroke-linecap="round" fill="none" stroke="#000"/></g><g clip-path="url(#0)"><path d="m337.84 58.36l-50.73 87.89" stroke-linejoin="round" stroke-linecap="round" fill="none" stroke="#000"/></g><g clip-path="url(#0)"><path d="m388.58 146.25v101.47" stroke-linejoin="round" stroke-linecap="round" fill="none" stroke="#000"/></g><g clip-path="url(#0)"><path d="m388.58 247.72l87.89-50.74" stroke-linejoin="round" stroke-linecap="round" fill="none" stroke="#000"/></g><g clip-path="url(#0)"><path d="m476.47 196.98l-87.89-50.73" stroke-linejoin="round" stroke-linecap="round" fill="none" stroke="#000"/></g><g clip-path="url(#0)"><path d="m388.58 146.25l87.89 50.73" stroke-linejoin="round" stroke-linecap="round" fill="none" stroke="#000"/></g><g clip-path="url(#0)"><path d="m476.47 196.98l50.74-87.88" stroke-linejoin="round" stroke-linecap="round" fill="none" stroke="#000"/></g><g clip-path="url(#0)"><path d="m527.21 109.1l-87.89-50.737" stroke-linejoin="round" stroke-linecap="round" fill="none" stroke="#000"/></g><g clip-path="url(#0)"><path d="m439.32 58.36l-50.74 87.89" stroke-linejoin="round" stroke-linecap="round" fill="none" stroke="#000"/></g><g clip-path="url(#0)"><path d="m527.21 109.1l-50.74 87.88" stroke-linejoin="round" stroke-linecap="round" fill="none" stroke="#000"/></g><g clip-path="url(#0)"><path d="m476.47 196.98h101.48" stroke-linejoin="round" stroke-linecap="round" fill="none" stroke="#000"/></g><g clip-path="url(#0)"><path d="m577.95 196.98l-50.74-87.88" stroke-linejoin="round" stroke-linecap="round" fill="none" stroke="#000"/></g><g clip-path="url(#0)"><path d="m476.47 196.98l-87.89 50.74" stroke-linejoin="round" stroke-linecap="round" fill="none" stroke="#000"/></g><g clip-path="url(#0)"><path d="m388.58 247.72l50.74 87.89" stroke-linejoin="round" stroke-linecap="round" fill="none" stroke="#000"/></g><g clip-path="url(#0)"><path d="m439.32 335.61l87.89-50.74" stroke-linejoin="round" stroke-linecap="round" fill="none" stroke="#000"/></g><g clip-path="url(#0)"><path d="m527.21 284.87l-50.74-87.89" stroke-linejoin="round" stroke-linecap="round" fill="none" stroke="#000"/></g><g clip-path="url(#0)"><path d="m439.32 335.61l-50.74-87.89" stroke-linejoin="round" stroke-linecap="round" fill="none" stroke="#000"/></g><g clip-path="url(#0)"><path d="m388.58 247.72l-50.74 87.89" stroke-linejoin="round" stroke-linecap="round" fill="none" stroke="#000"/></g><g clip-path="url(#0)"><path d="m337.84 335.61h101.48" stroke-linejoin="round" stroke-linecap="round" fill="none" stroke="#000"/></g><g clip-path="url(#0)"><path d="m287.11 247.72v-101.47" stroke-linejoin="round" stroke-linecap="round" fill="none" stroke="#000"/></g><g clip-path="url(#0)"><path d="m287.11 146.25l-87.89 50.73" stroke-linejoin="round" stroke-linecap="round" fill="none" stroke="#000"/></g><g clip-path="url(#0)"><path d="m199.22 196.98l87.89 50.74" stroke-linejoin="round" stroke-linecap="round" fill="none" stroke="#000"/></g><g clip-path="url(#0)"><path d="m199.22 196.98l87.89-50.73" stroke-linejoin="round" stroke-linecap="round" fill="none" stroke="#000"/></g><g clip-path="url(#0)"><path d="m287.11 146.25l-50.74-87.89" stroke-linejoin="round" stroke-linecap="round" fill="none" stroke="#000"/></g><g clip-path="url(#0)"><path d="m236.37 58.36l-87.89 50.737" stroke-linejoin="round" stroke-linecap="round" fill="none" stroke="#000"/></g><g clip-path="url(#0)"><path d="m148.48 109.1l50.74 87.88" stroke-linejoin="round" stroke-linecap="round" fill="none" stroke="#000"/></g><g clip-path="url(#0)"><path d="m199.22 196.98l-50.74-87.88" stroke-linejoin="round" stroke-linecap="round" fill="none" stroke="#000"/></g><g clip-path="url(#0)"><path d="m148.48 109.1l-50.736 87.88" stroke-linejoin="round" stroke-linecap="round" fill="none" stroke="#000"/></g><g clip-path="url(#0)"><path d="m97.74 196.98h101.48" stroke-linejoin="round" stroke-linecap="round" fill="none" stroke="#000"/></g><g clip-path="url(#0)"><path d="m199.22 196.98h-101.48" stroke-linejoin="round" stroke-linecap="round" fill="none" stroke="#000"/></g><g clip-path="url(#0)"><path d="m97.74 196.98v101.48" stroke-linejoin="round" stroke-linecap="round" fill="none" stroke="#000"/></g><g clip-path="url(#0)"><path d="m97.74 298.46h101.48" stroke-linejoin="round" stroke-linecap="round" fill="none" stroke="#000"/></g><g clip-path="url(#0)"><path d="m199.22 298.46v-101.48" stroke-linejoin="round" stroke-linecap="round" fill="none" stroke="#000"/></g><g clip-path="url(#0)"><path d="m97.74 196.98l50.736-87.88" stroke-linejoin="round" stroke-linecap="round" fill="none" stroke="#000"/></g><g clip-path="url(#0)"><path d="m148.48 109.1l-87.88-50.737" stroke-linejoin="round" stroke-linecap="round" fill="none" stroke="#000"/></g><g clip-path="url(#0)"><path d="m60.6 58.36l-50.739 87.89" stroke-linejoin="round" stroke-linecap="round" fill="none" stroke="#000"/></g><g clip-path="url(#0)"><path d="m9.861 146.25l87.88 50.73" stroke-linejoin="round" stroke-linecap="round" fill="none" stroke="#000"/></g><g clip-path="url(#0)"><path d="m60.6 58.36l87.88 50.737" stroke-linejoin="round" stroke-linecap="round" fill="none" stroke="#000"/></g><g clip-path="url(#0)"><path d="m148.48 109.1v-101.48" stroke-linejoin="round" stroke-linecap="round" fill="none" stroke="#000"/></g><g clip-path="url(#0)"><path d="m148.48 7.623l-87.88 50.74" stroke-linejoin="round" stroke-linecap="round" fill="none" stroke="#000"/></g><g clip-path="url(#0)"><path d="m97.74 298.46v-101.48" stroke-linejoin="round" stroke-linecap="round" fill="none" stroke="#000"/></g><g clip-path="url(#0)"><path d="m97.74 196.98l-87.88 50.74" stroke-linejoin="round" stroke-linecap="round" fill="none" stroke="#000"/></g><g clip-path="url(#0)"><path d="m9.861 247.72l87.88 50.74" stroke-linejoin="round" stroke-linecap="round" fill="none" stroke="#000"/></g><g clip-path="url(#0)"><path d="m288.11 247.72c0 .56-.45 1-1 1-.56 0-1-.44-1-1 0-.55.44-1 1-1 .55 0 1 .45 1 1" fill="#444"/></g><g clip-path="url(#0)"><path d="m288.11 247.72c0 .56-.45 1-1 1-.56 0-1-.44-1-1 0-.55.44-1 1-1 .55 0 1 .45 1 1z" stroke-linejoin="round" stroke-linecap="round" fill="none" stroke="#000"/></g><g clip-path="url(#0)"><path d="m389.58 247.72c0 .56-.44 1-1 1-.55 0-1-.44-1-1 0-.55.45-1 1-1 .56 0 1 .45 1 1" fill="#300"/></g><g clip-path="url(#0)"><path d="m389.58 247.72c0 .56-.44 1-1 1-.55 0-1-.44-1-1 0-.55.45-1 1-1 .56 0 1 .45 1 1z" stroke-linejoin="round" stroke-linecap="round" fill="none" stroke="#000"/></g><g clip-path="url(#0)"><path d="m389.58 146.25c0 .55-.44 1-1 1-.55 0-1-.45-1-1 0-.56.45-1 1-1 .56 0 1 .44 1 1" fill="#444"/></g><g clip-path="url(#0)"><path d="m389.58 146.25c0 .55-.44 1-1 1-.55 0-1-.45-1-1 0-.56.45-1 1-1 .56 0 1 .44 1 1z" stroke-linejoin="round" stroke-linecap="round" fill="none" stroke="#000"/></g><g clip-path="url(#0)"><path d="m288.11 146.25c0 .55-.45 1-1 1-.56 0-1-.45-1-1 0-.56.44-1 1-1 .55 0 1 .44 1 1" fill="#444"/></g><g clip-path="url(#0)"><path d="m288.11 146.25c0 .55-.45 1-1 1-.56 0-1-.45-1-1 0-.56.44-1 1-1 .55 0 1 .44 1 1z" stroke-linejoin="round" stroke-linecap="round" fill="none" stroke="#000"/></g><g clip-path="url(#0)"><path d="m338.84 58.36c0 .552-.44 1-1 1-.55 0-1-.448-1-1 0-.553.45-1 1-1 .56 0 1 .447 1 1" fill="#444"/></g><g clip-path="url(#0)"><path d="m338.84 58.36c0 .552-.44 1-1 1-.55 0-1-.448-1-1 0-.553.45-1 1-1 .56 0 1 .447 1 1z" stroke-linejoin="round" stroke-linecap="round" fill="none" stroke="#000"/></g><g clip-path="url(#0)"><path d="m477.47 196.98c0 .56-.45 1-1 1-.56 0-1-.44-1-1 0-.55.44-1 1-1 .55 0 1 .45 1 1" fill="#444"/></g><g clip-path="url(#0)"><path d="m477.47 196.98c0 .56-.45 1-1 1-.56 0-1-.44-1-1 0-.55.44-1 1-1 .55 0 1 .45 1 1z" stroke-linejoin="round" stroke-linecap="round" fill="none" stroke="#000"/></g><g clip-path="url(#0)"><path d="m528.21 109.1c0 .55-.45 1-1 1-.56 0-1-.45-1-1 0-.55.44-1 1-1 .55 0 1 .45 1 1" fill="#444"/></g><g clip-path="url(#0)"><path d="m528.21 109.1c0 .55-.45 1-1 1-.56 0-1-.45-1-1 0-.55.44-1 1-1 .55 0 1 .45 1 1z" stroke-linejoin="round" stroke-linecap="round" fill="none" stroke="#000"/></g><g clip-path="url(#0)"><path d="m440.32 58.36c0 .552-.44 1-1 1-.55 0-1-.448-1-1 0-.553.45-1 1-1 .56 0 1 .447 1 1" fill="#444"/></g><g clip-path="url(#0)"><path d="m440.32 58.36c0 .552-.44 1-1 1-.55 0-1-.448-1-1 0-.553.45-1 1-1 .56 0 1 .447 1 1z" stroke-linejoin="round" stroke-linecap="round" fill="none" stroke="#000"/></g><g clip-path="url(#0)"><path d="m578.95 196.98c0 .56-.45 1-1 1-.56 0-1-.44-1-1 0-.55.44-1 1-1 .55 0 1 .45 1 1" fill="#444"/></g><g clip-path="url(#0)"><path d="m578.95 196.98c0 .56-.45 1-1 1-.56 0-1-.44-1-1 0-.55.44-1 1-1 .55 0 1 .45 1 1z" stroke-linejoin="round" stroke-linecap="round" fill="none" stroke="#000"/></g><g clip-path="url(#0)"><path d="m440.32 335.61c0 .55-.44 1-1 1-.55 0-1-.45-1-1 0-.56.45-1 1-1 .56 0 1 .44 1 1" fill="#444"/></g><g clip-path="url(#0)"><path d="m440.32 335.61c0 .55-.44 1-1 1-.55 0-1-.45-1-1 0-.56.45-1 1-1 .56 0 1 .44 1 1z" stroke-linejoin="round" stroke-linecap="round" fill="none" stroke="#000"/></g><g clip-path="url(#0)"><path d="m528.21 284.87c0 .55-.45 1-1 1-.56 0-1-.45-1-1 0-.55.44-1 1-1 .55 0 1 .45 1 1" fill="#444"/></g><g clip-path="url(#0)"><path d="m528.21 284.87c0 .55-.45 1-1 1-.56 0-1-.45-1-1 0-.55.44-1 1-1 .55 0 1 .45 1 1z" stroke-linejoin="round" stroke-linecap="round" fill="none" stroke="#000"/></g><g clip-path="url(#0)"><path d="m338.84 335.61c0 .55-.44 1-1 1-.55 0-1-.45-1-1 0-.56.45-1 1-1 .56 0 1 .44 1 1" fill="#444"/></g><g clip-path="url(#0)"><path d="m338.84 335.61c0 .55-.44 1-1 1-.55 0-1-.45-1-1 0-.56.45-1 1-1 .56 0 1 .44 1 1z" stroke-linejoin="round" stroke-linecap="round" fill="none" stroke="#000"/></g><g clip-path="url(#0)"><path d="m200.22 196.98c0 .56-.45 1-1 1-.55 0-1-.44-1-1 0-.55.45-1 1-1 .55 0 1 .45 1 1" fill="#444"/></g><g clip-path="url(#0)"><path d="m200.22 196.98c0 .56-.45 1-1 1-.55 0-1-.44-1-1 0-.55.45-1 1-1 .55 0 1 .45 1 1z" stroke-linejoin="round" stroke-linecap="round" fill="none" stroke="#000"/></g><g clip-path="url(#0)"><path d="m237.37 58.36c0 .552-.45 1-1 1-.56 0-1-.448-1-1 0-.553.44-1 1-1 .55 0 1 .447 1 1" fill="#444"/></g><g clip-path="url(#0)"><path d="m237.37 58.36c0 .552-.45 1-1 1-.56 0-1-.448-1-1 0-.553.44-1 1-1 .55 0 1 .447 1 1z" stroke-linejoin="round" stroke-linecap="round" fill="none" stroke="#000"/></g><g clip-path="url(#0)"><path d="m149.48 109.1c0 .55-.44 1-1 1-.55 0-1-.45-1-1 0-.55.45-1 1-1 .56 0 1 .45 1 1" fill="#444"/></g><g clip-path="url(#0)"><path d="m149.48 109.1c0 .55-.44 1-1 1-.55 0-1-.45-1-1 0-.55.45-1 1-1 .56 0 1 .45 1 1z" stroke-linejoin="round" stroke-linecap="round" fill="none" stroke="#000"/></g><g clip-path="url(#0)"><path d="m98.74 196.98c0 .56-.448 1-1 1-.553 0-1-.44-1-1 0-.55.447-1 1-1 .552 0 1 .45 1 1" fill="#444"/></g><g clip-path="url(#0)"><path d="m98.74 196.98c0 .56-.448 1-1 1-.553 0-1-.44-1-1 0-.55.447-1 1-1 .552 0 1 .45 1 1z" stroke-linejoin="round" stroke-linecap="round" fill="none" stroke="#000"/></g><g clip-path="url(#0)"><path d="m98.74 298.46c0 .56-.448 1-1 1-.553 0-1-.44-1-1 0-.55.447-1 1-1 .552 0 1 .45 1 1" fill="#444"/></g><g clip-path="url(#0)"><path d="m98.74 298.46c0 .56-.448 1-1 1-.553 0-1-.44-1-1 0-.55.447-1 1-1 .552 0 1 .45 1 1z" stroke-linejoin="round" stroke-linecap="round" fill="none" stroke="#000"/></g><g clip-path="url(#0)"><path d="m200.22 298.46c0 .56-.45 1-1 1-.55 0-1-.44-1-1 0-.55.45-1 1-1 .55 0 1 .45 1 1" fill="#444"/></g><g clip-path="url(#0)"><path d="m200.22 298.46c0 .56-.45 1-1 1-.55 0-1-.44-1-1 0-.55.45-1 1-1 .55 0 1 .45 1 1z" stroke-linejoin="round" stroke-linecap="round" fill="none" stroke="#000"/></g><g clip-path="url(#0)"><path d="m61.6 58.36c0 .552-.448 1-1 1-.552 0-1-.448-1-1 0-.553.448-1 1-1 .552 0 1 .447 1 1" fill="#444"/></g><g clip-path="url(#0)"><path d="m61.6 58.36c0 .552-.448 1-1 1-.552 0-1-.448-1-1 0-.553.448-1 1-1 .552 0 1 .447 1 1z" stroke-linejoin="round" stroke-linecap="round" fill="none" stroke="#000"/></g><g clip-path="url(#0)"><path d="m10.861 146.25c0 .55-.448 1-1 1-.552 0-1-.45-1-1 0-.56.448-1 1-1 .552 0 1 .44 1 1" fill="#444"/></g><g clip-path="url(#0)"><path d="m10.861 146.25c0 .55-.448 1-1 1-.552 0-1-.45-1-1 0-.56.448-1 1-1 .552 0 1 .44 1 1z" stroke-linejoin="round" stroke-linecap="round" fill="none" stroke="#000"/></g><g clip-path="url(#0)"><path d="m149.48 7.623c0 .552-.44 1-1 1-.55 0-1-.448-1-1 0-.552.45-1 1-1 .56 0 1 .448 1 1" fill="#444"/></g><g clip-path="url(#0)"><path d="m149.48 7.623c0 .552-.44 1-1 1-.55 0-1-.448-1-1 0-.552.45-1 1-1 .56 0 1 .448 1 1z" stroke-linejoin="round" stroke-linecap="round" fill="none" stroke="#000"/></g><g clip-path="url(#0)"><path d="m10.861 247.72c0 .56-.448 1-1 1-.552 0-1-.44-1-1 0-.55.448-1 1-1 .552 0 1 .45 1 1" fill="#444"/></g><g clip-path="url(#0)"><path d="m10.861 247.72c0 .56-.448 1-1 1-.552 0-1-.44-1-1 0-.55.448-1 1-1 .552 0 1 .45 1 1z" stroke-linejoin="round" stroke-linecap="round" fill="none" stroke="#000"/></g></g></g></svg>