<svg xmlns="http://www.w3.org/2000/svg" width="700.32" height="584.77" viewBox="0 0 404.91413 337.94025"><defs><clipPath id="0"><path d="m0 0v864h1464v-864z"/></clipPath></defs><g stroke-miterlimit="10" transform="translate(-279.16-169.46)" stroke-linecap="square"><g clip-path="url(#0)"><path d="m423.35 421.94l102.51-41" fill="none" stroke="#000"/></g>
<g clip-path="url(#0)"><path d="m423.35 421.94l102.51 41" fill="none" stroke="#000"/></g>
<g clip-path="url(#0)"><path d="m300.35 339.94l102.5 82" fill="none" stroke="#000"/></g>
<g clip-path="url(#0)"><path d="m300.35 339.94l102.5-82" fill="none" stroke="#000"/></g>
<g clip-path="url(#0)"><path d="m423.35 257.94l102.51 41" fill="none" stroke="#000"/></g>
<g clip-path="url(#0)"><path d="m423.35 257.94l102.51-41.01" fill="none" stroke="#000"/></g>
<g clip-path="url(#0)"><text font-size="12" x="0" y="0" transform="translate(345 292)" font-family="serif" text-anchor="middle">0,40</text></g>
<g clip-path="url(#0)"><text font-size="12" x="0" y="0" transform="translate(410 259)" font-family="serif">A</text></g>
<g clip-path="url(#0)"><text font-size="12" x="0" y="0" transform="translate(345 396)" font-family="serif" text-anchor="middle">0,60</text></g>
<g clip-path="url(#0)"><text font-size="12" x="0" y="0" transform="translate(410 427)" font-family="serif">B</text></g>
<g clip-path="url(#0)"><text font-size="12" x="0" y="0" transform="translate(472 230)" font-family="serif" text-anchor="middle">0,19</text></g>
<g clip-path="url(#0)"><text font-size="12" x="0" y="0" transform="translate(535 218)" font-family="serif">S</text></g>
<g clip-path="url(#0)"><text font-size="12" x="0" y="0" transform="translate(472 298)" font-family="serif" text-anchor="middle">0,81</text></g>
<g clip-path="url(#0)"><text font-size="12" x="0" y="0" transform="translate(536 288)" font-family="serif">_</text></g>
<g clip-path="url(#0)"><text font-size="12" x="0" y="0" transform="translate(535 301)" font-family="serif">S</text></g>
<g clip-path="url(#0)"><text font-size="12" x="0" y="0" transform="translate(472 393)" font-family="serif" text-anchor="middle">0,33</text></g>
<g clip-path="url(#0)"><text font-size="12" x="0" y="0" transform="translate(535 382)" font-family="serif">S</text></g>
<g clip-path="url(#0)"><text font-size="12" x="0" y="0" transform="translate(472 461)" font-family="serif" text-anchor="middle">0,67</text></g>
<g clip-path="url(#0)"><text font-size="12" x="0" y="0" transform="translate(536 452)" font-family="serif">_</text></g>
<g clip-path="url(#0)"><text font-size="12" x="0" y="0" transform="translate(535 465)" font-family="serif">S</text></g></g></svg>