<svg xmlns="http://www.w3.org/2000/svg" width="848.48" height="205.05" viewBox="0 0 359 86"><defs><clipPath id="0"><path d="m0 0v87h360v-87z"/></clipPath></defs><g stroke-miterlimit="10" stroke-linecap="square"><g clip-path="url(#0)"><path d="m0 63.62h358" stroke-linecap="butt" fill="none" stroke="#000"/></g><g clip-path="url(#0)"><path d="m359 63.62l-3-3" stroke-linecap="butt" fill="none" stroke="#000"/></g><g clip-path="url(#0)"><path d="m359 63.62l-3 3" stroke-linecap="butt" fill="none" stroke="#000"/></g><g clip-path="url(#0)"><text font-style="italic" font-family="serif" font-size="10" x="0" y="0" transform="translate(21 77)">0</text></g><g clip-path="url(#0)"><path d="m23.29 63.62v3" stroke-linecap="butt" fill="none" stroke="#000"/></g><g clip-path="url(#0)"><text font-style="italic" font-family="serif" font-size="10" x="0" y="0" transform="translate(96 77)">5</text></g><g clip-path="url(#0)"><path d="m98.46 63.62v3" stroke-linecap="butt" fill="none" stroke="#000"/></g><g clip-path="url(#0)"><text font-style="italic" font-family="serif" font-size="10" x="0" y="0" transform="translate(169 77)">10</text></g><g clip-path="url(#0)"><path d="m173.63 63.62v3" stroke-linecap="butt" fill="none" stroke="#000"/></g><g clip-path="url(#0)"><text font-style="italic" font-family="serif" font-size="10" x="0" y="0" transform="translate(244 77)">15</text></g><g clip-path="url(#0)"><path d="m248.8 63.62v3" stroke-linecap="butt" fill="none" stroke="#000"/></g><g clip-path="url(#0)"><text font-style="italic" font-family="serif" font-size="10" x="0" y="0" transform="translate(319 77)">20</text></g><g clip-path="url(#0)"><path d="m323.97 63.62v3" stroke-linecap="butt" fill="none" stroke="#000"/></g><g><g clip-path="url(#0)"><path d="m68.39 26.04v15.03" stroke-linejoin="round" stroke-linecap="round" fill="none" stroke="#000"/></g><g clip-path="url(#0)"><path d="m68.39 33.554h45.1" stroke-linejoin="round" stroke-linecap="round" fill="none" stroke="#000"/></g><g clip-path="url(#0)"><path d="m233.76 33.554h90.21" stroke-linejoin="round" stroke-linecap="round" fill="none" stroke="#000"/></g><g clip-path="url(#0)"><path d="m323.97 26.04v15.03" stroke-linejoin="round" stroke-linecap="round" fill="none" stroke="#000"/></g><g clip-path="url(#0)"><path d="m113.49 18.52v30.07" stroke-linejoin="round" stroke-linecap="round" fill="none" stroke="#00c"/></g><g clip-path="url(#0)"><path d="m113.49 48.588h120.27" stroke-linejoin="round" stroke-linecap="round" fill="none" stroke="#00c"/></g><g clip-path="url(#0)"><path d="m233.76 48.588v-30.07" stroke-linejoin="round" stroke-linecap="round" fill="none" stroke="#00c"/></g><g clip-path="url(#0)"><path d="m233.76 18.52h-120.27" stroke-linejoin="round" stroke-linecap="round" fill="none" stroke="#00c"/></g><g clip-path="url(#0)"><path d="m166.11 18.52l-.18 30.07" stroke-linejoin="round" stroke-linecap="round" fill="none" stroke="#00c"/></g><g clip-path="url(#0)"><path d="m166.11 18.52l-.18 30.07" stroke-linejoin="round" stroke-linecap="round" fill="none" stroke="#f00"/></g></g></g></svg>