<svg height="350.55811pt" viewBox="0 0 376.79489 350.55811" width="376.79489pt" xmlns="http://www.w3.org/2000/svg" xmlns:xlink="http://www.w3.org/1999/xlink"><symbol id="a" overflow="visible"><path d="m18-7.28125c0 1.054687-.195312 2.042969-.578125 2.96875-.375.929687-.917969 1.734375-1.625 2.421875-.699219.6875-1.542969 1.230469-2.53125 1.625-.992187.382813-2.089844.578125-3.296875.578125-1.273437 0-2.390625-.199219-3.359375-.59375-.96875-.40625-1.78125-1.023438-2.4375-1.859375-.65625-.84375-1.15625-1.90625-1.5-3.1875-.34375-1.28125-.515625-2.789063-.515625-4.53125 0-1.175781.078125-2.3125.234375-3.40625.15625-1.101563.40625-2.140625.75-3.109375.351563-.976563.820313-1.867188 1.40625-2.671875.59375-.8125 1.320313-1.507813 2.1875-2.09375.875-.582031 1.90625-1.03125 3.09375-1.34375 1.1875-.320313 2.554688-.484375 4.109375-.484375h2.265625v2.671875h-2.453125c-1.375 0-2.570312.167969-3.578125.5-1 .324219-1.84375.78125-2.53125 1.375-.679687.59375-1.199219 1.3125-1.5625 2.15625-.367187.84375-.59375 1.789062-.6875 2.828125l-.0625.734375c.738281-.4375 1.585938-.785156 2.546875-1.046875.96875-.269531 2.015625-.40625 3.140625-.40625 1.164063 0 2.179688.171875 3.046875.515625.875.34375 1.601563.820312 2.1875 1.421875.582031.59375 1.019531 1.3125 1.3125 2.15625.289063.84375.4375 1.773437.4375 2.78125zm-3.203125.203125c0-.707031-.08594-1.34375-.25-1.90625-.167969-.570313-.433594-1.050781-.796875-1.4375-.367187-.394531-.828125-.703125-1.390625-.921875-.554687-.21875-1.214844-.328125-1.984375-.328125-.449219 0-.902344.04297-1.359375.125-.460937.08594-.90625.199219-1.34375.34375-.4375.148437-.859375.3125-1.265625.5-.398437.1875-.757812.386719-1.078125.59375 0 1.511719.101563 2.777344.3125 3.796875.207031 1.011719.519531 1.824219.9375 2.4375.414063.605469.925781 1.039062 1.53125 1.296875.613281.25 1.320313.375 2.125.375.664063 0 1.273438-.101563 1.828125-.3125.5625-.21875 1.039063-.535156 1.4375-.953125.40625-.425781.722656-.941406.953125-1.546875.226563-.601563.34375-1.289063.34375-2.0625zm0 0"/></symbol><symbol id="b" overflow="visible"><path d="m17.71875-5.765625c0 .96875-.199219 1.835937-.59375 2.59375-.398437.75-.953125 1.386719-1.671875 1.90625-.71875.511719-1.5625.902344-2.53125 1.171875-.96875.269531-2.027344.40625-3.171875.40625-1.25 0-2.355469-.140625-3.3125-.421875-.949219-.28125-1.746094-.671875-2.390625-1.171875-.648437-.507813-1.136719-1.109375-1.46875-1.796875-.324219-.6875-.484375-1.445313-.484375-2.28125 0-1.40625.390625-2.617188 1.171875-3.640625.789063-1.019531 2.003906-1.945313 3.640625-2.78125-1.5-.757813-2.601562-1.601563-3.296875-2.53125-.6875-.9375-1.03125-2.007813-1.03125-3.21875 0-.738281.148438-1.453125.453125-2.140625.3125-.6875.773438-1.300781 1.390625-1.84375.613281-.539063 1.382813-.972656 2.3125-1.296875.925781-.320313 2.015625-.484375 3.265625-.484375 1.1875 0 2.226563.132812 3.125.390625.894531.25 1.644531.609375 2.25 1.078125.613281.46875 1.070313 1.039062 1.375 1.703125.300781.667969.453125 1.414062.453125 2.234375 0 1.335937-.371094 2.46875-1.109375 3.40625-.742187.9375-1.796875 1.757812-3.171875 2.453125.675781.34375 1.304688.726562 1.890625 1.140625.59375.40625 1.101563.867187 1.53125 1.375.4375.5.773438 1.0625 1.015625 1.6875.238281.617187.359375 1.304687.359375 2.0625zm-3.640625-11.890625c0-1.039063-.367187-1.816406-1.09375-2.328125-.730469-.507813-1.761719-.765625-3.09375-.765625-1.3125 0-2.335937.257812-3.0625.765625-.730469.5-1.09375 1.257812-1.09375 2.265625 0 .460937.085938.882812.265625 1.265625.175781.386719.445313.75.8125 1.09375.363281.335937.820313.667969 1.375 1 .550781.324219 1.207031.65625 1.96875 1 1.320313-.625 2.304688-1.269531 2.953125-1.9375.644531-.675781.96875-1.460938.96875-2.359375zm.3125 12.125c0-.4375-.07422-.859375-.21875-1.265625-.136719-.414063-.386719-.820313-.75-1.21875-.355469-.394531-.839844-.789063-1.453125-1.1875-.605469-.40625-1.375-.816406-2.3125-1.234375-.804687.386719-1.476562.773437-2.015625 1.15625-.542969.375-.984375.761719-1.328125 1.15625-.335937.386719-.574219.792969-.71875 1.21875-.136719.417969-.203125.859375-.203125 1.328125 0 .53125.113281 1 .34375 1.40625.226563.40625.539063.75.9375 1.03125.40625.28125.882813.496094 1.4375.640625.550781.136719 1.144531.203125 1.78125.203125.625 0 1.210938-.0625 1.765625-.1875.550781-.132813 1.023438-.332031 1.421875-.59375.40625-.269531.722656-.601563.953125-1 .238281-.40625.359375-.890625.359375-1.453125zm0 0"/></symbol><symbol id="c" overflow="visible"><path d="m17.59375-12.78125c0 2.242187-.273437 4.167969-.8125 5.78125-.53125 1.605469-1.328125 2.929687-2.390625 3.96875-1.054687 1.03125-2.359375 1.796875-3.921875 2.296875-1.554687.492187-3.351562.734375-5.390625.734375h-1.90625v-2.671875h2.125c1.507813 0 2.8125-.148438 3.90625-.453125 1.101563-.3125 2.019531-.757813 2.75-1.34375.738281-.59375 1.300781-1.3125 1.6875-2.15625.382813-.851563.625-1.828125.71875-2.921875l.07813-.71875c-.742187.4375-1.59375.789062-2.5625 1.046875-.960937.261719-2 .390625-3.125.390625-1.15625 0-2.179687-.164063-3.0625-.5-.875005-.34375-1.605474-.816406-2.187505-1.421875-.574219-.613281-1.007812-1.335938-1.296875-2.171875-.292969-.84375-.4375-1.753906-.4375-2.734375 0-1.070313.191406-2.070313.578125-3 .382813-.925781.925781-1.726563 1.625-2.40625.695313-.6875 1.53125-1.226563 2.5-1.625.96875-.40625 2.039063-.609375 3.21875-.609375 1.132813 0 2.1875.1875 3.15625.5625.96875.375 1.800781.984375 2.5 1.828125.707031.835937 1.257813 1.921875 1.65625 3.265625.394531 1.335937.59375 2.953125.59375 4.859375zm-8.046875-8c-.65625 0-1.265625.109375-1.828125.328125-.554687.21875-1.03125.539062-1.4375.953125-.40625.417969-.730469.933594-.96875 1.546875-.230469.605469-.34375 1.296875-.34375 2.078125 0 .71875.082031 1.359375.25 1.921875.175781.5625.441406 1.042969.796875 1.4375.363281.386719.828125.6875 1.390625.90625.5625.210937 1.226563.3125 2 .3125.4375 0 .882813-.03906 1.34375-.125.457031-.08203.90625-.191406 1.34375-.328125.445313-.144531.867188-.3125 1.265625-.5.394531-.1875.753906-.382813 1.078125-.59375 0-1.519531-.117187-2.785156-.34375-3.796875-.21875-1.007813-.542969-1.820313-.96875-2.4375-.417969-.613281-.929687-1.050781-1.53125-1.3125-.605469-.257813-1.289062-.390625-2.046875-.390625zm0 0"/></symbol><symbol id="d" overflow="visible"><path d="m18.859375-5.078125h-3.921875v5.078125h-3.125v-5.078125h-11.0625v-2.6875l9.796875-15.203125h4.390625v15.203125h3.921875zm-7.046875-14.9375l-8 12.25h8zm0 0"/></symbol><symbol id="e" overflow="visible"><path d="m15.15625-8.140625h-10.515625v-2.875h10.515625zm0 0"/></symbol><symbol id="f" overflow="visible"><path d="m9.75-5.53125c.40625 0 .785156.078125 1.140625.234375.351563.148437.660156.355469.921875.625.269531.273437.476563.585937.625.9375.15625.355469.234375.742187.234375 1.15625 0 .398437-.07813.773437-.234375 1.125-.148437.34375-.355469.652344-.625.921875-.261719.261719-.570312.4648437-.921875.609375-.355469.15625-.734375.234375-1.140625.234375-.40625 0-.789062-.078125-1.140625-.234375-.34375-.1445313-.652344-.347656-.921875-.609375-.261719-.269531-.46875-.578125-.625-.921875-.148437-.351563-.21875-.726563-.21875-1.125 0-.414063.070313-.800781.21875-1.15625.15625-.351563.363281-.664063.625-.9375.269531-.269531.578125-.476563.921875-.625.351563-.15625.734375-.234375 1.140625-.234375zm0 0"/></symbol><symbol id="g" overflow="visible"><path d="m17.71875 0h-15.140625v-2.75l5.953125-5.90625c.96875-.957031 1.753906-1.785156 2.359375-2.484375.613281-.707031 1.085938-1.347656 1.421875-1.921875.34375-.582031.570313-1.128906.6875-1.640625.125-.519531.1875-1.082031.1875-1.6875 0-.5625-.07813-1.09375-.234375-1.59375-.148437-.507813-.382812-.957031-.703125-1.34375-.3125-.394531-.726562-.703125-1.234375-.921875-.5-.21875-1.101562-.328125-1.796875-.328125-.980469 0-1.871094.21875-2.671875.65625-.792969.429687-1.523437.984375-2.1875 1.671875l-1.6875-2.015625c.863281-.914063 1.859375-1.648438 2.984375-2.203125 1.132813-.550781 2.453125-.828125 3.953125-.828125 1.019531 0 1.945313.15625 2.78125.46875.84375.304687 1.566406.742187 2.171875 1.3125.613281.574219 1.085938 1.277344 1.421875 2.109375.332031.835937.5 1.773437.5 2.8125 0 .875-.121094 1.6875-.359375 2.4375-.230469.75-.585937 1.5-1.0625 2.25-.46875.742187-1.0625 1.511719-1.78125 2.3125-.71875.792969-1.574219 1.664062-2.5625 2.609375l-4.15625 4.0625h11.15625zm0 0"/></symbol><symbol id="h" overflow="visible"><path d="m18.25-11.484375c0 1.761719-.179687 3.367187-.53125 4.8125-.355469 1.449219-.890625 2.695312-1.609375 3.734375-.710937 1.03125-1.59375 1.835937-2.65625 2.40625-1.0625.5625-2.308594.84375-3.734375.84375-1.230469 0-2.351562-.2304687-3.359375-.6875-1-.46875-1.859375-1.179688-2.578125-2.140625-.71875-.957031-1.273437-2.179688-1.65625-3.671875-.386719-1.488281-.578125-3.253906-.578125-5.296875 0-1.75.175781-3.347656.53125-4.796875.363281-1.457031.898438-2.707031 1.609375-3.75.707031-1.039063 1.59375-1.84375 2.65625-2.40625 1.070313-.570313 2.316406-.859375 3.734375-.859375 1.226563 0 2.34375.234375 3.34375.703125 1.007813.460937 1.875 1.171875 2.59375 2.140625.71875.96875 1.269531 2.199219 1.65625 3.6875.382813 1.492187.578125 3.25.578125 5.28125zm-3.09375.109375c0-.394531-.01563-.789063-.04687-1.1875-.03125-.394531-.0625-.78125-.09375-1.15625l-9.71875 7.234375c.175781.605469.394531 1.167969.65625 1.6875.269531.511719.59375.953125.96875 1.328125.382813.367187.820313.652344 1.3125.859375.488281.210937 1.039063.3125 1.65625.3125.800781 0 1.523438-.191406 2.171875-.578125.65625-.394531 1.210938-.972656 1.671875-1.734375.457031-.757813.804688-1.703125 1.046875-2.828125.25-1.132813.375-2.445313.375-3.9375zm-10.515625-.203125c0 .355469 0 .714844 0 1.078125.00781.367187.035156.71875.078125 1.0625l9.71875-7.1875c-.179687-.601563-.402344-1.148438-.671875-1.640625-.273437-.488281-.59375-.910156-.96875-1.265625-.375-.363281-.804687-.644531-1.28125-.84375-.480469-.195313-1.023437-.296875-1.625-.296875-.792969 0-1.515625.195312-2.171875.578125-.648437.386719-1.199219.964844-1.65625 1.734375-.460937.773437-.8125 1.726562-1.0625 2.859375-.242187 1.125-.359375 2.433594-.359375 3.921875zm0 0"/></symbol><symbol id="i" overflow="visible"><path d="m17.59375-20.125l-9.625 20.125h-3.5l10-20.125h-12.40625v-2.84375h15.53125zm0 0"/></symbol><symbol id="j" overflow="visible"><path d="m17.53125 0h-14.4375v-2.84375h5.90625v-16.78125l-5.5 3-1.125-2.609375 7.3125-3.84375h2.703125v20.234375h5.140625zm0 0"/></symbol><symbol id="k" overflow="visible"><path d="m17.28125-6.984375c0 1.011719-.210937 1.960937-.625 2.84375-.40625.886719-1.023437 1.664062-1.84375 2.328125-.8125.65625-1.84375 1.179687-3.09375 1.5625-1.242187.375-2.683594.5625-4.328125.5625-.917969 0-1.742187-.03125-2.46875-.09375-.730469-.054687-1.40625-.125-2.03125-.21875v-2.75c.71875.136719 1.484375.242187 2.296875.3125.8125.0625 1.640625.09375 2.484375.09375 1.144531 0 2.125-.097656 2.9375-.296875.8125-.207031 1.472656-.503906 1.984375-.890625.519531-.382813.894531-.851563 1.125-1.40625.238281-.550781.359375-1.171875.359375-1.859375 0-.632813-.140625-1.1875-.421875-1.65625-.28125-.46875-.679687-.859375-1.1875-1.171875-.511719-.320313-1.121094-.5625-1.828125-.71875-.710937-.15625-1.484375-.234375-2.328125-.234375h-2.609375v-2.515625h2.640625c.695313 0 1.328125-.08594 1.890625-.265625.570313-.1875 1.0625-.445313 1.46875-.78125.40625-.34375.710938-.765625.921875-1.265625.21875-.5.328125-1.066406.328125-1.703125 0-1.226563-.375-2.125-1.125-2.6875-.75-.5625-1.851562-.84375-3.296875-.84375-.78125 0-1.585937.07813-2.40625.234375-.8125.148437-1.6875.375-2.625.6875v-2.671875c.394531-.144531.816406-.269531 1.265625-.375.457031-.113281.910156-.207031 1.359375-.28125.445313-.08203.894531-.144531 1.34375-.1875.445313-.03906.875-.0625 1.28125-.0625 1.21875 0 2.289063.136719 3.21875.40625.925781.261719 1.695313.636719 2.3125 1.125.625.492187 1.09375 1.089844 1.40625 1.796875.320313.699219.484375 1.492187.484375 2.375 0 1.3125-.339844 2.417969-1.015625 3.3125-.667969.886719-1.589844 1.589844-2.765625 2.109375.601563.09375 1.191406.28125 1.765625.5625.582031.28125 1.101563.648437 1.5625 1.09375.46875.4375.84375.960937 1.125 1.5625.289063.59375.4375 1.25.4375 1.96875zm0 0"/></symbol><symbol id="l" overflow="visible"><path d="m1.921875-8.453125c0-1.269531.164063-2.472656.5-3.609375.332031-1.132813.847656-2.128906 1.546875-2.984375.695313-.863281 1.585938-1.546875 2.671875-2.046875 1.09375-.507813 2.394531-.765625 3.90625-.765625.59375 0 1.179688.04687 1.765625.140625.59375.09375 1.21875.242187 1.875.4375l2.703125-.6875v25.171875h-3.078125v-6.65625l.15625-3.78125c-1.65625 2.367187-3.636719 3.546875-5.9375 3.546875-1.03125 0-1.929687-.210937-2.6875-.625-.761719-.425781-1.398437-1.023438-1.90625-1.796875-.511719-.769531-.890625-1.691406-1.140625-2.765625-.25-1.082031-.375-2.273438-.375-3.578125zm3.125-.203125c0 .992187.070313 1.882812.21875 2.671875.144531.78125.363281 1.445312.65625 1.984375.300781.542969.675781.964844 1.125 1.265625.457031.292969.992188.4375 1.609375.4375.769531 0 1.582031-.34375 2.4375-1.03125.863281-.695313 1.769531-1.726563 2.71875-3.09375v-8.1875c-.46875-.21875-1-.394531-1.59375-.53125-.585937-.144531-1.210937-.21875-1.875-.21875-1.730469 0-3.046875.570312-3.953125 1.703125-.898437 1.136719-1.34375 2.804687-1.34375 5zm0 0"/></symbol><symbol id="m" overflow="visible"><path d="m17 0h-2.75l-.09375-2.84375c-.53125.605469-1.039062 1.109375-1.515625 1.515625-.46875.40625-.9375.734375-1.40625.984375-.46875.242187-.945312.40625-1.421875.5-.46875.101563-.96875.15625-1.5.15625-1.8125 0-3.183594-.53125-4.109375-1.59375-.929687-1.070313-1.390625-2.6875-1.390625-4.84375v-11.53125h3.0625v11.296875c0 2.710937 1.019531 4.0625 3.0625 4.0625.375 0 .738281-.054688 1.09375-.171875.351563-.113281.726563-.304688 1.125-.578125.394531-.28125.816406-.65625 1.265625-1.125.445313-.46875.953125-1.054688 1.515625-1.765625v-11.71875h3.0625zm0 0"/></symbol><symbol id="n" overflow="visible"><path d="m18.171875-8.96875c0 1.375-.195312 2.636719-.578125 3.78125-.386719 1.136719-.945312 2.117187-1.671875 2.9375-.71875.8125-1.605469 1.445312-2.65625 1.890625-1.042969.4453125-2.226562.671875-3.546875.671875-1.261719 0-2.398437-.195312-3.40625-.578125-1-.394531-1.851562-.972656-2.546875-1.734375-.699219-.757813-1.230469-1.703125-1.59375-2.828125-.367187-1.125-.546875-2.421875-.546875-3.890625 0-1.375.191406-2.625.578125-3.75.382813-1.132813.9375-2.109375 1.65625-2.921875.726563-.8125 1.613281-1.441406 2.65625-1.890625 1.050781-.457031 2.238281-.6875 3.5625-.6875 1.257813 0 2.390625.199219 3.390625.59375 1.007813.398437 1.859375.976562 2.546875 1.734375.695313.75 1.226563 1.6875 1.59375 2.8125.375 1.125.5625 2.414062.5625 3.859375zm-3.125.140625c0-1.082031-.121094-2.03125-.359375-2.84375-.242187-.820313-.585937-1.503906-1.03125-2.046875-.449219-.539063-.992187-.945313-1.625-1.21875-.636719-.28125-1.351562-.421875-2.140625-.421875-.90625 0-1.6875.179687-2.34375.53125-.648437.355469-1.179687.835937-1.59375 1.4375-.417969.59375-.726562 1.289062-.921875 2.078125-.1875.792969-.28125 1.621094-.28125 2.484375 0 1.09375.117188 2.054687.359375 2.875.238281.8125.578125 1.496094 1.015625 2.046875.445313.542969.988281.953125 1.625 1.234375.632813.273437 1.347656.40625 2.140625.40625.914063 0 1.695313-.175781 2.34375-.53125.65625-.363281 1.191406-.84375 1.609375-1.4375.414063-.601563.71875-1.296875.90625-2.078125.195313-.789063.296875-1.628906.296875-2.515625zm0 0"/></symbol><symbol id="o" overflow="visible"><path d="m17.03125-.25c-.6875.1796875-1.402344.3007813-2.140625.375-.742187.082031-1.492187.125-2.25.125-2.21875 0-3.875-.5-4.96875-1.5-1.085937-1.007813-1.625-2.550781-1.625-4.625v-9.203125h-4.9375v-2.578125h4.9375v-4.84375l3.0625-.796875v5.640625h7.921875v2.578125h-7.921875v8.953125c0 1.273437.332031 2.21875 1 2.84375.675781.625 1.671875.9375 2.984375.9375.5625 0 1.175781-.039063 1.84375-.125.664063-.09375 1.363281-.234375 2.09375-.421875zm0 0"/></symbol><symbol id="p" overflow="visible"><path d="m8.828125-15.125h-5.21875v-2.53125h8.3125v15.109375h5.25v2.546875h-14.140625v-2.546875h5.796875zm1.0625-9.921875c.34375 0 .660156.0625.953125.1875.289063.117187.546875.289062.765625.515625.21875.21875.390625.476562.515625.765625.125.28125.1875.59375.1875.9375 0 .324219-.0625.636719-.1875.9375-.125.292969-.296875.546875-.515625.765625-.21875.21875-.476562.390625-.765625.515625-.292969.125-.609375.1875-.953125.1875-.335937 0-.648437-.0625-.9375-.1875-.292969-.125-.546875-.296875-.765625-.515625-.21875-.21875-.390625-.472656-.515625-.765625-.125-.300781-.1875-.613281-.1875-.9375 0-.34375.0625-.65625.1875-.9375.125-.289063.296875-.546875.515625-.765625.21875-.226563.472656-.398438.765625-.515625.289063-.125.601563-.1875.9375-.1875zm0 0"/></symbol><symbol id="q" overflow="visible"><path d="m17.71875-9.75c0 .429687-.0078.789062-.01563 1.078125-.01172.292969-.02734.570312-.04687.828125h-12.40625c0 1.804687.503906 3.1875 1.515625 4.15625 1.007813.96875 2.460938 1.453125 4.359375 1.453125.519531 0 1.035156-.019531 1.546875-.0625.519531-.039063 1.019531-.09375 1.5-.15625.476563-.070313.9375-.148438 1.375-.234375.4375-.09375.84375-.191406 1.21875-.296875v2.515625c-.835937.230469-1.777344.4179687-2.828125.5625-1.042969.144531-2.125.21875-3.25.21875-1.511719 0-2.8125-.203125-3.90625-.609375-1.085937-.414063-1.976562-1.007813-2.671875-1.78125-.699219-.78125-1.214844-1.734375-1.546875-2.859375-.335937-1.132813-.5-2.421875-.5-3.859375 0-1.238281.175781-2.410156.53125-3.515625.351563-1.101563.875-2.070313 1.5625-2.90625.6875-.84375 1.523438-1.507813 2.515625-2 1-.5 2.132813-.75 3.40625-.75 1.226563 0 2.316406.195312 3.265625.578125.945313.386719 1.742188.9375 2.390625 1.65625.65625.710937 1.148438 1.570312 1.484375 2.578125.332031 1.011719.5 2.148437.5 3.40625zm-3.1875-.453125c.039063-.78125-.03125-1.492188-.21875-2.140625-.1875-.65625-.480469-1.21875-.875-1.6875-.398437-.46875-.886719-.832031-1.46875-1.09375-.585937-.257813-1.261719-.390625-2.03125-.390625-.667969 0-1.277344.132812-1.828125.390625-.554687.25-1.03125.609375-1.4375 1.078125-.398437.46875-.71875 1.03125-.96875 1.6875-.242187.65625-.390625 1.375-.453125 2.15625zm0 0"/></symbol><symbol id="r" overflow="visible"><path d="m2.8125-17.65625h2.71875l.125 2.859375c.519531-.613281 1.019531-1.117188 1.5-1.515625.476563-.40625.945313-.734375 1.40625-.984375.46875-.25.941406-.421875 1.421875-.515625.476563-.101563.976563-.15625 1.5-.15625 1.8125 0 3.179688.539062 4.109375 1.609375.9375 1.074219 1.40625 2.6875 1.40625 4.84375v11.515625h-3.0625v-11.265625c0-1.382813-.261719-2.40625-.78125-3.0625-.511719-.664063-1.277344-1-2.296875-1-.375 0-.742187.05859-1.09375.171875-.355469.105469-.730469.296875-1.125.578125-.386719.273437-.804687.640625-1.25 1.109375-.449219.46875-.953125 1.058594-1.515625 1.765625v11.703125h-3.0625zm0 0"/></symbol><symbol id="s" overflow="visible"><path d="m3.53125-17.65625h2.796875l.09375 3.265625c1.039063-1.257813 2.066406-2.171875 3.078125-2.734375 1.007813-.5625 2.03125-.84375 3.0625-.84375 1.832031 0 3.21875.59375 4.15625 1.78125.945313 1.179687 1.382813 2.933594 1.3125 5.265625h-3.09375c.03906-1.539063-.183594-2.660156-.671875-3.359375-.492187-.695313-1.203125-1.046875-2.140625-1.046875-.40625 0-.820312.07422-1.234375.21875-.417969.148437-.84375.382812-1.28125.703125-.4375.324219-.90625.742187-1.40625 1.25-.492187.5-1.015625 1.105469-1.578125 1.8125v11.34375h-3.09375zm0 0"/></symbol><symbol id="t" overflow="visible"><path d="m16.78125-4.8125c0 .617187-.105469 1.171875-.3125 1.671875-.210937.492187-.496094.929687-.859375 1.3125-.367187.375-.789062.699219-1.265625.96875-.480469.273437-.996094.496094-1.546875.671875-.542969.1796875-1.101562.300781-1.671875.375-.574219.082031-1.136719.125-1.6875.125-1.199219 0-2.296875-.054687-3.296875-.15625-1-.1054687-1.980469-.273438-2.9375-.515625v-2.8125c1.03125.304687 2.054688.53125 3.078125.6875 1.019531.148437 2.03125.21875 3.03125.21875 1.46875 0 2.550781-.195313 3.25-.59375.707031-.40625 1.0625-.976563 1.0625-1.71875 0-.3125-.05859-.59375-.171875-.84375-.105469-.25-.308594-.488281-.609375-.71875-.292969-.226563-.746094-.460938-1.359375-.703125-.617187-.25-1.453125-.535156-2.515625-.859375-.804687-.226563-1.542969-.492188-2.21875-.796875-.667969-.300781-1.25-.65625-1.75-1.0625-.492187-.40625-.875-.882813-1.15625-1.4375-.28125-.550781-.421875-1.203125-.421875-1.953125 0-.488281.113281-1.023438.34375-1.609375.226563-.59375.617188-1.140625 1.171875-1.640625.550781-.507813 1.296875-.929688 2.234375-1.265625.9375-.332031 2.109375-.5 3.515625-.5.6875 0 1.453125.04297 2.296875.125.84375.07422 1.722656.203125 2.640625.390625v2.71875c-.960937-.226563-1.871094-.398438-2.734375-.515625-.855469-.113281-1.601562-.171875-2.234375-.171875-.761719 0-1.402344.0625-1.921875.1875-.523437.117187-.945312.277344-1.265625.484375-.324219.199219-.558594.4375-.703125.71875-.136719.273437-.203125.5625-.203125.875 0 .324219.054688.617187.171875.875.125.25.351563.496094.6875.734375.332031.242187.796875.484375 1.390625.734375.601563.242187 1.382813.5 2.34375.78125 1.050781.304687 1.929688.621094 2.640625.953125.71875.335937 1.296875.710937 1.734375 1.125.445313.40625.765625.871094.953125 1.390625.195313.511719.296875 1.09375.296875 1.75zm0 0"/></symbol><g transform="translate(-124.93795 -191.55127)"><g><use height="100%" width="100%" x="176.8618" xlink:href="#a" y="226.4575"/><use height="100%" width="100%" x="196.6618" xlink:href="#b" y="226.4575"/><use height="100%" width="100%" x="216.46181" xlink:href="#c" y="226.4575"/><use height="100%" width="100%" x="236.2618" xlink:href="#d" y="226.4575"/></g><g><use height="100%" width="100%" x="157.0618" xlink:href="#e" y="269.6575"/><use height="100%" width="100%" x="176.8618" xlink:href="#d" y="269.6575"/><use height="100%" width="100%" x="196.6618" xlink:href="#a" y="269.6575"/></g><g fill="#fff"><use height="100%" width="100%" x="216.4258" xlink:href="#f" y="269.6575"/><use height="100%" width="100%" x="236.2258" xlink:href="#f" y="269.6575"/></g><g><use height="100%" width="100%" x="176.82581" xlink:href="#g" y="312.85751"/><use height="100%" width="100%" x="196.62579" xlink:href="#g" y="312.85751"/><use height="100%" width="100%" x="216.4258" xlink:href="#c" y="312.85751"/></g><use fill="#fff" height="100%" width="100%" x="236.1898" xlink:href="#f" y="312.85751"/><g><use height="100%" width="100%" x="157.0258" xlink:href="#e" y="356.0575"/><use height="100%" width="100%" x="176.82581" xlink:href="#g" y="356.0575"/><use height="100%" width="100%" x="196.62579" xlink:href="#h" y="356.0575"/><use height="100%" width="100%" x="216.4258" xlink:href="#i" y="356.0575"/></g><use fill="#fff" height="100%" width="100%" x="236.1898" xlink:href="#f" y="356.0575"/><g><use height="100%" width="100%" x="196.5898" xlink:href="#g" y="399.25751"/><use height="100%" width="100%" x="216.3898" xlink:href="#g" y="399.25751"/><use height="100%" width="100%" x="236.1898" xlink:href="#d" y="399.25751"/></g><g><use height="100%" width="100%" x="176.78979" xlink:href="#e" y="442.45749"/><use height="100%" width="100%" x="196.5898" xlink:href="#g" y="442.45749"/><use height="100%" width="100%" x="216.3898" xlink:href="#h" y="442.45749"/><use height="100%" width="100%" x="236.1898" xlink:href="#i" y="442.45749"/></g><g fill="#3000ff"><use height="100%" width="100%" x="216.3898" xlink:href="#j" y="485.6575"/><use height="100%" width="100%" x="236.1898" xlink:href="#i" y="485.6575"/></g><g><use height="100%" width="100%" x="295.5538" xlink:href="#g" y="225.95351"/><use height="100%" width="100%" x="315.35379" xlink:href="#k" y="225.95351"/></g><g fill="#f00"><use height="100%" width="100%" x="295.5538" xlink:href="#g" y="269.1535"/><use height="100%" width="100%" x="315.35379" xlink:href="#c" y="269.1535"/><use height="100%" width="100%" x="335.15381" xlink:href="#c" y="269.1535"/></g><path d="m276.5 193v314c0 1.92969 3 1.93359 3 0v-314c0-1.92969-3-1.93359-3 0"/><path d="m278.5 238h95c1.92969 0 1.93359-3 0-3h-95c-1.92969 0-1.93359 3 0 3"/><path d="m151.5 280h63c1.92969 0 1.93359-3 0-3h-63c-1.92969 0-1.93359 3 0 3"/><path d="m157 368.5h79c1.92969 0 1.93359-3 0-3h-79c-1.92969 0-1.93359 3 0 3"/><path d="m179 454.5h79c1.92969 0 1.93359-3 0-3h-79c-1.92969 0-1.93359 3 0 3"/><g fill="#f00"><use height="100%" width="100%" x="346.10159" xlink:href="#l" y="331.71191"/><use height="100%" width="100%" x="365.90161" xlink:href="#m" y="331.71191"/><use height="100%" width="100%" x="385.7016" xlink:href="#n" y="331.71191"/><use height="100%" width="100%" x="405.50159" xlink:href="#o" y="331.71191"/><use height="100%" width="100%" x="425.30161" xlink:href="#p" y="331.71191"/><use height="100%" width="100%" x="445.10159" xlink:href="#q" y="331.71191"/><use height="100%" width="100%" x="464.90161" xlink:href="#r" y="331.71191"/><use height="100%" width="100%" x="484.7016" xlink:href="#o" y="331.71191"/></g><path d="m-.00150625.001925l16.69140625-20.203125" fill="none" stroke="#f00" stroke-miterlimit="10" stroke-width="2" transform="matrix(1 0 0 -1 368.3101 285.7988)"/><path d="m366.35547 292.55469l-9.33203-20.41407 18.28906 13.01172zm0 0" fill="#f00"/><g fill="#00f"><use height="100%" width="100%" x="121.4067" xlink:href="#s" y="541.79688"/><use height="100%" width="100%" x="141.2067" xlink:href="#q" y="541.79688"/><use height="100%" width="100%" x="161.0067" xlink:href="#t" y="541.79688"/><use height="100%" width="100%" x="180.8067" xlink:href="#o" y="541.79688"/><use height="100%" width="100%" x="200.6067" xlink:href="#q" y="541.79688"/></g><path d="m180.02344 512.98828l33.97656-27.83594" fill="#00f"/><path d="m-.0009625.00001875l20.2695315 16.60546825" fill="none" stroke="#00f" stroke-miterlimit="10" stroke-width="2" transform="matrix(1 0 0 -1 180.0244 512.9883)"/><path d="m200.91016 503.38672l13.08984-18.23438-20.45313 9.2461zm0 0" fill="#00f"/></g></svg>