<svg xmlns="http://www.w3.org/2000/svg" width="239.04" height="207.09" viewBox="0 0 433 374" xmlns:xlink="http://www.w3.org/1999/xlink"><defs><path id="C" d="m.531-.594h-.313q-.031 0-.031-.016 0-.031.031-.031h.328q-.016-.016-.016-.047 0-.016.016-.031.016 0 .016.031.016.031.047.047.016.016.016.031 0 0-.016.016-.047.016-.078.063-.016.016-.016.016-.016 0-.031-.016 0-.016.047-.063" fill="#33f"/><clipPath id="7"><path d="m-1.8-22.897v25.07h28.933v-25.07z"/></clipPath><clipPath id="B"><path d="m-9.533-18.35v25.07h28.933v-25.07z"/></clipPath><clipPath id="8"><path d="m-26-18.297v25.07h28.933v-25.07z"/></clipPath><clipPath id="A"><path d="m-22.333-5.75v25.07h28.933v-25.07z"/></clipPath><clipPath id="9"><path d="m-8.07-1.364v25.07h28.934v-25.07z"/></clipPath><clipPath id="6"><path d="m-8.4-16.512v25.07h28.933v-25.07z"/></clipPath><clipPath id="0"><path d="m0 0v376h434v-376z"/></clipPath><clipPath id="5"><path d="m-8.333-16.248v25.07h28.933v-25.07z"/></clipPath><clipPath id="1"><path d="m-7.445-18.648v25.07h28.933v-25.07z"/></clipPath><clipPath id="3"><path d="m-11.212-17.914v25.07h28.933v-25.07z"/></clipPath><clipPath id="4"><path d="m-11.333-18.14v25.07h28.933v-25.07z"/></clipPath><clipPath id="2"><path d="m-7.6-18.877v25.07h28.933v-25.07z"/></clipPath></defs><g stroke-miterlimit="10" stroke-linecap="square"><g clip-path="url(#0)"><path d="m138.9 282.98v-282.98" stroke-linejoin="round" stroke-linecap="round" fill="none" stroke="#000"/></g><g clip-path="url(#0)"><path d="m138.9 282.98h295.1" stroke-linejoin="round" stroke-linecap="round" fill="none" stroke="#000"/></g><g clip-path="url(#0)"><path d="m138.9 282.98l-138.9 92.6" stroke-linejoin="round" stroke-linecap="round" fill="none" stroke="#000"/></g><g clip-path="url(#0)"><path d="m331.9 89.981l-193-64.33" stroke-linejoin="round" stroke-dasharray="5 4" stroke-linecap="butt" fill="none" stroke="#000"/></g><g clip-path="url(#0)"><path d="m331.9 89.981v257.33" stroke-linejoin="round" stroke-dasharray="5 4" stroke-linecap="butt" fill="none" stroke="#000"/></g><g clip-path="url(#0)"><path d="m331.9 347.31l64.33-64.33" stroke-linejoin="round" stroke-dasharray="5 4" stroke-linecap="butt" fill="none" stroke="#000"/></g><g clip-path="url(#0)"><path d="m331.9 347.31l-290.68.79" stroke-linejoin="round" stroke-dasharray="5 4" stroke-linecap="butt" fill="none" stroke="#000"/></g><g clip-path="url(#0)"><path d="m138.9 282.98l193 64.33" stroke-linejoin="round" stroke-dasharray="5 4" stroke-linecap="butt" fill="none" stroke="#000"/></g><g clip-path="url(#0)"><path d="m138.9 282.98h50.33" stroke-linejoin="round" stroke-linecap="round" fill="none" stroke="#33f"/></g><g clip-path="url(#0)"><path d="m203.23 282.98l-14 3.5v-7z" fill-rule="evenodd" fill="#33f"/></g><g clip-path="url(#0)"><path d="m138.9 282.98l-29.62 19.75" stroke-linejoin="round" stroke-linecap="round" fill="none" stroke="#33f"/></g><g clip-path="url(#0)"><path d="m97.63 310.49l9.709-10.68 3.88 5.83z" fill-rule="evenodd" fill="#33f"/></g><g clip-path="url(#0)"><path d="m138.9 282.98v-50.33" stroke-linejoin="round" stroke-linecap="round" fill="none" stroke="#33f"/></g><g clip-path="url(#0)"><path d="m138.9 218.65l3.5 14h-7z" fill-rule="evenodd" fill="#33f"/></g><g clip-path="url(#0)"><path d="m139.9 282.98c0 .55-.45 1-1 1-.55 0-1-.45-1-1 0-.55.45-1 1-1 .55 0 1 .45 1 1" fill="#00f"/></g><g clip-path="url(#0)"><path d="m139.9 282.98c0 .55-.45 1-1 1-.55 0-1-.45-1-1 0-.55.45-1 1-1 .55 0 1 .45 1 1z" stroke-linejoin="round" stroke-linecap="round" fill="none" stroke="#000"/></g><g clip-path="url(#0)"><path d="m332.9 89.981c0 .552-.45 1-1 1-.55 0-1-.448-1-1 0-.553.45-1 1-1 .55 0 1 .447 1 1" fill="#f00"/></g><g clip-path="url(#0)"><path d="m332.9 89.981c0 .552-.45 1-1 1-.55 0-1-.448-1-1 0-.553.45-1 1-1 .55 0 1 .447 1 1z" stroke-linejoin="round" stroke-linecap="round" fill="none" stroke="#000"/></g><g clip-path="url(#1)" transform="matrix(15 0 0 15 111.68 279.72)"><use xlink:href="#C"/></g><g clip-path="url(#2)" transform="matrix(15 0 0 15 114 283.15)"><path d="m.281-.625q0 .031-.031.047-.016 0-.016 0-.031 0-.047-.016 0-.016 0-.016 0-.031.031-.047.016 0 .031 0 .031 0 .031.016 0 .016 0 .016m-.078.375l-.031.109q-.031.078-.031.094 0 .031.016.031.078 0 .109-.109v-.016q0-.016.016-.016.016 0 .016.016 0 .016-.031.062-.031.094-.109.094-.047 0-.063-.047-.016-.016-.016-.047 0-.016.031-.078.063-.188.063-.188.016-.016.016-.047 0-.031-.031-.031-.047 0-.094.094 0 .016 0 .031-.016.016-.016.016-.016 0-.016 0 0-.031.016-.063.047-.094.109-.094.063 0 .078.047.016.016.016.031 0 .016-.016.047-.016.047-.031.063" fill="#33f"/></g><g clip-path="url(#3)" transform="matrix(15 0 0 15 168.18 268.72)"><use xlink:href="#C"/></g><g clip-path="url(#4)" transform="matrix(15 0 0 15 170 272.15)"><path d="m.391-.625q0 .031-.016.047-.016 0-.031 0-.031 0-.031-.016 0-.016 0-.016 0-.031.031-.047 0 0 .016 0 .031 0 .031.016 0 .016 0 .016m-.188.672l.094-.375q0-.031 0-.047 0-.047-.031-.047-.063 0-.109.094-.016.016-.016.031-.016.016-.016.016-.016 0-.016 0 0-.016.031-.063.047-.094.125-.094.063 0 .078.047.016.016.016.047 0 .016 0 .031l-.094.359q-.031.094-.109.141-.047.016-.078.016-.063 0-.078-.031-.016-.016-.016-.031 0-.031.031-.047.016 0 .031 0 .031 0 .031.016 0 0 0 .016 0 .031-.031.047 0 0-.016 0 .016.016.047.016.047 0 .094-.078.016-.031.031-.063" fill="#33f"/></g><g clip-path="url(#5)" transform="matrix(15 0 0 15 125 243.72)"><use xlink:href="#C"/></g><g clip-path="url(#6)" transform="matrix(15 0 0 15 126 247.67)"><path d="m.281-.688l-.094.422q.031-.016.109-.094.078-.078.141-.078.047 0 .063.031.016.016.016.031 0 .031-.047.047 0 .016-.016.016-.031 0-.031-.031 0 0 0-.016 0-.016.016-.031.016-.016.031-.016-.016-.016-.016-.016-.016 0-.016 0-.047 0-.125.078 0 .016-.016.016-.047.063-.094.078.156.016.156.109 0 .016 0 .031-.016.031-.016.047 0 .047.031.047.047 0 .078-.078 0-.016.016-.047 0-.016.016-.016 0 0 0 .016 0 .016-.016.062 0 .016-.016.031-.031.063-.078.063-.063 0-.078-.047-.016-.031-.016-.063 0 0 0-.031.016-.016.016-.016 0-.063-.094-.078-.016-.016-.031-.016-.047.219-.047.219-.016.031-.047.031-.016 0-.016-.031 0-.016 0-.016l.141-.578v-.031q0 0-.016-.016 0 0-.031 0-.016 0-.016 0 0-.031.016-.031h.125q0 0 0 0" fill="#33f"/></g><g clip-path="url(#7)" transform="matrix(15 0 0 15 27 343.46)"><path d="m.328-.297l-.031.125q-.016.078-.016.094 0 .047.031.063.016 0 .031 0 .047 0 .078-.047.031-.031.047-.078 0-.016.016-.016.016 0 .016.016 0 .016-.031.062-.063.094-.125.094-.078 0-.109-.063 0-.016 0-.016-.031.047-.078.063-.016.016-.031.016-.063 0-.094-.047 0 0 0-.031 0-.031.031-.047.016 0 .016 0 .031 0 .047.016 0 .016 0 .016 0 .031-.031.047-.016 0-.016 0 .016.016.047.016.047 0 .078-.063.016-.016.016-.031.047-.203.047-.25 0-.063-.047-.063-.047 0-.094.063 0 0 0 0-.016.016-.031.047 0 0 0 .016l-.016.016q0 0 0 0-.016 0-.016 0 0-.031.031-.078.047-.078.125-.078.078 0 .109.078.031-.063.078-.078.016 0 .031 0 .063 0 .078.031.016.016.016.031 0 .047-.047.047 0 .016-.016.016-.031 0-.031-.031 0 0 0-.016 0-.031.031-.047 0 0 .016 0-.016-.016-.047-.016-.078 0-.094.109-.016 0-.016.016" fill="#f00"/></g><g clip-path="url(#8)" transform="matrix(15 0 0 15 390 274.46)"><path d="m.484-.375l-.094.375q-.031.094-.109.156-.063.047-.125.047-.063 0-.094-.047-.016-.016-.016-.031 0-.063.047-.063 0-.016.016-.016.031 0 .031.031 0 0 0 .016 0 .016-.016.031-.016.016-.047.016.016.047.078.047.063 0 .109-.063.047-.063.063-.141 0-.016 0-.016-.047.047-.094.047-.078 0-.109-.063-.016-.031-.016-.063 0-.047.047-.203 0 0 .016 0 .016-.047.016-.078 0-.031-.031-.031-.047 0-.094.094 0 .016 0 .031-.016.016-.016.016-.016 0-.016 0 0-.031.016-.063.047-.094.109-.094.063 0 .078.047.016.016.016.031 0 .016-.031.078-.047.125-.047.188 0 .078.063.078.062 0 .094-.063.016-.016.016-.016l.047-.188q.016-.031.016-.078.016-.047.016-.047.016-.031.047-.031.016.016.016.031 0 .016 0 .031" fill="#f00"/></g><g clip-path="url(#9)" transform="matrix(15 0 0 15 121 20.458)"><path d="m.141-.078q0-.016.016-.016.031 0 .078.031.031 0 .047 0 .063 0 .094-.031.031-.016.031-.047.016-.016.016-.016.016 0 .016.016 0 .031-.031.078-.063.078-.125.078-.031 0-.063-.047-.031-.031-.047-.031-.016 0-.016 0-.047 0-.078.063-.016.016-.016.016-.016 0-.016-.016 0-.016.047-.063.016-.031.047-.063l.094-.094q.094-.078.141-.125-.031 0-.078-.016-.047-.016-.062-.016-.063 0-.078.031 0 .016 0 .016-.016.016-.016.016-.016 0-.016-.016 0-.016.031-.063.031-.047.094-.047.031 0 .063.031 0 0 0 0 .031.031.047.031 0 .016 0 .016.047 0 .078-.063v-.016q.016 0 .016 0 .016 0 .016 0 0 .016-.047.063-.031.047-.078.094 0 0-.094.078-.063.063-.109.125" fill="#f00"/></g><g clip-path="url(#A)" transform="matrix(15 0 0 15 335 86.25)"><path d="m.922-.609l-.125.531q-.016.016-.016.031 0 .016.047.016h.016.016q.016 0 .016.016 0 .016-.016.016h-.125-.125q-.016 0-.016-.016 0-.016.016-.016h.016q.063 0 .078-.016 0 0 .016-.031l.141-.578-.406.641q-.016.016-.016.016-.016 0-.016-.016l-.094-.625-.141.547q0 .016 0 .016 0 .047.047.047.016 0 .031 0 .016 0 .016.016 0 .016-.016.016h-.109-.094q-.016 0-.016-.016 0-.016.016-.016.078 0 .094-.047 0-.016.016-.031l.125-.5q0-.016 0-.031 0 0-.016-.016 0 0 0 0-.031 0-.047 0-.031 0-.031 0 0-.031.016-.031h.016.141q.016 0 .031.016 0 0 0 .016l.078.563.359-.563q.016-.031.016-.031.016 0 .031 0h.125q.031 0 .031.016 0 .016-.016.016 0 0-.016 0-.062 0-.078.016 0 .016-.016.031" fill="#f00"/></g><g clip-path="url(#B)" transform="matrix(15 0 0 15 143 275.25)"><path d="m.734-.438q0 .156-.109.281-.094.125-.234.172-.047 0-.078 0-.125 0-.203-.078-.063-.078-.063-.188 0-.141.109-.281.094-.125.234-.156.047-.016.094-.016.125 0 .203.094.047.063.047.172m-.422.438q.094 0 .172-.094.031-.016.047-.031.094-.125.109-.297.016-.031.016-.047 0-.141-.094-.188-.047-.031-.078-.031-.094 0-.188.094-.031.031-.062.063-.078.125-.094.281 0 .016 0 .031 0 .125.078.188.047.031.094.031" fill="#00c"/></g></g></svg>