<svg xmlns="http://www.w3.org/2000/svg" width="327.02" height="142.98" viewBox="0 0 428 187" xmlns:xlink="http://www.w3.org/1999/xlink"><defs><clipPath id="6"><path d="m-16.478-1.317v17.904h40.952v-17.904z"/></clipPath><clipPath id="5"><path d="m-10.667-1.335v12.533h28.667v-12.533z"/></clipPath><clipPath id="7"><path d="m-4.667-5.767v12.533h28.667v-12.533z"/></clipPath><clipPath id="4"><path d="m-35.26-15.854v17.905h40.952v-17.905z"/></clipPath><clipPath id="3"><path d="m-23.667-10.833v12.533h28.667v-12.533z"/></clipPath><clipPath id="0"><path d="m0 0v188h430v-188z"/></clipPath><clipPath id="2"><path d="m-35.637-6.235v17.905h40.952v-17.905z"/></clipPath><clipPath id="1"><path d="m-23.933-4.1v12.533h28.666v-12.533z"/></clipPath></defs><g stroke-miterlimit="10" stroke-linecap="square"><g clip-path="url(#0)"><path d="m125.85 118.39l-93.18 46.59h279.55l93.18-46.59z" fill-opacity=".098" fill-rule="evenodd" fill="#09f"/></g><g clip-path="url(#0)"><path d="m125.85 25.21l-93.18 46.591h279.55l93.18-46.591z" fill-opacity=".098" fill-rule="evenodd" fill="#390"/></g><g clip-path="url(#0)"><path d="m125.85 118.39l-93.18 46.59" stroke-linejoin="round" stroke-linecap="round" fill="none" stroke="#09f"/></g><g clip-path="url(#0)"><path d="m32.67 164.98h279.55" stroke-linejoin="round" stroke-linecap="round" fill="none" stroke="#09f"/></g><g clip-path="url(#0)"><path d="m312.22 164.98l93.18-46.59" stroke-linejoin="round" stroke-linecap="round" fill="none" stroke="#09f"/></g><g clip-path="url(#0)"><path d="m405.4 118.39h-279.55" stroke-linejoin="round" stroke-linecap="round" fill="none" stroke="#09f"/></g><g clip-path="url(#0)"><path d="m125.85 25.21l-93.18 46.591" stroke-linejoin="round" stroke-linecap="round" fill="none" stroke="#390"/></g><g clip-path="url(#0)"><path d="m32.67 71.801h279.55" stroke-linejoin="round" stroke-linecap="round" fill="none" stroke="#390"/></g><g clip-path="url(#0)"><path d="m312.22 71.801l93.18-46.591" stroke-linejoin="round" stroke-linecap="round" fill="none" stroke="#390"/></g><g clip-path="url(#0)"><path d="m405.4 25.21h-279.55" stroke-linejoin="round" stroke-linecap="round" fill="none" stroke="#390"/></g><g clip-path="url(#0)"><path d="m88 71.801l270.81-46.591" stroke-linejoin="round" stroke-linecap="round" fill="none" stroke="#f00"/></g><g clip-path="url(#0)"><path d="m219.03 71.801l-46.59-46.591" stroke-linejoin="round" stroke-linecap="round" fill="none" stroke="#f00"/></g><g clip-path="url(#1)" transform="matrix(15 0 0 15 359 61.5)"><path d="m.469-.656q.125-.063.234-.063.172 0 .25.063.031-.016.062-.047.016 0 .016 0v.016q0 0 0 .016-.016.016-.047.031 0 .016.016.016.031.047.031.109 0 .062-.047.141-.031.047-.109.078-.063.031-.141.031-.016 0-.031 0l-.016.031q-.078.109-.211.18-.133.07-.242.07-.063 0-.102-.016-.039-.016-.039-.063 0-.031.031-.063.016-.031.047-.031.031 0 .031.031 0 .016-.016.031-.016.016-.031.016-.016 0-.031-.016 0 .016 0 .031 0 .031.031.047.031.016.078.016.078 0 .187-.078.109-.078.172-.172.016-.016.023-.023.008-.008.008-.023-.016 0-.016 0-.016-.031-.016-.047 0-.016.016-.047.016-.016.031-.031.016-.016.047-.016v.016q0 0 0 0-.016 0-.031.016-.016 0-.031.031-.016.016-.016.031 0 .016.016.031.016 0 .016 0 .156-.219.281-.328-.063-.047-.219-.047-.109 0-.219.047-.125.063-.188.156-.047.078-.047.125 0 .016 0 .016.016.047.078.047.047 0 .109-.047.063-.047.109-.109.063-.078.063-.141 0-.016 0-.031h.016q0 0 0 0 .016.031.016.047 0 .063-.047.125-.047.078-.125.125-.094.063-.141.063-.047 0-.07-.023-.023-.023-.039-.055 0 0 0-.016 0-.063.063-.141.063-.094.188-.156m.266.359q.047 0 .109-.016.031-.031.063-.078.063-.078.063-.141 0-.047-.016-.063-.078.078-.234.297 0 0 .016 0" fill="#006400"/></g><g clip-path="url(#2)" transform="matrix(10.5 0 0 10.5 374.19 65.47)"><path d="m.297-.641v.562q0 .031.016.031.016.016.078.016h.031v.031q-.031 0-.172 0-.125 0-.156 0v-.031h.031q.078 0 .094-.016 0-.016 0-.031v-.516q-.047.016-.125.016v-.031q.109 0 .172-.063.031 0 .031.016 0 0 0 .016" fill="#006400"/></g><g clip-path="url(#3)" transform="matrix(15 0 0 15 355 162.5)"><path d="m.469-.656q.125-.063.234-.063.172 0 .25.063.031-.016.062-.047.016 0 .016 0v.016q0 0 0 .016-.016.016-.047.031 0 .016.016.016.031.047.031.109 0 .062-.047.141-.031.047-.109.078-.063.031-.141.031-.016 0-.031 0l-.016.031q-.078.109-.211.18-.133.07-.242.07-.063 0-.102-.016-.039-.016-.039-.063 0-.031.031-.063.016-.031.047-.031.031 0 .031.031 0 .016-.016.031-.016.016-.031.016-.016 0-.031-.016 0 .016 0 .031 0 .031.031.047.031.016.078.016.078 0 .187-.078.109-.078.172-.172.016-.016.023-.023.008-.008.008-.023-.016 0-.016 0-.016-.031-.016-.047 0-.016.016-.047.016-.016.031-.031.016-.016.047-.016v.016q0 0 0 0-.016 0-.031.016-.016 0-.031.031-.016.016-.016.031 0 .016.016.031.016 0 .016 0 .156-.219.281-.328-.063-.047-.219-.047-.109 0-.219.047-.125.063-.188.156-.047.078-.047.125 0 .016 0 .016.016.047.078.047.047 0 .109-.047.063-.047.109-.109.063-.078.063-.141 0-.016 0-.031h.016q0 0 0 0 .016.031.016.047 0 .063-.047.125-.047.078-.125.125-.094.063-.141.063-.047 0-.07-.023-.023-.023-.039-.055 0 0 0-.016 0-.063.063-.141.063-.094.188-.156m.266.359q.047 0 .109-.016.031-.031.063-.078.063-.078.063-.141 0-.047-.016-.063-.078.078-.234.297 0 0 .016 0" fill="#09f"/></g><g clip-path="url(#4)" transform="matrix(10.5 0 0 10.5 370.19 166.47)"><path d="m.453-.172l-.031.172h-.375q0-.031.016-.031l.188-.219q.109-.125.109-.219 0-.094-.063-.141-.031-.031-.078-.031-.063 0-.109.063-.016.016-.016.047 0 0 .016 0 .031 0 .047.031 0 .016 0 .016 0 .047-.047.047 0 .016 0 .016-.047 0-.063-.031 0-.016 0-.031 0-.078.063-.125.047-.063.125-.063.109 0 .172.078.031.047.047.109 0 0 0 .016 0 .063-.063.141-.031.031-.094.078l-.047.063h-.016l-.109.109h.188q.078 0 .094 0 0-.016.016-.094h.031" fill="#09f"/></g><g clip-path="url(#5)" transform="matrix(15 0 0 15 160 20.03)"><path d="m.844-.563q0 0 0 .016-.031 0-.047.016 0 .016 0 .047 0 .109-.078.25-.031.094-.102.156-.07.063-.148.094-.047.016-.078.016-.031 0-.109-.031-.031.016-.063.016h-.031q-.125 0-.125-.031.031-.031.125-.031.047 0 .094.016.016-.016.063-.063.047-.047.07-.086.023-.039.07-.102.156-.219.281-.266-.047-.141-.219-.141-.078 0-.164.047-.086.047-.133.125-.063.094-.063.156 0 .063.063.063.047 0 .102-.039.055-.039.086-.086.063-.078.063-.141 0 0 .016 0 0 0 0 0 0 0 0 .016 0 .063-.047.125-.047.063-.109.109-.063.047-.109.047-.063 0-.086-.031-.023-.031-.023-.078 0-.063.063-.156.047-.078.148-.125.102-.047.195-.047.203 0 .25.141.016-.016.047-.016 0 0 0 .016m-.141.328q.063-.141.063-.25 0-.016 0-.031-.063.047-.188.25-.141.187-.266.25.047.031.078.031.031 0 .078-.016.063-.031.125-.094.063-.063.109-.141m-.484.234q.016 0 .031-.016-.031-.016-.063-.016-.063 0-.063.016 0 0 .008 0 .008 0 .031.008.023.008.055.008" fill="#f00" id="8"/></g><g clip-path="url(#6)" transform="matrix(10.5 0 0 10.5 173.02 13.833)"><path d="m.25-.484l-.172.422q-.016.016-.016.016-.016 0-.031-.016 0 0 0-.016l.125-.437q.016-.031.047-.047.031 0 .047.031.016.016.016.031 0 0-.016.016" fill="#f00"/></g><g clip-path="url(#7)" transform="matrix(15 0 0 15 70 86.5)"><use xlink:href="#8"/></g></g></svg>