<svg xmlns="http://www.w3.org/2000/svg" width="377.01" height="150.24" viewBox="0 0 530 211" xmlns:xlink="http://www.w3.org/1999/xlink"><defs><path id="A" d="m.844-.563q0 0 0 .016-.031 0-.047.016 0 .016 0 .047 0 .109-.078.25-.031.094-.102.156-.07.063-.148.094-.047.016-.078.016-.031 0-.109-.031-.031.016-.063.016h-.031q-.125 0-.125-.031.031-.031.125-.031.047 0 .094.016.016-.016.063-.063.047-.047.07-.086.023-.039.07-.102.156-.219.281-.266-.047-.141-.219-.141-.078 0-.164.047-.086.047-.133.125-.063.094-.063.156 0 .063.063.063.047 0 .102-.039.055-.039.086-.086.063-.078.063-.141 0 0 .016 0 0 0 0 0 0 0 0 .016 0 .063-.047.125-.047.063-.109.109-.063.047-.109.047-.063 0-.086-.031-.023-.031-.023-.078 0-.063.063-.156.047-.078.148-.125.102-.047.195-.047.203 0 .25.141.016-.016.047-.016 0 0 0 .016m-.141.328q.063-.141.063-.25 0-.016 0-.031-.063.047-.188.25-.141.187-.266.25.047.031.078.031.031 0 .078-.016.063-.031.125-.094.063-.063.109-.141m-.484.234q.016 0 .031-.016-.031-.016-.063-.016-.063 0-.063.016 0 0 .008 0 .008 0 .031.008.023.008.055.008"/><clipPath id="9"><path d="m-18.933-1.233v14.13h35.466v-14.13z"/></clipPath><clipPath id="6"><path d="m-40.44-11.568v20.19h50.667v-20.19z"/></clipPath><clipPath id="8"><path d="m-16.494-13.568v20.19h50.666v-20.19z"/></clipPath><clipPath id="7"><path d="m-10.533-9.233v14.13h35.466v-14.13z"/></clipPath><clipPath id="5"><path d="m-27.533-7.833v14.13h35.466v-14.13z"/></clipPath><clipPath id="0"><path d="m0 0v212h532v-212z"/></clipPath><clipPath id="4"><path d="m-33.26-18.806v20.19h50.667v-20.19z"/></clipPath><clipPath id="1"><path d="m-8.933-4.5v14.13h35.466v-14.13z"/></clipPath><clipPath id="3"><path d="m-22.267-12.9v14.13h35.467v-14.13z"/></clipPath><clipPath id="2"><path d="m-13.868-6.806v20.19h50.666v-20.19z"/></clipPath></defs><g stroke-miterlimit="10" stroke-linecap="square"><g><g clip-path="url(#0)"><path d="m165 23h200l-150 100h-200z" fill-opacity=".098" fill-rule="evenodd" fill="#6cf"/></g><g clip-path="url(#0)"><path d="m365 23l150 150h-200l-150-150z" fill-opacity=".098" fill-rule="evenodd" fill="#390"/></g><g clip-path="url(#0)"><path d="m365 23l-150 100" stroke-linejoin="round" stroke-linecap="round" fill="none" stroke="#6cf"/></g><g clip-path="url(#0)"><path d="m215 123h-200" stroke-linejoin="round" stroke-linecap="round" fill="none" stroke="#6cf"/></g><g clip-path="url(#0)"><path d="m15 123l150-100" stroke-linejoin="round" stroke-linecap="round" fill="none" stroke="#6cf"/></g><g clip-path="url(#0)"><path d="m365 23l150 150" stroke-linejoin="round" stroke-linecap="round" fill="none" stroke="#390"/></g><g clip-path="url(#0)"><path d="m515 173h-200" stroke-linejoin="round" stroke-linecap="round" fill="none" stroke="#390"/></g><g clip-path="url(#0)"><path d="m315 173l-150-150" stroke-linejoin="round" stroke-linecap="round" fill="none" stroke="#390"/></g><g clip-path="url(#0)"><path d="m90.92 72.39l200.23-.154" stroke-linejoin="round" stroke-linecap="round" fill="none" stroke="#f00"/></g><g clip-path="url(#0)"><path d="m265 123h200" stroke-linejoin="round" stroke-linecap="round" fill="none" stroke="#609"/></g><g clip-path="url(#0)"><path d="m165 23h200" stroke-linejoin="round" stroke-width="1.5" stroke-linecap="round" fill="none" stroke="#390"/></g><g clip-path="url(#1)" transform="matrix(15 0 0 15 134 67.5)"><use fill="#f00" xlink:href="#A"/></g><g clip-path="url(#2)" transform="matrix(10.5 0 0 10.5 145.62 71.47)"><path d="m.297-.641v.562q0 .031.016.031.016.016.078.016h.031v.031q-.031 0-.172 0-.125 0-.156 0v-.031h.031q.078 0 .094-.016 0-.016 0-.031v-.516q-.047.016-.125.016v-.031q.109 0 .172-.063.031 0 .031.016 0 0 0 .016" fill="#f00"/></g><g clip-path="url(#3)" transform="matrix(15 0 0 15 334 193.5)"><path d="m.469-.656q.125-.063.234-.063.172 0 .25.063.031-.016.062-.047.016 0 .016 0v.016q0 0 0 .016-.016.016-.047.031 0 .016.016.016.031.047.031.109 0 .062-.047.141-.031.047-.109.078-.063.031-.141.031-.016 0-.031 0l-.016.031q-.078.109-.211.18-.133.07-.242.07-.063 0-.102-.016-.039-.016-.039-.063 0-.031.031-.063.016-.031.047-.031.031 0 .031.031 0 .016-.016.031-.016.016-.031.016-.016 0-.031-.016 0 .016 0 .031 0 .031.031.047.031.016.078.016.078 0 .187-.078.109-.078.172-.172.016-.016.023-.023.008-.008.008-.023-.016 0-.016 0-.016-.031-.016-.047 0-.016.016-.047.016-.016.031-.031.016-.016.047-.016v.016q0 0 0 0-.016 0-.031.016-.016 0-.031.031-.016.016-.016.031 0 .016.016.031.016 0 .016 0 .156-.219.281-.328-.063-.047-.219-.047-.109 0-.219.047-.125.063-.188.156-.047.078-.047.125 0 .016 0 .016.016.047.078.047.047 0 .109-.047.063-.047.109-.109.063-.078.063-.141 0-.016 0-.031h.016q0 0 0 0 .016.031.016.047 0 .063-.047.125-.047.078-.125.125-.094.063-.141.063-.047 0-.07-.023-.023-.023-.039-.055 0 0 0-.016 0-.063.063-.141.063-.094.188-.156m.266.359q.047 0 .109-.016.031-.031.063-.078.063-.078.063-.141 0-.047-.016-.063-.078.078-.234.297 0 0 .016 0" fill="#390"/></g><g clip-path="url(#4)" transform="matrix(10.5 0 0 10.5 349.19 197.47)"><path d="m.453-.172l-.031.172h-.375q0-.031.016-.031l.188-.219q.109-.125.109-.219 0-.094-.063-.141-.031-.031-.078-.031-.063 0-.109.063-.016.016-.016.047 0 0 .016 0 .031 0 .047.031 0 .016 0 .016 0 .047-.047.047 0 .016 0 .016-.047 0-.063-.031 0-.016 0-.031 0-.078.063-.125.047-.063.125-.063.109 0 .172.078.031.047.047.109 0 0 0 .016 0 .063-.063.141-.031.031-.094.078l-.047.063h-.016l-.109.109h.188q.078 0 .094 0 0-.016.016-.094h.031" fill="#390"/></g><g clip-path="url(#5)" transform="matrix(15 0 0 15 413 117.5)"><use fill="#609" xlink:href="#A"/></g><g clip-path="url(#6)" transform="matrix(10.5 0 0 10.5 424.62 121.47)"><path d="m.453-.172l-.031.172h-.375q0-.031.016-.031l.188-.219q.109-.125.109-.219 0-.094-.063-.141-.031-.031-.078-.031-.063 0-.109.063-.016.016-.016.047 0 0 .016 0 .031 0 .047.031 0 .016 0 .016 0 .047-.047.047 0 .016 0 .016-.047 0-.063-.031 0-.016 0-.031 0-.078.063-.125.047-.063.125-.063.109 0 .172.078.031.047.047.109 0 0 0 .016 0 .063-.063.141-.031.031-.094.078l-.047.063h-.016l-.109.109h.188q.078 0 .094 0 0-.016.016-.094h.031" fill="#609"/></g><g clip-path="url(#7)" transform="matrix(15 0 0 15 158 138.5)"><path d="m.469-.656q.125-.063.234-.063.172 0 .25.063.031-.016.062-.047.016 0 .016 0v.016q0 0 0 .016-.016.016-.047.031 0 .016.016.016.031.047.031.109 0 .062-.047.141-.031.047-.109.078-.063.031-.141.031-.016 0-.031 0l-.016.031q-.078.109-.211.18-.133.07-.242.07-.063 0-.102-.016-.039-.016-.039-.063 0-.031.031-.063.016-.031.047-.031.031 0 .031.031 0 .016-.016.031-.016.016-.031.016-.016 0-.031-.016 0 .016 0 .031 0 .031.031.047.031.016.078.016.078 0 .187-.078.109-.078.172-.172.016-.016.023-.023.008-.008.008-.023-.016 0-.016 0-.016-.031-.016-.047 0-.016.016-.047.016-.016.031-.031.016-.016.047-.016v.016q0 0 0 0-.016 0-.031.016-.016 0-.031.031-.016.016-.016.031 0 .016.016.031.016 0 .016 0 .156-.219.281-.328-.063-.047-.219-.047-.109 0-.219.047-.125.063-.188.156-.047.078-.047.125 0 .016 0 .016.016.047.078.047.047 0 .109-.047.063-.047.109-.109.063-.078.063-.141 0-.016 0-.031h.016q0 0 0 0 .016.031.016.047 0 .063-.047.125-.047.078-.125.125-.094.063-.141.063-.047 0-.07-.023-.023-.023-.039-.055 0 0 0-.016 0-.063.063-.141.063-.094.188-.156m.266.359q.047 0 .109-.016.031-.031.063-.078.063-.078.063-.141 0-.047-.016-.063-.078.078-.234.297 0 0 .016 0" fill="#6cf"/></g><g clip-path="url(#8)" transform="matrix(10.5 0 0 10.5 173.19 142.47)"><path d="m.297-.641v.562q0 .031.016.031.016.016.078.016h.031v.031q-.031 0-.172 0-.125 0-.156 0v-.031h.031q.078 0 .094-.016 0-.016 0-.031v-.516q-.047.016-.125.016v-.031q.109 0 .172-.063.031 0 .031.016 0 0 0 .016" fill="#6cf"/></g><g clip-path="url(#9)" transform="matrix(15 0 0 15 284 18.5)"><use fill="#f69" xlink:href="#A"/></g></g><g clip-path="url(#0)"><path d="m165 23h200" stroke-linejoin="round" stroke-linecap="round" fill="none" stroke="#f9c"/></g></g></svg>