<svg xmlns="http://www.w3.org/2000/svg" width="340.09" height="71.23" viewBox="0 0 486 100"><defs><clipPath id="0"><path d="m0 0v102h487v-102z"/></clipPath><clipPath id="1"><path d="m-4.333-4.9v6.8h32.466v-6.8z"/></clipPath><clipPath id="2"><path d="m-15.667-5.03v6.8h32.467v-6.8z"/></clipPath></defs><g stroke-miterlimit="10" stroke-linecap="square"><g clip-path="url(#0)"><path d="m110.06 35.29l-101.48 50.74h355.18l101.48-50.74z" fill-opacity=".098" fill-rule="evenodd" fill="#390"/></g><g clip-path="url(#0)"><path d="m110.06 35.29l-101.48 50.74" stroke-linejoin="round" stroke-linecap="round" fill="none" stroke="#390"/></g><g clip-path="url(#0)"><path d="m8.584 86.03h355.18" stroke-linejoin="round" stroke-linecap="round" fill="none" stroke="#390"/></g><g clip-path="url(#0)"><path d="m363.76 86.03l101.48-50.74" stroke-linejoin="round" stroke-linecap="round" fill="none" stroke="#390"/></g><g clip-path="url(#0)"><path d="m465.24 35.29h-355.18" stroke-linejoin="round" stroke-linecap="round" fill="none" stroke="#390"/></g><g clip-path="url(#0)"><path d="m149 86.03l185-50.74" stroke-linejoin="round" stroke-linecap="round" fill="none" stroke="#f00"/></g><g clip-path="url(#1)" transform="matrix(15 0 0 15 65 73.5)"><path d="m.469-.656q.125-.063.234-.063.172 0 .25.063.031-.016.062-.047.016 0 .016 0v.016q0 0 0 .016-.016.016-.047.031 0 .016.016.016.031.047.031.109 0 .062-.047.141-.031.047-.109.078-.063.031-.141.031-.016 0-.031 0l-.016.031q-.078.109-.211.18-.133.07-.242.07-.063 0-.102-.016-.039-.016-.039-.063 0-.031.031-.063.016-.031.047-.031.031 0 .031.031 0 .016-.016.031-.016.016-.031.016-.016 0-.031-.016 0 .016 0 .031 0 .031.031.047.031.016.078.016.078 0 .187-.078.109-.078.172-.172.016-.016.023-.023.008-.008.008-.023-.016 0-.016 0-.016-.031-.016-.047 0-.016.016-.047.016-.016.031-.031.016-.016.047-.016v.016q0 0 0 0-.016 0-.031.016-.016 0-.031.031-.016.016-.016.031 0 .016.016.031.016 0 .016 0 .156-.219.281-.328-.063-.047-.219-.047-.109 0-.219.047-.125.063-.188.156-.047.078-.047.125 0 .016 0 .016.016.047.078.047.047 0 .109-.047.063-.047.109-.109.063-.078.063-.141 0-.016 0-.031h.016q0 0 0 0 .016.031.016.047 0 .063-.047.125-.047.078-.125.125-.094.063-.141.063-.047 0-.07-.023-.023-.023-.039-.055 0 0 0-.016 0-.063.063-.141.063-.094.188-.156m.266.359q.047 0 .109-.016.031-.031.063-.078.063-.078.063-.141 0-.047-.016-.063-.078.078-.234.297 0 0 .016 0" fill="#063"/></g><g clip-path="url(#2)" transform="matrix(15 0 0 15 235 75.5)"><path d="m.844-.563q0 0 0 .016-.031 0-.047.016 0 .016 0 .047 0 .109-.078.25-.031.094-.102.156-.07.063-.148.094-.047.016-.078.016-.031 0-.109-.031-.031.016-.063.016h-.031q-.125 0-.125-.031.031-.031.125-.031.047 0 .094.016.016-.016.063-.063.047-.047.07-.086.023-.039.07-.102.156-.219.281-.266-.047-.141-.219-.141-.078 0-.164.047-.086.047-.133.125-.063.094-.063.156 0 .063.063.063.047 0 .102-.039.055-.039.086-.086.063-.078.063-.141 0 0 .016 0 0 0 0 0 0 0 0 .016 0 .063-.047.125-.047.063-.109.109-.063.047-.109.047-.063 0-.086-.031-.023-.031-.023-.078 0-.063.063-.156.047-.078.148-.125.102-.047.195-.047.203 0 .25.141.016-.016.047-.016 0 0 0 .016m-.141.328q.063-.141.063-.25 0-.016 0-.031-.063.047-.188.25-.141.187-.266.25.047.031.078.031.031 0 .078-.016.063-.031.125-.094.063-.063.109-.141m-.484.234q.016 0 .031-.016-.031-.016-.063-.016-.063 0-.063.016 0 0 .008 0 .008 0 .031.008.023.008.055.008" fill="#f00"/></g></g></svg>