<svg xmlns="http://www.w3.org/2000/svg" width="398.98" height="132.52" viewBox="0 0 562 186"><defs><clipPath id="0"><path d="m0 0v187h563v-187z"/></clipPath></defs><g stroke-miterlimit="10" stroke-linecap="square"><g><g clip-path="url(#0)"><path d="m-5 192l573-191" stroke-linejoin="round" stroke-linecap="round" fill="none" stroke="#000"/></g><g clip-path="url(#0)"><path d="m127 148l276.75-92.25" stroke-linejoin="round" stroke-linecap="round" fill="none" stroke="#f00"/></g><g clip-path="url(#0)"><path d="m417.03 51.32l-12.17 7.747-2.22-6.641z" fill-rule="evenodd" fill="#f00"/></g><g clip-path="url(#0)"><path d="m128 148c0 .55-.45 1-1 1-.55 0-1-.45-1-1 0-.55.45-1 1-1 .55 0 1 .45 1 1" fill="#00f"/></g><g clip-path="url(#0)"><path d="m128 148c0 .55-.45 1-1 1-.55 0-1-.45-1-1 0-.55.45-1 1-1 .55 0 1 .45 1 1z" stroke-linejoin="round" stroke-linecap="round" fill="none" stroke="#000"/></g><g clip-path="url(#0)"><text font-style="italic" font-family="serif" fill="#00f" font-size="12" x="0" y="0" transform="translate(121 142)">A</text></g><g clip-path="url(#0)"><path d="m272 100c0 .55-.45 1-1 1-.55 0-1-.45-1-1 0-.552.45-1 1-1 .55 0 1 .448 1 1" fill="#00f"/></g><g clip-path="url(#0)"><path d="m272 100c0 .55-.45 1-1 1-.55 0-1-.45-1-1 0-.552.45-1 1-1 .55 0 1 .448 1 1z" stroke-linejoin="round" stroke-linecap="round" fill="none" stroke="#000"/></g><g clip-path="url(#0)"><text font-style="italic" font-family="serif" fill="#00f" font-size="12" x="0" y="0" transform="translate(261 95)">B</text></g><g clip-path="url(#0)"><path d="m418.03 51.32c0 .552-.45 1-1 1-.55 0-1-.448-1-1 0-.553.45-1 1-1 .55 0 1 .447 1 1" fill="#f00"/></g><g clip-path="url(#0)"><path d="m418.03 51.32c0 .552-.45 1-1 1-.55 0-1-.448-1-1 0-.553.45-1 1-1 .55 0 1 .447 1 1z" stroke-linejoin="round" stroke-linecap="round" fill="none" stroke="#000"/></g><g clip-path="url(#0)"><text font-style="italic" font-family="serif" fill="#f00" font-size="12" x="0" y="0" transform="translate(408 43)">M</text></g></g><g><g clip-path="url(#0)"><path d="m127 148l130.72-43.57" stroke-linejoin="round" stroke-linecap="round" fill="none" stroke="#00c"/></g><g clip-path="url(#0)"><path d="m271 100l-12.17 7.75-2.22-6.64z" fill-rule="evenodd" fill="#00c"/></g></g></g></svg>