<svg xmlns="http://www.w3.org/2000/svg" width="374.31" height="140.37" viewBox="0 0 535 200"><defs><clipPath id="3"><path d="m-10.113-15.698v19.14h51.05v-19.14z"/></clipPath><clipPath id="2"><path d="m-5.733-11.402v13.4h35.733v-13.4z"/></clipPath><clipPath id="0"><path d="m0 0v201h536v-201z"/></clipPath><clipPath id="1"><path d="m-6-4.433v13.4h35.733v-13.4z"/></clipPath></defs><g stroke-miterlimit="10" stroke-linecap="square"><g clip-path="url(#0)"><path d="m135.06 28.29l-101.48 50.74h355.18l101.48-50.74z" fill-opacity=".098" fill-rule="evenodd" fill="#390"/></g><g clip-path="url(#0)"><path d="m135.06 129.77l-101.48 50.74h355.18l101.48-50.74z" fill-opacity=".098" fill-rule="evenodd" fill="#09f"/></g><g clip-path="url(#0)"><path d="m135.06 28.29l-101.48 50.74" stroke-linejoin="round" stroke-linecap="round" fill="none" stroke="#390"/></g><g clip-path="url(#0)"><path d="m33.584 79.03h355.18" stroke-linejoin="round" stroke-linecap="round" fill="none" stroke="#390"/></g><g clip-path="url(#0)"><path d="m388.76 79.03l101.48-50.74" stroke-linejoin="round" stroke-linecap="round" fill="none" stroke="#390"/></g><g clip-path="url(#0)"><path d="m490.24 28.29h-355.18" stroke-linejoin="round" stroke-linecap="round" fill="none" stroke="#390"/></g><g clip-path="url(#0)"><path d="m135.06 129.77l-101.48 50.74" stroke-linejoin="round" stroke-linecap="round" fill="none" stroke="#09f"/></g><g clip-path="url(#0)"><path d="m33.584 180.51h355.18" stroke-linejoin="round" stroke-linecap="round" fill="none" stroke="#09f"/></g><g clip-path="url(#0)"><path d="m388.76 180.51l101.48-50.74" stroke-linejoin="round" stroke-linecap="round" fill="none" stroke="#09f"/></g><g clip-path="url(#0)"><path d="m490.24 129.77h-355.18" stroke-linejoin="round" stroke-linecap="round" fill="none" stroke="#09f"/></g><g clip-path="url(#1)" transform="matrix(15 0 0 15 90 66.5)"><path d="m.469-.656q.125-.063.234-.063.172 0 .25.063.031-.016.062-.047.016 0 .016 0v.016q0 0 0 .016-.016.016-.047.031 0 .016.016.016.031.047.031.109 0 .062-.047.141-.031.047-.109.078-.063.031-.141.031-.016 0-.031 0l-.016.031q-.078.109-.211.18-.133.07-.242.07-.063 0-.102-.016-.039-.016-.039-.063 0-.031.031-.063.016-.031.047-.031.031 0 .031.031 0 .016-.016.031-.016.016-.031.016-.016 0-.031-.016 0 .016 0 .031 0 .031.031.047.031.016.078.016.078 0 .187-.078.109-.078.172-.172.016-.016.023-.023.008-.008.008-.023-.016 0-.016 0-.016-.031-.016-.047 0-.016.016-.047.016-.016.031-.031.016-.016.047-.016v.016q0 0 0 0-.016 0-.031.016-.016 0-.031.031-.016.016-.016.031 0 .016.016.031.016 0 .016 0 .156-.219.281-.328-.063-.047-.219-.047-.109 0-.219.047-.125.063-.188.156-.047.078-.047.125 0 .016 0 .016.016.047.078.047.047 0 .109-.047.063-.047.109-.109.063-.078.063-.141 0-.016 0-.031h.016q0 0 0 0 .016.031.016.047 0 .063-.047.125-.047.078-.125.125-.094.063-.141.063-.047 0-.07-.023-.023-.023-.039-.055 0 0 0-.016 0-.063.063-.141.063-.094.188-.156m.266.359q.047 0 .109-.016.031-.031.063-.078.063-.078.063-.141 0-.047-.016-.063-.078.078-.234.297 0 0 .016 0" fill="#063"/></g><g clip-path="url(#2)" transform="matrix(15 0 0 15 86 171.03)"><path d="m.469-.656q.125-.063.234-.063.172 0 .25.063.031-.016.062-.047.016 0 .016 0v.016q0 0 0 .016-.016.016-.047.031 0 .016.016.016.031.047.031.109 0 .062-.047.141-.031.047-.109.078-.063.031-.141.031-.016 0-.031 0l-.016.031q-.078.109-.211.18-.133.07-.242.07-.063 0-.102-.016-.039-.016-.039-.063 0-.031.031-.063.016-.031.047-.031.031 0 .031.031 0 .016-.016.031-.016.016-.031.016-.016 0-.031-.016 0 .016 0 .031 0 .031.031.047.031.016.078.016.078 0 .187-.078.109-.078.172-.172.016-.016.023-.023.008-.008.008-.023-.016 0-.016 0-.016-.031-.016-.047 0-.016.016-.047.016-.016.031-.031.016-.016.047-.016v.016q0 0 0 0-.016 0-.031.016-.016 0-.031.031-.016.016-.016.031 0 .016.016.031.016 0 .016 0 .156-.219.281-.328-.063-.047-.219-.047-.109 0-.219.047-.125.063-.188.156-.047.078-.047.125 0 .016 0 .016.016.047.078.047.047 0 .109-.047.063-.047.109-.109.063-.078.063-.141 0-.016 0-.031h.016q0 0 0 0 .016.031.016.047 0 .063-.047.125-.047.078-.125.125-.094.063-.141.063-.047 0-.07-.023-.023-.023-.039-.055 0 0 0-.016 0-.063.063-.141.063-.094.188-.156m.266.359q.047 0 .109-.016.031-.031.063-.078.063-.078.063-.141 0-.047-.016-.063-.078.078-.234.297 0 0 .016 0" fill="#09f"/></g><g clip-path="url(#3)" transform="matrix(10.5 0 0 10.5 106.19 164.83)"><path d="m.25-.484l-.172.422q-.016.016-.016.016-.016 0-.031-.016 0 0 0-.016l.125-.437q.016-.031.047-.047.031 0 .047.031.016.016.016.031 0 0-.016.016" fill="#09f"/></g></g></svg>