<svg xmlns="http://www.w3.org/2000/svg" width="374.31" height="58.66" viewBox="0 0 535 82"><defs><clipPath id="3"><path d="m-34.535-4.936v8h51.05v-8z"/></clipPath><clipPath id="2"><path d="m-23.07-3.868v5.6h35.734v-5.6z"/></clipPath><clipPath id="0"><path d="m0 0v84h536v-84z"/></clipPath><clipPath id="1"><path d="m-12.133-3.033v5.6h35.733v-5.6z"/></clipPath></defs><g stroke-miterlimit="10" stroke-linecap="square"><g clip-path="url(#0)"><path d="m136.06 19.288l-101.48 50.74h355.18l101.48-50.74z" fill-opacity=".098" fill-rule="evenodd" fill="#390"/></g><g clip-path="url(#0)"><path d="m136.06 19.288l-101.48 50.74" stroke-linejoin="round" stroke-linecap="round" fill="none" stroke="#390"/></g><g clip-path="url(#0)"><path d="m34.584 70.03h355.18" stroke-linejoin="round" stroke-linecap="round" fill="none" stroke="#390"/></g><g clip-path="url(#0)"><path d="m389.76 70.03l101.48-50.74" stroke-linejoin="round" stroke-linecap="round" fill="none" stroke="#390"/></g><g clip-path="url(#0)"><path d="m491.24 19.288h-355.18" stroke-linejoin="round" stroke-linecap="round" fill="none" stroke="#390"/></g><g clip-path="url(#0)"><path d="m126 70.03l189-50.74" stroke-linejoin="round" stroke-linecap="round" fill="none" stroke="#f00"/></g><g clip-path="url(#0)"><path d="m239 70.03l189-50.74" stroke-linejoin="round" stroke-linecap="round" fill="none" stroke="#609"/></g><g clip-path="url(#1)" transform="matrix(15 0 0 15 182 45.5)"><path d="m.844-.563q0 0 0 .016-.031 0-.047.016 0 .016 0 .047 0 .109-.078.25-.031.094-.102.156-.07.063-.148.094-.047.016-.078.016-.031 0-.109-.031-.031.016-.063.016h-.031q-.125 0-.125-.031.031-.031.125-.031.047 0 .094.016.016-.016.063-.063.047-.047.07-.086.023-.039.07-.102.156-.219.281-.266-.047-.141-.219-.141-.078 0-.164.047-.086.047-.133.125-.063.094-.063.156 0 .063.063.063.047 0 .102-.039.055-.039.086-.086.063-.078.063-.141 0 0 .016 0 0 0 0 0 0 0 0 .016 0 .063-.047.125-.047.063-.109.109-.063.047-.109.047-.063 0-.086-.031-.023-.031-.023-.078 0-.063.063-.156.047-.078.148-.125.102-.047.195-.047.203 0 .25.141.016-.016.047-.016 0 0 0 .016m-.141.328q.063-.141.063-.25 0-.016 0-.031-.063.047-.188.25-.141.187-.266.25.047.031.078.031.031 0 .078-.016.063-.031.125-.094.063-.063.109-.141m-.484.234q.016 0 .031-.016-.031-.016-.063-.016-.063 0-.063.016 0 0 .008 0 .008 0 .031.008.023.008.055.008" fill="#f00"/></g><g clip-path="url(#2)" transform="matrix(15 0 0 15 346 58.03)"><path d="m.844-.563q0 0 0 .016-.031 0-.047.016 0 .016 0 .047 0 .109-.078.25-.031.094-.102.156-.07.063-.148.094-.047.016-.078.016-.031 0-.109-.031-.031.016-.063.016h-.031q-.125 0-.125-.031.031-.031.125-.031.047 0 .094.016.016-.016.063-.063.047-.047.07-.086.023-.039.07-.102.156-.219.281-.266-.047-.141-.219-.141-.078 0-.164.047-.086.047-.133.125-.063.094-.063.156 0 .063.063.063.047 0 .102-.039.055-.039.086-.086.063-.078.063-.141 0 0 .016 0 0 0 0 0 0 0 0 .016 0 .063-.047.125-.047.063-.109.109-.063.047-.109.047-.063 0-.086-.031-.023-.031-.023-.078 0-.063.063-.156.047-.078.148-.125.102-.047.195-.047.203 0 .25.141.016-.016.047-.016 0 0 0 .016m-.141.328q.063-.141.063-.25 0-.016 0-.031-.063.047-.188.25-.141.187-.266.25.047.031.078.031.031 0 .078-.016.063-.031.125-.094.063-.063.109-.141m-.484.234q.016 0 .031-.016-.031-.016-.063-.016-.063 0-.063.016 0 0 .008 0 .008 0 .031.008.023.008.055.008" fill="#609"/></g><g clip-path="url(#3)" transform="matrix(10.5 0 0 10.5 362.62 51.833)"><path d="m.25-.484l-.172.422q-.016.016-.016.016-.016 0-.031-.016 0 0 0-.016l.125-.437q.016-.031.047-.047.031 0 .047.031.016.016.016.031 0 0-.016.016" fill="#609"/></g></g></svg>