<svg xmlns="http://www.w3.org/2000/svg" width="265.23" height="239.6" viewBox="0 0 268 242"><defs><clipPath id="0"><path d="m0 0v243h269v-243z"/></clipPath></defs><g stroke-miterlimit="10" stroke-linecap="square"><g><g clip-path="url(#0)"><path d="m32.34 215.72h143.74" stroke-linejoin="round" stroke-linecap="round" fill="none" stroke="#000"/></g><g clip-path="url(#0)"><path d="m176.08 215.72l56.78-46.71" stroke-linejoin="round" stroke-linecap="round" fill="none" stroke="#606060"/></g><g clip-path="url(#0)"><path d="m232.86 169.01v-143.75" stroke-linejoin="round" stroke-linecap="round" fill="none" stroke="#000"/></g><g clip-path="url(#0)"><path d="m232.86 25.26l-56.78 46.718" stroke-linejoin="round" stroke-linecap="round" fill="none" stroke="#606060"/></g><g clip-path="url(#0)"><path d="m176.08 71.977h-143.74" stroke-linejoin="round" stroke-linecap="round" fill="none" stroke="#000"/></g><g clip-path="url(#0)"><path d="m32.34 71.977l56.779-46.718" stroke-linejoin="round" stroke-linecap="round" fill="none" stroke="#808080"/></g><g clip-path="url(#0)"><path d="m89.12 25.26h143.74" stroke-linejoin="round" stroke-linecap="round" fill="none" stroke="#000"/></g><g clip-path="url(#0)"><path d="m32.34 71.977v143.74" stroke-linejoin="round" stroke-linecap="round" fill="none" stroke="#000"/></g><g clip-path="url(#0)"><path d="m176.08 71.977v143.74" stroke-linejoin="round" stroke-linecap="round" fill="none" stroke="#000"/></g><g clip-path="url(#0)"><path d="m32.34 215.72l56.779-46.71" stroke-linejoin="round" stroke-dasharray="5 4" stroke-linecap="butt" fill="none" stroke="#000"/></g><g clip-path="url(#0)"><path d="m89.12 169.01v-143.75" stroke-linejoin="round" stroke-dasharray="5 4" stroke-linecap="butt" fill="none" stroke="#000"/></g><g clip-path="url(#0)"><path d="m89.12 169.01h143.74" stroke-linejoin="round" stroke-dasharray="5 4" stroke-linecap="butt" fill="none" stroke="#000"/></g><g clip-path="url(#0)"><path d="m32.34 215.72h129.74" stroke-linejoin="round" stroke-linecap="round" fill="none" stroke="#f00"/></g><g clip-path="url(#0)"><path d="m176.08 215.72l-14 3.5v-7z" fill-rule="evenodd" fill="#f00"/></g><g clip-path="url(#0)"><path d="m176.08 71.977l45.97-37.823" stroke-linejoin="round" stroke-linecap="round" fill="none" stroke="#0c0"/></g><g clip-path="url(#0)"><path d="m232.86 25.26l-8.58 11.598-4.45-5.405z" fill-rule="evenodd" fill="#0c0"/></g><g clip-path="url(#0)"><path d="m33.34 215.72c0 .56-.448 1-1 1-.553 0-1-.44-1-1 0-.55.447-1 1-1 .552 0 1 .45 1 1" fill="#808080"/></g><g clip-path="url(#0)"><path d="m33.34 215.72c0 .56-.448 1-1 1-.553 0-1-.44-1-1 0-.55.447-1 1-1 .552 0 1 .45 1 1z" stroke-linejoin="round" stroke-linecap="round" fill="none" stroke="#000"/></g><g clip-path="url(#0)"><text font-style="italic" font-family="serif" fill="#808080" font-size="12" x="0" y="0" transform="translate(23 231)">A</text></g><g clip-path="url(#0)"><path d="m177.08 215.72c0 .56-.44 1-1 1-.55 0-1-.44-1-1 0-.55.45-1 1-1 .56 0 1 .45 1 1" fill="#808080"/></g><g clip-path="url(#0)"><path d="m177.08 215.72c0 .56-.44 1-1 1-.55 0-1-.44-1-1 0-.55.45-1 1-1 .56 0 1 .45 1 1z" stroke-linejoin="round" stroke-linecap="round" fill="none" stroke="#000"/></g><g clip-path="url(#0)"><text font-style="italic" font-family="serif" fill="#808080" font-size="12" x="0" y="0" transform="translate(173 233)">B</text></g><g clip-path="url(#0)"><path d="m233.86 169.01c0 .55-.45 1-1 1-.55 0-1-.45-1-1 0-.56.45-1 1-1 .55 0 1 .44 1 1" fill="#808080"/></g><g clip-path="url(#0)"><path d="m233.86 169.01c0 .55-.45 1-1 1-.55 0-1-.45-1-1 0-.56.45-1 1-1 .55 0 1 .44 1 1z" stroke-linejoin="round" stroke-linecap="round" fill="none" stroke="#000"/></g><g clip-path="url(#0)"><text font-style="italic" font-family="serif" fill="#808080" font-size="12" x="0" y="0" transform="translate(237 172)">C</text></g><g clip-path="url(#0)"><path d="m90.12 169.01c0 .55-.447 1-1 1-.552 0-1-.45-1-1 0-.56.448-1 1-1 .553 0 1 .44 1 1" fill="#808080"/></g><g clip-path="url(#0)"><path d="m90.12 169.01c0 .55-.447 1-1 1-.552 0-1-.45-1-1 0-.56.448-1 1-1 .553 0 1 .44 1 1z" stroke-linejoin="round" stroke-linecap="round" fill="none" stroke="#000"/></g><g clip-path="url(#0)"><text font-style="italic" font-family="serif" fill="#808080" font-size="12" x="0" y="0" transform="translate(74 170)">D</text></g><g clip-path="url(#0)"><path d="m33.34 71.977c0 .552-.448 1-1 1-.553 0-1-.448-1-1 0-.553.447-1 1-1 .552 0 1 .447 1 1" fill="#808080"/></g><g clip-path="url(#0)"><path d="m33.34 71.977c0 .552-.448 1-1 1-.553 0-1-.448-1-1 0-.553.447-1 1-1 .552 0 1 .447 1 1z" stroke-linejoin="round" stroke-linecap="round" fill="none" stroke="#000"/></g><g clip-path="url(#0)"><text font-style="italic" font-family="serif" fill="#808080" font-size="12" x="0" y="0" transform="translate(19 79)">E</text></g><g clip-path="url(#0)"><path d="m177.08 71.977c0 .552-.44 1-1 1-.55 0-1-.448-1-1 0-.553.45-1 1-1 .56 0 1 .447 1 1" fill="#808080"/></g><g clip-path="url(#0)"><path d="m177.08 71.977c0 .552-.44 1-1 1-.55 0-1-.448-1-1 0-.553.45-1 1-1 .56 0 1 .447 1 1z" stroke-linejoin="round" stroke-linecap="round" fill="none" stroke="#000"/></g><g clip-path="url(#0)"><text font-style="italic" font-family="serif" fill="#808080" font-size="12" x="0" y="0" transform="translate(163 89)">F</text></g><g clip-path="url(#0)"><path d="m233.86 25.26c0 .552-.45 1-1 1-.55 0-1-.448-1-1 0-.552.45-1 1-1 .55 0 1 .448 1 1" fill="#808080"/></g><g clip-path="url(#0)"><path d="m233.86 25.26c0 .552-.45 1-1 1-.55 0-1-.448-1-1 0-.552.45-1 1-1 .55 0 1 .448 1 1z" stroke-linejoin="round" stroke-linecap="round" fill="none" stroke="#000"/></g><g clip-path="url(#0)"><text font-style="italic" font-family="serif" fill="#808080" font-size="12" x="0" y="0" transform="translate(237 23)">G</text></g><g clip-path="url(#0)"><path d="m90.12 25.26c0 .552-.447 1-1 1-.552 0-1-.448-1-1 0-.552.448-1 1-1 .553 0 1 .448 1 1" fill="#808080"/></g><g clip-path="url(#0)"><path d="m90.12 25.26c0 .552-.447 1-1 1-.552 0-1-.448-1-1 0-.552.448-1 1-1 .553 0 1 .448 1 1z" stroke-linejoin="round" stroke-linecap="round" fill="none" stroke="#000"/></g><g clip-path="url(#0)"><text font-style="italic" font-family="serif" fill="#808080" font-size="12" x="0" y="0" transform="translate(78 20)">H</text></g></g></g></svg>