<svg xmlns="http://www.w3.org/2000/svg" width="450.43" height="272.35" viewBox="0 0 644 388" xmlns:xlink="http://www.w3.org/1999/xlink"><defs><path id="6" d="m.469-.656q.125-.063.234-.063.172 0 .25.063.031-.016.062-.047.016 0 .016 0v.016q0 0 0 .016-.016.016-.047.031 0 .016.016.016.031.047.031.109 0 .062-.047.141-.031.047-.109.078-.063.031-.141.031-.016 0-.031 0l-.016.031q-.078.109-.211.18-.133.07-.242.07-.063 0-.102-.016-.039-.016-.039-.063 0-.031.031-.063.016-.031.047-.031.031 0 .031.031 0 .016-.016.031-.016.016-.031.016-.016 0-.031-.016 0 .016 0 .031 0 .031.031.047.031.016.078.016.078 0 .187-.078.109-.078.172-.172.016-.016.023-.023.008-.008.008-.023-.016 0-.016 0-.016-.031-.016-.047 0-.016.016-.047.016-.016.031-.031.016-.016.047-.016v.016q0 0 0 0-.016 0-.031.016-.016 0-.031.031-.016.016-.016.031 0 .016.016.031.016 0 .016 0 .156-.219.281-.328-.063-.047-.219-.047-.109 0-.219.047-.125.063-.188.156-.047.078-.047.125 0 .016 0 .016.016.047.078.047.047 0 .109-.047.063-.047.109-.109.063-.078.063-.141 0-.016 0-.031h.016q0 0 0 0 .016.031.016.047 0 .063-.047.125-.047.078-.125.125-.094.063-.141.063-.047 0-.07-.023-.023-.023-.039-.055 0 0 0-.016 0-.063.063-.141.063-.094.188-.156m.266.359q.047 0 .109-.016.031-.031.063-.078.063-.078.063-.141 0-.047-.016-.063-.078.078-.234.297 0 0 .016 0"/><clipPath id="4"><path d="m-7.6-10.1v26h43v-26z"/></clipPath><clipPath id="5"><path d="m-12.304-14.806v37.14h61.43v-37.14z"/></clipPath><clipPath id="3"><path d="m-6.067-24.1v26h43v-26z"/></clipPath><clipPath id="1"><path d="m-7.667-16.9v26h43v-26z"/></clipPath><clipPath id="0"><path d="m0 0v390h645v-390z"/></clipPath><clipPath id="2"><path d="m-12.399-24.521v37.14h61.43v-37.14z"/></clipPath></defs><g stroke-miterlimit="10" stroke-linecap="square"><g clip-path="url(#0)"><path d="m160.06 215.29l-101.48 50.74h355.18l101.48-50.74z" fill-opacity=".098" fill-rule="evenodd" fill="#390"/></g><g clip-path="url(#0)"><path d="m160.06 316.77l-101.48 50.74 304.44-304.44 101.48-50.74z" fill-opacity=".098" fill-rule="evenodd" fill="#09c"/></g><g clip-path="url(#0)"><path d="m160.06 113.81l-101.48 50.74h355.18l101.48-50.74z" fill-opacity=".098" fill-rule="evenodd" fill="#390"/></g><g clip-path="url(#0)"><path d="m160.06 215.29l-101.48 50.74" stroke-linejoin="round" stroke-linecap="round" fill="none" stroke="#390"/></g><g clip-path="url(#0)"><path d="m58.58 266.03h355.18" stroke-linejoin="round" stroke-linecap="round" fill="none" stroke="#390"/></g><g clip-path="url(#0)"><path d="m413.76 266.03l101.48-50.74" stroke-linejoin="round" stroke-linecap="round" fill="none" stroke="#390"/></g><g clip-path="url(#0)"><path d="m515.24 215.29h-355.18" stroke-linejoin="round" stroke-linecap="round" fill="none" stroke="#390"/></g><g clip-path="url(#0)"><path d="m160.06 316.77l-101.48 50.74" stroke-linejoin="round" stroke-linecap="round" fill="none" stroke="#09c"/></g><g clip-path="url(#0)"><path d="m58.58 367.51l304.44-304.44" stroke-linejoin="round" stroke-linecap="round" fill="none" stroke="#09c"/></g><g clip-path="url(#0)"><path d="m363.02 63.07l101.48-50.74" stroke-linejoin="round" stroke-linecap="round" fill="none" stroke="#09c"/></g><g clip-path="url(#0)"><path d="m464.5 12.331l-304.44 304.44" stroke-linejoin="round" stroke-linecap="round" fill="none" stroke="#09c"/></g><g clip-path="url(#0)"><path d="m160.06 113.81l-101.48 50.74" stroke-linejoin="round" stroke-linecap="round" fill="none" stroke="#390"/></g><g clip-path="url(#0)"><path d="m58.58 164.55h355.18" stroke-linejoin="round" stroke-linecap="round" fill="none" stroke="#390"/></g><g clip-path="url(#0)"><path d="m413.76 164.55l101.48-50.74" stroke-linejoin="round" stroke-linecap="round" fill="none" stroke="#390"/></g><g clip-path="url(#0)"><path d="m515.24 113.81h-355.18" stroke-linejoin="round" stroke-linecap="round" fill="none" stroke="#390"/></g><g clip-path="url(#0)"><path d="m160.06 266.03l101.48-50.74" stroke-linejoin="round" stroke-linecap="round" fill="none" stroke="#f00"/></g><g clip-path="url(#0)"><path d="m261.54 164.55l101.48-50.74" stroke-linejoin="round" stroke-linecap="round" fill="none" stroke="#f00"/></g><g clip-path="url(#1)" transform="matrix(15 0 0 15 115 253.5)"><use fill="#063" xlink:href="#6"/></g><g clip-path="url(#2)" transform="matrix(10.5 0 0 10.5 130.19 257.47)"><path d="m.453-.172l-.031.172h-.375q0-.031.016-.031l.188-.219q.109-.125.109-.219 0-.094-.063-.141-.031-.031-.078-.031-.063 0-.109.063-.016.016-.016.047 0 0 .016 0 .031 0 .047.031 0 .016 0 .016 0 .047-.047.047 0 .016 0 .016-.047 0-.063-.031 0-.016 0-.031 0-.078.063-.125.047-.063.125-.063.109 0 .172.078.031.047.047.109 0 0 0 .016 0 .063-.063.141-.031.031-.094.078l-.047.063h-.016l-.109.109h.188q.078 0 .094 0 0-.016.016-.094h.031" fill="#063"/></g><g clip-path="url(#3)" transform="matrix(15 0 0 15 91 361.5)"><use fill="#09c" xlink:href="#6"/></g><g clip-path="url(#4)" transform="matrix(15 0 0 15 114 151.5)"><use fill="#063" xlink:href="#6"/></g><g clip-path="url(#5)" transform="matrix(10.5 0 0 10.5 129.19 155.47)"><path d="m.297-.641v.562q0 .031.016.031.016.016.078.016h.031v.031q-.031 0-.172 0-.125 0-.156 0v-.031h.031q.078 0 .094-.016 0-.016 0-.031v-.516q-.047.016-.125.016v-.031q.109 0 .172-.063.031 0 .031.016 0 0 0 .016" fill="#063"/></g></g></svg>