<svg xmlns="http://www.w3.org/2000/svg" width="480.39" height="260.43" viewBox="0 0 462 250" xmlns:xlink="http://www.w3.org/1999/xlink"><defs><path id="H" d="m.531-.594h-.313q-.031 0-.031-.016 0-.031.031-.031h.328q-.016-.016-.016-.047 0-.016.016-.031.016 0 .016.031.016.031.047.047.016.016.016.031 0 0-.016.016-.047.016-.078.063-.016.016-.016.016-.016 0-.031-.016 0-.016.047-.063"/><clipPath id="9"><path d="m-8.343-11.714v16.733h30.866v-16.733z"/></clipPath><clipPath id="A"><path d="m-8.4-11.714v16.733h30.867v-16.733z"/></clipPath><clipPath id="G"><path d="m-7-13.417v16.734h30.867v-16.734z"/></clipPath><clipPath id="B"><path d="m-11.587-12.581v16.733h30.867v-16.733z"/></clipPath><clipPath id="C"><path d="m-11.6-12.581v16.733h30.867v-16.733z"/></clipPath><clipPath id="F"><path d="m-15.2-10.417v16.734h30.867v-16.734z"/></clipPath><clipPath id="D"><path d="m-17.533-13.217v16.734h30.866v-16.734z"/></clipPath><clipPath id="E"><path d="m-10.267-9.95v16.733h30.867v-16.733z"/></clipPath><clipPath id="8"><path d="m-11.467-11.314v16.733h30.867v-16.733z"/></clipPath><clipPath id="0"><path d="m0 0v251h463v-251z"/></clipPath><clipPath id="1"><path d="m-18.72-6.648v16.734h30.866v-16.734z"/></clipPath><clipPath id="7"><path d="m-11.581-11.314v16.733h30.867v-16.733z"/></clipPath><clipPath id="2"><path d="m-18.733-6.648v16.734h30.866v-16.734z"/></clipPath><clipPath id="3"><path d="m-15.277-4.781v16.733h30.867v-16.733z"/></clipPath><clipPath id="6"><path d="m-17.333-1.848v16.734h30.866v-16.734z"/></clipPath><clipPath id="4"><path d="m-15.333-4.781v16.733h30.866v-16.733z"/></clipPath><clipPath id="5"><path d="m-17.448-1.848v16.734h30.867v-16.734z"/></clipPath></defs><g stroke-miterlimit="10" stroke-linecap="square"><g clip-path="url(#0)"><path d="m155.78 123.28l-136.6 102.45h273.21l136.6-102.45z" fill-opacity=".098" fill-rule="evenodd" fill="#a0a0a0"/></g><g clip-path="url(#0)"><path d="m155.78 123.28l-136.6 102.45" stroke-linejoin="round" stroke-width=".5" stroke-linecap="round" fill="none" stroke="#a0a0a0"/></g><g clip-path="url(#0)"><path d="m19.18 225.73h273.21" stroke-linejoin="round" stroke-width=".5" stroke-linecap="round" fill="none" stroke="#a0a0a0"/></g><g clip-path="url(#0)"><path d="m292.39 225.73l136.6-102.45" stroke-linejoin="round" stroke-width=".5" stroke-linecap="round" fill="none" stroke="#a0a0a0"/></g><g clip-path="url(#0)"><path d="m428.99 123.28h-273.21" stroke-linejoin="round" stroke-width=".5" stroke-linecap="round" fill="none" stroke="#a0a0a0"/></g><g clip-path="url(#0)"><path d="m155.78 157.43h68.31" stroke-linejoin="round" stroke-dasharray="4.5 4" stroke-width=".5" stroke-linecap="butt" fill="none" stroke="#808080"/></g><g clip-path="url(#0)"><path d="m224.09 157.43l-34.15 34.15" stroke-linejoin="round" stroke-dasharray="4.5 4" stroke-width=".5" stroke-linecap="butt" fill="none" stroke="#808080"/></g><g clip-path="url(#0)"><path d="m223.18 104.58h122.6" stroke-linejoin="round" stroke-linecap="round" fill="none" stroke="#00c"/></g><g clip-path="url(#0)"><path d="m359.78 104.58l-14 3.5v-7z" fill-rule="evenodd" fill="#00c"/></g><g clip-path="url(#0)"><path d="m121.63 191.58h122.61" stroke-linejoin="round" stroke-linecap="round" fill="none" stroke="#00c"/></g><g clip-path="url(#0)"><path d="m258.24 191.58l-14 3.5v-7z" fill-rule="evenodd" fill="#00c"/></g><g clip-path="url(#0)"><path d="m224.09 89.13l24.25-24.25" stroke-linejoin="round" stroke-linecap="round" fill="none" stroke="#0c0"/></g><g clip-path="url(#0)"><path d="m258.24 54.978l-7.43 12.374-4.95-4.95z" fill-rule="evenodd" fill="#0c0"/></g><g clip-path="url(#0)"><path d="m121.63 191.58l24.26-24.25" stroke-linejoin="round" stroke-linecap="round" fill="none" stroke="#0c0"/></g><g clip-path="url(#0)"><path d="m155.78 157.43l-7.42 12.37-4.95-4.95z" fill-rule="evenodd" fill="#0c0"/></g><g clip-path="url(#0)"><path d="m121.63 191.58l89.17-29.72" stroke-linejoin="round" stroke-linecap="round" fill="none" stroke="#f00"/></g><g clip-path="url(#0)"><path d="m224.09 157.43l-12.18 7.75-2.21-6.64z" fill-rule="evenodd" fill="#f00"/></g><g clip-path="url(#0)"><path d="m225 47.19l89.17-29.724" stroke-linejoin="round" stroke-linecap="round" fill="none" stroke="#f00"/></g><g clip-path="url(#0)"><path d="m327.45 13.04l-12.18 7.748-2.21-6.641z" fill-rule="evenodd" fill="#f00"/></g><g clip-path="url(#0)"><path d="m122.63 191.58c0 .55-.44 1-1 1-.55 0-1-.45-1-1 0-.55.45-1 1-1 .56 0 1 .45 1 1" fill="#a0a0a0"/></g><g clip-path="url(#0)"><path d="m122.63 191.58c0 .55-.44 1-1 1-.55 0-1-.45-1-1 0-.55.45-1 1-1 .56 0 1 .45 1 1z" stroke-linejoin="round" stroke-linecap="round" fill="none" stroke="#000"/></g><g clip-path="url(#0)"><path d="m259.24 191.58c0 .55-.45 1-1 1-.56 0-1-.45-1-1 0-.55.44-1 1-1 .55 0 1 .45 1 1" fill="#a0a0a0"/></g><g clip-path="url(#0)"><path d="m259.24 191.58c0 .55-.45 1-1 1-.56 0-1-.45-1-1 0-.55.44-1 1-1 .55 0 1 .45 1 1z" stroke-linejoin="round" stroke-linecap="round" fill="none" stroke="#000"/></g><g clip-path="url(#0)"><path d="m156.78 157.43c0 .55-.44 1-1 1-.55 0-1-.45-1-1 0-.55.45-1 1-1 .56 0 1 .45 1 1" fill="#a0a0a0"/></g><g clip-path="url(#0)"><path d="m156.78 157.43c0 .55-.44 1-1 1-.55 0-1-.45-1-1 0-.55.45-1 1-1 .56 0 1 .45 1 1z" stroke-linejoin="round" stroke-linecap="round" fill="none" stroke="#000"/></g><g clip-path="url(#0)"><path d="m225.09 157.43c0 .55-.45 1-1 1-.56 0-1-.45-1-1 0-.55.44-1 1-1 .55 0 1 .45 1 1" fill="#a0a0a0"/></g><g clip-path="url(#0)"><path d="m225.09 157.43c0 .55-.45 1-1 1-.56 0-1-.45-1-1 0-.55.44-1 1-1 .55 0 1 .45 1 1z" stroke-linejoin="round" stroke-linecap="round" fill="none" stroke="#000"/></g><g clip-path="url(#1)" transform="matrix(15 0 0 15 280.81 99.72)"><use fill="#03c" xlink:href="#H"/></g><g clip-path="url(#2)" transform="matrix(15 0 0 15 281 99.72)"><path d="m.344-.063q-.047.078-.109.078-.078 0-.109-.063-.016-.031-.016-.063 0-.047.047-.203 0 0 .016 0 .016-.047.016-.078 0-.031-.031-.031-.047 0-.094.094 0 .016 0 .031-.016.016-.016.016-.016 0-.016 0 0-.031.016-.063.047-.094.109-.094.063 0 .078.047.016.016.016.031 0 .016-.031.063-.047.141-.047.203 0 .078.063.078.062 0 .109-.063 0-.016 0-.016.031-.094.078-.297.016-.047.047-.047.016.016.016.031 0 0-.016.063 0 .063-.016.078l-.016.109q-.031.078-.031.094 0 .047.031.047.047 0 .078-.094 0-.016 0-.031.016-.016.016-.016.016 0 .016.016 0 .016-.016.062-.016.016-.016.031-.031.063-.078.063-.063 0-.078-.047 0-.016-.016-.031" fill="#03c"/></g><g clip-path="url(#3)" transform="matrix(15 0 0 15 229.15 71.72)"><use fill="#0c0" xlink:href="#H"/></g><g clip-path="url(#4)" transform="matrix(15 0 0 15 230 71.72)"><path d="m.469-.375q0 .063-.031.156-.063.188-.156.219-.016.016-.031.016-.094 0-.125-.063-.016-.031-.016-.063 0-.063.047-.172l.016-.031q.016-.047.016-.078 0-.031-.031-.031-.047 0-.094.094 0 .016 0 .031-.016.016-.016.016-.016 0-.016 0 0-.031.016-.063.047-.094.109-.094.063 0 .078.047.016.016.016.031 0 .016-.016.047-.063.141-.063.203v.016q0 .078.063.078h.016q.078 0 .141-.125.031-.094.031-.141 0-.047-.031-.078-.016-.016-.016-.031 0-.031.031-.047 0 0 .016 0 .031 0 .047.031 0 .016 0 .031" fill="#0c0" id="I"/></g><g clip-path="url(#5)" transform="matrix(15 0 0 15 261.72 27.717)"><use fill="#f00" xlink:href="#H"/></g><g clip-path="url(#6)" transform="matrix(15 0 0 15 260 27.717)"><path d="m.469-.344l-.047.172q-.016.047-.016.078.016.078.078.078.063 0 .109-.078.031-.078.047-.156 0-.016 0-.031 0-.047-.031-.078-.016-.016-.016-.031 0-.031.031-.047.016 0 .016 0 .031 0 .047.031 0 .016 0 .031 0 .063-.031.188-.016.047-.031.078-.047.125-.141.125-.094 0-.125-.078-.047.078-.109.078-.094 0-.125-.078-.016-.016-.016-.047 0-.063.047-.203 0 0 .016 0 .016-.047.016-.078 0-.031-.031-.031-.063 0-.094.109 0 .016 0 .016-.016.016-.016.016-.016 0-.016 0 0-.031.016-.063.047-.094.109-.094.063 0 .078.047.016.016.016.031 0 .016-.031.063-.047.141-.047.187 0 .094.078.094.063 0 .094-.078 0 0 0-.016 0-.031.016-.063l.047-.234q.016-.016.047-.031.016.016.031.031 0 0-.016.063" fill="#f00" id="J"/></g><g clip-path="url(#7)" transform="matrix(15 0 0 15 173.72 169.72)"><use fill="#f00" xlink:href="#H"/></g><g clip-path="url(#8)" transform="matrix(15 0 0 15 172 169.72)"><use xlink:href="#J"/></g><g clip-path="url(#9)" transform="matrix(15 0 0 15 125.15 175.72)"><use fill="#0c0" xlink:href="#H"/></g><g clip-path="url(#A)" transform="matrix(15 0 0 15 126 175.72)"><use xlink:href="#I"/></g><g clip-path="url(#B)" transform="matrix(15 0 0 15 173.81 188.72)"><use fill="#03c" xlink:href="#H"/></g><g clip-path="url(#C)" transform="matrix(15 0 0 15 174 188.72)"><path d="m.344-.063q-.047.078-.109.078-.078 0-.109-.063-.016-.031-.016-.063 0-.047.047-.203 0 0 .016 0 .016-.047.016-.078 0-.031-.031-.031-.047 0-.094.094 0 .016 0 .031-.016.016-.016.016-.016 0-.016 0 0-.031.016-.063.047-.094.109-.094.063 0 .078.047.016.016.016.031 0 .016-.031.063-.047.141-.047.203 0 .078.063.078.062 0 .109-.063 0-.016 0-.016.031-.094.078-.297.016-.047.047-.047.016.016.016.031 0 0-.016.063 0 .063-.016.078l-.016.109q-.031.078-.031.094 0 .047.031.047.047 0 .078-.094 0-.016 0-.031.016-.016.016-.016.016 0 .016.016 0 .016-.016.062-.016.016-.016.031-.031.063-.078.063-.063 0-.078-.047 0-.016-.016-.031" fill="#03c"/></g><g clip-path="url(#D)" transform="matrix(15 0 0 15 263 198.25)"><path d="m.172-.109l.359-.594q0-.016.016-.016.016 0 .016.016.016 0 .016.016l.063.625q0 .016 0 .031.016 0 .063 0 .016 0 .016.016 0 .016-.016.016h-.109-.125q-.016 0-.016-.016 0-.016.016-.016.078 0 .078-.031 0 0-.016-.172h-.25l-.078.125q-.016.031-.016.047 0 .031.047.031.016 0 .016.016 0 .016-.016.016h-.094-.094q-.016 0-.016-.016 0-.016.016-.016h.016q.063 0 .094-.047.016-.016.016-.031m.125-.156h.234l-.031-.328-.203.328" fill="#808080"/></g><g clip-path="url(#E)" transform="matrix(15 0 0 15 154 149.25)"><path d="m.156-.078l.141-.531q0-.016 0-.031 0 0-.016-.016 0 0-.016 0-.016 0-.031 0-.031 0-.031 0 0-.031.016-.031h.016.328q.125 0 .172.078.016.031.016.063 0 .078-.078.141 0 0-.016 0-.047.031-.109.047.109.016.141.078.016.031.016.063 0 .078-.078.141-.078.078-.203.078h-.359q-.016 0-.016-.016 0-.016.016-.016.078 0 .078-.016.016 0 .016-.031m.156-.281h.141q.109 0 .172-.078.047-.047.047-.109 0-.078-.063-.094-.031-.016-.047-.016h-.141q-.031 0-.031.016h-.016q0 0 0 .031l-.063.25m-.047.328h.141q.094 0 .156-.078.047-.047.047-.125 0-.062-.047-.094-.031-.016-.063-.016h-.188l-.078.281q0 .016 0 .016 0 .016 0 .016h.016q0 0 .016 0" fill="#808080"/></g><g clip-path="url(#F)" transform="matrix(15 0 0 15 228 156.25)"><path d="m.766-.688l-.063.25q-.016.016-.016.016h-.016q-.016 0-.016-.016l.016-.047q0-.125-.078-.172-.047-.016-.094-.016-.094 0-.188.078-.031.016-.047.047-.094.109-.125.281 0 .031 0 .047 0 .141.109.188.031.016.094.016.094 0 .172-.063.078-.062.109-.156 0-.016.016-.016 0 0 0 .016 0 .016-.016.063-.031.063-.094.109-.094.078-.203.078-.141 0-.219-.078-.063-.078-.063-.188 0-.156.109-.281.109-.125.234-.156.063-.016.109-.016.109 0 .156.094l.078-.078q.016-.016.016-.016.016 0 .016.016" fill="#808080"/></g><g clip-path="url(#G)" transform="matrix(15 0 0 15 105 201.25)"><path d="m.734-.438q0 .156-.109.281-.094.125-.234.172-.047 0-.078 0-.125 0-.203-.078-.063-.078-.063-.188 0-.141.109-.281.094-.125.234-.156.047-.016.094-.016.125 0 .203.094.047.063.047.172m-.422.438q.094 0 .172-.094.031-.016.047-.031.094-.125.109-.297.016-.031.016-.047 0-.141-.094-.188-.047-.031-.078-.031-.094 0-.188.094-.031.031-.062.063-.078.125-.094.281 0 .016 0 .031 0 .125.078.188.047.031.094.031" fill="#808080"/></g></g></svg>