<svg xmlns="http://www.w3.org/2000/svg" width="343.75" height="108.75" viewBox="0 0 451 142"><defs><clipPath id="0"><path d="m0 0v143h452v-143z"/></clipPath></defs><g stroke-miterlimit="10" stroke-linecap="square"><g><g clip-path="url(#0)"><path d="m134.19 21.11l-93.18 93.18h282l93.18-93.18z" fill-opacity=".098" fill-rule="evenodd" fill="#a0a0a0"/></g><g clip-path="url(#0)"><path d="m134.19 21.11l-93.18 93.18" stroke-linejoin="round" stroke-linecap="round" fill="none" stroke="#a0a0a0"/></g><g clip-path="url(#0)"><path d="m41.01 114.29h282" stroke-linejoin="round" stroke-linecap="round" fill="none" stroke="#a0a0a0"/></g><g clip-path="url(#0)"><path d="m323.01 114.29l93.18-93.18" stroke-linejoin="round" stroke-linecap="round" fill="none" stroke="#a0a0a0"/></g><g clip-path="url(#0)"><path d="m416.19 21.11h-282" stroke-linejoin="round" stroke-linecap="round" fill="none" stroke="#a0a0a0"/></g><g clip-path="url(#0)"><path d="m305.75 70.22l-82.88-22.324" stroke-linejoin="round" stroke-dasharray="5 4" stroke-linecap="butt" fill="none" stroke="#a0a0a0"/></g><g clip-path="url(#0)"><path d="m305.75 70.22l-66.95 19.867" stroke-linejoin="round" stroke-dasharray="5 4" stroke-linecap="butt" fill="none" stroke="#808080"/></g><g clip-path="url(#0)"><path d="m153.96 67.902l99.74 26.08" stroke-linejoin="round" stroke-linecap="round" fill="none" stroke="#000"/></g><g clip-path="url(#0)"><path d="m267.24 97.52l-14.43-.155 1.77-6.773z" fill-rule="evenodd"/></g><g clip-path="url(#0)"><path d="m153.96 67.902l77.43-22.482" stroke-linejoin="round" stroke-linecap="round" fill="none" stroke="#000"/></g><g clip-path="url(#0)"><path d="m244.84 41.516l-12.47 7.265-1.95-6.722z" fill-rule="evenodd"/></g><g clip-path="url(#0)"><path d="m153.96 67.902l137.79 2.104" stroke-linejoin="round" stroke-linecap="round" fill="none" stroke="#f00"/></g><g clip-path="url(#0)"><path d="m305.75 70.22l-14.06 3.286.11-7z" fill-rule="evenodd" fill="#f00"/></g><g clip-path="url(#0)"><path d="m154.96 67.902c0 .553-.45 1-1 1-.55 0-1-.447-1-1 0-.552.45-1 1-1 .55 0 1 .448 1 1" fill="#808080"/></g><g clip-path="url(#0)"><path d="m154.96 67.902c0 .553-.45 1-1 1-.55 0-1-.447-1-1 0-.552.45-1 1-1 .55 0 1 .448 1 1z" stroke-linejoin="round" stroke-linecap="round" fill="none" stroke="#000"/></g><g clip-path="url(#0)"><text font-style="italic" font-family="serif" fill="#808080" font-size="12" x="0" y="0" transform="translate(138 68)">A</text></g><g clip-path="url(#0)"><path d="m268.24 97.52c0 .552-.45 1-1 1-.55 0-1-.448-1-1 0-.552.45-1 1-1 .55 0 1 .448 1 1" fill="#808080"/></g><g clip-path="url(#0)"><path d="m268.24 97.52c0 .552-.45 1-1 1-.55 0-1-.448-1-1 0-.552.45-1 1-1 .55 0 1 .448 1 1z" stroke-linejoin="round" stroke-linecap="round" fill="none" stroke="#000"/></g><g clip-path="url(#0)"><text font-style="italic" font-family="serif" fill="#808080" font-size="12" x="0" y="0" transform="translate(271 96)">B</text></g><g clip-path="url(#0)"><path d="m245.84 41.516c0 .552-.45 1-1 1-.55 0-1-.448-1-1 0-.552.45-1 1-1 .55 0 1 .448 1 1" fill="#808080"/></g><g clip-path="url(#0)"><path d="m245.84 41.516c0 .552-.45 1-1 1-.55 0-1-.448-1-1 0-.552.45-1 1-1 .55 0 1 .448 1 1z" stroke-linejoin="round" stroke-linecap="round" fill="none" stroke="#000"/></g><g clip-path="url(#0)"><text font-style="italic" font-family="serif" fill="#808080" font-size="12" x="0" y="0" transform="translate(249 40)">C</text></g><g clip-path="url(#0)"><path d="m306.75 70.22c0 .552-.45 1-1 1-.56 0-1-.448-1-1 0-.553.44-1 1-1 .55 0 1 .447 1 1" fill="#f00"/></g><g clip-path="url(#0)"><path d="m306.75 70.22c0 .552-.45 1-1 1-.56 0-1-.448-1-1 0-.553.44-1 1-1 .55 0 1 .447 1 1z" stroke-linejoin="round" stroke-linecap="round" fill="none" stroke="#000"/></g><g clip-path="url(#0)"><text font-style="italic" font-family="serif" fill="#f00" font-size="12" x="0" y="0" transform="translate(310 68)">M</text></g></g></g></svg>