<?xml version="1.0" encoding="utf-8"?>
<!-- Generator: Adobe Illustrator 22.1.0, SVG Export Plug-In . SVG Version: 6.00 Build 0)  -->
<svg version="1.1" id="Calque_1" xmlns="http://www.w3.org/2000/svg" xmlns:xlink="http://www.w3.org/1999/xlink" x="0px" y="0px"
	 viewBox="0 0 192.1 93.7" style="enable-background:new 0 0 192.1 93.7;" xml:space="preserve">
<style type="text/css">
	.st0{fill:#FFFFFF;}
</style>
<g>
	<g>
		<path class="st0" d="M96,93.7c-31.5,0-63,0-94.5,0c-1.3,0-1.5-0.2-1.5-1.5C0,61.5,0,30.7,0,0c0-1.3,0.2-1.5,1.5-1.5
			c63,0,126,0,189,0c1.3,0,1.5,0.2,1.5,1.5c-0.1,11.5,0,23,0,34.5c-1,0-2,0-3,0c-0.1-0.6,0.3-1.5-0.9-1.5c-2.7,0-5.4,0-8.1,0
			c-0.1-0.6,0.3-1.5-0.9-1.5c-2.7,0-5.4,0-8.1,0c-0.1-0.6,0.3-1.5-0.9-1.5c-1.7,0-3.4,0-5.1,0c-0.1-0.6,0.3-1.5-0.9-1.5
			c-1.7,0-3.4,0-5.1,0c-0.1-0.6,0.3-1.5-0.9-1.5c-1.2,0-2.4,0-3.6,0c-0.1-0.6,0.3-1.5-0.9-1.5c-1.2,0-2.4,0-3.6,0
			c-0.1-0.6,0.3-1.5-0.9-1.5c-1.2,0-2.4,0-3.6,0c0.1-0.9,0.1-1.7-1.2-1.5c-0.6,0.1-1.2,0-1.8,0c-0.1-0.6,0.3-1.5-0.9-1.5
			c-1.2,0-2.4,0-3.6,0c0.1-0.9,0.1-1.7-1.2-1.5c-0.6,0.1-1.2,0-1.8,0c0.1-0.9,0.1-1.7-1.2-1.5c-0.6,0.1-1.2,0-1.8,0
			c0.1-0.9,0.1-1.7-1.2-1.5c-0.6,0.1-1.2,0-1.8,0c0.1-0.9,0.1-1.7-1.2-1.5c-0.6,0.1-1.2,0-1.8,0c0.1-0.9,0.1-1.7-1.2-1.5
			c-0.6,0.1-1.2,0-1.8,0c-0.1-0.6,0.3-1.5-0.9-1.5c-1.2,0-2.4,0-3.6,0c-0.1-0.6,0.3-1.5-0.9-1.5c-1.2,0-2.4,0-3.6,0
			c-0.1-0.5,0.4-1.4-0.6-1.5c-2.6-0.1-5.2-0.1-7.8,0c-0.9,0-0.5,0.9-0.6,1.5c-0.6,0-1.2,0.1-1.8,0c-1.3-0.2-1.3,0.6-1.2,1.5
			c-1.2-0.2-1.7,0.3-1.5,1.5c-0.2,0-0.5,0-0.7,0c-2.2-0.1-2.2-0.1-2.3-2c0-3.2,0-6.4,0-9.7c0-0.6,0.5-1.7-0.6-1.8
			c-1.5-0.1-0.8,1.3-0.8,1.9c-0.1,4,0,7.9,0,11.9c0,1.2,0.4,2.7-1.5,3.1c-0.1,0,0,0.7,0,1.1c-1.2-0.2-1.7,0.3-1.5,1.5
			c-0.9-0.1-1.7-0.1-1.5,1.2c0.1,0.6,0,1.2,0,1.8c-1.2-0.2-1.7,0.3-1.5,1.5c-1.2-0.2-1.7,0.3-1.5,1.5c-1.2-0.2-1.7,0.3-1.5,1.5
			c-0.9-0.1-1.7-0.1-1.5,1.2c0.1,0.6,0,1.2,0,1.8c-1.2-0.2-1.7,0.3-1.5,1.5c-1.2-0.2-1.7,0.3-1.5,1.5c-1.2-0.2-1.7,0.3-1.5,1.5
			c-1.2-0.2-1.7,0.3-1.5,1.5c-1.2-0.2-1.7,0.3-1.5,1.5c-1.2-0.2-1.7,0.3-1.5,1.5c-1.2-0.2-1.7,0.3-1.5,1.5c-1.2-0.2-1.7,0.3-1.5,1.5
			c-1.2-0.2-1.7,0.3-1.5,1.5c-0.6,0-1.2,0.1-1.8,0C69,43.3,69,44.1,69.1,45c-1.1,0-2.2,0-3.4,0c-0.3,0-1-0.2-1,0.3
			c-0.1,1.9-1.5,1.2-2.5,1.2c-8.6,0-17.2,0-25.8,0c-1,0-1.8,0-2.1-1.3c-0.1-0.4-1.2-0.3-1.2,0.1c0,1.4-0.9,1.2-1.8,1.2
			c-7.2,0-14.5,0-21.7,0c-1.7,0-3.5,0-5.2,0c-0.8,0-1.5,0.1-1.4-1.1c0-0.3-0.5-0.5-0.9-0.4s-0.6,0.3-0.6,0.8c-0.2,2,0,2.2,1.7,2.2
			c0.7,0,1.5,0,2.2,0c17,0,34,0,50.9,0c1,0,2-0.1,3,0s0.5,0.9,0.6,1.5c-1.7,0-3.4,0-5.1,0c-1.2,0-0.8,0.9-0.9,1.5
			c-2.2,0-4.4,0-6.6,0c-1.2,0-0.8,0.9-12.1,1.5c-17.8,0-24.4,0-31,0c-0.7,0-1.5-0.1-2.2,0c-0.4,0-0.6,0.4-0.5,0.8
			c0,0.4,0.2,0.7,0.7,0.7s1,0,1.5,0c13.6,0,27.2,0,40.7,0c0.5,0,1,0,1.5,0c0.4,0,0.6-0.3,0.6-0.7c0.1-0.7-0.1-0.8-0.8-0.8
			c-7.2,0-14.5,0-10.5,0c13.4,0,15.6,0,17.8,0c1.2,0,0.8-0.9,0.9-1.5c1.7,0,3.4,0,5.1,0c1.2,0,0.8-0.9,0.9-1.5
			c1.1-0.4,2.8,1,3.2-1.3c0-0.1,0.6-0.2,1-0.2c10.2,0,20.4,0,30.6,0c1,0,1.3,0.4,1.2,1.3c-0.1,0.9,0,1.7,0,2.6
			C96,65.8,96,79.7,96,93.7z"/>
		<path class="st0" d="M192,48c0,14.8,0,29.5,0,44.2c0,1.3-0.2,1.5-1.5,1.5c-31,0-62,0-93,0c0-4.1,0-8.2,0-12.3c0-1-0.2-1.9,1.3-2.1
			c0.4-0.1,0.5-1,0-1.2c-0.7-0.2-1.2-0.3-1.2-1.3c0.1-9.2,0-18.5,0-27.7c0-0.7,0.1-1.2,1-1.1c1,0,2,0,3,0C131.6,48,161.8,48,192,48z
			"/>
		<path class="st0" d="M192,36c0,3,0,6,0,9c-0.4,0-1.1-0.1-1.1,0c-0.3,1.6-1.5,1.5-2.7,1.5c-8.6,0-17.2,0-25.8,0
			c-1,0-1.9,0.1-2.1-1.3c-0.1-0.4-1.1-0.4-1.2,0.1c0,1.4-0.9,1.2-1.7,1.2c-8.9,0-17.7,0-26.6,0c-1.1,0-1.8-0.1-2.1-1.3
			c-0.1-0.4-1.1-0.3-1.2,0.1c-0.1,1-0.5,1.3-1.4,1.2c-0.1,0-0.2,0-0.4,0c-9,0-18,0-26.9,0c-0.7,0-1.4,0.1-1.4-1.1
			c0-9.2,0-18.5,0-27.7c0-1,0.3-1.3,1.2-1.3c0-1.3,2.2-1.3,1.8-2.9c1.2,0.2,1.7-0.3,1.5-1.5c0.6,0,1.2-0.1,1.8,0
			c1.3,0.2,1.3-0.6,1.2-1.5c3,0,6,0,9,0c0.1,0.6-0.3,1.5,0.9,1.5c1.2,0,2.4,0,3.6,0c0.1,0.6-0.3,1.5,0.9,1.5c1.2,0,2.4,0,3.6,0
			c-0.1,0.9-0.1,1.7,1.2,1.5c0.6-0.1,1.2,0,1.8,0c-0.1,0.9-0.1,1.7,1.2,1.5c0.6-0.1,1.2,0,1.8,0c-0.1,0.9-0.1,1.7,1.2,1.5
			c0.6-0.1,1.2,0,1.8,0c-0.1,0.9-0.1,1.7,1.2,1.5c0.6-0.1,1.2,0,1.8,0c-0.1,0.9-0.1,1.7,1.2,1.5c0.6-0.1,1.2,0,1.8,0
			c0.1,0.6-0.3,1.5,0.9,1.5c1.2,0,2.4,0,3.6,0c-0.1,0.9-0.1,1.7,1.2,1.5c0.6-0.1,1.2,0,1.8,0c0.1,0.6-0.3,1.5,0.9,1.5
			c1.2,0,2.4,0,3.6,0c0.1,0.6-0.3,1.5,0.9,1.5c1.2,0,2.4,0,3.6,0c0.1,0.6-0.3,1.5,0.9,1.5c1.2,0,2.4,0,3.6,0
			c0.1,0.6-0.3,1.5,0.9,1.5c1.7,0,3.4,0,5.1,0c0.1,0.6-0.3,1.5,0.9,1.5c1.7,0,3.4,0,5.1,0c0.1,0.6-0.3,1.5,0.9,1.5
			c2.7,0,5.4,0,8.1,0c0.1,0.6-0.3,1.5,0.9,1.5c2.7,0,5.4,0,8.1,0c-0.1,0.9-0.1,1.7,1.2,1.5C190.8,35.9,191.4,36,192,36z"/>
		<path d="M100.5,13.5c0.4,1.6-1.8,1.6-1.8,2.9c-0.9,0-1.2,0.3-1.2,1.3c0,9.2,0,18.5,0,27.7c0,1.2,0.7,1.1,1.4,1.1c9,0,18,0,26.9,0
			c0.1,0,0.3,0,0.4,0c0.9,0.1,1.3-0.1,1.4-1.2c0-0.4,1.1-0.6,1.2-0.1c0.3,1.3,1,1.3,2.1,1.3c8.9,0,17.7,0,26.6,0
			c0.9,0,1.7,0.2,1.7-1.2c0-0.4,1.1-0.5,1.2-0.1c0.2,1.4,1.1,1.3,2.1,1.3c8.6,0,17.2,0,25.8,0c1.3,0,2.4,0.1,2.7-1.5
			c0-0.1,0.7,0,1.1,0c0,1,0,2,0,3c-30.2,0-60.4,0-90.5,0c-1,0-2,0-3,0c-0.9,0-1,0.4-1,1.1c0,9.2,0,18.5,0,27.7c0,1,0.5,1.1,1.2,1.3
			c0.5,0.2,0.5,1.1,0,1.2c-1.5,0.2-1.3,1.1-1.3,2.1c0,4.1,0,8.2,0,12.3c-0.5,0-1,0-1.5,0c0-14,0-27.9,0-41.9c0-0.9,0-1.7,0-2.6
			c0.1-0.9-0.1-1.3-1.2-1.3c-10.2,0-20.4,0-30.6,0c-0.3,0-1,0.1-1,0.2c-0.4,2.2-2.1,0.9-3.2,1.3c-0.1-0.5,0.4-1.4-0.6-1.5s-2,0-3,0
			c-17,0-34,0-50.9,0c-0.7,0-1.5,0-2.2,0c-1.8,0-1.9-0.2-1.7-2.2c0-0.5,0.2-0.7,0.6-0.8c0.4-0.1,0.9,0.1,0.9,0.4
			c-0.1,1.2,0.7,1.1,1.4,1.1c1.7,0,3.5,0,5.2,0c7.2,0,14.5,0,21.7,0c0.8,0,1.8,0.3,1.8-1.2c0-0.4,1.1-0.5,1.2-0.1
			c0.2,1.3,1,1.3,2.1,1.3c8.6,0,17.2,0,25.8,0c0.9,0,2.3,0.7,2.5-1.2c0-0.4,0.6-0.3,1-0.3c1.1,0,2.2,0,3.4,0c-0.1,1,0.1,1.5,1.3,1.5
			c8.1-0.1,16.2-0.1,24.3,0c1.1,0,1.4-0.3,1.4-1.4c0-8.6,0-17.2,0-25.7c0-0.2,0-0.5,0-0.7c-0.2-0.9-1-0.5-1.5-0.6
			c0-0.4-0.1-1.1,0-1.1c1.9-0.4,1.5-1.8,1.5-3.1c0-4,0-7.9,0-11.9c0-0.7-0.7-2,0.8-1.9c1.2,0,0.6,1.1,0.6,1.8c0.1,3.2,0,6.4,0,9.7
			c0,2,0,2,2.3,2C100,13.5,100.2,13.5,100.5,13.5z"/>
		<path d="M192,36c-0.6,0-1.2-0.1-1.8,0c-1.3,0.2-1.3-0.6-1.2-1.5c1,0,2,0,3,0C192,35,192,35.5,192,36z"/>
		<path d="M24,52.5c7.2,0,14.5,0,21.7,0c0.6,0,0.8,0.1,0.8,0.8c0,0.5-0.2,0.7-0.6,0.7c-0.5,0.1-1,0-1.5,0c-13.6,0-27.2,0-40.7,0
			c-0.5,0-1,0-1.5,0c-0.4,0-0.6-0.2-0.7-0.7c0-0.4,0.1-0.8,0.5-0.8c0.7-0.1,1.5,0,2.2,0C10.8,52.5,17.4,52.5,24,52.5z"/>
		<path d="M114,10.5c-3,0-6,0-9,0c0.1-0.5-0.4-1.4,0.6-1.5c2.6-0.1,5.2-0.1,7.8,0C114.3,9,113.8,9.9,114,10.5z"/>
		<path d="M180,33c-2.7,0-5.4,0-8.1,0c-1.3,0-0.9-0.9-0.9-1.5c2.7,0,5.4,0,8.1,0C180.3,31.4,179.9,32.3,180,33z"/>
		<path d="M189,34.5c-2.7,0-5.4,0-8.1,0c-1.3,0-0.9-0.9-0.9-1.5c2.7,0,5.4,0,8.1,0C189.3,32.9,188.9,33.8,189,34.5z"/>
		<path d="M54,51c-0.1,0.6,0.3,1.5-0.9,1.5c-2.2,0-4.4,0-6.6,0c0.1-0.6-0.3-1.5,0.9-1.5C49.6,51,51.8,51,54,51z"/>
		<path d="M171,31.5c-1.7,0-3.4,0-5.1,0c-1.2,0-0.8-0.9-0.9-1.5c1.7,0,3.4,0,5.1,0C171.3,29.9,170.9,30.8,171,31.5z"/>
		<path d="M165,30c-1.7,0-3.4,0-5.1,0c-1.2,0-0.8-0.9-0.9-1.5c1.7,0,3.4,0,5.1,0C165.3,28.4,164.9,29.3,165,30z"/>
		<path d="M54,51c0.1-0.6-0.3-1.5,0.9-1.5c1.7,0,3.4,0,5.1,0c-0.1,0.6,0.3,1.5-0.9,1.5C57.3,50.9,55.6,51,54,51z"/>
		<path d="M159,28.5c-1.2,0-2.4,0-3.6,0s-0.8-0.9-0.9-1.5c1.2,0,2.4,0,3.6,0C159.3,26.9,158.9,27.8,159,28.5z"/>
		<path d="M118.5,12c-1.2,0-2.4,0-3.6,0s-0.8-0.9-0.9-1.5c1.2,0,2.4,0,3.6,0C118.8,10.4,118.4,11.3,118.5,12z"/>
		<path d="M123,13.5c-1.2,0-2.4,0-3.6,0s-0.8-0.9-0.9-1.5c1.2,0,2.4,0,3.6,0C123.3,11.9,122.9,12.8,123,13.5z"/>
		<path d="M142.5,22.5c-1.2,0-2.4,0-3.6,0s-0.8-0.9-0.9-1.5c1.2,0,2.4,0,3.6,0C142.8,20.9,142.4,21.8,142.5,22.5z"/>
		<path d="M154.5,27c-1.2,0-2.4,0-3.6,0s-0.8-0.9-0.9-1.5c1.2,0,2.4,0,3.6,0C154.8,25.4,154.4,26.3,154.5,27z"/>
		<path d="M150,25.5c-1.2,0-2.4,0-3.6,0s-0.8-0.9-0.9-1.5c1.2,0,2.4,0,3.6,0C150.3,23.9,149.9,24.8,150,25.5z"/>
		<path d="M138,21c-0.6,0-1.2-0.1-1.8,0c-1.3,0.2-1.3-0.6-1.2-1.5c0.6,0,1.2,0.1,1.8,0C138.1,19.2,138,20.1,138,21z"/>
		<path d="M145.5,24c-0.6,0-1.2-0.1-1.8,0c-1.3,0.2-1.3-0.6-1.2-1.5c0.6,0,1.2,0.1,1.8,0C145.6,22.2,145.5,23.1,145.5,24z"/>
		<path d="M85.5,30c0-0.6,0.1-1.2,0-1.8c-0.2-1.3,0.6-1.3,1.5-1.2c0,0.6-0.1,1.2,0,1.8C87.2,30.1,86.3,30,85.5,30z"/>
		<path d="M105,10.5c0.1,0.9,0.1,1.7-1.2,1.5c-0.6-0.1-1.2,0-1.8,0c-0.1-0.9-0.1-1.7,1.2-1.5C103.8,10.5,104.4,10.5,105,10.5z"/>
		<path d="M126,15c-0.6,0-1.2-0.1-1.8,0c-1.3,0.2-1.3-0.6-1.2-1.5c0.6,0,1.2,0.1,1.8,0C126.1,13.2,126,14.1,126,15z"/>
		<path d="M69,45c-0.1-0.9-0.1-1.7,1.2-1.5c0.6,0.1,1.2,0,1.8,0c0.1,0.9,0.1,1.7-1.2,1.5C70.1,44.9,69.5,45,69,45z"/>
		<path d="M129,16.5c-0.6,0-1.2-0.1-1.8,0c-1.3,0.2-1.3-0.6-1.2-1.5c0.6,0,1.2,0.1,1.8,0C129.1,14.7,129,15.6,129,16.5z"/>
		<path d="M132,18c-0.6,0-1.2-0.1-1.8,0c-1.3,0.2-1.3-0.6-1.2-1.5c0.6,0,1.2,0.1,1.8,0C132.1,16.2,132,17.1,132,18z"/>
		<path d="M135,19.5c-0.6,0-1.2-0.1-1.8,0c-1.3,0.2-1.3-0.6-1.2-1.5c0.6,0,1.2,0.1,1.8,0C135.1,17.7,135,18.6,135,19.5z"/>
		<path d="M91.5,22.5c0-0.6,0.1-1.2,0-1.8c-0.2-1.3,0.6-1.3,1.5-1.2c0,0.6-0.1,1.2,0,1.8C93.2,22.6,92.3,22.5,91.5,22.5z"/>
		<path d="M79.5,36c-0.2-1.2,0.3-1.7,1.5-1.5C81.2,35.7,80.7,36.2,79.5,36z"/>
		<path d="M88.5,25.5c-0.2-1.2,0.3-1.7,1.5-1.5C90.2,25.2,89.7,25.7,88.5,25.5z"/>
		<path d="M78,37.5c-0.2-1.2,0.3-1.7,1.5-1.5C79.7,37.2,79.2,37.7,78,37.5z"/>
		<path d="M84,31.5c-0.2-1.2,0.3-1.7,1.5-1.5C85.7,31.2,85.2,31.7,84,31.5z"/>
		<path d="M75,40.5c-0.2-1.2,0.3-1.7,1.5-1.5C76.7,40.2,76.2,40.7,75,40.5z"/>
		<path d="M73.5,42c-0.2-1.2,0.3-1.7,1.5-1.5C75.2,41.7,74.7,42.2,73.5,42z"/>
		<path d="M72,43.5c-0.2-1.2,0.3-1.7,1.5-1.5C73.7,43.2,73.2,43.7,72,43.5z"/>
		<path d="M90,24c-0.2-1.2,0.3-1.7,1.5-1.5C91.7,23.7,91.2,24.2,90,24z"/>
		<path d="M102,12c0.2,1.2-0.3,1.7-1.5,1.5C100.2,12.2,100.7,11.7,102,12z"/>
		<path d="M82.5,33c-0.2-1.2,0.3-1.7,1.5-1.5C84.2,32.7,83.7,33.2,82.5,33z"/>
		<path d="M93,19.5c-0.2-1.2,0.3-1.7,1.5-1.5C94.7,19.2,94.2,19.7,93,19.5z"/>
		<path d="M81,34.5c-0.2-1.2,0.3-1.7,1.5-1.5C82.7,34.2,82.2,34.7,81,34.5z"/>
		<path d="M87,27c-0.2-1.2,0.3-1.7,1.5-1.5C88.7,26.7,88.2,27.2,87,27z"/>
		<path d="M76.5,39c-0.2-1.2,0.3-1.7,1.5-1.5C78.2,38.7,77.7,39.2,76.5,39z"/>
		<path class="st0" d="M76.5,39c1.2,0.2,1.7-0.3,1.5-1.5c1.2,0.2,1.7-0.3,1.5-1.5c1.2,0.2,1.7-0.3,1.5-1.5c1.2,0.2,1.7-0.3,1.5-1.5
			c1.2,0.2,1.7-0.3,1.5-1.5c1.2,0.2,1.7-0.3,1.5-1.5c0.9,0.1,1.7,0.1,1.5-1.2c-0.1-0.6,0-1.2,0-1.8c1.2,0.2,1.7-0.3,1.5-1.5
			c1.2,0.2,1.7-0.3,1.5-1.5c1.2,0.2,1.7-0.3,1.5-1.5c0.9,0.1,1.7,0.1,1.5-1.2c-0.1-0.6,0-1.2,0-1.8c1.2,0.2,1.7-0.3,1.5-1.5
			c0.5,0.1,1.3-0.4,1.5,0.6c0,0.2,0,0.5,0,0.7c0,8.6,0,17.2,0,25.7c0,1.1-0.3,1.5-1.4,1.4c-8.1,0-16.2-0.1-24.3,0
			c-1.3,0-1.5-0.5-1.3-1.5c0.6,0,1.2-0.1,1.8,0c1.3,0.2,1.3-0.6,1.2-1.5c1.2,0.2,1.7-0.3,1.5-1.5c1.2,0.2,1.7-0.3,1.5-1.5
			C76.2,40.7,76.7,40.2,76.5,39z"/>
	</g>
</g>
</svg>
