<svg xmlns="http://www.w3.org/2000/svg" width="550.39" height="484.18" viewBox="0 0 265 233"><defs><clipPath id="5"><path d="m-3.867-4.02v15.6h17.734v-15.6z"/></clipPath><clipPath id="4"><path d="m-6.926-2.429v22.286h25.334v-22.286z"/></clipPath><clipPath id="6"><path d="m-6.545-5.952v22.285h25.333v-22.285z"/></clipPath><clipPath id="3"><path d="m-4.133-1.55v15.6h17.733v-15.6z"/></clipPath><clipPath id="1"><path d="m-13.467-6.417v15.6h17.734v-15.6z"/></clipPath><clipPath id="0"><path d="m0 0v234h266v-234z"/></clipPath><clipPath id="2"><path d="m-20.259-9.381v22.286h25.333v-22.286z"/></clipPath></defs><g stroke-miterlimit="10" stroke-linecap="square"><g clip-path="url(#0)"><path d="m51.605 2v232" stroke-linecap="butt" fill="none" stroke="#000"/></g><g clip-path="url(#0)"><path d="m51.605 1l-3 3" stroke-linecap="butt" fill="none" stroke="#000"/></g><g clip-path="url(#0)"><path d="m51.605 1l3 3" stroke-linecap="butt" fill="none" stroke="#000"/></g><g clip-path="url(#0)"><path d="m0 204.1h264" stroke-linecap="butt" fill="none" stroke="#000"/></g><g clip-path="url(#0)"><path d="m265 204.1l-3-3" stroke-linecap="butt" fill="none" stroke="#000"/></g><g clip-path="url(#0)"><path d="m265 204.1l-3 3" stroke-linecap="butt" fill="none" stroke="#000"/></g><g clip-path="url(#0)"><text font-style="italic" font-family="serif" font-size="10" x="0" y="0" transform="translate(57 218)">0</text></g><g clip-path="url(#0)"><text font-style="italic" font-family="serif" font-size="10" x="0" y="0" transform="translate(130 218)">0.5</text></g><g clip-path="url(#0)"><path d="m137.23 204.1v3" stroke-linecap="butt" fill="none" stroke="#000"/></g><g clip-path="url(#0)"><text font-style="italic" font-family="serif" font-size="10" x="0" y="0" transform="translate(221 218)">1</text></g><g clip-path="url(#0)"><path d="m222.85 204.1v3" stroke-linecap="butt" fill="none" stroke="#000"/></g><g clip-path="url(#0)"><text font-style="italic" font-family="serif" font-size="10" x="0" y="0" transform="translate(40 202)">0</text></g><g clip-path="url(#0)"><text font-style="italic" font-family="serif" font-size="10" x="0" y="0" transform="translate(31 122)">0.5</text></g><g clip-path="url(#0)"><path d="m48.605 118.47h3" stroke-linecap="butt" fill="none" stroke="#000"/></g><g clip-path="url(#0)"><text font-style="italic" font-family="serif" font-size="10" x="0" y="0" transform="translate(40 36)">1</text></g><g clip-path="url(#0)"><path d="m48.605 32.851h3" stroke-linecap="butt" fill="none" stroke="#000"/></g><g><g clip-path="url(#0)"><path d="m51.605 32.851l2.426.035 2.078.084 2.079.134 2.078.184 2.078.234 2.078.283 2.078.332 2.078.38 2.078.428 2.078.474 2.078.521 2.079.565 2.078.61 2.078.653 2.078.695 2.078.736 2.078.776 2.078.814 2.079.852 2.078.888 2.078.922 2.078.956 2.078.989 2.08 1.018 2.08 1.048 2.07 1.076 2.08 1.102 2.08 1.127 2.08 1.15 2.08 1.173 2.08 1.193 2.07 1.213 2.08 1.23 2.08 1.247 2.08 1.262 2.08 1.276 2.07 1.289 2.08 1.3 2.08 1.31 2.08 1.318 2.08 1.327 2.07 1.333 2.08 1.338 2.08 1.342 2.08 1.346 2.08 1.348 2.07 1.35 2.08 1.349 2.08 1.349 2.08 1.348 2.08 1.346 2.08 1.343 2.07 1.339 2.08 1.334 2.08 1.33 2.08 1.323 2.08 1.318 2.07 1.31 2.08 1.304 2.08 1.295 2.08 1.287 2.08 1.278 2.08 1.268 2.07 1.26 2.08 1.249 2.08 1.239 2.08 1.229 2.08 1.22 2.07 1.2 2.08 1.2 2.08 1.18 2.08 1.17 2.08 1.16 2.07 1.15 2.08 1.14 2.08 1.12 2.08 1.11 2.08 1.1 2.07 1.09 2.08 1.07 2.08 1.06 2.08 1.05" stroke-linejoin="round" stroke-width="1.5" stroke-linecap="round" fill="none" stroke="#006400"/></g><g clip-path="url(#0)"><path d="m51.605 32.851l2.426 1.213 2.078 1.039 2.079 1.04 2.078 1.039 2.078 1.039 2.078 1.039 2.078 1.039 2.078 1.039 2.078 1.039 2.078 1.039 2.078 1.039 2.079 1.039 2.078 1.039 2.078 1.039 2.078 1.039 2.078 1.039 2.078 1.039 2.078 1.039 2.079 1.04 2.078 1.039 2.078 1.039 2.078 1.039 2.078 1.039 2.08 1.039 2.08 1.039 2.07 1.039 2.08 1.039 2.08 1.039 2.08 1.039 2.08 1.039 2.08 1.039 2.07 1.039 2.08 1.039 2.08 1.039 2.08 1.04 2.08 1.039 2.07 1.039 2.08 1.039 2.08 1.039 2.08 1.039 2.08 1.039 2.07 1.039 2.08 1.039 2.08 1.039 2.08 1.039 2.08 1.039 2.07 1.039 2.08 1.039 2.08 1.039 2.08 1.039 2.08 1.04 2.08 1.039 2.07 1.039 2.08 1.039 2.08 1.039 2.08 1.039 2.08 1.039 2.07 1.039 2.08 1.039 2.08 1.039 2.08 1.039 2.08 1.039 2.08 1.039 2.07 1.039 2.08 1.035 2.08 1.04 2.08 1.04 2.08 1.04 2.07 1.04 2.08 1.04 2.08 1.04 2.08 1.04 2.08 1.04 2.07 1.04 2.08 1.04 2.08 1.03 2.08 1.04 2.08 1.04 2.07 1.04 2.08 1.04 2.08 1.04 2.08 1.04" stroke-linejoin="round" stroke-width="1.5" stroke-linecap="round" fill="none" stroke="#93f"/></g><g clip-path="url(#0)"><path d="m51.605 32.851l2.426.017 2.078.042 2.079.068 2.078.092 2.078.118 2.078.143 2.078.168 2.078.193 2.078.219 2.078.244 2.078.269 2.079.294 2.078.32 2.078.344 2.078.37 2.078.395 2.078.421 2.078.445 2.079.471 2.078.496 2.078.521 2.078.547 2.078.571 2.08.597 2.08.622 2.07.647 2.08.673 2.08.698 2.08.723 2.08.748 2.08.773 2.07.799 2.08.824 2.08.849 2.08.874 2.08.9 2.07.924 2.08.95 2.08.975 2.08 1 2.08 1.025 2.07 1.051 2.08 1.076 2.08 1.101 2.08 1.127 2.08 1.152 2.07 1.176 2.08 1.203 2.08 1.227 2.08 1.252 2.08 1.278 2.08 1.303 2.07 1.328 2.08 1.354 2.08 1.379 2.08 1.403 2.08 1.429 2.07 1.455 2.08 1.479 2.08 1.505 2.08 1.53 2.08 1.555 2.08 1.581 2.07 1.605 2.08 1.631 2.08 1.656 2.08 1.681 2.08 1.707 2.07 1.732 2.08 1.757 2.08 1.782 2.08 1.807 2.08 1.837 2.07 1.85 2.08 1.89 2.08 1.9 2.08 1.94 2.08 1.96 2.07 1.98 2.08 2.01 2.08 2.03 2.08 2.06" stroke-linejoin="round" stroke-width="1.5" stroke-linecap="round" fill="none" stroke="#f90"/></g><g clip-path="url(#0)"><path d="m222.67 118.47l.18 85.63" stroke-linejoin="round" stroke-linecap="round" fill="none" stroke="#c0c0c0"/></g><g clip-path="url(#0)"><path d="m52.605 32.851c0 .553-.448 1-1 1-.552 0-1-.447-1-1 0-.552.448-1 1-1 .552 0 1 .448 1 1" fill="#444"/></g><g clip-path="url(#0)"><path d="m52.605 32.851c0 .553-.448 1-1 1-.552 0-1-.447-1-1 0-.552.448-1 1-1 .552 0 1 .448 1 1z" stroke-linejoin="round" stroke-linecap="round" fill="none" stroke="#000"/></g><g clip-path="url(#0)"><text font-style="italic" font-family="serif" fill="#444" font-size="12" x="0" y="0" transform="translate(40 25)">A</text></g><g clip-path="url(#0)"><path d="m223.85 118.47c0 .56-.45 1-1 1-.55 0-1-.44-1-1 0-.55.45-1 1-1 .55 0 1 .45 1 1" fill="#444"/></g><g clip-path="url(#0)"><path d="m223.85 118.47c0 .56-.45 1-1 1-.55 0-1-.44-1-1 0-.55.45-1 1-1 .55 0 1 .45 1 1z" stroke-linejoin="round" stroke-linecap="round" fill="none" stroke="#000"/></g><g clip-path="url(#0)"><text font-style="italic" font-family="serif" fill="#444" font-size="12" x="0" y="0" transform="translate(227 116)">B</text></g><g clip-path="url(#1)" transform="matrix(15 0 0 15 202 96.25)"><text font-style="italic" font-family="serif" fill="#063" font-size="1" x="0" y="0">C</text></g><g clip-path="url(#2)" transform="matrix(10.5 0 0 10.5 212.72 98.5)"><text font-style="italic" font-family="serif" fill="#063" font-size="1" x="0" y="0">f</text></g><g clip-path="url(#3)" transform="matrix(15 0 0 15 62 23.25)"><text font-style="italic" font-family="serif" fill="#f90" font-size="1" x="0" y="0">C</text></g><g clip-path="url(#4)" transform="matrix(10.5 0 0 10.5 72.72 25.5)"><text font-style="italic" font-family="serif" fill="#f90" font-size="1" x="0" y="0">h</text></g><g clip-path="url(#5)" transform="matrix(15 0 0 15 58 60.25)"><text font-style="italic" font-family="serif" fill="#60c" font-size="1" x="0" y="0">C</text></g><g clip-path="url(#6)" transform="matrix(10.5 0 0 10.5 68.72 62.5)"><text font-style="italic" font-family="serif" fill="#60c" font-size="1" x="0" y="0">g</text></g></g></g></svg>