<svg xmlns="http://www.w3.org/2000/svg" width="550.39" height="484.18" viewBox="0 0 265 233"><defs><clipPath id="0"><path d="m0 0v234h266v-234z"/></clipPath><clipPath id="1"><path d="m-13.467-6.417v15.6h17.734v-15.6z"/></clipPath><clipPath id="2"><path d="m-20.259-9.381v22.286h25.333v-22.286z"/></clipPath></defs><g stroke-miterlimit="10" stroke-linecap="square"><g clip-path="url(#0)"><path d="m51.605 2v232" stroke-linecap="butt" fill="none" stroke="#000"/></g><g clip-path="url(#0)"><path d="m51.605 1l-3 3" stroke-linecap="butt" fill="none" stroke="#000"/></g><g clip-path="url(#0)"><path d="m51.605 1l3 3" stroke-linecap="butt" fill="none" stroke="#000"/></g><g clip-path="url(#0)"><path d="m0 204.1h264" stroke-linecap="butt" fill="none" stroke="#000"/></g><g clip-path="url(#0)"><path d="m265 204.1l-3-3" stroke-linecap="butt" fill="none" stroke="#000"/></g><g clip-path="url(#0)"><path d="m265 204.1l-3 3" stroke-linecap="butt" fill="none" stroke="#000"/></g><g clip-path="url(#0)"><text font-style="italic" font-family="serif" font-size="10" x="0" y="0" transform="translate(57 218)">0</text></g><g clip-path="url(#0)"><text font-style="italic" font-family="serif" font-size="10" x="0" y="0" transform="translate(130 218)">0.5</text></g><g clip-path="url(#0)"><path d="m137.23 204.1v3" stroke-linecap="butt" fill="none" stroke="#000"/></g><g clip-path="url(#0)"><text font-style="italic" font-family="serif" font-size="10" x="0" y="0" transform="translate(221 218)">1</text></g><g clip-path="url(#0)"><path d="m222.85 204.1v3" stroke-linecap="butt" fill="none" stroke="#000"/></g><g clip-path="url(#0)"><text font-style="italic" font-family="serif" font-size="10" x="0" y="0" transform="translate(40 202)">0</text></g><g clip-path="url(#0)"><text font-style="italic" font-family="serif" font-size="10" x="0" y="0" transform="translate(31 122)">0.5</text></g><g clip-path="url(#0)"><path d="m48.605 118.47h3" stroke-linecap="butt" fill="none" stroke="#000"/></g><g clip-path="url(#0)"><text font-style="italic" font-family="serif" font-size="10" x="0" y="0" transform="translate(40 36)">1</text></g><g clip-path="url(#0)"><path d="m48.605 32.851h3" stroke-linecap="butt" fill="none" stroke="#000"/></g><g><g clip-path="url(#0)"><path d="m51.605 32.851l2.426.035 2.078.084 2.079.134 2.078.184 2.078.234 2.078.283 2.078.332 2.078.38 2.078.428 2.078.474 2.078.521 2.079.565 2.078.61 2.078.653 2.078.695 2.078.736 2.078.776 2.078.814 2.079.852 2.078.888 2.078.922 2.078.956 2.078.989 2.08 1.018 2.08 1.048 2.07 1.076 2.08 1.102 2.08 1.127 2.08 1.15 2.08 1.173 2.08 1.193 2.07 1.213 2.08 1.23 2.08 1.247 2.08 1.262 2.08 1.276 2.07 1.289 2.08 1.3 2.08 1.31 2.08 1.318 2.08 1.327 2.07 1.333 2.08 1.338 2.08 1.342 2.08 1.346 2.08 1.348 2.07 1.35 2.08 1.349 2.08 1.349 2.08 1.348 2.08 1.346 2.08 1.343 2.07 1.339 2.08 1.334 2.08 1.33 2.08 1.323 2.08 1.318 2.07 1.31 2.08 1.304 2.08 1.295 2.08 1.287 2.08 1.278 2.08 1.268 2.07 1.26 2.08 1.249 2.08 1.239 2.08 1.229 2.08 1.22 2.07 1.2 2.08 1.2 2.08 1.18 2.08 1.17 2.08 1.16 2.07 1.15 2.08 1.14 2.08 1.12 2.08 1.11 2.08 1.1 2.07 1.09 2.08 1.07 2.08 1.06 2.08 1.05" stroke-linejoin="round" stroke-width="1.5" stroke-linecap="round" fill="none" stroke="#006400"/></g><g clip-path="url(#0)"><path d="m222.67 118.47l.18 85.63" stroke-linejoin="round" stroke-linecap="round" fill="none" stroke="#c0c0c0"/></g><g clip-path="url(#1)" transform="matrix(15 0 0 15 202 96.25)"><text font-style="italic" font-family="serif" fill="#063" font-size="1" x="0" y="0">C</text></g><g clip-path="url(#2)" transform="matrix(10.5 0 0 10.5 212.72 98.5)"><text font-style="italic" font-family="serif" fill="#063" font-size="1" x="0" y="0">f</text></g></g></g></svg>