<svg xmlns="http://www.w3.org/2000/svg" width="557.8" height="372.39" viewBox="0 0 354 236"><defs><clipPath id="0"><path d="m0 0v237h355v-237z"/></clipPath></defs><g stroke-miterlimit="10" stroke-linecap="square"><g><g clip-path="url(#0)"><path d="m24.444 210.22h298.67l-143.74-108.95z" fill-opacity=".098" fill-rule="evenodd" fill="#00f"/></g><g clip-path="url(#0)"><path d="m179.37 101.27l-107.81-81.71h224z" fill-opacity=".098" fill-rule="evenodd" fill="#390"/></g><g clip-path="url(#0)"><path d="m71.56 19.556l-47.11 190.66" stroke-linejoin="round" stroke-linecap="round" fill="none" stroke="#000"/></g><g clip-path="url(#0)"><path d="m24.444 210.22h298.67" stroke-linejoin="round" stroke-linecap="round" fill="none" stroke="#000"/></g><g clip-path="url(#0)"><path d="m323.11 210.22l-27.55-190.66" stroke-linejoin="round" stroke-linecap="round" fill="none" stroke="#000"/></g><g clip-path="url(#0)"><path d="m295.56 19.556h-224" stroke-linejoin="round" stroke-linecap="round" fill="none" stroke="#390"/></g><g clip-path="url(#0)"><path d="m71.56 19.556l251.55 190.66" stroke-linejoin="round" stroke-linecap="round" fill="none" stroke="#000"/></g><g clip-path="url(#0)"><path d="m24.444 210.22l271.12-190.66" stroke-linejoin="round" stroke-linecap="round" fill="none" stroke="#000"/></g><g clip-path="url(#0)"><path d="m24.444 210.22h298.67" stroke-linejoin="round" stroke-linecap="round" fill="none" stroke="#00f"/></g><g clip-path="url(#0)"><path d="m323.11 210.22l-143.74-108.95" stroke-linejoin="round" stroke-linecap="round" fill="none" stroke="#00f"/></g><g clip-path="url(#0)"><path d="m179.37 101.27l-154.93 108.95" stroke-linejoin="round" stroke-linecap="round" fill="none" stroke="#00f"/></g><g clip-path="url(#0)"><path d="m179.37 101.27l-107.81-81.71" stroke-linejoin="round" stroke-linecap="round" fill="none" stroke="#390"/></g><g clip-path="url(#0)"><path d="m71.56 19.556h224" stroke-linejoin="round" stroke-linecap="round" fill="none" stroke="#390"/></g><g clip-path="url(#0)"><path d="m295.56 19.556l-116.19 81.71" stroke-linejoin="round" stroke-linecap="round" fill="none" stroke="#390"/></g><g clip-path="url(#0)"><path d="m72.56 19.556c0 .552-.448 1-1 1-.553 0-1-.448-1-1 0-.553.447-1 1-1 .552 0 1 .447 1 1" fill="#300"/></g><g clip-path="url(#0)"><path d="m72.56 19.556c0 .552-.448 1-1 1-.553 0-1-.448-1-1 0-.553.447-1 1-1 .552 0 1 .447 1 1z" stroke-linejoin="round" stroke-linecap="round" fill="none" stroke="#000"/></g><g clip-path="url(#0)"><text font-style="italic" font-family="serif" fill="#300" font-size="12" x="0" y="0" transform="translate(53 20)">D</text></g><g clip-path="url(#0)"><path d="m25.444 210.22c0 .55-.447 1-1 1-.552 0-1-.45-1-1 0-.55.448-1 1-1 .553 0 1 .45 1 1" fill="#300"/></g><g clip-path="url(#0)"><path d="m25.444 210.22c0 .55-.447 1-1 1-.552 0-1-.45-1-1 0-.55.448-1 1-1 .553 0 1 .45 1 1z" stroke-linejoin="round" stroke-linecap="round" fill="none" stroke="#000"/></g><g clip-path="url(#0)"><text font-style="italic" font-family="serif" fill="#300" font-size="12" x="0" y="0" transform="translate(8 220)">A</text></g><g clip-path="url(#0)"><path d="m324.11 210.22c0 .55-.45 1-1 1-.55 0-1-.45-1-1 0-.55.45-1 1-1 .55 0 1 .45 1 1" fill="#300"/></g><g clip-path="url(#0)"><path d="m324.11 210.22c0 .55-.45 1-1 1-.55 0-1-.45-1-1 0-.55.45-1 1-1 .55 0 1 .45 1 1z" stroke-linejoin="round" stroke-linecap="round" fill="none" stroke="#000"/></g><g clip-path="url(#0)"><text font-style="italic" font-family="serif" fill="#300" font-size="12" x="0" y="0" transform="translate(330 218)">B</text></g><g clip-path="url(#0)"><path d="m296.56 19.556c0 .552-.45 1-1 1-.56 0-1-.448-1-1 0-.553.44-1 1-1 .55 0 1 .447 1 1" fill="#300"/></g><g clip-path="url(#0)"><path d="m296.56 19.556c0 .552-.45 1-1 1-.56 0-1-.448-1-1 0-.553.44-1 1-1 .55 0 1 .447 1 1z" stroke-linejoin="round" stroke-linecap="round" fill="none" stroke="#000"/></g><g clip-path="url(#0)"><text font-style="italic" font-family="serif" fill="#300" font-size="12" x="0" y="0" transform="translate(300 18)">C</text></g><g clip-path="url(#0)"><path d="m180.37 101.27c0 .55-.45 1-1 1-.56 0-1-.45-1-1 0-.55.44-1 1-1 .55 0 1 .45 1 1" fill="#444"/></g><g clip-path="url(#0)"><path d="m180.37 101.27c0 .55-.45 1-1 1-.56 0-1-.45-1-1 0-.55.44-1 1-1 .55 0 1 .45 1 1z" stroke-linejoin="round" stroke-linecap="round" fill="none" stroke="#000"/></g><g clip-path="url(#0)"><text font-style="italic" font-family="serif" fill="#444" font-size="12" x="0" y="0" transform="translate(155 107)">E</text></g></g></g></svg>