<svg xmlns="http://www.w3.org/2000/svg" width="402" height="438" viewBox="0 0 402 438"><defs><clipPath id="0"><path d="m0 0v439h403v-439z"/></clipPath></defs><g stroke-miterlimit="10" stroke-linecap="square"><g clip-path="url(#0)"><path d="m124.11 2v437" stroke-linecap="butt" fill="none" stroke="#000"/></g><g clip-path="url(#0)"><path d="m124.11 1l-3 3" stroke-linecap="butt" fill="none" stroke="#000"/></g><g clip-path="url(#0)"><path d="m124.11 1l3 3" stroke-linecap="butt" fill="none" stroke="#000"/></g><g clip-path="url(#0)"><path d="m0 305.72h401" stroke-linecap="butt" fill="none" stroke="#000"/></g><g clip-path="url(#0)"><path d="m402 305.72l-3-3" stroke-linecap="butt" fill="none" stroke="#000"/></g><g clip-path="url(#0)"><path d="m402 305.72l-3 3" stroke-linecap="butt" fill="none" stroke="#000"/></g><g clip-path="url(#0)"><text font-style="italic" font-family="serif" font-size="10" x="0" y="0" transform="translate(18 319)">–2</text></g><g clip-path="url(#0)"><path d="m22.627 305.72v3" stroke-linecap="butt" fill="none" stroke="#000"/></g><g clip-path="url(#0)"><text font-style="italic" font-family="serif" font-size="10" x="0" y="0" transform="translate(69 319)">–1</text></g><g clip-path="url(#0)"><path d="m73.37 305.72v3" stroke-linecap="butt" fill="none" stroke="#000"/></g><g clip-path="url(#0)"><text font-style="italic" font-family="serif" font-size="10" x="0" y="0" transform="translate(130 319)">0</text></g><g clip-path="url(#0)"><text font-style="italic" font-family="serif" font-size="10" x="0" y="0" transform="translate(173 319)">1</text></g><g clip-path="url(#0)"><path d="m174.84 305.72v3" stroke-linecap="butt" fill="none" stroke="#000"/></g><g clip-path="url(#0)"><text font-style="italic" font-family="serif" font-size="10" x="0" y="0" transform="translate(224 319)">2</text></g><g clip-path="url(#0)"><path d="m225.58 305.72v3" stroke-linecap="butt" fill="none" stroke="#000"/></g><g clip-path="url(#0)"><text font-style="italic" font-family="serif" font-size="10" x="0" y="0" transform="translate(274 319)">3</text></g><g clip-path="url(#0)"><path d="m276.32 305.72v3" stroke-linecap="butt" fill="none" stroke="#000"/></g><g clip-path="url(#0)"><text font-style="italic" font-family="serif" font-size="10" x="0" y="0" transform="translate(325 319)">4</text></g><g clip-path="url(#0)"><path d="m327.06 305.72v3" stroke-linecap="butt" fill="none" stroke="#000"/></g><g clip-path="url(#0)"><text font-style="italic" font-family="serif" font-size="10" x="0" y="0" transform="translate(376 319)">5</text></g><g clip-path="url(#0)"><path d="m377.8 305.72v3" stroke-linecap="butt" fill="none" stroke="#000"/></g><g clip-path="url(#0)"><text font-style="italic" font-family="serif" font-size="10" x="0" y="0" transform="translate(107 411)">–2</text></g><g clip-path="url(#0)"><path d="m121.11 407.2h3" stroke-linecap="butt" fill="none" stroke="#000"/></g><g clip-path="url(#0)"><text font-style="italic" font-family="serif" font-size="10" x="0" y="0" transform="translate(107 360)">–1</text></g><g clip-path="url(#0)"><path d="m121.11 356.46h3" stroke-linecap="butt" fill="none" stroke="#000"/></g><g clip-path="url(#0)"><text font-style="italic" font-family="serif" font-size="10" x="0" y="0" transform="translate(112 303)">0</text></g><g clip-path="url(#0)"><text font-style="italic" font-family="serif" font-size="10" x="0" y="0" transform="translate(112 258)">1</text></g><g clip-path="url(#0)"><path d="m121.11 254.98h3" stroke-linecap="butt" fill="none" stroke="#000"/></g><g clip-path="url(#0)"><text font-style="italic" font-family="serif" font-size="10" x="0" y="0" transform="translate(112 208)">2</text></g><g clip-path="url(#0)"><path d="m121.11 204.25h3" stroke-linecap="butt" fill="none" stroke="#000"/></g><g clip-path="url(#0)"><text font-style="italic" font-family="serif" font-size="10" x="0" y="0" transform="translate(112 157)">3</text></g><g clip-path="url(#0)"><path d="m121.11 153.51h3" stroke-linecap="butt" fill="none" stroke="#000"/></g><g clip-path="url(#0)"><text font-style="italic" font-family="serif" font-size="10" x="0" y="0" transform="translate(112 106)">4</text></g><g clip-path="url(#0)"><path d="m121.11 102.77h3" stroke-linecap="butt" fill="none" stroke="#000"/></g><g clip-path="url(#0)"><text font-style="italic" font-family="serif" font-size="10" x="0" y="0" transform="translate(112 56)">5</text></g><g clip-path="url(#0)"><path d="m121.11 52.03h3" stroke-linecap="butt" fill="none" stroke="#000"/></g><g><g clip-path="url(#0)"><path d="m29.91-6.795l1.574 8.944 1.575 8.847 1.574 8.749 1.574 8.652 1.574 8.553 1.574 8.457 1.575 8.358 1.574 8.261 1.574 8.163 1.574 8.07 1.575 7.968 1.574 7.87 1.574 7.768 1.574 7.68 1.574 7.58 1.575 7.48 1.574 7.38 1.574 7.28 1.574 7.19 1.575 7.09 1.574 6.99 1.574 6.89 1.574 6.79 1.574 6.7 1.575 6.6 1.574 6.51 1.574 6.4 1.574 6.31 1.574 6.21 1.575 6.11 1.574 6.01 1.574 5.92 1.574 5.82 1.575 5.72 1.574 5.62 1.574 5.53 1.574 5.43 1.574 5.33 1.575 5.23 1.574 5.13 1.574 5.04 3.149 9.78 3.148 9.39 3.15 9 3.15 8.61 3.15 8.22 3.14 7.83 3.15 7.44 3.15 7.04 3.15 6.66 3.15 6.26 3.15 5.88 3.14 5.48 3.15 5.09 3.15 4.7 3.15 4.31 3.15 3.93 3.15 3.53 3.14 3.13 3.15 2.75 3.15 2.36 3.15 1.97 3.15 1.57 3.15 1.19 3.15.79 3.14.41 3.15.001 3.15-.38 3.15-.77 3.15-1.15 3.15-1.55 3.14-1.95 3.15-2.33 3.15-2.72 3.15-3.11 3.15-3.5 3.15-3.9 3.15-4.28 3.14-4.68 3.15-5.07 3.15-5.45 3.15-5.85 3.15-6.24 3.15-6.63 3.14-7.02 3.15-7.41 3.15-7.8 3.15-8.19 3.15-8.58 3.15-8.98 3.15-9.36 3.14-9.76 1.58-5.02 1.57-5.12 1.58-5.22 1.57-5.32 1.57-5.41 1.58-5.52 1.57-5.61 1.58-5.71 1.57-5.8 1.58-5.9 1.57-6 1.57-6.1 1.58-6.2 1.57-6.29 1.58-6.4 1.57-6.48 1.58-6.59 1.57-6.69 1.57-6.78 1.58-6.88 1.57-6.98 1.58-7.07 1.57-7.17 1.57-7.28 1.58-7.36 1.57-7.47 1.58-7.56 1.57-7.67 1.58-7.754 1.57-7.857 1.57-7.955 1.58-8.05 1.57-8.15 1.58-8.247 1.57-8.346 1.58-8.443 1.57-8.54 1.57-8.639 1.58-8.736 1.57-8.833 1.58-8.931" stroke-linejoin="round" stroke-width="1.5" stroke-linecap="round" fill="none" stroke="#03c"/></g><g clip-path="url(#0)"><path d="m0 204.25h3.148 3.148 3.148 3.149 3.148 3.149 3.148 3.149 3.148 3.148 3.149 3.148 3.149 3.148 3.149 3.148 3.148 3.149 3.148 3.149 3.148 3.149 3.148 3.148 3.149 3.148 3.149 3.148 3.149 3.148 3.149 3.148 3.15 3.15 3.15 3.14 3.15 3.15 3.15 3.15 3.15 3.14 3.15 3.15 3.15 3.15 3.15 3.14 3.15 3.15 3.15 3.15 3.15 3.15 3.14 3.15 3.15 3.15 3.15 3.15 3.14 3.15 3.15 3.15 3.15 3.15 3.15 3.14 3.15 3.15 3.15 3.15 3.15 3.14 3.15 3.15 3.15 3.15 3.15 3.15 3.14 3.15 3.15 3.15 3.15 3.15 3.14 3.15 3.15 3.15 3.15 3.15 3.14 3.15 3.15 3.15 3.15 3.15 3.15 3.14 3.15 3.15 3.15 3.15 3.15 3.14 3.15 3.15 3.15 3.15 3.15 3.14 3.15 3.15 3.15 3.15 3.15 3.15 3.14 3.15 3.15 3.15 3.15 3.15 3.14 3.15 3.15 3.15" stroke-linejoin="round" stroke-width="1.5" stroke-linecap="round" fill="none" stroke="#f03"/></g><g clip-path="url(#0)"><path d="m73.37 204.25v101.47" stroke-linejoin="round" stroke-dasharray="5 4" stroke-linecap="butt" fill="none" stroke="#000"/></g><g clip-path="url(#0)"><path d="m276.32 204.25v101.47" stroke-linejoin="round" stroke-dasharray="5 4" stroke-linecap="butt" fill="none" stroke="#000"/></g><g clip-path="url(#0)"><path d="m125.11 305.72c0 .56-.45 1-1 1-.56 0-1-.44-1-1 0-.55.44-1 1-1 .55 0 1 .45 1 1"/></g><g clip-path="url(#0)"><path d="m125.11 305.72c0 .56-.45 1-1 1-.56 0-1-.44-1-1 0-.55.44-1 1-1 .55 0 1 .45 1 1z" stroke-linejoin="round" stroke-linecap="round" fill="none" stroke="#000"/></g><g clip-path="url(#0)"><text font-style="italic" font-family="serif" font-size="12" x="0" y="0" transform="translate(112 319)">O</text></g><g clip-path="url(#0)"><text font-style="italic" font-family="serif" fill="#f03" font-size="12" x="0" y="0" transform="translate(355 196)">y=2</text></g><g clip-path="url(#0)"><text font-style="italic" font-family="serif" fill="#03c" font-size="12" x="0" y="0" transform="translate(320 22)">C</text></g><g clip-path="url(#0)"><text font-style="italic" font-family="serif" fill="#03c" font-size="10" x="0" y="0" transform="translate(328.67 27)">f</text></g></g></g></svg>