<svg xmlns="http://www.w3.org/2000/svg" width="221.56" height="242.51" viewBox="0 0 348 381"><defs><clipPath id="0"><path d="m0 0v382h349v-382z"/></clipPath></defs><g stroke-miterlimit="10" stroke-linecap="square"><g clip-path="url(#0)"><path d="m101.1 2v380" stroke-linecap="butt" fill="none" stroke="#000"/></g><g clip-path="url(#0)"><path d="m101.1 1l-3 3" stroke-linecap="butt" fill="none" stroke="#000"/></g><g clip-path="url(#0)"><path d="m101.1 1l3 3" stroke-linecap="butt" fill="none" stroke="#000"/></g><g clip-path="url(#0)"><path d="m0 307.13h347" stroke-linecap="butt" fill="none" stroke="#000"/></g><g clip-path="url(#0)"><path d="m348 307.13l-3-3" stroke-linecap="butt" fill="none" stroke="#000"/></g><g clip-path="url(#0)"><path d="m348 307.13l-3 3" stroke-linecap="butt" fill="none" stroke="#000"/></g><g><g clip-path="url(#0)"><path d="m0 139.69h2.727 2.727 2.727 2.726 2.727 2.726 2.727 2.726 2.727 2.727 2.726 2.727 2.726 2.727 2.726 2.727 2.727 2.726 2.727 2.726 2.727 2.726 2.727 2.727 2.726 2.727 2.726 2.727 2.726 2.727 2.726 2.727 2.727 2.726 2.727 2.726 2.724 2.73 2.73 2.72 2.73 2.73 2.72 2.73 2.73 2.72 2.73 2.73 2.72 2.73 2.72 2.73 2.73 2.72 2.73 2.73 2.72 2.73 2.73 2.72 2.73 2.73 2.72 2.73 2.73 2.72 2.73 2.73 2.72 2.73 2.73 2.72 2.73 2.73 2.72 2.73 2.73 2.72 2.73 2.72 2.73 2.73 2.72 2.73 2.73 2.72 2.73 2.73 2.72 2.73 2.73 2.72 2.73 2.73 2.72 2.73 2.73 2.72 2.73 2.73 2.72 2.73 2.73 2.72 2.73 2.73 2.72 2.73 2.73 2.72 2.73 2.73 2.72 2.73 2.72 2.73 2.73 2.72 2.73 2.73 2.72 2.73 2.73 2.72 2.73 2.73 2.72 2.73" stroke-linejoin="round" stroke-width="1.5" stroke-linecap="round" fill="none" stroke="#f03"/></g><g clip-path="url(#0)"><path d="m12.27-11.892l1.363 7.03 1.363 6.966 1.363 6.899 1.364 6.833 1.363 6.766 1.363 6.699 1.363 6.633 1.364 6.567 1.363 6.5 1.363 6.433 1.364 6.366 1.363 6.3 1.363 6.234 1.363 6.166 1.364 6.101 1.363 6.03 1.363 5.967 1.364 5.896 1.363 5.84 1.363 5.77 1.363 5.7 1.364 5.63 1.363 5.57 1.363 5.5 1.364 5.43 1.363 5.37 1.363 5.3 1.363 5.24 1.364 5.16 1.363 5.1 1.363 5.04 2.727 9.87 2.726 9.6 2.727 9.34 2.727 9.07 2.726 8.8 2.727 8.54 2.726 8.27 2.727 8.01 2.726 7.73 2.727 7.48 2.726 7.2 2.727 6.94 2.727 6.67 2.726 6.41 2.727 6.14 2.726 5.87 2.724 5.61 2.73 5.34 2.73 5.07 2.72 4.81 2.73 4.54 2.73 4.28 2.72 4.01 2.73 3.74 2.73 3.48 2.72 3.21 2.73 2.94 2.73 2.68 2.72 2.41 2.73 2.14 2.72 1.88 2.73 1.61 2.73 1.34 2.72 1.08 2.73.81 2.73.55 2.72.28 2.73.001 2.73-.25 2.72-.52 2.73-.79 2.73-1.05 2.72-1.32 2.73-1.58 2.73-1.86 2.72-2.12 2.73-2.38 2.73-2.65 2.72-2.92 2.73-3.18 2.73-3.45 2.72-3.72 2.73-3.98 2.73-4.25 2.72-4.52 2.73-4.78 2.73-5.05 2.72-5.31 2.73-5.58 2.72-5.85 2.73-6.12 2.73-6.38 2.72-6.64 2.73-6.92 2.73-7.18 2.72-7.44 2.73-7.72 2.73-7.98 2.72-8.24 2.73-8.51 2.73-8.78 2.72-9.05 2.73-9.31 2.73-9.57 2.72-9.85 1.37-5.02 1.36-5.09 1.36-5.15 1.37-5.22 1.36-5.29 1.36-5.36 1.37-5.42 1.36-5.49 1.36-5.55 1.37-5.62 1.36-5.69 1.36-5.75 1.37-5.82 1.36-5.892 1.36-5.954 1.37-6.02 1.36-6.087 1.36-6.154 1.37-6.221 1.36-6.287 1.36-6.354 1.37-6.42 1.36-6.487 1.36-6.553 1.37-6.621 1.36-6.686 1.36-6.754 1.37-6.82 1.36-6.886 1.36-6.953 1.37-7.02" stroke-linejoin="round" stroke-width="1.5" stroke-linecap="round" fill="none" stroke="#063"/></g><g clip-path="url(#0)"><path d="m45.28 139.69l1.069 4.25 1.363 5.37 1.363 5.3 1.363 5.24 1.364 5.16 1.363 5.1 1.363 5.04 2.727 9.87 2.726 9.6 2.727 9.34 2.727 9.07 2.726 8.8 2.727 8.54 2.726 8.27 2.727 8.01 2.726 7.73 2.727 7.48 2.726 7.2 2.727 6.94 2.727 6.67 2.726 6.41 2.727 6.14 2.726 5.87 2.724 5.61 2.73 5.34 2.73 5.07 2.72 4.81 2.73 4.54 2.73 4.28 2.72 4.01 2.73 3.74 2.73 3.48 2.72 3.21 2.73 2.94 2.73 2.68 2.72 2.41 2.73 2.14 2.72 1.88 2.73 1.61 2.73 1.34 2.72 1.08 2.73.81 2.73.55 2.72.28 2.73.001 2.73-.25 2.72-.52 2.73-.79 2.73-1.05 2.72-1.32 2.73-1.58 2.73-1.86 2.72-2.12 2.73-2.38 2.73-2.65 2.72-2.92 2.73-3.18 2.73-3.45 2.72-3.72 2.73-3.98 2.73-4.25 2.72-4.52 2.73-4.78 2.73-5.05 2.72-5.31 2.73-5.58 2.72-5.85 2.73-6.12 2.73-6.38 2.72-6.64 2.73-6.92 2.73-7.18 2.72-7.44 2.73-7.72 2.73-7.98 2.72-8.24 2.73-8.51 2.73-8.78 2.72-9.05 2.73-9.31 2.73-9.57 2.72-9.85 1.37-5.02 1.36-5.09 1.36-5.15 1.37-5.22 1.36-5.29 1.36-5.36 1.34-5.29" stroke-linejoin="round" stroke-width="2" stroke-linecap="round" fill="none" stroke="#03c"/></g><g clip-path="url(#0)"><path d="m45.28 139.69v167.44" stroke-linejoin="round" stroke-dasharray="5 4" stroke-linecap="butt" fill="none" stroke="#000"/></g><g clip-path="url(#0)"><path d="m268.54 139.69v167.44" stroke-linejoin="round" stroke-dasharray="5 4" stroke-linecap="butt" fill="none" stroke="#000"/></g><g clip-path="url(#0)"><path d="m45.28 307.13h223.26" stroke-linejoin="round" stroke-width="2" stroke-linecap="round" fill="none" stroke="#03c"/></g><g clip-path="url(#0)"><path d="m102.1 307.13c0 .55-.45 1-1 1-.56 0-1-.45-1-1 0-.56.44-1 1-1 .55 0 1 .44 1 1"/></g><g clip-path="url(#0)"><path d="m102.1 307.13c0 .55-.45 1-1 1-.56 0-1-.45-1-1 0-.56.44-1 1-1 .55 0 1 .44 1 1z" stroke-linejoin="round" stroke-linecap="round" fill="none" stroke="#000"/></g><g clip-path="url(#0)"><text font-style="italic" font-family="serif" font-size="12" x="0" y="0" transform="translate(89 320)">O</text></g><g clip-path="url(#0)"><path d="m47.28 307.13c0 1.1-.896 2-2 2-1.105 0-2-.9-2-2 0-1.11.895-2 2-2 1.104 0 2 .89 2 2" fill="#03c"/></g><g clip-path="url(#0)"><path d="m47.28 307.13c0 1.1-.896 2-2 2-1.105 0-2-.9-2-2 0-1.11.895-2 2-2 1.104 0 2 .89 2 2z" stroke-linejoin="round" stroke-linecap="round" fill="none" stroke="#000"/></g><g clip-path="url(#0)"><path d="m270.54 307.13c0 1.1-.9 2-2 2-1.11 0-2-.9-2-2 0-1.11.89-2 2-2 1.1 0 2 .89 2 2" fill="#03c"/></g><g clip-path="url(#0)"><path d="m270.54 307.13c0 1.1-.9 2-2 2-1.11 0-2-.9-2-2 0-1.11.89-2 2-2 1.1 0 2 .89 2 2z" stroke-linejoin="round" stroke-linecap="round" fill="none" stroke="#000"/></g><g clip-path="url(#0)"><path d="m270.54 139.69c0 1.1-.9 2-2 2-1.11 0-2-.9-2-2 0-1.11.89-2 2-2 1.1 0 2 .89 2 2" fill="#03c"/></g><g clip-path="url(#0)"><path d="m270.54 139.69c0 1.1-.9 2-2 2-1.11 0-2-.9-2-2 0-1.11.89-2 2-2 1.1 0 2 .89 2 2z" stroke-linejoin="round" stroke-linecap="round" fill="none" stroke="#000"/></g><g clip-path="url(#0)"><path d="m47.28 139.69c0 1.1-.896 2-2 2-1.105 0-2-.9-2-2 0-1.11.895-2 2-2 1.104 0 2 .89 2 2" fill="#03c"/></g><g clip-path="url(#0)"><path d="m47.28 139.69c0 1.1-.896 2-2 2-1.105 0-2-.9-2-2 0-1.11.895-2 2-2 1.104 0 2 .89 2 2z" stroke-linejoin="round" stroke-linecap="round" fill="none" stroke="#000"/></g><g clip-path="url(#0)"><text font-style="italic" font-family="serif" fill="#f03" font-size="12" x="0" y="0" transform="translate(299 130)">y=m</text></g><g clip-path="url(#0)"><text font-style="italic" font-family="serif" fill="#063" font-size="12" x="0" y="0" transform="translate(310-10)">C</text></g><g clip-path="url(#0)"><text font-style="italic" font-family="serif" fill="#063" font-size="10" x="0" y="0" transform="translate(318.67-5)">f</text></g><g clip-path="url(#0)"><text font-style="italic" font-family="serif" fill="#03c" font-size="12" x="0" y="0" transform="translate(42 323)">x</text></g><g clip-path="url(#0)"><text font-style="italic" font-family="serif" fill="#03c" font-size="10" x="0" y="0" transform="translate(48 328)">1</text></g><g clip-path="url(#0)"><text font-style="italic" font-family="serif" fill="#03c" font-size="12" x="0" y="0" transform="translate(264 324)">x</text></g><g clip-path="url(#0)"><text font-style="italic" font-family="serif" fill="#03c" font-size="10" x="0" y="0" transform="translate(270 329)">2</text></g><g clip-path="url(#0)"><text font-style="italic" font-family="serif" fill="#063" font-size="12" x="0" y="0" transform="translate(22 17)">C</text></g><g clip-path="url(#0)"><text font-style="italic" font-family="serif" fill="#063" font-size="10" x="0" y="0" transform="translate(30.666 22)">f</text></g></g></g></svg>