<svg xmlns="http://www.w3.org/2000/svg" width="286.88" height="204.07" viewBox="0 0 483 344"><defs><clipPath id="0"><path d="m0 0v345h485v-345z"/></clipPath></defs><g stroke-miterlimit="10" stroke-linecap="square"><g clip-path="url(#0)"><path d="m189.72 2v343" stroke-linecap="butt" fill="none" stroke="#000"/></g><g clip-path="url(#0)"><path d="m189.72 1l-3 3" stroke-linecap="butt" fill="none" stroke="#000"/></g><g clip-path="url(#0)"><path d="m189.72 1l3 3" stroke-linecap="butt" fill="none" stroke="#000"/></g><g clip-path="url(#0)"><path d="m0 99.17h483" stroke-linecap="butt" fill="none" stroke="#000"/></g><g clip-path="url(#0)"><path d="m484 99.17l-3-3" stroke-linecap="butt" fill="none" stroke="#000"/></g><g clip-path="url(#0)"><path d="m484 99.17l-3 3" stroke-linecap="butt" fill="none" stroke="#000"/></g><g clip-path="url(#0)"><text font-style="italic" font-family="serif" font-size="10" x="0" y="0" transform="translate(6 113)">–3</text></g><g clip-path="url(#0)"><path d="m10.01 99.17v3" stroke-linecap="butt" fill="none" stroke="#000"/></g><g clip-path="url(#0)"><text font-style="italic" font-family="serif" font-size="10" x="0" y="0" transform="translate(65 113)">–2</text></g><g clip-path="url(#0)"><path d="m69.914 99.17v3" stroke-linecap="butt" fill="none" stroke="#000"/></g><g clip-path="url(#0)"><text font-style="italic" font-family="serif" font-size="10" x="0" y="0" transform="translate(125 113)">–1</text></g><g clip-path="url(#0)"><path d="m129.82 99.17v3" stroke-linecap="butt" fill="none" stroke="#000"/></g><g clip-path="url(#0)"><text font-style="italic" font-family="serif" font-size="10" x="0" y="0" transform="translate(195 113)">0</text></g><g clip-path="url(#0)"><text font-style="italic" font-family="serif" font-size="10" x="0" y="0" transform="translate(248 113)">1</text></g><g clip-path="url(#0)"><path d="m249.62 99.17v3" stroke-linecap="butt" fill="none" stroke="#000"/></g><g clip-path="url(#0)"><text font-style="italic" font-family="serif" font-size="10" x="0" y="0" transform="translate(308 113)">2</text></g><g clip-path="url(#0)"><path d="m309.52 99.17v3" stroke-linecap="butt" fill="none" stroke="#000"/></g><g clip-path="url(#0)"><text font-style="italic" font-family="serif" font-size="10" x="0" y="0" transform="translate(367 113)">3</text></g><g clip-path="url(#0)"><path d="m369.43 99.17v3" stroke-linecap="butt" fill="none" stroke="#000"/></g><g clip-path="url(#0)"><text font-style="italic" font-family="serif" font-size="10" x="0" y="0" transform="translate(427 113)">4</text></g><g clip-path="url(#0)"><path d="m429.33 99.17v3" stroke-linecap="butt" fill="none" stroke="#000"/></g><g clip-path="url(#0)"><path d="m186.72 338.77h3" stroke-linecap="butt" fill="none" stroke="#000"/></g><g clip-path="url(#0)"><text font-style="italic" font-family="serif" font-size="10" x="0" y="0" transform="translate(173 282)">–3</text></g><g clip-path="url(#0)"><path d="m186.72 278.87h3" stroke-linecap="butt" fill="none" stroke="#000"/></g><g clip-path="url(#0)"><text font-style="italic" font-family="serif" font-size="10" x="0" y="0" transform="translate(173 222)">–2</text></g><g clip-path="url(#0)"><path d="m186.72 218.97h3" stroke-linecap="butt" fill="none" stroke="#000"/></g><g clip-path="url(#0)"><text font-style="italic" font-family="serif" font-size="10" x="0" y="0" transform="translate(173 163)">–1</text></g><g clip-path="url(#0)"><path d="m186.72 159.07h3" stroke-linecap="butt" fill="none" stroke="#000"/></g><g clip-path="url(#0)"><text font-style="italic" font-family="serif" font-size="10" x="0" y="0" transform="translate(178 97)">0</text></g><g clip-path="url(#0)"><text font-style="italic" font-family="serif" font-size="10" x="0" y="0" transform="translate(178 43)">1</text></g><g clip-path="url(#0)"><path d="m186.72 39.26h3" stroke-linecap="butt" fill="none" stroke="#000"/></g><g><g clip-path="url(#0)"><path d="m0 113.54l3.789.22 3.789.23 3.789.24 3.789.24 3.789.25 3.789.26 3.789.27 3.789.28 3.79.28 3.789.3 3.789.31 3.789.32 3.789.33 3.789.35 3.789.36 3.789.37 3.789.39 3.789.4 3.789.43 3.789.44 3.789.46 3.789.48 3.789.5 3.79.53 3.789.55 3.789.58 3.784.61 3.79.65 3.79.67 3.79.72 3.79.76 3.79.8 3.79.85 3.79.9 3.79.96 3.79 1.03 3.79 1.1 3.78 1.17 3.79 1.27 3.79 1.36 3.79 1.47 3.79 1.59 3.79 1.74 3.79 1.89 3.79 2.07 3.79 2.28 3.79 2.53 3.79 2.8 3.78 3.14 3.79 3.53 3.79 4.01 3.79 4.59 3.79 5.3 3.79 6.19 3.79 7.32 3.79 8.81 1.89 5.11 1.9 5.69 1.89 6.36 1.9 7.18 1.89 8.14 1.89 9.33.95 5.19.95 5.6.95 6.05.94 6.57.95 7.16.95 7.81.95 8.59.94 9.46.48 5.1.47 5.38.47 5.67.48 6.01.47 6.35.47 6.74.48 7.16.47 7.62.48 8.13m46.89-362.11l1.89 6.02 1.89 5.396 1.9 4.863 3.79 8.414 3.79 7.03 3.79 5.955 3.78 5.111 3.79 4.435 3.79 3.885 3.79 3.432 3.79 3.052 3.79 2.733 3.79 2.462 3.79 2.228 3.79 2.027 3.79 1.852 3.79 1.698 3.78 1.563 3.79 1.443 3.79 1.337 3.79 1.242 3.79 1.156 3.79 1.08 3.79 1.01 3.79.947 3.79.891 3.79.838 3.79.79 3.78.746 3.79.707 3.79.669 3.79.635 3.79.603 3.79.574 3.79.547 3.79.521 3.79.498 3.79.476 3.79.455 3.78.436 3.79.417 3.79.401 3.79.385 3.79.369 3.79.356 3.79.342 3.79.329 3.79.318 3.79.306 3.78.295 3.79.285 3.79.276 3.79.266 3.79.258 3.79.25" stroke-linejoin="round" stroke-width="1.5" stroke-linecap="round" fill="none" stroke="#006400"/></g><g clip-path="url(#0)"><path d="m0 204.59l3.789-.22 3.789-.23 3.789-.23 3.789-.24 3.789-.26 3.789-.26 3.789-.26 3.789-.28 3.79-.29 3.789-.3 3.789-.31 3.789-.32 3.789-.33 3.789-.34 3.789-.36 3.789-.38 3.789-.38 3.789-.41 3.789-.42 3.789-.44 3.789-.46 3.789-.48 3.789-.51 3.79-.52 3.789-.56 3.789-.58 3.784-.61 3.79-.64 3.79-.68 3.79-.71 3.79-.76 3.79-.8 3.79-.85 3.79-.91 3.79-.96 3.79-1.02 3.79-1.1 3.78-1.18 3.79-1.26 3.79-1.36 3.79-1.47 3.79-1.6 3.79-1.73 3.79-1.89 3.79-2.08 3.79-2.28 3.79-2.52 3.79-2.81 3.78-3.14 3.79-3.53 3.79-4.01 3.79-4.58 3.79-5.3 3.79-6.19 3.79-7.33 3.79-8.81 1.89-5.11 1.9-5.68 1.89-6.37 1.9-7.171 1.89-8.144 1.89-9.328.95-5.191.95-5.599.95-6.05.94-6.57.95-7.153.95-7.819.95-8.581.94-9.46.48-5.103.47-5.378.47-5.678.48-6 .47-6.354.47-6.739m42.63 362.33l1.9-8.72 1.89-7.65 1.9-6.77 1.89-6.02 1.89-5.4 1.9-4.86 3.79-8.41 3.79-7.03 3.79-5.95 3.78-5.12 3.79-4.43 3.79-3.89 3.79-3.43 3.79-3.05 3.79-2.73 3.79-2.46 3.79-2.23 3.79-2.03 3.79-1.85 3.79-1.7 3.78-1.56 3.79-1.45 3.79-1.33 3.79-1.24 3.79-1.16 3.79-1.08 3.79-1.01 3.79-.95 3.79-.89 3.79-.84 3.79-.79 3.78-.74 3.79-.71 3.79-.67 3.79-.63 3.79-.61 3.79-.57 3.79-.55 3.79-.52 3.79-.5 3.79-.47 3.79-.46 3.78-.43 3.79-.42 3.79-.4 3.79-.39 3.79-.37 3.79-.35 3.79-.34 3.79-.33 3.79-.32 3.79-.31 3.78-.29 3.79-.29 3.79-.27 3.79-.27 3.79-.26 3.79-.25" stroke-linejoin="round" stroke-width="1.5" stroke-linecap="round" fill="none" stroke="#00f"/></g><g clip-path="url(#0)"><path d="m-5 159.07h495" stroke-linejoin="round" stroke-linecap="round" fill="none" stroke="#f60"/></g><g clip-path="url(#0)"><path d="m-1.214 350l355-355" stroke-linejoin="round" stroke-linecap="round" fill="none" stroke="#09f"/></g><g clip-path="url(#0)"><path d="m380.65 350l-355-355" stroke-linejoin="round" stroke-linecap="round" fill="none" stroke="#0c0"/></g><g clip-path="url(#0)"><path d="m251.62 159.07c0 1.1-.89 2-2 2-1.1 0-2-.9-2-2 0-1.11.9-2 2-2 1.11 0 2 .89 2 2" fill="#fff"/></g><g clip-path="url(#0)"><path d="m251.62 159.07c0 1.1-.89 2-2 2-1.1 0-2-.9-2-2 0-1.11.9-2 2-2 1.11 0 2 .89 2 2z" stroke-linejoin="round" stroke-linecap="round" fill="none" stroke="#000"/></g><g clip-path="url(#0)"><text font-style="italic" font-family="serif" fill="#fff" font-size="12" x="0" y="0" transform="translate(254 155)">D</text></g><g clip-path="url(#0)"><path d="m190.72 159.07c0 .55-.45 1-1 1-.55 0-1-.45-1-1 0-.55.45-1 1-1 .55 0 1 .45 1 1" fill="#60c"/></g><g clip-path="url(#0)"><path d="m190.72 159.07c0 .55-.45 1-1 1-.55 0-1-.45-1-1 0-.55.45-1 1-1 .55 0 1 .45 1 1z" stroke-linejoin="round" stroke-linecap="round" fill="none" stroke="#000"/></g><g clip-path="url(#0)"><text font-style="italic" font-family="serif" fill="#60c" font-size="12" x="0" y="0" transform="translate(192 180)">A</text></g><g clip-path="url(#0)"><path d="m190.72 99.17c0 .553-.45 1-1 1-.55 0-1-.452-1-1 0-.552.45-1 1-1 .55 0 1 .448 1 1"/></g><g clip-path="url(#0)"><path d="m190.72 99.17c0 .553-.45 1-1 1-.55 0-1-.452-1-1 0-.552.45-1 1-1 .55 0 1 .448 1 1z" stroke-linejoin="round" stroke-linecap="round" fill="none" stroke="#000"/></g><g clip-path="url(#0)"><text font-style="italic" font-family="serif" font-size="12" x="0" y="0" transform="translate(175 116)">O</text></g><g clip-path="url(#0)"><text font-style="italic" font-family="serif" fill="#03c" font-size="12" x="0" y="0" transform="translate(11 219)">(C</text></g><g clip-path="url(#0)"><text font-style="italic" font-family="serif" fill="#03c" font-size="10" x="0" y="0" transform="translate(23.662 224)">2</text></g><g clip-path="url(#0)"><text font-style="italic" font-family="serif" fill="#03c" font-size="12" x="0" y="0" transform="translate(29.22 219)">)</text></g><g clip-path="url(#0)"><text font-style="italic" font-family="serif" fill="#f60" font-size="12" x="0" y="0" transform="translate(13 175)">(C</text></g><g clip-path="url(#0)"><text font-style="italic" font-family="serif" fill="#f60" font-size="10" x="0" y="0" transform="translate(25.662 180)">1</text></g><g clip-path="url(#0)"><text font-style="italic" font-family="serif" fill="#f60" font-size="12" x="0" y="0" transform="translate(31.22 175)">)</text></g><g clip-path="url(#0)"><text font-style="italic" font-family="serif" fill="#030" font-size="12" x="0" y="0" transform="translate(12 131)">(C</text></g><g clip-path="url(#0)"><text font-style="italic" font-family="serif" fill="#030" font-size="10" x="0" y="0" transform="translate(24.662 136)">0</text></g><g clip-path="url(#0)"><text font-style="italic" font-family="serif" fill="#030" font-size="12" x="0" y="0" transform="translate(30.22 131)">)</text></g><g clip-path="url(#0)"><text font-style="italic" font-family="serif" fill="#0c0" font-size="12" x="0" y="0" transform="translate(17 23)">(T</text></g><g clip-path="url(#0)"><text font-style="italic" font-family="serif" fill="#0c0" font-size="10" x="0" y="0" transform="translate(28.326 28)">0</text></g><g clip-path="url(#0)"><text font-style="italic" font-family="serif" fill="#0c0" font-size="12" x="0" y="0" transform="translate(33.888 23)">)</text></g><g clip-path="url(#0)"><text font-style="italic" font-family="serif" fill="#09f" font-size="12" x="0" y="0" transform="translate(8 309)">(T</text></g><g clip-path="url(#0)"><text font-style="italic" font-family="serif" fill="#09f" font-size="10" x="0" y="0" transform="translate(19.326 314)">2</text></g><g clip-path="url(#0)"><text font-style="italic" font-family="serif" fill="#09f" font-size="12" x="0" y="0" transform="translate(24.888 309)">)</text></g></g></g></svg>