<svg xmlns="http://www.w3.org/2000/svg" width="150.84" height="143.16" viewBox="0 0 214 204"><defs><clipPath id="0"><path d="m0 0v205h216v-205z"/></clipPath></defs><g stroke-miterlimit="10" stroke-linecap="square"><g clip-path="url(#0)"><path d="m34.1 2v203" stroke-linecap="butt" fill="none" stroke="#000"/></g><g clip-path="url(#0)"><path d="m34.1 1l-3 3" stroke-linecap="butt" fill="none" stroke="#000"/></g><g clip-path="url(#0)"><path d="m34.1 1l3 3" stroke-linecap="butt" fill="none" stroke="#000"/></g><g clip-path="url(#0)"><path d="m0 176.72h214" stroke-linecap="butt" fill="none" stroke="#000"/></g><g clip-path="url(#0)"><path d="m215 176.72l-3-3" stroke-linecap="butt" fill="none" stroke="#000"/></g><g clip-path="url(#0)"><path d="m215 176.72l-3 3" stroke-linecap="butt" fill="none" stroke="#000"/></g><g><g clip-path="url(#0)"><path d="m49.33 25.42l1.298.162m0 0l1.687.231 1.688.253m0 0l1.688.276 1.687.299 1.687.32 1.688.344 1.688.365 1.687.388 1.687.411 1.688.433 1.688.456 1.687.478 1.687.5 1.688.523 1.688.545 1.687.568 1.687.59 1.688.613 1.688.635 1.687.657 1.687.68 1.688.703 1.688.724 1.687.748 1.687.77 1.688.792 1.688.814 1.687.838 1.687.859 1.688.882 1.69.905 1.68.927 1.69.949 1.69.972m0 0l1.69.994 1.69 1.017 1.68 1.039 1.69 1.062 1.69 1.084 1.68 1.106 1.69 1.129 1.69 1.152 1.69 1.173 1.69 1.197 1.68 1.218 1.69 1.242 1.69 1.263 1.68 1.286 1.69 1.309 1.69 1.331 1.69 1.353 1.69 1.376 1.68 1.399 1.69 1.421 1.69 1.443 1.68 1.466 1.69 1.488 1.69 1.51 1.69 1.533 1.69 1.556 1.68 1.578 1.69 1.6 1.69 1.623 1.68 1.645 1.69 1.668 1.69 1.69m0 0l1.69 1.713 1.69 1.735 1.68 1.758 1.69 1.78 1.69 1.802 1.68 1.825 1.69 1.846 1.69 1.87m0 0l1.69 1.89 1.69 1.92 1.68 1.94 1.69 1.95m0 0l1.69 1.99 1.68 2m0 0l.7.84" stroke-linejoin="round" stroke-width="1.5" stroke-linecap="round" fill="none" stroke="#c00"/></g><g clip-path="url(#0)"><path d="m34.1 34.654h50.739" stroke-linejoin="round" stroke-linecap="round" fill="none" stroke="#606060"/></g><g clip-path="url(#0)"><path d="m84.84 34.654v142.07" stroke-linejoin="round" stroke-linecap="round" fill="none" stroke="#606060"/></g><g clip-path="url(#0)"><path d="m34.1 104.07h142.08" stroke-linejoin="round" stroke-linecap="round" fill="none" stroke="#606060"/></g><g clip-path="url(#0)"><path d="m176.18 104.07v72.65" stroke-linejoin="round" stroke-linecap="round" fill="none" stroke="#606060"/></g><g clip-path="url(#0)"><path d="m35.1 176.72c0 .56-.448 1-1 1-.552 0-1-.44-1-1 0-.55.448-1 1-1 .552 0 1 .45 1 1"/></g><g clip-path="url(#0)"><path d="m35.1 176.72c0 .56-.448 1-1 1-.552 0-1-.44-1-1 0-.55.448-1 1-1 .552 0 1 .45 1 1z" stroke-linejoin="round" stroke-linecap="round" fill="none" stroke="#000"/></g><g clip-path="url(#0)"><text font-style="italic" font-family="serif" font-size="12" x="0" y="0" transform="translate(22 191)">O</text></g><g clip-path="url(#0)"><text font-style="italic" font-family="serif" font-size="12" x="0" y="0" transform="translate(79 193)">x</text></g><g clip-path="url(#0)"><text font-style="italic" font-family="serif" font-size="10" x="0" y="0" transform="translate(85 198)">1</text></g><g clip-path="url(#0)"><text font-style="italic" font-family="serif" fill="#f00" font-size="12" x="0" y="0" transform="translate(184 104)">C</text></g><g clip-path="url(#0)"><text font-style="italic" font-family="serif" fill="#f00" font-size="10" x="0" y="0" transform="translate(192.67 109)">f</text></g><g clip-path="url(#0)"><text font-style="italic" font-family="serif" font-size="12" x="0" y="0" transform="translate(170 193)">x</text></g><g clip-path="url(#0)"><text font-style="italic" font-family="serif" font-size="10" x="0" y="0" transform="translate(176 198)">2</text></g><g clip-path="url(#0)"><text font-style="italic" font-family="serif" font-size="12" x="0" y="0" transform="translate(8 40)">f(x</text></g><g clip-path="url(#0)"><text font-style="italic" font-family="serif" font-size="10" x="0" y="0" transform="translate(21.33 45)">1</text></g><g clip-path="url(#0)"><text font-style="italic" font-family="serif" font-size="12" x="0" y="0" transform="translate(26.892 40)">)</text></g><g clip-path="url(#0)"><text font-style="italic" font-family="serif" font-size="12" x="0" y="0" transform="translate(8 106)">f(x</text></g><g clip-path="url(#0)"><text font-style="italic" font-family="serif" font-size="10" x="0" y="0" transform="translate(21.33 111)">2</text></g><g clip-path="url(#0)"><text font-style="italic" font-family="serif" font-size="12" x="0" y="0" transform="translate(26.892 106)">)</text></g></g></g></svg>