<svg xmlns="http://www.w3.org/2000/svg" width="150.84" height="143.16" viewBox="0 0 214 204"><defs><clipPath id="0"><path d="m0 0v205h216v-205z"/></clipPath></defs><g stroke-miterlimit="10" stroke-linecap="square"><g clip-path="url(#0)"><path d="m34.1 2v203" stroke-linecap="butt" fill="none" stroke="#000"/></g><g clip-path="url(#0)"><path d="m34.1 1l-3 3" stroke-linecap="butt" fill="none" stroke="#000"/></g><g clip-path="url(#0)"><path d="m34.1 1l3 3" stroke-linecap="butt" fill="none" stroke="#000"/></g><g clip-path="url(#0)"><path d="m0 176.72h214" stroke-linecap="butt" fill="none" stroke="#000"/></g><g clip-path="url(#0)"><path d="m215 176.72l-3-3" stroke-linecap="butt" fill="none" stroke="#000"/></g><g clip-path="url(#0)"><path d="m215 176.72l-3 3" stroke-linecap="butt" fill="none" stroke="#000"/></g><g><g clip-path="url(#0)"><path d="m49.33 125.07l1.298-.16m0 0l1.687-.23 1.688-.26m0 0l1.688-.27 1.687-.3 1.687-.32 1.688-.34 1.688-.37 1.687-.39 1.687-.41 1.688-.43 1.688-.46 1.687-.47 1.687-.5 1.688-.53 1.688-.54 1.687-.57 1.687-.59 1.688-.61 1.688-.64 1.687-.66 1.687-.68 1.688-.7 1.688-.72 1.687-.75 1.687-.77 1.688-.79 1.688-.82 1.687-.83 1.687-.86 1.688-.89 1.69-.9 1.68-.93 1.69-.95 1.69-.97m0 0l1.69-.99 1.69-1.02 1.68-1.04 1.69-1.06 1.69-1.085 1.68-1.106 1.69-1.129 1.69-1.152 1.69-1.173 1.69-1.197 1.68-1.219 1.69-1.241 1.69-1.263 1.68-1.287 1.69-1.308 1.69-1.331 1.69-1.354 1.69-1.375 1.68-1.399 1.69-1.421 1.69-1.443 1.68-1.466 1.69-1.488 1.69-1.51 1.69-1.533 1.69-1.556 1.68-1.578 1.69-1.6 1.69-1.623 1.68-1.645 1.69-1.668 1.69-1.69m0 0l1.69-1.713 1.69-1.735 1.68-1.758 1.69-1.78 1.69-1.802 1.68-1.825 1.69-1.847 1.69-1.87m0 0l1.69-1.892 1.69-1.915 1.68-1.937 1.69-1.96m0 0l1.69-1.982 1.68-2m0 0l.7-.836" stroke-linejoin="round" stroke-width="1.5" stroke-linecap="round" fill="none" stroke="#c00"/></g><g clip-path="url(#0)"><path d="m34.1 115.84h50.739" stroke-linejoin="round" stroke-linecap="round" fill="none" stroke="#606060"/></g><g clip-path="url(#0)"><path d="m84.84 115.84v60.88" stroke-linejoin="round" stroke-linecap="round" fill="none" stroke="#606060"/></g><g clip-path="url(#0)"><path d="m34.1 46.43h142.08" stroke-linejoin="round" stroke-linecap="round" fill="none" stroke="#606060"/></g><g clip-path="url(#0)"><path d="m176.18 46.43v130.29" stroke-linejoin="round" stroke-linecap="round" fill="none" stroke="#606060"/></g><g clip-path="url(#0)"><path d="m35.1 176.72c0 .56-.448 1-1 1-.552 0-1-.44-1-1 0-.55.448-1 1-1 .552 0 1 .45 1 1"/></g><g clip-path="url(#0)"><path d="m35.1 176.72c0 .56-.448 1-1 1-.552 0-1-.44-1-1 0-.55.448-1 1-1 .552 0 1 .45 1 1z" stroke-linejoin="round" stroke-linecap="round" fill="none" stroke="#000"/></g><g clip-path="url(#0)"><text font-style="italic" font-family="serif" font-size="12" x="0" y="0" transform="translate(22 191)">O</text></g><g clip-path="url(#0)"><text font-style="italic" font-family="serif" font-size="12" x="0" y="0" transform="translate(79 193)">x</text></g><g clip-path="url(#0)"><text font-style="italic" font-family="serif" font-size="10" x="0" y="0" transform="translate(85 198)">1</text></g><g clip-path="url(#0)"><text font-style="italic" font-family="serif" fill="#f00" font-size="12" x="0" y="0" transform="translate(188 58)">C</text></g><g clip-path="url(#0)"><text font-style="italic" font-family="serif" fill="#f00" font-size="10" x="0" y="0" transform="translate(196.67 63)">f</text></g><g clip-path="url(#0)"><text font-style="italic" font-family="serif" font-size="12" x="0" y="0" transform="translate(170 193)">x</text></g><g clip-path="url(#0)"><text font-style="italic" font-family="serif" font-size="10" x="0" y="0" transform="translate(176 198)">2</text></g><g clip-path="url(#0)"><text font-style="italic" font-family="serif" font-size="12" x="0" y="0" transform="translate(6 119)">f(x</text></g><g clip-path="url(#0)"><text font-style="italic" font-family="serif" font-size="10" x="0" y="0" transform="translate(19.33 124)">1</text></g><g clip-path="url(#0)"><text font-style="italic" font-family="serif" font-size="12" x="0" y="0" transform="translate(24.892 119)">)</text></g><g clip-path="url(#0)"><text font-style="italic" font-family="serif" font-size="12" x="0" y="0" transform="translate(8 50)">f(x</text></g><g clip-path="url(#0)"><text font-style="italic" font-family="serif" font-size="10" x="0" y="0" transform="translate(21.33 55)">2</text></g><g clip-path="url(#0)"><text font-style="italic" font-family="serif" font-size="12" x="0" y="0" transform="translate(26.892 50)">)</text></g></g></g></svg>