<svg xmlns="http://www.w3.org/2000/svg" width="520.46" height="488.07" viewBox="0 0 481 451" xmlns:xlink="http://www.w3.org/1999/xlink"><defs><clipPath id="0"><path d="m0 0v452h482v-452z"/></clipPath></defs><g stroke-miterlimit="10" stroke-linecap="square"><g clip-path="url(#0)"><path d="m269.49 2v450" stroke-linecap="butt" fill="none" stroke="#000"/></g><g clip-path="url(#0)"><path d="m269.49 1l-3 3" stroke-linecap="butt" fill="none" stroke="#000"/></g><g clip-path="url(#0)"><path d="m269.49 1l3 3" stroke-linecap="butt" fill="none" stroke="#000"/></g><g clip-path="url(#0)"><path d="m0 361.67h480" stroke-linecap="butt" fill="none" stroke="#000"/></g><g clip-path="url(#0)"><path d="m481 361.67l-3-3" stroke-linecap="butt" fill="none" stroke="#000"/></g><g clip-path="url(#0)"><path d="m481 361.67l-3 3" stroke-linecap="butt" fill="none" stroke="#000"/></g><g clip-path="url(#0)"><text font-style="italic" font-family="Times" font-size="10" x="0" y="0" transform="translate(42 375)">–4</text></g><g clip-path="url(#0)"><path d="m46.35 361.67v3" stroke-linecap="butt" fill="none" stroke="#000"/></g><g clip-path="url(#0)"><text font-style="italic" font-family="Times" font-size="10" x="0" y="0" transform="translate(98 375)">–3</text></g><g clip-path="url(#0)"><path d="m102.14 361.67v3" stroke-linecap="butt" fill="none" stroke="#000"/></g><g clip-path="url(#0)"><text font-style="italic" font-family="Times" font-size="10" x="0" y="0" transform="translate(153 375)">–2</text></g><g clip-path="url(#0)"><path d="m157.92 361.67v3" stroke-linecap="butt" fill="none" stroke="#000"/></g><g clip-path="url(#0)"><text font-style="italic" font-family="Times" font-size="10" x="0" y="0" transform="translate(209 375)">–1</text></g><g clip-path="url(#0)"><path d="m213.71 361.67v3" stroke-linecap="butt" fill="none" stroke="#000"/></g><g clip-path="url(#0)"><text font-style="italic" font-family="Times" font-size="10" x="0" y="0" transform="translate(275 375)">0</text></g><g clip-path="url(#0)"><text font-style="italic" font-family="Times" font-size="10" x="0" y="0" transform="translate(323 375)">1</text></g><g clip-path="url(#0)"><path d="m325.28 361.67v3" stroke-linecap="butt" fill="none" stroke="#000"/></g><g clip-path="url(#0)"><text font-style="italic" font-family="Times" font-size="10" x="0" y="0" transform="translate(379 375)">2</text></g><g clip-path="url(#0)"><path d="m381.06 361.67v3" stroke-linecap="butt" fill="none" stroke="#000"/></g><g clip-path="url(#0)"><text font-style="italic" font-family="Times" font-size="10" x="0" y="0" transform="translate(435 375)">3</text></g><g clip-path="url(#0)"><path d="m436.84 361.67v3" stroke-linecap="butt" fill="none" stroke="#000"/></g><g clip-path="url(#0)"><text font-style="italic" font-family="Times" font-size="10" x="0" y="0" transform="translate(252 440)">–4</text></g><g clip-path="url(#0)"><path d="m266.49 436.05h3" stroke-linecap="butt" fill="none" stroke="#000"/></g><g clip-path="url(#0)"><text font-style="italic" font-family="Times" font-size="10" x="0" y="0" transform="translate(252 402)">–2</text></g><g clip-path="url(#0)"><path d="m266.49 398.86h3" stroke-linecap="butt" fill="none" stroke="#000"/></g><g clip-path="url(#0)"><text font-style="italic" font-family="Times" font-size="10" x="0" y="0" transform="translate(257 359)">0</text></g><g clip-path="url(#0)"><text font-style="italic" font-family="Times" font-size="10" x="0" y="0" transform="translate(257 328)">2</text></g><g clip-path="url(#0)"><path d="m266.49 324.49h3" stroke-linecap="butt" fill="none" stroke="#000"/></g><g clip-path="url(#0)"><text font-style="italic" font-family="Times" font-size="10" x="0" y="0" transform="translate(257 291)">4</text></g><g clip-path="url(#0)"><path d="m266.49 287.3h3" stroke-linecap="butt" fill="none" stroke="#000"/></g><g clip-path="url(#0)"><text font-style="italic" font-family="Times" font-size="10" x="0" y="0" transform="translate(257 254)">6</text></g><g clip-path="url(#0)"><path d="m266.49 250.11h3" stroke-linecap="butt" fill="none" stroke="#000"/></g><g clip-path="url(#0)"><text font-style="italic" font-family="Times" font-size="10" x="0" y="0" transform="translate(257 216)">8</text></g><g clip-path="url(#0)"><path d="m266.49 212.92h3" stroke-linecap="butt" fill="none" stroke="#000"/></g><g clip-path="url(#0)"><text font-style="italic" font-family="Times" font-size="10" x="0" y="0" transform="translate(252 179)">10</text></g><g clip-path="url(#0)"><path d="m266.49 175.73h3" stroke-linecap="butt" fill="none" stroke="#000"/></g><g clip-path="url(#0)"><text font-style="italic" font-family="Times" font-size="10" x="0" y="0" transform="translate(252 142)">12</text></g><g clip-path="url(#0)"><path d="m266.49 138.54h3" stroke-linecap="butt" fill="none" stroke="#000"/></g><g clip-path="url(#0)"><text font-style="italic" font-family="Times" font-size="10" x="0" y="0" transform="translate(252 105)">14</text></g><g clip-path="url(#0)"><path d="m266.49 101.35h3" stroke-linecap="butt" fill="none" stroke="#000"/></g><g clip-path="url(#0)"><text font-style="italic" font-family="Times" font-size="10" x="0" y="0" transform="translate(252 68)">16</text></g><g clip-path="url(#0)"><path d="m266.49 64.16h3" stroke-linecap="butt" fill="none" stroke="#000"/></g><g clip-path="url(#0)"><text font-style="italic" font-family="Times" font-size="10" x="0" y="0" transform="translate(252 30)">18</text></g><g clip-path="url(#0)"><path d="m266.49 26.968h3" stroke-linecap="butt" fill="none" stroke="#000"/></g><g clip-path="url(#0)"><path d="m46.35 0v361.67" stroke-linejoin="round" stroke-linecap="round" fill="none" stroke="#c0c0c0" id="1"/></g><g clip-path="url(#0)"><path d="m46.35 380.67v71.33" stroke-linejoin="round" stroke-linecap="round" fill="none" stroke="#c0c0c0" id="2"/></g><g clip-path="url(#0)"><use xlink:href="#1"/></g><g clip-path="url(#0)"><use xlink:href="#2"/></g><g clip-path="url(#0)"><path d="m102.14 0v361.67" stroke-linejoin="round" stroke-linecap="round" fill="none" stroke="#c0c0c0"/></g><g clip-path="url(#0)"><path d="m102.14 380.67v71.33" stroke-linejoin="round" stroke-linecap="round" fill="none" stroke="#c0c0c0"/></g><g clip-path="url(#0)"><path d="m157.92 0v361.67" stroke-linejoin="round" stroke-linecap="round" fill="none" stroke="#c0c0c0"/></g><g clip-path="url(#0)"><path d="m157.92 380.67v71.33" stroke-linejoin="round" stroke-linecap="round" fill="none" stroke="#c0c0c0"/></g><g clip-path="url(#0)"><path d="m213.71 0v361.67" stroke-linejoin="round" stroke-linecap="round" fill="none" stroke="#c0c0c0"/></g><g clip-path="url(#0)"><path d="m213.71 380.67v71.33" stroke-linejoin="round" stroke-linecap="round" fill="none" stroke="#c0c0c0"/></g><g clip-path="url(#0)"><path d="m325.28 0v361.67" stroke-linejoin="round" stroke-linecap="round" fill="none" stroke="#c0c0c0"/></g><g clip-path="url(#0)"><path d="m325.28 380.67v71.33" stroke-linejoin="round" stroke-linecap="round" fill="none" stroke="#c0c0c0"/></g><g clip-path="url(#0)"><path d="m381.06 0v361.67" stroke-linejoin="round" stroke-linecap="round" fill="none" stroke="#c0c0c0"/></g><g clip-path="url(#0)"><path d="m381.06 380.67v71.33" stroke-linejoin="round" stroke-linecap="round" fill="none" stroke="#c0c0c0"/></g><g clip-path="url(#0)"><path d="m436.84 0v361.67" stroke-linejoin="round" stroke-linecap="round" fill="none" stroke="#c0c0c0"/></g><g clip-path="url(#0)"><path d="m436.84 380.67v71.33" stroke-linejoin="round" stroke-linecap="round" fill="none" stroke="#c0c0c0"/></g><g clip-path="url(#0)"><path d="m0 26.968h248.37" stroke-linejoin="round" stroke-linecap="round" fill="none" stroke="#c0c0c0" id="3"/></g><g clip-path="url(#0)"><path d="m269.49 26.968h212.51" stroke-linejoin="round" stroke-linecap="round" fill="none" stroke="#c0c0c0" id="4"/></g><g clip-path="url(#0)"><use xlink:href="#3"/></g><g clip-path="url(#0)"><use xlink:href="#4"/></g><g clip-path="url(#0)"><path d="m0 64.16h248.37" stroke-linejoin="round" stroke-linecap="round" fill="none" stroke="#c0c0c0"/></g><g clip-path="url(#0)"><path d="m269.49 64.16h212.51" stroke-linejoin="round" stroke-linecap="round" fill="none" stroke="#c0c0c0"/></g><g clip-path="url(#0)"><path d="m0 101.35h248.37" stroke-linejoin="round" stroke-linecap="round" fill="none" stroke="#c0c0c0"/></g><g clip-path="url(#0)"><path d="m269.49 101.35h212.51" stroke-linejoin="round" stroke-linecap="round" fill="none" stroke="#c0c0c0"/></g><g clip-path="url(#0)"><path d="m0 138.54h248.37" stroke-linejoin="round" stroke-linecap="round" fill="none" stroke="#c0c0c0"/></g><g clip-path="url(#0)"><path d="m269.49 138.54h212.51" stroke-linejoin="round" stroke-linecap="round" fill="none" stroke="#c0c0c0"/></g><g clip-path="url(#0)"><path d="m0 175.73h248.37" stroke-linejoin="round" stroke-linecap="round" fill="none" stroke="#c0c0c0"/></g><g clip-path="url(#0)"><path d="m269.49 175.73h212.51" stroke-linejoin="round" stroke-linecap="round" fill="none" stroke="#c0c0c0"/></g><g clip-path="url(#0)"><path d="m0 212.92h248.37" stroke-linejoin="round" stroke-linecap="round" fill="none" stroke="#c0c0c0"/></g><g clip-path="url(#0)"><path d="m269.49 212.92h212.51" stroke-linejoin="round" stroke-linecap="round" fill="none" stroke="#c0c0c0"/></g><g clip-path="url(#0)"><path d="m0 250.11h248.37" stroke-linejoin="round" stroke-linecap="round" fill="none" stroke="#c0c0c0"/></g><g clip-path="url(#0)"><path d="m269.49 250.11h212.51" stroke-linejoin="round" stroke-linecap="round" fill="none" stroke="#c0c0c0"/></g><g clip-path="url(#0)"><path d="m0 287.3h248.37" stroke-linejoin="round" stroke-linecap="round" fill="none" stroke="#c0c0c0"/></g><g clip-path="url(#0)"><path d="m269.49 287.3h212.51" stroke-linejoin="round" stroke-linecap="round" fill="none" stroke="#c0c0c0"/></g><g clip-path="url(#0)"><path d="m0 324.49h248.37" stroke-linejoin="round" stroke-linecap="round" fill="none" stroke="#c0c0c0"/></g><g clip-path="url(#0)"><path d="m269.49 324.49h212.51" stroke-linejoin="round" stroke-linecap="round" fill="none" stroke="#c0c0c0"/></g><g clip-path="url(#0)"><path d="m0 398.86h248.93" stroke-linejoin="round" stroke-linecap="round" fill="none" stroke="#c0c0c0"/></g><g clip-path="url(#0)"><path d="m269.49 398.86h212.51" stroke-linejoin="round" stroke-linecap="round" fill="none" stroke="#c0c0c0"/></g><g clip-path="url(#0)"><path d="m0 436.05h248.93" stroke-linejoin="round" stroke-linecap="round" fill="none" stroke="#c0c0c0"/></g><g clip-path="url(#0)"><path d="m269.49 436.05h212.51" stroke-linejoin="round" stroke-linecap="round" fill="none" stroke="#c0c0c0"/></g><g><g clip-path="url(#0)"><path d="m46.35 398.86l.325-5.88.325-5.81.325-5.74.325-5.68.325-5.61.325-5.55.325-5.48.325-5.41.471-7.73.471-7.59.47-7.47.471-7.33.471-7.21.47-7.08.471-6.95.471-6.83.47-6.71.471-6.59.471-6.47.471-6.36.47-6.24.471-6.12.471-6.02.47-5.9.471-5.79.471-5.68.47-5.58.471-5.47.471-5.37.471-5.26.47-5.17.471-5.06.941-9.83.942-9.45.941-9.07.942-8.71.941-8.36.941-8.01.942-7.67.941-7.35.942-7.03.941-6.72.941-6.42.942-6.12.941-5.84.942-5.562.941-5.293.941-5.03 1.883-9.305 1.883-8.342 1.883-7.432 1.883-6.574 1.883-5.765 1.882-5 3.766-7.889 3.766-5.343.941-.973.941-.838 1.883-1.284.942-.454.941-.336 1.881-.327h.94l.94.104 1.89.51.94.398.94.489 1.88 1.239 3.77 3.438 3.76 4.568 3.77 5.537 3.77 6.359 3.76 7.05 3.77 7.626 3.76 8.095 3.77 8.47 3.76 8.762 3.77 8.98 3.76 9.133 3.77 9.23 3.77 9.26 3.76 9.27 3.77 9.23 3.76 9.15 3.77 9.04 3.76 8.92 3.77 8.76 3.77 8.59 3.76 8.41 3.77 8.21 3.76 8 3.77 7.79 3.76 7.57 3.77 7.34 3.77 7.11 3.76 6.88 3.77 6.65 3.76 6.43 3.77 6.19 3.76 5.97 3.77 5.75 3.76 5.52 3.77 5.32 3.77 5.1 3.76 4.9 3.77 4.69 3.76 4.51 3.77 4.31 3.76 4.13 3.77 3.95 3.76 3.77 3.77 3.61 3.77 3.45 3.76 3.3 3.77 3.14 3.76 3 3.77 2.86 3.76 2.72 3.77 2.6 3.77 2.48 3.76 2.35 3.77 2.25 3.76 2.13 3.77 2.03 3.76 1.93 3.77 1.84 3.77 1.74 3.76 1.66 3.77 1.58 3.76 1.49 3.77 1.42 3.76 1.35 3.77 1.28 3.76 1.22 3.77 1.15 3.77 1.09 3.76 1.03 3.77.99 3.76.93 3.77.88 3.76.83 3.77.8 3.76.75 3.77.71 3.77.67 3.76.63 3.77.61 3.76.57 3.77.54 3.76.51 3.77.48 3.77.46 3.76.43 3.77.4 3.76.39" stroke-linejoin="round" stroke-width="1.5" stroke-linecap="round" fill="none" stroke="#006400"/></g><g clip-path="url(#0)"><path d="m269.49 324.49l-101.67-101.67" stroke-linejoin="round" stroke-linecap="round" fill="none" stroke="#000"/></g><g clip-path="url(#0)"><path d="m157.92 212.92l12.38 7.42-4.95 4.95z" fill-rule="evenodd"/></g><g clip-path="url(#0)"><path d="m269.49 324.49l101.67 101.66" stroke-linejoin="round" stroke-linecap="round" fill="none" stroke="#000"/></g><g clip-path="url(#0)"><path d="m381.06 436.05l-12.37-7.42 4.95-4.95z" fill-rule="evenodd"/></g><g clip-path="url(#0)"><path d="m102.14 25.377l41.78-.062" stroke-linejoin="round" stroke-linecap="round" fill="none" stroke="#000"/></g><g clip-path="url(#0)"><path d="m157.92 25.294l-13.99 3.521-.001-7z" fill-rule="evenodd"/></g><g clip-path="url(#0)"><path d="m102.14 25.377l-41.787-.062" stroke-linejoin="round" stroke-linecap="round" fill="none" stroke="#000"/></g><g clip-path="url(#0)"><path d="m46.35 25.294l14-3.479-.001 7z" fill-rule="evenodd"/></g><g clip-path="url(#0)"><path d="m103.14 25.377c0 .552-.45 1-1 1-.55 0-1-.448-1-1 0-.552.45-1 1-1 .55 0 1 .448 1 1" fill="#300"/></g><g clip-path="url(#0)"><path d="m103.14 25.377c0 .552-.45 1-1 1-.55 0-1-.448-1-1 0-.552.45-1 1-1 .55 0 1 .448 1 1z" stroke-linejoin="round" stroke-linecap="round" fill="none" stroke="#000"/></g><g clip-path="url(#0)"><text font-style="italic" font-family="Times" fill="#300" font-size="12" x="0" y="0" transform="translate(106 17)">A</text></g><g clip-path="url(#0)"><path d="m270.49 324.49c0 .55-.45 1-1 1-.55 0-1-.45-1-1 0-.56.45-1 1-1 .55 0 1 .44 1 1" fill="#444"/></g><g clip-path="url(#0)"><path d="m270.49 324.49c0 .55-.45 1-1 1-.55 0-1-.45-1-1 0-.56.45-1 1-1 .55 0 1 .44 1 1z" stroke-linejoin="round" stroke-linecap="round" fill="none" stroke="#000"/></g><g clip-path="url(#0)"><text font-style="italic" font-family="Times" fill="#444" font-size="12" x="0" y="0" transform="translate(273 322)">B</text></g><g clip-path="url(#0)"><text font-style="italic" font-family="KaTeX_Main" font-size="12" x="0" y="0" transform="translate(26 196)">(C)</text></g></g></g></svg>