<svg xmlns="http://www.w3.org/2000/svg" xmlns:xlink="http://www.w3.org/1999/xlink" width="592.19" height="215.09" viewBox="0 0 846 307"><defs><clipPath id="0"><path d="m0 0v308h848v-308z"/></clipPath><clipPath id="1"><path d="m-.067-.967v9.4h7.133v-9.4z"/></clipPath><clipPath id="2"><path d="m-.067-.967v9.4h7.133v-9.4z"/></clipPath></defs><g stroke-linecap="square" stroke-miterlimit="10"><g clip-path="url(#0)"><path d="m15.11 2v306" stroke-linecap="butt" fill="none" stroke="#000"/></g><g clip-path="url(#0)"><path d="m15.11 1l-3 3" stroke-linecap="butt" fill="none" stroke="#000"/></g><g clip-path="url(#0)"><path d="m15.11 1l3 3" stroke-linecap="butt" fill="none" stroke="#000"/></g><g clip-path="url(#0)"><path d="m0 291.72h846" stroke-linecap="butt" fill="none" stroke="#000"/></g><g clip-path="url(#0)"><path d="m847 291.72l-3-3" stroke-linecap="butt" fill="none" stroke="#000"/></g><g clip-path="url(#0)"><path d="m847 291.72l-3 3" stroke-linecap="butt" fill="none" stroke="#000"/></g><g clip-path="url(#0)"><text font-style="italic" font-family="serif" font-size="10" x="0" y="0" transform="translate(21 305)">0</text></g><g clip-path="url(#0)"><text font-style="italic" font-family="serif" font-size="10" x="0" y="0" transform="translate(64 305)">1</text></g><g clip-path="url(#0)"><path d="m65.844 291.72v3" stroke-linecap="butt" fill="none" stroke="#000"/></g><g clip-path="url(#0)"><text font-style="italic" font-family="serif" font-size="10" x="0" y="0" transform="translate(115 305)">2</text></g><g clip-path="url(#0)"><path d="m116.58 291.72v3" stroke-linecap="butt" fill="none" stroke="#000"/></g><g clip-path="url(#0)"><text font-style="italic" font-family="serif" font-size="10" x="0" y="0" transform="translate(165 305)">3</text></g><g clip-path="url(#0)"><path d="m167.32 291.72v3" stroke-linecap="butt" fill="none" stroke="#000"/></g><g clip-path="url(#0)"><text font-style="italic" font-family="serif" font-size="10" x="0" y="0" transform="translate(216 305)">4</text></g><g clip-path="url(#0)"><path d="m218.06 291.72v3" stroke-linecap="butt" fill="none" stroke="#000"/></g><g clip-path="url(#0)"><text font-style="italic" font-family="serif" font-size="10" x="0" y="0" transform="translate(267 305)">5</text></g><g clip-path="url(#0)"><path d="m268.8 291.72v3" stroke-linecap="butt" fill="none" stroke="#000"/></g><g clip-path="url(#0)"><text font-style="italic" font-family="serif" font-size="10" x="0" y="0" transform="translate(318 305)">6</text></g><g clip-path="url(#0)"><path d="m319.54 291.72v3" stroke-linecap="butt" fill="none" stroke="#000"/></g><g clip-path="url(#0)"><text font-style="italic" font-family="serif" font-size="10" x="0" y="0" transform="translate(368 305)">7</text></g><g clip-path="url(#0)"><path d="m370.28 291.72v3" stroke-linecap="butt" fill="none" stroke="#000"/></g><g clip-path="url(#0)"><text font-style="italic" font-family="serif" font-size="10" x="0" y="0" transform="translate(419 305)">8</text></g><g clip-path="url(#0)"><path d="m421.02 291.72v3" stroke-linecap="butt" fill="none" stroke="#000"/></g><g clip-path="url(#0)"><text font-style="italic" font-family="serif" font-size="10" x="0" y="0" transform="translate(470 305)">9</text></g><g clip-path="url(#0)"><path d="m471.76 291.72v3" stroke-linecap="butt" fill="none" stroke="#000"/></g><g clip-path="url(#0)"><text font-style="italic" font-family="serif" font-size="10" x="0" y="0" transform="translate(518 305)">10</text></g><g clip-path="url(#0)"><path d="m522.5 291.72v3" stroke-linecap="butt" fill="none" stroke="#000"/></g><g clip-path="url(#0)"><text font-style="italic" font-family="serif" font-size="10" x="0" y="0" transform="translate(569 305)">11</text></g><g clip-path="url(#0)"><path d="m573.24 291.72v3" stroke-linecap="butt" fill="none" stroke="#000"/></g><g clip-path="url(#0)"><text font-style="italic" font-family="serif" font-size="10" x="0" y="0" transform="translate(619 305)">12</text></g><g clip-path="url(#0)"><path d="m623.98 291.72v3" stroke-linecap="butt" fill="none" stroke="#000"/></g><g clip-path="url(#0)"><text font-style="italic" font-family="serif" font-size="10" x="0" y="0" transform="translate(670 305)">13</text></g><g clip-path="url(#0)"><path d="m674.72 291.72v3" stroke-linecap="butt" fill="none" stroke="#000"/></g><g clip-path="url(#0)"><text font-style="italic" font-family="serif" font-size="10" x="0" y="0" transform="translate(721 305)">14</text></g><g clip-path="url(#0)"><path d="m725.45 291.72v3" stroke-linecap="butt" fill="none" stroke="#000"/></g><g clip-path="url(#0)"><text font-style="italic" font-family="serif" font-size="10" x="0" y="0" transform="translate(772 305)">15</text></g><g clip-path="url(#0)"><path d="m776.19 291.72v3" stroke-linecap="butt" fill="none" stroke="#000"/></g><g clip-path="url(#0)"><text font-style="italic" font-family="serif" font-size="10" x="0" y="0" transform="translate(822 305)">16</text></g><g clip-path="url(#0)"><path d="m826.93 291.72v3" stroke-linecap="butt" fill="none" stroke="#000"/></g><g clip-path="url(#0)"><text font-style="italic" font-family="serif" font-size="10" x="0" y="0" transform="translate(3 289)">0</text></g><g clip-path="url(#0)"><text font-style="italic" font-family="serif" font-size="10" x="0" y="0" transform="translate(3 244)">1</text></g><g clip-path="url(#0)"><path d="m12.11 240.98h3" stroke-linecap="butt" fill="none" stroke="#000"/></g><g clip-path="url(#0)"><text font-style="italic" font-family="serif" font-size="10" x="0" y="0" transform="translate(3 194)">2</text></g><g clip-path="url(#0)"><path d="m12.11 190.25h3" stroke-linecap="butt" fill="none" stroke="#000"/></g><g clip-path="url(#0)"><text font-style="italic" font-family="serif" font-size="10" x="0" y="0" transform="translate(3 143)">3</text></g><g clip-path="url(#0)"><path d="m12.11 139.51h3" stroke-linecap="butt" fill="none" stroke="#000"/></g><g clip-path="url(#0)"><text font-style="italic" font-family="serif" font-size="10" x="0" y="0" transform="translate(3 92)">4</text></g><g clip-path="url(#0)"><path d="m12.11 88.77h3" stroke-linecap="butt" fill="none" stroke="#000"/></g><g clip-path="url(#0)"><text font-style="italic" font-family="serif" font-size="10" x="0" y="0" transform="translate(3 42)">5</text></g><g clip-path="url(#0)"><path d="m12.11 38.03h3" stroke-linecap="butt" fill="none" stroke="#000"/></g><g clip-path="url(#0)"><path d="m65.844 0v291.72" stroke-linejoin="round" stroke-dasharray="1 3" stroke-linecap="butt" fill="none" stroke="#a0a0a0"/></g><g clip-path="url(#0)"><path d="m116.58 0v291.72" stroke-linejoin="round" stroke-dasharray="1 3" stroke-linecap="butt" fill="none" stroke="#a0a0a0"/></g><g clip-path="url(#0)"><path d="m167.32 0v291.72" stroke-linejoin="round" stroke-dasharray="1 3" stroke-linecap="butt" fill="none" stroke="#a0a0a0"/></g><g clip-path="url(#0)"><path d="m218.06 0v291.72" stroke-linejoin="round" stroke-dasharray="1 3" stroke-linecap="butt" fill="none" stroke="#a0a0a0"/></g><g clip-path="url(#0)"><path d="m268.8 0v291.72" stroke-linejoin="round" stroke-dasharray="1 3" stroke-linecap="butt" fill="none" stroke="#a0a0a0"/></g><g clip-path="url(#0)"><path d="m319.54 0v291.72" stroke-linejoin="round" stroke-dasharray="1 3" stroke-linecap="butt" fill="none" stroke="#a0a0a0"/></g><g clip-path="url(#0)"><path d="m370.28 0v291.72" stroke-linejoin="round" stroke-dasharray="1 3" stroke-linecap="butt" fill="none" stroke="#a0a0a0"/></g><g clip-path="url(#0)"><path d="m421.02 0v291.72" stroke-linejoin="round" stroke-dasharray="1 3" stroke-linecap="butt" fill="none" stroke="#a0a0a0"/></g><g clip-path="url(#0)"><path d="m471.76 0v291.72" stroke-linejoin="round" stroke-dasharray="1 3" stroke-linecap="butt" fill="none" stroke="#a0a0a0"/></g><g clip-path="url(#0)"><path d="m522.5 0v291.72" stroke-linejoin="round" stroke-dasharray="1 3" stroke-linecap="butt" fill="none" stroke="#a0a0a0"/></g><g clip-path="url(#0)"><path d="m573.24 0v291.72" stroke-linejoin="round" stroke-dasharray="1 3" stroke-linecap="butt" fill="none" stroke="#a0a0a0"/></g><g clip-path="url(#0)"><path d="m623.98 0v291.72" stroke-linejoin="round" stroke-dasharray="1 3" stroke-linecap="butt" fill="none" stroke="#a0a0a0"/></g><g clip-path="url(#0)"><path d="m674.72 0v291.72" stroke-linejoin="round" stroke-dasharray="1 3" stroke-linecap="butt" fill="none" stroke="#a0a0a0"/></g><g clip-path="url(#0)"><path d="m725.45 0v291.72" stroke-linejoin="round" stroke-dasharray="1 3" stroke-linecap="butt" fill="none" stroke="#a0a0a0"/></g><g clip-path="url(#0)"><path d="m776.19 0v291.72" stroke-linejoin="round" stroke-dasharray="1 3" stroke-linecap="butt" fill="none" stroke="#a0a0a0"/></g><g clip-path="url(#0)"><path d="m826.93 0v291.72" stroke-linejoin="round" stroke-dasharray="1 3" stroke-linecap="butt" fill="none" stroke="#a0a0a0"/></g><g clip-path="url(#0)"><path d="m0 38.03h-.456" stroke-linejoin="round" stroke-dasharray="1 3" stroke-linecap="butt" fill="none" stroke="#a0a0a0" id="3"/></g><g clip-path="url(#0)"><path d="m15.11 38.03h832.89" stroke-linejoin="round" stroke-dasharray="1 3" stroke-linecap="butt" fill="none" stroke="#a0a0a0" id="4"/></g><g clip-path="url(#0)"><use xlink:href="#3"/></g><g clip-path="url(#0)"><use xlink:href="#4"/></g><g clip-path="url(#0)"><path d="m0 88.77h-.456" stroke-linejoin="round" stroke-dasharray="1 3" stroke-linecap="butt" fill="none" stroke="#a0a0a0"/></g><g clip-path="url(#0)"><path d="m15.11 88.77h832.89" stroke-linejoin="round" stroke-dasharray="1 3" stroke-linecap="butt" fill="none" stroke="#a0a0a0"/></g><g clip-path="url(#0)"><path d="m0 139.51h-.456" stroke-linejoin="round" stroke-dasharray="1 3" stroke-linecap="butt" fill="none" stroke="#a0a0a0"/></g><g clip-path="url(#0)"><path d="m15.11 139.51h832.89" stroke-linejoin="round" stroke-dasharray="1 3" stroke-linecap="butt" fill="none" stroke="#a0a0a0"/></g><g clip-path="url(#0)"><path d="m0 190.25h-.456" stroke-linejoin="round" stroke-dasharray="1 3" stroke-linecap="butt" fill="none" stroke="#a0a0a0"/></g><g clip-path="url(#0)"><path d="m15.11 190.25h832.89" stroke-linejoin="round" stroke-dasharray="1 3" stroke-linecap="butt" fill="none" stroke="#a0a0a0"/></g><g clip-path="url(#0)"><path d="m0 240.98h-.456" stroke-linejoin="round" stroke-dasharray="1 3" stroke-linecap="butt" fill="none" stroke="#a0a0a0"/></g><g clip-path="url(#0)"><path d="m15.11 240.98h832.89" stroke-linejoin="round" stroke-dasharray="1 3" stroke-linecap="butt" fill="none" stroke="#a0a0a0"/></g><g><g clip-path="url(#0)"><path d="m15 292l2.595-2.71 2.489-2.32 2.489-2.21 2.49-2.13 2.489-2.04 2.49-1.96 2.489-1.89 2.489-1.82 2.49-1.75 2.489-1.7 2.49-1.64 2.489-1.6 2.489-1.54 2.49-1.5 2.489-1.45 2.489-1.42 2.49-1.37 2.489-1.34 2.49-1.31 2.489-1.27 2.489-1.24 2.49-1.21 2.489-1.18 2.49-1.16 2.489-1.13 2.489-1.11 2.49-1.08 2.489-1.06 2.49-1.04 2.489-1.01 2.489-1 2.49-.98 2.489-.96 2.49-.94 2.485-.92 2.49-.91 2.49-.89 2.49-.88 2.49-.86 2.49-.85 2.49-.83 2.49-.82 2.49-.81 2.49-.8 2.49-.78 2.49-.77 2.49-.76 2.49-.74 2.49-.74 2.48-.73 2.49-.71 2.49-.71 2.49-.69 2.49-.69 2.49-.68 2.49-.67 2.49-.66 2.49-.65 2.49-.64 2.49-.64 2.49-.62 2.49-.62 2.49-.62 2.49-.6 2.49-.6 2.49-.59 2.48-.58 2.49-.58 2.49-.57 2.49-.57 2.49-.55 2.49-.56 2.49-.54 2.49-.54 2.49-.54 2.49-.53 2.49-.52 2.49-.52 2.49-.51 2.49-.51 2.49-.5 2.49-.5 2.48-.5 2.49-.48 2.49-.49 2.49-.48 2.49-.47 2.49-.47 2.49-.47 2.49-.46 2.49-.46 2.49-.45 2.49-.45 2.49-.45 2.49-.44 2.49-.43 2.49-.44 2.49-.43 2.49-.43 2.48-.42 2.49-.42 2.49-.42 2.49-.41 2.49-.41 2.49-.4 2.49-.41 2.49-.4 2.49-.39 2.49-.4 2.49-.39 2.49-.39 2.49-.38 2.49-.38 2.49-.38 2.49-.38 2.48-.37 2.49-.37 2.49-.37 2.49-.37 2.49-.36 2.49-.36 2.49-.36 2.49-.35 2.49-.35 2.49-.35 2.49-.35 2.49-.35 2.49-.34-9.96.38-4.98-.52-4.98-.97-9.96-3.24-9.95-4.82-9.96-6.15-9.96-7.17-9.96-7.86-9.95-8.19-9.96-8.11-9.96-7.67-9.96-6.85-9.95-5.69-9.96-4.23-9.96-2.52-4.98-.56-4.98-.06-9.95 1.39-4.98 1.47-4.98 1.98-9.96 5.49-9.96 7.43-9.95 9.2-4.98 5.2-4.98 5.55-4.98 5.88-4.98 6.15-4.98 6.4-4.98 6.59-4.975 6.76-4.979 6.87-4.979 6.95-4.979 6.98-4.979 6.96-4.978 6.93-4.979 6.83-4.979 6.72-4.979 6.58-4.979 6.4-4.978 6.21-4.979 6-4.979 5.79-4.979 5.59-4.978 5.38-4.979 5.21-4.979 5.07-4.979 4.99z" fill-opacity=".098" fill-rule="evenodd" fill="#09f"/></g><g clip-path="url(#0)"><path d="m15 292l2.595-2.71 2.489-2.32 2.489-2.21 2.49-2.13 2.489-2.04 2.49-1.96 2.489-1.89 2.489-1.82 2.49-1.75 2.489-1.7 2.49-1.64 2.489-1.6 2.489-1.54 2.49-1.5 2.489-1.45 2.489-1.42 2.49-1.37 2.489-1.34 2.49-1.31 2.489-1.27 2.489-1.24 2.49-1.21 2.489-1.18 2.49-1.16 2.489-1.13 2.489-1.11 2.49-1.08 2.489-1.06 2.49-1.04 2.489-1.01 2.489-1 2.49-.98 2.489-.96 2.49-.94 2.485-.92 2.49-.91 2.49-.89 2.49-.88 2.49-.86 2.49-.85 2.49-.83 2.49-.82 2.49-.81 2.49-.8 2.49-.78 2.49-.77 2.49-.76 2.49-.74 2.49-.74 2.48-.73 2.49-.71 2.49-.71 2.49-.69 2.49-.69 2.49-.68 2.49-.67 2.49-.66 2.49-.65 2.49-.64 2.49-.64 2.49-.62 2.49-.62 2.49-.62 2.49-.6 2.49-.6 2.49-.59 2.48-.58 2.49-.58 2.49-.57 2.49-.57 2.49-.55 2.49-.56 2.49-.54 2.49-.54 2.49-.54 2.49-.53 2.49-.52 2.49-.52 2.49-.51 2.49-.51 2.49-.5 2.49-.5 2.48-.5 2.49-.48 2.49-.49 2.49-.48 2.49-.47 2.49-.47 2.49-.47 2.49-.46 2.49-.46 2.49-.45 2.49-.45 2.49-.45 2.49-.44 2.49-.43 2.49-.44 2.49-.43 2.49-.43 2.48-.42 2.49-.42 2.49-.42 2.49-.41 2.49-.41 2.49-.4 2.49-.41 2.49-.4 2.49-.39 2.49-.4 2.49-.39 2.49-.39 2.49-.38 2.49-.38 2.49-.38 2.49-.38 2.48-.37 2.49-.37 2.49-.37 2.49-.37 2.49-.36 2.49-.36 2.49-.36 2.49-.35 2.49-.35 2.49-.35 2.49-.35 2.49-.35 2.49-.34-9.96.38-4.98-.52-4.98-.97-9.96-3.24-9.95-4.82-9.96-6.15-9.96-7.17-9.96-7.86-9.95-8.19-9.96-8.11-9.96-7.67-9.96-6.85-9.95-5.69-9.96-4.23-9.96-2.52-4.98-.56-4.98-.06-9.95 1.39-4.98 1.47-4.98 1.98-9.96 5.49-9.96 7.43-9.95 9.2-4.98 5.2-4.98 5.55-4.98 5.88-4.98 6.15-4.98 6.4-4.98 6.59-4.975 6.76-4.979 6.87-4.979 6.95-4.979 6.98-4.979 6.96-4.978 6.93-4.979 6.83-4.979 6.72-4.979 6.58-4.979 6.4-4.978 6.21-4.979 6-4.979 5.79-4.979 5.59-4.978 5.38-4.979 5.21-4.979 5.07-4.979 4.99z" stroke-linejoin="round" stroke-linecap="round" fill="none" stroke="#09f"/></g><g clip-path="url(#0)"><path d="m334 191l2.24-.34 2.49-.34 2.49-.34 2.49-.33 2.48-.33 2.49-.33 2.49-.33 2.49-.32 2.49-.33 2.49-.32 2.49-.32 2.49-.32 2.49-.31 2.49-.31 2.49-.32 2.49-.31 2.49-.3 2.49-.31 2.49-.3 2.49-.31 2.48-.3 2.49-.29 2.49-.3 2.49-.3 2.49-.29 2.49-.29 2.49-.29 2.49-.29 2.49-.29 2.49-.28 2.49-.29 2.49-.28 2.49-.28 2.49-.28 2.49-.28 2.49-.27 2.49-.28 2.48-.27 2.49-.27 2.49-.27 2.49-.27 2.49-.27 2.49-.26 2.49-.27 2.49-.26 2.49-.26 2.49-.26 2.49-.26 2.49-.26 2.49-.25 2.49-.26 2.49-.25 2.49-.26 2.48-.25 2.49-.25 2.49-.25 2.49-.24 2.49-.25 2.49-.25 2.49-.24 2.49-.24 2.49-.24 2.49-.25 2.49-.23 2.49-.24 2.49-.24 2.49-.24 2.49-.23 2.49-.24 2.49-.23 2.48-.23 2.49-.23 2.49-.23 2.49-.23 2.49-.23 2.49-.22 2.49-.23 2.49-.22 2.49-.23 2.49-.22 2.49-.22 2.49-.22 2.49-.22 2.49-.22 2.49-.22 2.49-.22 2.49-.21 2.48-.22 2.49-.21 2.49-.21 2.49-.22 2.49-.21 2.49-.21 2.49-.21 2.49-.21 2.49-.21 2.49-.2 2.49-.21 2.49-.21 2.49-.2 2.49-.2 2.49-.21 2.49-.2 2.48-.2 2.49-.2 2.49-.2 2.49-.2 2.49-.2 2.49-.2 2.49-.19 2.49-.2 2.49-.19 2.49-.2 2.49-.19 2.49-.2 2.49-.19 2.49-.19 2.49-.19 2.49-.19 2.48-.19 2.49-.19 2.49-.19 2.49-.18 2.49-.19 2.49-.19 2.49-.18 2.49-.19 2.49-.18-9.96-.3-4.98-.86-4.98-1.33-9.95-3.98-9.96-5.58-9.96-6.94-9.96-7.99-9.95-8.72-9.96-9.08-9.96-9.05-9.96-8.645-9.95-7.877-9.96-6.771-9.96-5.371-9.96-3.729-9.95-1.91-4.98-.235-4.98.255-9.96 1.986-4.98 1.721-4.98 2.192-9.95 5.729-9.96 7.364-9.96 8.757-9.96 9.854-4.98 5.23-4.97 5.38-4.98 5.48-4.98 5.53-4.98 5.54-4.98 5.49-4.98 5.4-4.98 5.27-9.95 9.94-9.96 8.88-9.96 7.53-9.96 5.94-9.95 4.17-9.96 2.29z" fill-opacity=".098" fill-rule="evenodd" fill="#930"/></g><g clip-path="url(#0)"><path d="m334 191l2.24-.34 2.49-.34 2.49-.34 2.49-.33 2.48-.33 2.49-.33 2.49-.33 2.49-.32 2.49-.33 2.49-.32 2.49-.32 2.49-.32 2.49-.31 2.49-.31 2.49-.32 2.49-.31 2.49-.3 2.49-.31 2.49-.3 2.49-.31 2.48-.3 2.49-.29 2.49-.3 2.49-.3 2.49-.29 2.49-.29 2.49-.29 2.49-.29 2.49-.29 2.49-.28 2.49-.29 2.49-.28 2.49-.28 2.49-.28 2.49-.28 2.49-.27 2.49-.28 2.48-.27 2.49-.27 2.49-.27 2.49-.27 2.49-.27 2.49-.26 2.49-.27 2.49-.26 2.49-.26 2.49-.26 2.49-.26 2.49-.26 2.49-.25 2.49-.26 2.49-.25 2.49-.26 2.48-.25 2.49-.25 2.49-.25 2.49-.24 2.49-.25 2.49-.25 2.49-.24 2.49-.24 2.49-.24 2.49-.25 2.49-.23 2.49-.24 2.49-.24 2.49-.24 2.49-.23 2.49-.24 2.49-.23 2.48-.23 2.49-.23 2.49-.23 2.49-.23 2.49-.23 2.49-.22 2.49-.23 2.49-.22 2.49-.23 2.49-.22 2.49-.22 2.49-.22 2.49-.22 2.49-.22 2.49-.22 2.49-.22 2.49-.21 2.48-.22 2.49-.21 2.49-.21 2.49-.22 2.49-.21 2.49-.21 2.49-.21 2.49-.21 2.49-.21 2.49-.2 2.49-.21 2.49-.21 2.49-.2 2.49-.2 2.49-.21 2.49-.2 2.48-.2 2.49-.2 2.49-.2 2.49-.2 2.49-.2 2.49-.2 2.49-.19 2.49-.2 2.49-.19 2.49-.2 2.49-.19 2.49-.2 2.49-.19 2.49-.19 2.49-.19 2.49-.19 2.48-.19 2.49-.19 2.49-.19 2.49-.18 2.49-.19 2.49-.19 2.49-.18 2.49-.19 2.49-.18-9.96-.3-4.98-.86-4.98-1.33-9.95-3.98-9.96-5.58-9.96-6.94-9.96-7.99-9.95-8.72-9.96-9.08-9.96-9.05-9.96-8.645-9.95-7.877-9.96-6.771-9.96-5.371-9.96-3.729-9.95-1.91-4.98-.235-4.98.255-9.96 1.986-4.98 1.721-4.98 2.192-9.95 5.729-9.96 7.364-9.96 8.757-9.96 9.854-4.98 5.23-4.97 5.38-4.98 5.48-4.98 5.53-4.98 5.54-4.98 5.49-4.98 5.4-4.98 5.27-9.95 9.94-9.96 8.88-9.96 7.53-9.96 5.94-9.95 4.17-9.96 2.29z" stroke-linejoin="round" stroke-linecap="round" fill="none" stroke="#930"/></g><g clip-path="url(#0)"><path d="m15.11 291.72l4.77-4.55 6.625-5.73 6.625-5.14 6.625-4.66 6.625-4.28 6.625-3.94 6.625-3.66 6.625-3.41 6.625-3.19 6.625-3.01 6.625-2.84 6.625-2.69 6.625-2.55 6.625-2.43 6.62-2.32 6.63-2.22 6.63-2.13 6.62-2.03 6.62-1.97 6.63-1.88 6.63-1.82 6.62-1.76 6.62-1.7 6.63-1.64 6.63-1.59 6.62-1.55 6.62-1.5 6.63-1.45 6.63-1.41 6.62-1.38 6.62-1.34 6.63-1.31 6.63-1.27 6.62-1.24 6.62-1.21 6.63-1.18 6.63-1.16 6.62-1.13 6.62-1.11 6.63-1.08 6.63-1.06 6.62-1.04 6.62-1.01 6.63-1 6.63-.98 6.62-.96 6.62-.94 6.63-.93 6.63-.9 6.62-.9 6.62-.87 6.63-.86 6.63-.85 6.62-.84 6.62-.82 6.63-.8 6.63-.8 6.62-.78 6.62-.77 6.63-.76 6.63-.75 6.62-.73 6.62-.73 6.63-.71 6.63-.71 6.62-.7 6.62-.68 6.63-.68 6.63-.67 6.62-.66 6.62-.65 6.63-.64 6.63-.64 6.62-.63 6.62-.62 6.63-.61 6.63-.6 6.62-.6 6.62-.59 6.63-.59 6.63-.57 6.62-.57 6.62-.57 6.63-.56 6.63-.55 6.62-.55 6.62-.54 6.63-.53 6.63-.53 6.62-.52 6.62-.52 6.63-.52 6.63-.5 6.62-.51 6.62-.49 6.63-.5 6.63-.49 6.62-.48 6.62-.48 6.63-.47 6.63-.47 6.62-.47 6.62-.46 6.63-.46 6.63-.45 6.62-.45 6.62-.45 6.63-.44 6.63-.44 6.62-.43 6.62-.43 6.63-.43 6.63-.42 6.62-.42 6.62-.42 6.63-.41 6.63-.41 6.62-.41 6.62-.4 6.63-.4 6.63-.4 6.62-.39 6.62-.39 6.63-.39 6.63-.38 6.62-.39" stroke-linejoin="round" stroke-width="1.5" stroke-linecap="round" fill="none" stroke="#006400"/></g><g clip-path="url(#0)"><path d="m15.11 291.72l4.77-4.78 6.625-6.77 6.625-7.03 6.625-7.37 6.625-7.74 6.625-8.11 6.625-8.47 6.625-8.77 6.625-9.01 6.625-9.19 6.625-9.27 6.625-9.27 6.625-9.17 6.625-8.97 6.62-8.68 6.63-8.27 6.63-7.78 6.62-7.2 6.62-6.53 6.63-5.8 6.63-5 6.62-4.16 6.62-3.27 6.63-2.37 6.63-1.45 6.62-.55 6.62.34 6.63 1.2 6.63 2.01 6.62 2.75 6.62 3.43 6.63 4.02 6.63 4.52 6.62 4.92 6.62 5.22 6.63 5.39 6.63 5.46 6.62 5.42 6.62 5.26 6.63 4.99 6.63 4.63 6.62 4.15 6.62 3.59 6.63 2.96 6.63 2.25 6.62 1.49 6.62.68 6.63-.15 6.63-.99 6.62-1.84 6.62-2.67 6.63-3.46 6.63-4.23 6.62-4.92 6.62-5.55 6.63-6.1 6.63-6.56 6.62-6.93 6.62-7.18 6.63-7.33 6.63-7.37 6.62-7.29 6.62-7.1 6.63-6.82 6.63-6.411 6.62-5.919 6.62-5.335 6.63-4.673 6.63-3.943 6.62-3.157 6.62-2.329 6.63-1.473 6.63-.602 6.62.267 6.62 1.121 6.63 1.945 6.63 2.726 6.62 3.45 6.62 4.104 6.63 4.679 6.63 5.164 6.62 5.546 6.62 5.84 6.63 6 6.63 6.07 6.62 6.02 6.62 5.85 6.63 5.58 6.63 5.21 6.62 4.73 6.62 4.17 6.63 3.52 6.63 2.81 6.62 2.05 6.62 1.23 6.63.38 6.63-.46 6.62-1.33 6.62-2.17 6.63-2.98 6.63-3.76 6.62-4.47 6.62-5.12 6.63-5.69 6.63-6.17 6.62-6.55 6.62-6.83 6.63-7 6.63-7.06 6.62-7 6.62-6.838 6.63-6.563 6.63-6.183 6.62-5.707 6.62-5.139 6.63-4.491 6.63-3.775 6.62-3 6.62-2.182 6.63-1.333 6.63-.469 6.62.396 6.62 1.249 6.63 2.073 6.63 2.855 6.62 3.582" stroke-linejoin="round" stroke-width="1.5" stroke-linecap="round" fill="none" stroke="#800080"/></g><g clip-path="url(#0)"><path d="m335 190.97c0 .55-.45 1-1 1-.55 0-1-.45-1-1 0-.56.45-1 1-1 .55 0 1 .44 1 1" fill="#300"/></g><g clip-path="url(#0)"><path d="m335 190.97c0 .55-.45 1-1 1-.55 0-1-.45-1-1 0-.56.45-1 1-1 .55 0 1 .44 1 1z" stroke-linejoin="round" stroke-linecap="round" fill="none" stroke="#000"/></g><g clip-path="url(#0)"><text font-style="italic" font-family="serif" fill="#300" font-size="12" x="0" y="0" transform="translate(330 209)">A</text></g><g clip-path="url(#0)"><path d="m655 159.31c0 .55-.45 1-1 1-.55 0-1-.45-1-1 0-.56.45-1 1-1 .55 0 1 .44 1 1" fill="#300"/></g><g clip-path="url(#0)"><path d="m655 159.31c0 .55-.45 1-1 1-.55 0-1-.45-1-1 0-.56.45-1 1-1 .55 0 1 .44 1 1z" stroke-linejoin="round" stroke-linecap="round" fill="none" stroke="#000"/></g><g clip-path="url(#0)"><text font-style="italic" font-family="serif" fill="#300" font-size="12" x="0" y="0" transform="translate(649 175)">B</text></g><g clip-path="url(#0)"><text font-style="italic" font-family="serif" fill="#006400" font-size="10" x="0" y="0" transform="translate(211 241)">f</text></g><g clip-path="url(#0)"><text font-style="italic" font-family="serif" fill="#800080" font-size="10" x="0" y="0" transform="translate(197 103)">g</text></g></g><g transform="matrix(1.01196 0 0 1.01196 184.38 87.45)"><g transform="matrix(15 0 0 15 1 14.5)" clip-path="url(#1)"><path d="m.344-.094q0 .016 0 .016-.016.016-.016.016 0 0 0-.016-.031-.016-.031-.039 0-.023.031-.07.031-.047.078-.078.047-.031.078-.031.078 0 .094.063 0 .016 0 .016 0 .063-.047.125-.031.047-.094.078-.063.031-.125.031-.063 0-.102-.031-.039-.031-.039-.078 0 0 0-.016 0-.109.094-.234h-.016q-.141 0-.203-.063-.016-.031-.016-.078 0-.031.031-.078.031-.047.094-.078.078-.031.141-.031.016 0 .016 0 0 0-.016.016-.063 0-.109.031-.047.031-.078.063-.031.047-.031.094 0 .031.016.047.031.047.156.047.016 0 .031 0 .094-.141.234-.234.141-.109.219-.109.063 0 .078.063 0 .047-.031.094-.063.094-.219.156-.094.031-.203.047-.125.172-.125.266 0 .047.023.07.023.023.07.023.031 0 .078-.031.047-.031.078-.078.047-.078.047-.109v-.016q0-.031-.047-.031-.031 0-.063.023-.031.023-.063.07-.031.031-.031.047 0 .031.016.031m0 .016q0 0 0 0m.391-.609q-.063 0-.172.094-.078.078-.188.203.094 0 .172-.031.141-.063.203-.141.031-.047.031-.094 0-.031-.047-.031" fill="#800080"/></g></g><g transform="matrix(1.01196 0 0 1.01196 197.56 224.09)"><g transform="matrix(15 0 0 15 1 14.5)" clip-path="url(#2)"><path d="m.344-.094q0 .016 0 .016-.016.016-.016.016 0 0 0-.016-.031-.016-.031-.039 0-.023.031-.07.031-.047.078-.078.047-.031.078-.031.078 0 .094.063 0 .016 0 .016 0 .063-.047.125-.031.047-.094.078-.063.031-.125.031-.063 0-.102-.031-.039-.031-.039-.078 0 0 0-.016 0-.109.094-.234h-.016q-.141 0-.203-.063-.016-.031-.016-.078 0-.031.031-.078.031-.047.094-.078.078-.031.141-.031.016 0 .016 0 0 0-.016.016-.063 0-.109.031-.047.031-.078.063-.031.047-.031.094 0 .031.016.047.031.047.156.047.016 0 .031 0 .094-.141.234-.234.141-.109.219-.109.063 0 .078.063 0 .047-.031.094-.063.094-.219.156-.094.031-.203.047-.125.172-.125.266 0 .047.023.07.023.023.07.023.031 0 .078-.031.047-.031.078-.078.047-.078.047-.109v-.016q0-.031-.047-.031-.031 0-.063.023-.031.023-.063.07-.031.031-.031.047 0 .031.016.031m0 .016q0 0 0 0m.391-.609q-.063 0-.172.094-.078.078-.188.203.094 0 .172-.031.141-.063.203-.141.031-.047.031-.094 0-.031-.047-.031" fill="#006400"/></g></g></g></svg>