<svg xmlns="http://www.w3.org/2000/svg" width="537.8" height="265.83" viewBox="0 0 525 259"><defs><clipPath id="0"><path d="m-.067-.967v9.4h7.133v-9.4z"/></clipPath><clipPath id="1"><path d="m0 0v260h526v-260z"/></clipPath><clipPath id="2"><path d="m-44-21.667v24.762h50.1v-24.762z"/></clipPath></defs><g stroke-linecap="square" stroke-miterlimit="10"><g clip-path="url(#1)"><path d="m22.14 2v258" stroke-linecap="butt" fill="none" stroke="#000"/></g><g clip-path="url(#1)"><path d="m22.14 1l-3 3" stroke-linecap="butt" fill="none" stroke="#000"/></g><g clip-path="url(#1)"><path d="m22.14 1l3 3" stroke-linecap="butt" fill="none" stroke="#000"/></g><g clip-path="url(#1)"><path d="m0 236.67h524" stroke-linecap="butt" fill="none" stroke="#000"/></g><g clip-path="url(#1)"><path d="m525 236.67l-3-3" stroke-linecap="butt" fill="none" stroke="#000"/></g><g clip-path="url(#1)"><path d="m525 236.67l-3 3" stroke-linecap="butt" fill="none" stroke="#000"/></g><g clip-path="url(#1)"><text font-style="italic" font-family="serif" font-size="10" x="0" y="0" transform="translate(28 250)">0</text></g><g clip-path="url(#1)"><text font-style="italic" font-family="serif" font-size="10" x="0" y="0" transform="translate(89 250)">2</text></g><g clip-path="url(#1)"><path d="m91.45 236.67v3" stroke-linecap="butt" fill="none" stroke="#000"/></g><g clip-path="url(#1)"><text font-style="italic" font-family="serif" font-size="10" x="0" y="0" transform="translate(159 250)">4</text></g><g clip-path="url(#1)"><path d="m160.76 236.67v3" stroke-linecap="butt" fill="none" stroke="#000"/></g><g clip-path="url(#1)"><text font-style="italic" font-family="serif" font-size="10" x="0" y="0" transform="translate(228 250)">6</text></g><g clip-path="url(#1)"><path d="m230.07 236.67v3" stroke-linecap="butt" fill="none" stroke="#000"/></g><g clip-path="url(#1)"><text font-style="italic" font-family="serif" font-size="10" x="0" y="0" transform="translate(297 250)">8</text></g><g clip-path="url(#1)"><path d="m299.38 236.67v3" stroke-linecap="butt" fill="none" stroke="#000"/></g><g clip-path="url(#1)"><text font-style="italic" font-family="serif" font-size="10" x="0" y="0" transform="translate(364 250)">10</text></g><g clip-path="url(#1)"><path d="m368.69 236.67v3" stroke-linecap="butt" fill="none" stroke="#000"/></g><g clip-path="url(#1)"><text font-style="italic" font-family="serif" font-size="10" x="0" y="0" transform="translate(434 250)">12</text></g><g clip-path="url(#1)"><path d="m438 236.67v3" stroke-linecap="butt" fill="none" stroke="#000"/></g><g clip-path="url(#1)"><text font-style="italic" font-family="serif" font-size="10" x="0" y="0" transform="translate(503 250)">14</text></g><g clip-path="url(#1)"><path d="m507.31 236.67v3" stroke-linecap="butt" fill="none" stroke="#000"/></g><g clip-path="url(#1)"><text font-style="italic" font-family="serif" font-size="10" x="0" y="0" transform="translate(10 234)">0</text></g><g clip-path="url(#1)"><text font-style="italic" font-family="serif" font-size="10" x="0" y="0" transform="translate(10 171)">2</text></g><g clip-path="url(#1)"><path d="m19.14 167.36h3" stroke-linecap="butt" fill="none" stroke="#000"/></g><g clip-path="url(#1)"><text font-style="italic" font-family="serif" font-size="10" x="0" y="0" transform="translate(10 102)">4</text></g><g clip-path="url(#1)"><path d="m19.14 98.05h3" stroke-linecap="butt" fill="none" stroke="#000"/></g><g clip-path="url(#1)"><text font-style="italic" font-family="serif" font-size="10" x="0" y="0" transform="translate(10 32)">6</text></g><g clip-path="url(#1)"><path d="m19.14 28.736h3" stroke-linecap="butt" fill="none" stroke="#000"/></g><g><g clip-path="url(#1)"><path d="m22.608-5.502l.158 9.97.157 7.734.158 6.318.315 9.97.315 7.733.315 6.319.63 9.969.514 6.427.514 5.42 1.027 8.812 1.027 7.02 1.028 5.834 2.054 9.356 2.055 7.361 2.055 6.06 2.054 5.17 4.11 8.46 4.109 6.8 4.109 5.68 4.11 4.88 4.109 4.28 4.11 3.81 4.109 3.43 4.109 3.12 4.11 2.86 4.109 2.64 4.11 2.46 4.109 2.29 4.109 2.15 4.11 2.03 4.109 1.91 4.105 1.82 4.11 1.72 4.11 1.64 4.11 1.57 4.11 1.5 4.11 1.44 4.11 1.38 4.11 1.32 4.11 1.28 4.11 1.24 4.11 1.19 4.11 1.15 4.11 1.11 4.11 1.08 4.11 1.05 4.11 1.01 4.1.99 4.11.96 4.11.93 4.11.91 4.11.89 4.11.86 4.11.85 4.11.82 4.11.8 4.11.79 4.11.77 4.11.75 4.11.73 4.11.72 4.11.71 4.1.69 4.11.68 4.11.66 4.11.66 4.11.64 4.11.63 4.11.61 4.11.61 4.11.6 4.11.58 4.11.58 4.11.57 4.11.55 4.11.55 4.11.54 4.11.54 4.11.52 4.1.52 4.11.51 4.11.5 4.11.49 4.11.49 4.11.48 4.11.47 4.11.47 4.11.46 4.11.46 4.11.45 4.11.44 4.11.44 4.11.43 4.11.43 4.1.42 4.11.42 4.11.41 4.11.41 4.11.4 4.11.4 4.11.39 4.11.39 4.11.38 4.11.38 4.11.38 4.11.37 4.11.37 4.11.37 4.11.36 4.11.35 4.11.36 4.1.35 4.11.34 4.11.34 4.11.34 4.11.34 4.11.33 4.11.33 4.11.33 4.11.32 4.11.32 4.11.32 4.11.32 4.11.31 4.11.31 4.11.3 4.1.31 4.11.3 4.11.3 4.11.29 1.86.14" stroke-linejoin="round" stroke-width="1.5" stroke-linecap="round" fill="none" stroke="#03c"/></g><g clip-path="url(#1)"><path d="m76.79 159.13v77.54" stroke-linejoin="round" stroke-linecap="round" fill="none" stroke="#000"/></g><g clip-path="url(#1)"><path d="m76.79 159.13h-54.658" stroke-linejoin="round" stroke-linecap="round" fill="none" stroke="#000"/></g><g clip-path="url(#1)"><path d="m77.79 159.13c0 .55-.447 1-1 1-.552 0-1-.45-1-1 0-.55.448-1 1-1 .553 0 1 .45 1 1" fill="#300"/></g><g clip-path="url(#1)"><path d="m77.79 159.13c0 .55-.447 1-1 1-.552 0-1-.45-1-1 0-.55.448-1 1-1 .553 0 1 .45 1 1z" stroke-linejoin="round" stroke-linecap="round" fill="none" stroke="#000"/></g><g clip-path="url(#1)"><text font-style="italic" font-family="serif" fill="#300" font-size="12" x="0" y="0" transform="translate(81 157)">M</text></g><g clip-path="url(#1)"><path d="m77.79 236.67c0 .55-.447 1-1 1-.552 0-1-.45-1-1 0-.55.448-1 1-1 .553 0 1 .45 1 1" fill="#444"/></g><g clip-path="url(#1)"><path d="m77.79 236.67c0 .55-.447 1-1 1-.552 0-1-.45-1-1 0-.55.448-1 1-1 .553 0 1 .45 1 1z" stroke-linejoin="round" stroke-linecap="round" fill="none" stroke="#000"/></g><g clip-path="url(#1)"><text font-style="italic" font-family="serif" fill="#444" font-size="12" x="0" y="0" transform="translate(73 252)">P</text></g><g clip-path="url(#1)"><path d="m23.14 159.13c0 .55-.447 1-1 1-.552 0-1-.45-1-1 0-.55.448-1 1-1 .553 0 1 .45 1 1" fill="#444"/></g><g clip-path="url(#1)"><path d="m23.14 159.13c0 .55-.447 1-1 1-.552 0-1-.45-1-1 0-.55.448-1 1-1 .553 0 1 .45 1 1z" stroke-linejoin="round" stroke-linecap="round" fill="none" stroke="#000"/></g><g clip-path="url(#1)"><text font-style="italic" font-family="serif" fill="#444" font-size="12" x="0" y="0" transform="translate(8 154)">Q</text></g><g clip-path="url(#1)"><path d="m23.14 236.67c0 .55-.447 1-1 1-.552 0-1-.45-1-1 0-.55.448-1 1-1 .553 0 1 .45 1 1" fill="#444"/></g><g clip-path="url(#1)"><path d="m23.14 236.67c0 .55-.447 1-1 1-.552 0-1-.45-1-1 0-.55.448-1 1-1 .553 0 1 .45 1 1z" stroke-linejoin="round" stroke-linecap="round" fill="none" stroke="#000"/></g><g clip-path="url(#1)"><text font-style="italic" font-family="serif" fill="#444" font-size="12" x="0" y="0" transform="translate(11 249)">O</text></g><g clip-path="url(#2)" transform="matrix(10.5 0 0 10.5 462 227.5)"><text font-style="italic" font-family="serif" fill="#03c" font-size="1" x="0" y="0">f</text></g></g><g transform="matrix(1.0058 0 0 .96012 448.7 207.59)"><g transform="matrix(15 0 0 15 1 14.5)" clip-path="url(#0)"><path d="m.344-.094q0 .016 0 .016-.016.016-.016.016 0 0 0-.016-.031-.016-.031-.039 0-.023.031-.07.031-.047.078-.078.047-.031.078-.031.078 0 .094.063 0 .016 0 .016 0 .063-.047.125-.031.047-.094.078-.063.031-.125.031-.063 0-.102-.031-.039-.031-.039-.078 0 0 0-.016 0-.109.094-.234h-.016q-.141 0-.203-.063-.016-.031-.016-.078 0-.031.031-.078.031-.047.094-.078.078-.031.141-.031.016 0 .016 0 0 0-.016.016-.063 0-.109.031-.047.031-.078.063-.031.047-.031.094 0 .031.016.047.031.047.156.047.016 0 .031 0 .094-.141.234-.234.141-.109.219-.109.063 0 .078.063 0 .047-.031.094-.063.094-.219.156-.094.031-.203.047-.125.172-.125.266 0 .047.023.07.023.023.07.023.031 0 .078-.031.047-.031.078-.078.047-.078.047-.109v-.016q0-.031-.047-.031-.031 0-.063.023-.031.023-.063.07-.031.031-.031.047 0 .031.016.031m0 .016q0 0 0 0m.391-.609q-.063 0-.172.094-.078.078-.188.203.094 0 .172-.031.141-.063.203-.141.031-.047.031-.094 0-.031-.047-.031" fill="#00f"/></g></g></g></svg>