<svg xmlns="http://www.w3.org/2000/svg" width="669.18" height="282.63" viewBox="0 0 366 154" xmlns:xlink="http://www.w3.org/1999/xlink"><defs><path id="L" d="m.328-.297l-.031.125q-.016.078-.016.094 0 .047.031.063.016 0 .031 0 .047 0 .078-.047.031-.031.047-.078 0-.016.016-.016.016 0 .016.016 0 .016-.031.062-.063.094-.125.094-.078 0-.109-.063 0-.016 0-.016-.031.047-.078.063-.016.016-.031.016-.063 0-.094-.047 0 0 0-.031 0-.031.031-.047.016 0 .016 0 .031 0 .047.016 0 .016 0 .016 0 .031-.031.047-.016 0-.016 0 .016.016.047.016.047 0 .078-.063.016-.016.016-.031.047-.203.047-.25 0-.063-.047-.063-.047 0-.094.063 0 0 0 0-.016.016-.031.047 0 0 0 .016l-.016.016q0 0 0 0-.016 0-.016 0 0-.031.031-.078.047-.078.125-.078.078 0 .109.078.031-.063.078-.078.016 0 .031 0 .063 0 .078.031.016.016.016.031 0 .047-.047.047 0 .016-.016.016-.031 0-.031-.031 0 0 0-.016 0-.031.031-.047 0 0 .016 0-.016-.016-.047-.016-.078 0-.094.109-.016 0-.016.016"/><clipPath id="K"><path d="m-13.633-6.244v10.333h24.466v-10.333z"/></clipPath><clipPath id="D"><path d="m-22.3-2.178v10.333h24.467v-10.333z"/></clipPath><clipPath id="B"><path d="m-4.733-2.178v10.333h24.466v-10.333z"/></clipPath><clipPath id="C"><path d="m-21.8-2.178v10.333h24.467v-10.333z"/></clipPath><clipPath id="E"><path d="m-13.267-2.178v10.333h24.467v-10.333z"/></clipPath><clipPath id="J"><path d="m-13.13-6.244v10.333h24.466v-10.333z"/></clipPath><clipPath id="F"><path d="m-13.767-2.178v10.333h24.467v-10.333z"/></clipPath><clipPath id="I"><path d="m-17.867-4.05v10.333h24.467v-10.333z"/></clipPath><clipPath id="G"><path d="m-13.4-4.111v10.333h24.467v-10.333z"/></clipPath><clipPath id="H"><path d="m-8.733-3.983v10.333h24.466v-10.333z"/></clipPath><clipPath id="A"><path d="m-3.363-7.617v10.333h24.467v-10.333z"/></clipPath><clipPath id="9"><path d="m-2.791-7.617v10.333h24.466v-10.333z"/></clipPath><clipPath id="2"><path d="m-1.333-4.068v10.333h24.466v-10.333z"/></clipPath><clipPath id="0"><path d="m0 0v155h367v-155z"/></clipPath><clipPath id="1"><path d="m-2.267-2.164v10.333h24.467v-10.333z"/></clipPath><clipPath id="3"><path d="m-3.527-5.222v14.762h34.952v-14.762z"/></clipPath><clipPath id="8"><path d="m-2.402-7.617v10.333h24.466v-10.333z"/></clipPath><clipPath id="4"><path d="m-2.695-4.068v10.333h24.467v-10.333z"/></clipPath><clipPath id="7"><path d="m-1.6-7.617v10.333h24.467v-10.333z"/></clipPath><clipPath id="5"><path d="m-3.084-4.068v10.333h24.467v-10.333z"/></clipPath><clipPath id="6"><path d="m-3.655-4.068v10.333h24.466v-10.333z"/></clipPath></defs><g stroke-miterlimit="10" stroke-linecap="square"><g clip-path="url(#0)"><path d="m13.679 11.593h340.07" stroke-linejoin="round" stroke-linecap="round" fill="none" stroke="#000"/></g><g clip-path="url(#0)"><path d="m353.75 147.62h-340.07" stroke-linejoin="round" stroke-linecap="round" fill="none" stroke="#000"/></g><g clip-path="url(#0)"><path d="m13.679 147.62v-136.03" stroke-linejoin="round" stroke-linecap="round" fill="none" stroke="#000"/></g><g clip-path="url(#0)"><path d="m353.75 11.593v136.03" stroke-linejoin="round" stroke-linecap="round" fill="none" stroke="#000"/></g><g clip-path="url(#0)"><path d="m13.679 40.742h340.07" stroke-linejoin="round" stroke-linecap="round" fill="none" stroke="#000"/></g><g clip-path="url(#0)"><path d="m13.679 69.891h340.07" stroke-linejoin="round" stroke-linecap="round" fill="none" stroke="#000"/></g><g clip-path="url(#0)"><path d="m62.21 11.593v136.03" stroke-linejoin="round" stroke-linecap="round" fill="none" stroke="#000"/></g><g clip-path="url(#0)"><path d="m69.7 69.891v77.73" stroke-linejoin="round" stroke-linecap="round" fill="none" stroke="#000"/></g><g clip-path="url(#0)"><path d="m73.59 69.891v77.73" stroke-linejoin="round" stroke-linecap="round" fill="none" stroke="#000"/></g><g clip-path="url(#0)"><path d="m84.24 127.81l90.18-30.995" stroke-linejoin="round" stroke-linecap="round" fill="none" stroke="#000"/></g><g clip-path="url(#0)"><path d="m187.66 92.26l-12.1 7.856-2.28-6.615z" fill-rule="evenodd"/></g><g clip-path="url(#0)"><path d="m218.36 92.26l94.94 30.466" stroke-linejoin="round" stroke-linecap="round" fill="none" stroke="#000"/></g><g clip-path="url(#0)"><path d="m326.63 127.01l-14.4-.95 2.13-6.66z" fill-rule="evenodd"/></g><g clip-path="url(#1)" transform="matrix(15 0 0 15 34 32.458)"><use xlink:href="#L"/></g><g clip-path="url(#2)" transform="matrix(15 0 0 15 20 61.03)"><path d="m.734-.141q0-.016.016-.016 0 .016 0 .016 0 0 0 .016-.078.063-.156.078l-.031.047q0 0 0 0h-.078q0 0 0 0 0 0 0-.016l.016-.031q-.109-.016-.188-.031-.109.094-.188.094-.047 0-.07-.023-.023-.023-.023-.039 0-.031.031-.063.016-.031.047-.031.031 0 .031.031 0 .016-.016.031-.016.016-.031.016-.016 0-.031-.016 0 .016 0 .016 0 .047.063.047.078 0 .172-.078-.109-.047-.109-.141 0-.078.063-.156.016-.031.055-.047.039-.016.07-.016.125 0 .188.063.078-.063.219-.172l.188-.141v-.016q.016 0 .016 0 .016 0 .016 0 0 0 0 .016l-.391.625q.063-.016.125-.062m-.125-.063l.313-.438-.125.094q-.141.094-.219.188.031.047.031.125 0 .031 0 .031m-.313-.172q-.062.078-.062.141 0 .078.078.125.031-.031.063-.078.063-.094.172-.188-.063-.063-.172-.063-.016 0-.039.023-.023.023-.039.039m.094.203q-.016.031-.047.063.063.031.172.047l.063-.094q0-.031 0-.063 0-.078-.031-.125-.094.094-.156.172"/></g><g clip-path="url(#3)" transform="matrix(10.5 0 0 10.5 37.04 54.833)"><path d="m.25-.484l-.172.422q-.016.016-.016.016-.016 0-.031-.016 0 0 0-.016l.125-.437q.016-.031.047-.047.031 0 .047.031.016.016.016.031 0 0-.016.016"/></g><g clip-path="url(#4)" transform="matrix(15 0 0 15 40.42 61.03)"><path d="m.328.234q0 .016 0 .016-.016 0-.063-.047-.063-.063-.094-.141-.078-.141-.078-.313 0-.172.063-.313.063-.109.141-.172.016-.016.031-.016 0 0 0 .016 0 0-.016.016-.156.156-.156.469 0 .313.156.469.016.016.016.016" id="M"/></g><g clip-path="url(#5)" transform="matrix(15 0 0 15 46.26 61.03)"><use xlink:href="#L"/></g><g clip-path="url(#6)" transform="matrix(15 0 0 15 54.832 61.03)"><path d="m.281-.25q0 .172-.063.313-.047.109-.125.172-.016.016-.031.016 0 0 0-.016 0 0 0-.016.172-.156.172-.469 0-.313-.156-.469-.016-.016-.016-.016 0-.016 0-.016.016 0 .063.047.063.063.094.141.063.141.063.313" id="N"/></g><g clip-path="url(#7)" transform="matrix(15 0 0 15 24 114.25)"><path d="m.734-.141q0-.016.016-.016 0 .016 0 .016 0 0 0 .016-.078.063-.156.078l-.031.047q0 0 0 0h-.078q0 0 0 0 0 0 0-.016l.016-.031q-.109-.016-.188-.031-.109.094-.188.094-.047 0-.07-.023-.023-.023-.023-.039 0-.031.031-.063.016-.031.047-.031.031 0 .031.031 0 .016-.016.031-.016.016-.031.016-.016 0-.031-.016 0 .016 0 .016 0 .047.063.047.078 0 .172-.078-.109-.047-.109-.141 0-.078.063-.156.016-.031.055-.047.039-.016.07-.016.125 0 .188.063.078-.063.219-.172l.188-.141v-.016q.016 0 .016 0 .016 0 .016 0 0 0 0 .016l-.391.625q.063-.016.125-.062m-.125-.063l.313-.438-.125.094q-.141.094-.219.188.031.047.031.125 0 .031 0 .031m-.313-.172q-.062.078-.062.141 0 .078.078.125.031-.031.063-.078.063-.094.172-.188-.063-.063-.172-.063-.016 0-.039.023-.023.023-.039.039m.094.203q-.016.031-.047.063.063.031.172.047l.063-.094q0-.031 0-.063 0-.078-.031-.125-.094.094-.156.172"/></g><g clip-path="url(#8)" transform="matrix(15 0 0 15 36.04 114.25)"><use xlink:href="#M"/></g><g clip-path="url(#9)" transform="matrix(15 0 0 15 41.871 114.25)"><use xlink:href="#L"/></g><g clip-path="url(#A)" transform="matrix(15 0 0 15 50.44 114.25)"><use xlink:href="#N"/></g><g clip-path="url(#B)" transform="matrix(15 0 0 15 71 32.667)"><path d="m.453-.313q0 .141-.031.219-.063.109-.172.109-.094 0-.141-.063-.016-.016-.031-.031-.047-.078-.047-.234 0-.156.047-.234.047-.109.156-.125h.016q.094 0 .141.078.016.016.031.047.031.078.031.234m-.203.313q.063 0 .094-.063.016-.031.016-.063.016-.063.016-.203 0-.141-.016-.203-.016-.094-.078-.109-.016 0-.031 0-.078 0-.109.063 0 .031-.016.063 0 .047 0 .187 0 .141.016.203.016.094.078.125.016 0 .031 0" id="O"/></g><g clip-path="url(#C)" transform="matrix(15 0 0 15 327 32.667)"><path d="m.297-.641v.562q0 .031.016.031.016.016.078.016h.031v.031q-.031 0-.172 0-.125 0-.156 0v-.031h.031q.078 0 .094-.016 0-.016 0-.031v-.516q-.047.016-.125.016v-.031q.109 0 .172-.063.031 0 .031.016 0 0 0 .016"/></g><g clip-path="url(#D)" transform="matrix(15 0 0 15 334.5 32.667)"><path d="m.031-.172v-.031l.297-.469q.016 0 .031 0 .016 0 .016 0v.016.453h.094v.031h-.094v.094q0 .031.016.031 0 .016.063.016h.016v.031q-.047 0-.141 0-.094 0-.125 0v-.031h.016q.063 0 .078-.016 0-.016 0-.031v-.094h-.266m.266-.031v-.359l-.234.359h.234"/></g><g clip-path="url(#E)" transform="matrix(15 0 0 15 199 32.667)"><path d="m.453-.172l-.031.172h-.375q0-.031.016-.031l.188-.219q.109-.125.109-.219 0-.094-.063-.141-.031-.031-.078-.031-.063 0-.109.063-.016.016-.016.047 0 0 .016 0 .031 0 .047.031 0 .016 0 .016 0 .047-.047.047 0 .016 0 .016-.047 0-.063-.031 0-.016 0-.031 0-.078.063-.125.047-.063.125-.063.109 0 .172.078.031.047.047.109 0 0 0 .016 0 .063-.063.141-.031.031-.094.078l-.047.063h-.016l-.109.109h.188q.078 0 .094 0 0-.016.016-.094h.031" id="P"/></g><g clip-path="url(#F)" transform="matrix(15 0 0 15 206.5 32.667)"><path d="m.188-.234h-.047q-.016.063-.016.109 0 .078.031.109.031 0 .047 0 .094 0 .156-.063.031-.016.047-.031 0-.016.016-.016 0 0 .016.016 0 .016-.047.047-.078.078-.188.078-.094 0-.125-.078-.031-.047-.031-.109 0-.125.094-.203.078-.063.172-.063.063 0 .094.047.016.016.016.031 0 .047-.047.094-.016 0-.031.016-.063.016-.156.016m-.047-.016h.047q.188 0 .188-.109 0-.031-.031-.047-.016-.016-.031-.016-.063 0-.109.047-.047.047-.063.125" id="Q"/></g><g clip-path="url(#G)" transform="matrix(15 0 0 15 201 61.67)"><use xlink:href="#O"/></g><g clip-path="url(#H)" transform="matrix(15 0 0 15 131 59.75)"><path d="m.406-.234v.281q0 .031-.016.031-.016 0-.016-.031v-.281h-.281q-.031 0-.031-.016 0-.016.031-.016h.281v-.281q0-.031.016-.031.016 0 .016.031v.281h.281q.031 0 .031.016 0 .016-.031.016h-.281"/></g><g clip-path="url(#I)" transform="matrix(15 0 0 15 268 60.75)"><path d="m.656-.234h-.547q-.031 0-.031-.016 0-.016.031-.016h.547q.031 0 .031.016 0 .016-.031.016"/></g><g clip-path="url(#J)" transform="matrix(15 0 0 15 197 93.67)"><use xlink:href="#P"/></g><g clip-path="url(#K)" transform="matrix(15 0 0 15 204.5 93.67)"><use xlink:href="#Q"/></g></g></svg>