<svg xmlns="http://www.w3.org/2000/svg" viewBox="0 0 662 433" xmlns:xlink="http://www.w3.org/1999/xlink"><defs><clipPath id="I"><path d="m-23-5.283v28.933h44.2v-28.933z"/></clipPath><clipPath id="C"><path d="m-13.667-13.483v28.933h44.2v-28.933z"/></clipPath><clipPath id="A"><path d="m-16-15.817v28.934h44.2v-28.934z"/></clipPath><clipPath id="B"><path d="m-33.27-14.15v28.933h44.2v-28.933z"/></clipPath><clipPath id="D"><path d="m-33.2-5.02v28.934h44.2v-28.934z"/></clipPath><clipPath id="E"><path d="m-15.13-2.083v28.933h44.2v-28.933z"/></clipPath><clipPath id="H"><path d="m-7.84-1.283v28.933h44.2v-28.933z"/></clipPath><clipPath id="F"><path d="m-6.867-1.283v28.933h44.2v-28.933z"/></clipPath><clipPath id="G"><path d="m-7.256-1.283v28.933h44.2v-28.933z"/></clipPath><clipPath id="9"><path d="m-13.533-15.95v28.933h44.2v-28.933z"/></clipPath><clipPath id="8"><path d="m-36.517-37.854v41.33h63.14v-41.33z"/></clipPath><clipPath id="2"><path d="m-10.38-6.425v41.33h63.14v-41.33z"/></clipPath><clipPath id="0"><path d="m0 0v434h663v-434z"/></clipPath><clipPath id="1"><path d="m-6.6-4.233v28.933h44.2v-28.933z"/></clipPath><clipPath id="3"><path d="m-39.733-7.767v28.934h44.2v-28.934z"/></clipPath><clipPath id="4"><path d="m-57.714-11.473v41.33h63.14v-41.33z"/></clipPath><clipPath id="7"><path d="m-24.667-26.23v28.933h44.2v-28.933z"/></clipPath><clipPath id="5"><path d="m-24.6-3.833v28.933h44.2v-28.933z"/></clipPath><clipPath id="6"><path d="m-36.422-5.854v41.33h63.14v-41.33z"/></clipPath></defs><g stroke-miterlimit="10" stroke-linecap="square"><g clip-path="url(#0)"><path d="m221.21 2v432" stroke-linecap="butt" fill="none" stroke="#000"/></g><g clip-path="url(#0)"><path d="m221.21 1l-3 3" stroke-linecap="butt" fill="none" stroke="#000"/></g><g clip-path="url(#0)"><path d="m221.21 1l3 3" stroke-linecap="butt" fill="none" stroke="#000"/></g><g clip-path="url(#0)"><path d="m0 220.61h661" stroke-linecap="butt" fill="none" stroke="#000"/></g><g clip-path="url(#0)"><path d="m662 220.61l-3-3" stroke-linecap="butt" fill="none" stroke="#000"/></g><g clip-path="url(#0)"><path d="m662 220.61l-3 3" stroke-linecap="butt" fill="none" stroke="#000"/></g><g clip-path="url(#0)"><text font-style="italic" font-family="Times" font-size="10" x="0" y="0" transform="translate(36 234)">–8</text></g><g clip-path="url(#0)"><path d="m40.1 220.61v3" stroke-linecap="butt" fill="none" stroke="#000"/></g><g clip-path="url(#0)"><text font-style="italic" font-family="Times" font-size="10" x="0" y="0" transform="translate(81 234)">–6</text></g><g clip-path="url(#0)"><path d="m85.38 220.61v3" stroke-linecap="butt" fill="none" stroke="#000"/></g><g clip-path="url(#0)"><text font-style="italic" font-family="Times" font-size="10" x="0" y="0" transform="translate(126 234)">–4</text></g><g clip-path="url(#0)"><path d="m130.66 220.61v3" stroke-linecap="butt" fill="none" stroke="#000"/></g><g clip-path="url(#0)"><text font-style="italic" font-family="Times" font-size="10" x="0" y="0" transform="translate(171 234)">–2</text></g><g clip-path="url(#0)"><path d="m175.93 220.61v3" stroke-linecap="butt" fill="none" stroke="#000"/></g><g clip-path="url(#0)"><text font-style="italic" font-family="Times" font-size="10" x="0" y="0" transform="translate(227 234)">0</text></g><g clip-path="url(#0)"><text font-style="italic" font-family="Times" font-size="10" x="0" y="0" transform="translate(264 234)">2</text></g><g clip-path="url(#0)"><path d="m266.49 220.61v3" stroke-linecap="butt" fill="none" stroke="#000"/></g><g clip-path="url(#0)"><text font-style="italic" font-family="Times" font-size="10" x="0" y="0" transform="translate(310 234)">4</text></g><g clip-path="url(#0)"><path d="m311.76 220.61v3" stroke-linecap="butt" fill="none" stroke="#000"/></g><g clip-path="url(#0)"><text font-style="italic" font-family="Times" font-size="10" x="0" y="0" transform="translate(355 234)">6</text></g><g clip-path="url(#0)"><path d="m357.04 220.61v3" stroke-linecap="butt" fill="none" stroke="#000"/></g><g clip-path="url(#0)"><text font-style="italic" font-family="Times" font-size="10" x="0" y="0" transform="translate(400 234)">8</text></g><g clip-path="url(#0)"><path d="m402.32 220.61v3" stroke-linecap="butt" fill="none" stroke="#000"/></g><g clip-path="url(#0)"><text font-style="italic" font-family="Times" font-size="10" x="0" y="0" transform="translate(443 234)">10</text></g><g clip-path="url(#0)"><path d="m447.59 220.61v3" stroke-linecap="butt" fill="none" stroke="#000"/></g><g clip-path="url(#0)"><text font-style="italic" font-family="Times" font-size="10" x="0" y="0" transform="translate(488 234)">12</text></g><g clip-path="url(#0)"><path d="m492.87 220.61v3" stroke-linecap="butt" fill="none" stroke="#000"/></g><g clip-path="url(#0)"><text font-style="italic" font-family="Times" font-size="10" x="0" y="0" transform="translate(534 234)">14</text></g><g clip-path="url(#0)"><path d="m538.14 220.61v3" stroke-linecap="butt" fill="none" stroke="#000"/></g><g clip-path="url(#0)"><text font-style="italic" font-family="Times" font-size="10" x="0" y="0" transform="translate(579 234)">16</text></g><g clip-path="url(#0)"><path d="m583.42 220.61v3" stroke-linecap="butt" fill="none" stroke="#000"/></g><g clip-path="url(#0)"><text font-style="italic" font-family="Times" font-size="10" x="0" y="0" transform="translate(624 234)">18</text></g><g clip-path="url(#0)"><path d="m628.7 220.61v3" stroke-linecap="butt" fill="none" stroke="#000"/></g><g clip-path="url(#0)"><text font-style="italic" font-family="Times" font-size="10" x="0" y="0" transform="translate(205 405)">–8</text></g><g clip-path="url(#0)"><path d="m218.21 401.71h3" stroke-linecap="butt" fill="none" stroke="#000"/></g><g clip-path="url(#0)"><text font-style="italic" font-family="Times" font-size="10" x="0" y="0" transform="translate(205 360)">–6</text></g><g clip-path="url(#0)"><path d="m218.21 356.44h3" stroke-linecap="butt" fill="none" stroke="#000"/></g><g clip-path="url(#0)"><text font-style="italic" font-family="Times" font-size="10" x="0" y="0" transform="translate(205 315)">–4</text></g><g clip-path="url(#0)"><path d="m218.21 311.16h3" stroke-linecap="butt" fill="none" stroke="#000"/></g><g clip-path="url(#0)"><text font-style="italic" font-family="Times" font-size="10" x="0" y="0" transform="translate(205 269)">–2</text></g><g clip-path="url(#0)"><path d="m218.21 265.88h3" stroke-linecap="butt" fill="none" stroke="#000"/></g><g clip-path="url(#0)"><text font-style="italic" font-family="Times" font-size="10" x="0" y="0" transform="translate(210 218)">0</text></g><g clip-path="url(#0)"><text font-style="italic" font-family="Times" font-size="10" x="0" y="0" transform="translate(210 179)">2</text></g><g clip-path="url(#0)"><path d="m218.21 175.33h3" stroke-linecap="butt" fill="none" stroke="#000"/></g><g clip-path="url(#0)"><text font-style="italic" font-family="Times" font-size="10" x="0" y="0" transform="translate(210 134)">4</text></g><g clip-path="url(#0)"><path d="m218.21 130.06h3" stroke-linecap="butt" fill="none" stroke="#000"/></g><g clip-path="url(#0)"><text font-style="italic" font-family="Times" font-size="10" x="0" y="0" transform="translate(210 88)">6</text></g><g clip-path="url(#0)"><path d="m218.21 84.78h3" stroke-linecap="butt" fill="none" stroke="#000"/></g><g clip-path="url(#0)"><text font-style="italic" font-family="Times" font-size="10" x="0" y="0" transform="translate(210 43)">8</text></g><g clip-path="url(#0)"><path d="m218.21 39.503h3" stroke-linecap="butt" fill="none" stroke="#000"/></g><g clip-path="url(#0)"><path d="m40.1 0v220.61" stroke-linejoin="round" stroke-linecap="round" fill="none" stroke="#c0c0c0" id="J"/></g><g clip-path="url(#0)"><path d="m40.1 239.61v194.39" stroke-linejoin="round" stroke-linecap="round" fill="none" stroke="#c0c0c0" id="K"/></g><g clip-path="url(#0)"><use xlink:href="#J"/></g><g clip-path="url(#0)"><use xlink:href="#K"/></g><g clip-path="url(#0)"><path d="m85.38 0v220.61" stroke-linejoin="round" stroke-linecap="round" fill="none" stroke="#c0c0c0"/></g><g clip-path="url(#0)"><path d="m85.38 239.61v194.39" stroke-linejoin="round" stroke-linecap="round" fill="none" stroke="#c0c0c0"/></g><g clip-path="url(#0)"><path d="m130.66 0v220.61" stroke-linejoin="round" stroke-linecap="round" fill="none" stroke="#c0c0c0"/></g><g clip-path="url(#0)"><path d="m130.66 239.61v194.39" stroke-linejoin="round" stroke-linecap="round" fill="none" stroke="#c0c0c0"/></g><g clip-path="url(#0)"><path d="m175.93 0v220.61" stroke-linejoin="round" stroke-linecap="round" fill="none" stroke="#c0c0c0"/></g><g clip-path="url(#0)"><path d="m175.93 239.61v194.39" stroke-linejoin="round" stroke-linecap="round" fill="none" stroke="#c0c0c0"/></g><g clip-path="url(#0)"><path d="m266.49 0v220.61" stroke-linejoin="round" stroke-linecap="round" fill="none" stroke="#c0c0c0"/></g><g clip-path="url(#0)"><path d="m266.49 239.61v194.39" stroke-linejoin="round" stroke-linecap="round" fill="none" stroke="#c0c0c0"/></g><g clip-path="url(#0)"><path d="m311.76 0v220.61" stroke-linejoin="round" stroke-linecap="round" fill="none" stroke="#c0c0c0"/></g><g clip-path="url(#0)"><path d="m311.76 239.61v194.39" stroke-linejoin="round" stroke-linecap="round" fill="none" stroke="#c0c0c0"/></g><g clip-path="url(#0)"><path d="m357.04 0v220.61" stroke-linejoin="round" stroke-linecap="round" fill="none" stroke="#c0c0c0"/></g><g clip-path="url(#0)"><path d="m357.04 239.61v194.39" stroke-linejoin="round" stroke-linecap="round" fill="none" stroke="#c0c0c0"/></g><g clip-path="url(#0)"><path d="m402.32 0v220.61" stroke-linejoin="round" stroke-linecap="round" fill="none" stroke="#c0c0c0"/></g><g clip-path="url(#0)"><path d="m402.32 239.61v194.39" stroke-linejoin="round" stroke-linecap="round" fill="none" stroke="#c0c0c0"/></g><g clip-path="url(#0)"><path d="m447.59 0v220.61" stroke-linejoin="round" stroke-linecap="round" fill="none" stroke="#c0c0c0"/></g><g clip-path="url(#0)"><path d="m447.59 239.61v194.39" stroke-linejoin="round" stroke-linecap="round" fill="none" stroke="#c0c0c0"/></g><g clip-path="url(#0)"><path d="m492.87 0v220.61" stroke-linejoin="round" stroke-linecap="round" fill="none" stroke="#c0c0c0"/></g><g clip-path="url(#0)"><path d="m492.87 239.61v194.39" stroke-linejoin="round" stroke-linecap="round" fill="none" stroke="#c0c0c0"/></g><g clip-path="url(#0)"><path d="m538.14 0v220.61" stroke-linejoin="round" stroke-linecap="round" fill="none" stroke="#c0c0c0"/></g><g clip-path="url(#0)"><path d="m538.14 239.61v194.39" stroke-linejoin="round" stroke-linecap="round" fill="none" stroke="#c0c0c0"/></g><g clip-path="url(#0)"><path d="m583.42 0v220.61" stroke-linejoin="round" stroke-linecap="round" fill="none" stroke="#c0c0c0"/></g><g clip-path="url(#0)"><path d="m583.42 239.61v194.39" stroke-linejoin="round" stroke-linecap="round" fill="none" stroke="#c0c0c0"/></g><g clip-path="url(#0)"><path d="m628.7 0v220.61" stroke-linejoin="round" stroke-linecap="round" fill="none" stroke="#c0c0c0"/></g><g clip-path="url(#0)"><path d="m628.7 239.61v194.39" stroke-linejoin="round" stroke-linecap="round" fill="none" stroke="#c0c0c0"/></g><g clip-path="url(#0)"><path d="m0 39.503h206.21" stroke-linejoin="round" stroke-linecap="round" fill="none" stroke="#c0c0c0" id="L"/></g><g clip-path="url(#0)"><path d="m221.21 39.503h441.79" stroke-linejoin="round" stroke-linecap="round" fill="none" stroke="#c0c0c0" id="M"/></g><g clip-path="url(#0)"><use xlink:href="#L"/></g><g clip-path="url(#0)"><use xlink:href="#M"/></g><g clip-path="url(#0)"><path d="m0 84.78h206.21" stroke-linejoin="round" stroke-linecap="round" fill="none" stroke="#c0c0c0"/></g><g clip-path="url(#0)"><path d="m221.21 84.78h441.79" stroke-linejoin="round" stroke-linecap="round" fill="none" stroke="#c0c0c0"/></g><g clip-path="url(#0)"><path d="m0 130.06h206.21" stroke-linejoin="round" stroke-linecap="round" fill="none" stroke="#c0c0c0"/></g><g clip-path="url(#0)"><path d="m221.21 130.06h441.79" stroke-linejoin="round" stroke-linecap="round" fill="none" stroke="#c0c0c0"/></g><g clip-path="url(#0)"><path d="m0 175.33h206.21" stroke-linejoin="round" stroke-linecap="round" fill="none" stroke="#c0c0c0"/></g><g clip-path="url(#0)"><path d="m221.21 175.33h441.79" stroke-linejoin="round" stroke-linecap="round" fill="none" stroke="#c0c0c0"/></g><g clip-path="url(#0)"><path d="m0 265.88h201.21" stroke-linejoin="round" stroke-linecap="round" fill="none" stroke="#c0c0c0"/></g><g clip-path="url(#0)"><path d="m221.21 265.88h441.79" stroke-linejoin="round" stroke-linecap="round" fill="none" stroke="#c0c0c0"/></g><g clip-path="url(#0)"><path d="m0 311.16h201.21" stroke-linejoin="round" stroke-linecap="round" fill="none" stroke="#c0c0c0"/></g><g clip-path="url(#0)"><path d="m221.21 311.16h441.79" stroke-linejoin="round" stroke-linecap="round" fill="none" stroke="#c0c0c0"/></g><g clip-path="url(#0)"><path d="m0 356.44h201.21" stroke-linejoin="round" stroke-linecap="round" fill="none" stroke="#c0c0c0"/></g><g clip-path="url(#0)"><path d="m221.21 356.44h441.79" stroke-linejoin="round" stroke-linecap="round" fill="none" stroke="#c0c0c0"/></g><g clip-path="url(#0)"><path d="m0 401.71h201.21" stroke-linejoin="round" stroke-linecap="round" fill="none" stroke="#c0c0c0"/></g><g clip-path="url(#0)"><path d="m221.21 401.71h441.79" stroke-linejoin="round" stroke-linecap="round" fill="none" stroke="#c0c0c0"/></g><g><g clip-path="url(#0)"><path d="m221.21 39.503c-100.02 0-181.11 81.09-181.11 181.11 0 100.02 81.09 181.1 181.11 181.1" stroke-linejoin="round" stroke-linecap="round" fill="none" stroke="#000"/></g><g clip-path="url(#0)"><path d="m492.87 356.44c75.01 0 135.83-60.82 135.83-135.83 0-75.02-60.82-135.83-135.83-135.83" stroke-linejoin="round" stroke-linecap="round" fill="none" stroke="#000"/></g><g clip-path="url(#0)"><path d="m221.21 39.503l1.52.004 5.18.077 5.18.171 5.18.261 5.18.347 5.17.43 5.18.509 5.18.584 5.18.655 5.18.722 5.18.787 5.18.846 5.18.903 5.18.955 5.18 1 5.18 1.048 5.18 1.09 5.18 1.128 5.18 1.16 5.18 1.191 5.18 1.217 5.18 1.239 5.18 1.258 5.18 1.273 5.18 1.283 5.18 1.291 5.18 1.295 5.18 1.294 5.18 1.29 5.18 1.282 5.18 1.271 5.18 1.256 5.18 1.236 5.18 1.213 5.18 1.187 5.18 1.157 5.18 1.122 5.18 1.085 5.17 1.042 5.18.998 5.18.948 5.18.895 5.18.838 5.18.778 5.18.713 5.18.646 5.18.573 5.18.498 5.18.419 5.18.336 5.18.248 5.18.158 5.18.064h.8" stroke-linejoin="round" stroke-width="1.5" stroke-linecap="round" fill="none" stroke="#390"/></g><g clip-path="url(#0)"><path d="m221.21 401.71h1.52l5.18-.08 5.18-.17 5.18-.26 5.18-.35 5.17-.43 5.18-.51 5.18-.58 5.18-.65 5.18-.73 5.18-.78 5.18-.85 5.18-.9 5.18-.96 5.18-1 5.18-1.05 5.18-1.09 5.18-1.13 5.18-1.16 5.18-1.19 5.18-1.22 5.18-1.23 5.18-1.26 5.18-1.28 5.18-1.28 5.18-1.29 5.18-1.29 5.18-1.3 5.18-1.29 5.18-1.28 5.18-1.27 5.18-1.26 5.18-1.23 5.18-1.22 5.18-1.18 5.18-1.16 5.18-1.12 5.18-1.09 5.17-1.04 5.18-1 5.18-.94 5.18-.9 5.18-.84 5.18-.78 5.18-.71 5.18-.65 5.18-.57 5.18-.5 5.18-.42 5.18-.33 5.18-.25 5.18-.16 5.18-.06h.8" stroke-linejoin="round" stroke-width="1.5" stroke-linecap="round" fill="none" stroke="#390"/></g><g clip-path="url(#0)"><path d="m88.06-5.105l5.179 1.295 5.18 1.295 5.176 1.295 5.18 1.295 5.18 1.295 5.18 1.295 5.18 1.295 5.18 1.295 5.18 1.295 5.18 1.295 5.18 1.295 5.18 1.295 5.18 1.295 5.18 1.295 5.18 1.295 5.18 1.295 5.18 1.294 5.18 1.295 5.18 1.295 5.18 1.295 5.18 1.295 5.18 1.295 5.18 1.295 5.18 1.295 5.18 1.295 5.18 1.295 5.18 1.295 5.18 1.295 5.18 1.295 5.18 1.294 5.17 1.295 5.18 1.295 5.18 1.295 5.18 1.295 5.18 1.295 5.18 1.295 5.18 1.295 5.18 1.295 5.18 1.295 5.18 1.295 5.18 1.295 5.18 1.295 5.18 1.294 5.18 1.295 5.18 1.295 5.18 1.295 5.18 1.295 5.18 1.295 5.18 1.295 5.18 1.295 5.18 1.295 5.18 1.295 5.18 1.295 5.18 1.295 5.18 1.295 5.18 1.294 5.18 1.295 5.18 1.295 5.18 1.295 5.18 1.295 5.18 1.295 5.18 1.295 5.18 1.295 5.17 1.295 5.18 1.295 5.18 1.295 5.18 1.295 5.18 1.295 5.18 1.294 5.18 1.295 5.18 1.295 5.18 1.295 5.18 1.295 5.18 1.295 5.18 1.295 5.18 1.295 5.18 1.295 5.18 1.295 5.18 1.295 5.18 1.295 5.18 1.294 5.18 1.297 5.18 1.29 5.18 1.3 5.18 1.29 5.18 1.3 5.18 1.29 5.18 1.3 5.18 1.29 5.18 1.3 5.18 1.29 5.18 1.3 5.18 1.29 5.18 1.3 5.17 1.29 5.18 1.3 5.18 1.29 5.18 1.3 5.18 1.29 5.18 1.3 5.18 1.29 5.18 1.3 5.18 1.29 5.18 1.3 5.18 1.29 5.18 1.3 5.18 1.29 5.18 1.3 5.18 1.29 5.18 1.3 5.18 1.29" stroke-linejoin="round" stroke-width="1.5" stroke-linecap="round" fill="none" stroke="#33f"/></g><g clip-path="url(#0)"/><g clip-path="url(#0)"><path d="m222.21 39.503c0 .552-.45 1-1 1-.55 0-1-.448-1-1 0-.553.45-1 1-1 .55 0 1 .447 1 1" fill="#300"/></g><g clip-path="url(#0)"><path d="m222.21 39.503c0 .552-.45 1-1 1-.55 0-1-.448-1-1 0-.553.45-1 1-1 .55 0 1 .447 1 1z" stroke-linejoin="round" stroke-linecap="round" fill="none" stroke="#000"/></g><g clip-path="url(#0)"><path d="m222.21 401.71c0 .56-.45 1-1 1-.55 0-1-.44-1-1 0-.55.45-1 1-1 .55 0 1 .45 1 1" fill="#300"/></g><g clip-path="url(#0)"><path d="m222.21 401.71c0 .56-.45 1-1 1-.55 0-1-.44-1-1 0-.55.45-1 1-1 .55 0 1 .45 1 1z" stroke-linejoin="round" stroke-linecap="round" fill="none" stroke="#000"/></g><g clip-path="url(#0)"><path d="m41.1 220.61c0 .55-.447 1-1 1-.552 0-1-.45-1-1 0-.55.448-1 1-1 .553 0 1 .45 1 1" fill="#300"/></g><g clip-path="url(#0)"><path d="m41.1 220.61c0 .55-.447 1-1 1-.552 0-1-.45-1-1 0-.55.448-1 1-1 .553 0 1 .45 1 1z" stroke-linejoin="round" stroke-linecap="round" fill="none" stroke="#000"/></g><g clip-path="url(#0)"><path d="m493.87 84.78c0 .552-.45 1-1 1-.55 0-1-.448-1-1 0-.552.45-1 1-1 .55 0 1 .448 1 1" fill="#300"/></g><g clip-path="url(#0)"><path d="m493.87 84.78c0 .552-.45 1-1 1-.55 0-1-.448-1-1 0-.552.45-1 1-1 .55 0 1 .448 1 1z" stroke-linejoin="round" stroke-linecap="round" fill="none" stroke="#000"/></g><g clip-path="url(#0)"><path d="m493.87 356.44c0 .55-.45 1-1 1-.55 0-1-.45-1-1 0-.55.45-1 1-1 .55 0 1 .45 1 1" fill="#300"/></g><g clip-path="url(#0)"><path d="m493.87 356.44c0 .55-.45 1-1 1-.55 0-1-.45-1-1 0-.55.45-1 1-1 .55 0 1 .45 1 1z" stroke-linejoin="round" stroke-linecap="round" fill="none" stroke="#000"/></g><g clip-path="url(#0)"><path d="m244.85 220.61c0 .55-.45 1-1 1-.55 0-1-.45-1-1 0-.55.45-1 1-1 .55 0 1 .45 1 1" fill="#300"/></g><g clip-path="url(#0)"><path d="m244.85 220.61c0 .55-.45 1-1 1-.55 0-1-.45-1-1 0-.55.45-1 1-1 .55 0 1 .45 1 1z" stroke-linejoin="round" stroke-linecap="round" fill="none" stroke="#000"/></g><g clip-path="url(#0)"><path d="m222.21 197.97c0 .55-.45 1-1 1-.55 0-1-.45-1-1 0-.55.45-1 1-1 .55 0 1 .45 1 1" fill="#300"/></g><g clip-path="url(#0)"><path d="m222.21 197.97c0 .55-.45 1-1 1-.55 0-1-.45-1-1 0-.55.45-1 1-1 .55 0 1 .45 1 1z" stroke-linejoin="round" stroke-linecap="round" fill="none" stroke="#000"/></g><g clip-path="url(#0)"><path d="m493.87 220.61c0 .55-.45 1-1 1-.55 0-1-.45-1-1 0-.55.45-1 1-1 .55 0 1 .45 1 1" fill="#300"/></g><g clip-path="url(#0)"><path d="m493.87 220.61c0 .55-.45 1-1 1-.55 0-1-.45-1-1 0-.55.45-1 1-1 .55 0 1 .45 1 1z" stroke-linejoin="round" stroke-linecap="round" fill="none" stroke="#000"/></g><g clip-path="url(#0)"><path d="m358.04 62.14c0 .552-.45 1-1 1-.55 0-1-.448-1-1 0-.552.45-1 1-1 .55 0 1 .448 1 1" fill="#33f"/></g><g clip-path="url(#0)"><path d="m358.04 62.14c0 .552-.45 1-1 1-.55 0-1-.448-1-1 0-.552.45-1 1-1 .55 0 1 .448 1 1z" stroke-linejoin="round" stroke-linecap="round" fill="none" stroke="#000"/></g><g clip-path="url(#1)" transform="matrix(15 0 0 15 99 63.5)"><text font-style="italic" font-family="KaTeX_Script" font-size="1" x="0" y="0">C</text></g><g clip-path="url(#2)" transform="matrix(10.5 0 0 10.5 108.99 67.47)"><text font-style="italic" font-family="KaTeX_Script" font-size="1" x="0" y="0">1</text></g><g clip-path="url(#3)" transform="matrix(15 0 0 15 596 116.5)"><text font-style="italic" font-family="KaTeX_Script" font-size="1" x="0" y="0">C</text></g><g clip-path="url(#4)" transform="matrix(10.5 0 0 10.5 605.99 120.47)"><text font-style="italic" font-family="KaTeX_Script" font-size="1" x="0" y="0">2</text></g><g clip-path="url(#5)" transform="matrix(15 0 0 15 369 57.5)"><text font-style="italic" font-family="KaTeX_Script" fill="#063" font-size="1" x="0" y="0">F</text></g><g clip-path="url(#6)" transform="matrix(10.5 0 0 10.5 382.43 61.47)"><text font-style="italic" font-family="KaTeX_Script" fill="#063" font-size="1" x="0" y="0">1</text></g><g clip-path="url(#7)" transform="matrix(15 0 0 15 370 393.5)"><text font-style="italic" font-family="KaTeX_Script" fill="#063" font-size="1" x="0" y="0">F</text></g><g clip-path="url(#8)" transform="matrix(10.5 0 0 10.5 383.43 397.47)"><text font-style="italic" font-family="KaTeX_Script" fill="#063" font-size="1" x="0" y="0">2</text></g><g clip-path="url(#9)" transform="matrix(15 0 0 15 203 239.25)"><text font-style="italic" font-family="Jlm_cmmi10" font-size="1" x="0" y="0">O</text></g><g clip-path="url(#A)" transform="matrix(15 0 0 15 240 237.25)"><text font-style="italic" font-family="Jlm_cmmi10" font-size="1" x="0" y="0">I</text></g><g clip-path="url(#B)" transform="matrix(15 0 0 15 499 212.25)"><text font-style="italic" font-family="Jlm_cmmi10" font-size="1" x="0" y="0">P</text></g><g clip-path="url(#C)" transform="matrix(15 0 0 15 205 202.25)"><text font-style="italic" font-family="Jlm_cmmi10" font-size="1" x="0" y="0">J</text></g><g clip-path="url(#D)" transform="matrix(15 0 0 15 498 75.25)"><text font-style="italic" font-family="Jlm_cmmi10" font-size="1" x="0" y="0">N</text></g><g clip-path="url(#E)" transform="matrix(15 0 0 15 227 31.25)"><text font-style="italic" font-family="Jlm_cmmi10" font-size="1" x="0" y="0">M</text></g><g clip-path="url(#F)" transform="matrix(15 0 0 15 103 19.25)"><text font-style="italic" font-family="KaTeX_Script" fill="#33f" font-size="1" x="0" y="0">(</text></g><g clip-path="url(#G)" transform="matrix(15 0 0 15 108.83 19.25)"><text font-style="italic" font-family="Jlm_cmmi10" fill="#33f" font-size="1" x="0" y="0">T</text></g><g clip-path="url(#H)" transform="matrix(15 0 0 15 117.6 19.25)"><text font-style="italic" font-family="KaTeX_Script" fill="#33f" font-size="1" x="0" y="0">)</text></g><g clip-path="url(#I)" transform="matrix(15 0 0 15 345 79.25)"><text font-style="italic" font-family="Jlm_cmmi10" fill="#33f" font-size="1" x="0" y="0">I</text></g></g></g></svg>