<svg xmlns="http://www.w3.org/2000/svg" width="283.78" height="291.74" viewBox="0 0 534 549" xmlns:xlink="http://www.w3.org/1999/xlink"><defs><clipPath id="3"><path d="m-.456-1.017v1.4h1.533v-1.4z"/></clipPath><clipPath id="4"><path d="m-1.122-1.017v1.4h1.533v-1.4z"/></clipPath><clipPath id="2"><path d="m-.067-1.017v1.4h1.533v-1.4z"/></clipPath><clipPath id="0"><path d="m0 0v550h535v-550z"/></clipPath><clipPath id="1"><path d="m535 0h-535v550h535v-550"/></clipPath></defs><g stroke-miterlimit="10" stroke-linecap="square"><g clip-path="url(#0)"><path d="m300.76 2v548" stroke-linecap="butt" fill="none" stroke="#000"/></g><g clip-path="url(#0)"><path d="m300.76 1l-3 3" stroke-linecap="butt" fill="none" stroke="#000"/></g><g clip-path="url(#0)"><path d="m300.76 1l3 3" stroke-linecap="butt" fill="none" stroke="#000"/></g><g clip-path="url(#0)"><path d="m0 436.27h533" stroke-linecap="butt" fill="none" stroke="#000"/></g><g clip-path="url(#0)"><path d="m534 436.27l-3-3" stroke-linecap="butt" fill="none" stroke="#000"/></g><g clip-path="url(#0)"><path d="m534 436.27l-3 3" stroke-linecap="butt" fill="none" stroke="#000"/></g><g clip-path="url(#0)"><text font-style="italic" font-family="serif" font-size="10" x="0" y="0" transform="translate(29 450)">–4</text></g><g clip-path="url(#0)"><path d="m33.562 436.27v3" stroke-linecap="butt" fill="none" stroke="#000"/></g><g clip-path="url(#0)"><text font-style="italic" font-family="serif" font-size="10" x="0" y="0" transform="translate(96 450)">–3</text></g><g clip-path="url(#0)"><path d="m100.36 436.27v3" stroke-linecap="butt" fill="none" stroke="#000"/></g><g clip-path="url(#0)"><text font-style="italic" font-family="serif" font-size="10" x="0" y="0" transform="translate(163 450)">–2</text></g><g clip-path="url(#0)"><path d="m167.16 436.27v3" stroke-linecap="butt" fill="none" stroke="#000"/></g><g clip-path="url(#0)"><text font-style="italic" font-family="serif" font-size="10" x="0" y="0" transform="translate(229 450)">–1</text></g><g clip-path="url(#0)"><path d="m233.96 436.27v3" stroke-linecap="butt" fill="none" stroke="#000"/></g><g clip-path="url(#0)"><text font-style="italic" font-family="serif" font-size="10" x="0" y="0" transform="translate(306 450)">0</text></g><g clip-path="url(#0)"><text font-style="italic" font-family="serif" font-size="10" x="0" y="0" transform="translate(366 450)">1</text></g><g clip-path="url(#0)"><path d="m367.56 436.27v3" stroke-linecap="butt" fill="none" stroke="#000"/></g><g clip-path="url(#0)"><text font-style="italic" font-family="serif" font-size="10" x="0" y="0" transform="translate(432 450)">2</text></g><g clip-path="url(#0)"><path d="m434.36 436.27v3" stroke-linecap="butt" fill="none" stroke="#000"/></g><g clip-path="url(#0)"><text font-style="italic" font-family="serif" font-size="10" x="0" y="0" transform="translate(499 450)">3</text></g><g clip-path="url(#0)"><path d="m501.16 436.27v3" stroke-linecap="butt" fill="none" stroke="#000"/></g><g clip-path="url(#0)"><text font-style="italic" font-family="serif" font-size="10" x="0" y="0" transform="translate(284 529)">–4</text></g><g clip-path="url(#0)"><path d="m297.76 525.34h3" stroke-linecap="butt" fill="none" stroke="#000"/></g><g clip-path="url(#0)"><text font-style="italic" font-family="serif" font-size="10" x="0" y="0" transform="translate(284 484)">–2</text></g><g clip-path="url(#0)"><path d="m297.76 480.81h3" stroke-linecap="butt" fill="none" stroke="#000"/></g><g clip-path="url(#0)"><text font-style="italic" font-family="serif" font-size="10" x="0" y="0" transform="translate(289 434)">0</text></g><g clip-path="url(#0)"><text font-style="italic" font-family="serif" font-size="10" x="0" y="0" transform="translate(289 395)">2</text></g><g clip-path="url(#0)"><path d="m297.76 391.74h3" stroke-linecap="butt" fill="none" stroke="#000"/></g><g clip-path="url(#0)"><text font-style="italic" font-family="serif" font-size="10" x="0" y="0" transform="translate(289 351)">4</text></g><g clip-path="url(#0)"><path d="m297.76 347.21h3" stroke-linecap="butt" fill="none" stroke="#000"/></g><g clip-path="url(#0)"><text font-style="italic" font-family="serif" font-size="10" x="0" y="0" transform="translate(289 306)">6</text></g><g clip-path="url(#0)"><path d="m297.76 302.67h3" stroke-linecap="butt" fill="none" stroke="#000"/></g><g clip-path="url(#0)"><text font-style="italic" font-family="serif" font-size="10" x="0" y="0" transform="translate(289 262)">8</text></g><g clip-path="url(#0)"><path d="m297.76 258.14h3" stroke-linecap="butt" fill="none" stroke="#000"/></g><g clip-path="url(#0)"><text font-style="italic" font-family="serif" font-size="10" x="0" y="0" transform="translate(283 217)">10</text></g><g clip-path="url(#0)"><path d="m297.76 213.61h3" stroke-linecap="butt" fill="none" stroke="#000"/></g><g clip-path="url(#0)"><text font-style="italic" font-family="serif" font-size="10" x="0" y="0" transform="translate(283 173)">12</text></g><g clip-path="url(#0)"><path d="m297.76 169.07h3" stroke-linecap="butt" fill="none" stroke="#000"/></g><g clip-path="url(#0)"><text font-style="italic" font-family="serif" font-size="10" x="0" y="0" transform="translate(283 128)">14</text></g><g clip-path="url(#0)"><path d="m297.76 124.54h3" stroke-linecap="butt" fill="none" stroke="#000"/></g><g clip-path="url(#0)"><text font-style="italic" font-family="serif" font-size="10" x="0" y="0" transform="translate(283 84)">16</text></g><g clip-path="url(#0)"><path d="m297.76 80.01h3" stroke-linecap="butt" fill="none" stroke="#000"/></g><g clip-path="url(#0)"><text font-style="italic" font-family="serif" font-size="10" x="0" y="0" transform="translate(283 39)">18</text></g><g clip-path="url(#0)"><path d="m297.76 35.474h3" stroke-linecap="butt" fill="none" stroke="#000"/></g><g clip-path="url(#0)"><path d="m33.562 0v436.27" stroke-linejoin="round" stroke-linecap="round" fill="none" stroke="#c0c0c0" id="5"/></g><g clip-path="url(#0)"><path d="m33.562 455.27v94.73" stroke-linejoin="round" stroke-linecap="round" fill="none" stroke="#c0c0c0" id="6"/></g><g clip-path="url(#0)"><use xlink:href="#5"/></g><g clip-path="url(#0)"><use xlink:href="#6"/></g><g clip-path="url(#0)"><path d="m100.36 0v436.27" stroke-linejoin="round" stroke-linecap="round" fill="none" stroke="#c0c0c0"/></g><g clip-path="url(#0)"><path d="m100.36 455.27v94.73" stroke-linejoin="round" stroke-linecap="round" fill="none" stroke="#c0c0c0"/></g><g clip-path="url(#0)"><path d="m167.16 0v436.27" stroke-linejoin="round" stroke-linecap="round" fill="none" stroke="#c0c0c0"/></g><g clip-path="url(#0)"><path d="m167.16 455.27v94.73" stroke-linejoin="round" stroke-linecap="round" fill="none" stroke="#c0c0c0"/></g><g clip-path="url(#0)"><path d="m233.96 0v436.27" stroke-linejoin="round" stroke-linecap="round" fill="none" stroke="#c0c0c0"/></g><g clip-path="url(#0)"><path d="m233.96 455.27v94.73" stroke-linejoin="round" stroke-linecap="round" fill="none" stroke="#c0c0c0"/></g><g clip-path="url(#0)"><path d="m367.56 0v436.27" stroke-linejoin="round" stroke-linecap="round" fill="none" stroke="#c0c0c0"/></g><g clip-path="url(#0)"><path d="m367.56 455.27v94.73" stroke-linejoin="round" stroke-linecap="round" fill="none" stroke="#c0c0c0"/></g><g clip-path="url(#0)"><path d="m434.36 0v436.27" stroke-linejoin="round" stroke-linecap="round" fill="none" stroke="#c0c0c0"/></g><g clip-path="url(#0)"><path d="m434.36 455.27v94.73" stroke-linejoin="round" stroke-linecap="round" fill="none" stroke="#c0c0c0"/></g><g clip-path="url(#0)"><path d="m501.16 0v436.27" stroke-linejoin="round" stroke-linecap="round" fill="none" stroke="#c0c0c0"/></g><g clip-path="url(#0)"><path d="m501.16 455.27v94.73" stroke-linejoin="round" stroke-linecap="round" fill="none" stroke="#c0c0c0"/></g><g clip-path="url(#0)"><path d="m0 35.474h279.64" stroke-linejoin="round" stroke-linecap="round" fill="none" stroke="#c0c0c0" id="7"/></g><g clip-path="url(#0)"><path d="m300.76 35.474h234.24" stroke-linejoin="round" stroke-linecap="round" fill="none" stroke="#c0c0c0" id="8"/></g><g clip-path="url(#0)"><use xlink:href="#7"/></g><g clip-path="url(#0)"><use xlink:href="#8"/></g><g clip-path="url(#0)"><path d="m0 80.01h279.64" stroke-linejoin="round" stroke-linecap="round" fill="none" stroke="#c0c0c0"/></g><g clip-path="url(#0)"><path d="m300.76 80.01h234.24" stroke-linejoin="round" stroke-linecap="round" fill="none" stroke="#c0c0c0"/></g><g clip-path="url(#0)"><path d="m0 124.54h279.64" stroke-linejoin="round" stroke-linecap="round" fill="none" stroke="#c0c0c0"/></g><g clip-path="url(#0)"><path d="m300.76 124.54h234.24" stroke-linejoin="round" stroke-linecap="round" fill="none" stroke="#c0c0c0"/></g><g clip-path="url(#0)"><path d="m0 169.07h279.64" stroke-linejoin="round" stroke-linecap="round" fill="none" stroke="#c0c0c0"/></g><g clip-path="url(#0)"><path d="m300.76 169.07h234.24" stroke-linejoin="round" stroke-linecap="round" fill="none" stroke="#c0c0c0"/></g><g clip-path="url(#0)"><path d="m0 213.61h279.64" stroke-linejoin="round" stroke-linecap="round" fill="none" stroke="#c0c0c0"/></g><g clip-path="url(#0)"><path d="m300.76 213.61h234.24" stroke-linejoin="round" stroke-linecap="round" fill="none" stroke="#c0c0c0"/></g><g clip-path="url(#0)"><path d="m0 258.14h279.64" stroke-linejoin="round" stroke-linecap="round" fill="none" stroke="#c0c0c0"/></g><g clip-path="url(#0)"><path d="m300.76 258.14h234.24" stroke-linejoin="round" stroke-linecap="round" fill="none" stroke="#c0c0c0"/></g><g clip-path="url(#0)"><path d="m0 302.67h279.64" stroke-linejoin="round" stroke-linecap="round" fill="none" stroke="#c0c0c0"/></g><g clip-path="url(#0)"><path d="m300.76 302.67h234.24" stroke-linejoin="round" stroke-linecap="round" fill="none" stroke="#c0c0c0"/></g><g clip-path="url(#0)"><path d="m0 347.21h279.64" stroke-linejoin="round" stroke-linecap="round" fill="none" stroke="#c0c0c0"/></g><g clip-path="url(#0)"><path d="m300.76 347.21h234.24" stroke-linejoin="round" stroke-linecap="round" fill="none" stroke="#c0c0c0"/></g><g clip-path="url(#0)"><path d="m0 391.74h279.64" stroke-linejoin="round" stroke-linecap="round" fill="none" stroke="#c0c0c0"/></g><g clip-path="url(#0)"><path d="m300.76 391.74h234.24" stroke-linejoin="round" stroke-linecap="round" fill="none" stroke="#c0c0c0"/></g><g clip-path="url(#0)"><path d="m0 480.81h280.2" stroke-linejoin="round" stroke-linecap="round" fill="none" stroke="#c0c0c0"/></g><g clip-path="url(#0)"><path d="m300.76 480.81h234.24" stroke-linejoin="round" stroke-linecap="round" fill="none" stroke="#c0c0c0"/></g><g clip-path="url(#0)"><path d="m0 525.34h280.2" stroke-linejoin="round" stroke-linecap="round" fill="none" stroke="#c0c0c0"/></g><g clip-path="url(#0)"><path d="m300.76 525.34h234.24" stroke-linejoin="round" stroke-linecap="round" fill="none" stroke="#c0c0c0"/></g><g><g clip-path="url(#2)" transform="matrix(16.021-.67281.09723 16.582 9.46 415.1)"><path d="m.328.234q0 .016 0 .016-.016 0-.063-.047-.063-.063-.094-.141-.078-.141-.078-.313 0-.172.063-.313.063-.109.141-.172.016-.016.031-.016 0 0 0 .016 0 0-.016.016-.156.156-.156.469 0 .313.156.469.016.016.016.016" fill="#006400"/></g><g clip-path="url(#3)" transform="matrix(16.021-.67281.09723 16.582 15.691 414.83)"><path d="m.344-.094q0 .016 0 .016-.016.016-.016.016 0 0 0-.016-.031-.016-.031-.039 0-.023.031-.07.031-.047.078-.078.047-.031.078-.031.078 0 .094.062 0 .016 0 .016 0 .063-.047.125-.031.047-.094.078-.063.031-.125.031-.063 0-.102-.031-.039-.031-.039-.078 0 0 0-.016 0-.109.094-.234h-.016q-.141 0-.203-.063-.016-.031-.016-.078 0-.031.031-.078.031-.047.094-.078.078-.031.141-.031.016 0 .016 0 0 0-.016.016-.062 0-.109.031-.047.031-.078.063-.031.047-.031.094 0 .031.016.047.031.047.156.047.016 0 .031 0 .094-.141.234-.234.141-.109.219-.109.063 0 .078.063 0 .047-.031.094-.063.094-.219.156-.094.031-.203.047-.125.172-.125.266 0 .047.023.07.023.023.07.023.031 0 .078-.031.047-.031.078-.078.047-.078.047-.109v-.016q0-.031-.047-.031-.031 0-.063.023-.031.023-.063.07-.031.031-.031.047 0 .031.016.031m0 .016q0 0 0 0m.391-.609q-.063 0-.172.094-.078.078-.188.203.094 0 .172-.031.141-.063.203-.141.031-.047.031-.094 0-.031-.047-.031" fill="#006400"/></g><g clip-path="url(#4)" transform="matrix(16.021-.67281.09723 16.582 26.364 414.39)"><path d="m.281-.25q0 .172-.063.313-.047.109-.125.172-.016.016-.031.016 0 0 0-.016 0 0 0-.016.172-.156.172-.469 0-.313-.156-.469-.016-.016-.016-.016 0-.016 0-.016.016 0 .063.047.063.063.094.141.063.141.063.313" fill="#006400"/></g><g clip-path="url(#1)"><path d="m33.562 480.81l.507-9.16.507-9.01.507-8.88.507-8.75.507-8.61.506-8.48.507-8.35.507-8.21.523-8.34.522-8.21.523-8.07.522-7.94.522-7.81.523-7.68.522-7.56.523-7.43.522-7.31.523-7.18.522-7.07.523-6.94.522-6.83.523-6.72.522-6.59.523-6.49.522-6.37.522-6.26.523-6.16.522-6.04.523-5.94.522-5.83.523-5.73.522-5.63.523-5.52.522-5.42.523-5.33.522-5.22.523-5.13.522-5.04 1.045-9.78 1.045-9.42 1.045-9.06 1.045-8.71 1.045-8.37 1.045-8.03 1.044-7.71 1.045-7.4 1.045-7.08 1.045-6.78 1.045-6.49 1.045-6.21 1.045-5.93 1.045-5.65 1.045-5.39 1.045-5.136 1.045-4.883 2.09-9.04 2.089-8.114 2.09-7.236 2.09-6.404 2.09-5.618 2.09-4.873 4.179-7.673 2.09-2.876 2.09-2.282 2.09-1.724 2.09-1.197 1.045-.41 1.045-.291 2.087-.234 1.05.049 1.04.155 2.09.616 2.09 1 2.09 1.364 4.18 3.722 4.18 4.903 4.18 5.928 4.18 6.812 4.18 7.565 4.18 8.202 4.18 8.734 4.18 9.172 4.18 9.527 4.18 9.8 2.09 4.98 2.09 5.02 2.09 5.07 2.09 5.09 2.09 5.11 2.09 5.13 2.09 5.14 2.09 5.15 2.09 5.15 2.09 5.14 2.09 5.13 2.09 5.12 2.09 5.1 2.09 5.08 2.09 5.05 2.09 5.03 4.18 9.95 4.18 9.81 4.18 9.64 4.17 9.46 4.18 9.26 4.18 9.06 4.18 8.84 4.18 8.62 4.18 8.39 4.18 8.16 4.18 7.92 4.18 7.69 4.18 7.45 4.18 7.21 4.18 6.98 4.18 6.75 4.18 6.51 4.18 6.29 4.18 6.06 4.18 5.85 4.18 5.62 4.18 5.42 4.18 5.21 4.18 5.02 4.18 4.81 4.18 4.63 4.18 4.44 4.18 4.26 4.18 4.08 4.18 3.92 4.18 3.75 4.18 3.6 4.18 3.44 4.18 3.3 4.18 3.16 4.18 3.01 4.17 2.89 4.18 2.76 4.18 2.63 4.18 2.52 4.18 2.41 4.18 2.3 4.18 2.19 4.18 2.09 4.18 2 4.18 1.9 4.18 1.82 4.18 1.73 4.18 1.66 4.18 1.57 4.18 1.5 4.18 1.43 4.18 1.36 4.18 1.29 4.18 1.24 4.18 1.17 4.18 1.12 4.18 1.06 4.18 1.02 4.18.96 4.18.92 4.18.87 4.18.83 4.18.78 4.18.75 4.18.71 4.18.68 4.17.64 4.18.61 4.18.58 4.18.55 4.18.53 4.18.49 4.18.47 4.18.45 3.78.39" stroke-linejoin="round" stroke-width="1.5" stroke-linecap="round" fill="none" stroke="#006400"/></g><g clip-path="url(#1)"><path d="m100.36 33.569l52.8-.079" stroke-linejoin="round" stroke-linecap="round" fill="none" stroke="#000"/></g><g clip-path="url(#1)"><path d="m167.16 33.47l-13.99 3.52-.001-7z" fill-rule="evenodd"/></g><g clip-path="url(#1)"><path d="m100.36 33.569l-52.798-.079" stroke-linejoin="round" stroke-linecap="round" fill="none" stroke="#000"/></g><g clip-path="url(#1)"><path d="m33.562 33.47l14.01-3.48-.001 7z" fill-rule="evenodd"/></g><g clip-path="url(#1)"><path d="m300.76 391.74l-123.7-123.7" stroke-linejoin="round" stroke-linecap="round" fill="none" stroke="#000"/></g><g clip-path="url(#1)"><path d="m167.16 258.14l12.38 7.43-4.95 4.95z" fill-rule="evenodd"/></g><g clip-path="url(#1)"><path d="m300.76 391.74l123.7 123.7" stroke-linejoin="round" stroke-linecap="round" fill="none" stroke="#000"/></g><g clip-path="url(#1)"><path d="m434.36 525.34l-12.37-7.42 4.95-4.95z" fill-rule="evenodd"/></g><g clip-path="url(#1)"><path d="m101.36 33.569c0 .552-.45 1-1 1-.55 0-.998-.448-.998-1 0-.552.448-1 .998-1 .55 0 1 .448 1 1" fill="#300"/></g><g clip-path="url(#1)"><path d="m101.36 33.569c0 .552-.45 1-1 1-.55 0-.998-.448-.998-1 0-.552.448-1 .998-1 .55 0 1 .448 1 1z" stroke-linejoin="round" stroke-linecap="round" fill="none" stroke="#000"/></g><g clip-path="url(#1)"><text font-style="italic" font-family="serif" fill="#300" font-size="12" x="0" y="0" transform="translate(104 30)">A</text></g><g clip-path="url(#1)"><path d="m301.76 391.74c0 .55-.45 1-1 1-.55 0-1-.45-1-1 0-.55.45-1 1-1 .55 0 1 .45 1 1" fill="#300"/></g><g clip-path="url(#1)"><path d="m301.76 391.74c0 .55-.45 1-1 1-.55 0-1-.45-1-1 0-.55.45-1 1-1 .55 0 1 .45 1 1z" stroke-linejoin="round" stroke-linecap="round" fill="none" stroke="#000"/></g><g clip-path="url(#1)"><text font-style="italic" font-family="serif" fill="#300" font-size="12" x="0" y="0" transform="translate(305 390)">B</text></g></g></g></svg>