<svg xmlns="http://www.w3.org/2000/svg" width="511.47" height="319.92" viewBox="0 0 501 312"><defs><clipPath id="0"><path d="m0 0v314h502v-314z"/></clipPath></defs><g stroke-miterlimit="10" stroke-linecap="square"><g><g clip-path="url(#0)"><path d="m49.582 51.657h417.33" stroke-linejoin="round" stroke-linecap="round" fill="none" stroke="#000"/></g><g clip-path="url(#0)"><path d="m466.91 51.657v231.85" stroke-linejoin="round" stroke-linecap="round" fill="none" stroke="#000"/></g><g clip-path="url(#0)"><path d="m466.91 283.51h-417.33" stroke-linejoin="round" stroke-linecap="round" fill="none" stroke="#000"/></g><g clip-path="url(#0)"><path d="m49.582 283.51v-231.85" stroke-linejoin="round" stroke-linecap="round" fill="none" stroke="#000"/></g><g clip-path="url(#0)"><path d="m49.582 51.657l139.11 162.29" stroke-linejoin="round" stroke-linecap="round" fill="none" stroke="#33f"/></g><g clip-path="url(#0)"><path d="m188.69 213.95l278.22-162.29" stroke-linejoin="round" stroke-linecap="round" fill="none" stroke="#33f"/></g><g clip-path="url(#0)"><path d="m188.69 213.95l278.22 69.56" stroke-linejoin="round" stroke-linecap="round" fill="none" stroke="#33f"/></g><g clip-path="url(#0)"><path d="m188.69 213.95l-139.11 69.56" stroke-linejoin="round" stroke-linecap="round" fill="none" stroke="#33f"/></g><g clip-path="url(#0)"><path d="m189 51.657l-2 231.85" stroke-linejoin="round" stroke-linecap="round" fill="none" stroke="#c0c0c0"/></g><g clip-path="url(#0)"><path d="m49.582 213.95h417.33" stroke-linejoin="round" stroke-linecap="round" fill="none" stroke="#c0c0c0"/></g><g clip-path="url(#0)"><path d="m26.397 167.58v-101.92" stroke-linejoin="round" stroke-linecap="round" fill="none" stroke="#000"/></g><g clip-path="url(#0)"><path d="m26.397 51.657l3.5 14h-7z" fill-rule="evenodd"/></g><g clip-path="url(#0)"><path d="m26.397 167.58v32.37" stroke-linejoin="round" stroke-linecap="round" fill="none" stroke="#000"/></g><g clip-path="url(#0)"><path d="m26.397 213.95l-3.5-14h7z" fill-rule="evenodd"/></g><g clip-path="url(#0)"><path d="m26.397 237.14v-9.19" stroke-linejoin="round" stroke-linecap="round" fill="none" stroke="#000"/></g><g clip-path="url(#0)"><path d="m26.397 213.95l3.5 14h-7z" fill-rule="evenodd"/></g><g clip-path="url(#0)"><path d="m26.397 237.14v32.37" stroke-linejoin="round" stroke-linecap="round" fill="none" stroke="#000"/></g><g clip-path="url(#0)"><path d="m26.397 283.51l-3.5-14h7z" fill-rule="evenodd"/></g><g clip-path="url(#0)"><path d="m95.95 28.472h-32.37" stroke-linejoin="round" stroke-linecap="round" fill="none" stroke="#000"/></g><g clip-path="url(#0)"><path d="m49.582 28.472l14-3.5v7z" fill-rule="evenodd"/></g><g clip-path="url(#0)"><path d="m95.95 28.472h78.74" stroke-linejoin="round" stroke-linecap="round" fill="none" stroke="#000"/></g><g clip-path="url(#0)"><path d="m188.69 28.472l-14 3.5v-7z" fill-rule="evenodd"/></g><g clip-path="url(#0)"><path d="m258.25 28.472h-55.56" stroke-linejoin="round" stroke-linecap="round" fill="none" stroke="#000"/></g><g clip-path="url(#0)"><path d="m188.69 28.472l14-3.5v7z" fill-rule="evenodd"/></g><g clip-path="url(#0)"><path d="m258.25 28.472h194.66" stroke-linejoin="round" stroke-linecap="round" fill="none" stroke="#000"/></g><g clip-path="url(#0)"><path d="m466.91 28.472l-14 3.5v-7z" fill-rule="evenodd"/></g><g clip-path="url(#0)"><path d="m50.582 51.657c0 .552-.447 1-1 1-.552 0-1-.448-1-1 0-.552.448-1 1-1 .553 0 1 .448 1 1" fill="#300"/></g><g clip-path="url(#0)"><path d="m50.582 51.657c0 .552-.447 1-1 1-.552 0-1-.448-1-1 0-.552.448-1 1-1 .553 0 1 .448 1 1z" stroke-linejoin="round" stroke-linecap="round" fill="none" stroke="#000"/></g><g clip-path="url(#0)"><text font-style="italic" font-family="serif" fill="#300" font-size="12" x="0" y="0" transform="translate(37 48)">A</text></g><g clip-path="url(#0)"><path d="m467.91 51.657c0 .552-.45 1-1 1-.55 0-1-.448-1-1 0-.552.45-1 1-1 .55 0 1 .448 1 1" fill="#300"/></g><g clip-path="url(#0)"><path d="m467.91 51.657c0 .552-.45 1-1 1-.55 0-1-.448-1-1 0-.552.45-1 1-1 .55 0 1 .448 1 1z" stroke-linejoin="round" stroke-linecap="round" fill="none" stroke="#000"/></g><g clip-path="url(#0)"><text font-style="italic" font-family="serif" fill="#300" font-size="12" x="0" y="0" transform="translate(471 49)">B</text></g><g clip-path="url(#0)"><path d="m467.91 283.51c0 .55-.45 1-1 1-.55 0-1-.45-1-1 0-.56.45-1 1-1 .55 0 1 .44 1 1" fill="#300"/></g><g clip-path="url(#0)"><path d="m467.91 283.51c0 .55-.45 1-1 1-.55 0-1-.45-1-1 0-.56.45-1 1-1 .55 0 1 .44 1 1z" stroke-linejoin="round" stroke-linecap="round" fill="none" stroke="#000"/></g><g clip-path="url(#0)"><text font-style="italic" font-family="serif" fill="#300" font-size="12" x="0" y="0" transform="translate(468 296)">C</text></g><g clip-path="url(#0)"><path d="m50.582 283.51c0 .55-.447 1-1 1-.552 0-1-.45-1-1 0-.56.448-1 1-1 .553 0 1 .44 1 1" fill="#300"/></g><g clip-path="url(#0)"><path d="m50.582 283.51c0 .55-.447 1-1 1-.552 0-1-.45-1-1 0-.56.448-1 1-1 .553 0 1 .44 1 1z" stroke-linejoin="round" stroke-linecap="round" fill="none" stroke="#000"/></g><g clip-path="url(#0)"><text font-style="italic" font-family="serif" fill="#300" font-size="12" x="0" y="0" transform="translate(37 297)">D</text></g><g clip-path="url(#0)"><path d="m189.69 213.95c0 .55-.45 1-1 1-.55 0-1-.45-1-1 0-.55.45-1 1-1 .55 0 1 .45 1 1" fill="#33f"/></g><g clip-path="url(#0)"><path d="m189.69 213.95c0 .55-.45 1-1 1-.55 0-1-.45-1-1 0-.55.45-1 1-1 .55 0 1 .45 1 1z" stroke-linejoin="round" stroke-linecap="round" fill="none" stroke="#000"/></g><g clip-path="url(#0)"><text font-style="italic" font-family="serif" fill="#33f" font-size="12" x="0" y="0" transform="translate(184 230)">F</text></g><g clip-path="url(#0)"><text font-style="italic" font-family="serif" font-size="12" x="0" y="0" transform="translate(118 21)">a</text></g><g clip-path="url(#0)"><text font-style="italic" font-family="serif" font-size="12" x="0" y="0" transform="translate(327 23)">b</text></g><g clip-path="url(#0)"><text font-style="italic" font-family="serif" font-size="12" x="0" y="0" transform="translate(11 126)">c</text></g><g clip-path="url(#0)"><text font-style="italic" font-family="serif" font-size="12" x="0" y="0" transform="translate(11 252)">d</text></g></g></g></svg>