<svg height="28.94cm" viewBox="0 0 1151 1446" width="23.06cm" xmlns="http://www.w3.org/2000/svg" xmlns:xlink="http://www.w3.org/1999/xlink"><clipPath id="a"><path d="m0 0v1447h1153v-1447z"/></clipPath><clipPath id="b"><path d="m0 0v1447h1153v-1447z"/></clipPath><clipPath id="c"><path d="m0 0v1447h1153v-1447z"/></clipPath><clipPath id="d"><path d="m0 0v1447h1153v-1447z"/></clipPath><clipPath id="e"><path d="m0 0v1447h1153v-1447z"/></clipPath><clipPath id="f"><path d="m0 0v1447h1153v-1447z"/></clipPath><clipPath id="g"><path d="m0 0v1447h1153v-1447z"/></clipPath><clipPath id="h"><path d="m0 0v1447h1153v-1447z"/></clipPath><clipPath id="i"><path d="m0 0v1447h1153v-1447z"/></clipPath><clipPath id="j"><path d="m0 0v1447h1153v-1447z"/></clipPath><clipPath id="k"><path d="m0 0v1447h1153v-1447z"/></clipPath><clipPath id="l"><path d="m0 0v1447h1153v-1447z"/></clipPath><clipPath id="m"><path d="m0 0v1447h1153v-1447z"/></clipPath><clipPath id="n"><path d="m0 0v1447h1153v-1447z"/></clipPath><clipPath id="o"><path d="m0 0v1447h1153v-1447z"/></clipPath><clipPath id="p"><path d="m0 0v1447h1153v-1447z"/></clipPath><clipPath id="q"><path d="m0 0v1447h1153v-1447z"/></clipPath><clipPath id="r"><path d="m0 0v1447h1153v-1447z"/></clipPath><clipPath id="s"><path d="m0 0v1447h1153v-1447z"/></clipPath><clipPath id="t"><path d="m0 0v1447h1153v-1447z"/></clipPath><clipPath id="u"><path d="m0 0v1447h1153v-1447z"/></clipPath><clipPath id="v"><path d="m0 0v1447h1153v-1447z"/></clipPath><clipPath id="w"><path d="m0 0v1447h1153v-1447z"/></clipPath><clipPath id="x"><path d="m0 0v1447h1153v-1447z"/></clipPath><clipPath id="y"><path d="m0 0v1447h1153v-1447z"/></clipPath><clipPath id="z"><path d="m0 0v1447h1153v-1447z"/></clipPath><clipPath id="A"><path d="m0 0v1447h1153v-1447z"/></clipPath><clipPath id="B"><path d="m0 0v1447h1153v-1447z"/></clipPath><clipPath id="C"><path d="m0 0v1447h1153v-1447z"/></clipPath><clipPath id="D"><path d="m0 0v1447h1153v-1447z"/></clipPath><clipPath id="E"><path d="m0 0v1447h1153v-1447z"/></clipPath><clipPath id="F"><path d="m0 0v1447h1153v-1447z"/></clipPath><clipPath id="G"><path d="m0 0v1447h1153v-1447z"/></clipPath><clipPath id="H"><path d="m0 0v1447h1153v-1447z"/></clipPath><clipPath id="I"><path d="m0 0v1447h1153v-1447z"/></clipPath><clipPath id="J"><path d="m0 0v1447h1153v-1447z"/></clipPath><clipPath id="K"><path d="m0 0v1447h1153v-1447z"/></clipPath><clipPath id="L"><path d="m0 0v1447h1153v-1447z"/></clipPath><clipPath id="M"><path d="m0 0v1447h1153v-1447z"/></clipPath><clipPath id="N"><path d="m0 0v1447h1153v-1447z"/></clipPath><clipPath id="O"><path d="m0 0v1447h1153v-1447z"/></clipPath><clipPath id="P"><path d="m0 0v1447h1153v-1447z"/></clipPath><clipPath id="Q"><path d="m0 0v1447h1153v-1447z"/></clipPath><clipPath id="R"><path d="m0 0v1447h1153v-1447z"/></clipPath><clipPath id="S"><path d="m0 0v1447h1153v-1447z"/></clipPath><clipPath id="T"><path d="m0 0v1447h1153v-1447z"/></clipPath><clipPath id="U"><path d="m0 0v1447h1153v-1447z"/></clipPath><clipPath id="V"><path d="m0 0v1447h1153v-1447z"/></clipPath><clipPath id="W"><path d="m0 0v1447h1153v-1447z"/></clipPath><clipPath id="X"><path d="m0 0v1447h1153v-1447z"/></clipPath><clipPath id="Y"><path d="m0 0v1447h1153v-1447z"/></clipPath><clipPath id="Z"><path d="m0 0v1447h1153v-1447z"/></clipPath><clipPath id="aa"><path d="m0 0v1447h1153v-1447z"/></clipPath><clipPath id="ab"><path d="m0 0v1447h1153v-1447z"/></clipPath><clipPath id="ac"><path d="m0 0v1447h1153v-1447z"/></clipPath><clipPath id="ad"><path d="m0 0v1447h1153v-1447z"/></clipPath><clipPath id="ae"><path d="m0 0v1447h1153v-1447z"/></clipPath><clipPath id="af"><path d="m0 0v1447h1153v-1447z"/></clipPath><clipPath id="ag"><path d="m0 0v1447h1153v-1447z"/></clipPath><clipPath id="ah"><path d="m0 0v1447h1153v-1447z"/></clipPath><clipPath id="ai"><path d="m0 0v1447h1153v-1447z"/></clipPath><clipPath id="aj"><path d="m0 0v1447h1153v-1447z"/></clipPath><clipPath id="ak"><path d="m0 0v1447h1153v-1447z"/></clipPath><clipPath id="al"><path d="m0 0v1447h1153v-1447z"/></clipPath><clipPath id="am"><path d="m0 0v1447h1153v-1447z"/></clipPath><clipPath id="an"><path d="m0 0v1447h1153v-1447z"/></clipPath><clipPath id="ao"><path d="m0 0v1447h1153v-1447z"/></clipPath><clipPath id="ap"><path d="m0 0v1447h1153v-1447z"/></clipPath><clipPath id="aq"><path d="m0 0v1447h1153v-1447z"/></clipPath><clipPath id="ar"><path d="m0 0v1447h1153v-1447z"/></clipPath><clipPath id="as"><path d="m0 0v1447h1153v-1447z"/></clipPath><clipPath id="at"><path d="m0 0v1447h1153v-1447z"/></clipPath><clipPath id="au"><path d="m0 0v1447h1153v-1447z"/></clipPath><clipPath id="av"><path d="m0 0v1447h1153v-1447z"/></clipPath><clipPath id="aw"><path d="m0 0v1447h1153v-1447z"/></clipPath><clipPath id="ax"><path d="m0 0v1447h1153v-1447z"/></clipPath><clipPath id="ay"><path d="m0 0v1447h1153v-1447z"/></clipPath><g stroke-linecap="square" stroke-miterlimit="10"><g clip-path="url(#a)" fill="#006400" fill-opacity=".098039" fill-rule="evenodd"><g><path d="m116 1405l475-75 50-450-475 75z"/></g></g><g clip-path="url(#b)" fill="#e0e0e0" fill-opacity=".098039" fill-rule="evenodd"><g><path d="m116 1405l950-150-800-1200z"/></g></g><g style="clip-path:url(#c);stroke-linejoin:round;stroke-width:3;stroke-linecap:round;fill:none;stroke-opacity:.39216;stroke:#e0e0e0"><g><path d="m116 1405l950-150-800-1200z"/></g></g><g clip-path="url(#d)" fill="none" stroke="#808080" stroke-linecap="round" stroke-linejoin="round"><g><path d="m110.78 1452l161.89-1457"/></g></g><g clip-path="url(#e)" fill="none" stroke="#808080" stroke-linecap="round" stroke-linejoin="round"><g><path d="m-5 1424.1l1163-183.6"/></g></g><g clip-path="url(#f)" fill="none" stroke="#808080" stroke-linecap="round" stroke-linejoin="round"><g><path d="m-5 982l1163-183.63"/></g></g><g clip-path="url(#g)" fill="none" stroke="#808080" stroke-linecap="round" stroke-linejoin="round"><g><path d="m577.44 1452l161.89-1457"/></g></g><g clip-path="url(#h)" fill="none" stroke="#808080" stroke-linecap="round" stroke-linejoin="round"><g><path d="m1158 1393l-932-1398"/></g></g><g clip-path="url(#i)" fill="none" stroke="#000" stroke-linecap="round" stroke-linejoin="round"><g><path d="m516 1405l150-150"/></g></g><g clip-path="url(#j)" fill="none" stroke="#000" stroke-linecap="round" stroke-linejoin="round"><g><path d="m116 1405h400"/></g></g><g clip-path="url(#k)" fill="none" stroke="#000" stroke-linecap="round" stroke-linejoin="round"><g><path d="m266 855l-150 150"/></g></g><g clip-path="url(#l)" fill="none" stroke="#000" stroke-linecap="round" stroke-linejoin="round"><g><path d="m116 1005h400"/></g></g><g clip-path="url(#m)" fill="none" stroke="#000" stroke-linecap="round" stroke-linejoin="round"><g><path d="m516 1005l150-150"/></g></g><g clip-path="url(#n)" fill="none" stroke="#000" stroke-linecap="round" stroke-linejoin="round"><g><path d="m666 855h-400"/></g></g><g clip-path="url(#o)" fill="none" stroke="#000" stroke-linecap="round" stroke-linejoin="round"><g><path d="m116 1405v-400"/></g></g><g clip-path="url(#p)" fill="none" stroke="#000" stroke-linecap="round" stroke-linejoin="round"><g><path d="m516 1405v-400"/></g></g><g clip-path="url(#q)" fill="none" stroke="#000" stroke-linecap="round" stroke-linejoin="round"><g><path d="m666 1255v-400"/></g></g><g clip-path="url(#r)" fill="none" stroke="#000" stroke-linecap="round" stroke-linejoin="round"><g><path d="m666 1255h487"/></g></g><g clip-path="url(#s)" fill="none" stroke="#000" stroke-linecap="round" stroke-linejoin="round"><g><path d="m266 855v-855"/></g></g><g clip-path="url(#t)" fill="none" stroke="#006400" stroke-linecap="round" stroke-linejoin="round"><g><path d="m116 1405l475-75"/></g></g><g clip-path="url(#u)" fill="none" stroke="#006400" stroke-linecap="round" stroke-linejoin="round"><g><path d="m591 1330l50-450"/></g></g><g clip-path="url(#v)" fill="none" stroke="#006400" stroke-linecap="round" stroke-linejoin="round"><g><path d="m641 880l-475 75"/></g></g><g clip-path="url(#w)" fill="none" stroke="#006400" stroke-linecap="round" stroke-linejoin="round"><g><path d="m166 955l-50 450"/></g></g><g style="clip-path:url(#x);stroke-linejoin:round;stroke-linecap:round;fill:none;stroke-opacity:0;stroke:#e0e0e0"><g><path d="m116 1405l950-150"/></g></g><g clip-path="url(#y)" fill="#e0e0e0"><g><path d="m594.58 1330.3v-2.5h2.11v2.5zm-2.69 19.5l.41-1.8q.62.2 1 .2.64 0 .96-.4.32-.5.32-2.2v-13.1h2.11v13.2q0 2.3-.61 3.2-.75 1.1-2.53 1.1-.86 0-1.66-.2z"/></g></g><g clip-path="url(#z)" fill="#e0e0e0"><g><path d="m606.16 1355h-1.84v-11.8q-.68.7-1.76 1.3-1.09.6-1.95 1v-1.8q1.55-.7 2.71-1.8 1.17-1 1.65-2h1.19z"/></g></g><g style="clip-path:url(#A);stroke-linejoin:round;stroke-linecap:round;fill:none;stroke-opacity:0;stroke:#e0e0e0"><g><path d="m1066 1255l-800-1200"/></g></g><g clip-path="url(#B)" fill="#e0e0e0"><g><path d="m682.53 646h-1.95v-17.19h2.11v6.14q1.33-1.68 3.4-1.68 1.14 0 2.18.46 1.03.47 1.68 1.31.66.84 1.03 2.01.38 1.18.38 2.54 0 3.19-1.58 4.94-1.58 1.75-3.8 1.75-2.2 0-3.45-1.84zm-.03-6.31q0 2.23.61 3.23 1 1.63 2.7 1.63 1.38 0 2.39-1.21 1-1.2 1-3.57 0-2.44-.96-3.61-.96-1.16-2.33-1.16-1.39 0-2.4 1.2-1.01 1.21-1.01 3.49z"/></g></g><g clip-path="url(#C)" fill="#e0e0e0"><g><path d="m700.18 656h-1.85v-11.77q-.67.65-1.76 1.28-1.08.63-1.94.96v-1.8q1.55-.72 2.71-1.76 1.16-1.03 1.65-2h1.19z"/></g></g><g style="clip-path:url(#D);stroke-linejoin:round;stroke-linecap:round;fill:none;stroke-opacity:0;stroke:#e0e0e0"><g><path d="m266 55l-150 1350"/></g></g><g clip-path="url(#E)" fill="#e0e0e0"><g><path d="m176.59 713.25v-2.44h2.11v2.44zm0 14.75v-12.45h2.11v12.45z"/></g></g><g clip-path="url(#F)" fill="#e0e0e0"><g><path d="m188.16 738h-1.84v-11.77q-.68.65-1.76 1.28-1.09.63-1.95.96v-1.8q1.55-.72 2.71-1.76 1.17-1.03 1.65-2h1.19z"/></g></g><g style="clip-path:url(#G);stroke-linejoin:round;stroke-dasharray:9.5 8;stroke-width:1.5;stroke-linecap:butt;fill:none;stroke:#00c"><g><path d="m266 1255l-139.39 139.4"/></g></g><g clip-path="url(#H)" fill="#00c" fill-rule="evenodd"><g><path d="m116 1405l7.95-13.3 5.31 5.3z"/></g></g><g style="clip-path:url(#I);stroke-linejoin:round;stroke-dasharray:9.5 8;stroke-width:1.5;stroke-linecap:butt;fill:none;stroke:#00c"><g><path d="m266 1255h385"/></g></g><g clip-path="url(#J)" fill="#00c" fill-rule="evenodd"><g><path d="m666 1255l-15 3.8v-7.6z"/></g></g><g style="clip-path:url(#K);stroke-linejoin:round;stroke-dasharray:9.5 8;stroke-width:1.5;stroke-linecap:butt;fill:none;stroke:#00c"><g><path d="m266 1255v-385"/></g></g><g clip-path="url(#L)" fill="#00c" fill-rule="evenodd"><g><path d="m266 855l3.75 15h-7.5z"/></g></g><g clip-path="url(#M)" fill="#00f"><g><path d="m267 1255c0 .6-.45 1-1 1-.55 0-1-.4-1-1 0-.6.45-1 1-1 .55 0 1 .4 1 1z"/></g></g><g clip-path="url(#N)" fill="none" stroke="#000" stroke-linecap="round" stroke-linejoin="round"><g><path d="m267 1255c0 .6-.45 1-1 1-.55 0-1-.4-1-1 0-.6.45-1 1-1 .55 0 1 .4 1 1z"/></g></g><g clip-path="url(#O)" fill="#00f"><g><path d="m271.97 1249l6.59-17.2h2.46l7.03 17.2h-2.6l-2-5.2h-7.18l-1.89 5.2zm4.95-7.1h5.83l-1.8-4.7q-.81-2.2-1.22-3.6-.32 1.7-.92 3.3z"/></g></g><g clip-path="url(#P)" fill="#00f"><g><path d="m117 1405c0 .6-.45 1-1 1-.55 0-1-.4-1-1 0-.6.45-1 1-1 .55 0 1 .4 1 1z"/></g></g><g clip-path="url(#Q)" fill="none" stroke="#000" stroke-linecap="round" stroke-linejoin="round"><g><path d="m117 1405c0 .6-.45 1-1 1-.55 0-1-.4-1-1 0-.6.45-1 1-1 .55 0 1 .4 1 1z"/></g></g><g clip-path="url(#R)" fill="#00f"><g><path d="m98.766 1440v-17.2h6.434q1.97 0 3.16.5 1.19.6 1.87 1.6.68 1.1.68 2.3 0 1.1-.61 2.1-.6 1-1.8 1.6 1.56.4 2.4 1.5.83 1.1.83 2.6 0 1.2-.5 2.3-.51 1-1.26 1.6-.75.5-1.88.8-1.14.3-2.78.3zm2.264-10h3.72q1.52 0 2.17-.2.86-.2 1.3-.8.44-.6.44-1.5 0-.9-.41-1.5-.41-.7-1.17-.9-.77-.3-2.61-.3h-3.44zm0 8h4.28q1.1 0 1.55-.1.78-.1 1.31-.5.53-.3.87-.9.34-.7.34-1.5 0-.9-.5-1.6-.49-.8-1.36-1-.88-.3-2.52-.3h-3.97z"/></g></g><g clip-path="url(#S)" fill="#00f"><g><path d="m517 1405c0 .6-.45 1-1 1-.55 0-1-.4-1-1 0-.6.45-1 1-1 .55 0 1 .4 1 1z"/></g></g><g clip-path="url(#T)" fill="none" stroke="#000" stroke-linecap="round" stroke-linejoin="round"><g><path d="m517 1405c0 .6-.45 1-1 1-.55 0-1-.4-1-1 0-.6.45-1 1-1 .55 0 1 .4 1 1z"/></g></g><g clip-path="url(#U)" fill="#00f"><g><path d="m531.11 1435l2.28.5q-.72 2.8-2.58 4.3-1.86 1.5-4.54 1.5-2.77 0-4.51-1.1-1.74-1.2-2.65-3.3-.91-2.2-.91-4.6 0-2.7 1.03-4.7 1.02-2 2.91-3 1.89-1.1 4.17-1.1 2.58 0 4.34 1.3 1.76 1.4 2.44 3.7l-2.23.6q-.61-1.9-1.74-2.8-1.14-.8-2.85-.8-1.99 0-3.32.9-1.33 1-1.86 2.6-.54 1.6-.54 3.3 0 2.2.63 3.8.63 1.6 1.98 2.4 1.36.8 2.92.8 1.92 0 3.24-1.1 1.32-1.1 1.79-3.2z"/></g></g><g clip-path="url(#V)" fill="#00f"><g><path d="m667 1255c0 .6-.45 1-1 1-.55 0-1-.4-1-1 0-.6.45-1 1-1 .55 0 1 .4 1 1z"/></g></g><g clip-path="url(#W)" fill="none" stroke="#000" stroke-linecap="round" stroke-linejoin="round"><g><path d="m667 1255c0 .6-.45 1-1 1-.55 0-1-.4-1-1 0-.6.45-1 1-1 .55 0 1 .4 1 1z"/></g></g><g clip-path="url(#X)" fill="#00f"><g><path d="m672.86 1250v-17.2h5.91q2.01 0 3.06.3 1.48.3 2.51 1.2 1.36 1.1 2.04 2.9.68 1.8.68 4.1 0 2-.46 3.5-.46 1.5-1.17 2.5-.71 1-1.56 1.5-.85.6-2.06.9-1.2.3-2.76.3zm2.26-2h3.68q1.7 0 2.66-.3.96-.4 1.54-.9.81-.8 1.27-2.2.45-1.4.45-3.3 0-2.7-.89-4.2-.89-1.4-2.16-1.9-.9-.4-2.94-.4h-3.61z"/></g></g><g clip-path="url(#Y)" fill="#00f"><g><path d="m267 855c0 .55-.45 1-1 1-.55 0-1-.45-1-1 0-.55.45-1 1-1 .55 0 1 .45 1 1z"/></g></g><g clip-path="url(#Z)" fill="none" stroke="#000" stroke-linecap="round" stroke-linejoin="round"><g><path d="m267 855c0 .55-.45 1-1 1-.55 0-1-.45-1-1 0-.55.45-1 1-1 .55 0 1 .45 1 1z"/></g></g><g clip-path="url(#aa)" fill="#00f"><g><path d="m272.91 848v-17.19h12.42v2.03h-10.16v5.27h9.5v2.01h-9.5v5.85h10.55v2.03z"/></g></g><g clip-path="url(#ab)" fill="#00f"><g><path d="m117 1005c0 .6-.45 1-1 1-.55 0-1-.4-1-1 0-.6.45-1 1-1 .55 0 1 .4 1 1z"/></g></g><g clip-path="url(#ac)" fill="none" stroke="#000" stroke-linecap="round" stroke-linejoin="round"><g><path d="m117 1005c0 .6-.45 1-1 1-.55 0-1-.4-1-1 0-.6.45-1 1-1 .55 0 1 .4 1 1z"/></g></g><g clip-path="url(#ad)" fill="#00f"><g><path d="m90.969 1019v-17.2h11.591v2h-9.31v5.4h8.06v2h-8.06v7.8z"/></g></g><g clip-path="url(#ae)" fill="#00f"><g><path d="m517 1005c0 .6-.45 1-1 1-.55 0-1-.4-1-1 0-.6.45-1 1-1 .55 0 1 .4 1 1z"/></g></g><g clip-path="url(#af)" fill="none" stroke="#000" stroke-linecap="round" stroke-linejoin="round"><g><path d="m517 1005c0 .6-.45 1-1 1-.55 0-1-.4-1-1 0-.6.45-1 1-1 .55 0 1 .4 1 1z"/></g></g><g clip-path="url(#ag)" fill="#00f"><g><path d="m535.89 1019.3v-2.1h7.28v6.4q-1.67 1.3-3.45 2-1.78.7-3.66.7-2.53 0-4.6-1.1-2.07-1.1-3.12-3.1-1.06-2.1-1.06-4.6 0-2.5 1.05-4.7 1.05-2.2 3.01-3.2 1.97-1.1 4.54-1.1 1.87 0 3.37.6 1.5.6 2.36 1.7.86 1.1 1.3 2.8l-2.05.6q-.39-1.3-.96-2.1-.57-.7-1.64-1.2-1.07-.4-2.37-.4-1.56 0-2.69.4-1.14.5-1.83 1.3-.7.8-1.09 1.7-.66 1.6-.66 3.4 0 2.3.79 3.9.79 1.5 2.31 2.3 1.51.7 3.2.7 1.49 0 2.89-.5 1.41-.6 2.13-1.2v-3.2z"/></g></g><g clip-path="url(#ah)" fill="#00f"><g><path d="m667 855c0 .55-.45 1-1 1-.55 0-1-.45-1-1 0-.55.45-1 1-1 .55 0 1 .45 1 1z"/></g></g><g clip-path="url(#ai)" fill="none" stroke="#000" stroke-linecap="round" stroke-linejoin="round"><g><path d="m667 855c0 .55-.45 1-1 1-.55 0-1-.45-1-1 0-.55.45-1 1-1 .55 0 1 .45 1 1z"/></g></g><g clip-path="url(#aj)" fill="#00f"><g><path d="m671.92 848v-17.19h2.28v7.07h8.92v-7.07h2.29v17.19h-2.29v-8.09h-8.92v8.09z"/></g></g><g clip-path="url(#ak)" fill="#006400"><g><path d="m1067 1255c0 .6-.4 1-1 1-.6 0-1-.4-1-1 0-.6.4-1 1-1 .6 0 1 .4 1 1z"/></g></g><g clip-path="url(#al)" fill="none" stroke="#000" stroke-linecap="round" stroke-linejoin="round"><g><path d="m1067 1255c0 .6-.4 1-1 1-.6 0-1-.4-1-1 0-.6.4-1 1-1 .6 0 1 .4 1 1z"/></g></g><g clip-path="url(#am)" fill="#006400"><g><path d="m1066.2 1245v-17.2h2.3v17.2z"/></g></g><g clip-path="url(#an)" fill="#006400"><g><path d="m267 55c0 .552-.45 1-1 1-.55 0-1-.448-1-1 0-.552.45-1 1-1 .55 0 1 .448 1 1z"/></g></g><g clip-path="url(#ao)" fill="none" stroke="#000" stroke-linecap="round" stroke-linejoin="round"><g><path d="m267 55c0 .552-.45 1-1 1-.55 0-1-.448-1-1 0-.552.45-1 1-1 .55 0 1 .448 1 1z"/></g></g><g clip-path="url(#ap)" fill="#006400"><g><path d="m273.69 49.125l2.06-.281q.08 1.968.73 2.695.66.727 1.82.727.86 0 1.47-.391.62-.391.85-1.07.24-.68.24-2.149v-11.844h2.28v11.719q0 2.157-.52 3.336-.53 1.18-1.66 1.805-1.13.625-2.65.625-2.26 0-3.47-1.305-1.2-1.304-1.15-3.867z"/></g></g><g clip-path="url(#aq)" fill="#006400"><g><path d="m167 955c0 .55-.45 1-1 1-.55 0-1-.45-1-1 0-.55.45-1 1-1 .55 0 1 .45 1 1z"/></g></g><g clip-path="url(#ar)" fill="none" stroke="#000" stroke-linecap="round" stroke-linejoin="round"><g><path d="m167 955c0 .55-.45 1-1 1-.55 0-1-.45-1-1 0-.55.45-1 1-1 .55 0 1 .45 1 1z"/></g></g><g clip-path="url(#as)" fill="#006400"><g><path d="m146.77 950v-17.19h2.26v8.53l8.53-8.53h3.08l-7.2 6.97 7.53 10.22h-3l-6.13-8.7-2.81 2.75v5.95z"/></g></g><g clip-path="url(#at)" fill="#006400"><g><path d="m592 1330c0 .6-.45 1-1 1-.55 0-1-.4-1-1 0-.6.45-1 1-1 .55 0 1 .4 1 1z"/></g></g><g clip-path="url(#au)" fill="none" stroke="#000" stroke-linecap="round" stroke-linejoin="round"><g><path d="m592 1330c0 .6-.45 1-1 1-.55 0-1-.4-1-1 0-.6.45-1 1-1 .55 0 1 .4 1 1z"/></g></g><g clip-path="url(#av)" fill="#006400"><g><path d="m597.77 1355v-17.2h2.26v15.2h8.47v2z"/></g></g><g clip-path="url(#aw)" fill="#006400"><g><path d="m642 880c0 .55-.45 1-1 1-.55 0-1-.45-1-1 0-.55.45-1 1-1 .55 0 1 .45 1 1z"/></g></g><g clip-path="url(#ax)" fill="none" stroke="#000" stroke-linecap="round" stroke-linejoin="round"><g><path d="m642 880c0 .55-.45 1-1 1-.55 0-1-.45-1-1 0-.55.45-1 1-1 .55 0 1 .45 1 1z"/></g></g><g clip-path="url(#ay)" fill="#006400"><g><path d="m645.78 904v-17.19h3.42l4.07 12.17q.56 1.71.82 2.55.3-.94.91-2.76l4.12-11.96h3.05v17.19h-2.19v-14.38l-4.98 14.38h-2.06l-4.97-14.62v14.62z"/></g></g></g></svg>