<svg xmlns="http://www.w3.org/2000/svg" width="239.23" height="322.55" viewBox="0 0 266 359"><defs><clipPath id="0"><path d="m-.067-.967v9.4h7.133v-9.4z"/></clipPath><clipPath id="1"><path d="m0 0v360h267v-360z"/></clipPath></defs><g stroke-linecap="square" stroke-miterlimit="10"><g><g clip-path="url(#1)"><path d="m26.567 155.11l79.09 79.09 108.87-25.71 30.66-107.94-75.94-75.948-113.18 26.653z" fill-opacity=".098" fill-rule="evenodd" fill="#7f00ff"/></g><g clip-path="url(#1)"><path d="m-5 123.54l241.46 241.46" stroke-linejoin="round" stroke-linecap="round" fill="none" stroke="#6cf"/></g><g clip-path="url(#1)"><path d="m184.75 365v-370" stroke-linejoin="round" stroke-linecap="round" fill="none" stroke="#6cf"/></g><g clip-path="url(#1)"><path d="m170.06 365l101.94-358.81" stroke-linejoin="round" stroke-linecap="round" fill="none" stroke="#6cf"/></g><g clip-path="url(#1)"><path d="m26.567 234.2h158.18" stroke-linejoin="round" stroke-linecap="round" fill="none" stroke="#000"/></g><g clip-path="url(#1)"><path d="m184.75 234.2l59.55-51.41" stroke-linejoin="round" stroke-linecap="round" fill="none" stroke="#606060"/></g><g clip-path="url(#1)"><path d="m244.3 182.79l1.72-158.19" stroke-linejoin="round" stroke-linecap="round" fill="none" stroke="#000"/></g><g clip-path="url(#1)"><path d="m246.02 24.602l-61.27 51.41" stroke-linejoin="round" stroke-linecap="round" fill="none" stroke="#606060"/></g><g clip-path="url(#1)"><path d="m184.75 76.01h-158.18" stroke-linejoin="round" stroke-linecap="round" fill="none" stroke="#000"/></g><g clip-path="url(#1)"><path d="m26.567 76.01l61.27-51.41" stroke-linejoin="round" stroke-linecap="round" fill="none" stroke="#808080"/></g><g clip-path="url(#1)"><path d="m87.83 24.602h158.19" stroke-linejoin="round" stroke-linecap="round" fill="none" stroke="#000"/></g><g clip-path="url(#1)"><path d="m26.567 76.01v158.19" stroke-linejoin="round" stroke-linecap="round" fill="none" stroke="#000"/></g><g clip-path="url(#1)"><path d="m184.75 76.01v158.19" stroke-linejoin="round" stroke-linecap="round" fill="none" stroke="#000"/></g><g clip-path="url(#1)"><path d="m26.567 234.2l59.55-51.41" stroke-linejoin="round" stroke-dasharray="5 4" stroke-linecap="butt" fill="none" stroke="#000"/></g><g clip-path="url(#1)"><path d="m86.11 182.79l1.721-158.19" stroke-linejoin="round" stroke-dasharray="5 4" stroke-linecap="butt" fill="none" stroke="#000"/></g><g clip-path="url(#1)"><path d="m86.11 182.79h158.19" stroke-linejoin="round" stroke-dasharray="5 4" stroke-linecap="butt" fill="none" stroke="#000"/></g><g clip-path="url(#1)"><path d="m26.567 155.11l79.09 79.09" stroke-linejoin="round" stroke-linecap="round" fill="none" stroke="#7f00ff"/></g><g clip-path="url(#1)"><path d="m105.66 234.2l108.87-25.71" stroke-linejoin="round" stroke-linecap="round" fill="none" stroke="#7f00ff"/></g><g clip-path="url(#1)"><path d="m214.53 208.49l30.66-107.94" stroke-linejoin="round" stroke-linecap="round" fill="none" stroke="#7f00ff"/></g><g clip-path="url(#1)"><path d="m245.19 100.55l-75.94-75.948" stroke-linejoin="round" stroke-linecap="round" fill="none" stroke="#7f00ff"/></g><g clip-path="url(#1)"><path d="m169.25 24.602l-113.18 26.653" stroke-linejoin="round" stroke-linecap="round" fill="none" stroke="#7f00ff"/></g><g clip-path="url(#1)"><path d="m56.07 51.26l-29.504 103.86" stroke-linejoin="round" stroke-linecap="round" fill="none" stroke="#7f00ff"/></g><g clip-path="url(#1)"><path d="m27.567 234.2c0 .55-.448 1-1 1-.553 0-1-.45-1-1 0-.55.447-1 1-1 .552 0 1 .45 1 1" fill="#00f"/></g><g clip-path="url(#1)"><path d="m27.567 234.2c0 .55-.448 1-1 1-.553 0-1-.45-1-1 0-.55.447-1 1-1 .552 0 1 .45 1 1z" stroke-linejoin="round" stroke-linecap="round" fill="none" stroke="#000"/></g><g clip-path="url(#1)"><text font-style="italic" font-family="serif" fill="#00f" font-size="12" x="0" y="0" transform="translate(18 249)">B</text></g><g clip-path="url(#1)"><path d="m185.75 234.2c0 .55-.44 1-1 1-.55 0-1-.45-1-1 0-.55.45-1 1-1 .56 0 1 .45 1 1" fill="#00f"/></g><g clip-path="url(#1)"><path d="m185.75 234.2c0 .55-.44 1-1 1-.55 0-1-.45-1-1 0-.55.45-1 1-1 .56 0 1 .45 1 1z" stroke-linejoin="round" stroke-linecap="round" fill="none" stroke="#000"/></g><g clip-path="url(#1)"><text font-style="italic" font-family="serif" fill="#00f" font-size="12" x="0" y="0" transform="translate(182 251)">C</text></g><g clip-path="url(#1)"><path d="m245.3 182.79c0 .55-.45 1-1 1-.55 0-1-.45-1-1 0-.55.45-1 1-1 .55 0 1 .45 1 1" fill="#00f"/></g><g clip-path="url(#1)"><path d="m245.3 182.79c0 .55-.45 1-1 1-.55 0-1-.45-1-1 0-.55.45-1 1-1 .55 0 1 .45 1 1z" stroke-linejoin="round" stroke-linecap="round" fill="none" stroke="#000"/></g><g clip-path="url(#1)"><text font-style="italic" font-family="serif" fill="#00f" font-size="12" x="0" y="0" transform="translate(248 186)">D</text></g><g clip-path="url(#1)"><path d="m87.11 182.79c0 .55-.447 1-1 1-.552 0-1-.45-1-1 0-.55.448-1 1-1 .553 0 1 .45 1 1" fill="#00f"/></g><g clip-path="url(#1)"><path d="m87.11 182.79c0 .55-.447 1-1 1-.552 0-1-.45-1-1 0-.55.448-1 1-1 .553 0 1 .45 1 1z" stroke-linejoin="round" stroke-linecap="round" fill="none" stroke="#000"/></g><g clip-path="url(#1)"><text font-style="italic" font-family="serif" fill="#00f" font-size="12" x="0" y="0" transform="translate(71 184)">A</text></g><g clip-path="url(#1)"><path d="m27.567 76.01c0 .553-.448 1-1 1-.553 0-1-.447-1-1 0-.552.447-1 1-1 .552 0 1 .448 1 1" fill="#00f"/></g><g clip-path="url(#1)"><path d="m27.567 76.01c0 .553-.448 1-1 1-.553 0-1-.447-1-1 0-.552.447-1 1-1 .552 0 1 .448 1 1z" stroke-linejoin="round" stroke-linecap="round" fill="none" stroke="#000"/></g><g clip-path="url(#1)"><text font-style="italic" font-family="serif" fill="#00f" font-size="12" x="0" y="0" transform="translate(14 83)">F</text></g><g clip-path="url(#1)"><path d="m185.75 76.01c0 .553-.44 1-1 1-.55 0-1-.447-1-1 0-.552.45-1 1-1 .56 0 1 .448 1 1" fill="#00f"/></g><g clip-path="url(#1)"><path d="m185.75 76.01c0 .553-.44 1-1 1-.55 0-1-.447-1-1 0-.552.45-1 1-1 .56 0 1 .448 1 1z" stroke-linejoin="round" stroke-linecap="round" fill="none" stroke="#000"/></g><g clip-path="url(#1)"><text font-style="italic" font-family="serif" fill="#00f" font-size="12" x="0" y="0" transform="translate(191 82)">G</text></g><g clip-path="url(#1)"><path d="m247.02 24.602c0 .552-.45 1-1 1-.55 0-1-.448-1-1 0-.553.45-1 1-1 .55 0 1 .447 1 1" fill="#00f"/></g><g clip-path="url(#1)"><path d="m247.02 24.602c0 .552-.45 1-1 1-.55 0-1-.448-1-1 0-.553.45-1 1-1 .55 0 1 .447 1 1z" stroke-linejoin="round" stroke-linecap="round" fill="none" stroke="#000"/></g><g clip-path="url(#1)"><text font-style="italic" font-family="serif" fill="#00f" font-size="12" x="0" y="0" transform="translate(250 23)">H</text></g><g clip-path="url(#1)"><path d="m88.83 24.602c0 .552-.447 1-1 1-.552 0-1-.448-1-1 0-.553.448-1 1-1 .553 0 1 .447 1 1" fill="#00f"/></g><g clip-path="url(#1)"><path d="m88.83 24.602c0 .552-.447 1-1 1-.552 0-1-.448-1-1 0-.553.448-1 1-1 .553 0 1 .447 1 1z" stroke-linejoin="round" stroke-linecap="round" fill="none" stroke="#000"/></g><g clip-path="url(#1)"><text font-style="italic" font-family="serif" fill="#00f" font-size="12" x="0" y="0" transform="translate(77 20)">E</text></g><g clip-path="url(#1)"><path d="m27.567 155.11c0 .55-.448 1-1 1-.553 0-1-.45-1-1 0-.56.447-1 1-1 .552 0 1 .44 1 1" fill="#063"/></g><g clip-path="url(#1)"><path d="m27.567 155.11c0 .55-.448 1-1 1-.553 0-1-.45-1-1 0-.56.447-1 1-1 .552 0 1 .44 1 1z" stroke-linejoin="round" stroke-linecap="round" fill="none" stroke="#000"/></g><g clip-path="url(#1)"><text font-style="italic" font-family="serif" fill="#063" font-size="12" x="0" y="0" transform="translate(16 160)">I</text></g><g clip-path="url(#1)"><path d="m106.66 234.2c0 .55-.45 1-1 1-.55 0-1-.45-1-1 0-.55.45-1 1-1 .55 0 1 .45 1 1" fill="#063"/></g><g clip-path="url(#1)"><path d="m106.66 234.2c0 .55-.45 1-1 1-.55 0-1-.45-1-1 0-.55.45-1 1-1 .55 0 1 .45 1 1z" stroke-linejoin="round" stroke-linecap="round" fill="none" stroke="#000"/></g><g clip-path="url(#1)"><text font-style="italic" font-family="serif" fill="#063" font-size="12" x="0" y="0" transform="translate(101 250)">J</text></g><g clip-path="url(#1)"><path d="m215.53 208.49c0 .56-.45 1-1 1-.56 0-1-.44-1-1 0-.55.44-1 1-1 .55 0 1 .45 1 1" fill="#063"/></g><g clip-path="url(#1)"><path d="m215.53 208.49c0 .56-.45 1-1 1-.56 0-1-.44-1-1 0-.55.44-1 1-1 .55 0 1 .45 1 1z" stroke-linejoin="round" stroke-linecap="round" fill="none" stroke="#000"/></g><g clip-path="url(#1)"><text font-style="italic" font-family="serif" fill="#063" font-size="12" x="0" y="0" transform="translate(217 221)">K</text></g><g clip-path="url(#1)"><path d="m185.75 313.29c0 .55-.44 1-1 1-.55 0-1-.45-1-1 0-.55.45-1 1-1 .56 0 1 .45 1 1" fill="#444"/></g><g clip-path="url(#1)"><path d="m185.75 313.29c0 .55-.44 1-1 1-.55 0-1-.45-1-1 0-.55.45-1 1-1 .56 0 1 .45 1 1z" stroke-linejoin="round" stroke-linecap="round" fill="none" stroke="#000"/></g><g clip-path="url(#1)"><text font-style="italic" font-family="serif" fill="#444" font-size="12" x="0" y="0" transform="translate(189 311)">L</text></g><g clip-path="url(#1)"><path d="m246.19 100.55c0 .55-.44 1-1 1-.55 0-1-.45-1-1 0-.557.45-1 1-1 .56 0 1 .448 1 1" fill="#444"/></g><g clip-path="url(#1)"><path d="m246.19 100.55c0 .55-.44 1-1 1-.55 0-1-.45-1-1 0-.557.45-1 1-1 .56 0 1 .448 1 1z" stroke-linejoin="round" stroke-linecap="round" fill="none" stroke="#000"/></g><g clip-path="url(#1)"><text font-style="italic" font-family="serif" fill="#444" font-size="12" x="0" y="0" transform="translate(249 99)">P</text></g><g clip-path="url(#1)"><path d="m170.25 24.602c0 .552-.45 1-1 1-.55 0-1-.448-1-1 0-.553.45-1 1-1 .55 0 1 .447 1 1" fill="#444"/></g><g clip-path="url(#1)"><path d="m170.25 24.602c0 .552-.45 1-1 1-.55 0-1-.448-1-1 0-.553.45-1 1-1 .55 0 1 .447 1 1z" stroke-linejoin="round" stroke-linecap="round" fill="none" stroke="#000"/></g><g clip-path="url(#1)"><text font-style="italic" font-family="serif" fill="#444" font-size="12" x="0" y="0" transform="translate(173 23)">Q</text></g><g clip-path="url(#1)"><path d="m57.07 51.26c0 .552-.448 1-1 1-.553 0-1-.448-1-1 0-.552.447-1 1-1 .552 0 1 .448 1 1" fill="#444"/></g><g clip-path="url(#1)"><path d="m57.07 51.26c0 .552-.448 1-1 1-.553 0-1-.448-1-1 0-.552.447-1 1-1 .552 0 1 .448 1 1z" stroke-linejoin="round" stroke-linecap="round" fill="none" stroke="#000"/></g><g clip-path="url(#1)"><text font-style="italic" font-family="serif" fill="#444" font-size="12" x="0" y="0" transform="translate(49 48)">R</text></g></g><g transform="matrix(1.06315 0 0 .9838 195.93 267.39)"><g transform="matrix(15 0 0 15 1 14.5)" clip-path="url(#0)"><path d="m.844-.563q0 0 0 .016-.031 0-.047.016 0 .016 0 .047 0 .109-.078.25-.031.094-.102.156-.07.063-.148.094-.047.016-.078.016-.031 0-.109-.031-.031.016-.063.016h-.031q-.125 0-.125-.031.031-.031.125-.031.047 0 .094.016.016-.016.063-.063.047-.047.07-.086.023-.039.07-.102.156-.219.281-.266-.047-.141-.219-.141-.078 0-.164.047-.086.047-.133.125-.063.094-.063.156 0 .063.063.063.047 0 .102-.039.055-.039.086-.086.063-.078.063-.141 0 0 .016 0 0 0 0 .016 0 .063-.047.125-.047.063-.109.109-.063.047-.109.047-.063 0-.086-.031-.023-.031-.023-.078 0-.063.063-.156.047-.078.148-.125.102-.047.195-.047.203 0 .25.141.016-.016.047-.016 0 0 0 .016m-.141.328q.063-.141.063-.25 0-.016 0-.031-.063.047-.188.25-.141.187-.266.25.047.031.078.031.031 0 .078-.016.063-.031.125-.094.063-.063.109-.141m-.484.234q.016 0 .031-.016-.031-.016-.063-.016-.063 0-.063.016 0 0 .008 0 .008 0 .031.008.023.008.055.008" fill="#6cf"/></g></g></g></svg>