<svg height="12.7cm" viewBox="0 0 638 634" width="12.78cm" xmlns="http://www.w3.org/2000/svg" xmlns:xlink="http://www.w3.org/1999/xlink"><clipPath id="a"><path d="m0 0v635h639v-635z"/></clipPath><clipPath id="b"><path d="m0 0v635h639v-635z"/></clipPath><clipPath id="c"><path d="m0 0v635h639v-635z"/></clipPath><clipPath id="d"><path d="m0 0v635h639v-635z"/></clipPath><clipPath id="e"><path d="m0 0v635h639v-635z"/></clipPath><clipPath id="f"><path d="m0 0v635h639v-635z"/></clipPath><clipPath id="g"><path d="m0 0v635h639v-635z"/></clipPath><clipPath id="h"><path d="m0 0v635h639v-635z"/></clipPath><clipPath id="i"><path d="m0 0v635h639v-635z"/></clipPath><clipPath id="j"><path d="m0 0v635h639v-635z"/></clipPath><clipPath id="k"><path d="m0 0v635h639v-635z"/></clipPath><clipPath id="l"><path d="m0 0v635h639v-635z"/></clipPath><clipPath id="m"><path d="m0 0v635h639v-635z"/></clipPath><clipPath id="n"><path d="m0 0v635h639v-635z"/></clipPath><clipPath id="o"><path d="m0 0v635h639v-635z"/></clipPath><clipPath id="p"><path d="m0 0v635h639v-635z"/></clipPath><clipPath id="q"><path d="m0 0v635h639v-635z"/></clipPath><clipPath id="r"><path d="m0 0v635h639v-635z"/></clipPath><clipPath id="s"><path d="m0 0v635h639v-635z"/></clipPath><clipPath id="t"><path d="m0 0v635h639v-635z"/></clipPath><clipPath id="u"><path d="m0 0v635h639v-635z"/></clipPath><clipPath id="v"><path d="m0 0v635h639v-635z"/></clipPath><clipPath id="w"><path d="m0 0v635h639v-635z"/></clipPath><clipPath id="x"><path d="m0 0v635h639v-635z"/></clipPath><clipPath id="y"><path d="m0 0v635h639v-635z"/></clipPath><clipPath id="z"><path d="m0 0v635h639v-635z"/></clipPath><clipPath id="A"><path d="m0 0v635h639v-635z"/></clipPath><clipPath id="B"><path d="m0 0v635h639v-635z"/></clipPath><clipPath id="C"><path d="m0 0v635h639v-635z"/></clipPath><clipPath id="D"><path d="m0 0v635h639v-635z"/></clipPath><clipPath id="E"><path d="m0 0v635h639v-635z"/></clipPath><clipPath id="F"><path d="m0 0v635h639v-635z"/></clipPath><clipPath id="G"><path d="m0 0v635h639v-635z"/></clipPath><clipPath id="H"><path d="m0 0v635h639v-635z"/></clipPath><clipPath id="I"><path d="m0 0v635h639v-635z"/></clipPath><clipPath id="J"><path d="m0 0v635h639v-635z"/></clipPath><clipPath id="K"><path d="m0 0v635h639v-635z"/></clipPath><clipPath id="L"><path d="m0 0v635h639v-635z"/></clipPath><clipPath id="M"><path d="m0 0v635h639v-635z"/></clipPath><g stroke-linecap="square" stroke-miterlimit="10"><g clip-path="url(#a)" fill="none" stroke="#000" stroke-linecap="round" stroke-linejoin="round"><g><path d="m440 590l150-150"/></g></g><g clip-path="url(#b)" fill="none" stroke="#000" stroke-linecap="round" stroke-linejoin="round"><g><path d="m40 590h400"/></g></g><g clip-path="url(#c)" fill="none" stroke="#000" stroke-linecap="round" stroke-linejoin="round"><g><path d="m190 40l-150 150"/></g></g><g clip-path="url(#d)" fill="none" stroke="#000" stroke-linecap="round" stroke-linejoin="round"><g><path d="m40 190h400"/></g></g><g clip-path="url(#e)" fill="none" stroke="#000" stroke-linecap="round" stroke-linejoin="round"><g><path d="m440 190l150-150"/></g></g><g clip-path="url(#f)" fill="none" stroke="#000" stroke-linecap="round" stroke-linejoin="round"><g><path d="m590 40h-400"/></g></g><g clip-path="url(#g)" fill="none" stroke="#000" stroke-linecap="round" stroke-linejoin="round"><g><path d="m40 590v-400"/></g></g><g clip-path="url(#h)" fill="none" stroke="#000" stroke-linecap="round" stroke-linejoin="round"><g><path d="m440 590v-400"/></g></g><g clip-path="url(#i)" fill="none" stroke="#000" stroke-linecap="round" stroke-linejoin="round"><g><path d="m590 440v-400"/></g></g><g style="clip-path:url(#j);stroke-linejoin:round;stroke-dasharray:9.5 8;stroke-width:1.5;stroke-linecap:butt;fill:none;stroke:#00c"><g><path d="m190 440l-139.393 139.39"/></g></g><g clip-path="url(#k)" fill="#00c" fill-rule="evenodd"><g><path d="m40 590l7.955-13.26 5.303 5.31z"/></g></g><g style="clip-path:url(#l);stroke-linejoin:round;stroke-dasharray:9.5 8;stroke-width:1.5;stroke-linecap:butt;fill:none;stroke:#00c"><g><path d="m190 440h385"/></g></g><g clip-path="url(#m)" fill="#00c" fill-rule="evenodd"><g><path d="m590 440l-15 3.75v-7.5z"/></g></g><g style="clip-path:url(#n);stroke-linejoin:round;stroke-dasharray:9.5 8;stroke-width:1.5;stroke-linecap:butt;fill:none;stroke:#00c"><g><path d="m190 440v-385"/></g></g><g clip-path="url(#o)" fill="#00c" fill-rule="evenodd"><g><path d="m190 40l3.75 15h-7.5z"/></g></g><g clip-path="url(#p)" fill="#00f"><g><path d="m191 440c0 .55-.45 1-1 1-.55 0-1-.45-1-1 0-.55.45-1 1-1 .55 0 1 .45 1 1z"/></g></g><g clip-path="url(#q)" fill="none" stroke="#000" stroke-linecap="round" stroke-linejoin="round"><g><path d="m191 440c0 .55-.45 1-1 1-.55 0-1-.45-1-1 0-.55.45-1 1-1 .55 0 1 .45 1 1z"/></g></g><g clip-path="url(#r)" fill="#00f"><g><path d="m195.97 434l6.59-17.19h2.46l7.03 17.19h-2.6l-2-5.2h-7.18l-1.89 5.2zm4.95-7.06h5.83l-1.8-4.75q-.81-2.17-1.22-3.57-.32 1.66-.92 3.29z"/></g></g><g clip-path="url(#s)" fill="#00f"><g><path d="m41 590c0 .55-.448 1-1 1-.552 0-1-.45-1-1 0-.55.448-1 1-1 .552 0 1 .45 1 1z"/></g></g><g clip-path="url(#t)" fill="none" stroke="#000" stroke-linecap="round" stroke-linejoin="round"><g><path d="m41 590c0 .55-.448 1-1 1-.552 0-1-.45-1-1 0-.55.448-1 1-1 .552 0 1 .45 1 1z"/></g></g><g clip-path="url(#u)" fill="#00f"><g><path d="m22.766 625v-17.19h6.437q1.969 0 3.156.53 1.188.52 1.868 1.61.679 1.08.679 2.27 0 1.09-.601 2.07-.602.98-1.805 1.57 1.562.45 2.398 1.55.836 1.11.836 2.61 0 1.2-.507 2.24-.508 1.04-1.258 1.6-.75.56-1.883.85-1.133.29-2.774.29zm2.265-9.97h3.719q1.516 0 2.172-.19.859-.26 1.297-.86.437-.59.437-1.5 0-.86-.406-1.5-.406-.65-1.172-.89-.766-.25-2.609-.25h-3.438zm0 7.94h4.281q1.094 0 1.547-.08.782-.14 1.313-.47.531-.33.867-.95.336-.63.336-1.45 0-.96-.492-1.67-.492-.71-1.367-1-.875-.29-2.516-.29h-3.969z"/></g></g><g clip-path="url(#v)" fill="#00f"><g><path d="m441 590c0 .55-.45 1-1 1-.55 0-1-.45-1-1 0-.55.45-1 1-1 .55 0 1 .45 1 1z"/></g></g><g clip-path="url(#w)" fill="none" stroke="#000" stroke-linecap="round" stroke-linejoin="round"><g><path d="m441 590c0 .55-.45 1-1 1-.55 0-1-.45-1-1 0-.55.45-1 1-1 .55 0 1 .45 1 1z"/></g></g><g clip-path="url(#x)" fill="#00f"><g><path d="m455.11 619.97l2.28.58q-.72 2.79-2.58 4.27-1.86 1.48-4.54 1.48-2.77 0-4.51-1.14-1.74-1.13-2.65-3.28-.91-2.15-.91-4.6 0-2.69 1.03-4.69 1.02-2 2.91-3.03 1.89-1.03 4.17-1.03 2.58 0 4.34 1.31 1.76 1.32 2.44 3.69l-2.23.53q-.61-1.87-1.74-2.73-1.14-.86-2.85-.86-1.99 0-3.32.95-1.33.96-1.86 2.55-.54 1.59-.54 3.3 0 2.18.63 3.82.63 1.64 1.98 2.45 1.36.8 2.92.8 1.92 0 3.24-1.1 1.32-1.1 1.79-3.27z"/></g></g><g clip-path="url(#y)" fill="#00f"><g><path d="m591 440c0 .55-.45 1-1 1-.55 0-1-.45-1-1 0-.55.45-1 1-1 .55 0 1 .45 1 1z"/></g></g><g clip-path="url(#z)" fill="none" stroke="#000" stroke-linecap="round" stroke-linejoin="round"><g><path d="m591 440c0 .55-.45 1-1 1-.55 0-1-.45-1-1 0-.55.45-1 1-1 .55 0 1 .45 1 1z"/></g></g><g clip-path="url(#A)" fill="#00f"><g><path d="m596.86 435v-17.19h5.91q2.01 0 3.06.25 1.48.35 2.51 1.24 1.36 1.14 2.04 2.93.68 1.79.68 4.08 0 1.96-.46 3.47-.46 1.52-1.17 2.51-.71.99-1.56 1.55-.85.57-2.06.86-1.2.3-2.76.3zm2.26-2.03h3.68q1.7 0 2.66-.31.96-.32 1.54-.89.81-.82 1.27-2.18.45-1.37.45-3.31 0-2.7-.89-4.15-.89-1.44-2.16-1.93-.9-.36-2.94-.36h-3.61z"/></g></g><g clip-path="url(#B)" fill="#00f"><g><path d="m191 40c0 .552-.45 1-1 1-.55 0-1-.448-1-1 0-.552.45-1 1-1 .55 0 1 .448 1 1z"/></g></g><g clip-path="url(#C)" fill="none" stroke="#000" stroke-linecap="round" stroke-linejoin="round"><g><path d="m191 40c0 .552-.45 1-1 1-.55 0-1-.448-1-1 0-.552.45-1 1-1 .55 0 1 .448 1 1z"/></g></g><g clip-path="url(#D)" fill="#00f"><g><path d="m196.91 33v-17.188h12.42v2.032h-10.16v5.265h9.5v2.016h-9.5v5.844h10.55v2.031z"/></g></g><g clip-path="url(#E)" fill="#00f"><g><path d="m41 190c0 .55-.448 1-1 1-.552 0-1-.45-1-1 0-.55.448-1 1-1 .552 0 1 .45 1 1z"/></g></g><g clip-path="url(#F)" fill="none" stroke="#000" stroke-linecap="round" stroke-linejoin="round"><g><path d="m41 190c0 .55-.448 1-1 1-.552 0-1-.45-1-1 0-.55.448-1 1-1 .552 0 1 .45 1 1z"/></g></g><g clip-path="url(#G)" fill="#00f"><g><path d="m14.969 204v-17.19h11.593v2.03h-9.312v5.33h8.062v2.02h-8.062v7.81z"/></g></g><g clip-path="url(#H)" fill="#00f"><g><path d="m441 190c0 .55-.45 1-1 1-.55 0-1-.45-1-1 0-.55.45-1 1-1 .55 0 1 .45 1 1z"/></g></g><g clip-path="url(#I)" fill="none" stroke="#000" stroke-linecap="round" stroke-linejoin="round"><g><path d="m441 190c0 .55-.45 1-1 1-.55 0-1-.45-1-1 0-.55.45-1 1-1 .55 0 1 .45 1 1z"/></g></g><g clip-path="url(#J)" fill="#00f"><g><path d="m459.89 204.27v-2.02l7.28-.02v6.38q-1.67 1.33-3.45 2.01-1.78.68-3.66.68-2.53 0-4.6-1.09-2.07-1.09-3.12-3.14-1.06-2.05-1.06-4.59 0-2.5 1.05-4.67 1.05-2.17 3.01-3.22 1.97-1.06 4.54-1.06 1.87 0 3.37.6 1.5.6 2.36 1.68.86 1.08 1.3 2.81l-2.05.57q-.39-1.31-.96-2.07-.57-.74-1.64-1.2-1.07-.45-2.37-.45-1.56 0-2.69.48-1.14.47-1.83 1.25-.7.77-1.09 1.69-.66 1.59-.66 3.45 0 2.3.79 3.85.79 1.54 2.31 2.29 1.51.75 3.2.75 1.49 0 2.89-.56 1.41-.56 2.13-1.22v-3.18z"/></g></g><g clip-path="url(#K)" fill="#00f"><g><path d="m591 40c0 .552-.45 1-1 1-.55 0-1-.448-1-1 0-.552.45-1 1-1 .55 0 1 .448 1 1z"/></g></g><g clip-path="url(#L)" fill="none" stroke="#000" stroke-linecap="round" stroke-linejoin="round"><g><path d="m591 40c0 .552-.45 1-1 1-.55 0-1-.448-1-1 0-.552.45-1 1-1 .55 0 1 .448 1 1z"/></g></g><g clip-path="url(#M)" fill="#00f"><g><path d="m595.92 33v-17.188h2.28v7.063h8.92v-7.063h2.29v17.188h-2.29v-8.094h-8.92v8.094z"/></g></g></g></svg>