<svg xmlns="http://www.w3.org/2000/svg" width="478.46" height="464.12" viewBox="0 0 266 258"><defs><clipPath id="0"><path d="m0 0v259h267v-259z"/></clipPath></defs><g stroke-miterlimit="10" stroke-linecap="square"><g><g clip-path="url(#0)"><path d="m26.567 234.2h158.18" stroke-linejoin="round" stroke-linecap="round" fill="none" stroke="#000"/></g><g clip-path="url(#0)"><path d="m184.75 234.2l59.55-51.41" stroke-linejoin="round" stroke-linecap="round" fill="none" stroke="#606060"/></g><g clip-path="url(#0)"><path d="m244.3 182.79l1.72-158.19" stroke-linejoin="round" stroke-linecap="round" fill="none" stroke="#000"/></g><g clip-path="url(#0)"><path d="m246.02 24.602l-61.27 51.41" stroke-linejoin="round" stroke-linecap="round" fill="none" stroke="#606060"/></g><g clip-path="url(#0)"><path d="m184.75 76.01h-158.18" stroke-linejoin="round" stroke-linecap="round" fill="none" stroke="#000"/></g><g clip-path="url(#0)"><path d="m26.567 76.01l61.27-51.41" stroke-linejoin="round" stroke-linecap="round" fill="none" stroke="#808080"/></g><g clip-path="url(#0)"><path d="m87.83 24.602h158.19" stroke-linejoin="round" stroke-linecap="round" fill="none" stroke="#000"/></g><g clip-path="url(#0)"><path d="m26.567 76.01v158.19" stroke-linejoin="round" stroke-linecap="round" fill="none" stroke="#000"/></g><g clip-path="url(#0)"><path d="m184.75 76.01v158.19" stroke-linejoin="round" stroke-linecap="round" fill="none" stroke="#000"/></g><g clip-path="url(#0)"><path d="m26.567 234.2l59.55-51.41" stroke-linejoin="round" stroke-dasharray="5 4" stroke-linecap="butt" fill="none" stroke="#000"/></g><g clip-path="url(#0)"><path d="m86.11 182.79l1.721-158.19" stroke-linejoin="round" stroke-dasharray="5 4" stroke-linecap="butt" fill="none" stroke="#000"/></g><g clip-path="url(#0)"><path d="m86.11 182.79h158.19" stroke-linejoin="round" stroke-dasharray="5 4" stroke-linecap="butt" fill="none" stroke="#000"/></g><g clip-path="url(#0)"><path d="m27.567 234.2c0 .55-.448 1-1 1-.553 0-1-.45-1-1 0-.55.447-1 1-1 .552 0 1 .45 1 1" fill="#00f"/></g><g clip-path="url(#0)"><path d="m27.567 234.2c0 .55-.448 1-1 1-.553 0-1-.45-1-1 0-.55.447-1 1-1 .552 0 1 .45 1 1z" stroke-linejoin="round" stroke-linecap="round" fill="none" stroke="#000"/></g><g clip-path="url(#0)"><text font-style="italic" font-family="serif" fill="#00f" font-size="12" x="0" y="0" transform="translate(18 249)">B</text></g><g clip-path="url(#0)"><path d="m185.75 234.2c0 .55-.44 1-1 1-.55 0-1-.45-1-1 0-.55.45-1 1-1 .56 0 1 .45 1 1" fill="#00f"/></g><g clip-path="url(#0)"><path d="m185.75 234.2c0 .55-.44 1-1 1-.55 0-1-.45-1-1 0-.55.45-1 1-1 .56 0 1 .45 1 1z" stroke-linejoin="round" stroke-linecap="round" fill="none" stroke="#000"/></g><g clip-path="url(#0)"><text font-style="italic" font-family="serif" fill="#00f" font-size="12" x="0" y="0" transform="translate(182 251)">C</text></g><g clip-path="url(#0)"><path d="m245.3 182.79c0 .55-.45 1-1 1-.55 0-1-.45-1-1 0-.55.45-1 1-1 .55 0 1 .45 1 1" fill="#00f"/></g><g clip-path="url(#0)"><path d="m245.3 182.79c0 .55-.45 1-1 1-.55 0-1-.45-1-1 0-.55.45-1 1-1 .55 0 1 .45 1 1z" stroke-linejoin="round" stroke-linecap="round" fill="none" stroke="#000"/></g><g clip-path="url(#0)"><text font-style="italic" font-family="serif" fill="#00f" font-size="12" x="0" y="0" transform="translate(248 186)">D</text></g><g clip-path="url(#0)"><path d="m87.11 182.79c0 .55-.447 1-1 1-.552 0-1-.45-1-1 0-.55.448-1 1-1 .553 0 1 .45 1 1" fill="#00f"/></g><g clip-path="url(#0)"><path d="m87.11 182.79c0 .55-.447 1-1 1-.552 0-1-.45-1-1 0-.55.448-1 1-1 .553 0 1 .45 1 1z" stroke-linejoin="round" stroke-linecap="round" fill="none" stroke="#000"/></g><g clip-path="url(#0)"><text font-style="italic" font-family="serif" fill="#00f" font-size="12" x="0" y="0" transform="translate(71 184)">A</text></g><g clip-path="url(#0)"><path d="m27.567 76.01c0 .553-.448 1-1 1-.553 0-1-.447-1-1 0-.552.447-1 1-1 .552 0 1 .448 1 1" fill="#00f"/></g><g clip-path="url(#0)"><path d="m27.567 76.01c0 .553-.448 1-1 1-.553 0-1-.447-1-1 0-.552.447-1 1-1 .552 0 1 .448 1 1z" stroke-linejoin="round" stroke-linecap="round" fill="none" stroke="#000"/></g><g clip-path="url(#0)"><text font-style="italic" font-family="serif" fill="#00f" font-size="12" x="0" y="0" transform="translate(14 83)">F</text></g><g clip-path="url(#0)"><path d="m185.75 76.01c0 .553-.44 1-1 1-.55 0-1-.447-1-1 0-.552.45-1 1-1 .56 0 1 .448 1 1" fill="#00f"/></g><g clip-path="url(#0)"><path d="m185.75 76.01c0 .553-.44 1-1 1-.55 0-1-.447-1-1 0-.552.45-1 1-1 .56 0 1 .448 1 1z" stroke-linejoin="round" stroke-linecap="round" fill="none" stroke="#000"/></g><g clip-path="url(#0)"><text font-style="italic" font-family="serif" fill="#00f" font-size="12" x="0" y="0" transform="translate(191 82)">G</text></g><g clip-path="url(#0)"><path d="m247.02 24.602c0 .552-.45 1-1 1-.55 0-1-.448-1-1 0-.553.45-1 1-1 .55 0 1 .447 1 1" fill="#00f"/></g><g clip-path="url(#0)"><path d="m247.02 24.602c0 .552-.45 1-1 1-.55 0-1-.448-1-1 0-.553.45-1 1-1 .55 0 1 .447 1 1z" stroke-linejoin="round" stroke-linecap="round" fill="none" stroke="#000"/></g><g clip-path="url(#0)"><text font-style="italic" font-family="serif" fill="#00f" font-size="12" x="0" y="0" transform="translate(250 23)">H</text></g><g clip-path="url(#0)"><path d="m88.83 24.602c0 .552-.447 1-1 1-.552 0-1-.448-1-1 0-.553.448-1 1-1 .553 0 1 .447 1 1" fill="#00f"/></g><g clip-path="url(#0)"><path d="m88.83 24.602c0 .552-.447 1-1 1-.552 0-1-.448-1-1 0-.553.448-1 1-1 .553 0 1 .447 1 1z" stroke-linejoin="round" stroke-linecap="round" fill="none" stroke="#000"/></g><g clip-path="url(#0)"><text font-style="italic" font-family="serif" fill="#00f" font-size="12" x="0" y="0" transform="translate(77 20)">E</text></g><g clip-path="url(#0)"><path d="m27.567 155.11c0 .55-.448 1-1 1-.553 0-1-.45-1-1 0-.56.447-1 1-1 .552 0 1 .44 1 1" fill="#063"/></g><g clip-path="url(#0)"><path d="m27.567 155.11c0 .55-.448 1-1 1-.553 0-1-.45-1-1 0-.56.447-1 1-1 .552 0 1 .44 1 1z" stroke-linejoin="round" stroke-linecap="round" fill="none" stroke="#000"/></g><g clip-path="url(#0)"><text font-style="italic" font-family="serif" fill="#063" font-size="12" x="0" y="0" transform="translate(16 160)">I</text></g><g clip-path="url(#0)"><path d="m106.66 234.2c0 .55-.45 1-1 1-.55 0-1-.45-1-1 0-.55.45-1 1-1 .55 0 1 .45 1 1" fill="#063"/></g><g clip-path="url(#0)"><path d="m106.66 234.2c0 .55-.45 1-1 1-.55 0-1-.45-1-1 0-.55.45-1 1-1 .55 0 1 .45 1 1z" stroke-linejoin="round" stroke-linecap="round" fill="none" stroke="#000"/></g><g clip-path="url(#0)"><text font-style="italic" font-family="serif" fill="#063" font-size="12" x="0" y="0" transform="translate(101 250)">J</text></g><g clip-path="url(#0)"><path d="m215.53 208.49c0 .56-.45 1-1 1-.56 0-1-.44-1-1 0-.55.44-1 1-1 .55 0 1 .45 1 1" fill="#063"/></g><g clip-path="url(#0)"><path d="m215.53 208.49c0 .56-.45 1-1 1-.56 0-1-.44-1-1 0-.55.44-1 1-1 .55 0 1 .45 1 1z" stroke-linejoin="round" stroke-linecap="round" fill="none" stroke="#000"/></g><g clip-path="url(#0)"><text font-style="italic" font-family="serif" fill="#063" font-size="12" x="0" y="0" transform="translate(217 221)">K</text></g></g></g></svg>