<?xml version="1.0" encoding="utf-8"?>
<svg version="1.1" id="Layer_1" xmlns="http://www.w3.org/2000/svg" xmlns:xlink="http://www.w3.org/1999/xlink" x="0px" y="0px"
	 viewBox="0 0 122.9 122.9" style="enable-background:new 0 0 122.9 122.9;" xml:space="preserve">
<style type="text/css">
	.st0{fill:#7D7D7D;}
	.st1{fill:#FF0000;stroke:#FFFFFF;stroke-width:4;stroke-miterlimit:10;}
</style>
<path class="st0" d="M61.4,0c17,0,32.3,6.9,43.5,18c11.1,11.1,18,26.5,18,43.5c0,17-6.9,32.3-18,43.5c-11.1,11.1-26.5,18-43.5,18
	c-17,0-32.3-6.9-43.5-18C6.9,93.8,0,78.4,0,61.4c0-17,6.9-32.3,18-43.5C29.1,6.9,44.5,0,61.4,0L61.4,0z M96.9,26
	c-9.1-9.1-21.6-14.7-35.5-14.7C47.6,11.3,35.1,16.9,26,26c-9.1,9.1-14.7,21.6-14.7,35.5c0,13.9,5.6,26.4,14.7,35.5
	s21.6,14.7,35.5,14.7c13.9,0,26.4-5.6,35.5-14.7s14.7-21.6,14.7-35.5C111.6,47.6,106,35.1,96.9,26L96.9,26z"/>
<path class="st1" d="M120.5,108.9c3.2,3.2,3.2,8.4,0,11.6c-3.2,3.2-8.4,3.2-11.6,0L61.4,73L14,120.5c-3.2,3.2-8.4,3.2-11.6,0
	c-3.2-3.2-3.2-8.4,0-11.6l47.5-47.5L2.4,14c-3.2-3.2-3.2-8.4,0-11.6c3.2-3.2,8.4-3.2,11.6,0l47.5,47.5l47.5-47.5l0,0
	c3.2-3.2,8.4-3.2,11.6,0c3.2,3.2,3.2,8.4,0,11.6L73,61.4L120.5,108.9z"/>
</svg>
