<svg xmlns="http://www.w3.org/2000/svg" width="1159.24" height="679.71" viewBox="0 0 746 437" xmlns:xlink="http://www.w3.org/1999/xlink"><defs><path id="0" d="m73.828 383.63l.558-5.44.557-5.18 1.115-9.68 1.115-8.88 1.115-8.22 1.115-7.63 1.115-7.13 1.114-6.68 1.115-6.28 1.115-5.94 1.115-5.62 1.115-5.34 1.115-5.07 2.23-9.47 2.229-8.67 2.23-8 2.23-7.41 2.23-6.9 2.234-6.45 2.23-6.06 2.22-5.7 2.23-5.39 2.23-5.1 4.46-9.44 4.46-8.57 4.46-7.82 4.46-7.2 4.46-6.64 4.46-6.16 4.46-5.72 4.46-5.35 4.46-5.01 4.46-4.69 4.46-4.42 4.46-4.16 4.46-3.92 4.46-3.71 4.46-3.51 4.46-3.32 4.46-3.15 4.46-2.99 4.45-2.84 4.46-2.69 4.46-2.57 4.46-2.43 4.46-2.32 4.46-2.2 4.46-2.1 4.46-1.99 4.46-1.9 4.46-1.8 4.46-1.71 4.46-1.63 4.46-1.54 4.46-1.47 4.46-1.38 4.46-1.314 4.46-1.24 4.46-1.169 4.46-1.101 4.46-1.035 4.46-.971 4.45-.907 4.46-.846 4.46-.786 4.46-.727 4.46-.669 4.46-.612 4.46-.555 4.46-.501 4.46-.446 4.46-.392 4.46-.339 4.46-.286 4.46-.233 4.46-.181 4.46-.129 4.46-.078 4.46-.026 4.46.026 4.46.078 4.46.129 4.45.181 4.46.233 4.46.286 4.46.339 4.46.392 4.46.446 4.46.501 4.46.555 4.46.612 4.46.669 4.46.727 4.46.786 4.46.846 4.46.907 4.46.971 4.46 1.035 4.46 1.101 4.46 1.169 4.46 1.24 4.46 1.314 4.45 1.38 4.46 1.47 4.46 1.54 4.46 1.63 4.46 1.71 4.46 1.8 4.46 1.9 4.46 1.99 4.46 2.1 4.46 2.2 4.46 2.32 4.46 2.43 4.46 2.57 4.46 2.69 4.46 2.84 4.46 2.99 4.46 3.15 4.46 3.32 4.46 3.51 4.46 3.71 4.45 3.92 4.46 4.16 4.46 4.42 4.46 4.69 4.46 5.01 4.46 5.35 4.46 5.72 4.46 6.16 4.46 6.64 4.46 7.2 4.46 7.82 4.46 8.57 4.46 9.44 2.23 5.1 2.23 5.39 2.23 5.7 2.23 6.06 2.23 6.45 2.23 6.9 2.23 7.41 2.23 8 2.23 8.67 2.23 9.47 1.11 5.07 1.12 5.34 1.11 5.62 1.12 5.94 1.11 6.28 1.12 6.68 1.11 7.13 1.12 7.63 1.11 8.22 1.12 8.88 1.11 9.68.56 5.18.55 5.44h-570.81"/><clipPath><path d="m-17.842-17.662v23.05h39.32v-23.05z"/></clipPath><clipPath><path d="m-26.842-8.226v23.05h39.32v-23.05z"/></clipPath><clipPath><path d="m-17.785-17.662v23.05h39.31v-23.05z"/></clipPath><clipPath><path d="m-21.408-21.346v23.05h39.32v-23.05z"/></clipPath><clipPath><path d="m0 0v438h747v-438z"/></clipPath><clipPath><path d="m-21.421-21.346v23.05h39.32v-23.05z"/></clipPath></defs><g stroke-miterlimit="10" stroke-linecap="square"><g fill="none" stroke="#000" stroke-linecap="butt"><path d="m359.24 2v436"/><path d="m359.24 1l-3 3"/><path d="m359.24 1l3 3"/><path d="m0 383.63h745"/><path d="m746 383.63l-3-3"/><path d="m746 383.63l-3 3"/><path d="m16.747 383.63v3"/><path d="m130.91 383.63v3"/><path d="m245.07 383.63v3"/><path d="m359.24 383.63v3"/><path d="m473.4 383.63v3"/><path d="m587.56 383.63v3"/><path d="m701.73 383.63v3"/><path d="m356.24 269.47h3"/><path d="m356.24 155.3h3"/><path d="m356.24 41.14h3"/></g><g><path d="m16.747 41.14h684.98v342.49h-684.98z" fill-opacity=".098" fill-rule="evenodd" fill="#606060"/><use stroke-linejoin="round" stroke-width="3" stroke-linecap="round" fill="none" stroke-opacity=".392" stroke="#404040" xlink:href="#0"/><use fill-opacity=".098" fill-rule="evenodd" fill="#404040" xlink:href="#0"/><g fill="none" stroke-linejoin="round" stroke-linecap="round"><use stroke="#404040" xlink:href="#0"/><g stroke="#606060"><path d="m16.747 41.14h684.98"/><path d="m701.73 41.14v342.49"/><path d="m701.73 383.63h-684.98"/><path d="m16.747 383.63v-342.49"/></g><path d="m359.24 383.63h100.16" stroke="#000"/></g><path d="m473.4 383.63l-14 3.5v-7z" fill-rule="evenodd"/><path d="m359.24 383.63v-100.16" stroke-linejoin="round" stroke-linecap="round" fill="none" stroke="#000"/><path d="m359.24 269.47l3.5 14h-7z" fill-rule="evenodd"/><path d="m360.24 383.63c0 .55-.45 1-1 1-.56 0-1-.45-1-1 0-.55.44-1 1-1 .55 0 1 .45 1 1" fill="#300"/><path d="m360.24 383.63c0 .55-.45 1-1 1-.56 0-1-.45-1-1 0-.55.44-1 1-1 .55 0 1 .45 1 1z" stroke-linejoin="round" stroke-linecap="round" fill="none" stroke="#000"/><path d="m343.58 394.81q0-2.14 1.15-3.35 1.15-1.21 2.96-1.21 1.2 0 2.15.57.96.57 1.46 1.59.5 1.01.5 2.31 0 1.3-.53 2.33-.54 1.03-1.5 1.56-.96.53-2.08.53-1.22 0-2.17-.59-.96-.58-1.45-1.59-.49-1.01-.49-2.15m1.17.02q0 1.56.84 2.45.83.89 2.1.89 1.28 0 2.11-.9.82-.89.82-2.57 0-1.04-.35-1.82-.35-.79-1.04-1.22-.68-.43-1.53-.43-1.2 0-2.08.83-.87.83-.87 2.77" fill="#300"/><path d="m302.31 179v-1.14l5.28-6.06q-.89.04-1.57.04h-3.4v-1.14h6.79v.92l-4.49 5.27-.87.97q.95-.08 1.78-.08h3.83v1.22h-7.35m8.22-4.16q0-2.29 1.28-3.4 1.08-.92 2.61-.92 1.72 0 2.81 1.11 1.08 1.12 1.08 3.1 0 1.6-.48 2.52-.49.92-1.4 1.43-.91.51-2.01.51-1.73 0-2.81-1.12-1.08-1.12-1.08-3.23m1.45 0q0 1.6.7 2.39.7.8 1.74.8 1.05 0 1.74-.8.7-.79.7-2.43 0-1.53-.7-2.33-.69-.8-1.74-.8-1.04 0-1.74.79-.7.79-.7 2.38m7.98 4.16v-8.3h1.27v1.18q.9-1.36 2.64-1.36.75 0 1.37.26.63.27.94.7.31.44.44 1.05.08.39.08 1.36v5.11h-1.41v-5.05q0-.86-.17-1.29-.16-.43-.57-.68-.42-.25-.98-.25-.91 0-1.55.57-.65.58-.65 2.17v4.53h-1.41m14.57-2.67l1.45.17q-.34 1.28-1.27 1.98-.93.71-2.37.71-1.82 0-2.89-1.13-1.06-1.12-1.06-3.14 0-2.09 1.08-3.25 1.08-1.15 2.8-1.15 1.65 0 2.71 1.13 1.05 1.13 1.05 3.18 0 .12 0 .37h-6.19q.08 1.38.78 2.1.69.73 1.72.73.78 0 1.33-.41.55-.4.86-1.29m-4.61-2.28h4.63q-.1-1.05-.53-1.57-.68-.81-1.74-.81-.97 0-1.63.65-.67.65-.73 1.73m17.66 4.95v-1.05q-.78 1.24-2.31 1.24-1 0-1.83-.55-.83-.55-1.29-1.53-.46-.99-.46-2.25 0-1.25.41-2.26.42-1.01 1.24-1.55.83-.53 1.86-.53.75 0 1.34.31.58.31.94.83v-4.11h1.41v11.45h-1.31m-4.44-4.14q0 1.59.67 2.38.67.79 1.58.79.92 0 1.57-.76.65-.75.65-2.3 0-1.7-.66-2.5-.65-.8-1.62-.8-.94 0-1.56.77-.63.76-.63 2.42m13.63 1.47l1.46.17q-.35 1.28-1.28 1.98-.93.71-2.36.71-1.83 0-2.89-1.13-1.07-1.12-1.07-3.14 0-2.09 1.08-3.25 1.08-1.15 2.8-1.15 1.65 0 2.71 1.13 1.05 1.13 1.05 3.18 0 .12 0 .37h-6.18q.07 1.38.77 2.1.69.73 1.73.73.78 0 1.32-.41.55-.4.86-1.29m-4.61-2.28h4.63q-.09-1.05-.53-1.57-.67-.81-1.74-.81-.97 0-1.63.65-.66.65-.73 1.73m17.69 1.9l1.39.19q-.23 1.42-1.16 2.24-.93.81-2.29.81-1.7 0-2.74-1.12-1.04-1.12-1.04-3.19 0-1.35.44-2.36.45-1 1.36-1.5.92-.5 1.98-.5 1.36 0 2.22.68.86.68 1.09 1.94l-1.36.2q-.2-.82-.69-1.25-.5-.42-1.2-.42-1.06 0-1.73.76-.66.76-.66 2.41 0 1.68.64 2.43.64.76 1.67.76.83 0 1.39-.51.55-.5.69-1.57m2.58 3.05v-8.3h1.27v1.25q.48-.87.89-1.15.4-.28.9-.28.71 0 1.44.45l-.48 1.3q-.52-.3-1.04-.3-.45 0-.82.27-.36.28-.52.78-.23.75-.23 1.64v4.34h-1.41m11.02-2.67l1.45.17q-.35 1.28-1.28 1.98-.92.71-2.36.71-1.83 0-2.89-1.13-1.07-1.12-1.07-3.14 0-2.09 1.08-3.25 1.08-1.15 2.8-1.15 1.66 0 2.71 1.13 1.06 1.13 1.06 3.18 0 .12 0 .37h-6.19q.08 1.38.77 2.1.7.73 1.73.73.78 0 1.33-.41.54-.4.86-1.29m-4.61-2.28h4.62q-.09-1.05-.53-1.57-.67-.81-1.73-.81-.97 0-1.64.65-.66.65-.72 1.73m13.27 4.95v-1.22q-.97 1.41-2.64 1.41-.74 0-1.37-.28-.63-.29-.94-.71-.32-.43-.44-1.04-.08-.43-.08-1.32v-5.14h1.41v4.6q0 1.11.07 1.48.15.56.58.88.42.31 1.05.31.64 0 1.2-.32.55-.32.78-.88.22-.57.22-1.63v-4.44h1.41v8.3h-1.25m2.9-2.48l1.39-.22q.11.84.65 1.29.54.44 1.49.44.97 0 1.44-.4.47-.4.47-.93 0-.47-.41-.75-.3-.18-1.44-.47-1.55-.39-2.15-.68-.6-.28-.9-.78-.31-.5-.31-1.11 0-.57.25-1.03.25-.47.69-.79.33-.25.9-.41.57-.16 1.21-.16.98 0 1.72.28.73.28 1.08.75.36.48.5 1.29l-1.38.19q-.09-.64-.55-1-.45-.36-1.26-.36-.97 0-1.38.32-.42.32-.42.74 0 .29.17.5.18.22.53.38.22.08 1.25.36 1.49.39 2.08.65.6.26.93.74.34.48.34 1.2 0 .71-.42 1.32-.41.62-1.18.96-.78.35-1.75.35-1.62 0-2.46-.67-.85-.68-1.08-2m14.23-.19l1.46.17q-.35 1.28-1.28 1.98-.93.71-2.37.71-1.82 0-2.89-1.13-1.06-1.12-1.06-3.14 0-2.09 1.08-3.25 1.08-1.15 2.8-1.15 1.65 0 2.71 1.13 1.05 1.13 1.05 3.18 0 .12 0 .37h-6.19q.08 1.38.78 2.1.69.73 1.72.73.79 0 1.33-.41.55-.4.86-1.29m-4.61-2.28h4.63q-.1-1.05-.53-1.57-.68-.81-1.74-.81-.97 0-1.63.65-.66.65-.73 1.73m7.84 4.95v-8.3h1.25v1.16q.39-.61 1.04-.98.65-.36 1.47-.36.93 0 1.52.38.59.38.83 1.07.98-1.45 2.56-1.45 1.24 0 1.9.68.66.68.66 2.1v5.7h-1.39v-5.23q0-.85-.14-1.22-.14-.36-.5-.59-.36-.23-.84-.23-.88 0-1.45.58-.58.58-.58 1.86v4.83h-1.41v-5.39q0-.94-.34-1.41-.35-.47-1.13-.47-.59 0-1.09.32-.5.31-.73.91-.22.6-.22 1.73v4.31h-1.41m19-2.67l1.45.17q-.34 1.28-1.27 1.98-.93.71-2.37.71-1.83 0-2.89-1.13-1.06-1.12-1.06-3.14 0-2.09 1.08-3.25 1.07-1.15 2.79-1.15 1.66 0 2.71 1.13 1.06 1.13 1.06 3.18 0 .12 0 .37h-6.19q.08 1.38.77 2.1.7.73 1.73.73.78 0 1.33-.41.55-.4.86-1.29m-4.61-2.28h4.62q-.09-1.05-.53-1.57-.67-.81-1.73-.81-.97 0-1.63.65-.67.65-.73 1.73m7.84 4.95v-8.3h1.26v1.18q.91-1.36 2.64-1.36.75 0 1.38.26.62.27.93.7.32.44.44 1.05.08.39.08 1.36v5.11h-1.41v-5.05q0-.86-.16-1.29-.16-.43-.58-.68-.41-.25-.98-.25-.9 0-1.55.57-.65.58-.65 2.17v4.53h-1.4m11.96-1.27l.2 1.25q-.59.13-1.06.13-.77 0-1.19-.24-.42-.25-.59-.64-.18-.4-.18-1.67v-4.76h-1.03v-1.1h1.03v-2.06l1.41-.84v2.9h1.41v1.1h-1.41v4.84q0 .61.07.78.07.17.24.28.17.1.49.1.23 0 .61-.07"/><path d="m76.06 99v-8.297h1.25v1.156q.391-.609 1.04-.976.648-.367 1.476-.367.922 0 1.516.382.594.383.828 1.071.984-1.453 2.562-1.453 1.235 0 1.899.679.664.68.664 2.102v5.703h-1.391v-5.234q0-.844-.14-1.211-.141-.367-.5-.594-.36-.227-.844-.227-.875 0-1.453.578-.578.579-.578 1.86v4.828h-1.407v-5.391q0-.937-.343-1.406-.344-.469-1.125-.469-.594 0-1.094.313-.5.312-.727.914-.226.601-.226 1.727v4.312h-1.407m12.797-4.156q0-2.297 1.282-3.406 1.078-.922 2.609-.922 1.719 0 2.805 1.117 1.086 1.117 1.086 3.101 0 1.594-.485 2.516-.484.922-1.398 1.43-.914.508-2.01.508-1.734 0-2.812-1.118-1.079-1.117-1.079-3.226m1.453 0q0 1.594.696 2.39.695.797 1.742.797 1.047 0 1.742-.797.696-.796.696-2.437 0-1.531-.696-2.328-.695-.797-1.742-.797-1.047 0-1.742.789-.696.789-.696 2.383m7.977 4.156v-8.297h1.266v1.172q.905-1.359 2.645-1.359.75 0 1.37.265.63.266.94.703.31.438.44 1.047.07.391.07 1.36v5.109h-1.4v-5.05q0-.859-.17-1.289-.16-.43-.57-.68-.42-.25-.98-.25-.91 0-1.56.571-.645.57-.645 2.164v4.531h-1.406m11.961-1.266l.2 1.25q-.59.125-1.06.125-.77 0-1.19-.242-.42-.242-.59-.64-.17-.399-.17-1.665v-4.765h-1.03v-1.094h1.03v-2.062l1.4-.844v2.906h1.41v1.094h-1.41v4.844q0 .609.07.781.07.172.25.273.17.102.48.102.24 0 .61-.063m6.79.235q-.78.672-1.5.945-.72.274-1.55.274-1.37 0-2.11-.672-.73-.672-.73-1.704 0-.609.28-1.117.28-.507.73-.812.44-.305 1-.461.43-.11 1.25-.203 1.71-.203 2.52-.485 0-.296 0-.375 0-.859-.39-1.203-.55-.484-1.61-.484-.98 0-1.46.351-.48.352-.7 1.227l-1.37-.188q.19-.874.62-1.421.43-.547 1.24-.836.81-.289 1.87-.289 1.07 0 1.73.25.66.25.98.625.31.375.43.953.08.359.08 1.297v1.875q0 1.968.09 2.484.08.516.35 1h-1.47q-.22-.438-.28-1.031m-.11-3.141q-.77.313-2.3.531-.87.125-1.23.282-.36.156-.56.461-.19.304-.19.664 0 .562.43.937.43.375 1.24.375.81 0 1.45-.351.63-.352.93-.977.23-.469.23-1.406v-.516m3.34 4.86l1.37.203q.08.639.47.919.53.39 1.44.39.97 0 1.5-.39.53-.39.72-1.091.11-.422.11-1.813-.93 1.094-2.3 1.094-1.72 0-2.66-1.234-.94-1.235-.94-2.969 0-1.188.43-2.188.43-1 1.25-1.547.82-.546 1.92-.546 1.47 0 2.42 1.187v-1h1.3v7.172q0 1.937-.39 2.745-.39.82-1.25 1.29-.86.47-2.11.47-1.49 0-2.4-.68-.92-.67-.88-2.01m1.17-4.985q0 1.625.65 2.375.64.75 1.61.75.97 0 1.63-.742.65-.742.65-2.336 0-1.531-.67-2.305-.67-.773-1.62-.773-.94 0-1.6.766-.65.765-.65 2.265m7.99 4.297v-8.297h1.27v1.172q.9-1.359 2.64-1.359.75 0 1.37.265.63.266.94.703.31.438.44 1.047.07.391.07 1.36v5.109h-1.4v-5.05q0-.859-.17-1.289-.16-.43-.57-.68-.42-.25-.98-.25-.91 0-1.56.571-.64.57-.64 2.164v4.531h-1.41m14.57-2.672l1.45.172q-.34 1.281-1.27 1.984-.93.704-2.37.704-1.83 0-2.89-1.126-1.06-1.124-1.06-3.14 0-2.094 1.08-3.25 1.08-1.156 2.79-1.156 1.66 0 2.72 1.132 1.05 1.133 1.05 3.18 0 .125 0 .375h-6.19q.08 1.375.78 2.102.69.726 1.72.726.78 0 1.33-.406.55-.406.86-1.297m-4.61-2.281h4.63q-.1-1.047-.54-1.563-.67-.812-1.73-.812-.97 0-1.63.648-.67.649-.73 1.727"/><path d="m.531-.594h-.313q-.031 0-.031-.016 0-.031.031-.031h.328q-.016-.016-.016-.047 0-.016.016-.031.016 0 .016.031.016.031.047.047.016.016.016.031 0 0-.016.016-.047.016-.078.063-.016.016-.016.016-.016 0-.031-.016 0-.016.047-.063" transform="matrix(19 0 0 19 406.75 405.57)" id="1"/><path d="m.344-.063q-.047.078-.109.078-.078 0-.109-.063-.016-.031-.016-.063 0-.047.047-.203 0 0 .016 0 .016-.047.016-.078 0-.031-.031-.031-.047 0-.094.094 0 .016 0 .031-.016.016-.016.016-.016 0-.016 0 0-.031.016-.063.047-.094.109-.094.063 0 .078.047.016.016.016.031 0 .016-.031.063-.047.141-.047.203 0 .078.063.078.062 0 .109-.063 0-.016 0-.016.031-.094.078-.297.016-.047.047-.047.016.016.016.031 0 0-.016.063 0 .063-.016.078l-.016.109q-.031.078-.031.094 0 .047.031.047.047 0 .078-.094 0-.016 0-.031.016-.016.016-.016.016 0 .016.016 0 .016-.016.062-.016.016-.016.031-.031.063-.078.063-.063 0-.078-.047 0-.016-.016-.031" transform="matrix(19 0 0 19 407 405.57)"/><use transform="translate(-68.83-70)" xlink:href="#1"/><path d="m.469-.375q0 .063-.031.156-.063.188-.156.219-.016.016-.031.016-.094 0-.125-.063-.016-.031-.016-.063 0-.063.047-.172l.016-.031q.016-.047.016-.078 0-.031-.031-.031-.047 0-.094.094 0 .016 0 .031-.016.016-.016.016-.016 0-.016 0 0-.031.016-.063.047-.094.109-.094.063 0 .078.047.016.016.016.031 0 .016-.016.047-.063.141-.063.203v.016q0 .078.063.078h.016q.078 0 .141-.125.031-.094.031-.141 0-.047-.031-.078-.016-.016-.016-.031 0-.031.031-.047 0 0 .016 0 .031 0 .047.031 0 .016 0 .031" transform="matrix(19 0 0 19 339 335.57)"/><path d="m.344-.094q0 .016 0 .016-.016.016-.016.016 0 0 0-.016-.031-.016-.031-.039 0-.023.031-.07.031-.047.078-.078.047-.031.078-.031.078 0 .094.062 0 .016 0 .016 0 .063-.047.125-.031.047-.094.078-.063.031-.125.031-.063 0-.102-.031-.039-.031-.039-.078 0 0 0-.016 0-.109.094-.234h-.016q-.141 0-.203-.063-.016-.031-.016-.078 0-.031.031-.078.031-.047.094-.078.078-.031.141-.031.016 0 .016 0 0 0-.016.016-.062 0-.109.031-.047.031-.078.063-.031.047-.031.094 0 .031.016.047.031.047.156.047.016 0 .031 0 .094-.141.234-.234.141-.109.219-.109.063 0 .078.063 0 .047-.031.094-.063.094-.219.156-.094.031-.203.047-.125.172-.125.266 0 .047.023.07.023.023.07.023.031 0 .078-.031.047-.031.078-.078.047-.078.047-.109v-.016q0-.031-.047-.031-.031 0-.063.023-.031.023-.063.07-.031.031-.031.047 0 .031.016.031m0 .016q0 0 0 0m.391-.609q-.063 0-.172.094-.078.078-.188.203.094 0 .172-.031.141-.063.203-.141.031-.047.031-.094 0-.031-.047-.031" transform="matrix(19 0 0 19 510 156.3)"/></g></g></svg>