<svg xmlns="http://www.w3.org/2000/svg" width="240.93" height="255.59" viewBox="0 0 343 365" xmlns:xlink="http://www.w3.org/1999/xlink"><defs><clipPath id="3"><path d="m-20.437-22.02v24.4h23v-24.4z"/></clipPath><clipPath id="2"><path d="m-19.722-22.02v24.4h23v-24.4z"/></clipPath><clipPath id="0"><path d="m0 0v366h345v-366z"/></clipPath><clipPath id="1"><path d="m-19.333-22.02v24.4h23v-24.4z"/></clipPath></defs><g stroke-miterlimit="10" stroke-linecap="square"><g clip-path="url(#0)"><path d="m30.11 2v364" stroke-linecap="butt" fill="none" stroke="#000"/></g><g clip-path="url(#0)"><path d="m30.11 1l-3 3" stroke-linecap="butt" fill="none" stroke="#000"/></g><g clip-path="url(#0)"><path d="m30.11 1l3 3" stroke-linecap="butt" fill="none" stroke="#000"/></g><g clip-path="url(#0)"><path d="m0 262.72h343" stroke-linecap="butt" fill="none" stroke="#000"/></g><g clip-path="url(#0)"><path d="m344 262.72l-3-3" stroke-linecap="butt" fill="none" stroke="#000"/></g><g clip-path="url(#0)"><path d="m344 262.72l-3 3" stroke-linecap="butt" fill="none" stroke="#000"/></g><g clip-path="url(#0)"><text font-style="italic" font-family="serif" font-size="10" x="0" y="0" transform="translate(36 276)">0</text></g><g clip-path="url(#0)"><path d="m30.11 262.72v3" stroke-linecap="butt" fill="none" stroke="#000"/></g><g clip-path="url(#0)"><text font-style="italic" font-family="serif" font-size="10" x="0" y="0" transform="translate(79 276)">1</text></g><g clip-path="url(#0)"><path d="m80.84 262.72v3" stroke-linecap="butt" fill="none" stroke="#000"/></g><g clip-path="url(#0)"><text font-style="italic" font-family="serif" font-size="10" x="0" y="0" transform="translate(130 276)">2</text></g><g clip-path="url(#0)"><path d="m131.58 262.72v3" stroke-linecap="butt" fill="none" stroke="#000"/></g><g clip-path="url(#0)"><text font-style="italic" font-family="serif" font-size="10" x="0" y="0" transform="translate(180 276)">3</text></g><g clip-path="url(#0)"><path d="m182.32 262.72v3" stroke-linecap="butt" fill="none" stroke="#000"/></g><g clip-path="url(#0)"><text font-style="italic" font-family="serif" font-size="10" x="0" y="0" transform="translate(231 276)">4</text></g><g clip-path="url(#0)"><path d="m233.06 262.72v3" stroke-linecap="butt" fill="none" stroke="#000"/></g><g clip-path="url(#0)"><text font-style="italic" font-family="serif" font-size="10" x="0" y="0" transform="translate(282 276)">5</text></g><g clip-path="url(#0)"><path d="m283.8 262.72v3" stroke-linecap="butt" fill="none" stroke="#000"/></g><g clip-path="url(#0)"><text font-style="italic" font-family="serif" font-size="10" x="0" y="0" transform="translate(333 276)">6</text></g><g clip-path="url(#0)"><path d="m334.54 262.72v3" stroke-linecap="butt" fill="none" stroke="#000"/></g><g clip-path="url(#0)"><path d="m27.11 364.2h3" stroke-linecap="butt" fill="none" stroke="#000"/></g><g clip-path="url(#0)"><text font-style="italic" font-family="serif" font-size="10" x="0" y="0" transform="translate(13 317)">–1</text></g><g clip-path="url(#0)"><path d="m27.11 313.46h3" stroke-linecap="butt" fill="none" stroke="#000"/></g><g clip-path="url(#0)"><text font-style="italic" font-family="serif" font-size="10" x="0" y="0" transform="translate(18 260)">0</text></g><g clip-path="url(#0)"><text font-style="italic" font-family="serif" font-size="10" x="0" y="0" transform="translate(18 215)">1</text></g><g clip-path="url(#0)"><path d="m27.11 211.98h3" stroke-linecap="butt" fill="none" stroke="#000"/></g><g clip-path="url(#0)"><text font-style="italic" font-family="serif" font-size="10" x="0" y="0" transform="translate(18 165)">2</text></g><g clip-path="url(#0)"><path d="m27.11 161.25h3" stroke-linecap="butt" fill="none" stroke="#000"/></g><g clip-path="url(#0)"><text font-style="italic" font-family="serif" font-size="10" x="0" y="0" transform="translate(18 114)">3</text></g><g clip-path="url(#0)"><path d="m27.11 110.51h3" stroke-linecap="butt" fill="none" stroke="#000"/></g><g clip-path="url(#0)"><text font-style="italic" font-family="serif" font-size="10" x="0" y="0" transform="translate(18 63)">4</text></g><g clip-path="url(#0)"><path d="m27.11 59.767h3" stroke-linecap="butt" fill="none" stroke="#000"/></g><g clip-path="url(#0)"><path d="m80.84 0v262.72" stroke-linejoin="round" stroke-linecap="round" fill="none" stroke="#c0c0c0"/></g><g clip-path="url(#0)"><path d="m80.84 281.72v84.28" stroke-linejoin="round" stroke-linecap="round" fill="none" stroke="#c0c0c0"/></g><g clip-path="url(#0)"><path d="m131.58 0v262.72" stroke-linejoin="round" stroke-linecap="round" fill="none" stroke="#c0c0c0"/></g><g clip-path="url(#0)"><path d="m131.58 281.72v84.28" stroke-linejoin="round" stroke-linecap="round" fill="none" stroke="#c0c0c0"/></g><g clip-path="url(#0)"><path d="m182.32 0v262.72" stroke-linejoin="round" stroke-linecap="round" fill="none" stroke="#c0c0c0"/></g><g clip-path="url(#0)"><path d="m182.32 281.72v84.28" stroke-linejoin="round" stroke-linecap="round" fill="none" stroke="#c0c0c0"/></g><g clip-path="url(#0)"><path d="m233.06 0v262.72" stroke-linejoin="round" stroke-linecap="round" fill="none" stroke="#c0c0c0"/></g><g clip-path="url(#0)"><path d="m233.06 281.72v84.28" stroke-linejoin="round" stroke-linecap="round" fill="none" stroke="#c0c0c0"/></g><g clip-path="url(#0)"><path d="m283.8 0v262.72" stroke-linejoin="round" stroke-linecap="round" fill="none" stroke="#c0c0c0"/></g><g clip-path="url(#0)"><path d="m283.8 281.72v84.28" stroke-linejoin="round" stroke-linecap="round" fill="none" stroke="#c0c0c0"/></g><g clip-path="url(#0)"><path d="m334.54 0v262.72" stroke-linejoin="round" stroke-linecap="round" fill="none" stroke="#c0c0c0"/></g><g clip-path="url(#0)"><path d="m334.54 281.72v84.28" stroke-linejoin="round" stroke-linecap="round" fill="none" stroke="#c0c0c0"/></g><g clip-path="url(#0)"><path d="m0 9.03h345" stroke-linejoin="round" stroke-linecap="round" fill="none" stroke="#c0c0c0" id="4"/></g><g clip-path="url(#0)"><use xlink:href="#4"/></g><g clip-path="url(#0)"><path d="m0 59.767h14.544" stroke-linejoin="round" stroke-linecap="round" fill="none" stroke="#c0c0c0"/></g><g clip-path="url(#0)"><path d="m30.11 59.767h314.89" stroke-linejoin="round" stroke-linecap="round" fill="none" stroke="#c0c0c0"/></g><g clip-path="url(#0)"><path d="m0 110.51h14.544" stroke-linejoin="round" stroke-linecap="round" fill="none" stroke="#c0c0c0"/></g><g clip-path="url(#0)"><path d="m30.11 110.51h314.89" stroke-linejoin="round" stroke-linecap="round" fill="none" stroke="#c0c0c0"/></g><g clip-path="url(#0)"><path d="m0 161.25h14.544" stroke-linejoin="round" stroke-linecap="round" fill="none" stroke="#c0c0c0"/></g><g clip-path="url(#0)"><path d="m30.11 161.25h314.89" stroke-linejoin="round" stroke-linecap="round" fill="none" stroke="#c0c0c0"/></g><g clip-path="url(#0)"><path d="m0 211.98h14.544" stroke-linejoin="round" stroke-linecap="round" fill="none" stroke="#c0c0c0"/></g><g clip-path="url(#0)"><path d="m30.11 211.98h314.89" stroke-linejoin="round" stroke-linecap="round" fill="none" stroke="#c0c0c0"/></g><g clip-path="url(#0)"><path d="m0 313.46h9.544" stroke-linejoin="round" stroke-linecap="round" fill="none" stroke="#c0c0c0"/></g><g clip-path="url(#0)"><path d="m30.11 313.46h314.89" stroke-linejoin="round" stroke-linecap="round" fill="none" stroke="#c0c0c0"/></g><g clip-path="url(#0)"><path d="m0 364.2h345" stroke-linejoin="round" stroke-linecap="round" fill="none" stroke="#c0c0c0"/></g><g><g clip-path="url(#0)"><path d="m55.48 165.28l1.127-4.36m0 0l2.695-9.36m0 0l2.695-8.05 2.696-6.96m0 0l2.695-6.04 2.695-5.23 2.695-4.54 2.696-3.94 2.695-3.39 2.695-2.92 2.696-2.48 2.695-2.1m0 0l2.695-1.75 2.696-1.43 2.695-1.13 2.695-.87 2.696-.62 2.693-.388 2.7-.18 2.69.018 2.7.2 2.69.37 2.7.53 2.69.69 2.7.82 2.69.96 2.7 1.08 2.7 1.2 2.69 1.31 2.7 1.42 2.69 1.52 2.7 1.62 2.69 1.7 2.7 1.8 2.69 1.88 2.7 1.95 2.69 2.03 2.7 2.11 2.69 2.17 2.7 2.25 2.69 2.3 2.7 2.37 2.69 2.42 2.7 2.48m0 0l2.7 2.54 2.69 2.59 2.7 2.64 2.69 2.69 2.7 2.73 2.69 2.78 2.7 2.83 2.69 2.87 2.7 2.9 2.69 2.95 2.7 2.99 2.69 3.02 2.7 3.06 2.69 3.1 2.7 3.13 2.69 3.16 2.7 3.2 2.7 3.22 2.69 3.26 2.7 3.29 2.69 3.31 2.7 3.34 2.69 3.37 2.7 3.4 2.69 3.42 2.7 3.45 2.69 3.47 2.7 3.5 2.69 3.52 2.7 3.54 2.69 3.56 2.7 3.59m0 0l2.7 3.6 2.69 3.63 2.7 3.65 2.69 3.67 2.7 3.68 2.69 3.71 2.7 3.72 2.69 3.75 2.7 3.75 2.69 3.78 2.7 3.8 2.69 3.81 2.7 3.82 2.69 3.85 2.7 3.85 2.7 3.88m0 0l2.69 3.89 2.7 3.9 2.69 3.92 2.7 3.93 2.69 3.94 2.7 3.96 2.69 3.97 2.7 3.99m0 0l2.69 4 2.7 4.01 2.69 4.02 2.7 4.04m0 0l.32.48" stroke-linejoin="round" stroke-width="1.5" stroke-linecap="round" fill="none" stroke="#c00"/></g><g clip-path="url(#0)"><path d="m0 191.35l2.695-2.69 2.695-2.7 2.695-2.7 2.695-2.69 2.696-2.7 2.695-2.69 2.695-2.7 2.695-2.69 2.696-2.7 2.695-2.69 2.695-2.7 2.696-2.69 2.695-2.7 2.695-2.69 2.696-2.7 2.695-2.69 2.695-2.7 2.696-2.69 2.695-2.7 2.695-2.7 2.696-2.69 2.695-2.7 2.695-2.69 2.696-2.7 2.695-2.69 2.695-2.7 2.695-2.69 2.696-2.7 2.695-2.69 2.695-2.7 2.696-2.69 2.695-2.7 2.695-2.69 2.696-2.7 2.695-2.695 2.695-2.696 2.696-2.695 2.693-2.695 2.7-2.696 2.69-2.695 2.7-2.695 2.69-2.695 2.7-2.696 2.69-2.695 2.7-2.695 2.69-2.696 2.7-2.695 2.7-2.695 2.69-2.696 2.7-2.695 2.69-2.695 2.7-2.696 2.69-2.695 2.7-2.695 2.69-2.696 2.7-2.695 2.69-2.695 2.7-2.695 2.69-2.696 2.7-2.695 2.69-2.695 2.7-2.696 2.69-2.695 2.7-2.695 2.7-2.696 2.69-2.695 2.7-2.695 2.69-2.696 2.7-2.695 2.69-2.695 2.7-2.695 2.69-2.695 2.7-2.695" stroke-linejoin="round" stroke-dasharray="5.5 4" stroke-width="1.5" stroke-linecap="butt" fill="none" stroke="#00f"/></g><g clip-path="url(#0)"><path d="m-5 99.53h355" stroke-linejoin="round" stroke-dasharray="5 4" stroke-linecap="butt" fill="none" stroke="#00f"/></g><g clip-path="url(#0)"><path d="m81.84 110.51c0 .55-.447 1-1 1-.552 0-1-.45-1-1 0-.56.448-1 1-1 .553 0 1 .44 1 1" fill="#00f"/></g><g clip-path="url(#0)"><path d="m81.84 110.51c0 .55-.447 1-1 1-.552 0-1-.45-1-1 0-.56.448-1 1-1 .553 0 1 .44 1 1z" stroke-linejoin="round" stroke-linecap="round" fill="none" stroke="#000"/></g><g clip-path="url(#0)"><text font-style="italic" font-family="serif" fill="#00f" font-size="12" x="0" y="0" transform="translate(82 125)">A</text></g><g clip-path="url(#0)"><path d="m107.21 98.33c0 .552-.44 1-1 1-.55 0-1-.448-1-1 0-.552.45-1 1-1 .56 0 1 .448 1 1" fill="#00f"/></g><g clip-path="url(#0)"><path d="m107.21 98.33c0 .552-.44 1-1 1-.55 0-1-.448-1-1 0-.552.45-1 1-1 .56 0 1 .448 1 1z" stroke-linejoin="round" stroke-linecap="round" fill="none" stroke="#000"/></g><g clip-path="url(#0)"><text font-style="italic" font-family="serif" fill="#00f" font-size="12" x="0" y="0" transform="translate(110 96)">B</text></g><g clip-path="url(#1)" transform="matrix(15 0 0 15 290 330.25)"><text font-style="italic" font-family="Jlm_cmr10" fill="#f00" font-size="1" x="0" y="0">(</text></g><g clip-path="url(#2)" transform="matrix(15 0 0 15 295.83 330.25)"><text font-style="italic" font-family="serif" fill="#f00" font-size="1" x="0" y="0">C</text></g><g clip-path="url(#3)" transform="matrix(15 0 0 15 306.55 330.25)"><text font-style="italic" font-family="Jlm_cmr10" fill="#f00" font-size="1" x="0" y="0">)</text></g></g></g></svg>