<?xml version="1.0" encoding="utf-8"?>
<!-- Generator: Adobe Illustrator 22.1.0, SVG Export Plug-In . SVG Version: 6.00 Build 0)  -->
<svg version="1.1" id="Calque_1" xmlns="http://www.w3.org/2000/svg" xmlns:xlink="http://www.w3.org/1999/xlink" x="0px" y="0px"
	 viewBox="0 0 271.6 133.9" style="enable-background:new 0 0 271.6 133.9;" xml:space="preserve">
<style type="text/css">
	.st0{fill:#E45831;}
	.st1{fill:#5AAA40;}
	.st2{fill:#478BC5;}
</style>
<path class="st0" d="M159.3,98.2c42.5-2.5,54.4-41.6,45-65.8C183-22.1,122,8.6,122,8.6s54.3-16,70.8,27.1
	C212.3,86.7,159.3,98.2,159.3,98.2"/>
<path class="st1" d="M0,92.7C22,57.4,68.8-7.8,125.8,12.4c46.4,16.5,0.5,90,0.5,90s28.1-53.9-3.7-71.7C63.8-2.3,0,92.7,0,92.7"/>
<path class="st2" d="M124.9,119.4c27.3,7,41.5,7.6,70-2.1c61.8-21,64.5,16.6,64.5,16.6s-6.7-21-62.3-6.3
	C142.1,142,124.9,119.4,124.9,119.4"/>
<path class="st1" d="M255.8,114.4c0,0,3.2-24.8,13-17.5C279.6,105,255.8,114.4,255.8,114.4"/>
</svg>
