<svg height="3.94cm" viewBox="0 0 437 195" width="8.78cm" xmlns="http://www.w3.org/2000/svg"><g stroke-linecap="square" stroke-miterlimit="10"><path d="m .42188-.60938l-.125.531255q0 .015625 0 .015625 0 .015625.01562.03125l0 0q0 0 .01562 0 .03126 0 .0625 0 .03126 0 .03126 0 0 .015625 0 .015625 0 .015625-.01563.015625h-.09375l0 0h-.07812l0 0h-.07813-.01563-.07812l0 0q-.015625 0-.015625-.015625 0-.015625.015625-.015625 0 0 .03125 0 .09375 0 .10937-.015625 0 0 0-.015625 0 0 0-.015625l0 0 0 0 0 0q0 0 0 0l .14063-.531255q0-.01562 0-.02343 0-.00781 0-.00781-.01563 0-.03125 0h-.03125q-.10937 0-.14063.01562-.01562.01562-.03124.03125v.01563l0 0h-.01563q-.015625.03124-.046875.10937 0 .01563 0 .01563-.015625 0-.015625 0 0 0 0-.01563 0 0 0-.01563l.0625-.17187q0-.01563.01563-.01563 0 0 .01562 0h .54688q.03124 0 .03124 0 0 .01563 0 .01563l-.03124.1875q0 .01563-.01563.01563-.01563 0-.01563-.01563 0 0 .01563-.01563 0-.04687 0-.07812 0-.0625-.03125-.07812-.03125 0-.10938 0-.0625 0-.0625 0-.01562 0-.01562.01562l0 0q-.01562.01562-.01562.01562z" transform="matrix(27 0 0 27 16 57.862)"/><path d="m .6875-.32812h-.59375q-.03125 0-.03125-.01563 0-.01563.03125-.01563h.59375q.03125 0 .03125.01563 0 .01563-.03125.01563zm0 .1875h-.59375q-.03125 0-.03125-.01563 0-.01563.03125-.01563h.59375q.03125 0 .03125.01563 0 .01563-.03125.01563z" transform="matrix(27 0 0 27 43.028 57.862)"/><path d="m .65625 2.3594q-.10937-.1094-.20313-.25-.09374-.1406-.14843-.2969-.05469-.1563-.07813-.3203-.02344-.1641-.02344-.336 0-.17182.02344-.33589.02344-.16406.07813-.32031.05469-.15625.14843-.28906.09376-.132815.20313-.24219 0-.015625.01563-.015625h.01562q.01562 0 .01562.007813 0 .007812 0 .007812 0 0 0 0-.125.125-.20312.25781-.07812.13282-.125.28906-.04688.15626-.0625.32032-.01562.16406-.01562.32026 0 .1719.01562.3282.01562.1562.0625.3125.04688.1562.13281.2969.08594.1406.19531.25 0 0 0 0 0 .0156 0 .0156 0 0-.01562 0h-.01562q-.01563 0-.01563 0z" transform="matrix(27 0 0 27 71.528 19.792)"/><path d="m .45312-.3125q0 .14062-.03124.21875-.0625.109375-.17188.109375-.09375 0-.14062-.0625-.01563-.015625-.031255-.03125-.046875-.078125-.046875-.234375 0-.15625.046875-.23438.046875-.10937.156255-.125h.01562q.09375 0 .14062.07813l0 0q .01563.01563.03126.04687.03124.07813.03124.23438zm-.20312.3125l0 0q .0625 0 .09375-.0625.01563-.03125.01563-.0625.01562-.0625.01562-.20312 0-.14063-.01562-.20313-.01563-.09375-.07813-.10937-.01563 0-.03125 0-.07812 0-.10938.0625 0 .03124-.01562.0625 0 .04687 0 .1875 0 .14062.01562.20312.01563.09375.07813.125.01563 0 .03125 0z" transform="matrix(27 0 0 27 91.403 40.05)"/><path d="m .20312 0l0 0q0 .09375-.0625.17188-.01562.01562-.03124.01562 0 0 0 0 0-.01562 0-.01562.0625-.0625.07812-.156255 0 0 0-.015625 0-.015625-.01562-.015625 0 0 0 0-.01563.015625-.03126.015625-.03124 0-.04687-.03125 0-.015625 0-.015625 0-.046875.01563-.062505.01562 0 .03124 0 .04688 0 .0625.062505 0 .015625 0 .046875z" transform="matrix(27 0 0 27 104.9 40.05)"/><path d="m .29688-.64062v.562495q0 .03125.01562.03125.01562.015625.07812.015625h.03126v.03125q-.03126 0-.17188 0-.125 0-.15625 0v-.03125h.03125q.07812 0 .09375-.015625l0 0q0-.015625 0-.03125v-.515625q-.04687.01563-.125.01563v-.03126q.10937 0 .17187-.0625.03126 0 .03126.01563l0 0 0 0q0 0 0 .01563z" transform="matrix(27 0 0 27 116.9 40.05)"/><path d="m .45312-.3125q0 .14062-.03124.21875-.0625.109375-.17188.109375-.09375 0-.14062-.0625-.01563-.015625-.031255-.03125-.046875-.078125-.046875-.234375 0-.15625.046875-.23438.046875-.10937.156255-.125h.01562q.09375 0 .14062.07813l0 0q .01563.01563.03126.04687.03124.07813.03124.23438zm-.20312.3125l0 0q .0625 0 .09375-.0625.01563-.03125.01563-.0625.01562-.0625.01562-.20312 0-.14063-.01562-.20313-.01563-.09375-.07813-.10937-.01563 0-.03125 0-.07812 0-.10938.0625 0 .03124-.01562.0625 0 .04687 0 .1875 0 .14062.01562.20312.01563.09375.07813.125.01563 0 .03125 0z" transform="matrix(27 0 0 27 157.4 40.05)"/><path d="m .20312 0l0 0q0 .09375-.0625.17188-.01562.01562-.03124.01562 0 0 0 0 0-.01562 0-.01562.0625-.0625.07812-.156255 0 0 0-.015625 0-.015625-.01562-.015625 0 0 0 0-.01563.015625-.03126.015625-.03124 0-.04687-.03125 0-.015625 0-.015625 0-.046875.01563-.062505.01562 0 .03124 0 .04688 0 .0625.062505 0 .015625 0 .046875z" transform="matrix(27 0 0 27 170.9 40.05)"/><path d="m .35938-.3125q-.03126.09375-.125.09375-.07813 0-.14063-.07813l0 0q-.046875-.0625-.046875-.14843 0-.08594.046875-.14844l.01563-.01563q.0625-.0625.14062-.0625.10938 0 .15625.10938.04687.07812.04687.23438 0 .17187-.09374.26562-.0625.078125-.15626.078125-.09374 0-.124995-.046875-.015625-.03125-.015625-.0625 0-.03125.04688-.04687 0 0 0 0 .03124 0 .04687.03124 0 .01563 0 .01563 0 .046875-.03125.046875-.01562 0-.01562 0 .03124.046875.09374.046875.07813 0 .125-.078125.03126-.078125.03126-.203125zm-.10938.07812q.07812 0 .10938-.09374 0-.04688 0-.09376 0-.09374-.01563-.14062-.01563-.0625-.07813-.07812 0 0-.01562 0-.0625 0-.09375.0625-.03125.03124-.03125.125v.01562q0 .09375.03125.14062.03125.0625.09375.0625z" transform="matrix(27 0 0 27 182.9 40.05)"/><path d="m .45312-.3125q0 .14062-.03124.21875-.0625.109375-.17188.109375-.09375 0-.14062-.0625-.01563-.015625-.031255-.03125-.046875-.078125-.046875-.234375 0-.15625.046875-.23438.046875-.10937.156255-.125h.01562q.09375 0 .14062.07813l0 0q .01563.01563.03126.04687.03124.07813.03124.23438zm-.20312.3125l0 0q .0625 0 .09375-.0625.01563-.03125.01563-.0625.01562-.0625.01562-.20312 0-.14063-.01562-.20313-.01563-.09375-.07813-.10937-.01563 0-.03125 0-.07812 0-.10938.0625 0 .03124-.01562.0625 0 .04687 0 .1875 0 .14062.01562.20312.01563.09375.07813.125.01563 0 .03125 0z" transform="matrix(27 0 0 27 91.403 74.325)"/><path d="m .20312 0l0 0q0 .09375-.0625.17188-.01562.01562-.03124.01562 0 0 0 0 0-.01562 0-.01562.0625-.0625.07812-.156255 0 0 0-.015625 0-.015625-.01562-.015625 0 0 0 0-.01563.015625-.03126.015625-.03124 0-.04687-.03125 0-.015625 0-.015625 0-.046875.01563-.062505.01562 0 .03124 0 .04688 0 .0625.062505 0 .015625 0 .046875z" transform="matrix(27 0 0 27 104.9 74.325)"/><path d="m .03125-.17188v-.03124l.29687-.46876q.01563 0 .03126 0 .01562 0 .01562 0v .01563.45313h.09375v.03124h-.09375v.093755q0 .03125.01562.03125 0 .015625.0625.015625h.01563v.03125q-.04687 0-.14063 0-.09374 0-.125 0v-.03125h.01563q.0625 0 .07813-.015625 0-.015625 0-.03125v-.093755zm.26563-.03124v-.35938l-.23438.35938z" transform="matrix(27 0 0 27 116.9 74.325)"/><path d="m .45312-.3125q0 .14062-.03124.21875-.0625.109375-.17188.109375-.09375 0-.14062-.0625-.01563-.015625-.031255-.03125-.046875-.078125-.046875-.234375 0-.15625.046875-.23438.046875-.10937.156255-.125h.01562q.09375 0 .14062.07813l0 0q .01563.01563.03126.04687.03124.07813.03124.23438zm-.20312.3125l0 0q .0625 0 .09375-.0625.01563-.03125.01563-.0625.01562-.0625.01562-.20312 0-.14063-.01562-.20313-.01563-.09375-.07813-.10937-.01563 0-.03125 0-.07812 0-.10938.0625 0 .03124-.01562.0625 0 .04687 0 .1875 0 .14062.01562.20312.01563.09375.07813.125.01563 0 .03125 0z" transform="matrix(27 0 0 27 157.4 74.325)"/><path d="m .20312 0l0 0q0 .09375-.0625.17188-.01562.01562-.03124.01562 0 0 0 0 0-.01562 0-.01562.0625-.0625.07812-.156255 0 0 0-.015625 0-.015625-.01562-.015625 0 0 0 0-.01563.015625-.03126.015625-.03124 0-.04687-.03125 0-.015625 0-.015625 0-.046875.01563-.062505.01562 0 .03124 0 .04688 0 .0625.062505 0 .015625 0 .046875z" transform="matrix(27 0 0 27 170.9 74.325)"/><path d="m .125-.32812l0 0q .04688-.09376.125-.09376.09375 0 .15625.07813.03125.03125.04687.09375 0 .01562 0 .04688 0 .10937-.07812.17187-.04688.046875-.125.046875-.09375 0-.15625-.09375-.046875-.078125-.046875-.234375 0-.17188.093745-.28125.07813-.07813.17188-.07813.07812 0 .10938.0625.01562.03126.01562.04688 0 .04688-.04688.04688 0 0 0 0-.03124 0-.04687-.01563 0-.01563 0-.03125 0-.03125.04687-.03125-.01562-.04687-.07812-.04687-.07812 0-.125.0625-.0625.07812-.0625.21874zm.125.32812l0 0q .0625 0 .09375-.078125.01563-.031255.01563-.124995 0-.10938-.01563-.14063-.03125-.0625-.09375-.0625-.07812 0-.10938.09375 0 .04688 0 .09375 0 .09375.01563.140625.01563.046875.0625.0625.01563.015625.03125.015625z" transform="matrix(27 0 0 27 182.9 74.325)"/><path d="m .046875 2.3594q-.015625 0-.015625-.0156 0 0 0 0 .125-.1094.20313-.25.07812-.1407.125-.2891.04687-.1485.0625-.3125.01562-.1641.01562-.336 0-.17182-.01562-.32808-.01563-.15624-.0625-.3125-.04688-.15624-.125-.28906-.07813-.13281-.20313-.25781 0 0 0 0 0-.015625.015625-.015625h.015625q.015625 0 .015625.015625.124995.109375.210935.24219.08594.13281.14063.28906.05469.15625.07812.32031.02344.16407.02344.33589 0 .1719-.02344.336-.02343.164-.07812.3203-.05469.1563-.14063.2969-.08594.1406-.210935.25 0 0-.015625 0z" transform="matrix(27 0 0 27 196.4 19.792)"/><path d="m .90625-.23438l0 0h-.76563q.0625.04688.10938.14063 0 0 0 .015625 0 0-.01562 0-.01563 0-.01563-.015625-.04687-.07813-.125-.125l-.03125-.01563q0-.01562 0-.01562 0 0 0-.01562 0 0 .015625 0 .093755-.04688.140625-.15626 0 0 .01563 0 .01562 0 .01562 0 0 .01563-.03125.0625-.03125.0625-.07813.09376h.76563q.03125 0 .03125.01562 0 .01562-.03125.01562z" transform="matrix(27 0 0 27 224 37.1)"/><path d="m .65625-.23438h-.54687q-.031255 0-.031255-.01562 0-.01562.031255-.01562h.54687q.03125 0 .03125.01562 0 .01562-.03125.01562z" transform="matrix(27 0 0 27 247.1 37.1)"/><path d="m .46875-.21875l0 0q0 .10937-.07813.171875-.0625.0625-.14062.0625-.09375 0-.15625-.078125-.0625-.0625-.0625-.15625 0-.09375.0625-.17187.0625-.0625.15625-.0625.09375 0 .15625.07812.0625.07812.0625.15625zm-.21875.203125l0 0q .0625 0 .10938-.046875v-.03125q.03124-.03125.03124-.125 0-.09375-.03124-.14063-.04688-.0625-.10938-.0625-.0625 0-.10938.04688 0 0 0 .01562-.03124.04688-.03124.14063 0 .09375.03124.140625.03126.0625.10938.0625z" transform="matrix(27 0 0 27 284.6 37.1)"/><path d="m .17188-.078125q0 .03125.01562.03125l0 0v .015625q.01562 0 .0625 0h .01562v.03125q-.03124 0-.125 0 0 0-.10937 0v-.03125q.0625 0 .0625-.015625l0 0q .01563 0 .01563-.03125v-.265625q0-.04687-.01563-.04687-.015625-.01563-.046875-.01563h-.015625v-.03125h.14063v.10938q.01562-.09376.07812-.10938.01562 0 .04688 0 .04687 0 .0625.03125 0 .01563 0 .03125 0 .03125-.03126.03125 0 0 0 0-.03124 0-.04687-.01563 0-.01562 0-.01562 0-.03125.01563-.04688 0 0 0 0-.07813 0-.10938.07813-.01562.04687-.01562.10937z" transform="matrix(27 0 0 27 298.1 37.1)"/><path d="m .17188-.4375l0 0v .359375q0 .03125.01562.046875l0 0q .01562 0 .0625 0v .03125q-.10938 0-.10938 0-.01562 0-.10937 0v-.03125q.0625 0 .07813-.015625l0 0q0 0 0-.03125v-.265625q0-.04687-.01563-.04687l0 0 0 0 0 0 0 0q-.015625-.01563-.0625-.01563v-.03125zm.01562-.17188q0 .03126-.04688.04688 0 0-.01562 0-.03125 0-.046875-.03125l0 0q0-.01563 0-.01563 0-.03124.031255-.04687 0-.01563.01562-.01563.03125 0 .04688.03126.01562.01562.01562.03124z" transform="matrix(27 0 0 27 308.68 37.1)"/><path d="m .21875-.17188q.04687 0 .07813-.04687.01562-.01563.01562-.07813 0-.125-.09375-.125-.04687 0-.0625.04688-.01563.01562-.01563.07812 0 .125.07813.125zm-.09375-.01562q-.01562.03125-.01562.04688 0 .04687.03124.062495 0 .015625.01563.015625.01563 0 .07813 0 .10937 0 .15624.015625 0 0 .01563.015625.0625.03125.0625.109375 0 .062495-.07813.093755-.0625.03124-.14062.03124-.10938 0-.1875-.04687-.03125-.03125-.03125-.078125 0-.046875.046875-.078125.015625-.015625.046875-.015625-.046875-.03125-.046875-.093755 0-.04687.031255-.07812-.04688-.04688-.04688-.10938 0-.0625.0625-.10937.03125-.03125.09375-.03125.0625 0 .10937.03125.04688-.04687.10938-.04687.03125 0 .04688.03124 0 .01563 0 .01563 0 .03125-.03126.03125-.01562 0-.03124-.01562 0-.01563 0-.01563 0-.01563.01562-.03125 0 0 0 0-.04688 0-.09375.04688.04687.03124.04687.09374 0 .07813-.0625.10938-.04687.03125-.10937.03125-.04687 0-.09375-.03125zm.125.375l0 0q .09375 0 .14062-.04688.03126-.03124.03126-.062495 0-.078125-.125-.078125l0 0 0 0q-.01563 0-.07813 0h-.0625q-.04687 0-.0625.03125-.015625.03125-.015625.046875 0 .046875.062495.078125.04688.03125.10938.03125z" transform="matrix(27 0 0 27 316.18 37.1)"/><path d="m .17188-.4375l0 0v .359375q0 .03125.01562.046875l0 0q .01562 0 .0625 0v .03125q-.10938 0-.10938 0-.01562 0-.10937 0v-.03125q.0625 0 .07813-.015625l0 0q0 0 0-.03125v-.265625q0-.04687-.01563-.04687l0 0 0 0 0 0 0 0q-.015625-.01563-.0625-.01563v-.03125zm.01562-.17188q0 .03126-.04688.04688 0 0-.01562 0-.03125 0-.046875-.03125l0 0q0-.01563 0-.01563 0-.03124.031255-.04687 0-.01563.01562-.01563.03125 0 .04688.03126.01562.01562.01562.03124z" transform="matrix(27 0 0 27 329.68 37.1)"/><path d="m .10938-.34375q0-.04687-.01563-.04687-.015625-.01563-.046875-.01563h-.015625v-.03125h.14063v.09375q.04687-.09375.15624-.09375.0625 0 .09376.03125.03124.03125.03124.09375 0 .01562 0 .0625v.1875q0 .03125.03126.03125.01562 0 .04687 0v .03125q-.09375 0-.10937 0 0 0-.10938 0v-.03125q.0625 0 .0625-.015625l0 0q .01562 0 .01562-.03125v-.234375q0-.09375-.0625-.10938 0 0-.01562 0-.0625 0-.09375.0625-.04687.03126-.04687.09376v.187495q0 .03125.01562.046875.01562 0 .0625 0v .03125q-.09375 0-.10938 0 0 0-.10937 0v-.03125q.0625 0 .0625-.015625h.01563q0 0 0-.03125z" transform="matrix(27 0 0 27 337.18 37.1)"/><path d="m .39062-.23438l0 0h-.28124q0 .10938.03124.156255.04688.0625.10938.0625.07812 0 .10938-.046875.01562-.03125.03124-.04688 0-.01562.01563-.01562.01563 0 .01563 0 0 .03125-.03126.0625-.04687.0625-.10937.078125-.01563 0-.03125 0-.09375 0-.15625-.078125-.0625-.0625-.0625-.15625 0-.10937.0625-.17187.0625-.0625.14063-.0625.10937 0 .15624.09374.03126.04688.03126.10938 0 .01562-.01563.01562 0 0-.01563 0zm-.28124-.01562l0 0h .23437q0-.09375-.03125-.14062-.03125-.03126-.07812-.03126-.04688 0-.07813.04688-.04687.04688-.04687.125z" transform="matrix(27 0 0 27 352.18 37.1)"/><path d="m .17188-.10938l.35937-.59374q0-.01563.01563-.01563.01562 0 .01562.01563.01562 0 .01562.01562l.0625.625q0 .015625 0 .03125l0 0 0 0 0 0 0 0 0 0q .01563 0 .0625 0 .01563 0 .01563.015625 0 .015625-.01563.015625h-.10937l0 0h-.125l0 0q-.01563 0-.01563-.015625 0-.015625.01563-.015625.07813 0 .07813-.03125 0 0-.01563-.17188h-.25l-.07813.125q-.01562.031255-.01562.04688 0 .03125.04688.03125.01562 0 .01562.015625 0 .015625-.01562.015625h-.09376l0 0h-.093745l0 0q-.015625 0-.015625-.015625 0-.015625.015625-.015625l0 0h .015625q.0625 0 .09375-.046875.01563-.015625.01563-.031255zm.125-.15624h.23437l-.03125-.32813z" transform="matrix(27 0 0 27 373.18 37.1)"/><path d="m .29688-.64062v.562495q0 .03125.01562.03125.01562.015625.07812.015625h.03126v.03125q-.03126 0-.17188 0-.125 0-.15625 0v-.03125h.03125q.07812 0 .09375-.015625l0 0q0-.015625 0-.03125v-.515625q-.04687.01563-.125.01563v-.03126q.10937 0 .17187-.0625.03126 0 .03126.01563l0 0 0 0q0 0 0 .01563z" transform="matrix(18.9 0 0 18.9 393.43 41.15)"/><path d="m .90625-.23438l0 0h-.76563q.0625.04688.10938.14063 0 0 0 .015625 0 0-.01562 0-.01563 0-.01563-.015625-.04687-.07813-.125-.125l-.03125-.01563q0-.01562 0-.01562 0 0 0-.01562 0 0 .015625 0 .093755-.04688.140625-.15626 0 0 .01563 0 .01562 0 .01562 0 0 .01563-.03125.0625-.03125.0625-.07813.09376h.76563q.03125 0 .03125.01562 0 .01562-.03125.01562z" transform="matrix(27 0 0 27 224 72.425)"/><path d="m .65625-.23438h-.54687q-.031255 0-.031255-.01562 0-.01562.031255-.01562h.54687q.03125 0 .03125.01562 0 .01562-.03125.01562z" transform="matrix(27 0 0 27 247.1 72.425)"/><path d="m .46875-.21875l0 0q0 .10937-.07813.171875-.0625.0625-.14062.0625-.09375 0-.15625-.078125-.0625-.0625-.0625-.15625 0-.09375.0625-.17187.0625-.0625.15625-.0625.09375 0 .15625.07812.0625.07812.0625.15625zm-.21875.203125l0 0q .0625 0 .10938-.046875v-.03125q.03124-.03125.03124-.125 0-.09375-.03124-.14063-.04688-.0625-.10938-.0625-.0625 0-.10938.04688 0 0 0 .01562-.03124.04688-.03124.14063 0 .09375.03124.140625.03126.0625.10938.0625z" transform="matrix(27 0 0 27 284.6 72.425)"/><path d="m .17188-.078125q0 .03125.01562.03125l0 0v .015625q.01562 0 .0625 0h .01562v.03125q-.03124 0-.125 0 0 0-.10937 0v-.03125q.0625 0 .0625-.015625l0 0q .01563 0 .01563-.03125v-.265625q0-.04687-.01563-.04687-.015625-.01563-.046875-.01563h-.015625v-.03125h.14063v.10938q.01562-.09376.07812-.10938.01562 0 .04688 0 .04687 0 .0625.03125 0 .01563 0 .03125 0 .03125-.03126.03125 0 0 0 0-.03124 0-.04687-.01563 0-.01562 0-.01562 0-.03125.01563-.04688 0 0 0 0-.07813 0-.10938.07813-.01562.04687-.01562.10937z" transform="matrix(27 0 0 27 298.1 72.425)"/><path d="m .17188-.4375l0 0v .359375q0 .03125.01562.046875l0 0q .01562 0 .0625 0v .03125q-.10938 0-.10938 0-.01562 0-.10937 0v-.03125q.0625 0 .07813-.015625l0 0q0 0 0-.03125v-.265625q0-.04687-.01563-.04687l0 0 0 0 0 0 0 0q-.015625-.01563-.0625-.01563v-.03125zm.01562-.17188q0 .03126-.04688.04688 0 0-.01562 0-.03125 0-.046875-.03125l0 0q0-.01563 0-.01563 0-.03124.031255-.04687 0-.01563.01562-.01563.03125 0 .04688.03126.01562.01562.01562.03124z" transform="matrix(27 0 0 27 308.68 72.425)"/><path d="m .21875-.17188q.04687 0 .07813-.04687.01562-.01563.01562-.07813 0-.125-.09375-.125-.04687 0-.0625.04688-.01563.01562-.01563.07812 0 .125.07813.125zm-.09375-.01562q-.01562.03125-.01562.04688 0 .04687.03124.062495 0 .015625.01563.015625.01563 0 .07813 0 .10937 0 .15624.015625 0 0 .01563.015625.0625.03125.0625.109375 0 .062495-.07813.093755-.0625.03124-.14062.03124-.10938 0-.1875-.04687-.03125-.03125-.03125-.078125 0-.046875.046875-.078125.015625-.015625.046875-.015625-.046875-.03125-.046875-.093755 0-.04687.031255-.07812-.04688-.04688-.04688-.10938 0-.0625.0625-.10937.03125-.03125.09375-.03125.0625 0 .10937.03125.04688-.04687.10938-.04687.03125 0 .04688.03124 0 .01563 0 .01563 0 .03125-.03126.03125-.01562 0-.03124-.01562 0-.01563 0-.01563 0-.01563.01562-.03125 0 0 0 0-.04688 0-.09375.04688.04687.03124.04687.09374 0 .07813-.0625.10938-.04687.03125-.10937.03125-.04687 0-.09375-.03125zm.125.375l0 0q .09375 0 .14062-.04688.03126-.03124.03126-.062495 0-.078125-.125-.078125l0 0 0 0q-.01563 0-.07813 0h-.0625q-.04687 0-.0625.03125-.015625.03125-.015625.046875 0 .046875.062495.078125.04688.03125.10938.03125z" transform="matrix(27 0 0 27 316.18 72.425)"/><path d="m .17188-.4375l0 0v .359375q0 .03125.01562.046875l0 0q .01562 0 .0625 0v .03125q-.10938 0-.10938 0-.01562 0-.10937 0v-.03125q.0625 0 .07813-.015625l0 0q0 0 0-.03125v-.265625q0-.04687-.01563-.04687l0 0 0 0 0 0 0 0q-.015625-.01563-.0625-.01563v-.03125zm.01562-.17188q0 .03126-.04688.04688 0 0-.01562 0-.03125 0-.046875-.03125l0 0q0-.01563 0-.01563 0-.03124.031255-.04687 0-.01563.01562-.01563.03125 0 .04688.03126.01562.01562.01562.03124z" transform="matrix(27 0 0 27 329.68 72.425)"/><path d="m .10938-.34375q0-.04687-.01563-.04687-.015625-.01563-.046875-.01563h-.015625v-.03125h.14063v.09375q.04687-.09375.15624-.09375.0625 0 .09376.03125.03124.03125.03124.09375 0 .01562 0 .0625v.1875q0 .03125.03126.03125.01562 0 .04687 0v .03125q-.09375 0-.10937 0 0 0-.10938 0v-.03125q.0625 0 .0625-.015625l0 0q .01562 0 .01562-.03125v-.234375q0-.09375-.0625-.10938 0 0-.01562 0-.0625 0-.09375.0625-.04687.03126-.04687.09376v.187495q0 .03125.01562.046875.01562 0 .0625 0v .03125q-.09375 0-.10938 0 0 0-.10937 0v-.03125q.0625 0 .0625-.015625h.01563q0 0 0-.03125z" transform="matrix(27 0 0 27 337.18 72.425)"/><path d="m .39062-.23438l0 0h-.28124q0 .10938.03124.156255.04688.0625.10938.0625.07812 0 .10938-.046875.01562-.03125.03124-.04688 0-.01562.01563-.01562.01563 0 .01563 0 0 .03125-.03126.0625-.04687.0625-.10937.078125-.01563 0-.03125 0-.09375 0-.15625-.078125-.0625-.0625-.0625-.15625 0-.10937.0625-.17187.0625-.0625.14063-.0625.10937 0 .15624.09374.03126.04688.03126.10938 0 .01562-.01563.01562 0 0-.01563 0zm-.28124-.01562l0 0h .23437q0-.09375-.03125-.14062-.03125-.03126-.07812-.03126-.04688 0-.07813.04688-.04687.04688-.04687.125z" transform="matrix(27 0 0 27 352.18 72.425)"/><path d="m .17188-.10938l.35937-.59374q0-.01563.01563-.01563.01562 0 .01562.01563.01562 0 .01562.01562l.0625.625q0 .015625 0 .03125l0 0 0 0 0 0 0 0 0 0q .01563 0 .0625 0 .01563 0 .01563.015625 0 .015625-.01563.015625h-.10937l0 0h-.125l0 0q-.01563 0-.01563-.015625 0-.015625.01563-.015625.07813 0 .07813-.03125 0 0-.01563-.17188h-.25l-.07813.125q-.01562.031255-.01562.04688 0 .03125.04688.03125.01562 0 .01562.015625 0 .015625-.01562.015625h-.09376l0 0h-.093745l0 0q-.015625 0-.015625-.015625 0-.015625.015625-.015625l0 0h .015625q.0625 0 .09375-.046875.01563-.015625.01563-.031255zm.125-.15624h.23437l-.03125-.32813z" transform="matrix(27 0 0 27 373.18 72.425)"/><path d="m .45312-.17188l0 0-.03124.17188h-.375005q0-.03125.015625-.03125l0 0 .1875-.21875q.10938-.125.10938-.21875 0-.09375-.0625-.14063l0 0 0 0q-.03126-.03124-.07813-.03124-.0625 0-.10937.0625-.01563.01562-.01563.04687 0 0 .01563 0 .03124 0 .04687.03125l0 0q0 .01562 0 .01562 0 .04688-.04687.04688 0 .01562 0 .01562-.04688 0-.062505-.03124 0-.01563 0-.03126 0-.07812.062505-.125.04687-.0625.125-.0625.10937 0 .17187.07813.03125.04687.04687.10937 0 0 0 .01563 0 .0625-.0625.14063-.03124.03124-.09374.07812l-.04688.0625h-.01562l-.10938.109375h.1875q.07812 0 .09375 0 0-.015625.01563-.093755z" transform="matrix(18.9 0 0 18.9 393.43 76.475)"/><path d="m .26562-.65625v.76563q.0625-.07813.14063-.10938 0 0 .01563 0 0 0 0 .015625 0 .015625 0 .015625-.10938.046875-.15626.125 0 .01563 0 .01563 0 .01562 0 .01562 0 0 0 0 0 0-.01562 0 0 0-.01562 0-.04688-.09375-.125-.140625l-.031255-.015625q0 0 0-.015625 0-.015625 0-.015625.015625 0 .062495.03125.04688.03125.09376.07813v-.76563q0-.03125.01562-.03125.01562 0 .01562.03125z" transform="matrix(27 0 0 27 100 111.75)"/><path d="m .42188-.32812l-.14063.312495q0 .03125-.01563.03125-.01562 0-.01562-.015625 0 0 0-.015625l-.15625-.343755q0-.03124-.015625-.03124l0 0q-.015625-.01563-.0625-.01563v-.03125q.046875.01562.093755.01562.03124 0 .10937-.01562v.03125q-.04687 0-.04687.03125 0 0 0 .01562l.10937.281255.10937-.249995q0-.01563 0-.03126 0-.03124-.03124-.04687 0 0-.01563 0v-.03125q.04687.01562.09375.01562.03125 0 .07812-.01562v.03125q-.07812 0-.09374.0625l0 0q0 0 0 .01563z" transform="matrix(27 0 0 27 82 140.25)"/><path d="m .39062-.23438l0 0h-.28124q0 .10938.03124.156255.04688.0625.10938.0625.07812 0 .10938-.046875.01562-.03125.03124-.04688 0-.01562.01563-.01562.01563 0 .01563 0 0 .03125-.03126.0625-.04687.0625-.10937.078125-.01563 0-.03125 0-.09375 0-.15625-.078125-.0625-.0625-.0625-.15625 0-.10937.0625-.17187.0625-.0625.14063-.0625.10937 0 .15624.09374.03126.04688.03126.10938 0 .01562-.01563.01562 0 0-.01563 0zm-.28124-.01562l0 0h .23437q0-.09375-.03125-.14062-.03125-.03126-.07812-.03126-.04688 0-.07813.04688-.04687.04688-.04687.125z" transform="matrix(27 0 0 27 95.5 140.25)"/><path d="m .17188-.078125q0 .03125.01562.03125l0 0v .015625q.01562 0 .0625 0h .01562v.03125q-.03124 0-.125 0 0 0-.10937 0v-.03125q.0625 0 .0625-.015625l0 0q .01563 0 .01563-.03125v-.265625q0-.04687-.01563-.04687-.015625-.01563-.046875-.01563h-.015625v-.03125h.14063v.10938q.01562-.09376.07812-.10938.01562 0 .04688 0 .04687 0 .0625.03125 0 .01563 0 .03125 0 .03125-.03126.03125 0 0 0 0-.03124 0-.04687-.01563 0-.01562 0-.01562 0-.03125.01563-.04688 0 0 0 0-.07813 0-.10938.07813-.01562.04687-.01562.10937z" transform="matrix(27 0 0 27 107.5 140.25)"/><path d="m .20312-.1875l0 0q-.07812-.03125-.10937-.04688-.015625 0-.015625 0-.046875-.04687-.046875-.09374 0-.0625.0625-.09376.04687-.03124.09375-.03124.0625 0 .09375.03124.01563 0 .01563-.01562.01562-.01562.03124-.01562 0 .01562 0 .03124v.09376q0 .03124 0 .03124l0 0 0 0 0 0q-.01562 0-.01562-.01562-.01562-.09375-.07812-.10938-.01563 0-.04688 0-.09375 0-.109375.04688 0 .01562 0 .01562 0 .0625.078125.07813.01563 0 .04687.01563.07813.01562.10938.03124 0 0 0 .01563.04688.03125.04688.09375 0 .078125-.0625.109375-.04688.03125-.09376.03125-.0625 0-.10937-.046875l-.03125.015625q-.015625.03125-.015625.03125-.015625-.015625-.015625-.03125v-.124995q0-.03126.015625-.03126l0 0 0 0 0 0q .015625 0 .015625.01563 0 0 0 0 .03125.125.09375.140625.01563 0 .04687 0 .07813 0 .10938-.0625 0-.015625 0-.031255 0-.0625-.10938-.07812z" transform="matrix(27 0 0 27 118.08 140.25)"/><path d="m .17188-.10938l.35937-.59374q0-.01563.01563-.01563.01562 0 .01562.01563.01562 0 .01562.01562l.0625.625q0 .015625 0 .03125l0 0 0 0 0 0 0 0 0 0q .01563 0 .0625 0 .01563 0 .01563.015625 0 .015625-.01563.015625h-.10937l0 0h-.125l0 0q-.01563 0-.01563-.015625 0-.015625.01563-.015625.07813 0 .07813-.03125 0 0-.01563-.17188h-.25l-.07813.125q-.01562.031255-.01562.04688 0 .03125.04688.03125.01562 0 .01562.015625 0 .015625-.01562.015625h-.09376l0 0h-.093745l0 0q-.015625 0-.015625-.015625 0-.015625.015625-.015625l0 0h .015625q.0625 0 .09375-.046875.01563-.015625.01563-.031255zm.125-.15624h.23437l-.03125-.32813z" transform="matrix(27 0 0 27 91 170.32)"/><path d="m .29688-.64062v.562495q0 .03125.01562.03125.01562.015625.07812.015625h.03126v.03125q-.03126 0-.17188 0-.125 0-.15625 0v-.03125h.03125q.07812 0 .09375-.015625l0 0q0-.015625 0-.03125v-.515625q-.04687.01563-.125.01563v-.03126q.10937 0 .17187-.0625.03126 0 .03126.01563l0 0 0 0q0 0 0 .01563z" transform="matrix(18.9 0 0 18.9 111.25 174.37)"/><path d="m .26562-.65625v.76563q.0625-.07813.14063-.10938 0 0 .01563 0 0 0 0 .015625 0 .015625 0 .015625-.10938.046875-.15626.125 0 .01563 0 .01563 0 .01562 0 .01562 0 0 0 0 0 0-.01562 0 0 0-.01562 0-.04688-.09375-.125-.140625l-.031255-.015625q0 0 0-.015625 0-.015625 0-.015625.015625 0 .062495.03125.04688.03125.09376.07813v-.76563q0-.03125.01562-.03125.01562 0 .01562.03125z" transform="matrix(27 0 0 27 170 111.75)"/><path d="m .42188-.32812l-.14063.312495q0 .03125-.01563.03125-.01562 0-.01562-.015625 0 0 0-.015625l-.15625-.343755q0-.03124-.015625-.03124l0 0q-.015625-.01563-.0625-.01563v-.03125q.046875.01562.093755.01562.03124 0 .10937-.01562v.03125q-.04687 0-.04687.03125 0 0 0 .01562l.10937.281255.10937-.249995q0-.01563 0-.03126 0-.03124-.03124-.04687 0 0-.01563 0v-.03125q.04687.01562.09375.01562.03125 0 .07812-.01562v.03125q-.07812 0-.09374.0625l0 0q0 0 0 .01563z" transform="matrix(27 0 0 27 152 140.25)"/><path d="m .39062-.23438l0 0h-.28124q0 .10938.03124.156255.04688.0625.10938.0625.07812 0 .10938-.046875.01562-.03125.03124-.04688 0-.01562.01563-.01562.01563 0 .01563 0 0 .03125-.03126.0625-.04687.0625-.10937.078125-.01563 0-.03125 0-.09375 0-.15625-.078125-.0625-.0625-.0625-.15625 0-.10937.0625-.17187.0625-.0625.14063-.0625.10937 0 .15624.09374.03126.04688.03126.10938 0 .01562-.01563.01562 0 0-.01563 0zm-.28124-.01562l0 0h .23437q0-.09375-.03125-.14062-.03125-.03126-.07812-.03126-.04688 0-.07813.04688-.04687.04688-.04687.125z" transform="matrix(27 0 0 27 165.5 140.25)"/><path d="m .17188-.078125q0 .03125.01562.03125l0 0v .015625q.01562 0 .0625 0h .01562v.03125q-.03124 0-.125 0 0 0-.10937 0v-.03125q.0625 0 .0625-.015625l0 0q .01563 0 .01563-.03125v-.265625q0-.04687-.01563-.04687-.015625-.01563-.046875-.01563h-.015625v-.03125h.14063v.10938q.01562-.09376.07812-.10938.01562 0 .04688 0 .04687 0 .0625.03125 0 .01563 0 .03125 0 .03125-.03126.03125 0 0 0 0-.03124 0-.04687-.01563 0-.01562 0-.01562 0-.03125.01563-.04688 0 0 0 0-.07813 0-.10938.07813-.01562.04687-.01562.10937z" transform="matrix(27 0 0 27 177.5 140.25)"/><path d="m .20312-.1875l0 0q-.07812-.03125-.10937-.04688-.015625 0-.015625 0-.046875-.04687-.046875-.09374 0-.0625.0625-.09376.04687-.03124.09375-.03124.0625 0 .09375.03124.01563 0 .01563-.01562.01562-.01562.03124-.01562 0 .01562 0 .03124v.09376q0 .03124 0 .03124l0 0 0 0 0 0q-.01562 0-.01562-.01562-.01562-.09375-.07812-.10938-.01563 0-.04688 0-.09375 0-.109375.04688 0 .01562 0 .01562 0 .0625.078125.07813.01563 0 .04687.01563.07813.01562.10938.03124 0 0 0 .01563.04688.03125.04688.09375 0 .078125-.0625.109375-.04688.03125-.09376.03125-.0625 0-.10937-.046875l-.03125.015625q-.015625.03125-.015625.03125-.015625-.015625-.015625-.03125v-.124995q0-.03126.015625-.03126l0 0 0 0 0 0q .015625 0 .015625.01563 0 0 0 0 .03125.125.09375.140625.01563 0 .04687 0 .07813 0 .10938-.0625 0-.015625 0-.031255 0-.0625-.10938-.07812z" transform="matrix(27 0 0 27 188.08 140.25)"/><path d="m .17188-.10938l.35937-.59374q0-.01563.01563-.01563.01562 0 .01562.01563.01562 0 .01562.01562l.0625.625q0 .015625 0 .03125l0 0 0 0 0 0 0 0 0 0q .01563 0 .0625 0 .01563 0 .01563.015625 0 .015625-.01563.015625h-.10937l0 0h-.125l0 0q-.01563 0-.01563-.015625 0-.015625.01563-.015625.07813 0 .07813-.03125 0 0-.01563-.17188h-.25l-.07813.125q-.01562.031255-.01562.04688 0 .03125.04688.03125.01562 0 .01562.015625 0 .015625-.01562.015625h-.09376l0 0h-.093745l0 0q-.015625 0-.015625-.015625 0-.015625.015625-.015625l0 0h .015625q.0625 0 .09375-.046875.01563-.015625.01563-.031255zm.125-.15624h.23437l-.03125-.32813z" transform="matrix(27 0 0 27 161 170.32)"/><path d="m .45312-.17188l0 0-.03124.17188h-.375005q0-.03125.015625-.03125l0 0 .1875-.21875q.10938-.125.10938-.21875 0-.09375-.0625-.14063l0 0 0 0q-.03126-.03124-.07813-.03124-.0625 0-.10937.0625-.01563.01562-.01563.04687 0 0 .01563 0 .03124 0 .04687.03125l0 0q0 .01562 0 .01562 0 .04688-.04687.04688 0 .01562 0 .01562-.04688 0-.062505-.03124 0-.01563 0-.03126 0-.07812.062505-.125.04687-.0625.125-.0625.10937 0 .17187.07813.03125.04687.04687.10937 0 0 0 .01563 0 .0625-.0625.14063-.03124.03124-.09374.07812l-.04688.0625h-.01562l-.10938.109375h.1875q.07812 0 .09375 0 0-.015625.01563-.093755z" transform="matrix(18.9 0 0 18.9 181.25 174.37)"/></g></svg>