<svg height="4.72cm" viewBox="0 0 504 234" width="10.12cm" xmlns="http://www.w3.org/2000/svg"><g stroke-linecap="square" stroke-miterlimit="10"><path d="m .42188-.60938l-.125.531255q0 .015625 0 .015625 0 .015625.01562.03125l0 0q0 0 .01562 0 .03126 0 .0625 0 .03126 0 .03126 0 0 .015625 0 .015625 0 .015625-.01563.015625h-.09375l0 0h-.07812l0 0h-.07813-.01563-.07812l0 0q-.015625 0-.015625-.015625 0-.015625.015625-.015625 0 0 .03125 0 .09375 0 .10937-.015625 0 0 0-.015625 0 0 0-.015625l0 0 0 0 0 0q0 0 0 0l .14063-.531255q0-.01562 0-.02343 0-.00781 0-.00781-.01563 0-.03125 0h-.03125q-.10937 0-.14063.01562-.01562.01562-.03124.03125v.01563l0 0h-.01563q-.015625.03124-.046875.10937 0 .01563 0 .01563-.015625 0-.015625 0 0 0 0-.01563 0 0 0-.01563l.0625-.17187q0-.01563.01563-.01563 0 0 .01562 0h .54688q.03124 0 .03124 0 0 .01563 0 .01563l-.03124.1875q0 .01563-.01563.01563-.01563 0-.01563-.01563 0 0 .01563-.01563 0-.04687 0-.07812 0-.0625-.03125-.07812-.03125 0-.10938 0-.0625 0-.0625 0-.01562 0-.01562.01562l0 0q-.01562.01562-.01562.01562z" transform="matrix(27 0 0 27 16 75)"/><path d="m .6875-.32812h-.59375q-.03125 0-.03125-.01563 0-.01563.03125-.01563h.59375q.03125 0 .03125.01563 0 .01563-.03125.01563zm0 .1875h-.59375q-.03125 0-.03125-.01563 0-.01563.03125-.01563h.59375q.03125 0 .03125.01563 0 .01563-.03125.01563z" transform="matrix(27 0 0 27 43.028 75)"/><path d="m .29688 1.7656q0 0 0 0 0-.2656.01562-.5.01562-.2344.07812-.46872.0625-.23438.15626-.44532.09374-.21094.25-.38281 0-.015625 0-.015625h.03124q.01563 0 .01563.007813 0 .007812 0 .007812 0 0 0 0-.14063.1875-.22656.39844-.08594.21093-.13281.44531-.04688.2344-.0625.4609-.01563.2266-.01563.4922 0 0 0 0 0 0-.01563 0z" transform="matrix(27 0 0 27 71.528 20.729)"/><path d="m .79688 1.75q-.15626-.1719-.25-.3828-.09376-.211-.15626-.44532-.0625-.23438-.07812-.46876-.01562-.23437-.01562-.499995 0 0 0 0h .09374q.01563 0 .01563 0 0 0 0 0 0 .265625.01563.492185.01562.22657.0625.46094.04687.23435.13281.44535.08593.2109.22656.3984 0 0 0 0 0 0 0 .0078 0 .0078-.01563.0078h-.03124q0 0 0-.0078 0-.0078 0-.0078z" transform="matrix(27 0 0 27 71.528 69.33)"/><path d="m .45312-.3125q0 .14062-.03124.21875-.0625.109375-.17188.109375-.09375 0-.14062-.0625-.01563-.015625-.031255-.03125-.046875-.078125-.046875-.234375 0-.15625.046875-.23438.046875-.10937.156255-.125h.01562q.09375 0 .14062.07813l0 0q .01563.01563.03126.04687.03124.07813.03124.23438zm-.20312.3125l0 0q .0625 0 .09375-.0625.01563-.03125.01563-.0625.01562-.0625.01562-.20312 0-.14063-.01562-.20313-.01563-.09375-.07813-.10937-.01563 0-.03125 0-.07812 0-.10938.0625 0 .03124-.01562.0625 0 .04687 0 .1875 0 .14062.01562.20312.01563.09375.07813.125.01563 0 .03125 0z" transform="matrix(27 0 0 27 95.153 40.05)"/><path d="m .20312 0l0 0q0 .09375-.0625.17188-.01562.01562-.03124.01562 0 0 0 0 0-.01562 0-.01562.0625-.0625.07812-.156255 0 0 0-.015625 0-.015625-.01562-.015625 0 0 0 0-.01563.015625-.03126.015625-.03124 0-.04687-.03125 0-.015625 0-.015625 0-.046875.01563-.062505.01562 0 .03124 0 .04688 0 .0625.062505 0 .015625 0 .046875z" transform="matrix(27 0 0 27 108.65 40.05)"/><path d="m .45312-.20312l0 0q0 .10937-.07812.17187-.0625.046875-.14062.046875-.09376 0-.156255-.078125-.03125-.04688-.03125-.09375 0-.04687.046875-.0625 0 0 0 0 .04687 0 .04687.03125.01563.01562.01563.01562 0 .03126-.03125.04688-.01562.01562-.03125.01562 0 0-.015625-.01562.015625.0625.078125.09375.03125.03125.07813.03125.0625 0 .10937-.078125.01563-.031255.01563-.124995 0-.09376-.01563-.125-.03125-.0625-.09375-.0625-.07812 0-.125.0625 0 .01562-.01562.01562 0 0-.01563-.01562v-.01563-.29687q0-.01563.01563-.03126 0 0 .01562.01563.0625.01563.125.01563.07812 0 .14062-.01563 0-.01563.01563-.01563 0 0 0 .01563 0 .01563-.03125.04687-.0625.0625-.15625.0625-.04687 0-.09375-.01562v.1875q.0625-.04688.14062-.04688.07813 0 .14063.07813.04687.0625.04687.14063z" transform="matrix(27 0 0 27 120.65 40.05)"/><path d="m .45312-.3125q0 .14062-.03124.21875-.0625.109375-.17188.109375-.09375 0-.14062-.0625-.01563-.015625-.031255-.03125-.046875-.078125-.046875-.234375 0-.15625.046875-.23438.046875-.10937.156255-.125h.01562q.09375 0 .14062.07813l0 0q .01563.01563.03126.04687.03124.07813.03124.23438zm-.20312.3125l0 0q .0625 0 .09375-.0625.01563-.03125.01563-.0625.01562-.0625.01562-.20312 0-.14063-.01562-.20313-.01563-.09375-.07813-.10937-.01563 0-.03125 0-.07812 0-.10938.0625 0 .03124-.01562.0625 0 .04687 0 .1875 0 .14062.01562.20312.01563.09375.07813.125.01563 0 .03125 0z" transform="matrix(27 0 0 27 161.15 40.05)"/><path d="m .20312 0l0 0q0 .09375-.0625.17188-.01562.01562-.03124.01562 0 0 0 0 0-.01562 0-.01562.0625-.0625.07812-.156255 0 0 0-.015625 0-.015625-.01562-.015625 0 0 0 0-.01563.015625-.03126.015625-.03124 0-.04687-.03125 0-.015625 0-.015625 0-.046875.01563-.062505.01562 0 .03124 0 .04688 0 .0625.062505 0 .015625 0 .046875z" transform="matrix(27 0 0 27 174.65 40.05)"/><path d="m .45312-.17188l0 0-.03124.17188h-.375005q0-.03125.015625-.03125l0 0 .1875-.21875q.10938-.125.10938-.21875 0-.09375-.0625-.14063l0 0 0 0q-.03126-.03124-.07813-.03124-.0625 0-.10937.0625-.01563.01562-.01563.04687 0 0 .01563 0 .03124 0 .04687.03125l0 0q0 .01562 0 .01562 0 .04688-.04687.04688 0 .01562 0 .01562-.04688 0-.062505-.03124 0-.01563 0-.03126 0-.07812.062505-.125.04687-.0625.125-.0625.10937 0 .17187.07813.03125.04687.04687.10937 0 0 0 .01563 0 .0625-.0625.14063-.03124.03124-.09374.07812l-.04688.0625h-.01562l-.10938.109375h.1875q.07812 0 .09375 0 0-.015625.01563-.093755z" transform="matrix(27 0 0 27 186.65 40.05)"/><path d="m .45312-.3125q0 .14062-.03124.21875-.0625.109375-.17188.109375-.09375 0-.14062-.0625-.01563-.015625-.031255-.03125-.046875-.078125-.046875-.234375 0-.15625.046875-.23438.046875-.10937.156255-.125h.01562q.09375 0 .14062.07813l0 0q .01563.01563.03126.04687.03124.07813.03124.23438zm-.20312.3125l0 0q .0625 0 .09375-.0625.01563-.03125.01563-.0625.01562-.0625.01562-.20312 0-.14063-.01562-.20313-.01563-.09375-.07813-.10937-.01563 0-.03125 0-.07812 0-.10938.0625 0 .03124-.01562.0625 0 .04687 0 .1875 0 .14062.01562.20312.01563.09375.07813.125.01563 0 .03125 0z" transform="matrix(27 0 0 27 227.15 40.05)"/><path d="m .20312 0l0 0q0 .09375-.0625.17188-.01562.01562-.03124.01562 0 0 0 0 0-.01562 0-.01562.0625-.0625.07812-.156255 0 0 0-.015625 0-.015625-.01562-.015625 0 0 0 0-.01563.015625-.03126.015625-.03124 0-.04687-.03125 0-.015625 0-.015625 0-.046875.01563-.062505.01562 0 .03124 0 .04688 0 .0625.062505 0 .015625 0 .046875z" transform="matrix(27 0 0 27 240.65 40.05)"/><path d="m .29688-.35938l0 0q .09374.03126.14062.10938.01562.03125.01562.07812 0 .07813-.0625.14063-.0625.046875-.14062.046875-.10938 0-.171875-.046875-.03125-.046875-.03125-.10937 0-.04688.03125-.04688.015625 0 .015625 0 .04687 0 .0625.03125 0 .01563 0 .01563 0 .04687-.03125.062495-.01562 0-.03125 0 .03125.0625.125.0625.01563.015625.01563.015625.07812 0 .09374-.0625.03126-.04688.03126-.10938 0-.125-.07813-.15624-.03125-.01563-.04687-.01563h-.04688q-.01562 0-.01562 0 0-.01563.01562-.01563.01562 0 .03125 0 .04687 0 .07813-.04687l0 0 0 0 0 0 0 0 .01562-.01563q.03125-.04687.03125-.10937 0-.09375-.07813-.10937-.01562 0-.03124 0-.0625 0-.10938.04687-.01562 0-.01562.01563.0625 0 .0625.04687 0 .03125-.03126.04687-.01562 0-.01562 0-.046875 0-.046875-.03124l0 0 0 0q-.015625 0-.015625-.01563 0-.0625.07812-.10937.04688-.03126.10938-.03126.09375 0 .14062.0625l0 0q .04688.03126.04688.07813 0 .09375-.07812.14063-.03126.03124-.0625.03124z" transform="matrix(27 0 0 27 252.65 40.05)"/><path d="m .45312-.3125q0 .14062-.03124.21875-.0625.109375-.17188.109375-.09375 0-.14062-.0625-.01563-.015625-.031255-.03125-.046875-.078125-.046875-.234375 0-.15625.046875-.23438.046875-.10937.156255-.125h.01562q.09375 0 .14062.07813l0 0q .01563.01563.03126.04687.03124.07813.03124.23438zm-.20312.3125l0 0q .0625 0 .09375-.0625.01563-.03125.01563-.0625.01562-.0625.01562-.20312 0-.14063-.01562-.20313-.01563-.09375-.07813-.10937-.01563 0-.03125 0-.07812 0-.10938.0625 0 .03124-.01562.0625 0 .04687 0 .1875 0 .14062.01562.20312.01563.09375.07813.125.01563 0 .03125 0z" transform="matrix(27 0 0 27 95.153 74.325)"/><path d="m .20312 0l0 0q0 .09375-.0625.17188-.01562.01562-.03124.01562 0 0 0 0 0-.01562 0-.01562.0625-.0625.07812-.156255 0 0 0-.015625 0-.015625-.01562-.015625 0 0 0 0-.01563.015625-.03126.015625-.03124 0-.04687-.03125 0-.015625 0-.015625 0-.046875.01563-.062505.01562 0 .03124 0 .04688 0 .0625.062505 0 .015625 0 .046875z" transform="matrix(27 0 0 27 108.65 74.325)"/><path d="m .45312-.20312l0 0q0 .10937-.07812.17187-.0625.046875-.14062.046875-.09376 0-.156255-.078125-.03125-.04688-.03125-.09375 0-.04687.046875-.0625 0 0 0 0 .04687 0 .04687.03125.01563.01562.01563.01562 0 .03126-.03125.04688-.01562.01562-.03125.01562 0 0-.015625-.01562.015625.0625.078125.09375.03125.03125.07813.03125.0625 0 .10937-.078125.01563-.031255.01563-.124995 0-.09376-.01563-.125-.03125-.0625-.09375-.0625-.07812 0-.125.0625 0 .01562-.01562.01562 0 0-.01563-.01562v-.01563-.29687q0-.01563.01563-.03126 0 0 .01562.01563.0625.01563.125.01563.07812 0 .14062-.01563 0-.01563.01563-.01563 0 0 0 .01563 0 .01563-.03125.04687-.0625.0625-.15625.0625-.04687 0-.09375-.01562v.1875q.0625-.04688.14062-.04688.07813 0 .14063.07813.04687.0625.04687.14063z" transform="matrix(27 0 0 27 120.65 74.325)"/><path d="m .45312-.3125q0 .14062-.03124.21875-.0625.109375-.17188.109375-.09375 0-.14062-.0625-.01563-.015625-.031255-.03125-.046875-.078125-.046875-.234375 0-.15625.046875-.23438.046875-.10937.156255-.125h.01562q.09375 0 .14062.07813l0 0q .01563.01563.03126.04687.03124.07813.03124.23438zm-.20312.3125l0 0q .0625 0 .09375-.0625.01563-.03125.01563-.0625.01562-.0625.01562-.20312 0-.14063-.01562-.20313-.01563-.09375-.07813-.10937-.01563 0-.03125 0-.07812 0-.10938.0625 0 .03124-.01562.0625 0 .04687 0 .1875 0 .14062.01562.20312.01563.09375.07813.125.01563 0 .03125 0z" transform="matrix(27 0 0 27 161.15 74.325)"/><path d="m .20312 0l0 0q0 .09375-.0625.17188-.01562.01562-.03124.01562 0 0 0 0 0-.01562 0-.01562.0625-.0625.07812-.156255 0 0 0-.015625 0-.015625-.01562-.015625 0 0 0 0-.01563.015625-.03126.015625-.03124 0-.04687-.03125 0-.015625 0-.015625 0-.046875.01563-.062505.01562 0 .03124 0 .04688 0 .0625.062505 0 .015625 0 .046875z" transform="matrix(27 0 0 27 174.65 74.325)"/><path d="m .29688-.64062v.562495q0 .03125.01562.03125.01562.015625.07812.015625h.03126v.03125q-.03126 0-.17188 0-.125 0-.15625 0v-.03125h.03125q.07812 0 .09375-.015625l0 0q0-.015625 0-.03125v-.515625q-.04687.01563-.125.01563v-.03126q.10937 0 .17187-.0625.03126 0 .03126.01563l0 0 0 0q0 0 0 .01563z" transform="matrix(27 0 0 27 186.65 74.325)"/><path d="m .45312-.3125q0 .14062-.03124.21875-.0625.109375-.17188.109375-.09375 0-.14062-.0625-.01563-.015625-.031255-.03125-.046875-.078125-.046875-.234375 0-.15625.046875-.23438.046875-.10937.156255-.125h.01562q.09375 0 .14062.07813l0 0q .01563.01563.03126.04687.03124.07813.03124.23438zm-.20312.3125l0 0q .0625 0 .09375-.0625.01563-.03125.01563-.0625.01562-.0625.01562-.20312 0-.14063-.01562-.20313-.01563-.09375-.07813-.10937-.01563 0-.03125 0-.07812 0-.10938.0625 0 .03124-.01562.0625 0 .04687 0 .1875 0 .14062.01562.20312.01563.09375.07813.125.01563 0 .03125 0z" transform="matrix(27 0 0 27 227.15 74.325)"/><path d="m .20312 0l0 0q0 .09375-.0625.17188-.01562.01562-.03124.01562 0 0 0 0 0-.01562 0-.01562.0625-.0625.07812-.156255 0 0 0-.015625 0-.015625-.01562-.015625 0 0 0 0-.01563.015625-.03126.015625-.03124 0-.04687-.03125 0-.015625 0-.015625 0-.046875.01563-.062505.01562 0 .03124 0 .04688 0 .0625.062505 0 .015625 0 .046875z" transform="matrix(27 0 0 27 240.65 74.325)"/><path d="m .03125-.17188v-.03124l.29687-.46876q.01563 0 .03126 0 .01562 0 .01562 0v .01563.45313h.09375v.03124h-.09375v.093755q0 .03125.01562.03125 0 .015625.0625.015625h.01563v.03125q-.04687 0-.14063 0-.09374 0-.125 0v-.03125h.01563q.0625 0 .07813-.015625 0-.015625 0-.03125v-.093755zm.26563-.03124v-.35938l-.23438.35938z" transform="matrix(27 0 0 27 252.65 74.325)"/><path d="m .45312-.3125q0 .14062-.03124.21875-.0625.109375-.17188.109375-.09375 0-.14062-.0625-.01563-.015625-.031255-.03125-.046875-.078125-.046875-.234375 0-.15625.046875-.23438.046875-.10937.156255-.125h.01562q.09375 0 .14062.07813l0 0q .01563.01563.03126.04687.03124.07813.03124.23438zm-.20312.3125l0 0q .0625 0 .09375-.0625.01563-.03125.01563-.0625.01562-.0625.01562-.20312 0-.14063-.01562-.20313-.01563-.09375-.07813-.10937-.01563 0-.03125 0-.07812 0-.10938.0625 0 .03124-.01562.0625 0 .04687 0 .1875 0 .14062.01562.20312.01563.09375.07813.125.01563 0 .03125 0z" transform="matrix(27 0 0 27 95.153 108.6)"/><path d="m .20312 0l0 0q0 .09375-.0625.17188-.01562.01562-.03124.01562 0 0 0 0 0-.01562 0-.01562.0625-.0625.07812-.156255 0 0 0-.015625 0-.015625-.01562-.015625 0 0 0 0-.01563.015625-.03126.015625-.03124 0-.04687-.03125 0-.015625 0-.015625 0-.046875.01563-.062505.01562 0 .03124 0 .04688 0 .0625.062505 0 .015625 0 .046875z" transform="matrix(27 0 0 27 108.65 108.6)"/><path d="m .15625-.45312l.125.07812q.10937-.0625.10937-.14062 0-.0625-.0625-.10938-.03124-.01562-.07812-.01562-.07812 0-.10938.04687l0 0 0 0q-.03124.03125-.03124.0625 0 .04687.04687.07813zm.15625.09374l0 0q .07812.04688.09375.0625 0 0 0 0 .04687.0625.04687.125 0 .093755-.0625.156255-.0625.03125-.14062.03125-.09375 0-.15625-.046875-.046875-.046875-.046875-.125 0-.10937.140625-.17187-.0625-.04688-.07812-.0625-.04688-.04688-.04688-.10938 0-.07812.07812-.125.04688-.04688.10938-.04688.09375 0 .14062.0625.04688.03126.04688.09376 0 .09374-.125.15624zm-.10938.04688l0 0q-.10937.0625-.10937.15625 0 .078125.0625.125.04687.03125.09375.03125.07812 0 .125-.0625.03125-.03125.03125-.0625 0-.0625-.0625-.10938 0 0-.01563 0z" transform="matrix(27 0 0 27 120.65 108.6)"/><path d="m .45312-.3125q0 .14062-.03124.21875-.0625.109375-.17188.109375-.09375 0-.14062-.0625-.01563-.015625-.031255-.03125-.046875-.078125-.046875-.234375 0-.15625.046875-.23438.046875-.10937.156255-.125h.01562q.09375 0 .14062.07813l0 0q .01563.01563.03126.04687.03124.07813.03124.23438zm-.20312.3125l0 0q .0625 0 .09375-.0625.01563-.03125.01563-.0625.01562-.0625.01562-.20312 0-.14063-.01562-.20313-.01563-.09375-.07813-.10937-.01563 0-.03125 0-.07812 0-.10938.0625 0 .03124-.01562.0625 0 .04687 0 .1875 0 .14062.01562.20312.01563.09375.07813.125.01563 0 .03125 0z" transform="matrix(27 0 0 27 161.15 108.6)"/><path d="m .20312 0l0 0q0 .09375-.0625.17188-.01562.01562-.03124.01562 0 0 0 0 0-.01562 0-.01562.0625-.0625.07812-.156255 0 0 0-.015625 0-.015625-.01562-.015625 0 0 0 0-.01563.015625-.03126.015625-.03124 0-.04687-.03125 0-.015625 0-.015625 0-.046875.01563-.062505.01562 0 .03124 0 .04688 0 .0625.062505 0 .015625 0 .046875z" transform="matrix(27 0 0 27 174.65 108.6)"/><path d="m .29688-.64062v.562495q0 .03125.01562.03125.01562.015625.07812.015625h.03126v.03125q-.03126 0-.17188 0-.125 0-.15625 0v-.03125h.03125q.07812 0 .09375-.015625l0 0q0-.015625 0-.03125v-.515625q-.04687.01563-.125.01563v-.03126q.10937 0 .17187-.0625.03126 0 .03126.01563l0 0 0 0q0 0 0 .01563z" transform="matrix(27 0 0 27 186.65 108.6)"/><path d="m .45312-.3125q0 .14062-.03124.21875-.0625.109375-.17188.109375-.09375 0-.14062-.0625-.01563-.015625-.031255-.03125-.046875-.078125-.046875-.234375 0-.15625.046875-.23438.046875-.10937.156255-.125h.01562q.09375 0 .14062.07813l0 0q .01563.01563.03126.04687.03124.07813.03124.23438zm-.20312.3125l0 0q .0625 0 .09375-.0625.01563-.03125.01563-.0625.01562-.0625.01562-.20312 0-.14063-.01562-.20313-.01563-.09375-.07813-.10937-.01563 0-.03125 0-.07812 0-.10938.0625 0 .03124-.01562.0625 0 .04687 0 .1875 0 .14062.01562.20312.01563.09375.07813.125.01563 0 .03125 0z" transform="matrix(27 0 0 27 227.15 108.6)"/><path d="m .20312 0l0 0q0 .09375-.0625.17188-.01562.01562-.03124.01562 0 0 0 0 0-.01562 0-.01562.0625-.0625.07812-.156255 0 0 0-.015625 0-.015625-.01562-.015625 0 0 0 0-.01563.015625-.03126.015625-.03124 0-.04687-.03125 0-.015625 0-.015625 0-.046875.01563-.062505.01562 0 .03124 0 .04688 0 .0625.062505 0 .015625 0 .046875z" transform="matrix(27 0 0 27 240.65 108.6)"/><path d="m .29688-.64062v.562495q0 .03125.01562.03125.01562.015625.07812.015625h.03126v.03125q-.03126 0-.17188 0-.125 0-.15625 0v-.03125h.03125q.07812 0 .09375-.015625l0 0q0-.015625 0-.03125v-.515625q-.04687.01563-.125.01563v-.03126q.10937 0 .17187-.0625.03126 0 .03126.01563l0 0 0 0q0 0 0 .01563z" transform="matrix(27 0 0 27 252.65 108.6)"/><path d="m .46875 1.7656q0-.2656-.01563-.4922-.01562-.2265-.0625-.45309-.04687-.22656-.13281-.44531-.08593-.21875-.22656-.40625 0 0 0 0 0-.015625.015625-.015625h.03125q0 0 0 .015625.156255.17187.249995.38281.09376.21094.15626.44532.0625.23432.07812.46872.01562.2344.01562.5 0 0 0 0h-.09374q-.01563 0-.01563 0z" transform="matrix(27 0 0 27 266.15 20.729)"/><path d="m .046875 1.7656q-.015625 0-.015625-.0156 0 0 0 0 .14063-.1875.22656-.4062.08594-.2188.13281-.44536.04688-.22656.0625-.45313.01563-.22656.01563-.492185 0 0 0 0 0 0 .01563 0h .09374q0 0 0 0 0 0 0 0 0 .265625-.01562.499995-.01562.23438-.07812.46876-.0625.23432-.15626.44532-.09374.2109-.249995.3828 0 .0156 0 .0156z" transform="matrix(27 0 0 27 266.15 69.33)"/><path d="m .90625-.23438l0 0h-.76563q.0625.04688.10938.14063 0 0 0 .015625 0 0-.01562 0-.01563 0-.01563-.015625-.04687-.07813-.125-.125l-.03125-.01563q0-.01562 0-.01562 0 0 0-.01562 0 0 .015625 0 .093755-.04688.140625-.15626 0 0 .01563 0 .01562 0 .01562 0 0 .01563-.03125.0625-.03125.0625-.07813.09376h.76563q.03125 0 .03125.01562 0 .01562-.03125.01562z" transform="matrix(27 0 0 27 298 40.1)"/><path d="m .65625-.23438h-.54687q-.031255 0-.031255-.01562 0-.01562.031255-.01562h.54687q.03125 0 .03125.01562 0 .01562-.03125.01562z" transform="matrix(27 0 0 27 321.1 40.1)"/><path d="m .46875-.21875l0 0q0 .10937-.07813.171875-.0625.0625-.14062.0625-.09375 0-.15625-.078125-.0625-.0625-.0625-.15625 0-.09375.0625-.17187.0625-.0625.15625-.0625.09375 0 .15625.07812.0625.07812.0625.15625zm-.21875.203125l0 0q .0625 0 .10938-.046875v-.03125q.03124-.03125.03124-.125 0-.09375-.03124-.14063-.04688-.0625-.10938-.0625-.0625 0-.10938.04688 0 0 0 .01562-.03124.04688-.03124.14063 0 .09375.03124.140625.03126.0625.10938.0625z" transform="matrix(27 0 0 27 358.6 40.1)"/><path d="m .17188-.078125q0 .03125.01562.03125l0 0v .015625q.01562 0 .0625 0h .01562v.03125q-.03124 0-.125 0 0 0-.10937 0v-.03125q.0625 0 .0625-.015625l0 0q .01563 0 .01563-.03125v-.265625q0-.04687-.01563-.04687-.015625-.01563-.046875-.01563h-.015625v-.03125h.14063v.10938q.01562-.09376.07812-.10938.01562 0 .04688 0 .04687 0 .0625.03125 0 .01563 0 .03125 0 .03125-.03126.03125 0 0 0 0-.03124 0-.04687-.01563 0-.01562 0-.01562 0-.03125.01563-.04688 0 0 0 0-.07813 0-.10938.07813-.01562.04687-.01562.10937z" transform="matrix(27 0 0 27 372.1 40.1)"/><path d="m .17188-.4375l0 0v .359375q0 .03125.01562.046875l0 0q .01562 0 .0625 0v .03125q-.10938 0-.10938 0-.01562 0-.10937 0v-.03125q.0625 0 .07813-.015625l0 0q0 0 0-.03125v-.265625q0-.04687-.01563-.04687l0 0 0 0 0 0 0 0q-.015625-.01563-.0625-.01563v-.03125zm.01562-.17188q0 .03126-.04688.04688 0 0-.01562 0-.03125 0-.046875-.03125l0 0q0-.01563 0-.01563 0-.03124.031255-.04687 0-.01563.01562-.01563.03125 0 .04688.03126.01562.01562.01562.03124z" transform="matrix(27 0 0 27 382.68 40.1)"/><path d="m .21875-.17188q.04687 0 .07813-.04687.01562-.01563.01562-.07813 0-.125-.09375-.125-.04687 0-.0625.04688-.01563.01562-.01563.07812 0 .125.07813.125zm-.09375-.01562q-.01562.03125-.01562.04688 0 .04687.03124.062495 0 .015625.01563.015625.01563 0 .07813 0 .10937 0 .15624.015625 0 0 .01563.015625.0625.03125.0625.109375 0 .062495-.07813.093755-.0625.03124-.14062.03124-.10938 0-.1875-.04687-.03125-.03125-.03125-.078125 0-.046875.046875-.078125.015625-.015625.046875-.015625-.046875-.03125-.046875-.093755 0-.04687.031255-.07812-.04688-.04688-.04688-.10938 0-.0625.0625-.10937.03125-.03125.09375-.03125.0625 0 .10937.03125.04688-.04687.10938-.04687.03125 0 .04688.03124 0 .01563 0 .01563 0 .03125-.03126.03125-.01562 0-.03124-.01562 0-.01563 0-.01563 0-.01563.01562-.03125 0 0 0 0-.04688 0-.09375.04688.04687.03124.04687.09374 0 .07813-.0625.10938-.04687.03125-.10937.03125-.04687 0-.09375-.03125zm.125.375l0 0q .09375 0 .14062-.04688.03126-.03124.03126-.062495 0-.078125-.125-.078125l0 0 0 0q-.01563 0-.07813 0h-.0625q-.04687 0-.0625.03125-.015625.03125-.015625.046875 0 .046875.062495.078125.04688.03125.10938.03125z" transform="matrix(27 0 0 27 390.18 40.1)"/><path d="m .17188-.4375l0 0v .359375q0 .03125.01562.046875l0 0q .01562 0 .0625 0v .03125q-.10938 0-.10938 0-.01562 0-.10937 0v-.03125q.0625 0 .07813-.015625l0 0q0 0 0-.03125v-.265625q0-.04687-.01563-.04687l0 0 0 0 0 0 0 0q-.015625-.01563-.0625-.01563v-.03125zm.01562-.17188q0 .03126-.04688.04688 0 0-.01562 0-.03125 0-.046875-.03125l0 0q0-.01563 0-.01563 0-.03124.031255-.04687 0-.01563.01562-.01563.03125 0 .04688.03126.01562.01562.01562.03124z" transform="matrix(27 0 0 27 403.68 40.1)"/><path d="m .10938-.34375q0-.04687-.01563-.04687-.015625-.01563-.046875-.01563h-.015625v-.03125h.14063v.09375q.04687-.09375.15624-.09375.0625 0 .09376.03125.03124.03125.03124.09375 0 .01562 0 .0625v.1875q0 .03125.03126.03125.01562 0 .04687 0v .03125q-.09375 0-.10937 0 0 0-.10938 0v-.03125q.0625 0 .0625-.015625l0 0q .01562 0 .01562-.03125v-.234375q0-.09375-.0625-.10938 0 0-.01562 0-.0625 0-.09375.0625-.04687.03126-.04687.09376v.187495q0 .03125.01562.046875.01562 0 .0625 0v .03125q-.09375 0-.10938 0 0 0-.10937 0v-.03125q.0625 0 .0625-.015625h.01563q0 0 0-.03125z" transform="matrix(27 0 0 27 411.18 40.1)"/><path d="m .39062-.23438l0 0h-.28124q0 .10938.03124.156255.04688.0625.10938.0625.07812 0 .10938-.046875.01562-.03125.03124-.04688 0-.01562.01563-.01562.01563 0 .01563 0 0 .03125-.03126.0625-.04687.0625-.10937.078125-.01563 0-.03125 0-.09375 0-.15625-.078125-.0625-.0625-.0625-.15625 0-.10937.0625-.17187.0625-.0625.14063-.0625.10937 0 .15624.09374.03126.04688.03126.10938 0 .01562-.01563.01562 0 0-.01563 0zm-.28124-.01562l0 0h .23437q0-.09375-.03125-.14062-.03125-.03126-.07812-.03126-.04688 0-.07813.04688-.04687.04688-.04687.125z" transform="matrix(27 0 0 27 426.18 40.1)"/><path d="m .17188-.10938l.35937-.59374q0-.01563.01563-.01563.01562 0 .01562.01563.01562 0 .01562.01562l.0625.625q0 .015625 0 .03125l0 0 0 0 0 0 0 0 0 0q .01563 0 .0625 0 .01563 0 .01563.015625 0 .015625-.01563.015625h-.10937l0 0h-.125l0 0q-.01563 0-.01563-.015625 0-.015625.01563-.015625.07813 0 .07813-.03125 0 0-.01563-.17188h-.25l-.07813.125q-.01562.031255-.01562.04688 0 .03125.04688.03125.01562 0 .01562.015625 0 .015625-.01562.015625h-.09376l0 0h-.093745l0 0q-.015625 0-.015625-.015625 0-.015625.015625-.015625l0 0h .015625q.0625 0 .09375-.046875.01563-.015625.01563-.031255zm.125-.15624h.23437l-.03125-.32813z" transform="matrix(27 0 0 27 447.18 40.1)"/><path d="m .29688-.64062v.562495q0 .03125.01562.03125.01562.015625.07812.015625h.03126v.03125q-.03126 0-.17188 0-.125 0-.15625 0v-.03125h.03125q.07812 0 .09375-.015625l0 0q0-.015625 0-.03125v-.515625q-.04687.01563-.125.01563v-.03126q.10937 0 .17187-.0625.03126 0 .03126.01563l0 0 0 0q0 0 0 .01563z" transform="matrix(18.9 0 0 18.9 467.43 44.15)"/><path d="m .90625-.23438l0 0h-.76563q.0625.04688.10938.14063 0 0 0 .015625 0 0-.01562 0-.01563 0-.01563-.015625-.04687-.07813-.125-.125l-.03125-.01563q0-.01562 0-.01562 0 0 0-.01562 0 0 .015625 0 .093755-.04688.140625-.15626 0 0 .01563 0 .01562 0 .01562 0 0 .01563-.03125.0625-.03125.0625-.07813.09376h.76563q.03125 0 .03125.01562 0 .01562-.03125.01562z" transform="matrix(27 0 0 27 298 75.425)"/><path d="m .65625-.23438h-.54687q-.031255 0-.031255-.01562 0-.01562.031255-.01562h.54687q.03125 0 .03125.01562 0 .01562-.03125.01562z" transform="matrix(27 0 0 27 321.1 75.425)"/><path d="m .46875-.21875l0 0q0 .10937-.07813.171875-.0625.0625-.14062.0625-.09375 0-.15625-.078125-.0625-.0625-.0625-.15625 0-.09375.0625-.17187.0625-.0625.15625-.0625.09375 0 .15625.07812.0625.07812.0625.15625zm-.21875.203125l0 0q .0625 0 .10938-.046875v-.03125q.03124-.03125.03124-.125 0-.09375-.03124-.14063-.04688-.0625-.10938-.0625-.0625 0-.10938.04688 0 0 0 .01562-.03124.04688-.03124.14063 0 .09375.03124.140625.03126.0625.10938.0625z" transform="matrix(27 0 0 27 358.6 75.425)"/><path d="m .17188-.078125q0 .03125.01562.03125l0 0v .015625q.01562 0 .0625 0h .01562v.03125q-.03124 0-.125 0 0 0-.10937 0v-.03125q.0625 0 .0625-.015625l0 0q .01563 0 .01563-.03125v-.265625q0-.04687-.01563-.04687-.015625-.01563-.046875-.01563h-.015625v-.03125h.14063v.10938q.01562-.09376.07812-.10938.01562 0 .04688 0 .04687 0 .0625.03125 0 .01563 0 .03125 0 .03125-.03126.03125 0 0 0 0-.03124 0-.04687-.01563 0-.01562 0-.01562 0-.03125.01563-.04688 0 0 0 0-.07813 0-.10938.07813-.01562.04687-.01562.10937z" transform="matrix(27 0 0 27 372.1 75.425)"/><path d="m .17188-.4375l0 0v .359375q0 .03125.01562.046875l0 0q .01562 0 .0625 0v .03125q-.10938 0-.10938 0-.01562 0-.10937 0v-.03125q.0625 0 .07813-.015625l0 0q0 0 0-.03125v-.265625q0-.04687-.01563-.04687l0 0 0 0 0 0 0 0q-.015625-.01563-.0625-.01563v-.03125zm.01562-.17188q0 .03126-.04688.04688 0 0-.01562 0-.03125 0-.046875-.03125l0 0q0-.01563 0-.01563 0-.03124.031255-.04687 0-.01563.01562-.01563.03125 0 .04688.03126.01562.01562.01562.03124z" transform="matrix(27 0 0 27 382.68 75.425)"/><path d="m .21875-.17188q.04687 0 .07813-.04687.01562-.01563.01562-.07813 0-.125-.09375-.125-.04687 0-.0625.04688-.01563.01562-.01563.07812 0 .125.07813.125zm-.09375-.01562q-.01562.03125-.01562.04688 0 .04687.03124.062495 0 .015625.01563.015625.01563 0 .07813 0 .10937 0 .15624.015625 0 0 .01563.015625.0625.03125.0625.109375 0 .062495-.07813.093755-.0625.03124-.14062.03124-.10938 0-.1875-.04687-.03125-.03125-.03125-.078125 0-.046875.046875-.078125.015625-.015625.046875-.015625-.046875-.03125-.046875-.093755 0-.04687.031255-.07812-.04688-.04688-.04688-.10938 0-.0625.0625-.10937.03125-.03125.09375-.03125.0625 0 .10937.03125.04688-.04687.10938-.04687.03125 0 .04688.03124 0 .01563 0 .01563 0 .03125-.03126.03125-.01562 0-.03124-.01562 0-.01563 0-.01563 0-.01563.01562-.03125 0 0 0 0-.04688 0-.09375.04688.04687.03124.04687.09374 0 .07813-.0625.10938-.04687.03125-.10937.03125-.04687 0-.09375-.03125zm.125.375l0 0q .09375 0 .14062-.04688.03126-.03124.03126-.062495 0-.078125-.125-.078125l0 0 0 0q-.01563 0-.07813 0h-.0625q-.04687 0-.0625.03125-.015625.03125-.015625.046875 0 .046875.062495.078125.04688.03125.10938.03125z" transform="matrix(27 0 0 27 390.18 75.425)"/><path d="m .17188-.4375l0 0v .359375q0 .03125.01562.046875l0 0q .01562 0 .0625 0v .03125q-.10938 0-.10938 0-.01562 0-.10937 0v-.03125q.0625 0 .07813-.015625l0 0q0 0 0-.03125v-.265625q0-.04687-.01563-.04687l0 0 0 0 0 0 0 0q-.015625-.01563-.0625-.01563v-.03125zm.01562-.17188q0 .03126-.04688.04688 0 0-.01562 0-.03125 0-.046875-.03125l0 0q0-.01563 0-.01563 0-.03124.031255-.04687 0-.01563.01562-.01563.03125 0 .04688.03126.01562.01562.01562.03124z" transform="matrix(27 0 0 27 403.68 75.425)"/><path d="m .10938-.34375q0-.04687-.01563-.04687-.015625-.01563-.046875-.01563h-.015625v-.03125h.14063v.09375q.04687-.09375.15624-.09375.0625 0 .09376.03125.03124.03125.03124.09375 0 .01562 0 .0625v.1875q0 .03125.03126.03125.01562 0 .04687 0v .03125q-.09375 0-.10937 0 0 0-.10938 0v-.03125q.0625 0 .0625-.015625l0 0q .01562 0 .01562-.03125v-.234375q0-.09375-.0625-.10938 0 0-.01562 0-.0625 0-.09375.0625-.04687.03126-.04687.09376v.187495q0 .03125.01562.046875.01562 0 .0625 0v .03125q-.09375 0-.10938 0 0 0-.10937 0v-.03125q.0625 0 .0625-.015625h.01563q0 0 0-.03125z" transform="matrix(27 0 0 27 411.18 75.425)"/><path d="m .39062-.23438l0 0h-.28124q0 .10938.03124.156255.04688.0625.10938.0625.07812 0 .10938-.046875.01562-.03125.03124-.04688 0-.01562.01563-.01562.01563 0 .01563 0 0 .03125-.03126.0625-.04687.0625-.10937.078125-.01563 0-.03125 0-.09375 0-.15625-.078125-.0625-.0625-.0625-.15625 0-.10937.0625-.17187.0625-.0625.14063-.0625.10937 0 .15624.09374.03126.04688.03126.10938 0 .01562-.01563.01562 0 0-.01563 0zm-.28124-.01562l0 0h .23437q0-.09375-.03125-.14062-.03125-.03126-.07812-.03126-.04688 0-.07813.04688-.04687.04688-.04687.125z" transform="matrix(27 0 0 27 426.18 75.425)"/><path d="m .17188-.10938l.35937-.59374q0-.01563.01563-.01563.01562 0 .01562.01563.01562 0 .01562.01562l.0625.625q0 .015625 0 .03125l0 0 0 0 0 0 0 0 0 0q .01563 0 .0625 0 .01563 0 .01563.015625 0 .015625-.01563.015625h-.10937l0 0h-.125l0 0q-.01563 0-.01563-.015625 0-.015625.01563-.015625.07813 0 .07813-.03125 0 0-.01563-.17188h-.25l-.07813.125q-.01562.031255-.01562.04688 0 .03125.04688.03125.01562 0 .01562.015625 0 .015625-.01562.015625h-.09376l0 0h-.093745l0 0q-.015625 0-.015625-.015625 0-.015625.015625-.015625l0 0h .015625q.0625 0 .09375-.046875.01563-.015625.01563-.031255zm.125-.15624h.23437l-.03125-.32813z" transform="matrix(27 0 0 27 447.18 75.425)"/><path d="m .45312-.17188l0 0-.03124.17188h-.375005q0-.03125.015625-.03125l0 0 .1875-.21875q.10938-.125.10938-.21875 0-.09375-.0625-.14063l0 0 0 0q-.03126-.03124-.07813-.03124-.0625 0-.10937.0625-.01563.01562-.01563.04687 0 0 .01563 0 .03124 0 .04687.03125l0 0q0 .01562 0 .01562 0 .04688-.04687.04688 0 .01562 0 .01562-.04688 0-.062505-.03124 0-.01563 0-.03126 0-.07812.062505-.125.04687-.0625.125-.0625.10937 0 .17187.07813.03125.04687.04687.10937 0 0 0 .01563 0 .0625-.0625.14063-.03124.03124-.09374.07812l-.04688.0625h-.01562l-.10938.109375h.1875q.07812 0 .09375 0 0-.015625.01563-.093755z" transform="matrix(18.9 0 0 18.9 467.43 79.475)"/><path d="m .90625-.23438l0 0h-.76563q.0625.04688.10938.14063 0 0 0 .015625 0 0-.01562 0-.01563 0-.01563-.015625-.04687-.07813-.125-.125l-.03125-.01563q0-.01562 0-.01562 0 0 0-.01562 0 0 .015625 0 .093755-.04688.140625-.15626 0 0 .01563 0 .01562 0 .01562 0 0 .01563-.03125.0625-.03125.0625-.07813.09376h.76563q.03125 0 .03125.01562 0 .01562-.03125.01562z" transform="matrix(27 0 0 27 298 110.75)"/><path d="m .65625-.23438h-.54687q-.031255 0-.031255-.01562 0-.01562.031255-.01562h.54687q.03125 0 .03125.01562 0 .01562-.03125.01562z" transform="matrix(27 0 0 27 321.1 110.75)"/><path d="m .46875-.21875l0 0q0 .10937-.07813.171875-.0625.0625-.14062.0625-.09375 0-.15625-.078125-.0625-.0625-.0625-.15625 0-.09375.0625-.17187.0625-.0625.15625-.0625.09375 0 .15625.07812.0625.07812.0625.15625zm-.21875.203125l0 0q .0625 0 .10938-.046875v-.03125q.03124-.03125.03124-.125 0-.09375-.03124-.14063-.04688-.0625-.10938-.0625-.0625 0-.10938.04688 0 0 0 .01562-.03124.04688-.03124.14063 0 .09375.03124.140625.03126.0625.10938.0625z" transform="matrix(27 0 0 27 358.6 110.75)"/><path d="m .17188-.078125q0 .03125.01562.03125l0 0v .015625q.01562 0 .0625 0h .01562v.03125q-.03124 0-.125 0 0 0-.10937 0v-.03125q.0625 0 .0625-.015625l0 0q .01563 0 .01563-.03125v-.265625q0-.04687-.01563-.04687-.015625-.01563-.046875-.01563h-.015625v-.03125h.14063v.10938q.01562-.09376.07812-.10938.01562 0 .04688 0 .04687 0 .0625.03125 0 .01563 0 .03125 0 .03125-.03126.03125 0 0 0 0-.03124 0-.04687-.01563 0-.01562 0-.01562 0-.03125.01563-.04688 0 0 0 0-.07813 0-.10938.07813-.01562.04687-.01562.10937z" transform="matrix(27 0 0 27 372.1 110.75)"/><path d="m .17188-.4375l0 0v .359375q0 .03125.01562.046875l0 0q .01562 0 .0625 0v .03125q-.10938 0-.10938 0-.01562 0-.10937 0v-.03125q.0625 0 .07813-.015625l0 0q0 0 0-.03125v-.265625q0-.04687-.01563-.04687l0 0 0 0 0 0 0 0q-.015625-.01563-.0625-.01563v-.03125zm.01562-.17188q0 .03126-.04688.04688 0 0-.01562 0-.03125 0-.046875-.03125l0 0q0-.01563 0-.01563 0-.03124.031255-.04687 0-.01563.01562-.01563.03125 0 .04688.03126.01562.01562.01562.03124z" transform="matrix(27 0 0 27 382.68 110.75)"/><path d="m .21875-.17188q.04687 0 .07813-.04687.01562-.01563.01562-.07813 0-.125-.09375-.125-.04687 0-.0625.04688-.01563.01562-.01563.07812 0 .125.07813.125zm-.09375-.01562q-.01562.03125-.01562.04688 0 .04687.03124.062495 0 .015625.01563.015625.01563 0 .07813 0 .10937 0 .15624.015625 0 0 .01563.015625.0625.03125.0625.109375 0 .062495-.07813.093755-.0625.03124-.14062.03124-.10938 0-.1875-.04687-.03125-.03125-.03125-.078125 0-.046875.046875-.078125.015625-.015625.046875-.015625-.046875-.03125-.046875-.093755 0-.04687.031255-.07812-.04688-.04688-.04688-.10938 0-.0625.0625-.10937.03125-.03125.09375-.03125.0625 0 .10937.03125.04688-.04687.10938-.04687.03125 0 .04688.03124 0 .01563 0 .01563 0 .03125-.03126.03125-.01562 0-.03124-.01562 0-.01563 0-.01563 0-.01563.01562-.03125 0 0 0 0-.04688 0-.09375.04688.04687.03124.04687.09374 0 .07813-.0625.10938-.04687.03125-.10937.03125-.04687 0-.09375-.03125zm.125.375l0 0q .09375 0 .14062-.04688.03126-.03124.03126-.062495 0-.078125-.125-.078125l0 0 0 0q-.01563 0-.07813 0h-.0625q-.04687 0-.0625.03125-.015625.03125-.015625.046875 0 .046875.062495.078125.04688.03125.10938.03125z" transform="matrix(27 0 0 27 390.18 110.75)"/><path d="m .17188-.4375l0 0v .359375q0 .03125.01562.046875l0 0q .01562 0 .0625 0v .03125q-.10938 0-.10938 0-.01562 0-.10937 0v-.03125q.0625 0 .07813-.015625l0 0q0 0 0-.03125v-.265625q0-.04687-.01563-.04687l0 0 0 0 0 0 0 0q-.015625-.01563-.0625-.01563v-.03125zm.01562-.17188q0 .03126-.04688.04688 0 0-.01562 0-.03125 0-.046875-.03125l0 0q0-.01563 0-.01563 0-.03124.031255-.04687 0-.01563.01562-.01563.03125 0 .04688.03126.01562.01562.01562.03124z" transform="matrix(27 0 0 27 403.68 110.75)"/><path d="m .10938-.34375q0-.04687-.01563-.04687-.015625-.01563-.046875-.01563h-.015625v-.03125h.14063v.09375q.04687-.09375.15624-.09375.0625 0 .09376.03125.03124.03125.03124.09375 0 .01562 0 .0625v.1875q0 .03125.03126.03125.01562 0 .04687 0v .03125q-.09375 0-.10937 0 0 0-.10938 0v-.03125q.0625 0 .0625-.015625l0 0q .01562 0 .01562-.03125v-.234375q0-.09375-.0625-.10938 0 0-.01562 0-.0625 0-.09375.0625-.04687.03126-.04687.09376v.187495q0 .03125.01562.046875.01562 0 .0625 0v .03125q-.09375 0-.10938 0 0 0-.10937 0v-.03125q.0625 0 .0625-.015625h.01563q0 0 0-.03125z" transform="matrix(27 0 0 27 411.18 110.75)"/><path d="m .39062-.23438l0 0h-.28124q0 .10938.03124.156255.04688.0625.10938.0625.07812 0 .10938-.046875.01562-.03125.03124-.04688 0-.01562.01563-.01562.01563 0 .01563 0 0 .03125-.03126.0625-.04687.0625-.10937.078125-.01563 0-.03125 0-.09375 0-.15625-.078125-.0625-.0625-.0625-.15625 0-.10937.0625-.17187.0625-.0625.14063-.0625.10937 0 .15624.09374.03126.04688.03126.10938 0 .01562-.01563.01562 0 0-.01563 0zm-.28124-.01562l0 0h .23437q0-.09375-.03125-.14062-.03125-.03126-.07812-.03126-.04688 0-.07813.04688-.04687.04688-.04687.125z" transform="matrix(27 0 0 27 426.18 110.75)"/><path d="m .17188-.10938l.35937-.59374q0-.01563.01563-.01563.01562 0 .01562.01563.01562 0 .01562.01562l.0625.625q0 .015625 0 .03125l0 0 0 0 0 0 0 0 0 0q .01563 0 .0625 0 .01563 0 .01563.015625 0 .015625-.01563.015625h-.10937l0 0h-.125l0 0q-.01563 0-.01563-.015625 0-.015625.01563-.015625.07813 0 .07813-.03125 0 0-.01563-.17188h-.25l-.07813.125q-.01562.031255-.01562.04688 0 .03125.04688.03125.01562 0 .01562.015625 0 .015625-.01562.015625h-.09376l0 0h-.093745l0 0q-.015625 0-.015625-.015625 0-.015625.015625-.015625l0 0h .015625q.0625 0 .09375-.046875.01563-.015625.01563-.031255zm.125-.15624h.23437l-.03125-.32813z" transform="matrix(27 0 0 27 447.18 110.75)"/><path d="m .29688-.35938l0 0q .09374.03126.14062.10938.01562.03125.01562.07812 0 .07813-.0625.14063-.0625.046875-.14062.046875-.10938 0-.171875-.046875-.03125-.046875-.03125-.10937 0-.04688.03125-.04688.015625 0 .015625 0 .04687 0 .0625.03125 0 .01563 0 .01563 0 .04687-.03125.062495-.01562 0-.03125 0 .03125.0625.125.0625.01563.015625.01563.015625.07812 0 .09374-.0625.03126-.04688.03126-.10938 0-.125-.07813-.15624-.03125-.01563-.04687-.01563h-.04688q-.01562 0-.01562 0 0-.01563.01562-.01563.01562 0 .03125 0 .04687 0 .07813-.04687l0 0 0 0 0 0 0 0 .01562-.01563q.03125-.04687.03125-.10937 0-.09375-.07813-.10937-.01562 0-.03124 0-.0625 0-.10938.04687-.01562 0-.01562.01563.0625 0 .0625.04687 0 .03125-.03126.04687-.01562 0-.01562 0-.046875 0-.046875-.03124l0 0 0 0q-.015625 0-.015625-.01563 0-.0625.07812-.10937.04688-.03126.10938-.03126.09375 0 .14062.0625l0 0q .04688.03126.04688.07813 0 .09375-.07812.14063-.03126.03124-.0625.03124z" transform="matrix(18.9 0 0 18.9 467.43 114.8)"/><path d="m .26562-.65625v.76563q.0625-.07813.14063-.10938 0 0 .01563 0 0 0 0 .015625 0 .015625 0 .015625-.10938.046875-.15626.125 0 .01563 0 .01563 0 .01562 0 .01562 0 0 0 0 0 0-.01562 0 0 0-.01562 0-.04688-.09375-.125-.140625l-.031255-.015625q0 0 0-.015625 0-.015625 0-.015625.015625 0 .062495.03125.04688.03125.09376.07813v-.76563q0-.03125.01562-.03125.01562 0 .01562.03125z" transform="matrix(27 0 0 27 104 149.75)"/><path d="m .42188-.32812l-.14063.312495q0 .03125-.01563.03125-.01562 0-.01562-.015625 0 0 0-.015625l-.15625-.343755q0-.03124-.015625-.03124l0 0q-.015625-.01563-.0625-.01563v-.03125q.046875.01562.093755.01562.03124 0 .10937-.01562v.03125q-.04687 0-.04687.03125 0 0 0 .01562l.10937.281255.10937-.249995q0-.01563 0-.03126 0-.03124-.03124-.04687 0 0-.01563 0v-.03125q.04687.01562.09375.01562.03125 0 .07812-.01562v.03125q-.07812 0-.09374.0625l0 0q0 0 0 .01563z" transform="matrix(27 0 0 27 86 178.25)"/><path d="m .39062-.23438l0 0h-.28124q0 .10938.03124.156255.04688.0625.10938.0625.07812 0 .10938-.046875.01562-.03125.03124-.04688 0-.01562.01563-.01562.01563 0 .01563 0 0 .03125-.03126.0625-.04687.0625-.10937.078125-.01563 0-.03125 0-.09375 0-.15625-.078125-.0625-.0625-.0625-.15625 0-.10937.0625-.17187.0625-.0625.14063-.0625.10937 0 .15624.09374.03126.04688.03126.10938 0 .01562-.01563.01562 0 0-.01563 0zm-.28124-.01562l0 0h .23437q0-.09375-.03125-.14062-.03125-.03126-.07812-.03126-.04688 0-.07813.04688-.04687.04688-.04687.125z" transform="matrix(27 0 0 27 99.5 178.25)"/><path d="m .17188-.078125q0 .03125.01562.03125l0 0v .015625q.01562 0 .0625 0h .01562v.03125q-.03124 0-.125 0 0 0-.10937 0v-.03125q.0625 0 .0625-.015625l0 0q .01563 0 .01563-.03125v-.265625q0-.04687-.01563-.04687-.015625-.01563-.046875-.01563h-.015625v-.03125h.14063v.10938q.01562-.09376.07812-.10938.01562 0 .04688 0 .04687 0 .0625.03125 0 .01563 0 .03125 0 .03125-.03126.03125 0 0 0 0-.03124 0-.04687-.01563 0-.01562 0-.01562 0-.03125.01563-.04688 0 0 0 0-.07813 0-.10938.07813-.01562.04687-.01562.10937z" transform="matrix(27 0 0 27 111.5 178.25)"/><path d="m .20312-.1875l0 0q-.07812-.03125-.10937-.04688-.015625 0-.015625 0-.046875-.04687-.046875-.09374 0-.0625.0625-.09376.04687-.03124.09375-.03124.0625 0 .09375.03124.01563 0 .01563-.01562.01562-.01562.03124-.01562 0 .01562 0 .03124v.09376q0 .03124 0 .03124l0 0 0 0 0 0q-.01562 0-.01562-.01562-.01562-.09375-.07812-.10938-.01563 0-.04688 0-.09375 0-.109375.04688 0 .01562 0 .01562 0 .0625.078125.07813.01563 0 .04687.01563.07813.01562.10938.03124 0 0 0 .01563.04688.03125.04688.09375 0 .078125-.0625.109375-.04688.03125-.09376.03125-.0625 0-.10937-.046875l-.03125.015625q-.015625.03125-.015625.03125-.015625-.015625-.015625-.03125v-.124995q0-.03126.015625-.03126l0 0 0 0 0 0q .015625 0 .015625.01563 0 0 0 0 .03125.125.09375.140625.01563 0 .04687 0 .07813 0 .10938-.0625 0-.015625 0-.031255 0-.0625-.10938-.07812z" transform="matrix(27 0 0 27 122.08 178.25)"/><path d="m .17188-.10938l.35937-.59374q0-.01563.01563-.01563.01562 0 .01562.01563.01562 0 .01562.01562l.0625.625q0 .015625 0 .03125l0 0 0 0 0 0 0 0 0 0q .01563 0 .0625 0 .01563 0 .01563.015625 0 .015625-.01563.015625h-.10937l0 0h-.125l0 0q-.01563 0-.01563-.015625 0-.015625.01563-.015625.07813 0 .07813-.03125 0 0-.01563-.17188h-.25l-.07813.125q-.01562.031255-.01562.04688 0 .03125.04688.03125.01562 0 .01562.015625 0 .015625-.01562.015625h-.09376l0 0h-.093745l0 0q-.015625 0-.015625-.015625 0-.015625.015625-.015625l0 0h .015625q.0625 0 .09375-.046875.01563-.015625.01563-.031255zm.125-.15624h.23437l-.03125-.32813z" transform="matrix(27 0 0 27 95 208.32)"/><path d="m .29688-.64062v.562495q0 .03125.01562.03125.01562.015625.07812.015625h.03126v.03125q-.03126 0-.17188 0-.125 0-.15625 0v-.03125h.03125q.07812 0 .09375-.015625l0 0q0-.015625 0-.03125v-.515625q-.04687.01563-.125.01563v-.03126q.10937 0 .17187-.0625.03126 0 .03126.01563l0 0 0 0q0 0 0 .01563z" transform="matrix(18.9 0 0 18.9 115.25 212.37)"/><path d="m .26562-.65625v.76563q.0625-.07813.14063-.10938 0 0 .01563 0 0 0 0 .015625 0 .015625 0 .015625-.10938.046875-.15626.125 0 .01563 0 .01563 0 .01562 0 .01562 0 0 0 0 0 0-.01562 0 0 0-.01562 0-.04688-.09375-.125-.140625l-.031255-.015625q0 0 0-.015625 0-.015625 0-.015625.015625 0 .062495.03125.04688.03125.09376.07813v-.76563q0-.03125.01562-.03125.01562 0 .01562.03125z" transform="matrix(27 0 0 27 174 149.75)"/><path d="m .42188-.32812l-.14063.312495q0 .03125-.01563.03125-.01562 0-.01562-.015625 0 0 0-.015625l-.15625-.343755q0-.03124-.015625-.03124l0 0q-.015625-.01563-.0625-.01563v-.03125q.046875.01562.093755.01562.03124 0 .10937-.01562v.03125q-.04687 0-.04687.03125 0 0 0 .01562l.10937.281255.10937-.249995q0-.01563 0-.03126 0-.03124-.03124-.04687 0 0-.01563 0v-.03125q.04687.01562.09375.01562.03125 0 .07812-.01562v.03125q-.07812 0-.09374.0625l0 0q0 0 0 .01563z" transform="matrix(27 0 0 27 156 178.25)"/><path d="m .39062-.23438l0 0h-.28124q0 .10938.03124.156255.04688.0625.10938.0625.07812 0 .10938-.046875.01562-.03125.03124-.04688 0-.01562.01563-.01562.01563 0 .01563 0 0 .03125-.03126.0625-.04687.0625-.10937.078125-.01563 0-.03125 0-.09375 0-.15625-.078125-.0625-.0625-.0625-.15625 0-.10937.0625-.17187.0625-.0625.14063-.0625.10937 0 .15624.09374.03126.04688.03126.10938 0 .01562-.01563.01562 0 0-.01563 0zm-.28124-.01562l0 0h .23437q0-.09375-.03125-.14062-.03125-.03126-.07812-.03126-.04688 0-.07813.04688-.04687.04688-.04687.125z" transform="matrix(27 0 0 27 169.5 178.25)"/><path d="m .17188-.078125q0 .03125.01562.03125l0 0v .015625q.01562 0 .0625 0h .01562v.03125q-.03124 0-.125 0 0 0-.10937 0v-.03125q.0625 0 .0625-.015625l0 0q .01563 0 .01563-.03125v-.265625q0-.04687-.01563-.04687-.015625-.01563-.046875-.01563h-.015625v-.03125h.14063v.10938q.01562-.09376.07812-.10938.01562 0 .04688 0 .04687 0 .0625.03125 0 .01563 0 .03125 0 .03125-.03126.03125 0 0 0 0-.03124 0-.04687-.01563 0-.01562 0-.01562 0-.03125.01563-.04688 0 0 0 0-.07813 0-.10938.07813-.01562.04687-.01562.10937z" transform="matrix(27 0 0 27 181.5 178.25)"/><path d="m .20312-.1875l0 0q-.07812-.03125-.10937-.04688-.015625 0-.015625 0-.046875-.04687-.046875-.09374 0-.0625.0625-.09376.04687-.03124.09375-.03124.0625 0 .09375.03124.01563 0 .01563-.01562.01562-.01562.03124-.01562 0 .01562 0 .03124v.09376q0 .03124 0 .03124l0 0 0 0 0 0q-.01562 0-.01562-.01562-.01562-.09375-.07812-.10938-.01563 0-.04688 0-.09375 0-.109375.04688 0 .01562 0 .01562 0 .0625.078125.07813.01563 0 .04687.01563.07813.01562.10938.03124 0 0 0 .01563.04688.03125.04688.09375 0 .078125-.0625.109375-.04688.03125-.09376.03125-.0625 0-.10937-.046875l-.03125.015625q-.015625.03125-.015625.03125-.015625-.015625-.015625-.03125v-.124995q0-.03126.015625-.03126l0 0 0 0 0 0q .015625 0 .015625.01563 0 0 0 0 .03125.125.09375.140625.01563 0 .04687 0 .07813 0 .10938-.0625 0-.015625 0-.031255 0-.0625-.10938-.07812z" transform="matrix(27 0 0 27 192.08 178.25)"/><path d="m .17188-.10938l.35937-.59374q0-.01563.01563-.01563.01562 0 .01562.01563.01562 0 .01562.01562l.0625.625q0 .015625 0 .03125l0 0 0 0 0 0 0 0 0 0q .01563 0 .0625 0 .01563 0 .01563.015625 0 .015625-.01563.015625h-.10937l0 0h-.125l0 0q-.01563 0-.01563-.015625 0-.015625.01563-.015625.07813 0 .07813-.03125 0 0-.01563-.17188h-.25l-.07813.125q-.01562.031255-.01562.04688 0 .03125.04688.03125.01562 0 .01562.015625 0 .015625-.01562.015625h-.09376l0 0h-.093745l0 0q-.015625 0-.015625-.015625 0-.015625.015625-.015625l0 0h .015625q.0625 0 .09375-.046875.01563-.015625.01563-.031255zm.125-.15624h.23437l-.03125-.32813z" transform="matrix(27 0 0 27 165 208.32)"/><path d="m .45312-.17188l0 0-.03124.17188h-.375005q0-.03125.015625-.03125l0 0 .1875-.21875q.10938-.125.10938-.21875 0-.09375-.0625-.14063l0 0 0 0q-.03126-.03124-.07813-.03124-.0625 0-.10937.0625-.01563.01562-.01563.04687 0 0 .01563 0 .03124 0 .04687.03125l0 0q0 .01562 0 .01562 0 .04688-.04687.04688 0 .01562 0 .01562-.04688 0-.062505-.03124 0-.01563 0-.03126 0-.07812.062505-.125.04687-.0625.125-.0625.10937 0 .17187.07813.03125.04687.04687.10937 0 0 0 .01563 0 .0625-.0625.14063-.03124.03124-.09374.07812l-.04688.0625h-.01562l-.10938.109375h.1875q.07812 0 .09375 0 0-.015625.01563-.093755z" transform="matrix(18.9 0 0 18.9 185.25 212.37)"/><path d="m .26562-.65625v.76563q.0625-.07813.14063-.10938 0 0 .01563 0 0 0 0 .015625 0 .015625 0 .015625-.10938.046875-.15626.125 0 .01563 0 .01563 0 .01562 0 .01562 0 0 0 0 0 0-.01562 0 0 0-.01562 0-.04688-.09375-.125-.140625l-.031255-.015625q0 0 0-.015625 0-.015625 0-.015625.015625 0 .062495.03125.04688.03125.09376.07813v-.76563q0-.03125.01562-.03125.01562 0 .01562.03125z" transform="matrix(27 0 0 27 239 149.75)"/><path d="m .42188-.32812l-.14063.312495q0 .03125-.01563.03125-.01562 0-.01562-.015625 0 0 0-.015625l-.15625-.343755q0-.03124-.015625-.03124l0 0q-.015625-.01563-.0625-.01563v-.03125q.046875.01562.093755.01562.03124 0 .10937-.01562v.03125q-.04687 0-.04687.03125 0 0 0 .01562l.10937.281255.10937-.249995q0-.01563 0-.03126 0-.03124-.03124-.04687 0 0-.01563 0v-.03125q.04687.01562.09375.01562.03125 0 .07812-.01562v.03125q-.07812 0-.09374.0625l0 0q0 0 0 .01563z" transform="matrix(27 0 0 27 221 178.25)"/><path d="m .39062-.23438l0 0h-.28124q0 .10938.03124.156255.04688.0625.10938.0625.07812 0 .10938-.046875.01562-.03125.03124-.04688 0-.01562.01563-.01562.01563 0 .01563 0 0 .03125-.03126.0625-.04687.0625-.10937.078125-.01563 0-.03125 0-.09375 0-.15625-.078125-.0625-.0625-.0625-.15625 0-.10937.0625-.17187.0625-.0625.14063-.0625.10937 0 .15624.09374.03126.04688.03126.10938 0 .01562-.01563.01562 0 0-.01563 0zm-.28124-.01562l0 0h .23437q0-.09375-.03125-.14062-.03125-.03126-.07812-.03126-.04688 0-.07813.04688-.04687.04688-.04687.125z" transform="matrix(27 0 0 27 234.5 178.25)"/><path d="m .17188-.078125q0 .03125.01562.03125l0 0v .015625q.01562 0 .0625 0h .01562v.03125q-.03124 0-.125 0 0 0-.10937 0v-.03125q.0625 0 .0625-.015625l0 0q .01563 0 .01563-.03125v-.265625q0-.04687-.01563-.04687-.015625-.01563-.046875-.01563h-.015625v-.03125h.14063v.10938q.01562-.09376.07812-.10938.01562 0 .04688 0 .04687 0 .0625.03125 0 .01563 0 .03125 0 .03125-.03126.03125 0 0 0 0-.03124 0-.04687-.01563 0-.01562 0-.01562 0-.03125.01563-.04688 0 0 0 0-.07813 0-.10938.07813-.01562.04687-.01562.10937z" transform="matrix(27 0 0 27 246.5 178.25)"/><path d="m .20312-.1875l0 0q-.07812-.03125-.10937-.04688-.015625 0-.015625 0-.046875-.04687-.046875-.09374 0-.0625.0625-.09376.04687-.03124.09375-.03124.0625 0 .09375.03124.01563 0 .01563-.01562.01562-.01562.03124-.01562 0 .01562 0 .03124v.09376q0 .03124 0 .03124l0 0 0 0 0 0q-.01562 0-.01562-.01562-.01562-.09375-.07812-.10938-.01563 0-.04688 0-.09375 0-.109375.04688 0 .01562 0 .01562 0 .0625.078125.07813.01563 0 .04687.01563.07813.01562.10938.03124 0 0 0 .01563.04688.03125.04688.09375 0 .078125-.0625.109375-.04688.03125-.09376.03125-.0625 0-.10937-.046875l-.03125.015625q-.015625.03125-.015625.03125-.015625-.015625-.015625-.03125v-.124995q0-.03126.015625-.03126l0 0 0 0 0 0q .015625 0 .015625.01563 0 0 0 0 .03125.125.09375.140625.01563 0 .04687 0 .07813 0 .10938-.0625 0-.015625 0-.031255 0-.0625-.10938-.07812z" transform="matrix(27 0 0 27 257.08 178.25)"/><path d="m .17188-.10938l.35937-.59374q0-.01563.01563-.01563.01562 0 .01562.01563.01562 0 .01562.01562l.0625.625q0 .015625 0 .03125l0 0 0 0 0 0 0 0 0 0q .01563 0 .0625 0 .01563 0 .01563.015625 0 .015625-.01563.015625h-.10937l0 0h-.125l0 0q-.01563 0-.01563-.015625 0-.015625.01563-.015625.07813 0 .07813-.03125 0 0-.01563-.17188h-.25l-.07813.125q-.01562.031255-.01562.04688 0 .03125.04688.03125.01562 0 .01562.015625 0 .015625-.01562.015625h-.09376l0 0h-.093745l0 0q-.015625 0-.015625-.015625 0-.015625.015625-.015625l0 0h .015625q.0625 0 .09375-.046875.01563-.015625.01563-.031255zm.125-.15624h.23437l-.03125-.32813z" transform="matrix(27 0 0 27 230 208.32)"/><path d="m .29688-.35938l0 0q .09374.03126.14062.10938.01562.03125.01562.07812 0 .07813-.0625.14063-.0625.046875-.14062.046875-.10938 0-.171875-.046875-.03125-.046875-.03125-.10937 0-.04688.03125-.04688.015625 0 .015625 0 .04687 0 .0625.03125 0 .01563 0 .01563 0 .04687-.03125.062495-.01562 0-.03125 0 .03125.0625.125.0625.01563.015625.01563.015625.07812 0 .09374-.0625.03126-.04688.03126-.10938 0-.125-.07813-.15624-.03125-.01563-.04687-.01563h-.04688q-.01562 0-.01562 0 0-.01563.01562-.01563.01562 0 .03125 0 .04687 0 .07813-.04687l0 0 0 0 0 0 0 0 .01562-.01563q.03125-.04687.03125-.10937 0-.09375-.07813-.10937-.01562 0-.03124 0-.0625 0-.10938.04687-.01562 0-.01562.01563.0625 0 .0625.04687 0 .03125-.03126.04687-.01562 0-.01562 0-.046875 0-.046875-.03124l0 0 0 0q-.015625 0-.015625-.01563 0-.0625.07812-.10937.04688-.03126.10938-.03126.09375 0 .14062.0625l0 0q .04688.03126.04688.07813 0 .09375-.07812.14063-.03126.03124-.0625.03124z" transform="matrix(18.9 0 0 18.9 250.25 212.37)"/></g></svg>