<svg xmlns="http://www.w3.org/2000/svg" width="454.98" height="446.51" viewBox="0 0 428 421" xmlns:xlink="http://www.w3.org/1999/xlink"><defs><path id="1L" d="m.266-.375l-.063.219q-.016.063-.016.109-.016.047-.031.047-.016.016-.031.016-.016 0-.016-.031 0-.016 0-.031.094-.203.125-.328h-.047q-.078 0-.125.078-.016.016-.031.016 0 0 0-.016 0-.016.031-.063 0 0 .016-.016 0 0 .016-.016.031-.047.094-.047h.344q.031 0 .031.016 0 .016 0 .016 0 .031-.047.031h-.109q-.016.094-.016.156 0 .094.031.172 0 .016 0 .016 0 .031-.031.031 0 .016-.016.016-.016 0-.031-.031 0-.016 0-.016 0-.047 0-.078 0-.078.016-.203l.016-.063h-.109"/><path id="1M" d="m.125-.328q.047-.094.125-.094.094 0 .156.078.031.031.047.094 0 .016 0 .047 0 .109-.078.172-.047.047-.125.047-.094 0-.156-.094-.047-.078-.047-.234 0-.172.094-.281.078-.078.172-.078.078 0 .109.063.016.031.016.047 0 .047-.047.047-.031 0-.047-.016 0-.016 0-.031 0-.031.047-.031-.016-.047-.078-.047-.078 0-.125.063-.063.078-.063.219v.031m.125.328q.063 0 .094-.078.016-.031.016-.125 0-.109-.016-.141-.031-.063-.094-.063-.078 0-.109.094 0 .047 0 .094 0 .094.016.141.016.047.063.063.016.016.031.016" fill="#390"/><path id="1N" d="m.031-.172v-.031l.297-.469q.016 0 .031 0 .016 0 .016 0v.016.453h.094v.031h-.094v.094q0 .031.016.031 0 .016.063.016h.016v.031q-.047 0-.141 0-.094 0-.125 0v-.031h.016q.063 0 .078-.016 0-.016 0-.031v-.094h-.266m.266-.031v-.359l-.234.359h.234" fill="#f00"/><path id="1O" d="m.297-.359q.094.031.141.109.016.031.016.078 0 .078-.063.141-.063.047-.141.047-.109 0-.172-.047-.031-.047-.031-.109 0-.047.031-.047.016 0 .016 0 .047 0 .063.031 0 .016 0 .016 0 .047-.031.062-.016 0-.031 0 .031.063.125.063.016.016.016.016.078 0 .094-.063.031-.047.031-.109 0-.125-.078-.156-.031-.016-.047-.016h-.047q-.016 0-.016 0 0-.016.016-.016.016 0 .031 0 .047 0 .078-.047l.016-.016q.031-.047.031-.109 0-.094-.078-.109-.016 0-.031 0-.063 0-.109.047-.016 0-.016.016.063 0 .063.047 0 .031-.031.047-.016 0-.016 0-.047 0-.047-.031-.016 0-.016-.016 0-.063.078-.109.047-.031.109-.031.094 0 .141.063.047.031.047.078 0 .094-.078.141-.031.031-.063.031"/><path id="1P" d="m.453-.172l-.031.172h-.375q0-.031.016-.031l.188-.219q.109-.125.109-.219 0-.094-.063-.141-.031-.031-.078-.031-.063 0-.109.063-.016.016-.016.047 0 0 .016 0 .031 0 .047.031 0 .016 0 .016 0 .047-.047.047 0 .016 0 .016-.047 0-.063-.031 0-.016 0-.031 0-.078.063-.125.047-.063.125-.063.109 0 .172.078.031.047.047.109 0 0 0 .016 0 .063-.063.141-.031.031-.094.078l-.047.063h-.016l-.109.109h.188q.078 0 .094 0 0-.016.016-.094h.031"/><path id="1Q" d="m.656-.234h-.547q-.031 0-.031-.016 0-.016.031-.016h.547q.031 0 .031.016 0 .016-.031.016"/><path id="1R" d="m.391.859l.422-.875q.016-.016.016-.031.016 0 .031.031 0 0-.016.016l-.453.938q0 .016-.016.016 0 0-.016 0 0 0-.016 0v-.016l-.188-.422-.063.031q0 .016-.016.016 0 0 0-.016 0 0 0-.016l.109-.078q0 0 .016 0 0 0 .016.016l.172.391"/><path id="1S" d="m.297-.641v.562q0 .031.016.031.016.016.078.016h.031v.031q-.031 0-.172 0-.125 0-.156 0v-.031h.031q.078 0 .094-.016 0-.016 0-.031v-.516q-.047.016-.125.016v-.031q.109 0 .172-.063.031 0 .031.016 0 0 0 .016"/><clipPath id="1K"><path d="m-12.709-24.403v28.13h28.667v-28.13z"/></clipPath><clipPath id="t"><path d="m-8.464-16.274v28.13h28.666v-28.13z"/></clipPath><clipPath id="r"><path d="m-7.4-15.588v28.13h28.667v-28.13z"/></clipPath><clipPath id="s"><path d="m-8.464-14.911v28.13h28.666v-28.13z"/></clipPath><clipPath id="u"><path d="m-4.867-15.717v28.13h28.667v-28.13z"/></clipPath><clipPath id="v"><path d="m-5.931-14.213v28.13h28.667v-28.13z"/></clipPath><clipPath id="y"><path d="m-2.4-15.784v28.13h28.667v-28.13z"/></clipPath><clipPath id="w"><path d="m-6.764-15.04v28.13h28.666v-28.13z"/></clipPath><clipPath id="x"><path d="m-6.376-16.403v28.13h28.667v-28.13z"/></clipPath><clipPath id="q"><path d="m-19.253-16.274v28.13h28.666v-28.13z"/></clipPath><clipPath id="p"><path d="m-19.253-14.911v28.13h28.666v-28.13z"/></clipPath><clipPath id="i"><path d="m-25.6-13.578v28.13h28.667v-28.13z"/></clipPath><clipPath id="g"><path d="m-25.26-19.497v28.13h28.666v-28.13z"/></clipPath><clipPath id="h"><path d="m-25.299-20.86v28.13h28.666v-28.13z"/></clipPath><clipPath id="j"><path d="m-22.787-14.347v28.13h28.667v-28.13z"/></clipPath><clipPath id="o"><path d="m-21.498-16.536v28.13h28.667v-28.13z"/></clipPath><clipPath id="k"><path d="m-23.62-15.174v28.13h28.667v-28.13z"/></clipPath><clipPath id="n"><path d="m-21.887-15.174v28.13h28.667v-28.13z"/></clipPath><clipPath id="l"><path d="m-23.23-16.536v28.13h28.667v-28.13z"/></clipPath><clipPath id="m"><path d="m-21.05-14.347v28.13h28.666v-28.13z"/></clipPath><clipPath id="z"><path d="m-3.464-14.28v28.13h28.666v-28.13z"/></clipPath><clipPath id="10"><path d="m-4.298-15.11v28.13h28.667v-28.13z"/></clipPath><clipPath id="1E"><path d="m-15.331-20.68v28.13h28.667v-28.13z"/></clipPath><clipPath id="1C"><path d="m-13.06-20.407v28.13h28.666v-28.13z"/></clipPath><clipPath id="1D"><path d="m-14.267-22.18v28.13h28.667v-28.13z"/></clipPath><clipPath id="1F"><path d="m-16.16-21.507v28.13h28.666v-28.13z"/></clipPath><clipPath id="1G"><path d="m-15.776-22.87v28.13h28.667v-28.13z"/></clipPath><clipPath id="1J"><path d="m-13.1-23.04v28.13h28.667v-28.13z"/></clipPath><clipPath id="1H"><path d="m-11.2-23.717v28.13h28.667v-28.13z"/></clipPath><clipPath id="1I"><path d="m-12.264-22.21v28.13h28.666v-28.13z"/></clipPath><clipPath id="1B"><path d="m-13.06-19.04v28.13h28.666v-28.13z"/></clipPath><clipPath id="1A"><path d="m-12-19.721v28.13h28.667v-28.13z"/></clipPath><clipPath id="13"><path d="m-13.02-3.841v28.13h28.667v-28.13z"/></clipPath><clipPath id="11"><path d="m-3.909-16.47v28.13h28.667v-28.13z"/></clipPath><clipPath id="12"><path d="m-12.187-3.01v28.13h28.667v-28.13z"/></clipPath><clipPath id="14"><path d="m-12.631-5.203v28.13h28.667v-28.13z"/></clipPath><clipPath id="19"><path d="m-13.05-9.207v28.13h28.666v-28.13z"/></clipPath><clipPath id="15"><path d="m-14.52-4.813v28.13h28.667v-28.13z"/></clipPath><clipPath id="18"><path d="m-13.05-7.844v28.13h28.666v-28.13z"/></clipPath><clipPath id="16"><path d="m-15.353-5.641v28.13h28.666v-28.13z"/></clipPath><clipPath id="17"><path d="m-14.964-7v28.13h28.666v-28.13z"/></clipPath><clipPath id="f"><path d="m-24.2-20.17v28.13h28.667v-28.13z"/></clipPath><clipPath id="e"><path d="m-23.1-24.13v28.13h28.666v-28.13z"/></clipPath><clipPath id="D"><path d="m-4.12-4.844v28.13h28.667v-28.13z"/></clipPath><clipPath id="B"><path d="m-7.553-2.444v28.13h28.666v-28.13z"/></clipPath><clipPath id="C"><path d="m-7.338-3.807v28.13h28.666v-28.13z"/></clipPath><clipPath id="E"><path d="m-4.62-4.844v28.13h28.667v-28.13z"/></clipPath><clipPath id="F"><path d="m-4.405-6.207v28.13h28.667v-28.13z"/></clipPath><clipPath id="I"><path d="m-2.672-9.607v28.13h28.667v-28.13z"/></clipPath><clipPath id="G"><path d="m-2.387-8.244v28.13h28.667v-28.13z"/></clipPath><clipPath id="H"><path d="m-2.887-8.244v28.13h28.667v-28.13z"/></clipPath><clipPath id="A"><path d="m-7.05-2.444v28.13h28.666v-28.13z"/></clipPath><clipPath id="9"><path d="m-14.622-2.393v28.13h28.667v-28.13z"/></clipPath><clipPath id="2"><path d="m0 0v28.13h28.667v-28.13z"/></clipPath><clipPath id="0"><path d="m0 0v422h430v-422z"/></clipPath><clipPath id="1"><path d="m-24.72-7.764v28.13h28.667v-28.13z"/></clipPath><clipPath id="3"><path d="m-24.755-9.126v28.13h28.667v-28.13z"/></clipPath><clipPath id="8"><path d="m-14.587-1.031v28.13h28.667v-28.13z"/></clipPath><clipPath id="4"><path d="m-22.72-5.297v28.13h28.667v-28.13z"/></clipPath><clipPath id="7"><path d="m-19.822-3.926v28.13h28.667v-28.13z"/></clipPath><clipPath id="5"><path d="m-22.755-6.66v28.13h28.667v-28.13z"/></clipPath><clipPath id="6"><path d="m-19.787-2.564v28.13h28.667v-28.13z"/></clipPath><clipPath id="J"><path d="m-1.467-13.431v28.13h28.667v-28.13z"/></clipPath><clipPath id="K"><path d="m-1.667-20.454v28.13h28.667v-28.13z"/></clipPath><clipPath id="Y"><path d="m-13.233-27.326v28.13h28.667v-28.13z"/></clipPath><clipPath id="W"><path d="m-12.133-26.64v28.13h28.666v-28.13z"/></clipPath><clipPath id="X"><path d="m-13.198-25.964v28.13h28.667v-28.13z"/></clipPath><clipPath id="Z"><path d="m-18.8-25.24v28.13h28.667v-28.13z"/></clipPath><clipPath id="a"><path d="m-19.864-24.564v28.13h28.666v-28.13z"/></clipPath><clipPath id="d"><path d="m-23.06-22.764v28.13h28.666v-28.13z"/></clipPath><clipPath id="b"><path d="m-19.899-25.926v28.13h28.666v-28.13z"/></clipPath><clipPath id="c"><path d="m-22-23.44v28.13h28.667v-28.13z"/></clipPath><clipPath id="V"><path d="m-7.55-26.21v28.13h28.666v-28.13z"/></clipPath><clipPath id="U"><path d="m-7.764-24.844v28.13h28.666v-28.13z"/></clipPath><clipPath id="N"><path d="m-3.02-21.14v28.13h28.667v-28.13z"/></clipPath><clipPath id="L"><path d="m-2.731-19.778v28.13h28.667v-28.13z"/></clipPath><clipPath id="M"><path d="m-3.231-19.778v28.13h28.667v-28.13z"/></clipPath><clipPath id="O"><path d="m-3.467-23.321v28.13h28.667v-28.13z"/></clipPath><clipPath id="T"><path d="m-7.264-24.844v28.13h28.666v-28.13z"/></clipPath><clipPath id="P"><path d="m-4.531-22.644v28.13h28.667v-28.13z"/></clipPath><clipPath id="S"><path d="m-6.2-25.521v28.13h28.667v-28.13z"/></clipPath><clipPath id="Q"><path d="m-5.03-22.644v28.13h28.667v-28.13z"/></clipPath><clipPath id="R"><path d="m-4.816-24.01v28.13h28.667v-28.13z"/></clipPath></defs><g stroke-miterlimit="10" stroke-linecap="square"><g clip-path="url(#0)"><path d="m210.8 2v420" stroke-linecap="butt" fill="none" stroke="#000"/></g><g clip-path="url(#0)"><path d="m210.8 1l-3 3" stroke-linecap="butt" fill="none" stroke="#000"/></g><g clip-path="url(#0)"><path d="m210.8 1l3 3" stroke-linecap="butt" fill="none" stroke="#000"/></g><g clip-path="url(#0)"><path d="m0 208.71h428" stroke-linecap="butt" fill="none" stroke="#000"/></g><g clip-path="url(#0)"><path d="m429 208.71l-3-3" stroke-linecap="butt" fill="none" stroke="#000"/></g><g clip-path="url(#0)"><path d="m429 208.71l-3 3" stroke-linecap="butt" fill="none" stroke="#000"/></g><g><g clip-path="url(#0)"><path d="m378.24 208.71c0 92.48-74.97 167.44-167.44 167.44-92.48 0-167.44-74.96-167.44-167.44 0-92.47 74.961-167.44 167.44-167.44 92.47 0 167.44 74.965 167.44 167.44z" stroke-linejoin="round" stroke-linecap="round" fill="none" stroke="#000"/></g><g clip-path="url(#0)"><path d="m92.4 327.11l236.8-236.79" stroke-linejoin="round" stroke-linecap="round" fill="none" stroke="#f00"/></g><g clip-path="url(#0)"><path d="m92.4 90.32l236.8 236.79" stroke-linejoin="round" stroke-linecap="round" fill="none" stroke="#f00"/></g><g clip-path="url(#0)"><path d="m294.52 63.707l-167.44 290.01" stroke-linejoin="round" stroke-linecap="round" fill="none" stroke="#09f"/></g><g clip-path="url(#0)"><path d="m127.08 63.707l167.44 290.01" stroke-linejoin="round" stroke-linecap="round" fill="none" stroke="#09f"/></g><g clip-path="url(#0)"><path d="m65.792 292.43l290.02-167.44" stroke-linejoin="round" stroke-linecap="round" fill="none" stroke="#390"/></g><g clip-path="url(#0)"><path d="m65.792 124.99l290.02 167.44" stroke-linejoin="round" stroke-linecap="round" fill="none" stroke="#390"/></g><g clip-path="url(#0)"><path d="m210.8 208.71l145.01 83.72" stroke-linejoin="round" stroke-linecap="round" fill="none" stroke="#390" id="1T"/></g><g clip-path="url(#0)"><use xlink:href="#1T"/></g><g clip-path="url(#0)"><path d="m127.08 63.707h167.44" stroke-linejoin="round" stroke-dasharray="1 3" stroke-linecap="butt" fill="none" stroke="#09f"/></g><g clip-path="url(#0)"><path d="m294.52 63.707v290.01" stroke-linejoin="round" stroke-dasharray="1 3" stroke-linecap="butt" fill="none" stroke="#09f"/></g><g clip-path="url(#0)"><path d="m294.52 353.72h-167.44" stroke-linejoin="round" stroke-dasharray="1 3" stroke-linecap="butt" fill="none" stroke="#09f"/></g><g clip-path="url(#0)"><path d="m127.08 353.72v-290.01" stroke-linejoin="round" stroke-dasharray="1 3" stroke-linecap="butt" fill="none" stroke="#09f"/></g><g clip-path="url(#0)"><path d="m92.4 90.32h236.8" stroke-linejoin="round" stroke-dasharray="1 3" stroke-linecap="butt" fill="none" stroke="#f00"/></g><g clip-path="url(#0)"><path d="m329.2 90.32v236.79" stroke-linejoin="round" stroke-dasharray="1 3" stroke-linecap="butt" fill="none" stroke="#f00"/></g><g clip-path="url(#0)"><path d="m329.2 327.11h-236.8" stroke-linejoin="round" stroke-dasharray="1 3" stroke-linecap="butt" fill="none" stroke="#f00"/></g><g clip-path="url(#0)"><path d="m92.4 327.11v-236.79" stroke-linejoin="round" stroke-dasharray="1 3" stroke-linecap="butt" fill="none" stroke="#f00"/></g><g clip-path="url(#0)"><path d="m65.792 124.99h290.02" stroke-linejoin="round" stroke-dasharray="1 3" stroke-linecap="butt" fill="none" stroke="#390"/></g><g clip-path="url(#0)"><path d="m355.81 124.99v167.44" stroke-linejoin="round" stroke-dasharray="1 3" stroke-linecap="butt" fill="none" stroke="#390"/></g><g clip-path="url(#0)"><path d="m355.81 292.43h-290.02" stroke-linejoin="round" stroke-dasharray="1 3" stroke-linecap="butt" fill="none" stroke="#390"/></g><g clip-path="url(#0)"><path d="m65.792 292.43v-167.44" stroke-linejoin="round" stroke-dasharray="1 3" stroke-linecap="butt" fill="none" stroke="#390"/></g><g clip-path="url(#0)"><path d="m211.8 208.71c0 .56-.45 1-1 1-.55 0-1-.44-1-1 0-.55.45-1 1-1 .55 0 1 .45 1 1" fill="#444"/></g><g clip-path="url(#0)"><path d="m211.8 208.71c0 .56-.45 1-1 1-.55 0-1-.44-1-1 0-.55.45-1 1-1 .55 0 1 .45 1 1z" stroke-linejoin="round" stroke-linecap="round" fill="none" stroke="#000"/></g><g clip-path="url(#0)"><path d="m187.58 212.81q0-2.14 1.15-3.35 1.15-1.21 2.96-1.21 1.2 0 2.15.57.96.57 1.46 1.59.5 1.01.5 2.31 0 1.3-.53 2.33-.54 1.03-1.5 1.56-.96.53-2.08.53-1.22 0-2.17-.59-.96-.58-1.45-1.59-.49-1.01-.49-2.15m1.17.02q0 1.56.84 2.45.83.89 2.1.89 1.28 0 2.11-.9.82-.89.82-2.57 0-1.04-.35-1.82-.35-.79-1.04-1.22-.68-.43-1.53-.43-1.2 0-2.08.83-.87.83-.87 2.77" fill="#444"/></g><g clip-path="url(#1)" transform="matrix(15 0 0 15 370.8 116.46)"><use fill="#390" xlink:href="#1L"/></g><g clip-path="url(#2)" transform="scale(15)"><path d="m24.72 8.17h.57v.04h-.57v-.04" fill="#390"/></g><g clip-path="url(#3)" transform="matrix(15 0 0 15 371.33 136.9)"><use xlink:href="#1M"/></g><g clip-path="url(#4)" transform="matrix(15 0 0 15 340.8 79.46)"><use fill="#f00" xlink:href="#1L"/></g><g clip-path="url(#2)" transform="scale(15)"><path d="m22.72 5.704h.57v.04h-.57v-.04" fill="#f00"/></g><g clip-path="url(#5)" transform="matrix(15 0 0 15 341.33 99.89)"><use xlink:href="#1N"/></g><g clip-path="url(#6)" transform="matrix(15 0 0 15 296.8 38.458)"><use fill="#09f" xlink:href="#1L"/></g><g clip-path="url(#2)" transform="scale(15)"><path d="m19.787 2.97h.57v.04h-.57v-.04" fill="#09f"/></g><g clip-path="url(#7)" transform="matrix(15 0 0 15 297.33 58.895)"><use fill="#09f" xlink:href="#1O"/></g><g clip-path="url(#8)" transform="matrix(15 0 0 15 218.8 15.458)"><use xlink:href="#1L"/></g><g clip-path="url(#2)" transform="scale(15)"><path d="m14.587 1.437h.57v.04h-.57v-.04"/></g><g clip-path="url(#9)" transform="matrix(15 0 0 15 219.33 35.895)"><use xlink:href="#1P"/></g><g clip-path="url(#A)" transform="matrix(15 0 0 15 105.8 36.667)"><use fill="#09f" xlink:href="#1P"/></g><g clip-path="url(#B)" transform="matrix(15 0 0 15 113.3 36.667)"><use fill="#09f" xlink:href="#1L"/></g><g clip-path="url(#2)" transform="scale(15)"><path d="m7.05 2.851h1.07v.04h-1.07v-.04" fill="#09f"/></g><g clip-path="url(#C)" transform="matrix(15 0 0 15 110.08 57.1)"><use fill="#09f" xlink:href="#1O"/></g><g clip-path="url(#D)" transform="matrix(15 0 0 15 61.8 72.67)"><use fill="#f00" xlink:href="#1O"/></g><g clip-path="url(#E)" transform="matrix(15 0 0 15 69.3 72.67)"><use fill="#f00" xlink:href="#1L"/></g><g clip-path="url(#2)" transform="scale(15)"><path d="m4.12 5.251h1.07v.04h-1.07v-.04" fill="#f00"/></g><g clip-path="url(#F)" transform="matrix(15 0 0 15 66.08 93.1)"><use xlink:href="#1N"/></g><g clip-path="url(#G)" transform="matrix(15 0 0 15 35.8 123.67)"><path d="m.453-.203q0 .109-.078.172-.063.047-.141.047-.094 0-.156-.078-.031-.047-.031-.094 0-.047.047-.063.047 0 .047.031.016.016.016.016 0 .031-.031.047-.016.016-.031.016 0 0-.016-.016.016.063.078.094.031.031.078.031.062 0 .109-.078.016-.031.016-.125 0-.094-.016-.125-.031-.063-.094-.063-.078 0-.125.063 0 .016-.016.016 0 0-.016-.016v-.016-.297q0-.016.016-.031 0 0 .016.016.063.016.125.016.078 0 .141-.016 0-.016.016-.016 0 0 0 .016 0 .016-.031.047-.063.063-.156.063-.047 0-.094-.016v.188q.063-.047.141-.047.078 0 .141.078.047.063.047.141" fill="#390" id="1U"/></g><g clip-path="url(#H)" transform="matrix(15 0 0 15 43.3 123.67)"><use fill="#390" xlink:href="#1L"/></g><g clip-path="url(#2)" transform="scale(15)"><path d="m2.387 8.651h1.07v.04h-1.07v-.04" fill="#390"/></g><g clip-path="url(#I)" transform="matrix(15 0 0 15 40.08 144.1)"><use xlink:href="#1M"/></g><g clip-path="url(#J)" transform="matrix(15 0 0 15 22 201.46)"><use xlink:href="#1L"/></g><g clip-path="url(#K)" transform="matrix(15 0 0 15 25 306.81)"><use fill="#390" xlink:href="#1Q"/></g><g clip-path="url(#L)" transform="matrix(15 0 0 15 40.967 296.67)"><use xlink:href="#1U"/></g><g clip-path="url(#M)" transform="matrix(15 0 0 15 48.47 296.67)"><use fill="#390" xlink:href="#1L"/></g><g clip-path="url(#2)" transform="scale(15)"><path d="m2.731 20.18h1.07v.04h-1.07v-.04" fill="#390"/></g><g clip-path="url(#N)" transform="matrix(15 0 0 15 45.24 317.1)"><use xlink:href="#1M"/></g><g clip-path="url(#O)" transform="matrix(15 0 0 15 52 349.81)"><use fill="#f00" xlink:href="#1Q"/></g><g clip-path="url(#P)" transform="matrix(15 0 0 15 67.967 339.67)"><use fill="#f00" xlink:href="#1O"/></g><g clip-path="url(#Q)" transform="matrix(15 0 0 15 75.47 339.67)"><use fill="#f00" xlink:href="#1L"/></g><g clip-path="url(#2)" transform="scale(15)"><path d="m4.531 23.05h1.07v.04h-1.07v-.04" fill="#f00"/></g><g clip-path="url(#R)" transform="matrix(15 0 0 15 72.24 360.1)"><use xlink:href="#1N"/></g><g clip-path="url(#S)" transform="matrix(15 0 0 15 93 382.81)"><use fill="#09f" xlink:href="#1Q"/></g><g clip-path="url(#T)" transform="matrix(15 0 0 15 108.97 372.67)"><use fill="#09f" xlink:href="#1P"/></g><g clip-path="url(#U)" transform="matrix(15 0 0 15 116.47 372.67)"><use fill="#09f" xlink:href="#1L"/></g><g clip-path="url(#2)" transform="scale(15)"><path d="m7.264 25.25h1.07v.04h-1.07v-.04" fill="#09f"/></g><g clip-path="url(#V)" transform="matrix(15 0 0 15 113.24 393.1)"><use fill="#09f" xlink:href="#1O"/></g><g clip-path="url(#W)" transform="matrix(15 0 0 15 182 399.61)"><use xlink:href="#1Q"/></g><g clip-path="url(#X)" transform="matrix(15 0 0 15 197.97 389.46)"><use xlink:href="#1L"/></g><g clip-path="url(#2)" transform="scale(15)"><path d="m13.198 26.37h.57v.04h-.57v-.04"/></g><g clip-path="url(#Y)" transform="matrix(15 0 0 15 198.49 409.9)"><use xlink:href="#1P"/></g><g clip-path="url(#Z)" transform="matrix(15 0 0 15 282 378.61)"><use fill="#09f" xlink:href="#1Q"/></g><g clip-path="url(#a)" transform="matrix(15 0 0 15 297.97 368.46)"><use fill="#09f" xlink:href="#1L"/></g><g clip-path="url(#2)" transform="scale(15)"><path d="m19.864 24.97h.57v.04h-.57v-.04" fill="#09f"/></g><g clip-path="url(#b)" transform="matrix(15 0 0 15 298.49 388.9)"><use fill="#09f" xlink:href="#1O"/></g><g clip-path="url(#c)" transform="matrix(15 0 0 15 330 351.61)"><use fill="#f00" xlink:href="#1Q"/></g><g clip-path="url(#d)" transform="matrix(15 0 0 15 345.97 341.46)"><use fill="#f00" xlink:href="#1L"/></g><g clip-path="url(#2)" transform="scale(15)"><path d="m23.06 23.17h.57v.04h-.57v-.04" fill="#f00"/></g><g clip-path="url(#e)" transform="matrix(15 0 0 15 346.49 361.9)"><use xlink:href="#1N"/></g><g clip-path="url(#f)" transform="matrix(15 0 0 15 363 302.61)"><use fill="#390" xlink:href="#1Q"/></g><g clip-path="url(#g)" transform="matrix(15 0 0 15 378.97 292.46)"><use fill="#390" xlink:href="#1L"/></g><g clip-path="url(#2)" transform="scale(15)"><path d="m25.26 19.904h.57v.04h-.57v-.04" fill="#390"/></g><g clip-path="url(#h)" transform="matrix(15 0 0 15 379.49 312.9)"><use xlink:href="#1M"/></g><g clip-path="url(#i)" transform="matrix(15 0 0 15 384 203.67)"><path d="m.453-.313q0 .141-.031.219-.063.109-.172.109-.094 0-.141-.063-.016-.016-.031-.031-.047-.078-.047-.234 0-.156.047-.234.047-.109.156-.125h.016q.094 0 .141.078.016.016.031.047.031.078.031.234m-.203.313q.063 0 .094-.063.016-.031.016-.063.016-.063.016-.203 0-.141-.016-.203-.016-.094-.078-.109-.016 0-.031 0-.078 0-.109.063 0 .031-.016.063 0 .047 0 .187 0 .141.016.203.016.094.078.125.016 0 .031 0"/></g><g clip-path="url(#j)" transform="matrix(15 0 0 15 341.8 215.2)"><use fill="#390" xlink:href="#1R"/></g><g clip-path="url(#2)" transform="scale(15)"><path d="m23.62 14.307h.556v.04h-.556v-.04" fill="#390"/></g><g clip-path="url(#k)" transform="matrix(15 0 0 15 354.3 227.61)"><use fill="#390" xlink:href="#1O"/></g><g clip-path="url(#2)" transform="scale(15)"><path d="m22.787 15.58h1.389v.04h-1.389v-.04" fill="#390"/></g><g clip-path="url(#l)" transform="matrix(15 0 0 15 348.47 248.05)"><use fill="#390" xlink:href="#1P"/></g><g clip-path="url(#m)" transform="matrix(15 0 0 15 315.8 215.2)"><use fill="#f00" xlink:href="#1R"/></g><g clip-path="url(#2)" transform="scale(15)"><path d="m21.887 14.307h.555v.04h-.555v-.04" fill="#f00"/></g><g clip-path="url(#n)" transform="matrix(15 0 0 15 328.3 227.61)"><use fill="#f00" xlink:href="#1P"/></g><g clip-path="url(#2)" transform="scale(15)"><path d="m21.05 15.58h1.389v.04h-1.389v-.04" fill="#f00"/></g><g clip-path="url(#o)" transform="matrix(15 0 0 15 322.47 248.05)"><use fill="#f00" xlink:href="#1P"/></g><g clip-path="url(#p)" transform="matrix(15 0 0 15 288.8 223.67)"><use fill="#09f" xlink:href="#1S"/></g><g clip-path="url(#2)" transform="scale(15)"><path d="m19.253 15.318h.5v.04h-.5v-.04" fill="#09f"/></g><g clip-path="url(#q)" transform="matrix(15 0 0 15 288.8 244.1)"><use fill="#09f" xlink:href="#1P"/></g><g clip-path="url(#r)" transform="matrix(15 0 0 15 111 233.81)"><use fill="#09f" xlink:href="#1Q"/></g><g clip-path="url(#s)" transform="matrix(15 0 0 15 126.97 223.67)"><use fill="#09f" xlink:href="#1S"/></g><g clip-path="url(#2)" transform="scale(15)"><path d="m8.464 15.318h.5v.04h-.5v-.04" fill="#09f"/></g><g clip-path="url(#t)" transform="matrix(15 0 0 15 126.97 244.1)"><use fill="#09f" xlink:href="#1P"/></g><g clip-path="url(#u)" transform="matrix(15 0 0 15 73 235.76)"><use fill="#f00" xlink:href="#1Q"/></g><g clip-path="url(#v)" transform="matrix(15 0 0 15 88.97 213.2)"><use fill="#f00" xlink:href="#1R"/></g><g clip-path="url(#2)" transform="scale(15)"><path d="m6.764 14.173h.556v.04h-.556v-.04" fill="#f00"/></g><g clip-path="url(#w)" transform="matrix(15 0 0 15 101.47 225.61)"><use fill="#f00" xlink:href="#1P"/></g><g clip-path="url(#2)" transform="scale(15)"><path d="m5.931 15.447h1.389v.04h-1.389v-.04" fill="#f00"/></g><g clip-path="url(#x)" transform="matrix(15 0 0 15 95.63 246.05)"><use fill="#f00" xlink:href="#1P"/></g><g clip-path="url(#y)" transform="matrix(15 0 0 15 36 236.76)"><use fill="#390" xlink:href="#1Q"/></g><g clip-path="url(#z)" transform="matrix(15 0 0 15 51.967 214.2)"><use fill="#390" xlink:href="#1R"/></g><g clip-path="url(#2)" transform="scale(15)"><path d="m4.298 14.24h.556v.04h-.556v-.04" fill="#390"/></g><g clip-path="url(#10)" transform="matrix(15 0 0 15 64.47 226.61)"><use fill="#390" xlink:href="#1O"/></g><g clip-path="url(#2)" transform="scale(15)"><path d="m3.464 15.514h1.389v.04h-1.389v-.04" fill="#390"/></g><g clip-path="url(#11)" transform="matrix(15 0 0 15 58.63 247.05)"><use fill="#390" xlink:href="#1P"/></g><g clip-path="url(#12)" transform="matrix(15 0 0 15 182.8 45.2)"><use fill="#09f" xlink:href="#1R"/></g><g clip-path="url(#2)" transform="scale(15)"><path d="m13.02 2.973h.556v.04h-.556v-.04" fill="#09f"/></g><g clip-path="url(#13)" transform="matrix(15 0 0 15 195.3 57.61)"><use fill="#09f" xlink:href="#1O"/></g><g clip-path="url(#2)" transform="scale(15)"><path d="m12.187 4.247h1.389v.04h-1.389v-.04" fill="#09f"/></g><g clip-path="url(#14)" transform="matrix(15 0 0 15 189.47 78.05)"><use fill="#09f" xlink:href="#1P"/></g><g clip-path="url(#15)" transform="matrix(15 0 0 15 217.8 72.2)"><use fill="#f00" xlink:href="#1R"/></g><g clip-path="url(#2)" transform="scale(15)"><path d="m15.353 4.773h.556v.04h-.556v-.04" fill="#f00"/></g><g clip-path="url(#16)" transform="matrix(15 0 0 15 230.3 84.61)"><use fill="#f00" xlink:href="#1P"/></g><g clip-path="url(#2)" transform="scale(15)"><path d="m14.52 6.05h1.389v.04h-1.389v-.04" fill="#f00"/></g><g clip-path="url(#17)" transform="matrix(15 0 0 15 224.47 105.05)"><use fill="#f00" xlink:href="#1P"/></g><g clip-path="url(#18)" transform="matrix(15 0 0 15 195.8 117.67)"><use fill="#390" xlink:href="#1S"/></g><g clip-path="url(#2)" transform="scale(15)"><path d="m13.05 8.251h.5v.04h-.5v-.04" fill="#390"/></g><g clip-path="url(#19)" transform="matrix(15 0 0 15 195.8 138.1)"><use fill="#390" xlink:href="#1P"/></g><g clip-path="url(#1A)" transform="matrix(15 0 0 15 180 295.81)"><use fill="#390" xlink:href="#1Q"/></g><g clip-path="url(#1B)" transform="matrix(15 0 0 15 195.97 285.67)"><use fill="#390" xlink:href="#1S"/></g><g clip-path="url(#2)" transform="scale(15)"><path d="m13.06 19.451h.5v.04h-.5v-.04" fill="#390"/></g><g clip-path="url(#1C)" transform="matrix(15 0 0 15 195.97 306.1)"><use fill="#390" xlink:href="#1P"/></g><g clip-path="url(#1D)" transform="matrix(15 0 0 15 214 332.76)"><use fill="#f00" xlink:href="#1Q"/></g><g clip-path="url(#1E)" transform="matrix(15 0 0 15 229.97 310.2)"><use fill="#f00" xlink:href="#1R"/></g><g clip-path="url(#2)" transform="scale(15)"><path d="m16.16 20.64h.556v.04h-.556v-.04" fill="#f00"/></g><g clip-path="url(#1F)" transform="matrix(15 0 0 15 242.47 322.61)"><use fill="#f00" xlink:href="#1P"/></g><g clip-path="url(#2)" transform="scale(15)"><path d="m15.331 21.914h1.389v.04h-1.389v-.04" fill="#f00"/></g><g clip-path="url(#1G)" transform="matrix(15 0 0 15 236.63 343.05)"><use fill="#f00" xlink:href="#1P"/></g><g clip-path="url(#1H)" transform="matrix(15 0 0 15 168 355.76)"><use fill="#09f" xlink:href="#1Q"/></g><g clip-path="url(#1I)" transform="matrix(15 0 0 15 183.97 333.2)"><use fill="#09f" xlink:href="#1R"/></g><g clip-path="url(#2)" transform="scale(15)"><path d="m13.1 22.17h.555v.04h-.555v-.04" fill="#09f"/></g><g clip-path="url(#1J)" transform="matrix(15 0 0 15 196.47 345.61)"><use fill="#09f" xlink:href="#1O"/></g><g clip-path="url(#2)" transform="scale(15)"><path d="m12.264 23.447h1.389v.04h-1.389v-.04" fill="#09f"/></g><g clip-path="url(#1K)" transform="matrix(15 0 0 15 190.63 366.05)"><use fill="#09f" xlink:href="#1P"/></g></g></g></svg>