<svg xmlns="http://www.w3.org/2000/svg" width="325.19" height="361.52" viewBox="0 0 366 407" xmlns:xlink="http://www.w3.org/1999/xlink"><defs><clipPath id="0"><path d="m0 0v408h367v-408z"/></clipPath></defs><g stroke-miterlimit="10" stroke-linecap="square"><g clip-path="url(#0)"><path d="m52.749 2v406" stroke-linecap="butt" fill="none" stroke="#000"/></g><g clip-path="url(#0)"><path d="m52.749 1l-3 3" stroke-linecap="butt" fill="none" stroke="#000"/></g><g clip-path="url(#0)"><path d="m52.749 1l3 3" stroke-linecap="butt" fill="none" stroke="#000"/></g><g clip-path="url(#0)"><path d="m0 382.96h365" stroke-linecap="butt" fill="none" stroke="#000"/></g><g clip-path="url(#0)"><path d="m366 382.96l-3-3" stroke-linecap="butt" fill="none" stroke="#000"/></g><g clip-path="url(#0)"><path d="m366 382.96l-3 3" stroke-linecap="butt" fill="none" stroke="#000"/></g><g clip-path="url(#0)"><text font-style="italic" font-family="serif" font-size="10" x="0" y="0" transform="translate(8 396)">–1</text></g><g clip-path="url(#0)"><path d="m12.76 382.96v3" stroke-linecap="butt" fill="none" stroke="#000"/></g><g clip-path="url(#0)"><text font-style="italic" font-family="serif" font-size="10" x="0" y="0" transform="translate(58 396)">0</text></g><g clip-path="url(#0)"><text font-style="italic" font-family="serif" font-size="10" x="0" y="0" transform="translate(91 396)">1</text></g><g clip-path="url(#0)"><path d="m92.74 382.96v3" stroke-linecap="butt" fill="none" stroke="#000"/></g><g clip-path="url(#0)"><text font-style="italic" font-family="serif" font-size="10" x="0" y="0" transform="translate(131 396)">2</text></g><g clip-path="url(#0)"><path d="m132.73 382.96v3" stroke-linecap="butt" fill="none" stroke="#000"/></g><g clip-path="url(#0)"><text font-style="italic" font-family="serif" font-size="10" x="0" y="0" transform="translate(171 396)">3</text></g><g clip-path="url(#0)"><path d="m172.72 382.96v3" stroke-linecap="butt" fill="none" stroke="#000"/></g><g clip-path="url(#0)"><text font-style="italic" font-family="serif" font-size="10" x="0" y="0" transform="translate(211 396)">4</text></g><g clip-path="url(#0)"><path d="m212.7 382.96v3" stroke-linecap="butt" fill="none" stroke="#000"/></g><g clip-path="url(#0)"><text font-style="italic" font-family="serif" font-size="10" x="0" y="0" transform="translate(251 396)">5</text></g><g clip-path="url(#0)"><path d="m252.69 382.96v3" stroke-linecap="butt" fill="none" stroke="#000"/></g><g clip-path="url(#0)"><text font-style="italic" font-family="serif" font-size="10" x="0" y="0" transform="translate(291 396)">6</text></g><g clip-path="url(#0)"><path d="m292.68 382.96v3" stroke-linecap="butt" fill="none" stroke="#000"/></g><g clip-path="url(#0)"><text font-style="italic" font-family="serif" font-size="10" x="0" y="0" transform="translate(331 396)">7</text></g><g clip-path="url(#0)"><path d="m332.67 382.96v3" stroke-linecap="butt" fill="none" stroke="#000"/></g><g clip-path="url(#0)"><path d="m49.749 402.95h3" stroke-linecap="butt" fill="none" stroke="#000"/></g><g clip-path="url(#0)"><text font-style="italic" font-family="serif" font-size="10" x="0" y="0" transform="translate(41 380)">0</text></g><g clip-path="url(#0)"><text font-style="italic" font-family="serif" font-size="10" x="0" y="0" transform="translate(41 366)">1</text></g><g clip-path="url(#0)"><path d="m49.749 362.96h3" stroke-linecap="butt" fill="none" stroke="#000"/></g><g clip-path="url(#0)"><text font-style="italic" font-family="serif" font-size="10" x="0" y="0" transform="translate(41 346)">2</text></g><g clip-path="url(#0)"><path d="m49.749 342.97h3" stroke-linecap="butt" fill="none" stroke="#000"/></g><g clip-path="url(#0)"><text font-style="italic" font-family="serif" font-size="10" x="0" y="0" transform="translate(41 326)">3</text></g><g clip-path="url(#0)"><path d="m49.749 322.97h3" stroke-linecap="butt" fill="none" stroke="#000"/></g><g clip-path="url(#0)"><text font-style="italic" font-family="serif" font-size="10" x="0" y="0" transform="translate(41 306)">4</text></g><g clip-path="url(#0)"><path d="m49.749 302.98h3" stroke-linecap="butt" fill="none" stroke="#000"/></g><g clip-path="url(#0)"><text font-style="italic" font-family="serif" font-size="10" x="0" y="0" transform="translate(41 286)">5</text></g><g clip-path="url(#0)"><path d="m49.749 282.98h3" stroke-linecap="butt" fill="none" stroke="#000"/></g><g clip-path="url(#0)"><text font-style="italic" font-family="serif" font-size="10" x="0" y="0" transform="translate(41 266)">6</text></g><g clip-path="url(#0)"><path d="m49.749 262.99h3" stroke-linecap="butt" fill="none" stroke="#000"/></g><g clip-path="url(#0)"><text font-style="italic" font-family="serif" font-size="10" x="0" y="0" transform="translate(41 246)">7</text></g><g clip-path="url(#0)"><path d="m49.749 243h3" stroke-linecap="butt" fill="none" stroke="#000"/></g><g clip-path="url(#0)"><text font-style="italic" font-family="serif" font-size="10" x="0" y="0" transform="translate(41 227)">8</text></g><g clip-path="url(#0)"><path d="m49.749 223h3" stroke-linecap="butt" fill="none" stroke="#000"/></g><g clip-path="url(#0)"><text font-style="italic" font-family="serif" font-size="10" x="0" y="0" transform="translate(41 207)">9</text></g><g clip-path="url(#0)"><path d="m49.749 203.01h3" stroke-linecap="butt" fill="none" stroke="#000"/></g><g clip-path="url(#0)"><text font-style="italic" font-family="serif" font-size="10" x="0" y="0" transform="translate(35 187)">10</text></g><g clip-path="url(#0)"><path d="m49.749 183.01h3" stroke-linecap="butt" fill="none" stroke="#000"/></g><g clip-path="url(#0)"><text font-style="italic" font-family="serif" font-size="10" x="0" y="0" transform="translate(35 167)">11</text></g><g clip-path="url(#0)"><path d="m49.749 163.02h3" stroke-linecap="butt" fill="none" stroke="#000"/></g><g clip-path="url(#0)"><text font-style="italic" font-family="serif" font-size="10" x="0" y="0" transform="translate(35 147)">12</text></g><g clip-path="url(#0)"><path d="m49.749 143.02h3" stroke-linecap="butt" fill="none" stroke="#000"/></g><g clip-path="url(#0)"><text font-style="italic" font-family="serif" font-size="10" x="0" y="0" transform="translate(35 127)">13</text></g><g clip-path="url(#0)"><path d="m49.749 123.03h3" stroke-linecap="butt" fill="none" stroke="#000"/></g><g clip-path="url(#0)"><text font-style="italic" font-family="serif" font-size="10" x="0" y="0" transform="translate(35 107)">14</text></g><g clip-path="url(#0)"><path d="m49.749 103.03h3" stroke-linecap="butt" fill="none" stroke="#000"/></g><g clip-path="url(#0)"><text font-style="italic" font-family="serif" font-size="10" x="0" y="0" transform="translate(35 87)">15</text></g><g clip-path="url(#0)"><path d="m49.749 83.04h3" stroke-linecap="butt" fill="none" stroke="#000"/></g><g clip-path="url(#0)"><text font-style="italic" font-family="serif" font-size="10" x="0" y="0" transform="translate(35 67)">16</text></g><g clip-path="url(#0)"><path d="m49.749 63.05h3" stroke-linecap="butt" fill="none" stroke="#000"/></g><g clip-path="url(#0)"><text font-style="italic" font-family="serif" font-size="10" x="0" y="0" transform="translate(35 47)">17</text></g><g clip-path="url(#0)"><path d="m49.749 43.05h3" stroke-linecap="butt" fill="none" stroke="#000"/></g><g clip-path="url(#0)"><text font-style="italic" font-family="serif" font-size="10" x="0" y="0" transform="translate(35 27)">18</text></g><g clip-path="url(#0)"><path d="m49.749 23.06h3" stroke-linecap="butt" fill="none" stroke="#000"/></g><g clip-path="url(#0)"><path d="m12.76 0v382.96" stroke-linejoin="round" stroke-linecap="round" fill="none" stroke="#e0e0e0" id="1"/></g><g clip-path="url(#0)"><path d="m12.76 401.96v6.04" stroke-linejoin="round" stroke-linecap="round" fill="none" stroke="#e0e0e0" id="2"/></g><g clip-path="url(#0)"><use xlink:href="#1"/></g><g clip-path="url(#0)"><use xlink:href="#2"/></g><g clip-path="url(#0)"><path d="m92.74 0v382.96" stroke-linejoin="round" stroke-linecap="round" fill="none" stroke="#e0e0e0"/></g><g clip-path="url(#0)"><path d="m92.74 401.96v6.04" stroke-linejoin="round" stroke-linecap="round" fill="none" stroke="#e0e0e0"/></g><g clip-path="url(#0)"><path d="m132.73 0v382.96" stroke-linejoin="round" stroke-linecap="round" fill="none" stroke="#e0e0e0"/></g><g clip-path="url(#0)"><path d="m132.73 401.96v6.04" stroke-linejoin="round" stroke-linecap="round" fill="none" stroke="#e0e0e0"/></g><g clip-path="url(#0)"><path d="m172.72 0v382.96" stroke-linejoin="round" stroke-linecap="round" fill="none" stroke="#e0e0e0"/></g><g clip-path="url(#0)"><path d="m172.72 401.96v6.04" stroke-linejoin="round" stroke-linecap="round" fill="none" stroke="#e0e0e0"/></g><g clip-path="url(#0)"><path d="m212.7 0v382.96" stroke-linejoin="round" stroke-linecap="round" fill="none" stroke="#e0e0e0"/></g><g clip-path="url(#0)"><path d="m212.7 401.96v6.04" stroke-linejoin="round" stroke-linecap="round" fill="none" stroke="#e0e0e0"/></g><g clip-path="url(#0)"><path d="m252.69 0v382.96" stroke-linejoin="round" stroke-linecap="round" fill="none" stroke="#e0e0e0"/></g><g clip-path="url(#0)"><path d="m252.69 401.96v6.04" stroke-linejoin="round" stroke-linecap="round" fill="none" stroke="#e0e0e0"/></g><g clip-path="url(#0)"><path d="m292.68 0v382.96" stroke-linejoin="round" stroke-linecap="round" fill="none" stroke="#e0e0e0"/></g><g clip-path="url(#0)"><path d="m292.68 401.96v6.04" stroke-linejoin="round" stroke-linecap="round" fill="none" stroke="#e0e0e0"/></g><g clip-path="url(#0)"><path d="m332.67 0v382.96" stroke-linejoin="round" stroke-linecap="round" fill="none" stroke="#e0e0e0"/></g><g clip-path="url(#0)"><path d="m332.67 401.96v6.04" stroke-linejoin="round" stroke-linecap="round" fill="none" stroke="#e0e0e0"/></g><g clip-path="url(#0)"><path d="m0 3.062h367" stroke-linejoin="round" stroke-linecap="round" fill="none" stroke="#e0e0e0" id="3"/></g><g clip-path="url(#0)"><use xlink:href="#3"/></g><g clip-path="url(#0)"><path d="m0 23.06h31.626" stroke-linejoin="round" stroke-linecap="round" fill="none" stroke="#e0e0e0"/></g><g clip-path="url(#0)"><path d="m52.749 23.06h314.25" stroke-linejoin="round" stroke-linecap="round" fill="none" stroke="#e0e0e0"/></g><g clip-path="url(#0)"><path d="m0 43.05h31.626" stroke-linejoin="round" stroke-linecap="round" fill="none" stroke="#e0e0e0"/></g><g clip-path="url(#0)"><path d="m52.749 43.05h314.25" stroke-linejoin="round" stroke-linecap="round" fill="none" stroke="#e0e0e0"/></g><g clip-path="url(#0)"><path d="m0 63.05h31.626" stroke-linejoin="round" stroke-linecap="round" fill="none" stroke="#e0e0e0"/></g><g clip-path="url(#0)"><path d="m52.749 63.05h314.25" stroke-linejoin="round" stroke-linecap="round" fill="none" stroke="#e0e0e0"/></g><g clip-path="url(#0)"><path d="m0 83.04h31.626" stroke-linejoin="round" stroke-linecap="round" fill="none" stroke="#e0e0e0"/></g><g clip-path="url(#0)"><path d="m52.749 83.04h314.25" stroke-linejoin="round" stroke-linecap="round" fill="none" stroke="#e0e0e0"/></g><g clip-path="url(#0)"><path d="m0 103.03h31.626" stroke-linejoin="round" stroke-linecap="round" fill="none" stroke="#e0e0e0"/></g><g clip-path="url(#0)"><path d="m52.749 103.03h314.25" stroke-linejoin="round" stroke-linecap="round" fill="none" stroke="#e0e0e0"/></g><g clip-path="url(#0)"><path d="m0 123.03h31.626" stroke-linejoin="round" stroke-linecap="round" fill="none" stroke="#e0e0e0"/></g><g clip-path="url(#0)"><path d="m52.749 123.03h314.25" stroke-linejoin="round" stroke-linecap="round" fill="none" stroke="#e0e0e0"/></g><g clip-path="url(#0)"><path d="m0 143.02h31.626" stroke-linejoin="round" stroke-linecap="round" fill="none" stroke="#e0e0e0"/></g><g clip-path="url(#0)"><path d="m52.749 143.02h314.25" stroke-linejoin="round" stroke-linecap="round" fill="none" stroke="#e0e0e0"/></g><g clip-path="url(#0)"><path d="m0 163.02h31.626" stroke-linejoin="round" stroke-linecap="round" fill="none" stroke="#e0e0e0"/></g><g clip-path="url(#0)"><path d="m52.749 163.02h314.25" stroke-linejoin="round" stroke-linecap="round" fill="none" stroke="#e0e0e0"/></g><g clip-path="url(#0)"><path d="m0 183.01h31.626" stroke-linejoin="round" stroke-linecap="round" fill="none" stroke="#e0e0e0"/></g><g clip-path="url(#0)"><path d="m52.749 183.01h314.25" stroke-linejoin="round" stroke-linecap="round" fill="none" stroke="#e0e0e0"/></g><g clip-path="url(#0)"><path d="m0 203.01h31.626" stroke-linejoin="round" stroke-linecap="round" fill="none" stroke="#e0e0e0"/></g><g clip-path="url(#0)"><path d="m52.749 203.01h314.25" stroke-linejoin="round" stroke-linecap="round" fill="none" stroke="#e0e0e0"/></g><g clip-path="url(#0)"><path d="m0 223h31.626" stroke-linejoin="round" stroke-linecap="round" fill="none" stroke="#e0e0e0"/></g><g clip-path="url(#0)"><path d="m52.749 223h314.25" stroke-linejoin="round" stroke-linecap="round" fill="none" stroke="#e0e0e0"/></g><g clip-path="url(#0)"><path d="m0 243h31.626" stroke-linejoin="round" stroke-linecap="round" fill="none" stroke="#e0e0e0"/></g><g clip-path="url(#0)"><path d="m52.749 243h314.25" stroke-linejoin="round" stroke-linecap="round" fill="none" stroke="#e0e0e0"/></g><g clip-path="url(#0)"><path d="m0 262.99h31.626" stroke-linejoin="round" stroke-linecap="round" fill="none" stroke="#e0e0e0"/></g><g clip-path="url(#0)"><path d="m52.749 262.99h314.25" stroke-linejoin="round" stroke-linecap="round" fill="none" stroke="#e0e0e0"/></g><g clip-path="url(#0)"><path d="m0 282.98h31.626" stroke-linejoin="round" stroke-linecap="round" fill="none" stroke="#e0e0e0"/></g><g clip-path="url(#0)"><path d="m52.749 282.98h314.25" stroke-linejoin="round" stroke-linecap="round" fill="none" stroke="#e0e0e0"/></g><g clip-path="url(#0)"><path d="m0 302.98h31.626" stroke-linejoin="round" stroke-linecap="round" fill="none" stroke="#e0e0e0"/></g><g clip-path="url(#0)"><path d="m52.749 302.98h314.25" stroke-linejoin="round" stroke-linecap="round" fill="none" stroke="#e0e0e0"/></g><g clip-path="url(#0)"><path d="m0 322.97h31.626" stroke-linejoin="round" stroke-linecap="round" fill="none" stroke="#e0e0e0"/></g><g clip-path="url(#0)"><path d="m52.749 322.97h314.25" stroke-linejoin="round" stroke-linecap="round" fill="none" stroke="#e0e0e0"/></g><g clip-path="url(#0)"><path d="m0 342.97h31.626" stroke-linejoin="round" stroke-linecap="round" fill="none" stroke="#e0e0e0"/></g><g clip-path="url(#0)"><path d="m52.749 342.97h314.25" stroke-linejoin="round" stroke-linecap="round" fill="none" stroke="#e0e0e0"/></g><g clip-path="url(#0)"><path d="m0 362.96h31.626" stroke-linejoin="round" stroke-linecap="round" fill="none" stroke="#e0e0e0"/></g><g clip-path="url(#0)"><path d="m52.749 362.96h314.25" stroke-linejoin="round" stroke-linecap="round" fill="none" stroke="#e0e0e0"/></g><g clip-path="url(#0)"><path d="m0 402.95h367" stroke-linejoin="round" stroke-linecap="round" fill="none" stroke="#e0e0e0"/></g><g><g clip-path="url(#0)"><path d="m52.749 63.05l1.249 4.959 1.25 4.882 1.25 4.803 1.249 4.725 1.25 4.647 1.249 4.569 1.25 4.491 1.25 4.418 1.249 4.33 1.25 4.26 1.25 4.18 1.249 4.1 1.25 4.02 1.25 3.94 1.249 3.87 1.25 3.79 1.25 3.71 1.249 3.63 1.25 3.55 1.25 3.48 1.249 3.39 1.25 3.32 1.25 3.25 1.249 3.16 1.25 3.08 1.249 3.01 1.25 2.93 1.25 2.85 1.249 2.77 1.25 2.7 1.25 2.61 1.249 2.54 1.25 2.46 1.25 2.38 1.249 2.31 1.25 2.22 1.25 2.15 1.254 2.07 1.24 1.99 1.25 1.92 1.25 1.83 1.25 1.76 1.25 1.68 1.25 1.6 1.25 1.52 1.25 1.45 1.25 1.37 1.25 1.28 1.25 1.21 1.25 1.14 1.25 1.05 1.25.98 1.25.9 1.25.82 1.25.74 1.25.66 1.25.59 1.25.51 1.25.42 1.25.36 1.25.27 1.25.19 1.25.12 1.25.04 1.25-.04 1.25-.12 1.25-.19 1.24-.27 1.25-.36 1.25-.42 1.25-.51 1.25-.59 1.25-.66 1.25-.74 1.25-.82 1.25-.9 1.25-.98 1.25-1.05 1.25-1.14 1.25-1.21 1.25-1.28 1.25-1.37 1.25-1.45 1.25-1.52 1.25-1.6 1.25-1.68 1.25-1.76 1.25-1.83 1.25-1.92 1.25-1.99 1.25-2.07 1.25-2.15 1.25-2.22 1.25-2.31 1.25-2.38 1.25-2.46 1.24-2.54 1.25-2.61 1.25-2.7 1.25-2.77 1.25-2.85 1.25-2.93 1.25-3.01 1.25-3.08 1.25-3.16 1.25-3.25 1.25-3.32 1.25-3.39 1.25-3.48 1.25-3.55 1.25-3.63 1.25-3.71 1.25-3.79 1.25-3.87 1.25-3.94 1.25-4.02 1.25-4.1 1.25-4.18 1.25-4.26 1.25-4.33 1.25-4.418 1.25-4.491 1.25-4.569 1.25-4.647 1.24-4.725 1.25-4.803 1.25-4.882 1.25-4.959" stroke-linejoin="round" stroke-linecap="round" fill="none" stroke="#00f"/></g><g clip-path="url(#0)"><path d="m229 384h115v24h-115v-24" fill="#fff"/></g><g clip-path="url(#0)"><text font-style="italic" font-family="serif" font-size="12" x="0" y="0" transform="translate(232 399)">Longueur AM en cm</text></g><g clip-path="url(#0)"><path d="m2 10h123v24h-123v-24" fill="#fff"/></g><g clip-path="url(#0)"><text font-style="italic" font-family="serif" font-size="12" x="0" y="0" transform="translate(5 25)">Aire de MNPQ en cm²</text></g></g></g></svg>