<svg xmlns="http://www.w3.org/2000/svg" width="193.7" height="231.22" viewBox="0 0 282 337"><defs><clipPath id="0"><path d="m0 0v339h284v-339z"/></clipPath></defs><g stroke-miterlimit="10" stroke-linecap="square"><g clip-path="url(#0)"><path d="m37.541 2v337" stroke-linecap="butt" fill="none" stroke="#000"/></g><g clip-path="url(#0)"><path d="m37.541 1l-3 3" stroke-linecap="butt" fill="none" stroke="#000"/></g><g clip-path="url(#0)"><path d="m37.541 1l3 3" stroke-linecap="butt" fill="none" stroke="#000"/></g><g clip-path="url(#0)"><path d="m0 304.99h282" stroke-linecap="butt" fill="none" stroke="#000"/></g><g clip-path="url(#0)"><path d="m283 304.99l-3-3" stroke-linecap="butt" fill="none" stroke="#000"/></g><g clip-path="url(#0)"><path d="m283 304.99l-3 3" stroke-linecap="butt" fill="none" stroke="#000"/></g><g clip-path="url(#0)"><text font-style="italic" font-family="serif" font-size="10" x="0" y="0" transform="translate(43 318)">0</text></g><g clip-path="url(#0)"><path d="m37.541 304.99v3" stroke-linecap="butt" fill="none" stroke="#000"/></g><g clip-path="url(#0)"><text font-style="italic" font-family="serif" font-size="10" x="0" y="0" transform="translate(87 318)">1</text></g><g clip-path="url(#0)"><path d="m89.49 304.99v3" stroke-linecap="butt" fill="none" stroke="#000"/></g><g clip-path="url(#0)"><text font-style="italic" font-family="serif" font-size="10" x="0" y="0" transform="translate(139 318)">2</text></g><g clip-path="url(#0)"><path d="m141.44 304.99v3" stroke-linecap="butt" fill="none" stroke="#000"/></g><g clip-path="url(#0)"><text font-style="italic" font-family="serif" font-size="10" x="0" y="0" transform="translate(191 318)">3</text></g><g clip-path="url(#0)"><path d="m193.39 304.99v3" stroke-linecap="butt" fill="none" stroke="#000"/></g><g clip-path="url(#0)"><text font-style="italic" font-family="serif" font-size="10" x="0" y="0" transform="translate(243 318)">4</text></g><g clip-path="url(#0)"><path d="m245.34 304.99v3" stroke-linecap="butt" fill="none" stroke="#000"/></g><g clip-path="url(#0)"><text font-style="italic" font-family="serif" font-size="10" x="0" y="0" transform="translate(25 302)">0</text></g><g clip-path="url(#0)"><text font-style="italic" font-family="serif" font-size="10" x="0" y="0" transform="translate(25 257)">1</text></g><g clip-path="url(#0)"><path d="m34.541 253.04h3" stroke-linecap="butt" fill="none" stroke="#000"/></g><g clip-path="url(#0)"><text font-style="italic" font-family="serif" font-size="10" x="0" y="0" transform="translate(25 205)">2</text></g><g clip-path="url(#0)"><path d="m34.541 201.09h3" stroke-linecap="butt" fill="none" stroke="#000"/></g><g clip-path="url(#0)"><text font-style="italic" font-family="serif" font-size="10" x="0" y="0" transform="translate(25 153)">3</text></g><g clip-path="url(#0)"><path d="m34.541 149.14h3" stroke-linecap="butt" fill="none" stroke="#000"/></g><g clip-path="url(#0)"><text font-style="italic" font-family="serif" font-size="10" x="0" y="0" transform="translate(25 101)">4</text></g><g clip-path="url(#0)"><path d="m34.541 97.19h3" stroke-linecap="butt" fill="none" stroke="#000"/></g><g clip-path="url(#0)"><text font-style="italic" font-family="serif" font-size="10" x="0" y="0" transform="translate(25 49)">5</text></g><g clip-path="url(#0)"><path d="m34.541 45.24h3" stroke-linecap="butt" fill="none" stroke="#000"/></g><g><g clip-path="url(#0)"><path d="m92.49 227.07c0 1.65-1.343 3-3 3-1.657 0-3-1.35-3-3 0-1.66 1.343-3 3-3 1.657 0 3 1.34 3 3" fill="#f03"/></g><g clip-path="url(#0)"><path d="m92.49 227.07c0 1.65-1.343 3-3 3-1.657 0-3-1.35-3-3 0-1.66 1.343-3 3-3 1.657 0 3 1.34 3 3z" stroke-linejoin="round" stroke-linecap="round" fill="none" stroke="#000"/></g><g clip-path="url(#0)"><path d="m40.541 253.04c0 1.66-1.343 3-3 3-1.657 0-3-1.34-3-3 0-1.66 1.343-3 3-3 1.657 0 3 1.34 3 3" fill="#f03"/></g><g clip-path="url(#0)"><path d="m40.541 253.04c0 1.66-1.343 3-3 3-1.657 0-3-1.34-3-3 0-1.66 1.343-3 3-3 1.657 0 3 1.34 3 3z" stroke-linejoin="round" stroke-linecap="round" fill="none" stroke="#000"/></g><g clip-path="url(#0)"><path d="m144.44 188.1c0 1.66-1.34 3-3 3-1.66 0-3-1.34-3-3 0-1.65 1.34-3 3-3 1.66 0 3 1.35 3 3" fill="#f03"/></g><g clip-path="url(#0)"><path d="m144.44 188.1c0 1.66-1.34 3-3 3-1.66 0-3-1.34-3-3 0-1.65 1.34-3 3-3 1.66 0 3 1.35 3 3z" stroke-linejoin="round" stroke-linecap="round" fill="none" stroke="#000"/></g><g clip-path="url(#0)"><path d="m196.39 129.66c0 1.66-1.34 3-3 3-1.66 0-3-1.34-3-3 0-1.66 1.34-3 3-3 1.66 0 3 1.34 3 3" fill="#f03"/></g><g clip-path="url(#0)"><path d="m196.39 129.66c0 1.66-1.34 3-3 3-1.66 0-3-1.34-3-3 0-1.66 1.34-3 3-3 1.66 0 3 1.34 3 3z" stroke-linejoin="round" stroke-linecap="round" fill="none" stroke="#000"/></g><g clip-path="url(#0)"><path d="m248.34 41.994c0 1.657-1.34 3-3 3-1.66 0-3-1.343-3-3 0-1.657 1.34-3 3-3 1.66 0 3 1.343 3 3" fill="#f03"/></g><g clip-path="url(#0)"><path d="m248.34 41.994c0 1.657-1.34 3-3 3-1.66 0-3-1.343-3-3 0-1.657 1.34-3 3-3 1.66 0 3 1.343 3 3z" stroke-linejoin="round" stroke-linecap="round" fill="none" stroke="#000"/></g></g></g></svg>