<svg xmlns="http://www.w3.org/2000/svg" width="309.36" height="421.8" viewBox="0 0 442 603" xmlns:xlink="http://www.w3.org/1999/xlink"><defs><clipPath id="0"><path d="m0 0v604h443v-604z"/></clipPath></defs><g stroke-miterlimit="10" stroke-linecap="square"><g clip-path="url(#0)"><path d="m190.34 2v602" stroke-linecap="butt" fill="none" stroke="#000"/></g><g clip-path="url(#0)"><path d="m190.34 1l-3 3" stroke-linecap="butt" fill="none" stroke="#000"/></g><g clip-path="url(#0)"><path d="m190.34 1l3 3" stroke-linecap="butt" fill="none" stroke="#000"/></g><g clip-path="url(#0)"><path d="m0 376.01h441" stroke-linecap="butt" fill="none" stroke="#000"/></g><g clip-path="url(#0)"><path d="m442 376.01l-3-3" stroke-linecap="butt" fill="none" stroke="#000"/></g><g clip-path="url(#0)"><path d="m442 376.01l-3 3" stroke-linecap="butt" fill="none" stroke="#000"/></g><g clip-path="url(#0)"><text font-style="italic" font-family="serif" font-size="10" x="0" y="0" transform="translate(34 390)">–3</text></g><g clip-path="url(#0)"><path d="m38.12 376.01v3" stroke-linecap="butt" fill="none" stroke="#000"/></g><g clip-path="url(#0)"><text font-style="italic" font-family="serif" font-size="10" x="0" y="0" transform="translate(84 390)">–2</text></g><g clip-path="url(#0)"><path d="m88.86 376.01v3" stroke-linecap="butt" fill="none" stroke="#000"/></g><g clip-path="url(#0)"><text font-style="italic" font-family="serif" font-size="10" x="0" y="0" transform="translate(135 390)">–1</text></g><g clip-path="url(#0)"><path d="m139.6 376.01v3" stroke-linecap="butt" fill="none" stroke="#000"/></g><g clip-path="url(#0)"><text font-style="italic" font-family="serif" font-size="10" x="0" y="0" transform="translate(196 390)">0</text></g><g clip-path="url(#0)"><text font-style="italic" font-family="serif" font-size="10" x="0" y="0" transform="translate(239 390)">1</text></g><g clip-path="url(#0)"><path d="m241.08 376.01v3" stroke-linecap="butt" fill="none" stroke="#000"/></g><g clip-path="url(#0)"><text font-style="italic" font-family="serif" font-size="10" x="0" y="0" transform="translate(290 390)">2</text></g><g clip-path="url(#0)"><path d="m291.82 376.01v3" stroke-linecap="butt" fill="none" stroke="#000"/></g><g clip-path="url(#0)"><text font-style="italic" font-family="serif" font-size="10" x="0" y="0" transform="translate(341 390)">3</text></g><g clip-path="url(#0)"><path d="m342.56 376.01v3" stroke-linecap="butt" fill="none" stroke="#000"/></g><g clip-path="url(#0)"><text font-style="italic" font-family="serif" font-size="10" x="0" y="0" transform="translate(391 390)">4</text></g><g clip-path="url(#0)"><path d="m393.3 376.01v3" stroke-linecap="butt" fill="none" stroke="#000"/></g><g clip-path="url(#0)"><text font-style="italic" font-family="serif" font-size="10" x="0" y="0" transform="translate(173 582)">–4</text></g><g clip-path="url(#0)"><path d="m187.34 578.97h3" stroke-linecap="butt" fill="none" stroke="#000"/></g><g clip-path="url(#0)"><text font-style="italic" font-family="serif" font-size="10" x="0" y="0" transform="translate(173 532)">–3</text></g><g clip-path="url(#0)"><path d="m187.34 528.23h3" stroke-linecap="butt" fill="none" stroke="#000"/></g><g clip-path="url(#0)"><text font-style="italic" font-family="serif" font-size="10" x="0" y="0" transform="translate(173 481)">–2</text></g><g clip-path="url(#0)"><path d="m187.34 477.49h3" stroke-linecap="butt" fill="none" stroke="#000"/></g><g clip-path="url(#0)"><text font-style="italic" font-family="serif" font-size="10" x="0" y="0" transform="translate(173 430)">–1</text></g><g clip-path="url(#0)"><path d="m187.34 426.75h3" stroke-linecap="butt" fill="none" stroke="#000"/></g><g clip-path="url(#0)"><text font-style="italic" font-family="serif" font-size="10" x="0" y="0" transform="translate(178 374)">0</text></g><g clip-path="url(#0)"><text font-style="italic" font-family="serif" font-size="10" x="0" y="0" transform="translate(178 329)">1</text></g><g clip-path="url(#0)"><path d="m187.34 325.27h3" stroke-linecap="butt" fill="none" stroke="#000"/></g><g clip-path="url(#0)"><text font-style="italic" font-family="serif" font-size="10" x="0" y="0" transform="translate(178 278)">2</text></g><g clip-path="url(#0)"><path d="m187.34 274.53h3" stroke-linecap="butt" fill="none" stroke="#000"/></g><g clip-path="url(#0)"><text font-style="italic" font-family="serif" font-size="10" x="0" y="0" transform="translate(178 227)">3</text></g><g clip-path="url(#0)"><path d="m187.34 223.79h3" stroke-linecap="butt" fill="none" stroke="#000"/></g><g clip-path="url(#0)"><text font-style="italic" font-family="serif" font-size="10" x="0" y="0" transform="translate(178 177)">4</text></g><g clip-path="url(#0)"><path d="m187.34 173.05h3" stroke-linecap="butt" fill="none" stroke="#000"/></g><g clip-path="url(#0)"><text font-style="italic" font-family="serif" font-size="10" x="0" y="0" transform="translate(178 126)">5</text></g><g clip-path="url(#0)"><path d="m187.34 122.31h3" stroke-linecap="butt" fill="none" stroke="#000"/></g><g clip-path="url(#0)"><text font-style="italic" font-family="serif" font-size="10" x="0" y="0" transform="translate(178 75)">6</text></g><g clip-path="url(#0)"><path d="m187.34 71.58h3" stroke-linecap="butt" fill="none" stroke="#000"/></g><g clip-path="url(#0)"><text font-style="italic" font-family="serif" font-size="10" x="0" y="0" transform="translate(178 24)">7</text></g><g clip-path="url(#0)"><path d="m187.34 20.836h3" stroke-linecap="butt" fill="none" stroke="#000"/></g><g clip-path="url(#0)"><path d="m38.12 0v376.01" stroke-linejoin="round" stroke-linecap="round" fill="none" stroke="#c0c0c0" id="1"/></g><g clip-path="url(#0)"><path d="m38.12 395.01v208.99" stroke-linejoin="round" stroke-linecap="round" fill="none" stroke="#c0c0c0" id="2"/></g><g clip-path="url(#0)"><use xlink:href="#1"/></g><g clip-path="url(#0)"><use xlink:href="#2"/></g><g clip-path="url(#0)"><path d="m88.86 0v376.01" stroke-linejoin="round" stroke-linecap="round" fill="none" stroke="#c0c0c0"/></g><g clip-path="url(#0)"><path d="m88.86 395.01v208.99" stroke-linejoin="round" stroke-linecap="round" fill="none" stroke="#c0c0c0"/></g><g clip-path="url(#0)"><path d="m139.6 0v376.01" stroke-linejoin="round" stroke-linecap="round" fill="none" stroke="#c0c0c0"/></g><g clip-path="url(#0)"><path d="m139.6 395.01v208.99" stroke-linejoin="round" stroke-linecap="round" fill="none" stroke="#c0c0c0"/></g><g clip-path="url(#0)"><path d="m241.08 0v376.01" stroke-linejoin="round" stroke-linecap="round" fill="none" stroke="#c0c0c0"/></g><g clip-path="url(#0)"><path d="m241.08 395.01v208.99" stroke-linejoin="round" stroke-linecap="round" fill="none" stroke="#c0c0c0"/></g><g clip-path="url(#0)"><path d="m291.82 0v376.01" stroke-linejoin="round" stroke-linecap="round" fill="none" stroke="#c0c0c0"/></g><g clip-path="url(#0)"><path d="m291.82 395.01v208.99" stroke-linejoin="round" stroke-linecap="round" fill="none" stroke="#c0c0c0"/></g><g clip-path="url(#0)"><path d="m342.56 0v376.01" stroke-linejoin="round" stroke-linecap="round" fill="none" stroke="#c0c0c0"/></g><g clip-path="url(#0)"><path d="m342.56 395.01v208.99" stroke-linejoin="round" stroke-linecap="round" fill="none" stroke="#c0c0c0"/></g><g clip-path="url(#0)"><path d="m393.3 0v376.01" stroke-linejoin="round" stroke-linecap="round" fill="none" stroke="#c0c0c0"/></g><g clip-path="url(#0)"><path d="m393.3 395.01v208.99" stroke-linejoin="round" stroke-linecap="round" fill="none" stroke="#c0c0c0"/></g><g clip-path="url(#0)"><path d="m0 20.836h174.78" stroke-linejoin="round" stroke-linecap="round" fill="none" stroke="#c0c0c0" id="3"/></g><g clip-path="url(#0)"><path d="m190.34 20.836h252.66" stroke-linejoin="round" stroke-linecap="round" fill="none" stroke="#c0c0c0" id="4"/></g><g clip-path="url(#0)"><use xlink:href="#3"/></g><g clip-path="url(#0)"><use xlink:href="#4"/></g><g clip-path="url(#0)"><path d="m0 71.58h174.78" stroke-linejoin="round" stroke-linecap="round" fill="none" stroke="#c0c0c0"/></g><g clip-path="url(#0)"><path d="m190.34 71.58h252.66" stroke-linejoin="round" stroke-linecap="round" fill="none" stroke="#c0c0c0"/></g><g clip-path="url(#0)"><path d="m0 122.31h174.78" stroke-linejoin="round" stroke-linecap="round" fill="none" stroke="#c0c0c0"/></g><g clip-path="url(#0)"><path d="m190.34 122.31h252.66" stroke-linejoin="round" stroke-linecap="round" fill="none" stroke="#c0c0c0"/></g><g clip-path="url(#0)"><path d="m0 173.05h174.78" stroke-linejoin="round" stroke-linecap="round" fill="none" stroke="#c0c0c0"/></g><g clip-path="url(#0)"><path d="m190.34 173.05h252.66" stroke-linejoin="round" stroke-linecap="round" fill="none" stroke="#c0c0c0"/></g><g clip-path="url(#0)"><path d="m0 223.79h174.78" stroke-linejoin="round" stroke-linecap="round" fill="none" stroke="#c0c0c0"/></g><g clip-path="url(#0)"><path d="m190.34 223.79h252.66" stroke-linejoin="round" stroke-linecap="round" fill="none" stroke="#c0c0c0"/></g><g clip-path="url(#0)"><path d="m0 274.53h174.78" stroke-linejoin="round" stroke-linecap="round" fill="none" stroke="#c0c0c0"/></g><g clip-path="url(#0)"><path d="m190.34 274.53h252.66" stroke-linejoin="round" stroke-linecap="round" fill="none" stroke="#c0c0c0"/></g><g clip-path="url(#0)"><path d="m0 325.27h174.78" stroke-linejoin="round" stroke-linecap="round" fill="none" stroke="#c0c0c0"/></g><g clip-path="url(#0)"><path d="m190.34 325.27h252.66" stroke-linejoin="round" stroke-linecap="round" fill="none" stroke="#c0c0c0"/></g><g clip-path="url(#0)"><path d="m0 426.75h169.78" stroke-linejoin="round" stroke-linecap="round" fill="none" stroke="#c0c0c0"/></g><g clip-path="url(#0)"><path d="m190.34 426.75h252.66" stroke-linejoin="round" stroke-linecap="round" fill="none" stroke="#c0c0c0"/></g><g clip-path="url(#0)"><path d="m0 477.49h169.78" stroke-linejoin="round" stroke-linecap="round" fill="none" stroke="#c0c0c0"/></g><g clip-path="url(#0)"><path d="m190.34 477.49h252.66" stroke-linejoin="round" stroke-linecap="round" fill="none" stroke="#c0c0c0"/></g><g clip-path="url(#0)"><path d="m0 528.23h169.78" stroke-linejoin="round" stroke-linecap="round" fill="none" stroke="#c0c0c0"/></g><g clip-path="url(#0)"><path d="m190.34 528.23h252.66" stroke-linejoin="round" stroke-linecap="round" fill="none" stroke="#c0c0c0"/></g><g clip-path="url(#0)"><path d="m0 578.97h169.78" stroke-linejoin="round" stroke-linecap="round" fill="none" stroke="#c0c0c0"/></g><g clip-path="url(#0)"><path d="m190.34 578.97h252.66" stroke-linejoin="round" stroke-linecap="round" fill="none" stroke="#c0c0c0"/></g><g><g clip-path="url(#0)"><path d="m332.2 609l-307-614" stroke-linejoin="round" stroke-linecap="round" fill="none" stroke="#00f"/></g><g clip-path="url(#0)"><path d="m191.34 325.27c0 .55-.45 1-1 1-.55 0-1-.45-1-1 0-.55.45-1 1-1 .55 0 1 .45 1 1" fill="#006400"/></g><g clip-path="url(#0)"><path d="m191.34 325.27c0 .55-.45 1-1 1-.55 0-1-.45-1-1 0-.55.45-1 1-1 .55 0 1 .45 1 1z" stroke-linejoin="round" stroke-linecap="round" fill="none" stroke="#000"/></g><g clip-path="url(#0)"><text font-style="italic" font-family="serif" fill="#006400" font-size="12" x="0" y="0" transform="translate(194 323)">A</text></g><g clip-path="url(#0)"><path d="m243.08 426.75c0 1.1-.9 2-2 2-1.11 0-2-.9-2-2 0-1.1.89-2 2-2 1.1 0 2 .9 2 2" fill-opacity=".392" fill="#006400"/></g><g clip-path="url(#0)"><path d="m243.08 426.75c0 1.1-.9 2-2 2-1.11 0-2-.9-2-2 0-1.1.89-2 2-2 1.1 0 2 .9 2 2z" stroke-linejoin="round" stroke-linecap="round" fill="none" stroke-opacity=".392" stroke="#006400"/></g><g clip-path="url(#0)"><path d="m242.08 426.75c0 .55-.45 1-1 1-.55 0-1-.45-1-1 0-.55.45-1 1-1 .55 0 1 .45 1 1" fill="#006400"/></g><g clip-path="url(#0)"><path d="m242.08 426.75c0 .55-.45 1-1 1-.55 0-1-.45-1-1 0-.55.45-1 1-1 .55 0 1 .45 1 1z" stroke-linejoin="round" stroke-linecap="round" fill="none" stroke="#000"/></g><g clip-path="url(#0)"><text font-style="italic" font-family="serif" fill="#006400" font-size="12" x="0" y="0" transform="translate(245 425)">B</text></g></g></g></svg>