<svg xmlns="http://www.w3.org/2000/svg" width="425.44" height="403.62" viewBox="0 0 272 258" xmlns:xlink="http://www.w3.org/1999/xlink"><defs><path id="A" d="m.328-.297l-.031.125q-.016.078-.016.094 0 .047.031.063.016 0 .031 0 .047 0 .078-.047.031-.031.047-.078 0-.016.016-.016.016 0 .016.016 0 .016-.031.062-.063.094-.125.094-.078 0-.109-.063 0-.016 0-.016-.031.047-.078.063-.016.016-.031.016-.063 0-.094-.047 0 0 0-.031 0-.031.031-.047.016 0 .016 0 .031 0 .047.016 0 .016 0 .016 0 .031-.031.047-.016 0-.016 0 .016.016.047.016.047 0 .078-.063.016-.016.016-.031.047-.203.047-.25 0-.063-.047-.063-.047 0-.094.063 0 0 0 0-.016.016-.031.047 0 0 0 .016l-.016.016q0 0 0 0-.016 0-.016 0 0-.031.031-.078.047-.078.125-.078.078 0 .109.078.031-.063.078-.078.016 0 .031 0 .063 0 .078.031.016.016.016.031 0 .047-.047.047 0 .016-.016.016-.031 0-.031-.031 0 0 0-.016 0-.031.031-.047 0 0 .016 0-.016-.016-.047-.016-.078 0-.094.109-.016 0-.016.016"/><clipPath id="9"><path d="m-11.439-9.764v17.267h18.2v-17.267z"/></clipPath><clipPath id="6"><path d="m-9.933-9.764v17.267h18.2v-17.267z"/></clipPath><clipPath id="8"><path d="m-10.878-9.764v17.267h18.2v-17.267z"/></clipPath><clipPath id="7"><path d="m-10.378-9.764v17.267h18.2v-17.267z"/></clipPath><clipPath id="5"><path d="m-7.528-5.734v17.267h18.2v-17.267z"/></clipPath><clipPath id="0"><path d="m0 0v259h273v-259z"/></clipPath><clipPath id="4"><path d="m-6.806-5.734v17.267h18.2v-17.267z"/></clipPath><clipPath id="1"><path d="m-10.8-7.831v17.267h18.2v-17.267z"/></clipPath><clipPath id="3"><path d="m-6.528-5.734v17.267h18.2v-17.267z"/></clipPath><clipPath id="2"><path d="m-6.133-5.734v17.267h18.2v-17.267z"/></clipPath></defs><g stroke-miterlimit="10" stroke-linecap="square"><g clip-path="url(#0)"><path d="m128.31 2v257" stroke-linecap="butt" fill="none" stroke="#000"/></g><g clip-path="url(#0)"><path d="m128.31 1l-3 3" stroke-linecap="butt" fill="none" stroke="#000"/></g><g clip-path="url(#0)"><path d="m128.31 1l3 3" stroke-linecap="butt" fill="none" stroke="#000"/></g><g clip-path="url(#0)"><path d="m0 129.85h271" stroke-linecap="butt" fill="none" stroke="#000"/></g><g clip-path="url(#0)"><path d="m272 129.85l-3-3" stroke-linecap="butt" fill="none" stroke="#000"/></g><g clip-path="url(#0)"><path d="m272 129.85l-3 3" stroke-linecap="butt" fill="none" stroke="#000"/></g><g clip-path="url(#0)"><path d="m10.516 140.34v-.65h3.968v.65h-3.968m8.203 2.66h-.875v-5.59q-.313.29-.828.6-.516.3-.922.44v-.84q.734-.34 1.289-.84.555-.49.773-.96h.563v7.19"/></g><g clip-path="url(#0)"><path d="m14.627 129.85v3" stroke-linecap="butt" fill="none" stroke="#000"/></g><g clip-path="url(#0)"><path d="m134.42 139.47q0-1.27.26-2.04.26-.77.77-1.2.52-.42 1.3-.42.58 0 1.01.24.43.23.72.67.29.44.44 1.06.16.63.16 1.69 0 1.26-.26 2.04-.26.77-.77 1.19-.52.42-1.3.42-1.03 0-1.63-.74-.7-.9-.7-2.91m.89 0q0 1.76.42 2.35.41.59 1.02.59.61 0 1.02-.59.42-.59.42-2.35 0-1.77-.42-2.35-.41-.57-1.04-.57-.59 0-.96.5-.46.65-.46 2.42"/></g><g clip-path="url(#0)"><path d="m128.31 129.85v3" stroke-linecap="butt" fill="none" stroke="#000"/></g><g clip-path="url(#0)"><path d="m243.72 143h-.88v-5.59q-.31.29-.82.6-.52.3-.93.44v-.84q.74-.34 1.29-.84.56-.49.78-.96h.56v7.19"/></g><g clip-path="url(#0)"><path d="m242 129.85v3" stroke-linecap="butt" fill="none" stroke="#000"/></g><g clip-path="url(#0)"><path d="m111.52 244.34v-.65h3.96v.65h-3.96m8.2 2.66h-.88v-5.59q-.31.29-.82.6-.52.3-.93.44v-.84q.74-.34 1.29-.84.56-.49.78-.96h.56v7.19"/></g><g clip-path="url(#0)"><path d="m125.31 243.53h3" stroke-linecap="butt" fill="none" stroke="#000"/></g><g clip-path="url(#0)"><path d="m116.42 123.47q0-1.27.26-2.04.26-.77.77-1.2.52-.42 1.3-.42.58 0 1.01.24.43.23.72.67.29.44.44 1.06.16.63.16 1.69 0 1.26-.26 2.04-.26.77-.77 1.19-.52.42-1.3.42-1.03 0-1.63-.74-.7-.9-.7-2.91m.89 0q0 1.76.42 2.35.41.59 1.02.59.61 0 1.02-.59.42-.59.42-2.35 0-1.77-.42-2.35-.41-.57-1.04-.57-.59 0-.96.5-.46.65-.46 2.42"/></g><g clip-path="url(#0)"><path d="m119.72 20h-.88v-5.594q-.31.297-.82.602-.52.304-.93.445v-.844q.74-.343 1.29-.836.56-.492.78-.961h.56v7.188"/></g><g clip-path="url(#0)"><path d="m125.31 16.16h3" stroke-linecap="butt" fill="none" stroke="#000"/></g><g><g clip-path="url(#0)"><path d="m242 129.85c0 62.78-50.9 113.68-113.69 113.68-62.784 0-113.68-50.9-113.68-113.68 0-62.791 50.899-113.69 113.68-113.69 62.79 0 113.69 50.898 113.69 113.69z" stroke-linejoin="round" stroke-linecap="round" fill="none" stroke="#000"/></g><g clip-path="url(#0)"><path d="m158.31 129.85c0-9.44-4.44-18.33-11.99-24l-18.01 24z" fill-opacity=".098" fill="#00f"/></g><g clip-path="url(#0)"><path d="m158.31 129.85c0-9.44-4.44-18.33-11.99-24l-18.01 24z" stroke-linejoin="round" stroke-linecap="round" fill="none" stroke="#00f"/></g><g clip-path="url(#0)"><path d="m146.32 105.85l10.77 6.93-6.32 5.08z" fill-rule="evenodd" fill="#00f"/></g><g clip-path="url(#0)"><path d="m128.31 129.85l67.63-90.13" stroke-linejoin="round" stroke-linecap="round" fill="none" stroke="#00f"/></g><g clip-path="url(#0)"><path d="m195.94 39.715v90.13" stroke-linejoin="round" stroke-width=".5" stroke-linecap="round" fill="none" stroke="#c0c0c0"/></g><g clip-path="url(#0)"><path d="m195.94 39.715h-67.63" stroke-linejoin="round" stroke-linecap="round" fill="none" stroke="#c0c0c0"/></g><g clip-path="url(#0)"><path d="m195.94 39.715v90.13" stroke-linejoin="round" stroke-linecap="round" fill="none" stroke="#c0c0c0"/></g><g clip-path="url(#0)"><path d="m128.31 129.85v-90.13" stroke-linejoin="round" stroke-linecap="round" fill="none" stroke="#063"/></g><g clip-path="url(#0)"><path d="m128.31 129.85h67.63" stroke-linejoin="round" stroke-linecap="round" fill="none" stroke="#f00"/></g><g clip-path="url(#0)"><path d="m129.31 129.85c0 .55-.45 1-1 1-.55 0-1-.45-1-1 0-.56.45-1 1-1 .55 0 1 .44 1 1" fill="#4b0082"/></g><g clip-path="url(#0)"><path d="m129.31 129.85c0 .55-.45 1-1 1-.55 0-1-.45-1-1 0-.56.45-1 1-1 .55 0 1 .44 1 1z" stroke-linejoin="round" stroke-linecap="round" fill="none" stroke="#000"/></g><g clip-path="url(#0)"><path d="m113.58 145.81q0-2.14 1.15-3.35 1.15-1.21 2.96-1.21 1.2 0 2.15.57.96.57 1.46 1.59.5 1.01.5 2.31 0 1.3-.53 2.33-.54 1.03-1.5 1.56-.96.53-2.08.53-1.22 0-2.17-.59-.96-.58-1.45-1.59-.49-1.01-.49-2.15m1.17.02q0 1.56.84 2.45.83.89 2.1.89 1.28 0 2.11-.9.82-.89.82-2.57 0-1.04-.35-1.82-.35-.79-1.04-1.22-.68-.43-1.53-.43-1.2 0-2.08.83-.87.83-.87 2.77" fill="#4b0082"/></g><g clip-path="url(#0)"><path d="m196.94 39.715c0 .552-.45 1-1 1-.55 0-1-.448-1-1 0-.553.45-1 1-1 .55 0 1 .447 1 1" fill="#00f"/></g><g clip-path="url(#0)"><path d="m196.94 39.715c0 .552-.45 1-1 1-.55 0-1-.448-1-1 0-.553.45-1 1-1 .55 0 1 .447 1 1z" stroke-linejoin="round" stroke-linecap="round" fill="none" stroke="#000"/></g><g clip-path="url(#0)"><path d="m200.89 38v-8.594h1.72l2.03 6.078q.28.86.41 1.282.14-.469.45-1.375l2.06-5.985h1.53v8.594h-1.09v-7.188l-2.5 7.188h-1.03l-2.49-7.312v7.312h-1.09" fill="#00f"/></g><g clip-path="url(#1)" transform="matrix(15 0 0 15 162 117.46)"><use fill="#00f" xlink:href="#A"/></g><g clip-path="url(#2)" transform="matrix(15 0 0 15 92 86.02)"><path d="m.203-.188q-.078-.031-.109-.047-.016 0-.016 0-.047-.047-.047-.094 0-.063.063-.094.047-.031.094-.031.063 0 .094.031.016 0 .016-.016.016-.016.031-.016 0 .016 0 .031v.094q0 .031 0 .031-.016 0-.016-.016-.016-.094-.078-.109-.016 0-.047 0-.094 0-.109.047 0 .016 0 .016 0 .063.078.078.016 0 .047.016.078.016.109.031 0 0 0 .016.047.031.047.094 0 .078-.063.109-.047.031-.094.031-.063 0-.109-.047l-.031.016q-.016.031-.016.031-.016-.016-.016-.031v-.125q0-.031.016-.031.016 0 .016.016.031.125.094.141.016 0 .047 0 .078 0 .109-.063 0-.016 0-.031 0-.063-.109-.078" fill="#063"/></g><g clip-path="url(#3)" transform="matrix(15 0 0 15 97.92 86.02)"><path d="m.172-.438v.359q0 .031.016.047.016 0 .063 0v.031q-.109 0-.109 0-.016 0-.109 0v-.031q.063 0 .078-.016 0 0 0-.031v-.266q0-.047-.016-.047-.016-.016-.063-.016v-.031h.141m.016-.172q0 .031-.047.047 0 0-.016 0-.031 0-.047-.031 0-.016 0-.016 0-.031.031-.047 0-.016.016-.016.031 0 .047.031.016.016.016.031" fill="#063"/></g><g clip-path="url(#4)" transform="matrix(15 0 0 15 102.08 86.02)"><path d="m.109-.344q0-.047-.016-.047-.016-.016-.047-.016h-.016v-.031h.141v.094q.047-.094.156-.094.063 0 .094.031.031.031.031.094 0 .016 0 .063v.188q0 .031.031.031.016 0 .047 0v.031q-.094 0-.109 0 0 0-.109 0v-.031q.063 0 .063-.016.016 0 .016-.031v-.234q0-.094-.063-.109 0 0-.016 0-.063 0-.094.063-.047.031-.047.094v.187q0 .031.016.047.016 0 .063 0v.031q-.094 0-.109 0 0 0-.109 0v-.031q.063 0 .063-.016h.016q0 0 0-.031v-.266" fill="#063"/></g><g clip-path="url(#5)" transform="matrix(15 0 0 15 112.92 86.02)"><use fill="#063" xlink:href="#A"/></g><g clip-path="url(#6)" transform="matrix(15 0 0 15 149 146.46)"><path d="m.359-.391q-.031-.031-.109-.031-.063 0-.094.063-.047.047-.047.141 0 .141.094.188.031.016.063.016.094 0 .125-.109 0 0 .016 0 .016 0 .016 0 0 .031-.031.063-.047.078-.141.078-.094 0-.156-.078-.063-.063-.063-.156 0-.094.078-.172.063-.063.141-.063.078 0 .125.047.031.031.031.063 0 .047-.031.047-.016 0-.016 0-.031 0-.047-.031 0 0 0-.016 0-.031.031-.047.016 0 .016 0" fill="#f00"/></g><g clip-path="url(#7)" transform="matrix(15 0 0 15 155.67 146.46)"><path d="m.469-.219q0 .109-.078.172-.063.063-.141.063-.094 0-.156-.078-.063-.063-.063-.156 0-.094.063-.172.063-.063.156-.063.094 0 .156.078.063.078.063.156m-.219.203q.063 0 .109-.047v-.031q.031-.031.031-.125 0-.094-.031-.141-.047-.063-.109-.063-.063 0-.109.047 0 0 0 .016-.031.047-.031.141 0 .094.031.141.031.063.109.063" fill="#f00"/></g><g clip-path="url(#8)" transform="matrix(15 0 0 15 163.17 146.46)"><path d="m.203-.188q-.078-.031-.109-.047-.016 0-.016 0-.047-.047-.047-.094 0-.063.063-.094.047-.031.094-.031.063 0 .094.031.016 0 .016-.016.016-.016.031-.016 0 .016 0 .031v.094q0 .031 0 .031-.016 0-.016-.016-.016-.094-.078-.109-.016 0-.047 0-.094 0-.109.047 0 .016 0 .016 0 .063.078.078.016 0 .047.016.078.016.109.031 0 0 0 .016.047.031.047.094 0 .078-.063.109-.047.031-.094.031-.063 0-.109-.047l-.031.016q-.016.031-.016.031-.016-.016-.016-.031v-.125q0-.031.016-.031.016 0 .016.016.031.125.094.141.016 0 .047 0 .078 0 .109-.063 0-.016 0-.031 0-.063-.109-.078" fill="#f00"/></g><g clip-path="url(#9)" transform="matrix(15 0 0 15 171.58 146.46)"><use fill="#f00" xlink:href="#A"/></g></g></g></svg>