<svg xmlns="http://www.w3.org/2000/svg" width="403.64" height="346.37" viewBox="0 0 288 247"><defs><clipPath id="0"><path d="m0 0v248h289v-248z"/></clipPath></defs><g stroke-miterlimit="10" stroke-linecap="square"><g><g clip-path="url(#0)"><path d="m44.41 200.72h10.607v-10.6h-10.607v10.6" stroke-linejoin="round" stroke-width=".5" stroke-linecap="round" fill="none" stroke="#039"/></g><g clip-path="url(#0)"><path d="m223.37 182.72c-3.9 5.2-6 11.51-6 18h30z" fill-opacity=".098" fill="#006400"/></g><g clip-path="url(#0)"><path d="m223.37 182.72c-3.9 5.2-6 11.51-6 18h30z" stroke-linejoin="round" stroke-width=".5" stroke-linecap="round" fill="none" stroke="#006400"/></g><g clip-path="url(#0)"><path d="m44.41 200.72v-152.21" stroke-linejoin="round" stroke-linecap="round" fill="none" stroke="#039"/></g><g clip-path="url(#0)"><path d="m44.41 48.51l202.96 152.21" stroke-linejoin="round" stroke-linecap="round" fill="none" stroke="#039"/></g><g clip-path="url(#0)"><path d="m44.41 200.72h202.96" stroke-linejoin="round" stroke-linecap="round" fill="none" stroke="#039"/></g><g clip-path="url(#0)"><path d="m45.41 200.72c0 .56-.448 1-1 1-.552 0-1-.44-1-1 0-.55.448-1 1-1 .552 0 1 .45 1 1" fill="#300"/></g><g clip-path="url(#0)"><path d="m45.41 200.72c0 .56-.448 1-1 1-.552 0-1-.44-1-1 0-.55.448-1 1-1 .552 0 1 .45 1 1z" stroke-linejoin="round" stroke-linecap="round" fill="none" stroke="#000"/></g><g clip-path="url(#0)"><text font-style="italic" font-family="serif" fill="#300" font-size="12" x="0" y="0" transform="translate(34 214)">A</text></g><g clip-path="url(#0)"><path d="m248.37 200.72c0 .56-.45 1-1 1-.56 0-1-.44-1-1 0-.55.44-1 1-1 .55 0 1 .45 1 1" fill="#300"/></g><g clip-path="url(#0)"><path d="m248.37 200.72c0 .56-.45 1-1 1-.56 0-1-.44-1-1 0-.55.44-1 1-1 .55 0 1 .45 1 1z" stroke-linejoin="round" stroke-linecap="round" fill="none" stroke="#000"/></g><g clip-path="url(#0)"><text font-style="italic" font-family="serif" fill="#300" font-size="12" x="0" y="0" transform="translate(250 216)">B</text></g><g clip-path="url(#0)"><path d="m45.41 48.51c0 .553-.448 1-1 1-.552 0-1-.447-1-1 0-.552.448-1 1-1 .552 0 1 .448 1 1" fill="#300"/></g><g clip-path="url(#0)"><path d="m45.41 48.51c0 .553-.448 1-1 1-.552 0-1-.447-1-1 0-.552.448-1 1-1 .552 0 1 .448 1 1z" stroke-linejoin="round" stroke-linecap="round" fill="none" stroke="#000"/></g><g clip-path="url(#0)"><text font-style="italic" font-family="serif" fill="#300" font-size="12" x="0" y="0" transform="translate(30 45)">C</text></g><g clip-path="url(#0)"><text font-style="italic" font-family="serif" font-size="12" x="0" y="0" transform="translate(34 135)">3</text></g><g clip-path="url(#0)"><text font-style="italic" font-family="serif" font-size="12" x="0" y="0" transform="translate(140 114)">5</text></g><g clip-path="url(#0)"><text font-style="italic" font-family="serif" font-size="12" x="0" y="0" transform="translate(139 217)">4</text></g></g></g></svg>