<svg xmlns="http://www.w3.org/2000/svg" width="247.77" height="226.61" viewBox="0 0 280 256" xmlns:xlink="http://www.w3.org/1999/xlink"><defs><clipPath id="5"><path d="m2.316 5.04v13.527h14.789v-13.527z"/></clipPath><clipPath id="4"><path d="m-.518 10.824v19.323h21.13v-19.323z"/></clipPath><clipPath id="6"><path d="m2.565 6.989v19.323h21.13v-19.323z"/></clipPath><clipPath id="3"><path d="m.158 7.727v13.526h14.789v-13.526z"/></clipPath><clipPath id="1"><path d="m-13 7.411v13.526h14.79v-13.526z"/></clipPath><clipPath id="0"><path d="m0 0v257h281v-257z"/></clipPath><clipPath id="2"><path d="m-19.315 10.373v19.323h21.13v-19.323z"/></clipPath></defs><g stroke-miterlimit="10" stroke-linecap="square"><g clip-path="url(#0)"><path d="m105.88 2v255" stroke-linecap="butt" fill="none" stroke="#000"/></g><g clip-path="url(#0)"><path d="m105.88 1l-3 3" stroke-linecap="butt" fill="none" stroke="#000"/></g><g clip-path="url(#0)"><path d="m105.88 1l3 3" stroke-linecap="butt" fill="none" stroke="#000"/></g><g clip-path="url(#0)"><path d="m0 142.65h279" stroke-linecap="butt" fill="none" stroke="#000"/></g><g clip-path="url(#0)"><path d="m280 142.65l-3-3" stroke-linecap="butt" fill="none" stroke="#000"/></g><g clip-path="url(#0)"><path d="m280 142.65l-3 3" stroke-linecap="butt" fill="none" stroke="#000"/></g><g clip-path="url(#0)"><text font-style="italic" font-family="serif" font-size="10" x="0" y="0" transform="translate(21 156)">–2</text></g><g clip-path="url(#0)"><path d="m25.512 142.65v3" stroke-linecap="butt" fill="none" stroke="#000"/></g><g clip-path="url(#0)"><text font-style="italic" font-family="serif" font-size="10" x="0" y="0" transform="translate(61 156)">–1</text></g><g clip-path="url(#0)"><path d="m65.7 142.65v3" stroke-linecap="butt" fill="none" stroke="#000"/></g><g clip-path="url(#0)"><text font-style="italic" font-family="serif" font-size="10" x="0" y="0" transform="translate(111 156)">0</text></g><g clip-path="url(#0)"><path d="m105.88 142.65v3" stroke-linecap="butt" fill="none" stroke="#000"/></g><g clip-path="url(#0)"><text font-style="italic" font-family="serif" font-size="10" x="0" y="0" transform="translate(144 156)">1</text></g><g clip-path="url(#0)"><path d="m146.07 142.65v3" stroke-linecap="butt" fill="none" stroke="#000"/></g><g clip-path="url(#0)"><text font-style="italic" font-family="serif" font-size="10" x="0" y="0" transform="translate(184 156)">2</text></g><g clip-path="url(#0)"><path d="m186.25 142.65v3" stroke-linecap="butt" fill="none" stroke="#000"/></g><g clip-path="url(#0)"><text font-style="italic" font-family="serif" font-size="10" x="0" y="0" transform="translate(224 156)">3</text></g><g clip-path="url(#0)"><path d="m226.44 142.65v3" stroke-linecap="butt" fill="none" stroke="#000"/></g><g clip-path="url(#0)"><text font-style="italic" font-family="serif" font-size="10" x="0" y="0" transform="translate(265 156)">4</text></g><g clip-path="url(#0)"><path d="m266.62 142.65v3" stroke-linecap="butt" fill="none" stroke="#000"/></g><g clip-path="url(#0)"><text font-style="italic" font-family="serif" font-size="10" x="0" y="0" transform="translate(89 227)">–2</text></g><g clip-path="url(#0)"><path d="m102.88 223.02h3" stroke-linecap="butt" fill="none" stroke="#000"/></g><g clip-path="url(#0)"><text font-style="italic" font-family="serif" font-size="10" x="0" y="0" transform="translate(89 186)">–1</text></g><g clip-path="url(#0)"><path d="m102.88 182.83h3" stroke-linecap="butt" fill="none" stroke="#000"/></g><g clip-path="url(#0)"><text font-style="italic" font-family="serif" font-size="10" x="0" y="0" transform="translate(94 140)">0</text></g><g clip-path="url(#0)"><text font-style="italic" font-family="serif" font-size="10" x="0" y="0" transform="translate(94 106)">1</text></g><g clip-path="url(#0)"><path d="m102.88 102.46h3" stroke-linecap="butt" fill="none" stroke="#000"/></g><g clip-path="url(#0)"><text font-style="italic" font-family="serif" font-size="10" x="0" y="0" transform="translate(94 66)">2</text></g><g clip-path="url(#0)"><path d="m102.88 62.28h3" stroke-linecap="butt" fill="none" stroke="#000"/></g><g clip-path="url(#0)"><text font-style="italic" font-family="serif" font-size="10" x="0" y="0" transform="translate(94 26)">3</text></g><g clip-path="url(#0)"><path d="m102.88 22.09h3" stroke-linecap="butt" fill="none" stroke="#000"/></g><g clip-path="url(#0)"><path d="m25.512 0v142.65" stroke-linejoin="round" stroke-linecap="round" fill="none" stroke="#e0e0e0" id="7"/></g><g clip-path="url(#0)"><path d="m25.512 161.65v95.35" stroke-linejoin="round" stroke-linecap="round" fill="none" stroke="#e0e0e0" id="8"/></g><g clip-path="url(#0)"><use xlink:href="#7"/></g><g clip-path="url(#0)"><use xlink:href="#8"/></g><g clip-path="url(#0)"><path d="m65.7 0v142.65" stroke-linejoin="round" stroke-linecap="round" fill="none" stroke="#e0e0e0"/></g><g clip-path="url(#0)"><path d="m65.7 161.65v95.35" stroke-linejoin="round" stroke-linecap="round" fill="none" stroke="#e0e0e0"/></g><g clip-path="url(#0)"><path d="m146.07 0v142.65" stroke-linejoin="round" stroke-linecap="round" fill="none" stroke="#e0e0e0"/></g><g clip-path="url(#0)"><path d="m146.07 161.65v95.35" stroke-linejoin="round" stroke-linecap="round" fill="none" stroke="#e0e0e0"/></g><g clip-path="url(#0)"><path d="m186.25 0v142.65" stroke-linejoin="round" stroke-linecap="round" fill="none" stroke="#e0e0e0"/></g><g clip-path="url(#0)"><path d="m186.25 161.65v95.35" stroke-linejoin="round" stroke-linecap="round" fill="none" stroke="#e0e0e0"/></g><g clip-path="url(#0)"><path d="m226.44 0v142.65" stroke-linejoin="round" stroke-linecap="round" fill="none" stroke="#e0e0e0"/></g><g clip-path="url(#0)"><path d="m226.44 161.65v95.35" stroke-linejoin="round" stroke-linecap="round" fill="none" stroke="#e0e0e0"/></g><g clip-path="url(#0)"><path d="m266.62 0v142.65" stroke-linejoin="round" stroke-linecap="round" fill="none" stroke="#e0e0e0"/></g><g clip-path="url(#0)"><path d="m266.62 161.65v95.35" stroke-linejoin="round" stroke-linecap="round" fill="none" stroke="#e0e0e0"/></g><g clip-path="url(#0)"><path d="m0 22.09h90.32" stroke-linejoin="round" stroke-linecap="round" fill="none" stroke="#e0e0e0" id="9"/></g><g clip-path="url(#0)"><path d="m105.88 22.09h175.12" stroke-linejoin="round" stroke-linecap="round" fill="none" stroke="#e0e0e0" id="A"/></g><g clip-path="url(#0)"><use xlink:href="#9"/></g><g clip-path="url(#0)"><use xlink:href="#A"/></g><g clip-path="url(#0)"><path d="m0 62.28h90.32" stroke-linejoin="round" stroke-linecap="round" fill="none" stroke="#e0e0e0"/></g><g clip-path="url(#0)"><path d="m105.88 62.28h175.12" stroke-linejoin="round" stroke-linecap="round" fill="none" stroke="#e0e0e0"/></g><g clip-path="url(#0)"><path d="m0 102.46h90.32" stroke-linejoin="round" stroke-linecap="round" fill="none" stroke="#e0e0e0"/></g><g clip-path="url(#0)"><path d="m105.88 102.46h175.12" stroke-linejoin="round" stroke-linecap="round" fill="none" stroke="#e0e0e0"/></g><g clip-path="url(#0)"><path d="m0 182.83h85.32" stroke-linejoin="round" stroke-linecap="round" fill="none" stroke="#e0e0e0"/></g><g clip-path="url(#0)"><path d="m105.88 182.83h175.12" stroke-linejoin="round" stroke-linecap="round" fill="none" stroke="#e0e0e0"/></g><g clip-path="url(#0)"><path d="m0 223.02h85.32" stroke-linejoin="round" stroke-linecap="round" fill="none" stroke="#e0e0e0"/></g><g clip-path="url(#0)"><path d="m105.88 223.02h175.12" stroke-linejoin="round" stroke-linecap="round" fill="none" stroke="#e0e0e0"/></g><g><g clip-path="url(#0)"><path d="m66.7 223.02c0 .55-.448 1-1 1-.553 0-1-.45-1-1 0-.55.447-1 1-1 .552 0 1 .45 1 1" fill="#00c"/></g><g clip-path="url(#0)"><path d="m66.7 223.02c0 .55-.448 1-1 1-.553 0-1-.45-1-1 0-.55.447-1 1-1 .552 0 1 .45 1 1z" stroke-linejoin="round" stroke-linecap="round" fill="none" stroke="#000"/></g><g clip-path="url(#0)"><text font-style="italic" font-family="serif" fill="#00c" font-size="12" x="0" y="0" transform="translate(70 221)">A</text></g><g clip-path="url(#0)"><path d="m147.07 102.46c0 .55-.45 1-1 1-.55 0-1-.45-1-1 0-.55.45-1 1-1 .55 0 1 .45 1 1" fill="#00c"/></g><g clip-path="url(#0)"><path d="m147.07 102.46c0 .55-.45 1-1 1-.55 0-1-.45-1-1 0-.55.45-1 1-1 .55 0 1 .45 1 1z" stroke-linejoin="round" stroke-linecap="round" fill="none" stroke="#000"/></g><g clip-path="url(#0)"><text font-style="italic" font-family="serif" fill="#00c" font-size="12" x="0" y="0" transform="translate(150 100)">C</text></g><g clip-path="url(#0)"><path d="m227.44 62.28c0 .552-.45 1-1 1-.55 0-1-.448-1-1 0-.553.45-1 1-1 .55 0 1 .447 1 1" fill="#00c"/></g><g clip-path="url(#0)"><path d="m227.44 62.28c0 .552-.45 1-1 1-.55 0-1-.448-1-1 0-.553.45-1 1-1 .55 0 1 .447 1 1z" stroke-linejoin="round" stroke-linecap="round" fill="none" stroke="#000"/></g><g clip-path="url(#0)"><text font-style="italic" font-family="serif" fill="#00c" font-size="12" x="0" y="0" transform="translate(230 60)">B</text></g><g clip-path="url(#1)" transform="matrix(19 0 0 19 247-140.81)"><text font-style="italic" font-family="serif" fill="#00f" font-size="1" x="0" y="0">d</text></g><g clip-path="url(#2)" transform="matrix(13.3 0 0 13.3 256.89-137.96)"><text font-style="italic" font-family="Jlm_cmr10" fill="#00f" font-size="1" x="0" y="0">1</text></g><g clip-path="url(#3)" transform="matrix(19 0 0 19-3-146.81)"><text font-style="italic" font-family="serif" fill="#006400" font-size="1" x="0" y="0">d</text></g><g clip-path="url(#4)" transform="matrix(13.3 0 0 13.3 6.889-143.96)"><text font-style="italic" font-family="Jlm_cmr10" fill="#006400" font-size="1" x="0" y="0">2</text></g><g clip-path="url(#5)" transform="matrix(19 0 0 19-44-95.81)"><text font-style="italic" font-family="serif" fill="#f00" font-size="1" x="0" y="0">d</text></g><g clip-path="url(#6)" transform="matrix(13.3 0 0 13.3-34.11-92.96)"><text font-style="italic" font-family="Jlm_cmr10" fill="#f00" font-size="1" x="0" y="0">3</text></g></g></g></svg>