<svg xmlns="http://www.w3.org/2000/svg" width="190.29" height="186.2" viewBox="0 0 278 271"><defs><clipPath id="0"><path d="m0 0v273h279v-273z"/></clipPath></defs><g stroke-miterlimit="10" stroke-linecap="square"><g clip-path="url(#0)"><path d="m32.1 2v271" stroke-linecap="butt" fill="none" stroke="#000"/></g><g clip-path="url(#0)"><path d="m32.1 1l-3 3" stroke-linecap="butt" fill="none" stroke="#000"/></g><g clip-path="url(#0)"><path d="m32.1 1l3 3" stroke-linecap="butt" fill="none" stroke="#000"/></g><g clip-path="url(#0)"><path d="m0 137.18h277" stroke-linecap="butt" fill="none" stroke="#000"/></g><g clip-path="url(#0)"><path d="m278 137.18l-3-3" stroke-linecap="butt" fill="none" stroke="#000"/></g><g clip-path="url(#0)"><path d="m278 137.18l-3 3" stroke-linecap="butt" fill="none" stroke="#000"/></g><g clip-path="url(#0)"><text font-style="italic" font-family="serif" font-size="10" x="0" y="0" transform="translate(38 151)">0</text></g><g clip-path="url(#0)"><path d="m32.1 137.18v3" stroke-linecap="butt" fill="none" stroke="#000"/></g><g clip-path="url(#0)"><text font-style="italic" font-family="serif" font-size="10" x="0" y="0" transform="translate(82 151)">1</text></g><g clip-path="url(#0)"><path d="m84.05 137.18v3" stroke-linecap="butt" fill="none" stroke="#000"/></g><g clip-path="url(#0)"><text font-style="italic" font-family="serif" font-size="10" x="0" y="0" transform="translate(134 151)">2</text></g><g clip-path="url(#0)"><path d="m136 137.18v3" stroke-linecap="butt" fill="none" stroke="#000"/></g><g clip-path="url(#0)"><text font-style="italic" font-family="serif" font-size="10" x="0" y="0" transform="translate(186 151)">3</text></g><g clip-path="url(#0)"><path d="m187.95 137.18v3" stroke-linecap="butt" fill="none" stroke="#000"/></g><g clip-path="url(#0)"><text font-style="italic" font-family="serif" font-size="10" x="0" y="0" transform="translate(238 151)">4</text></g><g clip-path="url(#0)"><path d="m239.9 137.18v3" stroke-linecap="butt" fill="none" stroke="#000"/></g><g clip-path="url(#0)"><text font-style="italic" font-family="serif" font-size="10" x="0" y="0" transform="translate(15 245)">–2</text></g><g clip-path="url(#0)"><path d="m29.1 241.08h3" stroke-linecap="butt" fill="none" stroke="#000"/></g><g clip-path="url(#0)"><text font-style="italic" font-family="serif" font-size="10" x="0" y="0" transform="translate(15 193)">–1</text></g><g clip-path="url(#0)"><path d="m29.1 189.13h3" stroke-linecap="butt" fill="none" stroke="#000"/></g><g clip-path="url(#0)"><text font-style="italic" font-family="serif" font-size="10" x="0" y="0" transform="translate(20 135)">0</text></g><g clip-path="url(#0)"><text font-style="italic" font-family="serif" font-size="10" x="0" y="0" transform="translate(20 89)">1</text></g><g clip-path="url(#0)"><path d="m29.1 85.23h3" stroke-linecap="butt" fill="none" stroke="#000"/></g><g clip-path="url(#0)"><text font-style="italic" font-family="serif" font-size="10" x="0" y="0" transform="translate(20 37)">2</text></g><g clip-path="url(#0)"><path d="m29.1 33.28h3" stroke-linecap="butt" fill="none" stroke="#000"/></g><g><g clip-path="url(#0)"><path d="m276.82 278l-281.82-281.82" stroke-linejoin="round" stroke-linecap="round" fill="none" stroke="#fcc"/></g><g clip-path="url(#0)"><path d="m35.1 33.28c0 1.657-1.343 3-3 3-1.657 0-3-1.343-3-3 0-1.656 1.343-3 3-3 1.657 0 3 1.344 3 3" fill="#f03"/></g><g clip-path="url(#0)"><path d="m35.1 33.28c0 1.657-1.343 3-3 3-1.657 0-3-1.343-3-3 0-1.656 1.343-3 3-3 1.657 0 3 1.344 3 3z" stroke-linejoin="round" stroke-linecap="round" fill="none" stroke="#000"/></g><g clip-path="url(#0)"><path d="m87.05 85.23c0 1.656-1.343 3-3 3-1.657 0-3-1.344-3-3 0-1.657 1.343-3 3-3 1.657 0 3 1.343 3 3" fill="#f03"/></g><g clip-path="url(#0)"><path d="m87.05 85.23c0 1.656-1.343 3-3 3-1.657 0-3-1.344-3-3 0-1.657 1.343-3 3-3 1.657 0 3 1.343 3 3z" stroke-linejoin="round" stroke-linecap="round" fill="none" stroke="#000"/></g><g clip-path="url(#0)"><path d="m139 137.18c0 1.66-1.34 3-3 3-1.66 0-3-1.34-3-3 0-1.66 1.34-3 3-3 1.66 0 3 1.34 3 3" fill="#f03"/></g><g clip-path="url(#0)"><path d="m139 137.18c0 1.66-1.34 3-3 3-1.66 0-3-1.34-3-3 0-1.66 1.34-3 3-3 1.66 0 3 1.34 3 3z" stroke-linejoin="round" stroke-linecap="round" fill="none" stroke="#000"/></g><g clip-path="url(#0)"><path d="m190.95 189.13c0 1.66-1.34 3-3 3-1.66 0-3-1.34-3-3 0-1.66 1.34-3 3-3 1.66 0 3 1.34 3 3" fill="#f03"/></g><g clip-path="url(#0)"><path d="m190.95 189.13c0 1.66-1.34 3-3 3-1.66 0-3-1.34-3-3 0-1.66 1.34-3 3-3 1.66 0 3 1.34 3 3z" stroke-linejoin="round" stroke-linecap="round" fill="none" stroke="#000"/></g><g clip-path="url(#0)"><path d="m242.9 241.08c0 1.66-1.34 3-3 3-1.66 0-3-1.34-3-3 0-1.65 1.34-3 3-3 1.66 0 3 1.35 3 3" fill="#f03"/></g><g clip-path="url(#0)"><path d="m242.9 241.08c0 1.66-1.34 3-3 3-1.66 0-3-1.34-3-3 0-1.65 1.34-3 3-3 1.66 0 3 1.35 3 3z" stroke-linejoin="round" stroke-linecap="round" fill="none" stroke="#000"/></g></g></g></svg>