<svg xmlns="http://www.w3.org/2000/svg" width="179.82" height="153.15" viewBox="0 0 288 245"><defs><clipPath id="0"><path d="m0 0v247h290v-247z"/></clipPath></defs><g stroke-miterlimit="10" stroke-linecap="square"><g clip-path="url(#0)"><path d="m24.616 2v245" stroke-linecap="butt" fill="none" stroke="#000"/></g><g clip-path="url(#0)"><path d="m24.616 1l-3 3" stroke-linecap="butt" fill="none" stroke="#000"/></g><g clip-path="url(#0)"><path d="m24.616 1l3 3" stroke-linecap="butt" fill="none" stroke="#000"/></g><g clip-path="url(#0)"><path d="m0 214.51h288" stroke-linecap="butt" fill="none" stroke="#000"/></g><g clip-path="url(#0)"><path d="m289 214.51l-3-3" stroke-linecap="butt" fill="none" stroke="#000"/></g><g clip-path="url(#0)"><path d="m289 214.51l-3 3" stroke-linecap="butt" fill="none" stroke="#000"/></g><g clip-path="url(#0)"><text font-style="italic" font-family="serif" font-size="10" x="0" y="0" transform="translate(30 228)">0</text></g><g clip-path="url(#0)"><path d="m24.616 214.51v3" stroke-linecap="butt" fill="none" stroke="#000"/></g><g clip-path="url(#0)"><text font-style="italic" font-family="serif" font-size="10" x="0" y="0" transform="translate(80 228)">1</text></g><g clip-path="url(#0)"><path d="m81.76 214.51v3" stroke-linecap="butt" fill="none" stroke="#000"/></g><g clip-path="url(#0)"><text font-style="italic" font-family="serif" font-size="10" x="0" y="0" transform="translate(137 228)">2</text></g><g clip-path="url(#0)"><path d="m138.91 214.51v3" stroke-linecap="butt" fill="none" stroke="#000"/></g><g clip-path="url(#0)"><text font-style="italic" font-family="serif" font-size="10" x="0" y="0" transform="translate(194 228)">3</text></g><g clip-path="url(#0)"><path d="m196.05 214.51v3" stroke-linecap="butt" fill="none" stroke="#000"/></g><g clip-path="url(#0)"><text font-style="italic" font-family="serif" font-size="10" x="0" y="0" transform="translate(251 228)">4</text></g><g clip-path="url(#0)"><path d="m253.2 214.51v3" stroke-linecap="butt" fill="none" stroke="#000"/></g><g clip-path="url(#0)"><text font-style="italic" font-family="serif" font-size="10" x="0" y="0" transform="translate(13 212)">0</text></g><g clip-path="url(#0)"><text font-style="italic" font-family="serif" font-size="10" x="0" y="0" transform="translate(13 161)">1</text></g><g clip-path="url(#0)"><path d="m21.616 157.37h3" stroke-linecap="butt" fill="none" stroke="#000"/></g><g clip-path="url(#0)"><text font-style="italic" font-family="serif" font-size="10" x="0" y="0" transform="translate(13 104)">2</text></g><g clip-path="url(#0)"><path d="m21.616 100.22h3" stroke-linecap="butt" fill="none" stroke="#000"/></g><g clip-path="url(#0)"><text font-style="italic" font-family="serif" font-size="10" x="0" y="0" transform="translate(13 47)">3</text></g><g clip-path="url(#0)"><path d="m21.616 43.08h3" stroke-linecap="butt" fill="none" stroke="#000"/></g><g><g clip-path="url(#0)"><path d="m27.616 43.08c0 1.657-1.343 3-3 3-1.657 0-3-1.343-3-3 0-1.657 1.343-3 3-3 1.657 0 3 1.343 3 3" fill="#7d7dff"/></g><g clip-path="url(#0)"><path d="m27.616 43.08c0 1.657-1.343 3-3 3-1.657 0-3-1.343-3-3 0-1.657 1.343-3 3-3 1.657 0 3 1.343 3 3z" stroke-linejoin="round" stroke-linecap="round" fill="none" stroke="#000"/></g><g clip-path="url(#0)"><path d="m141.91 171.65c0 1.66-1.35 3-3 3-1.66 0-3-1.34-3-3 0-1.65 1.34-3 3-3 1.65 0 3 1.35 3 3" fill="#00f"/></g><g clip-path="url(#0)"><path d="m141.91 171.65c0 1.66-1.35 3-3 3-1.66 0-3-1.34-3-3 0-1.65 1.34-3 3-3 1.65 0 3 1.35 3 3z" stroke-linejoin="round" stroke-linecap="round" fill="none" stroke="#000"/></g><g clip-path="url(#0)"><path d="m199.05 193.08c0 1.66-1.34 3-3 3-1.66 0-3-1.34-3-3 0-1.65 1.34-3 3-3 1.66 0 3 1.35 3 3" fill="#00f"/></g><g clip-path="url(#0)"><path d="m199.05 193.08c0 1.66-1.34 3-3 3-1.66 0-3-1.34-3-3 0-1.65 1.34-3 3-3 1.66 0 3 1.35 3 3z" stroke-linejoin="round" stroke-linecap="round" fill="none" stroke="#000"/></g><g clip-path="url(#0)"><path d="m256.2 203.8c0 1.65-1.35 3-3 3-1.66 0-3-1.35-3-3 0-1.66 1.34-3 3-3 1.65 0 3 1.34 3 3" fill="#00f"/></g><g clip-path="url(#0)"><path d="m256.2 203.8c0 1.65-1.35 3-3 3-1.66 0-3-1.35-3-3 0-1.66 1.34-3 3-3 1.65 0 3 1.34 3 3z" stroke-linejoin="round" stroke-linecap="round" fill="none" stroke="#000"/></g><g clip-path="url(#0)"><path d="m84.76 128.79c0 1.66-1.343 3-3 3-1.656 0-3-1.34-3-3 0-1.65 1.344-3 3-3 1.657 0 3 1.35 3 3" fill="#00f"/></g><g clip-path="url(#0)"><path d="m84.76 128.79c0 1.66-1.343 3-3 3-1.656 0-3-1.34-3-3 0-1.65 1.344-3 3-3 1.657 0 3 1.35 3 3z" stroke-linejoin="round" stroke-linecap="round" fill="none" stroke="#000"/></g></g></g></svg>