<svg xmlns="http://www.w3.org/2000/svg" width="205.86" height="187.26" viewBox="0 0 330 300"><defs><clipPath id="0"><path d="m0 0v302h332v-302z"/></clipPath></defs><g stroke-miterlimit="10" stroke-linecap="square"><g clip-path="url(#0)"><path d="m45.616 2v300" stroke-linecap="butt" fill="none" stroke="#000"/></g><g clip-path="url(#0)"><path d="m45.616 1l-3 3" stroke-linecap="butt" fill="none" stroke="#000"/></g><g clip-path="url(#0)"><path d="m45.616 1l3 3" stroke-linecap="butt" fill="none" stroke="#000"/></g><g clip-path="url(#0)"><path d="m0 265.51h330" stroke-linecap="butt" fill="none" stroke="#000"/></g><g clip-path="url(#0)"><path d="m331 265.51l-3-3" stroke-linecap="butt" fill="none" stroke="#000"/></g><g clip-path="url(#0)"><path d="m331 265.51l-3 3" stroke-linecap="butt" fill="none" stroke="#000"/></g><g clip-path="url(#0)"><text font-style="italic" font-family="serif" font-size="10" x="0" y="0" transform="translate(51 279)">0</text></g><g clip-path="url(#0)"><path d="m45.616 265.51v3" stroke-linecap="butt" fill="none" stroke="#000"/></g><g clip-path="url(#0)"><text font-style="italic" font-family="serif" font-size="10" x="0" y="0" transform="translate(101 279)">1</text></g><g clip-path="url(#0)"><path d="m102.76 265.51v3" stroke-linecap="butt" fill="none" stroke="#000"/></g><g clip-path="url(#0)"><text font-style="italic" font-family="serif" font-size="10" x="0" y="0" transform="translate(158 279)">2</text></g><g clip-path="url(#0)"><path d="m159.91 265.51v3" stroke-linecap="butt" fill="none" stroke="#000"/></g><g clip-path="url(#0)"><text font-style="italic" font-family="serif" font-size="10" x="0" y="0" transform="translate(215 279)">3</text></g><g clip-path="url(#0)"><path d="m217.05 265.51v3" stroke-linecap="butt" fill="none" stroke="#000"/></g><g clip-path="url(#0)"><text font-style="italic" font-family="serif" font-size="10" x="0" y="0" transform="translate(272 279)">4</text></g><g clip-path="url(#0)"><path d="m274.2 265.51v3" stroke-linecap="butt" fill="none" stroke="#000"/></g><g clip-path="url(#0)"><text font-style="italic" font-family="serif" font-size="10" x="0" y="0" transform="translate(34 263)">0</text></g><g clip-path="url(#0)"><text font-style="italic" font-family="serif" font-size="10" x="0" y="0" transform="translate(34 212)">1</text></g><g clip-path="url(#0)"><path d="m42.616 208.37h3" stroke-linecap="butt" fill="none" stroke="#000"/></g><g clip-path="url(#0)"><text font-style="italic" font-family="serif" font-size="10" x="0" y="0" transform="translate(34 155)">2</text></g><g clip-path="url(#0)"><path d="m42.616 151.22h3" stroke-linecap="butt" fill="none" stroke="#000"/></g><g clip-path="url(#0)"><text font-style="italic" font-family="serif" font-size="10" x="0" y="0" transform="translate(34 98)">3</text></g><g clip-path="url(#0)"><path d="m42.616 94.08h3" stroke-linecap="butt" fill="none" stroke="#000"/></g><g clip-path="url(#0)"><text font-style="italic" font-family="serif" font-size="10" x="0" y="0" transform="translate(34 40)">4</text></g><g clip-path="url(#0)"><path d="m42.616 36.932h3" stroke-linecap="butt" fill="none" stroke="#000"/></g><g><g clip-path="url(#0)"><path d="m48.616 36.932c0 1.657-1.343 3-3 3-1.657 0-3-1.343-3-3 0-1.657 1.343-3 3-3 1.657 0 3 1.343 3 3" fill="#7d7dff"/></g><g clip-path="url(#0)"><path d="m48.616 36.932c0 1.657-1.343 3-3 3-1.657 0-3-1.343-3-3 0-1.657 1.343-3 3-3 1.657 0 3 1.343 3 3z" stroke-linejoin="round" stroke-linecap="round" fill="none" stroke="#000"/></g><g clip-path="url(#0)"><path d="m105.76 122.65c0 1.66-1.34 3-3 3-1.66 0-2.999-1.34-2.999-3 0-1.66 1.339-3 2.999-3 1.66 0 3 1.34 3 3" fill="#00f"/></g><g clip-path="url(#0)"><path d="m105.76 122.65c0 1.66-1.34 3-3 3-1.66 0-2.999-1.34-2.999-3 0-1.66 1.339-3 2.999-3 1.66 0 3 1.34 3 3z" stroke-linejoin="round" stroke-linecap="round" fill="none" stroke="#000"/></g><g clip-path="url(#0)"><path d="m162.91 151.22c0 1.66-1.35 3-3 3-1.66 0-3-1.34-3-3 0-1.65 1.34-3 3-3 1.65 0 3 1.35 3 3" fill="#00f"/></g><g clip-path="url(#0)"><path d="m162.91 151.22c0 1.66-1.35 3-3 3-1.66 0-3-1.34-3-3 0-1.65 1.34-3 3-3 1.65 0 3 1.35 3 3z" stroke-linejoin="round" stroke-linecap="round" fill="none" stroke="#000"/></g><g clip-path="url(#0)"><path d="m220.05 165.51c0 1.66-1.34 3-3 3-1.66 0-3-1.34-3-3 0-1.66 1.34-3 3-3 1.66 0 3 1.34 3 3" fill="#00f"/></g><g clip-path="url(#0)"><path d="m220.05 165.51c0 1.66-1.34 3-3 3-1.66 0-3-1.34-3-3 0-1.66 1.34-3 3-3 1.66 0 3 1.34 3 3z" stroke-linejoin="round" stroke-linecap="round" fill="none" stroke="#000"/></g><g clip-path="url(#0)"><path d="m277.2 174.08c0 1.66-1.35 3-3 3-1.66 0-3-1.34-3-3 0-1.66 1.34-3 3-3 1.65 0 3 1.34 3 3" fill="#00f"/></g><g clip-path="url(#0)"><path d="m277.2 174.08c0 1.66-1.35 3-3 3-1.66 0-3-1.34-3-3 0-1.66 1.34-3 3-3 1.65 0 3 1.34 3 3z" stroke-linejoin="round" stroke-linecap="round" fill="none" stroke="#000"/></g></g></g></svg>