<svg xmlns="http://www.w3.org/2000/svg" width="473.69" height="293.67" viewBox="0 0 419 259" xmlns:xlink="http://www.w3.org/1999/xlink"><defs><clipPath id="0"><path d="m0 0v261h421v-261z"/></clipPath></defs><g stroke-miterlimit="10" stroke-linecap="square"><g clip-path="url(#0)"><path d="m17.574 2v259" stroke-linecap="butt" fill="none" stroke="#000"/></g><g clip-path="url(#0)"><path d="m17.574 1l-3 3" stroke-linecap="butt" fill="none" stroke="#000"/></g><g clip-path="url(#0)"><path d="m17.574 1l3 3" stroke-linecap="butt" fill="none" stroke="#000"/></g><g clip-path="url(#0)"><path d="m0 240.73h419" stroke-linecap="butt" fill="none" stroke="#000"/></g><g clip-path="url(#0)"><path d="m420 240.73l-3-3" stroke-linecap="butt" fill="none" stroke="#000"/></g><g clip-path="url(#0)"><path d="m420 240.73l-3 3" stroke-linecap="butt" fill="none" stroke="#000"/></g><g clip-path="url(#0)"><text font-style="italic" font-family="serif" font-size="10" x="0" y="0" transform="translate(23 254)">0</text></g><g clip-path="url(#0)"><path d="m17.574 240.73v3" stroke-linecap="butt" fill="none" stroke="#000"/></g><g clip-path="url(#0)"><text font-style="italic" font-family="serif" font-size="10" x="0" y="0" transform="translate(47 254)">1</text></g><g clip-path="url(#0)"><path d="m49.06 240.73v3" stroke-linecap="butt" fill="none" stroke="#000"/></g><g clip-path="url(#0)"><text font-style="italic" font-family="serif" font-size="10" x="0" y="0" transform="translate(79 254)">2</text></g><g clip-path="url(#0)"><path d="m80.56 240.73v3" stroke-linecap="butt" fill="none" stroke="#000"/></g><g clip-path="url(#0)"><text font-style="italic" font-family="serif" font-size="10" x="0" y="0" transform="translate(110 254)">3</text></g><g clip-path="url(#0)"><path d="m112.05 240.73v3" stroke-linecap="butt" fill="none" stroke="#000"/></g><g clip-path="url(#0)"><text font-style="italic" font-family="serif" font-size="10" x="0" y="0" transform="translate(142 254)">4</text></g><g clip-path="url(#0)"><path d="m143.54 240.73v3" stroke-linecap="butt" fill="none" stroke="#000"/></g><g clip-path="url(#0)"><text font-style="italic" font-family="serif" font-size="10" x="0" y="0" transform="translate(173 254)">5</text></g><g clip-path="url(#0)"><path d="m175.03 240.73v3" stroke-linecap="butt" fill="none" stroke="#000"/></g><g clip-path="url(#0)"><text font-style="italic" font-family="serif" font-size="10" x="0" y="0" transform="translate(205 254)">6</text></g><g clip-path="url(#0)"><path d="m206.52 240.73v3" stroke-linecap="butt" fill="none" stroke="#000"/></g><g clip-path="url(#0)"><text font-style="italic" font-family="serif" font-size="10" x="0" y="0" transform="translate(236 254)">7</text></g><g clip-path="url(#0)"><path d="m238.01 240.73v3" stroke-linecap="butt" fill="none" stroke="#000"/></g><g clip-path="url(#0)"><text font-style="italic" font-family="serif" font-size="10" x="0" y="0" transform="translate(268 254)">8</text></g><g clip-path="url(#0)"><path d="m269.51 240.73v3" stroke-linecap="butt" fill="none" stroke="#000"/></g><g clip-path="url(#0)"><text font-style="italic" font-family="serif" font-size="10" x="0" y="0" transform="translate(299 254)">9</text></g><g clip-path="url(#0)"><path d="m301 240.73v3" stroke-linecap="butt" fill="none" stroke="#000"/></g><g clip-path="url(#0)"><text font-style="italic" font-family="serif" font-size="10" x="0" y="0" transform="translate(328 254)">10</text></g><g clip-path="url(#0)"><path d="m332.49 240.73v3" stroke-linecap="butt" fill="none" stroke="#000"/></g><g clip-path="url(#0)"><text font-style="italic" font-family="serif" font-size="10" x="0" y="0" transform="translate(359 254)">11</text></g><g clip-path="url(#0)"><path d="m363.98 240.73v3" stroke-linecap="butt" fill="none" stroke="#000"/></g><g clip-path="url(#0)"><text font-style="italic" font-family="serif" font-size="10" x="0" y="0" transform="translate(391 254)">12</text></g><g clip-path="url(#0)"><path d="m395.47 240.73v3" stroke-linecap="butt" fill="none" stroke="#000"/></g><g clip-path="url(#0)"><text font-style="italic" font-family="serif" font-size="10" x="0" y="0" transform="translate(6 238)">0</text></g><g clip-path="url(#0)"><text font-style="italic" font-family="serif" font-size="10" x="0" y="0" transform="translate(6 213)">1</text></g><g clip-path="url(#0)"><path d="m14.574 209.24h3" stroke-linecap="butt" fill="none" stroke="#000"/></g><g clip-path="url(#0)"><text font-style="italic" font-family="serif" font-size="10" x="0" y="0" transform="translate(6 181)">2</text></g><g clip-path="url(#0)"><path d="m14.574 177.75h3" stroke-linecap="butt" fill="none" stroke="#000"/></g><g clip-path="url(#0)"><text font-style="italic" font-family="serif" font-size="10" x="0" y="0" transform="translate(6 150)">3</text></g><g clip-path="url(#0)"><path d="m14.574 146.25h3" stroke-linecap="butt" fill="none" stroke="#000"/></g><g clip-path="url(#0)"><text font-style="italic" font-family="serif" font-size="10" x="0" y="0" transform="translate(6 118)">4</text></g><g clip-path="url(#0)"><path d="m14.574 114.76h3" stroke-linecap="butt" fill="none" stroke="#000"/></g><g clip-path="url(#0)"><text font-style="italic" font-family="serif" font-size="10" x="0" y="0" transform="translate(6 87)">5</text></g><g clip-path="url(#0)"><path d="m14.574 83.27h3" stroke-linecap="butt" fill="none" stroke="#000"/></g><g clip-path="url(#0)"><text font-style="italic" font-family="serif" font-size="10" x="0" y="0" transform="translate(6 55)">6</text></g><g clip-path="url(#0)"><path d="m14.574 51.78h3" stroke-linecap="butt" fill="none" stroke="#000"/></g><g clip-path="url(#0)"><text font-style="italic" font-family="serif" font-size="10" x="0" y="0" transform="translate(6 24)">7</text></g><g clip-path="url(#0)"><path d="m14.574 20.289h3" stroke-linecap="butt" fill="none" stroke="#000"/></g><g clip-path="url(#0)"><path d="m49.06 0v240.73" stroke-linejoin="round" stroke-linecap="round" fill="none" stroke="#e0e0e0"/></g><g clip-path="url(#0)"><path d="m49.06 259.73v1.27" stroke-linejoin="round" stroke-linecap="round" fill="none" stroke="#e0e0e0"/></g><g clip-path="url(#0)"><path d="m80.56 0v240.73" stroke-linejoin="round" stroke-linecap="round" fill="none" stroke="#e0e0e0"/></g><g clip-path="url(#0)"><path d="m80.56 259.73v1.27" stroke-linejoin="round" stroke-linecap="round" fill="none" stroke="#e0e0e0"/></g><g clip-path="url(#0)"><path d="m112.05 0v240.73" stroke-linejoin="round" stroke-linecap="round" fill="none" stroke="#e0e0e0"/></g><g clip-path="url(#0)"><path d="m112.05 259.73v1.27" stroke-linejoin="round" stroke-linecap="round" fill="none" stroke="#e0e0e0"/></g><g clip-path="url(#0)"><path d="m143.54 0v240.73" stroke-linejoin="round" stroke-linecap="round" fill="none" stroke="#e0e0e0"/></g><g clip-path="url(#0)"><path d="m143.54 259.73v1.27" stroke-linejoin="round" stroke-linecap="round" fill="none" stroke="#e0e0e0"/></g><g clip-path="url(#0)"><path d="m175.03 0v240.73" stroke-linejoin="round" stroke-linecap="round" fill="none" stroke="#e0e0e0"/></g><g clip-path="url(#0)"><path d="m175.03 259.73v1.27" stroke-linejoin="round" stroke-linecap="round" fill="none" stroke="#e0e0e0"/></g><g clip-path="url(#0)"><path d="m206.52 0v240.73" stroke-linejoin="round" stroke-linecap="round" fill="none" stroke="#e0e0e0"/></g><g clip-path="url(#0)"><path d="m206.52 259.73v1.27" stroke-linejoin="round" stroke-linecap="round" fill="none" stroke="#e0e0e0"/></g><g clip-path="url(#0)"><path d="m238.01 0v240.73" stroke-linejoin="round" stroke-linecap="round" fill="none" stroke="#e0e0e0"/></g><g clip-path="url(#0)"><path d="m238.01 259.73v1.27" stroke-linejoin="round" stroke-linecap="round" fill="none" stroke="#e0e0e0"/></g><g clip-path="url(#0)"><path d="m269.51 0v240.73" stroke-linejoin="round" stroke-linecap="round" fill="none" stroke="#e0e0e0"/></g><g clip-path="url(#0)"><path d="m269.51 259.73v1.27" stroke-linejoin="round" stroke-linecap="round" fill="none" stroke="#e0e0e0"/></g><g clip-path="url(#0)"><path d="m301 0v240.73" stroke-linejoin="round" stroke-linecap="round" fill="none" stroke="#e0e0e0"/></g><g clip-path="url(#0)"><path d="m301 259.73v1.27" stroke-linejoin="round" stroke-linecap="round" fill="none" stroke="#e0e0e0"/></g><g clip-path="url(#0)"><path d="m332.49 0v240.73" stroke-linejoin="round" stroke-linecap="round" fill="none" stroke="#e0e0e0"/></g><g clip-path="url(#0)"><path d="m332.49 259.73v1.27" stroke-linejoin="round" stroke-linecap="round" fill="none" stroke="#e0e0e0"/></g><g clip-path="url(#0)"><path d="m363.98 0v240.73" stroke-linejoin="round" stroke-linecap="round" fill="none" stroke="#e0e0e0"/></g><g clip-path="url(#0)"><path d="m363.98 259.73v1.27" stroke-linejoin="round" stroke-linecap="round" fill="none" stroke="#e0e0e0"/></g><g clip-path="url(#0)"><path d="m395.47 0v240.73" stroke-linejoin="round" stroke-linecap="round" fill="none" stroke="#e0e0e0"/></g><g clip-path="url(#0)"><path d="m395.47 259.73v1.27" stroke-linejoin="round" stroke-linecap="round" fill="none" stroke="#e0e0e0"/></g><g clip-path="url(#0)"><path d="m0 20.289h2.01" stroke-linejoin="round" stroke-linecap="round" fill="none" stroke="#e0e0e0" id="1"/></g><g clip-path="url(#0)"><path d="m17.574 20.289h403.43" stroke-linejoin="round" stroke-linecap="round" fill="none" stroke="#e0e0e0" id="2"/></g><g clip-path="url(#0)"><use xlink:href="#1"/></g><g clip-path="url(#0)"><use xlink:href="#2"/></g><g clip-path="url(#0)"><path d="m0 51.78h2.01" stroke-linejoin="round" stroke-linecap="round" fill="none" stroke="#e0e0e0"/></g><g clip-path="url(#0)"><path d="m17.574 51.78h403.43" stroke-linejoin="round" stroke-linecap="round" fill="none" stroke="#e0e0e0"/></g><g clip-path="url(#0)"><path d="m0 83.27h2.01" stroke-linejoin="round" stroke-linecap="round" fill="none" stroke="#e0e0e0"/></g><g clip-path="url(#0)"><path d="m17.574 83.27h403.43" stroke-linejoin="round" stroke-linecap="round" fill="none" stroke="#e0e0e0"/></g><g clip-path="url(#0)"><path d="m0 114.76h2.01" stroke-linejoin="round" stroke-linecap="round" fill="none" stroke="#e0e0e0"/></g><g clip-path="url(#0)"><path d="m17.574 114.76h403.43" stroke-linejoin="round" stroke-linecap="round" fill="none" stroke="#e0e0e0"/></g><g clip-path="url(#0)"><path d="m0 146.25h2.01" stroke-linejoin="round" stroke-linecap="round" fill="none" stroke="#e0e0e0"/></g><g clip-path="url(#0)"><path d="m17.574 146.25h403.43" stroke-linejoin="round" stroke-linecap="round" fill="none" stroke="#e0e0e0"/></g><g clip-path="url(#0)"><path d="m0 177.75h2.01" stroke-linejoin="round" stroke-linecap="round" fill="none" stroke="#e0e0e0"/></g><g clip-path="url(#0)"><path d="m17.574 177.75h403.43" stroke-linejoin="round" stroke-linecap="round" fill="none" stroke="#e0e0e0"/></g><g clip-path="url(#0)"><path d="m0 209.24h2.01" stroke-linejoin="round" stroke-linecap="round" fill="none" stroke="#e0e0e0"/></g><g clip-path="url(#0)"><path d="m17.574 209.24h403.43" stroke-linejoin="round" stroke-linecap="round" fill="none" stroke="#e0e0e0"/></g><g><g clip-path="url(#0)"><path d="m51.06 193.49c0 1.11-.895 2-2 2-1.105 0-2-.89-2-2 0-1.1.895-2 2-2 1.105 0 2 .9 2 2" fill="#f00"/></g><g clip-path="url(#0)"><path d="m51.06 193.49c0 1.11-.895 2-2 2-1.105 0-2-.89-2-2 0-1.1.895-2 2-2 1.105 0 2 .9 2 2z" stroke-linejoin="round" stroke-linecap="round" fill="none" stroke="#000"/></g><g clip-path="url(#0)"><path d="m82.56 177.75c0 1.1-.895 2-2 2-1.104 0-2-.9-2-2 0-1.11.896-2 2-2 1.105 0 2 .89 2 2" fill="#f00"/></g><g clip-path="url(#0)"><path d="m82.56 177.75c0 1.1-.895 2-2 2-1.104 0-2-.9-2-2 0-1.11.896-2 2-2 1.105 0 2 .89 2 2z" stroke-linejoin="round" stroke-linecap="round" fill="none" stroke="#000"/></g><g clip-path="url(#0)"><path d="m114.05 162c0 1.1-.9 2-2 2-1.11 0-2-.9-2-2 0-1.1.89-2 2-2 1.1 0 2 .9 2 2" fill="#f00"/></g><g clip-path="url(#0)"><path d="m114.05 162c0 1.1-.9 2-2 2-1.11 0-2-.9-2-2 0-1.1.89-2 2-2 1.1 0 2 .9 2 2z" stroke-linejoin="round" stroke-linecap="round" fill="none" stroke="#000"/></g><g clip-path="url(#0)"><path d="m145.54 146.25c0 1.11-.9 2-2 2-1.11 0-2-.89-2-2 0-1.1.89-2 2-2 1.1 0 2 .9 2 2" fill="#f00"/></g><g clip-path="url(#0)"><path d="m145.54 146.25c0 1.11-.9 2-2 2-1.11 0-2-.89-2-2 0-1.1.89-2 2-2 1.1 0 2 .9 2 2z" stroke-linejoin="round" stroke-linecap="round" fill="none" stroke="#000"/></g><g clip-path="url(#0)"><path d="m177.03 130.51c0 1.1-.89 2-2 2-1.1 0-2-.9-2-2 0-1.11.9-2 2-2 1.11 0 2 .89 2 2" fill="#f00"/></g><g clip-path="url(#0)"><path d="m177.03 130.51c0 1.1-.89 2-2 2-1.1 0-2-.9-2-2 0-1.11.9-2 2-2 1.11 0 2 .89 2 2z" stroke-linejoin="round" stroke-linecap="round" fill="none" stroke="#000"/></g><g clip-path="url(#0)"><path d="m208.52 114.76c0 1.11-.89 2-2 2-1.1 0-2-.89-2-2 0-1.1.9-2 2-2 1.11 0 2 .9 2 2" fill="#f00"/></g><g clip-path="url(#0)"><path d="m208.52 114.76c0 1.11-.89 2-2 2-1.1 0-2-.89-2-2 0-1.1.9-2 2-2 1.11 0 2 .9 2 2z" stroke-linejoin="round" stroke-linecap="round" fill="none" stroke="#000"/></g><g clip-path="url(#0)"><path d="m240.01 99.02c0 1.103-.89 2-2 2-1.1 0-2-.9-2-2 0-1.104.9-2 2-2 1.11 0 2 .896 2 2" fill="#f00"/></g><g clip-path="url(#0)"><path d="m240.01 99.02c0 1.103-.89 2-2 2-1.1 0-2-.9-2-2 0-1.104.9-2 2-2 1.11 0 2 .896 2 2z" stroke-linejoin="round" stroke-linecap="round" fill="none" stroke="#000"/></g><g clip-path="url(#0)"><path d="m271.51 83.27c0 1.105-.9 2-2 2-1.11 0-2-.895-2-2 0-1.104.89-2 2-2 1.1 0 2 .896 2 2" fill="#f00"/></g><g clip-path="url(#0)"><path d="m271.51 83.27c0 1.105-.9 2-2 2-1.11 0-2-.895-2-2 0-1.104.89-2 2-2 1.1 0 2 .896 2 2z" stroke-linejoin="round" stroke-linecap="round" fill="none" stroke="#000"/></g><g clip-path="url(#0)"><path d="m303 67.53c0 1.104-.9 2-2 2-1.11 0-2-.896-2-2 0-1.105.89-2 2-2 1.1 0 2 .895 2 2" fill="#f00"/></g><g clip-path="url(#0)"><path d="m303 67.53c0 1.104-.9 2-2 2-1.11 0-2-.896-2-2 0-1.105.89-2 2-2 1.1 0 2 .895 2 2z" stroke-linejoin="round" stroke-linecap="round" fill="none" stroke="#000"/></g><g clip-path="url(#0)"><path d="m334.49 51.78c0 1.105-.9 2-2 2-1.11 0-2-.895-2-2 0-1.105.89-2 2-2 1.1 0 2 .895 2 2" fill="#f00"/></g><g clip-path="url(#0)"><path d="m334.49 51.78c0 1.105-.9 2-2 2-1.11 0-2-.895-2-2 0-1.105.89-2 2-2 1.1 0 2 .895 2 2z" stroke-linejoin="round" stroke-linecap="round" fill="none" stroke="#000"/></g><g clip-path="url(#0)"><path d="m365.98 36.03c0 1.105-.9 2-2 2-1.11 0-2-.895-2-2 0-1.104.89-2 2-2 1.1 0 2 .896 2 2" fill="#f00"/></g><g clip-path="url(#0)"><path d="m365.98 36.03c0 1.105-.9 2-2 2-1.11 0-2-.895-2-2 0-1.104.89-2 2-2 1.1 0 2 .896 2 2z" stroke-linejoin="round" stroke-linecap="round" fill="none" stroke="#000"/></g><g clip-path="url(#0)"><path d="m397.47 20.289c0 1.104-.89 2-2 2-1.1 0-2-.896-2-2 0-1.105.9-2 2-2 1.11 0 2 .895 2 2" fill="#f00"/></g><g clip-path="url(#0)"><path d="m397.47 20.289c0 1.104-.89 2-2 2-1.1 0-2-.896-2-2 0-1.105.9-2 2-2 1.11 0 2 .895 2 2z" stroke-linejoin="round" stroke-linecap="round" fill="none" stroke="#000"/></g><g clip-path="url(#0)"><path d="m19.574 209.24c0 1.1-.896 2-2 2-1.105 0-2-.9-2-2 0-1.11.895-2 2-2 1.104 0 2 .89 2 2" fill="#f00"/></g><g clip-path="url(#0)"><path d="m19.574 209.24c0 1.1-.896 2-2 2-1.105 0-2-.9-2-2 0-1.11.895-2 2-2 1.104 0 2 .89 2 2z" stroke-linejoin="round" stroke-linecap="round" fill="none" stroke="#000"/></g></g></g></svg>