<svg xmlns="http://www.w3.org/2000/svg" width="447.95" height="668.59" viewBox="0 0 267 399" xmlns:xlink="http://www.w3.org/1999/xlink"><defs><clipPath id="5"><path d="m-7.4-15.08v26.667h17.867v-26.667z"/></clipPath><clipPath id="4"><path d="m-7.279-14.848v26.667h17.867v-26.667z"/></clipPath><clipPath id="6"><path d="m-15.533-1.228v26.667h17.866v-26.667z"/></clipPath><clipPath id="3"><path d="m-11-19.81v26.667h17.867v-26.667z"/></clipPath><clipPath id="1"><path d="m-15.667-10.631v26.667h17.867v-26.667z"/></clipPath><clipPath id="0"><path d="m0 0v400h268v-400z"/></clipPath><clipPath id="2"><path d="m-10.845-19.581v26.667h17.866v-26.667z"/></clipPath></defs><g stroke-miterlimit="10" stroke-linecap="square"><g clip-path="url(#0)"><path d="m120.09 2v398" stroke-linecap="butt" fill="none" stroke="#000"/></g><g clip-path="url(#0)"><path d="m120.09 1l-3 3" stroke-linecap="butt" fill="none" stroke="#000"/></g><g clip-path="url(#0)"><path d="m120.09 1l3 3" stroke-linecap="butt" fill="none" stroke="#000"/></g><g clip-path="url(#0)"><path d="m0 277.75h266" stroke-linecap="butt" fill="none" stroke="#000"/></g><g clip-path="url(#0)"><path d="m267 277.75l-3-3" stroke-linecap="butt" fill="none" stroke="#000"/></g><g clip-path="url(#0)"><path d="m267 277.75l-3 3" stroke-linecap="butt" fill="none" stroke="#000"/></g><g clip-path="url(#0)"><path d="m10.516 288.34v-.65h3.968v.65h-3.968m8.203 2.66h-.875v-5.59q-.313.29-.828.6-.516.3-.922.44v-.84q.734-.34 1.289-.84.555-.49.773-.96h.563v7.19"/></g><g clip-path="url(#0)"><path d="m14.1 277.75v3" stroke-linecap="butt" fill="none" stroke="#000"/></g><g clip-path="url(#0)"><path d="m126.42 287.47q0-1.27.26-2.04.26-.77.77-1.2.52-.42 1.3-.42.58 0 1.01.24.43.23.72.67.29.44.44 1.06.16.63.16 1.69 0 1.26-.26 2.04-.26.77-.77 1.19-.52.42-1.3.42-1.03 0-1.63-.74-.7-.9-.7-2.91m.89 0q0 1.76.42 2.35.41.59 1.02.59.61 0 1.02-.59.42-.59.42-2.35 0-1.77-.42-2.35-.41-.57-1.04-.57-.59 0-.96.5-.46.65-.46 2.42"/></g><g clip-path="url(#0)"><path d="m120.09 277.75v3" stroke-linecap="butt" fill="none" stroke="#000"/></g><g clip-path="url(#0)"><path d="m227.72 291h-.88v-5.59q-.31.29-.82.6-.52.3-.93.44v-.84q.74-.34 1.29-.84.56-.49.78-.96h.56v7.19"/></g><g clip-path="url(#0)"><path d="m226.08 277.75v3" stroke-linecap="butt" fill="none" stroke="#000"/></g><g clip-path="url(#0)"><path d="m103.52 384.34v-.65h3.96v.65h-3.96m8.2 2.66h-.88v-5.59q-.31.29-.82.6-.52.3-.93.44v-.84q.74-.34 1.29-.84.56-.49.78-.96h.56v7.19"/></g><g clip-path="url(#0)"><path d="m117.09 383.74h3" stroke-linecap="butt" fill="none" stroke="#000"/></g><g clip-path="url(#0)"><path d="m108.42 271.47q0-1.27.26-2.04.26-.77.77-1.2.52-.42 1.3-.42.58 0 1.01.24.43.23.72.67.29.44.44 1.06.16.63.16 1.69 0 1.26-.26 2.04-.26.77-.77 1.19-.52.42-1.3.42-1.03 0-1.63-.74-.7-.9-.7-2.91m.89 0q0 1.76.42 2.35.41.59 1.02.59.61 0 1.02-.59.42-.59.42-2.35 0-1.77-.42-2.35-.41-.57-1.04-.57-.59 0-.96.5-.46.65-.46 2.42"/></g><g clip-path="url(#0)"><path d="m111.72 175h-.88v-5.59q-.31.29-.82.6-.52.3-.93.44v-.84q.74-.34 1.29-.84.56-.49.78-.96h.56v7.19"/></g><g clip-path="url(#0)"><path d="m117.09 171.75h3" stroke-linecap="butt" fill="none" stroke="#000"/></g><g clip-path="url(#0)"><path d="m113.03 68.16v.844h-4.73q0-.312.11-.609.18-.485.57-.953.4-.469 1.16-1.079 1.16-.968 1.57-1.523.41-.555.41-1.055 0-.531-.37-.883-.37-.351-.97-.351-.64 0-1.02.375-.38.375-.38 1.047l-.91-.094q.09-1 .69-1.531.61-.532 1.64-.532 1.03 0 1.63.571.6.57.6 1.414 0 .437-.18.851-.18.414-.58.875-.41.461-1.36 1.258-.79.657-1.01.899-.23.242-.37.476h3.5"/></g><g clip-path="url(#0)"><path d="m117.09 65.76h3" stroke-linecap="butt" fill="none" stroke="#000"/></g><g><g clip-path="url(#0)"><path d="m226.08 277.75c0 58.54-47.45 105.99-105.99 105.99-58.54 0-106-47.45-106-105.99 0-58.54 47.45-106 106-106 58.54 0 105.99 47.46 105.99 106z" stroke-linejoin="round" stroke-linecap="round" fill="none" stroke="#000"/></g><g clip-path="url(#0)"><path d="m226.08 56.22c-71.17 20.336-131.15 68.47-166.41 133.55" stroke-linejoin="round" stroke-linecap="round" fill="none" stroke="#006400"/></g><g clip-path="url(#0)"><path d="m226.08 277.75c0-39.35-21.8-75.47-56.62-93.8-34.82-18.33-76.936-15.85-109.37 6.42" stroke-linejoin="round" stroke-width="1.5" stroke-linecap="round" fill="none" stroke="#f03"/></g><g clip-path="url(#0)"><path d="m210.03 181.82c-16.7-15.65-37.19-26.68-59.45-31.98" stroke-linejoin="round" stroke-linecap="round" fill="none" stroke="#000"/></g><g clip-path="url(#0)"><path d="m150.09 277.75c0-11.14-6.17-21.36-16.03-26.55-9.85-5.19-21.77-4.49-30.95 1.82l16.98 24.73z" fill-opacity=".098" fill="#800080"/></g><g clip-path="url(#0)"><path d="m150.09 277.75c0-11.14-6.17-21.36-16.03-26.55-9.85-5.19-21.77-4.49-30.95 1.82l16.98 24.73z" stroke-linejoin="round" stroke-linecap="round" fill="none" stroke="#800080"/></g><g clip-path="url(#0)"><path d="m103.11 253.02l10.01-7.99 2.79 7.6z" fill-rule="evenodd" fill="#800080"/></g><g clip-path="url(#0)"><path d="m226.08 405v-410" stroke-linejoin="round" stroke-width="1.5" stroke-linecap="round" fill="none" stroke="#000"/></g><g clip-path="url(#0)"><path d="m226.08 277.75v-221.53" stroke-linejoin="round" stroke-width="1.5" stroke-linecap="round" fill="none" stroke="#f03"/></g><g clip-path="url(#0)"><path d="m150.83 149.9l4.94 4.73" stroke-linejoin="round" stroke-linecap="round" fill="none" stroke="#000"/></g><g clip-path="url(#0)"><path d="m150.83 149.9l7.42-2.52" stroke-linejoin="round" stroke-linecap="round" fill="none" stroke="#000"/></g><g clip-path="url(#0)"><path d="m120.09 277.75l-60.42-87.98" stroke-linejoin="round" stroke-linecap="round" fill="none" stroke="#800080"/></g><g clip-path="url(#0)"><path d="m59.672 189.77l6.336-5.4" stroke-linejoin="round" stroke-linecap="round" fill="none" stroke="#006400"/></g><g clip-path="url(#0)"><path d="m59.672 189.77l1.122-8.01" stroke-linejoin="round" stroke-linecap="round" fill="none" stroke="#006400"/></g><g clip-path="url(#0)"><path d="m120.09 277.75h91.99" stroke-linejoin="round" stroke-linecap="round" fill="none" stroke="#000"/></g><g clip-path="url(#0)"><path d="m226.08 277.75l-14 3.5v-7z" fill-rule="evenodd"/></g><g clip-path="url(#0)"><path d="m120.09 277.75l-.2-92" stroke-linejoin="round" stroke-linecap="round" fill="none" stroke="#000"/></g><g clip-path="url(#0)"><path d="m119.86 171.75l3.53 14-7 .001z" fill-rule="evenodd"/></g><g clip-path="url(#0)"><path d="m120.09 277.75l-52.49-76.44" stroke-linejoin="round" stroke-linecap="round" fill="none" stroke="#f0f"/></g><g clip-path="url(#0)"><path d="m59.672 189.77l10.811 9.56-5.77 3.96z" fill-rule="evenodd" fill="#f0f"/></g><g clip-path="url(#0)"><path d="m123.09 277.75c0 1.65-1.34 3-3 3-1.66 0-3-1.35-3-3 0-1.66 1.34-3 3-3 1.66 0 3 1.34 3 3" fill="#4b0082"/></g><g clip-path="url(#0)"><path d="m123.09 277.75c0 1.65-1.34 3-3 3-1.66 0-3-1.35-3-3 0-1.66 1.34-3 3-3 1.66 0 3 1.34 3 3z" stroke-linejoin="round" stroke-linecap="round" fill="none" stroke="#000"/></g><g clip-path="url(#0)"><path d="m107.58 291.81q0-2.14 1.15-3.35 1.15-1.21 2.96-1.21 1.2 0 2.15.57.96.57 1.46 1.59.5 1.01.5 2.31 0 1.3-.53 2.33-.54 1.03-1.5 1.56-.96.53-2.08.53-1.22 0-2.17-.59-.96-.58-1.45-1.59-.49-1.01-.49-2.15m1.17.02q0 1.56.84 2.45.83.89 2.1.89 1.28 0 2.11-.9.82-.89.82-2.57 0-1.04-.35-1.82-.35-.79-1.04-1.22-.68-.43-1.53-.43-1.2 0-2.08.83-.87.83-.87 2.77" fill="#4b0082"/></g><g clip-path="url(#0)"><path d="m228.08 277.75c0 1.1-.89 2-2 2-1.1 0-2-.9-2-2 0-1.11.9-2 2-2 1.11 0 2 .89 2 2" fill="#00c"/></g><g clip-path="url(#0)"><path d="m228.08 277.75c0 1.1-.89 2-2 2-1.1 0-2-.9-2-2 0-1.11.9-2 2-2 1.11 0 2 .89 2 2z" stroke-linejoin="round" stroke-linecap="round" fill="none" stroke="#000"/></g><g clip-path="url(#0)"><path d="m231.12 274v-8.59h1.13v8.59h-1.13" fill="#00c"/></g><g clip-path="url(#0)"><path d="m61.672 189.77c0 1.11-.895 2-2 2-1.104 0-2-.89-2-2 0-1.1.896-2 2-2 1.105 0 2 .9 2 2" fill="#00c"/></g><g clip-path="url(#0)"><path d="m61.672 189.77c0 1.11-.895 2-2 2-1.104 0-2-.89-2-2 0-1.1.896-2 2-2 1.105 0 2 .9 2 2z" stroke-linejoin="round" stroke-linecap="round" fill="none" stroke="#000"/></g><g clip-path="url(#0)"><path d="m44.891 188v-8.59h1.718l2.032 6.07q.281.86.406 1.29.141-.47.453-1.38l2.062-5.98h1.532v8.59h-1.094v-7.19l-2.5 7.19h-1.031l-2.485-7.31v7.31h-1.093" fill="#00c"/></g><g clip-path="url(#0)"><path d="m228.08 56.22c0 1.105-.89 2-2 2-1.1 0-2-.895-2-2 0-1.104.9-2 2-2 1.11 0 2 .896 2 2" fill="#00f"/></g><g clip-path="url(#0)"><path d="m228.08 56.22c0 1.105-.89 2-2 2-1.1 0-2-.895-2-2 0-1.104.9-2 2-2 1.11 0 2 .896 2 2z" stroke-linejoin="round" stroke-linecap="round" fill="none" stroke="#000"/></g><g clip-path="url(#0)"><path d="m230.92 52v-8.594h1.16l4.51 6.75v-6.75h1.1v8.594h-1.17l-4.52-6.75v6.75h-1.08" fill="#00f"/></g><g clip-path="url(#0)"><path d="m120.86 171.75c0 .56-.45 1-1 1-.55 0-1-.44-1-1 0-.55.45-1 1-1 .55 0 1 .45 1 1" fill="#00c"/></g><g clip-path="url(#0)"><path d="m120.86 171.75c0 .56-.45 1-1 1-.55 0-1-.44-1-1 0-.55.45-1 1-1 .55 0 1 .45 1 1z" stroke-linejoin="round" stroke-linecap="round" fill="none" stroke="#000"/></g><g clip-path="url(#0)"><path d="m124.34 167.56l1.04-.14q.03.99.35 1.35.33.35.93.35.42 0 .73-.19.31-.2.43-.53.12-.34.12-1.07v-5.92h1.12v5.86q0 1.07-.26 1.67-.25.59-.82.9-.56.3-1.32.3-1.13 0-1.73-.65-.6-.65-.59-1.93" fill="#00c"/></g><g clip-path="url(#0)"><path d="m189.02 149.22v-4.7h-4.68v-1.97h4.68v-4.69h1.98v4.69h4.69v1.97h-4.69v4.7h-1.98"/></g><g clip-path="url(#1)" transform="matrix(15 0 0 15 235 159.46)"><path d="m.328-.297l-.031.125q-.016.078-.016.094 0 .047.031.063.016 0 .031 0 .047 0 .078-.047.031-.031.047-.078 0-.016.016-.016.016 0 .016.016 0 .016-.031.062-.063.094-.125.094-.078 0-.109-.063 0-.016 0-.016-.031.047-.078.063-.016.016-.031.016-.063 0-.094-.047 0 0 0-.031 0-.031.031-.047.016 0 .016 0 .031 0 .047.016 0 .016 0 .016 0 .031-.031.047-.016 0-.016 0 .016.016.047.016.047 0 .078-.063.016-.016.016-.031.047-.203.047-.25 0-.063-.047-.063-.047 0-.094.063 0 0 0 0-.016.016-.031.047 0 0 0 .016l-.016.016q0 0 0 0-.016 0-.016 0 0-.031.031-.078.047-.078.125-.078.078 0 .109.078.031-.063.078-.078.016 0 .031 0 .063 0 .078.031.016.016.016.031 0 .047-.047.047 0 .016-.016.016-.031 0-.031-.031 0 0 0-.016 0-.031.031-.047 0 0 .016 0-.016-.016-.047-.016-.078 0-.094.109-.016 0-.016.016" fill="#f03"/></g><g clip-path="url(#2)" transform="matrix(15 0 0 15 162.68 293.72)"><path d="m.531-.594h-.313q-.031 0-.031-.016 0-.031.031-.031h.328q-.016-.016-.016-.047 0-.016.016-.031.016 0 .016.031.016.031.047.047.016.016.016.031 0 0-.016.016-.047.016-.078.063-.016.016-.016.016-.016 0-.031-.016 0-.016.047-.063" id="7"/></g><g clip-path="url(#3)" transform="matrix(15 0 0 15 165 297.15)"><path d="m.281-.625q0 .031-.031.047-.016 0-.016 0-.031 0-.047-.016 0-.016 0-.016 0-.031.031-.047.016 0 .031 0 .031 0 .031.016 0 .016 0 .016m-.078.375l-.031.109q-.031.078-.031.094 0 .031.016.031.078 0 .109-.109v-.016q0-.016.016-.016.016 0 .016.016 0 .016-.031.062-.031.094-.109.094-.047 0-.063-.047-.016-.016-.016-.047 0-.016.031-.078.063-.188.063-.188.016-.016.016-.047 0-.031-.031-.031-.047 0-.094.094 0 .016 0 .031-.016.016-.016.016-.016 0-.016 0 0-.031.016-.063.047-.094.109-.094.063 0 .078.047.016.016.016.031 0 .016-.016.047-.016.047-.031.063"/></g><g clip-path="url(#4)" transform="matrix(15 0 0 15 109.18 222.72)"><use xlink:href="#7"/></g><g clip-path="url(#5)" transform="matrix(15 0 0 15 111 226.15)"><path d="m.391-.625q0 .031-.016.047-.016 0-.031 0-.031 0-.031-.016 0-.016 0-.016 0-.031.031-.047 0 0 .016 0 .031 0 .031.016 0 .016 0 .016m-.188.672l.094-.375q0-.031 0-.047 0-.047-.031-.047-.063 0-.109.094-.016.016-.016.031-.016.016-.016.016-.016 0-.016 0 0-.016.031-.063.047-.094.125-.094.063 0 .078.047.016.016.016.047 0 .016 0 .031l-.094.359q-.031.094-.109.141-.047.016-.078.016-.063 0-.078-.031-.016-.016-.016-.031 0-.031.031-.047.016 0 .031 0 .031 0 .031.016 0 0 0 .016 0 .031-.031.047 0 0-.016 0 .016.016.047.016.047 0 .094-.078.016-.031.031-.063"/></g><g clip-path="url(#6)" transform="matrix(15 0 0 15 233 18.417)"><path d="m.516-.688l-.141.578q-.016.031-.016.047 0 .047.031.047.047 0 .063-.078.016-.016.016-.047.016-.016.016-.016.016 0 .016.016 0 .016-.016.062-.016.016-.016.031-.031.063-.078.063-.047 0-.078-.047 0-.016-.016-.031-.062.078-.125.078-.078 0-.109-.078-.016-.031-.016-.094 0-.094.063-.188.078-.094.156-.094.016 0 .016 0 .063 0 .094.063l.063-.234v-.031q0 0-.016-.016-.016 0-.031 0-.031 0-.031 0 0-.031.016-.031.094 0 .125 0 .016 0 .016 0m-.203.563l.047-.188q0-.016 0-.016 0-.031-.016-.063-.016-.031-.063-.031-.047 0-.094.063-.016.016-.016.031-.031.063-.063.172 0 .031 0 .047 0 .078.047.094 0 0 .016 0 .063 0 .109-.063.016-.016.031-.031 0-.016 0-.016"/></g></g></g></svg>