<svg xmlns="http://www.w3.org/2000/svg" width="241.75" height="250.05" viewBox="0 0 232 240"><defs><clipPath id="0"><path d="m0 0v241h233v-241z"/></clipPath></defs><g stroke-miterlimit="10" stroke-linecap="square"><g><g clip-path="url(#0)"><path d="m31.558 31.879h170.75" stroke-linejoin="round" stroke-linecap="round" fill="none" stroke="#00c"/></g><g clip-path="url(#0)"><path d="m202.31 31.879v170.75" stroke-linejoin="round" stroke-linecap="round" fill="none" stroke="#00c"/></g><g clip-path="url(#0)"><path d="m202.31 202.63h-170.75" stroke-linejoin="round" stroke-linecap="round" fill="none" stroke="#00c"/></g><g clip-path="url(#0)"><path d="m31.558 202.63v-170.75" stroke-linejoin="round" stroke-linecap="round" fill="none" stroke="#00c"/></g><g clip-path="url(#0)"><path d="m65.71 31.879l136.6 34.15" stroke-linejoin="round" stroke-linecap="round" fill="none" stroke="#f00"/></g><g clip-path="url(#0)"><path d="m202.31 66.03l-34.15 136.6" stroke-linejoin="round" stroke-linecap="round" fill="none" stroke="#f00"/></g><g clip-path="url(#0)"><path d="m168.16 202.63l-136.6-34.15" stroke-linejoin="round" stroke-linecap="round" fill="none" stroke="#f00"/></g><g clip-path="url(#0)"><path d="m31.558 168.48l34.15-136.6" stroke-linejoin="round" stroke-linecap="round" fill="none" stroke="#f00"/></g><g clip-path="url(#0)"><path d="m31.558 31.879h34.15" stroke-linejoin="round" stroke-linecap="round" fill="none" stroke="#00f"/></g><g clip-path="url(#0)"><path d="m46.883 27.379v9" stroke-linejoin="round" stroke-linecap="round" fill="none" stroke="#00f"/></g><g clip-path="url(#0)"><path d="m50.38 27.379v9" stroke-linejoin="round" stroke-linecap="round" fill="none" stroke="#00f"/></g><g clip-path="url(#0)"><path d="m202.31 31.879v34.15" stroke-linejoin="round" stroke-linecap="round" fill="none" stroke="#00f"/></g><g clip-path="url(#0)"><path d="m206.81 47.2h-9" stroke-linejoin="round" stroke-linecap="round" fill="none" stroke="#00f"/></g><g clip-path="url(#0)"><path d="m206.81 50.705h-9" stroke-linejoin="round" stroke-linecap="round" fill="none" stroke="#00f"/></g><g clip-path="url(#0)"><path d="m202.31 202.63h-34.15" stroke-linejoin="round" stroke-linecap="round" fill="none" stroke="#00f"/></g><g clip-path="url(#0)"><path d="m186.99 207.13v-9" stroke-linejoin="round" stroke-linecap="round" fill="none" stroke="#00f"/></g><g clip-path="url(#0)"><path d="m183.49 207.13v-9" stroke-linejoin="round" stroke-linecap="round" fill="none" stroke="#00f"/></g><g clip-path="url(#0)"><path d="m31.558 202.63v-34.15" stroke-linejoin="round" stroke-linecap="round" fill="none" stroke="#00f"/></g><g clip-path="url(#0)"><path d="m27.06 187.31h9" stroke-linejoin="round" stroke-linecap="round" fill="none" stroke="#00f"/></g><g clip-path="url(#0)"><path d="m27.06 183.81h9" stroke-linejoin="round" stroke-linecap="round" fill="none" stroke="#00f"/></g><g clip-path="url(#0)"><path d="m32.558 31.879c0 .553-.448 1-1 1-.552 0-1-.447-1-1 0-.552.448-1 1-1 .552 0 1 .448 1 1" fill="#00c"/></g><g clip-path="url(#0)"><path d="m32.558 31.879c0 .553-.448 1-1 1-.552 0-1-.447-1-1 0-.552.448-1 1-1 .552 0 1 .448 1 1z" stroke-linejoin="round" stroke-linecap="round" fill="none" stroke="#000"/></g><g clip-path="url(#0)"><text font-style="italic" font-family="serif" fill="#00c" font-size="12" x="0" y="0" transform="translate(18 32)">A</text></g><g clip-path="url(#0)"><path d="m203.31 31.879c0 .553-.45 1-1 1-.55 0-1-.447-1-1 0-.552.45-1 1-1 .55 0 1 .448 1 1" fill="#00c"/></g><g clip-path="url(#0)"><path d="m203.31 31.879c0 .553-.45 1-1 1-.55 0-1-.447-1-1 0-.552.45-1 1-1 .55 0 1 .448 1 1z" stroke-linejoin="round" stroke-linecap="round" fill="none" stroke="#000"/></g><g clip-path="url(#0)"><text font-style="italic" font-family="serif" fill="#00c" font-size="12" x="0" y="0" transform="translate(206 30)">B</text></g><g clip-path="url(#0)"><path d="m203.31 202.63c0 .56-.45 1-1 1-.55 0-1-.44-1-1 0-.55.45-1 1-1 .55 0 1 .45 1 1" fill="#00c"/></g><g clip-path="url(#0)"><path d="m203.31 202.63c0 .56-.45 1-1 1-.55 0-1-.44-1-1 0-.55.45-1 1-1 .55 0 1 .45 1 1z" stroke-linejoin="round" stroke-linecap="round" fill="none" stroke="#000"/></g><g clip-path="url(#0)"><text font-style="italic" font-family="serif" fill="#00c" font-size="12" x="0" y="0" transform="translate(205 210)">C</text></g><g clip-path="url(#0)"><path d="m32.558 202.63c0 .56-.448 1-1 1-.552 0-1-.44-1-1 0-.55.448-1 1-1 .552 0 1 .45 1 1" fill="#00c"/></g><g clip-path="url(#0)"><path d="m32.558 202.63c0 .56-.448 1-1 1-.552 0-1-.44-1-1 0-.55.448-1 1-1 .552 0 1 .45 1 1z" stroke-linejoin="round" stroke-linecap="round" fill="none" stroke="#000"/></g><g clip-path="url(#0)"><text font-style="italic" font-family="serif" fill="#00c" font-size="12" x="0" y="0" transform="translate(17 214)">D</text></g><g clip-path="url(#0)"><path d="m66.71 31.879c0 .553-.448 1-1 1-.553 0-1-.447-1-1 0-.552.447-1 1-1 .552 0 1 .448 1 1" fill="#00c"/></g><g clip-path="url(#0)"><path d="m66.71 31.879c0 .553-.448 1-1 1-.553 0-1-.447-1-1 0-.552.447-1 1-1 .552 0 1 .448 1 1z" stroke-linejoin="round" stroke-linecap="round" fill="none" stroke="#000"/></g><g clip-path="url(#0)"><text font-style="italic" font-family="serif" fill="#00c" font-size="12" x="0" y="0" transform="translate(70 30)">M</text></g><g clip-path="url(#0)"><path d="m203.31 66.03c0 .552-.45 1-1 1-.55 0-1-.448-1-1 0-.552.45-1 1-1 .55 0 1 .448 1 1" fill="#00c"/></g><g clip-path="url(#0)"><path d="m203.31 66.03c0 .552-.45 1-1 1-.55 0-1-.448-1-1 0-.552.45-1 1-1 .55 0 1 .448 1 1z" stroke-linejoin="round" stroke-linecap="round" fill="none" stroke="#000"/></g><g clip-path="url(#0)"><text font-style="italic" font-family="serif" fill="#00c" font-size="12" x="0" y="0" transform="translate(206 64)">N</text></g><g clip-path="url(#0)"><path d="m169.16 202.63c0 .56-.45 1-1 1-.55 0-1-.44-1-1 0-.55.45-1 1-1 .55 0 1 .45 1 1" fill="#00c"/></g><g clip-path="url(#0)"><path d="m169.16 202.63c0 .56-.45 1-1 1-.55 0-1-.44-1-1 0-.55.45-1 1-1 .55 0 1 .45 1 1z" stroke-linejoin="round" stroke-linecap="round" fill="none" stroke="#000"/></g><g clip-path="url(#0)"><text font-style="italic" font-family="serif" fill="#00c" font-size="12" x="0" y="0" transform="translate(172 201)">P</text></g><g clip-path="url(#0)"><path d="m32.558 168.48c0 .55-.448 1-1 1-.552 0-1-.45-1-1 0-.55.448-1 1-1 .552 0 1 .45 1 1" fill="#00c"/></g><g clip-path="url(#0)"><path d="m32.558 168.48c0 .55-.448 1-1 1-.552 0-1-.45-1-1 0-.55.448-1 1-1 .552 0 1 .45 1 1z" stroke-linejoin="round" stroke-linecap="round" fill="none" stroke="#000"/></g><g clip-path="url(#0)"><text font-style="italic" font-family="serif" fill="#00c" font-size="12" x="0" y="0" transform="translate(36 166)">Q</text></g></g></g></svg>