<svg xmlns="http://www.w3.org/2000/svg" width="201.52" height="112.23" viewBox="0 0 324 179"><defs><clipPath id="0"><path d="m0 0v181h325v-181z"/></clipPath></defs><g stroke-miterlimit="10" stroke-linecap="square"><g clip-path="url(#0)"><path d="m40.616 2v179" stroke-linecap="butt" fill="none" stroke="#000"/></g><g clip-path="url(#0)"><path d="m40.616 1l-3 3" stroke-linecap="butt" fill="none" stroke="#000"/></g><g clip-path="url(#0)"><path d="m40.616 1l3 3" stroke-linecap="butt" fill="none" stroke="#000"/></g><g clip-path="url(#0)"><path d="m0 85.51h323" stroke-linecap="butt" fill="none" stroke="#000"/></g><g clip-path="url(#0)"><path d="m324 85.51l-3-3" stroke-linecap="butt" fill="none" stroke="#000"/></g><g clip-path="url(#0)"><path d="m324 85.51l-3 3" stroke-linecap="butt" fill="none" stroke="#000"/></g><g clip-path="url(#0)"><text font-style="italic" font-family="serif" font-size="10" x="0" y="0" transform="translate(46 99)">0</text></g><g clip-path="url(#0)"><path d="m40.616 85.51v3" stroke-linecap="butt" fill="none" stroke="#000"/></g><g clip-path="url(#0)"><text font-style="italic" font-family="serif" font-size="10" x="0" y="0" transform="translate(96 99)">1</text></g><g clip-path="url(#0)"><path d="m97.76 85.51v3" stroke-linecap="butt" fill="none" stroke="#000"/></g><g clip-path="url(#0)"><text font-style="italic" font-family="serif" font-size="10" x="0" y="0" transform="translate(153 99)">2</text></g><g clip-path="url(#0)"><path d="m154.91 85.51v3" stroke-linecap="butt" fill="none" stroke="#000"/></g><g clip-path="url(#0)"><text font-style="italic" font-family="serif" font-size="10" x="0" y="0" transform="translate(210 99)">3</text></g><g clip-path="url(#0)"><path d="m212.05 85.51v3" stroke-linecap="butt" fill="none" stroke="#000"/></g><g clip-path="url(#0)"><text font-style="italic" font-family="serif" font-size="10" x="0" y="0" transform="translate(267 99)">4</text></g><g clip-path="url(#0)"><path d="m269.2 85.51v3" stroke-linecap="butt" fill="none" stroke="#000"/></g><g clip-path="url(#0)"><text font-style="italic" font-family="serif" font-size="10" x="0" y="0" transform="translate(24 146)">–1</text></g><g clip-path="url(#0)"><path d="m37.616 142.66h3" stroke-linecap="butt" fill="none" stroke="#000"/></g><g clip-path="url(#0)"><text font-style="italic" font-family="serif" font-size="10" x="0" y="0" transform="translate(29 83)">0</text></g><g clip-path="url(#0)"><text font-style="italic" font-family="serif" font-size="10" x="0" y="0" transform="translate(29 32)">1</text></g><g clip-path="url(#0)"><path d="m37.616 28.368h3" stroke-linecap="butt" fill="none" stroke="#000"/></g><g><g clip-path="url(#0)"><path d="m-5 165.47l335-167.5" stroke-linejoin="round" stroke-linecap="round" fill="none" stroke="#ccf"/></g><g clip-path="url(#0)"><path d="m43.616 142.66c0 1.65-1.343 3-3 3-1.657 0-3-1.35-3-3 0-1.66 1.343-3 3-3 1.657 0 3 1.34 3 3" fill="#7d7dff"/></g><g clip-path="url(#0)"><path d="m43.616 142.66c0 1.65-1.343 3-3 3-1.657 0-3-1.35-3-3 0-1.66 1.343-3 3-3 1.657 0 3 1.34 3 3z" stroke-linejoin="round" stroke-linecap="round" fill="none" stroke="#000"/></g><g clip-path="url(#0)"><path d="m100.76 114.09c0 1.65-1.342 3-2.999 3-1.656 0-3-1.35-3-3 0-1.66 1.344-3 3-3 1.657 0 2.999 1.34 2.999 3" fill="#00f"/></g><g clip-path="url(#0)"><path d="m100.76 114.09c0 1.65-1.342 3-2.999 3-1.656 0-3-1.35-3-3 0-1.66 1.344-3 3-3 1.657 0 2.999 1.34 2.999 3z" stroke-linejoin="round" stroke-linecap="round" fill="none" stroke="#000"/></g><g clip-path="url(#0)"><path d="m157.91 85.51c0 1.657-1.35 3-3 3-1.66 0-3-1.343-3-3 0-1.657 1.34-3 3-3 1.65 0 3 1.343 3 3" fill="#00f"/></g><g clip-path="url(#0)"><path d="m157.91 85.51c0 1.657-1.35 3-3 3-1.66 0-3-1.343-3-3 0-1.657 1.34-3 3-3 1.65 0 3 1.343 3 3z" stroke-linejoin="round" stroke-linecap="round" fill="none" stroke="#000"/></g><g clip-path="url(#0)"><path d="m215.05 56.94c0 1.657-1.34 3-3 3-1.66 0-3-1.343-3-3 0-1.657 1.34-3 3-3 1.66 0 3 1.343 3 3" fill="#00f"/></g><g clip-path="url(#0)"><path d="m215.05 56.94c0 1.657-1.34 3-3 3-1.66 0-3-1.343-3-3 0-1.657 1.34-3 3-3 1.66 0 3 1.343 3 3z" stroke-linejoin="round" stroke-linecap="round" fill="none" stroke="#000"/></g><g clip-path="url(#0)"><path d="m272.2 28.368c0 1.656-1.35 3-3 3-1.66 0-3-1.344-3-3 0-1.657 1.34-3 3-3 1.65 0 3 1.343 3 3" fill="#00f"/></g><g clip-path="url(#0)"><path d="m272.2 28.368c0 1.656-1.35 3-3 3-1.66 0-3-1.344-3-3 0-1.657 1.34-3 3-3 1.65 0 3 1.343 3 3z" stroke-linejoin="round" stroke-linecap="round" fill="none" stroke="#000"/></g></g></g></svg>