<svg xmlns="http://www.w3.org/2000/svg" width="454.98" height="446.51" viewBox="0 0 428 421" xmlns:xlink="http://www.w3.org/1999/xlink"><defs><path id="j" d="m.266-.375l-.063.219q-.016.063-.016.109-.016.047-.031.047-.016.016-.031.016-.016 0-.016-.031 0-.016 0-.031.094-.203.125-.328h-.047q-.078 0-.125.078-.016.016-.031.016 0 0 0-.016 0-.016.031-.063 0 0 .016-.016 0 0 .016-.016.031-.047.094-.047h.344q.031 0 .031.016 0 .016 0 .016 0 .031-.047.031h-.109q-.016.094-.016.156 0 .094.031.172 0 .016 0 .016 0 .031-.031.031 0 .016-.016.016-.016 0-.031-.031 0-.016 0-.016 0-.047 0-.078 0-.078.016-.203l.016-.063h-.109"/><path id="k" d="m.125-.328q.047-.094.125-.094.094 0 .156.078.031.031.047.094 0 .016 0 .047 0 .109-.078.172-.047.047-.125.047-.094 0-.156-.094-.047-.078-.047-.234 0-.172.094-.281.078-.078.172-.078.078 0 .109.063.016.031.016.047 0 .047-.047.047-.031 0-.047-.016 0-.016 0-.031 0-.031.047-.031-.016-.047-.078-.047-.078 0-.125.063-.063.078-.063.219v.031m.125.328q.063 0 .094-.078.016-.031.016-.125 0-.109-.016-.141-.031-.063-.094-.063-.078 0-.109.094 0 .047 0 .094 0 .094.016.141.016.047.063.063.016.016.031.016" fill="#390"/><path id="l" d="m.031-.172v-.031l.297-.469q.016 0 .031 0 .016 0 .016 0v.016.453h.094v.031h-.094v.094q0 .031.016.031 0 .016.063.016h.016v.031q-.047 0-.141 0-.094 0-.125 0v-.031h.016q.063 0 .078-.016 0-.016 0-.031v-.094h-.266m.266-.031v-.359l-.234.359h.234" fill="#f00"/><path id="m" d="m.297-.359q.094.031.141.109.016.031.016.078 0 .078-.063.141-.063.047-.141.047-.109 0-.172-.047-.031-.047-.031-.109 0-.047.031-.047.016 0 .016 0 .047 0 .063.031 0 .016 0 .016 0 .047-.031.062-.016 0-.031 0 .031.063.125.063.016.016.016.016.078 0 .094-.063.031-.047.031-.109 0-.125-.078-.156-.031-.016-.047-.016h-.047q-.016 0-.016 0 0-.016.016-.016.016 0 .031 0 .047 0 .078-.047l.016-.016q.031-.047.031-.109 0-.094-.078-.109-.016 0-.031 0-.063 0-.109.047-.016 0-.016.016.063 0 .063.047 0 .031-.031.047-.016 0-.016 0-.047 0-.047-.031-.016 0-.016-.016 0-.063.078-.109.047-.031.109-.031.094 0 .141.063.047.031.047.078 0 .094-.078.141-.031.031-.063.031"/><path id="n" d="m.453-.172l-.031.172h-.375q0-.031.016-.031l.188-.219q.109-.125.109-.219 0-.094-.063-.141-.031-.031-.078-.031-.063 0-.109.063-.016.016-.016.047 0 0 .016 0 .031 0 .047.031 0 .016 0 .016 0 .047-.047.047 0 .016 0 .016-.047 0-.063-.031 0-.016 0-.031 0-.078.063-.125.047-.063.125-.063.109 0 .172.078.031.047.047.109 0 0 0 .016 0 .063-.063.141-.031.031-.094.078l-.047.063h-.016l-.109.109h.188q.078 0 .094 0 0-.016.016-.094h.031"/><path id="o" d="m.656-.234h-.547q-.031 0-.031-.016 0-.016.031-.016h.547q.031 0 .031.016 0 .016-.031.016"/><clipPath id="i"><path d="m-25.6-13.578v28.13h28.667v-28.13z"/></clipPath><clipPath id="T"><path d="m-7.264-24.844v28.13h28.666v-28.13z"/></clipPath><clipPath id="V"><path d="m-7.55-26.21v28.13h28.666v-28.13z"/></clipPath><clipPath id="U"><path d="m-7.764-24.844v28.13h28.666v-28.13z"/></clipPath><clipPath id="S"><path d="m-6.2-25.521v28.13h28.667v-28.13z"/></clipPath><clipPath id="N"><path d="m-3.02-21.14v28.13h28.667v-28.13z"/></clipPath><clipPath id="R"><path d="m-4.816-24.01v28.13h28.667v-28.13z"/></clipPath><clipPath id="O"><path d="m-3.467-23.321v28.13h28.667v-28.13z"/></clipPath><clipPath id="Q"><path d="m-5.03-22.644v28.13h28.667v-28.13z"/></clipPath><clipPath id="P"><path d="m-4.531-22.644v28.13h28.667v-28.13z"/></clipPath><clipPath id="W"><path d="m-12.133-26.64v28.13h28.666v-28.13z"/></clipPath><clipPath id="e"><path d="m-23.1-24.13v28.13h28.666v-28.13z"/></clipPath><clipPath id="X"><path d="m-13.198-25.964v28.13h28.667v-28.13z"/></clipPath><clipPath id="f"><path d="m-24.2-20.17v28.13h28.667v-28.13z"/></clipPath><clipPath id="h"><path d="m-25.299-20.86v28.13h28.666v-28.13z"/></clipPath><clipPath id="g"><path d="m-25.26-19.497v28.13h28.666v-28.13z"/></clipPath><clipPath id="d"><path d="m-23.06-22.764v28.13h28.666v-28.13z"/></clipPath><clipPath id="Y"><path d="m-13.233-27.326v28.13h28.667v-28.13z"/></clipPath><clipPath id="c"><path d="m-22-23.44v28.13h28.667v-28.13z"/></clipPath><clipPath id="Z"><path d="m-18.8-25.24v28.13h28.667v-28.13z"/></clipPath><clipPath id="b"><path d="m-19.899-25.926v28.13h28.666v-28.13z"/></clipPath><clipPath id="a"><path d="m-19.864-24.564v28.13h28.666v-28.13z"/></clipPath><clipPath id="M"><path d="m-3.231-19.778v28.13h28.667v-28.13z"/></clipPath><clipPath id="L"><path d="m-2.731-19.778v28.13h28.667v-28.13z"/></clipPath><clipPath id="6"><path d="m-19.787-2.564v28.13h28.667v-28.13z"/></clipPath><clipPath id="8"><path d="m-14.587-1.031v28.13h28.667v-28.13z"/></clipPath><clipPath id="7"><path d="m-19.822-3.926v28.13h28.667v-28.13z"/></clipPath><clipPath id="5"><path d="m-22.755-6.66v28.13h28.667v-28.13z"/></clipPath><clipPath id="0"><path d="m0 0v422h430v-422z"/></clipPath><clipPath id="4"><path d="m-22.72-5.297v28.13h28.667v-28.13z"/></clipPath><clipPath id="1"><path d="m-24.72-7.764v28.13h28.667v-28.13z"/></clipPath><clipPath id="3"><path d="m-24.755-9.126v28.13h28.667v-28.13z"/></clipPath><clipPath id="2"><path d="m0 0v28.13h28.667v-28.13z"/></clipPath><clipPath id="9"><path d="m-14.622-2.393v28.13h28.667v-28.13z"/></clipPath><clipPath id="H"><path d="m-2.887-8.244v28.13h28.667v-28.13z"/></clipPath><clipPath id="A"><path d="m-7.05-2.444v28.13h28.666v-28.13z"/></clipPath><clipPath id="I"><path d="m-2.672-9.607v28.13h28.667v-28.13z"/></clipPath><clipPath id="K"><path d="m-1.667-20.454v28.13h28.667v-28.13z"/></clipPath><clipPath id="J"><path d="m-1.467-13.431v28.13h28.667v-28.13z"/></clipPath><clipPath id="G"><path d="m-2.387-8.244v28.13h28.667v-28.13z"/></clipPath><clipPath id="B"><path d="m-7.553-2.444v28.13h28.666v-28.13z"/></clipPath><clipPath id="F"><path d="m-4.405-6.207v28.13h28.667v-28.13z"/></clipPath><clipPath id="C"><path d="m-7.338-3.807v28.13h28.666v-28.13z"/></clipPath><clipPath id="E"><path d="m-4.62-4.844v28.13h28.667v-28.13z"/></clipPath><clipPath id="D"><path d="m-4.12-4.844v28.13h28.667v-28.13z"/></clipPath></defs><g stroke-miterlimit="10" stroke-linecap="square"><g clip-path="url(#0)"><path d="m210.8 2v420" stroke-linecap="butt" fill="none" stroke="#000"/></g><g clip-path="url(#0)"><path d="m210.8 1l-3 3" stroke-linecap="butt" fill="none" stroke="#000"/></g><g clip-path="url(#0)"><path d="m210.8 1l3 3" stroke-linecap="butt" fill="none" stroke="#000"/></g><g clip-path="url(#0)"><path d="m0 208.71h428" stroke-linecap="butt" fill="none" stroke="#000"/></g><g clip-path="url(#0)"><path d="m429 208.71l-3-3" stroke-linecap="butt" fill="none" stroke="#000"/></g><g clip-path="url(#0)"><path d="m429 208.71l-3 3" stroke-linecap="butt" fill="none" stroke="#000"/></g><g><g clip-path="url(#0)"><path d="m378.24 208.71c0 92.48-74.97 167.44-167.44 167.44-92.48 0-167.44-74.96-167.44-167.44 0-92.47 74.961-167.44 167.44-167.44 92.47 0 167.44 74.965 167.44 167.44z" stroke-linejoin="round" stroke-linecap="round" fill="none" stroke="#000"/></g><g clip-path="url(#0)"><path d="m92.4 327.11l236.8-236.79" stroke-linejoin="round" stroke-linecap="round" fill="none" stroke="#f00"/></g><g clip-path="url(#0)"><path d="m92.4 90.32l236.8 236.79" stroke-linejoin="round" stroke-linecap="round" fill="none" stroke="#f00"/></g><g clip-path="url(#0)"><path d="m294.52 63.707l-167.44 290.01" stroke-linejoin="round" stroke-linecap="round" fill="none" stroke="#09f"/></g><g clip-path="url(#0)"><path d="m127.08 63.707l167.44 290.01" stroke-linejoin="round" stroke-linecap="round" fill="none" stroke="#09f"/></g><g clip-path="url(#0)"><path d="m65.792 292.43l290.02-167.44" stroke-linejoin="round" stroke-linecap="round" fill="none" stroke="#390"/></g><g clip-path="url(#0)"><path d="m65.792 124.99l290.02 167.44" stroke-linejoin="round" stroke-linecap="round" fill="none" stroke="#390"/></g><g clip-path="url(#0)"><path d="m210.8 208.71l145.01 83.72" stroke-linejoin="round" stroke-linecap="round" fill="none" stroke="#390" id="p"/></g><g clip-path="url(#0)"><use xlink:href="#p"/></g><g clip-path="url(#0)"><path d="m211.8 208.71c0 .56-.45 1-1 1-.55 0-1-.44-1-1 0-.55.45-1 1-1 .55 0 1 .45 1 1" fill="#444"/></g><g clip-path="url(#0)"><path d="m211.8 208.71c0 .56-.45 1-1 1-.55 0-1-.44-1-1 0-.55.45-1 1-1 .55 0 1 .45 1 1z" stroke-linejoin="round" stroke-linecap="round" fill="none" stroke="#000"/></g><g clip-path="url(#0)"><path d="m187.58 212.81q0-2.14 1.15-3.35 1.15-1.21 2.96-1.21 1.2 0 2.15.57.96.57 1.46 1.59.5 1.01.5 2.31 0 1.3-.53 2.33-.54 1.03-1.5 1.56-.96.53-2.08.53-1.22 0-2.17-.59-.96-.58-1.45-1.59-.49-1.01-.49-2.15m1.17.02q0 1.56.84 2.45.83.89 2.1.89 1.28 0 2.11-.9.82-.89.82-2.57 0-1.04-.35-1.82-.35-.79-1.04-1.22-.68-.43-1.53-.43-1.2 0-2.08.83-.87.83-.87 2.77" fill="#444"/></g><g clip-path="url(#1)" transform="matrix(15 0 0 15 370.8 116.46)"><use fill="#390" xlink:href="#j"/></g><g clip-path="url(#2)" transform="scale(15)"><path d="m24.72 8.17h.57v.04h-.57v-.04" fill="#390"/></g><g clip-path="url(#3)" transform="matrix(15 0 0 15 371.33 136.9)"><use xlink:href="#k"/></g><g clip-path="url(#4)" transform="matrix(15 0 0 15 340.8 79.46)"><use fill="#f00" xlink:href="#j"/></g><g clip-path="url(#2)" transform="scale(15)"><path d="m22.72 5.704h.57v.04h-.57v-.04" fill="#f00"/></g><g clip-path="url(#5)" transform="matrix(15 0 0 15 341.33 99.89)"><use xlink:href="#l"/></g><g clip-path="url(#6)" transform="matrix(15 0 0 15 296.8 38.458)"><use fill="#09f" xlink:href="#j"/></g><g clip-path="url(#2)" transform="scale(15)"><path d="m19.787 2.97h.57v.04h-.57v-.04" fill="#09f"/></g><g clip-path="url(#7)" transform="matrix(15 0 0 15 297.33 58.895)"><use fill="#09f" xlink:href="#m"/></g><g clip-path="url(#8)" transform="matrix(15 0 0 15 218.8 15.458)"><use xlink:href="#j"/></g><g clip-path="url(#2)" transform="scale(15)"><path d="m14.587 1.437h.57v.04h-.57v-.04"/></g><g clip-path="url(#9)" transform="matrix(15 0 0 15 219.33 35.895)"><use xlink:href="#n"/></g><g clip-path="url(#A)" transform="matrix(15 0 0 15 105.8 36.667)"><use fill="#09f" xlink:href="#n"/></g><g clip-path="url(#B)" transform="matrix(15 0 0 15 113.3 36.667)"><use fill="#09f" xlink:href="#j"/></g><g clip-path="url(#2)" transform="scale(15)"><path d="m7.05 2.851h1.07v.04h-1.07v-.04" fill="#09f"/></g><g clip-path="url(#C)" transform="matrix(15 0 0 15 110.08 57.1)"><use fill="#09f" xlink:href="#m"/></g><g clip-path="url(#D)" transform="matrix(15 0 0 15 61.8 72.67)"><use fill="#f00" xlink:href="#m"/></g><g clip-path="url(#E)" transform="matrix(15 0 0 15 69.3 72.67)"><use fill="#f00" xlink:href="#j"/></g><g clip-path="url(#2)" transform="scale(15)"><path d="m4.12 5.251h1.07v.04h-1.07v-.04" fill="#f00"/></g><g clip-path="url(#F)" transform="matrix(15 0 0 15 66.08 93.1)"><use xlink:href="#l"/></g><g clip-path="url(#G)" transform="matrix(15 0 0 15 35.8 123.67)"><path d="m.453-.203q0 .109-.078.172-.063.047-.141.047-.094 0-.156-.078-.031-.047-.031-.094 0-.047.047-.063.047 0 .047.031.016.016.016.016 0 .031-.031.047-.016.016-.031.016 0 0-.016-.016.016.063.078.094.031.031.078.031.062 0 .109-.078.016-.031.016-.125 0-.094-.016-.125-.031-.063-.094-.063-.078 0-.125.063 0 .016-.016.016 0 0-.016-.016v-.016-.297q0-.016.016-.031 0 0 .016.016.063.016.125.016.078 0 .141-.016 0-.016.016-.016 0 0 0 .016 0 .016-.031.047-.063.063-.156.063-.047 0-.094-.016v.188q.063-.047.141-.047.078 0 .141.078.047.063.047.141" fill="#390" id="q"/></g><g clip-path="url(#H)" transform="matrix(15 0 0 15 43.3 123.67)"><use fill="#390" xlink:href="#j"/></g><g clip-path="url(#2)" transform="scale(15)"><path d="m2.387 8.651h1.07v.04h-1.07v-.04" fill="#390"/></g><g clip-path="url(#I)" transform="matrix(15 0 0 15 40.08 144.1)"><use xlink:href="#k"/></g><g clip-path="url(#J)" transform="matrix(15 0 0 15 22 201.46)"><use xlink:href="#j"/></g><g clip-path="url(#K)" transform="matrix(15 0 0 15 25 306.81)"><use fill="#390" xlink:href="#o"/></g><g clip-path="url(#L)" transform="matrix(15 0 0 15 40.967 296.67)"><use xlink:href="#q"/></g><g clip-path="url(#M)" transform="matrix(15 0 0 15 48.47 296.67)"><use fill="#390" xlink:href="#j"/></g><g clip-path="url(#2)" transform="scale(15)"><path d="m2.731 20.18h1.07v.04h-1.07v-.04" fill="#390"/></g><g clip-path="url(#N)" transform="matrix(15 0 0 15 45.24 317.1)"><use xlink:href="#k"/></g><g clip-path="url(#O)" transform="matrix(15 0 0 15 52 349.81)"><use fill="#f00" xlink:href="#o"/></g><g clip-path="url(#P)" transform="matrix(15 0 0 15 67.967 339.67)"><use fill="#f00" xlink:href="#m"/></g><g clip-path="url(#Q)" transform="matrix(15 0 0 15 75.47 339.67)"><use fill="#f00" xlink:href="#j"/></g><g clip-path="url(#2)" transform="scale(15)"><path d="m4.531 23.05h1.07v.04h-1.07v-.04" fill="#f00"/></g><g clip-path="url(#R)" transform="matrix(15 0 0 15 72.24 360.1)"><use xlink:href="#l"/></g><g clip-path="url(#S)" transform="matrix(15 0 0 15 93 382.81)"><use fill="#09f" xlink:href="#o"/></g><g clip-path="url(#T)" transform="matrix(15 0 0 15 108.97 372.67)"><use fill="#09f" xlink:href="#n"/></g><g clip-path="url(#U)" transform="matrix(15 0 0 15 116.47 372.67)"><use fill="#09f" xlink:href="#j"/></g><g clip-path="url(#2)" transform="scale(15)"><path d="m7.264 25.25h1.07v.04h-1.07v-.04" fill="#09f"/></g><g clip-path="url(#V)" transform="matrix(15 0 0 15 113.24 393.1)"><use fill="#09f" xlink:href="#m"/></g><g clip-path="url(#W)" transform="matrix(15 0 0 15 182 399.61)"><use xlink:href="#o"/></g><g clip-path="url(#X)" transform="matrix(15 0 0 15 197.97 389.46)"><use xlink:href="#j"/></g><g clip-path="url(#2)" transform="scale(15)"><path d="m13.198 26.37h.57v.04h-.57v-.04"/></g><g clip-path="url(#Y)" transform="matrix(15 0 0 15 198.49 409.9)"><use xlink:href="#n"/></g><g clip-path="url(#Z)" transform="matrix(15 0 0 15 282 378.61)"><use fill="#09f" xlink:href="#o"/></g><g clip-path="url(#a)" transform="matrix(15 0 0 15 297.97 368.46)"><use fill="#09f" xlink:href="#j"/></g><g clip-path="url(#2)" transform="scale(15)"><path d="m19.864 24.97h.57v.04h-.57v-.04" fill="#09f"/></g><g clip-path="url(#b)" transform="matrix(15 0 0 15 298.49 388.9)"><use fill="#09f" xlink:href="#m"/></g><g clip-path="url(#c)" transform="matrix(15 0 0 15 330 351.61)"><use fill="#f00" xlink:href="#o"/></g><g clip-path="url(#d)" transform="matrix(15 0 0 15 345.97 341.46)"><use fill="#f00" xlink:href="#j"/></g><g clip-path="url(#2)" transform="scale(15)"><path d="m23.06 23.17h.57v.04h-.57v-.04" fill="#f00"/></g><g clip-path="url(#e)" transform="matrix(15 0 0 15 346.49 361.9)"><use xlink:href="#l"/></g><g clip-path="url(#f)" transform="matrix(15 0 0 15 363 302.61)"><use fill="#390" xlink:href="#o"/></g><g clip-path="url(#g)" transform="matrix(15 0 0 15 378.97 292.46)"><use fill="#390" xlink:href="#j"/></g><g clip-path="url(#2)" transform="scale(15)"><path d="m25.26 19.904h.57v.04h-.57v-.04" fill="#390"/></g><g clip-path="url(#h)" transform="matrix(15 0 0 15 379.49 312.9)"><use xlink:href="#k"/></g><g clip-path="url(#i)" transform="matrix(15 0 0 15 384 203.67)"><path d="m.453-.313q0 .141-.031.219-.063.109-.172.109-.094 0-.141-.063-.016-.016-.031-.031-.047-.078-.047-.234 0-.156.047-.234.047-.109.156-.125h.016q.094 0 .141.078.016.016.031.047.031.078.031.234m-.203.313q.063 0 .094-.063.016-.031.016-.063.016-.063.016-.203 0-.141-.016-.203-.016-.094-.078-.109-.016 0-.031 0-.078 0-.109.063 0 .031-.016.063 0 .047 0 .187 0 .141.016.203.016.094.078.125.016 0 .031 0"/></g></g></g></svg>