<svg xmlns="http://www.w3.org/2000/svg" width="374.31" height="240.23" viewBox="0 0 535 343" xmlns:xlink="http://www.w3.org/1999/xlink"><defs><clipPath id="0"><path d="m0 0v344h536v-344z"/></clipPath></defs><g stroke-miterlimit="10" stroke-linecap="square"><g clip-path="url(#0)"><path d="m29.11 2v342" stroke-linecap="butt" fill="none" stroke="#000"/></g><g clip-path="url(#0)"><path d="m29.11 1l-3 3" stroke-linecap="butt" fill="none" stroke="#000"/></g><g clip-path="url(#0)"><path d="m29.11 1l3 3" stroke-linecap="butt" fill="none" stroke="#000"/></g><g clip-path="url(#0)"><path d="m0 304.72h534" stroke-linecap="butt" fill="none" stroke="#000"/></g><g clip-path="url(#0)"><path d="m535 304.72l-3-3" stroke-linecap="butt" fill="none" stroke="#000"/></g><g clip-path="url(#0)"><path d="m535 304.72l-3 3" stroke-linecap="butt" fill="none" stroke="#000"/></g><g clip-path="url(#0)"><text font-style="italic" font-family="serif" font-size="10" x="0" y="0" transform="translate(35 318)">0</text></g><g clip-path="url(#0)"><text font-style="italic" font-family="serif" font-size="10" x="0" y="0" transform="translate(78 318)">1</text></g><g clip-path="url(#0)"><path d="m79.84 304.72v3" stroke-linecap="butt" fill="none" stroke="#000"/></g><g clip-path="url(#0)"><text font-style="italic" font-family="serif" font-size="10" x="0" y="0" transform="translate(129 318)">2</text></g><g clip-path="url(#0)"><path d="m130.58 304.72v3" stroke-linecap="butt" fill="none" stroke="#000"/></g><g clip-path="url(#0)"><text font-style="italic" font-family="serif" font-size="10" x="0" y="0" transform="translate(179 318)">3</text></g><g clip-path="url(#0)"><path d="m181.32 304.72v3" stroke-linecap="butt" fill="none" stroke="#000"/></g><g clip-path="url(#0)"><text font-style="italic" font-family="serif" font-size="10" x="0" y="0" transform="translate(230 318)">4</text></g><g clip-path="url(#0)"><path d="m232.06 304.72v3" stroke-linecap="butt" fill="none" stroke="#000"/></g><g clip-path="url(#0)"><text font-style="italic" font-family="serif" font-size="10" x="0" y="0" transform="translate(281 318)">5</text></g><g clip-path="url(#0)"><path d="m282.8 304.72v3" stroke-linecap="butt" fill="none" stroke="#000"/></g><g clip-path="url(#0)"><text font-style="italic" font-family="serif" font-size="10" x="0" y="0" transform="translate(332 318)">6</text></g><g clip-path="url(#0)"><path d="m333.54 304.72v3" stroke-linecap="butt" fill="none" stroke="#000"/></g><g clip-path="url(#0)"><text font-style="italic" font-family="serif" font-size="10" x="0" y="0" transform="translate(382 318)">7</text></g><g clip-path="url(#0)"><path d="m384.28 304.72v3" stroke-linecap="butt" fill="none" stroke="#000"/></g><g clip-path="url(#0)"><text font-style="italic" font-family="serif" font-size="10" x="0" y="0" transform="translate(433 318)">8</text></g><g clip-path="url(#0)"><path d="m435.02 304.72v3" stroke-linecap="butt" fill="none" stroke="#000"/></g><g clip-path="url(#0)"><text font-style="italic" font-family="serif" font-size="10" x="0" y="0" transform="translate(484 318)">9</text></g><g clip-path="url(#0)"><path d="m485.76 304.72v3" stroke-linecap="butt" fill="none" stroke="#000"/></g><g clip-path="url(#0)"><text font-style="italic" font-family="serif" font-size="10" x="0" y="0" transform="translate(17 302)">0</text></g><g clip-path="url(#0)"><text font-style="italic" font-family="serif" font-size="10" x="0" y="0" transform="translate(17 257)">1</text></g><g clip-path="url(#0)"><path d="m26.11 253.98h3" stroke-linecap="butt" fill="none" stroke="#000"/></g><g clip-path="url(#0)"><text font-style="italic" font-family="serif" font-size="10" x="0" y="0" transform="translate(17 207)">2</text></g><g clip-path="url(#0)"><path d="m26.11 203.25h3" stroke-linecap="butt" fill="none" stroke="#000"/></g><g clip-path="url(#0)"><text font-style="italic" font-family="serif" font-size="10" x="0" y="0" transform="translate(17 156)">3</text></g><g clip-path="url(#0)"><path d="m26.11 152.51h3" stroke-linecap="butt" fill="none" stroke="#000"/></g><g clip-path="url(#0)"><text font-style="italic" font-family="serif" font-size="10" x="0" y="0" transform="translate(17 105)">4</text></g><g clip-path="url(#0)"><path d="m26.11 101.77h3" stroke-linecap="butt" fill="none" stroke="#000"/></g><g clip-path="url(#0)"><text font-style="italic" font-family="serif" font-size="10" x="0" y="0" transform="translate(17 55)">5</text></g><g clip-path="url(#0)"><path d="m26.11 51.03h3" stroke-linecap="butt" fill="none" stroke="#000"/></g><g clip-path="url(#0)"><path d="m79.84 0v304.72" stroke-linejoin="round" stroke-linecap="round" fill="none" stroke="#c0c0c0"/></g><g clip-path="url(#0)"><path d="m79.84 323.72v20.28" stroke-linejoin="round" stroke-linecap="round" fill="none" stroke="#c0c0c0"/></g><g clip-path="url(#0)"><path d="m130.58 0v304.72" stroke-linejoin="round" stroke-linecap="round" fill="none" stroke="#c0c0c0"/></g><g clip-path="url(#0)"><path d="m130.58 323.72v20.28" stroke-linejoin="round" stroke-linecap="round" fill="none" stroke="#c0c0c0"/></g><g clip-path="url(#0)"><path d="m181.32 0v304.72" stroke-linejoin="round" stroke-linecap="round" fill="none" stroke="#c0c0c0"/></g><g clip-path="url(#0)"><path d="m181.32 323.72v20.28" stroke-linejoin="round" stroke-linecap="round" fill="none" stroke="#c0c0c0"/></g><g clip-path="url(#0)"><path d="m232.06 0v304.72" stroke-linejoin="round" stroke-linecap="round" fill="none" stroke="#c0c0c0"/></g><g clip-path="url(#0)"><path d="m232.06 323.72v20.28" stroke-linejoin="round" stroke-linecap="round" fill="none" stroke="#c0c0c0"/></g><g clip-path="url(#0)"><path d="m282.8 0v304.72" stroke-linejoin="round" stroke-linecap="round" fill="none" stroke="#c0c0c0"/></g><g clip-path="url(#0)"><path d="m282.8 323.72v20.28" stroke-linejoin="round" stroke-linecap="round" fill="none" stroke="#c0c0c0"/></g><g clip-path="url(#0)"><path d="m333.54 0v304.72" stroke-linejoin="round" stroke-linecap="round" fill="none" stroke="#c0c0c0"/></g><g clip-path="url(#0)"><path d="m333.54 323.72v20.28" stroke-linejoin="round" stroke-linecap="round" fill="none" stroke="#c0c0c0"/></g><g clip-path="url(#0)"><path d="m384.28 0v304.72" stroke-linejoin="round" stroke-linecap="round" fill="none" stroke="#c0c0c0"/></g><g clip-path="url(#0)"><path d="m384.28 323.72v20.28" stroke-linejoin="round" stroke-linecap="round" fill="none" stroke="#c0c0c0"/></g><g clip-path="url(#0)"><path d="m435.02 0v304.72" stroke-linejoin="round" stroke-linecap="round" fill="none" stroke="#c0c0c0"/></g><g clip-path="url(#0)"><path d="m435.02 323.72v20.28" stroke-linejoin="round" stroke-linecap="round" fill="none" stroke="#c0c0c0"/></g><g clip-path="url(#0)"><path d="m485.76 0v304.72" stroke-linejoin="round" stroke-linecap="round" fill="none" stroke="#c0c0c0"/></g><g clip-path="url(#0)"><path d="m485.76 323.72v20.28" stroke-linejoin="round" stroke-linecap="round" fill="none" stroke="#c0c0c0"/></g><g clip-path="url(#0)"><path d="m0 .288h536" stroke-linejoin="round" stroke-linecap="round" fill="none" stroke="#c0c0c0" id="1"/></g><g clip-path="url(#0)"><use xlink:href="#1"/></g><g clip-path="url(#0)"><path d="m0 51.03h13.544" stroke-linejoin="round" stroke-linecap="round" fill="none" stroke="#c0c0c0"/></g><g clip-path="url(#0)"><path d="m29.11 51.03h506.89" stroke-linejoin="round" stroke-linecap="round" fill="none" stroke="#c0c0c0"/></g><g clip-path="url(#0)"><path d="m0 101.77h13.544" stroke-linejoin="round" stroke-linecap="round" fill="none" stroke="#c0c0c0"/></g><g clip-path="url(#0)"><path d="m29.11 101.77h506.89" stroke-linejoin="round" stroke-linecap="round" fill="none" stroke="#c0c0c0"/></g><g clip-path="url(#0)"><path d="m0 152.51h13.544" stroke-linejoin="round" stroke-linecap="round" fill="none" stroke="#c0c0c0"/></g><g clip-path="url(#0)"><path d="m29.11 152.51h506.89" stroke-linejoin="round" stroke-linecap="round" fill="none" stroke="#c0c0c0"/></g><g clip-path="url(#0)"><path d="m0 203.25h13.544" stroke-linejoin="round" stroke-linecap="round" fill="none" stroke="#c0c0c0"/></g><g clip-path="url(#0)"><path d="m29.11 203.25h506.89" stroke-linejoin="round" stroke-linecap="round" fill="none" stroke="#c0c0c0"/></g><g clip-path="url(#0)"><path d="m0 253.98h13.544" stroke-linejoin="round" stroke-linecap="round" fill="none" stroke="#c0c0c0"/></g><g clip-path="url(#0)"><path d="m29.11 253.98h506.89" stroke-linejoin="round" stroke-linecap="round" fill="none" stroke="#c0c0c0"/></g><g><g clip-path="url(#0)"><path d="m130.58 51.03l-50.736 202.95" stroke-linejoin="round" stroke-linecap="round" fill="none" stroke="#000"/></g><g clip-path="url(#0)"><path d="m130.58 51.03l355.18 101.48" stroke-linejoin="round" stroke-linecap="round" fill="none" stroke="#000"/></g><g clip-path="url(#0)"><path d="m485.76 152.51l-405.92 101.47" stroke-linejoin="round" stroke-linecap="round" fill="none" stroke="#000"/></g><g clip-path="url(#0)"><path d="m130.58 51.03l152.22 152.22" stroke-linejoin="round" stroke-linecap="round" fill="none" stroke="#800080"/></g><g clip-path="url(#0)"><path d="m79.84 253.98l228.33-152.21" stroke-linejoin="round" stroke-linecap="round" fill="none" stroke="#800080"/></g><g clip-path="url(#0)"><path d="m485.76 152.51h-380.55" stroke-linejoin="round" stroke-linecap="round" fill="none" stroke="#800080"/></g><g clip-path="url(#0)"><path d="m80.84 253.98c0 .56-.447 1-1 1-.552 0-1-.44-1-1 0-.55.448-1 1-1 .553 0 1 .45 1 1" fill="#300"/></g><g clip-path="url(#0)"><path d="m80.84 253.98c0 .56-.447 1-1 1-.552 0-1-.44-1-1 0-.55.448-1 1-1 .553 0 1 .45 1 1z" stroke-linejoin="round" stroke-linecap="round" fill="none" stroke="#000"/></g><g clip-path="url(#0)"><text font-style="italic" font-family="serif" fill="#300" font-size="12" x="0" y="0" transform="translate(69 269)">A</text></g><g clip-path="url(#0)"><path d="m131.58 51.03c0 .552-.44 1-1 1-.55 0-1-.448-1-1 0-.553.45-1 1-1 .56 0 1 .447 1 1" fill="#300"/></g><g clip-path="url(#0)"><path d="m131.58 51.03c0 .552-.44 1-1 1-.55 0-1-.448-1-1 0-.553.45-1 1-1 .56 0 1 .447 1 1z" stroke-linejoin="round" stroke-linecap="round" fill="none" stroke="#000"/></g><g clip-path="url(#0)"><text font-style="italic" font-family="serif" fill="#300" font-size="12" x="0" y="0" transform="translate(117 42)">B</text></g><g clip-path="url(#0)"><path d="m486.76 152.51c0 .55-.45 1-1 1-.55 0-1-.45-1-1 0-.56.45-1 1-1 .55 0 1 .44 1 1" fill="#300"/></g><g clip-path="url(#0)"><path d="m486.76 152.51c0 .55-.45 1-1 1-.55 0-1-.45-1-1 0-.56.45-1 1-1 .55 0 1 .44 1 1z" stroke-linejoin="round" stroke-linecap="round" fill="none" stroke="#000"/></g><g clip-path="url(#0)"><text font-style="italic" font-family="serif" fill="#300" font-size="12" x="0" y="0" transform="translate(490 151)">C</text></g><g clip-path="url(#0)"><path d="m106.21 152.51c0 .55-.44 1-1 1-.55 0-1-.45-1-1 0-.56.45-1 1-1 .56 0 1 .44 1 1" fill="#444"/></g><g clip-path="url(#0)"><path d="m106.21 152.51c0 .55-.44 1-1 1-.55 0-1-.45-1-1 0-.56.45-1 1-1 .56 0 1 .44 1 1z" stroke-linejoin="round" stroke-linecap="round" fill="none" stroke="#000"/></g><g clip-path="url(#0)"><text font-style="italic" font-family="serif" fill="#444" font-size="12" x="0" y="0" transform="translate(92 150)">M</text></g><g clip-path="url(#0)"><path d="m309.17 101.77c0 .55-.45 1-1 1-.55 0-1-.45-1-1 0-.56.45-1 1-1 .55 0 1 .44 1 1" fill="#444"/></g><g clip-path="url(#0)"><path d="m309.17 101.77c0 .55-.45 1-1 1-.55 0-1-.45-1-1 0-.56.45-1 1-1 .55 0 1 .44 1 1z" stroke-linejoin="round" stroke-linecap="round" fill="none" stroke="#000"/></g><g clip-path="url(#0)"><text font-style="italic" font-family="serif" fill="#444" font-size="12" x="0" y="0" transform="translate(308 90)">N</text></g><g clip-path="url(#0)"><path d="m283.8 203.25c0 .55-.45 1-1 1-.55 0-1-.45-1-1 0-.56.45-1 1-1 .55 0 1 .44 1 1" fill="#444"/></g><g clip-path="url(#0)"><path d="m283.8 203.25c0 .55-.45 1-1 1-.55 0-1-.45-1-1 0-.56.45-1 1-1 .55 0 1 .44 1 1z" stroke-linejoin="round" stroke-linecap="round" fill="none" stroke="#000"/></g><g clip-path="url(#0)"><text font-style="italic" font-family="serif" fill="#444" font-size="12" x="0" y="0" transform="translate(289 221)">P</text></g><g clip-path="url(#0)"><path d="m233.06 152.51c0 .55-.45 1-1 1-.55 0-1-.45-1-1 0-.56.45-1 1-1 .55 0 1 .44 1 1" fill="#444"/></g><g clip-path="url(#0)"><path d="m233.06 152.51c0 .55-.45 1-1 1-.55 0-1-.45-1-1 0-.56.45-1 1-1 .55 0 1 .44 1 1z" stroke-linejoin="round" stroke-linecap="round" fill="none" stroke="#000"/></g><g clip-path="url(#0)"><text font-style="italic" font-family="serif" fill="#444" font-size="12" x="0" y="0" transform="translate(226 169)">G</text></g></g></g></svg>