<svg xmlns="http://www.w3.org/2000/svg" width="562.81" height="575.22" viewBox="0 0 407 416"><defs><clipPath id="0"><path d="m0 0v417h408v-417z"/></clipPath><clipPath id="1"><path d="m-13.6-12.883v27.8h27.2v-27.8z"/></clipPath></defs><g stroke-miterlimit="10" stroke-linecap="square"><g clip-path="url(#0)"><path d="m71.16 2v415" stroke-linecap="butt" fill="none" stroke="#000"/></g><g clip-path="url(#0)"><path d="m71.16 1l-3 3" stroke-linecap="butt" fill="none" stroke="#000"/></g><g clip-path="url(#0)"><path d="m71.16 1l3 3" stroke-linecap="butt" fill="none" stroke="#000"/></g><g clip-path="url(#0)"><path d="m0 69.54h406" stroke-linecap="butt" fill="none" stroke="#000"/></g><g clip-path="url(#0)"><path d="m407 69.54l-3-3" stroke-linecap="butt" fill="none" stroke="#000"/></g><g clip-path="url(#0)"><path d="m407 69.54l-3 3" stroke-linecap="butt" fill="none" stroke="#000"/></g><g clip-path="url(#0)"><path d="m77.42 79.47q0-1.266.258-2.039.258-.774.773-1.196.516-.422 1.297-.422.578 0 1.01.235.43.234.719.672.289.437.445 1.062.156.625.156 1.688 0 1.265-.258 2.039-.258.773-.773 1.195-.516.422-1.297.422-1.031 0-1.625-.75-.703-.891-.703-2.906m.89 0q0 1.765.415 2.351.414.586 1.023.586.609 0 1.023-.586.415-.586.415-2.351 0-1.766-.415-2.344-.414-.578-1.039-.578-.593 0-.968.5-.454.656-.454 2.422"/></g><g clip-path="url(#0)"><path d="m71.16 69.54v3" stroke-linecap="butt" fill="none" stroke="#000"/></g><g clip-path="url(#0)"><path d="m329.72 83h-.88v-5.594q-.31.297-.82.602-.52.304-.93.445v-.844q.74-.343 1.29-.836.56-.492.78-.961h.56v7.188"/></g><g clip-path="url(#0)"><path d="m328.02 69.54v3" stroke-linecap="butt" fill="none" stroke="#000"/></g><g clip-path="url(#0)"><path d="m54.52 327.34v-.65h3.968v.65h-3.968m8.203 2.66h-.875v-5.59q-.313.29-.828.6-.516.3-.922.44v-.84q.734-.34 1.289-.84.555-.49.773-.96h.563v7.19"/></g><g clip-path="url(#0)"><path d="m68.16 326.41h3" stroke-linecap="butt" fill="none" stroke="#000"/></g><g clip-path="url(#0)"><path d="m59.42 63.47q0-1.266.258-2.039.258-.774.773-1.196.516-.422 1.297-.422.578 0 1.01.235.43.234.719.672.289.437.445 1.062.156.625.156 1.688 0 1.265-.258 2.039-.258.773-.773 1.195-.516.422-1.297.422-1.031 0-1.625-.75-.703-.891-.703-2.906m.89 0q0 1.765.415 2.351.414.586 1.023.586.609 0 1.023-.586.415-.586.415-2.351 0-1.766-.415-2.344-.414-.578-1.039-.578-.593 0-.968.5-.454.656-.454 2.422"/></g><g><g clip-path="url(#0)"><path d="m381.22 197.97c0 100.32-81.32 181.64-181.63 181.64-100.31 0-181.63-81.32-181.63-181.64 0-100.31 81.32-181.63 181.63-181.63 100.31 0 181.63 81.32 181.63 181.63z" stroke-linejoin="round" stroke-linecap="round" fill="none" stroke="#f00"/></g><g clip-path="url(#0)"><path d="m74.16 326.41c0 1.65-1.343 3-3 3-1.656 0-3-1.35-3-3 0-1.66 1.344-3 3-3 1.657 0 3 1.34 3 3z" stroke-width="1.5" fill="none" stroke="#f00"/></g><g clip-path="url(#0)"><path d="m61.984 343l3.297-8.59h1.219l3.516 8.59h-1.282l-1.015-2.61h-3.578l-.953 2.61h-1.204m2.485-3.53h2.906l-.891-2.38q-.422-1.07-.609-1.78-.172.83-.469 1.64l-.937 2.52" fill="#f00"/></g><g clip-path="url(#0)"><path d="m200.59 197.97c0 .56-.45 1-1 1-.55 0-1-.44-1-1 0-.55.45-1 1-1 .55 0 1 .45 1 1" fill="#300"/></g><g clip-path="url(#0)"><path d="m200.59 197.97c0 .56-.45 1-1 1-.55 0-1-.44-1-1 0-.55.45-1 1-1 .55 0 1 .45 1 1z" stroke-linejoin="round" stroke-linecap="round" fill="none" stroke="#000"/></g><g clip-path="url(#1)" transform="matrix(15 0 0 15 204 193.25)"><path d="m.672-.156l-.031.156h-.156q-.016 0-.031 0 0-.016 0-.016 0-.078.047-.203.063-.141.063-.203 0-.016 0-.031 0-.141-.094-.203-.047-.031-.109-.031-.078 0-.141.063-.063.063-.063.172 0 .078.047.203.063.156.063.234 0 .016-.016.016 0 0-.016 0h-.156l-.031-.156h.016q.016.047.031.063 0 .016.016.031.016 0 .047 0h.078q-.016-.063-.078-.156 0 0-.016-.016-.062-.109-.078-.172 0-.031 0-.047 0-.109.078-.172.094-.078.219-.078.141 0 .234.078.078.078.078.172 0 .078-.078.188l-.016.031q-.063.094-.078.156-.016 0-.016.016h.078q.063 0 .063-.016l.016-.016q0-.016.016-.063h.016"/></g></g></g></svg>