<svg xmlns="http://www.w3.org/2000/svg" width="439.18" height="445.38" viewBox="0 0 282 286"><defs><clipPath id="0"><path d="m0 0v287h283v-287z"/></clipPath></defs><g stroke-miterlimit="10" stroke-linecap="square"><g clip-path="url(#0)"><path d="m21.292 2v285" stroke-linecap="butt" fill="none" stroke="#000"/></g><g clip-path="url(#0)"><path d="m21.292 1l-3 3" stroke-linecap="butt" fill="none" stroke="#000"/></g><g clip-path="url(#0)"><path d="m21.292 1l3 3" stroke-linecap="butt" fill="none" stroke="#000"/></g><g clip-path="url(#0)"><path d="m0 33.907h281" stroke-linecap="butt" fill="none" stroke="#000"/></g><g clip-path="url(#0)"><path d="m282 33.907l-3-3" stroke-linecap="butt" fill="none" stroke="#000"/></g><g clip-path="url(#0)"><path d="m282 33.907l-3 3" stroke-linecap="butt" fill="none" stroke="#000"/></g><g clip-path="url(#0)"><text font-style="italic" font-family="serif" font-size="10" x="0" y="0" transform="translate(27 47)">0</text></g><g clip-path="url(#0)"><path d="m21.292 33.907v3" stroke-linecap="butt" fill="none" stroke="#000"/></g><g clip-path="url(#0)"><text font-style="italic" font-family="serif" font-size="10" x="0" y="0" transform="translate(133 47)">1</text></g><g clip-path="url(#0)"><path d="m135.46 33.907v3" stroke-linecap="butt" fill="none" stroke="#000"/></g><g clip-path="url(#0)"><text font-style="italic" font-family="serif" font-size="10" x="0" y="0" transform="translate(248 47)">2</text></g><g clip-path="url(#0)"><path d="m249.62 33.907v3" stroke-linecap="butt" fill="none" stroke="#000"/></g><g clip-path="url(#0)"><text font-style="italic" font-family="serif" font-size="10" x="0" y="0" transform="translate(4 266)">–2</text></g><g clip-path="url(#0)"><path d="m18.292 262.23h3" stroke-linecap="butt" fill="none" stroke="#000"/></g><g clip-path="url(#0)"><text font-style="italic" font-family="serif" font-size="10" x="0" y="0" transform="translate(4 152)">–1</text></g><g clip-path="url(#0)"><path d="m18.292 148.07h3" stroke-linecap="butt" fill="none" stroke="#000"/></g><g clip-path="url(#0)"><text font-style="italic" font-family="serif" font-size="10" x="0" y="0" transform="translate(9 31)">0</text></g><g><g clip-path="url(#0)"><path d="m249.62 148.07c0 63.05-51.11 114.16-114.16 114.16-63.06 0-114.17-51.11-114.17-114.16 0-63.05 51.11-114.16 114.17-114.16 63.05 0 114.16 51.11 114.16 114.16z" stroke-linejoin="round" stroke-linecap="round" fill="none" stroke="#00f"/></g><g clip-path="url(#0)"><path d="m136.46 148.07c0 .55-.45 1-1 1-.56 0-1-.45-1-1 0-.55.44-1 1-1 .55 0 1 .45 1 1" fill="#300"/></g><g clip-path="url(#0)"><path d="m136.46 148.07c0 .55-.45 1-1 1-.56 0-1-.45-1-1 0-.55.44-1 1-1 .55 0 1 .45 1 1z" stroke-linejoin="round" stroke-linecap="round" fill="none" stroke="#000"/></g><g clip-path="url(#0)"><text font-style="italic" font-family="serif" fill="#300" font-size="12" x="0" y="0" transform="translate(139 146)">A</text></g></g></g></svg>