<svg xmlns="http://www.w3.org/2000/svg" width="1532.23" height="884.64" viewBox="0 0 626 361" xmlns:xlink="http://www.w3.org/1999/xlink"><defs><clipPath id="0"><path d="m0 0v438h568v-438z"/></clipPath><clipPath id="1"><path d="m0 0v362h627v-362z"/></clipPath></defs><g stroke-linecap="square" stroke-miterlimit="10"><g clip-path="url(#1)"><path d="m378.07 2v360" stroke-linecap="butt" fill="none" stroke="#000"/></g><g clip-path="url(#1)"><path d="m378.07 1l-3 3" stroke-linecap="butt" fill="none" stroke="#000"/></g><g clip-path="url(#1)"><path d="m378.07 1l3 3" stroke-linecap="butt" fill="none" stroke="#000"/></g><g clip-path="url(#1)"><path d="m0 307.13h625" stroke-linecap="butt" fill="none" stroke="#000"/></g><g clip-path="url(#1)"><path d="m626 307.13l-3-3" stroke-linecap="butt" fill="none" stroke="#000"/></g><g clip-path="url(#1)"><path d="m626 307.13l-3 3" stroke-linecap="butt" fill="none" stroke="#000"/></g><g clip-path="url(#1)"><path d="m88.08 307.13v3" stroke-linecap="butt" fill="none" stroke="#000"/></g><g clip-path="url(#1)"><path d="m233.07 307.13v3" stroke-linecap="butt" fill="none" stroke="#000"/></g><g clip-path="url(#1)"><path d="m523.06 307.13v3" stroke-linecap="butt" fill="none" stroke="#000"/></g><g clip-path="url(#1)"><path d="m375.07 162.13h3" stroke-linecap="butt" fill="none" stroke="#000"/></g><g clip-path="url(#1)"><path d="m375.07 17.14h3" stroke-linecap="butt" fill="none" stroke="#000"/></g><g><g clip-path="url(#1)"><path d="m378.07 307.13h130.99" stroke-linejoin="round" stroke-linecap="round" fill="none" stroke="#000"/></g><g clip-path="url(#1)"><path d="m523.06 307.13l-14 3.5v-7z" fill-rule="evenodd"/></g><g clip-path="url(#1)"><text font-style="italic" font-family="serif" font-size="12" x="0" y="0" transform="translate(448 322)">u</text></g><g clip-path="url(#1)"><path d="m378.07 307.13v-131" stroke-linejoin="round" stroke-linecap="round" fill="none" stroke="#000"/></g><g clip-path="url(#1)"><path d="m378.07 162.13l3.5 14h-7z" fill-rule="evenodd"/></g><g clip-path="url(#1)"><text font-style="italic" font-family="serif" font-size="12" x="0" y="0" transform="translate(365 236)">v</text></g><g clip-path="url(#1)"><path d="m524.06 307.13c0 .55-.45 1-1 1-.55 0-1-.45-1-1 0-.55.45-1 1-1 .55 0 1 .45 1 1" fill="#300"/></g><g clip-path="url(#1)"><path d="m524.06 307.13c0 .55-.45 1-1 1-.55 0-1-.45-1-1 0-.55.45-1 1-1 .55 0 1 .45 1 1z" stroke-linejoin="round" stroke-linecap="round" fill="none" stroke="#000"/></g><g clip-path="url(#1)"><text font-style="italic" font-family="serif" fill="#300" font-size="12" x="0" y="0" transform="translate(527 297)">A</text></g><g clip-path="url(#1)"><text font-style="italic" font-family="serif" fill="#300" font-size="10" x="0" y="0" transform="translate(535 302)">0</text></g><g clip-path="url(#1)"><path d="m379.07 307.13c0 .55-.45 1-1 1-.56 0-1-.45-1-1 0-.55.44-1 1-1 .55 0 1 .45 1 1" fill="#444"/></g><g clip-path="url(#1)"><path d="m379.07 307.13c0 .55-.45 1-1 1-.56 0-1-.45-1-1 0-.55.44-1 1-1 .55 0 1 .45 1 1z" stroke-linejoin="round" stroke-linecap="round" fill="none" stroke="#000"/></g><g clip-path="url(#1)"><text font-style="italic" font-family="serif" fill="#444" font-size="12" x="0" y="0" transform="translate(359 325)">O</text></g><g clip-path="url(#1)"><path d="m524.06 223.42c0 .55-.45 1-1 1-.55 0-1-.45-1-1 0-.56.45-1 1-1 .55 0 1 .44 1 1" fill="#444"/></g><g clip-path="url(#1)"><path d="m524.06 223.42c0 .55-.45 1-1 1-.55 0-1-.45-1-1 0-.56.45-1 1-1 .55 0 1 .44 1 1z" stroke-linejoin="round" stroke-linecap="round" fill="none" stroke="#000"/></g><g clip-path="url(#1)"><text font-style="italic" font-family="serif" fill="#444" font-size="12" x="0" y="0" transform="translate(527 221)">A</text></g><g clip-path="url(#1)"><text font-style="italic" font-family="serif" fill="#444" font-size="10" x="0" y="0" transform="translate(535 226)">1</text></g><g clip-path="url(#1)"><path d="m475.73 139.7c0 .56-.45 1-1 1-.55 0-1-.44-1-1 0-.55.45-1 1-1 .55 0 1 .45 1 1" fill="#444"/></g><g clip-path="url(#1)"><path d="m475.73 139.7c0 .56-.45 1-1 1-.55 0-1-.44-1-1 0-.55.45-1 1-1 .55 0 1 .45 1 1z" stroke-linejoin="round" stroke-linecap="round" fill="none" stroke="#000"/></g><g clip-path="url(#1)"><text font-style="italic" font-family="serif" fill="#444" font-size="12" x="0" y="0" transform="translate(479 138)">A</text></g><g clip-path="url(#1)"><text font-style="italic" font-family="serif" fill="#444" font-size="10" x="0" y="0" transform="translate(487 143)">2</text></g><g clip-path="url(#1)"><path d="m379.07 83.89c0 .553-.45 1-1 1-.56 0-1-.447-1-1 0-.552.44-1 1-1 .55 0 1 .448 1 1" fill="#444"/></g><g clip-path="url(#1)"><path d="m379.07 83.89c0 .553-.45 1-1 1-.56 0-1-.447-1-1 0-.552.44-1 1-1 .55 0 1 .448 1 1z" stroke-linejoin="round" stroke-linecap="round" fill="none" stroke="#000"/></g><g clip-path="url(#1)"><text font-style="italic" font-family="serif" fill="#444" font-size="12" x="0" y="0" transform="translate(382 82)">A</text></g><g clip-path="url(#1)"><text font-style="italic" font-family="serif" fill="#444" font-size="10" x="0" y="0" transform="translate(390 87)">3</text></g><g clip-path="url(#1)"><path d="m250.18 83.89c0 .553-.45 1-1 1-.55 0-1-.447-1-1 0-.552.45-1 1-1 .55 0 1 .448 1 1" fill="#444"/></g><g clip-path="url(#1)"><path d="m250.18 83.89c0 .553-.45 1-1 1-.55 0-1-.447-1-1 0-.552.45-1 1-1 .55 0 1 .448 1 1z" stroke-linejoin="round" stroke-linecap="round" fill="none" stroke="#000"/></g><g clip-path="url(#1)"><text font-style="italic" font-family="serif" fill="#444" font-size="12" x="0" y="0" transform="translate(253 82)">A</text></g><g clip-path="url(#1)"><text font-style="italic" font-family="serif" fill="#444" font-size="10" x="0" y="0" transform="translate(261 87)">4</text></g><g clip-path="url(#1)"><path d="m35.37 307.13c0 .55-.448 1-1 1-.552 0-1-.45-1-1 0-.55.448-1 1-1 .552 0 1 .45 1 1" fill="#444"/></g><g clip-path="url(#1)"><path d="m35.37 307.13c0 .55-.448 1-1 1-.552 0-1-.45-1-1 0-.55.448-1 1-1 .552 0 1 .45 1 1z" stroke-linejoin="round" stroke-linecap="round" fill="none" stroke="#000"/></g><g clip-path="url(#1)"><text font-style="italic" font-family="serif" fill="#444" font-size="12" x="0" y="0" transform="translate(37 299)">A</text></g><g clip-path="url(#1)"><text font-style="italic" font-family="serif" fill="#444" font-size="10" x="0" y="0" transform="translate(45 304)">6</text></g></g><g transform="matrix(.07585 0 0-.21932 334.75 272.6)"><g clip-path="url(#0)"><path d="m357.26 217.01h136.22" fill="none" stroke="#000" stroke-linejoin="round" stroke-linecap="round" stroke-width="2" id="2"/></g><g clip-path="url(#0)"><path d="m509.48 217.01l-16 4v-8z" fill-rule="evenodd" id="3"/></g></g><g transform="matrix(.07585 0 0-.21932 418.56 358.91)"><g clip-path="url(#0)"><use xlink:href="#2"/></g><g clip-path="url(#0)"><use xlink:href="#3"/></g></g></g></svg>