<svg xmlns="http://www.w3.org/2000/svg" width="833.87" height="757.31" viewBox="0 0 402 365" xmlns:xlink="http://www.w3.org/1999/xlink"><defs><clipPath id="0"><path d="m0 0v438h568v-438z"/></clipPath><clipPath id="1"><path d="m0 0v366h403v-366z"/></clipPath></defs><g stroke-linecap="square" stroke-miterlimit="10"><g clip-path="url(#1)"><path d="m175.1 2v364" stroke-linecap="butt" fill="none" stroke="#000"/></g><g clip-path="url(#1)"><path d="m175.1 1l-3 3" stroke-linecap="butt" fill="none" stroke="#000"/></g><g clip-path="url(#1)"><path d="m175.1 1l3 3" stroke-linecap="butt" fill="none" stroke="#000"/></g><g clip-path="url(#1)"><path d="m0 177.72h401" stroke-linecap="butt" fill="none" stroke="#000"/></g><g clip-path="url(#1)"><path d="m402 177.72l-3-3" stroke-linecap="butt" fill="none" stroke="#000"/></g><g clip-path="url(#1)"><path d="m402 177.72l-3 3" stroke-linecap="butt" fill="none" stroke="#000"/></g><g><g clip-path="url(#1)"><path d="m346.35 177.72l-118.33-162.87" stroke-linejoin="round" stroke-linecap="round" fill="none" stroke="#000"/></g><g clip-path="url(#1)"><path d="m228.02 14.855l-191.46 62.21" stroke-linejoin="round" stroke-linecap="round" fill="none" stroke="#000"/></g><g clip-path="url(#1)"><path d="m36.565 77.06v201.31" stroke-linejoin="round" stroke-linecap="round" fill="none" stroke="#000"/></g><g clip-path="url(#1)"><path d="m36.565 278.37l191.46 62.21" stroke-linejoin="round" stroke-linecap="round" fill="none" stroke="#000"/></g><g clip-path="url(#1)"><path d="m228.02 340.58l118.33-162.86" stroke-linejoin="round" stroke-linecap="round" fill="none" stroke="#000"/></g><g clip-path="url(#1)"><path d="m175.1 177.72h157.25" stroke-linejoin="round" stroke-linecap="round" fill="none" stroke="#000"/></g><g clip-path="url(#1)"><path d="m346.35 177.72l-14 3.5v-7z" fill-rule="evenodd"/></g><g clip-path="url(#1)"><path d="m175.1 177.72v-157.25" stroke-linejoin="round" stroke-linecap="round" fill="none" stroke="#000"/></g><g clip-path="url(#1)"><path d="m175.1 6.473l3.5 13.999h-7z" fill-rule="evenodd"/></g><g clip-path="url(#1)"><path d="m176.1 177.72c0 .55-.44 1-1 1-.55 0-1-.45-1-1 0-.55.45-1 1-1 .56 0 1 .45 1 1" fill="#444"/></g><g clip-path="url(#1)"><path d="m176.1 177.72c0 .55-.44 1-1 1-.55 0-1-.45-1-1 0-.55.45-1 1-1 .56 0 1 .45 1 1z" stroke-linejoin="round" stroke-linecap="round" fill="none" stroke="#000"/></g><g clip-path="url(#1)"><text font-style="italic" font-family="serif" fill="#444" font-size="12" x="0" y="0" transform="translate(161 193)">O</text></g><g clip-path="url(#1)"><path d="m347.35 177.72c0 .55-.45 1-1 1-.55 0-1-.45-1-1 0-.55.45-1 1-1 .55 0 1 .45 1 1" fill="#300" id="2"/></g><g clip-path="url(#1)"><path d="m347.35 177.72c0 .55-.45 1-1 1-.55 0-1-.45-1-1 0-.55.45-1 1-1 .55 0 1 .45 1 1z" stroke-linejoin="round" stroke-linecap="round" fill="none" stroke="#000" id="3"/></g><g clip-path="url(#1)"><path d="m176.1 6.473c0 .552-.44 1-1 1-.55 0-1-.448-1-1 0-.552.45-1 1-1 .56 0 1 .448 1 1" fill="#300"/></g><g clip-path="url(#1)"><path d="m176.1 6.473c0 .552-.44 1-1 1-.55 0-1-.448-1-1 0-.552.45-1 1-1 .56 0 1 .448 1 1z" stroke-linejoin="round" stroke-linecap="round" fill="none" stroke="#000"/></g><g clip-path="url(#1)"><use xlink:href="#2"/></g><g clip-path="url(#1)"><use xlink:href="#3"/></g><g clip-path="url(#1)"><text font-style="italic" font-family="serif" fill="#300" font-size="12" x="0" y="0" transform="translate(348 166)">A</text></g><g clip-path="url(#1)"><text font-style="italic" font-family="serif" fill="#300" font-size="10" x="0" y="0" transform="translate(356 171)">0</text></g><g clip-path="url(#1)"><path d="m229.02 14.855c0 .552-.45 1-1 1-.55 0-1-.448-1-1 0-.553.45-1 1-1 .55 0 1 .447 1 1" fill="#300"/></g><g clip-path="url(#1)"><path d="m229.02 14.855c0 .552-.45 1-1 1-.55 0-1-.448-1-1 0-.553.45-1 1-1 .55 0 1 .447 1 1z" stroke-linejoin="round" stroke-linecap="round" fill="none" stroke="#000"/></g><g clip-path="url(#1)"><text font-style="italic" font-family="serif" fill="#300" font-size="12" x="0" y="0" transform="translate(232 17)">A</text></g><g clip-path="url(#1)"><text font-style="italic" font-family="serif" fill="#300" font-size="10" x="0" y="0" transform="translate(240 22)">1</text></g><g clip-path="url(#1)"><path d="m37.565 77.06c0 .552-.448 1-1 1-.552 0-1-.448-1-1 0-.552.448-1 1-1 .552 0 1 .448 1 1" fill="#300"/></g><g clip-path="url(#1)"><path d="m37.565 77.06c0 .552-.448 1-1 1-.552 0-1-.448-1-1 0-.552.448-1 1-1 .552 0 1 .448 1 1z" stroke-linejoin="round" stroke-linecap="round" fill="none" stroke="#000"/></g><g clip-path="url(#1)"><text font-style="italic" font-family="serif" fill="#300" font-size="12" x="0" y="0" transform="translate(21 77)">A</text></g><g clip-path="url(#1)"><text font-style="italic" font-family="serif" fill="#300" font-size="10" x="0" y="0" transform="translate(29 82)">2</text></g><g clip-path="url(#1)"><path d="m37.565 278.37c0 .56-.448 1-1 1-.552 0-1-.44-1-1 0-.55.448-1 1-1 .552 0 1 .45 1 1" fill="#300"/></g><g clip-path="url(#1)"><path d="m37.565 278.37c0 .56-.448 1-1 1-.552 0-1-.44-1-1 0-.55.448-1 1-1 .552 0 1 .45 1 1z" stroke-linejoin="round" stroke-linecap="round" fill="none" stroke="#000"/></g><g clip-path="url(#1)"><text font-style="italic" font-family="serif" fill="#300" font-size="12" x="0" y="0" transform="translate(23 285)">A</text></g><g clip-path="url(#1)"><text font-style="italic" font-family="serif" fill="#300" font-size="10" x="0" y="0" transform="translate(31 290)">3</text></g><g clip-path="url(#1)"><path d="m229.02 340.58c0 .55-.45 1-1 1-.55 0-1-.45-1-1 0-.55.45-1 1-1 .55 0 1 .45 1 1" fill="#300"/></g><g clip-path="url(#1)"><path d="m229.02 340.58c0 .55-.45 1-1 1-.55 0-1-.45-1-1 0-.55.45-1 1-1 .55 0 1 .45 1 1z" stroke-linejoin="round" stroke-linecap="round" fill="none" stroke="#000"/></g><g clip-path="url(#1)"><text font-style="italic" font-family="serif" fill="#300" font-size="12" x="0" y="0" transform="translate(225 357)">A</text></g><g clip-path="url(#1)"><text font-style="italic" font-family="serif" fill="#300" font-size="10" x="0" y="0" transform="translate(233 362)">4</text></g><g clip-path="url(#1)"><text font-style="italic" font-family="serif" font-size="12" x="0" y="0" transform="translate(235 201)">u</text></g><g clip-path="url(#1)"><text font-style="italic" font-family="serif" font-size="12" x="0" y="0" transform="translate(162 95)">v</text></g></g><g transform="matrix(.07729 0 0 .28891 132.92 20.617)"><g clip-path="url(#0)"><path d="m357.26 217.01h136.22" fill="none" stroke="#000" stroke-linejoin="round" stroke-linecap="round" stroke-width="2" id="4"/></g><g clip-path="url(#0)"><path d="m509.48 217.01l-16 4v-8z" fill-rule="evenodd" id="5"/></g></g><g transform="matrix(.07729 0 0 .28891 205.17 126.76)"><g clip-path="url(#0)"><use xlink:href="#4"/></g><g clip-path="url(#0)"><use xlink:href="#5"/></g></g></g></svg>