<svg xmlns="http://www.w3.org/2000/svg" width="416.93" height="387.96" viewBox="0 0 402 374" xmlns:xlink="http://www.w3.org/1999/xlink"><defs><clipPath id="0"><path d="m0 0v438h568v-438z"/></clipPath><clipPath id="1"><path d="m0 0v375h403v-375z"/></clipPath></defs><g stroke-linecap="square" stroke-miterlimit="10"><g clip-path="url(#1)"><path d="m194.1 2v373" stroke-linecap="butt" fill="none" stroke="#000"/></g><g clip-path="url(#1)"><path d="m194.1 1l-3 3" stroke-linecap="butt" fill="none" stroke="#000"/></g><g clip-path="url(#1)"><path d="m194.1 1l3 3" stroke-linecap="butt" fill="none" stroke="#000"/></g><g clip-path="url(#1)"><path d="m0 185.72h401" stroke-linecap="butt" fill="none" stroke="#000"/></g><g clip-path="url(#1)"><path d="m402 185.72l-3-3" stroke-linecap="butt" fill="none" stroke="#000"/></g><g clip-path="url(#1)"><path d="m402 185.72l-3 3" stroke-linecap="butt" fill="none" stroke="#000"/></g><g clip-path="url(#1)"><text font-style="italic" font-family="serif" font-size="10" x="0" y="0" transform="translate(18 199)">–1</text></g><g clip-path="url(#1)"><path d="m22.86 185.72v3" stroke-linecap="butt" fill="none" stroke="#000"/></g><g clip-path="url(#1)"><text font-style="italic" font-family="serif" font-size="10" x="0" y="0" transform="translate(200 199)">0</text></g><g clip-path="url(#1)"><text font-style="italic" font-family="serif" font-size="10" x="0" y="0" transform="translate(363 199)">1</text></g><g clip-path="url(#1)"><path d="m365.35 185.72v3" stroke-linecap="butt" fill="none" stroke="#000"/></g><g clip-path="url(#1)"><text font-style="italic" font-family="serif" font-size="10" x="0" y="0" transform="translate(177 360)">–1</text></g><g clip-path="url(#1)"><path d="m191.1 356.96h3" stroke-linecap="butt" fill="none" stroke="#000"/></g><g clip-path="url(#1)"><text font-style="italic" font-family="serif" font-size="10" x="0" y="0" transform="translate(182 183)">0</text></g><g clip-path="url(#1)"><text font-style="italic" font-family="serif" font-size="10" x="0" y="0" transform="translate(182 18)">1</text></g><g clip-path="url(#1)"><path d="m191.1 14.473h3" stroke-linecap="butt" fill="none" stroke="#000"/></g><g><g clip-path="url(#1)"><path d="m365.35 185.72c0 94.57-76.67 171.24-171.25 171.24-94.57 0-171.24-76.67-171.24-171.24 0-94.58 76.67-171.25 171.24-171.25 94.58 0 171.25 76.67 171.25 171.25z" stroke-linejoin="round" stroke-linecap="round" fill="none" stroke="#006400"/></g><g clip-path="url(#1)"><path d="m31.796 69.07c7.593 22.572 19.81 43.31 35.872 60.901" stroke-linejoin="round" stroke-linecap="round" fill="none" stroke="#c0c0c0"/></g><g clip-path="url(#1)"><path d="m323.11 127.09c14.99-17.17 26.4-37.16 33.57-58.804" stroke-linejoin="round" stroke-linecap="round" fill="none" stroke="#c0c0c0"/></g><g clip-path="url(#1)"><path d="m-5 100.1h413" stroke-linejoin="round" stroke-linecap="round" fill="none" stroke="#c0c0c0"/></g><g clip-path="url(#1)"><path d="m194.1 185.72h157.25" stroke-linejoin="round" stroke-linecap="round" fill="none" stroke="#000"/></g><g clip-path="url(#1)"><path d="m365.35 185.72l-14 3.5v-7z" fill-rule="evenodd"/></g><g clip-path="url(#1)"><path d="m194.1 185.72v-157.25" stroke-linejoin="round" stroke-linecap="round" fill="none" stroke="#000"/></g><g clip-path="url(#1)"><path d="m194.1 14.473l3.5 14h-7z" fill-rule="evenodd"/></g><g clip-path="url(#1)"><path d="m366.35 185.72c0 .55-.45 1-1 1-.55 0-1-.45-1-1 0-.55.45-1 1-1 .55 0 1 .45 1 1" fill="#300"/></g><g clip-path="url(#1)"><path d="m366.35 185.72c0 .55-.45 1-1 1-.55 0-1-.45-1-1 0-.55.45-1 1-1 .55 0 1 .45 1 1z" stroke-linejoin="round" stroke-linecap="round" fill="none" stroke="#000"/></g><g clip-path="url(#1)"><text font-style="italic" font-family="serif" fill="#300" font-size="12" x="0" y="0" transform="translate(370 177)">A</text></g><g clip-path="url(#1)"><text font-style="italic" font-family="serif" fill="#300" font-size="10" x="0" y="0" transform="translate(378 182)">0</text></g><g clip-path="url(#1)"><path d="m195.1 100c0 .55-.44 1-1 1-.55 0-1-.45-1-1 0-.552.45-1 1-1 .56 0 1 .448 1 1" fill="#03c"/></g><g clip-path="url(#1)"><path d="m195.1 100c0 .55-.44 1-1 1-.55 0-1-.45-1-1 0-.552.45-1 1-1 .56 0 1 .448 1 1z" stroke-linejoin="round" stroke-linecap="round" fill="none" stroke="#000"/></g><g clip-path="url(#1)"><text font-style="italic" font-family="serif" fill="#03c" font-size="12" x="0" y="0" transform="translate(198 98)">J</text></g><g clip-path="url(#1)"><path d="m195.1 14.473c0 .553-.44 1-1 1-.55 0-1-.447-1-1 0-.552.45-1 1-1 .56 0 1 .448 1 1" fill="#300"/></g><g clip-path="url(#1)"><path d="m195.1 14.473c0 .553-.44 1-1 1-.55 0-1-.447-1-1 0-.552.45-1 1-1 .56 0 1 .448 1 1z" stroke-linejoin="round" stroke-linecap="round" fill="none" stroke="#000"/></g><g clip-path="url(#1)"><text font-style="italic" font-family="serif" fill="#300" font-size="12" x="0" y="0" transform="translate(199 12)">I</text></g><g clip-path="url(#1)"><path d="m23.86 185.72c0 .55-.448 1-1 1-.552 0-1-.45-1-1 0-.55.448-1 1-1 .552 0 1 .45 1 1" fill="#444"/></g><g clip-path="url(#1)"><path d="m23.86 185.72c0 .55-.448 1-1 1-.552 0-1-.45-1-1 0-.55.448-1 1-1 .552 0 1 .45 1 1z" stroke-linejoin="round" stroke-linecap="round" fill="none" stroke="#000"/></g><g clip-path="url(#1)"><text font-style="italic" font-family="serif" fill="#444" font-size="12" x="0" y="0" transform="translate(11 181)">B</text></g><g clip-path="url(#1)"><text font-style="italic" font-family="serif" font-size="12" x="0" y="0" transform="translate(265 204)">u</text></g><g clip-path="url(#1)"><text font-style="italic" font-family="serif" font-size="12" x="0" y="0" transform="translate(181 103)">v</text></g></g><g transform="matrix(.06407 0 0-.2203 156.08 139.96)"><g clip-path="url(#0)"><path d="m357.26 217.01h136.22" fill="none" stroke="#000" stroke-linejoin="round" stroke-linecap="round" stroke-width="2" id="2"/></g><g clip-path="url(#0)"><path d="m509.48 217.01l-16 4v-8z" fill-rule="evenodd" id="3"/></g></g><g transform="matrix(.06407 0 0-.2203 240.95 241.76)"><g clip-path="url(#0)"><use xlink:href="#2"/></g><g clip-path="url(#0)"><use xlink:href="#3"/></g></g></g></svg>