<svg xmlns="http://www.w3.org/2000/svg" width="416.93" height="387.96" viewBox="0 0 402 374" xmlns:xlink="http://www.w3.org/1999/xlink"><defs><clipPath id="0"><path d="m0 0v438h568v-438z"/></clipPath><clipPath id="1"><path d="m-.067-.967v9.4h7.133v-9.4z"/></clipPath><clipPath id="2"><path d="m0 0v375h403v-375z"/></clipPath></defs><g stroke-linecap="square" stroke-miterlimit="10"><g clip-path="url(#2)"><path d="m194.1 2v373" stroke-linecap="butt" fill="none" stroke="#000"/></g><g clip-path="url(#2)"><path d="m194.1 1l-3 3" stroke-linecap="butt" fill="none" stroke="#000"/></g><g clip-path="url(#2)"><path d="m194.1 1l3 3" stroke-linecap="butt" fill="none" stroke="#000"/></g><g clip-path="url(#2)"><path d="m0 185.72h401" stroke-linecap="butt" fill="none" stroke="#000"/></g><g clip-path="url(#2)"><path d="m402 185.72l-3-3" stroke-linecap="butt" fill="none" stroke="#000"/></g><g clip-path="url(#2)"><path d="m402 185.72l-3 3" stroke-linecap="butt" fill="none" stroke="#000"/></g><g clip-path="url(#2)"><text font-style="italic" font-family="serif" font-size="10" x="0" y="0" transform="translate(18 199)">–1</text></g><g clip-path="url(#2)"><path d="m22.86 185.72v3" stroke-linecap="butt" fill="none" stroke="#000"/></g><g clip-path="url(#2)"><text font-style="italic" font-family="serif" font-size="10" x="0" y="0" transform="translate(200 199)">0</text></g><g clip-path="url(#2)"><text font-style="italic" font-family="serif" font-size="10" x="0" y="0" transform="translate(363 199)">1</text></g><g clip-path="url(#2)"><path d="m365.35 185.72v3" stroke-linecap="butt" fill="none" stroke="#000"/></g><g clip-path="url(#2)"><text font-style="italic" font-family="serif" font-size="10" x="0" y="0" transform="translate(177 360)">–1</text></g><g clip-path="url(#2)"><path d="m191.1 356.96h3" stroke-linecap="butt" fill="none" stroke="#000"/></g><g clip-path="url(#2)"><text font-style="italic" font-family="serif" font-size="10" x="0" y="0" transform="translate(182 183)">0</text></g><g clip-path="url(#2)"><text font-style="italic" font-family="serif" font-size="10" x="0" y="0" transform="translate(182 18)">1</text></g><g clip-path="url(#2)"><path d="m191.1 14.473h3" stroke-linecap="butt" fill="none" stroke="#000"/></g><g><g clip-path="url(#2)"><path d="m279.73 100.1c0 47.28-38.34 85.62-85.63 85.62-47.28 0-85.62-38.34-85.62-85.62 0-47.29 38.34-85.63 85.62-85.63 47.29 0 85.63 38.34 85.63 85.63z" stroke-linejoin="round" stroke-linecap="round" fill="none" stroke="#33f"/></g><g clip-path="url(#2)"><path d="m22.86 185.72l171.24-85.62" stroke-linejoin="round" stroke-linecap="round" fill="none" stroke="#390"/></g><g clip-path="url(#2)"><path d="m194.1 185.72h157.25" stroke-linejoin="round" stroke-linecap="round" fill="none" stroke="#000"/></g><g clip-path="url(#2)"><path d="m365.35 185.72l-14 3.5v-7z" fill-rule="evenodd"/></g><g clip-path="url(#2)"><path d="m194.1 185.72v-157.25" stroke-linejoin="round" stroke-linecap="round" fill="none" stroke="#000"/></g><g clip-path="url(#2)"><path d="m194.1 14.473l3.5 14h-7z" fill-rule="evenodd"/></g><g clip-path="url(#2)"><path d="m195.1 185.72c0 .55-.44 1-1 1-.55 0-1-.45-1-1 0-.55.45-1 1-1 .56 0 1 .45 1 1" fill="#444"/></g><g clip-path="url(#2)"><path d="m195.1 185.72c0 .55-.44 1-1 1-.55 0-1-.45-1-1 0-.55.45-1 1-1 .56 0 1 .45 1 1z" stroke-linejoin="round" stroke-linecap="round" fill="none" stroke="#000"/></g><g clip-path="url(#2)"><text font-style="italic" font-family="serif" fill="#444" font-size="12" x="0" y="0" transform="translate(180 201)">O</text></g><g clip-path="url(#2)"><path d="m366.35 185.72c0 .55-.45 1-1 1-.55 0-1-.45-1-1 0-.55.45-1 1-1 .55 0 1 .45 1 1" fill="#300"/></g><g clip-path="url(#2)"><path d="m366.35 185.72c0 .55-.45 1-1 1-.55 0-1-.45-1-1 0-.55.45-1 1-1 .55 0 1 .45 1 1z" stroke-linejoin="round" stroke-linecap="round" fill="none" stroke="#000"/></g><g clip-path="url(#2)"><path d="m195.1 14.473c0 .553-.44 1-1 1-.55 0-1-.447-1-1 0-.552.45-1 1-1 .56 0 1 .448 1 1" fill="#300"/></g><g clip-path="url(#2)"><path d="m195.1 14.473c0 .553-.44 1-1 1-.55 0-1-.447-1-1 0-.552.45-1 1-1 .56 0 1 .448 1 1z" stroke-linejoin="round" stroke-linecap="round" fill="none" stroke="#000"/></g><g clip-path="url(#2)"><path d="m195.1 100.1c0 .55-.44 1-1 1-.55 0-1-.45-1-1 0-.556.45-1 1-1 .56 0 1 .448 1 1" fill="#444"/></g><g clip-path="url(#2)"><path d="m195.1 100.1c0 .55-.44 1-1 1-.55 0-1-.45-1-1 0-.556.45-1 1-1 .56 0 1 .448 1 1z" stroke-linejoin="round" stroke-linecap="round" fill="none" stroke="#000"/></g><g clip-path="url(#2)"><text font-style="italic" font-family="serif" fill="#444" font-size="12" x="0" y="0" transform="translate(198 98)">J</text></g><g clip-path="url(#2)"><path d="m23.86 185.72c0 .55-.448 1-1 1-.552 0-1-.45-1-1 0-.55.448-1 1-1 .552 0 1 .45 1 1" fill="#300"/></g><g clip-path="url(#2)"><path d="m23.86 185.72c0 .55-.448 1-1 1-.552 0-1-.45-1-1 0-.55.448-1 1-1 .552 0 1 .45 1 1z" stroke-linejoin="round" stroke-linecap="round" fill="none" stroke="#000"/></g><g clip-path="url(#2)"><text font-style="italic" font-family="serif" fill="#300" font-size="12" x="0" y="0" transform="translate(16 179)">B</text></g><g clip-path="url(#2)"><path d="m118.52 138.39c0 .55-.45 1-1 1-.55 0-1-.45-1-1 0-.55.45-1 1-1 .55 0 1 .45 1 1" fill="#444"/></g><g clip-path="url(#2)"><path d="m118.52 138.39c0 .55-.45 1-1 1-.55 0-1-.45-1-1 0-.55.45-1 1-1 .55 0 1 .45 1 1z" stroke-linejoin="round" stroke-linecap="round" fill="none" stroke="#000"/></g><g clip-path="url(#2)"><text font-style="italic" font-family="serif" fill="#444" font-size="12" x="0" y="0" transform="translate(101 139)">K</text></g><g clip-path="url(#2)"><text font-style="italic" font-family="serif" font-size="12" x="0" y="0" transform="translate(265 204)">u</text></g><g clip-path="url(#2)"><text font-style="italic" font-family="serif" font-size="12" x="0" y="0" transform="translate(181 103)">v</text></g></g><g transform="matrix(.05646 0 0 .39431 159.9 6.02)"><g clip-path="url(#0)"><path d="m357.26 217.01h136.22" fill="none" stroke="#000" stroke-linejoin="round" stroke-linecap="round" stroke-width="2" id="3"/></g><g clip-path="url(#0)"><path d="m509.48 217.01l-16 4v-8z" fill-rule="evenodd" id="4"/></g></g><g transform="matrix(.05646 0 0 .39431 244.8 106.9)"><g clip-path="url(#0)"><use xlink:href="#3"/></g><g clip-path="url(#0)"><use xlink:href="#4"/></g></g><g transform="matrix(.93818 0 0 .93818 261.94 29.945)"><g transform="matrix(15 0 0 15 1 14.5)" clip-path="url(#1)"><path d="m.344-.094q0 .016 0 .016-.016.016-.016.016 0 0 0-.016-.031-.016-.031-.039 0-.023.031-.07.031-.047.078-.078.047-.031.078-.031.078 0 .094.063 0 .016 0 .016 0 .063-.047.125-.031.047-.094.078-.063.031-.125.031-.063 0-.102-.031-.039-.031-.039-.078 0 0 0-.016 0-.109.094-.234h-.016q-.141 0-.203-.063-.016-.031-.016-.078 0-.031.031-.078.031-.047.094-.078.078-.031.141-.031.016 0 .016 0 0 0-.016.016-.063 0-.109.031-.047.031-.078.063-.031.047-.031.094 0 .031.016.047.031.047.156.047.016 0 .031 0 .094-.141.234-.234.141-.109.219-.109.063 0 .078.063 0 .047-.031.094-.063.094-.219.156-.094.031-.203.047-.125.172-.125.266 0 .047.023.07.023.023.07.023.031 0 .078-.031.047-.031.078-.078.047-.078.047-.109v-.016q0-.031-.047-.031-.031 0-.063.023-.031.023-.063.07-.031.031-.031.047 0 .031.016.031m0 .016q0 0 0 0m.391-.609q-.063 0-.172.094-.078.078-.188.203.094 0 .172-.031.141-.063.203-.141.031-.047.031-.094 0-.031-.047-.031" fill="#009"/></g></g></g></svg>