<svg xmlns="http://www.w3.org/2000/svg" width="234.64" height="208.8" viewBox="0 0 334 298" xmlns:xlink="http://www.w3.org/1999/xlink"><defs><clipPath id="7"><path d="m-12.964-13.924v19.934h22.4v-19.934z"/></clipPath><clipPath id="B"><path d="m-24.34-21.782v28.476h32v-28.476z"/></clipPath><clipPath id="8"><path d="m-7.933-15.16v19.933h22.4v-19.933z"/></clipPath><clipPath id="A"><path d="m-16.467-15.1v19.933h22.4v-19.933z"/></clipPath><clipPath id="9"><path d="m-12.15-21.877v28.476h32v-28.476z"/></clipPath><clipPath id="6"><path d="m-12.464-13.924v19.934h22.4v-19.934z"/></clipPath><clipPath id="0"><path d="m0 0v299h336v-299z"/></clipPath><clipPath id="5"><path d="m0 0v19.933h22.4v-19.933z"/></clipPath><clipPath id="1"><path d="m-3.6-1.55v19.933h22.4v-19.933z"/></clipPath><clipPath id="3"><path d="m-11.4-13.238v19.934h22.4v-19.934z"/></clipPath><clipPath id="4"><path d="m-12.764-12.561v19.933h22.4v-19.933z"/></clipPath><clipPath id="2"><path d="m-6.164-2.429v28.477h32v-28.477z"/></clipPath></defs><g stroke-miterlimit="10" stroke-linecap="square"><g clip-path="url(#0)"><path d="m38.1 2v297" stroke-linecap="butt" fill="none" stroke="#000"/></g><g clip-path="url(#0)"><path d="m38.1 1l-3 3" stroke-linecap="butt" fill="none" stroke="#000"/></g><g clip-path="url(#0)"><path d="m38.1 1l3 3" stroke-linecap="butt" fill="none" stroke="#000"/></g><g clip-path="url(#0)"><path d="m0 213.72h334" stroke-linecap="butt" fill="none" stroke="#000"/></g><g clip-path="url(#0)"><path d="m335 213.72l-3-3" stroke-linecap="butt" fill="none" stroke="#000"/></g><g clip-path="url(#0)"><path d="m335 213.72l-3 3" stroke-linecap="butt" fill="none" stroke="#000"/></g><g><g clip-path="url(#0)"><path d="m72.19-10.59l1.312 6.078 1.312 6.01 1.313 5.942 1.313 5.874 1.312 5.806 1.312 5.739 1.313 5.67 1.313 5.602 1.312 5.535 1.312 5.467 1.313 5.398 1.313 5.331 1.312 5.263 1.312 5.195 1.313 5.128 1.313 5.059 1.312 4.991 2.625 9.779 2.625 9.503 2.63 9.24 2.62 8.96 2.62 8.7 2.63 8.42 2.63 8.15 2.62 7.88 2.62 7.6 2.63 7.34 2.63 7.06 2.62 6.79 2.62 6.52 2.63 6.25 2.63 5.97 2.62 5.71 2.62 5.43 2.63 5.16 2.63 4.89 2.62 4.62 2.62 4.35 2.63 4.07 2.63 3.81 2.62 3.53 2.62 3.26 2.63 2.99 2.63 2.72 2.62 2.44 2.62 2.18 2.63 1.9 2.63 1.63 2.62 1.36 2.62 1.09 2.63.81 2.63.55 2.62.27h2.62l2.63-.27 2.63-.54 2.62-.82 2.62-1.08 2.63-1.36 2.63-1.63 2.62-1.9 2.62-2.17 2.63-2.44 2.63-2.72 2.62-2.98 2.62-3.26 2.63-3.53 2.63-3.8 2.62-4.08 2.62-4.34 2.63-4.62 2.63-4.89 2.62-5.16 2.62-5.43 2.63-5.7 2.63-5.97 2.62-6.25 2.62-6.52 2.63-6.79 2.63-7.06 2.62-7.33 2.62-7.6 2.63-7.88 2.63-8.15 2.62-8.41 2.62-8.7 2.63-8.96 2.63-9.23 2.62-9.506 2.62-9.777 1.32-4.99 1.31-5.059 1.31-5.126 1.32-5.194 1.31-5.262 1.31-5.329 1.31-5.398 1.31-5.466 1.32-5.533 1.31-5.602 1.31-5.669 1.32-5.737 1.31-5.805 1.31-5.873 1.31-5.941 1.31-6.01 1.32-6.077" stroke-linejoin="round" stroke-width="1.5" stroke-linecap="round" fill="none" stroke="#03c"/></g><g clip-path="url(#0)"><path d="m190.32 213.72v50.74" stroke-linejoin="round" stroke-dasharray="1 3" stroke-linecap="butt" fill="none" stroke="#000"/></g><g clip-path="url(#0)"><path d="m140.58 213.72c0 .56-.44 1-1 1-.55 0-1-.44-1-1 0-.55.45-1 1-1 .56 0 1 .45 1 1" fill="#444"/></g><g clip-path="url(#0)"><path d="m140.58 213.72c0 .56-.44 1-1 1-.55 0-1-.44-1-1 0-.55.45-1 1-1 .56 0 1 .45 1 1z" stroke-linejoin="round" stroke-linecap="round" fill="none" stroke="#000"/></g><g clip-path="url(#0)"><path d="m242.06 213.72c0 .56-.45 1-1 1-.55 0-1-.44-1-1 0-.55.45-1 1-1 .55 0 1 .45 1 1" fill="#444"/></g><g clip-path="url(#0)"><path d="m242.06 213.72c0 .56-.45 1-1 1-.55 0-1-.44-1-1 0-.55.45-1 1-1 .55 0 1 .45 1 1z" stroke-linejoin="round" stroke-linecap="round" fill="none" stroke="#000"/></g><g clip-path="url(#1)" transform="matrix(15 0 0 15 54 23.25)"><path d="m.766-.688l-.063.25q-.016.016-.016.016h-.016q-.016 0-.016-.016l.016-.047q0-.125-.078-.172-.047-.016-.094-.016-.094 0-.188.078-.031.016-.047.047-.094.109-.125.281 0 .031 0 .047 0 .141.109.188.031.016.094.016.094 0 .172-.063.078-.062.109-.156 0-.016.016-.016 0 0 0 .016 0 .016-.016.063-.031.063-.094.109-.094.078-.203.078-.141 0-.219-.078-.063-.078-.063-.188 0-.156.109-.281.109-.125.234-.156.063-.016.109-.016.109 0 .156.094l.078-.078q.016-.016.016-.016.016 0 .016.016" fill="#03c"/></g><g clip-path="url(#2)" transform="matrix(10.5 0 0 10.5 64.721 25.5)"><path d="m.359-.406l-.047.328q-.016.063-.047.141 0 .031-.016.047-.031.078-.094.094 0 0-.016 0-.047 0-.078-.031-.016-.016-.016-.031 0-.047.047-.062 0 0 .016 0 .031 0 .031.016 0 .016 0 .016 0 .031-.031.047 0 0-.016.016.016.016.047.016.047 0 .063-.109.016-.016.016-.047v-.031l.078-.406h-.062q-.031 0-.031 0 0-.016.016-.031h.016.078q.016-.125.031-.156.031-.094.094-.109.016 0 .031 0 .047 0 .078.031 0 .016 0 .031 0 .047-.031.063 0 0-.016 0-.031 0-.031-.016-.016-.016-.016-.016 0-.031.031-.047.016 0 .031-.016-.016-.016-.047-.016-.031 0-.047.031-.016.016-.031.109l-.016.109h.078q.031 0 .031.016 0 .016-.016.016h-.016-.094" fill="#03c"/></g><g clip-path="url(#3)" transform="matrix(15 0 0 15 171 198.56)"><path d="m.656-.234h-.547q-.031 0-.031-.016 0-.016.031-.016h.547q.031 0 .031.016 0 .016-.031.016"/></g><g clip-path="url(#4)" transform="matrix(15 0 0 15 191.46 188.42)"><path d="m.234-.688l-.063.313q.047-.063.109-.063.078 0 .109.063.031.047.031.094 0 .109-.078.203-.078.078-.156.094 0 0-.016 0-.063 0-.109-.078-.016-.031-.016-.078 0-.047.016-.109l.078-.328q.016-.047.016-.063 0 0-.016-.016 0 0-.031 0-.016 0-.031 0 0-.031.031-.031h.109q.016 0 .016 0m-.094.375l-.016.094q-.016.063-.016.109 0 .078.047.094.016 0 .016 0 .063 0 .094-.063.016-.016.031-.031.016-.063.047-.156 0-.031 0-.063 0-.078-.047-.094-.016 0-.016 0-.063 0-.125.078 0 .016-.016.031"/></g><g clip-path="url(#5)" transform="scale(15)"><path d="m12.464 12.968h1.029v.04h-1.029v-.04"/></g><g clip-path="url(#6)" transform="matrix(15 0 0 15 186.97 208.85)"><path d="m.453-.172l-.031.172h-.375q0-.031.016-.031l.188-.219q.109-.125.109-.219 0-.094-.063-.141-.031-.031-.078-.031-.063 0-.109.063-.016.016-.016.047 0 0 .016 0 .031 0 .047.031 0 .016 0 .016 0 .047-.047.047 0 .016 0 .016-.047 0-.063-.031 0-.016 0-.031 0-.078.063-.125.047-.063.125-.063.109 0 .172.078.031.047.047.109 0 0 0 .016 0 .063-.063.141-.031.031-.094.078l-.047.063h-.016l-.109.109h.188q.078 0 .094 0 0-.016.016-.094h.031" id="C"/></g><g clip-path="url(#7)" transform="matrix(15 0 0 15 194.47 208.85)"><path d="m.375-.375q0-.031.031-.047 0 0 .016 0 .016 0 .016.031 0 0 0 .031l-.031.141q-.016.063-.031.094-.016.047-.016.063 0 .047.031.047.047 0 .063-.078.016-.016.016-.047.016-.016.016-.016.016 0 .016.016 0 .016-.016.062-.016.016-.016.031-.031.063-.078.063-.047 0-.078-.047 0-.016-.016-.031-.062.078-.125.078-.078 0-.109-.078-.016-.031-.016-.094 0-.094.063-.188.078-.094.156-.094.016 0 .016 0 .063 0 .094.063m-.063.25l.047-.188q0-.016 0-.016 0-.031-.016-.063-.016-.031-.063-.031-.047 0-.094.063-.016.016-.016.031-.031.063-.063.172 0 .031 0 .047 0 .078.047.094 0 0 .016 0 .063 0 .109-.063.016-.016.031-.031 0-.016 0-.016"/></g><g clip-path="url(#8)" transform="matrix(15 0 0 15 119 227.46)"><path d="m.328-.297l-.031.125q-.016.078-.016.094 0 .047.031.063.016 0 .031 0 .047 0 .078-.047.031-.031.047-.078 0-.016.016-.016.016 0 .016.016 0 .016-.031.062-.063.094-.125.094-.078 0-.109-.063 0-.016 0-.016-.031.047-.078.063-.016.016-.031.016-.063 0-.094-.047 0 0 0-.031 0-.031.031-.047.016 0 .016 0 .031 0 .047.016 0 .016 0 .016 0 .031-.031.047-.016 0-.016 0 .016.016.047.016.047 0 .078-.063.016-.016.016-.031.047-.203.047-.25 0-.063-.047-.063-.047 0-.094.063 0 0 0 0-.016.016-.031.047 0 0 0 .016l-.016.016q0 0 0 0-.016 0-.016 0 0-.031.031-.078.047-.078.125-.078.078 0 .109.078.031-.063.078-.078.016 0 .031 0 .063 0 .078.031.016.016.016.031 0 .047-.047.047 0 .016-.016.016-.031 0-.031-.031 0 0 0-.016 0-.031.031-.047 0 0 .016 0-.016-.016-.047-.016-.078 0-.094.109-.016 0-.016.016" id="D"/></g><g clip-path="url(#9)" transform="matrix(10.5 0 0 10.5 127.57 229.71)"><path d="m.297-.641v.562q0 .031.016.031.016.016.078.016h.031v.031q-.031 0-.172 0-.125 0-.156 0v-.031h.031q.078 0 .094-.016 0-.016 0-.031v-.516q-.047.016-.125.016v-.031q.109 0 .172-.063.031 0 .031.016 0 0 0 .016"/></g><g clip-path="url(#A)" transform="matrix(15 0 0 15 247 226.46)"><use xlink:href="#D"/></g><g clip-path="url(#B)" transform="matrix(10.5 0 0 10.5 255.57 228.71)"><use xlink:href="#C"/></g></g></g></svg>