<svg xmlns="http://www.w3.org/2000/svg" width="234.64" height="208.8" viewBox="0 0 334 298"><defs><clipPath id="6"><path d="m-11.931-11.79v19.933h22.4v-19.933z"/></clipPath><clipPath id="5"><path d="m0 0v19.933h22.4v-19.933z"/></clipPath><clipPath id="7"><path d="m-12.431-11.79v19.933h22.4v-19.933z"/></clipPath><clipPath id="4"><path d="m-12.231-10.428v19.934h22.4v-19.934z"/></clipPath><clipPath id="3"><path d="m-10.867-11.1v19.933h22.4v-19.933z"/></clipPath><clipPath id="0"><path d="m0 0v299h336v-299z"/></clipPath><clipPath id="2"><path d="m-11.497-27.571v28.476h32v-28.476z"/></clipPath><clipPath id="1"><path d="m-7.333-19.15v19.933h22.4v-19.933z"/></clipPath></defs><g stroke-miterlimit="10" stroke-linecap="square"><g clip-path="url(#0)"><path d="m35.1 2v297" stroke-linecap="butt" fill="none" stroke="#000"/></g><g clip-path="url(#0)"><path d="m35.1 1l-3 3" stroke-linecap="butt" fill="none" stroke="#000"/></g><g clip-path="url(#0)"><path d="m35.1 1l3 3" stroke-linecap="butt" fill="none" stroke="#000"/></g><g clip-path="url(#0)"><path d="m0 182.72h334" stroke-linecap="butt" fill="none" stroke="#000"/></g><g clip-path="url(#0)"><path d="m335 182.72l-3-3" stroke-linecap="butt" fill="none" stroke="#000"/></g><g clip-path="url(#0)"><path d="m335 182.72l-3 3" stroke-linecap="butt" fill="none" stroke="#000"/></g><g><g clip-path="url(#0)"><path d="m126 307.58l2.62-6.21 2.63-5.94 2.63-5.67 2.62-5.39 2.62-5.12 2.63-4.85 2.63-4.58 2.62-4.31 2.62-4.04 2.63-3.76 2.63-3.5 2.62-3.22 2.62-2.95 2.63-2.68 2.63-2.4 2.62-2.14 2.62-1.86 2.63-1.59 2.63-1.32 2.62-1.05 2.62-.78 2.63-.51 2.63-.23 2.62.04 2.62.31 2.63.58 2.63.85 2.62 1.13 2.62 1.39 2.63 1.67 2.63 1.94 2.62 2.21 2.62 2.48 2.63 2.75 2.63 3.03 2.62 3.3 2.62 3.57 2.63 3.84 2.63 4.11 2.62 4.38 2.62 4.66 2.63 4.92 2.63 5.2 2.62 5.47 2.62 5.74 2.63 6.02 2.63 6.28" stroke-linejoin="round" stroke-width="1.5" stroke-linecap="round" fill="none" stroke="#03c"/></g><g clip-path="url(#0)"><path d="m187.32 233.46v-50.74" stroke-linejoin="round" stroke-dasharray="1 3" stroke-linecap="butt" fill="none" stroke="#000"/></g><g clip-path="url(#1)" transform="matrix(15 0 0 15 110 287.25)"><path d="m.766-.688l-.063.25q-.016.016-.016.016h-.016q-.016 0-.016-.016l.016-.047q0-.125-.078-.172-.047-.016-.094-.016-.094 0-.188.078-.031.016-.047.047-.094.109-.125.281 0 .031 0 .047 0 .141.109.188.031.016.094.016.094 0 .172-.063.078-.062.109-.156 0-.016.016-.016 0 0 0 .016 0 .016-.016.063-.031.063-.094.109-.094.078-.203.078-.141 0-.219-.078-.063-.078-.063-.188 0-.156.109-.281.109-.125.234-.156.063-.016.109-.016.109 0 .156.094l.078-.078q.016-.016.016-.016.016 0 .016.016" fill="#03c"/></g><g clip-path="url(#2)" transform="matrix(10.5 0 0 10.5 120.72 289.5)"><path d="m.359-.406l-.047.328q-.016.063-.047.141 0 .031-.016.047-.031.078-.094.094 0 0-.016 0-.047 0-.078-.031-.016-.016-.016-.031 0-.047.047-.062 0 0 .016 0 .031 0 .031.016 0 .016 0 .016 0 .031-.031.047 0 0-.016.016.016.016.047.016.047 0 .063-.109.016-.016.016-.047v-.031l.078-.406h-.062q-.031 0-.031 0 0-.016.016-.031h.016.078q.016-.125.031-.156.031-.094.094-.109.016 0 .031 0 .047 0 .078.031 0 .016 0 .031 0 .047-.031.063 0 0-.016 0-.031 0-.031-.016-.016-.016-.016-.016 0-.031.031-.047.016 0 .031-.016-.016-.016-.047-.016-.031 0-.047.031-.016.016-.031.109l-.016.109h.078q.031 0 .031.016 0 .016-.016.016h-.016-.094" fill="#03c"/></g><g clip-path="url(#3)" transform="matrix(15 0 0 15 163 166.56)"><path d="m.656-.234h-.547q-.031 0-.031-.016 0-.016.031-.016h.547q.031 0 .031.016 0 .016-.031.016"/></g><g clip-path="url(#4)" transform="matrix(15 0 0 15 183.46 156.42)"><path d="m.234-.688l-.063.313q.047-.063.109-.063.078 0 .109.063.031.047.031.094 0 .109-.078.203-.078.078-.156.094 0 0-.016 0-.063 0-.109-.078-.016-.031-.016-.078 0-.047.016-.109l.078-.328q.016-.047.016-.063 0 0-.016-.016 0 0-.031 0-.016 0-.031 0 0-.031.031-.031h.109q.016 0 .016 0m-.094.375l-.016.094q-.016.063-.016.109 0 .078.047.094.016 0 .016 0 .063 0 .094-.063.016-.016.031-.031.016-.063.047-.156 0-.031 0-.063 0-.078-.047-.094-.016 0-.016 0-.063 0-.125.078 0 .016-.016.031"/></g><g clip-path="url(#5)" transform="scale(15)"><path d="m11.931 10.834h1.029v.04h-1.029v-.04"/></g><g clip-path="url(#6)" transform="matrix(15 0 0 15 178.97 176.85)"><path d="m.453-.172l-.031.172h-.375q0-.031.016-.031l.188-.219q.109-.125.109-.219 0-.094-.063-.141-.031-.031-.078-.031-.063 0-.109.063-.016.016-.016.047 0 0 .016 0 .031 0 .047.031 0 .016 0 .016 0 .047-.047.047 0 .016 0 .016-.047 0-.063-.031 0-.016 0-.031 0-.078.063-.125.047-.063.125-.063.109 0 .172.078.031.047.047.109 0 0 0 .016 0 .063-.063.141-.031.031-.094.078l-.047.063h-.016l-.109.109h.188q.078 0 .094 0 0-.016.016-.094h.031"/></g><g clip-path="url(#7)" transform="matrix(15 0 0 15 186.47 176.85)"><path d="m.375-.375q0-.031.031-.047 0 0 .016 0 .016 0 .016.031 0 0 0 .031l-.031.141q-.016.063-.031.094-.016.047-.016.063 0 .047.031.047.047 0 .063-.078.016-.016.016-.047.016-.016.016-.016.016 0 .016.016 0 .016-.016.062-.016.016-.016.031-.031.063-.078.063-.047 0-.078-.047 0-.016-.016-.031-.062.078-.125.078-.078 0-.109-.078-.016-.031-.016-.094 0-.094.063-.188.078-.094.156-.094.016 0 .016 0 .063 0 .094.063m-.063.25l.047-.188q0-.016 0-.016 0-.031-.016-.063-.016-.031-.063-.031-.047 0-.094.063-.016.016-.016.031-.031.063-.063.172 0 .031 0 .047 0 .078.047.094 0 0 .016 0 .063 0 .109-.063.016-.016.031-.031 0-.016 0-.016"/></g></g></g></svg>