<?xml version="1.0" encoding="utf-8"?>
<!-- Generator: Adobe Illustrator 22.1.0, SVG Export Plug-In . SVG Version: 6.00 Build 0)  -->
<svg version="1.1" id="Calque_1" xmlns="http://www.w3.org/2000/svg" xmlns:xlink="http://www.w3.org/1999/xlink" x="0px" y="0px"
	 viewBox="0 0 114 128" style="enable-background:new 0 0 114 128;" xml:space="preserve">
<style type="text/css">
	.st0{fill:#FF402F;}
	.st1{fill:#FF9A30;}
	.st2{fill:#FFFFFF;}
</style>
<path class="st0" d="M81.2,80.3c-0.1-0.5-0.5-1.2-0.9-1.6c-1.3-1.2-4-1.9-8.3-1.9c-2.9,0-6.3,0.2-9.9,0.7c-1.6-0.9-3.3-1.9-4.6-3.2
	c-3.5-3.3-6.5-7.9-8.3-12.9c0.1-0.5,0.2-0.9,0.3-1.3c0,0,2-11.3,1.5-15.1c-0.1-0.5-0.1-0.7-0.3-1.1l-0.2-0.4C50,42.3,49,41,47.3,41
	l-1,0h0c-1.9,0-3.4,1-3.8,2.4c-1.2,4.4,0,11.1,2.3,19.7l-0.6,1.4c-1.6,3.9-3.6,7.9-5.4,11.4l-0.2,0.4c-1.9,3.7-3.6,6.8-5.1,9.4
	l-1.6,0.8c-0.1,0.1-2.8,1.5-3.5,1.9c-5.4,3.3-9,6.9-9.6,9.8c-0.2,0.9,0,2.1,0.9,2.7l1.5,0.8c0.7,0.3,1.4,0.5,2.1,0.5
	c3.9,0,8.4-4.8,14.5-15.6c7.1-2.3,15.3-4.3,22.4-5.3c5.4,3.1,12.1,5.2,16.3,5.2c0.8,0,1.4-0.1,1.9-0.2c0.8-0.2,1.5-0.7,1.9-1.3
	C81.3,83.8,81.4,82.1,81.2,80.3z M22.5,99.3c0.7-1.9,3.5-5.8,7.6-9.1c0.3-0.2,0.9-0.8,1.5-1.4C27.3,95.7,24.4,98.5,22.5,99.3z
	 M47,43c1.2,0,2,3.1,2,6.1c0.1,2.9-0.6,5-1.5,6.5c-0.7-2.3-1-5.8-1-8.2C46.4,47.5,46.4,43,47,43z M39.7,83.1
	c0.9-1.6,1.8-3.2,2.7-4.9c2.3-4.3,3.7-7.6,4.7-10.3c2.1,3.8,4.7,7.1,7.8,9.7c0.4,0.3,0.8,0.7,1.2,1C49.8,79.8,44.4,81.3,39.7,83.1z
	 M79.1,82.8c-0.4,0.2-1.5,0.4-2.2,0.4c-2.3,0-5.1-1-9-2.7c1.5-0.1,2.9-0.2,4.1-0.2c2.3,0,2.9,0,5.2,0.6
	C79.4,81.4,79.5,82.6,79.1,82.8z"/>
<path class="st0" d="M90,80c-13.3,0-24,10.7-24,24s10.7,24,24,24s24-10.7,24-24S103.3,80,90,80z M100.9,104.7l-0.1,0.2l-8.2,11.4
	c-0.5,0.9-1.5,1.4-2.5,1.4s-2-0.5-2.5-1.4l-8.3-11.5c-0.5-0.9-0.5-2.1,0-3c0.5-0.9,1.5-1.5,2.6-1.5H86v-6.5c0-1.6,1.3-3,3-3h2
	c1.7,0,3,1.3,3,3v6.5h4.3c1.1,0,2.1,0.6,2.6,1.5C101.4,102.7,101.4,103.8,100.9,104.7z"/>
<g>
	<polygon class="st1" points="70,125.9 69.9,126 70,126 	"/>
	<polygon class="st1" points="100,77 100,76.9 99.9,77 	"/>
	<path class="st0" d="M97.1,44.2L57.8,4.9C55.9,3,53.4,2,50.7,2H10C4.5,2,0,6.5,0,12v104c0,5.5,4.5,10,10,10h59.9l-4-4H10
		c-3.3,0-6-2.7-6-6V12c0-3.3,2.7-6,6-6h40.7c1.6,0,3.1,0.6,4.2,1.8l39.3,39.3c1.1,1.1,1.8,2.7,1.8,4.2v21.6l4,4V51.3
		C100,48.6,99,46.1,97.1,44.2z"/>
	<polyline class="st2" points="99.9,77 100,76.9 96,72.9 	"/>
</g>
</svg>
