<svg xmlns="http://www.w3.org/2000/svg" width="1164.97" height="774.93" viewBox="0 0 453 301"><defs><clipPath id="0"><path d="m0 0v302h454v-302z"/></clipPath></defs><g stroke-miterlimit="10" stroke-linecap="square"><g clip-path="url(#0)"><path d="m6.03 280.31v3" stroke-linecap="butt" fill="none" stroke="#000"/></g><g clip-path="url(#0)"><path d="m0 280.31h452" stroke-linecap="butt" fill="none" stroke="#000"/></g><g clip-path="url(#0)"><path d="m453 280.31l-3-3" stroke-linecap="butt" fill="none" stroke="#000"/></g><g clip-path="url(#0)"><path d="m453 280.31l-3 3" stroke-linecap="butt" fill="none" stroke="#000"/></g><g clip-path="url(#0)"><path d="m19.843 280.31v3" stroke-linecap="butt" fill="none" stroke="#000"/></g><g clip-path="url(#0)"><path d="m33.652 280.31v3" stroke-linecap="butt" fill="none" stroke="#000"/></g><g clip-path="url(#0)"><path d="m47.46 280.31v3" stroke-linecap="butt" fill="none" stroke="#000"/></g><g clip-path="url(#0)"><path d="m61.27 280.31v3" stroke-linecap="butt" fill="none" stroke="#000"/></g><g clip-path="url(#0)"><path d="m75.08 280.31v3" stroke-linecap="butt" fill="none" stroke="#000"/></g><g clip-path="url(#0)"><path d="m88.89 280.31v3" stroke-linecap="butt" fill="none" stroke="#000"/></g><g clip-path="url(#0)"><path d="m102.69 280.31v3" stroke-linecap="butt" fill="none" stroke="#000"/></g><g clip-path="url(#0)"><path d="m116.5 280.31v3" stroke-linecap="butt" fill="none" stroke="#000"/></g><g clip-path="url(#0)"><path d="m130.31 280.31v3" stroke-linecap="butt" fill="none" stroke="#000"/></g><g clip-path="url(#0)"><path d="m144.12 280.31v3" stroke-linecap="butt" fill="none" stroke="#000"/></g><g clip-path="url(#0)"><path d="m157.93 280.31v3" stroke-linecap="butt" fill="none" stroke="#000"/></g><g clip-path="url(#0)"><path d="m171.74 280.31v3" stroke-linecap="butt" fill="none" stroke="#000"/></g><g clip-path="url(#0)"><path d="m185.55 280.31v3" stroke-linecap="butt" fill="none" stroke="#000"/></g><g clip-path="url(#0)"><path d="m199.36 280.31v3" stroke-linecap="butt" fill="none" stroke="#000"/></g><g clip-path="url(#0)"><path d="m213.16 280.31v3" stroke-linecap="butt" fill="none" stroke="#000"/></g><g clip-path="url(#0)"><path d="m226.97 280.31v3" stroke-linecap="butt" fill="none" stroke="#000"/></g><g clip-path="url(#0)"><path d="m240.78 280.31v3" stroke-linecap="butt" fill="none" stroke="#000"/></g><g clip-path="url(#0)"><path d="m254.59 280.31v3" stroke-linecap="butt" fill="none" stroke="#000"/></g><g clip-path="url(#0)"><path d="m268.4 280.31v3" stroke-linecap="butt" fill="none" stroke="#000"/></g><g clip-path="url(#0)"><path d="m282.21 280.31v3" stroke-linecap="butt" fill="none" stroke="#000"/></g><g clip-path="url(#0)"><path d="m296.02 280.31v3" stroke-linecap="butt" fill="none" stroke="#000"/></g><g clip-path="url(#0)"><path d="m309.82 280.31v3" stroke-linecap="butt" fill="none" stroke="#000"/></g><g clip-path="url(#0)"><path d="m323.63 280.31v3" stroke-linecap="butt" fill="none" stroke="#000"/></g><g clip-path="url(#0)"><path d="m337.44 280.31v3" stroke-linecap="butt" fill="none" stroke="#000"/></g><g clip-path="url(#0)"><path d="m351.25 280.31v3" stroke-linecap="butt" fill="none" stroke="#000"/></g><g clip-path="url(#0)"><path d="m365.06 280.31v3" stroke-linecap="butt" fill="none" stroke="#000"/></g><g clip-path="url(#0)"><path d="m378.87 280.31v3" stroke-linecap="butt" fill="none" stroke="#000"/></g><g clip-path="url(#0)"><path d="m392.68 280.31v3" stroke-linecap="butt" fill="none" stroke="#000"/></g><g clip-path="url(#0)"><path d="m406.48 280.31v3" stroke-linecap="butt" fill="none" stroke="#000"/></g><g clip-path="url(#0)"><path d="m420.29 280.31v3" stroke-linecap="butt" fill="none" stroke="#000"/></g><g clip-path="url(#0)"><path d="m434.1 280.31v3" stroke-linecap="butt" fill="none" stroke="#000"/></g><g><g clip-path="url(#0)"><path d="m0 280.21l3.547-.03 3.547-.03 3.547-.04 3.547-.05 3.546-.07 3.547-.08 3.547-.1 3.547-.13 3.547-.15 3.547-.18 3.547-.22 3.546-.27 3.547-.32 3.547-.38 3.547-.46 3.547-.54 3.547-.64 3.547-.75 3.547-.88 3.547-1.02 3.546-1.19 3.547-1.37 3.547-1.58 3.547-1.8 3.547-2.05 3.547-2.33 3.547-2.63 3.546-2.95 3.548-3.3 3.55-3.67 3.54-4.07 3.55-4.48 3.55-4.91 3.54-5.36 3.55-5.83 3.55-6.29 3.54-6.76 3.55-7.23 3.55-7.69 3.55-8.13 3.54-8.55 3.55-8.93 3.55-9.29 3.54-9.59 3.55-9.84 1.77-5 1.78-5.03 1.77-5.07 1.77-5.09 1.78-5.1 1.77-5.11 1.77-5.1 1.78-5.08 1.77-5.05 1.77-5.01 3.55-9.863 3.55-9.572 3.54-9.19 3.55-8.718 3.55-8.157 3.54-7.509 3.55-6.782 3.55-5.981 3.55-5.111 3.54-4.185 3.55-3.21 1.77-1.227 1.78-.97 1.77-.711 1.77-.449 1.78-.186 1.77.077 1.77.341 1.78.603 1.77.864 1.77 1.122 3.55 3 3.55 3.988 3.54 4.925 3.55 5.807 3.55 6.623 3.55 7.366 3.54 8.03 3.55 8.61 3.55 9.1 3.54 9.501 3.55 9.81 1.77 4.993 1.78 5.04 1.77 5.07 1.77 5.09 1.78 5.1 1.77 5.11 1.77 5.09 1.78 5.08 1.77 5.05 1.77 5.02 3.55 9.88 3.55 9.65 3.54 9.35 3.55 9.02 3.55 8.63 3.54 8.21 3.55 7.78 3.55 7.33 3.55 6.86 3.54 6.38 3.55 5.92 3.55 5.46 3.54 5.01 3.55 4.57 3.55 4.15 3.54 3.75 3.55 3.37 3.55 3.02 3.54 2.69 3.55 2.39 3.55 2.11 3.55 1.85 3.54 1.62 3.55 1.41 3.55 1.23 3.54 1.05 3.55.91 3.55.78 3.54.66 3.55.56 3.55.47 3.54.4 3.55.33 3.55.28 3.54.23 3.55.19 3.55.16 3.54.12 3.55.11 3.55.08 3.55.07 3.54.06 3.55.04 3.55.04 3.54.03 3.55.02" stroke-linejoin="round" stroke-width="1.5" stroke-linecap="round" fill="none" stroke="#006400"/></g><g clip-path="url(#0)"><path d="m225.59 11.583v268.73" stroke-linejoin="round" stroke-dasharray="5 4" stroke-linecap="butt" fill="none" stroke="#000"/></g><g clip-path="url(#0)"><text font-family="serif" font-size="12" x="0" y="0" transform="translate(219 294)">13,9</text></g><g clip-path="url(#0)"><text font-family="serif" font-size="12" x="0" y="0" transform="translate(168 294)">10</text></g><g clip-path="url(#0)"><text font-family="serif" font-size="12" x="0" y="0" transform="translate(30 292)">0</text></g><g clip-path="url(#0)"><text font-family="serif" font-size="12" x="0" y="0" transform="translate(46 292)">1</text></g></g></g></svg>