<svg xmlns="http://www.w3.org/2000/svg" width="611.33" height="315.35" viewBox="0 0 567 292" xmlns:xlink="http://www.w3.org/1999/xlink"><defs><path id="E" d="m.453-.313q0 .141-.031.219-.063.109-.172.109-.094 0-.141-.063-.016-.016-.031-.031-.047-.078-.047-.234 0-.156.047-.234.047-.109.156-.125h.016q.094 0 .141.078.016.016.031.047.031.078.031.234m-.203.313q.063 0 .094-.063.016-.031.016-.063.016-.063.016-.203 0-.141-.016-.203-.016-.094-.078-.109-.016 0-.031 0-.078 0-.109.063 0 .031-.016.063 0 .047 0 .187 0 .141.016.203.016.094.078.125.016 0 .031 0"/><clipPath id="8"><path d="m-25.17-12.75v15.421h29.895v-15.421z"/></clipPath><clipPath id="D"><path d="m-7.426-7.348v10.852h21.04v-10.852z"/></clipPath><clipPath id="9"><path d="m0 0v15.421h29.895v-15.421z"/></clipPath><clipPath id="B"><path d="m-6.481-7.348v10.852h21.04v-10.852z"/></clipPath><clipPath id="C"><path d="m-6.981-7.348v10.852h21.04v-10.852z"/></clipPath><clipPath id="A"><path d="m-24.662-14.11v15.421h29.895v-15.421z"/></clipPath><clipPath id="7"><path d="m-24.725-12.75v15.421h29.895v-15.421z"/></clipPath><clipPath id="0"><path d="m0 0v293h568v-293z"/></clipPath><clipPath id="1"><path d="m-13.185-7.422v10.852h21.04v-10.852z"/></clipPath><clipPath id="6"><path d="m-24.23-12.75v15.421h29.895v-15.421z"/></clipPath><clipPath id="2"><path d="m-13.685-7.422v10.852h21.04v-10.852z"/></clipPath><clipPath id="4"><path d="m-14.63-7.422v10.852h21.04v-10.852z"/></clipPath><clipPath id="5"><path d="m-13.842-12.694v15.421h29.895v-15.421z"/></clipPath><clipPath id="3"><path d="m-14.13-7.422v10.852h21.04v-10.852z"/></clipPath></defs><g stroke-miterlimit="10" stroke-linecap="square"><g clip-path="url(#0)"><path d="m284.19 2v291" stroke-linecap="butt" fill="none" stroke="#000"/></g><g clip-path="url(#0)"><path d="m284.19 1l-3 3" stroke-linecap="butt" fill="none" stroke="#000"/></g><g clip-path="url(#0)"><path d="m284.19 1l3 3" stroke-linecap="butt" fill="none" stroke="#000"/></g><g clip-path="url(#0)"><path d="m0 221.13h566" stroke-linecap="butt" fill="none" stroke="#000"/></g><g clip-path="url(#0)"><path d="m567 221.13l-3-3" stroke-linecap="butt" fill="none" stroke="#000"/></g><g clip-path="url(#0)"><path d="m567 221.13l-3 3" stroke-linecap="butt" fill="none" stroke="#000"/></g><g><g clip-path="url(#0)"><path d="m284.19 221.13v-197.01l1.45.021 1.45.064 1.45.106 1.45.149 1.45.19 1.45.233 1.45.275 1.45.317 1.45.359 1.45.399 1.45.441 1.45.482 1.45.522 1.45.563 1.46.602 1.45.642 1.45.681 1.45.72 1.45.757 1.45.796 1.45.832 1.45.87 1.45.905 1.45.941 1.45.976 1.45 1.01 1.45 1.044 1.45 1.077 1.45 1.11 1.45 1.141 1.45 1.173 1.46 1.203 1.45 1.232 1.45 1.261 1.45 1.29 1.45 1.317 1.45 1.343 1.45 1.37 1.45 1.394 1.45 1.419 1.45 1.442 1.45 1.464 1.45 1.487 1.45 1.507 1.45 1.528 1.45 1.546 1.45 1.565 1.46 1.583 1.45 1.599 1.45 1.615 1.45 1.63 1.45 1.644 1.45 1.658 1.45 1.67 1.45 1.681 1.45 1.692 1.45 1.701 1.45 1.711 1.45 1.719 1.45 1.726 1.45 1.732 1.45 1.738 1.45 1.743 1.45 1.747 1.46 1.75 1.45 1.752 1.45 1.754 1.45 1.758 1.45 1.75 1.45 1.76 1.45 1.75 1.45 1.75 1.45 1.75 1.45 1.74 1.45 1.74 1.45 1.74 1.45 1.73 1.45 1.72 1.45 1.72 1.45 1.7 1.45 1.7 1.46 1.7 1.45 1.68 1.45 1.67 1.45 1.66 1.45 1.66 1.45 1.64 1.45 1.62 1.45 1.62 1.45 1.6 1.45 1.59 1.45 1.58 1.45 1.56 1.45 1.55 1.45 1.53 1.45 1.52 1.45 1.5 1.45 1.49 1.46 1.47 1.45 1.45 1.45 1.44 1.45 1.42 1.45 1.4 1.45 1.39 1.45 1.36 1.45 1.35 1.45 1.34 1.45 1.31 1.45 1.29 1.45 1.28 1.45 1.26 1.45 1.24 1.45 1.22 1.45 1.2 1.46 1.18 1.45 1.17 1.45 1.14 1.45 1.13 1.45 1.11 1.45 1.09 1.45 1.07 1.45 1.05 1.45 1.03 1.45 1.01 1.45 1 1.45.97 1.45.96 1.45.94v33.65h-185.67" fill-opacity=".098" fill-rule="evenodd" fill="#f60"/></g><g clip-path="url(#0)"><path d="m284.19 221.13v-197.01l1.45.021 1.45.064 1.45.106 1.45.149 1.45.19 1.45.233 1.45.275 1.45.317 1.45.359 1.45.399 1.45.441 1.45.482 1.45.522 1.45.563 1.46.602 1.45.642 1.45.681 1.45.72 1.45.757 1.45.796 1.45.832 1.45.87 1.45.905 1.45.941 1.45.976 1.45 1.01 1.45 1.044 1.45 1.077 1.45 1.11 1.45 1.141 1.45 1.173 1.46 1.203 1.45 1.232 1.45 1.261 1.45 1.29 1.45 1.317 1.45 1.343 1.45 1.37 1.45 1.394 1.45 1.419 1.45 1.442 1.45 1.464 1.45 1.487 1.45 1.507 1.45 1.528 1.45 1.546 1.45 1.565 1.46 1.583 1.45 1.599 1.45 1.615 1.45 1.63 1.45 1.644 1.45 1.658 1.45 1.67 1.45 1.681 1.45 1.692 1.45 1.701 1.45 1.711 1.45 1.719 1.45 1.726 1.45 1.732 1.45 1.738 1.45 1.743 1.45 1.747 1.46 1.75 1.45 1.752 1.45 1.754 1.45 1.758 1.45 1.75 1.45 1.76 1.45 1.75 1.45 1.75 1.45 1.75 1.45 1.74 1.45 1.74 1.45 1.74 1.45 1.73 1.45 1.72 1.45 1.72 1.45 1.7 1.45 1.7 1.46 1.7 1.45 1.68 1.45 1.67 1.45 1.66 1.45 1.66 1.45 1.64 1.45 1.62 1.45 1.62 1.45 1.6 1.45 1.59 1.45 1.58 1.45 1.56 1.45 1.55 1.45 1.53 1.45 1.52 1.45 1.5 1.45 1.49 1.46 1.47 1.45 1.45 1.45 1.44 1.45 1.42 1.45 1.4 1.45 1.39 1.45 1.36 1.45 1.35 1.45 1.34 1.45 1.31 1.45 1.29 1.45 1.28 1.45 1.26 1.45 1.24 1.45 1.22 1.45 1.2 1.46 1.18 1.45 1.17 1.45 1.14 1.45 1.13 1.45 1.11 1.45 1.09 1.45 1.07 1.45 1.05 1.45 1.03 1.45 1.01 1.45 1 1.45.97 1.45.96 1.45.94v33.65h-185.67" stroke-linejoin="round" stroke-linecap="round" fill="none" stroke="#f60"/></g><g clip-path="url(#0)"><path d="m-493.82 221.13h6.08 6.08 6.07 6.08 6.08 6.08 6.08 6.07 6.08 6.08 6.08 6.08 6.08 6.07 6.08 6.08 6.08 6.08 6.07 6.08 6.08 6.08 6.08 6.08 6.07 6.08 6.08 6.08 6.08 6.07 6.08 6.08 6.08 6.08 6.08 6.07 6.08 6.08 6.08 6.08 6.07 6.08 6.08 6.08 6.08 6.08 6.07 6.08 6.08l6.08-.001h6.08 6.07 6.08 6.08 6.08 6.08l6.08-.001h6.07l6.08-.001h6.08l6.08-.001 6.08-.001 6.07-.02 6.08-.02 6.081-.02 6.078-.03 6.078-.03 6.079-.05 6.078-.05 6.078-.07 6.078-.08 6.078-.1 6.078-.12 6.079-.15 6.078-.18 6.078-.21 6.078-.25 6.078-.3 6.079-.36 6.078-.42 6.078-.5 6.078-.58 6.078-.67 6.078-.78 6.079-.9 6.078-1.04 6.078-1.19 6.078-1.35 6.078-1.54 6.079-1.73 6.078-1.96 6.078-2.18 6.078-2.44 6.078-2.7 6.078-2.99 6.079-3.28 6.078-3.59 6.077-3.91 6.08-4.23 6.08-4.57 6.08-4.9 6.07-5.23 6.08-5.55 6.08-5.87 6.08-6.16 6.08-6.43 6.07-6.69 6.08-6.9 6.08-7.08 6.08-7.22 6.08-7.3 6.08-7.354 6.07-7.335 6.08-7.264 6.08-7.13 6.08-6.935 6.08-6.677 6.07-6.356 6.08-5.973 6.08-5.528 6.08-5.03 6.08-4.475 6.08-3.874 6.07-3.229 6.08-2.551 6.08-1.842 6.08-1.114 6.08-.373v197.01h-778.01" fill-opacity=".098" fill-rule="evenodd" fill="#0c0"/></g><g clip-path="url(#0)"><path d="m-493.82 221.13h6.08 6.08 6.07 6.08 6.08 6.08 6.08 6.07 6.08 6.08 6.08 6.08 6.08 6.07 6.08 6.08 6.08 6.08 6.07 6.08 6.08 6.08 6.08 6.08 6.07 6.08 6.08 6.08 6.08 6.07 6.08 6.08 6.08 6.08 6.08 6.07 6.08 6.08 6.08 6.08 6.07 6.08 6.08 6.08 6.08 6.08 6.07 6.08 6.08l6.08-.001h6.08 6.07 6.08 6.08 6.08 6.08l6.08-.001h6.07l6.08-.001h6.08l6.08-.001 6.08-.001 6.07-.02 6.08-.02 6.081-.02 6.078-.03 6.078-.03 6.079-.05 6.078-.05 6.078-.07 6.078-.08 6.078-.1 6.078-.12 6.079-.15 6.078-.18 6.078-.21 6.078-.25 6.078-.3 6.079-.36 6.078-.42 6.078-.5 6.078-.58 6.078-.67 6.078-.78 6.079-.9 6.078-1.04 6.078-1.19 6.078-1.35 6.078-1.54 6.079-1.73 6.078-1.96 6.078-2.18 6.078-2.44 6.078-2.7 6.078-2.99 6.079-3.28 6.078-3.59 6.077-3.91 6.08-4.23 6.08-4.57 6.08-4.9 6.07-5.23 6.08-5.55 6.08-5.87 6.08-6.16 6.08-6.43 6.07-6.69 6.08-6.9 6.08-7.08 6.08-7.22 6.08-7.3 6.08-7.354 6.07-7.335 6.08-7.264 6.08-7.13 6.08-6.935 6.08-6.677 6.07-6.356 6.08-5.973 6.08-5.528 6.08-5.03 6.08-4.475 6.08-3.874 6.07-3.229 6.08-2.551 6.08-1.842 6.08-1.114 6.08-.373v197.01h-778.01" stroke-linejoin="round" stroke-linecap="round" fill="none" stroke="#0c0"/></g><g clip-path="url(#0)"/><g clip-path="url(#0)"><path d="m0 217.99l4.438-.43 4.438-.48 4.437-.54 4.438-.59 4.438-.66 4.437-.74 4.437-.8 4.438-.9 4.438-.98 4.437-1.08 4.437-1.18 4.438-1.28 4.438-1.41 4.437-1.52 4.437-1.66 4.438-1.79 4.438-1.93 4.437-2.08 4.437-2.23 4.438-2.39 4.438-2.56 4.437-2.72 4.435-2.9 4.44-3.06 4.44-3.25 4.44-3.42 4.43-3.6 4.44-3.78 4.44-3.95 4.43-4.12 4.44-4.28 4.44-4.44 4.44-4.6 4.44-4.74 4.43-4.86 4.44-4.99 4.44-5.09 4.43-5.19 4.44-5.26 4.44-5.31 4.44-5.35 4.44-5.37 4.43-5.358 4.44-5.335 4.44-5.285 4.43-5.211 4.44-5.113 4.44-4.99 4.44-4.843 4.44-4.671 4.43-4.474 4.44-4.255 4.44-4.01 4.43-3.746 4.44-3.461 4.44-3.156 4.44-2.831 4.44-2.491 4.43-2.136 4.44-1.769 4.44-1.391 4.43-1 4.44-.611 4.44-.216 4.44.182 4.44.579 4.43.971 4.44 1.359 4.44 1.737 4.43 2.106 4.44 2.462 4.44 2.803 4.44 3.129 4.44 3.436 4.43 3.723 4.44 3.991 4.44 4.235 4.43 4.457 4.44 4.655 4.44 4.829 4.44 4.979 4.44 5.103 4.43 5.204 4.44 5.279 4.44 5.332 4.43 5.358 4.44 5.37 4.44 5.35 4.44 5.32 4.44 5.26 4.43 5.19 4.44 5.1 4.44 5 4.43 4.88 4.44 4.75 4.44 4.61 4.44 4.45 4.44 4.3 4.43 4.13 4.44 3.97 4.44 3.79 4.43 3.61 4.44 3.44 4.44 3.26 4.44 3.08 4.44 2.91 4.43 2.74 4.44 2.57 4.44 2.4 4.43 2.25 4.44 2.09 4.44 1.95 4.44 1.8 4.44 1.66 4.43 1.54 4.44 1.41 4.44 1.3 4.43 1.19 4.44 1.08 4.44.99 4.44.9 4.44.82 4.43.74 4.44.67 4.44.6 4.43.54 4.44.48 4.44.43" stroke-linejoin="round" stroke-width="1.5" stroke-linecap="round" fill="none" stroke="#00c"/></g><g clip-path="url(#1)" transform="matrix(27 0 0 27 356 200.4)"><use fill="#c43d00" xlink:href="#E"/></g><g clip-path="url(#2)" transform="matrix(27 0 0 27 369.5 200.4)"><path d="m.203 0q0 .094-.063.172-.016.016-.031.016 0-.016 0-.016.063-.063.078-.156 0 0 0-.016 0-.016-.016-.016-.016.016-.031.016-.031 0-.047-.031 0-.016 0-.016 0-.047.016-.063.016 0 .031 0 .047 0 .063.063 0 .016 0 .047" fill="#c43d00"/></g><g clip-path="url(#3)" transform="matrix(27 0 0 27 381.5 200.4)"><path d="m.031-.172v-.031l.297-.469q.016 0 .031 0 .016 0 .016 0v.016.453h.094v.031h-.094v.094q0 .031.016.031 0 .016.063.016h.016v.031q-.047 0-.141 0-.094 0-.125 0v-.031h.016q.063 0 .078-.016 0-.016 0-.031v-.094h-.266m.266-.031v-.359l-.234.359h.234" fill="#c43d00"/></g><g clip-path="url(#4)" transform="matrix(27 0 0 27 395 200.4)"><path d="m.469-.609l-.125.188q-.047.063-.063.172-.016.078-.016.172v.047q0 .047-.047.047-.047 0-.047-.047 0-.172.094-.344l.031-.031.109-.156h-.203q-.094 0-.094 0-.016.016-.031.094h-.016l.031-.203h.016q.016.016.016.016h.016q.016.016.094.016h.25q0 .016-.016.031" fill="#c43d00"/></g><g clip-path="url(#5)" transform="matrix(19 0 0 19 263 241.19)"><path d="m.672-.344q0 .156-.086.258-.086.102-.227.102-.125 0-.211-.102-.086-.102-.086-.258 0-.156.086-.266.086-.109.227-.109.125 0 .211.109.086.109.086.266m-.297.297q.078 0 .148-.086.07-.086.07-.227 0-.125-.07-.211-.07-.086-.164-.086-.078 0-.148.086-.07.086-.07.211 0 .141.07.227.07.086.164.086"/></g><g clip-path="url(#6)" transform="matrix(19 0 0 19 460.28 242.24)"><use xlink:href="#E"/></g><g clip-path="url(#7)" transform="matrix(19 0 0 19 469.78 242.24)"><path d="m.203 0q0 .094-.063.172-.016.016-.031.016 0-.016 0-.016.063-.063.078-.156 0 0 0-.016 0-.016-.016-.016-.016.016-.031.016-.031 0-.047-.031 0-.016 0-.016 0-.047.016-.063.016 0 .031 0 .047 0 .063.063 0 .016 0 .047"/></g><g clip-path="url(#8)" transform="matrix(19 0 0 19 478.22 242.24)"><path d="m.297-.641v.562q0 .031.016.031.016.016.078.016h.031v.031q-.031 0-.172 0-.125 0-.156 0v-.031h.031q.078 0 .094-.016 0-.016 0-.031v-.516q-.047.016-.125.016v-.031q.109 0 .172-.063.031 0 .031.016 0 0 0 .016"/></g><g clip-path="url(#9)" transform="scale(19)"><path d="m24.23 13.156h1.445v.04h-1.445v-.04"/></g><g clip-path="url(#A)" transform="matrix(19 0 0 19 468.57 268.13)"><path d="m.516-.375h-.109q.031.047.031.109 0 .109-.078.203-.078.078-.172.078-.078 0-.125-.078-.031-.031-.031-.078 0-.094.078-.188.063-.094.172-.109.016 0 .016 0h.234q.031 0 .031.016 0 .016 0 .016 0 .031-.047.031m-.328.359q.063 0 .109-.047.016-.016.031-.031.031-.063.047-.156 0-.016 0-.031 0-.078-.078-.094h-.016q-.078 0-.125.063 0 .016-.016.016-.031.078-.047.172 0 .078.063.109.016 0 .031 0"/></g><g clip-path="url(#B)" transform="matrix(27 0 0 27 175 198.4)"><use fill="#006400" xlink:href="#E"/></g><g clip-path="url(#C)" transform="matrix(27 0 0 27 188.5 198.4)"><path d="m.203 0q0 .094-.063.172-.016.016-.031.016 0-.016 0-.016.063-.063.078-.156 0 0 0-.016 0-.016-.016-.016-.016.016-.031.016-.031 0-.047-.031 0-.016 0-.016 0-.047.016-.063.016 0 .031 0 .047 0 .063.063 0 .016 0 .047" fill="#006400"/></g><g clip-path="url(#D)" transform="matrix(27 0 0 27 200.5 198.4)"><path d="m.453-.203q0 .109-.078.172-.063.047-.141.047-.094 0-.156-.078-.031-.047-.031-.094 0-.047.047-.063.047 0 .047.031.016.016.016.016 0 .031-.031.047-.016.016-.031.016 0 0-.016-.016.016.063.078.094.031.031.078.031.062 0 .109-.078.016-.031.016-.125 0-.094-.016-.125-.031-.063-.094-.063-.078 0-.125.063 0 .016-.016.016 0 0-.016-.016v-.016-.297q0-.016.016-.031 0 0 .016.016.063.016.125.016.078 0 .141-.016 0-.016.016-.016 0 0 0 .016 0 .016-.031.047-.063.063-.156.063-.047 0-.094-.016v.188q.063-.047.141-.047.078 0 .141.078.047.063.047.141" fill="#006400"/></g></g></g></svg>