<svg xmlns="http://www.w3.org/2000/svg" width="165.51" height="593.94" viewBox="0 0 157 566" xmlns:xlink="http://www.w3.org/1999/xlink"><defs><clipPath id="0"><path d="m0 0v567h158v-567z"/></clipPath></defs><g stroke-miterlimit="10" stroke-linecap="square"><g clip-path="url(#0)"><path d="m0 0h158v567h-158v-567" fill="#fff"/></g><g clip-path="url(#0)"><path d="m78.74 2v565" stroke-linecap="butt" fill="none" stroke="#000"/></g><g clip-path="url(#0)"><path d="m78.74 1l-3 3" stroke-linecap="butt" fill="none" stroke="#000"/></g><g clip-path="url(#0)"><path d="m78.74 1l3 3" stroke-linecap="butt" fill="none" stroke="#000"/></g><g clip-path="url(#0)"><path d="m0 249.48h156" stroke-linecap="butt" fill="none" stroke="#000"/></g><g clip-path="url(#0)"><path d="m157 249.48l-3-3" stroke-linecap="butt" fill="none" stroke="#000"/></g><g clip-path="url(#0)"><path d="m157 249.48l-3 3" stroke-linecap="butt" fill="none" stroke="#000"/></g><g clip-path="url(#0)"><path d="m7.516 260.34v-.65h3.968v.65h-3.968m9.515 1.82v.84h-4.734q0-.31.109-.61.188-.48.578-.95.391-.47 1.157-1.08 1.156-.97 1.57-1.52.414-.56.414-1.06 0-.53-.375-.88-.375-.35-.969-.35-.64 0-1.023.37-.383.38-.383 1.05l-.906-.09q.093-1 .695-1.54.602-.53 1.633-.53 1.031 0 1.633.57.601.57.601 1.42 0 .43-.179.85-.18.41-.586.87-.407.46-1.36 1.26-.781.66-1.01.9-.226.24-.367.48h3.5"/></g><g clip-path="url(#0)"><path d="m11.08 249.48v3" stroke-linecap="butt" fill="none" stroke="#000"/></g><g clip-path="url(#0)"><path d="m40.516 260.34v-.65h3.968v.65h-3.968m8.203 2.66h-.875v-5.59q-.313.29-.828.6-.516.3-.922.44v-.84q.734-.34 1.289-.84.555-.49.773-.96h.563v7.19"/></g><g clip-path="url(#0)"><path d="m44.911 249.48v3" stroke-linecap="butt" fill="none" stroke="#000"/></g><g clip-path="url(#0)"><path d="m84.42 259.47q0-1.27.258-2.04.258-.77.773-1.2.516-.42 1.297-.42.578 0 1.01.24.43.23.719.67.289.44.445 1.06.156.63.156 1.69 0 1.26-.258 2.04-.258.77-.773 1.19-.516.42-1.297.42-1.031 0-1.625-.74-.703-.9-.703-2.91m.89 0q0 1.76.415 2.35.414.59 1.023.59.609 0 1.023-.59.415-.59.415-2.35 0-1.77-.415-2.35-.414-.57-1.039-.57-.593 0-.968.5-.454.65-.454 2.42"/></g><g clip-path="url(#0)"><path d="m78.74 249.48v3" stroke-linecap="butt" fill="none" stroke="#000"/></g><g clip-path="url(#0)"><path d="m114.72 263h-.88v-5.59q-.31.29-.82.6-.52.3-.93.44v-.84q.74-.34 1.29-.84.56-.49.78-.96h.56v7.19"/></g><g clip-path="url(#0)"><path d="m112.56 249.48v3" stroke-linecap="butt" fill="none" stroke="#000"/></g><g clip-path="url(#0)"><path d="m149.03 262.16v.84h-4.73q0-.31.11-.61.18-.48.57-.95.4-.47 1.16-1.08 1.16-.97 1.57-1.52.41-.56.41-1.06 0-.53-.37-.88-.37-.35-.97-.35-.64 0-1.02.37-.38.38-.38 1.05l-.91-.09q.09-1 .69-1.54.61-.53 1.64-.53 1.03 0 1.63.57.6.57.6 1.42 0 .43-.18.85-.18.41-.58.87-.41.46-1.36 1.26-.79.66-1.01.9-.23.24-.37.48h3.5"/></g><g clip-path="url(#0)"><path d="m146.39 249.48v3" stroke-linecap="butt" fill="none" stroke="#000"/></g><g clip-path="url(#0)"><path d="m62.52 554.34v-.65h3.968v.65h-3.968m5.03 1l.844-.07q.109.59.414.86.304.28.773.28.406 0 .711-.19.305-.19.5-.5.195-.31.328-.84.133-.52.133-1.07 0-.06 0-.19-.266.43-.727.69-.461.27-.992.27-.89 0-1.5-.65-.609-.65-.609-1.7 0-1.09.64-1.75.641-.67 1.61-.67.687 0 1.266.38.578.37.882 1.07.305.69.305 2.02 0 1.36-.297 2.17-.297.82-.89 1.25-.594.42-1.376.42-.843 0-1.374-.46-.532-.47-.641-1.32m3.594-3.15q0-.77-.399-1.21-.398-.43-.961-.43-.593 0-1.031.47-.438.48-.438 1.25 0 .67.415 1.1.414.43 1.023.43.609 0 1-.43.391-.43.391-1.18"/></g><g clip-path="url(#0)"><path d="m75.74 553.92h3" stroke-linecap="butt" fill="none" stroke="#000"/></g><g clip-path="url(#0)"><path d="m62.52 521.34v-.65h3.968v.65h-3.968m6.25-1.22q-.547-.2-.813-.57-.265-.38-.265-.89 0-.78.562-1.32.562-.53 1.5-.53.938 0 1.508.55.57.55.57 1.33 0 .5-.258.86-.258.37-.789.57.657.21 1 .69.344.49.344 1.14 0 .93-.648 1.55-.649.62-1.711.62-1.063 0-1.711-.63-.649-.63-.649-1.57 0-.69.352-1.16.351-.48 1.01-.64m-.172-1.5q0 .52.328.84.328.32.844.32.515 0 .836-.32.32-.32.32-.79 0-.48-.336-.81-.336-.33-.82-.33-.516 0-.844.32-.328.32-.328.77m-.282 3.32q0 .37.18.72.18.36.531.55.352.2.758.2.625 0 1.031-.41.407-.41.407-1.03 0-.64-.422-1.06-.422-.41-1.047-.41-.625 0-1.031.41-.407.4-.407 1.03"/></g><g clip-path="url(#0)"><path d="m75.74 520.09h3" stroke-linecap="butt" fill="none" stroke="#000"/></g><g clip-path="url(#0)"><path d="m62.52 487.34v-.65h3.968v.65h-3.968m4.953-3.56v-.84h4.64v.68q-.687.72-1.359 1.93-.672 1.2-1.031 2.48-.266.91-.344 1.97h-.906q.015-.84.336-2.04.32-1.19.914-2.3.593-1.11 1.265-1.88h-3.515"/></g><g clip-path="url(#0)"><path d="m75.74 486.27h3" stroke-linecap="butt" fill="none" stroke="#000"/></g><g clip-path="url(#0)"><path d="m62.52 453.34v-.65h3.968v.65h-3.968m9.453-2.75l-.86.07q-.125-.52-.343-.75-.36-.38-.875-.38-.422 0-.735.24-.422.31-.656.89-.234.57-.25 1.65.312-.48.773-.72.461-.23.961-.23.891 0 1.508.65.617.65.617 1.66 0 .67-.297 1.25-.296.58-.804.89-.508.31-1.149.31-1.093 0-1.789-.81-.695-.81-.695-2.65 0-2.08.766-3.04.671-.81 1.797-.81.859 0 1.398.48.539.48.633 1.3m-3.578 3.1q0 .45.187.86.188.42.539.64.352.22.727.22.562 0 .961-.46.398-.45.398-1.22 0-.75-.398-1.18-.399-.43-.993-.43-.593 0-1.01.43-.414.43-.414 1.14"/></g><g clip-path="url(#0)"><path d="m75.74 452.44h3" stroke-linecap="butt" fill="none" stroke="#000"/></g><g clip-path="url(#0)"><path d="m62.52 419.34v-.65h3.968v.65h-3.968m4.906.78l.922-.07q.094.67.468 1.01.376.35.907.35.625 0 1.07-.49.445-.48.445-1.26 0-.75-.422-1.19-.421-.44-1.109-.44-.422 0-.765.2-.344.19-.547.49l-.813-.11.688-3.67h3.562v.84h-2.859l-.391 1.92q.656-.45 1.36-.45.937 0 1.578.65.64.65.64 1.68 0 .97-.562 1.67-.688.87-1.875.87-.985 0-1.602-.54-.617-.55-.695-1.46"/></g><g clip-path="url(#0)"><path d="m75.74 418.61h3" stroke-linecap="butt" fill="none" stroke="#000"/></g><g clip-path="url(#0)"><path d="m62.52 385.34v-.65h3.968v.65h-3.968m7.718 2.66v-1.72h-3.109v-.8l3.266-4.64h.718v4.64h.969v.8h-.969v1.72h-.875m0-2.52v-3.23l-2.25 3.23h2.25"/></g><g clip-path="url(#0)"><path d="m75.74 384.79h3" stroke-linecap="butt" fill="none" stroke="#000"/></g><g clip-path="url(#0)"><path d="m62.52 351.34v-.65h3.968v.65h-3.968m4.906.77l.875-.11q.156.73.515 1.07.36.34.891.34.625 0 1.047-.43.422-.43.422-1.07 0-.61-.391-1-.39-.39-1-.39-.25 0-.625.09l.094-.77q.094 0 .141 0 .562 0 1.015-.29.453-.28.453-.89 0-.49-.328-.81-.328-.32-.843-.32-.516 0-.86.32-.344.32-.437.98l-.875-.16q.156-.89.726-1.37.57-.49 1.414-.49.594 0 1.086.25.492.25.75.69.258.44.258.92 0 .47-.242.85-.242.37-.742.6.64.15.992.61.351.46.351 1.16 0 .94-.687 1.59-.688.64-1.719.64-.953 0-1.57-.56-.617-.56-.711-1.45"/></g><g clip-path="url(#0)"><path d="m75.74 350.96h3" stroke-linecap="butt" fill="none" stroke="#000"/></g><g clip-path="url(#0)"><path d="m62.52 318.34v-.65h3.968v.65h-3.968m9.515 1.82v.84h-4.734q0-.31.109-.61.188-.48.578-.95.391-.47 1.157-1.08 1.156-.97 1.57-1.52.414-.56.414-1.06 0-.53-.375-.88-.375-.35-.969-.35-.64 0-1.023.37-.383.38-.383 1.05l-.906-.09q.093-1 .695-1.54.602-.53 1.633-.53 1.031 0 1.633.57.601.57.601 1.42 0 .43-.179.85-.18.41-.586.87-.407.46-1.36 1.26-.781.66-1.01.9-.226.24-.367.48h3.5"/></g><g clip-path="url(#0)"><path d="m75.74 317.13h3" stroke-linecap="butt" fill="none" stroke="#000"/></g><g clip-path="url(#0)"><path d="m62.52 284.34v-.65h3.968v.65h-3.968m8.203 2.66h-.875v-5.59q-.313.29-.828.6-.516.3-.922.44v-.84q.734-.34 1.289-.84.555-.49.773-.96h.563v7.19"/></g><g clip-path="url(#0)"><path d="m75.74 283.31h3" stroke-linecap="butt" fill="none" stroke="#000"/></g><g clip-path="url(#0)"><path d="m67.42 243.47q0-1.27.258-2.04.258-.77.773-1.2.516-.42 1.297-.42.578 0 1.01.24.43.23.719.67.289.44.445 1.06.156.63.156 1.69 0 1.26-.258 2.04-.258.77-.773 1.19-.516.42-1.297.42-1.031 0-1.625-.74-.703-.9-.703-2.91m.89 0q0 1.76.415 2.35.414.59 1.023.59.609 0 1.023-.59.415-.59.415-2.35 0-1.77-.415-2.35-.414-.57-1.039-.57-.593 0-.968.5-.454.65-.454 2.42"/></g><g clip-path="url(#0)"><path d="m70.72 219h-.875v-5.59q-.313.29-.828.6-.516.3-.922.44v-.84q.734-.34 1.289-.84.555-.49.773-.96h.563v7.19"/></g><g clip-path="url(#0)"><path d="m75.74 215.66h3" stroke-linecap="butt" fill="none" stroke="#000"/></g><g clip-path="url(#0)"><path d="m72.03 184.16v.84h-4.734q0-.31.109-.61.188-.48.578-.95.391-.47 1.157-1.08 1.156-.97 1.57-1.52.414-.56.414-1.06 0-.53-.375-.88-.375-.35-.969-.35-.64 0-1.023.37-.383.38-.383 1.05l-.906-.09q.093-1 .695-1.54.602-.53 1.633-.53 1.031 0 1.633.57.601.57.601 1.42 0 .43-.179.85-.18.41-.586.87-.407.46-1.36 1.26-.781.66-1.01.9-.226.24-.367.48h3.5"/></g><g clip-path="url(#0)"><path d="m75.74 181.83h3" stroke-linecap="butt" fill="none" stroke="#000"/></g><g clip-path="url(#0)"><path d="m67.42 150.11l.875-.11q.156.73.515 1.07.36.34.891.34.625 0 1.047-.43.422-.43.422-1.07 0-.61-.391-1-.39-.39-1-.39-.25 0-.625.09l.094-.77q.094 0 .141 0 .562 0 1.015-.29.453-.28.453-.89 0-.49-.328-.81-.328-.32-.843-.32-.516 0-.86.32-.344.32-.437.98l-.875-.16q.156-.89.726-1.37.57-.49 1.414-.49.594 0 1.086.25.492.25.75.69.258.44.258.92 0 .47-.242.85-.242.37-.742.6.64.15.992.61.351.46.351 1.16 0 .94-.687 1.59-.688.64-1.719.64-.953 0-1.57-.56-.617-.56-.711-1.45"/></g><g clip-path="url(#0)"><path d="m75.74 148h3" stroke-linecap="butt" fill="none" stroke="#000"/></g><g clip-path="url(#0)"><path d="m70.23 118v-1.72h-3.109v-.8l3.266-4.64h.718v4.64h.969v.8h-.969v1.72h-.875m0-2.52v-3.23l-2.25 3.23h2.25"/></g><g clip-path="url(#0)"><path d="m75.74 114.18h3" stroke-linecap="butt" fill="none" stroke="#000"/></g><g clip-path="url(#0)"><path d="m67.42 82.12l.922-.078q.094.672.468 1.015.376.344.907.344.625 0 1.07-.484.445-.484.445-1.266 0-.75-.422-1.187-.421-.438-1.109-.438-.422 0-.765.196-.344.195-.547.492l-.813-.11.688-3.671h3.562v.843h-2.859l-.391 1.922q.656-.453 1.36-.453.937 0 1.578.648.64.649.64 1.68 0 .969-.562 1.672-.688.875-1.875.875-.985 0-1.602-.547-.617-.547-.695-1.453"/></g><g clip-path="url(#0)"><path d="m75.74 80.35h3" stroke-linecap="butt" fill="none" stroke="#000"/></g><g clip-path="url(#0)"><path d="m71.969 44.594l-.86.062q-.125-.515-.343-.75-.36-.375-.875-.375-.422 0-.735.235-.422.312-.656.89-.234.578-.25 1.656.312-.484.773-.718.461-.235.961-.235.891 0 1.508.649.617.648.617 1.664 0 .672-.297 1.25-.296.578-.804.89-.508.313-1.149.313-1.093 0-1.789-.813-.695-.812-.695-2.656 0-2.078.766-3.03.671-.813 1.797-.813.859 0 1.398.477.539.477.633 1.305m-3.578 3.094q0 .453.187.867.188.414.539.633.352.218.727.218.562 0 .961-.453.398-.453.398-1.219 0-.75-.398-1.179-.399-.43-.993-.43-.593 0-1.01.43-.414.429-.414 1.133"/></g><g clip-path="url(#0)"><path d="m75.74 46.526h3" stroke-linecap="butt" fill="none" stroke="#000"/></g><g clip-path="url(#0)"><path d="m67.47 9.781v-.844h4.64v.688q-.687.719-1.359 1.922-.672 1.203-1.031 2.484-.266.907-.344 1.969h-.906q.015-.844.336-2.039.32-1.195.914-2.305.593-1.109 1.265-1.875h-3.515"/></g><g clip-path="url(#0)"><path d="m75.74 12.699h3" stroke-linecap="butt" fill="none" stroke="#000"/></g><g clip-path="url(#0)"><path d="m11.08 0v249.48" stroke-linejoin="round" stroke-dasharray="1 3" stroke-linecap="butt" fill="none" stroke="#000" id="1"/></g><g clip-path="url(#0)"><path d="m11.08 268.48v298.52" stroke-linejoin="round" stroke-dasharray="1 3" stroke-linecap="butt" fill="none" stroke="#000" id="2"/></g><g clip-path="url(#0)"><use xlink:href="#1"/></g><g clip-path="url(#0)"><use xlink:href="#2"/></g><g clip-path="url(#0)"><path d="m44.911 0v249.48" stroke-linejoin="round" stroke-dasharray="1 3" stroke-linecap="butt" fill="none" stroke="#000"/></g><g clip-path="url(#0)"><path d="m44.911 268.48v298.52" stroke-linejoin="round" stroke-dasharray="1 3" stroke-linecap="butt" fill="none" stroke="#000"/></g><g clip-path="url(#0)"><path d="m112.56 0v249.48" stroke-linejoin="round" stroke-dasharray="1 3" stroke-linecap="butt" fill="none" stroke="#000"/></g><g clip-path="url(#0)"><path d="m112.56 268.48v298.52" stroke-linejoin="round" stroke-dasharray="1 3" stroke-linecap="butt" fill="none" stroke="#000"/></g><g clip-path="url(#0)"><path d="m146.39 0v249.48" stroke-linejoin="round" stroke-dasharray="1 3" stroke-linecap="butt" fill="none" stroke="#000"/></g><g clip-path="url(#0)"><path d="m146.39 268.48v298.52" stroke-linejoin="round" stroke-dasharray="1 3" stroke-linecap="butt" fill="none" stroke="#000"/></g><g clip-path="url(#0)"><path d="m0 12.699h63.17" stroke-linejoin="round" stroke-dasharray="1 3" stroke-linecap="butt" fill="none" stroke="#000" id="3"/></g><g clip-path="url(#0)"><path d="m78.74 12.699h79.26" stroke-linejoin="round" stroke-dasharray="1 3" stroke-linecap="butt" fill="none" stroke="#000" id="4"/></g><g clip-path="url(#0)"><use xlink:href="#3"/></g><g clip-path="url(#0)"><use xlink:href="#4"/></g><g clip-path="url(#0)"><path d="m0 46.526h63.17" stroke-linejoin="round" stroke-dasharray="1 3" stroke-linecap="butt" fill="none" stroke="#000"/></g><g clip-path="url(#0)"><path d="m78.74 46.526h79.26" stroke-linejoin="round" stroke-dasharray="1 3" stroke-linecap="butt" fill="none" stroke="#000"/></g><g clip-path="url(#0)"><path d="m0 80.35h63.17" stroke-linejoin="round" stroke-dasharray="1 3" stroke-linecap="butt" fill="none" stroke="#000"/></g><g clip-path="url(#0)"><path d="m78.74 80.35h79.26" stroke-linejoin="round" stroke-dasharray="1 3" stroke-linecap="butt" fill="none" stroke="#000"/></g><g clip-path="url(#0)"><path d="m0 114.18h63.17" stroke-linejoin="round" stroke-dasharray="1 3" stroke-linecap="butt" fill="none" stroke="#000"/></g><g clip-path="url(#0)"><path d="m78.74 114.18h79.26" stroke-linejoin="round" stroke-dasharray="1 3" stroke-linecap="butt" fill="none" stroke="#000"/></g><g clip-path="url(#0)"><path d="m0 148h63.17" stroke-linejoin="round" stroke-dasharray="1 3" stroke-linecap="butt" fill="none" stroke="#000"/></g><g clip-path="url(#0)"><path d="m78.74 148h79.26" stroke-linejoin="round" stroke-dasharray="1 3" stroke-linecap="butt" fill="none" stroke="#000"/></g><g clip-path="url(#0)"><path d="m0 181.83h63.17" stroke-linejoin="round" stroke-dasharray="1 3" stroke-linecap="butt" fill="none" stroke="#000"/></g><g clip-path="url(#0)"><path d="m78.74 181.83h79.26" stroke-linejoin="round" stroke-dasharray="1 3" stroke-linecap="butt" fill="none" stroke="#000"/></g><g clip-path="url(#0)"><path d="m0 215.66h63.17" stroke-linejoin="round" stroke-dasharray="1 3" stroke-linecap="butt" fill="none" stroke="#000"/></g><g clip-path="url(#0)"><path d="m78.74 215.66h79.26" stroke-linejoin="round" stroke-dasharray="1 3" stroke-linecap="butt" fill="none" stroke="#000"/></g><g clip-path="url(#0)"><path d="m0 283.31h58.17" stroke-linejoin="round" stroke-dasharray="1 3" stroke-linecap="butt" fill="none" stroke="#000"/></g><g clip-path="url(#0)"><path d="m78.74 283.31h79.26" stroke-linejoin="round" stroke-dasharray="1 3" stroke-linecap="butt" fill="none" stroke="#000"/></g><g clip-path="url(#0)"><path d="m0 317.13h58.17" stroke-linejoin="round" stroke-dasharray="1 3" stroke-linecap="butt" fill="none" stroke="#000"/></g><g clip-path="url(#0)"><path d="m78.74 317.13h79.26" stroke-linejoin="round" stroke-dasharray="1 3" stroke-linecap="butt" fill="none" stroke="#000"/></g><g clip-path="url(#0)"><path d="m0 350.96h58.17" stroke-linejoin="round" stroke-dasharray="1 3" stroke-linecap="butt" fill="none" stroke="#000"/></g><g clip-path="url(#0)"><path d="m78.74 350.96h79.26" stroke-linejoin="round" stroke-dasharray="1 3" stroke-linecap="butt" fill="none" stroke="#000"/></g><g clip-path="url(#0)"><path d="m0 384.79h58.17" stroke-linejoin="round" stroke-dasharray="1 3" stroke-linecap="butt" fill="none" stroke="#000"/></g><g clip-path="url(#0)"><path d="m78.74 384.79h79.26" stroke-linejoin="round" stroke-dasharray="1 3" stroke-linecap="butt" fill="none" stroke="#000"/></g><g clip-path="url(#0)"><path d="m0 418.61h58.17" stroke-linejoin="round" stroke-dasharray="1 3" stroke-linecap="butt" fill="none" stroke="#000"/></g><g clip-path="url(#0)"><path d="m78.74 418.61h79.26" stroke-linejoin="round" stroke-dasharray="1 3" stroke-linecap="butt" fill="none" stroke="#000"/></g><g clip-path="url(#0)"><path d="m0 452.44h58.17" stroke-linejoin="round" stroke-dasharray="1 3" stroke-linecap="butt" fill="none" stroke="#000"/></g><g clip-path="url(#0)"><path d="m78.74 452.44h79.26" stroke-linejoin="round" stroke-dasharray="1 3" stroke-linecap="butt" fill="none" stroke="#000"/></g><g clip-path="url(#0)"><path d="m0 486.27h58.17" stroke-linejoin="round" stroke-dasharray="1 3" stroke-linecap="butt" fill="none" stroke="#000"/></g><g clip-path="url(#0)"><path d="m78.74 486.27h79.26" stroke-linejoin="round" stroke-dasharray="1 3" stroke-linecap="butt" fill="none" stroke="#000"/></g><g clip-path="url(#0)"><path d="m0 520.09h58.17" stroke-linejoin="round" stroke-dasharray="1 3" stroke-linecap="butt" fill="none" stroke="#000"/></g><g clip-path="url(#0)"><path d="m78.74 520.09h79.26" stroke-linejoin="round" stroke-dasharray="1 3" stroke-linecap="butt" fill="none" stroke="#000"/></g><g clip-path="url(#0)"><path d="m0 553.92h58.17" stroke-linejoin="round" stroke-dasharray="1 3" stroke-linecap="butt" fill="none" stroke="#000"/></g><g clip-path="url(#0)"><path d="m78.74 553.92h79.26" stroke-linejoin="round" stroke-dasharray="1 3" stroke-linecap="butt" fill="none" stroke="#000"/></g><g clip-path="url(#0)"><path d="m11.08 553.92l.025-.3m0 0l.618-7.33.617-7.2m0 0l.617-7.07.617-6.94.617-6.8.617-6.68m0 0l.618-6.55.617-6.42.617-6.3.617-6.17.617-6.05.618-5.93.617-5.81.617-5.69m0 0l.617-5.57.617-5.45.618-5.34.617-5.23.617-5.11.617-5 1.235-9.68 1.234-9.24 1.234-8.81 1.235-8.41 1.234-8 1.234-7.62 1.235-7.23 1.234-6.85 1.234-6.5 1.235-6.14 1.234-5.79 1.235-5.47 1.234-5.14m0 0l1.234-4.83 1.235-4.52 1.234-4.23 1.235-3.95 1.234-3.67 1.234-3.41 1.235-3.15 1.234-2.91 1.234-2.67 1.235-2.45 1.234-2.24 1.234-2.03 1.235-1.83 1.234-1.65 1.235-1.48 1.234-1.3 1.234-1.16 1.235-1 1.234-.87 1.235-.75 1.234-.63 1.234-.52 1.235-.43 1.234-.34 1.234-.26 1.235-.19 1.234-.14 1.234-.09 1.235-.06 1.234-.02 1.235-.001h1.234m0 0h1.234l1.235-.02 1.234-.04 1.235-.06 1.234-.11 1.234-.17 1.235-.22 1.234-.29 1.234-.38 1.235-.46 1.234-.57 1.234-.68 1.235-.79 1.234-.93 1.235-1.07 1.234-1.22 1.234-1.37 1.236-1.55 1.23-1.73 1.24-1.92 1.23-2.11 1.24-2.33 1.23-2.54 1.23-2.78 1.24-3.01 1.23-3.26 1.24-3.52 1.23-3.79 1.24-4.06 1.23-4.36 1.24-4.65 1.23-4.96m0 0l1.23-5.28 1.24-5.6 1.23-5.94 1.24-6.29 1.23-6.65 1.24-7.01 1.23-7.39 1.24-7.78 1.23-8.18 1.23-8.58 1.24-8.99 1.23-9.43 1.24-9.86.61-5.09.62-5.21.62-5.33.62-5.43.61-5.56.62-5.67m0 0l.62-5.791.61-5.911.62-6.03.62-6.155.62-6.279.61-6.404.62-6.53.62-6.658m0 0l.61-6.786.62-6.916.62-7.05.62-7.18m0 0l.73-8.7" stroke-linejoin="round" stroke-width="1.5" stroke-linecap="round" fill="none" stroke="#006400"/></g></g></svg>