<svg xmlns="http://www.w3.org/2000/svg" width="410.33" height="344.04" viewBox="0 0 358 300"><defs><clipPath id="0"><path d="m0 0v301h359v-301z"/></clipPath></defs><g stroke-miterlimit="10" stroke-linecap="square"><g><g clip-path="url(#0)"><path d="m289.48 155c0 68.49-55.52 124-124 124-68.48 0-124-55.51-124-124 0-68.48 55.52-124 124-124 68.48 0 124 55.52 124 124z" stroke-linejoin="round" stroke-linecap="round" fill="none" stroke="#000"/></g><g clip-path="url(#0)"><path d="m297.87 174.26c5.59-38.44-5.8-77.41-31.21-106.79-25.41-29.376-62.34-46.26-101.18-46.26" stroke-linejoin="round" stroke-width="4.5" stroke-linecap="round" fill="none" stroke="#390"/></g><g clip-path="url(#0)"><path d="m305.22 175.33c.98-6.73 1.47-13.53 1.47-20.33" stroke-linejoin="round" stroke-width="6.5" stroke-linecap="round" fill="none" stroke="#f36"/></g><g clip-path="url(#0)"><path d="m-5 130.2l369 53.68" stroke-linejoin="round" stroke-linecap="round" fill="none" stroke="#c0c0c0"/></g><g clip-path="url(#0)"><path d="m165.48 306v-311" stroke-linejoin="round" stroke-linecap="round" fill="none" stroke="#c0c0c0"/></g><g clip-path="url(#0)"><path d="m-5 155h369" stroke-linejoin="round" stroke-linecap="round" fill="none" stroke="#c0c0c0"/></g><g clip-path="url(#0)"><path d="m165.48 155l101.97 14.83" stroke-linejoin="round" stroke-width="4.5" stroke-linecap="round" fill="none" stroke="#390"/></g><g clip-path="url(#0)"><path d="m165.48 155l70.16 10.21" stroke-linejoin="round" stroke-width="5.5" stroke-linecap="round" fill="none" stroke="#f36"/></g></g></g></svg>