<svg xmlns="http://www.w3.org/2000/svg" viewBox="0 0 872.23 516.81"><path d="M6.4 128.12c1.15 3.67 3.38 6.83 4.6 10.45 1.62 4.76 1.62 10.37 2.5 15.3 1.78 9.97 5.57 18.97 8.27 28.68s4.26 19.4 7.48 28.88a53.57 53.57 0 0 1 1.88 6c.47 2.3 0 4.66.42 6.92.82 4.66 3 9.37 4.23 14 2.66 10 4.67 20.12 7 30.17a300.81 300.81 0 0 0 9 29.29l19.54 59.82a192.82 192.82 0 0 1 8.69 32.84c1.92 11.18 3.7 22.4 7.7 33.06.45 1.2 2.38.68 1.93-.53-7-18.6-6.8-38.93-13.36-57.64L65.8 334.62c-3.23-10.35-6-20.57-9.78-30.56-7.36-19.38-11.74-39.1-16.56-59.2-1.13-4.68-2.34-9.35-3.74-14s-1.83-8.64-2.57-13.22-2.83-8.7-4.15-13c-1.5-4.86-2.2-10-3.35-14.95-2.58-11-7.16-21.32-9.45-32.3-1.2-5.8-1.3-12.08-2.8-17.77-1.12-4.25-3.8-7.9-5.1-12.08-.4-1.23-2.32-.7-1.93.53zM708.35 25.5c1.2 7.47 3.92 14.4 6.18 21.56 2.4 7.63 3.5 15.65 5.14 23.47a413.73 413.73 0 0 0 12.75 45.86l8.17 24.48c2.5 7.84 2.83 16.15 4.7 24.13 1.7 7.28 5 13.93 6.7 21.24 1.5 6.5 3.63 12.64 5.42 19 2.2 7.9 2.9 16.45 4.66 24.5 1.74 7.86 3.73 15.67 5.82 23.45l13.07 47c4.13 15.72 8.36 31.62 13.35 47.25 2.5 7.8 5.47 15.6 7.5 23.53 1.9 7.38 2.2 15.1 3.35 22.6 2.65 17.4 9.3 34.55 14.38 51.37 5.33 17.68 10.37 35.46 14.1 53.56.26 1.26 2.2.73 1.93-.53-6.57-31.8-17.35-62.44-26-93.7-2.2-7.95-3-16-4.13-24.15-1-7.48-3.12-14.36-5.43-21.52-4.9-15.23-9.9-30.47-13.84-46-8-31.46-18.4-62.45-24.4-94.4-.75-4-1.38-8-2-12-.54-3.5-2.38-6.68-3.36-10.12-1.93-6.82-2.84-13.94-5.37-20.6a110.81 110.81 0 0 1-5.96-23.09c-1.32-8.44-4-16.24-6.68-24.32-5.73-17.17-11.5-34.2-15.48-51.9-1.94-8.68-3.14-17.62-5.45-26.2s-5.83-16.36-7.22-25c-.2-1.26-2.13-.73-1.93.53z"/><path d="M2.98 127.6c2.44 0 5.8 1.74 7.9 2.7a89.61 89.61 0 0 1 9.14 5.33c6.4 3.88 13.66 6.27 20.5 9.26s12.77 7.3 19.44 10.26l17.52 8c13 5.8 26 11.23 38.6 17.9 13.26 7 27 12.23 41 17.54s26.73 13.54 41.12 18.36c13.52 4.53 25.26 13.62 38.65 18.6 14.14 5.24 27.76 12 41.63 17.94 14.3 6.16 28.5 12.24 42.43 19.14 6.67 3.3 13.63 5.87 20.33 9.08 6.9 3.3 14.37 4.85 21.3 8 13.28 6.15 25.9 13.15 39.64 18.15 15 5.45 28.88 12.88 43.47 19.27l43.82 19.47 43.06 19.66c6.14 2.82 12.38 5.7 18.68 8.14 7.13 2.77 14.75 4.52 21.42 8.38 2.24 1.3 4.26 2.93 6.65 4a90.75 90.75 0 0 1 11.05 5.08c6.62 4 13.94 6.73 21 9.78 6.45 2.77 13.08 4.76 19.6 7.3 7.66 3 14.47 8 21.72 11.85a115 115 0 0 0 18.46 7.38c7.5 2.4 14.5 6.9 21.57 10.35 14.25 6.92 29.53 10.94 43.74 17.83 13.2 6.4 26.77 11.84 40.37 17.4 7.5 3.06 15.37 5.1 22.7 8.55 6.57 3.1 12.64 7.24 19.44 9.86 3.75 1.45 7.56 2.34 11.23 4a15.31 15.31 0 0 0 6 1.74c1.3.07 1.3-1.93 0-2-3.35-.17-6.15-2.2-9.24-3.33-4.1-1.5-8.2-2.5-12.14-4.46-6.54-3.25-12.67-7.14-19.5-9.84-7.58-3-15.35-5.32-22.85-8.58a364.64 364.64 0 0 0-20-8.06c-7.42-2.72-14.27-6.86-21.47-10.1-6.45-2.9-13.26-4.66-19.87-7.15-14.58-5.48-27.75-14.3-42.54-19.05-14.38-4.63-26.1-14.7-40.3-19.45-7.9-2.65-15.48-5.8-23.12-9.1-3.45-1.5-7-2.9-10.32-4.64-3-1.6-5.82-3.7-8.94-5.13s-6.2-2.13-9-3.94a58.34 58.34 0 0 0-8.05-4.44c-7-3.07-14.55-4.86-21.53-8.1l-42-18.9c-14.2-6.36-28.14-13.24-42.5-19.23l-21.43-9.3c-7.33-3.1-14-7-21.2-10.4-14-6.58-28.9-10.82-42.83-17.6-6.26-3-12.18-6.76-18.74-9.17-3.48-1.27-7.08-2.2-10.56-3.47-4.22-1.55-8.12-3.8-12.25-5.57-14-6-27.48-12.84-41.47-18.78l-20.23-8.66c-6.77-2.83-13.42-6.67-20.38-9.3a338.38 338.38 0 0 1-39.89-17.91 110.41 110.41 0 0 0-18.33-8.25c-8.06-2.6-15.72-6.58-23.28-10.38a164.76 164.76 0 0 0-17.71-8.13c-7.14-2.6-14.16-5.47-21.25-8.2-7.87-3-15-7.53-22.63-11.17l-19-9.18c-12.15-5.65-25-10-36.5-16.95a141.12 141.12 0 0 0-18.66-9 177.27 177.27 0 0 1-20.89-10.49c-3.34-2-8.48-4.9-12.5-4.87a1 1 0 1 0 0 2z"/><path d="M92.86 420.35c-1.64.6-2.93 2.08-4.67 2.33l.53 1.93c9.53-3.55 17.87-9.26 25.56-15.86 5.16-4.43 10.5-6.5 16.6-9.18 4.6-2 8.52-5.06 12.47-8.13a140.92 140.92 0 0 1 16.39-11.07c5.37-3.1 11-5.38 15.77-9.4 4.06-3.4 8.44-7.75 12.95-10.5 5.27-3.22 10.6-6.24 16.05-9.15a76.65 76.65 0 0 0 12.33-8.33 147.43 147.43 0 0 1 18.52-12.47c11.36-6.7 21.75-14.73 32.9-21.78 4.74-3 10-5 14.8-8l18-11.52c10.77-7.16 21.9-13.68 32.67-20.85 4.67-3.1 9.22-6.68 14.16-9.28s9.9-5.2 14.52-8.13c5.1-3.25 9.48-7.53 14.55-10.86s10.74-6.4 16-9.78c9.54-6.15 18.08-13.47 28.5-18.14 5.48-2.45 9.94-6 15-9.2s9.35-7.7 14.58-10.67c4.3-2.46 9-4.77 13.45-7 5.64-2.83 10.48-6.77 15.65-10.35 4.9-3.4 9.82-6.66 15-9.57 6.1-3.4 11.62-7.63 17.55-11.3l32.7-19.74c10.32-6.62 20.2-13.74 31.16-19.26 6-3 11.4-7.54 16.85-11.43 5.6-4 11.37-6.56 17.35-9.85 5.57-3.06 10.13-7.4 15-11.44 2.74-2.3 5.86-3.25 8.66-5.26 2.62-1.88 4.6-3.87 7.67-5.18 6.18-2.66 10.7-6.1 16-10.16a91.22 91.22 0 0 1 9.67-6.38c2.78-1.6 5.07-3.78 7.8-5.4 5.15-3.07 11.3-4.82 16.67-7.5 6-3 10.93-8.68 17.44-10.54a1.001 1.001 0 1 0-.53-1.93c-4.16 1.2-8.82 4.5-12.3 7.06-4.92 3.62-10.5 5.92-16 8.45-10.13 4.63-19.47 11.13-28.2 18.12-4.92 4-11 5.16-15.9 8.76-2.23 1.62-3.75 3.25-6.3 4.5a30.7 30.7 0 0 0-6.67 4.57c-4.64 4-9.2 8.18-14.67 11s-10.8 5.3-15.93 9c-4.58 3.26-9.08 6.86-13.8 9.87-5.48 3.48-11.5 5.77-16.9 9.48-10.3 7.08-21 13.33-31.65 19.8-11.1 6.73-21.76 14.24-32.85 20.94-5.3 3.2-10.6 6.12-15.73 9.62-5.3 3.62-10.34 8-16 11.06-4.4 2.43-8.88 4.8-13.4 7-5.3 2.53-9.2 6.48-13.93 9.88s-10.15 7.38-15.48 10-10.52 4.62-15.3 8.13c-9.43 7-19.25 13.1-29.22 19.28a167.53 167.53 0 0 0-13.7 10c-4.73 3.65-10.34 6.67-15.6 9.5-10.67 5.74-20.1 13.53-30.53 19.7-11.23 6.65-22.25 13.6-33.15 20.8a162.84 162.84 0 0 1-15.79 8.78c-5.7 2.9-11 7.08-16.28 10.73s-10 7.56-15.5 10.56c-6.13 3.35-12.3 6.7-17.9 10.9-5.36 4-10.2 8.44-16.15 11.64s-11.7 6.42-17.43 9.92c-5 3.07-9.32 7.8-14 11.45-5.64 4.44-12.7 7.06-18.78 10.92-5.75 3.65-10.94 7.87-16.44 11.84s-11.47 5.4-17.25 8.4c-5.33 2.76-10 7.5-14.77 11.14a67.92 67.92 0 0 1-17.44 9.82 1.001 1.001 0 0 0 .53 1.93c1.9-.27 2.9-1.68 4.68-2.33 1.2-.43.68-2.37-.54-1.93zM324.7 231.3l-.82.2a1 1 0 0 0-.74 1c-.53 4.52-.7 8.9-1.6 13.43a101.32 101.32 0 0 0-1.56 10.47h2v-.73c0-1.3-2-1.3-2 0v.73c0 1.3 1.88 1.26 2 0 .35-3.77 1.15-7.8 1.85-11.54.15-.8 1.5-11.6 1.4-11.58 1.25-.3.72-2.22-.53-1.93z"/><path d="M319.97 256.45c-.47-2.3-3.27-2.68-3.88-.24a1 1 0 0 0 .7 1.23 6.66 6.66 0 0 0 4.34.12 3.73 3.73 0 0 0 1.35-.87c.45-.44.8-1.14 1.48-1.2 1.28-.1 1.3-2.1 0-2a3.61 3.61 0 0 0-2.59 1.44c-1.1 1.2-2.6 1.05-4 .57l.7 1.23c-.1-.2-.08-.13 0 .25.26 1.26 2.18.72 1.92-.54zm1.03-26.3l-.67.06.5 1.87a17.71 17.71 0 0 1 4.53-2 14.43 14.43 0 0 1 2.71-.21 2.82 2.82 0 0 0 2.85-3.21c-.05-1.28-2.05-1.3-2 0 .06 1.85-2.1 1.08-3.37 1.3a17.93 17.93 0 0 0-5.73 2.35c-.8.48-.53 2 .5 1.86l.67-.06c1.27-.1 1.28-2.12 0-2zM9.65 78.92l-.88.2a1 1 0 0 0-.7 1.23c.86 4.3.67 8.52 1.92 12.76.58 1.93 1.27 4.25.88 6.28-.65 3.36-5.83 6.53-9.17 3.16-.9-.92-2.32.5-1.4 1.4 3.24 3.28 10.2 2.35 12.2-2.22 1-2.26.4-5.56-.18-7.84-1.23-4.7-1.37-9.33-2.32-14.04l-.7 1.23.88-.2c1.25-.27.72-2.2-.53-1.93z"/><path d="M8.8 80.5l-.65-.87L8 80.85a7.14 7.14 0 0 1 4.89-2.18c1.3 0 1.3-2 0-2a9.14 9.14 0 0 0-6.31 2.77 1 1 0 0 0-.16 1.21l.66.87c.76 1 2.5 0 1.72-1zm73.17 358.76l-.8.22a1 1 0 0 0-.7.69 47.74 47.74 0 0 0-1.23 9.65v14.6h2c-.15-6.3 4.83-11.1 8.53-15.65a19.74 19.74 0 0 0 2.95-4.64c.78-1.8 1.32-5.93 3.64-6.27 1.27-.18.73-2.1-.53-1.93-1.93.3-2.77 1.93-3.52 3.58-1.5 3.3-2.46 6-4.85 8.9-3.85 4.6-8.38 9.65-8.22 16a1 1 0 1 0 2 0c0-2.5-1.6-22.45 1.25-23.22a1.001 1.001 0 1 0-.53-1.93zm7.93 11.12l-.87.25a1 1 0 0 0-.7 1.23c.37 1.77 1.9 2.72 3.06 4a10.4 10.4 0 0 1 1.56 3.23c.86 2 2.62 3.76 4.27 1.37l-1.37.36.75.32c1.17.5 2.2-1.23 1-1.73l-.75-.32a1 1 0 0 0-1.36.36c-.33.27-.3.36.08.26a1.72 1.72 0 0 1-.28-.37 10.59 10.59 0 0 0-.6-1.22l-.8-2.06c-.8-1.82-3.23-2.77-3.63-4.7l-.7 1.23.87-.25a1.001 1.001 0 0 0-.53-1.93zM730.18.66c-.8 1.88-2.1 3.1-2.56 5.14a33.8 33.8 0 0 0-.42 5c-.35 4.58-1.6 8.74-.83 13.36a1 1 0 0 0 1 .73c3 0 5.5-1.7 7.9-3.23a12.5 12.5 0 0 1 5.19-2.07 8.12 8.12 0 0 0 3.11-1.15 1 1 0 0 0-1-1.72c-2 1.2-4.36.85-6.42 2-1 .54-1.92 1.3-2.87 1.88a32.54 32.54 0 0 1-2.2 1.3q-2.07 2.07-2.52-.24c-1.8-2.42.48-7.76.7-10.82a21.75 21.75 0 0 1 .47-5.16c.54-1.62 1.77-2.9 2.43-4.48.5-1.18-1.43-1.7-1.92-.53zm119.58 486.42l-.82.2a1 1 0 0 0-.7.7c-.44 3.22 1.05 6 .9 9.3-.2 5-.13 9.93-.13 14.9a1 1 0 1 0 2 0v-1.9a1 1 0 1 0-2 0v1.9a1 1 0 1 0 2 0c0-1.24-.14-23.3-.73-23.17 1.25-.3.72-2.22-.53-1.93z"/><path d="M848.53 486.07c-5.15 2.52 8.65 18 14.93 9.33 1.92-2.65 2.5-6.5 3.76-9.5a20.83 20.83 0 0 1 1.06-2.56c.4-2.13.93-2.16 1.62-.07a26.14 26.14 0 0 1 .19 3.19c.17 9.77-.26 19.6-.26 29.38a1 1 0 1 0 2 0l.17-26.06c.08-2.05 1.13-9.52-2-10.5-2.86-.9-3.72 3.88-4.46 5.62-1.4 3.25-3 11.53-7.87 10.92-2-.25-10.58-6.8-8.1-8 1.15-.57.14-2.3-1-1.73z"/></svg>