<svg xmlns="http://www.w3.org/2000/svg" width="552.9" height="383.22" viewBox="0 0 478 331"><defs><clipPath id="0"><path d="m0 0v332h479v-332z"/></clipPath></defs><g stroke-miterlimit="10" stroke-linecap="square"><g><g clip-path="url(#0)"><path d="m157 31l-128 213" stroke-linejoin="round" stroke-linecap="round" fill="none" stroke="#000"/></g><g clip-path="url(#0)"><path d="m29 244l292 51" stroke-linejoin="round" stroke-linecap="round" fill="none" stroke="#000"/></g><g clip-path="url(#0)"><path d="m321 295l-164-264" stroke-linejoin="round" stroke-linecap="round" fill="none" stroke="#000"/></g><g clip-path="url(#0)"><path d="m321 295l101-93" stroke-linejoin="round" stroke-linecap="round" fill="none" stroke="#000"/></g><g clip-path="url(#0)"><path d="m422 202l-265-171" stroke-linejoin="round" stroke-linecap="round" fill="none" stroke="#000"/></g><g clip-path="url(#0)"><path d="m29 244l393-42" stroke-linejoin="round" stroke-dasharray="5 4" stroke-linecap="butt" fill="none" stroke="#000"/></g><g clip-path="url(#0)"><path d="m30 244c0 .55-.448 1-1 1-.552 0-1-.45-1-1 0-.55.448-1 1-1 .552 0 1 .45 1 1" fill="#300"/></g><g clip-path="url(#0)"><path d="m30 244c0 .55-.448 1-1 1-.552 0-1-.45-1-1 0-.55.448-1 1-1 .552 0 1 .45 1 1z" stroke-linejoin="round" stroke-linecap="round" fill="none" stroke="#000"/></g><g clip-path="url(#0)"><text font-style="italic" font-family="serif" fill="#300" font-size="12" x="0" y="0" transform="translate(17 242)">A</text></g><g clip-path="url(#0)"><path d="m322 295c0 .55-.45 1-1 1-.55 0-1-.45-1-1 0-.55.45-1 1-1 .55 0 1 .45 1 1" fill="#300"/></g><g clip-path="url(#0)"><path d="m322 295c0 .55-.45 1-1 1-.55 0-1-.45-1-1 0-.55.45-1 1-1 .55 0 1 .45 1 1z" stroke-linejoin="round" stroke-linecap="round" fill="none" stroke="#000"/></g><g clip-path="url(#0)"><text font-style="italic" font-family="serif" fill="#300" font-size="12" x="0" y="0" transform="translate(326 306)">B</text></g><g clip-path="url(#0)"><path d="m423 202c0 .55-.45 1-1 1-.55 0-1-.45-1-1 0-.55.45-1 1-1 .55 0 1 .45 1 1" fill="#300"/></g><g clip-path="url(#0)"><path d="m423 202c0 .55-.45 1-1 1-.55 0-1-.45-1-1 0-.55.45-1 1-1 .55 0 1 .45 1 1z" stroke-linejoin="round" stroke-linecap="round" fill="none" stroke="#000"/></g><g clip-path="url(#0)"><text font-style="italic" font-family="serif" fill="#300" font-size="12" x="0" y="0" transform="translate(426 200)">C</text></g><g clip-path="url(#0)"><path d="m158 31c0 .552-.45 1-1 1-.55 0-1-.448-1-1 0-.552.45-1 1-1 .55 0 1 .448 1 1" fill="#300"/></g><g clip-path="url(#0)"><path d="m158 31c0 .552-.45 1-1 1-.55 0-1-.448-1-1 0-.552.45-1 1-1 .55 0 1 .448 1 1z" stroke-linejoin="round" stroke-linecap="round" fill="none" stroke="#000"/></g><g clip-path="url(#0)"><text font-style="italic" font-family="serif" fill="#300" font-size="12" x="0" y="0" transform="translate(158 27)">D</text></g><g clip-path="url(#0)"><path d="m258.33 247c0 .55-.44 1-1 1-.55 0-1-.45-1-1 0-.55.45-1 1-1 .56 0 1 .45 1 1" fill="#444"/></g><g clip-path="url(#0)"><path d="m258.33 247c0 .55-.44 1-1 1-.55 0-1-.45-1-1 0-.55.45-1 1-1 .56 0 1 .45 1 1z" stroke-linejoin="round" stroke-linecap="round" fill="none" stroke="#000"/></g><g clip-path="url(#0)"><text font-style="italic" font-family="serif" fill="#444" font-size="12" x="0" y="0" transform="translate(261 245)">I</text></g><g clip-path="url(#0)"><path d="m301 176c0 .55-.45 1-1 1-.55 0-1-.45-1-1 0-.55.45-1 1-1 .55 0 1 .45 1 1" fill="#444"/></g><g clip-path="url(#0)"><path d="m301 176c0 .55-.45 1-1 1-.55 0-1-.45-1-1 0-.55.45-1 1-1 .55 0 1 .45 1 1z" stroke-linejoin="round" stroke-linecap="round" fill="none" stroke="#000"/></g><g clip-path="url(#0)"><text font-style="italic" font-family="serif" fill="#444" font-size="12" x="0" y="0" transform="translate(300 171)">J</text></g></g></g></svg>