<?xml version="1.0" encoding="utf-8"?>
<svg version="1.1" id="Layer_1" xmlns="http://www.w3.org/2000/svg" xmlns:xlink="http://www.w3.org/1999/xlink" x="0px" y="0px"
	 viewBox="0 0 122.9 122.9" style="enable-background:new 0 0 122.9 122.9;" xml:space="preserve">
<style type="text/css">
	.st0{fill:#7D7D7D;}
	.st1{fill:#FF0000;}
</style>
<path class="st0" d="M61.4,0c17,0,32.3,6.9,43.5,18c11.1,11.1,18,26.5,18,43.5c0,17-6.9,32.3-18,43.5c-11.1,11.1-26.5,18-43.5,18
	c-17,0-32.3-6.9-43.5-18C6.9,93.8,0,78.4,0,61.4c0-17,6.9-32.3,18-43.5C29.1,6.9,44.5,0,61.4,0L61.4,0z M96.9,26
	c-9.1-9.1-21.6-14.7-35.5-14.7C47.6,11.3,35.1,16.9,26,26c-9.1,9.1-14.7,21.6-14.7,35.5c0,13.9,5.6,26.4,14.7,35.5
	s21.6,14.7,35.5,14.7c13.9,0,26.4-5.6,35.5-14.7s14.7-21.6,14.7-35.5C111.6,47.6,106,35.1,96.9,26L96.9,26z"/>
<path class="st1" d="M59.8,85.8c-0.4,0.3-0.9,0.6-1.3,0.8c-0.5,0.2-1,0.4-1.5,0.5c-0.5,0.1-1,0.2-1.5,0.2l-0.1,0c-0.5,0-1,0-1.4-0.1
	l-0.1,0c-0.5-0.1-0.9-0.2-1.4-0.4c-0.5-0.2-0.9-0.4-1.4-0.7l-0.1,0c-0.4-0.3-0.8-0.5-1.2-0.9l-0.1-0.1c-1.8-1.7-3.8-3.4-5.7-5.1
	c-3.4-3-8.2-7.3-11-10.3l0,0l0,0c-0.3-0.4-0.6-0.7-0.9-1.1c-0.3-0.4-0.5-0.8-0.7-1.3c-0.6-1.4-0.8-3-0.5-4.5c0.3-1.5,0.9-2.9,2-4
	l0.4-0.4c2.6-2.5,6.6-3,9.7-1.1c0.4,0.3,0.9,0.6,1.3,0.9l0,0c2.2,2.1,5.9,5.6,8.4,7.7l2.1,1.9l25.7-26.9c0.4-0.4,0.8-0.7,1.2-1
	c0.4-0.3,0.9-0.5,1.4-0.8c0.5-0.2,1-0.4,1.5-0.5c0.5-0.1,1-0.2,1.5-0.2h0c0.5,0,1,0,1.5,0.1c0.5,0.1,1,0.2,1.5,0.4
	c0.5,0.2,0.9,0.4,1.4,0.7c0.4,0.3,0.8,0.6,1.2,0.9l0.2,0.2c0.4,0.4,0.7,0.7,1,1.2c0.3,0.4,0.5,0.9,0.7,1.3c0.2,0.5,0.4,1,0.5,1.5
	c0.1,0.5,0.2,1,0.2,1.5v0.3c0,0.5,0,0.9-0.1,1.4c-0.1,0.5-0.2,1-0.4,1.4c-0.2,0.5-0.4,0.9-0.7,1.4c-0.3,0.4-0.6,0.8-0.9,1.2"/>
</svg>
