<svg enable-background="new 0 -2 94.227 104.333" height="59.996548" viewBox="0 -2 83.763003 59.996547" width="83.763" xmlns="http://www.w3.org/2000/svg"><path d="m75.988 36.490547c-1.472-6.447-8.891-7.579-8.891-7.579 0 0 .176-5.351-2.628-10.347-1.856-3.307-8.351-8.042-8.351-8.042l-2.854-11.5499998-7.43 7.32-2.854 1.105c-1.539-.143-4.718-.312-6.485-.227-4.729.225-9.227 2.036-9.227 2.036l-12.878-8.52400008 2.233 18.90999988c.646-.786-10.5530002 12.802-3.477 24.22 3.319 5.36 10.159 10.124 15.599 11.947 4.062 1.36 10.833 1.737 14 1.737 2.646 0 7.768-.541 10.32-.979 3.021-.519 6.479-1.629 10.055-3.108 9.497-3.934 14.338-10.472 12.868-16.919zm-46.681-25.245l-2.035-2.0389998m15.952-1.961c2 .333 4.333 1.366 4.333 1.366" fill="#faa51d" stroke="#000"/><path d="m66.682 29.162547l-2.881-3.107-9.113 2.661c0 .01-.005 1.619-1.42 2.933-.646.6-1.583 1.138-2.948 1.435-4.371.951-11.212-2.277-11.212-2.277l-7.784 3.417c0 0-4.744.522-7.244 2.956-.833.812-1.417 1.835-1.492 3.123-.493 8.398 8.68 13.252 15.083 15.602 1.778.652 2.388.851 3.472 1.139 0 0 7.424-.195 10.181-.588 3.032-.432 7.578-1.758 11.154-3.236 9.498-3.933 14.601-10.024 13.129-16.471-1.474-6.451-8.925-7.587-8.925-7.587z" fill="#fff"/><path d="m38.174 21.864547c2.926 4.48 2.618 9.862-.682 12.015-3.303 2.159-8.352.272-11.275-4.208-2.928-4.48-2.624-9.86.678-12.017 3.302-2.156 8.35-.272 11.279 4.21" fill="#fff" stroke="#000"/><path d="m36.386 27.752547c0 1.081-.803 1.957-1.801 1.957-.992 0-1.804-.878-1.804-1.957 0-1.08.812-1.957 1.804-1.957.996 0 1.801.877 1.801 1.957"/><path d="m61.897 18.783547c2.925 4.479 3.283 9.419.492 11.243-2.793 1.825-7.181-.552-10.104-5.034-2.933-4.48-3.079-9.134-.286-10.959 2.787-1.823 6.971.268 9.898 4.75" fill="#fff" stroke="#000"/><path d="m61.396 25.767547c0 1.08-.802 1.956-1.8 1.956-.993 0-1.804-.877-1.804-1.956 0-1.08.811-1.958 1.804-1.958.998 0 1.8.878 1.8 1.958"/><path d="m50.072 31.171547c1.854 0 4.556-.284 4.696.569.145.855-1.709 4.203-2.987 4.345-1.282.142-6.125-2.353-6.194-3.919-.074-1.566 2.774-.995 4.485-.995" fill="#5e4a42" stroke="#000"/><path d="m12.286 35.635547c-.023-.017-2.3820002-1.76-6.0020002-3.362-4.012-1.777-6.2629998-2.26-6.2839998-2.265l.245-1.175c.095.02 2.3809998.506 6.5249998 2.342 3.7510002 1.661 6.1330002 3.424 6.2320002 3.498z"/><path d="m6.1639998 40.287547c-2.035 0-5.0919998-.276-5.2379998-.289l.107-1.195c.041.004 4.0879998.367 5.8869998.266 1.82-.104 5.4120002-.578 5.4470002-.583l.157 1.189c-.148.02-3.6700002.484-5.5370002.591-.242.015-.522.021-.823.021z"/><path d="m72.06 34.508547l-.194-1.185c.046-.007 4.524-.744 6.761-1.523 2.573-.894 4.326-2.415 4.345-2.43l.791.902c-.078.068-1.948 1.691-4.742 2.661-2.334.814-6.774 1.544-6.961 1.575z"/><path d="m81.087 42.012547c-.812 0-1.905-.035-3.189-.163-2.858-.286-5.584-1.379-5.699-1.426l.45-1.112c.027.011 2.686 1.075 5.368 1.344 2.672.267 4.518.111 4.535.11l.104 1.195c-.043.004-.612.052-1.569.052z"/><path d="m37.081 38.480547c0 0 10.347 3.054 14.217 3.896 3.867.842 10.851 1.684 10.851 1.684 0 0-7.989 10.245-17.327 7.645-9.339-2.597-9.171-8.485-7.741-13.225z" fill="none" stroke="#231f20" stroke-width="1.20000005"/></svg>