<svg xmlns="http://www.w3.org/2000/svg" width="370.88" height="372.16" viewBox="0 0 290 291" xmlns:xlink="http://www.w3.org/1999/xlink"><defs><clipPath id="0"><path d="m0 0v292h291v-292z"/></clipPath></defs><g stroke-miterlimit="10" stroke-linecap="square"><g clip-path="url(#0)"><path d="m20.09 2v290" stroke-linecap="butt" fill="none" stroke="#000"/></g><g clip-path="url(#0)"><path d="m20.09 1l-3 3" stroke-linecap="butt" fill="none" stroke="#000"/></g><g clip-path="url(#0)"><path d="m20.09 1l3 3" stroke-linecap="butt" fill="none" stroke="#000"/></g><g clip-path="url(#0)"><path d="m0 272.38h289" stroke-linecap="butt" fill="none" stroke="#000"/></g><g clip-path="url(#0)"><path d="m290 272.38l-3-3" stroke-linecap="butt" fill="none" stroke="#000"/></g><g clip-path="url(#0)"><path d="m290 272.38l-3 3" stroke-linecap="butt" fill="none" stroke="#000"/></g><g clip-path="url(#0)"><text font-style="italic" font-family="serif" font-size="10" x="0" y="0" transform="translate(26 286)">0</text></g><g clip-path="url(#0)"><path d="m20.09 272.38v3" stroke-linecap="butt" fill="none" stroke="#000"/></g><g clip-path="url(#0)"><text font-style="italic" font-family="serif" font-size="10" x="0" y="0" transform="translate(46 286)">5</text></g><g clip-path="url(#0)"><path d="m47.896 272.38v3" stroke-linecap="butt" fill="none" stroke="#000"/></g><g clip-path="url(#0)"><text font-style="italic" font-family="serif" font-size="10" x="0" y="0" transform="translate(71 286)">10</text></g><g clip-path="url(#0)"><path d="m75.7 272.38v3" stroke-linecap="butt" fill="none" stroke="#000"/></g><g clip-path="url(#0)"><text font-style="italic" font-family="serif" font-size="10" x="0" y="0" transform="translate(99 286)">15</text></g><g clip-path="url(#0)"><path d="m103.5 272.38v3" stroke-linecap="butt" fill="none" stroke="#000"/></g><g clip-path="url(#0)"><text font-style="italic" font-family="serif" font-size="10" x="0" y="0" transform="translate(127 286)">20</text></g><g clip-path="url(#0)"><path d="m131.3 272.38v3" stroke-linecap="butt" fill="none" stroke="#000"/></g><g clip-path="url(#0)"><text font-style="italic" font-family="serif" font-size="10" x="0" y="0" transform="translate(155 286)">25</text></g><g clip-path="url(#0)"><path d="m159.1 272.38v3" stroke-linecap="butt" fill="none" stroke="#000"/></g><g clip-path="url(#0)"><text font-style="italic" font-family="serif" font-size="10" x="0" y="0" transform="translate(182 286)">30</text></g><g clip-path="url(#0)"><path d="m186.9 272.38v3" stroke-linecap="butt" fill="none" stroke="#000"/></g><g clip-path="url(#0)"><text font-style="italic" font-family="serif" font-size="10" x="0" y="0" transform="translate(210 286)">35</text></g><g clip-path="url(#0)"><path d="m214.7 272.38v3" stroke-linecap="butt" fill="none" stroke="#000"/></g><g clip-path="url(#0)"><text font-style="italic" font-family="serif" font-size="10" x="0" y="0" transform="translate(238 286)">40</text></g><g clip-path="url(#0)"><path d="m242.5 272.38v3" stroke-linecap="butt" fill="none" stroke="#000"/></g><g clip-path="url(#0)"><text font-style="italic" font-family="serif" font-size="10" x="0" y="0" transform="translate(266 286)">45</text></g><g clip-path="url(#0)"><path d="m270.31 272.38v3" stroke-linecap="butt" fill="none" stroke="#000"/></g><g clip-path="url(#0)"><text font-style="italic" font-family="serif" font-size="10" x="0" y="0" transform="translate(8 270)">0</text></g><g clip-path="url(#0)"><text font-style="italic" font-family="serif" font-size="10" x="0" y="0" transform="translate(8 248)">5</text></g><g clip-path="url(#0)"><path d="m17.09 244.57h3" stroke-linecap="butt" fill="none" stroke="#000"/></g><g clip-path="url(#0)"><text font-style="italic" font-family="serif" font-size="10" x="0" y="0" transform="translate(2 220)">10</text></g><g clip-path="url(#0)"><path d="m17.09 216.77h3" stroke-linecap="butt" fill="none" stroke="#000"/></g><g clip-path="url(#0)"><text font-style="italic" font-family="serif" font-size="10" x="0" y="0" transform="translate(2 192)">15</text></g><g clip-path="url(#0)"><path d="m17.09 188.97h3" stroke-linecap="butt" fill="none" stroke="#000"/></g><g clip-path="url(#0)"><text font-style="italic" font-family="serif" font-size="10" x="0" y="0" transform="translate(2 165)">20</text></g><g clip-path="url(#0)"><path d="m17.09 161.17h3" stroke-linecap="butt" fill="none" stroke="#000"/></g><g clip-path="url(#0)"><text font-style="italic" font-family="serif" font-size="10" x="0" y="0" transform="translate(2 137)">25</text></g><g clip-path="url(#0)"><path d="m17.09 133.37h3" stroke-linecap="butt" fill="none" stroke="#000"/></g><g clip-path="url(#0)"><text font-style="italic" font-family="serif" font-size="10" x="0" y="0" transform="translate(2 109)">30</text></g><g clip-path="url(#0)"><path d="m17.09 105.57h3" stroke-linecap="butt" fill="none" stroke="#000"/></g><g clip-path="url(#0)"><text font-style="italic" font-family="serif" font-size="10" x="0" y="0" transform="translate(2 81)">35</text></g><g clip-path="url(#0)"><path d="m17.09 77.77h3" stroke-linecap="butt" fill="none" stroke="#000"/></g><g clip-path="url(#0)"><text font-style="italic" font-family="serif" font-size="10" x="0" y="0" transform="translate(2 53)">40</text></g><g clip-path="url(#0)"><path d="m17.09 49.966h3" stroke-linecap="butt" fill="none" stroke="#000"/></g><g clip-path="url(#0)"><text font-style="italic" font-family="serif" font-size="10" x="0" y="0" transform="translate(2 26)">45</text></g><g clip-path="url(#0)"><path d="m17.09 22.16h3" stroke-linecap="butt" fill="none" stroke="#000"/></g><g clip-path="url(#0)"><path d="m47.896 0v272.38" stroke-linejoin="round" stroke-linecap="round" fill="none" stroke="#c0c0c0"/></g><g clip-path="url(#0)"><path d="m47.896 291.38v.62" stroke-linejoin="round" stroke-linecap="round" fill="none" stroke="#c0c0c0"/></g><g clip-path="url(#0)"><path d="m75.7 0v272.38" stroke-linejoin="round" stroke-linecap="round" fill="none" stroke="#c0c0c0"/></g><g clip-path="url(#0)"><path d="m75.7 291.38v.62" stroke-linejoin="round" stroke-linecap="round" fill="none" stroke="#c0c0c0"/></g><g clip-path="url(#0)"><path d="m103.5 0v272.38" stroke-linejoin="round" stroke-linecap="round" fill="none" stroke="#c0c0c0"/></g><g clip-path="url(#0)"><path d="m103.5 291.38v.62" stroke-linejoin="round" stroke-linecap="round" fill="none" stroke="#c0c0c0"/></g><g clip-path="url(#0)"><path d="m131.3 0v272.38" stroke-linejoin="round" stroke-linecap="round" fill="none" stroke="#c0c0c0"/></g><g clip-path="url(#0)"><path d="m131.3 291.38v.62" stroke-linejoin="round" stroke-linecap="round" fill="none" stroke="#c0c0c0"/></g><g clip-path="url(#0)"><path d="m159.1 0v272.38" stroke-linejoin="round" stroke-linecap="round" fill="none" stroke="#c0c0c0"/></g><g clip-path="url(#0)"><path d="m159.1 291.38v.62" stroke-linejoin="round" stroke-linecap="round" fill="none" stroke="#c0c0c0"/></g><g clip-path="url(#0)"><path d="m186.9 0v272.38" stroke-linejoin="round" stroke-linecap="round" fill="none" stroke="#c0c0c0"/></g><g clip-path="url(#0)"><path d="m186.9 291.38v.62" stroke-linejoin="round" stroke-linecap="round" fill="none" stroke="#c0c0c0"/></g><g clip-path="url(#0)"><path d="m214.7 0v272.38" stroke-linejoin="round" stroke-linecap="round" fill="none" stroke="#c0c0c0"/></g><g clip-path="url(#0)"><path d="m214.7 291.38v.62" stroke-linejoin="round" stroke-linecap="round" fill="none" stroke="#c0c0c0"/></g><g clip-path="url(#0)"><path d="m242.5 0v272.38" stroke-linejoin="round" stroke-linecap="round" fill="none" stroke="#c0c0c0"/></g><g clip-path="url(#0)"><path d="m242.5 291.38v.62" stroke-linejoin="round" stroke-linecap="round" fill="none" stroke="#c0c0c0"/></g><g clip-path="url(#0)"><path d="m270.31 0v272.38" stroke-linejoin="round" stroke-linecap="round" fill="none" stroke="#c0c0c0"/></g><g clip-path="url(#0)"><path d="m270.31 291.38v.62" stroke-linejoin="round" stroke-linecap="round" fill="none" stroke="#c0c0c0"/></g><g clip-path="url(#0)"><path d="m0 22.16h-1.029" stroke-linejoin="round" stroke-linecap="round" fill="none" stroke="#c0c0c0" id="1"/></g><g clip-path="url(#0)"><path d="m20.09 22.16h270.91" stroke-linejoin="round" stroke-linecap="round" fill="none" stroke="#c0c0c0" id="2"/></g><g clip-path="url(#0)"><use xlink:href="#1"/></g><g clip-path="url(#0)"><use xlink:href="#2"/></g><g clip-path="url(#0)"><path d="m0 49.966h-1.029" stroke-linejoin="round" stroke-linecap="round" fill="none" stroke="#c0c0c0"/></g><g clip-path="url(#0)"><path d="m20.09 49.966h270.91" stroke-linejoin="round" stroke-linecap="round" fill="none" stroke="#c0c0c0"/></g><g clip-path="url(#0)"><path d="m0 77.77h-1.029" stroke-linejoin="round" stroke-linecap="round" fill="none" stroke="#c0c0c0"/></g><g clip-path="url(#0)"><path d="m20.09 77.77h270.91" stroke-linejoin="round" stroke-linecap="round" fill="none" stroke="#c0c0c0"/></g><g clip-path="url(#0)"><path d="m0 105.57h-1.029" stroke-linejoin="round" stroke-linecap="round" fill="none" stroke="#c0c0c0"/></g><g clip-path="url(#0)"><path d="m20.09 105.57h270.91" stroke-linejoin="round" stroke-linecap="round" fill="none" stroke="#c0c0c0"/></g><g clip-path="url(#0)"><path d="m0 133.37h-1.029" stroke-linejoin="round" stroke-linecap="round" fill="none" stroke="#c0c0c0"/></g><g clip-path="url(#0)"><path d="m20.09 133.37h270.91" stroke-linejoin="round" stroke-linecap="round" fill="none" stroke="#c0c0c0"/></g><g clip-path="url(#0)"><path d="m0 161.17h-1.029" stroke-linejoin="round" stroke-linecap="round" fill="none" stroke="#c0c0c0"/></g><g clip-path="url(#0)"><path d="m20.09 161.17h270.91" stroke-linejoin="round" stroke-linecap="round" fill="none" stroke="#c0c0c0"/></g><g clip-path="url(#0)"><path d="m0 188.97h-1.029" stroke-linejoin="round" stroke-linecap="round" fill="none" stroke="#c0c0c0"/></g><g clip-path="url(#0)"><path d="m20.09 188.97h270.91" stroke-linejoin="round" stroke-linecap="round" fill="none" stroke="#c0c0c0"/></g><g clip-path="url(#0)"><path d="m0 216.77h-1.029" stroke-linejoin="round" stroke-linecap="round" fill="none" stroke="#c0c0c0"/></g><g clip-path="url(#0)"><path d="m20.09 216.77h270.91" stroke-linejoin="round" stroke-linecap="round" fill="none" stroke="#c0c0c0"/></g><g clip-path="url(#0)"><path d="m0 244.57h-1.029" stroke-linejoin="round" stroke-linecap="round" fill="none" stroke="#c0c0c0"/></g><g clip-path="url(#0)"><path d="m20.09 244.57h270.91" stroke-linejoin="round" stroke-linecap="round" fill="none" stroke="#c0c0c0"/></g><g><g clip-path="url(#0)"><path d="m20.09 272.38h250.22" stroke-linejoin="round" stroke-width="2" stroke-linecap="round" fill="none" stroke="#f03"/></g><g clip-path="url(#0)"><path d="m270.31 272.38v-250.22" stroke-linejoin="round" stroke-width="2" stroke-linecap="round" fill="none" stroke="#f03"/></g><g clip-path="url(#0)"><path d="m270.31 22.16h-250.22" stroke-linejoin="round" stroke-width="2" stroke-linecap="round" fill="none" stroke="#f03"/></g><g clip-path="url(#0)"><path d="m20.09 22.16v250.22" stroke-linejoin="round" stroke-width="2" stroke-linecap="round" fill="none" stroke="#f03"/></g><g clip-path="url(#0)"><path d="m21.09 272.38c0 .55-.447 1-1 1-.552 0-1-.45-1-1 0-.56.448-1 1-1 .553 0 1 .44 1 1" fill="#444"/></g><g clip-path="url(#0)"><path d="m21.09 272.38c0 .55-.447 1-1 1-.552 0-1-.45-1-1 0-.56.448-1 1-1 .553 0 1 .44 1 1z" stroke-linejoin="round" stroke-linecap="round" fill="none" stroke="#000"/></g><g clip-path="url(#0)"><path d="m271.31 272.38c0 .55-.45 1-1 1-.56 0-1-.45-1-1 0-.56.44-1 1-1 .55 0 1 .44 1 1" fill="#300"/></g><g clip-path="url(#0)"><path d="m271.31 272.38c0 .55-.45 1-1 1-.56 0-1-.45-1-1 0-.56.44-1 1-1 .55 0 1 .44 1 1z" stroke-linejoin="round" stroke-linecap="round" fill="none" stroke="#000"/></g><g clip-path="url(#0)"><path d="m271.31 22.16c0 .553-.45 1-1 1-.56 0-1-.447-1-1 0-.552.44-1 1-1 .55 0 1 .448 1 1" fill="#300"/></g><g clip-path="url(#0)"><path d="m271.31 22.16c0 .553-.45 1-1 1-.56 0-1-.447-1-1 0-.552.44-1 1-1 .55 0 1 .448 1 1z" stroke-linejoin="round" stroke-linecap="round" fill="none" stroke="#000"/></g><g clip-path="url(#0)"><path d="m21.09 22.16c0 .553-.447 1-1 1-.552 0-1-.447-1-1 0-.552.448-1 1-1 .553 0 1 .448 1 1" fill="#300"/></g><g clip-path="url(#0)"><path d="m21.09 22.16c0 .553-.447 1-1 1-.552 0-1-.447-1-1 0-.552.448-1 1-1 .553 0 1 .448 1 1z" stroke-linejoin="round" stroke-linecap="round" fill="none" stroke="#000"/></g></g></g></svg>