<svg xmlns="http://www.w3.org/2000/svg" width="1297.28" height="861.95" viewBox="0 0 446 296" xmlns:xlink="http://www.w3.org/1999/xlink"><defs><clipPath id="0"><path d="m-.067-.967v9.4h7.133v-9.4z"/></clipPath><clipPath id="1"><path d="m0 0v297h447v-297z"/></clipPath></defs><g stroke-linecap="square" stroke-miterlimit="10"><g clip-path="url(#1)"><path d="m38.17 2v295" stroke-linecap="butt" stroke="#000" fill="none"/></g><g clip-path="url(#1)"><path d="m38.17 1l-3 3" stroke-linecap="butt" stroke="#000" fill="none"/></g><g clip-path="url(#1)"><path d="m38.17 1l3 3" stroke-linecap="butt" stroke="#000" fill="none"/></g><g clip-path="url(#1)"><path d="m0 269.23h445" stroke-linecap="butt" stroke="#000" fill="none"/></g><g clip-path="url(#1)"><path d="m446 269.23l-3-3" stroke-linecap="butt" stroke="#000" fill="none"/></g><g clip-path="url(#1)"><path d="m446 269.23l-3 3" stroke-linecap="butt" stroke="#000" fill="none"/></g><g clip-path="url(#1)"><text font-style="italic" font-size="10" x="0" y="0" font-family="serif" transform="translate(44 283)">0</text></g><g clip-path="url(#1)"><text font-style="italic" font-size="10" x="0" y="0" font-family="serif" transform="translate(97 283)">5</text></g><g clip-path="url(#1)"><path d="m99.21 269.23v3" stroke-linecap="butt" stroke="#000" fill="none"/></g><g clip-path="url(#1)"><text font-style="italic" font-size="10" x="0" y="0" font-family="serif" transform="translate(156 283)">10</text></g><g clip-path="url(#1)"><path d="m160.26 269.23v3" stroke-linecap="butt" stroke="#000" fill="none"/></g><g clip-path="url(#1)"><text font-style="italic" font-size="10" x="0" y="0" font-family="serif" transform="translate(217 283)">15</text></g><g clip-path="url(#1)"><path d="m221.3 269.23v3" stroke-linecap="butt" stroke="#000" fill="none"/></g><g clip-path="url(#1)"><text font-style="italic" font-size="10" x="0" y="0" font-family="serif" transform="translate(278 283)">20</text></g><g clip-path="url(#1)"><path d="m282.35 269.23v3" stroke-linecap="butt" stroke="#000" fill="none"/></g><g clip-path="url(#1)"><text font-style="italic" font-size="10" x="0" y="0" font-family="serif" transform="translate(339 283)">25</text></g><g clip-path="url(#1)"><path d="m343.4 269.23v3" stroke-linecap="butt" stroke="#000" fill="none"/></g><g clip-path="url(#1)"><text font-style="italic" font-size="10" x="0" y="0" font-family="serif" transform="translate(400 283)">30</text></g><g clip-path="url(#1)"><path d="m404.44 269.23v3" stroke-linecap="butt" stroke="#000" fill="none"/></g><g clip-path="url(#1)"><path d="m35.17 293.65h3" stroke-linecap="butt" stroke="#000" fill="none"/></g><g clip-path="url(#1)"><text font-style="italic" font-size="10" x="0" y="0" font-family="serif" transform="translate(26 267)">0</text></g><g clip-path="url(#1)"><text font-style="italic" font-size="10" x="0" y="0" font-family="serif" transform="translate(21 248)">10</text></g><g clip-path="url(#1)"><path d="m35.17 244.82h3" stroke-linecap="butt" stroke="#000" fill="none"/></g><g clip-path="url(#1)"><text font-style="italic" font-size="10" x="0" y="0" font-family="serif" transform="translate(21 224)">20</text></g><g clip-path="url(#1)"><path d="m35.17 220.4h3" stroke-linecap="butt" stroke="#000" fill="none"/></g><g clip-path="url(#1)"><text font-style="italic" font-size="10" x="0" y="0" font-family="serif" transform="translate(21 199)">30</text></g><g clip-path="url(#1)"><path d="m35.17 195.98h3" stroke-linecap="butt" stroke="#000" fill="none"/></g><g clip-path="url(#1)"><text font-style="italic" font-size="10" x="0" y="0" font-family="serif" transform="translate(21 175)">40</text></g><g clip-path="url(#1)"><path d="m35.17 171.56h3" stroke-linecap="butt" stroke="#000" fill="none"/></g><g clip-path="url(#1)"><text font-style="italic" font-size="10" x="0" y="0" font-family="serif" transform="translate(21 151)">50</text></g><g clip-path="url(#1)"><path d="m35.17 147.14h3" stroke-linecap="butt" stroke="#000" fill="none"/></g><g clip-path="url(#1)"><text font-style="italic" font-size="10" x="0" y="0" font-family="serif" transform="translate(21 126)">60</text></g><g clip-path="url(#1)"><path d="m35.17 122.72h3" stroke-linecap="butt" stroke="#000" fill="none"/></g><g clip-path="url(#1)"><text font-style="italic" font-size="10" x="0" y="0" font-family="serif" transform="translate(21 102)">70</text></g><g clip-path="url(#1)"><path d="m35.17 98.31h3" stroke-linecap="butt" stroke="#000" fill="none"/></g><g clip-path="url(#1)"><text font-style="italic" font-size="10" x="0" y="0" font-family="serif" transform="translate(21 77)">80</text></g><g clip-path="url(#1)"><path d="m35.17 73.888h3" stroke-linecap="butt" stroke="#000" fill="none"/></g><g clip-path="url(#1)"><text font-style="italic" font-size="10" x="0" y="0" font-family="serif" transform="translate(21 53)">90</text></g><g clip-path="url(#1)"><path d="m35.17 49.47h3" stroke-linecap="butt" stroke="#000" fill="none"/></g><g clip-path="url(#1)"><text font-style="italic" font-size="10" x="0" y="0" font-family="serif" transform="translate(15 29)">100</text></g><g clip-path="url(#1)"><path d="m35.17 25.05h3" stroke-linecap="butt" stroke="#000" fill="none"/></g><g clip-path="url(#1)"><path d="m99.21 0v269.23" stroke-linejoin="round" stroke-linecap="round" stroke="#c0c0c0" fill="none"/></g><g clip-path="url(#1)"><path d="m99.21 288.23v8.77" stroke-linejoin="round" stroke-linecap="round" stroke="#c0c0c0" fill="none"/></g><g clip-path="url(#1)"><path d="m160.26 0v269.23" stroke-linejoin="round" stroke-linecap="round" stroke="#c0c0c0" fill="none"/></g><g clip-path="url(#1)"><path d="m160.26 288.23v8.77" stroke-linejoin="round" stroke-linecap="round" stroke="#c0c0c0" fill="none"/></g><g clip-path="url(#1)"><path d="m221.3 0v269.23" stroke-linejoin="round" stroke-linecap="round" stroke="#c0c0c0" fill="none"/></g><g clip-path="url(#1)"><path d="m221.3 288.23v8.77" stroke-linejoin="round" stroke-linecap="round" stroke="#c0c0c0" fill="none"/></g><g clip-path="url(#1)"><path d="m282.35 0v269.23" stroke-linejoin="round" stroke-linecap="round" stroke="#c0c0c0" fill="none"/></g><g clip-path="url(#1)"><path d="m282.35 288.23v8.77" stroke-linejoin="round" stroke-linecap="round" stroke="#c0c0c0" fill="none"/></g><g clip-path="url(#1)"><path d="m343.4 0v269.23" stroke-linejoin="round" stroke-linecap="round" stroke="#c0c0c0" fill="none"/></g><g clip-path="url(#1)"><path d="m343.4 288.23v8.77" stroke-linejoin="round" stroke-linecap="round" stroke="#c0c0c0" fill="none"/></g><g clip-path="url(#1)"><path d="m404.44 0v269.23" stroke-linejoin="round" stroke-linecap="round" stroke="#c0c0c0" fill="none"/></g><g clip-path="url(#1)"><path d="m404.44 288.23v8.77" stroke-linejoin="round" stroke-linecap="round" stroke="#c0c0c0" fill="none"/></g><g clip-path="url(#1)"><path d="m0 .634h447" stroke-linejoin="round" stroke-linecap="round" stroke="#c0c0c0" fill="none" id="2"/></g><g clip-path="url(#1)"><use xlink:href="#2"/></g><g clip-path="url(#1)"><path d="m0 12.843h447" stroke-linejoin="round" stroke-linecap="round" stroke="#c0c0c0" fill="none"/></g><g clip-path="url(#1)"><path d="m0 25.05h11.483" stroke-linejoin="round" stroke-linecap="round" stroke="#c0c0c0" fill="none"/></g><g clip-path="url(#1)"><path d="m38.17 25.05h408.83" stroke-linejoin="round" stroke-linecap="round" stroke="#c0c0c0" fill="none"/></g><g clip-path="url(#1)"><path d="m0 37.26h447" stroke-linejoin="round" stroke-linecap="round" stroke="#c0c0c0" fill="none"/></g><g clip-path="url(#1)"><path d="m0 49.47h11.483" stroke-linejoin="round" stroke-linecap="round" stroke="#c0c0c0" fill="none"/></g><g clip-path="url(#1)"><path d="m38.17 49.47h408.83" stroke-linejoin="round" stroke-linecap="round" stroke="#c0c0c0" fill="none"/></g><g clip-path="url(#1)"><path d="m0 61.679h447" stroke-linejoin="round" stroke-linecap="round" stroke="#c0c0c0" fill="none"/></g><g clip-path="url(#1)"><path d="m0 73.888h11.483" stroke-linejoin="round" stroke-linecap="round" stroke="#c0c0c0" fill="none"/></g><g clip-path="url(#1)"><path d="m38.17 73.888h408.83" stroke-linejoin="round" stroke-linecap="round" stroke="#c0c0c0" fill="none"/></g><g clip-path="url(#1)"><path d="m0 86.1h447" stroke-linejoin="round" stroke-linecap="round" stroke="#c0c0c0" fill="none"/></g><g clip-path="url(#1)"><path d="m0 98.31h11.483" stroke-linejoin="round" stroke-linecap="round" stroke="#c0c0c0" fill="none"/></g><g clip-path="url(#1)"><path d="m38.17 98.31h408.83" stroke-linejoin="round" stroke-linecap="round" stroke="#c0c0c0" fill="none"/></g><g clip-path="url(#1)"><path d="m0 110.52h447" stroke-linejoin="round" stroke-linecap="round" stroke="#c0c0c0" fill="none"/></g><g clip-path="url(#1)"><path d="m0 122.72h11.483" stroke-linejoin="round" stroke-linecap="round" stroke="#c0c0c0" fill="none"/></g><g clip-path="url(#1)"><path d="m38.17 122.72h408.83" stroke-linejoin="round" stroke-linecap="round" stroke="#c0c0c0" fill="none"/></g><g clip-path="url(#1)"><path d="m0 134.93h447" stroke-linejoin="round" stroke-linecap="round" stroke="#c0c0c0" fill="none"/></g><g clip-path="url(#1)"><path d="m0 147.14h11.483" stroke-linejoin="round" stroke-linecap="round" stroke="#c0c0c0" fill="none"/></g><g clip-path="url(#1)"><path d="m38.17 147.14h408.83" stroke-linejoin="round" stroke-linecap="round" stroke="#c0c0c0" fill="none"/></g><g clip-path="url(#1)"><path d="m0 159.35h447" stroke-linejoin="round" stroke-linecap="round" stroke="#c0c0c0" fill="none"/></g><g clip-path="url(#1)"><path d="m0 171.56h11.483" stroke-linejoin="round" stroke-linecap="round" stroke="#c0c0c0" fill="none"/></g><g clip-path="url(#1)"><path d="m38.17 171.56h408.83" stroke-linejoin="round" stroke-linecap="round" stroke="#c0c0c0" fill="none"/></g><g clip-path="url(#1)"><path d="m0 183.77h447" stroke-linejoin="round" stroke-linecap="round" stroke="#c0c0c0" fill="none"/></g><g clip-path="url(#1)"><path d="m0 195.98h11.483" stroke-linejoin="round" stroke-linecap="round" stroke="#c0c0c0" fill="none"/></g><g clip-path="url(#1)"><path d="m38.17 195.98h408.83" stroke-linejoin="round" stroke-linecap="round" stroke="#c0c0c0" fill="none"/></g><g clip-path="url(#1)"><path d="m0 208.19h447" stroke-linejoin="round" stroke-linecap="round" stroke="#c0c0c0" fill="none"/></g><g clip-path="url(#1)"><path d="m0 220.4h11.483" stroke-linejoin="round" stroke-linecap="round" stroke="#c0c0c0" fill="none"/></g><g clip-path="url(#1)"><path d="m38.17 220.4h408.83" stroke-linejoin="round" stroke-linecap="round" stroke="#c0c0c0" fill="none"/></g><g clip-path="url(#1)"><path d="m0 232.61h447" stroke-linejoin="round" stroke-linecap="round" stroke="#c0c0c0" fill="none"/></g><g clip-path="url(#1)"><path d="m0 244.82h11.483" stroke-linejoin="round" stroke-linecap="round" stroke="#c0c0c0" fill="none"/></g><g clip-path="url(#1)"><path d="m38.17 244.82h408.83" stroke-linejoin="round" stroke-linecap="round" stroke="#c0c0c0" fill="none"/></g><g clip-path="url(#1)"><path d="m0 257.02h447" stroke-linejoin="round" stroke-linecap="round" stroke="#c0c0c0" fill="none"/></g><g clip-path="url(#1)"><path d="m0 281.44h447" stroke-linejoin="round" stroke-linecap="round" stroke="#c0c0c0" fill="none"/></g><g clip-path="url(#1)"><path d="m0 293.65h447" stroke-linejoin="round" stroke-linecap="round" stroke="#c0c0c0" fill="none"/></g><g><g clip-path="url(#1)"><path d="m38.17 208.19l.246-.6 3.492-8.21 3.492-7.84 3.493-7.49 3.492-7.16 3.492-6.83 3.492-6.52 3.492-6.23 3.493-5.95 3.492-5.69 3.492-5.42 3.492-5.18 3.492-4.95 3.492-4.73 3.493-4.52 3.492-4.31 3.492-4.11 3.492-3.94 3.489-3.75 3.5-3.59 3.49-3.422 3.49-3.271 3.49-3.123 3.49-2.983 3.5-2.849 3.49-2.721 3.49-2.598 3.49-2.481 3.5-2.37 3.49-2.263 3.49-2.161 3.49-2.064 3.49-1.972 3.5-1.882 3.49-1.798 3.49-1.717 3.49-1.639 3.49-1.566 3.5-1.496 3.49-1.428 3.49-1.364 3.49-1.302 3.5-1.244 3.49-1.188 3.49-1.135 3.49-1.083 3.49-1.035 3.5-.988 3.49-.944 3.49-.901 3.49-.861 3.5-.822 3.49-.785 3.49-.749 3.49-.716 3.49-.684 3.5-.653 3.49-.623 3.49-.596 3.49-.569 3.5-.543 3.49-.519 3.49-.495 3.49-.473 3.49-.452 3.5-.431 3.49-.412 3.49-.394 3.49-.376 3.5-.359 3.49-.342 3.49-.328 3.49-.312 3.49-.299 3.5-.285 3.49-.272 3.49-.26 3.49-.249 3.49-.237 3.5-.226 3.49-.217 3.49-.206 3.49-.198 3.5-.188 3.49-.18 3.49-.172 3.49-.164 3.49-.157 3.5-.149 3.49-.143 3.49-.137 3.49-.13 3.5-.125 3.49-.118 3.49-.114 3.49-.108 3.49-.104 3.5-.099 3.49-.094 3.49-.091 3.49-.086 3.49-.082 3.5-.079 3.49-.075 3.49-.071 3.49-.069 3.5-.065 3.49-.062 3.49-.06 3.49-.057 3.49-.054 3.5-.052 3.49-.05 3.49-.047 3.49-.045 3.5-.044 3.49-.041 3.49-.039" stroke-linejoin="round" stroke-linecap="round" stroke-width="1.5" stroke="#006400" fill="none"/></g><g clip-path="url(#1)"><text font-style="italic" font-size="12" x="0" y="0" font-family="serif" fill="#006400" transform="translate(63 143)">f</text></g><g clip-path="url(#1)"><path d="m38.17 61.679h3.738 3.492 3.493 3.492 3.492 3.492 3.492 3.493 3.492 3.492 3.492 3.492 3.492 3.493 3.492 3.492 3.492 3.489 3.5 3.49 3.49 3.49 3.49 3.5 3.49 3.49 3.49 3.5 3.49 3.49 3.49 3.49 3.5 3.49 3.49 3.49 3.49 3.5 3.49 3.49 3.49 3.5 3.49 3.49 3.49 3.49 3.5 3.49 3.49 3.49 3.5 3.49 3.49 3.49 3.49 3.5 3.49 3.49 3.49 3.5 3.49 3.49 3.49 3.49 3.5 3.49 3.49 3.49 3.5 3.49 3.49 3.49 3.49 3.5 3.49 3.49 3.49 3.49 3.5 3.49 3.49 3.49 3.5 3.49 3.49 3.49 3.49 3.5 3.49 3.49 3.49 3.5 3.49 3.49 3.49 3.49 3.5 3.49 3.49 3.49 3.49 3.5 3.49 3.49 3.49 3.5 3.49 3.49 3.49 3.49 3.5 3.49 3.49 3.49 3.5 3.49 3.49" stroke-linejoin="round" stroke-linecap="round" stroke-width="1.5" stroke="#93f" fill="none"/></g><g clip-path="url(#1)"><text font-style="italic" font-size="12" x="0" y="0" font-family="serif" transform="translate(44 22)">température (en degré Celsius)</text></g><g clip-path="url(#1)"><text font-style="italic" font-size="12" x="0" y="0" font-family="serif" fill="#7f00ff" transform="translate(356 81)">y=85</text></g><g clip-path="url(#1)"><text font-style="italic" font-size="12" x="0" y="0" font-family="serif" transform="translate(323 267)">temps (en minutes)</text></g></g><g transform="matrix(.85905 0 0 1.01545 54.14 121.8)"><g transform="matrix(15 0 0 15 1 14.5)" clip-path="url(#0)"><path d="m.344-.094q0 .016 0 .016-.016.016-.016.016 0 0 0-.016-.031-.016-.031-.039 0-.023.031-.07.031-.047.078-.078.047-.031.078-.031.078 0 .094.063 0 .016 0 .016 0 .063-.047.125-.031.047-.094.078-.063.031-.125.031-.063 0-.102-.031-.039-.031-.039-.078 0 0 0-.016 0-.109.094-.234h-.016q-.141 0-.203-.063-.016-.031-.016-.078 0-.031.031-.078.031-.047.094-.078.078-.031.141-.031.016 0 .016 0 0 0-.016.016-.063 0-.109.031-.047.031-.078.063-.031.047-.031.094 0 .031.016.047.031.047.156.047.016 0 .031 0 .094-.141.234-.234.141-.109.219-.109.063 0 .078.063 0 .047-.031.094-.063.094-.219.156-.094.031-.203.047-.125.172-.125.266 0 .047.023.07.023.023.07.023.031 0 .078-.031.047-.031.078-.078.047-.078.047-.109v-.016q0-.031-.047-.031-.031 0-.063.023-.031.023-.063.07-.031.031-.031.047 0 .031.016.031m0 .016q0 0 0 0m.391-.609q-.063 0-.172.094-.078.078-.188.203.094 0 .172-.031.141-.063.203-.141.031-.047.031-.094 0-.031-.047-.031" fill="#060"/></g></g></g></svg>