<svg xmlns="http://www.w3.org/2000/svg" width="1433.57" height="505.75" viewBox="0 0 393 138" xmlns:xlink="http://www.w3.org/1999/xlink"><defs><clipPath id="6"><path d="m-5.467-2.244v9.267h26.27v-9.267z"/></clipPath><clipPath id="A"><path d="m-5.644-7.656v9.267h26.27v-9.267z"/></clipPath><clipPath id="7"><path d="m-22.867-4.578v9.267h26.27v-9.267z"/></clipPath><clipPath id="9"><path d="m-4.867-7.656v9.267h26.27v-9.267z"/></clipPath><clipPath id="8"><path d="m-22.867-2.244v9.267h26.27v-9.267z"/></clipPath><clipPath id="5"><path d="m-3.783-5.683v9.267h26.27v-9.267z"/></clipPath><clipPath id="0"><path d="m0 0v139h394v-139z"/></clipPath><clipPath id="4"><path d="m-3.212-5.683v9.267h26.27v-9.267z"/></clipPath><clipPath id="1"><path d="m-2.867-2.297v9.267h26.27v-9.267z"/></clipPath><clipPath id="3"><path d="m-2.823-5.683v9.267h26.27v-9.267z"/></clipPath><clipPath id="2"><path d="m-2.333-5.683v9.267h26.27v-9.267z"/></clipPath></defs><g stroke-miterlimit="10" stroke-linecap="square"><g clip-path="url(#0)"><path d="m24.2 17.955h340.85" stroke-linejoin="round" stroke-linecap="round" fill="none" stroke="#000"/></g><g clip-path="url(#0)"><path d="m364.31 121.54h-340.84" stroke-linejoin="round" stroke-linecap="round" fill="none" stroke="#000"/></g><g clip-path="url(#0)"><path d="m23.468 121.54l.736-103.59" stroke-linejoin="round" stroke-linecap="round" fill="none" stroke="#000"/></g><g clip-path="url(#0)"><path d="m365.05 17.955l-.74 103.59" stroke-linejoin="round" stroke-linecap="round" fill="none" stroke="#000"/></g><g clip-path="url(#0)"><path d="m24.05 40.15h340.84" stroke-linejoin="round" stroke-linecap="round" fill="none" stroke="#000"/></g><g clip-path="url(#0)"><path d="m72.849 17.955l-.736 103.59" stroke-linejoin="round" stroke-linecap="round" fill="none" stroke="#000"/></g><g clip-path="url(#0)"><path d="m106.91 106.83l209.97-38.611" stroke-linejoin="round" stroke-linecap="round" fill="none" stroke="#000"/></g><g clip-path="url(#0)"><path d="m330.65 65.69l-13.14 5.975-1.26-6.885z" fill-rule="evenodd"/></g><g clip-path="url(#1)" transform="matrix(15 0 0 15 43 34.458)"><path d="m.328-.297l-.031.125q-.016.078-.016.094 0 .047.031.063.016 0 .031 0 .047 0 .078-.047.031-.031.047-.078 0-.016.016-.016.016 0 .016.016 0 .016-.031.062-.063.094-.125.094-.078 0-.109-.063 0-.016 0-.016-.031.047-.078.063-.016.016-.031.016-.063 0-.094-.047 0 0 0-.031 0-.031.031-.047.016 0 .016 0 .031 0 .047.016 0 .016 0 .016 0 .031-.031.047-.016 0-.016 0 .016.016.047.016.047 0 .078-.063.016-.016.016-.031.047-.203.047-.25 0-.063-.047-.063-.047 0-.094.063 0 0 0 0-.016.016-.031.047 0 0 0 .016l-.016.016q0 0 0 0-.016 0-.016 0 0-.031.031-.078.047-.078.125-.078.078 0 .109.078.031-.063.078-.078.016 0 .031 0 .063 0 .078.031.016.016.016.031 0 .047-.047.047 0 .016-.016.016-.031 0-.031-.031 0 0 0-.016 0-.031.031-.047 0 0 .016 0-.016-.016-.047-.016-.078 0-.094.109-.016 0-.016.016" id="B"/></g><g clip-path="url(#2)" transform="matrix(15 0 0 15 35 85.25)"><path d="m.359-.406l-.047.328q-.016.063-.047.141 0 .031-.016.047-.031.078-.094.094 0 0-.016 0-.047 0-.078-.031-.016-.016-.016-.031 0-.047.047-.062 0 0 .016 0 .031 0 .031.016 0 .016 0 .016 0 .031-.031.047 0 0-.016.016.016.016.047.016.047 0 .063-.109.016-.016.016-.047v-.031l.078-.406h-.062q-.031 0-.031 0 0-.016.016-.031h.016.078q.016-.125.031-.156.031-.094.094-.109.016 0 .031 0 .047 0 .078.031 0 .016 0 .031 0 .047-.031.063 0 0-.016 0-.031 0-.031-.016-.016-.016-.016-.016 0-.031.031-.047.016 0 .031-.016-.016-.016-.047-.016-.031 0-.047.031-.016.016-.031.109l-.016.109h.078q.031 0 .031.016 0 .016-.016.016h-.016-.094"/></g><g clip-path="url(#3)" transform="matrix(15 0 0 15 42.34 85.25)"><path d="m.328.234q0 .016 0 .016-.016 0-.063-.047-.063-.063-.094-.141-.078-.141-.078-.313 0-.172.063-.313.063-.109.141-.172.016-.016.031-.016 0 0 0 .016 0 0-.016.016-.156.156-.156.469 0 .313.156.469.016.016.016.016"/></g><g clip-path="url(#4)" transform="matrix(15 0 0 15 48.18 85.25)"><use xlink:href="#B"/></g><g clip-path="url(#5)" transform="matrix(15 0 0 15 56.75 85.25)"><path d="m.281-.25q0 .172-.063.313-.047.109-.125.172-.016.016-.031.016 0 0 0-.016 0 0 0-.016.172-.156.172-.469 0-.313-.156-.469-.016-.016-.016-.016 0-.016 0-.016.016 0 .063.047.063.063.094.141.063.141.063.313"/></g><g clip-path="url(#6)" transform="matrix(15 0 0 15 82 33.667)"><path d="m.453-.313q0 .141-.031.219-.063.109-.172.109-.094 0-.141-.063-.016-.016-.031-.031-.047-.078-.047-.234 0-.156.047-.234.047-.109.156-.125h.016q.094 0 .141.078.016.016.031.047.031.078.031.234m-.203.313q.063 0 .094-.063.016-.031.016-.063.016-.063.016-.203 0-.141-.016-.203-.016-.094-.078-.109-.016 0-.031 0-.078 0-.109.063 0 .031-.016.063 0 .047 0 .187 0 .141.016.203.016.094.078.125.016 0 .031 0"/></g><g clip-path="url(#7)" transform="matrix(15 0 0 15 343 68.67)"><path d="m.297-.641v.562q0 .031.016.031.016.016.078.016h.031v.031q-.031 0-.172 0-.125 0-.156 0v-.031h.031q.078 0 .094-.016 0-.016 0-.031v-.516q-.047.016-.125.016v-.031q.109 0 .172-.063.031 0 .031.016 0 0 0 .016"/></g><g clip-path="url(#8)" transform="matrix(15 0 0 15 343 33.667)"><path d="m.031-.172v-.031l.297-.469q.016 0 .031 0 .016 0 .016 0v.016.453h.094v.031h-.094v.094q0 .031.016.031 0 .016.063.016h.016v.031q-.047 0-.141 0-.094 0-.125 0v-.031h.016q.063 0 .078-.016 0-.016 0-.031v-.094h-.266m.266-.031v-.359l-.234.359h.234"/></g><g clip-path="url(#9)" transform="matrix(15 0 0 15 73 114.83)"><path d="m.656-.234h-.547q-.031 0-.031-.016 0-.016.031-.016h.547q.031 0 .031.016 0 .016-.031.016"/></g><g clip-path="url(#A)" transform="matrix(15 0 0 15 84.67 114.83)"><path d="m.094-.516l-.031-.047q.031-.063.078-.086.047-.023.109-.023.078 0 .133.039.055.039.055.102 0 .063-.031.102-.031.039-.094.07.063.016.102.063.039.047.039.109 0 .094-.055.148-.055.055-.148.055-.125 0-.203-.094v-.062q.031.047.086.078.055.031.117.031.047 0 .086-.047.039-.047.039-.109 0-.016-.008-.039-.008-.023-.023-.047-.016-.023-.039-.039-.023-.016-.07-.016h-.063v-.063q.063 0 .078 0 .047-.016.07-.055.023-.039.023-.086 0-.047-.031-.07-.031-.023-.063-.023-.047 0-.094.031-.047.031-.063.078"/></g></g></svg>