<svg xmlns="http://www.w3.org/2000/svg" width="503.86" height="283.42" viewBox="0 0 447 251"><defs><clipPath id="0"><path d="m0 0v252h448v-252z"/></clipPath></defs><g stroke-miterlimit="10" stroke-linecap="square"><g><g clip-path="url(#0)"><path d="m29.25 221.51h378.06" stroke-linejoin="round" stroke-linecap="round" fill="none" stroke="#000"/></g><g clip-path="url(#0)"><path d="m407.31 221.51v-189.03" stroke-linejoin="round" stroke-linecap="round" fill="none" stroke="#000"/></g><g clip-path="url(#0)"><path d="m407.31 32.48h-378.06" stroke-linejoin="round" stroke-linecap="round" fill="none" stroke="#000"/></g><g clip-path="url(#0)"><path d="m29.25 32.48v189.03" stroke-linejoin="round" stroke-linecap="round" fill="none" stroke="#000"/></g><g clip-path="url(#0)"><path d="m29.25 221.51l327.41-189.03" stroke-linejoin="round" stroke-linecap="round" fill="none" stroke="#000"/></g><g clip-path="url(#0)"><path d="m356.66 32.48l50.65 189.03" stroke-linejoin="round" stroke-linecap="round" fill="none" stroke="#000"/></g><g clip-path="url(#0)"><path d="m30.25 221.51c0 .55-.448 1-1 1-.552 0-1-.45-1-1 0-.55.448-1 1-1 .552 0 1 .45 1 1" fill="#444"/></g><g clip-path="url(#0)"><path d="m30.25 221.51c0 .55-.448 1-1 1-.552 0-1-.45-1-1 0-.55.448-1 1-1 .552 0 1 .45 1 1z" stroke-linejoin="round" stroke-linecap="round" fill="none" stroke="#000"/></g><g clip-path="url(#0)"><text font-style="italic" font-family="serif" fill="#444" font-size="12" x="0" y="0" transform="translate(18 237)">A</text></g><g clip-path="url(#0)"><path d="m408.31 221.51c0 .55-.45 1-1 1-.55 0-1-.45-1-1 0-.55.45-1 1-1 .55 0 1 .45 1 1" fill="#300"/></g><g clip-path="url(#0)"><path d="m408.31 221.51c0 .55-.45 1-1 1-.55 0-1-.45-1-1 0-.55.45-1 1-1 .55 0 1 .45 1 1z" stroke-linejoin="round" stroke-linecap="round" fill="none" stroke="#000"/></g><g clip-path="url(#0)"><text font-style="italic" font-family="serif" fill="#300" font-size="12" x="0" y="0" transform="translate(411 236)">B</text></g><g clip-path="url(#0)"><path d="m408.31 32.48c0 .552-.45 1-1 1-.55 0-1-.448-1-1 0-.553.45-1 1-1 .55 0 1 .447 1 1" fill="#300"/></g><g clip-path="url(#0)"><path d="m408.31 32.48c0 .552-.45 1-1 1-.55 0-1-.448-1-1 0-.553.45-1 1-1 .55 0 1 .447 1 1z" stroke-linejoin="round" stroke-linecap="round" fill="none" stroke="#000"/></g><g clip-path="url(#0)"><text font-style="italic" font-family="serif" fill="#300" font-size="12" x="0" y="0" transform="translate(411 30)">C</text></g><g clip-path="url(#0)"><path d="m30.25 32.48c0 .552-.448 1-1 1-.552 0-1-.448-1-1 0-.553.448-1 1-1 .552 0 1 .447 1 1" fill="#300"/></g><g clip-path="url(#0)"><path d="m30.25 32.48c0 .552-.448 1-1 1-.552 0-1-.448-1-1 0-.553.448-1 1-1 .552 0 1 .447 1 1z" stroke-linejoin="round" stroke-linecap="round" fill="none" stroke="#000"/></g><g clip-path="url(#0)"><text font-style="italic" font-family="serif" fill="#300" font-size="12" x="0" y="0" transform="translate(16 26)">D</text></g><g clip-path="url(#0)"><path d="m357.66 32.48c0 .552-.45 1-1 1-.55 0-1-.448-1-1 0-.553.45-1 1-1 .55 0 1 .447 1 1" fill="#444"/></g><g clip-path="url(#0)"><path d="m357.66 32.48c0 .552-.45 1-1 1-.55 0-1-.448-1-1 0-.553.45-1 1-1 .55 0 1 .447 1 1z" stroke-linejoin="round" stroke-linecap="round" fill="none" stroke="#000"/></g><g clip-path="url(#0)"><text font-style="italic" font-family="serif" fill="#444" font-size="12" x="0" y="0" transform="translate(361 30)">E</text></g></g></g></svg>