<svg xmlns="http://www.w3.org/2000/svg" viewBox="0 0 338 334" xmlns:xlink="http://www.w3.org/1999/xlink"><defs><clipPath id="0"><path d="m0 0v335h339v-335z"/></clipPath><clipPath id="1"><path d="m-17.13-1.617v22.334h22.6v-22.334z"/></clipPath><clipPath id="2"><path d="m-25.497-2.524v31.905h32.29v-31.905z"/></clipPath></defs><g stroke-miterlimit="10" stroke-linecap="square"><g clip-path="url(#0)"><path d="m137.11 2v333" stroke-linecap="butt" fill="none" stroke="#000"/></g><g clip-path="url(#0)"><path d="m137.11 1l-3 3" stroke-linecap="butt" fill="none" stroke="#000"/></g><g clip-path="url(#0)"><path d="m137.11 1l3 3" stroke-linecap="butt" fill="none" stroke="#000"/></g><g clip-path="url(#0)"><path d="m0 245.72h337" stroke-linecap="butt" fill="none" stroke="#000"/></g><g clip-path="url(#0)"><path d="m338 245.72l-3-3" stroke-linecap="butt" fill="none" stroke="#000"/></g><g clip-path="url(#0)"><path d="m338 245.72l-3 3" stroke-linecap="butt" fill="none" stroke="#000"/></g><g clip-path="url(#0)"><text font-style="italic" font-family="Times" font-size="10" x="0" y="0" transform="translate(31 259)">–2</text></g><g clip-path="url(#0)"><path d="m35.627 245.72v3" stroke-linecap="butt" fill="none" stroke="#000"/></g><g clip-path="url(#0)"><text font-style="italic" font-family="Times" font-size="10" x="0" y="0" transform="translate(82 259)">–1</text></g><g clip-path="url(#0)"><path d="m86.37 245.72v3" stroke-linecap="butt" fill="none" stroke="#000"/></g><g clip-path="url(#0)"><text font-style="italic" font-family="Times" font-size="10" x="0" y="0" transform="translate(143 259)">0</text></g><g clip-path="url(#0)"><text font-style="italic" font-family="Times" font-size="10" x="0" y="0" transform="translate(186 259)">1</text></g><g clip-path="url(#0)"><path d="m187.84 245.72v3" stroke-linecap="butt" fill="none" stroke="#000"/></g><g clip-path="url(#0)"><text font-style="italic" font-family="Times" font-size="10" x="0" y="0" transform="translate(237 259)">2</text></g><g clip-path="url(#0)"><path d="m238.58 245.72v3" stroke-linecap="butt" fill="none" stroke="#000"/></g><g clip-path="url(#0)"><text font-style="italic" font-family="Times" font-size="10" x="0" y="0" transform="translate(287 259)">3</text></g><g clip-path="url(#0)"><path d="m289.32 245.72v3" stroke-linecap="butt" fill="none" stroke="#000"/></g><g clip-path="url(#0)"><text font-style="italic" font-family="Times" font-size="10" x="0" y="0" transform="translate(120 300)">–1</text></g><g clip-path="url(#0)"><path d="m134.11 296.46h3" stroke-linecap="butt" fill="none" stroke="#000"/></g><g clip-path="url(#0)"><text font-style="italic" font-family="Times" font-size="10" x="0" y="0" transform="translate(125 243)">0</text></g><g clip-path="url(#0)"><text font-style="italic" font-family="Times" font-size="10" x="0" y="0" transform="translate(125 198)">1</text></g><g clip-path="url(#0)"><path d="m134.11 194.98h3" stroke-linecap="butt" fill="none" stroke="#000"/></g><g clip-path="url(#0)"><text font-style="italic" font-family="Times" font-size="10" x="0" y="0" transform="translate(125 148)">2</text></g><g clip-path="url(#0)"><path d="m134.11 144.25h3" stroke-linecap="butt" fill="none" stroke="#000"/></g><g clip-path="url(#0)"><text font-style="italic" font-family="Times" font-size="10" x="0" y="0" transform="translate(125 97)">3</text></g><g clip-path="url(#0)"><path d="m134.11 93.51h3" stroke-linecap="butt" fill="none" stroke="#000"/></g><g clip-path="url(#0)"><text font-style="italic" font-family="Times" font-size="10" x="0" y="0" transform="translate(125 46)">4</text></g><g clip-path="url(#0)"><path d="m134.11 42.767h3" stroke-linecap="butt" fill="none" stroke="#000"/></g><g clip-path="url(#0)"><path d="m35.627 0v245.72" stroke-linejoin="round" stroke-linecap="round" fill="none" stroke="#c0c0c0" id="3"/></g><g clip-path="url(#0)"><path d="m35.627 264.72v70.28" stroke-linejoin="round" stroke-linecap="round" fill="none" stroke="#c0c0c0" id="4"/></g><g clip-path="url(#0)"><use xlink:href="#3"/></g><g clip-path="url(#0)"><use xlink:href="#4"/></g><g clip-path="url(#0)"><path d="m86.37 0v245.72" stroke-linejoin="round" stroke-linecap="round" fill="none" stroke="#c0c0c0"/></g><g clip-path="url(#0)"><path d="m86.37 264.72v70.28" stroke-linejoin="round" stroke-linecap="round" fill="none" stroke="#c0c0c0"/></g><g clip-path="url(#0)"><path d="m187.84 0v245.72" stroke-linejoin="round" stroke-linecap="round" fill="none" stroke="#c0c0c0"/></g><g clip-path="url(#0)"><path d="m187.84 264.72v70.28" stroke-linejoin="round" stroke-linecap="round" fill="none" stroke="#c0c0c0"/></g><g clip-path="url(#0)"><path d="m238.58 0v245.72" stroke-linejoin="round" stroke-linecap="round" fill="none" stroke="#c0c0c0"/></g><g clip-path="url(#0)"><path d="m238.58 264.72v70.28" stroke-linejoin="round" stroke-linecap="round" fill="none" stroke="#c0c0c0"/></g><g clip-path="url(#0)"><path d="m289.32 0v245.72" stroke-linejoin="round" stroke-linecap="round" fill="none" stroke="#c0c0c0"/></g><g clip-path="url(#0)"><path d="m289.32 264.72v70.28" stroke-linejoin="round" stroke-linecap="round" fill="none" stroke="#c0c0c0"/></g><g clip-path="url(#0)"><path d="m0 42.767h121.54" stroke-linejoin="round" stroke-linecap="round" fill="none" stroke="#c0c0c0" id="5"/></g><g clip-path="url(#0)"><path d="m137.11 42.767h201.89" stroke-linejoin="round" stroke-linecap="round" fill="none" stroke="#c0c0c0" id="6"/></g><g clip-path="url(#0)"><use xlink:href="#5"/></g><g clip-path="url(#0)"><use xlink:href="#6"/></g><g clip-path="url(#0)"><path d="m0 93.51h121.54" stroke-linejoin="round" stroke-linecap="round" fill="none" stroke="#c0c0c0"/></g><g clip-path="url(#0)"><path d="m137.11 93.51h201.89" stroke-linejoin="round" stroke-linecap="round" fill="none" stroke="#c0c0c0"/></g><g clip-path="url(#0)"><path d="m0 144.25h121.54" stroke-linejoin="round" stroke-linecap="round" fill="none" stroke="#c0c0c0"/></g><g clip-path="url(#0)"><path d="m137.11 144.25h201.89" stroke-linejoin="round" stroke-linecap="round" fill="none" stroke="#c0c0c0"/></g><g clip-path="url(#0)"><path d="m0 194.98h121.54" stroke-linejoin="round" stroke-linecap="round" fill="none" stroke="#c0c0c0"/></g><g clip-path="url(#0)"><path d="m137.11 194.98h201.89" stroke-linejoin="round" stroke-linecap="round" fill="none" stroke="#c0c0c0"/></g><g clip-path="url(#0)"><path d="m0 296.46h116.54" stroke-linejoin="round" stroke-linecap="round" fill="none" stroke="#c0c0c0"/></g><g clip-path="url(#0)"><path d="m137.11 296.46h201.89" stroke-linejoin="round" stroke-linecap="round" fill="none" stroke="#c0c0c0"/></g><g><g clip-path="url(#0)"><path d="m87.4 345.14l2.649-5.3 2.648-5.3 2.649-5.29 2.648-5.3 2.648-5.3 2.65-5.29 2.65-5.3 2.65-5.3 2.64-5.29 2.65-5.3 2.65-5.3 2.65-5.3 2.65-5.29 2.65-5.3 2.64-5.3 2.65-5.29 2.65-5.3 2.65-5.3 2.65-5.29 2.65-5.3 2.65-5.3 2.64-5.29 2.65-5.3 2.65-5.3 2.65-5.29 2.65-5.3 2.65-5.3 2.64-5.3 2.65-5.29 2.65-5.3 2.65-5.3 2.65-5.29 2.65-5.3 2.65-5.3 2.64-5.29 2.65-5.3 2.65-5.3 2.65-5.29 2.65-5.3 2.65-5.3 2.64-5.29 2.65-5.3 2.65-5.3 2.65-5.3 2.65-5.29 2.65-5.3 2.65-5.296 2.64-5.297 2.65-5.296 2.65-5.297 2.65-5.297 2.65-5.297 2.65-5.297 2.64-5.297 2.65-5.297 2.65-5.297 2.65-5.296 2.65-5.297 2.65-5.297 2.64-5.297 2.65-5.297 2.65-5.297 2.65-5.297 2.65-5.297 2.65-5.297 2.65-5.297 2.64-5.297" stroke-linejoin="round" stroke-width="1.5" stroke-linecap="round" fill="none" stroke="#00c"/></g><g clip-path="url(#0)"><path d="m188.84 144.25c0 .55-.44 1-1 1-.55 0-1-.45-1-1 0-.56.45-1 1-1 .56 0 1 .44 1 1" fill="#f00"/></g><g clip-path="url(#0)"><path d="m188.84 144.25c0 .55-.44 1-1 1-.55 0-1-.45-1-1 0-.56.45-1 1-1 .56 0 1 .44 1 1z" stroke-linejoin="round" stroke-linecap="round" fill="none" stroke="#000"/></g><g clip-path="url(#0)"><text font-style="italic" font-family="Times" fill="#f00" font-size="12" x="0" y="0" transform="translate(178 139)">A</text></g><g clip-path="url(#0)"><path d="m138.11 245.72c0 .56-.45 1-1 1-.56 0-1-.44-1-1 0-.55.44-1 1-1 .55 0 1 .45 1 1" fill="#f00"/></g><g clip-path="url(#0)"><path d="m138.11 245.72c0 .56-.45 1-1 1-.56 0-1-.44-1-1 0-.55.44-1 1-1 .55 0 1 .45 1 1z" stroke-linejoin="round" stroke-linecap="round" fill="none" stroke="#000"/></g><g clip-path="url(#0)"><text font-style="italic" font-family="Times" fill="#f00" font-size="12" x="0" y="0" transform="translate(118 260)">O</text></g><g clip-path="url(#1)" transform="matrix(15 0 0 15 257 24.25)"><text font-style="italic" font-family="KaTeX_Script" fill="#00c" font-size="1" x="0" y="0">C</text></g><g clip-path="url(#2)" transform="matrix(10.5 0 0 10.5 267.72 26.5)"><text font-style="italic" font-family="KaTeX_Script" fill="#00c" font-size="1" x="0" y="0">f</text></g></g></g></svg>