<svg xmlns="http://www.w3.org/2000/svg" width="167.93" height="126.88" viewBox="0 0 314 236"><defs><clipPath id="0"><path d="m0 0v238h315v-238z"/></clipPath></defs><g stroke-miterlimit="10" stroke-linecap="square"><g><g clip-path="url(#0)"><path d="m19.68 153.34h132.93v66.47h-132.93z" fill-rule="evenodd" fill="#cfc"/></g><g clip-path="url(#0)"><path d="m86.14 86.88v66.46h132.93v-66.46z" fill-rule="evenodd" fill="#cfc"/></g><g clip-path="url(#0)"><path d="m152.61 20.417v66.46h132.92v-66.46z" fill-rule="evenodd" fill="#cfc"/></g><g clip-path="url(#0)"><path d="m86.14 86.88h66.857l-.39 66.46h-66.47z" fill-rule="evenodd" fill="#ff6"/></g><g clip-path="url(#0)"><path d="m152.61 20.417h66.46v66.46h-66.07z" fill-rule="evenodd" fill="#ff6"/></g><g clip-path="url(#0)"><path d="m19.68 153.34h132.93" stroke-linejoin="round" stroke-linecap="round" fill="none" stroke="#cfc"/></g><g clip-path="url(#0)"><path d="m152.61 153.34v66.47" stroke-linejoin="round" stroke-linecap="round" fill="none" stroke="#cfc"/></g><g clip-path="url(#0)"><path d="m152.61 219.81h-132.93" stroke-linejoin="round" stroke-linecap="round" fill="none" stroke="#cfc"/></g><g clip-path="url(#0)"><path d="m19.68 219.81v-66.47" stroke-linejoin="round" stroke-linecap="round" fill="none" stroke="#cfc"/></g><g clip-path="url(#0)"><path d="m86.14 86.88v66.46" stroke-linejoin="round" stroke-linecap="round" fill="none" stroke="#cfc"/></g><g clip-path="url(#0)"><path d="m86.14 153.34h132.93" stroke-linejoin="round" stroke-linecap="round" fill="none" stroke="#cfc"/></g><g clip-path="url(#0)"><path d="m219.07 153.34v-66.46" stroke-linejoin="round" stroke-linecap="round" fill="none" stroke="#cfc"/></g><g clip-path="url(#0)"><path d="m219.07 86.88h-132.93" stroke-linejoin="round" stroke-linecap="round" fill="none" stroke="#cfc"/></g><g clip-path="url(#0)"><path d="m19.68 20.417h265.85" stroke-linejoin="round" stroke-linecap="round" fill="none" stroke="#000"/></g><g clip-path="url(#0)"><path d="m285.53 219.81h-265.85" stroke-linejoin="round" stroke-linecap="round" fill="none" stroke="#000"/></g><g clip-path="url(#0)"><path d="m19.68 219.81v-199.39" stroke-linejoin="round" stroke-linecap="round" fill="none" stroke="#000"/></g><g clip-path="url(#0)"><path d="m19.68 86.88h265.85" stroke-linejoin="round" stroke-linecap="round" fill="none" stroke="#000"/></g><g clip-path="url(#0)"><path d="m19.68 153.34h265.85" stroke-linejoin="round" stroke-linecap="round" fill="none" stroke="#000"/></g><g clip-path="url(#0)"><path d="m86.14 219.81v-199.39" stroke-linejoin="round" stroke-linecap="round" fill="none" stroke="#000"/></g><g clip-path="url(#0)"><path d="m152.61 219.81v-199.39" stroke-linejoin="round" stroke-linecap="round" fill="none" stroke="#000"/></g><g clip-path="url(#0)"><path d="m219.07 219.81v-199.39" stroke-linejoin="round" stroke-linecap="round" fill="none" stroke="#000"/></g><g clip-path="url(#0)"><path d="m285.53 219.81v-199.39" stroke-linejoin="round" stroke-linecap="round" fill="none" stroke="#000"/></g><g clip-path="url(#0)"><path d="m19.68 219.81l265.85-199.39" stroke-linejoin="round" stroke-width="3" stroke-linecap="round" fill="none" stroke-opacity=".392" stroke="#006400"/></g><g clip-path="url(#0)"><path d="m19.68 219.81l265.85-199.39" stroke-linejoin="round" stroke-linecap="round" fill="none" stroke="#006400"/></g></g></g></svg>