<svg xmlns="http://www.w3.org/2000/svg" width="298.08" height="225.21" viewBox="0 0 314 237"><defs><clipPath id="0"><path d="m0 0v238h315v-238z"/></clipPath></defs><g stroke-miterlimit="10" stroke-linecap="square"><g><g clip-path="url(#0)"><path d="m9.584 191.99h74.889v37.44h-74.889z" fill-rule="evenodd" fill="#cfc"/></g><g clip-path="url(#0)"><path d="m47.03 154.54v37.45h74.892v-37.45z" fill-rule="evenodd" fill="#cfc"/></g><g clip-path="url(#0)"><path d="m84.47 117.1v37.44h74.887v-37.44z" fill-rule="evenodd" fill="#cfc"/></g><g clip-path="url(#0)"><path d="m159.36 79.65v37.447h74.89v-37.447z" fill-rule="evenodd" fill="#cfc"/></g><g clip-path="url(#0)"><path d="m196.81 79.65v-37.444h74.89v37.444z" fill-rule="evenodd" fill="#cfc"/></g><g clip-path="url(#0)"><path d="m234.25 42.21v-37.445h74.89v37.445z" fill-rule="evenodd" fill="#cfc"/></g><g clip-path="url(#0)"><path d="m9.584 229.43h149.78v-112.33h-149.78z" fill-opacity=".047" fill-rule="evenodd" fill="#00f"/></g><g clip-path="url(#0)"><path d="m159.36 4.764h149.78v112.34h-149.78z" fill-opacity=".047" fill-rule="evenodd" fill="#00f"/></g><g clip-path="url(#0)"><path d="m9.584 191.99h74.889" stroke-linejoin="round" stroke-linecap="round" fill="none" stroke="#cfc"/></g><g clip-path="url(#0)"><path d="m84.47 191.99v37.44" stroke-linejoin="round" stroke-linecap="round" fill="none" stroke="#cfc"/></g><g clip-path="url(#0)"><path d="m84.47 229.43h-74.889" stroke-linejoin="round" stroke-linecap="round" fill="none" stroke="#cfc"/></g><g clip-path="url(#0)"><path d="m9.584 229.43v-37.44" stroke-linejoin="round" stroke-linecap="round" fill="none" stroke="#cfc"/></g><g clip-path="url(#0)"><path d="m47.03 154.54v37.45" stroke-linejoin="round" stroke-linecap="round" fill="none" stroke="#cfc"/></g><g clip-path="url(#0)"><path d="m47.03 191.99h74.892" stroke-linejoin="round" stroke-linecap="round" fill="none" stroke="#cfc"/></g><g clip-path="url(#0)"><path d="m121.92 191.99v-37.45" stroke-linejoin="round" stroke-linecap="round" fill="none" stroke="#cfc"/></g><g clip-path="url(#0)"><path d="m121.92 154.54h-74.892" stroke-linejoin="round" stroke-linecap="round" fill="none" stroke="#cfc"/></g><g clip-path="url(#0)"><path d="m84.47 117.1v37.44" stroke-linejoin="round" stroke-linecap="round" fill="none" stroke="#cfc"/></g><g clip-path="url(#0)"><path d="m84.47 154.54h74.887" stroke-linejoin="round" stroke-linecap="round" fill="none" stroke="#cfc"/></g><g clip-path="url(#0)"><path d="m159.36 154.54v-37.44" stroke-linejoin="round" stroke-linecap="round" fill="none" stroke="#cfc"/></g><g clip-path="url(#0)"><path d="m159.36 117.1h-74.887" stroke-linejoin="round" stroke-linecap="round" fill="none" stroke="#cfc"/></g><g clip-path="url(#0)"><path d="m159.36 79.65v37.447" stroke-linejoin="round" stroke-linecap="round" fill="none" stroke="#cfc"/></g><g clip-path="url(#0)"><path d="m159.36 117.1h74.89" stroke-linejoin="round" stroke-linecap="round" fill="none" stroke="#cfc"/></g><g clip-path="url(#0)"><path d="m234.25 117.1v-37.447" stroke-linejoin="round" stroke-linecap="round" fill="none" stroke="#cfc"/></g><g clip-path="url(#0)"><path d="m234.25 79.65h-74.89" stroke-linejoin="round" stroke-linecap="round" fill="none" stroke="#cfc"/></g><g clip-path="url(#0)"><path d="m196.81 79.65v-37.444" stroke-linejoin="round" stroke-linecap="round" fill="none" stroke="#cfc"/></g><g clip-path="url(#0)"><path d="m196.81 42.21h74.89" stroke-linejoin="round" stroke-linecap="round" fill="none" stroke="#cfc"/></g><g clip-path="url(#0)"><path d="m271.7 42.21v37.444" stroke-linejoin="round" stroke-linecap="round" fill="none" stroke="#cfc"/></g><g clip-path="url(#0)"><path d="m271.7 79.65h-74.89" stroke-linejoin="round" stroke-linecap="round" fill="none" stroke="#cfc"/></g><g clip-path="url(#0)"><path d="m234.25 42.21v-37.445" stroke-linejoin="round" stroke-linecap="round" fill="none" stroke="#cfc"/></g><g clip-path="url(#0)"><path d="m234.25 4.764h74.89" stroke-linejoin="round" stroke-linecap="round" fill="none" stroke="#cfc"/></g><g clip-path="url(#0)"><path d="m309.14 4.764v37.445" stroke-linejoin="round" stroke-linecap="round" fill="none" stroke="#cfc"/></g><g clip-path="url(#0)"><path d="m309.14 42.21h-74.89" stroke-linejoin="round" stroke-linecap="round" fill="none" stroke="#cfc"/></g><g clip-path="url(#0)"><path d="m9.584 4.764h299.56" stroke-linejoin="round" stroke-linecap="round" fill="none" stroke="#000"/></g><g clip-path="url(#0)"><path d="m309.14 4.764v224.67" stroke-linejoin="round" stroke-linecap="round" fill="none" stroke="#000"/></g><g clip-path="url(#0)"><path d="m309.14 229.43h-299.56" stroke-linejoin="round" stroke-linecap="round" fill="none" stroke="#000"/></g><g clip-path="url(#0)"><path d="m9.584 229.43v-224.67" stroke-linejoin="round" stroke-linecap="round" fill="none" stroke="#000"/></g><g clip-path="url(#0)"><path d="m9.584 42.21h299.56" stroke-linejoin="round" stroke-linecap="round" fill="none" stroke="#000"/></g><g clip-path="url(#0)"><path d="m9.584 79.65h299.56" stroke-linejoin="round" stroke-linecap="round" fill="none" stroke="#000"/></g><g clip-path="url(#0)"><path d="m9.584 117.1h299.56" stroke-linejoin="round" stroke-width="1.5" stroke-linecap="round" fill="none" stroke="#00f"/></g><g clip-path="url(#0)"><path d="m9.584 154.54h299.56" stroke-linejoin="round" stroke-linecap="round" fill="none" stroke="#000"/></g><g clip-path="url(#0)"><path d="m9.584 191.99h299.56" stroke-linejoin="round" stroke-linecap="round" fill="none" stroke="#000"/></g><g clip-path="url(#0)"><path d="m47.03 229.43v-224.67" stroke-linejoin="round" stroke-linecap="round" fill="none" stroke="#000"/></g><g clip-path="url(#0)"><path d="m84.47 229.43v-224.67" stroke-linejoin="round" stroke-linecap="round" fill="none" stroke="#000"/></g><g clip-path="url(#0)"><path d="m121.92 229.43v-224.67" stroke-linejoin="round" stroke-linecap="round" fill="none" stroke="#000"/></g><g clip-path="url(#0)"><path d="m159.36 229.43v-224.67" stroke-linejoin="round" stroke-width="1.5" stroke-linecap="round" fill="none" stroke="#00f"/></g><g clip-path="url(#0)"><path d="m196.81 229.43v-224.67" stroke-linejoin="round" stroke-linecap="round" fill="none" stroke="#000"/></g><g clip-path="url(#0)"><path d="m234.25 229.43v-224.67" stroke-linejoin="round" stroke-linecap="round" fill="none" stroke="#000"/></g><g clip-path="url(#0)"><path d="m271.7 229.43v-224.67" stroke-linejoin="round" stroke-linecap="round" fill="none" stroke="#000"/></g><g clip-path="url(#0)"><path d="m9.584 229.43l299.56-224.67" stroke-linejoin="round" stroke-linecap="round" fill="none" stroke="#006400"/></g><g clip-path="url(#0)"><path d="m9.584 229.43h149.78" stroke-linejoin="round" stroke-linecap="round" fill="none" stroke="#00f"/></g><g clip-path="url(#0)"><path d="m159.36 229.43v-112.33" stroke-linejoin="round" stroke-linecap="round" fill="none" stroke="#00f"/></g><g clip-path="url(#0)"><path d="m159.36 117.1h-149.78" stroke-linejoin="round" stroke-linecap="round" fill="none" stroke="#00f"/></g><g clip-path="url(#0)"><path d="m9.584 117.1v112.33" stroke-linejoin="round" stroke-linecap="round" fill="none" stroke="#00f"/></g><g clip-path="url(#0)"><path d="m159.36 4.764h149.78" stroke-linejoin="round" stroke-linecap="round" fill="none" stroke="#00f"/></g><g clip-path="url(#0)"><path d="m309.14 4.764v112.34" stroke-linejoin="round" stroke-linecap="round" fill="none" stroke="#00f"/></g><g clip-path="url(#0)"><path d="m309.14 117.1h-149.78" stroke-linejoin="round" stroke-linecap="round" fill="none" stroke="#00f"/></g><g clip-path="url(#0)"><path d="m159.36 117.1v-112.34" stroke-linejoin="round" stroke-linecap="round" fill="none" stroke="#00f"/></g></g></g></svg>