<svg xmlns="http://www.w3.org/2000/svg" width="378.62" height="371.36" viewBox="0 0 312 306"><defs><clipPath id="0"><path d="m0 0v307h313v-307z"/></clipPath></defs><g stroke-miterlimit="10" stroke-linecap="square"><g><g clip-path="url(#0)"><path d="m18.738 285.89h263.63v-263.63h-263.63z" stroke-linejoin="round" stroke-linecap="round" fill="none" stroke="#404040"/></g><g clip-path="url(#0)"><path d="m18.738 285.89l263.63-70.53-192.9-193.05z" fill-opacity=".098" fill-rule="evenodd" fill="#00c"/></g><g clip-path="url(#0)"><path d="m18.738 285.89l263.63-70.53-192.9-193.05z" stroke-linejoin="round" stroke-linecap="round" fill="none" stroke="#00c"/></g><g clip-path="url(#0)"><path d="m18.738 285.89h263.63" stroke-linejoin="round" stroke-linecap="round" fill="none" stroke="#404040"/></g><g clip-path="url(#0)"><path d="m282.37 285.89v-263.63" stroke-linejoin="round" stroke-linecap="round" fill="none" stroke="#404040"/></g><g clip-path="url(#0)"><path d="m282.37 22.258h-263.63" stroke-linejoin="round" stroke-linecap="round" fill="none" stroke="#404040"/></g><g clip-path="url(#0)"><path d="m18.738 22.258v263.63" stroke-linejoin="round" stroke-linecap="round" fill="none" stroke="#404040"/></g><g clip-path="url(#0)"><path d="m18.738 285.89l263.63-70.53" stroke-linejoin="round" stroke-linecap="round" fill="none" stroke="#00c"/></g><g clip-path="url(#0)"><path d="m282.37 215.36l-192.9-193.05" stroke-linejoin="round" stroke-linecap="round" fill="none" stroke="#00c"/></g><g clip-path="url(#0)"><path d="m89.47 22.313l-70.73 263.58" stroke-linejoin="round" stroke-linecap="round" fill="none" stroke="#00c"/></g><g clip-path="url(#0)"><path d="m19.738 285.89c0 .55-.448 1-1 1-.552 0-1-.45-1-1 0-.56.448-1 1-1 .552 0 1 .44 1 1" fill="#444"/></g><g clip-path="url(#0)"><path d="m19.738 285.89c0 .55-.448 1-1 1-.552 0-1-.45-1-1 0-.56.448-1 1-1 .552 0 1 .44 1 1z" stroke-linejoin="round" stroke-linecap="round" fill="none" stroke="#000"/></g><g clip-path="url(#0)"><text font-style="italic" font-family="serif" fill="#444" font-size="12" x="0" y="0" transform="translate(7 302)">A</text></g><g clip-path="url(#0)"><path d="m283.37 285.89c0 .55-.45 1-1 1-.56 0-1-.45-1-1 0-.56.44-1 1-1 .55 0 1 .44 1 1" fill="#300"/></g><g clip-path="url(#0)"><path d="m283.37 285.89c0 .55-.45 1-1 1-.56 0-1-.45-1-1 0-.56.44-1 1-1 .55 0 1 .44 1 1z" stroke-linejoin="round" stroke-linecap="round" fill="none" stroke="#000"/></g><g clip-path="url(#0)"><text font-style="italic" font-family="serif" fill="#300" font-size="12" x="0" y="0" transform="translate(287 301)">B</text></g><g clip-path="url(#0)"><path d="m283.37 22.258c0 .553-.45 1-1 1-.56 0-1-.447-1-1 0-.552.44-1 1-1 .55 0 1 .448 1 1" fill="#444"/></g><g clip-path="url(#0)"><path d="m283.37 22.258c0 .553-.45 1-1 1-.56 0-1-.447-1-1 0-.552.44-1 1-1 .55 0 1 .448 1 1z" stroke-linejoin="round" stroke-linecap="round" fill="none" stroke="#000"/></g><g clip-path="url(#0)"><text font-style="italic" font-family="serif" fill="#444" font-size="12" x="0" y="0" transform="translate(286 20)">C</text></g><g clip-path="url(#0)"><path d="m19.738 22.258c0 .553-.448 1-1 1-.552 0-1-.447-1-1 0-.552.448-1 1-1 .552 0 1 .448 1 1" fill="#444"/></g><g clip-path="url(#0)"><path d="m19.738 22.258c0 .553-.448 1-1 1-.552 0-1-.447-1-1 0-.552.448-1 1-1 .552 0 1 .448 1 1z" stroke-linejoin="round" stroke-linecap="round" fill="none" stroke="#000"/></g><g clip-path="url(#0)"><text font-style="italic" font-family="serif" fill="#444" font-size="12" x="0" y="0" transform="translate(8 16)">D</text></g><g clip-path="url(#0)"><path d="m283.37 215.36c0 .55-.45 1-1 1-.56 0-1-.45-1-1 0-.56.44-1 1-1 .55 0 1 .44 1 1" fill="#300"/></g><g clip-path="url(#0)"><path d="m283.37 215.36c0 .55-.45 1-1 1-.56 0-1-.45-1-1 0-.56.44-1 1-1 .55 0 1 .44 1 1z" stroke-linejoin="round" stroke-linecap="round" fill="none" stroke="#000"/></g><g clip-path="url(#0)"><text font-style="italic" font-family="serif" fill="#300" font-size="12" x="0" y="0" transform="translate(289 218)">E</text></g><g clip-path="url(#0)"><path d="m90.47 22.313c0 .552-.448 1-1 1-.553 0-1-.448-1-1 0-.553.447-1 1-1 .552 0 1 .447 1 1" fill="#444"/></g><g clip-path="url(#0)"><path d="m90.47 22.313c0 .552-.448 1-1 1-.553 0-1-.448-1-1 0-.553.447-1 1-1 .552 0 1 .447 1 1z" stroke-linejoin="round" stroke-linecap="round" fill="none" stroke="#000"/></g><g clip-path="url(#0)"><text font-style="italic" font-family="serif" fill="#444" font-size="12" x="0" y="0" transform="translate(85 17)">F</text></g></g></g></svg>