<svg xmlns="http://www.w3.org/2000/svg" width="618.73" height="462.3" viewBox="0 0 442 330"><defs><clipPath id="5"><path d="m-25.307-1.817v22.07h29.534v-22.07z"/></clipPath><clipPath id="4"><path d="m-24.722-1.817v22.07h29.533v-22.07z"/></clipPath><clipPath id="6"><path d="m-38.476-9.191v31.523h42.19v-31.523z"/></clipPath><clipPath id="3"><path d="m-24.333-1.817v22.07h29.533v-22.07z"/></clipPath><clipPath id="1"><path d="m0 0v331h443v-331z"/></clipPath><clipPath id="0"><path d="m-.067-.967v9.4h7.133v-9.4z"/></clipPath><clipPath id="2"><path d="m-14.727-19.431v30.09h40.27v-30.09z"/></clipPath></defs><g stroke-linecap="square" stroke-miterlimit="10"><g clip-path="url(#1)"><path d="m38.1 2v329" stroke-linecap="butt" fill="none" stroke="#000"/></g><g clip-path="url(#1)"><path d="m38.1 1l-3 3" stroke-linecap="butt" fill="none" stroke="#000"/></g><g clip-path="url(#1)"><path d="m38.1 1l3 3" stroke-linecap="butt" fill="none" stroke="#000"/></g><g clip-path="url(#1)"><path d="m0 200.72h441" stroke-linecap="butt" fill="none" stroke="#000"/></g><g clip-path="url(#1)"><path d="m442 200.72l-3-3" stroke-linecap="butt" fill="none" stroke="#000"/></g><g clip-path="url(#1)"><path d="m442 200.72l-3 3" stroke-linecap="butt" fill="none" stroke="#000"/></g><g clip-path="url(#1)"><text font-style="italic" font-family="serif" font-size="10" x="0" y="0" transform="translate(44 214)">0</text></g><g clip-path="url(#1)"><text font-style="italic" font-family="serif" font-size="10" x="0" y="0" transform="translate(87 214)">1</text></g><g clip-path="url(#1)"><path d="m88.84 200.72v3" stroke-linecap="butt" fill="none" stroke="#000"/></g><g clip-path="url(#1)"><text font-style="italic" font-family="serif" font-size="10" x="0" y="0" transform="translate(138 214)">2</text></g><g clip-path="url(#1)"><path d="m139.58 200.72v3" stroke-linecap="butt" fill="none" stroke="#000"/></g><g clip-path="url(#1)"><text font-style="italic" font-family="serif" font-size="10" x="0" y="0" transform="translate(188 214)">3</text></g><g clip-path="url(#1)"><path d="m190.32 200.72v3" stroke-linecap="butt" fill="none" stroke="#000"/></g><g clip-path="url(#1)"><text font-style="italic" font-family="serif" font-size="10" x="0" y="0" transform="translate(239 214)">4</text></g><g clip-path="url(#1)"><path d="m241.06 200.72v3" stroke-linecap="butt" fill="none" stroke="#000"/></g><g clip-path="url(#1)"><text font-style="italic" font-family="serif" font-size="10" x="0" y="0" transform="translate(290 214)">5</text></g><g clip-path="url(#1)"><path d="m291.8 200.72v3" stroke-linecap="butt" fill="none" stroke="#000"/></g><g clip-path="url(#1)"><text font-style="italic" font-family="serif" font-size="10" x="0" y="0" transform="translate(341 214)">6</text></g><g clip-path="url(#1)"><path d="m342.54 200.72v3" stroke-linecap="butt" fill="none" stroke="#000"/></g><g clip-path="url(#1)"><text font-style="italic" font-family="serif" font-size="10" x="0" y="0" transform="translate(391 214)">7</text></g><g clip-path="url(#1)"><path d="m393.28 200.72v3" stroke-linecap="butt" fill="none" stroke="#000"/></g><g clip-path="url(#1)"><text font-style="italic" font-family="serif" font-size="10" x="0" y="0" transform="translate(21 306)">–2</text></g><g clip-path="url(#1)"><path d="m35.1 302.2h3" stroke-linecap="butt" fill="none" stroke="#000"/></g><g clip-path="url(#1)"><text font-style="italic" font-family="serif" font-size="10" x="0" y="0" transform="translate(21 255)">–1</text></g><g clip-path="url(#1)"><path d="m35.1 251.46h3" stroke-linecap="butt" fill="none" stroke="#000"/></g><g clip-path="url(#1)"><text font-style="italic" font-family="serif" font-size="10" x="0" y="0" transform="translate(26 198)">0</text></g><g clip-path="url(#1)"><text font-style="italic" font-family="serif" font-size="10" x="0" y="0" transform="translate(26 153)">1</text></g><g clip-path="url(#1)"><path d="m35.1 149.98h3" stroke-linecap="butt" fill="none" stroke="#000"/></g><g clip-path="url(#1)"><text font-style="italic" font-family="serif" font-size="10" x="0" y="0" transform="translate(26 103)">2</text></g><g clip-path="url(#1)"><path d="m35.1 99.25h3" stroke-linecap="butt" fill="none" stroke="#000"/></g><g clip-path="url(#1)"><text font-style="italic" font-family="serif" font-size="10" x="0" y="0" transform="translate(26 52)">3</text></g><g clip-path="url(#1)"><path d="m35.1 48.51h3" stroke-linecap="butt" fill="none" stroke="#000"/></g><g><g clip-path="url(#1)"><path d="m53.645 338.32l.865-9.51.865-8.61.865-7.85.865-7.18.866-6.6.865-6.09.865-5.65.865-5.25 1.731-9.47 1.73-8.34 1.731-7.4 1.73-6.64 1.731-5.99 1.73-5.45 1.731-4.99 3.461-8.82 3.461-7.6 3.46-6.65 3.461-5.9 3.461-5.29 3.461-4.78 3.461-4.37 3.464-4.02 3.46-3.72 3.46-3.46 3.46-3.24 3.46-3.04 3.46-2.87 3.46-2.71 3.46-2.58 3.46-2.46 3.47-2.35 3.46-2.25 3.46-2.16 3.46-2.07 3.46-2 3.46-1.93 3.46-1.87 3.46-1.81 3.46-1.75 3.46-1.71 3.46-1.65 3.47-1.61 3.46-1.57 3.46-1.53 3.46-1.5 3.46-1.46 3.46-1.43 3.46-1.4 3.46-1.37 3.46-1.34 3.46-1.31 3.47-1.3 3.46-1.26 3.46-1.25 3.46-1.22 3.46-1.21 3.46-1.18 3.46-1.17 3.46-1.15 3.46-1.13 3.46-1.11 3.46-1.1 3.47-1.08 3.46-1.07 3.46-1.06 3.46-1.04 3.46-1.03 3.46-1.02 3.46-1 3.46-.99 3.46-.98 3.46-.97 3.47-.96 3.46-.95 3.46-.94 3.46-.929 3.46-.92 3.46-.91 3.46-.902 3.46-.893 3.46-.885 3.46-.877 3.46-.868 3.47-.861 3.46-.854 3.46-.846 3.46-.838 3.46-.832 3.46-.825 3.46-.819 3.46-.812 3.46-.805 3.46-.799 3.46-.794 3.47-.787 3.46-.782 3.46-.776 3.46-.77 3.46-.765 3.46-.76 3.46-.754 3.46-.749 3.46-.745 3.46-.739 3.46-.735 3.47-.73 3.46-.725 3.46-.721 3.46-.716 3.46-.712 3.46-.708 3.46-.703 3.46-.699 3.46-.696 3.46-.691 3.47-.687 3.46-.684 3.46-.68 3.46-.676 3.46-.672 3.46-.669" stroke-linejoin="round" stroke-width="1.5" stroke-linecap="round" fill="none" stroke="#f00"/></g><g clip-path="url(#1)"><path d="m-5 221.09l453-214.03" stroke-linejoin="round" stroke-linecap="round" fill="none" stroke="#006400"/></g><g clip-path="url(#1)"><path d="m165.96 140.32v60.4" stroke-linejoin="round" stroke-linecap="round" fill="none" stroke="#808080"/></g><g clip-path="url(#1)"><path d="m39.1 200.72c0 .56-.448 1-1 1-.552 0-1-.44-1-1 0-.55.448-1 1-1 .552 0 1 .45 1 1" fill="#444"/></g><g clip-path="url(#1)"><path d="m39.1 200.72c0 .56-.448 1-1 1-.552 0-1-.44-1-1 0-.55.448-1 1-1 .552 0 1 .45 1 1z" stroke-linejoin="round" stroke-linecap="round" fill="none" stroke="#000"/></g><g clip-path="url(#1)"><text font-style="italic" font-family="serif" fill="#444" font-size="12" x="0" y="0" transform="translate(27 219)">O</text></g><g clip-path="url(#1)"><path d="m166.96 200.72c0 .56-.45 1-1 1-.55 0-1-.44-1-1 0-.55.45-1 1-1 .55 0 1 .45 1 1" fill="#444"/></g><g clip-path="url(#1)"><path d="m166.96 200.72c0 .56-.45 1-1 1-.55 0-1-.44-1-1 0-.55.45-1 1-1 .55 0 1 .45 1 1z" stroke-linejoin="round" stroke-linecap="round" fill="none" stroke="#000"/></g><g clip-path="url(#1)"><path d="m166.96 140.32c0 .55-.45 1-1 1-.55 0-1-.45-1-1 0-.56.45-1 1-1 .55 0 1 .44 1 1" fill="#444"/></g><g clip-path="url(#1)"><path d="m166.96 140.32c0 .55-.45 1-1 1-.55 0-1-.45-1-1 0-.56.45-1 1-1 .55 0 1 .44 1 1z" stroke-linejoin="round" stroke-linecap="round" fill="none" stroke="#000"/></g><g clip-path="url(#2)" transform="matrix(11 0 0 11 162 213.74)"><text font-style="italic" font-family="serif" font-size="1" x="0" y="0">a</text></g><g clip-path="url(#3)" transform="matrix(15 0 0 15 365 27.25)"><text font-style="italic" font-family="Jlm_cmr10" fill="#006400" font-size="1" x="0" y="0">(</text></g><g clip-path="url(#4)" transform="matrix(15 0 0 15 370.83 27.25)"><text font-style="italic" font-family="serif" fill="#006400" font-size="1" x="0" y="0">T</text></g><g clip-path="url(#5)" transform="matrix(15 0 0 15 379.6 27.25)"><text font-style="italic" font-family="Jlm_cmr10" fill="#006400" font-size="1" x="0" y="0">)</text></g><g clip-path="url(#6)" transform="matrix(10.5 0 0 10.5 404 96.5)"><text font-style="italic" font-family="serif" fill="#f00" font-size="1" x="0" y="0">f</text></g></g><g transform="matrix(.82237 0 0 .79892 394.61 79.43)"><g transform="matrix(15 0 0 15 1 14.5)" clip-path="url(#0)"><path d="m.344-.094q0 .016 0 .016-.016.016-.016.016 0 0 0-.016-.031-.016-.031-.039 0-.023.031-.07.031-.047.078-.078.047-.031.078-.031.078 0 .094.063 0 .016 0 .016 0 .063-.047.125-.031.047-.094.078-.063.031-.125.031-.063 0-.102-.031-.039-.031-.039-.078 0 0 0-.016 0-.109.094-.234h-.016q-.141 0-.203-.063-.016-.031-.016-.078 0-.031.031-.078.031-.047.094-.078.078-.031.141-.031.016 0 .016 0 0 0-.016.016-.063 0-.109.031-.047.031-.078.063-.031.047-.031.094 0 .031.016.047.031.047.156.047.016 0 .031 0 .094-.141.234-.234.141-.109.219-.109.063 0 .078.063 0 .047-.031.094-.063.094-.219.156-.094.031-.203.047-.125.172-.125.266 0 .047.023.07.023.023.07.023.031 0 .078-.031.047-.031.078-.078.047-.078.047-.109v-.016q0-.031-.047-.031-.031 0-.063.023-.031.023-.063.07-.031.031-.031.047 0 .031.016.031m0 .016q0 0 0 0m.391-.609q-.063 0-.172.094-.078.078-.188.203.094 0 .172-.031.141-.063.203-.141.031-.047.031-.094 0-.031-.047-.031" fill="#f00"/></g></g></g></svg>