<?xml version="1.0" encoding="UTF-8" standalone="no"?>
<!-- Created with Inkscape (http://www.inkscape.org/) -->

<svg
   xmlns:dc="http://purl.org/dc/elements/1.1/"
   xmlns:cc="http://creativecommons.org/ns#"
   xmlns:rdf="http://www.w3.org/1999/02/22-rdf-syntax-ns#"
   xmlns:svg="http://www.w3.org/2000/svg"
   xmlns="http://www.w3.org/2000/svg"
   xmlns:sodipodi="http://sodipodi.sourceforge.net/DTD/sodipodi-0.dtd"
   xmlns:inkscape="http://www.inkscape.org/namespaces/inkscape"
   id="svg2"
   version="1.1"
   inkscape:version="0.91 r13725"
   xml:space="preserve"
   width="743.75"
   height="1052.5"
   viewBox="0 0 743.75 1052.5"
   sodipodi:docname="une-question-dordre-3.svg"><metadata
     id="metadata8"><rdf:RDF><cc:Work
         rdf:about=""><dc:format>image/svg+xml</dc:format><dc:type
           rdf:resource="http://purl.org/dc/dcmitype/StillImage" /><dc:title></dc:title></cc:Work></rdf:RDF></metadata><defs
     id="defs6"><clipPath
       clipPathUnits="userSpaceOnUse"
       id="clipPath16"><path
         d="m 0,0.1 595.2,0 0,841.8 L 0,841.9 0,0.1 Z"
         id="path18"
         inkscape:connector-curvature="0"
         style="clip-rule:evenodd" /></clipPath><clipPath
       clipPathUnits="userSpaceOnUse"
       id="clipPath52"><path
         d="m 0,0.1 595.2,0 0,841.8 L 0,841.9 0,0.1 Z"
         id="path54"
         inkscape:connector-curvature="0"
         style="clip-rule:evenodd" /></clipPath></defs><sodipodi:namedview
     pagecolor="#ffffff"
     bordercolor="#666666"
     borderopacity="1"
     objecttolerance="10"
     gridtolerance="10"
     guidetolerance="10"
     inkscape:pageopacity="0"
     inkscape:pageshadow="2"
     inkscape:window-width="1680"
     inkscape:window-height="981"
     id="namedview4"
     showgrid="false"
     inkscape:zoom="0.89691211"
     inkscape:cx="473.97173"
     inkscape:cy="635.41008"
     inkscape:window-x="-8"
     inkscape:window-y="-8"
     inkscape:window-maximized="1"
     inkscape:current-layer="g10" /><g
     id="g10"
     inkscape:groupmode="layer"
     inkscape:label="nigme-du-mois-une-question-dordre"
     transform="matrix(1.25,0,0,-1.25,0,1052.5)"><g
       id="g12"><g
         id="g14"
         clip-path="url(#clipPath16)"><text
           transform="matrix(1,0,0,-1,56.8,766.6)"
           style="font-style:italic;font-variant:normal;font-weight:bold;font-size:20px;font-family:'Times New Roman';-inkscape-font-specification:TimesNewRomanPS-BoldItalicMT;writing-mode:lr-tb;fill:#000000;fill-opacity:1;fill-rule:nonzero;stroke:none"
           id="text20"><tspan
             x="0 14.4 25.5 34.380001 42.16 47.66 53.240002 63.240002 74.419998 79.419998 89.419998 99.419998 110.52 121.62"
             y="0"
             sodipodi:role="line"
             id="tspan22">Question bonus</tspan></text>
<g
           id="g24"
           transform="translate(56.8,766.6)"><g
             id="g26"
             transform="translate(0,-1.7)"><path
               d="M 0,0 129.5,0"
               style="fill:none;stroke:#000000;stroke-width:1.10000002;stroke-linecap:butt;stroke-linejoin:miter;stroke-miterlimit:10;stroke-dasharray:none;stroke-opacity:1"
               id="path28"
               inkscape:connector-curvature="0" /></g></g><text
           transform="matrix(1,0,0,-1,190.08,766.6)"
           style="font-variant:normal;font-weight:normal;font-size:15px;font-family:'Times New Roman';-inkscape-font-specification:TimesNewRomanPSMT;writing-mode:lr-tb;fill:#000000;fill-opacity:1;fill-rule:nonzero;stroke:none"
           id="text30"><tspan
             x="0"
             y="0"
             id="tspan32">:</tspan></text>
</g></g><text
       transform="matrix(1,0,0,-1,71.77,713.8)"
       style="font-variant:normal;font-weight:normal;font-size:15px;font-family:'Times New Roman';-inkscape-font-specification:TimesNewRomanPSMT;writing-mode:lr-tb;fill:#000000;fill-opacity:1;fill-rule:nonzero;stroke:none"
       id="text34"><tspan
         x="0 10.83 13.53 20.174999 27.674999 32.669998 39.314999 45.150002 48.900002 53.055 59.700001 63.450001 75.105003 81.75 85.904999 93.404999 100.905 108.405 115.05 118.8 126.3 130.455 134.61 138.765 142.92 148.755 155.39999 162.045 166.056 173.556 181.056 188.556 193.55099 197.257 201.412 206.407 213.907 221.407 228.907 235.552 240.547 244.35201 251.85201 259.35199 263.50702 268.50201 275.147 278.99701 285.642 293.142 298.97702 305.62201 317.27701 324.77701 328.93201 335.577 339.327 343.12799 350.62799 358.12799 361.90799 373.56299 381.06299 388.56299 392.71799 397.71301 404.358 408.22101 415.72101 423.22101 425.92099 430.07599 434.23099 438.06799 445.56799"
         y="0"
         sodipodi:role="line"
         id="tspan36">D'après la méthode utilisée pour trouver notre ensemble, on montre qu'il y </tspan><tspan
         x="-14.97 -8.3249998 -4.516995 2.983005 10.483005 14.638005 21.283005 25.438005 29.593004 36.238007 39.988007 43.786003 53.776005 60.421005 67.921005 74.566002 82.066002 89.566002 96.211006 103.71101 107.866 111.666 115.821 118.521 125.166 132.666 140.166 144.321 148.476 152.631 160.131 167.631 171.401 178.04599 183.881 188.064 191.99899 198.644 206.144 217.799 229.45399 236.95399 241.10899 247.754 251.909 256.064 263.564 270.20901 274.22501 279.22 282.92499 289.57001 292.26999 298.91501 304.75 308.905 313.89999 320.54501 325.54001 333.04001 337.19501 342.19 348.83499 352.58499 360.08499 367.58499 374.23001 378.14902 382.30402 385.004 392.504 400.004 403.79901 411.29901 417.944 425.444 429.599"
         y="17.25"
         sodipodi:role="line"
         id="tspan38">a unicité. Cependant l'addition est commutative ( c'est-à-dire que l'on peut </tspan><tspan
         x="-14.97 -8.2669954 -0.76699501 6.733005 10.840005 15.03801 19.23501 26.73501 34.235008 41.630009 48.333 53.327999 57.108002 64.502998 71.206001 78.706001 86.206001 89.986 97.486 104.986 116.593 124.093 129.088 135.791 141.62601 145.37601 152.87601 159.58101 167.08101 172.916 176.59401 180.791 183.49101 190.99101 195.98601 203.48601 208.39401 215.039 218.87701 226.37701 233.772 236.564 244.064 251.564 255.269 262.76901 269.47202 276.97202 281.12701 284.87701 289.03201 292.78201 299.427 303.177 311.62201 315.46899 322.96899 326.67401 335.11899 338.86899 346.36899 350.164 358.60901 362.35901 368.97202 373.96701"
         y="34.5"
         sodipodi:role="line"
         id="tspan40">additionner deux nombres dans l'ordre qu'on veut : a + b = b + a).</tspan></text>
<g
       id="g42"
       transform="matrix(0.9933014,0,0,1,262.06902,698.13385)"><g
         id="g44"
         transform="translate(0,-1.5)"><path
           d="M 0,0 78.3,0"
           style="fill:none;stroke:#000000;stroke-width:0.89999998;stroke-linecap:butt;stroke-linejoin:miter;stroke-miterlimit:10;stroke-dasharray:none;stroke-opacity:1"
           id="path46"
           inkscape:connector-curvature="0" /></g></g><g
       id="g48"><g
         id="g50"
         clip-path="url(#clipPath52)"><text
           transform="matrix(1,0,0,-1,68.065,644.8)"
           style="font-variant:normal;font-weight:normal;font-size:15px;font-family:'Times New Roman';-inkscape-font-specification:TimesNewRomanPSMT;writing-mode:lr-tb;fill:#000000;fill-opacity:1;fill-rule:nonzero;stroke:none"
           id="text56"><tspan
             x="0 4.9050002 9.0900002 12.87 20.370001 24.075001 30.764999 34.470001 41.970001 49.470001 56.970001 63.66 67.440002 74.040001 81.540001 85.32 89.415001 96.915001 101.1 107.7 111.885 115.665 121.47 128.16 135.55499 139.74001 146.42999 158.02499 164.715 172.215 176.39999 180.105 187.605 194.295 201.795 209.295 213 217.995 224.685 230.49001 237.99001 242.175 246.27 252.96001 257.14499 262.95001 266.73001 274.23001 281.73001 287.535 293.34 297.52499 305.02499 309.12 315.81 321.69 325.39499 332.89499 340.39499 344.57999 348.285 354.09 361.59 369.09 373.27499 377.05499"
             y="0"
             sodipodi:role="line"
             id="tspan58">Il y a donc au total seulement deux résultats possibles qui sont :</tspan><tspan
             x="44.91 48.615002 55.799999 63.299999 70.800003 74.985001 78.690002 86.190002 90.375 94.154999 101.55 105.735 109.515 116.91 121.095 124.875 132.375 139.875 144.06 147.765 154.66499 162.16499 166.35001 170.13 177.52499 181.71001 185.49001 192.99001 197.175 200.88 208.38 215.88 220.065 223.77 231.27 238.77 242.955 246.66 254.16 258.345 262.125 269.51999 273.70499 277.48499 284.98499 292.38 296.565 300.345 307.845 315.345 319.53 323.23499 330.73499 334.92001 338.625 346.125"
             y="34.5"
             sodipodi:role="line"
             id="tspan60"> {16; 9; 7; 2; 14; 11; 5; 4; 12; 13; 3; 6; 10; 15; 1; 8}</tspan><tspan
             x="-11.265 -4.5749998 -0.38999999 48.224998 55.41 62.91 67.095001 70.800003 78.300003 82.485001 86.190002 93.690002 101.19 105.375 109.155 116.655 124.05 128.235 132.015 139.41 143.595 147.375 154.875 159.06 162.765 170.265 177.765 181.95 185.655 193.155 200.655 204.84 208.545 216.045 220.23 224.00999 231.405 235.59 239.37 246.27 253.77 257.95499 261.66 269.16 276.66 280.845 284.54999 292.04999 296.23499 300.01501 307.41 311.595 315.375 322.76999 326.95499 330.73499 338.23499 345.73499 352.92001 375.375"
             y="103.5"
             sodipodi:role="line"
             id="tspan62">et {8; 1; 15; 10; 6; 3; 13; 12; 4; 5; 11; 14; 2; 7; 9; 16} .</tspan></text>
<g
           id="g64"
           transform="translate(273.5,590.8)"><path
             d="m 0,0 -163.3,0 0,44.2 326.6,0 L 163.3,0 0,0 Z"
             style="fill:none;stroke:#000000;stroke-width:0.80000001;stroke-linecap:butt;stroke-linejoin:round;stroke-miterlimit:10;stroke-dasharray:none;stroke-opacity:1"
             id="path66"
             inkscape:connector-curvature="0" /></g><g
           id="g68"
           transform="translate(273.5,525.3)"><path
             d="m 0,0 -163.3,0 0,44.2 326.6,0 L 163.3,0 0,0 Z"
             style="fill:none;stroke:#000000;stroke-width:0.80000001;stroke-linecap:butt;stroke-linejoin:round;stroke-miterlimit:10;stroke-dasharray:none;stroke-opacity:1"
             id="path70"
             inkscape:connector-curvature="0" /></g></g></g></g></svg>