<?xml version="1.0" encoding="UTF-8" standalone="no"?>
<!-- Created with Inkscape (http://www.inkscape.org/) -->

<svg
   xmlns:dc="http://purl.org/dc/elements/1.1/"
   xmlns:cc="http://creativecommons.org/ns#"
   xmlns:rdf="http://www.w3.org/1999/02/22-rdf-syntax-ns#"
   xmlns:svg="http://www.w3.org/2000/svg"
   xmlns="http://www.w3.org/2000/svg"
   xmlns:sodipodi="http://sodipodi.sourceforge.net/DTD/sodipodi-0.dtd"
   xmlns:inkscape="http://www.inkscape.org/namespaces/inkscape"
   id="svg2"
   version="1.1"
   inkscape:version="0.91 r13725"
   xml:space="preserve"
   width="743.75"
   height="1052.5"
   viewBox="0 0 743.75 1052.5"
   sodipodi:docname="nigme-du-mois-une-question-dordre-2.svg"><metadata
     id="metadata8"><rdf:RDF><cc:Work
         rdf:about=""><dc:format>image/svg+xml</dc:format><dc:type
           rdf:resource="http://purl.org/dc/dcmitype/StillImage" /><dc:title></dc:title></cc:Work></rdf:RDF></metadata><defs
     id="defs6"><clipPath
       clipPathUnits="userSpaceOnUse"
       id="clipPath16"><path
         d="m 0,0.1 595.2,0 0,841.8 L 0,841.9 0,0.1 Z"
         id="path18"
         inkscape:connector-curvature="0"
         style="clip-rule:evenodd" /></clipPath></defs><sodipodi:namedview
     pagecolor="#ffffff"
     bordercolor="#666666"
     borderopacity="1"
     objecttolerance="10"
     gridtolerance="10"
     guidetolerance="10"
     inkscape:pageopacity="0"
     inkscape:pageshadow="2"
     inkscape:window-width="640"
     inkscape:window-height="480"
     id="namedview4"
     showgrid="false"
     inkscape:zoom="0.22422803"
     inkscape:cx="371.875"
     inkscape:cy="526.25"
     inkscape:window-x="0"
     inkscape:window-y="0"
     inkscape:window-maximized="0"
     inkscape:current-layer="g10" /><g
     id="g10"
     inkscape:groupmode="layer"
     inkscape:label="nigme-du-mois-une-question-dordre"
     transform="matrix(1.25,0,0,-1.25,0,1052.5)"><g
       id="g12"><g
         id="g14"
         clip-path="url(#clipPath16)"><text
           transform="matrix(1,0,0,-1,56.8,771.3)"
           style="font-variant:normal;font-weight:normal;font-size:15px;font-family:'Times New Roman';-inkscape-font-specification:TimesNewRomanPSMT;writing-mode:lr-tb;fill:#000000;fill-opacity:1;fill-rule:nonzero;stroke:none"
           id="text20"><tspan
             x="0 9.1800003 15.87 21.674999 25.379999 29.565001 33.75 41.25 48.645 55.334999 61.215 64.919998 69.105003 87.779999 95.279999 99.059998 107.46 111.24 118.74 122.445 130.935 134.64 142.14 149.64 153.42 161.91 165.61501 173.11501 177.60001 192.57001 199.25999 203.355 218.325 225.825 229.605 238.005 241.785 249.285 252.99001 261.48001 265.185 272.685 276.465 284.95499 288.66 296.16 300.64499 304.42499 308.13 311.91 317.715 325.215 332.715 336.89999 340.60501 344.79001 356.38501 363.88501 371.38501 377.26501 383.07001 387.255 394.64999 398.83499 405.52499 411.32999 415.10999 421.70999 428.39999 433.39499 437.10001 444.29999 451.69501 458.38501 465.07501 472.57501"
             y="0"
             sodipodi:role="line"
             id="tspan22">Les lignes : 8 + 8 = 16 = 4² et 2 + 2 = 4 = 2² , sont impossibles car chacun</tspan><tspan
             x="0 7.5 14.19 19.995001 23.775 29.58 36.18 40.365002 46.965 53.654999 57.435001 64.934998 72.434998 84.029999 91.529999 96.525002 103.215 109.02 112.8 120.3 127.8 131.895 136.08 139.86 146.46001 150.645 155.64 162.33 166.035 173.535 177.63 181.815 186 190.185 195.99001 202.67999 206.38499 213.88499 221.38499 228.075 231.78 236.77499 244.27499 248.46001 254.265"
             y="17.299999"
             sodipodi:role="line"
             id="tspan24">des seize nombres doit être utilisé une fois.</tspan><tspan
             x="0 9.1800003 15.87 19.575001 27.075001 34.575001 46.169998 53.669998 58.665001 65.355003 69.135002 76.635002 84.135002 87.839996 95.339996 102.03 105.735 113.235 119.925 127.425 131.61 135.315 140.31 147.81 152.80499 164.39999 171.09 176.08501 179.86501 187.36501 194.86501 198.57001 205.25999 211.86 216.855 221.85001 228.53999 232.245 239.745 247.245 249.94501 256.63501 264.13501 267.84 271.935 274.72501 281.32501 288.82501 296.32501 300.51001 304.60501 308.79001 316.29001 323.79001 331.29001 337.98001 345.48001 349.66501 353.37 360.06 367.45499 374.14499 380.83499 384.54001 388.72501 395.41501 399.12 405.81 413.20499 417.39001 422.08499 427.07999 432.07501 438.76501 442.54501 449.94 453.72 457.5 462.405 466.59 470.37"
             y="51.799999"
             sodipodi:role="line"
             id="tspan26">Le nombre 16 ne peut former un carré qu'en l'additionnant avec le chiffre 9. Il y</tspan><tspan
             x="0 6.6900001 10.395 17.895 25.395 32.895 39.584999 43.290001 50.790001 58.290001 64.980003 68.760002 74.459999 81.150002 88.650002 92.834999 99.525002 103.23 110.73 118.23 124.035 129.84 134.02499 141.52499 145.71001 149.895 153.99001 158.175 164.86501 168.57001 176.07001 183.57001 191.07001 196.065 199.845 207.345 214.74001 218.52 222.3 228.89999 235.59 239.295 245.10001 251.78999 256.785 263.47501 267.17999 274.67999 282.17999 289.67999 296.37 300.07501 307.57501 315.07501 319.26001 324.255 330.94501 334.64999 342.14999 349.64999 353.83499 361.23001 365.41501 369.19501 376.59 383.28 387.06 394.56 401.25 408.64499 415.33499 420.32999 424.42499 428.20499"
             y="69"
             sodipodi:role="line"
             id="tspan28">a donc une seule possibilité pour 16, ce sera donc notre point de départ. </tspan><tspan
             x="14.97 24.15 30.84 36.645 40.349998 47.849998 54.540001 62.040001 69.540001 73.245003 80.745003 85.739998 92.43 104.025 108.21 114.9 119.895 125.7 129.48 136.98 144.48 156.075 163.575 168.57001 175.25999 181.065 184.845 190.64999 198.14999 205.64999 209.83501 213.53999 221.03999 228.53999 236.03999 242.73 246.435 253.935 260.625 268.125 273.92999 277.70999 281.80499 284.505 292.005 297 304.5 309.495 316.185 319.89001 325.69501 333.19501 337.38 344.88 351.57001 358.965 363.14999 366.92999 371.11499 374.82001 382.32001 389.82001 393.60001 397.69501 401.47501 408.97501 412.67999"
             y="103.5"
             sodipodi:role="line"
             id="tspan30">Les deux premiers nombres sont donc dans l'ordre suivant : 16 ; 9 …</tspan><tspan
             x="0 10.8 18.389999 22.094999 27.09 33.779999 41.174999 47.865002 52.860001 60.360001 67.050003 70.754997 78.254997 84.945 92.445 98.25 102.03 106.125 112.815 118.62 122.4 129 136.5 144 148.185 152.28 156.465 163.965 171.465 177.345 181.05 186.855 191.03999 194.82001 202.215 208.905 214.71001 220.515 228.105 233.91 237.69 245.19 252.58501 259.27499 263.45999 267.16501 274.66501 282.255 293.85001 301.35001 306.345 313.035 316.73999 324.23999 330.92999 338.32501 342.51001 346.29001 352.89001 357.07501 361.17001 367.85999 372.85501 376.63501 383.23499 390.73499 395.73001 402.42001 408.22501 412.005 419.505 423.20999 430.70999 438.20999 445.70999 450.70499"
             y="120.8"
             sodipodi:role="line"
             id="tspan32">On regarde dans les additions si dessus quel nombre peut aller après 9 pour </tspan><tspan
             x="0 7.5 15 19.184999 25.875 33.27 37.455002 42.450001 46.23 53.73 61.23 64.934998 69.120003 75.720001 79.5 86.099998 92.790001 97.785004 102.69 109.38 113.16 120.555 123.345 130.845 138.345 142.05 149.55 157.14 168.735 176.235 181.23 187.92 191.625 198.315 205.815 210.72 217.41 223.28999 226.995 233.685 241.185 248.58 252.765 256.95001 261.13501 268.63501 276.03 279.81 283.59 294.39001 301.89001 305.595 309.78 314.77499 322.27499 329.77499 337.27499 343.965 347.67001 353.47501 360.97501 365.16 369.345 373.04999 380.54999 388.04999 391.82999 397.63501 405.13501 409.23001 413.41501 417.19501 424.69501 428.39999 435.89999 440.89499 444.67499 452.17499 459.67499 463.38 470.07001 475.875"
             y="138"
             sodipodi:role="line"
             id="tspan34">obtenir un le carré d'un nombre après addition. On trouve soit 16 soit 7 or 16 est</tspan><tspan
             x="0 7.5 14.19 18.285 24.975 28.754999 36.150002 40.334999 44.52 48.615002 52.799999 58.605 65.294998 69.074997 72.779999 76.964996 83.565002 87.345001 94.035004 101.43 105.615 110.31 115.305 120.3 126.99 130.69501 136.5 144 148.185 155.685 162.375 169.875 174.06 177.765 183.57001 190.25999 195.16499 201.855 205.63499 213.13499 220.63499 228.13499 234.825 238.53 246.03 249.81"
             y="155.3"
             sodipodi:role="line"
             id="tspan36">déjà utilisé, le chiffre suivant sera donc 7. </tspan><tspan
             x="0 10.8 18.299999 23.295 29.985001 35.790001 39.57 46.965 50.744999 54.525002 62.025002 69.525002 73.230003 78.224998 84.915001 92.415001 99.014999 104.01 111.51 118.2 121.98 129.375 136.065 143.565 149.37 153.14999 160.64999 168.14999 173.955 177.735 184.33501 191.83501 199.33501 203.52 207.61501 211.8 219.3 226.8 232.67999 236.38499 243.075 249.675 253.455 260.95499 268.45499 272.64001 276.345 283.845 290.535 297.92999 302.11499 305.89499 312.495 316.67999 320.77499 327.465 332.45999 336.23999 342.84 350.34 356.94 363.63 367.41 374.80499 378.58499 382.36499 389.86499 397.36499 401.07001 405.255 410.25 417.75 425.25 432.75 439.44 443.14499 448.95001 456.45001 460.63501 464.82001 468.52499 476.02499"
             y="172.5"
             sodipodi:role="line"
             id="tspan38">Après 7, on regarde dans nos additions ce qui peut aller avec 7, on trouve soit 9 </tspan><tspan
             x="0 5.8049998 13.305 17.49 21.674999 25.379999 32.880001 36.66 40.365002 49.544998 56.235001 59.939999 66.629997 74.025002 78.209999 82.904999 87.900002 92.894997 99.584999 103.365 110.865 114.57 121.26 125.355 132.045 139.545 143.73 147.435 154.935 161.535 165.72 172.41 176.11501 183.61501 187.8 191.895 196.08 200.265 206.07001 212.67 216.45 220.23 226.92 234.315 239.31 246 251.80499 255.58501 263.08499 266.79001 270.97501 275.16 278.86499 284.67001 287.37 294.06 301.56 305.655 309.84 313.62 321.12 328.62 332.32501 339.01501 346.51501 350.70001 355.39499 360.39001 365.29501 371.98499 375.76501 383.16"
             y="189.8"
             sodipodi:role="line"
             id="tspan40">soit 2. Le chiffre 9 étant déjà utilisé, après 7 il s'agit du chiffre 2.</tspan><tspan
             x="0 10.8 18.389999 22.094999 28.785 32.490002 39.18 43.275002 50.775002 55.77 61.650002 65.355003 69.540001 76.139999 79.919998 87.419998 94.110001 101.61 109.005 113.19 116.97 124.365 131.05499 134.83501 142.33501 149.73 153.91499 158.91 165.60001 169.30499 175.995 183.495 189.3 195.99001 207.58501 215.08501 219.27 225.96001 229.66499 233.85001 237.63 244.815 248.52 256.01999 263.51999 267.70499 271.41 278.91 283.095 286.79999 294.29999 298.48499 302.26501 309.66 313.845 317.54999 321.32999 325.10999"
             y="224.3"
             sodipodi:role="line"
             id="tspan42">On a alors le début de notre ensemble : { 16; 9; 7; 2;...}</tspan><tspan
             x="0 10.8 18.389999 22.094999 29.594999 34.59 42.09 48.689999 55.380001 62.880001 69.57 73.275002 80.775002 87.464996 91.169998 102.765 109.545 121.14 127.83 131.535 139.035 146.535 154.035 159.03 162.81 166.905 173.595 179.39999 183.17999 187.27499 193.965 198.96001 210.55499 217.245 223.125 226.83 232.63499 240.13499 244.32001 251.82001 258.51001 265.905 270.09 275.89499 279.67499 283.45499 290.95499 298.45499 302.16 309.66 317.16 321.345 325.44 332.13 339.63 343.815 347.51999 354.20999 358.39499 365.79001 370.785 376.66501 380.37 384.55499"
             y="258.79999"
             sodipodi:role="line"
             id="tspan44">On procède de même pour les termes suivants, on obtient alors : </tspan><tspan
             x="0 7.1849999 14.685 22.184999 26.370001 30.075001 37.575001 41.759998 45.540001 52.935001 57.119999 60.900002 68.294998 72.480003 76.260002 83.760002 91.260002 95.445 99.150002 106.05 113.55 117.735 121.515 128.91 133.095 136.875 144.375 148.56 152.265 159.765 167.265 171.45 175.155 182.655 190.155 194.34 198.045 205.545 209.73 213.435 217.215 220.995 228.17999"
             y="276"
             sodipodi:role="line"
             id="tspan46">{16; 9; 7; 2; 14; 11; 5; 4; 12; 13; 3;...} </tspan><tspan
             x="14.16 24.959999 32.459999 36.240002 42.84 50.34 54.525002 59.220001 64.214996 69.209999 75.900002 79.605003 87.105003 90.885002 98.385002 105.885 109.59 116.28 119.985 126.675 130.86 138.255 143.25 149.13 152.83501 160.33501 167.02499 174.52499 182.02499 185.73 193.23 200.73 206.61 212.41499 216.60001 223.995 228.17999 232.36501 236.46001 240.645 247.33501 253.14 256.92001 261.01501 272.28 279.78 283.48499 291.97501 295.755 303.255 306.95999 315.45001 319.155 326.655 330.435 338.83499 342.61499 350.11499 354.60001 365.79001 373.29001 380.79001 392.05499 399.55499 403.26001 411.75 415.45499 422.95499 426.73499 435.13501 438.91501 446.41501 450.12 458.60999 462.315 469.815 474.29999"
             y="310.5"
             sodipodi:role="line"
             id="tspan48">Au chiffre 3 on a alors deux possibilités : 3 + 6 = 9 = 3² ou 3 + 1 = 4 = 2².</tspan><tspan
             x="0 9.1800003 16.68 20.385 27.885 34.575001 39.57 43.665001 50.355 57.855 62.040001 65.745003 73.245003 79.934998 83.639999 91.139999 94.919998 103.41 107.115 114.615 118.395 126.795 130.575 138.075 141.78 150.27 153.97501 161.47501 165.96001 169.74001 177.22501 183.825 188.00999 191.715 198.405 205.905 209.685 214.59 221.28 228.78 233.77499 240.465 247.86 254.55 262.04999 266.23499 269.94 274.125 280.815 284.51999 292.01999 297.01501 301.20001 308.595 315.285 319.47 326.86499 333.55499 337.33499 344.83499 349.73999 356.42999 363.12 369.81 377.20499 383.89499 391.39499 395.57999 399.285 406.785 414.285 418.065 425.565 433.065 437.16 441.345 448.035 455.42999 459.61499"
             y="327.79999"
             sodipodi:role="line"
             id="tspan50">En partant de 3 + 1 = 4 = 2², et en reprenant le principe précédent on obtient </tspan><tspan
             x="0 4.0949998 6.8850002 13.575 21.075001 26.775 33.555 45.150002 52.650002 56.744999 63.435001 67.214996 71.400002 75.105003 82.290001 89.790001 97.290001 101.07 105.165 108.945 116.34 120.525 124.305 131.80499 135.99001 139.69501 147.19501 151.38 155.08501 162.58501 170.08501 173.86501 177.96001 181.74001 188.64 196.14 200.325 204.03 211.53 215.715 219.495 226.89 231.075 234.855 242.355 249.75 253.935 257.715 265.215 272.715 276.89999 280.60501 288.10501 292.29001 295.995 303.495 307.67999 311.38501 318.88501 326.38501 330.57001 334.35001 341.85001 349.245 353.42999 357.20999 364.70999 371.80499 375.58499"
             y="345"
             sodipodi:role="line"
             id="tspan52">l'ensemble : {16 ; 9; 7; 2; 14 ; 11; 5; 4; 12; 13; 3; 1; 15; 10; 6}. </tspan><tspan
             x="14.97 19.965 24.15 27.855 39.450001 46.139999 53.639999 61.139999 68.639999 75.330002 80.324997 86.925003 91.110001 95.294998 99.074997 103.17 109.86 113.565 120.255 127.755 131.94 136.63499 141.63 146.535 153.22501 157.005 164.505 168.21001 175.71001 182.39999 189.89999 195.705 199.485 206.08501 212.77499 216.87 220.64999 227.25 234.75 240.55499 247.33501 258.92999 266.42999 270.52499 277.215 280.995 287.595 291.78 295.56 303.06 310.56 314.26501 321.76501 328.45499 332.16 339.66 347.16 354.66 359.655 364.64999 371.25 375.435 379.62 383.32501 387.51001 394.20001 397.905 405.405 409.5 416.19 422.88 429.48001 434.47501 438.255 445.755 452.44501"
             y="362.29999"
             sodipodi:role="line"
             id="tspan54">Il manquerait le chiffre 8 dans cet ensemble et on ne pourrait le placer de </tspan><tspan
             x="0 4.1849999 10.785 14.97 19.065001 25.754999 29.535 35.34 42.84 47.834999 51.93 58.619999 62.400002 69.900002 77.400002 84.089996 87.794998 91.980003 98.580002 102.36 108.165 115.665 127.35 138.94501 145.63499 149.41499 156.91499 164.41499 168.12 175.62 183.12 194.715 202.215 207.21001 213.89999 217.67999 225.17999 230.08501 236.77499 243.375 250.065 257.565 264.255 271.755 275.85001 279.63 283.41 290.91 298.41 302.11499 309.61499 317.11499 320.89499 328.39499 335.89499 347.48999 354.98999 359.98499 366.67499 370.38 376.185 383.685 387.87 395.37 402.06 409.56 413.655 417.435 421.215 428.715 436.215 443.715 451.10999 457.79999 461.57999 465.67499 472.36499"
             y="379.5"
             sodipodi:role="line"
             id="tspan56">telle sorte que la somme du nombre précédent, ou du nombre suivant, donne le </tspan><tspan
             x="0 6.6900001 13.29 18.285 23.280001 29.969999 33.674999 41.174999 43.875 51.375 58.875 62.654999 69.254997 76.754997 80.940002 85.035004 91.724998 95.925003"
             y="396.79999"
             sodipodi:role="line"
             id="tspan58">carré d'un entier.</tspan><tspan
             x="0 4.9949999 11.685 23.280001 29.969999 34.965 42.465 49.965"
             y="431.29999"
             sodipodi:role="line"
             id="tspan60">remarque</tspan></text>
<g
           id="g62"
           transform="translate(56.8,340)"><g
             id="g64"
             transform="translate(0,-1.5)"><path
               d="M 0,0 56.7,0"
               style="fill:none;stroke:#000000;stroke-width:0.89999998;stroke-linecap:butt;stroke-linejoin:miter;stroke-miterlimit:10;stroke-dasharray:none;stroke-opacity:1"
               id="path66"
               inkscape:connector-curvature="0" /></g></g><text
           transform="matrix(1,0,0,-1,117.205,340)"
           style="font-variant:normal;font-weight:normal;font-size:15px;font-family:'Times New Roman';-inkscape-font-specification:TimesNewRomanPSMT;writing-mode:lr-tb;fill:#000000;fill-opacity:1;fill-rule:nonzero;stroke:none"
           id="text68"><tspan
             x="0 4.1849999 26.639999 35.82 43.32 47.025002 54.525002 58.305 62.009998 66.195 70.290001 74.07 81.57 85.275002 91.964996 95.745003 102.345 109.845 115.65 121.455 125.64 129.42 136.92 143.61 151.11 158.61 162.315 169.815 177.315 183.12 188.925 193.11 200.61 204.795 208.89 213.075 217.25999 223.95 229.755 233.46001 240.14999 246.84 254.235 260.92499 268.42499 275.92499 282.61499 290.01001 294.19501 297.97501 303.78 307.965 311.67001 318.35999 322.14001 326.23499 332.92499 336.63 344.13 348.315 354.91501 361.60501 368.29501 372 379.5 387 390.78 398.28 405.78"
             y="0"
             sodipodi:role="line"
             id="tspan70">: En 1, il y a aussi deux possibilités cependant si à la place du 15 </tspan><tspan
             x="25.709999 33.209999 40.709999 44.415001 51.105 58.5 65.190002 69.375 73.559998 77.264999 88.860001 93.044998 98.925003 102.63 110.13 113.91 117.615 124.305 131.80499 143.49001 155.08501 161.77499 165.48 172.98 176.75999 184.25999 190.95 194.655 202.155 208.845 216.24001 220.425 224.205 229.11 235.8 239.985 244.89 251.58 255.36 262.85999 270.35999 274.065 279.87 286.56 294.06 298.245 302.02499 308.625 315.315 320.31 325.215 331.905 335.685 343.07999 349.76999 354.76501 358.54501 365.14499 372.64499 380.14499 384.32999 388.42499 392.60999 400.10999 407.60999"
             y="17.200001"
             sodipodi:role="line"
             id="tspan72">on avait mis 8, comme 8 ne peut faire un seul carré par addition </tspan><tspan
             x="25.709999 29.805 32.505001 39.195 46.695 52.5 59.189999 70.785004 78.285004 82.470001 89.160004 92.864998 98.669998 105.36 109.14 114.945 121.635 126.54 133.23 137.41499 141.60001 145.30499 152.80499 156.99001 161.895 168.58501 175.185 179.37 186.06 197.655 204.345 211.845 216.03 219.735 226.425 231.42 236.325 243.015 247.2 253.8 257.57999 261.35999 266.26501 270.45001 274.23001 285.82501 292.51501 300.01501 307.51501 315.01501 321.70499 326.60999 333.29999 337.39499 341.57999 345.35999 352.85999 360.35999 367.85999 374.54999"
             y="34.5"
             sodipodi:role="line"
             id="tspan74">l'ensemble se serait directement arrêté. Il manquerait donc </tspan><tspan
             x="25.709999 33.105 37.290001 44.790001 50.595001 54.779999 61.470001 68.970001 73.964996 79.769997 83.550003 91.050003 98.550003 110.145 117.645 122.64 129.33 135.13499 138.91499"
             y="51.700001"
             sodipodi:role="line"
             id="tspan76">plusieurs nombres. </tspan><tspan
             x="-46.244999 -35.445 -31.26 -23.76 -17.955 -13.77 -9.9899998 -3.3900001 4.1100001 7.8899999 15.285 19.065001 22.844999 30.344999 37.845001 41.549999 48.240002 55.740002 63.134998 67.32 73.125 77.309998 81.089996 85.184998 91.875 95.654999 103.05 109.74 117.24 124.74 128.83501 135.61501 147.21001 153.89999 157.605 165.105 172.605 178.41 184.215 188.39999 195.89999 200.08501 204.27 208.36501 212.55 219.24001 222.94501 227.94 235.44 239.22 247.62 251.39999 258.89999 262.60501 271.095 274.79999 282.29999 286.07999 294.48001 298.26001 305.76001 310.245 315.14999"
             y="103.5"
             sodipodi:role="line"
             id="tspan78">Ainsi en 3, on choisi la deuxième possibilité (3 + 6 = 9 = 3²).</tspan><tspan
             x="-60.404999 -51.224998 -43.724998 -40.02 -32.52 -28.334999 -24.24 -20.055 -15.87 -10.065 -3.375 4.125 8.3100004 12.015 16.200001 22.799999 26.58 38.174999 44.865002 49.049999 56.549999 64.050003 71.445 78.135002 81.915001 89.415001 94.32 101.01 107.7 114.39 121.785 128.47501 135.97501 140.07001 146.75999 150.53999 158.03999 164.73 168.435 175.935 182.625 190.125 197.52 204.21001 208.395 212.58 220.08 227.58 231.285 238.785 243.78 250.38 257.07001 263.76001 267.465 274.155 281.655 289.155 292.85999 299.54999 307.04999 314.54999 318.64499 322.82999 327.01501 334.51501 342.01501 347.82001 351.60001 356.505 363.19501 367.38 371.47501 378.16501 383.97"
             y="120.7"
             sodipodi:role="line"
             id="tspan80">En utilisant la méthode précédente de déduction grâce aux additions faites </tspan><tspan
             x="-60.404999 -52.904999 -47.91 -41.310001 -34.619999 -27.93 -20.43 -13.74 -2.145 9.4499998 16.139999 23.639999 27.825001 31.605 35.310001 42.810001 50.310001 54.09 58.185001 63.18 70.68 78.18 85.68 92.370003 96.074997 100.17 102.96 109.65 117.15 122.85 129.63 141.22501 148.72501 152.82001 159.50999 163.28999 170.685 177.465 189.06 195.75 203.25 210.645 217.33501 221.11501 225.21001"
             y="138"
             sodipodi:role="line"
             id="tspan82">précédemment, on trouve l'ensemble demandé : </tspan><tspan
             x="-30.465 -23.280001 -15.78 -8.2799997 -4.0949998 -0.38999999 7.1100001 11.295 15.075 22.469999 26.655001 30.434999 37.830002 42.014999 45.794998 53.294998 60.794998 64.980003 68.684998 75.584999 83.084999 87.269997 91.050003 98.445 102.63 106.41 113.91 118.095 121.8 129.3 136.8 140.985 144.69 152.19 159.69 163.875 167.58 175.08 179.265 183.045 190.44 194.625 198.405 205.905 213.3 217.485 221.265 228.765 236.265 240.45 244.155 251.655 255.84 259.54501 267.04501 274.23001 292.98001 296.685"
             y="172.5"
             sodipodi:role="line"
             id="tspan84">{16; 9; 7; 2; 14; 11; 5; 4; 12; 13; 3; 6; 10; 15; 1; 8} . </tspan><tspan
             x="-45.435001 -36.255001 -28.754999 -25.049999 -18.360001 -10.86 -3.3599999 0.73500001 4.9200001 9.1049995 16.605 24.105 31.605 38.294998 45.689999 49.875 53.654999 61.049999 67.739998 75.239998 82.739998 86.519997 90.614998 97.305 102.3 113.895 120.585 126.465 130.17 136.86 144.36 151.86 157.66499 164.265 170.955 178.455 182.64 186.735 191.73 197.61 201.315 208.815 216.315 220.095 227.595 234.99001 239.175 243.36 250.05 257.44501 261.63 265.41 269.595 277.095 284.48999 288.67499 296.17499 303.67499 308.67001 314.47501 318.255 322.35001 329.04001 332.82001 339.42001 346.10999 351.10501 356.01001 362.70001 366.48001 373.875 376.66501 384.16501 391.66501"
             y="224.2"
             sodipodi:role="line"
             id="tspan86">En additionnant deux termes consécutifs on obtient toujours le carré d'un </tspan><tspan
             x="-60.404999 -52.904999 -45.404999 -33.810001 -26.309999 -21.315001 -14.625 -10.845 -4.1550002 3.24 7.4250002 11.52 18.209999 22.605 26.385 30.09 36.779999 40.965 44.669998 51.360001 58.755001 65.445 72.945 80.445 87.135002 90.839996 98.339996 105.93 117.525 125.025 130.02 136.71001 140.41499 147.91499 154.605 158.31 162.405 165.19501 171.795 179.295 185.10001 191.78999 203.38499 210.88499 215.07001 221.75999 225.53999 230.535 234.24001 241.74001 244.44 251.13 256.935 261.12 264.82501 272.32501 276.51001 280.60501 284.79001 288.97501 294.78 301.47 305.17499 312.67499 320.17499 322.875 330.375 337.875 344.565 348.26999 354.07501 360.76501 368.26501 372.45001 376.155 381.14999 388.64999 392.83499 398.64001"
             y="241.5"
             sodipodi:role="line"
             id="tspan88">nombre entier, et chaque nombre de l'ensemble I n'est utilisé qu'une seul fois.</tspan></text>
<g
           id="g90"
           transform="translate(240.6,148.9)"><path
             d="m 0,0 -167.1,0 0,42.5 334.2,0 L 167.1,0 0,0 Z"
             style="fill:none;stroke:#000000;stroke-width:0.80000001;stroke-linecap:butt;stroke-linejoin:round;stroke-miterlimit:10;stroke-dasharray:none;stroke-opacity:1"
             id="path92"
             inkscape:connector-curvature="0" /></g></g></g></g></svg>