<?xml version="1.0" encoding="UTF-8" standalone="no"?>
<!-- Created with Inkscape (http://www.inkscape.org/) -->

<svg
   xmlns:dc="http://purl.org/dc/elements/1.1/"
   xmlns:cc="http://creativecommons.org/ns#"
   xmlns:rdf="http://www.w3.org/1999/02/22-rdf-syntax-ns#"
   xmlns:svg="http://www.w3.org/2000/svg"
   xmlns="http://www.w3.org/2000/svg"
   xmlns:sodipodi="http://sodipodi.sourceforge.net/DTD/sodipodi-0.dtd"
   xmlns:inkscape="http://www.inkscape.org/namespaces/inkscape"
   id="svg2"
   version="1.1"
   inkscape:version="0.91 r13725"
   xml:space="preserve"
   width="743.75"
   height="1052.5"
   viewBox="0 0 743.75 1052.5"
   sodipodi:docname="nigme-du-mois-une-question-dordre.svg"><metadata
     id="metadata8"><rdf:RDF><cc:Work
         rdf:about=""><dc:format>image/svg+xml</dc:format><dc:type
           rdf:resource="http://purl.org/dc/dcmitype/StillImage" /><dc:title></dc:title></cc:Work></rdf:RDF></metadata><defs
     id="defs6"><clipPath
       clipPathUnits="userSpaceOnUse"
       id="clipPath16"><path
         d="m 0,0.1 595.2,0 0,841.8 L 0,841.9 0,0.1 Z"
         id="path18"
         inkscape:connector-curvature="0"
         style="clip-rule:evenodd" /></clipPath><clipPath
       clipPathUnits="userSpaceOnUse"
       id="clipPath80"><path
         d="m 0,0.1 595.2,0 0,841.8 L 0,841.9 0,0.1 Z"
         id="path82"
         inkscape:connector-curvature="0"
         style="clip-rule:evenodd" /></clipPath><clipPath
       clipPathUnits="userSpaceOnUse"
       id="clipPath132"><path
         d="m 0,0.1 595.2,0 0,841.8 L 0,841.9 0,0.1 Z"
         id="path134"
         inkscape:connector-curvature="0"
         style="clip-rule:evenodd" /></clipPath></defs><sodipodi:namedview
     pagecolor="#ffffff"
     bordercolor="#666666"
     borderopacity="1"
     objecttolerance="10"
     gridtolerance="10"
     guidetolerance="10"
     inkscape:pageopacity="0"
     inkscape:pageshadow="2"
     inkscape:window-width="640"
     inkscape:window-height="480"
     id="namedview4"
     showgrid="false"
     inkscape:zoom="0.22422803"
     inkscape:cx="371.875"
     inkscape:cy="526.25"
     inkscape:window-x="0"
     inkscape:window-y="0"
     inkscape:window-maximized="0"
     inkscape:current-layer="g10" /><g
     id="g10"
     inkscape:groupmode="layer"
     inkscape:label="nigme-du-mois-une-question-dordre"
     transform="matrix(1.25,0,0,-1.25,0,1052.5)"><g
       id="g12"><g
         id="g14"
         clip-path="url(#clipPath16)"><text
           transform="matrix(1,0,0,-1,56.8,768.7)"
           style="font-style:italic;font-variant:normal;font-size:13px;font-family:'Comic Sans MS';-inkscape-font-specification:ComicSansMS-Italic;writing-mode:lr-tb;fill:#000000;fill-opacity:1;fill-rule:nonzero;stroke:none"
           id="text20"><tspan
             x="0 8.9960003 15.795 19.382999 26.169001 32.265999 35.867001 42.757 49.556 53.443001 61.048 68.146004 72.032997 75.621002 80.625999 87.723999 94.613998 98.214996 105.105 115.193 122.291 126.178 133.783 140.569 144.45599 154.54401 161.343 164.944"
             y="0"
             sodipodi:role="line"
             id="tspan22">Solution de l'énigme du mois</tspan></text>
<g
           id="g24"
           transform="translate(56.8,768.7)"><g
             id="g26"
             transform="translate(0,-1.5)"><path
               d="M 0,0 171.5,0"
               style="fill:none;stroke:#000000;stroke-width:1;stroke-linecap:butt;stroke-linejoin:miter;stroke-miterlimit:10;stroke-dasharray:none;stroke-opacity:1"
               id="path28"
               inkscape:connector-curvature="0" /></g></g><text
           transform="matrix(1,0,0,-1,232.187,768.7)"
           style="font-variant:normal;font-weight:normal;font-size:13px;font-family:'Comic Sans MS';-inkscape-font-specification:ComicSansMS;writing-mode:lr-tb;fill:#000000;fill-opacity:1;fill-rule:nonzero;stroke:none"
           id="text30"><tspan
             x="0"
             y="0"
             id="tspan32">:</tspan></text>
<text
           transform="matrix(1,0,0,-1,254,768.7)"
           style="font-variant:normal;font-weight:bold;font-size:15px;font-family:'Comic Sans MS';-inkscape-font-specification:ComicSansMS-Bold;writing-mode:lr-tb;fill:#ff3333;fill-opacity:1;fill-rule:nonzero;stroke:none"
           id="text34"><tspan
             x="0 10.995 18.885 27.27 33.764999 41.564999 49.259998 57.645 64.934998 72.014999 76.214996 84.105003 91.995003 98.489998 107.295 113.79 121.68 128.88 137.685 144.88499"
             y="0"
             sodipodi:role="line"
             id="tspan36">Une question d'ordre</tspan></text>
<text
           transform="matrix(1,0,0,-1,56.8,709)"
           style="font-variant:normal;font-weight:normal;font-size:15px;font-family:'Times New Roman';-inkscape-font-specification:TimesNewRomanPSMT;writing-mode:lr-tb;fill:#000000;fill-opacity:1;fill-rule:nonzero;stroke:none"
           id="text38"><tspan
             x="0 8.2950001 15.795 19.98 24.165001 27.945 32.849998 36.630001 40.724998 43.514999 50.115002 57.615002 63.419998 70.110001 81.705002 89.205002 93.389999 100.08 103.86 111.255 117.945 123.75 127.53 134.22 141.61501 145.8 149.895 156.58501 161.58 167.46001 171.16499 177.855 181.95 186.13499 192.825 200.22 204.405 208.185 215.58 222.27 226.05 233.55 237.255 243.94501 247.72501 255.22501 262.72501 266.42999 270.61499 278.01001 284.70001 288.88501 296.38501 302.19 306.375 310.07999 315.07501 318.85501 327.255 331.035 338.22 345.72 349.905 357.29999 361.48499 368.98499 373.17001 380.67001 384.85501 392.25 396.435 400.14001 403.92001 407.625 411.81 419.31 426.81 430.995 438.495 445.995 453.17999"
             y="0"
             sodipodi:role="line"
             id="tspan40">Soit I l'ensemble des entiers allant de 1 à 16 inclus: I = {1;2;3;4;5;...;15;16}.</tspan></text>
<text
           transform="matrix(1,0,0,-1,56.8,675.2)"
           style="font-variant:normal;font-weight:normal;font-size:12px;font-family:'Comic Sans MS';-inkscape-font-specification:ComicSansMS;writing-mode:lr-tb;fill:#000000;fill-opacity:1;fill-rule:nonzero;stroke:none"
           id="text42"><tspan
             x="0 6.5999999 12.792 16.379999 22.476 28.775999 35.063999 40.860001 44.243999 50.627998 56.916 63.504002 67.008003 73.596001 79.391998 85.080002 88.667999 91.956001 98.052002 101.64 107.436 113.64 117.024 122.916 129.01199 135.3 140.90401"
             y="0"
             sodipodi:role="line"
             id="tspan44">La consigne est la suivante</tspan></text>
<g
           id="g46"
           transform="translate(56.8,675.2)"><g
             id="g48"
             transform="translate(0,-1.4)"><path
               d="M 0,0 147.7,0"
               style="fill:none;stroke:#000000;stroke-width:0.89999998;stroke-linecap:butt;stroke-linejoin:miter;stroke-miterlimit:10;stroke-dasharray:none;stroke-opacity:1"
               id="path50"
               inkscape:connector-curvature="0" /></g></g><text
           transform="matrix(1,0,0,-1,207.293,675.2)"
           style="font-variant:normal;font-weight:normal;font-size:10.5px;font-family:'Open Sans';-inkscape-font-specification:OpenSans;writing-mode:lr-tb;fill:#000000;fill-opacity:1;fill-rule:nonzero;stroke:none"
           id="text52"><tspan
             x="0 2.6984999 5.4914999 10.689 13.3875 21.577499 25.672501 32.077499 38.377499 44.866501 51.2715 57.067501 61.971001 64.669502 67.357498 73.248001 78.246002 80.944504 86.834999 93.239998 96.935997 99.624001 105.5145 109.809 114.807 117.5055 122.5035 128.8035 138.58949 144.99451 149.289 151.97701 156.97501 159.76801 165.65849 172.06351 175.75951 179.85451 185.745 188.4435 194.439 197.1375 200.235 202.923 209.328 214.326 217.01401 223.41901 228.41701 231.5145 234.3075 240.198 243.894 246.5925 252.588 258.5835 261.28201 264.37949 267.0675 273.4725 278.47049 281.15851 287.56351 292.56149 295.659 298.452 304.85699 310.7475"
             y="0"
             sodipodi:role="line"
             id="tspan54">: « Ordonnez les entiers compris entre 1 (inclus) et 16 (inclus) de </tspan><tspan
             x="-150.493 -146.797 -140.90649 -138.30251 -135.6145 -129.724 -126.931 -121.933 -115.633 -111.3385 -107.6425 -101.752 -99.053497 -92.648499 -86.2435 -80.258499 -77.559998 -74.872002 -69.075996 -66.377502 -61.379501 -55.079498 -45.293499 -35.5075 -29.617001 -26.918501 -20.5135 -14.5285 -11.83 -5.4250002 0.4655 6.8705001 12.4565 15.155 18.851 24.741501 28.9415 38.727501 44.618 49.616001 52.409 57.407001 63.707001 70.112 75.110001 81.000504 85.998497 92.403503 96.099503 98.787498 102.3785 107.3765 110.075 115.073 121.373 124.061 127.8515 130.55 134.246 140.54601 146.951 149.63901 156.03349 162.43851 166.733 171.731 174.4295 180.9185 187.3235 190.022 195.02 200.81599 205.1105 209.20551 215.09599 217.88901 224.29401 230.09 234.38451 237.97549 243.7715 246.4595 250.1555 252.9485 255.647"
             y="14.7"
             sodipodi:role="line"
             id="tspan56">telle sorte que la somme de deux termes consécutifs soit toujours un carré parfait. »</tspan><tspan
             x="-150.493 -142.80701 -136.9165 -134.218 -127.813 -125.125 -118.72 -113.722 -110.929 -105.893 -99.487999 -93.692001 -88.599503 -82.194504 -75.789497 -72.996498 -66.591499 -60.701 -55.702999 -53.004501 -48.0065 -42.116001 -39.428001 -34.524502 -28.634001 -25.935499 -19.5305 -13.2305 -3.4445 2.9605 7.0555 12.946 18.0385 20.737 27.142 33.442001 36.130001 39.826 42.618999 48.509499 52.111 56.206001 62.0965 64.889503 71.294502 74.990501 77.594498 80.282501 82.970497 87.968498 93.859001 96.557503 102.9625 109.3675 115.3525 118.051 121.642 127.942 130.63 135.62801 138.32651 144.217 147.91299 150.6115 157.10049 163.50549 169.396 172.0945 177.0925 182.983 189.388 192.076 197.96651"
             y="29"
             sodipodi:role="line"
             id="tspan58">De plus chacun des seize nombres doit être utilisé une fois et une seule.</tspan></text>
</g></g><text
       transform="matrix(1,0,0,-1,56.8,613.1)"
       style="font-style:italic;font-variant:normal;font-size:12px;font-family:'Comic Sans MS';-inkscape-font-specification:ComicSansMS-Italic;writing-mode:lr-tb;fill:#000000;fill-opacity:1;fill-rule:nonzero;stroke:none"
       id="text60"><tspan
         x="0 9.5760002 15.852 19.470997 25.230995 31.362995 37.770996 44.178997 50.742996"
         y="0"
         sodipodi:role="line"
         id="tspan62">On rappel</tspan></text>
<text
       transform="matrix(1,0,0,-1,110.871,613.1)"
       style="font-style:italic;font-variant:normal;font-weight:normal;font-stretch:normal;font-size:12px;font-family:'Comic Sans MS';-inkscape-font-specification:ComicSansMS-Italic;writing-mode:lr-tb;fill:#000000;fill-opacity:1;fill-rule:nonzero;stroke:none"
       id="text64"><tspan
         x="0 3.2880001"
         y="0"
         sodipodi:role="line"
         id="tspan66">le</tspan></text>
<text
       transform="matrix(1,0,0,-1,124.342,613.1)"
       style="font-style:italic;font-variant:normal;font-size:12px;font-family:'Comic Sans MS';-inkscape-font-specification:ComicSansMS-Italic;writing-mode:lr-tb;fill:#000000;fill-opacity:1;fill-rule:nonzero;stroke:none"
       id="text68"><tspan
         x="0 6.2399998 12.48"
         y="0"
         sodipodi:role="line"
         id="tspan70">que</tspan></text>
<text
       transform="matrix(1,0,0,-1,143.397,613.1)"
       style="font-variant:normal;font-weight:normal;font-size:12px;font-family:'Comic Sans MS';-inkscape-font-specification:ComicSansMS;writing-mode:lr-tb;fill:#000000;fill-opacity:1;fill-rule:nonzero;stroke:none"
       id="text72"><tspan
         x="0 3.576 7.1960039 12.596004 20.396004 24.007008 30.127008 33.703007 39.103008"
         y="0"
         sodipodi:role="line"
         id="tspan74">: 1² = 1 </tspan></text>
<g
       id="g76"><g
         id="g78"
         clip-path="url(#clipPath80)"><text
           transform="matrix(1,0,0,-1,286.956,613.1)"
           style="font-variant:normal;font-weight:normal;font-size:12px;font-family:'Comic Sans MS';-inkscape-font-specification:ComicSansMS;writing-mode:lr-tb;fill:#000000;fill-opacity:1;fill-rule:nonzero;stroke:none"
           id="text84"><tspan
             x="0 7.4039998 13.692 17.280001 23.375999 29.472 32.855999 38.748001 44.844002 51.132 56.82 60.324001 63.612 69.804001 73.307999 79.103996 85.487999 94.788002 104.088 110.676 114.264 121.26 127.848 131.436 138.43201 145.02 151.224 158.412 161.916 168.504 174.79201 180.396 183.78 190.368 196.15199 201.948"
             y="0"
             sodipodi:role="line"
             id="tspan86">En faisant la somme de deux entiers </tspan><tspan
             x="-137.20399 -129.908 -122.108 -118.52 -112.424 -108.836 -101.54 -1.4119999 4.7800002 10.984 17.271999 23.068001 29.656 35.848 42.051998 47.740002 51.124001 57.220001 63.015999 66.603996 73.695999 79.792 86.080002 91.875999 95.463997 98.751999 103.348 109.936 116.224 122.02 128.608 137.908 145.01199 148.3 154.888 158.476 165.064 168.364 171.952 175.15601 181.744 185.332 191.728 195.01601 201.304 207.10001 210.688 216.98801 222.772 228.868 235.15601"
             y="16.700001"
             sodipodi:role="line"
             id="tspan88">2² = 4 consécutifs dans l'ensemble I, le plus grand</tspan><tspan
             x="-140.79201 -137.20399 -129.908 -122.108 -118.52 -112.424 -108.836 -101.54 -1.4119999 4.2880001 10.876 16.768 22.972 26.176001 31.864 37.959999 43.647999 47.236 53.632 59.931999 65.823997 71.620003 75.003998 82.108002 85.396004 91.984001 95.571999 102.16 107.86 113.548 117.136 120.724 124.312 129.71201 137.008 140.59599 146.38 149.884 155.284 162.67599 166.26401 172.36 175.948 183.244 188.644 191.632"
             y="33.5"
             sodipodi:role="line"
             id="tspan90"> 3² = 9 résultat possible est : 15 + 16 = 31. </tspan><tspan
             x="-137.20399 -129.908 -122.108 -118.52 -112.424 -108.836 -103.436 -96.139999 -3.188 6.4000001 12.688 16.275999 22.780001 29.068001 32.655998 39.652 46.240002 53.332001 59.535999 62.835999 68.524002 72.112 78.400002 84.603996 91.192001 94.779999 100.384 106.684 112.888 118.576 125.164 131.056 134.56 137.84801 144.436 150.23199 153.82001 159.616 165.916 175.3 184.60001 191.188 196.98399"
             y="50.200001"
             sodipodi:role="line"
             id="tspan92">4² = 16 On en déduit que toutes les sommes </tspan><tspan
             x="-137.20399 -129.908 -122.108 -118.52 -112.424 -108.836 -101.54 -94.148003 -1.28 5.1160002 11.5 17.296 23.091999 26.476 33.580002 36.868 43.456001 49.251999 52.84 58.636002 65.223999 71.008003 77.307999 83.512001 89.199997 92.788002 96.171997 102.46 108.556 115.06 120.844 124.228 130.81599 137.02 142.72 149.308 155.2 158.78799 164.884 168.472 175.76801 181.168 184.756 191.752 198.052 204.34 210.532 214.12 220.216 223.804 231.10001"
             y="67"
             sodipodi:role="line"
             id="tspan94">5² = 25 possibles seront inférieures à 31 donc à 6²</tspan><tspan
             x="-140.79201 -137.20399 -129.908 -122.108 -118.52 -112.424 -108.836 -101.54 -94.148003 2.3080001 6.6999998 13.792"
             y="88.099998"
             sodipodi:role="line"
             id="tspan96"> 6² = 36 (x </tspan></text>
<text
           transform="matrix(1,0,0,-1,304.9,525)"
           style="font-variant:normal;font-weight:normal;font-size:16px;font-family:'Comic Sans MS';-inkscape-font-specification:ComicSansMS;writing-mode:lr-tb;fill:#000000;fill-opacity:1;fill-rule:nonzero;stroke:none"
           id="text98"><tspan
             x="0 6.0960002"
             y="0"
             sodipodi:role="line"
             id="tspan100">&lt; </tspan></text>
<text
           transform="matrix(1,0,0,-1,315.8,525)"
           style="font-variant:normal;font-weight:normal;font-size:12px;font-family:'Comic Sans MS';-inkscape-font-specification:ComicSansMS;writing-mode:lr-tb;fill:#000000;fill-opacity:1;fill-rule:nonzero;stroke:none"
           id="text102"><tspan
             x="0 7.296 12.696"
             y="0"
             sodipodi:role="line"
             id="tspan104">31 </tspan></text>
<text
           transform="matrix(1,0,0,-1,332.1,525)"
           style="font-variant:normal;font-weight:normal;font-size:16px;font-family:'Comic Sans MS';-inkscape-font-specification:ComicSansMS;writing-mode:lr-tb;fill:#000000;fill-opacity:1;fill-rule:nonzero;stroke:none"
           id="text106"><tspan
             x="0 6.0960002"
             y="0"
             sodipodi:role="line"
             id="tspan108">&lt; </tspan></text>
<text
           transform="matrix(1,0,0,-1,343,525)"
           style="font-variant:normal;font-weight:normal;font-size:12px;font-family:'Comic Sans MS';-inkscape-font-specification:ComicSansMS;writing-mode:lr-tb;fill:#000000;fill-opacity:1;fill-rule:nonzero;stroke:none"
           id="text110"><tspan
             x="0 7.296 15.096 19.488001"
             y="0"
             sodipodi:role="line"
             id="tspan112">6²).</tspan><tspan
             x="-196.836 -193.248 -185.952 -178.15199 -174.564 -168.468 -164.88 -157.584"
             y="17.9"
             sodipodi:role="line"
             id="tspan114"> 7² = 49</tspan><tspan
             x="-196.836 -193.248 -185.952 -178.15199 -174.564 -168.468 -164.88 -157.584 -150.192"
             y="34.700001"
             sodipodi:role="line"
             id="tspan116"> 8² = 64 </tspan><tspan
             x="-193.248 -185.952 -178.15199 -174.564 -168.468 -164.88 -157.584"
             y="51.400002"
             sodipodi:role="line"
             id="tspan118">9² = 81</tspan><tspan
             x="-204.01199 -200.424 -195.024 -187.728 -179.84399 -176.34 -170.14799 -166.56 -161.16 -153.864"
             y="68.199997"
             sodipodi:role="line"
             id="tspan120"> 10² = 100</tspan></text>
</g></g><text
       transform="matrix(1,0,0,-1,56.8,392.1)"
       style="font-variant:normal;font-weight:normal;font-size:12px;font-family:'Comic Sans MS';-inkscape-font-specification:ComicSansMS;writing-mode:lr-tb;fill:#000000;fill-opacity:1;fill-rule:nonzero;stroke:none"
       id="text122"><tspan
         x="0 8.6520004 14.784 21.059999 26.892 30.497999 33.773998 38.43 44.993999 51.27 57.102001 63.666 72.977997 80.094002 83.370003 89.933998 93.651001 100.203 103.842 109.494 115.794 122.034 127.686 134.25 140.082 143.69099 146.967 153.53101 159.36301 162.95601 168.78801 175.088 184.40001 193.71201 200.276 206.108 209.42 213.16101 220.205 226.769 233.009 240.089 243.718 249.85001 253.42601 260.47 267.034 273.27402 280.354 283.99503 290.40302 296.703 302.535 308.367 311.72702 318.84302 322.11902 328.68301 334.51501 337.82703 341.40302 348.44702 354.74701 361.02301 366.67502 370.42801 373.70401 380.26801 386.10001 389.69302 395.453 402.01703 407.84903 414.08902 417.36502 423.01703 429.14902 434.80103 440.63303 444.255 450.819 456.651 462.30301"
         y="0"
         sodipodi:role="line"
         id="tspan124">Dans l'ensemble I toutes les sommes, deux à deux possibles, dont les résultats est </tspan><tspan
         x="0 3.276 9.8400002 13.470996 19.626995 25.758995 31.518995 37.278996 43.842995 47.502995 54.546997 59.202995 65.442993 71.718994 75.353996 81.629997 87.93 97.241997 104.358 110.118 116.682 120.349 126.91299 133.189 138.841 142.20099 148.765 154.52499 158.22 164.052 170.35201 176.62801 182.28 185.94099 189.217 195.78099 201.61299 205.207 211.039 217.27899 220.63899 226.47099 232.603 238.879 244.53099 251.095 256.927 260.54199"
         y="16.700001"
         sodipodi:role="line"
         id="tspan126">le carré d'un nombre entier sont les suivantes :</tspan></text>
<g
       id="g128"><g
         id="g130"
         clip-path="url(#clipPath132)"><text
           transform="matrix(1,0,0,-1,63.976,356.3)"
           style="font-variant:normal;font-weight:normal;font-size:12px;font-family:'Comic Sans MS';-inkscape-font-specification:ComicSansMS;writing-mode:lr-tb;fill:#000000;fill-opacity:1;fill-rule:nonzero;stroke:none"
           id="text136"><tspan
             x="0 4.3920002 9.7919998 17.087999 20.676001 26.459999 29.964001 37.355999 40.944 47.040001 50.627998 57.924 65.220001 68.807999 74.903999 78.491997 85.788002"
             y="0"
             sodipodi:role="line"
             id="tspan138">{16 + 9 = 25 = 5²</tspan></text>
<text
           transform="matrix(1,0,0,-1,66.667,323.9)"
           style="font-variant:normal;font-weight:normal;font-size:11px;font-family:'Comic Sans MS';-inkscape-font-specification:ComicSansMS;writing-mode:lr-tb;fill:#000000;fill-opacity:1;fill-rule:nonzero;stroke:none"
           id="text140"><tspan
             x="0 4.895 11.594 14.883 20.174 23.462999 28.358 31.646999 37.245998 40.535 45.528999 52.228001 55.516998 61.116001 64.404999 71.103996 78.297997 179.729 186.51601 189.717 195.008 198.297 204.996 208.285 213.884 217.173 222.16701 228.866 232.155 237.754 241.043 247.64301 254.83701 346.577 353.276 356.565 361.76801 365.05701 370.05099 373.34 378.939 382.228 388.927 392.216 397.815 401.104 407.70401"
             y="0"
             sodipodi:role="line"
             id="tspan142">15 + 1 = 16 = 4² 9 + 7 = 16 = 4² 3 + 1 = 4 = 2²</tspan><tspan
             x="-3.289 -0 4.895 11.594 14.883 20.174 23.462999 28.457001 35.155998 38.356998 44.043999 47.244999 53.944 60.730999 64.019997 69.619003 72.907997 79.508003 86.702003 181.731 188.42999 191.71899 196.922 200.211 205.205 211.90401 215.19299 220.79201 224.08099 230.78 237.479 240.76801 246.367 249.65601 256.35501 263.54901 348.62299 355.32199 358.61099 363.90201 367.19101 373.89001 377.17899 382.77802 386.06699 392.76599 396.05499 401.65399 404.94299 411.642"
             y="15.3"
             sodipodi:role="line"
             id="tspan144"> 15 + 10 = 25 = 5² 9 + 16 = 25 = 5² 3 + 6 = 9 = 3²</tspan><tspan
             x="343.76099 347.04999 353.74899 357.03799 362.32901 365.61801 370.513 377.21201 380.50101 386.10001 389.38901 394.383 401.082 404.371 409.97 413.259 419.95801"
             y="30.700001"
             sodipodi:role="line"
             id="tspan146"> 3 + 13 = 16 = 4²</tspan><tspan
             x="-3.289 -0 4.895 11.594 14.883 20.174 23.462999 30.162001 33.451 39.049999 42.339001 47.333 54.032001 57.233002 62.919998 66.121002 72.82 80.014 181.533 188.23199 191.521 196.812 200.101 204.996 208.285 213.884 217.173 223.87199 227.161 232.75999 236.049 242.748"
             y="46"
             sodipodi:role="line"
             id="tspan148"> 14 + 2 = 16 = 4² 8 + 1 = 9 = 3²</tspan><tspan
             x="-3.289 -0 4.895 11.594 14.883 20.174 23.462999 28.358 33.352001 36.640999 42.240002 45.528999 52.228001 58.926998 62.216 67.815002 71.103996 77.803001 84.997002 183.22701 189.92599 193.215 198.506 201.707 208.494 211.69501 217.382 220.58299 225.577 232.276 235.565 241.164 244.453 251.15199 258.34601 349.99799 356.69699 359.98599 365.27701 368.56601 375.26501 378.55399 384.15302 387.44199 394.14099 397.42999 403.02899 406.31799 412.918"
             y="61.400002"
             sodipodi:role="line"
             id="tspan150"> 14 + 11 = 25 = 5² 8 + 8 = 16 = 4² 2 + 2 = 4 = 2²</tspan><tspan
             x="347.04999 350.33899 357.03799 360.327 365.61801 368.90701 375.60599 378.89499 384.49399 387.78299 394.48199 397.771 403.37 406.659 413.259"
             y="76.699997"
             sodipodi:role="line"
             id="tspan152"> 2 + 7 = 9 = 3²</tspan><tspan
             x="-3.289 -0 4.895 11.594 14.883 20.174 23.462999 30.162001 33.451 39.049999 42.339001 47.333 54.032001 57.233002 62.919998 66.121002 72.82 80.014 181.533 188.23199 191.521 196.812 200.101 206.8 210.089 215.688 218.97701 225.67599 228.965 234.564 237.853 244.453 251.647 349.87701 356.664 359.86499 365.15601 368.44501 373.439 380.138 383.427 389.026 392.315 397.20999 403.909 407.198 412.797 416.086 422.785"
             y="92.099998"
             sodipodi:role="line"
             id="tspan154"> 13 + 3 = 16 = 4² 7 + 2 = 9 = 3² 2 + 14 = 16 = 4²</tspan><tspan
             x="-3.289 -0 4.895 11.594 14.883 20.174 23.462999 28.457001 35.155998 38.356998 44.043999 47.244999 53.944 60.730999 64.019997 69.619003 72.907997 79.508003 86.702003 181.731 188.42999 191.71899 196.922 200.211 206.91 210.19901 215.798 219.08701 224.08099 230.78 234.069 239.668 242.957 249.55701"
             y="107.4"
             sodipodi:role="line"
             id="tspan156"> 13 + 12 = 25 = 5² 7 + 9 = 16 = 4²</tspan><tspan
             x="347.04999 350.33899 355.23401 358.52301 363.814 367.103 373.802 377.091 382.69 385.979 392.67801 395.96701 401.258 404.547 411.147"
             y="122.8"
             sodipodi:role="line"
             id="tspan158"> 1 + 3 = 4 + 2²</tspan><tspan
             x="-3.289 -0 4.895 11.594 14.883 20.174 23.462999 30.162001 33.451 39.049999 42.339001 47.333 54.032001 57.233002 62.919998 66.121002 72.82 80.014 181.533 188.23199 191.521 196.812 200.101 206.8 210.089 215.688 218.97701 225.67599 228.965 234.564 237.853 244.453 251.647 349.87701 354.871 358.16 363.45099 366.65201 373.439 376.64001 382.327 385.52802 392.315 395.51599 401.203 404.40399 411.103"
             y="138.10001"
             sodipodi:role="line"
             id="tspan160"> 12 + 4 = 16 = 4² 6 + 3 = 9 = 3² 1 + 8 = 9 = 3²</tspan><tspan
             x="-3.289 -0 4.895 11.594 14.883 20.174 23.462999 28.457001 35.155998 38.356998 44.043999 47.244999 53.944 60.730999 64.019997 69.619003 72.907997 79.508003 86.702003 181.731 188.42999 191.71899 196.922 200.211 205.205 211.90401 215.19299 220.79201 224.08099 228.976 235.675 238.964 244.563 247.85201 254.55099 261.745 350.108 355.10199 358.39099 363.68201 366.883 371.87701 378.57599 381.86499 387.46399 390.75299 395.74701 402.44601 405.647 411.33401 414.535 421.23401"
             y="153.5"
             sodipodi:role="line"
             id="tspan162"> 12 + 13 = 25 = 5² 6 + 10 = 16 = 4² 1 + 15 = 16 = 4²</tspan><tspan
             x="-3.289 -0 4.895 9.8889999 13.178 18.381001 21.67 28.368999 31.658001 37.257 40.546001 45.540001 52.238998 55.528 61.126999 64.416 71.114998 78.308998 179.74001 186.52699 189.728 195.019 198.308 205.007 208.29601 213.895 217.18401 223.883 227.172 232.771 236.06 242.759"
             y="184.2"
             sodipodi:role="line"
             id="tspan164"> 11 + 5 = 16 = 4² 5 + 4 = 9 = 3²</tspan><tspan
             x="-3.289 -0 4.895 9.8889999 13.178 18.381001 21.67 26.664 33.362999 36.652 42.250999 45.540001 52.238998 58.938 62.227001 67.825996 71.114998 77.814003 85.008003 179.94901 186.64799 189.937 195.228 198.517 203.412 208.40601 211.60699 217.29401 220.495 225.489 232.188 235.47701 241.076 244.36501 251.064"
             y="199.5"
             sodipodi:role="line"
             id="tspan166"> 11 + 14 = 25 = 5² 5 + 11 = 16 = 4²</tspan><tspan
             x="-3.289 -0 4.895 11.594 14.883 20.174 23.462999 30.162001 33.451 39.049999 42.339001 47.333 54.032001 57.233002 62.919998 66.121002 72.82 80.014 181.533 188.23199 191.521 196.812 200.101 206.8 210.089 215.688 218.97701 225.67599 228.965 234.564 237.853 244.453"
             y="230.2"
             sodipodi:role="line"
             id="tspan168"> 10 + 6 = 16 = 4² 4 + 5 = 9 = 3²</tspan><tspan
             x="-3.289 -0 4.895 11.594 14.883 20.174 23.462999 28.457001 35.155998 38.356998 44.043999 47.244999 53.944 60.730999 64.019997 69.619003 72.907997 79.508003 86.702003 181.731 188.42999 191.71899 196.922 200.211 205.205 211.90401 215.19299 220.79201 224.08099 228.976 235.675 238.964 244.563 247.85201 254.55099"
             y="245.60001"
             sodipodi:role="line"
             id="tspan170"> 10 + 15 = 25 = 5² 4 + 12 = 16 = 4²</tspan></text>
<g
           id="g172"
           transform="translate(254.3,628.5)"><path
             d="M 0,0 0.8,-186.7"
             style="fill:none;stroke:#000000;stroke-width:2.8499999;stroke-linecap:butt;stroke-linejoin:round;stroke-miterlimit:10;stroke-dasharray:none;stroke-opacity:1"
             id="path174"
             inkscape:connector-curvature="0" /></g><g
           id="g176"
           transform="translate(67.7,339.2)"><path
             d="m 0,0 c -1.7,0 -3.4,-1.4 -3.4,-2.9 l 0,-13.4 c 0,-1.5 -1.7,-3 -3.3,-3 1.6,0 3.3,-1.5 3.3,-3 l 0,-10.5 c 0,-1.5 1.7,-3 3.4,-3"
             style="fill:none;stroke:#000000;stroke-width:0.80000001;stroke-linecap:butt;stroke-linejoin:round;stroke-miterlimit:10;stroke-dasharray:none;stroke-opacity:1"
             id="path178"
             inkscape:connector-curvature="0" /></g><g
           id="g180"
           transform="translate(61,339.2)"><path
             d="M 0,0 0,0 Z"
             style="fill:none;stroke:#000000;stroke-width:0.80000001;stroke-linecap:butt;stroke-linejoin:round;stroke-miterlimit:10;stroke-dasharray:none;stroke-opacity:1"
             id="path182"
             inkscape:connector-curvature="0" /></g><g
           id="g184"
           transform="translate(67.7,303.4)"><path
             d="M 0,0 0,0 Z"
             style="fill:none;stroke:#000000;stroke-width:0.80000001;stroke-linecap:butt;stroke-linejoin:round;stroke-miterlimit:10;stroke-dasharray:none;stroke-opacity:1"
             id="path186"
             inkscape:connector-curvature="0" /></g><g
           id="g188"
           transform="translate(67.7,291.7)"><path
             d="m 0,0 c -1.7,0 -3.4,-1.5 -3.4,-3 l 0,-13.4 c 0,-1.5 -1.7,-3 -3.3,-3 1.6,0 3.3,-1.5 3.3,-3 l 0,-10.5 c 0,-1.5 1.7,-3 3.4,-3"
             style="fill:none;stroke:#000000;stroke-width:0.80000001;stroke-linecap:butt;stroke-linejoin:round;stroke-miterlimit:10;stroke-dasharray:none;stroke-opacity:1"
             id="path190"
             inkscape:connector-curvature="0" /></g><g
           id="g192"
           transform="translate(61,291.7)"><path
             d="M 0,0 0,0 Z"
             style="fill:none;stroke:#000000;stroke-width:0.80000001;stroke-linecap:butt;stroke-linejoin:round;stroke-miterlimit:10;stroke-dasharray:none;stroke-opacity:1"
             id="path194"
             inkscape:connector-curvature="0" /></g><g
           id="g196"
           transform="translate(67.7,255.8)"><path
             d="M 0,0 0,0 Z"
             style="fill:none;stroke:#000000;stroke-width:0.80000001;stroke-linecap:butt;stroke-linejoin:round;stroke-miterlimit:10;stroke-dasharray:none;stroke-opacity:1"
             id="path198"
             inkscape:connector-curvature="0" /></g><g
           id="g200"
           transform="translate(68.7,248.8)"><path
             d="m 0,0 c -1.8,0 -3.5,-1.5 -3.5,-3 l 0,-13.4 c 0,-1.5 -1.7,-3 -3.4,-3 1.7,0 3.4,-1.5 3.4,-3 l 0,-10.6 c 0,-1.5 1.7,-3 3.5,-3"
             style="fill:none;stroke:#000000;stroke-width:0.80000001;stroke-linecap:butt;stroke-linejoin:round;stroke-miterlimit:10;stroke-dasharray:none;stroke-opacity:1"
             id="path202"
             inkscape:connector-curvature="0" /></g><g
           id="g204"
           transform="translate(61.8,248.8)"><path
             d="M 0,0 0,0 Z"
             style="fill:none;stroke:#000000;stroke-width:0.80000001;stroke-linecap:butt;stroke-linejoin:round;stroke-miterlimit:10;stroke-dasharray:none;stroke-opacity:1"
             id="path206"
             inkscape:connector-curvature="0" /></g><g
           id="g208"
           transform="translate(68.7,212.8)"><path
             d="M 0,0 0,0 Z"
             style="fill:none;stroke:#000000;stroke-width:0.80000001;stroke-linecap:butt;stroke-linejoin:round;stroke-miterlimit:10;stroke-dasharray:none;stroke-opacity:1"
             id="path210"
             inkscape:connector-curvature="0" /></g><g
           id="g212"
           transform="translate(68.5,202.7)"><path
             d="m 0,0 c -1.7,0 -3.4,-1.4 -3.4,-2.9 l 0,-13.4 c 0,-1.5 -1.7,-3 -3.3,-3 1.6,0 3.3,-1.5 3.3,-3 l 0,-10.5 c 0,-1.5 1.7,-3 3.4,-3"
             style="fill:none;stroke:#000000;stroke-width:0.80000001;stroke-linecap:butt;stroke-linejoin:round;stroke-miterlimit:10;stroke-dasharray:none;stroke-opacity:1"
             id="path214"
             inkscape:connector-curvature="0" /></g><g
           id="g216"
           transform="translate(61.8,202.7)"><path
             d="M 0,0 0,0 Z"
             style="fill:none;stroke:#000000;stroke-width:0.80000001;stroke-linecap:butt;stroke-linejoin:round;stroke-miterlimit:10;stroke-dasharray:none;stroke-opacity:1"
             id="path218"
             inkscape:connector-curvature="0" /></g><g
           id="g220"
           transform="translate(68.5,166.9)"><path
             d="M 0,0 0,0 Z"
             style="fill:none;stroke:#000000;stroke-width:0.80000001;stroke-linecap:butt;stroke-linejoin:round;stroke-miterlimit:10;stroke-dasharray:none;stroke-opacity:1"
             id="path222"
             inkscape:connector-curvature="0" /></g><g
           id="g224"
           transform="translate(67.7,152.2)"><path
             d="m 0,0 c -1.7,0 -3.4,-1.5 -3.4,-3 l 0,-13.4 c 0,-1.5 -1.7,-3 -3.3,-3 1.6,0 3.3,-1.5 3.3,-3 l 0,-10.5 c 0,-1.5 1.7,-3 3.4,-3"
             style="fill:none;stroke:#000000;stroke-width:0.80000001;stroke-linecap:butt;stroke-linejoin:round;stroke-miterlimit:10;stroke-dasharray:none;stroke-opacity:1"
             id="path226"
             inkscape:connector-curvature="0" /></g><g
           id="g228"
           transform="translate(61,152.2)"><path
             d="M 0,0 0,0 Z"
             style="fill:none;stroke:#000000;stroke-width:0.80000001;stroke-linecap:butt;stroke-linejoin:round;stroke-miterlimit:10;stroke-dasharray:none;stroke-opacity:1"
             id="path230"
             inkscape:connector-curvature="0" /></g><g
           id="g232"
           transform="translate(67.7,116.3)"><path
             d="M 0,0 0,0 Z"
             style="fill:none;stroke:#000000;stroke-width:0.80000001;stroke-linecap:butt;stroke-linejoin:round;stroke-miterlimit:10;stroke-dasharray:none;stroke-opacity:1"
             id="path234"
             inkscape:connector-curvature="0" /></g><g
           id="g236"
           transform="translate(67.7,107)"><path
             d="m 0,0 c -1.7,0 -3.4,-1.5 -3.4,-3 l 0,-13.4 c 0,-1.5 -1.7,-3 -3.3,-3 1.6,0 3.3,-1.5 3.3,-3 l 0,-10.5 c 0,-1.5 1.7,-3 3.4,-3"
             style="fill:none;stroke:#000000;stroke-width:0.80000001;stroke-linecap:butt;stroke-linejoin:round;stroke-miterlimit:10;stroke-dasharray:none;stroke-opacity:1"
             id="path238"
             inkscape:connector-curvature="0" /></g><g
           id="g240"
           transform="translate(61,107)"><path
             d="M 0,0 0,0 Z"
             style="fill:none;stroke:#000000;stroke-width:0.80000001;stroke-linecap:butt;stroke-linejoin:round;stroke-miterlimit:10;stroke-dasharray:none;stroke-opacity:1"
             id="path242"
             inkscape:connector-curvature="0" /></g><g
           id="g244"
           transform="translate(67.7,71.1)"><path
             d="M 0,0 0,0 Z"
             style="fill:none;stroke:#000000;stroke-width:0.80000001;stroke-linecap:butt;stroke-linejoin:round;stroke-miterlimit:10;stroke-dasharray:none;stroke-opacity:1"
             id="path246"
             inkscape:connector-curvature="0" /></g><g
           id="g248"
           transform="translate(246.8,338.9)"><path
             d="m 0,0 c -1.7,0 -3.3,-1.5 -3.3,-3 l 0,-13.4 c 0,-1.5 -1.7,-3 -3.4,-3 1.7,0 3.4,-1.5 3.4,-3 l 0,-10.5 c 0,-1.5 1.6,-3 3.3,-3"
             style="fill:none;stroke:#000000;stroke-width:0.80000001;stroke-linecap:butt;stroke-linejoin:round;stroke-miterlimit:10;stroke-dasharray:none;stroke-opacity:1"
             id="path250"
             inkscape:connector-curvature="0" /></g><g
           id="g252"
           transform="translate(240.1,338.9)"><path
             d="M 0,0 0,0 Z"
             style="fill:none;stroke:#000000;stroke-width:0.80000001;stroke-linecap:butt;stroke-linejoin:round;stroke-miterlimit:10;stroke-dasharray:none;stroke-opacity:1"
             id="path254"
             inkscape:connector-curvature="0" /></g><g
           id="g256"
           transform="translate(246.8,303)"><path
             d="M 0,0 0,0 Z"
             style="fill:none;stroke:#000000;stroke-width:0.80000001;stroke-linecap:butt;stroke-linejoin:round;stroke-miterlimit:10;stroke-dasharray:none;stroke-opacity:1"
             id="path258"
             inkscape:connector-curvature="0" /></g><g
           id="g260"
           transform="translate(247.7,293.2)"><path
             d="m 0,0 c -1.7,0 -3.4,-1.5 -3.4,-3 l 0,-13.4 c 0,-1.5 -1.7,-3 -3.3,-3 1.6,0 3.3,-1.5 3.3,-3 l 0,-10.5 c 0,-1.5 1.7,-3 3.4,-3"
             style="fill:none;stroke:#000000;stroke-width:0.80000001;stroke-linecap:butt;stroke-linejoin:round;stroke-miterlimit:10;stroke-dasharray:none;stroke-opacity:1"
             id="path262"
             inkscape:connector-curvature="0" /></g><g
           id="g264"
           transform="translate(241,293.2)"><path
             d="M 0,0 0,0 Z"
             style="fill:none;stroke:#000000;stroke-width:0.80000001;stroke-linecap:butt;stroke-linejoin:round;stroke-miterlimit:10;stroke-dasharray:none;stroke-opacity:1"
             id="path266"
             inkscape:connector-curvature="0" /></g><g
           id="g268"
           transform="translate(247.7,257.3)"><path
             d="M 0,0 0,0 Z"
             style="fill:none;stroke:#000000;stroke-width:0.80000001;stroke-linecap:butt;stroke-linejoin:round;stroke-miterlimit:10;stroke-dasharray:none;stroke-opacity:1"
             id="path270"
             inkscape:connector-curvature="0" /></g><g
           id="g272"
           transform="translate(246.8,246.8)"><path
             d="m 0,0 c -1.7,0 -3.3,-1.5 -3.3,-3 l 0,-13.4 c 0,-1.5 -1.7,-3 -3.4,-3 1.7,0 3.4,-1.5 3.4,-3 l 0,-10.5 c 0,-1.5 1.6,-3 3.3,-3"
             style="fill:none;stroke:#000000;stroke-width:0.80000001;stroke-linecap:butt;stroke-linejoin:round;stroke-miterlimit:10;stroke-dasharray:none;stroke-opacity:1"
             id="path274"
             inkscape:connector-curvature="0" /></g><g
           id="g276"
           transform="translate(240.1,246.8)"><path
             d="M 0,0 0,0 Z"
             style="fill:none;stroke:#000000;stroke-width:0.80000001;stroke-linecap:butt;stroke-linejoin:round;stroke-miterlimit:10;stroke-dasharray:none;stroke-opacity:1"
             id="path278"
             inkscape:connector-curvature="0" /></g><g
           id="g280"
           transform="translate(246.8,210.9)"><path
             d="M 0,0 0,0 Z"
             style="fill:none;stroke:#000000;stroke-width:0.80000001;stroke-linecap:butt;stroke-linejoin:round;stroke-miterlimit:10;stroke-dasharray:none;stroke-opacity:1"
             id="path282"
             inkscape:connector-curvature="0" /></g><g
           id="g284"
           transform="translate(247.7,201.6)"><path
             d="m 0,0 c -1.7,0 -3.4,-1.5 -3.4,-3 l 0,-13.4 c 0,-1.5 -1.7,-3 -3.3,-3 1.6,0 3.3,-1.5 3.3,-3 l 0,-10.5 c 0,-1.5 1.7,-3 3.4,-3"
             style="fill:none;stroke:#000000;stroke-width:0.80000001;stroke-linecap:butt;stroke-linejoin:round;stroke-miterlimit:10;stroke-dasharray:none;stroke-opacity:1"
             id="path286"
             inkscape:connector-curvature="0" /></g><g
           id="g288"
           transform="translate(241,201.6)"><path
             d="M 0,0 0,0 Z"
             style="fill:none;stroke:#000000;stroke-width:0.80000001;stroke-linecap:butt;stroke-linejoin:round;stroke-miterlimit:10;stroke-dasharray:none;stroke-opacity:1"
             id="path290"
             inkscape:connector-curvature="0" /></g><g
           id="g292"
           transform="translate(247.7,165.7)"><path
             d="M 0,0 0,0 Z"
             style="fill:none;stroke:#000000;stroke-width:0.80000001;stroke-linecap:butt;stroke-linejoin:round;stroke-miterlimit:10;stroke-dasharray:none;stroke-opacity:1"
             id="path294"
             inkscape:connector-curvature="0" /></g><g
           id="g296"
           transform="translate(247.7,153.8)"><path
             d="m 0,0 c -1.7,0 -3.4,-1.4 -3.4,-2.9 l 0,-13.4 c 0,-1.5 -1.7,-3 -3.3,-3 1.6,0 3.3,-1.5 3.3,-3 l 0,-10.5 c 0,-1.5 1.7,-3 3.4,-3"
             style="fill:none;stroke:#000000;stroke-width:0.80000001;stroke-linecap:butt;stroke-linejoin:round;stroke-miterlimit:10;stroke-dasharray:none;stroke-opacity:1"
             id="path298"
             inkscape:connector-curvature="0" /></g><g
           id="g300"
           transform="translate(241,153.8)"><path
             d="M 0,0 0,0 Z"
             style="fill:none;stroke:#000000;stroke-width:0.80000001;stroke-linecap:butt;stroke-linejoin:round;stroke-miterlimit:10;stroke-dasharray:none;stroke-opacity:1"
             id="path302"
             inkscape:connector-curvature="0" /></g><g
           id="g304"
           transform="translate(247.7,118)"><path
             d="M 0,0 0,0 Z"
             style="fill:none;stroke:#000000;stroke-width:0.80000001;stroke-linecap:butt;stroke-linejoin:round;stroke-miterlimit:10;stroke-dasharray:none;stroke-opacity:1"
             id="path306"
             inkscape:connector-curvature="0" /></g><g
           id="g308"
           transform="translate(246.9,107)"><path
             d="m 0,0 c -1.7,0 -3.4,-1.5 -3.4,-3 l 0,-13.4 c 0,-1.5 -1.7,-3 -3.3,-3 1.6,0 3.3,-1.5 3.3,-3 l 0,-10.5 c 0,-1.5 1.7,-3 3.4,-3"
             style="fill:none;stroke:#000000;stroke-width:0.80000001;stroke-linecap:butt;stroke-linejoin:round;stroke-miterlimit:10;stroke-dasharray:none;stroke-opacity:1"
             id="path310"
             inkscape:connector-curvature="0" /></g><g
           id="g312"
           transform="translate(240.2,107)"><path
             d="M 0,0 0,0 Z"
             style="fill:none;stroke:#000000;stroke-width:0.80000001;stroke-linecap:butt;stroke-linejoin:round;stroke-miterlimit:10;stroke-dasharray:none;stroke-opacity:1"
             id="path314"
             inkscape:connector-curvature="0" /></g><g
           id="g316"
           transform="translate(246.9,71.1)"><path
             d="M 0,0 0,0 Z"
             style="fill:none;stroke:#000000;stroke-width:0.80000001;stroke-linecap:butt;stroke-linejoin:round;stroke-miterlimit:10;stroke-dasharray:none;stroke-opacity:1"
             id="path318"
             inkscape:connector-curvature="0" /></g><g
           id="g320"
           transform="translate(416,340)"><path
             d="m 0,0 c -1.7,0 -3.4,-2.1 -3.4,-4.2 l 0,-17 c 0,-2.1 -1.7,-4.2 -3.3,-4.2 1.6,0 3.3,-2.1 3.3,-4.2 l 0,-17 c 0,-2.1 1.7,-4.3 3.4,-4.3"
             style="fill:none;stroke:#000000;stroke-width:0.80000001;stroke-linecap:butt;stroke-linejoin:round;stroke-miterlimit:10;stroke-dasharray:none;stroke-opacity:1"
             id="path322"
             inkscape:connector-curvature="0" /></g><g
           id="g324"
           transform="translate(409.3,340)"><path
             d="M 0,0 0,0 Z"
             style="fill:none;stroke:#000000;stroke-width:0.80000001;stroke-linecap:butt;stroke-linejoin:round;stroke-miterlimit:10;stroke-dasharray:none;stroke-opacity:1"
             id="path326"
             inkscape:connector-curvature="0" /></g><g
           id="g328"
           transform="translate(416,289.1)"><path
             d="M 0,0 0,0 Z"
             style="fill:none;stroke:#000000;stroke-width:0.80000001;stroke-linecap:butt;stroke-linejoin:round;stroke-miterlimit:10;stroke-dasharray:none;stroke-opacity:1"
             id="path330"
             inkscape:connector-curvature="0" /></g><g
           id="g332"
           transform="translate(416,278.2)"><path
             d="m 0,0 c -1.7,0 -3.4,-2.1 -3.4,-4.2 l 0,-17 c 0,-2.1 -1.7,-4.3 -3.3,-4.3 1.6,0 3.3,-2.1 3.3,-4.2 l 0,-17 c 0,-2.1 1.7,-4.2 3.4,-4.2"
             style="fill:none;stroke:#000000;stroke-width:0.80000001;stroke-linecap:butt;stroke-linejoin:round;stroke-miterlimit:10;stroke-dasharray:none;stroke-opacity:1"
             id="path334"
             inkscape:connector-curvature="0" /></g><g
           id="g336"
           transform="translate(409.3,278.2)"><path
             d="M 0,0 0,0 Z"
             style="fill:none;stroke:#000000;stroke-width:0.80000001;stroke-linecap:butt;stroke-linejoin:round;stroke-miterlimit:10;stroke-dasharray:none;stroke-opacity:1"
             id="path338"
             inkscape:connector-curvature="0" /></g><g
           id="g340"
           transform="translate(416,227.3)"><path
             d="M 0,0 0,0 Z"
             style="fill:none;stroke:#000000;stroke-width:0.80000001;stroke-linecap:butt;stroke-linejoin:round;stroke-miterlimit:10;stroke-dasharray:none;stroke-opacity:1"
             id="path342"
             inkscape:connector-curvature="0" /></g><g
           id="g344"
           transform="translate(415.2,215.4)"><path
             d="m 0,0 c -1.7,0 -3.4,-2.1 -3.4,-4.2 l 0,-17 c 0,-2.1 -1.7,-4.2 -3.3,-4.2 1.6,0 3.3,-2.1 3.3,-4.2 l 0,-17 c 0,-2.1 1.7,-4.3 3.4,-4.3"
             style="fill:none;stroke:#000000;stroke-width:0.80000001;stroke-linecap:butt;stroke-linejoin:round;stroke-miterlimit:10;stroke-dasharray:none;stroke-opacity:1"
             id="path346"
             inkscape:connector-curvature="0" /></g><g
           id="g348"
           transform="translate(408.5,215.4)"><path
             d="M 0,0 0,0 Z"
             style="fill:none;stroke:#000000;stroke-width:0.80000001;stroke-linecap:butt;stroke-linejoin:round;stroke-miterlimit:10;stroke-dasharray:none;stroke-opacity:1"
             id="path350"
             inkscape:connector-curvature="0" /></g><g
           id="g352"
           transform="translate(415.2,164.5)"><path
             d="M 0,0 0,0 Z"
             style="fill:none;stroke:#000000;stroke-width:0.80000001;stroke-linecap:butt;stroke-linejoin:round;stroke-miterlimit:10;stroke-dasharray:none;stroke-opacity:1"
             id="path354"
             inkscape:connector-curvature="0" /></g></g></g></g></svg>