<svg xmlns="http://www.w3.org/2000/svg" width="425.2" height="284.21" viewBox="0 0 379 253" xmlns:xlink="http://www.w3.org/1999/xlink"><defs><clipPath id="0"><path d="m0 0v254h380v-254z"/></clipPath></defs><g stroke-miterlimit="10" stroke-linecap="square"><g clip-path="url(#0)"><path d="m31.667 0v254" stroke-linejoin="round" stroke-linecap="round" fill="none" stroke="#c0c0c0" id="1"/></g><g clip-path="url(#0)"><path d="m0 0v254" stroke-linejoin="round" stroke-linecap="round" fill="none" stroke="#c0c0c0"/></g><g clip-path="url(#0)"><use xlink:href="#1"/></g><g clip-path="url(#0)"><path d="m63.33 0v254" stroke-linejoin="round" stroke-linecap="round" fill="none" stroke="#c0c0c0"/></g><g clip-path="url(#0)"><path d="m95 0v254" stroke-linejoin="round" stroke-linecap="round" fill="none" stroke="#c0c0c0"/></g><g clip-path="url(#0)"><path d="m126.67 0v254" stroke-linejoin="round" stroke-linecap="round" fill="none" stroke="#c0c0c0"/></g><g clip-path="url(#0)"><path d="m158.33 0v254" stroke-linejoin="round" stroke-linecap="round" fill="none" stroke="#c0c0c0"/></g><g clip-path="url(#0)"><path d="m190 0v254" stroke-linejoin="round" stroke-linecap="round" fill="none" stroke="#c0c0c0"/></g><g clip-path="url(#0)"><path d="m221.67 0v254" stroke-linejoin="round" stroke-linecap="round" fill="none" stroke="#c0c0c0"/></g><g clip-path="url(#0)"><path d="m253.33 0v254" stroke-linejoin="round" stroke-linecap="round" fill="none" stroke="#c0c0c0"/></g><g clip-path="url(#0)"><path d="m285 0v254" stroke-linejoin="round" stroke-linecap="round" fill="none" stroke="#c0c0c0"/></g><g clip-path="url(#0)"><path d="m316.67 0v254" stroke-linejoin="round" stroke-linecap="round" fill="none" stroke="#c0c0c0"/></g><g clip-path="url(#0)"><path d="m348.33 0v254" stroke-linejoin="round" stroke-linecap="round" fill="none" stroke="#c0c0c0"/></g><g clip-path="url(#0)"/><g clip-path="url(#0)"><path d="m0 .25h380" stroke-linejoin="round" stroke-linecap="round" fill="none" stroke="#c0c0c0" id="2"/></g><g clip-path="url(#0)"><use xlink:href="#2"/></g><g clip-path="url(#0)"><path d="m0 31.917h380" stroke-linejoin="round" stroke-linecap="round" fill="none" stroke="#c0c0c0"/></g><g clip-path="url(#0)"><path d="m0 63.58h380" stroke-linejoin="round" stroke-linecap="round" fill="none" stroke="#c0c0c0"/></g><g clip-path="url(#0)"><path d="m0 95.25h380" stroke-linejoin="round" stroke-linecap="round" fill="none" stroke="#c0c0c0"/></g><g clip-path="url(#0)"><path d="m0 126.92h380" stroke-linejoin="round" stroke-linecap="round" fill="none" stroke="#c0c0c0"/></g><g clip-path="url(#0)"><path d="m0 158.58h380" stroke-linejoin="round" stroke-linecap="round" fill="none" stroke="#c0c0c0"/></g><g clip-path="url(#0)"><path d="m0 190.25h380" stroke-linejoin="round" stroke-linecap="round" fill="none" stroke="#c0c0c0"/></g><g clip-path="url(#0)"><path d="m0 221.92h380" stroke-linejoin="round" stroke-linecap="round" fill="none" stroke="#c0c0c0"/></g><g clip-path="url(#0)"><path d="m0 253.58h380" stroke-linejoin="round" stroke-linecap="round" fill="none" stroke="#c0c0c0"/></g><g><g clip-path="url(#0)"><path d="m31.667 158.58l115.46-86.6" stroke-linejoin="round" stroke-linecap="round" fill="none" stroke="#03c"/></g><g clip-path="url(#0)"><path d="m158.33 63.58l-9.1 11.2-4.2-5.6z" fill-rule="evenodd" fill="#03c"/></g><g clip-path="url(#0)"><path d="m63.33 221.92l115.47-86.6" stroke-linejoin="round" stroke-linecap="round" fill="none" stroke="#03c"/></g><g clip-path="url(#0)"><path d="m190 126.92l-9.1 11.2-4.2-5.6z" fill-rule="evenodd" fill="#03c"/></g><g clip-path="url(#0)"><path d="m158.33 221.92l115.47-86.6" stroke-linejoin="round" stroke-linecap="round" fill="none" stroke="#03c"/></g><g clip-path="url(#0)"><path d="m285 126.92l-9.1 11.2-4.2-5.6z" fill-rule="evenodd" fill="#03c"/></g><g clip-path="url(#0)"><path d="m221.67 190.25l115.46-86.6" stroke-linejoin="round" stroke-linecap="round" fill="none" stroke="#f03"/></g><g clip-path="url(#0)"><path d="m348.33 95.25l-9.1 11.2-4.2-5.6z" fill-rule="evenodd" fill="#f03"/></g><g clip-path="url(#0)"><path d="m190 126.92l115.47-86.6" stroke-linejoin="round" stroke-linecap="round" fill="none" stroke="#03c"/></g><g clip-path="url(#0)"><path d="m316.67 31.917l-9.1 11.2-4.2-5.6z" fill-rule="evenodd" fill="#03c"/></g><g clip-path="url(#0)"><path d="m64.33 221.92c0 .55-.447 1-1 1-.552 0-1-.45-1-1 0-.56.448-1 1-1 .553 0 1 .44 1 1" fill="#300"/></g><g clip-path="url(#0)"><path d="m64.33 221.92c0 .55-.447 1-1 1-.552 0-1-.45-1-1 0-.56.448-1 1-1 .553 0 1 .44 1 1z" stroke-linejoin="round" stroke-linecap="round" fill="none" stroke="#000"/></g><g clip-path="url(#0)"><text font-style="italic" font-family="Times" fill="#300" font-size="12" x="0" y="0" transform="translate(52 228)">A</text></g><g clip-path="url(#0)"><path d="m159.33 63.58c0 .553-.44 1-1 1-.55 0-1-.447-1-1 0-.552.45-1 1-1 .56 0 1 .448 1 1" fill="#300"/></g><g clip-path="url(#0)"><path d="m159.33 63.58c0 .553-.44 1-1 1-.55 0-1-.447-1-1 0-.552.45-1 1-1 .56 0 1 .448 1 1z" stroke-linejoin="round" stroke-linecap="round" fill="none" stroke="#000"/></g><g clip-path="url(#0)"><text font-style="italic" font-family="Times" fill="#300" font-size="12" x="0" y="0" transform="translate(162 62)">B</text></g><g clip-path="url(#0)"><path d="m317.67 31.917c0 .552-.45 1-1 1-.56 0-1-.448-1-1 0-.553.44-1 1-1 .55 0 1 .447 1 1" fill="#300"/></g><g clip-path="url(#0)"><path d="m317.67 31.917c0 .552-.45 1-1 1-.56 0-1-.448-1-1 0-.553.44-1 1-1 .55 0 1 .447 1 1z" stroke-linejoin="round" stroke-linecap="round" fill="none" stroke="#000"/></g><g clip-path="url(#0)"><text font-style="italic" font-family="Times" fill="#300" font-size="12" x="0" y="0" transform="translate(321 30)">C</text></g><g clip-path="url(#0)"><path d="m222.67 190.25c0 .55-.45 1-1 1-.56 0-1-.45-1-1 0-.55.44-1 1-1 .55 0 1 .45 1 1" fill="#300"/></g><g clip-path="url(#0)"><path d="m222.67 190.25c0 .55-.45 1-1 1-.56 0-1-.45-1-1 0-.55.44-1 1-1 .55 0 1 .45 1 1z" stroke-linejoin="round" stroke-linecap="round" fill="none" stroke="#000"/></g><g clip-path="url(#0)"><text font-style="italic" font-family="Times" fill="#300" font-size="12" x="0" y="0" transform="translate(227 201)">D</text></g><g clip-path="url(#0)"><path d="m191 126.92c0 .55-.45 1-1 1-.55 0-1-.45-1-1 0-.56.45-1 1-1 .55 0 1 .44 1 1" fill="#300"/></g><g clip-path="url(#0)"><path d="m191 126.92c0 .55-.45 1-1 1-.55 0-1-.45-1-1 0-.56.45-1 1-1 .55 0 1 .44 1 1z" stroke-linejoin="round" stroke-linecap="round" fill="none" stroke="#000"/></g><g clip-path="url(#0)"><text font-style="italic" font-family="Times" fill="#300" font-size="12" x="0" y="0" transform="translate(176 126)">I</text></g><g clip-path="url(#0)"><path d="m349.33 95.25c0 .552-.44 1-1 1-.55 0-1-.448-1-1 0-.552.45-1 1-1 .56 0 1 .448 1 1" fill="#300"/></g><g clip-path="url(#0)"><path d="m349.33 95.25c0 .552-.44 1-1 1-.55 0-1-.448-1-1 0-.552.45-1 1-1 .56 0 1 .448 1 1z" stroke-linejoin="round" stroke-linecap="round" fill="none" stroke="#000"/></g><g clip-path="url(#0)"><text font-style="italic" font-family="Times" fill="#300" font-size="12" x="0" y="0" transform="translate(352 93)">E</text></g><g clip-path="url(#0)"><path d="m32.667 158.58c0 .56-.448 1-1 1-.553 0-1-.44-1-1 0-.55.447-1 1-1 .552 0 1 .45 1 1" fill="#300"/></g><g clip-path="url(#0)"><path d="m32.667 158.58c0 .56-.448 1-1 1-.553 0-1-.44-1-1 0-.55.447-1 1-1 .552 0 1 .45 1 1z" stroke-linejoin="round" stroke-linecap="round" fill="none" stroke="#000"/></g><g clip-path="url(#0)"><text font-style="italic" font-family="Times" fill="#300" font-size="12" x="0" y="0" transform="translate(19 160)">F</text></g><g clip-path="url(#0)"><path d="m159.33 221.92c0 .55-.44 1-1 1-.55 0-1-.45-1-1 0-.56.45-1 1-1 .56 0 1 .44 1 1" fill="#300"/></g><g clip-path="url(#0)"><path d="m159.33 221.92c0 .55-.44 1-1 1-.55 0-1-.45-1-1 0-.56.45-1 1-1 .56 0 1 .44 1 1z" stroke-linejoin="round" stroke-linecap="round" fill="none" stroke="#000"/></g><g clip-path="url(#0)"><text font-style="italic" font-family="Times" fill="#300" font-size="12" x="0" y="0" transform="translate(161 235)">G</text></g><g clip-path="url(#0)"><path d="m286 126.92c0 .55-.45 1-1 1-.55 0-1-.45-1-1 0-.56.45-1 1-1 .55 0 1 .44 1 1" fill="#300"/></g><g clip-path="url(#0)"><path d="m286 126.92c0 .55-.45 1-1 1-.55 0-1-.45-1-1 0-.56.45-1 1-1 .55 0 1 .44 1 1z" stroke-linejoin="round" stroke-linecap="round" fill="none" stroke="#000"/></g><g clip-path="url(#0)"><text font-style="italic" font-family="Times" fill="#300" font-size="12" x="0" y="0" transform="translate(289 125)">H</text></g></g></g></svg>