<svg height="13.14cm" viewBox="0 0 855 656" width="17.14cm" xmlns="http://www.w3.org/2000/svg"><g stroke-linecap="square" stroke-miterlimit="10"><path d="m701.08 251.8c-43.69-83.68-153.46-112.7-245.18-64.82-91.72 47.89-130.66 154.54-86.98 238.22 43.69 83.68 153.46 112.7 245.18 64.82 91.72-47.89 130.66-154.54 86.98-238.22z" style="stroke-linejoin:round;stroke-width:2.5;stroke-linecap:round;fill:none;stroke-opacity:.69804;stroke:#f00"/><path d="m514.33 297.57c-18.25-96.75-120.71-158.66-228.87-138.26-108.15 20.39-181.03 115.36-162.79 212.12 18.25 96.75 120.71 158.66 228.87 138.26 108.15-20.39 181.03-115.36 162.79-212.12z" style="stroke-linejoin:round;stroke-width:2.5;stroke-linecap:round;fill:none;stroke-opacity:.69804;stroke:#00f"/><path d="m770.69 304.25c-11.13-163.19-179.4-284.623-375.84-271.23-196.44 13.394-346.662 156.54-335.536 319.73 11.127 163.19 179.396 284.62 375.836 271.23 196.44-13.39 346.66-156.54 335.54-319.73z" style="stroke-linejoin:round;stroke-width:2.5;stroke-linecap:round;fill:none;stroke-opacity:.69804;stroke:#006400"/><path d="m51.297-32.906h-33v25.906h20.906q.594 0 1.797-.0469 1.203-.0469 1.797-.0469h12.609v7.0938h-45.9998v-69.094h44.5938v6.5h-18.297q-.609 0-1.805-.054-1.195-.055-1.804-.055h-13.797v23.703h33z" fill="#f00" transform="matrix(.36 0 0 .36 528 144)"/><path d="m17.406-18.797l7.688-7.109q3-3.094 4.453-4.641 1.453-1.547 3.453-4.351 2-2.805 2.852-5.5.851-2.696.851-5.696 0-6.203-3.898-10.758-3.899-4.554-10.602-4.554-6.109 0-9.055 4.101-2.945 4.102-4.8511 11.399-1.7031-2.5-2.2031-2.891-.0938-.109-.6407-.859-.5469-.75-1.25-1.75 4.5938-16.391 19.3909-16.391 9.609 0 15.461 6.25 5.851 6.25 5.851 15.25 0 3.891-1.75 7.641-1.75 3.75-3.351 5.601-1.602 1.852-4.805 5.055-1 .906-4.453 3.906-3.453 3-4.453 3.891-.688.609-6.344 6.109-5.656 5.5002-7.547 7.094h10.891q.609 0 1.804-.0469 1.196-.0469 1.805-.0469h18.203v7.0938h-39.906v-6.4062z" fill="#f00" transform="matrix(.252 0 0 .252 549.5 149.4)"/><path d="m51.297-32.906h-33v25.906h20.906q.594 0 1.797-.0469 1.203-.0469 1.797-.0469h12.609v7.0938h-45.9998v-69.094h44.5938v6.5h-18.297q-.609 0-1.805-.054-1.195-.055-1.804-.055h-13.797v23.703h33z" fill="#00f" transform="matrix(.36 0 0 .36 188 169)"/><path d="m29.906-67.797v62.0001h12.5v5.7969h-32.906v-5.7969h12.5v-52.0001q-5.094 2.203-13.0938 2.391v-5.797q13.0938-.5 18.9998-6.594z" fill="#00f" transform="matrix(.252 0 0 .252 209.5 174.4)"/><path d="m67.703-16.203l0 0-3.297 16.203h-15.906q-2.203 0-2.5-.70312-.094-.39068-.094-1.39068 0-6.9062 4.688-20.1092 4.906-13.797 5.5-20.297.109-1.5.109-3 0-13.203-9.203-19.406-5-3.391-11-3.391-8.5 0-14.406 6.297v.094q-5.688 6.203-5.688 16.406 0 7.703 4.891 21.203 5.406 15.0001 5.406 22.2032 0 1.68755-.703 2.00005l0 0h-.094q-.406.09375-1.703.09375h-15.9999l-3.2969-16.203h2.5q1 5.203 1.7969 7.4061.5 1.5 1.7969 1.8907 1.297.4062 4.797.4062h8q-1.297-5.5-7.391-14.703l-.609-1q-.297-.391-.891-1.297-7.2029-10.797-8.406-17.703-.4062-2.094-.4062-4.203 0-10.391 8.9062-17.688 8.797-7.406 21.594-7.406 13.5 0 22.5 8.203 7.906 7.094 7.906 16.891 0 8.109-7 19.203l0 0-.094.109-.109.094-1.594 2.5q-6.797 10-8.406 15.2031-.297.8907-.5 1.7969h8q5.5 0 6.297-1.5l.312-.9062q.797-2.1878 1.797-7.2968z" fill="#006400" transform="matrix(.36 0 0 .36 143 107.6)"/><path d="m430.61 323.22v2.78h-15.61q-.03-1.05.34-2.02.6-1.59 1.91-3.14 1.31-1.54 3.8-3.57 3.84-3.16 5.19-5 1.35-1.85 1.35-3.49 0-1.73-1.22-2.91-1.23-1.18-3.21-1.18-2.1 0-3.36 1.26-1.25 1.25-1.27 3.47l-2.98-.31q.31-3.33 2.3-5.08 1.99-1.75 5.37-1.75 3.39 0 5.37 1.88 1.99 1.89 1.99 4.68 0 1.41-.58 2.78-.58 1.38-1.92 2.9-1.35 1.51-4.47 4.15-2.61 2.19-3.35 2.97-.74.78-1.23 1.58z"/><path d="m619.3 255h-2.91v-18.48q-1.05 1-2.74 2-1.7 1-3.06 1.5v-2.82q2.44-1.14 4.26-2.76 1.82-1.63 2.57-3.16h1.88z"/><path d="m569.39 403.77l2.89-.39q.5 2.46 1.7 3.55 1.21 1.09 2.93 1.09 2.04 0 3.46-1.42 1.41-1.41 1.41-3.51 0-2-1.3-3.29-1.31-1.3-3.32-1.3-.83 0-2.05.31l.31-2.54q.3.03.47.03 1.86 0 3.34-.96 1.49-.96 1.49-2.98 0-1.59-1.09-2.64-1.08-1.05-2.79-1.05-1.68 0-2.81 1.06-1.12 1.07-1.45 3.19l-2.91-.51q.53-2.93 2.42-4.53 1.89-1.6 4.69-1.6 1.94 0 3.56.83 1.63.83 2.49 2.27.86 1.43.86 3.04 0 1.53-.82 2.79-.82 1.26-2.43 1.99 2.09.49 3.26 2.01 1.16 1.52 1.16 3.81 0 3.09-2.26 5.25-2.26 2.15-5.71 2.15-3.11 0-5.16-1.85-2.06-1.85-2.34-4.8z"/><path d="m243.67 279v-5.66h-10.25v-2.65l10.78-15.31h2.36v15.31h3.21v2.65h-3.21v5.66zm0-8.31v-10.66l-7.4 10.66z"/><path d="m259.42 397.16l-2.89.23q-.37-1.7-1.09-2.48-1.17-1.24-2.89-1.24-1.39 0-2.44.77-1.38 1-2.16 2.91-.79 1.92-.83 5.46 1.05-1.59 2.57-2.36 1.51-.78 3.17-.78 2.91 0 4.94 2.14 2.04 2.14 2.04 5.52 0 2.22-.96 4.13-.96 1.92-2.64 2.93-1.68 1.02-3.8 1.02-3.63 0-5.92-2.68-2.29-2.67-2.29-8.78 0-6.86 2.54-9.97 2.21-2.7 5.95-2.7 2.78 0 4.56 1.56 1.78 1.57 2.14 4.32zm-11.84 10.18q0 1.5.63 2.87.63 1.37 1.78 2.09 1.15.72 2.4.72 1.84 0 3.16-1.49 1.33-1.48 1.33-4.03 0-2.44-1.31-3.85-1.3-1.42-3.29-1.42-1.97 0-3.33 1.42-1.37 1.41-1.37 3.69z"/><path d="m417.38 553.81l3.04-.26q.33 2.23 1.56 3.35 1.24 1.12 2.97 1.12 2.1 0 3.55-1.58 1.45-1.58 1.45-4.19 0-2.48-1.39-3.91-1.39-1.43-3.65-1.43-1.39 0-2.53.63-1.13.63-1.77 1.65l-2.72-.36 2.28-12.13h11.75v2.77h-9.42l-1.28 6.34q2.12-1.47 4.47-1.47 3.09 0 5.22 2.14 2.12 2.14 2.12 5.5 0 3.22-1.87 5.55-2.27 2.88-6.21 2.88-3.22 0-5.25-1.81-2.04-1.8-2.32-4.79z"/></g></svg>