<svg xmlns="http://www.w3.org/2000/svg" width="576.1" height="365.58" viewBox="0 0 559 355" xmlns:xlink="http://www.w3.org/1999/xlink"><defs><clipPath id="0"><path d="m0 0v356h561v-356z"/></clipPath></defs><g stroke-miterlimit="10" stroke-linecap="square"><g clip-path="url(#0)"><path d="m33.3 2v354" stroke-linecap="butt" fill="none" stroke="#000"/></g><g clip-path="url(#0)"><path d="m33.3 1l-3 3" stroke-linecap="butt" fill="none" stroke="#000"/></g><g clip-path="url(#0)"><path d="m33.3 1l3 3" stroke-linecap="butt" fill="none" stroke="#000"/></g><g clip-path="url(#0)"><path d="m0 334.78h559" stroke-linecap="butt" fill="none" stroke="#000"/></g><g clip-path="url(#0)"><path d="m560 334.78l-3-3" stroke-linecap="butt" fill="none" stroke="#000"/></g><g clip-path="url(#0)"><path d="m560 334.78l-3 3" stroke-linecap="butt" fill="none" stroke="#000"/></g><g clip-path="url(#0)"><text font-style="italic" font-family="serif" font-size="10" x="0" y="0" transform="translate(39 348)">0</text></g><g clip-path="url(#0)"><path d="m33.3 334.78v3" stroke-linecap="butt" fill="none" stroke="#000"/></g><g clip-path="url(#0)"><text font-style="italic" font-family="serif" font-size="10" x="0" y="0" transform="translate(100 348)">1</text></g><g clip-path="url(#0)"><path d="m102.31 334.78v3" stroke-linecap="butt" fill="none" stroke="#000"/></g><g clip-path="url(#0)"><text font-style="italic" font-family="serif" font-size="10" x="0" y="0" transform="translate(169 348)">2</text></g><g clip-path="url(#0)"><path d="m171.32 334.78v3" stroke-linecap="butt" fill="none" stroke="#000"/></g><g clip-path="url(#0)"><text font-style="italic" font-family="serif" font-size="10" x="0" y="0" transform="translate(238 348)">3</text></g><g clip-path="url(#0)"><path d="m240.33 334.78v3" stroke-linecap="butt" fill="none" stroke="#000"/></g><g clip-path="url(#0)"><text font-style="italic" font-family="serif" font-size="10" x="0" y="0" transform="translate(307 348)">4</text></g><g clip-path="url(#0)"><path d="m309.34 334.78v3" stroke-linecap="butt" fill="none" stroke="#000"/></g><g clip-path="url(#0)"><text font-style="italic" font-family="serif" font-size="10" x="0" y="0" transform="translate(376 348)">5</text></g><g clip-path="url(#0)"><path d="m378.35 334.78v3" stroke-linecap="butt" fill="none" stroke="#000"/></g><g clip-path="url(#0)"><text font-style="italic" font-family="serif" font-size="10" x="0" y="0" transform="translate(445 348)">6</text></g><g clip-path="url(#0)"><path d="m447.36 334.78v3" stroke-linecap="butt" fill="none" stroke="#000"/></g><g clip-path="url(#0)"><text font-style="italic" font-family="serif" font-size="10" x="0" y="0" transform="translate(514 348)">7</text></g><g clip-path="url(#0)"><path d="m516.37 334.78v3" stroke-linecap="butt" fill="none" stroke="#000"/></g><g clip-path="url(#0)"><text font-style="italic" font-family="serif" font-size="10" x="0" y="0" transform="translate(21 332)">0</text></g><g clip-path="url(#0)"><text font-style="italic" font-family="serif" font-size="10" x="0" y="0" transform="translate(16 311)">10</text></g><g clip-path="url(#0)"><path d="m30.3 307.18h3" stroke-linecap="butt" fill="none" stroke="#000"/></g><g clip-path="url(#0)"><text font-style="italic" font-family="serif" font-size="10" x="0" y="0" transform="translate(16 283)">20</text></g><g clip-path="url(#0)"><path d="m30.3 279.57h3" stroke-linecap="butt" fill="none" stroke="#000"/></g><g clip-path="url(#0)"><text font-style="italic" font-family="serif" font-size="10" x="0" y="0" transform="translate(16 255)">30</text></g><g clip-path="url(#0)"><path d="m30.3 251.97h3" stroke-linecap="butt" fill="none" stroke="#000"/></g><g clip-path="url(#0)"><text font-style="italic" font-family="serif" font-size="10" x="0" y="0" transform="translate(16 228)">40</text></g><g clip-path="url(#0)"><path d="m30.3 224.37h3" stroke-linecap="butt" fill="none" stroke="#000"/></g><g clip-path="url(#0)"><text font-style="italic" font-family="serif" font-size="10" x="0" y="0" transform="translate(16 200)">50</text></g><g clip-path="url(#0)"><path d="m30.3 196.76h3" stroke-linecap="butt" fill="none" stroke="#000"/></g><g clip-path="url(#0)"><text font-style="italic" font-family="serif" font-size="10" x="0" y="0" transform="translate(16 173)">60</text></g><g clip-path="url(#0)"><path d="m30.3 169.16h3" stroke-linecap="butt" fill="none" stroke="#000"/></g><g clip-path="url(#0)"><text font-style="italic" font-family="serif" font-size="10" x="0" y="0" transform="translate(16 145)">70</text></g><g clip-path="url(#0)"><path d="m30.3 141.56h3" stroke-linecap="butt" fill="none" stroke="#000"/></g><g clip-path="url(#0)"><text font-style="italic" font-family="serif" font-size="10" x="0" y="0" transform="translate(16 117)">80</text></g><g clip-path="url(#0)"><path d="m30.3 113.95h3" stroke-linecap="butt" fill="none" stroke="#000"/></g><g clip-path="url(#0)"><text font-style="italic" font-family="serif" font-size="10" x="0" y="0" transform="translate(16 90)">90</text></g><g clip-path="url(#0)"><path d="m30.3 86.35h3" stroke-linecap="butt" fill="none" stroke="#000"/></g><g clip-path="url(#0)"><text font-style="italic" font-family="serif" font-size="10" x="0" y="0" transform="translate(10 62)">100</text></g><g clip-path="url(#0)"><path d="m30.3 58.745h3" stroke-linecap="butt" fill="none" stroke="#000"/></g><g clip-path="url(#0)"><text font-style="italic" font-family="serif" font-size="10" x="0" y="0" transform="translate(10 35)">110</text></g><g clip-path="url(#0)"><path d="m30.3 31.14h3" stroke-linecap="butt" fill="none" stroke="#000"/></g><g clip-path="url(#0)"><path d="m102.31 0v334.78" stroke-linejoin="round" stroke-linecap="round" fill="none" stroke="#c0c0c0"/></g><g clip-path="url(#0)"><path d="m102.31 353.78v2.22" stroke-linejoin="round" stroke-linecap="round" fill="none" stroke="#c0c0c0"/></g><g clip-path="url(#0)"><path d="m171.32 0v334.78" stroke-linejoin="round" stroke-linecap="round" fill="none" stroke="#c0c0c0"/></g><g clip-path="url(#0)"><path d="m171.32 353.78v2.22" stroke-linejoin="round" stroke-linecap="round" fill="none" stroke="#c0c0c0"/></g><g clip-path="url(#0)"><path d="m240.33 0v334.78" stroke-linejoin="round" stroke-linecap="round" fill="none" stroke="#c0c0c0"/></g><g clip-path="url(#0)"><path d="m240.33 353.78v2.22" stroke-linejoin="round" stroke-linecap="round" fill="none" stroke="#c0c0c0"/></g><g clip-path="url(#0)"><path d="m309.34 0v334.78" stroke-linejoin="round" stroke-linecap="round" fill="none" stroke="#c0c0c0"/></g><g clip-path="url(#0)"><path d="m309.34 353.78v2.22" stroke-linejoin="round" stroke-linecap="round" fill="none" stroke="#c0c0c0"/></g><g clip-path="url(#0)"><path d="m378.35 0v334.78" stroke-linejoin="round" stroke-linecap="round" fill="none" stroke="#c0c0c0"/></g><g clip-path="url(#0)"><path d="m378.35 353.78v2.22" stroke-linejoin="round" stroke-linecap="round" fill="none" stroke="#c0c0c0"/></g><g clip-path="url(#0)"><path d="m447.36 0v334.78" stroke-linejoin="round" stroke-linecap="round" fill="none" stroke="#c0c0c0"/></g><g clip-path="url(#0)"><path d="m447.36 353.78v2.22" stroke-linejoin="round" stroke-linecap="round" fill="none" stroke="#c0c0c0"/></g><g clip-path="url(#0)"><path d="m516.37 0v334.78" stroke-linejoin="round" stroke-linecap="round" fill="none" stroke="#c0c0c0"/></g><g clip-path="url(#0)"><path d="m516.37 353.78v2.22" stroke-linejoin="round" stroke-linecap="round" fill="none" stroke="#c0c0c0"/></g><g clip-path="url(#0)"><path d="m0 3.537h561" stroke-linejoin="round" stroke-linecap="round" fill="none" stroke="#c0c0c0" id="1"/></g><g clip-path="url(#0)"><use xlink:href="#1"/></g><g clip-path="url(#0)"><path d="m0 31.14h6.619" stroke-linejoin="round" stroke-linecap="round" fill="none" stroke="#c0c0c0"/></g><g clip-path="url(#0)"><path d="m33.3 31.14h527.7" stroke-linejoin="round" stroke-linecap="round" fill="none" stroke="#c0c0c0"/></g><g clip-path="url(#0)"><path d="m0 58.745h6.619" stroke-linejoin="round" stroke-linecap="round" fill="none" stroke="#c0c0c0"/></g><g clip-path="url(#0)"><path d="m33.3 58.745h527.7" stroke-linejoin="round" stroke-linecap="round" fill="none" stroke="#c0c0c0"/></g><g clip-path="url(#0)"><path d="m0 86.35h6.619" stroke-linejoin="round" stroke-linecap="round" fill="none" stroke="#c0c0c0"/></g><g clip-path="url(#0)"><path d="m33.3 86.35h527.7" stroke-linejoin="round" stroke-linecap="round" fill="none" stroke="#c0c0c0"/></g><g clip-path="url(#0)"><path d="m0 113.95h6.619" stroke-linejoin="round" stroke-linecap="round" fill="none" stroke="#c0c0c0"/></g><g clip-path="url(#0)"><path d="m33.3 113.95h527.7" stroke-linejoin="round" stroke-linecap="round" fill="none" stroke="#c0c0c0"/></g><g clip-path="url(#0)"><path d="m0 141.56h6.619" stroke-linejoin="round" stroke-linecap="round" fill="none" stroke="#c0c0c0"/></g><g clip-path="url(#0)"><path d="m33.3 141.56h527.7" stroke-linejoin="round" stroke-linecap="round" fill="none" stroke="#c0c0c0"/></g><g clip-path="url(#0)"><path d="m0 169.16h6.619" stroke-linejoin="round" stroke-linecap="round" fill="none" stroke="#c0c0c0"/></g><g clip-path="url(#0)"><path d="m33.3 169.16h527.7" stroke-linejoin="round" stroke-linecap="round" fill="none" stroke="#c0c0c0"/></g><g clip-path="url(#0)"><path d="m0 196.76h6.619" stroke-linejoin="round" stroke-linecap="round" fill="none" stroke="#c0c0c0"/></g><g clip-path="url(#0)"><path d="m33.3 196.76h527.7" stroke-linejoin="round" stroke-linecap="round" fill="none" stroke="#c0c0c0"/></g><g clip-path="url(#0)"><path d="m0 224.37h6.619" stroke-linejoin="round" stroke-linecap="round" fill="none" stroke="#c0c0c0"/></g><g clip-path="url(#0)"><path d="m33.3 224.37h527.7" stroke-linejoin="round" stroke-linecap="round" fill="none" stroke="#c0c0c0"/></g><g clip-path="url(#0)"><path d="m0 251.97h6.619" stroke-linejoin="round" stroke-linecap="round" fill="none" stroke="#c0c0c0"/></g><g clip-path="url(#0)"><path d="m33.3 251.97h527.7" stroke-linejoin="round" stroke-linecap="round" fill="none" stroke="#c0c0c0"/></g><g clip-path="url(#0)"><path d="m0 279.57h6.619" stroke-linejoin="round" stroke-linecap="round" fill="none" stroke="#c0c0c0"/></g><g clip-path="url(#0)"><path d="m33.3 279.57h527.7" stroke-linejoin="round" stroke-linecap="round" fill="none" stroke="#c0c0c0"/></g><g clip-path="url(#0)"><path d="m0 307.18h6.619" stroke-linejoin="round" stroke-linecap="round" fill="none" stroke="#c0c0c0"/></g><g clip-path="url(#0)"><path d="m33.3 307.18h527.7" stroke-linejoin="round" stroke-linecap="round" fill="none" stroke="#c0c0c0"/></g><g><g clip-path="url(#0)"><path d="m33.3 141.56l1.758-2.75m0 0l4.383-6.28 4.383-5.59 4.383-5 4.383-4.51 4.383-4.08 4.382-3.71 4.383-3.39 4.383-3.11m0 0l4.383-2.86 4.383-2.648 4.382-2.449 4.383-2.276 4.383-2.119 4.383-1.978 4.378-1.852 4.39-1.736 4.38-1.632 4.38-1.536 4.39-1.448 4.38-1.369 4.38-1.295 4.38-1.226 4.39-1.165 4.38-1.106m0 0l4.38-1.052 4.39-1 4.38-.956 4.38-.913 4.38-.872 4.39-.834 4.38-.799 4.38-.766 4.39-.735 4.38-.705 4.38-.678 4.38-.652 4.39-.627 4.38-.604 4.38-.583 4.39-.561 4.38-.542 4.38-.523 4.38-.506 4.39-.488 4.38-.473 4.38-.458 4.38-.443 4.39-.429 4.38-.416 4.38-.403 4.39-.392 4.38-.38 4.38-.369 4.38-.358 4.39-.348 4.38-.339m0 0l4.38-.33 4.39-.32 4.38-.312 4.38-.304 4.38-.296 4.39-.288 4.38-.281 4.38-.274 4.39-.268 4.38-.26 4.38-.255 4.38-.248 4.39-.243 4.38-.237 4.38-.232 4.38-.226 4.39-.221 4.38-.217 4.38-.211 4.39-.207 4.38-.203 4.38-.198 4.38-.194 4.39-.19 4.38-.186 4.38-.183 4.39-.178 4.38-.175 4.38-.172 4.38-.168 4.39-.165 4.38-.162 4.38-.159 4.39-.156 4.38-.152 4.38-.151 4.38-.147 4.39-.144 4.38-.142 4.38-.14 4.39-.137 4.38-.134 4.38-.133 4.38-.13 4.39-.128 4.38-.125 4.38-.124 4.39-.121 4.38-.12 4.38-.117 4.38-.116 4.39-.113 4.38-.112 4.38-.11 4.38-.109 4.39-.106 4.38-.105 4.38-.104 4.39-.102 4.38-.1 4.38-.099 4.38-.097 4.39-.096 4.38-.095" stroke-linejoin="round" stroke-width="1.5" stroke-linecap="round" fill="none" stroke="#00f"/></g><g clip-path="url(#0)"><text font-style="italic" font-family="serif" font-size="12" x="0" y="0" transform="translate(502 327)">t (heures)</text></g><g clip-path="url(#0)"><text font-style="italic" font-family="serif" font-size="12" x="0" y="0" transform="translate(39 26)">V (km/h)</text></g></g></g></svg>