<?xml version="1.0" encoding="UTF-8" standalone="no"?>
<!DOCTYPE svg PUBLIC "-//W3C//DTD SVG 1.1//EN"
"http://www.w3.org/Graphics/SVG/1.1/DTD/svg11.dtd">


<!-- Page 1 -->
<svg x="0" y="0" width="738" height="1002" viewBox="0 0 738 1002" version="1.1" xmlns="http://www.w3.org/2000/svg" xmlns:xlink="http://www.w3.org/1999/xlink"
style="display: block;margin-left: auto;margin-right: auto;">
<defs>

<style type="text/css"><![CDATA[

.g5_1{
fill: none;
stroke: #000000;
stroke-width: 2;
stroke-linecap: square;
stroke-linejoin: miter;
}
.g3_1{
fill: none;
stroke: #000000;
stroke-width: 1;
stroke-linecap: square;
stroke-linejoin: miter;
}
.g2_1{
fill: none;
stroke: #000000;
stroke-width: 1;
stroke-linecap: butt;
stroke-linejoin: miter;
}
.g4_1{
}
.g1_1{
fill: #FFFFFF;
}

.s22_1{
font-size: 18.31px;
font-family: TimesNewRomanPS-ItalicMT_20;
fill: #000000;
}
.s8_1{
font-size: 12.27px;
font-family: TimesNewRomanPSMT_1-;
fill: #000000;
}
.s10_1{
font-size: 18.58px;
font-family: TimesNewRomanPS-ItalicMT_20;
fill: #000000;
}
.s21_1{
font-size: 18.31px;
font-family: SymbolMT_1t;
fill: #000000;
}
.s19_1{
font-size: 18.31px;
font-family: TimesNewRomanPSMT_1-;
fill: #000000;
}
.s15_1{
font-size: 18.38px;
font-family: TimesNewRomanPSMT_1-;
fill: #000000;
}
.s16_1{
font-size: 18.38px;
font-family: TimesNewRomanPS-ItalicMT_20;
fill: #000000;
}
.s4_1{
font-size: 12.28px;
font-family: TimesNewRomanPSMT_1-;
fill: #000000;
}
.s17_1{
font-size: 18.38px;
font-family: SymbolMT_1t;
fill: #000000;
}
.s1_1{
font-size: 24.38px;
font-family: ArialMT_1y;
fill: #333333;
}
.s9_1{
font-size: 17.82px;
font-family: TimesNewRomanPS-ItalicMT_20;
fill: #000000;
}
.s18_1{
font-size: 10.72px;
font-family: TimesNewRomanPSMT_1-;
fill: #000000;
}
.s11_1{
font-size: 18.42px;
font-family: TimesNewRomanPS-ItalicMT_20;
fill: #000000;
}
.s20_1{
font-size: 10.68px;
font-family: TimesNewRomanPSMT_1-;
fill: #000000;
}
.s12_1{
font-size: 18.42px;
font-family: SymbolMT_1t;
fill: #000000;
}
.s14_1{
font-size: 10.74px;
font-family: TimesNewRomanPSMT_1-;
fill: #000000;
}
.s13_1{
font-size: 18.42px;
font-family: TimesNewRomanPSMT_1-;
fill: #000000;
}
.s6_1{
font-size: 18.41px;
font-family: TimesNewRomanPS-ItalicMT_20;
fill: #000000;
}
.s3_1{
font-size: 18.33px;
font-family: TimesNewRomanPS-ItalicMT_20;
fill: #000000;
}
.s7_1{
font-size: 18.41px;
font-family: TimesNewRomanPSMT_1-;
fill: #000000;
}
.s5_1{
font-size: 18.33px;
font-family: TimesNewRomanPSMT_1o;
fill: #000000;
}
.s2_1{
font-size: 18.33px;
font-family: TimesNewRomanPSMT_1-;
fill: #000000;
}

]]></style>

</defs>
<path d="M0,0
L0,1002
L738,1002
L738,0 Z " 
fill="#FFFFFF" stroke="none" />
<path fill-rule="evenodd" d="M75,34l571,0L646,6L75,6l0,28Z" class="g1_1" />
<text 
x="75" 
y="28" 
dx="0,-0.1,0,0,0,0.2,-0.1,0,0,0,0,0.2,0,0,-0.1,0,0,0,0,0,0,0,0,0,0.2,0,0,0,0,0,0,0,0,0,0,0,0.2,0" 
class="s1_1"
>QCM NOMBRES COMPLEXES – BAC S CENTRES </text>

<path fill-rule="evenodd" d="M254,62l213,0l0,-28L254,34l0,28Z" class="g1_1" />
<text 
x="254" 
y="57" 
dx="0,0.1,0,0,0.1,0.2,-0.1,0.1,0,0.1,0,0,0.2,0" 
class="s1_1"
>ÉTRANGERS 2009</text>

<text 
x="14" 
y="100" 
dx="0,0,-0.1,0,-0.1,-0.1,0,0.2,0" 
class="s2_1"
>1) Faux. </text>

<path d="M34.5,103.5l41,0" class="g2_1" />
<text 
x="14" 
y="121" 
dx="0,0,0,0,-0.1,-0.1,-0.1,-0.1,0,0,0,0,0" 
class="s2_1"
>En effet, si </text>

<text 
x="99" 
y="121" 
dx="0" 
class="s3_1"
>z</text>

<text 
x="110" 
y="121" 
dx="0,-0.1" 
class="s2_1"
>= </text>

<text 
x="125" 
y="121" 
dx="0" 
class="s3_1"
>a</text>

<text 
x="139" 
y="121" 
dx="0,-0.1,0" 
class="s2_1"
>+ i</text>

<text 
x="159" 
y="121" 
dx="0" 
class="s3_1"
>b</text>

<text 
x="173" 
y="121" 
dx="0,0,0,0.2,-0.1" 
class="s2_1"
>on a </text>

<text 
x="209" 
y="121" 
dx="0" 
class="s3_1"
>z</text>

<text 
x="216" 
y="114" 
dx="0" 
class="s4_1"
>2</text>

<text 
x="227" 
y="121" 
dx="0,-0.1" 
class="s2_1"
>= </text>

<text 
x="241" 
y="121" 
dx="0" 
class="s3_1"
>a</text>

<text 
x="251" 
y="114" 
dx="0" 
class="s4_1"
>2</text>

<text 
x="261" 
y="121" 
dx="0,0" 
class="s2_1"
>– </text>

<text 
x="275" 
y="121" 
dx="0" 
class="s3_1"
>b</text>

<text 
x="284" 
y="114" 
dx="0" 
class="s4_1"
>2</text>

<text 
x="295" 
y="121" 
dx="0,-0.1,0,0" 
class="s2_1"
>+ i2</text>

<text 
x="324" 
y="121" 
dx="0,0" 
class="s3_1"
>ab</text>

<text 
x="343" 
y="121" 
dx="0,0,0,-0.1,0,0,-0.2,0,0,-0.1,0,0" 
class="s2_1"
>, et donc : </text>

<text 
x="14" 
y="142" 
dx="0,0.1,-0.1" 
class="s2_1"
>Re(</text>

<text 
x="41" 
y="142" 
dx="0" 
class="s3_1"
>z</text>

<text 
x="48" 
y="135" 
dx="0" 
class="s4_1"
>2</text>

<text 
x="54" 
y="142" 
dx="0,-0.1,0,-0.1" 
class="s2_1"
>) = </text>

<text 
x="80" 
y="142" 
dx="0" 
class="s3_1"
>a</text>

<text 
x="89" 
y="135" 
dx="0" 
class="s4_1"
>2</text>

<text 
x="100" 
y="142" 
dx="0,0" 
class="s2_1"
>– </text>

<text 
x="113" 
y="142" 
dx="0" 
class="s3_1"
>b</text>

<text 
x="122" 
y="135" 
dx="0" 
class="s4_1"
>2</text>

<text 
x="133" 
y="142" 
dx="0,-0.1,0,0,-0.1,0.1,-0.1" 
class="s2_1"
>et [Re(</text>

<text 
x="183" 
y="142" 
dx="0" 
class="s3_1"
>z</text>

<text 
x="191" 
y="142" 
dx="0,-0.1" 
class="s2_1"
>)]</text>

<text 
x="203" 
y="135" 
dx="0" 
class="s4_1"
>2</text>

<text 
x="214" 
y="142" 
dx="0,-0.1" 
class="s2_1"
>= </text>

<text 
x="229" 
y="142" 
dx="0" 
class="s3_1"
>a</text>

<text 
x="238" 
y="135" 
dx="0" 
class="s4_1"
>2</text>

<text 
x="244" 
y="142" 
dx="0,-0.2" 
class="s2_1"
>. </text>

<text 
x="14" 
y="163" 
dx="0,0,0,0,-0.1,0,0,-0.1,0,0,-0.1,0,0,0,0,0,0,0,0,0,0,0,0,-0.1,0,0.2,0,0,-0.1,-0.1,0,-0.1,0,0,0,-0.1,0,0,0,0,0,-0.1,0,0.2,-0.1,-0.1,0,0,-0.1,0,0,0,0.1,-0.2,0,0,-0.1,0,0.1,-0.1" 
class="s2_1"
>Donc la proposition n'est vraie que si la partie imaginaire </text>

<text 
x="438" 
y="163" 
dx="0" 
class="s3_1"
>b</text>

<text 
x="452" 
y="163" 
dx="0,0,-0.1" 
class="s2_1"
>de </text>

<text 
x="474" 
y="163" 
dx="0" 
class="s3_1"
>z</text>

<text 
x="485" 
y="163" 
dx="0,-0.1,0,0,0,0,0,0,0,-0.1,0,0,0.2,0,0,-0.1,0,-0.1,0,0,0,-0.1,-0.1,0,0,0,-0.1,0,0,-0.1,0,0" 
class="s2_1"
>est nulle. Elle est fausse dans </text>

<text 
x="14" 
y="184" 
dx="0,0,0,0,0,0,0,-0.1,0,0,-0.1,0,0,-0.1,-0.1,0,0,-0.1,-0.1,0,0.2" 
class="s2_1"
>tous les autres cas. </text>

<text 
x="14" 
y="205" 
dx="0,0.1,-0.1,-0.1,0,-0.1,0.2,-0.1,0,0,0,-0.1,0,0,0,0" 
class="s2_1"
>Par exemple, si </text>

<text 
x="131" 
y="205" 
dx="0" 
class="s3_1"
>z</text>

<text 
x="143" 
y="205" 
dx="0,-0.1,0,0,0,-0.1,0,0,0,0,0,-0.1,0,0,-0.1,0,0,0.1,-0.1" 
class="s2_1"
>= 3 + 2i, alors Re(</text>

<text 
x="277" 
y="205" 
dx="0" 
class="s3_1"
>z</text>

<text 
x="284" 
y="198" 
dx="0" 
class="s4_1"
>2</text>

<text 
x="290" 
y="205" 
dx="0,-0.1,0,-0.1,0,0,0.2,-0.2,0,0.1,0.1,-0.1" 
class="s5_1"
>) = 5 ≠ [Re(</text>

<text 
x="377" 
y="205" 
dx="0" 
class="s3_1"
>z</text>

<text 
x="384" 
y="205" 
dx="0,-0.1" 
class="s2_1"
>)]</text>

<text 
x="396" 
y="198" 
dx="0" 
class="s4_1"
>2</text>

<text 
x="407" 
y="205" 
dx="0,-0.1,0,0,-0.2" 
class="s2_1"
>= 9. </text>

<text 
x="14" 
y="247" 
dx="0,0,-0.1,0,0,-0.1,-0.1,0,0" 
class="s2_1"
>2) Vrai. </text>

<path d="M34.5,250.5l37,0" class="g2_1" />
<text 
x="14" 
y="289" 
dx="0,0.1,0,0,0,-0.1,0,0,0,0,0,0,0,0,0,0,0,0,0,0,-0.1,0,0,0.1,0,0,-0.2,-0.1,0,0,-0.1,-0.1,0,0,0,-0.1,0,-0.1,0,0,0,0.2,-0.2,0.1,-0.1,-0.1,0,0.2,-0.1" 
class="s2_1"
>Si les points M, N et P, respectivement d'affixe </text>

<text 
x="367" 
y="289" 
dx="0" 
class="s6_1"
>z</text>

<text 
x="374" 
y="289" 
dx="0" 
class="s7_1"
>,</text>

<path d="M383.5,278.5l7,0" class="g3_1" />
<text 
x="383" 
y="289" 
dx="0,-0.1" 
class="s6_1"
>z </text>

<text 
x="395" 
y="289" 
dx="0,0.1" 
class="s7_1"
>et</text>

<text 
x="416" 
y="277" 
dx="0" 
class="s6_1"
>z</text>

<text 
x="424" 
y="268" 
dx="0" 
class="s8_1"
>2</text>

<path d="M420.5,291.5l7,0" class="g3_1" />
<text 
x="419" 
y="302" 
dx="0,-0.1" 
class="s6_1"
>z </text>

<path d="M414.5,283.5l18,0" class="g3_1" />
<text 
x="435" 
y="289" 
dx="0,0,0,0,0,0,0,0,0,0,-0.1,0,0,0,0,0,-0.1,0,-0.1,0,-0.1,-0.1,0.1,-0.1,0,-0.1,0,0.1,-0.1,0,0,-0.1,-0.1,0,0,0,-0.1" 
class="s2_1"
>, sont sur un même cercle centré sur </text>

<text 
x="14" 
y="322" 
dx="0" 
class="s3_1"
>O</text>

<text 
x="27" 
y="322" 
dx="0,0,0,-0.1,0,0,-0.1,0,0,0,-0.1,0,-0.1,0,0,0,0,0,0,0,-0.1,0,0,0,0.2,0,0,0,-0.1,0,-0.1,0,0.2,0,0,0.1,-0.2,-0.1,0,0,0,0,-0.1,-0.1,0,0,0,0,0,-0.1" 
class="s2_1"
>, alors leurs modules sont égaux. C'est vrai pour </text>

<text 
transform="matrix(1.04, 0, 0, 1, 387, 322)"
dx="0" 
class="s9_1"
>z</text>

<text 
x="401" 
y="322" 
dx="0,-0.1,0,0,0,0,0,0,-0.1,0,0,0,0,-0.2,0.2,-0.1" 
class="s2_1"
>et son conjugué </text>

<path d="M524.5,311.5l7,0" class="g3_1" />
<text 
transform="matrix(0.96, 0, 0, 1, 523, 322)"
dx="0,-0.1" 
class="s10_1"
>z </text>

<text 
x="534" 
y="322" 
dx="0,0,0,0.1,-0.1,-0.1,0,-0.1,0,0,0,-0.1,0,-0.1,0,0,0,-0.1,0,0,0,0,0,0,-0.1" 
class="s2_1"
>. Par ailleurs le module </text>

<text 
x="14" 
y="343" 
dx="0,0,0,0,-0.1,-0.1,-0.1,0.1,-0.1,0,0.2,-0.2,0,0,0,0,0,0,0,-0.1,-0.1,0.2,-0.1,0.2,0,0,0,-0.1,0.2,-0.1,0,-0.1,0,0,0,-0.1,-0.2,-0.1,0,0,-0.1,0,0.2,-0.1,-0.1,0.1,-0.1,-0.1,0.2,0,-0.1,0,0,0,0,0,0,0,0,0,0,-0.1,0,-0.1,0,0,0,-0.1,0,0,0,0,0,0,-0.1,0,0,0,0,0,0,0,0,0,-0.1,0,0,0,0,-0.1" 
class="s2_1"
>du carré d'un nombre complexe est égal au carré de son module et le module du quotient de </text>

<text 
x="14" 
y="364" 
dx="0,0,-0.1,0,0.2,0,0,0,0,0,-0.1,-0.1,0,0,-0.1,0,0,0,0,-0.1,0.2,-0.1,-0.2,0,-0.1,0,0,0,-0.1,0,-0.1,0,0,-0.1,0,0,0,0,0,0,0,-0.1,0,0,0,0,-0.1,0,0,0.1,0,-0.1,0,0,0,0,0,0,0,-0.1,0,0,0,0.1,-0.1,0,0,0,0,0,0,-0.1,0,0,-0.1,-0.1,0,0,0,0,0,0,-0.1,-0.1,0" 
class="s2_1"
>deux nombres complexes est égal au quotient de leurs modules. Ce qui se traduit par :</text>

<text 
x="20" 
y="415" 
dx="0" 
class="s11_1"
>z</text>

<path d="M18.5,400.5l0,19" class="g3_1" />
<path d="M28.5,400.5l0,19" class="g3_1" />
<text 
x="34" 
y="415" 
dx="0" 
class="s12_1"
>=</text>

<path d="M51.5,404.5l7,0" class="g3_1" />
<text 
x="51" 
y="415" 
dx="0,-0.1" 
class="s11_1"
>z </text>

<path d="M49.5,400.5l0,19" class="g3_1" />
<path d="M60.5,400.5l0,19" class="g3_1" />
<text 
x="65" 
y="415" 
dx="0,0.1" 
class="s13_1"
>et</text>

<text 
x="85" 
y="395" 
dx="0" 
class="s11_1"
>z</text>

<text 
x="94" 
y="387" 
dx="0" 
class="s4_1"
>2</text>

<path d="M84.5,371.5l0,36" class="g3_1" />
<path d="M103.5,371.5l0,36" class="g3_1" />
<path d="M90.5,417.5l7,0" class="g3_1" />
<text 
x="89" 
y="428" 
dx="0,-0.1" 
class="s11_1"
>z </text>

<path d="M88.5,413.5l0,20" class="g3_1" />
<path d="M99.5,413.5l0,20" class="g3_1" />
<path d="M82.5,410.5l22,0" class="g3_1" />
<text 
x="110" 
y="415" 
dx="0" 
class="s12_1"
>=</text>

<text 
x="128" 
y="403" 
dx="0" 
class="s11_1"
>z</text>

<path d="M126.5,387.5l0,20" class="g3_1" />
<path d="M137.5,387.5l0,20" class="g3_1" />
<text 
x="139" 
y="392" 
dx="0" 
class="s14_1"
>2</text>

<text 
x="132" 
y="428" 
dx="0" 
class="s11_1"
>z</text>

<path d="M130.5,413.5l0,20" class="g3_1" />
<path d="M141.5,413.5l0,20" class="g3_1" />
<path d="M124.5,410.5l22,0" class="g3_1" />
<text 
x="152" 
y="415" 
dx="0" 
class="s12_1"
>=</text>

<text 
x="168" 
y="415" 
dx="0" 
class="s11_1"
>z</text>

<path d="M167.5,400.5l0,19" class="g3_1" />
<path d="M177.5,400.5l0,19" class="g3_1" />
<text 
x="184" 
y="415" 
dx="0,0" 
class="s2_1"
>. </text>

<text 
x="14" 
y="451" 
dx="0,-0.2,-0.1,0,0.2,-0.1,0,0,0,0,0,0,0,0,0,0,-0.1,0,0,0,0,0,0,-0.1,0,0.2,-0.1,-0.1,0,-0.1,0,-0.1,-0.1,0.2" 
class="s2_1"
>La proposition est donc vérifiée. </text>

<text 
x="14" 
y="493" 
dx="0,0,-0.1,0,0,-0.1,-0.1,0,0" 
class="s2_1"
>3) Vrai. </text>

<path d="M34,496l37,0l-37,0Z" class="g4_1" />
<text 
x="16" 
y="514" 
dx="0,-0.1,0,0.1,0.1" 
class="s15_1"
>Soit </text>

<text 
x="50" 
y="514" 
dx="0" 
class="s16_1"
>z</text>

<text 
x="62" 
y="514" 
dx="0" 
class="s17_1"
>=</text>

<text 
x="77" 
y="514" 
dx="0" 
class="s16_1"
>a</text>

<text 
x="89" 
y="514" 
dx="0" 
class="s17_1"
>+</text>

<text 
x="102" 
y="514" 
dx="0" 
class="s15_1"
>i</text>

<text 
x="108" 
y="514" 
dx="0" 
class="s16_1"
>b</text>

<text 
x="116" 
y="514" 
dx="0,0,-0.8,0.1,0.1,0,0,0,-1.2" 
class="s15_1"
>, alors i</text>

<text 
x="171" 
y="514" 
dx="0" 
class="s16_1"
>z</text>

<text 
x="183" 
y="514" 
dx="0,0,-0.1" 
class="s17_1"
>= −</text>

<text 
x="207" 
y="514" 
dx="0" 
class="s16_1"
>b</text>

<text 
x="220" 
y="514" 
dx="0" 
class="s17_1"
>+</text>

<text 
x="233" 
y="514" 
dx="0" 
class="s15_1"
>i</text>

<text 
x="240" 
y="514" 
dx="0" 
class="s16_1"
>a</text>

<text 
x="249" 
y="514" 
dx="0" 
class="s15_1"
>.</text>

<text 
x="15" 
y="541" 
dx="0" 
class="s15_1"
>1</text>

<text 
x="26" 
y="541" 
dx="0" 
class="s17_1"
>+</text>

<text 
x="39" 
y="541" 
dx="0" 
class="s15_1"
>i</text>

<text 
x="46" 
y="541" 
dx="0" 
class="s16_1"
>z</text>

<text 
x="58" 
y="541" 
dx="0" 
class="s17_1"
>=</text>

<text 
x="70" 
y="541" 
dx="0" 
class="s15_1"
>1</text>

<text 
x="82" 
y="541" 
dx="0" 
class="s17_1"
>−</text>

<text 
x="95" 
y="541" 
dx="0" 
class="s16_1"
>b</text>

<text 
x="107" 
y="541" 
dx="0" 
class="s17_1"
>+</text>

<text 
x="120" 
y="541" 
dx="0" 
class="s15_1"
>i</text>

<text 
x="127" 
y="541" 
dx="0" 
class="s16_1"
>a</text>

<text 
x="140" 
y="541" 
dx="0,0.1,0,-1.5" 
class="s15_1"
>et 1</text>

<text 
x="168" 
y="541" 
dx="0" 
class="s17_1"
>−</text>

<text 
x="181" 
y="541" 
dx="0" 
class="s15_1"
>i</text>

<text 
x="188" 
y="541" 
dx="0" 
class="s16_1"
>z</text>

<text 
x="200" 
y="541" 
dx="0" 
class="s17_1"
>=</text>

<text 
x="212" 
y="541" 
dx="0" 
class="s15_1"
>1</text>

<text 
x="223" 
y="541" 
dx="0" 
class="s17_1"
>+</text>

<text 
x="236" 
y="541" 
dx="0" 
class="s16_1"
>b</text>

<text 
x="249" 
y="541" 
dx="0" 
class="s17_1"
>−</text>

<text 
x="262" 
y="541" 
dx="0" 
class="s15_1"
>i</text>

<text 
x="269" 
y="541" 
dx="0" 
class="s16_1"
>a</text>

<text 
x="278" 
y="541" 
dx="0" 
class="s15_1"
>.</text>

<text 
x="17" 
y="575" 
dx="0" 
class="s15_1"
>1</text>

<text 
x="28" 
y="575" 
dx="0" 
class="s17_1"
>+</text>

<text 
x="41" 
y="575" 
dx="0" 
class="s15_1"
>i</text>

<text 
x="48" 
y="575" 
dx="0" 
class="s16_1"
>z</text>

<path d="M18.5,560.5l0,20" class="g3_1" />
<path d="M57.5,560.5l0,20" class="g3_1" />
<text 
x="62" 
y="575" 
dx="0" 
class="s17_1"
>=</text>

<text 
x="89" 
y="575" 
dx="0,-1.7" 
class="s15_1"
>(1</text>

<text 
x="104" 
y="575" 
dx="0" 
class="s17_1"
>−</text>

<text 
x="117" 
y="575" 
dx="0" 
class="s16_1"
>b</text>

<text 
x="127" 
y="567" 
dx="0" 
class="s18_1"
>2</text>

<text 
x="134" 
y="575" 
dx="0" 
class="s15_1"
>)</text>

<text 
x="143" 
y="575" 
dx="0" 
class="s17_1"
>+</text>

<text 
x="157" 
y="575" 
dx="0" 
class="s16_1"
>a</text>

<text 
x="167" 
y="567" 
dx="0" 
class="s18_1"
>2</text>

<path d="M77.7,571.3l2.7,-1.4" class="g3_1" />
<path d="M80.8,569.5l3.4,10.8" class="g5_1" />
<path d="M84.6,580.3l4,-24.5" class="g3_1" />
<path d="M88.5,556.5l86,0" class="g3_1" />
<text 
x="180" 
y="575" 
dx="0" 
class="s17_1"
>=</text>

<text 
x="205" 
y="575" 
dx="0" 
class="s15_1"
>1</text>

<text 
x="216" 
y="575" 
dx="0" 
class="s17_1"
>−</text>

<text 
x="229" 
y="575" 
dx="0" 
class="s15_1"
>2</text>

<text 
x="238" 
y="575" 
dx="0" 
class="s16_1"
>b</text>

<text 
x="250" 
y="575" 
dx="0" 
class="s17_1"
>+</text>

<text 
x="263" 
y="575" 
dx="0" 
class="s16_1"
>b</text>

<text 
x="273" 
y="567" 
dx="0" 
class="s18_1"
>2</text>

<text 
x="283" 
y="575" 
dx="0" 
class="s17_1"
>+</text>

<text 
x="297" 
y="575" 
dx="0" 
class="s16_1"
>a</text>

<text 
x="307" 
y="567" 
dx="0" 
class="s18_1"
>2</text>

<path d="M195.5,569.3l2.7,-1.3" class="g3_1" />
<path d="M198.5,567.6l3.5,9.6" class="g5_1" />
<path d="M202.4,577.2l4,-21.4" class="g3_1" />
<path d="M206.5,556.5l108,0" class="g3_1" />
<text 
x="17" 
y="609" 
dx="0" 
class="s15_1"
>1</text>

<text 
x="29" 
y="609" 
dx="0" 
class="s17_1"
>−</text>

<text 
x="42" 
y="609" 
dx="0" 
class="s15_1"
>i</text>

<text 
x="49" 
y="609" 
dx="0" 
class="s16_1"
>z</text>

<path d="M18.5,594.5l0,20" class="g3_1" />
<path d="M57.5,594.5l0,20" class="g3_1" />
<text 
x="63" 
y="609" 
dx="0" 
class="s17_1"
>=</text>

<text 
x="89" 
y="609" 
dx="0,-1.7" 
class="s15_1"
>(1</text>

<text 
x="104" 
y="609" 
dx="0" 
class="s17_1"
>+</text>

<text 
x="117" 
y="609" 
dx="0" 
class="s16_1"
>b</text>

<text 
x="127" 
y="601" 
dx="0" 
class="s18_1"
>2</text>

<text 
x="134" 
y="609" 
dx="0" 
class="s15_1"
>)</text>

<text 
x="143" 
y="609" 
dx="0" 
class="s17_1"
>+</text>

<text 
x="157" 
y="609" 
dx="0" 
class="s16_1"
>a</text>

<text 
x="167" 
y="601" 
dx="0" 
class="s18_1"
>2</text>

<path d="M78.5,605.2l2.7,-1.4" class="g3_1" />
<path d="M81.6,603.4L85,614.1" class="g5_1" />
<path d="M85.4,614.1l4,-24.5" class="g3_1" />
<path d="M89.5,590.5l85,0" class="g3_1" />
<text 
x="180" 
y="609" 
dx="0" 
class="s17_1"
>=</text>

<text 
x="205" 
y="609" 
dx="0" 
class="s15_1"
>1</text>

<text 
x="215" 
y="609" 
dx="0" 
class="s17_1"
>+</text>

<text 
x="228" 
y="609" 
dx="0" 
class="s15_1"
>2</text>

<text 
x="237" 
y="609" 
dx="0" 
class="s16_1"
>b</text>

<text 
x="250" 
y="609" 
dx="0" 
class="s17_1"
>+</text>

<text 
x="263" 
y="609" 
dx="0" 
class="s16_1"
>b</text>

<text 
x="273" 
y="601" 
dx="0" 
class="s18_1"
>2</text>

<text 
x="283" 
y="609" 
dx="0" 
class="s17_1"
>+</text>

<text 
x="296" 
y="609" 
dx="0" 
class="s16_1"
>a</text>

<text 
x="306" 
y="601" 
dx="0" 
class="s18_1"
>2</text>

<path d="M195.5,603.2l2.6,-1.3" class="g3_1" />
<path d="M198.5,601.5l3.5,9.6" class="g5_1" />
<path d="M202.4,611.1l4,-21.5" class="g3_1" />
<path d="M206.5,590.5l107,0" class="g3_1" />
<text 
x="16" 
y="643" 
dx="0,-0.1,0,-0.7" 
class="s15_1"
>Si 1</text>

<text 
x="46" 
y="643" 
dx="0" 
class="s17_1"
>+</text>

<text 
x="59" 
y="643" 
dx="0" 
class="s15_1"
>i</text>

<text 
x="66" 
y="643" 
dx="0" 
class="s16_1"
>z</text>

<path d="M36.5,628.5l0,20" class="g3_1" />
<path d="M74.5,628.5l0,20" class="g3_1" />
<text 
x="80" 
y="643" 
dx="0" 
class="s17_1"
>=</text>

<text 
x="94" 
y="643" 
dx="0" 
class="s15_1"
>1</text>

<text 
x="106" 
y="643" 
dx="0" 
class="s17_1"
>−</text>

<text 
x="119" 
y="643" 
dx="0" 
class="s15_1"
>i</text>

<text 
x="126" 
y="643" 
dx="0" 
class="s16_1"
>z</text>

<path d="M95.5,628.5l0,20" class="g3_1" />
<path d="M135.5,628.5l0,20" class="g3_1" />
<text 
x="140" 
y="643" 
dx="0,0.1,0.1,0,0" 
class="s15_1"
>alors</text>

<text 
x="190" 
y="643" 
dx="0" 
class="s15_1"
>1</text>

<text 
x="201" 
y="643" 
dx="0" 
class="s17_1"
>−</text>

<text 
x="214" 
y="643" 
dx="0" 
class="s15_1"
>2</text>

<text 
x="223" 
y="643" 
dx="0" 
class="s16_1"
>b</text>

<text 
x="235" 
y="643" 
dx="0" 
class="s17_1"
>+</text>

<text 
x="248" 
y="643" 
dx="0" 
class="s16_1"
>b</text>

<text 
x="258" 
y="635" 
dx="0" 
class="s18_1"
>2</text>

<text 
x="268" 
y="643" 
dx="0" 
class="s17_1"
>+</text>

<text 
x="282" 
y="643" 
dx="0" 
class="s16_1"
>a</text>

<text 
x="292" 
y="635" 
dx="0" 
class="s18_1"
>2</text>

<path d="M180.4,637.1l2.6,-1.3" class="g3_1" />
<path d="M183.4,635.4l3.5,9.6" class="g5_1" />
<path d="M187.3,645l4,-21.5" class="g3_1" />
<path d="M191.5,623.5l108,0" class="g3_1" />
<text 
x="305" 
y="643" 
dx="0" 
class="s17_1"
>=</text>

<text 
x="330" 
y="643" 
dx="0" 
class="s15_1"
>1</text>

<text 
x="340" 
y="643" 
dx="0" 
class="s17_1"
>+</text>

<text 
x="353" 
y="643" 
dx="0" 
class="s15_1"
>2</text>

<text 
x="362" 
y="643" 
dx="0" 
class="s16_1"
>b</text>

<text 
x="375" 
y="643" 
dx="0" 
class="s17_1"
>+</text>

<text 
x="388" 
y="643" 
dx="0" 
class="s16_1"
>b</text>

<text 
x="398" 
y="635" 
dx="0" 
class="s18_1"
>2</text>

<text 
x="408" 
y="643" 
dx="0" 
class="s17_1"
>+</text>

<text 
x="421" 
y="643" 
dx="0" 
class="s16_1"
>a</text>

<text 
x="431" 
y="635" 
dx="0" 
class="s18_1"
>2</text>

<path d="M320.3,637.1l2.7,-1.3" class="g3_1" />
<path d="M323.3,635.4l3.5,9.6" class="g5_1" />
<path d="M327.2,645l4,-21.5" class="g3_1" />
<path d="M331.5,623.5l107,0" class="g3_1" />
<text 
x="443" 
y="643" 
dx="0,0.1" 
class="s15_1"
>et</text>

<text 
x="15" 
y="673" 
dx="0" 
class="s15_1"
>1</text>

<text 
x="27" 
y="673" 
dx="0" 
class="s17_1"
>−</text>

<text 
x="40" 
y="673" 
dx="0" 
class="s15_1"
>2</text>

<text 
x="49" 
y="673" 
dx="0" 
class="s16_1"
>b</text>

<text 
x="61" 
y="673" 
dx="0" 
class="s17_1"
>+</text>

<text 
x="74" 
y="673" 
dx="0" 
class="s16_1"
>b</text>

<text 
x="84" 
y="665" 
dx="0" 
class="s18_1"
>2</text>

<text 
x="94" 
y="673" 
dx="0" 
class="s17_1"
>+</text>

<text 
x="107" 
y="673" 
dx="0" 
class="s16_1"
>a</text>

<text 
x="117" 
y="665" 
dx="0" 
class="s18_1"
>2</text>

<text 
x="129" 
y="673" 
dx="0" 
class="s17_1"
>=</text>

<text 
x="141" 
y="673" 
dx="0" 
class="s15_1"
>1</text>

<text 
x="152" 
y="673" 
dx="0" 
class="s17_1"
>+</text>

<text 
x="165" 
y="673" 
dx="0" 
class="s15_1"
>2</text>

<text 
x="174" 
y="673" 
dx="0" 
class="s16_1"
>b</text>

<text 
x="186" 
y="673" 
dx="0" 
class="s17_1"
>+</text>

<text 
x="199" 
y="673" 
dx="0" 
class="s16_1"
>b</text>

<text 
x="209" 
y="665" 
dx="0" 
class="s18_1"
>2</text>

<text 
x="219" 
y="673" 
dx="0" 
class="s17_1"
>+</text>

<text 
x="233" 
y="673" 
dx="0" 
class="s16_1"
>a</text>

<text 
x="243" 
y="665" 
dx="0" 
class="s18_1"
>2</text>

<text 
x="253" 
y="673" 
dx="0,0,0.2" 
class="s17_1"
>⇒ −</text>

<text 
x="289" 
y="673" 
dx="0" 
class="s15_1"
>2</text>

<text 
x="298" 
y="673" 
dx="0" 
class="s16_1"
>b</text>

<text 
x="312" 
y="673" 
dx="0" 
class="s17_1"
>=</text>

<text 
x="326" 
y="673" 
dx="0" 
class="s15_1"
>2</text>

<text 
x="335" 
y="673" 
dx="0" 
class="s16_1"
>b</text>

<text 
x="348" 
y="673" 
dx="0" 
class="s17_1"
>⇒</text>

<text 
x="370" 
y="673" 
dx="0" 
class="s16_1"
>b</text>

<text 
x="384" 
y="673" 
dx="0" 
class="s17_1"
>=</text>

<text 
x="398" 
y="673" 
dx="0,0" 
class="s15_1"
>0.</text>

<text 
x="14" 
y="697" 
dx="0,-0.2,-0.1,0,0.2,-0.1,0,0,0,0,0,0,0,0,0,0,-0.1,0,0,0,0,-0.1,-0.1,0,-0.1,0,0.1,-0.1,0" 
class="s2_1"
>La proposition est vérifiée. </text>

<text 
x="14" 
y="739" 
dx="0,0,-0.1,0,0,-0.1,-0.1,0,0" 
class="s2_1"
>4) Vrai. </text>

<path d="M34,742l37,0l0,-1l-37,0l0,1Z" class="g4_1" />
<path d="M524.4,775.9l-27.2,0l0,-0.8l27.2,0L523.9,774l3,1.5l-3,1.5Z" class="g4_1" />
<path d="M561.3,775.9l-30,0l0,-0.8l30,0L560.9,774l3,1.5l-3,1.5Z" class="g4_1" />
<path d="M18.5,866.5l0,21" class="g3_1" />
<path d="M58.5,866.5l0,21" class="g3_1" />
<path d="M78.8,878.7l2.3,-1.3" class="g3_1" />
<path d="M81.1,877.8l3.4,8.6" class="g5_1" />
<path d="M84.9,886.4l4.5,-24.6" class="g3_1" />
<path d="M89.5,861.5l139,0" class="g3_1" />
<path d="M248.6,878.9l2.3,-1.4" class="g3_1" />
<path d="M250.9,877.9l3.4,8.7" class="g5_1" />
<path d="M254.7,886.6l4.5,-24.8" class="g3_1" />
<path d="M259.5,861.5l202,0" class="g3_1" />
<path d="M481.6,878.9l2.3,-1.4" class="g3_1" />
<path d="M483.9,877.9l3.4,8.7" class="g5_1" />
<path d="M487.7,886.6l4.5,-24.8" class="g3_1" />
<path d="M492.5,861.5l228,0" class="g3_1" />
<path d="M18.5,901.5l0,22" class="g3_1" />
<path d="M57.5,901.5l0,22" class="g3_1" />
<path d="M78.5,914.4l2.3,-1.3" class="g3_1" />
<path d="M80.8,913.5l3.4,8.6" class="g5_1" />
<path d="M84.6,922.1l4.5,-24.6" class="g3_1" />
<path d="M89.5,897.5l138,0" class="g3_1" />
<path d="M247.7,914.6l2.3,-1.4" class="g3_1" />
<path d="M250,913.6l3.4,8.7" class="g5_1" />
<path d="M253.8,922.3l4.5,-24.8" class="g3_1" />
<path d="M258.5,897.5l202,0" class="g3_1" />
<path d="M480.2,914.6l2.3,-1.4" class="g3_1" />
<path d="M482.5,913.6l3.4,8.7" class="g5_1" />
<path d="M486.3,922.3l4.5,-24.8" class="g3_1" />
<path d="M490.5,897.5l229,0" class="g3_1" />
<path d="M18.5,932.5l0,22" class="g3_1" />
<path d="M58.5,932.5l0,22" class="g3_1" />
<path d="M78.5,932.5l0,22" class="g3_1" />
<path d="M118.5,932.5l0,22" class="g3_1" />
<text 
x="226" 
y="948" 
dx="0" 
class="s19_1"
>.</text>

<text 
x="216" 
y="948" 
dx="0" 
class="s19_1"
>0</text>

<text 
x="197" 
y="948" 
dx="0" 
class="s19_1"
>'</text>

<text 
x="165" 
y="948" 
dx="0" 
class="s19_1"
>'</text>

<text 
x="114" 
y="948" 
dx="0" 
class="s19_1"
>'</text>

<text 
x="54" 
y="948" 
dx="0" 
class="s19_1"
>'</text>

<text 
x="712" 
y="917" 
dx="0" 
class="s19_1"
>)</text>

<text 
x="708" 
y="917" 
dx="0" 
class="s19_1"
>'</text>

<text 
x="676" 
y="917" 
dx="0" 
class="s19_1"
>'</text>

<text 
x="651" 
y="917" 
dx="0" 
class="s19_1"
>(</text>

<text 
x="642" 
y="917" 
dx="0" 
class="s19_1"
>2</text>

<text 
x="619" 
y="917" 
dx="0" 
class="s19_1"
>)</text>

<text 
x="606" 
y="917" 
dx="0" 
class="s19_1"
>'</text>

<text 
x="542" 
y="917" 
dx="0" 
class="s19_1"
>'</text>

<text 
x="491" 
y="917" 
dx="0" 
class="s19_1"
>(</text>

<text 
x="448" 
y="917" 
dx="0" 
class="s19_1"
>'</text>

<text 
x="426" 
y="917" 
dx="0" 
class="s19_1"
>'</text>

<text 
x="399" 
y="917" 
dx="0" 
class="s19_1"
>2</text>

<text 
x="344" 
y="917" 
dx="0" 
class="s19_1"
>'</text>

<text 
x="321" 
y="917" 
dx="0" 
class="s19_1"
>'</text>

<text 
x="293" 
y="917" 
dx="0" 
class="s19_1"
>2</text>

<text 
x="212" 
y="917" 
dx="0" 
class="s19_1"
>)</text>

<text 
x="207" 
y="917" 
dx="0" 
class="s19_1"
>'</text>

<text 
x="167" 
y="917" 
dx="0" 
class="s19_1"
>(</text>

<text 
x="137" 
y="917" 
dx="0" 
class="s19_1"
>)</text>

<text 
x="132" 
y="917" 
dx="0" 
class="s19_1"
>'</text>

<text 
x="89" 
y="917" 
dx="0" 
class="s19_1"
>(</text>

<text 
x="54" 
y="917" 
dx="0" 
class="s19_1"
>'</text>

<text 
x="713" 
y="881" 
dx="0" 
class="s19_1"
>)</text>

<text 
x="708" 
y="881" 
dx="0" 
class="s19_1"
>'</text>

<text 
x="677" 
y="881" 
dx="0" 
class="s19_1"
>'</text>

<text 
x="652" 
y="881" 
dx="0" 
class="s19_1"
>(</text>

<text 
x="642" 
y="881" 
dx="0" 
class="s19_1"
>2</text>

<text 
x="620" 
y="881" 
dx="0" 
class="s19_1"
>)</text>

<text 
x="607" 
y="881" 
dx="0" 
class="s19_1"
>'</text>

<text 
x="543" 
y="881" 
dx="0" 
class="s19_1"
>'</text>

<text 
x="493" 
y="881" 
dx="0" 
class="s19_1"
>(</text>

<text 
x="450" 
y="881" 
dx="0" 
class="s19_1"
>'</text>

<text 
x="428" 
y="881" 
dx="0" 
class="s19_1"
>'</text>

<text 
x="400" 
y="881" 
dx="0" 
class="s19_1"
>2</text>

<text 
x="345" 
y="881" 
dx="0" 
class="s19_1"
>'</text>

<text 
x="322" 
y="881" 
dx="0" 
class="s19_1"
>'</text>

<text 
x="294" 
y="881" 
dx="0" 
class="s19_1"
>2</text>

<text 
x="213" 
y="881" 
dx="0" 
class="s19_1"
>)</text>

<text 
x="208" 
y="881" 
dx="0" 
class="s19_1"
>'</text>

<text 
x="168" 
y="881" 
dx="0" 
class="s19_1"
>(</text>

<text 
x="137" 
y="881" 
dx="0" 
class="s19_1"
>)</text>

<text 
x="132" 
y="881" 
dx="0" 
class="s19_1"
>'</text>

<text 
x="90" 
y="881" 
dx="0" 
class="s19_1"
>(</text>

<text 
x="54" 
y="881" 
dx="0" 
class="s19_1"
>'</text>

<text 
x="390" 
y="847" 
dx="0" 
class="s19_1"
>)</text>

<text 
x="385" 
y="847" 
dx="0" 
class="s19_1"
>'</text>

<text 
x="340" 
y="847" 
dx="0,0" 
class="s19_1"
>i(</text>

<text 
x="318" 
y="847" 
dx="0" 
class="s19_1"
>)</text>

<text 
x="313" 
y="847" 
dx="0" 
class="s19_1"
>'</text>

<text 
x="271" 
y="847" 
dx="0" 
class="s19_1"
>(</text>

<text 
x="251" 
y="847" 
dx="0" 
class="s19_1"
>'</text>

<text 
x="200" 
y="847" 
dx="0,0,0" 
class="s19_1"
>et </text>

<text 
x="191" 
y="847" 
dx="0" 
class="s19_1"
>)</text>

<text 
x="186" 
y="847" 
dx="0" 
class="s19_1"
>'</text>

<text 
x="140" 
y="847" 
dx="0,0" 
class="s19_1"
>i(</text>

<text 
x="118" 
y="847" 
dx="0" 
class="s19_1"
>)</text>

<text 
x="113" 
y="847" 
dx="0" 
class="s19_1"
>'</text>

<text 
x="70" 
y="847" 
dx="0" 
class="s19_1"
>(</text>

<text 
x="51" 
y="847" 
dx="0" 
class="s19_1"
>'</text>

<text 
x="101" 
y="820" 
dx="0" 
class="s19_1"
>:</text>

<text 
x="46" 
y="820" 
dx="0,0,0,0,0,0,0,0" 
class="s19_1"
>ailleurs</text>

<text 
x="17" 
y="820" 
dx="0,0,0,0" 
class="s19_1"
>Par </text>

<text 
x="705" 
y="793" 
dx="0" 
class="s19_1"
>.</text>

<text 
x="696" 
y="793" 
dx="0" 
class="s19_1"
>0</text>

<text 
x="677" 
y="793" 
dx="0" 
class="s19_1"
>'</text>

<text 
x="644" 
y="793" 
dx="0" 
class="s19_1"
>'</text>

<text 
x="595" 
y="793" 
dx="0,0,0,0,0" 
class="s19_1"
>soit </text>

<text 
x="583" 
y="793" 
dx="0" 
class="s19_1"
>0</text>

<text 
x="562" 
y="793" 
dx="0" 
class="s19_1"
>'</text>

<text 
x="527" 
y="793" 
dx="0" 
class="s19_1"
>.</text>

<text 
x="480" 
y="793" 
dx="0,0" 
class="s19_1"
>si</text>

<text 
x="403" 
y="793" 
dx="0,0,0,0,0,0,0,0,0,0" 
class="s19_1"
>seulement </text>

<text 
x="386" 
y="793" 
dx="0,0,0" 
class="s19_1"
>et </text>

<text 
x="370" 
y="793" 
dx="0,0" 
class="s19_1"
>si</text>

<text 
x="328" 
y="793" 
dx="0,0,0,0,0,0" 
class="s19_1"
>laires</text>

<text 
x="247" 
y="793" 
dx="0,0,0,0,0,0,0,0,0,0" 
class="s19_1"
>perpendicu</text>

<text 
x="212" 
y="793" 
dx="0,0,0,0,0" 
class="s19_1"
>sont </text>

<text 
x="203" 
y="793" 
dx="0" 
class="s19_1"
>)</text>

<text 
x="162" 
y="793" 
dx="0,0,0,0" 
class="s19_1"
>(OM'</text>

<text 
x="145" 
y="793" 
dx="0,0,0" 
class="s19_1"
>et </text>

<text 
x="100" 
y="793" 
dx="0,0,0,0" 
class="s19_1"
>(OM)</text>

<text 
x="47" 
y="793" 
dx="0,0,0,0,0,0,0" 
class="s19_1"
>droites</text>

<text 
x="17" 
y="793" 
dx="0,0,0" 
class="s19_1"
>Les</text>

<text 
x="489" 
y="760" 
dx="0" 
class="s19_1"
>.</text>

<text 
x="452" 
y="760" 
dx="0,0,0" 
class="s19_1"
>et </text>

<text 
x="409" 
y="760" 
dx="0,0" 
class="s19_1"
>de</text>

<text 
x="369" 
y="760" 
dx="0,0,0,0,0" 
class="s19_1"
>ment </text>

<text 
x="295" 
y="760" 
dx="0,0,0,0,0,0,0,0,0,0" 
class="s19_1"
>respective</text>

<text 
x="242" 
y="760" 
dx="0,0,0,0,0,0,0" 
class="s19_1"
>affixes</text>

<text 
x="234" 
y="760" 
dx="0" 
class="s19_1"
>,</text>

<text 
x="229" 
y="760" 
dx="0" 
class="s19_1"
>'</text>

<text 
x="213" 
y="760" 
dx="0" 
class="s19_1"
>i</text>

<text 
x="197" 
y="760" 
dx="0" 
class="s19_1"
>'</text>

<text 
x="168" 
y="760" 
dx="0" 
class="s19_1"
>'</text>

<text 
x="142" 
y="760" 
dx="0,0,0" 
class="s19_1"
>et </text>

<text 
x="122" 
y="760" 
dx="0" 
class="s19_1"
>i</text>

<text 
x="17" 
y="760" 
dx="0,0,0,0,0,0" 
class="s19_1"
>Posons</text>

<text 
x="610" 
y="909" 
dx="0" 
class="s20_1"
>2</text>

<text 
x="574" 
y="909" 
dx="0" 
class="s20_1"
>2</text>

<text 
x="545" 
y="909" 
dx="0" 
class="s20_1"
>2</text>

<text 
x="508" 
y="909" 
dx="0" 
class="s20_1"
>2</text>

<text 
x="452" 
y="909" 
dx="0" 
class="s20_1"
>2</text>

<text 
x="375" 
y="909" 
dx="0" 
class="s20_1"
>2</text>

<text 
x="348" 
y="909" 
dx="0" 
class="s20_1"
>2</text>

<text 
x="269" 
y="909" 
dx="0" 
class="s20_1"
>2</text>

<text 
x="219" 
y="909" 
dx="0" 
class="s20_1"
>2</text>

<text 
x="144" 
y="909" 
dx="0" 
class="s20_1"
>2</text>

<text 
x="610" 
y="873" 
dx="0" 
class="s20_1"
>2</text>

<text 
x="574" 
y="873" 
dx="0" 
class="s20_1"
>2</text>

<text 
x="547" 
y="873" 
dx="0" 
class="s20_1"
>2</text>

<text 
x="510" 
y="873" 
dx="0" 
class="s20_1"
>2</text>

<text 
x="453" 
y="873" 
dx="0" 
class="s20_1"
>2</text>

<text 
x="376" 
y="873" 
dx="0" 
class="s20_1"
>2</text>

<text 
x="349" 
y="873" 
dx="0" 
class="s20_1"
>2</text>

<text 
x="270" 
y="873" 
dx="0" 
class="s20_1"
>2</text>

<text 
x="220" 
y="873" 
dx="0" 
class="s20_1"
>2</text>

<text 
x="144" 
y="873" 
dx="0" 
class="s20_1"
>2</text>

<text 
x="202" 
y="948" 
dx="0" 
class="s21_1"
>=</text>

<text 
x="168" 
y="948" 
dx="0" 
class="s21_1"
>+</text>

<text 
x="123" 
y="948" 
dx="0" 
class="s21_1"
>⇔</text>

<text 
x="92" 
y="948" 
dx="0" 
class="s21_1"
>−</text>

<text 
x="63" 
y="948" 
dx="0" 
class="s21_1"
>=</text>

<text 
x="31" 
y="948" 
dx="0" 
class="s21_1"
>+</text>

<text 
x="679" 
y="917" 
dx="0" 
class="s21_1"
>+</text>

<text 
x="628" 
y="917" 
dx="0" 
class="s21_1"
>−</text>

<text 
x="584" 
y="917" 
dx="0" 
class="s21_1"
>+</text>

<text 
x="553" 
y="917" 
dx="0" 
class="s21_1"
>+</text>

<text 
x="519" 
y="917" 
dx="0" 
class="s21_1"
>+</text>

<text 
x="465" 
y="917" 
dx="0" 
class="s21_1"
>=</text>

<text 
x="429" 
y="917" 
dx="0" 
class="s21_1"
>+</text>

<text 
x="385" 
y="917" 
dx="0" 
class="s21_1"
>−</text>

<text 
x="356" 
y="917" 
dx="0" 
class="s21_1"
>+</text>

<text 
x="324" 
y="917" 
dx="0" 
class="s21_1"
>+</text>

<text 
x="280" 
y="917" 
dx="0" 
class="s21_1"
>−</text>

<text 
x="232" 
y="917" 
dx="0" 
class="s21_1"
>=</text>

<text 
x="185" 
y="917" 
dx="0" 
class="s21_1"
>−</text>

<text 
x="154" 
y="917" 
dx="0" 
class="s21_1"
>+</text>

<text 
x="109" 
y="917" 
dx="0" 
class="s21_1"
>−</text>

<text 
x="63" 
y="917" 
dx="0" 
class="s21_1"
>=</text>

<text 
x="31" 
y="917" 
dx="0" 
class="s21_1"
>−</text>

<text 
x="680" 
y="881" 
dx="0" 
class="s21_1"
>+</text>

<text 
x="629" 
y="881" 
dx="0" 
class="s21_1"
>+</text>

<text 
x="584" 
y="881" 
dx="0" 
class="s21_1"
>+</text>

<text 
x="555" 
y="881" 
dx="0" 
class="s21_1"
>+</text>

<text 
x="520" 
y="881" 
dx="0" 
class="s21_1"
>+</text>

<text 
x="466" 
y="881" 
dx="0" 
class="s21_1"
>=</text>

<text 
x="431" 
y="881" 
dx="0" 
class="s21_1"
>+</text>

<text 
x="387" 
y="881" 
dx="0" 
class="s21_1"
>+</text>

<text 
x="357" 
y="881" 
dx="0" 
class="s21_1"
>+</text>

<text 
x="326" 
y="881" 
dx="0" 
class="s21_1"
>+</text>

<text 
x="281" 
y="881" 
dx="0" 
class="s21_1"
>+</text>

<text 
x="233" 
y="881" 
dx="0" 
class="s21_1"
>=</text>

<text 
x="186" 
y="881" 
dx="0" 
class="s21_1"
>+</text>

<text 
x="154" 
y="881" 
dx="0" 
class="s21_1"
>+</text>

<text 
x="109" 
y="881" 
dx="0" 
class="s21_1"
>+</text>

<text 
x="63" 
y="881" 
dx="0" 
class="s21_1"
>=</text>

<text 
x="31" 
y="881" 
dx="0" 
class="s21_1"
>+</text>

<text 
x="363" 
y="847" 
dx="0" 
class="s21_1"
>−</text>

<text 
x="327" 
y="847" 
dx="0" 
class="s21_1"
>+</text>

<text 
x="290" 
y="847" 
dx="0" 
class="s21_1"
>−</text>

<text 
x="257" 
y="847" 
dx="0" 
class="s21_1"
>=</text>

<text 
x="229" 
y="847" 
dx="0" 
class="s21_1"
>−</text>

<text 
x="163" 
y="847" 
dx="0" 
class="s21_1"
>+</text>

<text 
x="127" 
y="847" 
dx="0" 
class="s21_1"
>+</text>

<text 
x="90" 
y="847" 
dx="0" 
class="s21_1"
>+</text>

<text 
x="56" 
y="847" 
dx="0" 
class="s21_1"
>=</text>

<text 
x="29" 
y="847" 
dx="0" 
class="s21_1"
>+</text>

<text 
x="682" 
y="793" 
dx="0" 
class="s21_1"
>=</text>

<text 
x="648" 
y="793" 
dx="0" 
class="s21_1"
>+</text>

<text 
x="568" 
y="793" 
dx="0" 
class="s21_1"
>=</text>

<text 
x="200" 
y="760" 
dx="0" 
class="s21_1"
>+</text>

<text 
x="173" 
y="760" 
dx="0" 
class="s21_1"
>=</text>

<text 
x="109" 
y="760" 
dx="0" 
class="s21_1"
>+</text>

<text 
x="82" 
y="760" 
dx="0" 
class="s21_1"
>=</text>

<text 
x="179" 
y="948" 
dx="0,0" 
class="s22_1"
>bb</text>

<text 
x="146" 
y="948" 
dx="0,0" 
class="s22_1"
>aa</text>

<text 
x="106" 
y="948" 
dx="0" 
class="s22_1"
>z</text>

<text 
x="81" 
y="948" 
dx="0" 
class="s22_1"
>z</text>

<text 
x="46" 
y="948" 
dx="0" 
class="s22_1"
>z</text>

<text 
x="21" 
y="948" 
dx="0" 
class="s22_1"
>z</text>

<text 
x="689" 
y="917" 
dx="0,0" 
class="s22_1"
>bb</text>

<text 
x="657" 
y="917" 
dx="0,0" 
class="s22_1"
>aa</text>

<text 
x="597" 
y="917" 
dx="0" 
class="s22_1"
>b</text>

<text 
x="563" 
y="917" 
dx="0" 
class="s22_1"
>b</text>

<text 
x="532" 
y="917" 
dx="0" 
class="s22_1"
>a</text>

<text 
x="498" 
y="917" 
dx="0" 
class="s22_1"
>a</text>

<text 
x="439" 
y="917" 
dx="0" 
class="s22_1"
>b</text>

<text 
x="408" 
y="917" 
dx="0,0" 
class="s22_1"
>bb</text>

<text 
x="365" 
y="917" 
dx="0" 
class="s22_1"
>b</text>

<text 
x="335" 
y="917" 
dx="0" 
class="s22_1"
>a</text>

<text 
x="302" 
y="917" 
dx="0,0" 
class="s22_1"
>aa</text>

<text 
x="259" 
y="917" 
dx="0" 
class="s22_1"
>a</text>

<text 
x="198" 
y="917" 
dx="0" 
class="s22_1"
>b</text>

<text 
x="173" 
y="917" 
dx="0" 
class="s22_1"
>b</text>

<text 
x="122" 
y="917" 
dx="0" 
class="s22_1"
>a</text>

<text 
x="96" 
y="917" 
dx="0" 
class="s22_1"
>a</text>

<text 
x="46" 
y="917" 
dx="0" 
class="s22_1"
>z</text>

<text 
x="21" 
y="917" 
dx="0" 
class="s22_1"
>z</text>

<text 
x="690" 
y="881" 
dx="0,0" 
class="s22_1"
>bb</text>

<text 
x="658" 
y="881" 
dx="0,0" 
class="s22_1"
>aa</text>

<text 
x="597" 
y="881" 
dx="0" 
class="s22_1"
>b</text>

<text 
x="564" 
y="881" 
dx="0" 
class="s22_1"
>b</text>

<text 
x="533" 
y="881" 
dx="0" 
class="s22_1"
>a</text>

<text 
x="499" 
y="881" 
dx="0" 
class="s22_1"
>a</text>

<text 
x="440" 
y="881" 
dx="0" 
class="s22_1"
>b</text>

<text 
x="409" 
y="881" 
dx="0,0" 
class="s22_1"
>bb</text>

<text 
x="366" 
y="881" 
dx="0" 
class="s22_1"
>b</text>

<text 
x="336" 
y="881" 
dx="0" 
class="s22_1"
>a</text>

<text 
x="304" 
y="881" 
dx="0,0" 
class="s22_1"
>aa</text>

<text 
x="260" 
y="881" 
dx="0" 
class="s22_1"
>a</text>

<text 
x="199" 
y="881" 
dx="0" 
class="s22_1"
>b</text>

<text 
x="174" 
y="881" 
dx="0" 
class="s22_1"
>b</text>

<text 
x="122" 
y="881" 
dx="0" 
class="s22_1"
>a</text>

<text 
x="96" 
y="881" 
dx="0" 
class="s22_1"
>a</text>

<text 
x="46" 
y="881" 
dx="0" 
class="s22_1"
>z</text>

<text 
x="21" 
y="881" 
dx="0" 
class="s22_1"
>z</text>

<text 
x="376" 
y="847" 
dx="0" 
class="s22_1"
>b</text>

<text 
x="351" 
y="847" 
dx="0" 
class="s22_1"
>b</text>

<text 
x="303" 
y="847" 
dx="0" 
class="s22_1"
>a</text>

<text 
x="277" 
y="847" 
dx="0" 
class="s22_1"
>a</text>

<text 
x="243" 
y="847" 
dx="0" 
class="s22_1"
>z</text>

<text 
x="218" 
y="847" 
dx="0" 
class="s22_1"
>z</text>

<text 
x="176" 
y="847" 
dx="0" 
class="s22_1"
>b</text>

<text 
x="151" 
y="847" 
dx="0" 
class="s22_1"
>b</text>

<text 
x="103" 
y="847" 
dx="0" 
class="s22_1"
>a</text>

<text 
x="77" 
y="847" 
dx="0" 
class="s22_1"
>a</text>

<text 
x="43" 
y="847" 
dx="0" 
class="s22_1"
>z</text>

<text 
x="18" 
y="847" 
dx="0" 
class="s22_1"
>z</text>

<text 
x="658" 
y="793" 
dx="0,0" 
class="s22_1"
>bb</text>

<text 
x="626" 
y="793" 
dx="0,0" 
class="s22_1"
>aa</text>

<text 
x="530" 
y="793" 
dx="0,0" 
class="s22_1"
>OM</text>

<text 
x="496" 
y="793" 
dx="0,0" 
class="s22_1"
>OM</text>

<text 
x="470" 
y="760" 
dx="0,0" 
class="s22_1"
>M'</text>

<text 
x="430" 
y="760" 
dx="0" 
class="s22_1"
>M</text>

<text 
x="220" 
y="760" 
dx="0" 
class="s22_1"
>b</text>

<text 
x="187" 
y="760" 
dx="0" 
class="s22_1"
>a</text>

<text 
x="160" 
y="760" 
dx="0" 
class="s22_1"
>z</text>

<text 
x="129" 
y="760" 
dx="0" 
class="s22_1"
>b</text>

<text 
x="96" 
y="760" 
dx="0" 
class="s22_1"
>a</text>

<text 
x="70" 
y="760" 
dx="0" 
class="s22_1"
>z</text>

<text 
x="14" 
y="974" 
dx="0,-0.2,-0.1,0,0.2,-0.1,0,0,0,0,0,0,0,0,0,0,-0.1,0,0,0,0,-0.1,-0.1,0,-0.1,0,0.1,-0.1" 
class="s2_1"
>La proposition est vérifiée.</text>



<!-- Any embedded fonts defined here -->
<style type="text/css" ><![CDATA[

@font-face {
	font-family: TimesNewRomanPS-ItalicMT_20;
	src: url("fonts/TimesNewRomanPS-ItalicMT_20.woff") format("woff");
}

@font-face {
	font-family: SymbolMT_1t;
	src: url("fonts/SymbolMT_1t.woff") format("woff");
}

@font-face {
	font-family: TimesNewRomanPSMT_1o;
	src: url("fonts/TimesNewRomanPSMT_1o.woff") format("woff");
}

@font-face {
	font-family: TimesNewRomanPSMT_1-;
	src: url("fonts/TimesNewRomanPSMT_1-.woff") format("woff");
}

@font-face {
	font-family: ArialMT_1y;
	src: url("fonts/ArialMT_1y.woff") format("woff");
}

]]></style>

</svg>
