<?xml version="1.0" encoding="UTF-8" standalone="no"?>
<!DOCTYPE svg PUBLIC "-//W3C//DTD SVG 1.1//EN"
"http://www.w3.org/Graphics/SVG/1.1/DTD/svg11.dtd">


<!-- Page 1 -->
<svg x="0" y="0" width="909" height="1286" viewBox="0 0 909 1286" version="1.1" xmlns="http://www.w3.org/2000/svg" xmlns:xlink="http://www.w3.org/1999/xlink"
style="display: block;margin-left: auto;margin-right: auto;">
<defs>

<style type="text/css"><![CDATA[

.g3_1{
fill: none;
stroke: #000000;
stroke-width: 1;
stroke-linecap: butt;
stroke-linejoin: round;
}
.g2_1{
fill: none;
stroke: #000000;
stroke-width: 5;
stroke-linecap: butt;
stroke-linejoin: round;
}
.g1_1{
fill: none;
stroke: #000000;
stroke-width: 2;
stroke-linecap: butt;
stroke-linejoin: miter;
}

.s10_1{
font-size: 16.81px;
font-family: ComicSansMS_g;
fill: #000000;
}
.s4_1{
font-size: 22.92px;
font-family: TimesNewRomanPSMT_u;
fill: #000000;
}
.s8_1{
font-size: 18.33px;
font-family: ComicSansMS-Italic_15;
fill: #000000;
}
.s9_1{
font-size: 24.44px;
font-family: ComicSansMS_g;
fill: #000000;
}
.s5_1{
font-size: 18.33px;
font-family: ComicSansMS_g;
fill: #000000;
}
.s7_1{
font-size: 18.33px;
font-family: ComicSansMS-Italic_16;
fill: #000000;
}
.s6_1{
font-size: 16.04px;
font-family: OpenSans_z;
fill: #000000;
}
.s3_1{
font-size: 22.92px;
font-family: ComicSansMS-Bold_f;
fill: #FF3333;
}
.s1_1{
font-size: 19.86px;
font-family: ComicSansMS-Italic_16;
fill: #000000;
}
.s2_1{
font-size: 19.86px;
font-family: ComicSansMS_g;
fill: #000000;
}

]]></style>

</defs>
<path d="M0,0
L0,1286
L909,1286
L909,0 Z " 
fill="#FFFFFF" stroke="none" />
<text 
x="86" 
y="111" 
dx="0,0,0,0.1,0,0,-0.1,0.1,0,0,0,0,0,0.1,-0.1,0,0.1,-0.1,0,0,0,0,0,0,0,0,0,-0.1" 
class="s1_1"
>Solution de l'énigme du mois</text>

<path d="M86,114l262,0" class="g1_1" />
<text 
x="354" 
y="111" 
dx="0" 
class="s2_1"
>:</text>

<text 
x="388" 
y="111" 
dx="0,-0.1,0.1,0,0,0,-0.2,0,0,0,0,0,0.1,0,0,0,0,0,0,0" 
class="s3_1"
>Une question d'ordre</text>

<text 
x="86" 
y="203" 
dx="0,-0.1,0,0,0,0,-0.1,0,-0.1,0.1,-0.1,0,0,0.1,-0.1,0,0,0.1,0,-0.2,0.1,0,0,0.1,-0.2,0,-0.1,0.1,0,0.1,-0.1,0.1,-0.1,0,0.1,-0.2,0,0,-0.2,0.1,0,0,-0.1,0.1,0,0,0,-0.1,0,-0.2,0.1,0,0,0,0,-0.1,0,0,-0.1,0,0,0,0,-0.2,0,0,0,0,0,-0.2,0,-0.1,0,-0.1,0,0,0,0,0,0,0" 
class="s4_1"
>Soit I l'ensemble des entiers allant de 1 à 16 inclus: I = {1;2;3;4;5;...;15;16}.</text>

<text 
x="86" 
y="254" 
dx="0,0,0.1,0,-0.1,0,0,-0.1,0,0,0,0,-0.1,0,-0.1,0.1,0,0,-0.1,0,-0.1,-0.1,0,0.1,-0.1,0,-0.1" 
class="s5_1"
>La consigne est la suivante</text>

<path d="M86,256l226,0" class="g1_1" />
<text 
x="316" 
y="254" 
dx="0,-0.1,0.1,0,0,0,-0.3,0,-0.1,0.1,0,-0.1,0,0,0.1,0,0,0,0,0,0,0.1,0,0,0,0,0,-0.1,0,0,0,0.1,0,0.1,0,0,0,-0.3,0,0,0,0,0,0.1,0,0,0.1,0,0,0,0.1,0,0,0,0,0,0,0,0.1,0,0,0.1,0,0,0,0.1,0,0" 
class="s6_1"
>: « Ordonnez les entiers compris entre 1 (inclus) et 16 (inclus) de </text>

<text 
x="86" 
y="277" 
dx="0,0,0,-0.1,0.1,0,0.1,0,-0.1,0,0,0,0,0,0,0.1,0,0.1,-0.1,0,0,-0.1,0,0,0,0,0,0.1,0,0,0,0,0.1,0,0,0,-0.1,0,0,0,0.1,0,-0.1,0,0,0,0,0,0,0.1,0.1,0,0,0,-0.1,0.1,0.1,0,0,-0.1,0,0.1,0.1,0,0,0,0,0.1,0,0,0,-0.1,0,-0.3,0,0.1,0,-0.1,0,0.1,-0.1,0.1,0,0,0" 
class="s6_1"
>telle sorte que la somme de deux termes consécutifs soit toujours un carré parfait. »</text>

<text 
x="86" 
y="299" 
dx="0,0,0,0,0,0.1,0,0,0.1,0.1,0,-0.1,0.1,0,0,0.1,0,0,0,0,0,0,0.1,0,0,0,0,-0.1,0,0,-0.3,0,0.1,0,0,-0.1,0.1,0,0.1,0,-0.2,-0.3,0,0.1,0,0,-0.1,0.1,0.1,0,0,0,0,0,0.1,0,0.1,-0.1,0.1,0,0,0,0,0,0.1,0,0,0,0,0,0,0.1,0" 
class="s6_1"
>De plus chacun des seize nombres doit être utilisé une fois et une seule.</text>

<text 
x="86" 
y="349" 
dx="0,0,0,0.1,0,0,0,0,0" 
class="s7_1"
>On rappel</text>

<text 
x="169" 
y="349" 
dx="0,0" 
class="s8_1"
>le</text>

<text 
x="189" 
y="349" 
dx="0,0,0" 
class="s7_1"
>que</text>

<text 
x="219" 
y="349" 
dx="0,0,0.1,0,0,0.1,0,0,0" 
class="s5_1"
>: 1² = 1 </text>

<text 
x="438" 
y="349" 
dx="0,-0.1,0,0,0,-0.1,0,0.1,-0.1,0,0.1,-0.1,0,0.1,-0.1,-0.1,0.1,0,0,0,0,-0.1,0,0,-0.1,0,-0.1,0.2,-0.1,0,0,-0.1,0,0,0,-0.1" 
class="s5_1"
>En faisant la somme de deux entiers </text>

<text 
x="228" 
y="375" 
dx="0,0,0,0,0,0,0" 
class="s5_1"
>2² = 4 </text>

<text 
x="436" 
y="375" 
dx="0,0.1,-0.1,0,-0.1,0,0.1,-0.1,0.1,0,0,-0.1,0,0.1,-0.1,0,-0.1,0,0,-0.1,0,0,-0.1,0,0,0,0,0,0,0.1,0,0,-0.1,0,0,0,0,0.1,-0.1,0,-0.1,0,-0.1,0" 
class="s5_1"
>consécutifs dans l'ensemble I, le plus grand</text>

<text 
x="228" 
y="400" 
dx="0,0,0,0,0,0,0" 
class="s5_1"
>3² = 9 </text>

<text 
x="436" 
y="400" 
dx="0,-0.1,0,0.1,-0.1,-0.1,0.1,-0.1,0.1,0,0,0,0.1,-0.1,0,0,0,0,0,0,-0.2,0.1,0,0,0,0,0,0,0,-0.1,0,0.1,0,0,0,0,0,0" 
class="s5_1"
>résultat possible est : 15 + 16 = 31. </text>

<text 
x="228" 
y="426" 
dx="0,0,0,0,0,0,0,0" 
class="s5_1"
>4² = 16 </text>

<text 
x="433" 
y="426" 
dx="0,0,0,0,-0.1,0,0,-0.1,0,0.1,-0.1,-0.1,0.1,0,0.1,-0.1,0,0,-0.1,0,-0.1,0.1,0,0.1,-0.1,0,0,-0.1,0,-0.1,0,0.1,0,0,-0.1" 
class="s5_1"
>On en déduit que toutes les sommes </text>

<text 
x="228" 
y="452" 
dx="0,0,0,0,0,0,0,0.1" 
class="s5_1"
>5² = 25 </text>

<text 
x="436" 
y="452" 
dx="0,0,0.1,-0.1,-0.1,0,0,0,0,-0.1,0,-0.1,0,0,0,-0.1,0.1,0,0,0,0,-0.1,0,0,0,-0.1,-0.1,0,0.1,0,-0.1,0,0,0,0,-0.1,0,0,0.1,0,-0.1,0,0" 
class="s5_1"
>possibles seront inférieures à 31 donc à 6²</text>

<text 
x="228" 
y="484" 
dx="0,0,0,0,0,0,0,0.1" 
class="s5_1"
>6² = 36 </text>

<text 
x="441" 
y="484" 
dx="0,0,0" 
class="s5_1"
>(x </text>

<text 
x="465" 
y="484" 
dx="0,0" 
class="s9_1"
>&lt; </text>

<text 
x="482" 
y="484" 
dx="0,0,0" 
class="s5_1"
>31 </text>

<text 
x="507" 
y="484" 
dx="0,0" 
class="s9_1"
>&lt; </text>

<text 
x="524" 
y="484" 
dx="0,0,0,0" 
class="s5_1"
>6²).</text>

<text 
x="228" 
y="511" 
dx="0,0,0,0,0,0,0" 
class="s5_1"
>7² = 49</text>

<text 
x="228" 
y="537" 
dx="0,0,0,0,0,0,0,0.1" 
class="s5_1"
>8² = 64 </text>

<text 
x="228" 
y="562" 
dx="0,0,0,0,0,0,0" 
class="s5_1"
>9² = 81</text>

<text 
x="217" 
y="588" 
dx="0,0,0,0.1,-0.1,0.1,0,0,0" 
class="s5_1"
>10² = 100</text>

<text 
x="86" 
y="687" 
dx="0,0,0,0,0,0,0,0,0,0,0,0,0,0,0,0,0.2,0,0.1,0,0,0,0,0,0,0.1,0,0,0,0,0,0,0,0,0,0,0,0.3,0,0,0,0,0.1,0,0,0,0,0,0,0.1,0,0,0,0,0,0,0,0,0,0,0,0,0,0,0,0.3,0,0,0,0,0,0,0,0,0,0,0,0,0,0.1,0,0,0" 
class="s5_1"
>Dans l'ensemble I toutes les sommes, deux à deux possibles, dont les résultats est </text>

<text 
x="86" 
y="712" 
dx="0,0,0,0.1,0,0,0,0,0,0.1,0,0,0,0,0.1,0,0,0,0,0,0,0.1,0,0,0,0,0,0,0.2,0,0,0,0,0.1,0,0,0,0,0,0,0,0,0,0,0,0,0,0.1" 
class="s5_1"
>le carré d'un nombre entier sont les suivantes :</text>

<text 
x="97" 
y="742" 
dx="0,0,0,0,0,0,-0.1,0.1,0,0,0,0,0,0,0,0,0" 
class="s5_1"
>{16 + 9 = 25 = 5²</text>

<text 
x="101" 
y="791" 
dx="0,-0.1,0,0,0,0,-0.1,0,0,0,0.1,0,0,0,0,0,0.1" 
class="s10_1"
>15 + 1 = 16 = 4² </text>

<text 
x="376" 
y="791" 
dx="0,0.1,-0.1,0,0,0,0,0,0,0.1,0,0,0,0,-0.2,0.1" 
class="s10_1"
>9 + 7 = 16 = 4² </text>

<text 
x="631" 
y="791" 
dx="0,0,0,-0.1,0,0.1,0,0,0,0,0,0,0,-0.2" 
class="s10_1"
>3 + 1 = 4 = 2²</text>

<text 
x="101" 
y="814" 
dx="0,-0.1,0,0,0,0,0.1,0,-0.1,0.1,-0.1,0,0.1,0,0,0,-0.2,0.1" 
class="s10_1"
>15 + 10 = 25 = 5² </text>

<text 
x="379" 
y="814" 
dx="0,0,0,-0.1,0,0.1,0,0,0,0,0,0,0,0,0,0,0.1" 
class="s10_1"
>9 + 16 = 25 = 5² </text>

<text 
x="634" 
y="814" 
dx="0,0,0,0,0,0,0,0,0,0,0,0,0,0" 
class="s10_1"
>3 + 6 = 9 = 3²</text>

<text 
x="632" 
y="838" 
dx="0,0,0,0,0,-0.1,0,0,0,0,0.1,0,0,0,0,0" 
class="s10_1"
>3 + 13 = 16 = 4²</text>

<text 
x="101" 
y="861" 
dx="0,-0.1,0,0,0,0,0,0,0,0,0.1,0,-0.1,0.1,-0.1,0,0.1" 
class="s10_1"
>14 + 2 = 16 = 4² </text>

<text 
x="379" 
y="861" 
dx="0,0,0,0,0,-0.1,0,0,0,0,0,0,0,0" 
class="s10_1"
>8 + 1 = 9 = 3²</text>

<text 
x="101" 
y="885" 
dx="0,-0.1,0,0,0,0,-0.1,0.1,0,0,0,0,0,0,0,0,0,0.1" 
class="s10_1"
>14 + 11 = 25 = 5² </text>

<text 
x="381" 
y="885" 
dx="0,0,0,0,-0.1,0.1,-0.1,0.1,-0.1,0.1,0,0,0,0,0,0.1" 
class="s10_1"
>8 + 8 = 16 = 4² </text>

<text 
x="636" 
y="885" 
dx="0,0,0,0,0,0,0,0,0,0,0,0,0,-0.2" 
class="s10_1"
>2 + 2 = 4 = 2²</text>

<text 
x="637" 
y="908" 
dx="0,0,0,0,0,0,0,0,0,0,0,0,0,-0.2" 
class="s10_1"
>2 + 7 = 9 = 3²</text>

<text 
x="101" 
y="932" 
dx="0,-0.1,0,0,0,0,0,0,0,0,0.1,0,-0.1,0.1,-0.1,0,0.1" 
class="s10_1"
>13 + 3 = 16 = 4² </text>

<text 
x="379" 
y="932" 
dx="0,0,0,0,0,0,0,0,0,0,0,0,0,-0.2,0.1" 
class="s10_1"
>7 + 2 = 9 = 3² </text>

<text 
x="636" 
y="932" 
dx="0,0.1,-0.1,0,0,0.1,0,0,0,0,-0.1,0,0,0,0,0" 
class="s10_1"
>2 + 14 = 16 = 4²</text>

<text 
x="101" 
y="955" 
dx="0,-0.1,0,0,0,0,0.1,0,-0.1,0.1,-0.1,0,0.1,0,0,0,-0.2,0.1" 
class="s10_1"
>13 + 12 = 25 = 5² </text>

<text 
x="379" 
y="955" 
dx="0,0,0,-0.1,0,0,0,0,0,0.1,0,0,0,0,-0.2" 
class="s10_1"
>7 + 9 = 16 = 4²</text>

<text 
x="637" 
y="979" 
dx="0,-0.1,0,0,0,0,0,0,0,0,0,0,0,-0.2" 
class="s10_1"
>1 + 3 = 4 + 2²</text>

<text 
x="101" 
y="1002" 
dx="0,-0.1,0,0,0,0,0,0,0,0,0.1,0,-0.1,0.1,-0.1,0,0.1" 
class="s10_1"
>12 + 4 = 16 = 4² </text>

<text 
x="379" 
y="1002" 
dx="0,0,0,0,0,0,0,0,0,0,0,0,0,-0.2,0.1" 
class="s10_1"
>6 + 3 = 9 = 3² </text>

<text 
x="636" 
y="1002" 
dx="0,0.1,0,0,-0.1,0.1,-0.1,0.1,-0.1,0.1,-0.1,0.1,-0.1,0" 
class="s10_1"
>1 + 8 = 9 = 3²</text>

<text 
x="101" 
y="1026" 
dx="0,-0.1,0,0,0,0,0.1,0,-0.1,0.1,-0.1,0,0.1,0,0,0,-0.2,0.1" 
class="s10_1"
>12 + 13 = 25 = 5² </text>

<text 
x="379" 
y="1026" 
dx="0,0,0,-0.1,0,0.1,0,0,0,0,-0.1,0,0,0,0,0,0.1" 
class="s10_1"
>6 + 10 = 16 = 4² </text>

<text 
x="636" 
y="1026" 
dx="0,0.1,0,0,-0.1,0.1,0,0,0,0,0.1,0,-0.1,0.1,-0.1,0" 
class="s10_1"
>1 + 15 = 16 = 4²</text>

<text 
x="101" 
y="1072" 
dx="0,-0.1,0.1,0,-0.1,0,0,0,0,0,0.1,0,0,0,0,0,0.1" 
class="s10_1"
>11 + 5 = 16 = 4² </text>

<text 
x="376" 
y="1072" 
dx="0,0.1,-0.1,0,0,0,0,0,0,0,0,0,0,0" 
class="s10_1"
>5 + 4 = 9 = 3²</text>

<text 
x="101" 
y="1096" 
dx="0,-0.1,0.1,0,-0.1,0,0.1,0,0,0,0,0,0,0,0,0,0,0.1" 
class="s10_1"
>11 + 14 = 25 = 5² </text>

<text 
x="376" 
y="1096" 
dx="0,0,0,0,0,-0.1,0.1,-0.1,0.1,-0.1,0.1,0,0,0,0,0" 
class="s10_1"
>5 + 11 = 16 = 4²</text>

<text 
x="101" 
y="1143" 
dx="0,-0.1,0,0,0,0,0,0,0,0,0.1,0,-0.1,0.1,-0.1,0,0.1" 
class="s10_1"
>10 + 6 = 16 = 4² </text>

<text 
x="379" 
y="1143" 
dx="0,0,0,0,0,0,0,0,0,0,0,0,0,-0.2" 
class="s10_1"
>4 + 5 = 9 = 3²</text>

<text 
x="101" 
y="1166" 
dx="0,-0.1,0,0,0,0,0.1,0,-0.1,0.1,-0.1,0,0.1,0,0,0,-0.2,0.1" 
class="s10_1"
>10 + 15 = 25 = 5² </text>

<text 
x="379" 
y="1166" 
dx="0,0,0,-0.1,0,0.1,0,0,0,0,-0.1,0,0,0,0,0" 
class="s10_1"
>4 + 12 = 16 = 4²</text>

<path d="M388.5,326.2l1.2,285.2" class="g2_1" />
<path d="M103.4,768.2c-2.6,0,-5.2,2.1,-5.2,4.4l0,20.5c0,2.3,-2.6,4.6,-5,4.6c2.4,0,5,2.2,5,4.5l0,16.1c0,2.3,2.6,4.6,5.2,4.6" class="g3_1" />
<path d="M103.4,840.7c-2.6,0,-5.2,2.3,-5.2,4.6l0,20.5c0,2.3,-2.6,4.6,-5,4.6c2.4,0,5,2.3,5,4.6l0,16c0,2.3,2.6,4.6,5.2,4.6" class="g3_1" />
<path d="M105,906.3c-2.8,0,-5.4,2.3,-5.4,4.6l0,20.4c0,2.3,-2.6,4.6,-5.2,4.6c2.6,0,5.2,2.3,5.2,4.6l0,16.2c0,2.3,2.6,4.6,5.4,4.6" class="g3_1" />
<path d="M104.7,976.7c-2.6,0,-5.2,2.1,-5.2,4.4l0,20.5c0,2.3,-2.6,4.6,-5.1,4.6c2.5,0,5.1,2.3,5.1,4.6l0,16c0,2.3,2.6,4.6,5.2,4.6" class="g3_1" />
<path d="M103.4,1053.9c-2.6,0,-5.2,2.3,-5.2,4.5l0,20.5c0,2.3,-2.6,4.6,-5,4.6c2.4,0,5,2.3,5,4.6l0,16c0,2.3,2.6,4.6,5.2,4.6" class="g3_1" />
<path d="M103.4,1122.9c-2.6,0,-5.2,2.3,-5.2,4.6l0,20.5c0,2.3,-2.6,4.6,-5,4.6c2.4,0,5,2.2,5,4.5l0,16.1c0,2.3,2.6,4.6,5.2,4.6" class="g3_1" />
<path d="M377.1,768.6c-2.6,0,-5.1,2.3,-5.1,4.6l0,20.5c0,2.3,-2.6,4.6,-5.2,4.6c2.6,0,5.2,2.3,5.2,4.5l0,16.1c0,2.3,2.5,4.6,5.1,4.6" class="g3_1" />
<path d="M378.4,838.4c-2.6,0,-5.2,2.3,-5.2,4.6l0,20.5c0,2.3,-2.6,4.6,-5,4.6c2.4,0,5,2.3,5,4.6l0,16c0,2.3,2.6,4.6,5.2,4.6" class="g3_1" />
<path d="M377.1,909.3c-2.6,0,-5.1,2.3,-5.1,4.6l0,20.5c0,2.3,-2.6,4.6,-5.2,4.6c2.6,0,5.2,2.3,5.2,4.6l0,16c0,2.3,2.5,4.6,5.1,4.6" class="g3_1" />
<path d="M378.4,978.4c-2.6,0,-5.2,2.3,-5.2,4.6l0,20.4c0,2.3,-2.6,4.6,-5,4.6c2.4,0,5,2.3,5,4.6l0,16.1c0,2.2,2.6,4.5,5.2,4.5" class="g3_1" />
<path d="M378.4,1051.4c-2.6,0,-5.2,2.2,-5.2,4.4l0,20.5c0,2.3,-2.6,4.6,-5,4.6c2.4,0,5,2.3,5,4.6l0,16c0,2.3,2.6,4.6,5.2,4.6" class="g3_1" />
<path d="M377.2,1122.9c-2.6,0,-5.2,2.3,-5.2,4.6l0,20.5c0,2.3,-2.6,4.6,-5,4.6c2.4,0,5,2.2,5,4.5l0,16.1c0,2.3,2.6,4.6,5.2,4.6" class="g3_1" />
<path d="M635.6,766.9c-2.6,0,-5.2,3.3,-5.2,6.5l0,25.9c0,3.2,-2.6,6.4,-5.1,6.4c2.5,0,5.1,3.3,5.1,6.5l0,25.9c0,3.2,2.6,6.6,5.2,6.6" class="g3_1" />
<path d="M635.6,861.4c-2.6,0,-5.2,3.2,-5.2,6.4l0,26c0,3.2,-2.6,6.5,-5.1,6.5c2.5,0,5.1,3.2,5.1,6.4l0,26c0,3.2,2.6,6.4,5.2,6.4" class="g3_1" />
<path d="M634.3,957.3c-2.6,0,-5.2,3.2,-5.2,6.4l0,26c0,3.2,-2.6,6.4,-5,6.4c2.4,0,5,3.2,5,6.4l0,26c0,3.2,2.6,6.6,5.2,6.6" class="g3_1" />


<!-- Any embedded fonts defined here -->
<style type="text/css" ><![CDATA[

@font-face {
	font-family: OpenSans_z;
	src: url("fonts/OpenSans_z.woff") format("woff");
}

@font-face {
	font-family: ComicSansMS-Bold_f;
	src: url("fonts/ComicSansMS-Bold_f.woff") format("woff");
}

@font-face {
	font-family: TimesNewRomanPSMT_u;
	src: url("fonts/TimesNewRomanPSMT_u.woff") format("woff");
}

@font-face {
	font-family: ComicSansMS-Italic_15;
	src: url("fonts/ComicSansMS-Italic_15.woff") format("woff");
}

@font-face {
	font-family: ComicSansMS-Italic_16;
	src: url("fonts/ComicSansMS-Italic_16.woff") format("woff");
}

@font-face {
	font-family: ComicSansMS_g;
	src: url("fonts/ComicSansMS_g.woff") format("woff");
}

]]></style>

</svg>
