<?xml version="1.0" encoding="UTF-8" standalone="no"?>
<!DOCTYPE svg PUBLIC "-//W3C//DTD SVG 1.1//EN"
"http://www.w3.org/Graphics/SVG/1.1/DTD/svg11.dtd">


<!-- Page 2 -->
<svg x="0" y="0" width="774" height="474" viewBox="0 0 774 474" version="1.1" xmlns="http://www.w3.org/2000/svg" xmlns:xlink="http://www.w3.org/1999/xlink"
style="display: block;margin-left: auto;margin-right: auto;">
<defs>

<style type="text/css"><![CDATA[


.s5_2{
font-size: 21.39px;
font-family: Calibri_12;
fill: #000000;
}
.s6_2{
font-size: 21.39px;
font-family: TimesNewRomanPSMT_1e;
fill: #000000;
}
.s3_2{
font-size: 13.75px;
font-family: TimesNewRomanPSMT_f;
fill: #000000;
}
.s7_2{
font-size: 21.39px;
font-family: CambriaMath_q;
fill: #000000;
}
.s2_2{
font-size: 13.75px;
font-family: TimesNewRomanPSMT;
fill: #000000;
}
.s1_2{
font-size: 21.39px;
font-family: TimesNewRomanPSMT;
fill: #000000;
}
.s4_2{
font-size: 21.39px;
font-family: TimesNewRomanPSMT_f;
fill: #000000;
}

]]></style>

</defs>
<path d="M0,0
L0,474
L774,474
L774,0 Z " 
fill="#FFFFFF" stroke="none" />
<text 
x="29" 
y="27" 
dx="0,0,0,0.1,0.1,0,-0.2,-0.4,0,0,0.2,0,0.1,0,-0.2,0,0,0,0.1,0.1,-0.2,0.1,0,0.1,0,0,0,0.2,0,-0.2,0,0,0,0.1,0,-0.4,0,0.2,-0.2,0,0.2,0.3,0,0,0,0.1,-0.2" 
class="s1_2"
>5.a) D'après le petit théorème de Fermat on a: </text>

<text 
x="29" 
y="53" 
dx="0" 
class="s1_2"
>2</text>

<text 
x="39" 
y="45" 
dx="0" 
class="s2_2"
>p</text>

<text 
x="46" 
y="45" 
dx="0" 
class="s3_2"
>–</text>

<text 
x="53" 
y="45" 
dx="0" 
class="s2_2"
>1</text>

<text 
x="65" 
y="53" 
dx="0" 
class="s4_2"
>≡</text>

<text 
x="83" 
y="53" 
dx="0,0,-0.4,0.5,0,0.1,0,0,0,-0.2,0,0,0,0,0.2,0,0.1,-0.4,0,0.1,0.1,-0.2,0.1,0,0,0" 
class="s1_2"
>1 [p] qui peut s'écrire 2 </text>

<text 
x="287" 
y="53" 
dx="0,-0.1" 
class="s5_2"
>x </text>

<text 
x="301" 
y="53" 
dx="0" 
class="s1_2"
>2</text>

<text 
x="311" 
y="45" 
dx="0" 
class="s2_2"
>p</text>

<text 
x="318" 
y="45" 
dx="0" 
class="s3_2"
>–</text>

<text 
x="325" 
y="45" 
dx="0" 
class="s2_2"
>2</text>

<text 
x="337" 
y="53" 
dx="0" 
class="s4_2"
>≡</text>

<text 
x="355" 
y="53" 
dx="0,0,-0.4,0.1,0,0.1,0,-0.3,-0.2,0,0,0,0,0,-0.2,0,-0.2,0.1,-0.2,0.4,-0.2,-0.2,0,0,0.2,0,-0.2,0,0.1,0,0,0,0,0,0,0.1,0.4,-0.2,0,0.1,0,0.1" 
class="s1_2"
>1 [p] et, en multipliant les deux membres </text>

<text 
x="29" 
y="78" 
dx="0,0,0,0,-0.2,0,0,0.1,0,0,-0.4,0.1,0,0,0,0.1,0,0,0,0.1,0.1,0,0,0,0" 
class="s1_2"
>de la congruence par 3 : </text>

<text 
x="29" 
y="104" 
dx="0,0" 
class="s1_2"
>6 </text>

<text 
x="45" 
y="104" 
dx="0,-0.1" 
class="s5_2"
>x </text>

<text 
x="59" 
y="104" 
dx="0" 
class="s1_2"
>2</text>

<text 
x="70" 
y="96" 
dx="0" 
class="s2_2"
>p</text>

<text 
x="76" 
y="96" 
dx="0" 
class="s3_2"
>–</text>

<text 
x="83" 
y="96" 
dx="0" 
class="s2_2"
>2</text>

<text 
x="96" 
y="104" 
dx="0" 
class="s4_2"
>≡</text>

<text 
x="113" 
y="104" 
dx="0,0,-0.4,0.5,0,0.2,-0.4" 
class="s1_2"
>3 [p]. </text>

<text 
x="29" 
y="128" 
dx="0,0,-0.3,0.1,-0.2,-0.2,0.4,-0.2,0.1,0,-0.2,0,0,0.2,0,0.3" 
class="s1_2"
>Similairement : </text>

<text 
x="29" 
y="154" 
dx="0" 
class="s1_2"
>3</text>

<text 
x="39" 
y="147" 
dx="0" 
class="s2_2"
>p</text>

<text 
x="46" 
y="147" 
dx="0" 
class="s3_2"
>–</text>

<text 
x="53" 
y="147" 
dx="0" 
class="s2_2"
>1</text>

<text 
x="65" 
y="154" 
dx="0" 
class="s4_2"
>≡</text>

<text 
x="83" 
y="154" 
dx="0,0,-0.4,0.5,0,0.1,0,0,0,-0.2,0,0,0,0,0.2,0,0.1,-0.4,0,0.1,0.1,-0.2,0.1,0,0,0" 
class="s1_2"
>1 [p] qui peut s'écrire 3 </text>

<text 
x="287" 
y="154" 
dx="0,-0.1" 
class="s5_2"
>x </text>

<text 
x="301" 
y="154" 
dx="0" 
class="s1_2"
>3</text>

<text 
x="311" 
y="147" 
dx="0" 
class="s2_2"
>p</text>

<text 
x="318" 
y="147" 
dx="0" 
class="s3_2"
>–</text>

<text 
x="325" 
y="147" 
dx="0" 
class="s2_2"
>2</text>

<text 
x="337" 
y="154" 
dx="0" 
class="s4_2"
>≡</text>

<text 
x="355" 
y="154" 
dx="0,0,-0.4,0.1,0,0.1,0,-0.3,-0.2,0,0,0,0,0,-0.2,0,-0.2,0.1,-0.2,0.4,-0.2,-0.2,0,0,0.2,0,-0.2,0,0.1,0,0,0,0,0,0,-0.2,0.4,-0.2,0,0.1,0,0.1" 
class="s1_2"
>1 [p] et, en multipliant les deux membres </text>

<text 
x="29" 
y="179" 
dx="0,0,0,0,-0.2,0,0,0.1,0,0,-0.4,0.1,0,0,0,0.1,0,0,0,0.1,0.1,0,0,0,0" 
class="s1_2"
>de la congruence par 2 : </text>

<text 
x="29" 
y="205" 
dx="0,0" 
class="s1_2"
>6 </text>

<text 
x="45" 
y="205" 
dx="0,-0.1" 
class="s5_2"
>x </text>

<text 
x="59" 
y="205" 
dx="0" 
class="s1_2"
>3</text>

<text 
x="70" 
y="197" 
dx="0" 
class="s2_2"
>p</text>

<text 
x="76" 
y="197" 
dx="0" 
class="s3_2"
>–</text>

<text 
x="83" 
y="197" 
dx="0" 
class="s2_2"
>2</text>

<text 
x="96" 
y="205" 
dx="0" 
class="s4_2"
>≡</text>

<text 
x="113" 
y="205" 
dx="0,0,-0.4,0.5,0,0.1,-0.3" 
class="s1_2"
>2 [p]. </text>

<text 
x="29" 
y="255" 
dx="0,0,0,0,0.1,0.1" 
class="s1_2"
>5.b) u</text>

<text 
x="79" 
y="256" 
dx="0" 
class="s2_2"
>p</text>

<text 
x="86" 
y="256" 
dx="0" 
class="s3_2"
>–</text>

<text 
x="93" 
y="256" 
dx="0" 
class="s2_2"
>2</text>

<text 
x="105" 
y="255" 
dx="0,0.1,0" 
class="s1_2"
>= 2</text>

<text 
x="133" 
y="247" 
dx="0" 
class="s2_2"
>p</text>

<text 
x="140" 
y="247" 
dx="0" 
class="s3_2"
>–</text>

<text 
x="147" 
y="247" 
dx="0" 
class="s2_2"
>2</text>

<text 
x="159" 
y="255" 
dx="0,0.1,0" 
class="s1_2"
>+ 3</text>

<text 
x="187" 
y="247" 
dx="0" 
class="s2_2"
>P</text>

<text 
x="195" 
y="247" 
dx="0" 
class="s3_2"
>–</text>

<text 
x="202" 
y="247" 
dx="0" 
class="s2_2"
>2</text>

<text 
x="214" 
y="255" 
dx="0,0.1,0" 
class="s1_2"
>+ 6</text>

<text 
x="242" 
y="247" 
dx="0" 
class="s2_2"
>p</text>

<text 
x="249" 
y="247" 
dx="0" 
class="s3_2"
>–</text>

<text 
x="256" 
y="247" 
dx="0" 
class="s2_2"
>2</text>

<text 
x="268" 
y="255" 
dx="0" 
class="s4_2"
>–</text>

<text 
x="284" 
y="255" 
dx="0,-0.4" 
class="s1_2"
>1 </text>

<text 
x="29" 
y="281" 
dx="0,0,0" 
class="s1_2"
>6 u</text>

<text 
x="55" 
y="282" 
dx="0" 
class="s2_2"
>p</text>

<text 
x="62" 
y="282" 
dx="0" 
class="s3_2"
>–</text>

<text 
x="69" 
y="282" 
dx="0" 
class="s2_2"
>2</text>

<text 
x="81" 
y="281" 
dx="0,0.2,0,0" 
class="s1_2"
>= 6 </text>

<text 
x="115" 
y="281" 
dx="0" 
class="s5_2"
>x</text>

<text 
x="130" 
y="281" 
dx="0" 
class="s1_2"
>2</text>

<text 
x="140" 
y="273" 
dx="0" 
class="s2_2"
>p</text>

<text 
x="147" 
y="273" 
dx="0" 
class="s3_2"
>–</text>

<text 
x="154" 
y="273" 
dx="0" 
class="s2_2"
>2</text>

<text 
x="166" 
y="281" 
dx="0,0.2,0,0" 
class="s1_2"
>+ 6 </text>

<text 
x="200" 
y="281" 
dx="0" 
class="s5_2"
>x</text>

<text 
x="214" 
y="281" 
dx="0" 
class="s1_2"
>3</text>

<text 
x="225" 
y="273" 
dx="0" 
class="s2_2"
>P</text>

<text 
x="233" 
y="273" 
dx="0" 
class="s3_2"
>–</text>

<text 
x="240" 
y="273" 
dx="0" 
class="s2_2"
>2</text>

<text 
x="252" 
y="281" 
dx="0,0.2,0,0" 
class="s1_2"
>+ 6 </text>

<text 
x="285" 
y="281" 
dx="0" 
class="s5_2"
>x</text>

<text 
x="300" 
y="281" 
dx="0" 
class="s1_2"
>6</text>

<text 
x="311" 
y="273" 
dx="0" 
class="s2_2"
>p</text>

<text 
x="318" 
y="273" 
dx="0" 
class="s3_2"
>–</text>

<text 
x="324" 
y="273" 
dx="0" 
class="s2_2"
>2</text>

<text 
x="337" 
y="281" 
dx="0" 
class="s4_2"
>–</text>

<text 
x="353" 
y="281" 
dx="0,0" 
class="s1_2"
>6 </text>

<text 
x="29" 
y="307" 
dx="0,0,0" 
class="s1_2"
>6 u</text>

<text 
x="55" 
y="308" 
dx="0" 
class="s2_2"
>p</text>

<text 
x="62" 
y="308" 
dx="0" 
class="s3_2"
>–</text>

<text 
x="69" 
y="308" 
dx="0" 
class="s2_2"
>2</text>

<text 
x="81" 
y="307" 
dx="0,0.2,0,0" 
class="s1_2"
>= 6 </text>

<text 
x="115" 
y="307" 
dx="0" 
class="s5_2"
>x</text>

<text 
x="130" 
y="307" 
dx="0" 
class="s1_2"
>2</text>

<text 
x="140" 
y="299" 
dx="0" 
class="s2_2"
>p</text>

<text 
x="147" 
y="299" 
dx="0" 
class="s3_2"
>–</text>

<text 
x="154" 
y="299" 
dx="0" 
class="s2_2"
>2</text>

<text 
x="166" 
y="307" 
dx="0,0.2,0,0" 
class="s1_2"
>+ 6 </text>

<text 
x="200" 
y="307" 
dx="0" 
class="s5_2"
>x</text>

<text 
x="214" 
y="307" 
dx="0" 
class="s1_2"
>3</text>

<text 
x="225" 
y="299" 
dx="0" 
class="s2_2"
>P</text>

<text 
x="233" 
y="299" 
dx="0" 
class="s3_2"
>–</text>

<text 
x="240" 
y="299" 
dx="0" 
class="s2_2"
>2</text>

<text 
x="252" 
y="307" 
dx="0,0.2,0" 
class="s1_2"
>+ 6</text>

<text 
x="280" 
y="299" 
dx="0" 
class="s2_2"
>p</text>

<text 
x="287" 
y="299" 
dx="0" 
class="s3_2"
>–</text>

<text 
x="294" 
y="299" 
dx="0" 
class="s2_2"
>1</text>

<text 
x="306" 
y="307" 
dx="0" 
class="s4_2"
>–</text>

<text 
x="322" 
y="307" 
dx="0,-0.4" 
class="s1_2"
>6 </text>

<text 
x="29" 
y="331" 
dx="0,-0.1,0,0,0.1,0,-0.2,0,0.2,0,0,0,0,0.2,0,0,0,0,0.2" 
class="s1_2"
>En remarquant que 6</text>

<text 
x="208" 
y="324" 
dx="0" 
class="s2_2"
>p</text>

<text 
x="215" 
y="324" 
dx="0" 
class="s3_2"
>–</text>

<text 
x="222" 
y="324" 
dx="0" 
class="s2_2"
>1</text>

<text 
x="234" 
y="331" 
dx="0" 
class="s4_2"
>≡</text>

<text 
x="251" 
y="331" 
dx="0,0,-0.4,0.1,0,0.1,0,0.1,-0.4,0,0.2,-0.2,0.1,0,0.1,0,0,-0.3,0.1,0,-0.2,0,0,0,0.1,0,-0.4,0,0.2,-0.2,0,0.2,0.1,0,0,0,0,0,0.4" 
class="s1_2"
>1 [p] (petit théorème de Fermat), on a </text>

<text 
x="29" 
y="357" 
dx="0,0" 
class="s1_2"
>6 </text>

<text 
x="45" 
y="357" 
dx="0" 
class="s5_2"
>x</text>

<text 
x="59" 
y="357" 
dx="0" 
class="s1_2"
>2</text>

<text 
x="70" 
y="350" 
dx="0" 
class="s2_2"
>p</text>

<text 
x="77" 
y="350" 
dx="0" 
class="s3_2"
>–</text>

<text 
x="84" 
y="350" 
dx="0" 
class="s2_2"
>2</text>

<text 
x="96" 
y="357" 
dx="0,0.2,0,0" 
class="s1_2"
>+ 6 </text>

<text 
x="130" 
y="357" 
dx="0" 
class="s5_2"
>x</text>

<text 
x="144" 
y="357" 
dx="0" 
class="s1_2"
>3</text>

<text 
x="155" 
y="350" 
dx="0" 
class="s2_2"
>P</text>

<text 
x="162" 
y="350" 
dx="0" 
class="s3_2"
>–</text>

<text 
x="169" 
y="350" 
dx="0" 
class="s2_2"
>2</text>

<text 
x="182" 
y="357" 
dx="0,0.2,0" 
class="s1_2"
>+ 6</text>

<text 
x="210" 
y="350" 
dx="0" 
class="s2_2"
>p</text>

<text 
x="217" 
y="350" 
dx="0" 
class="s3_2"
>–</text>

<text 
x="224" 
y="350" 
dx="0" 
class="s2_2"
>1</text>

<text 
x="236" 
y="357" 
dx="0" 
class="s4_2"
>–</text>

<text 
x="252" 
y="357" 
dx="0,0" 
class="s1_2"
>6 </text>

<text 
x="268" 
y="357" 
dx="0" 
class="s4_2"
>≡</text>

<text 
x="285" 
y="357" 
dx="0,0,0,0.1,0,0,-0.4,0.1,0,0" 
class="s1_2"
>3 + 2 + 1 </text>

<text 
x="368" 
y="357" 
dx="0" 
class="s4_2"
>–</text>

<text 
x="384" 
y="357" 
dx="0,0" 
class="s1_2"
>6 </text>

<text 
x="400" 
y="357" 
dx="0" 
class="s4_2"
>≡</text>

<text 
x="418" 
y="357" 
dx="0,0,0,0.5,-0.4,0.2,0,0,0.1,0,-0.2,-0.2" 
class="s1_2"
>0 [p], soit </text>

<text 
x="29" 
y="382" 
dx="0,0,0" 
class="s1_2"
>6 u</text>

<text 
x="55" 
y="384" 
dx="0" 
class="s2_2"
>p</text>

<text 
x="62" 
y="384" 
dx="0" 
class="s3_2"
>–</text>

<text 
x="69" 
y="384" 
dx="0" 
class="s2_2"
>2</text>

<text 
x="81" 
y="382" 
dx="0,0.1,0,0,-0.4,0.5,0" 
class="s4_2"
>≡ 0 [p]</text>

<text 
x="29" 
y="431" 
dx="0,0,0,0,0,0.2,0,0.1,0,0,0,0.1,0,0,0,0,0,0,0,0.1,0,0,0,0,0.1,0,0,0,0,0,0,0,0,0,0,0,0,0,0,0,0,0" 
class="s1_2"
>5.c) p est premier avec 6, donc p divise u</text>

<text 
x="380" 
y="433" 
dx="0" 
class="s2_2"
>p</text>

<text 
x="387" 
y="433" 
dx="0" 
class="s3_2"
>–</text>

<text 
x="394" 
y="433" 
dx="0" 
class="s2_2"
>2</text>

<text 
x="406" 
y="431" 
dx="0,0,0,0,0,0,0,0,0,0,0,0,0,0.1,0,0,0,0,0,0" 
class="s1_2"
>(théorème de Gauss).</text>

<text 
x="29" 
y="458" 
dx="0,0,0,0,0" 
class="s6_2"
>Donc </text>

<text 
x="80" 
y="458" 
dx="0,0" 
class="s1_2"
>p </text>

<text 
x="96" 
y="458" 
dx="0" 
class="s7_2"
>∈</text>

<text 
x="112" 
y="458" 
dx="0,0,0,0,0" 
class="s1_2"
>(E). </text>



<!-- Any embedded fonts defined here -->
<style type="text/css" ><![CDATA[

@font-face {
	font-family: TimesNewRomanPSMT_1e;
	src: url("fonts/TimesNewRomanPSMT_1e.woff") format("woff");
}

@font-face {
	font-family: Calibri_12;
	src: url("fonts/Calibri_12.woff") format("woff");
}

@font-face {
	font-family: TimesNewRomanPSMT_f;
	src: url("fonts/TimesNewRomanPSMT_f.woff") format("woff");
}

@font-face {
	font-family: CambriaMath_q;
	src: url("fonts/CambriaMath_q.woff") format("woff");
}

]]></style>

</svg>
