<?xml version="1.0" encoding="utf-8"?>
<!-- Generator: Adobe Illustrator 22.1.0, SVG Export Plug-In . SVG Version: 6.00 Build 0)  -->
<svg version="1.1" id="Calque_1" xmlns="http://www.w3.org/2000/svg" xmlns:xlink="http://www.w3.org/1999/xlink" x="0px" y="0px"
	 viewBox="0 0 572 41" style="enable-background:new 0 0 572 41;" xml:space="preserve">

<g>
	<path d="M1.3,21.1C1.3,10.8,9.2,3.5,20,3.5c6.6,0,11.8,2.4,15.1,6.7l-7.2,6.4c-2-2.5-4.3-3.9-7.3-3.9
		c-4.7,0-7.9,3.3-7.9,8.4c0,5.1,3.2,8.4,7.9,8.4c3,0,5.4-1.4,7.3-3.9l7.2,6.4c-3.3,4.3-8.5,6.7-15.1,6.7C9.2,38.6,1.3,31.4,1.3,21.1
		z"/>
	<path d="M36.3,21.1c0-10.2,8-17.6,19-17.6c10.9,0,19,7.4,19,17.6c0,10.2-8,17.6-19,17.6C44.3,38.6,36.3,31.3,36.3,21.1
		z M62.8,21.1c0-5.2-3.4-8.4-7.5-8.4c-4.2,0-7.5,3.2-7.5,8.4s3.4,8.4,7.5,8.4C59.4,29.5,62.8,26.3,62.8,21.1z"/>
	<path d="M78,22.8V4.3h11.3v18.1c0,5.1,2,7.1,5.1,7.1s5.1-1.9,5.1-7.1V4.3h11.1v18.5c0,10.1-6,15.9-16.4,15.9
		C84.1,38.6,78,32.8,78,22.8z"/>
	<path d="M130.3,29.4h-3.1v8.4h-11.3V4.3h16.2c9.4,0,15.3,4.9,15.3,12.7c0,4.8-2.3,8.5-6.3,10.6l7.1,10.4h-12.1
		L130.3,29.4z M131.4,13h-4.1v7.9h4.1c3.1,0,4.6-1.5,4.6-3.9S134.5,13,131.4,13z"/>
	<path d="M149.6,35.2l3.6-8.3c3.2,1.9,7.4,3.1,11.1,3.1c3.2,0,4.4-0.7,4.4-1.8c0-4.2-18.6-0.8-18.6-13.3
		c0-6.2,5.2-11.3,15.6-11.3c4.5,0,9.2,1,12.7,2.9l-3.4,8.2c-3.3-1.7-6.4-2.5-9.4-2.5c-3.3,0-4.4,1-4.4,2.1c0,4,18.6,0.7,18.6,13.1
		c0,6.1-5.2,11.3-15.6,11.3C158.6,38.6,152.9,37.3,149.6,35.2z"/>
	<path d="M229.1,16.9c0,7.8-6,12.7-15.3,12.7H209v8.3h-11.3V4.3h16.2C223.2,4.3,229.1,9.2,229.1,16.9z M217.7,16.9
		c0-2.4-1.5-3.9-4.6-3.9H209v7.9h4.1C216.2,20.9,217.7,19.4,217.7,16.9z"/>
	<path d="M254,32h-12.8l-2.3,5.9h-11.5l14.7-33.6h11.1L268,37.9h-11.7L254,32z M250.9,23.9l-3.3-8.4l-3.3,8.4H250.9z"/>
	<path d="M284.2,29.4h-3.1v8.4h-11.3V4.3H286c9.4,0,15.3,4.9,15.3,12.7c0,4.8-2.3,8.5-6.3,10.6l7.1,10.4h-12.1
		L284.2,29.4z M285.3,13h-4.1v7.9h4.1c3.1,0,4.6-1.5,4.6-3.9S288.4,13,285.3,13z"/>
	<path d="M312.4,13.1h-9.8V4.3h31v8.8h-9.8v24.8h-11.3V13.1z"/>
	<path d="M336.5,4.3h11.3v33.6h-11.3V4.3z"/>
	<path d="M352,21.1c0-10.3,7.9-17.6,18.7-17.6c6.6,0,11.8,2.4,15.1,6.7l-7.2,6.4c-2-2.5-4.3-3.9-7.3-3.9
		c-4.7,0-7.9,3.3-7.9,8.4c0,5.1,3.2,8.4,7.9,8.4c3,0,5.4-1.4,7.3-3.9l7.2,6.4c-3.3,4.3-8.5,6.7-15.1,6.7
		C359.9,38.6,352,31.4,352,21.1z"/>
	<path d="M388.2,22.8V4.3h11.3v18.1c0,5.1,2,7.1,5.1,7.1c3.2,0,5.1-1.9,5.1-7.1V4.3H421v18.5c0,10.1-6,15.9-16.4,15.9
		C394.3,38.6,388.2,32.8,388.2,22.8z"/>
	<path d="M426.2,4.3h11.3v24.8h15.2v8.8h-26.5V4.3z"/>
	<path d="M455.8,4.3h11.3v33.6h-11.3V4.3z"/>
	<path d="M500.5,29.3v8.5h-27.9V4.3h27.3v8.5h-16.2v3.9h14.2v8.2h-14.2v4.4H500.5z"/>
	<path d="M519.3,29.4h-3.1v8.4h-11.3V4.3h16.2c9.4,0,15.3,4.9,15.3,12.7c0,4.8-2.3,8.5-6.3,10.6l7.1,10.4H525
		L519.3,29.4z M520.3,13h-4.1v7.9h4.1c3.1,0,4.6-1.5,4.6-3.9S523.5,13,520.3,13z"/>
	<path d="M538.5,35.2l3.6-8.3c3.2,1.9,7.4,3.1,11.1,3.1c3.2,0,4.4-0.7,4.4-1.8c0-4.2-18.6-0.8-18.6-13.3
		c0-6.2,5.2-11.3,15.6-11.3c4.5,0,9.2,1,12.7,2.9l-3.4,8.2c-3.3-1.7-6.4-2.5-9.4-2.5c-3.3,0-4.4,1-4.4,2.1c0,4,18.6,0.7,18.6,13.1
		c0,6.1-5.2,11.3-15.6,11.3C547.6,38.6,541.9,37.3,538.5,35.2z"/>
</g>
</svg>
