<svg xmlns="http://www.w3.org/2000/svg" xmlns:xlink="http://www.w3.org/1999/xlink">
  <symbol id="icon-pen" viewBox="0 0 200 200">
<g>
	<g>
		<path d="M0,200.1l9.6-56.8l1.2-1.2l141-141l47.2,47.2L56.8,190.5L0,200.1z M19.9,148.6l-6.5,38.1l38.1-6.5l132-132l-31.7-31.7
			L19.9,148.6z"/>
	</g>
	<g>
		<rect x="30.6" y="135.9" transform="matrix(0.7071 -0.7071 0.7071 0.7071 -106.0278 73.0926)" width="9.2" height="57.3"/>
	</g>
	<g>
		<rect x="7" y="93.5" transform="matrix(0.7071 -0.7071 0.7071 0.7071 -39.4571 100.8492)" width="190" height="9.2"/>
	</g>
	<g>
		<rect x="11.9" y="173.9" transform="matrix(0.6945 -0.7195 0.7195 0.6945 -127.5741 68.158)" width="9.2" height="20.9"/>
	</g>
</g>
</symbol>
  <symbol id="icon-delete" viewBox="0 0 1000 1000">
<path d="m826.7 174.8h-141.8c0-8.8-0.4-38.7-1.8-49.2-2.6-19.1-8-36.5-15.9-51.9-23.7-46-63.4-58.2-98.9-61.6-19.6-1.9-44.2-2.2-68.2-2-24-0.2-48.7 0.1-68.3 2-35.5 3.4-75.2 15.7-98.9 61.6-7.9 15.4-13.2 32.8-15.8 51.9-1.4 10.5-1.8 40.4-1.9 49.2h-141.9c-60.1 0-109.1 49-109.1 109.2 0 49.7 33.5 91.7 79.1 104.8l52.9 571.7 2.4 29.5h603.1l2.7-29.2 60.6-574.8c41.4-15.6 70.8-55.4 70.8-102 0-60.2-48.9-109.2-109.1-109.2zm-441-39.8c1.5-11.2 4.4-21.2 8.8-29.5 7.1-13.9 17.3-20.3 35.8-23.2 22.8-3.6 116.8-3.6 139.5 0 18.6 2.9 28.6 9.4 35.8 23.2 4.3 8.3 7.3 18.3 8.8 29.5 0.9 6.9 1.2 33.2 1.2 39.8h-231.2c0.1-6.6 0.4-33 1.3-39.8zm357.3 790.6h-485l-49.7-532.6h591.3l-56.6 532.6zm83.7-597h-653.4c-24.6 0-44.6-20.1-44.6-44.6 0-24.6 20-44.6 44.6-44.6h653.4c24.7 0 44.6 20.1 44.6 44.6s-19.9 44.6-44.6 44.6zm-484.3 538.9c15 0 27.2-12.2 27.2-27.3v-357.3c0-15.1-12.2-27.3-27.2-27.3s-27.3 12.2-27.3 27.3v357.2c0 15.2 12.3 27.4 27.3 27.4zm157.6 0c15.1 0 27.2-12.2 27.2-27.3v-357.3c0-15.1-12.1-27.3-27.2-27.3-15 0-27.3 12.2-27.3 27.3v357.2c0 15.2 12.3 27.4 27.3 27.4zm157.6 0c15 0 27.2-12.2 27.2-27.3v-357.3c0-15.1-12.2-27.3-27.2-27.3s-27.2 12.2-27.2 27.3v357.2c0 15.2 12.2 27.4 27.2 27.4z"/></symbol>
<symbol id="icon-zoom" viewBox="0 0 500 500">
<g fill="none" stroke="#000000" stroke-width="10">
	<path d="M165,288.5c-61.6,0-111.8-50.1-111.8-111.8S103.4,65,165,65c61.6,0,111.8,50.1,111.8,111.8S226.7,288.5,165,288.5z M165,85
		c-50.6,0-91.8,41.2-91.8,91.8s41.2,91.8,91.8,91.8s91.8-41.2,91.8-91.8S215.6,85,165,85z"/>

	<path d="M165,341.9c-41,0-80.4-15.2-110.8-42.7C-13.3,238-18.5,133.4,42.7,65.9c31.2-34.5,75.8-54.2,122.4-54.2
		c41,0,80.4,15.2,110.8,42.7c32.7,29.6,51.9,70.2,54.1,114.2c2.2,44-12.9,86.3-42.6,119C256.1,322.1,211.5,341.9,165,341.9z
		 M165.1,31.7c-40.9,0-80.1,17.4-107.6,47.7C3.8,138.6,8.3,230.6,67.6,284.3c26.7,24.2,61.3,37.6,97.4,37.6
		c40.9,0,80.1-17.4,107.6-47.7c26-28.7,39.3-65.9,37.4-104.6c-1.9-38.7-18.8-74.4-47.5-100.4C235.7,45,201.1,31.7,165.1,31.7z"/>

	<path d="M415.8,478.2c-17.8,0-35.6-6.3-49.7-19.2c-0.2-0.2-0.4-0.4-0.6-0.6L261.6,346.2c-3.8-4.1-3.5-10.4,0.6-14.1
		c4.1-3.8,10.4-3.5,14.1,0.6l103.5,111.9c22.1,19.7,56.2,18,76.1-4.1c9.7-10.7,14.7-24.6,13.9-39c-0.7-14.3-6.9-27.5-17.4-37.2
		L329,270.9c-4.4-3.3-5.3-9.6-1.9-14c3.3-4.4,9.6-5.3,14-1.9l123.8,93.7c0.2,0.2,0.5,0.4,0.7,0.6c14.7,13.3,23.3,31.5,24.3,51.3
		s-5.8,38.7-19.1,53.4C456.1,470,436,478.2,415.8,478.2z"/>
</g>
</symbol>
<symbol id="icon-restore" viewBox="0 0 21 21">
<path d="M12.1,1.5c-5,0-9,4-9,9h-3l4,4l4-4h-3c0-3.9,3.1-7,7-7s7,3.1,7,7s-3.1,7-7,7c-1.9,0-3.7-0.8-4.9-2.1l-1.4,1.4c1.6,1.7,3.8,2.7,6.3,2.7c5,0,9-4,9-9S17.1,1.5,12.1,1.5z"/>
</symbol>
<symbol id="icon-dif-1" viewBox="0 0 28.7 8.6">
<circle cx="4.38" cy="4.27" r="3.9" fill="#7ec248" stroke="#7ec248" stroke-width="1"/>
<g fill="none" stroke="#7ec248" stroke-width="1">
<circle cx="14.38" cy="4.27" r="3.9"/>
<circle cx="24.38" cy="4.27" r="3.9"/>
</g>
</symbol>
<symbol id="icon-dif-2" viewBox="0 0 28.7 8.6">
<g fill="#ffd200" stroke="#ffd200" stroke-width="1">
<circle cx="4.38" cy="4.27" r="3.9" />
<circle cx="14.38" cy="4.27" r="3.9" />
</g>
<circle cx="24.38" cy="4.27" r="3.9" fill="none" stroke="#ffd200" stroke-width="1"/>
</symbol>
<symbol id="icon-dif-3" viewBox="0 0 28.7 8.6">
<g fill="#ff1200" stroke="#ff1200" stroke-width="1">
	<circle cx="4.38" cy="4.27" r="3.9"/>
	<circle cx="14.38" cy="4.27" r="3.9"/>
	<circle cx="24.38" cy="4.27" r="3.9"/>
</g>
</symbol>
<symbol id="puce" viewBox="0 0 7.2 7.2">
<g stroke-width="1">
<circle cx="3.58" cy="3.67" r="3.2" fill="#f9f9f9" stroke="#8ba9a2"/>
<circle cx="4.08" cy="3.87" r="2.3" fill="#c9d3cf" stroke="#b6cec5"/>
</g>
</symbol>
<symbol id="icon-gear" viewBox="0 0 19.5 19.5">
	<g fill="none" stroke="#000000" stroke-width="1">
<path class="st0" d="M18.7,11.3c0.1-0.5,0.1-1,0.1-1.5s-0.1-1-0.1-1.5L16.2,8C16,7.5,15.8,7,15.5,6.5l1.6-1.9
	C16.5,3.7,15.8,3,15,2.5L13.1,4c-0.5-0.3-1-0.5-1.6-0.6l-0.3-2.5c-0.5-0.1-1-0.1-1.5-0.1s-1,0.1-1.5,0.1L8,3.4C7.5,3.5,7,3.7,6.5,4
	L4.6,2.5C3.7,3,3,3.7,2.5,4.6L4,6.5C3.7,7,3.5,7.5,3.4,8L0.9,8.3c-0.1,0.5-0.1,1-0.1,1.5s0.1,1,0.1,1.5l2.5,0.3
	c0.1,0.6,0.4,1.1,0.6,1.6L2.5,15c0.6,0.8,1.3,1.5,2.1,2.1l1.9-1.6C7,15.8,7.5,16,8,16.2l0.3,2.5c0.5,0.1,1,0.1,1.5,0.1
	s1-0.1,1.5-0.1l0.3-2.5c0.6-0.1,1.1-0.4,1.6-0.6l1.9,1.6c0.8-0.6,1.5-1.3,2.1-2.1l-1.6-1.9c0.3-0.5,0.5-1,0.6-1.6L18.7,11.3z
	 M9.8,13.8c-2.2,0-4-1.8-4-4s1.8-4,4-4s4,1.8,4,4S12,13.8,9.8,13.8z"/>
	</g>
	</symbol>
	<symbol id="icon-tools" viewBox="0 0 512 512">
		<g fill="none" stroke="#000000" stroke-width="15">
	<path d="m312.9 250.1 17.6-17.6c2.3-2.3 2.3-6.1 0-8.5l-5.3-5.3 110-110 27.8-9.9c1.3-0.5 2.5-1.4 3.2-2.6l33.1-56.6c1.4-2.4 1-5.3-0.9-7.3l-18.8-18.8c-1.9-1.9-4.9-2.3-7.3-0.9l-56.6 33.1c-1.2 0.7-2.2 1.8-2.6 3.2l-9.9 27.8-110 110-5.3-5.3c-2.3-2.3-6.1-2.3-8.5 0l-17.6 17.6-34.3-34.3c24.4-59.1-3.8-126.7-62.8-151.1-25.7-10.5-54.4-11.5-80.8-2.6-3.1 1-4.8 4.4-3.8 7.6 0.3 0.9 0.8 1.7 1.4 2.3l42.2 42.2-10 50.1-52.1 9.2-40.6-41c-2.3-2.4-6.2-2.4-8.5 0-0.7 0.7-1.2 1.5-1.5 2.3-20.4 60.6 12.2 126.2 72.8 146.5 26.4 8.9 55.2 7.9 81-2.7l20.4 20.4-22.7 12.4c-0.5 0.3-1 0.6-1.4 1l-135.4 135.6c-18.3 18.3-18.3 48 0 66.3l23.1 23.1c18.3 18.3 48 18.3 66.3 0l135.5-135.5c0.4-0.4 0.7-0.9 1-1.4l12.4-22.7 167.3 167.3c17.3 17.3 45.4 17.3 62.8 0s17.3-45.4 0-62.8l-181.2-181.1zm-11.4 34.1c-4.1 4.1-10.9 4.1-15 0l-58.7-58.7c-4.1-4.2-3.9-10.9 0.3-15 4.1-3.9 10.6-3.9 14.7 0l58.7 58.7c4.2 4.1 4.2 10.8 0 15zm111.1-199.8c0.6-0.6 1.1-1.4 1.4-2.2l9.6-27.1 50.7-29.6 12.2 12.2-29.6 50.7-27 9.6c-0.8 0.3-1.6 0.8-2.2 1.4l-111 110.9-15-15 110.9-110.9zm-128.9 109.9 34 34-20 20-34-34 20-20zm-70.7 27c0.5 3.4 1.8 6.6 3.7 9.5l-20.5 11.2-25.8-25.8c-1.8-1.8-4.5-2.3-6.7-1.2-39.4 17.8-85.7 9.4-116.3-21-25.5-25.3-36-62-27.7-96.9l35.7 35.9c1.4 1.4 3.4 2 5.3 1.7l59.2-10.5c2.4-0.4 4.4-2.3 4.8-4.7l11.5-57.3c0.4-2-0.2-4-1.6-5.4l-37.3-37.2c55.8-12.9 111.5 21.9 124.3 77.7 5.1 22.2 2.8 45.5-6.7 66.3-1 2.3-0.6 5 1.2 6.7l26.1 26.1c-10.2-3.3-21.4 1-26.7 10.4m26 136.2-134.9 134.9c-13.6 13.6-35.7 13.6-49.3 0l-23.1-23.1c-13.6-13.6-13.6-35.7 0-49.3l134.8-135 56.1-30.7 47.1 47.1-30.7 56.1zm63.6-46.6c9.4-5.2 13.8-16.4 10.5-26.7l170 170c12.6 12.6 12.6 33.1 0 45.8-12.6 12.6-33.1 12.6-45.8 0l-169.8-169.7 11.2-20.5c2.9 2 6.1 3.2 9.6 3.7 0.1 0.1 0.2 0.3 0.3 0.4"/>
		</g>
		</symbol>
</svg>