<?xml version="1.0" encoding="utf-8"?>
<!-- Generator: Adobe Illustrator 22.1.0, SVG Export Plug-In . SVG Version: 6.00 Build 0)  -->
<svg version="1.1" id="Calque_1" xmlns="http://www.w3.org/2000/svg" xmlns:xlink="http://www.w3.org/1999/xlink" x="0px" y="0px"
	 viewBox="0 0 2205 265" style="enable-background:new 0 0 2205 265;" xml:space="preserve">
<style type="text/css">
	.st0{fill:#FFFFFF;}
	.st1{fill:#293957;}
	.st2{fill:#FFFFFF;}
</style>
<circle class="st0" cx="92.9" cy="92.9" r="92.9"/>
<path class="st1" d="M161.7,123.4c0.9,0.1,1.1,0.2,1.8,0.4c0.4,0.6,0.7,0.6,0.8,1.5c0.2,1.7-0.1,3.4-0.4,4.3
	c-0.1,0.4-0.4,0.7-1.1,0.8H34.6c-2.1,0-9.1,0.6-10.4-0.2c-0.6-0.2-0.8-0.4-1.1-0.8c-1.2-1.4-0.5-5.1,0.8-5.6c0.6-0.5,1.8-0.5,3-0.4
	c-0.2-1.7-1.3-2.7-1.8-4.6c-0.8-3.3,1-8.4,1.8-10.6c1.9-5.3,3.6-10.4,5.6-15.4c1.5-3.7,2.1-7.4,4.1-10.6c1.2-1.9,3.2-4.5,5-5.8
	c1-0.7,2.9-0.9,3.4-2c1.1-1.6,0.6-8.6,1.1-11c2.2-8.7,4.3-16.5,11-20.5c2-1.1,4.2-1.8,6.5-2c10.2-0.4,15.6,3.2,18.4,10.2
	c1,2.4,1.1,4.7,1.8,7.4c0.6,2.5,1.9,8.2,1.1,11.6c-0.5,2-1.4,3.9-1.5,6c3.9,1.9,8.8,3.8,11.2,7.2c2.1,2.8,4.1,5.9,6,8.8
	c0.6,1,1.3,2.5,2.2,3.2c3.4,2.7,7.4,2,7.4,2s-0.5-1.3-1-2.9c-0.6-2.7-0.8-5.5-1.4-7.9c-0.9-3.4-2.9-8.9-1.5-13.6
	c2.4-8.6,12.6-15.4,23.4-10.8c7.2,3.1,14,10.7,10.8,22c-0.8,2.8-3.6,9.5-3.2,11.6c9.9,3.1,24.1,14.3,24.4,22.2
	C162,120,161.7,121.7,161.7,123.4"/>
<path class="st2" d="M282.4,15.7c8.7-2.1,20.8-3.5,33.4-3.5c14.9,0,29,3.7,37.7,12c7.3,6.9,11.2,16,11.2,28.3
	c0,17.6-8.5,32.2-18.6,40.8c-11.8,10.2-29.2,14.8-46.6,14.8c-5.7,0-11-0.5-15.8-1.2L272,169.4h-18.8L282.4,15.7L282.4,15.7z
	 M286.7,90.7c5.5,1.2,9.9,1.6,15.3,1.6c26.1,0,43.4-16.4,43.4-38.4c0-18.5-13-25.9-30.6-25.9c-7.5,0-13.2,0.7-16.7,1.6L286.7,90.7z"
	/>
<path class="st2" d="M366.1,169.5l13.5-72.3c2.8-14.6,4.5-29.4,5.7-39.8H402c-0.9,7.9-1.9,15.7-3,24.3h0.7
	c7.1-15.3,19-26.9,33.9-26.9c1.6,0,3.8,0.2,5.2,0.5l-3.7,19c-1.2-0.2-3-0.5-5-0.5c-16.5,0-31.1,20.1-35.9,46.3l-9.2,49.3h-19
	L366.1,169.5z"/>
<path class="st2" d="M543.5,101.6c0,34.5-24.2,70.4-61.3,70.4c-27.6,0-43.2-20.8-43.2-46.1c0-36.8,25.4-71.1,61.3-71.1
	C530.2,54.8,543.5,77.7,543.5,101.6z M458.7,125.2c0,18.3,9.9,31.5,26.1,31.5c22.4,0,39.3-29.2,39.3-55.3c0-13-5.9-31.3-25.9-31.3
	C474.5,70.1,458.4,99.5,458.7,125.2L458.7,125.2z"/>
<path class="st2" d="M559.5,169.5l18.1-97h-14.6l2.8-15.1h14.9l1.2-5.8c2.5-15.7,8-30.1,18.1-39.1c6.8-6.5,16.7-10,26.3-10
	c7.5,0,12.5,1.4,15.1,3L637,20.8c-3-1.4-6.8-2.1-11.2-2.1c-15.1,0-22.4,14.8-25.6,33.3l-0.9,5.3h24.7l-3,15.1h-24.5l-18.3,97h-19
	L559.5,169.5z"/>
<path class="st2" d="M701.2,163c-8.2,4.9-21.7,8.8-36.6,8.8c-29.2,0-42-20.1-42-44.9c0-33.8,24.7-72,60.3-72
	c21,0,32.5,12.7,32.5,28.7c0,29.4-32.7,37.3-73.6,36.6c-0.9,4.9-0.2,15.3,2.3,21.3c4.3,10,13.2,15.1,24.7,15.1
	c13,0,22.9-4.2,29.7-7.9L701.2,163L701.2,163z M680.2,69.9c-18.1,0-31.6,17.8-36.1,35.4c29.7,0.2,53-3.7,53-21.1
	C697.1,75,690.2,69.9,680.2,69.9L680.2,69.9z"/>
<path class="st2" d="M725.9,150c5.2,3.2,14.9,6.9,23.8,6.9c12.8,0,21-8.3,21-18.3c0-8.8-3.8-14.1-15.3-20.6
	c-12.8-7.2-19.8-17.1-19.8-28.5c0-19.7,16.7-34.7,40-34.7c10.1,0,19,2.8,23.1,5.6L793.3,75c-3.8-2.3-11-5.1-19.2-5.1
	c-11.5,0-19.6,7.2-19.6,16.9c0,8.1,5.2,13.2,15.1,18.8c12.3,7.2,20.8,16.9,20.8,29.4c0,23.6-19,36.8-42.2,36.8
	c-11.8,0-22.4-3.7-27.4-7.6L725.9,150L725.9,150z"/>
<path class="st2" d="M811.2,150c5.2,3.2,14.9,6.9,23.8,6.9c12.8,0,21-8.3,21-18.3c0-8.8-3.8-14.1-15.3-20.6
	c-12.8-7.2-19.8-17.1-19.8-28.5c0-19.7,16.7-34.7,40-34.7c10.1,0,19,2.8,23.1,5.6L878.6,75c-3.8-2.3-11-5.1-19.2-5.1
	c-11.5,0-19.6,7.2-19.6,16.9c0,8.1,5.2,13.2,15.1,18.8c12.3,7.2,20.8,16.9,20.8,29.4c0,23.6-19,36.8-42.2,36.8
	c-11.8,0-22.4-3.7-27.4-7.6L811.2,150L811.2,150z"/>
<path class="st2" d="M975.2,163c-8.2,4.9-21.7,8.8-36.6,8.8c-29.2,0-42-20.1-42-44.9c0-33.8,24.7-72,60.3-72
	c21,0,32.5,12.7,32.5,28.7c0,29.4-32.7,37.3-73.6,36.6c-0.9,4.9-0.2,15.3,2.3,21.3c4.3,10,13.2,15.1,24.7,15.1
	c13,0,22.9-4.2,29.7-7.9L975.2,163L975.2,163z M954.2,69.9c-18.1,0-31.6,17.8-36.1,35.4c29.7,0.2,53-3.7,53-21.1
	C971.2,75,964.3,69.9,954.2,69.9L954.2,69.9z"/>
<path class="st2" d="M1106.9,57.4l-14.9,79.4c-2.3,12.5-3.8,23.4-5,32.7h-17.2l3-21.1h-0.5c-9.9,14.6-24.5,23.6-39.1,23.6
	c-14.2,0-29-6.9-29-32.4c0-5.3,0.7-11.3,2.1-18.8l11.8-63.5h19l-11.6,62.5c-1.4,6.3-2.1,11.6-2.1,16.4c0,11.6,4.8,19.5,17.9,19.5
	c13.7,0,31.3-16.2,35.9-41l10.8-57.4h19.1L1106.9,57.4z"/>
<path class="st2" d="M1119.2,169.5l13.5-72.3c2.8-14.6,4.5-29.4,5.7-39.8h16.7c-0.9,7.9-1.9,15.7-3,24.3h0.7
	c7.1-15.3,19-26.9,33.9-26.9c1.6,0,3.8,0.2,5.2,0.5l-3.7,19c-1.2-0.2-3-0.5-5-0.5c-16.5,0-31.1,20.1-35.9,46.3l-9.2,49.3h-19
	L1119.2,169.5z"/>
<path class="st2" d="M1249.1,99.3l-2.8,15.1h-54.9l3-15.1H1249.1z"/>
<path class="st2" d="M1250.2,215.3l22.2-118.1c2.3-13.4,4.5-28.5,6.2-39.8h17.4l-3.2,21.1h0.5c10.1-14.6,24.7-23.6,39.8-23.6
	c24,0,34.1,19.9,34.1,40.5c0,39.4-27.9,76.7-64.7,76.7c-11.8,0-19.6-2.5-24-5.1h-0.5l-8.9,48.4L1250.2,215.3L1250.2,215.3z
	 M1281.3,150.7c4.8,3.9,12.1,6.3,21,6.3c24.5,0,45-30.8,45-60.2c0-11.8-5.2-25.9-21.2-25.9c-14.9,0-33.6,17.4-39.3,48.6
	L1281.3,150.7z"/>
<path class="st2" d="M1453.5,169.5c0-6.7,1.2-17.4,2.5-28.9h-0.5c-12.1,23.2-27.2,31.5-42.9,31.5c-19.4,0-31.8-15.7-31.8-37.1
	c0-38.9,28.3-80.1,76.6-80.1c10.6,0,22.2,1.9,29.7,4.4l-11.2,58.4c-3.7,19.5-5.2,39.4-4.8,51.9h-17.6L1453.5,169.5z M1465.8,71.7
	c-2.8-0.7-6.8-1.6-13.2-1.6c-28.5,0-51.9,30.3-52.1,61.4c0,12.5,4.3,24.8,19,24.8c15.8,0,34.5-20.8,40-50.7L1465.8,71.7L1465.8,71.7
	z"/>
<path class="st2" d="M1499.5,169.5l13.5-72.3c2.8-14.6,4.5-29.4,5.7-39.8h16.7c-0.9,7.9-1.9,15.7-3,24.3h0.7
	c7.1-15.3,19-26.9,33.9-26.9c1.6,0,3.8,0.2,5.2,0.5l-3.7,19c-1.2-0.2-3-0.5-5-0.5c-16.5,0-31.1,20.1-35.9,46.3l-9.2,49.3h-19
	L1499.5,169.5z"/>
<path class="st2" d="M1627.7,27.3l-5.7,30.1h26.6l-3,15.1H1619l-10.3,54.4c-1.2,6.3-2.1,12-2.1,18.1c0,6.7,3.2,10.7,10.6,10.7
	c3.2,0,6.4-0.2,8.9-0.7l-0.9,15.1c-3.5,1.4-9.2,2.1-14.6,2.1c-16.9,0-23.3-10.4-23.3-21.8c0-6.5,0.7-13,2.3-21.1l11-56.7h-16l3-15.1
	h15.8l4.8-25.2C1608.1,32.3,1627.7,27.3,1627.7,27.3z"/>
<path class="st2" d="M1649.6,169.5l21.2-112.1h19l-21.2,112.1H1649.6z M1674.3,26.1c0-7.4,5.7-13,12.5-13s11.2,5.1,11.2,12
	c-0.2,7.6-5.5,13-12.8,13C1678.6,38.1,1674.3,33.1,1674.3,26.1z"/>
<path class="st2" d="M1778,165.1c-5.7,2.8-17.2,6.7-32,6.7c-28.5,0-42.5-19.5-42.5-43.3c0-38.2,27.9-73.4,67.6-73.4
	c10.3,0,19.6,3,23.1,4.9l-5.5,15.3c-4.3-2.1-10.6-4.2-18.8-4.2c-28.8,0-46.9,28.7-46.9,55.1c0,18.1,9.4,29.9,27.4,29.9
	c11.2,0,19.8-3.5,25.6-6.3L1778,165.1L1778,165.1z"/>
<path class="st2" d="M1906.5,57.4l-14.9,79.4c-2.3,12.5-3.8,23.4-5,32.7h-17.2l3-21.1h-0.5c-9.9,14.6-24.5,23.6-39.1,23.6
	c-14.2,0-29-6.9-29-32.4c0-5.3,0.7-11.3,2.1-18.8l11.8-63.5h19l-11.6,62.5c-1.4,6.3-2.1,11.6-2.1,16.4c0,11.6,4.8,19.5,17.9,19.5
	c13.7,0,31.3-16.2,35.9-41l10.8-57.4h19.1V57.4z"/>
<path class="st2" d="M1919.1,169.5L1950,5h19l-31.1,164.4h-18.8V169.5z"/>
<path class="st2" d="M1971.2,169.5l21.2-112.1h19l-21.2,112.1H1971.2z M1995.9,26.1c0-7.4,5.7-13,12.5-13c6.8,0,11.2,5.1,11.2,12
	c-0.2,7.6-5.5,13-12.8,13C2000.2,38.1,1995.9,33.1,1995.9,26.1z"/>
<path class="st2" d="M2103.4,163c-8.2,4.9-21.7,8.8-36.6,8.8c-29.2,0-42-20.1-42-44.9c0-33.8,24.7-72,60.3-72
	c21,0,32.5,12.7,32.5,28.7c0,29.4-32.7,37.3-73.6,36.6c-0.9,4.9-0.2,15.3,2.3,21.3c4.3,10,13.2,15.1,24.7,15.1
	c13,0,22.9-4.2,29.7-7.9L2103.4,163L2103.4,163z M2082.3,69.9c-18.1,0-31.6,17.8-36.1,35.4c29.7,0.2,53-3.7,53-21.1
	C2099.2,75,2092.4,69.9,2082.3,69.9z"/>
<path class="st2" d="M2127.2,169.5l13.5-72.3c2.8-14.6,4.5-29.4,5.7-39.8h16.7c-0.9,7.9-1.9,15.7-3,24.3h0.7
	c7.1-15.3,19-26.9,33.9-26.9c1.6,0,3.8,0.2,5.2,0.5l-3.7,19c-1.2-0.2-3-0.5-5-0.5c-16.5,0-31.1,20.1-35.9,46.3l-9.2,49.3h-19V169.5z
	"/>
<path class="st2" d="M1970.1,254.8c0-4.4,3-7.6,7.1-7.6c4.1,0,7,3.1,7,7.6c0,4.3-2.8,7.6-7.1,7.6
	C1973,262.3,1970.1,259.1,1970.1,254.8L1970.1,254.8z"/>
<path class="st2" d="M2038,258.8c-2.8,1.4-8.8,3.4-16.5,3.4c-17.3,0-28.5-11.9-28.5-29.6c0-17.9,12-30.8,30.8-30.8
	c6.1,0,11.6,1.6,14.4,3l-2.4,8.2c-2.5-1.4-6.4-2.8-12-2.8c-13.1,0-20.2,9.8-20.2,22c0,13.4,8.5,21.7,19.9,21.7
	c5.9,0,9.9-1.6,12.8-2.9L2038,258.8L2038,258.8z"/>
<path class="st2" d="M2101.4,231.5c0,21.5-14.7,30.8-28.5,30.8c-15.5,0-27.4-11.5-27.4-29.9c0-19.4,12.5-30.8,28.4-30.8
	C2090.2,201.6,2101.4,213.7,2101.4,231.5L2101.4,231.5z M2055.9,232.1c0,12.7,7.2,22.3,17.4,22.3c10,0,17.4-9.5,17.4-22.6
	c0-9.8-4.8-22.3-17.2-22.3C2061.2,209.5,2055.9,221,2055.9,232.1L2055.9,232.1z"/>
<path class="st2" d="M2114.5,218.6c0-6-0.1-10.9-0.5-15.7h9.1l0.5,9.4h0.4c3.2-5.5,8.5-10.7,18-10.7c7.8,0,13.7,4.8,16.2,11.6h0.2
	c1.8-3.2,4-5.8,6.4-7.6c3.5-2.6,7.2-4.1,12.6-4.1c7.6,0,18.9,5,18.9,25.2V261h-10.1v-32.9c0-11.2-4-17.9-12.4-17.9
	c-5.9,0-10.6,4.4-12.3,9.6c-0.5,1.4-0.8,3.4-0.8,5.3V261h-10.2v-34.8c0-9.2-4-16-11.9-16c-6.5,0-11.3,5.3-12.9,10.6
	c-0.6,1.6-0.8,3.4-0.8,5.2v35h-10.2L2114.5,218.6L2114.5,218.6z"/>
</svg>
