<svg xmlns="http://www.w3.org/2000/svg" viewBox="0 0 271.6112 133.91604" enable-background="new 0 0 1439.8 809.9" width="271.61" height="133.92"><path d="m159.3 98.22c42.5-2.5 54.4-41.6 45-65.8-21.3-54.5-82.3-23.8-82.3-23.8 0 0 54.3-16 70.8 27.1 19.5 51-33.5 62.5-33.5 62.5" fill="#5b5b5b"/><path d="m0 92.72c22-35.3 68.8-100.5 125.8-80.3 46.4 16.5.5 90 .5 90 0 0 28.1-53.9-3.7-71.7-58.8-33-122.6 62-122.6 62" fill="#64b917"/><path d="m124.9 119.42c27.3 7 41.5 7.6 70-2.1 61.8-21 64.5 16.6 64.5 16.6 0 0-6.7-21-62.3-6.3-55 14.4-72.2-8.2-72.2-8.2" fill="#5b5b5b"/><path d="m255.8 114.42c0 0 3.2-24.8 13-17.5 10.8 8.1-13 17.5-13 17.5" fill="#64b917"/></svg>