<?xml version="1.0" encoding="utf-8"?>
<!-- Generator: Adobe Illustrator 22.1.0, SVG Export Plug-In . SVG Version: 6.00 Build 0)  -->
<svg version="1.1" id="Calque_1" xmlns="http://www.w3.org/2000/svg" xmlns:xlink="http://www.w3.org/1999/xlink" x="0px" y="0px"
	 viewBox="0 0 2205 265" style="enable-background:new 0 0 2205 265;" xml:space="preserve">
<style type="text/css">
	.st0{fill:#293957;}
	.st1{fill:#CE8339;}
	.st2{fill:#FFFFFF;}
</style>
<g id="Calque_2_1_">
	<g>
		<path class="st0" d="M351,118.3C351,64.8,386.8,17,436.6,17c18.8,0,33.2,10,41.8,24.9L459.8,56c-6.2-9.9-14-15.8-24.7-15.8
			c-33.2,0-56.6,38.5-56.6,76.1c0,27.2,11.2,45.6,37.7,45.6c11.5,0,21.7-5.3,31.2-13.4l11.7,17.1c-11,9.6-27.2,19.3-48.1,19.3
			C373.5,184.8,351,158.9,351,118.3z"/>
		<path class="st0" d="M484.8,135.3c0-46.4,33.8-78,67.5-78c27.6,0,45.7,19.2,45.7,49.5c0,46.4-33.8,78-67.5,78
			C503,184.8,484.8,165.6,484.8,135.3z M571,107.7c0-18.3-7.5-28.8-21.6-28.8c-19.5,0-37.5,24.5-37.5,55.6
			c0,18.3,7.5,28.8,21.6,28.8C552.9,163.3,571,138.8,571,107.7z"/>
		<path class="st0" d="M710.7,181.9h-21.9l1.2-17.4h-1c-12.3,11.1-26.4,20.4-41.1,20.4c-20.5,0-29.1-11.3-29.1-30.8
			c0-5.6,0.6-10.7,2-17l15.5-76.7h26.8l-14.9,73.4c-1.2,5.6-2,9.1-2,12.9c0,10.3,5,15.5,15.3,15.5c8.3,0,17.9-5.8,30.3-18.8l16.5-83
			H735L710.7,181.9z"/>
		<path class="st0" d="M770.9,60.3h21.9l-2.2,23.5h1c9.7-15.1,23.2-26.4,37.7-26.4c5.4,0,9.2,0.8,12.3,2.3l-9,23.3
			c-2.9-1.6-7.2-2-11.4-2c-11.5,0-23.3,9-33.4,27.5L773.3,182h-26.8L770.9,60.3z"/>
		<path class="st0" d="M829.3,161.6l16-12.9c8,10.4,18.1,16.3,29,16.3c11.5,0,21.4-7,21.4-15.7c0-7.8-6.3-12-21.8-20.5
			c-16.3-8.9-26.4-18.9-26.4-33.5c0-22.2,20.3-38,44.8-38c16,0,28.8,7.5,38.2,17.4l-14.9,14.2c-6.2-6.3-13.8-11.5-23.6-11.5
			c-11.2,0-19.4,6.9-19.4,15.2c0,8.9,10.5,13.3,21,19.1c18.2,9.8,27.2,19.3,27.2,34.3c0,23.4-20.5,38.8-48.5,38.8
			C856.6,184.8,838.4,175.5,829.3,161.6z"/>
		<path class="st0" d="M945.9,109.7h56.5l-4.2,19.4h-56.5L945.9,109.7z"/>
		<path class="st0" d="M1040.1,193.8l-7,36.2h-26.8l34.3-169.7h21.9l-0.6,15h0.7c11.8-10.1,25.9-17.9,39.8-17.9
			c21.6,0,34.9,15.8,34.9,44.4c0,46.4-32,83.2-65.8,83.2c-11.5,0-21.3-6.3-27.1-15.9h-0.5L1040.1,193.8z M1060.2,96.8l-10.5,51.8
			c5.3,10.2,12.6,14.4,20.4,14.4c20.7,0,39.7-26.4,39.7-57.7c0-17.7-7.1-26-18.3-26C1082.1,79.2,1069.6,84.9,1060.2,96.8z"/>
		<path class="st0" d="M1155.1,140.5c0-46.4,32-83.2,65.8-83.2c12.1,0,22.9,6.7,28.2,17.1h0.7l5.1-14.2h21.6l-24.6,121.6H1230
			l1.2-16.9h-0.7c-11.6,12-26.5,19.9-40.4,19.9C1168.5,184.8,1155.1,169.1,1155.1,140.5z M1233.2,142.5l10-48.5
			c-5.6-10.4-13.2-14.8-20.7-14.8c-20.7,0-39.7,26.4-39.7,57.7c0,17.8,7.1,26,18.3,26C1211.6,163,1223.3,157.2,1233.2,142.5z"/>
		<path class="st0" d="M1312.1,60.3h21.9l-2.2,23.5h1c9.7-15.1,23.2-26.4,37.7-26.4c5.4,0,9.2,0.8,12.3,2.3l-9,23.3
			c-2.9-1.6-7.2-2-11.4-2c-11.5,0-23.3,9-33.4,27.5l-14.5,73.5h-26.8L1312.1,60.3z"/>
		<path class="st0" d="M1389.3,155.1c0-5.1,0.8-9.5,1.6-14.4l12.5-59.5h-17.2l4-19.7l18.6-1.3l9.8-32.7h22.5l-6.4,32.7h29.4l-4.2,21
			h-30l-12.5,60.6c-0.5,3-0.7,5.6-0.7,8.5c0,9,4,13.5,14.2,13.5c4.2,0,8-1.6,11.4-3.3l5.2,18.8c-6,2.5-14.9,5.4-26.1,5.4
			C1398.3,184.8,1389.3,172.1,1389.3,155.1z"/>
		<path class="st0" d="M1489.5,60.3h26.8l-24.6,121.6H1465L1489.5,60.3z M1494,24.9c0-9.5,8.1-17.3,18-17.3c7.9,0,15.4,5.1,15.4,14
			c0,9.9-8.1,17.1-18,17.1C1501.5,38.7,1494,33.9,1494,24.9z"/>
		<path class="st0" d="M1530.4,135.3c0-43.6,32.2-78,70.3-78c15,0,25.6,6.9,32.4,15l-15.2,15.9c-5.7-6.2-10.7-9.3-18.9-9.3
			c-22,0-41.2,25.4-41.2,55.6c0,18.3,8.2,28.8,24.8,28.8c9.5,0,16.9-4.5,23.2-9.3l11.5,16.7c-9.1,6.7-21.7,14.2-40.2,14.2
			C1549.9,184.8,1530.4,166.8,1530.4,135.3z"/>
		<path class="st0" d="M1735.2,181.9h-21.9l1.2-17.4h-1c-12.3,11.1-26.4,20.4-41.1,20.4c-20.5,0-29.1-11.3-29.1-30.8
			c0-5.6,0.6-10.7,2-17l15.5-76.7h26.8l-14.9,73.4c-1.2,5.6-2,9.1-2,12.9c0,10.3,5,15.5,15.3,15.5c8.3,0,17.9-5.8,30.3-18.8l16.5-83
			h26.8L1735.2,181.9z"/>
		<path class="st0" d="M1775.7,164.9c0-3.6,0.5-7.5,1.6-12.7L1806.5,7h26.8l-29.6,146.4c-0.5,2.5-0.5,3.7-0.5,4.8
			c0,3.6,1.9,5.1,4.4,5.1c1.3,0,2.1,0,4.3-0.7l-0.5,19.9c-3.7,1.3-8.5,2.4-15.1,2.4C1782.1,184.8,1775.7,177.4,1775.7,164.9z"/>
		<path class="st0" d="M1861.1,60.3h26.8l-24.6,121.6h-26.8L1861.1,60.3z M1865.6,24.9c0-9.5,8.1-17.3,18-17.3
			c7.9,0,15.4,5.1,15.4,14c0,9.9-8.1,17.1-18,17.1C1873.1,38.7,1865.6,33.9,1865.6,24.9z"/>
		<path class="st0" d="M1968.8,57.3c28.5,0,39,19.7,39,44.9c0,10.6-3.6,21.7-5.4,25.7h-74.6c-2.6,25.6,11.7,36.5,30.4,36.5
			c8.6,0,18.1-4.6,25-9.5l9.8,17c-9.8,6.9-24.4,12.9-41.8,12.9c-29.3,0-49.1-18.9-49.1-51.5C1902,88,1936.5,57.3,1968.8,57.3z
			 M1984.3,111.1c0.7-3.2,1.2-6.7,1.2-10.7c0-11.8-5.1-22.4-20-22.4c-14.7,0-29.5,12.3-35.3,33.1H1984.3z"/>
		<path class="st0" d="M2045.4,60.3h21.9l-2.2,23.5h1c9.7-15.1,23.2-26.4,37.7-26.4c5.4,0,9.2,0.8,12.3,2.3l-9,23.3
			c-2.9-1.6-7.2-2-11.4-2c-11.5,0-23.3,9-33.4,27.5l-14.5,73.5H2021L2045.4,60.3z"/>
		<path class="st0" d="M2103.8,161.6l16-12.9c8,10.4,18.1,16.3,29,16.3c11.5,0,21.4-7,21.4-15.7c0-7.8-6.3-12-21.8-20.5
			c-16.3-8.9-26.4-18.9-26.4-33.5c0-22.2,20.3-38,44.8-38c16,0,28.8,7.5,38.2,17.4l-14.9,14.2c-6.2-6.3-13.8-11.5-23.6-11.5
			c-11.2,0-19.4,6.9-19.4,15.2c0,8.9,10.5,13.3,21,19.1c18.2,9.8,27.2,19.3,27.2,34.3c0,23.4-20.5,38.8-48.5,38.8
			C2131.1,184.8,2112.9,175.5,2103.8,161.6z"/>
	</g>
	<g>
		<path class="st1" d="M2005.5,257c0-3,2.4-5.1,5.3-5.1s5.3,2.1,5.3,5.1c0,2.9-2.4,5-5.3,5C2008,262,2005.5,259.9,2005.5,257z"/>
		<path class="st1" d="M2030.1,208.5h7.5V261h-7.5V208.5z"/>
		<path class="st1" d="M2053.6,208.5h7.7l21.3,33l6.3,10.9h0.4c-0.4-5.3-1-11.2-1-16.7v-27.2h7.1V261h-7.7l-21.3-33l-6.3-10.8h-0.4
			c0.4,5.3,1,10.9,1,16.4V261h-7.1V208.5z"/>
		<path class="st1" d="M2111.6,208.5h33.9v5.7h-26.4v17.7h22.4v5.7h-22.4V261h-7.5V208.5z"/>
		<path class="st1" d="M2151.6,234.6c0-16.8,10.4-27,25.1-27c14.8,0,25.1,10.2,25.1,27s-10.4,27.4-25.1,27.4
			S2151.6,251.4,2151.6,234.6z M2194.1,234.6c0-13.1-6.9-21.1-17.4-21.1s-17.4,8.1-17.4,21.1s6.9,21.5,17.4,21.5
			C2187.2,256.1,2194.1,247.6,2194.1,234.6z"/>
	</g>
</g>
<g>
	<circle class="st1" cx="132.5" cy="132.5" r="132.5"/>
</g>
<path class="st2" d="M230.6,176c1.3,0.1,1.5,0.3,2.5,0.6c0.5,0.9,1,0.8,1.1,2.2c0.3,2.4-0.2,4.8-0.5,6.1c-0.1,0.5-0.6,1-1.5,1.2
	H49.4c-3,0-13,0.8-14.8-0.3c-0.9-0.3-1.1-0.5-1.5-1.2c-1.7-2-0.7-7.3,1.2-8c0.9-0.7,2.6-0.7,4.3-0.6c-0.3-2.4-1.9-3.9-2.5-6.5
	c-1.1-4.7,1.4-12,2.5-15.1c2.7-7.6,5.1-14.8,8-21.9c2.2-5.3,3-10.6,5.8-15.1c1.7-2.7,4.5-6.4,7.1-8.3c1.4-1,4.1-1.3,4.9-2.8
	C65.9,104,65.2,94,66,90.6c3.1-12.4,6.2-23.5,15.7-29.3c2.8-1.6,6-2.6,9.2-2.8c14.6-0.5,22.2,4.6,26.2,14.5
	c1.4,3.4,1.5,6.7,2.5,10.5c0.9,3.6,2.7,11.7,1.5,16.6c-0.7,2.9-2,5.5-2.2,8.6c5.6,2.7,12.5,5.4,16,10.2c3,4,5.9,8.4,8.6,12.6
	c0.9,1.4,1.8,3.6,3.1,4.6c4.8,3.8,10.5,2.8,10.5,2.8s-0.7-1.9-1.4-4.1c-0.9-3.9-1.1-7.9-2-11.3c-1.3-4.8-4.1-12.7-2.2-19.4
	c3.4-12.2,18-21.9,33.3-15.4c10.3,4.4,19.9,15.3,15.4,31.4c-1.1,4-5.1,13.5-4.6,16.6c14.1,4.4,34.4,20.4,34.8,31.7
	C231,171.1,230.6,173.5,230.6,176"/>
</svg>
