<?xml version="1.0" encoding="UTF-8" standalone="no"?>
<!DOCTYPE svg PUBLIC "-//W3C//DTD SVG 1.1//EN"
"http://www.w3.org/Graphics/SVG/1.1/DTD/svg11.dtd">


<!-- Page 1 -->
<svg x="0" y="0" width="1069" height="2849" viewBox="0 0 1069 2849" version="1.1" xmlns="http://www.w3.org/2000/svg" xmlns:xlink="http://www.w3.org/1999/xlink"
style="display: block;margin-left: auto;margin-right: auto;">
<defs>
<clipPath id="c0_1"><path d="M-103.5,2950.5l0,-3015l1417,0l0,3015Z" /></clipPath>
<clipPath id="c1_1"><path d="M123.8,1022.4l-2.6,-5.5l96.3,-46.7l2.7,5.5l-96.4,46.7Z" /></clipPath>
<clipPath id="c2_1"><path d="M212.3,1106.7l-90.8,-63.8l3.5,-5l90.8,63.8l-3.5,5Z" /></clipPath>
<clipPath id="c3_1"><path d="M216.5,998.5l0,-56l56,0l0,56Z" /></clipPath>
<clipPath id="c4_1"><path d="M210.5,1143.5l0,-55l55,0l0,55Z" /></clipPath>
<clipPath id="c5_1"><path d="M269,963.9l-2.4,-5.6l92.9,-39.8l2.4,5.6L269,963.9Z" /></clipPath>
<clipPath id="c6_1"><path d="M366.1,990.7L269.4,972.4l1.1,-6l96.8,18.3l-1.2,6Z" /></clipPath>
<clipPath id="c7_1"><path d="M262.2,1118.8l-1.8,-5.8l102.4,-31.9l1.8,5.8l-102.4,31.9Z" /></clipPath>
<clipPath id="c8_1"><path d="M365,1158.9L261.8,1127.5l1.7,-5.9l103.3,31.5l-1.8,5.8Z" /></clipPath>
<clipPath id="c9_1"><path d="M358.5,943.5l0,-58l57,0l0,58Z" /></clipPath>
<clipPath id="c10_1"><path d="M355.5,1009.5l0,-60l60,0l0,60Z" /></clipPath>
<clipPath id="c11_1"><path d="M113.6,1746.1l-4.3,-4.4l84.6,-84.6l4.3,4.4l-84.6,84.6Z" /></clipPath>
<clipPath id="c12_1"><path d="M220.7,1642.9l-3.1,-5.3l98.7,-59.4l3.2,5.2l-98.8,59.5Z" /></clipPath>
<clipPath id="c13_1"><path d="M196.7,1833.6l-86.8,-86.8l4.3,-4.3l86.8,86.8l-4.3,4.3Z" /></clipPath>
<clipPath id="c14_1"><path d="M320.1,1658.4l-99.6,-21.3l1.3,-6l99.6,21.3l-1.3,6Z" /></clipPath>
<clipPath id="c15_1"><path d="M237.5,1840l-2.9,-5.3l78.1,-42l2.8,5.4l-78,41.9Z" /></clipPath>
<clipPath id="c16_1"><path d="M309.9,1885.9l-75.3,-42.1l3,-5.3l75.3,42l-3,5.4Z" /></clipPath>
<clipPath id="c17_1"><path d="M184.5,1867.5l0,-59l59,0l0,59Z" /></clipPath>
<clipPath id="c18_1"><path d="M182.5,1676.5l0,-52l51,0l0,52Z" /></clipPath>
<clipPath id="c19_1"><path d="M357.5,1096.5l0,-58l57,0l0,58Z" /></clipPath>
<clipPath id="c20_1"><path d="M358.5,1186.5l0,-59l60,0l0,59Z" /></clipPath>

<style type="text/css"><![CDATA[

.g9_1{
fill: #F12922;
}
.g4_1{
fill: none;
stroke: #515151;
stroke-width: 4;
stroke-linecap: butt;
stroke-linejoin: miter;
stroke-miterlimit: 4;
}
.g10_1{
}
.g2_1{
fill: none;
stroke: #000000;
stroke-width: 1;
stroke-linecap: butt;
stroke-linejoin: miter;
}
.g3_1{
fill: #67AC39;
}
.g6_1{
fill: none;
stroke: #47565F;
stroke-width: 2;
stroke-linecap: butt;
stroke-linejoin: miter;
stroke-miterlimit: 4;
}
.g7_1{
fill: #A4D87E;
}
.g11_1{
fill: none;
stroke: #773F9B;
stroke-width: 3;
stroke-linecap: butt;
stroke-linejoin: miter;
stroke-miterlimit: 4;
stroke-opacity: 0.82;
}
.g5_1{
fill: none;
stroke: #773F9B;
stroke-width: 3;
stroke-linecap: butt;
stroke-linejoin: miter;
stroke-miterlimit: 4;
}
.g1_1{
fill: #FFFFFF;
}
.g8_1{
fill: none;
stroke: #53585F;
stroke-width: 2;
stroke-linecap: butt;
stroke-linejoin: miter;
stroke-miterlimit: 4;
}

.s14_1{
font-size: 15.28px;
font-family: Helvetica-Bold_10;
fill: #FFFFFF;
}
.s8_1{
font-size: 15.28px;
font-family: Helvetica-Bold_10;
fill: #000000;
}
.s9_1{
font-size: 15.28px;
font-family: Helvetica_-;
fill: #000000;
}
.s10_1{
font-size: 16.81px;
font-family: Helvetica-Bold_1a;
fill: #000000;
}
.s11_1{
font-size: 16.81px;
font-family: Helvetica_1c;
fill: #000000;
}
.s6_1{
font-size: 16.81px;
font-family: Helvetica-BoldOblique_18;
fill: #000000;
}
.s5_1{
font-size: 16.81px;
font-family: AppleSymbols_16;
fill: #000000;
}
.s1_1{
font-size: 16.81px;
font-family: Helvetica_-;
fill: #000000;
}
.s2_1{
font-size: 16.81px;
font-family: Helvetica-Bold_10;
fill: #000000;
}
.s3_1{
font-size: 16.81px;
font-family: Helvetica-BoldOblique_12;
fill: #000000;
}
.s4_1{
font-size: 16.81px;
font-family: Helvetica-Oblique_14;
fill: #000000;
}
.s7_1{
font-size: 18.33px;
font-family: Helvetica-Bold_10;
fill: #000000;
}
.s13_1{
font-size: 20.17px;
font-family: Helvetica_-;
fill: #000000;
}
.s12_1{
font-size: 18.33px;
font-family: Helvetica-Bold_10;
fill: #FFFFFF;
}

]]></style>

</defs>
<path d="M0,0
L0,2849
L1069,2849
L1069,0 Z " 
fill="#FFFFFF" stroke="none" />
<g clip-path="url(#c0_1)">
<path d="M-104,-65l1418,0l0,3016l-1418,0Z" class="g1_1" />
</g>
<text 
x="316" 
y="28" 
dx="0,0,0,0,0,0,0,0,0,0,0,0,0,0,0,0,0,0,0,0,0,0,-1.2,0,0,0,0,0,0,0,0,-0.9,0,0,0,-1.2,-0.3,0,0,0,0,0,0,0,0,0,0,0,0,0,0,0,0,0,0,0,0,0,0,0,0,0,0,0,0,0,0,0" 
class="s1_1"
>[BAC] PROBABILITÉS – VARIABLES ALÉATOIRES (D’après Bac S Liban 2008)</text>

<text 
x="41" 
y="67" 
dx="0,0,0,0,0,0,0,0,0,-0.9,-0.9,0,0,0,0,0,0,0,0,0,0,0,0,0,0,0,0,0,0,0,0,0,0,0,0,0,0,0,0,0,0,0,0,0,0,0,0,0,0,0,0,0,0,0,0,0,0,0,0,0,0,0,0,0,0,0,0,0,0,0,0,0,0,0,0,0,0,0,0,0,0,0,0,0,0,0,0,0,0,0,0,0,0,0,0,0,0,0,0,0,0,0,0,0,0,0,0,0,0,0,0,0,0,0,0,0,0,0,0,0,0,0,0,0,0,0,0,0,0,0,0,0,0" 
class="s1_1"
>Une urne A contient quatre boules rouges et six boules noires. Une urne B contient une boule rouge et neuf boules noires. Les boules </text>

<text 
x="41" 
y="87" 
dx="0,0,0,0,0,0,0,0,0,0,0,0,0,0,0,0,0,0,0,0,0,0,0,0,0,0,0,0,0,0,-0.9" 
class="s1_1"
>sont indiscernables au toucher.</text>

<text 
x="41" 
y="127" 
dx="0,-1.2,0,0,0,0,0,-0.6,-0.6" 
class="s2_1"
>PARTIE A </text>

<path d="M42.5,128.5l76,0" class="g2_1" />
<text 
x="41" 
y="147" 
dx="0,0,0,0,0,0,0,0,0,0,0,0,0,0,0,0,0,0,0,0,0,0,0,0,0,0,0,0,0,0,0,0,0,0,0,0,0,0,0,0,0,0,0,0,0,0,0,0,0,0,0,0,0,0,0,0,0,0,0,0,0,0,0,0,0,0,0,0,0,0,0,0,0,0,0,0,0,0,0,0,0,0,0,0,0,0,0,0,0,0,0,0,0,0,0,0,0,0,0,0,0,0,0,0,0,0,0,0,0,0,0,0,0,0,0,0,0,0,0,0,0,0,0,0,0,0,0,0,0,0,0,0,0,0,0,0,0,0,0,0,0,0,0" 
class="s1_1"
>Un joueur dispose d’un dé à six faces, parfaitement équilibré, numéroté de 1 à 6. Il le lance une fois : s’il obtient 1, il tire au hasard une </text>

<text 
x="41" 
y="167" 
dx="0,0,0,0,0,0,0,0,0,0,0,0,0,0,0,0,-0.9,0,0,0,0,0,0,0,0,0,0,0,0,0,0,0,0,0,0,0,0,0,0,0,0,0,0,0,0,0,0,0,0,0,0,0,0,0,0,0,0,0,0,0,0,0,0,0,0,0,0,0,0,0,0,0,0,0,0,0,0,0,0,0,0,0,0,0,0,0,0,0,0,0,0,0,0,0,0,0,0,0,0,0,0,0,0,0,0,0,0,0,0,0,0,0,0,0,0,0,0,0,0,0,0,0,0" 
class="s1_1"
>boule de l’urne A, sinon il tire au hasard une boule de l’urne B. Soit R l’événement « le joueur obtient une boule rouge ».</text>

<text 
x="41" 
y="186" 
dx="0,0,0,0,0,0,0,0,0,0,0,0,0,0,0,0,0,0,0,0,0,0,0,0,0,0" 
class="s2_1"
>1. Montrer que p(R) = 0,15</text>

<text 
x="41" 
y="226" 
dx="0,0,0,0,0,-0.9,0,0,0,0,0,0,0,-0.9,0,0,0,0,0,0,0,0,0,0,0,0,0,0,0,0,0,0,0,0,0,0,0,0,0,0,0,0,0,0,0,0,0,0,0,0,0,0,0,0,0,0,0,0,0,0,0,0,0,0" 
class="s1_1"
>Soit A, urne A, B l'urne B, R (boule rouge) et N (boule noire). </text>

<text 
x="503" 
y="226" 
dx="0,-0.9,0,0,0,0,0,0,0,0,0,0,0,0,0" 
class="s1_1"
>A = { 4/10 R ; </text>

<text 
x="611" 
y="226" 
dx="0,0,0,0,0,0,0,0,0,0,0,0,0,0,0,0,0,0,0,0,0,0,0,0,0,0,0,0,0,0,0,0,0,0,0,0,0,0,0,0,0,0,0,0,0,0,0,0,0,0,0,0,0,0,0,0,0,0,0,0,0,0,0,0,0" 
class="s1_1"
>6/10 N } et B = { 1/10 R ; 9/10 N } - Dé = { 1; 2; 3; 4; 5; 6 }. </text>

<text 
x="41" 
y="246" 
dx="0,0,0,0,0,0,0,0,0,0,0,0,0,0,0,0,0,0,0,0,0,0,0,0,0,0,0,0,0,0,0,0,0,0,0,0,0" 
class="s1_1"
>Soit un seul lancer de dé. Soit P(A) </text>

<text 
x="312" 
y="246" 
dx="0,0,0,0,0,0,0,0,0,0,0,0,0,0,0,0,0,0,0,0,0,0,0,0,0,0,0,0,0,0,0,0,0,0,0,0,0,0,0,0,0,0,0,0,0,0,0,0,0,0,0,0,0,0,0,0,0,0,0,0,0,0,0,0,0,0,0,0,0,0,0,0,0,0,0,-0.9,0,0,0,0,0,0,0,0,0,0,0,0,0,0,0,0,0,0,0,0,0,0,0,0,0,0,0,0,0,0,0" 
class="s1_1"
>l'éventualité de " l'événement d'obtenir 1 " qui est = à 1/6 et soit p(Non A) ou bien p (B), l'éventualité </text>

<text 
x="41" 
y="266" 
dx="0,0,0,0,0,0,0,0,0,0,0,0,0,0,0,0,0,0,0,0,0,0,0,0,0,0,0,0,0,0,0,0,0,0,0,0,0,0,0,0,0,0,0,0,0,0,0,0,0,0,0,0,0,0,0,0,0,0,0,0,0,0,0,0,0,0,0,0,0,0,0,0,0,0,0,0,0,0,0,0,0,0,0,0,0" 
class="s1_1"
>de " l'événement ne pas obtenir 1 ", [ l'éventualité contraire de p(A) ] qui est = à </text>

<text 
x="639" 
y="266" 
dx="0,0,0" 
class="s1_1"
>5/6</text>

<text 
x="41" 
y="286" 
dx="0,0,0,0,0,0,0,0,0,0,0,0,0,0,0,0,0,0,0,0,0,0,0,0,0,0,0,0,0,0,0,0,0,0,0,0,0,0,0,0,0,0,0,0,0,0,0,0,0,0,0,0,0,0,0,0,0,0,0,0,0,0,0,0,0,0,0,0,0" 
class="s1_1"
>Soit p (R) = éventualité de " l'événement d'obtenir R, boule rouge". </text>

<text 
x="41" 
y="306" 
dx="0,0,0,0,0,0,0" 
class="s1_1"
>Soit p </text>

<text 
x="94" 
y="306" 
dx="0,0,0,0,0,0,0,0,0,0,0,0,0,0,0,0,0,0,0,0,0,0,0,0,0,0,0,0,0,0,0,0,0,0,0,0,0,0,0,0,0,0,0,0,0,0,0,0,0,0,0,0,0,0,0,0,0,0,0,0,0,0,-0.9" 
class="s1_1"
>(R) = 4/10 : la probabilité d'obtenir une boule rouge sachant A</text>

<text 
x="82" 
y="315" 
dx="0" 
class="s1_1"
>A</text>

<text 
x="41" 
y="335" 
dx="0,0,0,0,0" 
class="s1_1"
>Soit </text>

<text 
x="80" 
y="335" 
dx="0,0" 
class="s1_1"
>p </text>

<text 
x="131" 
y="335" 
dx="0,0,0,0,0,0,0,0,0,0,0,0,0,0,0,0,0,0,0,0,0,0,0,0,0,0,0,0,0,0,0,0,0,0,0,0,0,0" 
class="s1_1"
>(R) = 1/10 : la probabilité d'obtenir </text>

<text 
x="394" 
y="335" 
dx="0,0,0,0,0,0,0,0,0,0,0,0,0,0,0,0,0,0,0,0,0,0,0,0,0,0,0,0,-0.9,0,0" 
class="s1_1"
>un boule rouge sachant "non A" </text>

<text 
x="638" 
y="335" 
dx="0,0,0,0,0,0,0,0,0,0,0,0,0,0,0,0,0,0,0,0,0,0,0,0" 
class="s1_1"
>ou on peut dire aussi : </text>

<text 
x="88" 
y="345" 
dx="0,0,0,0,-0.9" 
class="s1_1"
>non A</text>

<text 
x="41" 
y="365" 
dx="0,0" 
class="s1_1"
>p </text>

<text 
x="65" 
y="365" 
dx="0,0,0,0,0,0,0,0,0,0,0,0,0,0,0" 
class="s1_1"
>(R) = 1/10 car </text>

<text 
x="177" 
y="365" 
dx="0,0,0,0,0,0,0,0,0,0,0,0,0,0,-0.9,0,0,0,0,0,0,0,0,0,0,0,0,0,0,0,0,0,0,0,0,0,0,0,0,0,0" 
class="s1_1"
>p(B) = p (non A) : probabilité d'obtenir </text>

<text 
x="466" 
y="365" 
dx="0,0,0,0,0,0,0,0,0,0,0,0,0,0,0,0,0,0,0,0,0,0,0,0,0,0,0" 
class="s1_1"
>un boule rouge sachant B . </text>

<text 
x="671" 
y="365" 
dx="0,0,0,0,0" 
class="s2_1"
>Ainsi</text>

<text 
x="713" 
y="365" 
dx="0" 
class="s1_1"
>,</text>

<text 
x="51" 
y="374" 
dx="0" 
class="s1_1"
>B</text>

<text 
x="96" 
y="394" 
dx="0,0,0,0,0,0,0,0,0,0,0,0,0,0,0,0,0,0,0,0,0,0,0,0,0,0,0,0" 
class="s1_1"
>- Si l'on obtient "1" au dé </text>

<text 
x="289" 
y="394" 
dx="0,0,0,0,0,0,0,0,0,0,0,0,0,0,0,0,0,0,0,0,0,0,0,0,0,0,0,0,0,0,0,0,0,0,0,0,0,0,0,0,0,0,0" 
class="s1_1"
>et donc =&gt; p(A) * p (R) = 1/6 *4/10 = 4/60 </text>

<text 
x="426" 
y="405" 
dx="0" 
class="s1_1"
>A</text>

<text 
x="96" 
y="425" 
dx="0,0,0,0,0,0,0,0,0,0,0,0,0,0,0,0,0,0,0,0,0,0,0,0,0,0,0,0,0,0,0,0,0,0,0,0,0,0,0,0,0,0,0,0,0,0,0,0,0,0,0,0,0,-0.9,0,0" 
class="s1_1"
>- Si l'on n'obtient aucun "1" au dé et donc =&gt; p(non A) </text>

<text 
x="504" 
y="425" 
dx="0,0,0,-0.3" 
class="s1_1"
>* P </text>

<text 
x="573" 
y="425" 
dx="0,0,0,0,0,0,0,0,0,0,0,0,0,0,0,0,0,0,0,0,0,0" 
class="s1_1"
>(R) = 5/6 *1/10 = 5/60</text>

<text 
x="528" 
y="434" 
dx="0,0,0,0,-0.9" 
class="s1_1"
>non A</text>

<text 
x="41" 
y="454" 
dx="0,0,0,0,0,0,0,0,0,0,0,0,0,0" 
class="s2_1"
>Enﬁn : p(R) = </text>

<text 
x="156" 
y="454" 
dx="0,0,0,0,0,0,0,0,0,-0.3,0,0,0,0,0,0,0,0,0,0,0,0,0,0,0,-0.6,0,0,0,0,0,-0.3" 
class="s2_1"
>[P(A) * P (R) ] + [P(non A) * P </text>

<text 
x="424" 
y="454" 
dx="0,0,0,0,0,0,0,0" 
class="s2_1"
>(R)]  = </text>

<text 
x="481" 
y="454" 
dx="0,0,0,0,0,0,0,0,0,0,0,0,0,0,0,0,0,0,0,0,0,0,0,0,0,0,0,0,0,0,0,0" 
class="s2_1"
>4/60 + 5/60 = 9/60 = 3/20 = 0,15</text>

<text 
x="216" 
y="464" 
dx="0" 
class="s2_1"
>A</text>

<text 
x="376" 
y="464" 
dx="0,0,0,0,-0.6" 
class="s2_1"
>non A</text>

<text 
x="41" 
y="504" 
dx="0,0" 
class="s1_1"
>2.</text>

<text 
x="60" 
y="504" 
dx="0,0,0,0,0,0,0,0,0,0,0,0,0,0,0,0,0,0,0,0,0,0,0,0,0,0,0,0,0,0,0,0,0,0,0,0,0,0,0,0,0,0,0,0,0,0,0,0,0,0,0,0,0,0,0,0,0,0,0,0,0,0,0,0,0,0,0,0,0,0,0,0,0,0,-0.6,-0.6,0,0,0,0,0,0,0,0,0,0,0,0,0,0,0,0,0,0,0,0,0,0,0,0,0,0,0,0,0,0,0,0,0,0,0,0,0,0,0,0,0,0,0,0,0,0,0,0,0,0,0,0,0" 
class="s2_1"
>Si le joueur obtient une boule rouge, la probabilité qu’elle provienne de A est-elle supérieure ou égale à la probabilité qu’elle</text>

<text 
x="41" 
y="524" 
dx="0,0,0,0,0,0,0,0,0,0,0,0,0,0,0,0" 
class="s2_1"
>provienne de B ?</text>

<text 
x="41" 
y="544" 
dx="0,0,0,0,0,0,0" 
class="s2_1"
>Soit : </text>

<text 
x="41" 
y="573" 
dx="0,0,0,0" 
class="s3_1"
>" p </text>

<text 
x="78" 
y="573" 
dx="0,0,0,0" 
class="s3_1"
>(A) </text>

<text 
x="106" 
y="573" 
dx="0,0,0,0,0,0,0,0,0,0,0,0,0,0,0,0,0,0,0,0,0,0,0,0,0,0,0,0,0,0,0,0,0,0,0,0,0,0,0,0,-0.9,-0.9,0,0,0,0,0,0,0,0,0,0,0,0,0,0,0,0,0,0,0,0,0,0,0,0,0,0" 
class="s4_1"
>= probabilité que la boule provienne de A sachant qu'elle est rouge </text>

<text 
x="611" 
y="573" 
dx="0,0,0" 
class="s4_1"
>=&gt; </text>

<text 
x="635" 
y="573" 
dx="0,0" 
class="s3_1"
>p </text>

<text 
x="664" 
y="573" 
dx="0,0,0,0,0,0" 
class="s3_1"
>(A) = </text>

<text 
x="716" 
y="573" 
dx="0,0,0,-0.6" 
class="s3_1"
>p(A </text>

<text 
x="748" 
y="573" 
dx="0" 
class="s5_1"
>⋂</text>

<text 
x="759" 
y="573" 
dx="0,0,0,0,0,0,0,0,0,0,0,0,0,0,0,0,0,0,0,0,0,0,0,0,0,0,0,0,0,0,0,0,0,0,0,0,0,0,0" 
class="s3_1"
>R) / p (R) = (1/6 *4/10) / 3/20 = 4/9 "</text>

<text 
x="65" 
y="585" 
dx="0" 
class="s3_1"
>R</text>

<text 
x="601" 
y="585" 
dx="0" 
class="s6_1"
>ˋ</text>

<text 
x="644" 
y="585" 
dx="0" 
class="s3_1"
>R</text>

<text 
x="41" 
y="605" 
dx="0,0,0,0" 
class="s3_1"
>" p </text>

<text 
x="83" 
y="605" 
dx="0,0,0,0" 
class="s3_1"
>(B) </text>

<text 
x="116" 
y="605" 
dx="0,0" 
class="s3_1"
>= </text>

<text 
x="130" 
y="605" 
dx="0,0,0,0,0,0,0,0,0,0,0,0,0,0,0,0,0,0,0,0,0,0,0,0,0,0,0,0,0,0,0,0,0,0,0,0,0,0,0,0,0,0,0,0,0,0,0,0,0,0,0,0,0,0,0,0,0,0,0,0,0,0,0,0,0,0,0,0,0" 
class="s4_1"
>probabilité que la boule provienne de B sachant qu'elle est rouge =&gt; </text>

<text 
x="642" 
y="605" 
dx="0,0" 
class="s3_1"
>p </text>

<text 
x="671" 
y="605" 
dx="0,0,0,0,0,0,0,0,0,0" 
class="s3_1"
>(B) = p(B </text>

<text 
x="746" 
y="605" 
dx="0" 
class="s5_1"
>⋂</text>

<text 
x="757" 
y="605" 
dx="0,0,0,0,0,0,0,0,0,0,0,0,0,0,0,0,0,0,0,0,0,0,0,0,0,0,0,0,0,0,0,0,0,0,0,0,0,0,0,0" 
class="s3_1"
>R) / p (R) = (5/6 * 1/10) / 3/20 = 5/9 "</text>

<text 
x="65" 
y="616" 
dx="0" 
class="s3_1"
>R</text>

<text 
x="652" 
y="616" 
dx="0" 
class="s3_1"
>R</text>

<text 
x="41" 
y="636" 
dx="0,0,0,0,0,0" 
class="s2_1"
>Ainsi </text>

<text 
x="92" 
y="636" 
dx="0,0,0,0,0,0,0,0,0,0,0,0,0,0,0,0,0,0,0,0,0,0,0,0,0,0,0,0,0,0,0,0,0,0,0,0,0,0,0,0,0,-0.6,-0.6,0,0,0,0,0,0,0,0,0,0,0,0,0,0,0,0,0,0,0,0,0,0,0,0,0,0,0,0,0,0,0,0,0,0,0,0,0,0,0,0,0,0,0,0,0,0,0,0,0,0,0,0,0,0,0,0,0,0,0,-0.1" 
class="s2_1"
>la probabilité que la boule provienne de A est-elle inférieure à la probabilité qu’elle provienne de B.</text>

<text 
x="41" 
y="686" 
dx="0,-1.2,0,0,0,0,0,0" 
class="s2_1"
>PARTIE B</text>

<path d="M42.5,687.5l77,0" class="g2_1" />
<text 
x="41" 
y="706" 
dx="0,0,0,0,0,0,0,0,0,0,0,0,0,0,0,0,0" 
class="s1_1"
>Le joueur répète </text>

<text 
x="168" 
y="706" 
dx="0,0,0,0,0,0,0,0,0,0,0,0,0,0,0,0,0,0,0" 
class="s2_1"
>deux fois l’épreuve</text>

<text 
x="325" 
y="706" 
dx="0,0,0,0,0,0,0,0,0,0,0,0,0,0,0,0,0,0,0,0,0,0,0,-0.9,0,0,0,0,0,0,0,0,0,0,0,0,0,0,0,0,0,0,0,0,0,0,0,0,0,0,0,0,0,0,0,0,0,0,0,0,0,0,0,0,0,0,0,0,0,0,0,0,0,0,0,0,0,0,0,0,0,0,0,0,0,0,0,0,0,0,0,0,0,0,0,0,0,0,0,0,0" 
class="s1_1"
>décrite dans la partie A, dans des conditions identiques et indépendantes (c’est-à-dire qu’à l’issue </text>

<text 
x="41" 
y="726" 
dx="0,0,0,0,0,0,0,0,0,0,0,0,0,0,0,0,0,0,0,0,0,0,0,0,0,0,0,0,0,0,0,0,0,0,0,0,0,0,0,0,0,0,0,0,0,0,0,0,0,0,0,0,0,0,0,0,0,0,0,0,0,0,0,0,0,0,0,0,0,0,0,0,0" 
class="s1_1"
>de la première épreuve, les urnes retrouvent leur composition initiale). </text>

<text 
x="566" 
y="726" 
dx="0,0,0,0,0,0,0,0,0,0,0,0,0,0,0,0,0,0,0,0,0,0,0,0,0,0,0,0,0,0,0,0,0" 
class="s2_1"
>Soit x, un entier naturel non nul</text>

<text 
x="819" 
y="726" 
dx="0,0,0,0,0,0,0,0,0,0,0,0,0,0,0,0,0,0,0,0,0,0,0,0,0,0,0" 
class="s1_1"
>. Lors de chacune des deux </text>

<text 
x="41" 
y="746" 
dx="0,0,0,0,0,0,0,0,0,0,0,0,0,0,0,0,0,0,0,0" 
class="s1_1"
>épreuves, le joueur </text>

<text 
x="189" 
y="746" 
dx="0,0,0,0,0" 
class="s2_1"
>gagne</text>

<text 
x="243" 
y="746" 
dx="0,0,0,0,0,0,0,0" 
class="s2_1"
>x euros </text>

<text 
x="308" 
y="746" 
dx="0,0,0,0,0,0,0,0,0,0,0,0,0,0,0,0,0" 
class="s1_1"
>s’il obtient une </text>

<text 
x="420" 
y="746" 
dx="0,0,0,0,0,0,0,0,0,0,0" 
class="s2_1"
>boule rouge</text>

<text 
x="521" 
y="746" 
dx="0,0,0" 
class="s1_1"
>et </text>

<text 
x="539" 
y="746" 
dx="0,0,0,0,0,0,0,0,0,0,0,0,0,0,0" 
class="s2_1"
>perd deux euros</text>

<text 
x="675" 
y="746" 
dx="0,0,0,0,0,0,0,0,0,0,0,0,0,0,0,0,0" 
class="s1_1"
>s’il obtient une </text>

<text 
x="787" 
y="746" 
dx="0,0,0,0,0,0,0,0,0,0,0" 
class="s2_1"
>boule noire</text>

<text 
x="877" 
y="746" 
dx="0,0,0,0,0,0,0,0,0,0,0,0,0,0,0,0" 
class="s1_1"
>.On désigne par </text>

<text 
x="1002" 
y="746" 
dx="0,0,0,0,0,0" 
class="s2_1"
>G, la </text>

<text 
x="41" 
y="765" 
dx="0,0,0,0,0,0,0,0,0,0,0,0,0,0,0,0,0,0" 
class="s2_1"
>variable aléatoire</text>

<text 
x="183" 
y="765" 
dx="0,0,0,0,0,0,0,0,0,0,0,0,0,0,0,0,0" 
class="s1_1"
>correspondant au </text>

<text 
x="319" 
y="765" 
dx="0,0,0,0,0,0,0,0,0,0,0,0,0,0,0,0" 
class="s2_1"
>gain algébrique </text>

<text 
x="448" 
y="765" 
dx="0,0,0,0,0,0,0,0,0,0,0,0,0" 
class="s1_1"
>du joueur en </text>

<text 
x="546" 
y="765" 
dx="0,0,0,0,0" 
class="s2_1"
>euros</text>

<text 
x="596" 
y="765" 
dx="0,0,0" 
class="s1_1"
>au </text>

<text 
x="620" 
y="765" 
dx="0,0,0,0,0,0,0,0,0,0,0,0,0,0,0,0,0,0,0,0,0,0,0" 
class="s2_1"
>terme des deux épreuves</text>

<text 
x="821" 
y="765" 
dx="0,0,0,0,0,0,0,0,0,0,0,0,0,0,0,0,0,0,0,0,0,0,0,0" 
class="s1_1"
>. La variable aléatoire </text>

<text 
x="987" 
y="765" 
dx="0,0" 
class="s2_1"
>G </text>

<text 
x="1004" 
y="765" 
dx="0,0,0,0,0,0" 
class="s1_1"
>prend </text>

<text 
x="41" 
y="785" 
dx="0,0,0,0,0,0,0,0,0,0,0,0,0,0,0,0,0" 
class="s1_1"
>donc les valeurs </text>

<text 
x="168" 
y="785" 
dx="0,0,0,0,0,0,0,0,0,0,0,0,0,0,0,0,0" 
class="s2_1"
>2 x, x - 2 et -4.</text>

<text 
x="41" 
y="825" 
dx="0,0,0,0,0,0,0,0,0,0,0,0,0,0,0,0,0,0,0,0,0,0,0,0,0,0,0,0,0,0,0,0,0,0,0,0,0,0,0,0,0" 
class="s2_1"
>1. Déterminer la loi de probabilité de G.</text>

<text 
x="112" 
y="2420" 
dx="0,0,0,0,0,0,0,0,0,0,0,0,0,0,0,0,0,0,0,0,0,0,0,0,0,0,0,0,0,0,0,0,0,0,0,0,0,0,0,0,0,0,0,0,0,0,0,0,0,0,0,0,0,0,0" 
class="s7_1"
>Loi de probabilité de G, exprimée sous forme de tableau</text>

<path d="M112,2435l206,0l0,48l-206,0Z" class="g3_1" />
<path d="M318,2435l148,0l0,48l-148,0Z" class="g3_1" />
<path d="M466,2435l154,0l0,48l-154,0Z" class="g3_1" />
<path d="M620,2435l219,0l0,48l-219,0Z" class="g3_1" />
<path d="M112,2483l206,0l0,72l-206,0Z" class="g3_1" />
<text 
x="208" 
y="2458" 
dx="0,0" 
class="s8_1"
>gi</text>

<text 
x="384" 
y="2458" 
dx="0,0,0" 
class="s8_1"
>- 4</text>

<text 
x="527" 
y="2458" 
dx="0,0,0,0,0" 
class="s8_1"
>x - 2</text>

<text 
x="722" 
y="2458" 
dx="0,0" 
class="s8_1"
>2x</text>

<text 
x="188" 
y="2525" 
dx="0,0,0,0,0,0,0" 
class="s8_1"
>P(G=gi)</text>

<text 
x="364" 
y="2525" 
dx="0,0,0,0,0,0,0" 
class="s9_1"
>289/400</text>

<text 
x="520" 
y="2525" 
dx="0,0,0,0,0,0" 
class="s9_1"
>51/200</text>

<text 
x="711" 
y="2525" 
dx="0,0,0,0,0" 
class="s9_1"
>9/400</text>

<path d="M466,2434l0,49" class="g4_1" />
<path d="M466,2483l0,74" class="g4_1" />
<path d="M620,2434l0,49" class="g4_1" />
<path d="M620,2483l0,74" class="g4_1" />
<path d="M111,2483l207,0" class="g4_1" />
<path d="M318,2483l522,0" class="g4_1" />
<path d="M318,2434l0,49" class="g4_1" />
<path d="M318,2483l0,74" class="g4_1" />
<path d="M112,2434l0,123" class="g4_1" />
<path d="M839,2434l0,49" class="g4_1" />
<path d="M839,2483l0,74" class="g4_1" />
<path d="M111,2435l207,0" class="g4_1" />
<path d="M318,2435l522,0" class="g4_1" />
<path d="M111,2555l729,0" class="g4_1" />
<text 
x="17" 
y="2629" 
dx="0,0,0,0,0,0,0,0,0,0,0,0,0,0,0,0,0,0,0,0,0,0,0,0,0,0,0,0,0,0,0,0,0,0,0,0,0,0,0,0,0,0,0,0,0,0,0,0,0,0,0,0,0,0,0,0,0,0,0,0,0,0,0,0,0,0,0,0,0,0,0,0,0" 
class="s2_1"
>2. Exprimer l’espérance E(G) de la variable aléatoire G en fonction de x.</text>

<text 
x="17" 
y="2669" 
dx="0,0,0,0,0,0,0,0,0,0,0,0,0,0,0,0,0,0,0,0,0,0,0,0,0,0,0,0,0,0,0,0,0,0,0,0,0,0,0,0,0,0,0,0,0,0,0,0,0,0,0,0,0,0,0,0,0,0" 
class="s1_1"
>E(G) = (9/400* 2x) + [51/200* ( x -2)] + [289/400)* (-4)] </text>

<text 
x="17" 
y="2689" 
dx="0,0,0,0,0,0,0,0,0,0,0,0,0,0,0,0,0,0,0,0" 
class="s1_1"
>E(G) = 3/10 x - 17/5</text>

<text 
x="17" 
y="2749" 
dx="0,0,0,0,0,0,0,0,0,0,0,0,0,0,0,0,0,0,0,0,0,0,0,0,0,0,0,0,0,0,0,0,0,0,0,0,0,0,0,0,0,0" 
class="s2_1"
>3. Pour quelles valeurs de x, a-t-on E(G) </text>

<text 
x="344" 
y="2749" 
dx="0" 
class="s10_1"
>≥</text>

<text 
x="358" 
y="2749" 
dx="0,0,0" 
class="s2_1"
>0 ?</text>

<text 
x="17" 
y="2788" 
dx="0,0,0,0,0" 
class="s1_1"
>E(G) </text>

<text 
x="57" 
y="2788" 
dx="0" 
class="s11_1"
>≥</text>

<text 
x="71" 
y="2788" 
dx="0,0" 
class="s1_1"
>0 </text>

<text 
x="90" 
y="2788" 
dx="0,0,0,0,0,0,0,0,0,0,0,0,0,0,0,0,0,0,0,0,0,0,0,0,0" 
class="s1_1"
>&lt;=&gt; E(G) = 3/10 x - 17/5 </text>

<text 
x="281" 
y="2788" 
dx="0" 
class="s11_1"
>≥</text>

<text 
x="295" 
y="2788" 
dx="0,0" 
class="s1_1"
>0 </text>

<text 
x="17" 
y="2808" 
dx="0,0" 
class="s1_1"
>x </text>

<text 
x="30" 
y="2808" 
dx="0" 
class="s11_1"
>≥</text>

<text 
x="49" 
y="2808" 
dx="0,0,0,0,0,0,0,0,0,0,0,0,0,0,0,0,0,0,0,0,0,0,0,0,0,0,0,0,0,0,0,0,0,0,0,0,0,0,0,0,0,0,0,0,0,0,0,0,0,0,0,0,0,0,0,0,0,0,0,0,0,0,0,0,0,0,0,0,0,0,0,0,0,0,0,0,0,0,0,0,0,0,0,0,0,0,0,0,0,0,0,0,0,0,0,0,0,0,0,0,0,0,0,0,0,0" 
class="s1_1"
>34/3 ; or l'énoncé indique que x est un entier naturel non nul ; on arrondi x à 12 ; ainsi avons-nous : x </text>

<text 
x="802" 
y="2808" 
dx="0" 
class="s11_1"
>≥</text>

<text 
x="816" 
y="2808" 
dx="0,0,0" 
class="s1_1"
>12.</text>

<text 
x="17" 
y="2828" 
dx="0,0,0,0,0,0,0,0,0,0,0,0,0,0,0" 
class="s1_1"
>Donc pour E(G) </text>

<text 
x="139" 
y="2828" 
dx="0" 
class="s11_1"
>≥</text>

<text 
x="153" 
y="2828" 
dx="0,0,0" 
class="s1_1"
>0, </text>

<text 
x="177" 
y="2828" 
dx="0,0,0,0,0,0,0" 
class="s1_1"
>x doit </text>

<text 
x="221" 
y="2828" 
dx="0" 
class="s5_1"
>∈</text>

<text 
x="236" 
y="2828" 
dx="0,0,0,0,0,0,0,0" 
class="s1_1"
>[12 ; + </text>

<text 
x="288" 
y="2828" 
dx="0" 
class="s11_1"
>∞</text>

<text 
x="304" 
y="2828" 
dx="0" 
class="s1_1"
>[</text>

<g clip-path="url(#c1_1)">
<path d="M123.9,1019l93.5,-45.4" class="g5_1" />
</g>
<g clip-path="url(#c2_1)">
<path d="M124.5,1041.3l88.3,62" class="g5_1" />
</g>
<g clip-path="url(#c3_1)">
<path d="M262.7,952.5c10,10,10,26.1,0,36.1c-9.9,10,-26.1,10,-36.1,0c-9.9,-10,-9.9,-26.1,0,-36.1c10,-10,26.2,-10,36.1,0Z" class="g3_1" />
<path d="M262.7,952.5c10,10,10,26.1,0,36.1c-9.9,10,-26.1,10,-36.1,0c-9.9,-10,-9.9,-26.1,0,-36.1c10,-10,26.2,-10,36.1,0Z" class="g6_1" />
</g>
<text 
x="237" 
y="976" 
dx="0" 
class="s7_1"
>A</text>

<g clip-path="url(#c4_1)">
<path d="M256.1,1097.9c10,10,10,26.2,0,36.1c-9.9,10,-26.1,10,-36.1,0c-10,-9.9,-10,-26.1,0,-36.1c10,-10,26.2,-10,36.1,0Z" class="g7_1" />
<path d="M256.1,1097.9c10,10,10,26.2,0,36.1c-9.9,10,-26.1,10,-36.1,0c-10,-9.9,-10,-26.1,0,-36.1c10,-10,26.2,-10,36.1,0Z" class="g8_1" />
</g>
<text 
x="231" 
y="1121" 
dx="0" 
class="s7_1"
>B</text>

<g clip-path="url(#c5_1)">
<path d="M269.2,960.5l90.1,-38.6" class="g5_1" />
</g>
<g clip-path="url(#c6_1)">
<path d="M271.4,969.6l93.8,17.8" class="g5_1" />
</g>
<g clip-path="url(#c7_1)">
<path d="M262.7,1115.5l99.5,-31" class="g5_1" />
</g>
<g clip-path="url(#c8_1)">
<path d="M364.4,1155.6L264.1,1125" class="g5_1" />
</g>
<g clip-path="url(#c9_1)">
<path d="M405.7,895.8c10.4,10.3,10.4,27.1,0,37.4c-10.3,10.4,-27.1,10.4,-37.5,0c-10.3,-10.3,-10.3,-27.1,0,-37.4c10.4,-10.4,27.2,-10.4,37.5,0Z" class="g9_1" />
<path d="M405.7,895.8c10.4,10.3,10.4,27.1,0,37.4c-10.3,10.4,-27.1,10.4,-37.5,0c-10.3,-10.3,-10.3,-27.1,0,-37.4c10.4,-10.4,27.2,-10.4,37.5,0Z" class="g8_1" />
</g>
<text 
x="374" 
y="921" 
dx="0,0" 
class="s7_1"
>R1</text>

<g clip-path="url(#c10_1)">
<path d="M405.4,959.7c10.8,10.8,10.8,28.3,0,39.1c-10.8,10.8,-28.3,10.8,-39.1,0c-10.8,-10.8,-10.8,-28.3,0,-39.1c10.8,-10.8,28.3,-10.8,39.1,0Z" class="g10_1" />
<path d="M405.4,959.7c10.8,10.8,10.8,28.3,0,39.1c-10.8,10.8,-28.3,10.8,-39.1,0c-10.8,-10.8,-10.8,-28.3,0,-39.1c10.8,-10.8,28.3,-10.8,39.1,0Z" class="g8_1" />
</g>
<text 
x="373" 
y="985" 
dx="0,0" 
class="s12_1"
>N1</text>

<text 
x="141" 
y="972" 
dx="0,0,0" 
class="s1_1"
>1/6</text>

<text 
x="132" 
y="1095" 
dx="0,0,0" 
class="s1_1"
>5/6</text>

<text 
x="278" 
y="921" 
dx="0,0,0,0" 
class="s1_1"
>4/10</text>

<text 
x="287" 
y="1002" 
dx="0,0,0,0" 
class="s1_1"
>6/10</text>

<text 
x="283" 
y="1071" 
dx="0,0,0,0" 
class="s1_1"
>1/10</text>

<text 
x="286" 
y="1164" 
dx="0,0,0,0" 
class="s1_1"
>9/10</text>

<text 
x="31" 
y="1268" 
dx="0,0,0,0,0,0,0,0,0,0,0,0,0,0,0,0,0,0,0,0,0,0,0,0,0,0,0,0,0,0,0,0,0,0,0,0,0,0,0,0,0,0,0,0,0,0,0,0,0,0,0,0,0,0,0,0,0,0,0,0,0,0,0,0,0,0,0,0,0,0,0,0,0" 
class="s2_1"
>Éventualités concernant boules noires (N) et rouges (R) suite au lancer 1</text>

<path d="M30.5,1270.5l581,0" class="g2_1" />
<text 
x="31" 
y="1308" 
dx="0,0,0,0,0,0,0,0,0,0,0,0,0,0,0,0,0" 
class="s1_1"
>R1 = boule rouge </text>

<text 
x="169" 
y="1308" 
dx="0,0,0,0,0,0,0,0,0,0,0" 
class="s1_1"
>au lancer 1</text>

<text 
x="31" 
y="1328" 
dx="0,0,0,0,0,0,0,0,0,0,0,0,0,0,0,0,0,0,0,0,0,0,0,0,0,0,0,0" 
class="s1_1"
>N1 = boule noire au lancer 1</text>

<text 
x="31" 
y="1348" 
dx="0,0,0,0,0,0,0,0,0,0,0,0,0,-0.9,0" 
class="s1_1"
>p(B) = p(non A)</text>

<text 
x="31" 
y="1387" 
dx="0,0,0,0,0,0,0,0,0,0,0,0,0,0,0,0,0,0,0,0" 
class="s1_1"
>p(R1) = [ p (A) * p </text>

<text 
x="177" 
y="1387" 
dx="0,0,0,0,0,0,0,0,0,0,0,0,0,0,0,0,0,0,0,0" 
class="s1_1"
>(R1) ] + [p (B) * p </text>

<text 
x="323" 
y="1387" 
dx="0,0,0,0,0,0,0,0,0,0,0,0,0,0,0,0,0,0,0,0,0,0,0,0,0,0,0,0,0,0,0,0,0,0,0,0,0,0,0,0,0,0,0,0,0,0,0,0,0,0,0,0,0,0,0,0,0,0" 
class="s1_1"
>(R1) ] = (1/6 * 4/10) + (5/6 * 1/10) = 1/15 + 1/12 = 3/20 </text>

<text 
x="163" 
y="1398" 
dx="0" 
class="s1_1"
>A</text>

<text 
x="306" 
y="1398" 
dx="0" 
class="s1_1"
>B</text>

<text 
x="31" 
y="1418" 
dx="0,0,0,0,0,0,0,0,0,0,0,0,0,0,-0.9,0,0,0,0,0,0" 
class="s1_1"
>p(N1) = [ p ( A) * p </text>

<text 
x="185" 
y="1418" 
dx="0,0,0,0,0,0,0,0,0,0,0,0,0,0,0,0,0,0,0" 
class="s1_1"
>(N1) ] + [ p (B) * </text>

<text 
x="313" 
y="1418" 
dx="0,0" 
class="s1_1"
>p </text>

<text 
x="341" 
y="1418" 
dx="0,0,0,0,0,0" 
class="s1_1"
>(N1)] </text>

<text 
x="388" 
y="1418" 
dx="0,0" 
class="s1_1"
>= </text>

<text 
x="407" 
y="1418" 
dx="0,0,0,0,0,0,0,0,0,0,0,0,0,0,0,0,0,0,0,0,0,0,0,0,0,0,0,0,0,0,0,0,0,0,0,0,0,0,0,0,0,0,0,0,0,0,0,0" 
class="s1_1"
>(1/6 * 6/10) + (5/6 * 9/10) = 1/10 + 3/4 = 17/20</text>

<text 
x="168" 
y="1427" 
dx="0" 
class="s1_1"
>A</text>

<text 
x="325" 
y="1427" 
dx="0" 
class="s1_1"
>B</text>

<text 
x="35" 
y="1030" 
dx="0,0,0,0,0,0,0,0,0,0,0,0,0" 
class="s2_1"
>Dé : lancer 1</text>

<path d="M36.5,1032.5l99,0" class="g2_1" />
<text 
x="29" 
y="2017" 
dx="0,0,0,0,0,0,0,0,0,0,0,0,0,0,0,0,0,0,0,0,0,0,0,0,0,0" 
class="s2_1"
>Différentes valeurs de G :</text>

<path d="M30.5,2019.5l193,0" class="g2_1" />
<text 
x="29" 
y="2056" 
dx="0" 
class="s13_1"
>-</text>

<text 
x="48" 
y="2056" 
dx="0,0,0,0,0,0,0,0,0,0,0,0,0,0,0,0,0,0,0,0,0,0,0,0,0,0,0,0,0,0,0,0,0,0" 
class="s1_1"
>R1 = boule rouge au lancer 1 ; R2 </text>

<text 
x="310" 
y="2056" 
dx="0,0,0,0,0,0,0,0,0,0,0,0,0,0,0,0,0,0,0,0,0,0,0,0,0" 
class="s1_1"
>= boule rouge au lancer 2</text>

<text 
x="29" 
y="2076" 
dx="0" 
class="s13_1"
>-</text>

<text 
x="48" 
y="2076" 
dx="0,0,0,0,0,0,0,0,0,0,0,0,0,0,0,0,0" 
class="s1_1"
>N1 = boule noire </text>

<text 
x="181" 
y="2076" 
dx="0,0,0,0,0,0,0,0,0,0,0,0,0,0,0,0,0" 
class="s1_1"
>au lancer 1 ; N2 </text>

<text 
x="309" 
y="2076" 
dx="0,0,0,0,0,0,0,0,0,0,0,0,0,0" 
class="s1_1"
>= boule noire </text>

<text 
x="416" 
y="2076" 
dx="0,0,0,0,0,0,0,0,0,0,0,0" 
class="s1_1"
>au lancer 2 </text>

<text 
x="29" 
y="2116" 
dx="0,0,0,0,0,0,0,0,0,0,0,0,0,0,0,0,0,0,0,0,0,0,0" 
class="s2_1"
>p(G = 2 x) = p(R1) * p </text>

<text 
x="222" 
y="2116" 
dx="0,0,0,0" 
class="s2_1"
>(R2)</text>

<text 
x="199" 
y="2127" 
dx="0,0" 
class="s2_1"
>R1</text>

<text 
x="29" 
y="2147" 
dx="0,0,0,0,0,0,0,0,0,0,0,0,0,0,0,0,0,0,0" 
class="s1_1"
>3/20 * 3/20 = 9/400</text>

<text 
x="29" 
y="2186" 
dx="0,0,0,0,0,0,0,0,0,0,0,0,0,0,0,0,0,0,0,0,0,0,0" 
class="s2_1"
>p(G = -4) = p (N1) * p </text>

<text 
x="214" 
y="2186" 
dx="0,0,0,0" 
class="s2_1"
>(N2)</text>

<text 
x="191" 
y="2195" 
dx="0,0" 
class="s2_1"
>N1</text>

<text 
x="29" 
y="2215" 
dx="0,0,0,0,0,0,0,0,0,0,0,0,0,0,0,0,0,0,0,0,0,0,0,0,0" 
class="s1_1"
>17/20 * 17/20 = 289 / 400</text>

<text 
x="29" 
y="2275" 
dx="0,0,0,0,0,0,0,0,0,0,0,0,0,0,0,0,0,0,0,0,0,0,0,0,0,0,0,0" 
class="s2_1"
>p(G = x - 2 ) = [ p(R1) * p </text>

<text 
x="243" 
y="2275" 
dx="0,0,0,0,0,0,0,0,0,0,0,0,0,0,0,0,0,0,0,0,0,0" 
class="s2_1"
>(N2) ] + [ p (N1) * p </text>

<text 
x="417" 
y="2275" 
dx="0,0,0,0,0,0" 
class="s2_1"
>(R2) ]</text>

<text 
x="222" 
y="2286" 
dx="0,0" 
class="s2_1"
>R1</text>

<text 
x="392" 
y="2286" 
dx="0,0" 
class="s2_1"
>N1</text>

<text 
x="29" 
y="2305" 
dx="0,0,0,0,0,0,0,0,0,0,0,0,0,0,0,0,0,0,0,0,0,0,0,0" 
class="s1_1"
>51/400 + 51/400 = 51/200</text>

<text 
x="29" 
y="2345" 
dx="0,0,0,0,0,0,0,0,0,0,0,0,0" 
class="s1_1"
>Vériﬁcation :</text>

<text 
x="29" 
y="2365" 
dx="0,0,0,0,0,0,0,0,0,0,0,0,0,0,0,0,0,0,0,0,0,0,0,0,0,0,0,0,0,0,0,0,0,0,0,0,0,0,0,0,0,0,0,0,0,0,0,0,0,0,0,0,0,0,0,0,0,0,0,0,0,0,0,0,0,0,0,0,0,0,0,0,0,0" 
class="s1_1"
>9/400 + 289/400 + 51/200 = 400/400 = 1 = somme de toutes les probabilités.</text>

<path d="M419,960l58,0l0,44l-58,0Z" class="g8_1" />
<text 
x="429" 
y="990" 
dx="0,0,0,0" 
class="s7_1"
>1/10</text>

<path d="M421,888l58,0l0,43l-58,0Z" class="g8_1" />
<text 
x="429" 
y="915" 
dx="0,0,0,0" 
class="s2_1"
>1/15</text>

<path d="M421,1042l61,0l0,45l-61,0Z" class="g8_1" />
<text 
x="434" 
y="1071" 
dx="0,0,0,0" 
class="s7_1"
>1/12</text>

<path d="M424,1149l58,0l0,44l-58,0Z" class="g8_1" />
<text 
x="440" 
y="1178" 
dx="0,0,0" 
class="s7_1"
>3/4</text>

<text 
x="29" 
y="1513" 
dx="0,0,0,0,0,0,0,0,0,0,0,0,0,0,0,0,0,0,0,0,0,0,0,0,0,0,0,0,0,0,0,0,0,0,0,0,0,0,0,0,0,0,0,0,0,0,0,0,0,0,0,0,0,0,0,0,0,0,0,0,0,0,0,0,0,0,0,0,0,0,0,0,0,0,0,0,0,0,0,0,0" 
class="s2_1"
>Éventualités concernant les boules suite au lancer 2 en tenant compte du lancer 1</text>

<path d="M29.5,1515.5l655,0" class="g2_1" />
<g clip-path="url(#c11_1)">
<path d="M195,1660.4l-82.5,82.4" class="g11_1" />
</g>
<text 
x="226" 
y="1740" 
dx="0,0,0,0,0,0,0,0,0,0,0,0,0" 
class="s2_1"
>Dé : lancer 2</text>

<path d="M226.5,1741.5l100,0" class="g2_1" />
<text 
x="719" 
y="1577" 
dx="0,0,0,0,0,0" 
class="s1_1"
>G = 2x</text>

<g clip-path="url(#c12_1)">
<path d="M220.5,1639.5l96.1,-57.9" class="g5_1" />
</g>
<g clip-path="url(#c13_1)">
<path d="M197.7,1830.3l-84.5,-84.5" class="g5_1" />
</g>
<path d="M87,1654l65,0l0,41l-65,0Z" class="g8_1" />
<text 
x="95" 
y="1681" 
dx="0,0,0,0" 
class="s2_1"
>3/20</text>

<path d="M63,1822l71,0l0,-43l-71,0Z" class="g8_1" />
<text 
x="75" 
y="1807" 
dx="0,0,0,0,0" 
class="s7_1"
>17/20</text>

<path d="M401,1549l255,0l0,44l-255,0Z" class="g8_1" />
<text 
x="410" 
y="1577" 
dx="0,0,0,0,0,0,0,0,0,0,0,0,0,0,0,0,0,0,0" 
class="s1_1"
>3/20 * 3/20 = 9/400</text>

<text 
x="718" 
y="1896" 
dx="0,0,0,0,0,0" 
class="s1_1"
>G = -4</text>

<g clip-path="url(#c14_1)">
<path d="M319.2,1655.1l-96.6,-20.7" class="g5_1" />
</g>
<g clip-path="url(#c15_1)">
<path d="M312.8,1796.2l-75.4,40.4" class="g5_1" />
</g>
<g clip-path="url(#c16_1)">
<path d="M310.1,1882.5l-72.7,-40.6" class="g5_1" />
</g>
<path d="M400,1635l255,0l0,48l-255,0Z" class="g8_1" />
<text 
x="408" 
y="1665" 
dx="0,0,0,0,0,0,0,0,0,0,0,0,0,0,0,0,0,0,0,0,0,0" 
class="s1_1"
>3/20 * 17/20 = 51/400 </text>

<text 
x="714" 
y="1659" 
dx="0,0,0,0,0,0,0,0,0" 
class="s1_1"
>G = x - 2</text>

<text 
x="714" 
y="1788" 
dx="0,0,0,0,0,0,0,0,0" 
class="s1_1"
>G = x - 2</text>

<path d="M401,1875l255,0l0,43l-255,0Z" class="g8_1" />
<text 
x="408" 
y="1904" 
dx="0,0,0,0,0,0,0,0,0,0,0,0,0,0,0,0,0,0,0,0,0,0,0,0,0" 
class="s1_1"
>17/20 * 17/20 = 289 / 400</text>

<text 
x="40" 
y="1749" 
dx="0,0,0,0,0,0,0,0,0,0,0,0,0" 
class="s2_1"
>Dé : lancer 1</text>

<path d="M39.5,1752.5l100,0" class="g2_1" />
<g clip-path="url(#c17_1)">
<path d="M232.9,1819c10.4,10.5,10.4,27.5,0,38c-10.5,10.4,-27.5,10.4,-38,0c-10.4,-10.5,-10.4,-27.5,0,-38c10.5,-10.4,27.5,-10.4,38,0Z" class="g10_1" />
<path d="M232.9,1819c10.4,10.5,10.4,27.5,0,38c-10.5,10.4,-27.5,10.4,-38,0c-10.4,-10.5,-10.4,-27.5,0,-38c10.5,-10.4,27.5,-10.4,38,0Z" class="g8_1" />
</g>
<text 
x="202" 
y="1844" 
dx="0,0" 
class="s12_1"
>N1</text>

<g clip-path="url(#c18_1)">
<path d="M224.6,1634.1c9.1,9.2,9.1,24.1,0,33.3c-9.2,9.2,-24.1,9.2,-33.3,0c-9.2,-9.2,-9.2,-24.1,0,-33.3c9.2,-9.2,24.1,-9.2,33.3,0Z" class="g9_1" />
<path d="M224.6,1634.1c9.1,9.2,9.1,24.1,0,33.3c-9.2,9.2,-24.1,9.2,-33.3,0c-9.2,-9.2,-9.2,-24.1,0,-33.3c9.2,-9.2,24.1,-9.2,33.3,0Z" class="g8_1" />
</g>
<text 
x="196" 
y="1656" 
dx="0,0" 
class="s7_1"
>R1</text>

<path d="M349.1,1556.5c9.1,9.1,9.1,23.8,0,32.9c-9,9,-23.7,9,-32.8,0c-9.1,-9.1,-9.1,-23.8,0,-32.9c9.1,-9,23.8,-9,32.8,0Z" class="g9_1" />
<path d="M349.1,1556.5c9.1,9.1,9.1,23.8,0,32.9c-9,9,-23.7,9,-32.8,0c-9.1,-9.1,-9.1,-23.8,0,-32.9c9.1,-9,23.8,-9,32.8,0Z" class="g8_1" />
<text 
x="323" 
y="1578" 
dx="0,0" 
class="s8_1"
>R2</text>

<path d="M358.4,1647.2c8.8,8.8,8.8,23.1,0,31.9c-8.8,8.7,-23.1,8.7,-31.9,0c-8.7,-8.8,-8.7,-23.1,0,-31.9c8.8,-8.8,23.1,-8.8,31.9,0Z" class="g10_1" />
<path d="M358.4,1647.2c8.8,8.8,8.8,23.1,0,31.9c-8.8,8.7,-23.1,8.7,-31.9,0c-8.7,-8.8,-8.7,-23.1,0,-31.9c8.8,-8.8,23.1,-8.8,31.9,0Z" class="g8_1" />
<text 
x="332" 
y="1667" 
dx="0,0" 
class="s14_1"
>N2</text>

<path d="M349.8,1872.9c8.8,8.8,8.8,23.1,0,31.8c-8.7,8.8,-23,8.8,-31.8,0c-8.8,-8.7,-8.8,-23,0,-31.8c8.8,-8.8,23.1,-8.8,31.8,0Z" class="g10_1" />
<path d="M349.8,1872.9c8.8,8.8,8.8,23.1,0,31.8c-8.7,8.8,-23,8.8,-31.8,0c-8.8,-8.7,-8.8,-23,0,-31.8c8.8,-8.8,23.1,-8.8,31.8,0Z" class="g8_1" />
<text 
x="324" 
y="1893" 
dx="0,0" 
class="s14_1"
>N2</text>

<path d="M351.1,1773.7c9,9,9,23.7,0,32.8c-9.1,9,-23.8,9,-32.9,0c-9,-9.1,-9,-23.8,0,-32.8c9.1,-9.1,23.8,-9.1,32.9,0Z" class="g9_1" />
<path d="M351.1,1773.7c9,9,9,23.7,0,32.8c-9.1,9,-23.8,9,-32.9,0c-9,-9.1,-9,-23.8,0,-32.8c9.1,-9.1,23.8,-9.1,32.9,0Z" class="g8_1" />
<text 
x="324" 
y="1795" 
dx="0,0" 
class="s8_1"
>R2</text>

<path d="M232,1556l62,0l0,35l-62,0Z" class="g8_1" />
<text 
x="240" 
y="1580" 
dx="0,0,0,0" 
class="s2_1"
>3/20</text>

<path d="M229,1766l62,0l0,34l-62,0Z" class="g8_1" />
<text 
x="237" 
y="1791" 
dx="0,0,0,0" 
class="s2_1"
>3/20</text>

<path d="M224,1929l70,0l0,-45l-70,0Z" class="g8_1" />
<text 
x="235" 
y="1913" 
dx="0,0,0,0,0" 
class="s7_1"
>17/20</text>

<path d="M237,1697l64,0l0,-39l-64,0Z" class="g8_1" />
<text 
x="246" 
y="1685" 
dx="0,0,0,0,0" 
class="s7_1"
>17/20</text>

<path d="M400,1764l255,0l0,47l-255,0Z" class="g8_1" />
<text 
x="408" 
y="1794" 
dx="0,0,0,0,0,0,0,0,0,0,0,0,0,0,0,0,0,0,0,0,0,0" 
class="s1_1"
>17/20 * 3/20 = 51/400 </text>

<g clip-path="url(#c19_1)">
<path d="M404.5,1048.7c10.4,10.4,10.4,27.2,0,37.5c-10.3,10.4,-27.1,10.4,-37.4,0c-10.4,-10.3,-10.4,-27.1,0,-37.5c10.3,-10.3,27.1,-10.3,37.4,0Z" class="g9_1" />
<path d="M404.5,1048.8c10.4,10.3,10.4,27.1,0,37.4c-10.3,10.4,-27.1,10.4,-37.4,0c-10.4,-10.3,-10.4,-27.1,0,-37.4c10.3,-10.4,27.1,-10.4,37.4,0Z" class="g8_1" />
</g>
<text 
x="373" 
y="1074" 
dx="0,0" 
class="s7_1"
>R1</text>

<g clip-path="url(#c20_1)">
<path d="M407.9,1137.5c10.8,10.8,10.8,28.3,0,39.1c-10.8,10.8,-28.3,10.8,-39.1,0c-10.8,-10.8,-10.8,-28.3,0,-39.1c10.8,-10.8,28.3,-10.8,39.1,0Z" class="g10_1" />
<path d="M407.9,1137.5c10.8,10.8,10.8,28.3,0,39.1c-10.8,10.8,-28.3,10.8,-39.1,0c-10.8,-10.8,-10.8,-28.3,0,-39.1c10.8,-10.8,28.3,-10.8,39.1,0Z" class="g8_1" />
</g>
<text 
x="376" 
y="1163" 
dx="0,0" 
class="s12_1"
>N1</text>



<!-- Any embedded fonts defined here -->
<style type="text/css" ><![CDATA[

@font-face {
	font-family: Helvetica-Bold_10;
	src: url("fonts/Helvetica-Bold_10.woff") format("woff");
}

@font-face {
	font-family: Helvetica-Bold_1a;
	src: url("fonts/Helvetica-Bold_1a.woff") format("woff");
}

@font-face {
	font-family: AppleSymbols_16;
	src: url("fonts/AppleSymbols_16.woff") format("woff");
}

@font-face {
	font-family: Helvetica-BoldOblique_12;
	src: url("fonts/Helvetica-BoldOblique_12.woff") format("woff");
}

@font-face {
	font-family: Helvetica_-;
	src: url("fonts/Helvetica_-.woff") format("woff");
}

@font-face {
	font-family: Helvetica-Oblique_14;
	src: url("fonts/Helvetica-Oblique_14.woff") format("woff");
}

@font-face {
	font-family: Helvetica-BoldOblique_18;
	src: url("fonts/Helvetica-BoldOblique_18.woff") format("woff");
}

@font-face {
	font-family: Helvetica_1c;
	src: url("fonts/Helvetica_1c.woff") format("woff");
}

]]></style>

</svg>
