<?xml version="1.0" encoding="UTF-8" standalone="no"?>
<!DOCTYPE svg PUBLIC "-//W3C//DTD SVG 1.1//EN"
"http://www.w3.org/Graphics/SVG/1.1/DTD/svg11.dtd">


<!-- Page 3 -->
<svg x="0" y="0" width="1069" height="1534" viewBox="0 0 1069 1534" version="1.1" xmlns="http://www.w3.org/2000/svg" xmlns:xlink="http://www.w3.org/1999/xlink"
style="display: block;margin-left: auto;margin-right: auto;">
<defs>
<clipPath id="c0_3"><path d="M-97.5,1833.5l0,-2101l1289,0l0,2101Z" /></clipPath>

<style type="text/css"><![CDATA[

.g6_3{
fill: none;
stroke: #000000;
stroke-width: 1;
stroke-linecap: butt;
stroke-linejoin: miter;
}
.g7_3{
fill: none;
stroke: #406823;
stroke-width: 4;
stroke-linecap: butt;
stroke-linejoin: miter;
stroke-miterlimit: 4;
}
.g9_3{
fill: none;
stroke: #000000;
stroke-width: 4;
stroke-linecap: butt;
stroke-linejoin: miter;
stroke-miterlimit: 4;
}
.g10_3{
}
.g4_3{
fill: none;
stroke: #A6A6A6;
stroke-width: 1;
stroke-linecap: butt;
stroke-linejoin: miter;
stroke-miterlimit: 4;
}
.g2_3{
fill: #67AC39;
}
.g3_3{
fill: #DCDCDC;
}
.g5_3{
fill: none;
stroke: #404040;
stroke-width: 2;
stroke-linecap: butt;
stroke-linejoin: miter;
stroke-miterlimit: 4;
}
.g8_3{
fill: none;
stroke: #578C2E;
stroke-width: 5;
stroke-linecap: butt;
stroke-linejoin: miter;
stroke-miterlimit: 4;
}
.g1_3{
fill: #FFFFFF;
}

.s1_3{
font-size: 18.33px;
font-weight: bold;
font-family: Helvetica, Arial, sans-serif;
fill: #000000;
}
.s6_3{
font-size: 16.81px;
font-weight: bold;
font-family: Helvetica, Arial, sans-serif;
fill: #406823;
}
.s5_3{
font-size: 16.81px;
font-family: Helvetica, Arial, sans-serif;
fill: #000000;
}
.s4_3{
font-size: 16.81px;
font-weight: bold;
font-family: Helvetica, Arial, sans-serif;
fill: #000000;
}
.s2_3{
font-size: 15.28px;
font-weight: bold;
font-family: Helvetica, Arial, sans-serif;
fill: #000000;
}
.s3_3{
font-size: 15.28px;
font-family: Helvetica, Arial, sans-serif;
fill: #000000;
}

]]></style>

</defs>
<path d="M0,0
L0,1534
L1069,1534
L1069,0 Z " 
fill="#FFFFFF" stroke="none" />
<g clip-path="url(#c0_3)">
<path d="M-98,-268l1290,0l0,2101l-1290,0Z" class="g1_3" />
</g>
<text 
x="320" 
y="47" 
dx="0,-0.7,0,0,0,0,0,0,0,0,0,0,0,0,0,0,0,0,0,0,0,0,0,0,0" 
class="s1_3"
>A - Notes au 1er contrôle</text>

<path d="M20,62l146,0l0,32L20,94Z" class="g2_3" />
<path d="M166,62l62,0l0,32l-62,0Z" class="g2_3" />
<path d="M228,62l63,0l0,32l-63,0Z" class="g2_3" />
<path d="M291,62l53,0l0,32l-53,0Z" class="g2_3" />
<path d="M344,62l58,0l0,32l-58,0Z" class="g2_3" />
<path d="M402,62l58,0l0,32l-58,0Z" class="g2_3" />
<path d="M460,62l54,0l0,32l-54,0Z" class="g2_3" />
<path d="M514,62l53,0l0,32l-53,0Z" class="g2_3" />
<path d="M567,62l53,0l0,32l-53,0Z" class="g2_3" />
<path d="M620,62l54,0l0,32l-54,0Z" class="g2_3" />
<path d="M674,62l53,0l0,32l-53,0Z" class="g2_3" />
<path d="M727,62l54,0l0,32l-54,0Z" class="g2_3" />
<path d="M781,62l53,0l0,32l-53,0Z" class="g2_3" />
<path d="M20,94l146,0l0,31L20,125Z" class="g3_3" />
<path d="M20,125l146,0l0,68L20,193Z" class="g3_3" />
<text 
x="26" 
y="84" 
dx="0,0,0,0,0,0,0,0,0,0" 
class="s2_3"
>Notes = xi</text>

<text 
x="213" 
y="83" 
dx="0" 
class="s2_3"
>3</text>

<text 
x="276" 
y="83" 
dx="0" 
class="s2_3"
>5</text>

<text 
x="330" 
y="83" 
dx="0" 
class="s2_3"
>6</text>

<text 
x="387" 
y="83" 
dx="0" 
class="s2_3"
>7</text>

<text 
x="445" 
y="83" 
dx="0" 
class="s2_3"
>9</text>

<text 
x="490" 
y="83" 
dx="0,0" 
class="s2_3"
>10</text>

<text 
x="544" 
y="83" 
dx="0,-0.8" 
class="s2_3"
>11</text>

<text 
x="597" 
y="83" 
dx="0,0" 
class="s2_3"
>12</text>

<text 
x="651" 
y="83" 
dx="0,0" 
class="s2_3"
>13</text>

<text 
x="704" 
y="83" 
dx="0,0" 
class="s2_3"
>14</text>

<text 
x="757" 
y="83" 
dx="0,0" 
class="s2_3"
>17</text>

<text 
x="811" 
y="83" 
dx="0,0" 
class="s2_3"
>18</text>

<text 
x="26" 
y="116" 
dx="0,0,0,0,0,0,0,0,0,0,0,0,0,0" 
class="s2_3"
>Effectifs : ni</text>

<text 
x="213" 
y="115" 
dx="0" 
class="s3_3"
>2</text>

<text 
x="276" 
y="115" 
dx="0" 
class="s3_3"
>3</text>

<text 
x="330" 
y="115" 
dx="0" 
class="s3_3"
>3</text>

<text 
x="387" 
y="115" 
dx="0" 
class="s3_3"
>1</text>

<text 
x="445" 
y="115" 
dx="0" 
class="s3_3"
>1</text>

<text 
x="499" 
y="115" 
dx="0" 
class="s3_3"
>2</text>

<text 
x="552" 
y="115" 
dx="0" 
class="s3_3"
>2</text>

<text 
x="606" 
y="115" 
dx="0" 
class="s3_3"
>6</text>

<text 
x="659" 
y="115" 
dx="0" 
class="s3_3"
>4</text>

<text 
x="713" 
y="115" 
dx="0" 
class="s3_3"
>3</text>

<text 
x="766" 
y="115" 
dx="0" 
class="s3_3"
>2</text>

<text 
x="819" 
y="115" 
dx="0" 
class="s3_3"
>1</text>

<text 
x="26" 
y="146" 
dx="0,0,0,0,0,0,0,0,0,0,0,0,0,0,0,0" 
class="s2_3"
>ECC : Effectifs </text>

<text 
x="26" 
y="165" 
dx="0,0,0,0,0,0,0,0" 
class="s2_3"
>cumulés </text>

<text 
x="26" 
y="183" 
dx="0,0,0,0,0,0,0,0,0,0" 
class="s2_3"
>croissants</text>

<text 
x="213" 
y="146" 
dx="0" 
class="s3_3"
>2</text>

<text 
x="276" 
y="146" 
dx="0" 
class="s3_3"
>5</text>

<text 
x="330" 
y="146" 
dx="0" 
class="s3_3"
>8</text>

<text 
x="387" 
y="146" 
dx="0" 
class="s3_3"
>9</text>

<text 
x="437" 
y="146" 
dx="0,0" 
class="s3_3"
>10</text>

<text 
x="490" 
y="146" 
dx="0,0" 
class="s3_3"
>12</text>

<text 
x="544" 
y="146" 
dx="0,0" 
class="s3_3"
>14</text>

<text 
x="597" 
y="146" 
dx="0,0" 
class="s3_3"
>20</text>

<text 
x="651" 
y="146" 
dx="0,0" 
class="s3_3"
>24</text>

<text 
x="704" 
y="146" 
dx="0,0" 
class="s3_3"
>27</text>

<text 
x="757" 
y="146" 
dx="0,0" 
class="s3_3"
>29</text>

<text 
x="811" 
y="146" 
dx="0,0" 
class="s3_3"
>30</text>

<path d="M228.5,61.5l0,33" class="g4_3" />
<path d="M228.5,94.5l0,99" class="g4_3" />
<path d="M291.5,61.5l0,33" class="g4_3" />
<path d="M291.5,94.5l0,99" class="g4_3" />
<path d="M344.5,61.5l0,33" class="g4_3" />
<path d="M344.5,94.5l0,99" class="g4_3" />
<path d="M402.5,61.5l0,33" class="g4_3" />
<path d="M402.5,94.5l0,99" class="g4_3" />
<path d="M460.5,61.5l0,33" class="g4_3" />
<path d="M460.5,94.5l0,99" class="g4_3" />
<path d="M514.5,61.5l0,33" class="g4_3" />
<path d="M514.5,94.5l0,99" class="g4_3" />
<path d="M567.5,61.5l0,33" class="g4_3" />
<path d="M567.5,94.5l0,99" class="g4_3" />
<path d="M620.5,61.5l0,33" class="g4_3" />
<path d="M620.5,94.5l0,99" class="g4_3" />
<path d="M674.5,61.5l0,33" class="g4_3" />
<path d="M674.5,94.5l0,99" class="g4_3" />
<path d="M727.5,61.5l0,33" class="g4_3" />
<path d="M727.5,94.5l0,99" class="g4_3" />
<path d="M781.5,61.5l0,33" class="g4_3" />
<path d="M781.5,94.5l0,99" class="g4_3" />
<path d="M20.5,125.5l146,0" class="g4_3" />
<path d="M166.5,125.5l669,0" class="g4_3" />
<path d="M166.5,61.5l0,32" class="g4_3" />
<path d="M166,93l0,100" class="g5_3" />
<path d="M20,94l815,0" class="g5_3" />
<path d="M20.5,61.5l0,33" class="g4_3" />
<path d="M20.5,94.5l0,99" class="g4_3" />
<path d="M834.5,61.5l0,33" class="g4_3" />
<path d="M834.5,94.5l0,99" class="g4_3" />
<path d="M20.5,62.5l815,0" class="g4_3" />
<path d="M20.5,193.5l146,0" class="g4_3" />
<path d="M166.5,193.5l669,0" class="g4_3" />
<text 
x="30" 
y="394" 
dx="0,0,0,0,0,0,0,0,0,0,0,0,0,0,0,0,0,0,0,0" 
class="s4_3"
>Pour chacune de ces </text>

<text 
x="30" 
y="433" 
dx="0,0,0,0,0,0,0" 
class="s4_3"
>Moyenne</text>

<path d="M29.5,436.5l73,0" class="g6_3" />
<text 
x="30" 
y="473" 
dx="0,0,0,0,0,0,0,0,-0.6,-0.6,0,0,0,0,0,0,0,0,0,0" 
class="s4_3"
>Moyenne A = M(A) = (</text>

<text 
x="199" 
y="473" 
dx="0,0,0,0,0,0,0,0,0,0,0,0,0,0,0,0,0,0,0,0,0,0,0,0,0,0,0,0,0,0,0,0,0,0,0,0,0,0,0,0,0,0,0,0,0,0,0,0,0,0,0,0,0,-1.2,0,0,0,0,0,0,0,0,0,0,0,0,0,0,0,0,0,0,0,0,0,0,0,0,0,0,0,0,0,0,0,0,0,0,0,0,0,0,0,0,0,0,0,0,0,0,0,0,0,0,0,0,0,0,0,0,0,0,0" 
class="s5_3"
>(2*3) + (3*5) + (3*6) + (1*7) + (1*9) + (2*10) + (2*11) + (6*12) + (4*13) + (3*14) + (2*17) + (1*18)) / 30 = 10,5</text>

<text 
x="30" 
y="493" 
dx="0,0,0,0,0,0,0,0,0,0,0,0,0,0,0,0,0,0,0,0,0,0,0,0,0,0,0,0,0,0,0,0,0,0,0,0,0,0,0,0,0" 
class="s4_3"
>La moyenne pour le 1er contrôle est 10,5 </text>

<text 
x="30" 
y="533" 
dx="0,0,0,0,0,0,0,0,0,0,0,0,0,0,0,0,0,0,0,0" 
class="s4_3"
>Moyenne B = M(B) = (</text>

<text 
x="200" 
y="533" 
dx="0,0,0,0,0,0,0,0,0,0,0,0,0,0,0,0,0,0,0,0,0,0,0,0,0,0,0,0,0,0,0,0,0,0,0,0,0,0,0,0,0,0,0,0,-1.2,0,0,0,0,0,0,0,0,0,0,0,0,0,0,0,0,0,0,0,0,0,0,0,0,0,0,0,0,0,0,0,0,0,0,0,0,0,0,0,0,0,0,0,0,0,0,0,0,0,0,0,0,0,0,0,0,0,0,0,0,0,0,0,0,0,0,0,0,0,0,0,0,0,0,0,0" 
class="s5_3"
>(1*5) + (1*7) + (2*8) + (3*9) +(2*10) + (3*11) + (5*12) + (4*13) + (2*14) + (1*15) + (2*16) + (2*17 + (1*18) + (1*19)) / </text>

<text 
x="30" 
y="553" 
dx="0,0,0,0,0,0,0,0,0" 
class="s5_3"
>30 = 12,2</text>

<text 
x="30" 
y="572" 
dx="0,0,0,0,0,0,0,0,0,0,0,0,0,0,0,0,0,0,0,0,0,0,0,0,0,0,0,0,0,0,0,0,0,0,0,0,0,0,0,0" 
class="s4_3"
>La moyenne pour le 2è contrôle est 12,2 </text>

<text 
x="30" 
y="632" 
dx="0,0,0,0,0,0,0" 
class="s4_3"
>Médiane</text>

<path d="M29.5,634.5l67,0" class="g6_3" />
<text 
x="30" 
y="672" 
dx="0,0,0,0,0,0,0,0,-0.6,-0.6,0,0,0,0,0,0,0,0,0,0,0,0" 
class="s4_3"
>Médiane A = Q2 = 12 ; </text>

<text 
x="30" 
y="692" 
dx="0,0,0,0,0,0,0,0,0,0,0,0,0,0,0,0,0,0,0,0,0,0,0,0,0,0,0,0,0,0,0,0,0,0,0,0,0,0,0" 
class="s5_3"
>l'individu médian : 30 /2 + 0,5 = 15,5 </text>

<text 
x="308" 
y="692" 
dx="0,0,0,0,0,0,0,0,0,0,0,0,0,0,0,0,0,0,0,0,0,0,0,0,0,0,0,0,0,0,0,0,0,0,0,0,0,0,0,0,0,0,0,0,0,0,0,0,0,0,0,0,0,0,0,0,0,0,0,0,0,0,0,0,0,0,0,0,0,0,0,0,0,0,0,0,0,0,0,0" 
class="s5_3"
>; ainsi la valeur de la variable correspondant au 15,5 è individu est la note 12</text>

<text 
x="30" 
y="731" 
dx="0,0,0,0,0,0,0,0,0,0,0,0,0,0,0,0,0,0,0,0,0,0" 
class="s4_3"
>Médiane B = Q2 = 12 ; </text>

<text 
x="30" 
y="751" 
dx="0,0,0,0,0,0,0,0,0,0,0,0,0,0,0,0,0,0,0,0,0,0,0,0,0,0,0,0,0,0,0,0,0,0,0,0,0,0,0" 
class="s5_3"
>l'individu médian : 30 /2 + 0,5 = 15,5 </text>

<text 
x="308" 
y="751" 
dx="0,0,0,0,0,0,0,0,0,0,0,0,0,0,0,0,0,0,0,0,0,0,0,0,0,0,0,0,0,0,0,0,0,0,0,0,0,0,0,0,0,0,0,0,0,0,0,0,0,0,0,0,0,0,0,0,0,0,0,0,0,0,0,0,0" 
class="s5_3"
>; ainsi la valeur correspondant au 15,5 è individu est la note 12</text>

<text 
x="30" 
y="791" 
dx="0,0,0,0,0,0,0,0,0,0,0,0,0,0,-0.6,-0.6,0,0,0,0,0,0,0,0,0,0,0,0,0,0,0,0,0,0,0,0,0,0,0,0,0,0,0,0,0" 
class="s4_3"
>Ainsi médiane A et médiane B sont identiques.</text>

<text 
x="30" 
y="831" 
dx="0,0,0,0,0,0,0,0,0,0,0,0,0,-0.6" 
class="s4_3"
>Distribution A</text>

<text 
x="30" 
y="851" 
dx="0,0,0,0,0,0,0,0,0,0,0,0,0,0,0,0,0,0,0" 
class="s5_3"
>Premier quartile : </text>

<text 
x="162" 
y="851" 
dx="0,0,0,0,0,0" 
class="s4_3"
>Q1 = 6</text>

<path d="M29.5,853.5l119,0" class="g6_3" />
<text 
x="30" 
y="870" 
dx="0,0,0,0,0,0,0,0,0,0,0,0,0,0,0,0,0,0,0,0,0,0,0,0,0,0,0,0,0,0,0,0,0,0,0,0,0,0,0,0,0,0,0,0,0,0,0,0,0,0,0,0,0,0,0,0,0,0" 
class="s5_3"
>30*1/4 = 7,5 ; on arrondit à la valeur supérieure qui est </text>

<text 
x="445" 
y="870" 
dx="0,0,0,0,0,0,0,0,0,0,0,0,0,0,0,0,0,0,0,0,0,0" 
class="s5_3"
>8 qui correspond à la </text>

<text 
x="606" 
y="870" 
dx="0,0,0,0,0,0" 
class="s4_3"
>note 6</text>

<text 
x="30" 
y="910" 
dx="0,-0.6,0,0,0,0,0,0,0,0,0,0,0,0,0,0,0,0,0,0,0" 
class="s5_3"
>Troisième quartile : </text>

<text 
x="176" 
y="910" 
dx="0,0,0,0,0,0,0" 
class="s4_3"
>Q3 = 13</text>

<path d="M29.5,912.5l133,0" class="g6_3" />
<text 
x="30" 
y="930" 
dx="0,0,0,0,0,0,0,0,0,0,0,0,0,0,0,0,0,0,0,0,0,0,0,0,0,0,0,0,0,0,0,0,0,0,0,0,0,0,0,0,0,0,0,0,0,0,0,0,0,0,0,0,0,0,0,0,0,0,0,0,0,0,0,0,0,0,0,0,0,0,0,0,0,0,0,0,0,0,0,0,0,0" 
class="s5_3"
>30*3/4 = 22,5 ; on arrondit à la valeur supérieure qui est 23 qui correspond à la </text>

<text 
x="620" 
y="930" 
dx="0,0,0,0,0,0,0" 
class="s4_3"
>note 13</text>

<text 
x="30" 
y="970" 
dx="0,0,0,0,0,0,0,0,0,0,0,0,0,0,0,0,0,0,0,0,0" 
class="s5_3"
>Écart interquartile :</text>

<text 
x="175" 
y="970" 
dx="0,0,0,0,0,0,0,0,0,0" 
class="s4_3"
>[ Q3- Q1 ]</text>

<text 
x="256" 
y="970" 
dx="0,0,0,0,0,0,0,0,0,0,0,0,0" 
class="s5_3"
>=&gt; 13 - 6 = 7</text>

<path d="M29.5,972.5l132,0" class="g6_3" />
<text 
x="30" 
y="1029" 
dx="0,0,0,0,0,0,0,0,0,0,0,0,0" 
class="s4_3"
>Distribution </text>

<text 
x="133" 
y="1029" 
dx="0" 
class="s4_3"
>B</text>

<text 
x="30" 
y="1049" 
dx="0,0,0,0,0,0,0,0,0,0,0,0,0,0,0,0,0,0,0" 
class="s5_3"
>Premier quartile : </text>

<text 
x="162" 
y="1049" 
dx="0,0" 
class="s4_3"
>Q1</text>

<path d="M29.5,1051.5l119,0" class="g6_3" />
<text 
x="30" 
y="1069" 
dx="0,0,0,0,0,0,0,0,0,0,0,0,0" 
class="s5_3"
>30*1/4 = 7,5 </text>

<text 
x="130" 
y="1069" 
dx="0,0,0,0,0,0,0,0,0,0,0,0,0,0,0,0,0,0,0,0,0,0,0,0,0,0,0,0,0,0,0,0,0,0" 
class="s5_3"
>arrondi à la valeur supérieure 8. </text>

<text 
x="377" 
y="1069" 
dx="0,0,0,0,0,0,0,0,0,0,0,0,0,0,0,0,0,0,0,0,0,0,0,0,0,0,0,0,0,0,0,0,0,0,0,0,0,0,0,0,0,0,0,0,0,0,0,0,0,0,0,0,0,0,0,0,0" 
class="s5_3"
>Q1, valeur de la variable associée au 8è individu est la </text>

<text 
x="788" 
y="1069" 
dx="0,0,0,0,0,0,0" 
class="s4_3"
>note 10</text>

<text 
x="30" 
y="1109" 
dx="0,-0.6,0,0,0,0,0,0,0,0,0,0,0,0,0,0,0,0,0,0,0" 
class="s5_3"
>Troisième quartile : </text>

<text 
x="176" 
y="1109" 
dx="0,0,0,0,0,0,0" 
class="s4_3"
>Q3 = 14</text>

<path d="M29.5,1111.5l133,0" class="g6_3" />
<text 
x="30" 
y="1129" 
dx="0,0,0,0,0,0,0,0,0,0,0,0,0,0,0,0,0,0,0,0,0,0,0,0,0,0,0,0,0,0,0,0,0,0,0,0,0,0,0,0,0,0,0,0,0,0,0,0" 
class="s5_3"
>30*3/4 = 22,5 arrondi à 23 correspondant est la </text>

<text 
x="386" 
y="1129" 
dx="0,0,0,0,0,0,0" 
class="s4_3"
>note 14</text>

<text 
x="30" 
y="1168" 
dx="0,0,0,0,0,0,0,0,0,0,0,0,0,0,0,0,0,0,0,0,0,0" 
class="s5_3"
>Écart interquartile : </text>

<text 
x="175" 
y="1168" 
dx="0,0,0,0,0,0,0,0,0,0" 
class="s4_3"
>[ Q3- Q1 ]</text>

<text 
x="256" 
y="1168" 
dx="0,0,0,0,0,0,0,0,0,0,0,0,0,0" 
class="s5_3"
>=&gt; 14 - 10 = 4</text>

<path d="M29.5,1170.5l132,0" class="g6_3" />
<text 
x="30" 
y="1208" 
dx="0,0,0,0,0,0,0,0,0,0,0,0,0,0,0,0,0,0,0,0,0,0,0,0,0,0,0,0,0,0,0,0,0,0,0,0,0,0,0,0,0,0,0,0,0,0,0,0,0,0,0,0,0,0,0,0,0,0,0,0,0,0,0,0,0,0,0,0,0,0,0,0,0,0,0,0" 
class="s4_3"
>Représenter ces deux séries par un diagramme en boite sur le même graphique.</text>

<text 
x="395" 
y="273" 
dx="0,0,0,0,0,0,0,0,0,0,0,0,0,0,0,0,0,0,0,0,0,0,0,0" 
class="s1_3"
>B - Notes au 2è contrôle</text>

<path d="M25,288l175,0l0,32L25,320Z" class="g2_3" />
<path d="M200,288l62,0l0,32l-62,0Z" class="g2_3" />
<path d="M262,288l63,0l0,32l-63,0Z" class="g2_3" />
<path d="M325,288l53,0l0,32l-53,0Z" class="g2_3" />
<path d="M378,288l58,0l0,32l-58,0Z" class="g2_3" />
<path d="M436,288l58,0l0,32l-58,0Z" class="g2_3" />
<path d="M494,288l54,0l0,32l-54,0Z" class="g2_3" />
<path d="M548,288l53,0l0,32l-53,0Z" class="g2_3" />
<path d="M601,288l54,0l0,32l-54,0Z" class="g2_3" />
<path d="M655,288l53,0l0,32l-53,0Z" class="g2_3" />
<path d="M708,288l53,0l0,32l-53,0Z" class="g2_3" />
<path d="M761,288l54,0l0,32l-54,0Z" class="g2_3" />
<path d="M815,288l53,0l0,32l-53,0Z" class="g2_3" />
<path d="M868,288l54,0l0,32l-54,0Z" class="g2_3" />
<path d="M922,288l53,0l0,32l-53,0Z" class="g2_3" />
<path d="M25,320l175,0l0,31L25,351Z" class="g3_3" />
<path d="M25,351l175,0l0,50L25,401Z" class="g3_3" />
<text 
x="31" 
y="310" 
dx="0,0,0,0,0,0,0,0,0,0" 
class="s2_3"
>Notes = xi</text>

<text 
x="247" 
y="309" 
dx="0" 
class="s2_3"
>5</text>

<text 
x="310" 
y="309" 
dx="0" 
class="s2_3"
>7</text>

<text 
x="364" 
y="309" 
dx="0" 
class="s2_3"
>8</text>

<text 
x="421" 
y="309" 
dx="0" 
class="s2_3"
>9</text>

<text 
x="471" 
y="309" 
dx="0,0" 
class="s2_3"
>10</text>

<text 
x="525" 
y="309" 
dx="0,-0.8" 
class="s2_3"
>11</text>

<text 
x="578" 
y="309" 
dx="0,0" 
class="s2_3"
>12</text>

<text 
x="631" 
y="309" 
dx="0,0" 
class="s2_3"
>13</text>

<text 
x="685" 
y="309" 
dx="0,0" 
class="s2_3"
>14</text>

<text 
x="738" 
y="309" 
dx="0,0" 
class="s2_3"
>15</text>

<text 
x="792" 
y="309" 
dx="0,0" 
class="s2_3"
>16</text>

<text 
x="845" 
y="309" 
dx="0,0" 
class="s2_3"
>17</text>

<text 
x="899" 
y="309" 
dx="0,0" 
class="s2_3"
>18</text>

<text 
x="952" 
y="309" 
dx="0,0" 
class="s2_3"
>19</text>

<text 
x="31" 
y="342" 
dx="0,0,0,0,0,0,0,0,0,0,0,0,0,0" 
class="s2_3"
>Effectifs : ni</text>

<text 
x="247" 
y="341" 
dx="0" 
class="s3_3"
>1</text>

<text 
x="310" 
y="341" 
dx="0" 
class="s3_3"
>1</text>

<text 
x="364" 
y="341" 
dx="0" 
class="s3_3"
>2</text>

<text 
x="421" 
y="341" 
dx="0" 
class="s3_3"
>3</text>

<text 
x="479" 
y="341" 
dx="0" 
class="s3_3"
>2</text>

<text 
x="533" 
y="341" 
dx="0" 
class="s3_3"
>3</text>

<text 
x="586" 
y="341" 
dx="0" 
class="s3_3"
>5</text>

<text 
x="640" 
y="341" 
dx="0" 
class="s3_3"
>4</text>

<text 
x="693" 
y="341" 
dx="0" 
class="s3_3"
>2</text>

<text 
x="747" 
y="341" 
dx="0" 
class="s3_3"
>1</text>

<text 
x="800" 
y="341" 
dx="0" 
class="s3_3"
>2</text>

<text 
x="854" 
y="341" 
dx="0" 
class="s3_3"
>2</text>

<text 
x="907" 
y="341" 
dx="0" 
class="s3_3"
>1</text>

<text 
x="960" 
y="341" 
dx="0" 
class="s3_3"
>1</text>

<text 
x="31" 
y="372" 
dx="0,0,0,0,0,0,0,0,0,0,0,0,0,0,0,0" 
class="s2_3"
>ECC : Effectifs </text>

<text 
x="31" 
y="391" 
dx="0,0,0,0,0,0,0,0,0,0,0,0,0,0,0,0,0,0" 
class="s2_3"
>cumulés croissants</text>

<text 
x="247" 
y="372" 
dx="0" 
class="s3_3"
>1</text>

<text 
x="310" 
y="372" 
dx="0" 
class="s3_3"
>2</text>

<text 
x="364" 
y="372" 
dx="0" 
class="s3_3"
>4</text>

<text 
x="421" 
y="372" 
dx="0" 
class="s3_3"
>7</text>

<text 
x="479" 
y="372" 
dx="0" 
class="s3_3"
>9</text>

<text 
x="524" 
y="372" 
dx="0,0" 
class="s3_3"
>12</text>

<text 
x="578" 
y="372" 
dx="0,0" 
class="s3_3"
>17</text>

<text 
x="631" 
y="372" 
dx="0,0" 
class="s3_3"
>21</text>

<text 
x="685" 
y="372" 
dx="0,0" 
class="s3_3"
>23</text>

<text 
x="738" 
y="372" 
dx="0,0" 
class="s3_3"
>24</text>

<text 
x="792" 
y="372" 
dx="0,0" 
class="s3_3"
>26</text>

<text 
x="845" 
y="372" 
dx="0,0" 
class="s3_3"
>28</text>

<text 
x="899" 
y="372" 
dx="0,0" 
class="s3_3"
>29</text>

<text 
x="952" 
y="372" 
dx="0,0" 
class="s3_3"
>30</text>

<path d="M262.5,288.5l0,32" class="g4_3" />
<path d="M262.5,320.5l0,81" class="g4_3" />
<path d="M325.5,288.5l0,32" class="g4_3" />
<path d="M325.5,320.5l0,81" class="g4_3" />
<path d="M378.5,288.5l0,32" class="g4_3" />
<path d="M378.5,320.5l0,81" class="g4_3" />
<path d="M436.5,288.5l0,32" class="g4_3" />
<path d="M436.5,320.5l0,81" class="g4_3" />
<path d="M494.5,288.5l0,32" class="g4_3" />
<path d="M494.5,320.5l0,81" class="g4_3" />
<path d="M548.5,288.5l0,32" class="g4_3" />
<path d="M548.5,320.5l0,81" class="g4_3" />
<path d="M601.5,288.5l0,32" class="g4_3" />
<path d="M601.5,320.5l0,81" class="g4_3" />
<path d="M655.5,288.5l0,32" class="g4_3" />
<path d="M655.5,320.5l0,81" class="g4_3" />
<path d="M708.5,288.5l0,32" class="g4_3" />
<path d="M708.5,320.5l0,81" class="g4_3" />
<path d="M761.5,288.5l0,32" class="g4_3" />
<path d="M761.5,320.5l0,81" class="g4_3" />
<path d="M815.5,288.5l0,32" class="g4_3" />
<path d="M815.5,320.5l0,81" class="g4_3" />
<path d="M868.5,288.5l0,32" class="g4_3" />
<path d="M868.5,320.5l0,81" class="g4_3" />
<path d="M922.5,288.5l0,32" class="g4_3" />
<path d="M922.5,320.5l0,81" class="g4_3" />
<path d="M24.5,351.5l176,0" class="g4_3" />
<path d="M200.5,351.5l776,0" class="g4_3" />
<path d="M200.5,288.5l0,31" class="g4_3" />
<path d="M200,319l0,82" class="g5_3" />
<path d="M24,320l952,0" class="g5_3" />
<path d="M25.5,288.5l0,32" class="g4_3" />
<path d="M25.5,320.5l0,81" class="g4_3" />
<path d="M975.5,288.5l0,32" class="g4_3" />
<path d="M975.5,320.5l0,81" class="g4_3" />
<path d="M24.5,288.5l952,0" class="g4_3" />
<path d="M24.5,401.5l176,0" class="g4_3" />
<path d="M200.5,401.5l776,0" class="g4_3" />
<path d="M133,1385l104,0" class="g7_3" />
<path d="M236.5,1362.5l218,0l0,37l-218,0Z" class="g8_3" />
<path d="M459,1384l160,0" class="g7_3" />
<path d="M25,1459l643,0l2,0" class="g9_3" />
<path d="M668.5,1466.4l14.7,-7.3l-14.7,-7.4Z" class="g10_3" />
<path d="M364.5,1298.5l124,0l0,45l-124,0Z" class="g8_3" />
<text 
x="40" 
y="1483" 
dx="0" 
class="s5_3"
>0</text>

<path d="M100,1458l0,-9" class="g9_3" />
<path d="M168,1458l0,-8" class="g9_3" />
<path d="M236,1460l0,-9" class="g9_3" />
<path d="M301,1457l0,-9" class="g9_3" />
<path d="M367,1460l0,-12" class="g9_3" />
<path d="M551,1461l0,-14" class="g9_3" />
<path d="M617,1461l0,-14" class="g9_3" />
<path d="M682,1458l0,-11" class="g9_3" />
<path d="M648,1450l0,8" class="g9_3" />
<path d="M35,1461l0,-11" class="g9_3" />
<path d="M432,1459l0,-10" class="g9_3" />
<path d="M492,1458l0,-14" class="g9_3" />
<text 
x="132" 
y="1504" 
dx="0" 
class="s4_3"
>3</text>

<text 
x="197" 
y="1504" 
dx="0" 
class="s4_3"
>5</text>

<text 
x="230" 
y="1504" 
dx="0" 
class="s5_3"
>6</text>

<text 
x="295" 
y="1504" 
dx="0" 
class="s5_3"
>8</text>

<text 
x="361" 
y="1504" 
dx="0,0,0" 
class="s6_3"
>10 </text>

<text 
x="421" 
y="1504" 
dx="0,0,0" 
class="s6_3"
>12 </text>

<text 
x="449" 
y="1504" 
dx="0,0,0" 
class="s6_3"
>13 </text>

<text 
x="478" 
y="1504" 
dx="0,0,0" 
class="s6_3"
>14 </text>

<text 
x="534" 
y="1504" 
dx="0,0" 
class="s5_3"
>16</text>

<text 
x="613" 
y="1504" 
dx="0,0" 
class="s4_3"
>18</text>

<text 
x="646" 
y="1504" 
dx="0,0" 
class="s4_3"
>19</text>

<text 
x="674" 
y="1504" 
dx="0,0" 
class="s5_3"
>20</text>

<path d="M201,1461l0,-14" class="g9_3" />
<path d="M135,1448l0,12" class="g9_3" />
<path d="M458,1447l0,11" class="g9_3" />
<path d="M646,1320l-155,0" class="g7_3" />
<path d="M204,1320l161,0" class="g7_3" />
<text 
x="349" 
y="1287" 
dx="0,0" 
class="s6_3"
>Q1</text>

<text 
x="486" 
y="1287" 
dx="0,0" 
class="s6_3"
>Q3</text>

<path d="M429,1401l0,-41" class="g7_3" />
<text 
x="240" 
y="1425" 
dx="0,0" 
class="s6_3"
>Q1</text>

<text 
x="447" 
y="1425" 
dx="0,0" 
class="s6_3"
>Q3</text>

<path d="M431,1343l0,-44" class="g7_3" />
<text 
x="411" 
y="1425" 
dx="0,0" 
class="s6_3"
>Q2</text>

<text 
x="411" 
y="1268" 
dx="0,0" 
class="s6_3"
>Q2</text>


</svg>
