<svg xmlns:svg="http://www.w3.org/2000/svg" xmlns="http://www.w3.org/2000/svg" version="1.1" xml:space="preserve" width="698.34851" height="672.33875" viewBox="0 0 698.34851 672.33875"><style>.s0{fill:#e6f184;}.s1{fill:#d87bfb;}.s2{-inkscape-font-specification:Helvetica-Bold;fill:#000;font-family:Helvetica;font-size:10px;font-weight:bold;writing-mode:lr-tb;}.s3{-inkscape-font-specification:Helvetica;fill:#000;font-family:Helvetica;font-size:10px;writing-mode:lr-tb;}.s4{fill:none;stroke-width:0.34999999;stroke:#a6a6a6;}.s5{fill:none;stroke-width:0.75;stroke:#404040;}.s6{-inkscape-font-specification:Helvetica-Bold;fill:#000;font-family:Helvetica;font-size:11px;font-weight:bold;writing-mode:lr-tb;}.s7{-inkscape-font-specification:Helvetica;fill:#000;font-family:Helvetica;font-size:11px;writing-mode:lr-tb;}</style><defs><clipPath clipPathUnits="userSpaceOnUse"><path d="m0 0 668.948 0 0 792L0 792 0 0Z"/></clipPath><clipPath clipPathUnits="userSpaceOnUse"><path d="m70 439.0981 270 0 0 124-270 0 0-124z"/></clipPath><clipPath clipPathUnits="userSpaceOnUse"><path d="m72.175 496.1998 97.12308 0 0 36.72328-97.12308 0 0-36.72328z"/></clipPath><clipPath clipPathUnits="userSpaceOnUse"><path d="m169.6481 515.4614 168.074 0 0 17.46164-168.074 0 0-17.46164z"/></clipPath><clipPath clipPathUnits="userSpaceOnUse"><path d="m169.6481 496.1998 66.81538 0 0 17.26164-66.81538 0 0-17.26164z"/></clipPath><clipPath clipPathUnits="userSpaceOnUse"><path d="m236.8135 496.1998 55.47164 0 0 17.26164-55.47164 0 0-17.26164z"/></clipPath><clipPath clipPathUnits="userSpaceOnUse"><path d="m292.6351 496.1998 45.08702 0 0 17.26164-45.08702 0 0-17.26164z"/></clipPath><clipPath clipPathUnits="userSpaceOnUse"><path d="m72.175 477.3631 96.92308 0 0 18.08664-96.92308 0 0-18.08664z"/></clipPath><clipPath clipPathUnits="userSpaceOnUse"><path d="m169.8481 477.3631 66.61538 0 0 18.08664-66.61538 0 0-18.08664z"/></clipPath><clipPath clipPathUnits="userSpaceOnUse"><path d="m236.8135 477.3631 55.47164 0 0 18.08664-55.47164 0 0-18.08664z"/></clipPath><clipPath clipPathUnits="userSpaceOnUse"><path d="m292.6351 477.3631 45.08702 0 0 18.08664-45.08702 0 0-18.08664z"/></clipPath><clipPath clipPathUnits="userSpaceOnUse"><path d="m72.175 458.9079 96.92308 0 0 18.10526-96.92308 0 0-18.10526z"/></clipPath><clipPath clipPathUnits="userSpaceOnUse"><path d="m169.8481 458.9079 66.61538 0 0 18.10526-66.61538 0 0-18.10526z"/></clipPath><clipPath clipPathUnits="userSpaceOnUse"><path d="m236.8135 458.9079 55.47164 0 0 18.10526-55.47164 0 0-18.10526z"/></clipPath><clipPath clipPathUnits="userSpaceOnUse"><path d="m292.6351 458.9079 45.08702 0 0 18.10526-45.08702 0 0-18.10526z"/></clipPath><clipPath clipPathUnits="userSpaceOnUse"><path d="m72.175 440.4526 96.92308 0 0 18.10526-96.92308 0 0-18.10526z"/></clipPath><clipPath clipPathUnits="userSpaceOnUse"><path d="m169.8481 440.4526 66.61538 0 0 18.10526-66.61538 0 0-18.10526z"/></clipPath><clipPath clipPathUnits="userSpaceOnUse"><path d="m236.8135 440.4526 55.47164 0 0 18.10526-55.47164 0 0-18.10526z"/></clipPath><clipPath clipPathUnits="userSpaceOnUse"><path d="m292.6351 440.4526 45.08702 0 0 18.10526-45.08702 0 0-18.10526z"/></clipPath><clipPath clipPathUnits="userSpaceOnUse"><path d="m70 439.0981 270 0 0 124-270 0 0-124z"/></clipPath><clipPath clipPathUnits="userSpaceOnUse"><path d="m58.56626 122.2308 467.1723 0 0 307-467.1723 0 0-307z"/></clipPath><clipPath clipPathUnits="userSpaceOnUse"><path d="m58.87395 535.0981 537.074 0 0 138-537.074 0 0-138z"/></clipPath></defs><g transform="matrix(1.25,0,0,-1.25,-67.624,846.94875)"><g clip-path="url(#clipPath18)"><path d="M0 792 669 792 669 0 0 0 0 792Z" fill="#fff"/></g><g clip-path="url(#clipPath28)"><g transform="translate(138,544)"><text transform="scale(1,-1)" style="-inkscape-font-specification:Helvetica-Bold;fill:#000;font-family:Helvetica;font-size:12px;font-weight:bold;writing-mode:lr-tb"><tspan x="0 6.4452 13.1196 20.4492 23.782801 30.457199 37.131599 44.461201 47.7948 55.124401 61.798801 68.473198 71.806801 79.136398 85.810799 89.806801 93.140404 99.814796 106.4892 113.1636 117.834 121.1676 127.842" y="0">Tableau des patisseries</tspan></text></g><path d="m72 533.0981 97.4731 0 0-37.2733-97.4731 0 0 37.2733z" fill="#e6f184"/><path d="m169.4731 533.0981 168.424 0 0-18.6367-168.424 0 0 18.6367zM169.4731 514.4614l67.1654 0 0-18.6366-67.1654 0 0 18.6366M169.4731 514.4614l67.1654 0 0-18.6366-67.1654 0 0 18.6366M169.4731 514.4614l67.1654 0 0-18.6366-67.1654 0 0 18.6366zM236.6385 514.4614l55.8216 0 0-18.6366-55.8216 0 0 18.6366zM292.4601 514.4614l45.437 0 0-18.6366-45.437 0 0 18.6366z" fill="#d87bfb"/><path d="m72 495.8248 97.4731 0 0-18.6367-97.4731 0 0 18.6367zM72 477.1881l97.4731 0 0-18.4552-97.4731 0 0 18.4552M72 477.1881l97.4731 0 0-18.4552-97.4731 0 0 18.4552M72 477.1881l97.4731 0 0-18.4552-97.4731 0 0 18.4552zM72 458.7329l97.4731 0 0-18.4553-97.4731 0 0 18.4553z" fill="#e6f184"/></g><g clip-path="url(#clipPath58)"><g transform="translate(76,510)"><text transform="scale(1,-1)" class="s2"><tspan x="0 7.7779999 13.336 19.444 23.332001 28.889999" y="0">Genres</tspan></text></g></g><g clip-path="url(#clipPath72)"><g transform="translate(234,519)"><text transform="scale(1,-1)" class="s2"><tspan x="0 6.6700001 12.232 16.124001 19.454 25.562 34.453999" y="0">Parfums</tspan></text></g></g><g clip-path="url(#clipPath86)"><g transform="translate(174,500)"><text transform="scale(1,-1)" class="s2"><tspan x="0 7.2220001 13.334 19.445999 25.007999 31.120001 33.902 39.464001" y="0">Chocolat</tspan></text></g></g><g clip-path="url(#clipPath100)"><g transform="translate(241,500)"><text transform="scale(1,-1)" class="s2"><tspan x="0 7.2220001 12.784 16.114" y="0">Café</tspan></text></g></g><g clip-path="url(#clipPath114)"><g transform="translate(297,500)"><text transform="scale(1,-1)" class="s2"><tspan x="0 5.3709998 11.479 14.809 20.371" y="0">Total</tspan></text></g></g><g clip-path="url(#clipPath128)"><g transform="translate(76,482)"><text transform="scale(1,-1)" class="s2"><tspan x="0 6.6700001 12.232 15.01 20.572001 23.35 27.242001" y="0">Éclairs</tspan></text></g></g><g clip-path="url(#clipPath142)"><g transform="translate(221.3404,481.7496)"><text transform="scale(1,-1)" class="s3"><tspan x="0 5.5619998" y="0">75</tspan></text></g></g><g clip-path="url(#clipPath156)"><g transform="translate(277.162,481.7496)"><text transform="scale(1,-1)" class="s3"><tspan x="0 5.5619998" y="0">45</tspan></text></g></g><g clip-path="url(#clipPath170)"><g transform="translate(317.0375,481.7496)"><text transform="scale(1,-1)" style="-inkscape-font-specification:Helvetica;fill:#2a1680;font-family:Helvetica;font-size:10px;writing-mode:lr-tb"><tspan x="0 5.5619998 11.124" y="0">120</tspan></text></g></g><g clip-path="url(#clipPath184)"><g transform="translate(76,463)"><text transform="scale(1,-1)" class="s2"><tspan x="0 7.2220001 12.784 15.566 18.348 24.459999 27.242001 32.804001 38.916 44.478001 50.040001" y="0">Religieuses</tspan></text></g></g><g clip-path="url(#clipPath198)"><g transform="translate(221.3404,463.313)"><text transform="scale(1,-1)" class="s3"><tspan x="0 5.5619998" y="0">25</tspan></text></g></g><g clip-path="url(#clipPath212)"><g transform="translate(277.162,463.313)"><text transform="scale(1,-1)" class="s3"><tspan x="0 5.5619998" y="0">35</tspan></text></g></g><g clip-path="url(#clipPath226)"><g transform="translate(322.5991,463.313)"><text transform="scale(1,-1)" class="s3"><tspan x="0 5.5619998" y="0">60</tspan></text></g></g><g clip-path="url(#clipPath240)"><g transform="translate(76,445)"><text transform="scale(1,-1)" class="s2"><tspan x="0 5.3709998 11.479 14.809 20.371" y="0">Total</tspan></text></g></g><g clip-path="url(#clipPath254)"><g transform="translate(215.7789,444.8577)"><text transform="scale(1,-1)" class="s3"><tspan x="0 5.5619998 11.124" y="0">100</tspan></text></g></g><g clip-path="url(#clipPath268)"><g transform="translate(277.162,444.8577)"><text transform="scale(1,-1)" class="s3"><tspan x="0 5.5619998" y="0">80</tspan></text></g></g><g clip-path="url(#clipPath282)"><g transform="translate(317.0375,444.8577)"><text transform="scale(1,-1)" class="s2"><tspan x="0 5.5619998 11.124" y="0">180</tspan></text></g></g><g clip-path="url(#clipPath296)"><g transform="matrix(1,0,0,-1,70,563.0981)"><path d="m166.6385 47.63664 0 19.63664" class="s4"/></g><g transform="matrix(1,0,0,-1,70,563.0981)"><path d="m166.6385 67.27328 0 56.04712" class="s4"/></g><g transform="matrix(1,0,0,-1,70,563.0981)"><path d="m222.4601 47.63664 0 19.63664" class="s4"/></g><g transform="matrix(1,0,0,-1,70,563.0981)"><path d="m222.4601 67.27328 0 56.04712" class="s4"/></g><g transform="matrix(1,0,0,-1,70,563.0981)"><path d="m98.97308 48.63664 169.42402 0" style="fill:none;stroke-width:2;stroke:#515151"/></g><g transform="matrix(1,0,0,-1,70,563.0981)"><path d="m1.5 85.90992 97.97308 0" class="s4"/></g><g transform="matrix(1,0,0,-1,70,563.0981)"><path d="m99.47308 85.90992 168.92402 0" class="s4"/></g><g transform="matrix(1,0,0,-1,70,563.0981)"><path d="m1.5 104.3652 97.97308 0" class="s4"/></g><g transform="matrix(1,0,0,-1,70,563.0981)"><path d="m99.47308 104.3652 168.92402 0" class="s4"/></g><g transform="matrix(1,0,0,-1,70,563.0981)"><path d="m99.47308 29.5 0 37.27328" class="s4"/></g><g transform="matrix(1,0,0,-1,70,563.0981)"><path d="m99.47308 66.77328 0 56.54712" class="s5"/></g><g transform="matrix(1,0,0,-1,70,563.0981)"><path d="m1.5 67.27328 266.8971 0" class="s5"/></g><g transform="matrix(1,0,0,-1,70,563.0981)"><path d="M2 29.5 2 67.27328" class="s4"/></g><g transform="matrix(1,0,0,-1,70,563.0981)"><path d="M2 67.27328 2 123.3204" class="s4"/></g><g transform="matrix(1,0,0,-1,70,563.0981)"><path d="m267.8971 29.5 0 37.77328" class="s4"/></g><g transform="matrix(1,0,0,-1,70,563.0981)"><path d="m267.8971 67.27328 0 56.04712" class="s4"/></g><g transform="matrix(1,0,0,-1,70,563.0981)"><path d="m1.5 30 266.8971 0" class="s4"/></g><g transform="matrix(1,0,0,-1,70,563.0981)"><path d="m1.5 122.8204 97.97308 0" class="s4"/></g><g transform="matrix(1,0,0,-1,70,563.0981)"><path d="m99.47308 122.8204 168.92402 0" class="s4"/></g></g><g clip-path="url(#clipPath380)"><g transform="translate(63,415)"><text transform="scale(1,-1)" class="s6"><tspan x="0 6.1181998" y="0">2.</tspan></text></g><g transform="translate(63,415)"><text transform="matrix(1,0,0,-1,11.627928,0)" class="s7"><tspan x="0 7.3369999 13.4552 16.511 22.6292 25.0734 31.191601 37.309799 40.365601 45.865601 51.983799 58.102001 60.5462 66.046204 68.490402 71.546204 74.601997 80.7202 86.838402 89.894203 96.012398 102.1306 107.6306 113.7488 117.4118 123.53 126.5858 132.70399 138.8222 141.87801 147.9962 154.1144 157.1702 163.28841 169.4066 175.5248 178.5806 184.69881 190.817 194.48 203.64301 206.0872 209.14301 212.19881 218.317 224.4352 227.491 233.60921 239.10921 242.16499 244.60921 250.7274 256.22739 259.2832 265.4014 271.51959 274.57541 277.01959 282.51959 288.01959 294.13779 297.80081 300.245 306.36319 311.86319 314.91901" y="0">Antoine choisit au hasard un gâteau parmi toutes les pâtisseries. </tspan></text></g><g transform="translate(63,415)"><text transform="matrix(1,0,0,-1,329.5918,0)" class="s6"><tspan x="0 8.5558004 15.2746 21.392799 24.448601 27.5044 33.622601 36.678398 42.7966 48.914799 52.577801 55.633598 58.6894 64.807602 67.863403 74.582199 78.863403 85.582199 92.301003 98.419197 105.138 108.1938 111.2496 114.3054 117.9684 124.0866" y="0">Quelle est la probabilité </tspan></text></g><g transform="translate(63,402)"><text transform="scale(1,-1)" class="s6"><tspan x="0 6.7188001 13.4376 16.493401 19.5492 22.605 25.660801 31.774599 34.830399 40.944199 47.662998 50.7188 56.8326 62.9464 69.060204 72.115997" y="0">qu’il s’agisse :</tspan></text></g><g transform="translate(63,402)"/><g transform="translate(63,389)"/><g transform="translate(63,376)"><text transform="scale(1,-1)" class="s6"><tspan x="0 6.1181998 9.1739998 12.2298 18.948601 22.0044 28.7232 35.442001 38.497799 44.616001 50.7342 53.790001 59.908199 62.964001 67.245201 70.301003 76.419197 83.138 86.193802 92.311996 99.0308 105.7496 111.8678 118.5866 121.6424 127.7606 131.4236 134.4794" y="0">a. d’un éclair au chocolat ?</tspan></text></g><g transform="translate(63,376)"><text transform="matrix(1,0,0,-1,144.2565,0)" class="s6"><tspan x="0 6.4239998 12.848 15.9038 22.021999 28.1402 31.195999 34.251801 37.307598 43.4258 49.543999 55.662201 58.717999 65.141998 68.1978 74.316002 77.371803 83.489998" y="0">=> 75 / 180 = 5/12</tspan></text></g><g transform="translate(63,363)"/><g transform="translate(63,350)"><text transform="scale(1,-1)" class="s6"><tspan x="0 6.7188001 9.7746 12.8304 19.5492 22.605 29.323799 36.042599 42.156399 45.2122 49.488998 55.602798 58.6586 61.714401 68.433197 71.488998 77.602798 84.321602 90.435402 96.549202 99.605003" y="0">b. d’une religieuse ?</tspan></text></g><g transform="translate(63,350)"><text transform="matrix(1,0,0,-1,109.4088,0)" class="s6"><tspan x="0 6.4239998 12.848 15.9038 22.021999 28.1402 31.195999 37.314201 43.4324 49.550598 52.6064 59.030399 62.086201 68.204399 71.260201" y="0">=> 60/180 = 1/3</tspan></text></g><g transform="translate(63,337)"/><g transform="translate(63,324)"><text transform="scale(1,-1)" class="s6"><tspan x="0 6.1181998 9.1739998 12.2298 18.948601 22.0044 28.7232 35.442001 41.5602 44.616001 51.334801 57.452999 61.116001 64.171799 70.290001 76.408203 82.526398 86.807602 89.863403 95.981598 99.037399 105.1556 111.8744 114.9302 121.0484 127.1666 130.82961 136.9478 140.0036" y="0">c. d’une pâtisserie au café ?</tspan></text></g><g transform="translate(63,324)"><text transform="matrix(1,0,0,-1,149.778,0)" class="s6"><tspan x="0 6.4239998 12.848 15.9038 22.021999 28.1402 31.195999 37.314201 43.4324 49.550598 52.6064 59.030399 62.086201 68.204399 71.260201" y="0">=> 80/180 = 4/9</tspan></text></g><g transform="translate(63,311)"/><g transform="translate(63,298)"><text transform="scale(1,-1)" class="s6"><tspan x="0 6.1181998" y="0">3.</tspan></text></g><g transform="translate(63,298)"><text transform="matrix(1,0,0,-1,12.229628,0)" class="s7"><tspan x="0 7.3369999 13.4552 17.1182 23.236401 29.354601 33.017601 39.135799 42.191601 48.309799 51.972801 58.091 64.209198 70.3274 73.383202 79.501404 85.619598 91.737801 94.793602 100.9118 107.03 110.0858 112.53 118.03 123.53 129.64819 133.3112 135.7554 141.8736 144.9294 151.04761 157.1658 160.2216 166.3398 172.45799 177.95799 184.0762 187.7392 193.85741 196.91319 199.96899 207.306 213.42419 218.92419 225.0424 231.1606 237.27879 240.33459 243.3904 249.50861 255.6268 258.07101 260.5152 262.95941 266.0152 271.5152 273.95941 280.07761 286.1958 288.64001 291.6958 294.75159 300.86981 303.314 309.43219 315.55042 321.66861 324.7244 328.38739 334.50562 336.9498 339.39401 345.51221 347.95639 354.07458 360.19281 365.69281 371.811 374.86679" y="0">Bernard prend une pâtisserie au hasard. Sachant qu’il s’agit d’une religieuse, </tspan></text></g><g transform="translate(63,298)"><text transform="matrix(1,0,0,-1,390.1348,0)" class="s6"><tspan x="0 6.7188001 13.4376 19.555799 22.611601 25.6674 31.785601 34.8414 40.959599 47.077801 50.740799 53.7966 56.852402 62.9706" y="0">quelle est la </tspan></text></g><g transform="translate(63,285)"><text transform="scale(1,-1)" class="s6"><tspan x="0 6.7188001 11 17.7188 24.437599 30.555799 37.274601 40.330399 43.3862 46.442001 50.105 56.223202 59.278999 65.997803 72.716599 78.834801 81.890602 88.008797 94.126999 97.1828 100.2386 106.3568 110.0198 116.138 119.1938 122.2496 128.3678 135.08659 138.1424 141.8054 144.86121 150.9794 157.6982 160.754 166.87219 173.591 180.3098 186.42799 193.1468 196.20261 202.3208 205.9838 209.0396 215.75841 218.81419 225.2382 231.6622 234.718 240.8362 246.95441 250.01019 256.12839 262.24661 265.3024 271.72641 274.7822 280.90039 283.95621 290.0744 296.1926" y="0">probabilité que celle-ci soit au chocolat ? => 25/60 = 5/12 </tspan></text></g><g transform="translate(63,285)"><text transform="matrix(1,0,0,-1,299.2505,0)" class="s7"><tspan x="0 3.6630001 6.1072001 8.5514002 11.6072 17.107201 20.163 26.2812 29.337 35.4552 41.573399 44.6292 48.292198 54.4104 56.854599 59.298801 65.417 67.861198 73.979401 80.097603 85.597603 91.715797 97.215797 100.2716 106.3898 112.508 115.5638 121.0638 127.182 133.3002 138.8002 144.9184 147.36259 153.4808 156.53661" y="0">(il y a 25 religieuses au chocolat </tspan></text></g><g transform="translate(63,272)"><text transform="scale(1,-1)" class="s7"><tspan x="0 6.1181998 12.2364 15.8994 25.062401 27.506599 30.562401 33.006599 39.124802 44.624802 47.680599 53.798801 59.917 62.972801 66.635803 72.753998 75.198196 77.642403 83.760597 86.204803 92.322998 98.4412 103.9412 110.0594 115.5594" y="0">parmi les 60 religieuses)</tspan></text></g><g transform="translate(63,272)"/><g transform="translate(63,259)"/><g transform="translate(63,246)"><text transform="scale(1,-1)" class="s6"><tspan x="0 6.1181998 9.1784" y="0">4. </tspan></text></g><g transform="translate(63,246)"><text transform="matrix(1,0,0,-1,12.22998,0)" class="s7"><tspan x="0 7.9442 14.0624 17.725401 23.843599 29.9618 33.017601 35.4618 41.580002 44.635799 50.754002 53.809799 59.928001 63.591 66.035202 71.535202 74.591003 80.709198 86.8274 92.945602 98.445602 101.5014 107.6196 113.7378 116.7936 122.9118 129.03 135.14819 140.64819 143.70399 149.8222 155.9404 158.9962 165.1144 171.2326 176.7326 182.8508 186.51379 192.632 195.68781 198.74361 207.29939 213.4176 219.5358 221.98 224.42419 230.5424 233.59821 239.7164 245.2164 248.2722 251.328 253.7722 259.89041 262.9462 269.06439 272.72739 278.84561 284.96381 291.082 297.2002 299.64441 302.08859 304.53281 307.58859 313.70679 316.7626 322.8808 328.99899 331.44321 333.88739 336.3316 341.8316 344.88739 351.00562 353.4498 359.56799 365.68619 368.742 371.79779 374.242 380.3602 383.41599 392.57901 398.6972 407.8602 413.97839" y="0">Corentin a pris deux gâteaux au hasard. Quelle est la probabilité qu’ils aient le même </tspan></text></g><g transform="translate(63,233)"><text transform="scale(1,-1)" class="s7"><tspan x="0 6.1181998 12.2364 15.8994 18.9552 25.0734 34.236401 37.292198" y="0">parfum ?</tspan></text></g><g transform="translate(63,233)"/><g transform="translate(63,220)"><text transform="scale(1,-1)" class="s6"><tspan x="0 7.3369999 13.4552 17.736401 21.399401 28.1182 37.899399 40.9552 47.073399 53.792198 60.511002 66.629204 73.348 76.403801 82.522003 86.184998 89.240799 95.664803 102.0888 105.1446 108.8076 114.9258 121.044 127.1622 130.218 136.3362 142.45441 148.5726 151.6284 155.2914 158.3472 162.6284 165.6842 169.3472 175.46539 181.5836 184.6394 187.69521 190.75101 196.8692 202.9874 209.10561 212.16141 215.8244 218.8802 225.3042 228.36 234.4782 240.59641 243.65221 246.70799 249.76379 255.882 262.00021" y="0">Parfum chocolat => [100/180 ] * [99 / 179 ] = 55 / 179</tspan></text></g><g transform="translate(63,207)"/><g transform="translate(63,194)"><text transform="scale(1,-1)" class="s6"><tspan x="0 7.3369999 13.4552 17.736401 21.399401 28.1182 37.899399 40.9552 47.073399 53.191601 56.854599 62.972801 66.028603 72.452599 78.876602 81.932404 85.595398 91.7136 97.831802 100.8876 107.0058 113.124 119.2422 122.9052 125.961 130.2422 133.298 136.961 143.07919 149.1974 152.2532 158.3714 164.48959 170.6078 174.2708 177.3266 183.7506 186.8064 192.92461 199.0428 205.161 208.2168 211.2726 214.3284 220.44659 226.5648 232.0813" y="0">Parfum café => [80/180] * [79/179] = 316 / 1611</tspan></text></g><g transform="translate(63,181)"/><g transform="translate(63,168)"><text transform="scale(1,-1)" class="s7"><tspan x="0 6.1181998 12.2364 15.2922 21.4104 25.0734 31.191601 37.309799 43.428001 49.5462 51.990398 54.434601 56.878799 59.934601 66.052803 69.108597 75.226799 81.345001 87.463203 90.518997 92.963203 99.081398 104.5814 107.6372 113.7554 119.8736 125.9918 131.49181 134.54761 140.6658 146.784 149.8398 155.95799 162.0762 168.1944 173.6944 176.7502 182.86839 185.31261 191.4308 197.549 200.6048 203.6606 206.1048 212.22301 215.27879 224.4418 230.56 239.72301 245.8412 248.897 255.0152 261.13339 264.79639 267.8522 273.9704 283.13339 286.18921 292.3074 297.8074 300.86319" y="0">La probabilité que les deux gâteaux aient le même parfum est </tspan></text></g><g transform="translate(63,168)"><text transform="matrix(1,0,0,-1,306.963,0)" class="s6"><tspan x="0 6.1181998 12.2364 15.2922 18.348 21.403799 27.521999 33.640202 39.7584 42.814201 49.238201 52.293999 58.412201 64.530403 70.648598 73.704399 76.760201 79.816002 85.934196 92.052399 97.568901 103.6871" y="0">55 / 179 + 316 / 1611 </tspan></text></g><g transform="translate(63,168)"><text transform="matrix(1,0,0,-1,413.7031,0)" class="s7"><tspan x="0 5.5 7.5998998 13.7181 19.2181 22.273899 25.3297 31.447901" y="0">c'est à </tspan></text></g><g transform="translate(63,155)"><text transform="scale(1,-1)" class="s7"><tspan x="0 6.1181998 8.5623999 12.2254 18.343599" y="0">dire </tspan></text></g><g transform="translate(63,155)"><text transform="matrix(1,0,0,-1,21.39844,0)" class="s6"><tspan x="0 6.1181998 11.6314 17.749599 20.809799 23.870001 26.930201 33.048401 39.166599 44.679798 50.798" y="0">811 / 1611 </tspan></text></g><g transform="translate(63,155)"><text transform="matrix(1,0,0,-1,75.24365,0)" class="s7"><tspan x="0 3.6630001 6.7188001 12.2188 18.337 20.7812 23.837 26.892799 33.011002 39.1292 44.6292 47.073399 50.736401 56.854599 62.972801 66.028603 72.146797 75.202599 81.320801 87.439003 93.557198 96.612999 100.276" y="0">( soit environ 0,503 ) </tspan></text></g><g transform="translate(63,155)"/><g transform="translate(63,142)"/></g><g clip-path="url(#clipPath574)"><g transform="translate(63,659)"><text transform="scale(1,-1)" class="s6"><tspan x="0 7.3369999 15.2812 23.837 31.7812 39.725399 47.669601 50.725399 57.444199 60.5 67.218803 74.555801 81.892799 84.948601 88.611603 91.667397 97.5755 105.5197 113.4639 120.1827 127.5197 135.4639 143.4081 146.4639 154.4081 157.4639 165.4081 173.9639 181.9081 189.85229 196.57111 203.9081 206.9639 214.3009 222.2451 228.9639 236.9081 244.2451" y="0">PROBABILITÉS : TABLEAU À DOUBLE ENTRÉE</tspan></text></g><g transform="translate(63,659)"/><g transform="translate(63,646)"/><g transform="translate(63,633)"><text transform="scale(1,-1)" class="s7"><tspan x="0 7.3369999 10.3928 12.837 15.2812 21.399401 26.899401 32.399399 38.517601 44.017601 46.4618 52.580002 58.6982 61.754002 67.8722 70.316399 76.434601 82.552803 88.670998 91.726799 97.226799 103.345 107.008 113.1262 122.2892 128.40739 134.5256 136.9698 143.088 146.1438 149.1996 155.31779 161.436 164.49181 170.61 176.7282 179.784 182.2282 187.7282 193.2282 195.67239 201.7906 205.4536 208.5094 214.0094 220.12759 226.2458 229.30161 235.4198 240.9198 243.9756 246.4198 252.53799 258.65619 264.77441 270.89261 273.94839 280.06659 286.18481 289.2406 295.3588 300.8588 306.3588 312.47699 316.14001 319.1958 321.64001 330.80301 336.9212 343.0394 346.09521 349.151 355.2692 361.38739 364.44321 370.5614 376.6796 382.79779 385.85361 391.9718 398.09 401.14581 407.26401 413.3822 419.5004 425.0004 428.05621 433.55621 439.67441 448.8374 454.9556 461.07379 466.57379 472.69199 475.7478 481.866 484.31021 490.42841 495.92841 498.37259 504.49081 506.935 510.59799 516.09802" y="0">À l’occasion d’une cérémonie, un pâtissier confectionne un assortiment de 180 gâteaux composé d’éclairs </tspan></text></g><g transform="translate(63,620)"><text transform="scale(1,-1)" class="s7"><tspan x="0 6.1181998 12.2364 15.2922 20.7922 26.9104 33.028599 38.528599 44.646801 47.091 53.209202 56.264999 59.320801 62.376598 68.494797 70.939003 77.057198 82.557198 85.001404 91.119598 93.563797 97.226799 102.7268 105.7826 111.9008 118.019 121.0748 126.5748 132.69299 135.74879 141.867 144.92281 147.97861 154.0968 160.215 163.2708 166.93381 173.052 175.4962 177.9404 184.05859 186.50281 192.621 198.7392 204.2392 210.35741 215.85741 218.91319 225.0314 231.1496 234.2054 239.7054 245.82359 251.9418 257.4418 263.56 266.00421 272.12241 275.17819 278.23401 284.3522 287.40799 290.46381 296.582 302.7002 305.75601 309.41901 315.5372 317.98141 320.4256 326.54379 328.98801 335.1062 341.2244 346.7244 352.84259 358.34259 361.39841 367.5166 373.6348 376.69061 382.19061 388.30881 391.36459 397.48279" y="0">au chocolat, d’éclairs au café, de religieuses au chocolat et de religieuses au café.</tspan></text></g><g transform="translate(63,607)"><text transform="scale(1,-1)" class="s7"><tspan x="0 6.1181998 12.2364 17.736401 20.7922 26.9104 33.028599 39.146801 44.646801 47.702599 50.7584 53.202599 59.320801 62.983799 68.483803 71.539597 77.657799 83.776001 86.831802 92.331802 98.449997 103.95 107.0058 113.124 119.2422 122.298 124.7422 130.2422 135.7422 141.8604 145.52341 147.96761 154.0858 159.5858 162.6416 168.1416 174.2598 180.37801 183.43381 186.48959 192.6078 198.726 204.226 207.2818 213.39999 218.89999 221.34419 227.4624 229.9066 233.5696 239.0696 242.1254 245.1812 253.737 259.85519 262.91101 268.41101 274.52921 276.97339 280.02921 283.08499 289.20319 295.32141 301.43961 303.88379 310.00201 319.16501 325.2832 331.4014 334.45721 337.513 343.6312 349.74939 352.1936 354.63779 357.082 360.13779 365.63779 368.6936 374.8118 377.86761 383.98581 390.104 396.2222 399.27802 405.39621 411.5144 414.57019 420.68839 426.80661 432.9248 438.4248 441.48059 447.59879 453.71701 456.7728 462.2728 468.39099 474.50919 480.00919 486.12741 488.57159 494.68979 497.74561 500.80139 506.91959 513.03778 516.70081 525.86377 528.30798" y="0">Les deux tiers de ces pâtisseries sont des éclairs. On sait également qu’il y a 100 gâteaux au chocolat parmi </tspan></text></g><g transform="translate(63,594)"><text transform="scale(1,-1)" class="s7"><tspan x="0 2.4442 8.5623999 14.0624 20.180599 26.2988 32.417 34.861198 40.361198 43.417 49.535198 55.6534 58.709202 64.8274 70.945602 77.063797 80.726799 83.7826 86.838402 92.338402 98.456596 104.5748 107.6306 110.6864 116.8046 122.9228 128.42281 131.47861 135.1416 141.2598 143.70399 146.14819 152.2664 154.7106 160.8288 166.94701 172.44701 178.5652 184.0652" y="0">lesquels un quart sont des religieuses.</tspan></text></g><g transform="translate(63,594)"/><g transform="translate(63,581)"/><g transform="translate(63,568)"><text transform="scale(1,-1)" class="s6"><tspan x="0 6.1181998" y="0">1.</tspan></text></g><g transform="translate(81,568)"><text transform="scale(1,-1)" class="s6"><tspan x="0" y="0">Á</tspan></text></g><g transform="translate(81,568)"><text transform="matrix(1,0,0,-1,10.999648,0)" class="s6"><tspan x="0 6.7188001 12.837 17.1182 20.7812 23.837 28.1182 31.174 37.892799 44.011002 50.1292 53.185001 56.240799 62.959599 69.678398 72.7342 78.852402 84.970596 88.633598 91.6894 98.408203 105.127 111.2452 114.301 121.0198 127.138 130.1938 133.2496 136.3054 142.4236 149.1424 155.86121 162.58 168.6982 174.81641 177.87219 180.92799 187.0462 193.765 203.5462 210.265 213.3208 219.439 223.10201 229.2202 233.5014 236.55721 239.61301 245.7312 248.787 252.45 258.56821 265.28699 268.3428 274.461 280.57919 287.298 290.35379 296.47198 303.1908 306.24661 312.36481 318.483 325.20181 328.86481 331.92059" y="0">partir des indications de l’énoncé, compléter le tableau suivant :</tspan></text></g><g transform="translate(63,555)"/></g></g></svg>