<?xml version="1.0" encoding="UTF-8" standalone="no"?>
<!DOCTYPE svg PUBLIC "-//W3C//DTD SVG 1.1//EN"
"http://www.w3.org/Graphics/SVG/1.1/DTD/svg11.dtd">


<!-- Page 1 -->
<svg x="0" y="0" width="660" height="786" viewBox="0 0 660 786" version="1.1" xmlns="http://www.w3.org/2000/svg" xmlns:xlink="http://www.w3.org/1999/xlink"
style="display: block;margin-left: auto;margin-right: auto;">
<defs>
<clipPath id="c0_1"><path d="M-64.5,1171.5l0,-1285l909,0l0,1285Z" /></clipPath>
<clipPath id="c1_1"><path d="M349.5,382.5l0,-23l47,0l0,23Z" /></clipPath>
<clipPath id="c2_1"><path d="M417.5,395.5l0,-44l106,0l0,44Z" /></clipPath>
<clipPath id="c3_1"><path d="M151.5,418.5l0,-23l48,0l0,23Z" /></clipPath>
<clipPath id="c4_1"><path d="M102.5,462.5l0,-22l190,0l0,22Z" /></clipPath>
<clipPath id="c5_1"><path d="M427.5,462.5l0,-22l161,0l0,22Z" /></clipPath>
<clipPath id="c6_1"><path d="M147.5,528.5l0,-44l75,0l0,44Z" /></clipPath>
<clipPath id="c7_1"><path d="M262.5,515.5l0,-23l46,0l0,23Z" /></clipPath>
<clipPath id="c8_1"><path d="M329.5,528.5l0,-44l157,0l0,44Z" /></clipPath>
<clipPath id="c9_1"><path d="M71.5,551.5l0,-23l152,0l0,23Z" /></clipPath>
<clipPath id="c10_1"><path d="M21.5,617.5l0,-23l240,0l0,23Z" /></clipPath>
<clipPath id="c11_1"><path d="M305.5,618.5l0,-23l126,0l0,23Z" /></clipPath>
<clipPath id="c12_1"><path d="M21.5,684.5l0,-24l281,0l0,24Z" /></clipPath>
<clipPath id="c13_1"><path d="M49.5,760.5l0,-23l46,0l0,23Z" /></clipPath>
<clipPath id="c14_1"><path d="M195.5,773.5l0,-47l187,0l0,47Z" /></clipPath>

<style type="text/css"><![CDATA[

.g1_1{
fill: none;
stroke: #000000;
stroke-width: 1;
stroke-linecap: butt;
stroke-linejoin: miter;
}

.s8_1{
font-size: 22.43px;
font-family: OpenSymbol_c;
fill: TRANSPARENT;
}
.s5_1{
font-size: 10.96px;
font-family: OpenSymbol_c;
fill: TRANSPARENT;
}
.s7_1{
font-size: 10.96px;
font-family: TimesNewRomanPSMT_a;
fill: TRANSPARENT;
}
.s6_1{
font-size: 18.38px;
font-family: TimesNewRomanPS-ItalicMT_d;
fill: TRANSPARENT;
}
.s2_1{
font-size: 18.32px;
font-family: OpenSymbol_c;
fill: TRANSPARENT;
}
.s4_1{
font-size: 18.32px;
font-family: OpenSymbol_b;
fill: TRANSPARENT;
}
.s3_1{
font-size: 18.32px;
font-family: TimesNewRomanPSMT_a;
fill: TRANSPARENT;
}
.s1_1{
font-size: 18.33px;
font-family: TimesNewRomanPSMT_a;
fill: TRANSPARENT;
}

]]></style>

</defs>
<path d="M0,0
L0,786
L660,786
L660,0 Z " 
fill="#FFFFFF" stroke="none" />
<g clip-path="url(#c0_1)">
<g fill="#000000" >
<use xlink:href="#f0_9" transform="matrix(12,0,0,12,21.5,30.6)" />
<use xlink:href="#f0_7" transform="matrix(12,0,0,12,30.7,30.6)" />
<use xlink:href="#f0_a" transform="matrix(12,0,0,12,21.5,378.4)" />
</g>
</g>
<text 
x="21" 
y="30" 
dx="0,0" 
class="s1_1"
>1.</text>

<g clip-path="url(#c0_1)">
<g fill="#000000" >
<use xlink:href="#f0_7" transform="matrix(12,0,0,12,30.7,378.4)" />
<use xlink:href="#f0_n" transform="matrix(12,0,0,12,39.9,378.4)" />
<use xlink:href="#f0_t" transform="matrix(12,0,0,12,53.1,378.4)" />
<use xlink:href="#f0_13" transform="matrix(12,0,0,12,61.2,378.4)" />
<use xlink:href="#f0_18" transform="matrix(12,0,0,12,70.4,378.4)" />
<use xlink:href="#f0_11" transform="matrix(12,0,0,12,82.1,378.4)" />
<use xlink:href="#f0_w" transform="matrix(12,0,0,12,87.2,378.4)" />
<use xlink:href="#f0_19" transform="matrix(12,0,0,12,99.9,378.4)" />
<use xlink:href="#f0_17" transform="matrix(12,0,0,12,105,378.4)" />
<use xlink:href="#f0_10" transform="matrix(12,0,0,12,111.1,378.4)" />
<use xlink:href="#f0_t" transform="matrix(12,0,0,12,116.2,378.4)" />
<use xlink:href="#f0_13" transform="matrix(12,0,0,12,124.4,378.4)" />
<use xlink:href="#f0_y" transform="matrix(12,0,0,12,133.5,378.4)" />
<use xlink:href="#f0_11" transform="matrix(12,0,0,12,142.7,378.4)" />
<use xlink:href="#f0_w" transform="matrix(12,0,0,12,147.8,378.4)" />
<use xlink:href="#f0_n" transform="matrix(12,0,0,12,160.5,378.4)" />
<use xlink:href="#f0_k" transform="matrix(12,0,0,12,173.8,378.4)" />
<use xlink:href="#f0_o" transform="matrix(12,0,0,12,187,378.4)" />
<use xlink:href="#f0_17" transform="matrix(12,0,0,12,202.8,378.4)" />
<use xlink:href="#f0_w" transform="matrix(12,0,0,12,208.9,378.4)" />
<use xlink:href="#f0_u" transform="matrix(12,0,0,12,217,378.4)" />
<use xlink:href="#f0_19" transform="matrix(12,0,0,12,225.2,378.4)" />
<use xlink:href="#f0_t" transform="matrix(12,0,0,12,230.2,378.4)" />
<use xlink:href="#f0_13" transform="matrix(12,0,0,12,238.4,378.4)" />
<use xlink:href="#f0_y" transform="matrix(12,0,0,12,247.6,378.4)" />
<use xlink:href="#f0_11" transform="matrix(12,0,0,12,256.7,378.4)" />
<use xlink:href="#f0_w" transform="matrix(12,0,0,12,261.8,378.4)" />
<use xlink:href="#f0_w" transform="matrix(12,0,0,12,274.5,378.4)" />
<use xlink:href="#f0_13" transform="matrix(12,0,0,12,282.7,378.4)" />
<use xlink:href="#f0_n" transform="matrix(12,0,0,12,296.4,378.4)" />
<use xlink:href="#f0_5" transform="matrix(12,0,0,12,309.7,378.4)" />
<use xlink:href="#f0_u" transform="matrix(12,0,0,12,318.8,378.4)" />
<use xlink:href="#f0_14" transform="matrix(12,0,0,12,327,378.4)" />
<use xlink:href="#f0_18" transform="matrix(12,0,0,12,336.1,378.4)" />
<use xlink:href="#f0_3" transform="matrix(12,0,0,12,343.3,378.4)" />
</g>
</g>
<g clip-path="url(#c1_1)">
<g fill="#000000" >
<use xlink:href="#f1_5" transform="matrix(71,0,0,12,354.7,373.9)" />
</g>
</g>
<text 
x="21" 
y="378" 
dx="0,0,0,0,0,0,0,0,0,0,0,0,0,0,0,0,0,0,0,0,0,0,0,0,0,0,0,0,0,0,0,0,0,0,0,0,0,0,0,0,0,0,0,0" 
class="s1_1"
>2. Dans le triangle DAE rectangle en D, cos(</text>

<g clip-path="url(#c1_1)">
<g fill="#000000" >
<use xlink:href="#f0_n" transform="matrix(12,0,0,12,354,378.6)" />
</g>
</g>
<text 
transform="matrix(5.93, 0, 0, 1, 354, 373)"
dx="0" 
class="s2_1"
>̂</text>

<g clip-path="url(#c1_1)">
<g fill="#000000" >
<use xlink:href="#f0_k" transform="matrix(12,0,0,12,367.2,378.6)" />
<use xlink:href="#f0_o" transform="matrix(12,0,0,12,380.4,378.6)" />
</g>
</g>
<g clip-path="url(#c0_1)">
<g fill="#000000" >
<use xlink:href="#f0_4" transform="matrix(12,0,0,12,396.9,378.4)" />
</g>
</g>
<text 
x="353" 
y="378" 
dx="0,0,0" 
class="s3_1"
>DAE</text>

<g clip-path="url(#c0_1)">
<g fill="#000000" >
<use xlink:href="#f0_j" transform="matrix(12,0,0,12,403,378.4)" />
</g>
</g>
<g clip-path="url(#c2_1)">
<g fill="#000000" >
<use xlink:href="#f0_k" transform="matrix(12,0,0,12,424.7,367.9)" />
</g>
</g>
<text 
x="396" 
y="378" 
dx="0,0,0" 
class="s1_1"
>)= </text>

<g clip-path="url(#c2_1)">
<g fill="#000000" >
<use xlink:href="#f0_n" transform="matrix(12,0,0,12,437.9,367.9)" />
</g>
</g>
<text 
x="424" 
y="367" 
dx="0,0" 
class="s3_1"
>AD</text>

<path d="M423.5,373.5l29,0" class="g1_1" />
<g clip-path="url(#c2_1)">
<g fill="#000000" >
<use xlink:href="#f0_k" transform="matrix(12,0,0,12,425.5,390.5)" />
<use xlink:href="#f0_o" transform="matrix(12,0,0,12,438.7,390.5)" />
<use xlink:href="#f2_5" transform="matrix(12,0,0,12,453.6,378)" />
</g>
</g>
<text 
x="425" 
y="390" 
dx="0,0" 
class="s3_1"
>AE</text>

<g clip-path="url(#c2_1)">
<g fill="#000000" >
<use xlink:href="#f0_d" transform="matrix(12,0,0,12,474.7,367.9)" />
</g>
</g>
<text 
x="453" 
y="377" 
dx="0" 
class="s4_1"
>=</text>

<text 
x="474" 
y="367" 
dx="0" 
class="s3_1"
>5</text>

<path d="M469.5,373.5l20,0" class="g1_1" />
<g clip-path="url(#c2_1)">
<g fill="#000000" >
<use xlink:href="#f0_9" transform="matrix(12,0,0,12,469.9,390.5)" />
<use xlink:href="#f0_8" transform="matrix(12,0,0,12,479.1,390.5)" />
<use xlink:href="#f2_5" transform="matrix(12,0,0,12,491,378)" />
</g>
</g>
<text 
x="469" 
y="390" 
dx="0,0" 
class="s3_1"
>10</text>

<g clip-path="url(#c2_1)">
<g fill="#000000" >
<use xlink:href="#f0_9" transform="matrix(12,0,0,12,508.1,367.9)" />
</g>
</g>
<text 
x="491" 
y="377" 
dx="0" 
class="s4_1"
>=</text>

<text 
x="508" 
y="367" 
dx="0" 
class="s3_1"
>1</text>

<path d="M506.5,373.5l12,0" class="g1_1" />
<g clip-path="url(#c2_1)">
<g fill="#000000" >
<use xlink:href="#f0_a" transform="matrix(12,0,0,12,508.1,390.5)" />
</g>
</g>
<g clip-path="url(#c0_1)">
<g fill="#000000" >
<use xlink:href="#f0_7" transform="matrix(12,0,0,12,524,378.4)" />
</g>
</g>
<text 
x="508" 
y="390" 
dx="0" 
class="s3_1"
>2</text>

<g clip-path="url(#c0_1)">
<g fill="#000000" >
<use xlink:href="#f0_q" transform="matrix(12,0,0,12,21.5,414.3)" />
</g>
</g>
<text 
x="524" 
y="378" 
dx="0" 
class="s1_1"
>.</text>

<g clip-path="url(#c0_1)">
<g fill="#000000" >
<use xlink:href="#f0_13" transform="matrix(12,0,0,12,34.8,414.3)" />
<use xlink:href="#f0_w" transform="matrix(12,0,0,12,48.5,414.3)" />
<use xlink:href="#f0_13" transform="matrix(12,0,0,12,56.7,414.3)" />
<use xlink:href="#f0_v" transform="matrix(12,0,0,12,70.4,414.3)" />
<use xlink:href="#f0_1d" transform="matrix(12,0,0,12,79.6,414.3)" />
<use xlink:href="#f0_v" transform="matrix(12,0,0,12,87.7,414.3)" />
<use xlink:href="#f0_1a" transform="matrix(12,0,0,12,96.9,414.3)" />
<use xlink:href="#f0_10" transform="matrix(12,0,0,12,106,414.3)" />
<use xlink:href="#f0_19" transform="matrix(12,0,0,12,111.1,414.3)" />
<use xlink:href="#f0_16" transform="matrix(12,0,0,12,120.8,414.3)" />
<use xlink:href="#f0_1a" transform="matrix(12,0,0,12,130,414.3)" />
<use xlink:href="#f0_w" transform="matrix(12,0,0,12,139.2,414.3)" />
</g>
</g>
<g clip-path="url(#c3_1)">
<g fill="#000000" >
<use xlink:href="#f1_5" transform="matrix(71,0,0,12,157.2,409.8)" />
</g>
</g>
<text 
x="21" 
y="414" 
dx="0,0,0,0,0,0,0,0,0,0,0,0,0,0,0,0,0" 
class="s1_1"
>On en déduit que </text>

<g clip-path="url(#c3_1)">
<g fill="#000000" >
<use xlink:href="#f0_n" transform="matrix(12,0,0,12,156.4,414.5)" />
</g>
</g>
<text 
transform="matrix(5.93, 0, 0, 1, 157, 409)"
dx="0" 
class="s2_1"
>̂</text>

<g clip-path="url(#c3_1)">
<g fill="#000000" >
<use xlink:href="#f0_k" transform="matrix(12,0,0,12,169.7,414.5)" />
<use xlink:href="#f0_o" transform="matrix(12,0,0,12,182.9,414.5)" />
</g>
</g>
<g clip-path="url(#c0_1)">
<g fill="#000000" >
<use xlink:href="#f0_j" transform="matrix(12,0,0,12,199.4,414.3)" />
</g>
</g>
<text 
x="156" 
y="414" 
dx="0,0,0" 
class="s3_1"
>DAE</text>

<g clip-path="url(#c0_1)">
<g fill="#000000" >
<use xlink:href="#f0_e" transform="matrix(12,0,0,12,209.7,414.3)" />
<use xlink:href="#f0_8" transform="matrix(12,0,0,12,218.9,414.3)" />
<use xlink:href="#f0_1f" transform="matrix(12,0,0,12,228,414.3)" />
<use xlink:href="#f0_b" transform="matrix(12,0,0,12,21.5,458.8)" />
</g>
</g>
<text 
x="199" 
y="414" 
dx="0,0,0,0" 
class="s1_1"
>=60°</text>

<g clip-path="url(#c0_1)">
<g fill="#000000" >
<use xlink:href="#f0_7" transform="matrix(12,0,0,12,30.7,458.8)" />
<use xlink:href="#f0_m" transform="matrix(12,0,0,12,39.9,458.8)" />
<use xlink:href="#f0_14" transform="matrix(12,0,0,12,52.1,458.8)" />
<use xlink:href="#f0_12" transform="matrix(12,0,0,12,61.3,458.8)" />
<use xlink:href="#f0_12" transform="matrix(12,0,0,12,75.5,458.8)" />
<use xlink:href="#f0_w" transform="matrix(12,0,0,12,89.8,458.8)" />
</g>
</g>
<g clip-path="url(#c4_1)">
<g fill="#000000" >
<use xlink:href="#f1_5" transform="matrix(72.1,0,0,12,107.9,454.2)" />
</g>
</g>
<text 
x="21" 
y="458" 
dx="0,0,0,0,0,0,0,0,0" 
class="s1_1"
>3. Comme </text>

<g clip-path="url(#c4_1)">
<g fill="#000000" >
<use xlink:href="#f0_n" transform="matrix(12,0,0,12,107.1,458.8)" />
</g>
</g>
<text 
transform="matrix(6.02, 0, 0, 1, 107, 454)"
dx="0" 
class="s2_1"
>̂</text>

<g clip-path="url(#c4_1)">
<g fill="#000000" >
<use xlink:href="#f0_k" transform="matrix(12,0,0,12,120.3,458.8)" />
<use xlink:href="#f0_l" transform="matrix(12,0,0,12,133.6,458.8)" />
<use xlink:href="#f2_5" transform="matrix(12,0,0,12,146,458.8)" />
</g>
</g>
<text 
x="107" 
y="458" 
dx="0,0,0" 
class="s3_1"
>DAB</text>

<g clip-path="url(#c4_1)">
<g fill="#000000" >
<use xlink:href="#f0_h" transform="matrix(12,0,0,12,161.6,458.8)" />
</g>
</g>
<text 
x="146" 
y="458" 
dx="0" 
class="s4_1"
>=</text>

<g clip-path="url(#c4_1)">
<g fill="#000000" >
<use xlink:href="#f0_8" transform="matrix(12,0,0,12,170.8,458.8)" />
<use xlink:href="#f1_4" transform="matrix(7.2,0,0,7.2,179.5,449.5)" />
</g>
</g>
<text 
x="161" 
y="458" 
dx="0,0" 
class="s3_1"
>90</text>

<g clip-path="url(#c4_1)">
<g fill="#000000" >
<use xlink:href="#f2_5" transform="matrix(12,0,0,12,184.2,458.8)" />
</g>
</g>
<text 
x="179" 
y="449" 
dx="0" 
class="s5_1"
>∘</text>

<g clip-path="url(#c4_1)">
<g fill="#000000" >
<use xlink:href="#f1_5" transform="matrix(71,0,0,12,200.6,454.2)" />
</g>
</g>
<text 
x="184" 
y="458" 
dx="0" 
class="s4_1"
>=</text>

<g clip-path="url(#c4_1)">
<g fill="#000000" >
<use xlink:href="#f0_n" transform="matrix(12,0,0,12,199.8,458.8)" />
</g>
</g>
<text 
transform="matrix(5.93, 0, 0, 1, 200, 454)"
dx="0" 
class="s2_1"
>̂</text>

<g clip-path="url(#c4_1)">
<g fill="#000000" >
<use xlink:href="#f0_k" transform="matrix(12,0,0,12,213.1,458.8)" />
<use xlink:href="#f0_o" transform="matrix(12,0,0,12,226.3,458.8)" />
<use xlink:href="#f2_4" transform="matrix(12,0,0,12,239.7,458.8)" />
</g>
</g>
<text 
x="199" 
y="458" 
dx="0,0,0" 
class="s3_1"
>DAE</text>

<g clip-path="url(#c4_1)">
<g fill="#000000" >
<use xlink:href="#f1_5" transform="matrix(67.6,0,0,12,252.2,454.2)" />
</g>
</g>
<text 
x="239" 
y="458" 
dx="0" 
class="s4_1"
>+</text>

<g clip-path="url(#c4_1)">
<g fill="#000000" >
<use xlink:href="#f0_o" transform="matrix(12,0,0,12,251.3,458.8)" />
</g>
</g>
<text 
transform="matrix(5.64, 0, 0, 1, 252, 454)"
dx="0" 
class="s2_1"
>̂</text>

<g clip-path="url(#c4_1)">
<g fill="#000000" >
<use xlink:href="#f0_k" transform="matrix(12,0,0,12,262.5,458.8)" />
<use xlink:href="#f0_l" transform="matrix(12,0,0,12,275.7,458.8)" />
</g>
</g>
<g clip-path="url(#c0_1)">
<g fill="#000000" >
<use xlink:href="#f0_5" transform="matrix(12,0,0,12,292.6,458.8)" />
</g>
</g>
<text 
x="251" 
y="458" 
dx="0,0,0" 
class="s3_1"
>EAB</text>

<g clip-path="url(#c0_1)">
<g fill="#000000" >
<use xlink:href="#f0_14" transform="matrix(12,0,0,12,301.7,458.8)" />
<use xlink:href="#f0_13" transform="matrix(12,0,0,12,310.9,458.8)" />
<use xlink:href="#f0_w" transform="matrix(12,0,0,12,324.6,458.8)" />
<use xlink:href="#f0_13" transform="matrix(12,0,0,12,332.8,458.8)" />
<use xlink:href="#f0_v" transform="matrix(12,0,0,12,346.5,458.8)" />
<use xlink:href="#f0_1d" transform="matrix(12,0,0,12,355.7,458.8)" />
<use xlink:href="#f0_v" transform="matrix(12,0,0,12,363.8,458.8)" />
<use xlink:href="#f0_1a" transform="matrix(12,0,0,12,373,458.8)" />
<use xlink:href="#f0_10" transform="matrix(12,0,0,12,382.2,458.8)" />
<use xlink:href="#f0_19" transform="matrix(12,0,0,12,387.3,458.8)" />
<use xlink:href="#f0_16" transform="matrix(12,0,0,12,396.9,458.8)" />
<use xlink:href="#f0_1a" transform="matrix(12,0,0,12,406.1,458.8)" />
<use xlink:href="#f0_w" transform="matrix(12,0,0,12,415.3,458.8)" />
</g>
</g>
<g clip-path="url(#c5_1)">
<g fill="#000000" >
<use xlink:href="#f1_5" transform="matrix(67.6,0,0,12,433.4,454.2)" />
</g>
</g>
<text 
x="292" 
y="458" 
dx="0,0,0,0,0,0,0,0,0,0,0,0,0,0,0,0,0,0,0" 
class="s1_1"
>, on en déduit que </text>

<g clip-path="url(#c5_1)">
<g fill="#000000" >
<use xlink:href="#f0_o" transform="matrix(12,0,0,12,432.7,458.8)" />
</g>
</g>
<text 
transform="matrix(5.64, 0, 0, 1, 433, 454)"
dx="0" 
class="s2_1"
>̂</text>

<g clip-path="url(#c5_1)">
<g fill="#000000" >
<use xlink:href="#f0_k" transform="matrix(12,0,0,12,443.9,458.8)" />
<use xlink:href="#f0_l" transform="matrix(12,0,0,12,457.1,458.8)" />
<use xlink:href="#f2_5" transform="matrix(12,0,0,12,470.1,458.8)" />
</g>
</g>
<text 
x="432" 
y="458" 
dx="0,0,0" 
class="s3_1"
>EAB</text>

<g clip-path="url(#c5_1)">
<g fill="#000000" >
<use xlink:href="#f0_h" transform="matrix(12,0,0,12,484.9,458.8)" />
</g>
</g>
<text 
x="470" 
y="458" 
dx="0" 
class="s4_1"
>=</text>

<g clip-path="url(#c5_1)">
<g fill="#000000" >
<use xlink:href="#f0_8" transform="matrix(12,0,0,12,494.1,458.8)" />
<use xlink:href="#f1_4" transform="matrix(7.2,0,0,7.2,503.5,449.5)" />
</g>
</g>
<text 
x="484" 
y="458" 
dx="0,0" 
class="s3_1"
>90</text>

<g clip-path="url(#c5_1)">
<g fill="#000000" >
<use xlink:href="#f1_2" transform="matrix(12,0,0,12,508.3,458.8)" />
</g>
</g>
<text 
x="503" 
y="449" 
dx="0" 
class="s5_1"
>∘</text>

<g clip-path="url(#c5_1)">
<g fill="#000000" >
<use xlink:href="#f0_e" transform="matrix(12,0,0,12,523.1,458.8)" />
</g>
</g>
<text 
x="508" 
y="458" 
dx="0" 
class="s2_1"
>−</text>

<g clip-path="url(#c5_1)">
<g fill="#000000" >
<use xlink:href="#f0_8" transform="matrix(12,0,0,12,532.3,458.8)" />
<use xlink:href="#f1_4" transform="matrix(7.2,0,0,7.2,541.9,449.5)" />
</g>
</g>
<text 
x="523" 
y="458" 
dx="0,0" 
class="s3_1"
>60</text>

<g clip-path="url(#c5_1)">
<g fill="#000000" >
<use xlink:href="#f2_5" transform="matrix(12,0,0,12,546.5,458.8)" />
</g>
</g>
<text 
x="541" 
y="449" 
dx="0" 
class="s5_1"
>∘</text>

<g clip-path="url(#c5_1)">
<g fill="#000000" >
<use xlink:href="#f0_b" transform="matrix(12,0,0,12,561.3,458.8)" />
</g>
</g>
<text 
x="546" 
y="458" 
dx="0" 
class="s4_1"
>=</text>

<g clip-path="url(#c5_1)">
<g fill="#000000" >
<use xlink:href="#f0_8" transform="matrix(12,0,0,12,570.5,458.8)" />
<use xlink:href="#f1_4" transform="matrix(7.2,0,0,7.2,580.1,449.5)" />
</g>
</g>
<text 
x="561" 
y="458" 
dx="0,0" 
class="s3_1"
>30</text>

<g clip-path="url(#c0_1)">
<g fill="#000000" >
<use xlink:href="#f0_n" transform="matrix(12,0,0,12,21.5,479.9)" />
</g>
</g>
<text 
x="580" 
y="449" 
dx="0" 
class="s5_1"
>∘</text>

<g clip-path="url(#c0_1)">
<g fill="#000000" >
<use xlink:href="#f0_w" transform="matrix(12,0,0,12,34.8,479.9)" />
<use xlink:href="#f0_15" transform="matrix(12,0,0,12,47.5,479.9)" />
<use xlink:href="#f0_11" transform="matrix(12,0,0,12,56.7,479.9)" />
<use xlink:href="#f0_1a" transform="matrix(12,0,0,12,61.8,479.9)" />
<use xlink:href="#f0_18" transform="matrix(12,0,0,12,70.9,479.9)" />
<use xlink:href="#f0_5" transform="matrix(12,0,0,12,78.1,479.9)" />
<use xlink:href="#f0_u" transform="matrix(12,0,0,12,87.2,479.9)" />
<use xlink:href="#f0_14" transform="matrix(12,0,0,12,95.4,479.9)" />
<use xlink:href="#f0_12" transform="matrix(12,0,0,12,104.5,479.9)" />
<use xlink:href="#f0_12" transform="matrix(12,0,0,12,118.8,479.9)" />
<use xlink:href="#f0_w" transform="matrix(12,0,0,12,133,479.9)" />
<use xlink:href="#f0_k" transform="matrix(12,0,0,12,144.8,479.9)" />
<use xlink:href="#f0_o" transform="matrix(12,0,0,12,158,479.9)" />
<use xlink:href="#f0_j" transform="matrix(12,0,0,12,169.2,479.9)" />
<use xlink:href="#f0_k" transform="matrix(12,0,0,12,179.5,479.9)" />
<use xlink:href="#f0_l" transform="matrix(12,0,0,12,192.8,479.9)" />
<use xlink:href="#f0_j" transform="matrix(12,0,0,12,205,479.9)" />
<use xlink:href="#f0_9" transform="matrix(12,0,0,12,215.3,479.9)" />
<use xlink:href="#f0_8" transform="matrix(12,0,0,12,224.5,479.9)" />
<use xlink:href="#f0_u" transform="matrix(12,0,0,12,238.3,479.9)" />
<use xlink:href="#f0_12" transform="matrix(12,0,0,12,246.4,479.9)" />
<use xlink:href="#f0_5" transform="matrix(12,0,0,12,260.7,479.9)" />
<use xlink:href="#f0_11" transform="matrix(12,0,0,12,269.8,479.9)" />
<use xlink:href="#f0_w" transform="matrix(12,0,0,12,274.9,479.9)" />
<use xlink:href="#f0_19" transform="matrix(12,0,0,12,287.6,479.9)" />
<use xlink:href="#f0_17" transform="matrix(12,0,0,12,292.7,479.9)" />
<use xlink:href="#f0_10" transform="matrix(12,0,0,12,298.8,479.9)" />
<use xlink:href="#f0_t" transform="matrix(12,0,0,12,303.9,479.9)" />
<use xlink:href="#f0_13" transform="matrix(12,0,0,12,312.1,479.9)" />
<use xlink:href="#f0_y" transform="matrix(12,0,0,12,321.2,479.9)" />
<use xlink:href="#f0_11" transform="matrix(12,0,0,12,330.4,479.9)" />
<use xlink:href="#f0_w" transform="matrix(12,0,0,12,335.5,479.9)" />
<use xlink:href="#f0_o" transform="matrix(12,0,0,12,348.2,479.9)" />
<use xlink:href="#f0_k" transform="matrix(12,0,0,12,359.4,479.9)" />
<use xlink:href="#f0_l" transform="matrix(12,0,0,12,372.6,479.9)" />
<use xlink:href="#f0_w" transform="matrix(12,0,0,12,389.5,479.9)" />
<use xlink:href="#f0_18" transform="matrix(12,0,0,12,397.6,479.9)" />
<use xlink:href="#f0_19" transform="matrix(12,0,0,12,404.7,479.9)" />
<use xlink:href="#f0_10" transform="matrix(12,0,0,12,414.4,479.9)" />
<use xlink:href="#f0_18" transform="matrix(12,0,0,12,419.5,479.9)" />
<use xlink:href="#f0_14" transform="matrix(12,0,0,12,426.6,479.9)" />
<use xlink:href="#f0_u" transform="matrix(12,0,0,12,435.8,479.9)" />
<use xlink:href="#f0_1e" transform="matrix(12,0,0,12,443.9,479.9)" />
<use xlink:href="#f0_11" transform="matrix(12,0,0,12,452.1,479.9)" />
<use xlink:href="#f0_w" transform="matrix(12,0,0,12,457.2,479.9)" />
<use xlink:href="#f0_w" transform="matrix(12,0,0,12,469.9,479.9)" />
<use xlink:href="#f0_13" transform="matrix(12,0,0,12,478,479.9)" />
<use xlink:href="#f0_k" transform="matrix(12,0,0,12,490.8,479.9)" />
<use xlink:href="#f0_i" transform="matrix(12,0,0,12,508.6,479.9)" />
<use xlink:href="#f0_10" transform="matrix(12,0,0,12,21.5,511.5)" />
</g>
</g>
<text 
x="21" 
y="479" 
dx="0,0,0,0,0,0,0,0,0,0,0,0,0,0,0,-1,0,0,0,0,0,0,0,0,0,0,0,0,0,0,0,0,0,0,0,0,0,0,0,0,0,0,0,0,0,0,0,0,0,0,0,0,0,0,0,0,0,0,0,-1,0,0,0" 
class="s1_1"
>De plus, comme AE=AB=10 cm, le triangle EAB est isocèle en A : </text>

<g clip-path="url(#c0_1)">
<g fill="#000000" >
<use xlink:href="#f0_11" transform="matrix(12,0,0,12,26.6,511.5)" />
<use xlink:href="#f0_w" transform="matrix(12,0,0,12,36.3,511.5)" />
<use xlink:href="#f0_13" transform="matrix(12,0,0,12,44.4,511.5)" />
<use xlink:href="#f0_17" transform="matrix(12,0,0,12,58.2,511.5)" />
<use xlink:href="#f0_1d" transform="matrix(12,0,0,12,64.3,511.5)" />
<use xlink:href="#f0_18" transform="matrix(12,0,0,12,72.4,511.5)" />
<use xlink:href="#f0_1a" transform="matrix(12,0,0,12,79.6,511.5)" />
<use xlink:href="#f0_11" transform="matrix(12,0,0,12,88.7,511.5)" />
<use xlink:href="#f0_19" transform="matrix(12,0,0,12,93.8,511.5)" />
<use xlink:href="#f0_w" transform="matrix(12,0,0,12,98.9,511.5)" />
<use xlink:href="#f0_16" transform="matrix(12,0,0,12,111.6,511.5)" />
<use xlink:href="#f0_1a" transform="matrix(12,0,0,12,120.8,511.5)" />
<use xlink:href="#f0_w" transform="matrix(12,0,0,12,130,511.5)" />
</g>
</g>
<text 
x="21" 
y="511" 
dx="0,0,0,0,0,0,0,0,0,0,0,0,0,0,0,0,0,0" 
class="s1_1"
>il en résulte que </text>

<g clip-path="url(#c6_1)">
<g fill="#000000" >
<use xlink:href="#f1_5" transform="matrix(69.2,0,0,12,152.6,507.2)" />
<use xlink:href="#f0_k" transform="matrix(12,0,0,12,152.6,511.2)" />
</g>
</g>
<text 
transform="matrix(5.78, 0, 0, 1, 152, 507)"
dx="0" 
class="s2_1"
>̂</text>

<g clip-path="url(#c6_1)">
<g fill="#000000" >
<use xlink:href="#f0_l" transform="matrix(12,0,0,12,165.8,511.2)" />
<use xlink:href="#f0_o" transform="matrix(12,0,0,12,178.1,511.2)" />
<use xlink:href="#f2_5" transform="matrix(12,0,0,12,190,511.2)" />
</g>
</g>
<text 
x="152" 
y="511" 
dx="0,0,0" 
class="s3_1"
>ABE</text>

<g clip-path="url(#c6_1)">
<g fill="#000000" >
<use xlink:href="#f0_9" transform="matrix(12,0,0,12,207.2,501)" />
</g>
</g>
<text 
x="190" 
y="511" 
dx="0" 
class="s4_1"
>=</text>

<text 
x="207" 
y="500" 
dx="0" 
class="s3_1"
>1</text>

<path d="M205.5,506.5l12,0" class="g1_1" />
<g clip-path="url(#c6_1)">
<g fill="#000000" >
<use xlink:href="#f0_a" transform="matrix(12,0,0,12,207.2,523.6)" />
</g>
</g>
<g clip-path="url(#c0_1)">
<g fill="#000000" >
<use xlink:href="#f0_3" transform="matrix(12,0,0,12,222.7,511.5)" />
</g>
</g>
<text 
x="207" 
y="523" 
dx="0" 
class="s3_1"
>2</text>

<g clip-path="url(#c0_1)">
<g fill="#000000" >
<use xlink:href="#f0_9" transform="matrix(12,0,0,12,228.8,511.5)" />
<use xlink:href="#f0_g" transform="matrix(12,0,0,12,238,511.5)" />
<use xlink:href="#f0_8" transform="matrix(12,0,0,12,247.2,511.5)" />
<use xlink:href="#f0_6" transform="matrix(12,0,0,12,256.3,511.5)" />
</g>
</g>
<g clip-path="url(#c7_1)">
<g fill="#000000" >
<use xlink:href="#f1_5" transform="matrix(67.6,0,0,12,267.8,506.9)" />
</g>
</g>
<text 
x="222" 
y="511" 
dx="0,0,0,0,0" 
class="s1_1"
>(180-</text>

<g clip-path="url(#c7_1)">
<g fill="#000000" >
<use xlink:href="#f0_o" transform="matrix(12,0,0,12,267,511.5)" />
</g>
</g>
<text 
transform="matrix(5.64, 0, 0, 1, 267, 506)"
dx="0" 
class="s2_1"
>̂</text>

<g clip-path="url(#c7_1)">
<g fill="#000000" >
<use xlink:href="#f0_k" transform="matrix(12,0,0,12,278.2,511.5)" />
<use xlink:href="#f0_l" transform="matrix(12,0,0,12,291.5,511.5)" />
</g>
</g>
<g clip-path="url(#c0_1)">
<g fill="#000000" >
<use xlink:href="#f0_4" transform="matrix(12,0,0,12,308.3,511.5)" />
</g>
</g>
<text 
x="267" 
y="511" 
dx="0,0,0" 
class="s3_1"
>EAB</text>

<g clip-path="url(#c0_1)">
<g fill="#000000" >
<use xlink:href="#f0_j" transform="matrix(12,0,0,12,314.4,511.5)" />
</g>
</g>
<g clip-path="url(#c8_1)">
<g fill="#000000" >
<use xlink:href="#f0_9" transform="matrix(12,0,0,12,335.3,501)" />
</g>
</g>
<text 
x="308" 
y="511" 
dx="0,0,0" 
class="s1_1"
>)= </text>

<text 
x="335" 
y="500" 
dx="0" 
class="s3_1"
>1</text>

<path d="M334.5,506.5l12,0" class="g1_1" />
<g clip-path="url(#c8_1)">
<g fill="#000000" >
<use xlink:href="#f0_a" transform="matrix(12,0,0,12,336.1,523.7)" />
<use xlink:href="#f2_2" transform="matrix(12,0,0,12,347.7,511.2)" />
</g>
</g>
<text 
x="336" 
y="523" 
dx="0" 
class="s3_1"
>2</text>

<g clip-path="url(#c8_1)">
<g fill="#000000" >
<use xlink:href="#f0_9" transform="matrix(12,0,0,12,354.7,511.2)" />
</g>
</g>
<text 
x="347" 
y="511" 
dx="0" 
class="s4_1"
>(</text>

<g clip-path="url(#c8_1)">
<g fill="#000000" >
<use xlink:href="#f0_g" transform="matrix(12,0,0,12,363.9,511.2)" />
<use xlink:href="#f0_8" transform="matrix(12,0,0,12,373.1,511.2)" />
<use xlink:href="#f3_2" transform="matrix(12,0,0,12,384.5,511.2)" />
</g>
</g>
<text 
x="354" 
y="511" 
dx="0,0,0" 
class="s3_1"
>180</text>

<g clip-path="url(#c8_1)">
<g fill="#000000" >
<use xlink:href="#f1_2" transform="matrix(12,0,0,12,393.1,511.2)" />
</g>
</g>
<text 
x="384" 
y="511" 
dx="0" 
class="s6_1"
>°</text>

<g clip-path="url(#c8_1)">
<g fill="#000000" >
<use xlink:href="#f0_b" transform="matrix(12,0,0,12,408.7,511.2)" />
</g>
</g>
<text 
x="393" 
y="511" 
dx="0" 
class="s2_1"
>−</text>

<g clip-path="url(#c8_1)">
<g fill="#000000" >
<use xlink:href="#f0_8" transform="matrix(12,0,0,12,417.8,511.2)" />
<use xlink:href="#f3_2" transform="matrix(12,0,0,12,429,511.2)" />
</g>
</g>
<text 
x="408" 
y="511" 
dx="0,0" 
class="s3_1"
>30</text>

<g clip-path="url(#c8_1)">
<g fill="#000000" >
<use xlink:href="#f2_3" transform="matrix(12,0,0,12,438.3,511.2)" />
</g>
</g>
<text 
x="428" 
y="511" 
dx="0" 
class="s6_1"
>°</text>

<g clip-path="url(#c8_1)">
<g fill="#000000" >
<use xlink:href="#f2_5" transform="matrix(12,0,0,12,443.8,511.2)" />
<use xlink:href="#f0_f" transform="matrix(12,0,0,12,459.4,511.2)" />
</g>
</g>
<text 
x="438" 
y="511" 
dx="0,-0.7" 
class="s4_1"
>)=</text>

<g clip-path="url(#c8_1)">
<g fill="#000000" >
<use xlink:href="#f0_d" transform="matrix(12,0,0,12,468.6,511.2)" />
<use xlink:href="#f1_4" transform="matrix(7.2,0,0,7.2,477.3,502.6)" />
</g>
</g>
<text 
x="459" 
y="511" 
dx="0,0" 
class="s3_1"
>75</text>

<g clip-path="url(#c0_1)">
<g fill="#000000" >
<use xlink:href="#f0_o" transform="matrix(12,0,0,12,21.5,547.4)" />
</g>
</g>
<text 
x="477" 
y="502" 
dx="0" 
class="s5_1"
>∘</text>

<g clip-path="url(#c0_1)">
<g fill="#000000" >
<use xlink:href="#f0_13" transform="matrix(12,0,0,12,32.7,547.4)" />
<use xlink:href="#f0_x" transform="matrix(12,0,0,12,41.9,547.4)" />
<use xlink:href="#f0_10" transform="matrix(12,0,0,12,48,547.4)" />
<use xlink:href="#f0_13" transform="matrix(12,0,0,12,53.1,547.4)" />
<use xlink:href="#f0_5" transform="matrix(12,0,0,12,62.3,547.4)" />
</g>
</g>
<g clip-path="url(#c9_1)">
<g fill="#000000" >
<use xlink:href="#f1_5" transform="matrix(66.1,0,0,12,76.8,542.8)" />
</g>
</g>
<text 
x="21" 
y="547" 
dx="0,0,0,0,0,0,0" 
class="s1_1"
>Enfin, </text>

<g clip-path="url(#c9_1)">
<g fill="#000000" >
<use xlink:href="#f0_o" transform="matrix(12,0,0,12,76.1,547.4)" />
</g>
</g>
<text 
transform="matrix(5.52, 0, 0, 1, 76, 542)"
dx="0" 
class="s2_1"
>̂</text>

<g clip-path="url(#c9_1)">
<g fill="#000000" >
<use xlink:href="#f0_l" transform="matrix(12,0,0,12,87.3,547.4)" />
<use xlink:href="#f0_m" transform="matrix(12,0,0,12,99.5,547.4)" />
<use xlink:href="#f2_5" transform="matrix(12,0,0,12,112.7,547.4)" />
</g>
</g>
<text 
x="76" 
y="547" 
dx="0,0,0" 
class="s3_1"
>EBC</text>

<g clip-path="url(#c9_1)">
<g fill="#000000" >
<use xlink:href="#f1_5" transform="matrix(70.8,0,0,12,128.3,542.8)" />
</g>
</g>
<text 
x="112" 
y="547" 
dx="0" 
class="s4_1"
>=</text>

<g clip-path="url(#c9_1)">
<g fill="#000000" >
<use xlink:href="#f0_k" transform="matrix(12,0,0,12,128.3,547.4)" />
</g>
</g>
<text 
transform="matrix(5.91, 0, 0, 1, 128, 542)"
dx="0" 
class="s2_1"
>̂</text>

<g clip-path="url(#c9_1)">
<g fill="#000000" >
<use xlink:href="#f0_l" transform="matrix(12,0,0,12,141.6,547.4)" />
<use xlink:href="#f0_m" transform="matrix(12,0,0,12,153.8,547.4)" />
<use xlink:href="#f1_2" transform="matrix(12,0,0,12,166.5,547.4)" />
</g>
</g>
<text 
x="128" 
y="547" 
dx="0,0,0" 
class="s3_1"
>ABC</text>

<g clip-path="url(#c9_1)">
<g fill="#000000" >
<use xlink:href="#f1_5" transform="matrix(69.1,0,0,12,182,542.8)" />
</g>
</g>
<text 
x="166" 
y="547" 
dx="0" 
class="s2_1"
>−</text>

<g clip-path="url(#c9_1)">
<g fill="#000000" >
<use xlink:href="#f0_k" transform="matrix(12,0,0,12,182,547.4)" />
</g>
</g>
<text 
transform="matrix(5.77, 0, 0, 1, 181, 542)"
dx="0" 
class="s2_1"
>̂</text>

<g clip-path="url(#c9_1)">
<g fill="#000000" >
<use xlink:href="#f0_l" transform="matrix(12,0,0,12,195.2,547.4)" />
<use xlink:href="#f0_o" transform="matrix(12,0,0,12,207.4,547.4)" />
</g>
</g>
<g clip-path="url(#c0_1)">
<g fill="#000000" >
<use xlink:href="#f0_j" transform="matrix(12,0,0,12,223.8,547.4)" />
</g>
</g>
<text 
x="181" 
y="547" 
dx="0,0,0" 
class="s3_1"
>ABE</text>

<g clip-path="url(#c0_1)">
<g fill="#000000" >
<use xlink:href="#f0_h" transform="matrix(12,0,0,12,234.2,547.4)" />
<use xlink:href="#f0_8" transform="matrix(12,0,0,12,243.3,547.4)" />
<use xlink:href="#f0_1f" transform="matrix(12,0,0,12,252.5,547.4)" />
<use xlink:href="#f0_6" transform="matrix(12,0,0,12,259.8,547.4)" />
<use xlink:href="#f0_f" transform="matrix(12,0,0,12,265.9,547.4)" />
<use xlink:href="#f0_d" transform="matrix(12,0,0,12,275.1,547.4)" />
<use xlink:href="#f0_1f" transform="matrix(12,0,0,12,284.3,547.4)" />
<use xlink:href="#f0_j" transform="matrix(12,0,0,12,291.6,547.4)" />
<use xlink:href="#f0_9" transform="matrix(12,0,0,12,301.9,547.4)" />
<use xlink:href="#f0_d" transform="matrix(12,0,0,12,311.1,547.4)" />
<use xlink:href="#f0_1f" transform="matrix(12,0,0,12,320.3,547.4)" />
<use xlink:href="#f0_c" transform="matrix(12,0,0,12,21.5,589.6)" />
</g>
</g>
<text 
x="223" 
y="547" 
dx="0,0,0,0,0,0,0,0,0,0,0,0" 
class="s1_1"
>=90°-75°=15°</text>

<g clip-path="url(#c0_1)">
<g fill="#000000" >
<use xlink:href="#f0_7" transform="matrix(12,0,0,12,30.7,589.6)" />
<use xlink:href="#f0_n" transform="matrix(12,0,0,12,39.9,589.6)" />
<use xlink:href="#f0_t" transform="matrix(12,0,0,12,53.1,589.6)" />
<use xlink:href="#f0_13" transform="matrix(12,0,0,12,61.2,589.6)" />
<use xlink:href="#f0_18" transform="matrix(12,0,0,12,70.4,589.6)" />
<use xlink:href="#f0_11" transform="matrix(12,0,0,12,82.1,589.6)" />
<use xlink:href="#f0_w" transform="matrix(12,0,0,12,87.2,589.6)" />
<use xlink:href="#f0_19" transform="matrix(12,0,0,12,99.9,589.6)" />
<use xlink:href="#f0_17" transform="matrix(12,0,0,12,105,589.6)" />
<use xlink:href="#f0_10" transform="matrix(12,0,0,12,111.1,589.6)" />
<use xlink:href="#f0_t" transform="matrix(12,0,0,12,116.2,589.6)" />
<use xlink:href="#f0_13" transform="matrix(12,0,0,12,124.4,589.6)" />
<use xlink:href="#f0_y" transform="matrix(12,0,0,12,133.5,589.6)" />
<use xlink:href="#f0_11" transform="matrix(12,0,0,12,142.7,589.6)" />
<use xlink:href="#f0_w" transform="matrix(12,0,0,12,147.8,589.6)" />
<use xlink:href="#f0_k" transform="matrix(12,0,0,12,159.5,589.6)" />
<use xlink:href="#f0_n" transform="matrix(12,0,0,12,172.7,589.6)" />
<use xlink:href="#f0_o" transform="matrix(12,0,0,12,186,589.6)" />
<use xlink:href="#f0_17" transform="matrix(12,0,0,12,201.8,589.6)" />
<use xlink:href="#f0_w" transform="matrix(12,0,0,12,207.9,589.6)" />
<use xlink:href="#f0_u" transform="matrix(12,0,0,12,216,589.6)" />
<use xlink:href="#f0_19" transform="matrix(12,0,0,12,224.1,589.6)" />
<use xlink:href="#f0_t" transform="matrix(12,0,0,12,229.2,589.6)" />
<use xlink:href="#f0_13" transform="matrix(12,0,0,12,237.4,589.6)" />
<use xlink:href="#f0_y" transform="matrix(12,0,0,12,246.5,589.6)" />
<use xlink:href="#f0_11" transform="matrix(12,0,0,12,255.7,589.6)" />
<use xlink:href="#f0_w" transform="matrix(12,0,0,12,260.8,589.6)" />
<use xlink:href="#f0_w" transform="matrix(12,0,0,12,273.5,589.6)" />
<use xlink:href="#f0_13" transform="matrix(12,0,0,12,281.7,589.6)" />
<use xlink:href="#f0_n" transform="matrix(12,0,0,12,295.4,589.6)" />
<use xlink:href="#f0_5" transform="matrix(12,0,0,12,308.6,589.6)" />
<use xlink:href="#f0_14" transform="matrix(12,0,0,12,317.8,589.6)" />
<use xlink:href="#f0_13" transform="matrix(12,0,0,12,327,589.6)" />
<use xlink:href="#f0_t" transform="matrix(12,0,0,12,340.7,589.6)" />
<use xlink:href="#f0_15" transform="matrix(12,0,0,12,348.9,589.6)" />
<use xlink:href="#f0_15" transform="matrix(12,0,0,12,358,589.6)" />
<use xlink:href="#f0_11" transform="matrix(12,0,0,12,367.2,589.6)" />
<use xlink:href="#f0_10" transform="matrix(12,0,0,12,372.3,589.6)" />
<use xlink:href="#f0_16" transform="matrix(12,0,0,12,377.4,589.6)" />
<use xlink:href="#f0_1a" transform="matrix(12,0,0,12,386.6,589.6)" />
<use xlink:href="#f0_w" transform="matrix(12,0,0,12,395.7,589.6)" />
<use xlink:href="#f0_11" transform="matrix(12,0,0,12,408.4,589.6)" />
<use xlink:href="#f0_t" transform="matrix(12,0,0,12,413.5,589.6)" />
<use xlink:href="#f0_15" transform="matrix(12,0,0,12,426.3,589.6)" />
<use xlink:href="#f0_17" transform="matrix(12,0,0,12,435.4,589.6)" />
<use xlink:href="#f0_14" transform="matrix(12,0,0,12,441.5,589.6)" />
<use xlink:href="#f0_15" transform="matrix(12,0,0,12,450.7,589.6)" />
<use xlink:href="#f0_17" transform="matrix(12,0,0,12,459.9,589.6)" />
<use xlink:href="#f0_10" transform="matrix(12,0,0,12,466,589.6)" />
<use xlink:href="#f0_1d" transform="matrix(12,0,0,12,471.1,589.6)" />
<use xlink:href="#f0_19" transform="matrix(12,0,0,12,479.2,589.6)" />
<use xlink:href="#f0_1d" transform="matrix(12,0,0,12,484.3,589.6)" />
<use xlink:href="#f0_v" transform="matrix(12,0,0,12,497,589.6)" />
<use xlink:href="#f0_w" transform="matrix(12,0,0,12,506.2,589.6)" />
<use xlink:href="#f0_r" transform="matrix(12,0,0,12,518.9,589.6)" />
<use xlink:href="#f0_1b" transform="matrix(12,0,0,12,529.1,589.6)" />
<use xlink:href="#f0_19" transform="matrix(12,0,0,12,538.3,589.6)" />
<use xlink:href="#f0_z" transform="matrix(12,0,0,12,543.3,589.6)" />
<use xlink:href="#f0_t" transform="matrix(12,0,0,12,552.5,589.6)" />
<use xlink:href="#f0_y" transform="matrix(12,0,0,12,560.6,589.6)" />
<use xlink:href="#f0_14" transform="matrix(12,0,0,12,569.8,589.6)" />
<use xlink:href="#f0_17" transform="matrix(12,0,0,12,579,589.6)" />
<use xlink:href="#f0_w" transform="matrix(12,0,0,12,585.1,589.6)" />
<use xlink:href="#f0_i" transform="matrix(12,0,0,12,597.8,589.6)" />
</g>
</g>
<g clip-path="url(#c10_1)">
<g fill="#000000" >
<use xlink:href="#f0_n" transform="matrix(12,0,0,12,26.1,613.1)" />
</g>
</g>
<text 
x="21" 
y="589" 
dx="0,0,0,0,0,0,0,0,0,0,0,0,0,0,0,0,0,0,0,0,-1,0,0,0,0,0,0,0,0,0,0,0,0,0,0,0,0,0,0,0,0,0,0,0,0,0,0,0,0,0,0,0,0,0,0,0,0,0,0,0,0,0,0,0,0,0,0,0,0,0,0,0,0,0,0,0,0,0,0" 
class="s1_1"
>4. Dans le triangle ADE rectangle en D, on applique la propriété de Pythagore :</text>

<g clip-path="url(#c10_1)">
<g fill="#000000" >
<use xlink:href="#f0_o" transform="matrix(12,0,0,12,39.3,613.1)" />
<use xlink:href="#f0_a" transform="matrix(7.2,0,0,7.2,51.8,604.4)" />
</g>
</g>
<text 
x="26" 
y="613" 
dx="0,0" 
class="s3_1"
>DE</text>

<g clip-path="url(#c10_1)">
<g fill="#000000" >
<use xlink:href="#f2_5" transform="matrix(12,0,0,12,57.3,613.1)" />
</g>
</g>
<text 
x="51" 
y="604" 
dx="0" 
class="s7_1"
>2</text>

<g clip-path="url(#c10_1)">
<g fill="#000000" >
<use xlink:href="#f0_k" transform="matrix(12,0,0,12,72.9,613.1)" />
</g>
</g>
<text 
x="57" 
y="613" 
dx="0" 
class="s4_1"
>=</text>

<g clip-path="url(#c10_1)">
<g fill="#000000" >
<use xlink:href="#f0_o" transform="matrix(12,0,0,12,86.1,613.1)" />
<use xlink:href="#f0_a" transform="matrix(7.2,0,0,7.2,98.5,604.4)" />
</g>
</g>
<text 
x="72" 
y="613" 
dx="0,0" 
class="s3_1"
>AE</text>

<g clip-path="url(#c10_1)">
<g fill="#000000" >
<use xlink:href="#f1_2" transform="matrix(12,0,0,12,104,613.1)" />
</g>
</g>
<text 
x="98" 
y="604" 
dx="0" 
class="s7_1"
>2</text>

<g clip-path="url(#c10_1)">
<g fill="#000000" >
<use xlink:href="#f0_k" transform="matrix(12,0,0,12,120.5,613.1)" />
</g>
</g>
<text 
x="104" 
y="613" 
dx="0" 
class="s2_1"
>−</text>

<g clip-path="url(#c10_1)">
<g fill="#000000" >
<use xlink:href="#f0_n" transform="matrix(12,0,0,12,133.8,613.1)" />
<use xlink:href="#f0_a" transform="matrix(7.2,0,0,7.2,147,604.4)" />
</g>
</g>
<text 
x="120" 
y="613" 
dx="0,0" 
class="s3_1"
>AD</text>

<g clip-path="url(#c10_1)">
<g fill="#000000" >
<use xlink:href="#f2_5" transform="matrix(12,0,0,12,153.2,613.1)" />
</g>
</g>
<text 
x="146" 
y="604" 
dx="0" 
class="s7_1"
>2</text>

<g clip-path="url(#c10_1)">
<g fill="#000000" >
<use xlink:href="#f0_9" transform="matrix(12,0,0,12,168,613.1)" />
</g>
</g>
<text 
x="153" 
y="613" 
dx="0" 
class="s4_1"
>=</text>

<g clip-path="url(#c10_1)">
<g fill="#000000" >
<use xlink:href="#f0_8" transform="matrix(12,0,0,12,177.2,613.1)" />
<use xlink:href="#f0_a" transform="matrix(7.2,0,0,7.2,186.8,604.4)" />
</g>
</g>
<text 
x="168" 
y="613" 
dx="0,0" 
class="s3_1"
>10</text>

<g clip-path="url(#c10_1)">
<g fill="#000000" >
<use xlink:href="#f1_2" transform="matrix(12,0,0,12,193,613.1)" />
</g>
</g>
<text 
x="186" 
y="604" 
dx="0" 
class="s7_1"
>2</text>

<g clip-path="url(#c10_1)">
<g fill="#000000" >
<use xlink:href="#f0_d" transform="matrix(12,0,0,12,207.8,613.1)" />
</g>
</g>
<text 
x="192" 
y="613" 
dx="0" 
class="s2_1"
>−</text>

<g clip-path="url(#c10_1)">
<g fill="#000000" >
<use xlink:href="#f0_a" transform="matrix(7.2,0,0,7.2,217.2,604.4)" />
</g>
</g>
<text 
x="207" 
y="613" 
dx="0" 
class="s3_1"
>5</text>

<g clip-path="url(#c10_1)">
<g fill="#000000" >
<use xlink:href="#f2_5" transform="matrix(12,0,0,12,223.5,613.1)" />
</g>
</g>
<text 
x="217" 
y="604" 
dx="0" 
class="s7_1"
>2</text>

<g clip-path="url(#c10_1)">
<g fill="#000000" >
<use xlink:href="#f0_f" transform="matrix(12,0,0,12,238.3,613.1)" />
</g>
</g>
<text 
x="223" 
y="613" 
dx="0" 
class="s4_1"
>=</text>

<g clip-path="url(#c10_1)">
<g fill="#000000" >
<use xlink:href="#f0_d" transform="matrix(12,0,0,12,247.5,613.1)" />
</g>
</g>
<text 
x="238" 
y="613" 
dx="0,0" 
class="s3_1"
>75</text>

<g clip-path="url(#c0_1)">
<g fill="#000000" >
<use xlink:href="#f0_v" transform="matrix(12,0,0,12,265.8,613.3)" />
<use xlink:href="#f0_14" transform="matrix(12,0,0,12,275,613.3)" />
<use xlink:href="#f0_13" transform="matrix(12,0,0,12,284.2,613.3)" />
<use xlink:href="#f0_u" transform="matrix(12,0,0,12,293.3,613.3)" />
</g>
</g>
<g clip-path="url(#c11_1)">
<g fill="#000000" >
<use xlink:href="#f0_n" transform="matrix(12,0,0,12,310.6,613.3)" />
</g>
</g>
<text 
x="265" 
y="613" 
dx="0,0,0,0,0" 
class="s1_1"
>donc </text>

<g clip-path="url(#c11_1)">
<g fill="#000000" >
<use xlink:href="#f0_o" transform="matrix(12,0,0,12,323.8,613.3)" />
<use xlink:href="#f2_5" transform="matrix(12,0,0,12,336.3,613.3)" />
</g>
</g>
<text 
x="310" 
y="613" 
dx="0,0" 
class="s3_1"
>DE</text>

<g clip-path="url(#c11_1)">
<g fill="#000000" >
<use xlink:href="#f1_3" transform="matrix(12,0,0,14.7,351.1,614.2)" />
</g>
</g>
<text 
x="336" 
y="613" 
dx="0" 
class="s4_1"
>=</text>

<text 
transform="matrix(0.82, 0, 0, 1, 351, 614)"
dx="0" 
class="s8_1"
>√</text>

<path d="M361.5,596.5l19,0" class="g1_1" />
<g clip-path="url(#c11_1)">
<g fill="#000000" >
<use xlink:href="#f0_f" transform="matrix(12,0,0,12,362.1,613.3)" />
<use xlink:href="#f0_d" transform="matrix(12,0,0,12,371.2,613.3)" />
<use xlink:href="#f2_5" transform="matrix(12,0,0,12,380.7,613.3)" />
</g>
</g>
<text 
x="362" 
y="613" 
dx="0,0" 
class="s3_1"
>75</text>

<g clip-path="url(#c11_1)">
<g fill="#000000" >
<use xlink:href="#f0_d" transform="matrix(12,0,0,12,396.3,613.3)" />
</g>
</g>
<text 
x="380" 
y="613" 
dx="0" 
class="s4_1"
>=</text>

<g clip-path="url(#c11_1)">
<g fill="#000000" >
<use xlink:href="#f1_3" transform="matrix(12,0,0,14.7,407.3,614.2)" />
</g>
</g>
<text 
x="396" 
y="613" 
dx="0" 
class="s3_1"
>5</text>

<text 
transform="matrix(0.82, 0, 0, 1, 407, 614)"
dx="0" 
class="s8_1"
>√</text>

<path d="M417.5,596.5l10,0" class="g1_1" />
<g clip-path="url(#c11_1)">
<g fill="#000000" >
<use xlink:href="#f0_b" transform="matrix(12,0,0,12,418.1,613.3)" />
</g>
</g>
<g clip-path="url(#c0_1)">
<g fill="#000000" >
<use xlink:href="#f0_d" transform="matrix(12,0,0,12,21.5,655.6)" />
</g>
</g>
<text 
x="418" 
y="613" 
dx="0" 
class="s3_1"
>3</text>

<g clip-path="url(#c0_1)">
<g fill="#000000" >
<use xlink:href="#f0_7" transform="matrix(12,0,0,12,30.7,655.6)" />
<use xlink:href="#f0_m" transform="matrix(12,0,0,12,39.9,655.6)" />
<use xlink:href="#f0_14" transform="matrix(12,0,0,12,52.1,655.6)" />
<use xlink:href="#f0_12" transform="matrix(12,0,0,12,61.3,655.6)" />
<use xlink:href="#f0_12" transform="matrix(12,0,0,12,75.5,655.6)" />
<use xlink:href="#f0_w" transform="matrix(12,0,0,12,89.8,655.6)" />
<use xlink:href="#f0_11" transform="matrix(12,0,0,12,102.5,655.6)" />
<use xlink:href="#f0_w" transform="matrix(12,0,0,12,107.6,655.6)" />
<use xlink:href="#f0_18" transform="matrix(12,0,0,12,115.7,655.6)" />
<use xlink:href="#f0_15" transform="matrix(12,0,0,12,127.5,655.6)" />
<use xlink:href="#f0_14" transform="matrix(12,0,0,12,136.6,655.6)" />
<use xlink:href="#f0_10" transform="matrix(12,0,0,12,145.8,655.6)" />
<use xlink:href="#f0_13" transform="matrix(12,0,0,12,150.9,655.6)" />
<use xlink:href="#f0_19" transform="matrix(12,0,0,12,160,655.6)" />
<use xlink:href="#f0_18" transform="matrix(12,0,0,12,165.1,655.6)" />
<use xlink:href="#f0_n" transform="matrix(12,0,0,12,176.9,655.6)" />
<use xlink:href="#f0_5" transform="matrix(12,0,0,12,190.1,655.6)" />
<use xlink:href="#f0_o" transform="matrix(12,0,0,12,199.3,655.6)" />
<use xlink:href="#f0_w" transform="matrix(12,0,0,12,215,655.6)" />
<use xlink:href="#f0_19" transform="matrix(12,0,0,12,223.2,655.6)" />
<use xlink:href="#f0_m" transform="matrix(12,0,0,12,232.9,655.6)" />
<use xlink:href="#f0_18" transform="matrix(12,0,0,12,249.7,655.6)" />
<use xlink:href="#f0_14" transform="matrix(12,0,0,12,256.8,655.6)" />
<use xlink:href="#f0_13" transform="matrix(12,0,0,12,266,655.6)" />
<use xlink:href="#f0_19" transform="matrix(12,0,0,12,275.1,655.6)" />
<use xlink:href="#f0_t" transform="matrix(12,0,0,12,284.8,655.6)" />
<use xlink:href="#f0_11" transform="matrix(12,0,0,12,292.9,655.6)" />
<use xlink:href="#f0_10" transform="matrix(12,0,0,12,298,655.6)" />
<use xlink:href="#f0_y" transform="matrix(12,0,0,12,303.1,655.6)" />
<use xlink:href="#f0_13" transform="matrix(12,0,0,12,312.3,655.6)" />
<use xlink:href="#f0_1d" transform="matrix(12,0,0,12,321.5,655.6)" />
<use xlink:href="#f0_18" transform="matrix(12,0,0,12,329.6,655.6)" />
<use xlink:href="#f0_v" transform="matrix(12,0,0,12,341.3,655.6)" />
<use xlink:href="#f0_t" transform="matrix(12,0,0,12,350.5,655.6)" />
<use xlink:href="#f0_13" transform="matrix(12,0,0,12,358.6,655.6)" />
<use xlink:href="#f0_18" transform="matrix(12,0,0,12,367.8,655.6)" />
<use xlink:href="#f0_u" transform="matrix(12,0,0,12,379.5,655.6)" />
<use xlink:href="#f0_w" transform="matrix(12,0,0,12,387.6,655.6)" />
<use xlink:href="#f0_19" transform="matrix(12,0,0,12,395.8,655.6)" />
<use xlink:href="#f0_14" transform="matrix(12,0,0,12,405.5,655.6)" />
<use xlink:href="#f0_17" transform="matrix(12,0,0,12,414.6,655.6)" />
<use xlink:href="#f0_v" transform="matrix(12,0,0,12,420.7,655.6)" />
<use xlink:href="#f0_17" transform="matrix(12,0,0,12,429.9,655.6)" />
<use xlink:href="#f0_w" transform="matrix(12,0,0,12,436,655.6)" />
<use xlink:href="#f0_5" transform="matrix(12,0,0,12,444.1,655.6)" />
<use xlink:href="#f0_14" transform="matrix(12,0,0,12,453.3,655.6)" />
<use xlink:href="#f0_13" transform="matrix(12,0,0,12,462.5,655.6)" />
<use xlink:href="#f0_t" transform="matrix(12,0,0,12,476.2,655.6)" />
<use xlink:href="#f0_i" transform="matrix(12,0,0,12,489,655.6)" />
</g>
</g>
<g clip-path="url(#c12_1)">
<g fill="#000000" >
<use xlink:href="#f0_o" transform="matrix(12,0,0,12,26.1,678.2)" />
</g>
</g>
<text 
x="21" 
y="655" 
dx="0,0,0,0,0,0,0,0,0,0,0,0,0,0,0,0,0,0,0,0,0,0,0,0,0,0,0,0,0,0,0,0,0,0,0,0,0,0,0,0,0,0,0,0,0,0,0,0,0,0,0,0,0,0,0,0,0,0,0,0,0,0,0,0.1,0" 
class="s1_1"
>5. Comme les points D, E et C sont alignés dans cet ordre, on a :</text>

<g clip-path="url(#c12_1)">
<g fill="#000000" >
<use xlink:href="#f0_m" transform="matrix(12,0,0,12,37.3,678.2)" />
<use xlink:href="#f2_5" transform="matrix(12,0,0,12,50.3,678.2)" />
</g>
</g>
<text 
x="26" 
y="678" 
dx="0,0" 
class="s3_1"
>EC</text>

<g clip-path="url(#c12_1)">
<g fill="#000000" >
<use xlink:href="#f0_n" transform="matrix(12,0,0,12,65.8,678.2)" />
</g>
</g>
<text 
x="50" 
y="678" 
dx="0" 
class="s4_1"
>=</text>

<g clip-path="url(#c12_1)">
<g fill="#000000" >
<use xlink:href="#f0_m" transform="matrix(12,0,0,12,79.1,678.2)" />
<use xlink:href="#f1_2" transform="matrix(12,0,0,12,91.7,678.2)" />
</g>
</g>
<text 
x="65" 
y="678" 
dx="0,0" 
class="s3_1"
>DC</text>

<g clip-path="url(#c12_1)">
<g fill="#000000" >
<use xlink:href="#f0_n" transform="matrix(12,0,0,12,107.2,678.2)" />
</g>
</g>
<text 
x="91" 
y="678" 
dx="0" 
class="s2_1"
>−</text>

<g clip-path="url(#c12_1)">
<g fill="#000000" >
<use xlink:href="#f0_o" transform="matrix(12,0,0,12,120.5,678.2)" />
<use xlink:href="#f2_5" transform="matrix(12,0,0,12,133.1,678.2)" />
</g>
</g>
<text 
x="107" 
y="678" 
dx="0,0" 
class="s3_1"
>DE</text>

<g clip-path="url(#c12_1)">
<g fill="#000000" >
<use xlink:href="#f0_9" transform="matrix(12,0,0,12,147.9,678.2)" />
</g>
</g>
<text 
x="133" 
y="678" 
dx="0" 
class="s4_1"
>=</text>

<g clip-path="url(#c12_1)">
<g fill="#000000" >
<use xlink:href="#f0_8" transform="matrix(12,0,0,12,157,678.2)" />
<use xlink:href="#f1_2" transform="matrix(12,0,0,12,166.5,678.2)" />
</g>
</g>
<text 
x="147" 
y="678" 
dx="0,0" 
class="s3_1"
>10</text>

<g clip-path="url(#c12_1)">
<g fill="#000000" >
<use xlink:href="#f0_d" transform="matrix(12,0,0,12,182.1,678.2)" />
</g>
</g>
<text 
x="166" 
y="678" 
dx="0" 
class="s2_1"
>−</text>

<g clip-path="url(#c12_1)">
<g fill="#000000" >
<use xlink:href="#f1_3" transform="matrix(12,0,0,14.7,193.1,679.1)" />
</g>
</g>
<text 
x="182" 
y="678" 
dx="0" 
class="s3_1"
>5</text>

<text 
transform="matrix(0.82, 0, 0, 1, 193, 679)"
dx="0" 
class="s8_1"
>√</text>

<path d="M202.5,661.5l10,0" class="g1_1" />
<g clip-path="url(#c12_1)">
<g fill="#000000" >
<use xlink:href="#f0_b" transform="matrix(12,0,0,12,204,678.2)" />
<use xlink:href="#f2_5" transform="matrix(12,0,0,12,213.4,678.2)" />
</g>
</g>
<text 
x="203" 
y="678" 
dx="0" 
class="s3_1"
>3</text>

<g clip-path="url(#c12_1)">
<g fill="#000000" >
<use xlink:href="#f0_d" transform="matrix(12,0,0,12,228.2,678.2)" />
</g>
</g>
<text 
x="213" 
y="678" 
dx="0" 
class="s4_1"
>=</text>

<g clip-path="url(#c12_1)">
<g fill="#000000" >
<use xlink:href="#f2_2" transform="matrix(12,0,0,12,239.1,678.2)" />
</g>
</g>
<text 
x="228" 
y="678" 
dx="0" 
class="s3_1"
>5</text>

<g clip-path="url(#c12_1)">
<g fill="#000000" >
<use xlink:href="#f0_a" transform="matrix(12,0,0,12,246.1,678.2)" />
</g>
</g>
<text 
x="239" 
y="678" 
dx="0" 
class="s4_1"
>(</text>

<g clip-path="url(#c12_1)">
<g fill="#000000" >
<use xlink:href="#f1_2" transform="matrix(12,0,0,12,256.4,678.2)" />
</g>
</g>
<text 
x="246" 
y="678" 
dx="0" 
class="s3_1"
>2</text>

<g clip-path="url(#c12_1)">
<g fill="#000000" >
<use xlink:href="#f1_3" transform="matrix(12,0,0,14.7,271.2,679.1)" />
</g>
</g>
<text 
x="256" 
y="678" 
dx="0" 
class="s2_1"
>−</text>

<text 
transform="matrix(0.82, 0, 0, 1, 271, 679)"
dx="0" 
class="s8_1"
>√</text>

<path d="M281.5,661.5l10,0" class="g1_1" />
<g clip-path="url(#c12_1)">
<g fill="#000000" >
<use xlink:href="#f0_b" transform="matrix(12,0,0,12,282,678.2)" />
<use xlink:href="#f2_3" transform="matrix(12,0,0,12,292.3,678.2)" />
</g>
</g>
<text 
x="282" 
y="678" 
dx="0" 
class="s3_1"
>3</text>

<g clip-path="url(#c0_1)">
<g fill="#000000" >
<use xlink:href="#f0_e" transform="matrix(12,0,0,12,21.5,721.7)" />
</g>
</g>
<text 
x="292" 
y="678" 
dx="0" 
class="s4_1"
>)</text>

<g clip-path="url(#c0_1)">
<g fill="#000000" >
<use xlink:href="#f0_7" transform="matrix(12,0,0,12,30.7,721.7)" />
<use xlink:href="#f0_p" transform="matrix(12,0,0,12,39.9,721.7)" />
<use xlink:href="#f0_11" transform="matrix(12,0,0,12,46,721.7)" />
<use xlink:href="#f0_17" transform="matrix(12,0,0,12,55.7,721.7)" />
<use xlink:href="#f0_w" transform="matrix(12,0,0,12,61.8,721.7)" />
<use xlink:href="#f0_18" transform="matrix(12,0,0,12,69.9,721.7)" />
<use xlink:href="#f0_19" transform="matrix(12,0,0,12,77,721.7)" />
<use xlink:href="#f0_w" transform="matrix(12,0,0,12,82.1,721.7)" />
<use xlink:href="#f0_1c" transform="matrix(12,0,0,12,94.8,721.7)" />
<use xlink:href="#f0_18" transform="matrix(12,0,0,12,107.6,721.7)" />
<use xlink:href="#f0_w" transform="matrix(12,0,0,12,114.7,721.7)" />
<use xlink:href="#f0_15" transform="matrix(12,0,0,12,127.4,721.7)" />
<use xlink:href="#f0_11" transform="matrix(12,0,0,12,136.6,721.7)" />
<use xlink:href="#f0_t" transform="matrix(12,0,0,12,141.7,721.7)" />
<use xlink:href="#f0_u" transform="matrix(12,0,0,12,149.8,721.7)" />
<use xlink:href="#f0_w" transform="matrix(12,0,0,12,157.9,721.7)" />
<use xlink:href="#f0_17" transform="matrix(12,0,0,12,166.1,721.7)" />
<use xlink:href="#f0_v" transform="matrix(12,0,0,12,176.8,721.7)" />
<use xlink:href="#f0_t" transform="matrix(12,0,0,12,185.9,721.7)" />
<use xlink:href="#f0_13" transform="matrix(12,0,0,12,194.1,721.7)" />
<use xlink:href="#f0_18" transform="matrix(12,0,0,12,203.2,721.7)" />
<use xlink:href="#f0_11" transform="matrix(12,0,0,12,215,721.7)" />
<use xlink:href="#f0_w" transform="matrix(12,0,0,12,220.1,721.7)" />
<use xlink:href="#f0_19" transform="matrix(12,0,0,12,232.8,721.7)" />
<use xlink:href="#f0_17" transform="matrix(12,0,0,12,237.9,721.7)" />
<use xlink:href="#f0_10" transform="matrix(12,0,0,12,244,721.7)" />
<use xlink:href="#f0_t" transform="matrix(12,0,0,12,249.1,721.7)" />
<use xlink:href="#f0_13" transform="matrix(12,0,0,12,257.2,721.7)" />
<use xlink:href="#f0_y" transform="matrix(12,0,0,12,266.4,721.7)" />
<use xlink:href="#f0_11" transform="matrix(12,0,0,12,275.5,721.7)" />
<use xlink:href="#f0_w" transform="matrix(12,0,0,12,280.6,721.7)" />
<use xlink:href="#f0_o" transform="matrix(12,0,0,12,293.3,721.7)" />
<use xlink:href="#f0_l" transform="matrix(12,0,0,12,304.5,721.7)" />
<use xlink:href="#f0_m" transform="matrix(12,0,0,12,316.8,721.7)" />
<use xlink:href="#f0_17" transform="matrix(12,0,0,12,333.6,721.7)" />
<use xlink:href="#f0_w" transform="matrix(12,0,0,12,339.7,721.7)" />
<use xlink:href="#f0_u" transform="matrix(12,0,0,12,347.8,721.7)" />
<use xlink:href="#f0_19" transform="matrix(12,0,0,12,356,721.7)" />
<use xlink:href="#f0_t" transform="matrix(12,0,0,12,361.1,721.7)" />
<use xlink:href="#f0_13" transform="matrix(12,0,0,12,369.2,721.7)" />
<use xlink:href="#f0_y" transform="matrix(12,0,0,12,378.4,721.7)" />
<use xlink:href="#f0_11" transform="matrix(12,0,0,12,387.5,721.7)" />
<use xlink:href="#f0_w" transform="matrix(12,0,0,12,392.6,721.7)" />
<use xlink:href="#f0_w" transform="matrix(12,0,0,12,405.3,721.7)" />
<use xlink:href="#f0_13" transform="matrix(12,0,0,12,413.5,721.7)" />
<use xlink:href="#f0_m" transform="matrix(12,0,0,12,427.2,721.7)" />
<use xlink:href="#f0_i" transform="matrix(12,0,0,12,444.1,721.7)" />
<use xlink:href="#f0_19" transform="matrix(12,0,0,12,21.5,756.3)" />
</g>
</g>
<text 
x="21" 
y="721" 
dx="0,0,0,0,0,0,0,0,0,0,0,0,0,0,0,0,0,0,0,0,0,0,0,0,0,0,0,0,0,0,0,0,0,0,0,0,0,0,0,0,0,0,0,0,0,0,0,0,0,0,0,0,0,0,0,0,0,0,0,0.1,0" 
class="s1_1"
>6. Il reste à se placer dans le triangle EBC rectangle en C :</text>

<g clip-path="url(#c0_1)">
<g fill="#000000" >
<use xlink:href="#f0_t" transform="matrix(12,0,0,12,26.6,756.3)" />
<use xlink:href="#f0_13" transform="matrix(12,0,0,12,34.8,756.3)" />
<use xlink:href="#f0_3" transform="matrix(12,0,0,12,43.9,756.3)" />
</g>
</g>
<g clip-path="url(#c13_1)">
<g fill="#000000" >
<use xlink:href="#f1_5" transform="matrix(66.2,0,0,12,55.5,751.7)" />
</g>
</g>
<text 
x="21" 
y="756" 
dx="0,0,0,0" 
class="s1_1"
>tan(</text>

<g clip-path="url(#c13_1)">
<g fill="#000000" >
<use xlink:href="#f0_o" transform="matrix(12,0,0,12,54.7,756.3)" />
</g>
</g>
<text 
transform="matrix(5.53, 0, 0, 1, 55, 751)"
dx="0" 
class="s2_1"
>̂</text>

<g clip-path="url(#c13_1)">
<g fill="#000000" >
<use xlink:href="#f0_l" transform="matrix(12,0,0,12,65.9,756.3)" />
<use xlink:href="#f0_m" transform="matrix(12,0,0,12,78.1,756.3)" />
</g>
</g>
<g clip-path="url(#c0_1)">
<g fill="#000000" >
<use xlink:href="#f0_4" transform="matrix(12,0,0,12,95.2,756.3)" />
</g>
</g>
<text 
x="54" 
y="756" 
dx="0,0,0" 
class="s3_1"
>EBC</text>

<g clip-path="url(#c0_1)">
<g fill="#000000" >
<use xlink:href="#f0_j" transform="matrix(12,0,0,12,101.3,756.3)" />
<use xlink:href="#f0_19" transform="matrix(12,0,0,12,116.2,756.3)" />
<use xlink:href="#f0_t" transform="matrix(12,0,0,12,121.3,756.3)" />
<use xlink:href="#f0_13" transform="matrix(12,0,0,12,129.4,756.3)" />
<use xlink:href="#f0_3" transform="matrix(12,0,0,12,138.6,756.3)" />
<use xlink:href="#f0_9" transform="matrix(12,0,0,12,144.7,756.3)" />
<use xlink:href="#f0_d" transform="matrix(12,0,0,12,153.9,756.3)" />
<use xlink:href="#f0_1f" transform="matrix(12,0,0,12,163,756.3)" />
<use xlink:href="#f0_4" transform="matrix(12,0,0,12,170.4,756.3)" />
<use xlink:href="#f0_j" transform="matrix(12,0,0,12,181.1,756.3)" />
</g>
</g>
<g clip-path="url(#c14_1)">
<g fill="#000000" >
<use xlink:href="#f0_o" transform="matrix(12,0,0,12,202.9,745.9)" />
</g>
</g>
<text 
x="95" 
y="756" 
dx="0,0,0,0,0,0,0,0,0,0,0,0,0,0" 
class="s1_1"
>)= tan(15°) = </text>

<g clip-path="url(#c14_1)">
<g fill="#000000" >
<use xlink:href="#f0_m" transform="matrix(12,0,0,12,214.1,745.9)" />
</g>
</g>
<text 
x="202" 
y="745" 
dx="0,0" 
class="s3_1"
>EC</text>

<path d="M201.5,751.5l27,0" class="g1_1" />
<g clip-path="url(#c14_1)">
<g fill="#000000" >
<use xlink:href="#f0_l" transform="matrix(12,0,0,12,202.9,768.6)" />
<use xlink:href="#f0_m" transform="matrix(12,0,0,12,215.1,768.6)" />
<use xlink:href="#f2_5" transform="matrix(12,0,0,12,229.5,756.1)" />
</g>
</g>
<text 
x="202" 
y="768" 
dx="0,0" 
class="s3_1"
>BC</text>

<g clip-path="url(#c14_1)">
<g fill="#000000" >
<use xlink:href="#f0_d" transform="matrix(12,0,0,12,246.6,744.3)" />
</g>
</g>
<text 
x="229" 
y="756" 
dx="0" 
class="s4_1"
>=</text>

<g clip-path="url(#c14_1)">
<g fill="#000000" >
<use xlink:href="#f2_2" transform="matrix(12,0,0,12,256.7,744.3)" />
</g>
</g>
<text 
x="246" 
y="744" 
dx="0" 
class="s3_1"
>5</text>

<g clip-path="url(#c14_1)">
<g fill="#000000" >
<use xlink:href="#f0_a" transform="matrix(12,0,0,12,264.5,744.3)" />
</g>
</g>
<text 
x="256" 
y="744" 
dx="0" 
class="s4_1"
>(</text>

<g clip-path="url(#c14_1)">
<g fill="#000000" >
<use xlink:href="#f1_2" transform="matrix(12,0,0,12,273.9,744.3)" />
</g>
</g>
<text 
x="264" 
y="744" 
dx="0" 
class="s3_1"
>2</text>

<g clip-path="url(#c14_1)">
<g fill="#000000" >
<use xlink:href="#f1_3" transform="matrix(12,0,0,14.7,289.5,745.1)" />
</g>
</g>
<text 
x="273" 
y="744" 
dx="0" 
class="s2_1"
>−</text>

<text 
transform="matrix(0.82, 0, 0, 1, 289, 745)"
dx="0" 
class="s8_1"
>√</text>

<path d="M298.5,727.5l11,0" class="g1_1" />
<g clip-path="url(#c14_1)">
<g fill="#000000" >
<use xlink:href="#f0_b" transform="matrix(12,0,0,12,300.4,744.3)" />
<use xlink:href="#f2_3" transform="matrix(12,0,0,12,309.8,744.3)" />
</g>
</g>
<text 
x="300" 
y="744" 
dx="0" 
class="s3_1"
>3</text>

<text 
x="309" 
y="744" 
dx="0" 
class="s4_1"
>)</text>

<path d="M245.5,751.5l72,0" class="g1_1" />
<g clip-path="url(#c14_1)">
<g fill="#000000" >
<use xlink:href="#f0_d" transform="matrix(12,0,0,12,276.2,768.6)" />
<use xlink:href="#f2_5" transform="matrix(12,0,0,12,317.6,756.1)" />
</g>
</g>
<text 
x="276" 
y="768" 
dx="0" 
class="s3_1"
>5</text>

<g clip-path="url(#c14_1)">
<g fill="#000000" >
<use xlink:href="#f0_a" transform="matrix(12,0,0,12,333.2,756.1)" />
</g>
</g>
<text 
x="317" 
y="756" 
dx="0" 
class="s4_1"
>=</text>

<g clip-path="url(#c14_1)">
<g fill="#000000" >
<use xlink:href="#f1_2" transform="matrix(12,0,0,12,343.3,756.1)" />
</g>
</g>
<text 
x="333" 
y="756" 
dx="0" 
class="s3_1"
>2</text>

<g clip-path="url(#c14_1)">
<g fill="#000000" >
<use xlink:href="#f1_3" transform="matrix(12,0,0,14.7,358.1,756.9)" />
</g>
</g>
<text 
x="343" 
y="756" 
dx="0" 
class="s2_1"
>−</text>

<text 
transform="matrix(0.82, 0, 0, 1, 358, 756)"
dx="0" 
class="s8_1"
>√</text>

<path d="M368.5,739.5l10,0" class="g1_1" />
<g clip-path="url(#c14_1)">
<g fill="#000000" >
<use xlink:href="#f0_b" transform="matrix(12,0,0,12,369.1,756.1)" />
</g>
</g>
<text 
x="369" 
y="756" 
dx="0" 
class="s3_1"
>3</text>

<image x="115" y="14" width="549" height="318" xlink:href="1/img/1.png" />

<defs>
	<path d="M195.6,0l0,27.5c0,0,71.8,1.5,93.2,12.2c0,0,21.3,10.7,29,29.1c0,0,7.6,18.3,7.6,108.4l0,547c0,0,0,110,-7.6,140.5c0,0,-4.6,24.5,-18.4,35.2c0,0,-13.7,12.2,-33.6,12.2c0,0,-27.5,0,-76.4,-22.9l-10.6,22.9l245.9,119.2l24.5,0l0,-854.1c0,0,0,-84,6.1,-105.4c0,0,7.6,-21.4,30.5,-32.1c0,0,23,-10.7,90.2,-12.2L576,0Z" 
	id="f0_9"
	transform="scale(0.001,-0.001)" />

	<path d="M189.4,-19.8c0,0,-33.6,0,-58,22.9c0,0,-24.5,24.4,-24.5,58c0,0,0,35.2,24.5,58.1c0,0,24.4,24.4,58,24.4c0,0,35.2,0,59.6,-24.4c0,0,24.5,-24.5,24.5,-58.1c0,0,0,-33.6,-24.5,-56.5c0,0,-24.4,-24.4,-59.6,-24.4Z" 
	id="f0_7"
	transform="scale(0.001,-0.001)" />

	<path d="M32.1,0l0,27.5c0,0,262.8,239.9,369.7,391.1c0,0,108.5,152.8,108.5,279.6c0,0,0,96.2,-58.1,157.4c0,0,-59.6,62.6,-142.1,62.6c0,0,-74.8,0,-132.9,-44.3c0,0,-59.6,-44.3,-88.6,-128.3l-27.5,0c0,0,18.3,139,94.7,212.3c0,0,78,73.4,194.1,73.4c0,0,123.7,0,204.7,-78c0,0,82.5,-79.4,82.5,-187.9c0,0,0,-76.4,-35.2,-152.8c0,0,-55,-120.7,-178.7,-256.6C423.2,356,236.8,154.3,191,111.5l264.3,0c0,0,81,0,113,6.1c0,0,32.1,6.2,58.1,24.5c0,0,26,18.3,45.8,51.9l27.5,0L629.4,0Z" 
	id="f0_a"
	transform="scale(0.001,-0.001)" />

	<path d="M473.6,51.9c0,0,172.7,0,285.7,120.7c0,0,114.6,122.3,114.6,330c0,0,0,209.3,-113.1,330c0,0,-114.5,122.3,-293.3,122.3c0,0,-67.2,0,-152.8,-23l0,-860.1c0,0,94.7,-19.9,158.9,-19.9ZM26,0l0,27.5l36.6,0c0,0,64.2,0,91.7,39.7c0,0,16.8,26,16.8,111.6l0,652.3c0,0,0,94.7,-21.4,119.2c0,0,-29,33.6,-87.1,33.6l-36.6,0l0,27.5l410.9,0c0,0,227.7,0,345.3,-52c0,0,117.7,-51.9,189.5,-171.1c0,0,73.3,-120.7,73.3,-278c0,0,0,-210.9,-128.3,-352.9C916.7,157.4,771.5,0,476.7,0Z" 
	id="f0_n"
	transform="scale(0.001,-0.001)" />

	<path d="M285.7,71.8c0,0,56.5,0,148.2,74.9l0,259.7c0,0,-113.1,-44.3,-145.1,-62.6c0,0,-59.6,-33.7,-84.1,-68.8c0,0,-25.9,-36.7,-25.9,-79.4c0,0,0,-53.5,32,-88.7c0,0,32.1,-35.1,74.9,-35.1ZM216.9,-13.7c0,0,-71.8,0,-117.6,47.3c0,0,-45.8,48.9,-45.8,126.8c0,0,0,50.4,22.9,87.1c0,0,30.5,50.4,105.4,94.7c0,0,76.4,45.9,252.1,110l0,26c0,0,0,102.4,-32.1,140.6c0,0,-32.1,38.1,-94.7,38.1c0,0,-47.4,0,-74.9,-24.4c0,0,-27.5,-26,-27.5,-59.6l1.6,-42.8c0,0,0,-33.6,-16.9,-51.9c0,0,-18.3,-19.9,-47.3,-19.9c0,0,-27.5,0,-44.3,19.9c0,0,-18.4,19.9,-18.4,53.5c0,0,0,64.1,65.7,117.6c0,0,65.7,53.5,184.9,53.5c0,0,90.1,0,148.2,-30.6c0,0,44.3,-22.9,65.7,-71.8c0,0,13.7,-32.1,13.7,-131.4l0,-232.2c0,0,0,-97.8,3.1,-119.2c0,0,4.6,-22.9,12.2,-30.5c0,0,9.2,-7.7,19.9,-7.7c0,0,12.2,0,21.4,6.2c0,0,15.2,9.1,59.6,53.4l0,-41.2c0,0,-82.5,-109.9,-158.9,-109.9c0,0,-36.7,0,-58.1,24.3c0,0,-21.4,24.5,-22.9,85.6c0,0,-105.4,-81,-131.4,-94.7c0,0,-41.2,-16.8,-85.6,-16.8Z" 
	id="f0_t"
	transform="scale(0.001,-0.001)" />

	<path d="M19.9,0l0,26l13.7,0c0,0,53.5,0,71.8,25.9c0,0,18.4,27.5,18.4,102.4l0,253.6c0,0,0,122.2,-6.2,148.2c0,0,-6.1,27.5,-16.8,36.7c0,0,-12.2,10.7,-32,10.7c0,0,-19.9,0,-48.9,-10.7l-12.3,26l206.3,84l32.1,0l0,-145.2c0,0,120.7,145.2,229.1,145.2c0,0,56.6,0,96.3,-27.5c0,0,39.7,-29,64.2,-93.2c0,0,16.8,-44.3,16.8,-137.5l0,-290.3c0,0,0,-65.7,10.7,-88.6c0,0,7.6,-18.3,25.9,-29c0,0,18.4,-10.7,67.3,-10.7l0,-26L418.6,0l0,26l13.8,0c0,0,47.3,0,65.7,13.7c0,0,19.8,15.3,27.5,44.3c0,0,3,10.7,3,70.3l0,279.6c0,0,0,93.2,-24.4,134.4c0,0,-24.5,42.8,-81,42.8c0,0,-88.6,0,-177.2,-97.8l0,-359c0,0,0,-70.3,7.6,-87.1c0,0,10.7,-21.4,29,-30.5c0,0,18.4,-10.7,74.9,-10.7l0,-26Z" 
	id="f0_13"
	transform="scale(0.001,-0.001)" />

	<path d="M311.7,-19.8c0,0,-62.7,0,-143.6,19.8c0,0,-24.5,7.6,-39.8,7.6c0,0,-16.8,0,-27.5,-16.7l-24.4,0l0,241.3l24.4,0c0,0,21.4,-103.9,79.5,-155.8c0,0,59.6,-53.5,132.9,-53.5c0,0,51.9,0,84,29c0,0,32.1,30.6,32.1,73.4c0,0,0,51.9,-35.1,87.1c0,0,-36.7,35.1,-145.2,88.6c0,0,-108.4,53.4,-142.1,96.2c0,0,-33.6,42.8,-33.6,108.5c0,0,0,84,58.1,140.6c0,0,58,56.5,149.7,56.5c0,0,39.7,0,97.8,-16.8c0,0,38.2,-12.2,50.4,-12.2c0,0,12.2,0,18.3,4.5c0,0,7.7,6.1,16.8,24.5l24.5,0l0,-232.2l-24.5,0c0,0,-29,108.4,-73.3,148.2c0,0,-44.3,39.7,-113,39.7c0,0,-52,0,-84.1,-27.5c0,0,-32.1,-27.5,-32.1,-61.1c0,0,0,-41.3,24.5,-71.8c0,0,22.9,-30.6,93.2,-64.2L388.1,380.4c0,0,152.7,-73.3,152.7,-194c0,0,0,-93.2,-70.2,-149.7c0,0,-71.8,-56.5,-158.9,-56.5Z" 
	id="f0_18"
	transform="scale(0.001,-0.001)" />

	<path d="M58.1,0l0,26c0,0,45.8,0,62.6,9.1c0,0,18.3,10.7,27.5,32.1c0,0,10.7,22.9,10.7,87.1l0,620.3c0,0,0,116.1,-4.6,142.1c0,0,-6.1,25.9,-16.8,35.1c0,0,-12.2,10.7,-30.6,10.7c0,0,-19.8,0,-48.8,-12.2l-13.8,26l204.7,84l33.6,0l0,-906c0,0,0,-64.2,9.2,-85.5c0,0,9.2,-21.4,27.5,-32.1c0,0,19.9,-10.7,73.3,-10.7l0,-26Z" 
	id="f0_11"
	transform="scale(0.001,-0.001)" />

	<path d="M478.2,469c0,0,-3.1,65.7,-15.3,91.7c0,0,-18.3,42.8,-55,65.7c0,0,-38.2,24.4,-77.9,24.4c0,0,-62.6,0,-111.5,-47.3c0,0,-48.9,-48.9,-56.6,-134.5ZM354.4,-19.8c0,0,-123.7,0,-210.8,94.7c0,0,-87.1,94.7,-87.1,256.6c0,0,0,175.7,88.6,273.5c0,0,90.2,97.8,226.2,97.8c0,0,114.5,0,187.9,-74.9c0,0,74.8,-76.4,74.8,-203.2l-472.1,0c0,0,-1.5,-151.2,73.4,-238.3c0,0,74.8,-87.1,175.7,-87.1c0,0,67.2,0,116.1,36.7c0,0,50.4,38.2,84,126.8L634,249c0,0,-15.2,-102.3,-90.1,-184.8c0,0,-76.4,-84,-189.5,-84Z" 
	id="f0_w"
	transform="scale(0.001,-0.001)" />

	<path d="M253.6,-10.6c0,0,-33.6,0,-65.7,18.2c0,0,-33.6,18.4,-48.9,53.5c0,0,-16.8,35.2,-16.8,110l0,459.9L13.8,631l0,24.4c0,0,41.2,15.3,84,55c0,0,42.8,39.7,76.4,93.2c0,0,16.8,27.5,47.3,103.9l24.5,0l0,-224.6l158.9,0l0,-51.9L246,631l0,-443.1c0,0,0,-67.2,18.3,-90.1c0,0,19.9,-22.9,48.9,-22.9c0,0,24.4,0,47.4,15.2c0,0,22.9,15.3,36.6,44.3l29.1,0c0,0,-26,-71.8,-73.4,-108.4c0,0,-48.9,-36.6,-99.3,-36.6Z" 
	id="f0_19"
	transform="scale(0.001,-0.001)" />

	<path d="M16.8,0l0,26c0,0,52,0,77.9,16.8c0,0,18.4,12.2,26,38.2c0,0,3.1,12.2,3.1,71.8l0,264.3c0,0,0,120.7,-4.6,142.1c0,0,-4.6,22.9,-16.8,33.6c0,0,-13.8,10.7,-33.6,10.7c0,0,-23,0,-52,-10.7l-7.6,26l206.2,84l32.1,0l0,-154.3c0,0,85.6,154.3,175.7,154.3c0,0,41.2,0,67.2,-24.5c0,0,27.5,-25.9,27.5,-58c0,0,0,-29,-19.8,-48.9c0,0,-19.9,-21.4,-45.9,-21.4c0,0,-25.9,0,-58,26c0,0,-33.6,25.9,-48.9,25.9c0,0,-13.8,0,-29,-15.2c0,0,-33.7,-30.6,-68.8,-100.9l0,-326.9c0,0,0,-56.5,13.8,-85.6c0,0,9.1,-19.8,33.6,-33.6c0,0,24.4,-13.7,71.8,-13.7l0,-26Z" 
	id="f0_17"
	transform="scale(0.001,-0.001)" />

	<path d="M55,0l0,26c0,0,48.9,0,65.7,9.1c0,0,18.3,10.7,27.5,32.1c0,0,10.7,22.9,10.7,87.1l0,262.8c0,0,0,111.5,-6.1,143.6c0,0,-6.1,24.4,-16.8,33.6c0,0,-10.7,9.2,-30.6,9.2c0,0,-21.4,0,-50.4,-10.7l-10.7,26l206.3,84l32,0l0,-548.5c0,0,0,-64.2,9.2,-85.5c0,0,9.2,-21.4,27.5,-32.1c0,0,18.3,-10.7,67.2,-10.7l0,-26ZM221.5,909c0,0,-32.1,0,-53.4,21.4c0,0,-23,22.9,-23,55c0,0,0,30.6,21.4,52c0,0,22.9,22.9,55,22.9c0,0,30.6,0,52,-21.4c0,0,22.9,-22.9,22.9,-53.5c0,0,0,-32.1,-21.4,-53.5c0,0,-22.9,-22.9,-53.5,-22.9Z" 
	id="f0_10"
	transform="scale(0.001,-0.001)" />

	<path d="M411,-239.8c0,0,132.9,0,197.1,47.4c0,0,64.1,47.4,64.1,100.8c0,0,0,39.8,-38.2,56.6c0,0,-38.2,15.2,-154.3,18.3c0,0,-166.5,4.6,-258.2,16.7c0,0,-33.6,-36.6,-51.9,-68.7c0,0,-18.3,-33.6,-18.3,-61.1c0,0,0,-36.6,42.7,-62.6c0,0,74.9,-47.4,217,-47.4ZM378.9,255.1c0,0,56.5,0,93.2,42.8c0,0,36.7,42.8,36.7,134.5c0,0,0,117.6,-52,184.8c0,0,-38.2,50.4,-97.8,50.4c0,0,-55,0,-91.6,-44.3c0,0,-38.2,-44.3,-38.2,-135.9c0,0,0,-117.7,51.9,-181.8c0,0,38.2,-50.5,97.8,-50.5ZM343.8,-328.4c0,0,-143.7,0,-243,64.2c0,0,-56.5,38.2,-56.5,77.9c0,0,0,18.3,9.2,35.1c0,0,12.2,27.5,51.9,78c0,0,4.6,6.1,76.4,77.8c0,0,-39.7,24.4,-55,41.2c0,0,-16.8,18.4,-16.8,42.8c0,0,0,26,21.4,61.1c0,0,21.4,35.2,97.8,99.3c0,0,-62.7,30.6,-96.3,84.1c0,0,-33.6,55,-33.6,122.2c0,0,0,100.8,76.4,174.1c0,0,77.9,73.4,197.1,73.4c0,0,97.8,0,168,-47.4l145.2,0c0,0,32.1,0,36.6,-1.5c0,0,6.2,-3.1,9.2,-7.6c0,0,3.1,-6.2,3.1,-23c0,0,0,-19.8,-3.1,-27.5c0,0,-1.5,-3,-7.6,-4.5c0,0,-6.1,-3.1,-38.2,-3.1l-88.6,0c0,0,41.2,-53.5,41.2,-137.5c0,0,0,-96.3,-71.8,-163.5c0,0,-73.3,-67.2,-197.1,-67.2c0,0,-50.4,0,-103.9,13.8c0,0,-32,-27.5,-42.7,-48.9c0,0,-12.3,-21.4,-12.3,-36.7c0,0,0,-12.2,12.3,-24.4c0,0,12.2,-12.3,47.3,-16.9c0,0,21.4,-3,105.4,-6.1c0,0,152.8,-3,198.6,-9.1c0,0,68.8,-10.7,110,-50.4c0,0,42.8,-41.3,42.8,-103.8c0,0,0,-84.1,-79.4,-157.4c0,0,-116.1,-108.5,-304,-108.5Z" 
	id="f0_y"
	transform="scale(0.001,-0.001)" />

	<path d="M676.8,392.6L505.7,802.1L330,392.6ZM10.7,0l0,27.5c0,0,64.2,10.7,82.5,29c0,0,38.2,35.2,84,145.2l356,832.6l26,0L912.1,192.5c0,0,42.8,-100.8,76.4,-131.4c0,0,35.1,-30.5,96.2,-33.6l0,-27.5L686,0l0,27.5c0,0,61.1,3.1,82.5,19.9c0,0,21.4,16.8,21.4,41.2c0,0,0,33.6,-30.6,103.9L698.2,337.6l-391.1,0L238.3,178.8c0,0,-25.9,-59.6,-25.9,-88.7c0,0,0,-22.9,21.4,-39.7c0,0,22.9,-18.3,96.2,-22.9L330,0Z" 
	id="f0_k"
	transform="scale(0.001,-0.001)" />

	<path d="M30.6,0l0,27.5l35.1,0c0,0,36.7,0,68.7,16.8c0,0,24.5,12.2,32.1,35.1c0,0,9.2,24.5,9.2,97.8l0,657c0,0,0,96.2,-19.9,119.1c0,0,-27.5,30.6,-90.1,30.6l-35.1,0l0,27.5l779.1,0L821.9,789.9l-29,0c0,0,-16.8,79.4,-35.1,108.4c0,0,-19.9,30.6,-56.5,45.9c0,0,-30.6,10.7,-105.5,10.7l-278,0l0,-398.8l223,0c0,0,87.1,0,116.1,26c0,0,38.2,33.6,42.8,120.7l27.5,0l0,-352.9l-27.5,0c0,0,-10.7,74.8,-21.4,94.7c0,0,-12.2,27.5,-42.7,41.2c0,0,-32.1,15.3,-94.8,15.3l-223,0l0,-333c0,0,0,-67.3,6.1,-81c0,0,6.1,-15.3,21.4,-22.9c0,0,15.3,-9.2,56.5,-9.2l171.1,0c0,0,87.1,0,125.3,10.7c0,0,38.2,12.2,74.9,47.4c0,0,45.8,45.8,94.7,140.5l29,0L809.7,0Z" 
	id="f0_o"
	transform="scale(0.001,-0.001)" />

	<path d="M340.7,-19.8c0,0,-116.1,0,-201.7,96.2c0,0,-87.1,97.8,-87.1,264.3c0,0,0,160.4,94.8,261.2c0,0,96.2,100.9,230.7,100.9c0,0,100.8,0,165,-53.5c0,0,65.7,-53.5,65.7,-110c0,0,0,-29,-18.4,-45.8c0,0,-18.3,-18.4,-50.4,-18.4c0,0,-44.3,0,-67.2,29.1c0,0,-12.2,15.2,-16.8,58c0,0,-4.6,44.3,-30.6,68.8c0,0,-25.9,21.4,-71.8,21.4c0,0,-74.8,0,-120.7,-55c0,0,-59.6,-73.4,-59.6,-192.5c0,0,0,-122.3,59.6,-215.5c0,0,59.6,-94.7,162,-94.7c0,0,73.3,0,131.4,50.4c0,0,41.2,33.7,79.4,123.8l22.9,-10.7c0,0,-27.5,-134.4,-108.5,-206.3c0,0,-80.9,-71.7,-178.7,-71.7Z" 
	id="f0_u"
	transform="scale(0.001,-0.001)" />

	<path d="M81,-253.5l0,32.1c0,0,77.9,25.9,119.1,79.4c0,0,42.8,53.5,42.8,113.1c0,0,0,13.7,-7.6,24.4c0,0,-4.6,4.5,-10.7,4.5c0,0,-7.7,0,-35.2,-13.7c0,0,-13.7,-6.1,-29,-6.1c0,0,-35.1,0,-56.5,19.8C103.9,0,81,21.4,81,59.6c0,0,0,36.7,27.5,62.6c0,0,29,26,68.7,26c0,0,48.9,0,87.1,-42.8c0,0,39.7,-42.8,39.7,-111.4c0,0,0,-77.9,-53.4,-143.6c0,0,-53.5,-65.7,-169.6,-103.9Z" 
	id="f0_5"
	transform="scale(0.001,-0.001)" />

	<path d="M404.9,30.6c0,0,71.8,0,119.1,59.5c0,0,47.4,61.2,47.4,206.3c0,0,0,181.8,-77.9,285.7c0,0,-53.5,71.8,-136,71.8c0,0,-39.7,0,-79.4,-22.9c0,0,-39.8,-24.5,-64.2,-82.5c0,0,-24.5,-59.6,-24.5,-151.3c0,0,0,-149.7,59.6,-258.2c0,0,59.6,-108.4,155.9,-108.4ZM372.8,-19.8c0,0,-154.3,0,-246,120.6c0,0,-76.4,103.9,-76.4,233.8c0,0,0,93.2,45.9,186.4c0,0,47.3,93.2,123.7,137.5c0,0,76.4,44.3,160.4,44.3c0,0,155.9,0,250.6,-117.7c0,0,79.4,-100.8,79.4,-232.2c0,0,0,-91.6,-44.3,-184.8c0,0,-44.3,-94.8,-120.7,-140.6c0,0,-77.9,-47.3,-172.6,-47.3Z" 
	id="f0_14"
	transform="scale(0.001,-0.001)" />

	<path d="M473.6,-325.3c0,0,-113,56.5,-187.9,132.9c0,0,-106.9,106.9,-165,253.5c0,0,-58.1,146.7,-58.1,304c0,0,0,232.3,113.1,421.7c0,0,114.6,191,297.9,273.5l0,-32.1c0,0,-91.7,-50.4,-149.7,-137.5c0,0,-59.6,-88.6,-88.6,-223.1c0,0,-29,-135.9,-29,-282.6c0,0,0,-160.4,24.4,-290.3c0,0,19.9,-100.7,47.4,-163.4c0,0,27.5,-62.6,73.3,-119.1c0,0,47.4,-58.1,122.2,-110l0,-27.5Z" 
	id="f0_3"
	transform="scale(0.001,-0.001)" />

	<path d="M56.5,821.9l-32.1,6.2l244.5,284.1L496.5,828.1l-25.9,-1.6L267.4,985.4L56.5,821.9Z" 
	id="f1_5"
	transform="scale(0.001,-0.001)" />

	<path d="M33.6,-325.3l0,27.5c0,0,91.7,50.4,151.3,137.5c0,0,59.5,88.6,87,222.9c0,0,29.1,134.5,29.1,282.7c0,0,0,158.9,-24.5,290.3c0,0,-18.3,102.3,-45.8,163.4c0,0,-29,62.7,-74.9,119.2c0,0,-45.8,58.1,-122.2,110l0,32.1c0,0,113.1,-56.5,187.9,-132.9c0,0,107,-108.5,165,-255.2c0,0,58.1,-146.6,58.1,-305.5c0,0,0,-230.7,-113.1,-420.1c0,0,-113,-190.9,-297.9,-271.9Z" 
	id="f0_4"
	transform="scale(0.001,-0.001)" />

	<path d="M27,352l0,62l804,0l0,-62Zm0,245l0,61l804,0l0,-61Z" 
	id="f0_j"
	transform="scale(0.001,-0.001)" />

	<path d="M163,218l0,95l885,0l0,-95Zm0,371l0,96l885,0l0,-96Z" 
	id="f2_5"
	transform="scale(0.001,-0.001)" />

	<path d="M246,-16.7c0,0,-90.2,0,-131.4,28.9c0,0,-42.8,30.6,-42.8,68.8c0,0,0,19.8,16.8,35.1c0,0,18.3,16.8,44.3,16.8c0,0,19.9,0,33.6,-4.6c0,0,15.3,-6.1,50.4,-32c0,0,55,-38.2,113.1,-38.2c0,0,87.1,0,152.8,65.7c0,0,65.7,65.6,65.7,161.9c0,0,0,91.7,-58.1,171.1c0,0,-59.6,79.5,-163.5,122.2c0,0,-80.9,33.6,-221.5,38.2l194,394.2l363.7,0L603.5,884.6l-304.1,0l-65.6,-136c0,0,197,-29,313.1,-146.7c0,0,99.4,-102.3,99.4,-239.8c0,0,0,-79.5,-32.1,-146.7c0,0,-33.6,-68.7,-82.5,-116.1c0,0,-48.9,-47.4,-110,-76.4c0,0,-85.6,-39.6,-175.7,-39.6Z" 
	id="f0_d"
	transform="scale(0.001,-0.001)" />

	<path d="M378.9,29c0,0,39.7,0,82.5,35.2c0,0,44.3,36.6,67.2,122.2c0,0,33.6,128.3,33.6,360.5c0,0,0,174.2,-35.1,288.8c0,0,-27.5,87.1,-70.3,122.2c0,0,-30.5,24.5,-73.3,24.5c0,0,-50.4,0,-90.2,-45.9c0,0,-53.4,-61.1,-73.3,-194c0,0,-19.9,-132.9,-19.9,-262.8c0,0,0,-207.8,52,-340.7c0,0,42.8,-110,126.8,-110Zm-1.5,-45.7c0,0,-145.2,0,-241.4,169.5c0,0,-81,143.6,-81,346.8c0,0,0,172.6,51.9,297.9c0,0,52,125.3,139.1,186.4c0,0,67.2,47.4,137.5,47.4c0,0,117.6,0,209.3,-117.7c0,0,116.1,-148.2,116.1,-398.7c0,0,0,-175.7,-50.4,-298c0,0,-52,-123.7,-129.9,-178.7c0,0,-79.4,-54.9,-151.2,-54.9Z" 
	id="f0_8"
	transform="scale(0.001,-0.001)" />

	<path d="M543.9,29c0,0,143.6,0,235.3,111.6c0,0,93.2,111.5,93.2,349.8c0,0,0,259.7,-102.4,388.1c0,0,-81,100.8,-226.1,100.8c0,0,-136,0,-218.5,-100.8c0,0,-102.3,-125.3,-102.3,-366.7c0,0,0,-247.5,106.9,-381.9C330,129.9,411,29,543.9,29Zm1.5,-51.8c0,0,-207.8,0,-349.8,148.1c0,0,-142.1,148.2,-142.1,383.5c0,0,0,241.3,163.4,392.6c0,0,142.1,132.9,340.7,132.9c0,0,197.1,0,340.7,-149.7c0,0,145.2,-149.7,145.2,-374.3c0,0,0,-229.2,-145.2,-380.4c0,0,-145.1,-152.7,-352.9,-152.7Z" 
	id="f0_q"
	transform="scale(0.001,-0.001)" />

	<path d="M398.8,61.1c0,0,67.2,0,131.3,67.2l0,351.4c0,0,-4.5,52,-27.5,93.2c0,0,-22.9,41.3,-59.5,62.7c0,0,-36.7,21.3,-71.8,21.3c0,0,-65.7,0,-117.7,-58c0,0,-67.2,-77.9,-67.2,-227.6c0,0,0,-149.8,65.7,-229.2c0,0,65.7,-81,146.7,-81ZM328.5,-19.8c0,0,-111.6,0,-194.1,91.6c0,0,-84,93.2,-84,241.4c0,0,0,146.7,91.7,267.4c0,0,93.2,122.2,238.3,122.2c0,0,90.2,0,149.7,-56.5l0,125.2c0,0,0,117.7,-6.1,143.6c0,0,-6.1,27.5,-16.8,36.7c0,0,-12.2,10.7,-30.5,10.7c0,0,-19.9,0,-52,-12.2l-9.1,26l203.2,84l33.6,0l0,-789.9c0,0,0,-120.7,6.1,-146.6c0,0,6.1,-27.5,18.3,-36.7c0,0,12.2,-10.7,27.5,-10.7c0,0,21.4,0,55,12.2l7.6,-26L563.8,-19.8l-33.7,0l0,96.2c0,0,-50.4,-52,-97.7,-73.3c0,0,-48.9,-22.9,-103.9,-22.9Z" 
	id="f0_v"
	transform="scale(0.001,-0.001)" />

	<path d="M478.2,469c0,0,-3.1,65.7,-15.3,91.7c0,0,-18.3,42.8,-55,65.7c0,0,-38.2,24.4,-77.9,24.4c0,0,-62.6,0,-111.5,-47.3c0,0,-48.9,-48.9,-56.6,-134.5ZM354.4,-19.8c0,0,-123.7,0,-210.8,94.7c0,0,-87.1,94.7,-87.1,256.6c0,0,0,175.7,88.6,273.5c0,0,90.2,97.8,226.2,97.8c0,0,114.5,0,187.9,-74.9c0,0,74.8,-76.4,74.8,-203.2l-472.1,0c0,0,-1.5,-151.2,73.4,-238.3c0,0,74.8,-87.1,175.7,-87.1c0,0,67.2,0,116.1,36.7c0,0,50.4,38.2,84,126.8L634,249c0,0,-15.2,-102.3,-90.1,-184.8c0,0,-76.4,-84,-189.5,-84Zm-82.5,799l78,256.6l168,0L297.9,779.2Z" 
	id="f0_1d"
	transform="scale(0.001,-0.001)" />

	<path d="M290.3,-19.8c0,0,-56.5,0,-97.8,32c0,0,-42.8,32.1,-59.6,84.1c0,0,-16.8,53.4,-16.8,148.1l0,305.6c0,0,0,48.9,-10.7,67.2c0,0,-10.7,18.4,-30.5,27.5c0,0,-19.9,10.7,-74.9,10.7l0,27.5l239.9,0l0,-458.3c0,0,0,-94.7,33.6,-123.8c0,0,33.6,-30.5,79.4,-30.5c0,0,32.1,0,73.4,19.8c0,0,41.2,19.9,96.2,76.4l0,388.1c0,0,0,58,-21.4,77.9c0,0,-21.4,21.4,-88.6,22.9l0,27.5l233.8,0l0,-414c0,0,0,-119.2,4.5,-145.1c0,0,6.1,-27.5,18.4,-36.7c0,0,12.2,-10.7,29,-10.7c0,0,22.9,0,51.9,12.2l10.7,-26L556.1,-19.8l-33.6,0l0,143.6c0,0,-87.1,-96.3,-132.9,-119.2c0,0,-47.4,-24.4,-99.3,-24.4Z" 
	id="f0_1a"
	transform="scale(0.001,-0.001)" />

	<path d="M381.9,84c0,0,44.4,0,78,18.4c0,0,35.1,19.8,68.7,62.6l0,320.8c0,0,0,55,-13.7,87.1c0,0,-15.3,32.1,-52,55c0,0,-38.2,22.9,-84,22.9c0,0,-84,0,-143.6,-70.2c0,0,-59.6,-71.8,-59.6,-215.5c0,0,0,-139,59.6,-209.3c0,0,61.1,-71.8,146.6,-71.8Zm36.7,-409.3l0,27.5l13.8,0c0,0,42.7,0,64.1,12.2c0,0,13.8,7.6,22.9,29c0,0,9.2,21.4,9.2,82.5l0,291.7c0,0,-67.2,-80.9,-117.6,-108.4c0,0,-52,-29,-105.4,-29c0,0,-99.3,0,-177.3,88.6c0,0,-77.9,90.1,-77.9,241.3c0,0,0,174.2,102.4,282.7c0,0,102.3,110,249,110c0,0,42.8,0,77.9,-12.2c0,0,35.2,-12.3,64.2,-35.2c0,0,42.8,19.9,82.5,47.4l26,0l0,-876.9c0,0,0,-65.7,7.6,-84c0,0,9.2,-19.9,27.5,-29c0,0,19.9,-10.7,74.9,-10.7l0,-27.5Z" 
	id="f0_16"
	transform="scale(0.001,-0.001)" />

	<path d="M404.9,22.9c0,0,64.1,0,114.5,61.1c0,0,52,61.1,52,174.2c0,0,0,128.3,-50.4,221.5c0,0,-50.4,93.2,-143.6,93.2c0,0,-29.1,0,-61.1,-12.2c0,0,-32.1,-12.2,-96.3,-51.9c0,0,-13.7,-99.4,-13.7,-162c0,0,0,-71.8,25.9,-155.8c0,0,27.5,-84.1,79.5,-132.9c0,0,38.2,-35.2,93.2,-35.2Zm-23,-39.6c0,0,-102.3,0,-175.6,67.1c0,0,-142.1,132.9,-142.1,345.3c0,0,0,136,55,258.2c0,0,55,122.2,155.8,216.9c0,0,100.8,94.8,192.5,126.8c0,0,93.2,33.7,172.6,33.7l44.3,0l0,-27.5c0,0,-99.3,-9.2,-160.4,-38.2c0,0,-62.6,-30.6,-123.7,-90.2c0,0,-61.1,-61.1,-100.9,-134.4c0,0,-39.7,-74.9,-67.2,-177.2c0,0,108.5,73.3,215.4,73.3c0,0,103.9,0,180.3,-82.5c0,0,76.4,-84,76.4,-215.4c0,0,0,-126.8,-76.4,-230.7c0,0,-93.2,-125.2,-246,-125.2Z" 
	id="f0_e"
	transform="scale(0.001,-0.001)" />

	<path d="M301,637.1c0,0,68.7,0,117.6,48.9c0,0,48.9,48.9,48.9,117.6c0,0,0,70.3,-47.4,117.7c0,0,-48.8,48.8,-119.1,48.8c0,0,-68.8,0,-117.7,-47.3c0,0,-48.9,-48.9,-48.9,-119.2c0,0,0,-68.7,48.9,-117.6c0,0,48.9,-48.9,117.7,-48.9Zm0,-62.7c0,0,-94.7,0,-162,67.3c0,0,-67.2,67.2,-67.2,161.9c0,0,0,94.7,67.2,162c0,0,67.3,67.2,162,67.2c0,0,96.2,0,163.4,-67.2c0,0,67.3,-67.3,67.3,-162c0,0,0,-94.7,-67.3,-161.9c0,0,-67.2,-67.3,-163.4,-67.3Z" 
	id="f0_1f"
	transform="scale(0.001,-0.001)" />

	<path d="M236.8,-16.7c0,0,-102.4,0,-139,24.3c0,0,-36.7,24.5,-36.7,53.5c0,0,0,21.4,16.8,38.2c0,0,18.4,16.8,42.8,16.8c0,0,18.3,0,38.2,-6.1c0,0,12.2,-4.6,56.5,-27.5c0,0,45.9,-22.9,62.7,-27.5c0,0,27.5,-9.2,59.5,-9.2c0,0,74.9,0,131.4,58.1c0,0,56.6,59.6,56.6,140.5c0,0,0,59.6,-26,114.6c0,0,-19.9,42.8,-42.8,64.2c0,0,-32.1,29,-87.1,53.5c0,0,-56.5,24.4,-114.6,24.4l-24.4,0l0,22.9c0,0,59.6,7.7,119.2,42.8c0,0,59.5,35.1,85.5,84c0,0,27.5,48.9,27.5,108.5c0,0,0,76.4,-47.3,123.8c0,0,-48.9,47.3,-120.7,47.3c0,0,-116.1,0,-194.1,-123.7L76.4,818.9c0,0,44.3,102.4,110,157.4c0,0,65.7,55,163.5,55c0,0,122.2,0,187.9,-78c0,0,48.9,-59.5,48.9,-126.8c0,0,0,-110,-139.1,-227.6c0,0,93.2,-36.7,140.6,-103.9c0,0,47.4,-68.7,47.4,-160.4c0,0,0,-131.4,-82.5,-227.7c0,0,-108.5,-123.6,-316.3,-123.6Z" 
	id="f0_b"
	transform="scale(0.001,-0.001)" />

	<path d="M546.9,-22.8c0,0,-252,0,-389.5,184.7C157.4,161.9,55,301,55,488.9c0,0,0,151.2,67.2,278c0,0,67.2,126.9,186.4,197.1c0,0,119.2,70.3,261.3,70.3c0,0,108.4,0,215.4,-53.5c0,0,32.1,-16.8,44.3,-16.8c0,0,21.4,0,35.1,13.8c0,0,19.9,19.8,27.5,56.5l27.5,0L942.6,690.6l-22.9,0c0,0,-47.3,154.3,-132.9,221.5c0,0,-85.5,68.7,-206.2,68.7c0,0,-100.9,0,-181.8,-50.4c0,0,-81,-51.9,-126.9,-163.5c0,0,-47.3,-113,-47.3,-279.5c0,0,0,-137.5,44.3,-236.8c0,0,44.3,-100.9,131.4,-154.3c0,0,88.6,-55,203.2,-55c0,0,97.8,0,172.6,42.7c0,0,76.4,42.8,166.5,168.1l23,-15.3c0,0,-76.4,-136,-177.3,-197.1c0,0,-102.3,-62.5,-241.4,-62.5Z" 
	id="f0_m"
	transform="scale(0.001,-0.001)" />

	<path d="M22.9,0l0,26c0,0,47.4,0,65.7,9.1c0,0,18.3,10.7,27.5,32.1c0,0,10.7,22.9,10.7,87.1l0,259.7c0,0,0,113.1,-6.1,146.7c0,0,-6.1,24.4,-16.8,33.6c0,0,-10.7,9.2,-30.6,9.2c0,0,-21.4,0,-50.4,-10.7l-10.7,26l206.3,84l32.1,0l0,-145.2c0,0,73.3,74.9,87,85.6c0,0,33.7,27.5,71.8,42.8c0,0,39.8,16.8,78,16.8c0,0,64.1,0,110,-36.7c0,0,45.8,-38.2,62.6,-108.5c0,0,76.4,88.7,128.3,116.2c0,0,53.5,29,110,29c0,0,55,0,96.3,-27.5c0,0,42.8,-29,67.2,-91.7c0,0,16.8,-42.8,16.8,-136l0,-293.3c0,0,0,-64.2,9.2,-88.6c0,0,7.6,-16.8,27.5,-27.5c0,0,19.8,-12.2,65.7,-12.2l0,-26L843.3,0l0,26l15.3,0c0,0,42.8,0,67.2,16.8c0,0,18.4,12.2,26,38.2c0,0,3.1,13.7,3.1,73.3l0,293.3c0,0,0,84.1,-21.4,117.7c0,0,-29.1,47.3,-93.2,47.3c0,0,-39.7,0,-79.5,-19.8c0,0,-39.7,-19.9,-96.2,-73.4l-1.5,-7.6l1.5,-32.1l0,-325.4c0,0,0,-70.3,7.6,-87.1c0,0,7.7,-18.3,29.1,-29c0,0,22.9,-12.2,74.8,-12.2l0,-26L430.8,0l0,26c0,0,56.6,0,78,13.7c0,0,21.3,13.8,29,39.7c0,0,3,13.8,3,74.9l0,293.3c0,0,0,84.1,-24.4,120.7c0,0,-32.1,47.4,-91.7,47.4c0,0,-39.7,0,-79.4,-21.4c0,0,-61.1,-33.6,-94.7,-74.9l0,-365.1c0,0,0,-67.2,9.1,-87.1c0,0,9.2,-21.4,27.5,-30.5c0,0,18.4,-10.7,73.4,-10.7l0,-26Z" 
	id="f0_12"
	transform="scale(0.001,-0.001)" />

	<path d="M484.3,51.9c0,0,136,0,206.3,61.2c0,0,71.8,61.1,71.8,149.7c0,0,0,59.6,-32.1,113c0,0,-32.1,55,-103.9,85.6c0,0,-73.3,32.1,-180.3,32.1c0,0,-45.8,0,-77.9,-1.6c0,0,-33.6,-1.5,-53.5,-4.5l0,-415.6c0,0,85.6,-19.9,169.6,-19.9Zm-29,493.5c0,0,108.5,0,163.5,22.9c0,0,55,24.5,84,71.8c0,0,29,48.9,29,107c0,0,0,88.6,-71.8,151.2c0,0,-73.3,62.7,-212.4,62.7c0,0,-73.3,0,-132.9,-16.8l0,-388.1c0,0,27.5,-6.1,62.7,-7.6c0,0,35.1,-3.1,77.9,-3.1ZM24.4,0l0,27.5l38.2,0c0,0,64.2,0,91.7,39.7c0,0,16.8,26,16.8,111.6l0,652.3c0,0,0,94.7,-21.4,119.2c0,0,-29,33.6,-87.1,33.6l-38.2,0l0,27.5l437,0c0,0,122.2,0,197.1,-18.3c0,0,111.5,-27.5,169.6,-94.8c0,0,59.5,-68.7,59.5,-157.3c0,0,0,-76.4,-45.8,-136c0,0,-47.4,-61.1,-137.5,-90.1c0,0,105.4,-21.4,157.4,-70.3c0,0,73.3,-68.8,73.3,-168.1c0,0,0,-76.4,-47.4,-145.1c0,0,-48.8,-68.8,-131.3,-99.3C756.3,32.1,672.2,0,502.6,0Z" 
	id="f0_l"
	transform="scale(0.001,-0.001)" />

	<path d="M378.9,435.4c0,0,33.6,0,81,16.8c0,0,47.3,16.8,82.5,45.9c0,0,13.7,97.7,13.7,155.8c0,0,0,71.8,-24.4,155.8c0,0,-24.5,84.1,-70.3,128.4c0,0,-45.8,45.8,-102.4,45.8c0,0,-67.2,0,-116.1,-59.6c0,0,-50.4,-61.1,-50.4,-178.7c0,0,0,-157.4,65.7,-246c0,0,48.9,-64.2,120.7,-64.2ZM79.4,-19.8l0,25.9c0,0,97.8,1.5,180.3,44.3c0,0,84.1,44.3,162,152.8c0,0,77.9,110,108.4,239.9c0,0,-117.6,-74.9,-212.3,-74.9c0,0,-105.4,0,-181.8,82.5c0,0,-76.4,82.5,-76.4,218.5c0,0,0,132.9,76.4,236.8c0,0,91.6,125.3,239.8,125.3c0,0,123.8,0,212.4,-102.4c0,0,110,-128.3,110,-314.7c0,0,0,-169.6,-82.5,-314.8c0,0,-84,-145.1,-232.2,-241.3c0,0,-119.2,-77.9,-261.3,-77.9Z" 
	id="f0_h"
	transform="scale(0.001,-0.001)" />

	<path d="M317.8,256.7c0,0,81,0,131.4,51.9c0,0,53.4,50.4,53.4,132.9c0,0,0,81,-53.4,131.4c0,0,-52,53.5,-131.4,53.5c0,0,-81,0,-132.9,-53.5c0,0,-52,-50.4,-52,-131.4c0,0,0,-82.5,52,-132.9c0,0,51.9,-51.9,132.9,-51.9Zm0,-35.2c0,0,-97.8,0,-158.9,61.1c0,0,-62.6,59.6,-62.6,157.4c0,0,0,99.3,62.6,160.4c0,0,61.1,62.7,158.9,62.7c0,0,96.2,0,158.9,-61.2c0,0,62.6,-62.6,62.6,-160.4c0,0,0,-96.2,-62.6,-157.3c0,0,-62.7,-62.7,-158.9,-62.7Z" 
	id="f1_4"
	transform="scale(0.001,-0.001)" />

	<path d="M380,85l0,298L85,383l0,125l295,0l0,298l128,0l0,-298l297,0l0,-125l-297,0L508,85Z" 
	id="f2_4"
	transform="scale(0.001,-0.001)" />

	<path d="M163,404l0,72l885,0l0,-72Z" 
	id="f1_2"
	transform="scale(0.001,-0.001)" />

	<path d="M397.2,22.9c0,0,74.9,0,120.7,58.1c0,0,59.6,76.4,59.6,213.9c0,0,0,157.3,-68.7,241.4c0,0,-47.4,58,-113.1,58c0,0,-35.1,0,-70.3,-18.3c0,0,-27.5,-12.2,-88.6,-79.5l0,-255.1c0,0,0,-82.5,6.1,-110c0,0,10.7,-42.8,50.4,-74.9c0,0,41.3,-33.6,103.9,-33.6ZM-4.5,-325.3l0,27.5l16.7,0c0,0,1,-0.1,2.8,-0.1c9.6,0,42.9,1.1,67.5,15.4c0,0,13.8,7.6,21.4,25.9c0,0,9.2,18.4,9.2,93.2l0,644.7c0,0,0,65.6,-6.2,84c0,0,-6.1,18.3,-18.3,27.5c0,0,-13.7,9.1,-36.7,9.1c0,0,-18.3,0,-45.8,-10.6L0,614.2l207.8,85.5l29,0l0,-158.9c0,0,52,90.2,105.4,125.3c0,0,53.5,36.7,113.1,36.7c0,0,102.3,0,171.1,-81c0,0,84,-97.8,84,-256.7c0,0,0,-175.7,-100.8,-291.8c0,0,-84,-93.1,-210.8,-93.1c0,0,-55,0,-94.8,15.3c0,0,-30.5,9.1,-67.2,42.7l0,-206.2c0,0,0,-70.2,7.6,-88.6c0,0,9.2,-19.8,30.6,-30.5c0,0,21.4,-10.7,76.4,-10.7l0,-27.5Z" 
	id="f0_15"
	transform="scale(0.001,-0.001)" />

	<path d="M478.2,469c0,0,-3.1,65.7,-15.3,91.7c0,0,-18.3,42.8,-55,65.7c0,0,-38.2,24.4,-77.9,24.4c0,0,-62.6,0,-111.5,-47.3c0,0,-48.9,-48.9,-56.6,-134.5ZM354.4,-19.8c0,0,-123.7,0,-210.8,94.7c0,0,-87.1,94.7,-87.1,256.6c0,0,0,175.7,88.6,273.5c0,0,90.2,97.8,226.2,97.8c0,0,114.5,0,187.9,-74.9c0,0,74.8,-76.4,74.8,-203.2l-472.1,0c0,0,-1.5,-151.2,73.4,-238.3c0,0,74.8,-87.1,175.7,-87.1c0,0,67.2,0,116.1,36.7c0,0,50.4,38.2,84,126.8L634,249c0,0,-15.2,-102.3,-90.1,-184.8c0,0,-76.4,-84,-189.5,-84Zm76.4,799L212.4,1035.8l166.5,0L456.8,779.2Z" 
	id="f0_1e"
	transform="scale(0.001,-0.001)" />

	<path d="M213.9,-19.8c0,0,-35.1,0,-59.6,22.9c0,0,-24.4,24.4,-24.4,58c0,0,0,33.6,24.4,58.1c0,0,24.5,25.9,59.6,25.9c0,0,35.1,0,58,-24.4c0,0,24.5,-26,24.5,-59.6c0,0,0,-33.6,-24.5,-56.5c0,0,-24.4,-24.4,-58,-24.4Zm1.5,557.6c0,0,-35.1,0,-59.6,24.4c0,0,-24.4,24.5,-24.4,58.1c0,0,0,35.1,24.4,58c0,0,24.5,24.5,59.6,24.5c0,0,33.6,0,58.1,-22.9c0,0,24.4,-24.5,24.4,-59.6c0,0,0,-33.6,-24.4,-58.1c0,0,-24.5,-24.4,-58.1,-24.4Z" 
	id="f0_i"
	transform="scale(0.001,-0.001)" />

	<path d="M392.6,21.4c0,0,81,0,128.4,45.8c0,0,48.9,45.9,48.9,110c0,0,0,53.5,-29.1,96.3c0,0,-51.9,79.4,-213.9,206.2c0,0,-61.1,-51.9,-90.1,-113c0,0,-30.5,-61.1,-30.5,-132.9c0,0,0,-96.3,51.9,-154.4c0,0,53.5,-58,134.4,-58Zm16.8,566.8c0,0,90.2,81,113.1,126.8c0,0,24.4,47.4,24.4,106.9c0,0,0,78,-44.3,122.3c0,0,-44.3,44.3,-120.7,44.3c0,0,-74.8,0,-122.2,-44.3c0,0,-48.9,-44.3,-48.9,-102.4c0,0,0,-39.7,19.9,-77.9c0,0,19.9,-38.2,56.5,-73.3L409.4,588.2Zm-29,-604.9c0,0,-143.6,0,-224.6,88.5c0,0,-64.1,71.8,-64.1,157.4c0,0,0,67.2,44.3,132.9c0,0,45.8,67.2,155.8,146.7c0,0,-119.2,97.7,-154.3,157.3c0,0,-35.1,61.1,-35.1,125.3c0,0,0,97.8,76.4,168c0,0,76.3,71.9,201.6,71.9c0,0,123.8,0,197.1,-65.7c0,0,74.9,-67.3,74.9,-151.3c0,0,0,-56.5,-39.8,-116.1c0,0,-41.2,-59.6,-168,-139c0,0,131.4,-100.9,174.2,-158.9c0,0,56.5,-76.4,56.5,-160.4c0,0,0,-107,-81,-181.8c0,0,-82.5,-74.8,-213.9,-74.8Z" 
	id="f0_g"
	transform="scale(0.001,-0.001)" />

	<path d="M61,285l0,113l385,0l0,-113Z" 
	id="f0_6"
	transform="scale(0.001,-0.001)" />

	<path d="M426.3,-358.9c0,0,-299.5,250.5,-299.5,835.6c0,0,0,595.8,299.5,840.2l0,-38.1c0,0,-217,-213.9,-217,-802.1c0,0,0,-591.2,217,-799l0,-36.6Z" 
	id="f2_2"
	transform="scale(0.001,-0.001)" />

	<path d="M301,637.1c0,0,68.7,0,117.6,48.9c0,0,48.9,48.9,48.9,117.6c0,0,0,70.3,-47.4,117.7c0,0,-48.8,48.8,-119.1,48.8c0,0,-68.8,0,-117.7,-47.3c0,0,-48.9,-48.9,-48.9,-119.2c0,0,0,-68.7,48.9,-117.6c0,0,48.9,-48.9,117.7,-48.9Zm0,-62.7c0,0,-94.7,0,-162,67.3c0,0,-67.2,67.2,-67.2,161.9c0,0,0,94.7,67.2,162c0,0,67.3,67.2,162,67.2c0,0,96.2,0,163.4,-67.2c0,0,67.3,-67.3,67.3,-162c0,0,0,-94.7,-67.3,-161.9c0,0,-67.2,-67.3,-163.4,-67.3Z" 
	id="f3_2"
	transform="scale(0.001,-0.001)" />

	<path d="M91.7,-358.9l0,36.6c0,0,218.4,209.3,218.4,799c0,0,0,583.6,-218.4,802.1l0,38.1c0,0,161.9,-129.8,236.8,-383.4c0,0,61.1,-200.2,61.1,-456.8c0,0,0,-592.7,-297.9,-835.6Z" 
	id="f2_3"
	transform="scale(0.001,-0.001)" />

	<path d="M275,-19.8l301,909l-278.1,0c0,0,-84,0,-119.1,-19.9c0,0,-62.7,-35.1,-100.9,-106.9l-21.4,9.1l96.3,239.9l542.3,0l0,-29L357.5,-19.8Z" 
	id="f0_f"
	transform="scale(0.001,-0.001)" />

	<path d="M62.6,0l0,26l30.6,0c0,0,30.6,0,55,15.3c0,0,24.4,15.2,33.6,39.7c0,0,9.2,25.9,9.2,99.3l0,449.1l-132.9,0l0,53.5l132.9,0l0,44.3c0,0,0,102.4,32.1,172.7c0,0,33.6,71.8,100.8,114.5c0,0,67.2,44.4,152.8,44.4c0,0,77.9,0,143.6,-50.5c0,0,42.8,-33.6,42.8,-76.4c0,0,0,-21.3,-18.4,-41.2c0,0,-19.8,-19.9,-42.8,-19.9c0,0,-16.8,0,-35.1,12.3c0,0,-19.9,12.2,-47.4,51.9c0,0,-27.5,41.3,-50.4,55c0,0,-24.4,15.3,-51.9,15.3c0,0,-35.2,0,-58.1,-18.4c0,0,-24.4,-18.3,-33.6,-56.5c0,0,-10.7,-39.7,-10.7,-198.6l0,-48.9l175.7,0l0,-53.5l-175.7,0l0,-449.1c0,0,0,-96.3,19.9,-120.7c0,0,27.5,-33.6,74.8,-33.6l61.2,0l0,-26Z" 
	id="f0_x"
	transform="scale(0.001,-0.001)" />

	<path d="M450.7,372.8l0,501.1L96.3,372.8ZM450.7,0l0,265.8l-427.8,0l0,96.3l469,669.2l82.5,0l0,-658.5l136,0l0,-107l-136,0L574.4,0Z" 
	id="f0_c"
	transform="scale(0.001,-0.001)" />

	<path d="M435.4,501.1c0,0,76.4,0,132.9,59.6c0,0,56.6,59.6,56.6,155.8c0,0,0,65.7,-26,120.7c0,0,-27.5,56.6,-76.4,84.1c0,0,-48.9,29,-111.5,29c0,0,-38.2,0,-97.8,-13.8l0,-421.6c0,0,38.2,-6.1,68.7,-9.2c0,0,30.6,-4.6,53.5,-4.6ZM24.4,0l0,27.5l38.2,0c0,0,64.2,0,91.7,41.3c0,0,15.3,22.9,15.3,110l0,652.3c0,0,0,96.3,-19.9,119.2c0,0,-29,33.6,-87.1,33.6l-38.2,0l0,27.5l371.3,0c0,0,136,0,213.9,-27.5c0,0,77.9,-29,131.4,-94.7c0,0,53.4,-67.3,53.4,-157.4c0,0,0,-125.3,-80.9,-201.7c0,0,-81,-77.9,-230.7,-77.9c0,0,-36.7,0,-79.5,4.6c0,0,-42.7,6.1,-90.1,16.8l0,-294.8c0,0,0,-96.3,19.9,-119.2c0,0,29,-32.1,85.5,-32.1l39.7,0L458.3,0Z" 
	id="f0_r"
	transform="scale(0.001,-0.001)" />

	<path d="M143.6,-328.4c0,0,-44.3,0,-71.8,24.5c0,0,-29,25.9,-29,58c0,0,0,32.1,19.8,50.4c0,0,21.4,19.9,58.1,19.9c0,0,24.4,0,67.2,-16.8c0,0,29,-10.7,36.7,-10.7c0,0,22.9,0,48.9,22.9c0,0,25.9,22.9,53.4,88.6L375.8,26L129.9,540.8c0,0,-10.7,24.5,-35.2,58.1c0,0,-19.8,26,-32.1,35.1c0,0,-16.8,12.3,-55,21.4l0,27.5l319.3,0l0,-27.5l-15.2,0c0,0,-33.6,0,-50.4,-13.7c0,0,-16.9,-15.3,-16.9,-38.2c0,0,0,-29.1,24.5,-79.5L435.4,178.8L588.2,556.1c0,0,12.2,30.6,12.2,61.1c0,0,0,13.8,-4.6,19.9c0,0,-6.1,7.6,-18.3,12.2c0,0,-13.7,6.1,-45.8,6.1l0,27.5l223,0l0,-27.5c0,0,-27.5,-3,-42.8,-12.2c0,0,-15.2,-9.2,-33.6,-33.6c0,0,-6.1,-10.7,-24.4,-58.1L375.8,-128.2c0,0,-41.2,-99.3,-105.4,-149.8c0,0,-65.7,-50.4,-126.8,-50.4Z" 
	id="f0_1b"
	transform="scale(0.001,-0.001)" />

	<path d="M19.9,0l0,26c0,0,44.3,0,71.8,13.7c0,0,13.7,7.7,22.9,29.1c0,0,9.2,21.3,9.2,85.5l0,617.2c0,0,0,117.7,-4.6,143.6c0,0,-6.1,27.5,-16.8,36.7c0,0,-12.3,10.7,-32.1,10.7c0,0,-15.3,0,-50.4,-12.2l-10.7,26l204.7,84l33.6,0l0,-499.6c0,0,82.5,90.1,131.4,116.1c0,0,48.9,26,97.8,26c0,0,58,0,99.3,-32.1c0,0,41.2,-32.1,61.1,-100.8c0,0,15.3,-47.4,15.3,-174.2l0,-241.4c0,0,0,-65.7,10.7,-90.1c0,0,6.1,-16.8,24.4,-27.5c0,0,18.3,-10.7,65.7,-10.7l0,-26L417.1,0l0,26l16.8,0c0,0,47.4,0,65.7,13.7c0,0,18.3,15.3,26,44.3c0,0,3,10.7,3,70.3l0,241.4c0,0,0,111.5,-10.7,146.7c0,0,-12.2,35.1,-38.2,51.9c0,0,-25.9,18.3,-61.1,18.3c0,0,-36.7,0,-76.4,-19.8c0,0,-39.7,-19.9,-94.7,-77.9l0,-360.6c0,0,0,-70.3,7.6,-87.1c0,0,7.7,-18.3,29.1,-29c0,0,21.4,-12.2,73.3,-12.2l0,-26Z" 
	id="f0_z"
	transform="scale(0.001,-0.001)" />

	<path d="M423.2,0L172.6,498.1L65.7,433.9L48.9,464.4L223.1,569.9l229.1,-463L791.4,1228.3l35.1,0L456.8,0Z" 
	id="f1_3"
	transform="scale(0.001,-0.001)" />

	<path d="M36.7,0l0,27.5l36.6,0c0,0,62.7,0,90.2,35.1c0,0,18.3,24.5,18.3,116.2l0,652.3c0,0,0,77.9,-9.2,102.4c0,0,-7.6,18.3,-30.5,32.1c0,0,-33.6,18.3,-68.8,18.3l-36.6,0l0,27.5l433.9,0l0,-27.5l-36.7,0c0,0,-61.1,0,-90.1,-36.7c0,0,-18.4,-24.4,-18.4,-116.1l0,-652.3c0,0,0,-78,9.2,-102.4c0,0,7.6,-18.3,32.1,-32.1c0,0,32.1,-16.8,67.2,-16.8l36.7,0L470.6,0Z" 
	id="f0_p"
	transform="scale(0.001,-0.001)" />

	<path d="M285.7,71.8c0,0,56.5,0,148.2,74.9l0,259.7c0,0,-113.1,-44.3,-145.1,-62.6c0,0,-59.6,-33.7,-84.1,-68.8c0,0,-25.9,-36.7,-25.9,-79.4c0,0,0,-53.5,32,-88.7c0,0,32.1,-35.1,74.9,-35.1ZM216.9,-13.7c0,0,-71.8,0,-117.6,47.3c0,0,-45.8,48.9,-45.8,126.8c0,0,0,50.4,22.9,87.1c0,0,30.5,50.4,105.4,94.7c0,0,76.4,45.9,252.1,110l0,26c0,0,0,102.4,-32.1,140.6c0,0,-32.1,38.1,-94.7,38.1c0,0,-47.4,0,-74.9,-24.4c0,0,-27.5,-26,-27.5,-59.6l1.6,-42.8c0,0,0,-33.6,-16.9,-51.9c0,0,-18.3,-19.9,-47.3,-19.9c0,0,-27.5,0,-44.3,19.9c0,0,-18.4,19.9,-18.4,53.5c0,0,0,64.1,65.7,117.6c0,0,65.7,53.5,184.9,53.5c0,0,90.1,0,148.2,-30.6c0,0,44.3,-22.9,65.7,-71.8c0,0,13.7,-32.1,13.7,-131.4l0,-232.2c0,0,0,-97.8,3.1,-119.2c0,0,4.6,-22.9,12.2,-30.5c0,0,9.2,-7.7,19.9,-7.7c0,0,12.2,0,21.4,6.2c0,0,15.2,9.1,59.6,53.4l0,-41.2c0,0,-82.5,-109.9,-158.9,-109.9c0,0,-36.7,0,-58.1,24.3c0,0,-21.4,24.5,-22.9,85.6c0,0,-105.4,-81,-131.4,-94.7c0,0,-41.2,-16.8,-85.6,-16.8ZM412.5,779.2l-220,256.6l166.5,0L438.5,779.2Z" 
	id="f0_1c"
	transform="scale(0.001,-0.001)" />


</defs>

<!-- Any embedded fonts defined here -->
<style type="text/css" ><![CDATA[

@font-face {
	font-family: TimesNewRomanPSMT_a;
	src: url("fonts/TimesNewRomanPSMT_a.woff") format("woff");
}

@font-face {
	font-family: OpenSymbol_c;
	src: url("fonts/OpenSymbol_c.woff") format("woff");
}

@font-face {
	font-family: TimesNewRomanPS-ItalicMT_d;
	src: url("fonts/TimesNewRomanPS-ItalicMT_d.woff") format("woff");
}

@font-face {
	font-family: OpenSymbol_b;
	src: url("fonts/OpenSymbol_b.woff") format("woff");
}

]]></style>

</svg>
