<?xml version="1.0" encoding="UTF-8" standalone="no"?>
<!DOCTYPE svg PUBLIC "-//W3C//DTD SVG 1.1//EN"
"http://www.w3.org/Graphics/SVG/1.1/DTD/svg11.dtd">


<!-- Page 1 -->
<svg x="0" y="0" width="720" height="1074" viewBox="0 0 720 1074" version="1.1" xmlns="http://www.w3.org/2000/svg" xmlns:xlink="http://www.w3.org/1999/xlink"
style="display: block;margin-left: auto;margin-right: auto;">
<defs>

<style type="text/css"><![CDATA[

.g2_1{
fill: none;
stroke: #000000;
stroke-width: 1;
stroke-linecap: butt;
stroke-linejoin: miter;
}
.g3_1{
fill: none;
stroke: #000000;
stroke-width: 1;
stroke-linecap: butt;
stroke-linejoin: round;
}
.g1_1{
fill: #FFFFFF;
}

.s6_1{
font-size: 18.33px;
font-family: CambriaMath_r;
fill: #000000;
}
.s34_1{
font-size: 18.55px;
font-family: 'Times New Roman', Times, serif;
fill: #000000;
}
.s44_1{
font-size: 18.34px;
font-family: Symbol_x;
fill: #000000;
}
.s13_1{
font-size: 27.33px;
font-family: Symbol_x;
fill: #000000;
}
.s32_1{
font-size: 10.80px;
font-style: italic;
font-family: 'Times New Roman', Times, serif;
fill: #000000;
}
.s1_1{
font-size: 21.45px;
font-family: Helvetica, Arial, sans-serif;
fill: #333333;
}
.s24_1{
font-size: 22.93px;
font-family: Symbol_x;
fill: #000000;
}
.s41_1{
font-size: 10.88px;
font-family: Symbol_x;
fill: #000000;
}
.s47_1{
font-size: 10.54px;
font-style: italic;
font-family: 'Times New Roman', Times, serif;
fill: #000000;
}
.s10_1{
font-size: 22.39px;
font-family: Symbol_x;
fill: #000000;
}
.s50_1{
font-size: 10.62px;
font-family: Symbol_x;
fill: #000000;
}
.s27_1{
font-size: 10.87px;
font-family: Symbol_x;
fill: #000000;
}
.s3_1{
font-size: 18.33px;
font-family: Times_e;
fill: #000000;
}
.s30_1{
font-size: 18.55px;
font-style: italic;
font-family: 'Times New Roman', Times, serif;
fill: #000000;
}
.s20_1{
font-size: 22.41px;
font-family: Symbol_x;
fill: #000000;
}
.s5_1{
font-size: 18.33px;
font-family: Times-Italic_l;
fill: #000000;
}
.s39_1{
font-size: 22.96px;
font-family: Symbol_x;
fill: #000000;
}
.s19_1{
font-size: 18.25px;
font-style: italic;
font-family: 'Times New Roman', Times, serif;
fill: #000000;
}
.s54_1{
font-size: 18.50px;
font-family: 'Times New Roman', Times, serif;
fill: #000000;
}
.s7_1{
font-size: 13.02px;
font-family: CambriaMath_r;
fill: #000000;
}
.s22_1{
font-size: 18.25px;
font-family: 'Times New Roman', Times, serif;
fill: #000000;
}
.s53_1{
font-size: 18.50px;
font-style: italic;
font-family: 'Times New Roman', Times, serif;
fill: #000000;
}
.s40_1{
font-size: 18.66px;
font-family: Symbol_x;
fill: #000000;
}
.s8_1{
font-size: 18.21px;
font-style: italic;
font-family: 'Times New Roman', Times, serif;
fill: #000000;
}
.s25_1{
font-size: 18.67px;
font-family: Symbol_x;
fill: #000000;
}
.s55_1{
font-size: 22.72px;
font-family: Symbol_x;
fill: #000000;
}
.s11_1{
font-size: 18.21px;
font-family: 'Times New Roman', Times, serif;
fill: #000000;
}
.s35_1{
font-size: 28.58px;
font-family: Symbol_x;
fill: #000000;
}
.s36_1{
font-size: 22.79px;
font-family: Symbol_x;
fill: #000000;
}
.s18_1{
font-size: 26.74px;
font-family: Symbol_x;
fill: #000000;
}
.s56_1{
font-size: 18.50px;
font-family: Symbol_x;
fill: #000000;
}
.s37_1{
font-size: 18.66px;
font-style: italic;
font-family: 'Times New Roman', Times, serif;
fill: #000000;
}
.s38_1{
font-size: 18.66px;
font-family: 'Times New Roman', Times, serif;
fill: #000000;
}
.s12_1{
font-size: 10.63px;
font-family: 'Times New Roman', Times, serif;
fill: #000000;
}
.s23_1{
font-size: 18.67px;
font-style: italic;
font-family: 'Times New Roman', Times, serif;
fill: #000000;
}
.s26_1{
font-size: 18.67px;
font-family: 'Times New Roman', Times, serif;
fill: #000000;
}
.s21_1{
font-size: 18.25px;
font-family: Symbol_x;
fill: #000000;
}
.s15_1{
font-size: 27.32px;
font-family: Symbol_x;
fill: #000000;
}
.s9_1{
font-size: 18.21px;
font-family: Symbol_x;
fill: #000000;
}
.s33_1{
font-size: 18.55px;
font-family: Symbol_x;
fill: #000000;
}
.s43_1{
font-size: 18.34px;
font-style: italic;
font-family: 'Times New Roman', Times, serif;
fill: #000000;
}
.s45_1{
font-size: 18.05px;
font-style: italic;
font-family: 'Times New Roman', Times, serif;
fill: #000000;
}
.s49_1{
font-size: 18.05px;
font-family: 'Times New Roman', Times, serif;
fill: #000000;
}
.s51_1{
font-size: 28.06px;
font-family: Symbol_x;
fill: #000000;
}
.s29_1{
font-size: 28.76px;
font-family: Symbol_x;
fill: #000000;
}
.s2_1{
font-size: 21.45px;
font-family: Helvetica_d;
fill: #333333;
}
.s52_1{
font-size: 10.62px;
font-family: 'Times New Roman', Times, serif;
fill: #000000;
}
.s31_1{
font-size: 10.80px;
font-family: Symbol_x;
fill: #000000;
}
.s16_1{
font-size: 22.38px;
font-family: Symbol_x;
fill: #000000;
}
.s42_1{
font-size: 10.88px;
font-style: italic;
font-family: 'Times New Roman', Times, serif;
fill: #000000;
}
.s48_1{
font-size: 18.05px;
font-family: Symbol_x;
fill: #000000;
}
.s14_1{
font-size: 10.62px;
font-style: italic;
font-family: 'Times New Roman', Times, serif;
fill: #000000;
}
.s46_1{
font-size: 10.54px;
font-family: Symbol_x;
fill: #000000;
}
.s17_1{
font-size: 19.23px;
font-family: Symbol_x;
fill: #000000;
}
.s28_1{
font-size: 10.87px;
font-style: italic;
font-family: 'Times New Roman', Times, serif;
fill: #000000;
}
.s4_1{
font-size: 18.33px;
font-family: Times_k;
fill: #000000;
}

]]></style>

</defs>
<path d="M0,0
L0,1074
L720,1074
L720,0 Z " 
fill="#FFFFFF" stroke="none" />
<path fill-rule="evenodd" d="M13,28l689,0L702,3L13,3l0,25Z" class="g1_1" />
<text 
x="13" 
y="23" 
dx="0,0.1,-0.1,-0.1,0,0,-0.1,0,0,0,0,0,0,0,-0.1,0,-0.1,-0.1,0,-0.1,0,-0.1,-0.1,0" 
class="s1_1"
>INTÉGRALES ENCADREMENTS </text>

<text 
x="340" 
y="23" 
dx="0" 
class="s2_1"
>–</text>

<text 
x="358" 
y="23" 
dx="0,0,0,-0.1,0.1,0,0.1,0,-0.1,0,-0.1,0.1,0,-0.1,0.1,0.1,-0.1,-0.1,0.1,-0.1,0,-0.1,-0.1,0.1,0,0,0" 
class="s1_1"
>BAC S AMÉRIQUE DU NORD 2008</text>

<path fill-rule="evenodd" d="M10,51l698,0l0,-23L10,28l0,23Z" class="g1_1" />
<text 
x="13" 
y="89" 
dx="0,0.1,0,0,0.2,-0.4,0,0,0.2" 
class="s3_1"
>PARTIE A </text>

<path d="M13.5,92.5l81,0" class="g2_1" />
<text 
x="13" 
y="124" 
dx="0" 
class="s4_1"
>–</text>

<text 
x="26" 
y="124" 
dx="0,0.1,0" 
class="s3_1"
>Si </text>

<text 
x="46" 
y="124" 
dx="0" 
class="s5_1"
>u</text>

<text 
x="60" 
y="124" 
dx="0,-0.1,0,0,0,0,0,0,0" 
class="s3_1"
>&gt; 0 sur [</text>

<text 
x="122" 
y="124" 
dx="0,0,0,0" 
class="s5_1"
>a, b</text>

<text 
x="149" 
y="124" 
dx="0,0.1,0,-0.1,0,0,0" 
class="s3_1"
>] alors</text>

<text 
x="309" 
y="124" 
dx="0,0,0,0,0" 
class="s3_1"
>. (1)</text>

<text 
x="13" 
y="174" 
dx="0" 
class="s4_1"
>–</text>

<text 
x="26" 
y="174" 
dx="0,0.1,0,0,0,0,0,0,0,0,0,-0.1,-0.1,-0.1,0" 
class="s3_1"
>Pour tous réels</text>

<text 
x="551" 
y="174" 
dx="0,0,0,0,0" 
class="s3_1"
>. (2)</text>

<text 
x="13" 
y="211" 
dx="0,0.1,0,0,0,0,0" 
class="s3_1"
>Soient </text>

<text 
x="64" 
y="211" 
dx="0" 
class="s5_1"
>f</text>

<text 
x="74" 
y="211" 
dx="0,-0.1,0" 
class="s3_1"
>et </text>

<text 
x="92" 
y="211" 
dx="0" 
class="s5_1"
>g</text>

<text 
x="105" 
y="211" 
dx="0,0,-0.1,0,0.2,0,0,0,0,-0.1,0,0.1,-0.2,0,0,0,-0.1,0,0,0,0.1,0,0,-0.1,0,0,0,0,0,0" 
class="s3_1"
>deux fonctions continues sur [</text>

<text 
x="326" 
y="211" 
dx="0,0,0,0" 
class="s5_1"
>a, b</text>

<text 
x="354" 
y="211" 
dx="0,0.1,0,-0.1,-0.2,-0.1,-0.1" 
class="s3_1"
>] avec </text>

<text 
x="402" 
y="211" 
dx="0" 
class="s5_1"
>a</text>

<text 
x="416" 
y="211" 
dx="0,-0.1" 
class="s3_1"
>&lt; </text>

<text 
x="431" 
y="211" 
dx="0" 
class="s5_1"
>b</text>

<text 
x="445" 
y="211" 
dx="0,-0.1,0" 
class="s3_1"
>et </text>

<text 
x="558" 
y="211" 
dx="0,0,0,0,0,-0.1,0,0,0,0.1" 
class="s3_1"
>pour tout </text>

<text 
x="629" 
y="211" 
dx="0" 
class="s5_1"
>x</text>

<text 
x="13" 
y="236" 
dx="0,0,-0.1,0" 
class="s3_1"
>de [</text>

<text 
x="41" 
y="236" 
dx="0,0,0,0" 
class="s5_1"
>a, b</text>

<text 
x="68" 
y="236" 
dx="0,0.1,-0.2" 
class="s3_1"
>]. </text>

<text 
x="13" 
y="257" 
dx="0,0.1,0,0,0,0,0" 
class="s3_1"
>Posons </text>

<text 
x="69" 
y="257" 
dx="0" 
class="s5_1"
>F</text>

<text 
x="80" 
y="257" 
dx="0" 
class="s3_1"
>(</text>

<text 
x="86" 
y="257" 
dx="0" 
class="s5_1"
>x</text>

<text 
x="94" 
y="257" 
dx="0,0,0,-0.1" 
class="s3_1"
>) = </text>

<text 
x="120" 
y="257" 
dx="0" 
class="s5_1"
>g</text>

<text 
x="129" 
y="257" 
dx="0" 
class="s3_1"
>(</text>

<text 
x="135" 
y="257" 
dx="0" 
class="s5_1"
>x</text>

<text 
x="143" 
y="257" 
dx="0,-0.1" 
class="s3_1"
>) </text>

<text 
x="154" 
y="257" 
dx="0" 
class="s4_1"
>–</text>

<text 
x="168" 
y="257" 
dx="0" 
class="s5_1"
>f</text>

<text 
x="173" 
y="257" 
dx="0" 
class="s3_1"
>(</text>

<text 
x="179" 
y="257" 
dx="0" 
class="s5_1"
>x</text>

<text 
x="187" 
y="257" 
dx="0,0,0.1,0,0,0,0,-0.1,0" 
class="s3_1"
>). Alors </text>

<text 
x="248" 
y="257" 
dx="0" 
class="s5_1"
>F</text>

<text 
x="259" 
y="257" 
dx="0" 
class="s3_1"
>(</text>

<text 
x="265" 
y="257" 
dx="0" 
class="s5_1"
>x</text>

<text 
x="273" 
y="257" 
dx="0,0,0,0,0" 
class="s4_1"
>) ≥ 0</text>

<text 
x="313" 
y="257" 
dx="0,-0.1,0,0,0,0,0,0,0,0.1,0.1,0,0,0,0,-0.1,0,0,0,0,0,0,-0.1,0,0,0,0.1,-0.1,0,0,-0.1,-0.1,0,0.4" 
class="s3_1"
>et, d'après (1), on peut écrire : </text>

<text 
x="273" 
y="292" 
dx="0,0,0,0,0,-0.1,0,0,-0.1,0,0.2,0,0,-0.1,0,0,0,0,0,0,-0.1,0,0,0,0.1,-0.1,0,0.1,0,-0.1,0,0.1" 
class="s3_1"
>. D'après (2), on peut écrire : </text>

<text 
x="13" 
y="391" 
dx="0,0,-0.2,0,0,0" 
class="s3_1"
>D'où, </text>

<text 
x="220" 
y="391" 
dx="0,0,0,0,0,-0.1,0,0.2" 
class="s3_1"
>. CQFD. </text>

<text 
x="13" 
y="449" 
dx="0,0.1,0,0,0.2,-0.4,0,0.1,0.1" 
class="s3_1"
>PARTIE B </text>

<path d="M13.5,452.5l81,0" class="g2_1" />
<text 
x="13" 
y="494" 
dx="0,-0.1,0,0,-0.1,0,0.1,0,0" 
class="s3_1"
>Fonction </text>

<text 
x="82" 
y="494" 
dx="0" 
class="s5_1"
>f</text>

<text 
x="92" 
y="494" 
dx="0,0,-0.1,0,0,0,0,-0.1,0,0,0,0" 
class="s3_1"
>définie sur </text>

<text 
x="233" 
y="494" 
dx="0,0,0.1,0,0,0" 
class="s3_1"
>par : </text>

<text 
x="427" 
y="494" 
dx="0,0" 
class="s3_1"
>. </text>

<text 
x="13" 
y="524" 
dx="0,0,0,0,0,0" 
class="s3_1"
>1) Sur</text>

<text 
x="112" 
y="524" 
dx="0,0,0,0,0,0,-0.1" 
class="s3_1"
>, on a </text>

<text 
x="481" 
y="524" 
dx="0,0" 
class="s3_1"
>. </text>

<text 
x="13" 
y="579" 
dx="0,0.1,-0.1,0,0,-0.1,0,0.1,0,0,0,-0.1,0" 
class="s3_1"
>Par ailleurs </text>

<text 
x="304" 
y="579" 
dx="0,0,0,0,0,0,0,0,0,0,0.1,0,0,-0.1,0,0,0,-0.1,0,0,0,0,0,0,0,0.1,0,0,0,0,0,0,-0.1" 
class="s3_1"
>qui est strictement positive sur </text>

<text 
x="586" 
y="579" 
dx="0,0" 
class="s3_1"
>. </text>

<text 
x="13" 
y="605" 
dx="0,0,0,0,-0.1" 
class="s3_1"
>Donc </text>

<text 
x="57" 
y="605" 
dx="0" 
class="s5_1"
>f</text>

<text 
x="66" 
y="605" 
dx="0,-0.1,0,0,0,0,0,0.1,0,0.1,0,0,0,0,-0.1,0,0,0,-0.1,0.2,0,0,0.1,-0.1,0,0,0,0,0,0,0" 
class="s3_1"
>est positive et croissante sur </text>

<text 
x="330" 
y="605" 
dx="0,0" 
class="s3_1"
>. </text>

<text 
x="13" 
y="650" 
dx="0,0,-0.1" 
class="s3_1"
>2) </text>

<text 
x="13" 
y="675" 
dx="0,0,0,-0.1,0,0,-0.1,0,-0.1,0,0" 
class="s3_1"
>2.a) Quand </text>

<text 
x="161" 
y="675" 
dx="0,0,0,-0.1,0,0,0,0" 
class="s3_1"
>, alors </text>

<text 
x="444" 
y="675" 
dx="0,0,0,0,-0.2,0,0" 
class="s3_1"
>. D'où </text>

<text 
x="502" 
y="675" 
dx="0,0,0" 
class="s6_1"
>lim</text>

<text 
x="492" 
y="686" 
dx="0,0.4,0.1,0.1" 
class="s7_1"
>°⟶+∞</text>

<text 
x="540" 
y="675" 
dx="0,0.5,0.1,0.5,0,-0.6,0,-0.5,0,1.1,0,0.6" 
class="s6_1"
>±(²) − ² = 0</text>

<text 
x="642" 
y="675" 
dx="0,0" 
class="s3_1"
>. </text>

<text 
x="13" 
y="703" 
dx="0,0,-0.1,0,0,0,0,0,0.1,0,0,0,0,-0.1,0,0,0,-0.1,0,0,0,0,-0.1,0,0.2,0,0,-0.1" 
class="s3_1"
>Ce qui montre que la courbe </text>

<text 
x="225" 
y="703" 
dx="0" 
class="s5_1"
>C</text>

<text 
x="242" 
y="703" 
dx="0,-0.1,0,0,0,0,0,0,0,0,-0.1,0,-0.1,0.4,-0.4,0,0,0.2,0,0,0,0,0,-0.1,0,0,0,0,0,0,0,0,-0.1,0.3" 
class="s3_1"
>admet pour asymptote la droite D. </text>

<text 
x="13" 
y="748" 
dx="0,0,0,0,0,0,0,0,0,0.1,-0.1" 
class="s3_1"
>2.b) Comme </text>

<text 
x="162" 
y="748" 
dx="0,0,0,-0.1,0,0,0" 
class="s3_1"
>, alors</text>

<text 
x="391" 
y="748" 
dx="0,0,0,0,0,0,0.1,0,0,-0.1,0,0,-0.1,0,0,0.1,0,0,0,-0.1" 
class="s3_1"
>. On en conclut que </text>

<text 
x="538" 
y="748" 
dx="0" 
class="s5_1"
>C</text>

<text 
x="555" 
y="748" 
dx="0,-0.1,0,0,0,0,0,0,0,0.1,0,0,0,0,0,0,-0.1,0,0,0" 
class="s3_1"
>est au dessus de D. </text>

<text 
x="13" 
y="809" 
dx="0,0,0,0,0,0,0" 
class="s3_1"
>3) Soit</text>

<text 
x="339" 
y="809" 
dx="0,0" 
class="s3_1"
>. </text>

<text 
x="13" 
y="858" 
dx="0,0,0,-0.1,-0.1,0,0.1,-0.2,-0.1,0.2,0,-0.1,0,0,0,0,0,0,0,0.1,0.1,-0.2,0,0.1,0,0,0,0,0,0,0,-0.1,0,0,0,0,-0.1,0,0.1,0,-0.1" 
class="s3_1"
>3.a) D'après la PARTIE A, on peut écrire </text>

<text 
transform="matrix(1.02, 0, 0, 1, 322, 859)"
dx="0" 
class="s8_1"
>I</text>

<text 
transform="matrix(1.02, 0, 0, 1, 334, 859)"
dx="0" 
class="s9_1"
></text>

<text 
transform="matrix(1.02, 0, 0, 1, 367, 859)"
dx="0,0,6.7" 
class="s8_1"
>f x</text>

<text 
transform="matrix(1.02, 0, 0, 1, 376, 859)"
dx="0,0,3.3" 
class="s10_1"
> </text>

<text 
transform="matrix(1.02, 0, 0, 1, 401, 859)"
dx="0" 
class="s11_1"
>d</text>

<text 
transform="matrix(1.02, 0, 0, 1, 413, 859)"
dx="0" 
class="s8_1"
>x</text>

<text 
transform="matrix(1.02, 0, 0, 1, 426, 859)"
dx="0" 
class="s9_1"
></text>

<text 
transform="matrix(1.02, 0, 0, 1, 457, 859)"
dx="0" 
class="s8_1"
>x</text>

<text 
transform="matrix(1.02, 0, 0, 1, 467, 859)"
dx="0" 
class="s11_1"
>d</text>

<text 
transform="matrix(1.02, 0, 0, 1, 480, 859)"
dx="0" 
class="s8_1"
>x</text>

<text 
transform="matrix(1.02, 0, 0, 1, 444, 877)"
dx="0" 
class="s12_1"
>0</text>

<text 
transform="matrix(1.02, 0, 0, 1, 444, 838)"
dx="0" 
class="s12_1"
>1</text>

<text 
transform="matrix(1.02, 0, 0, 1, 443, 861)"
dx="0" 
class="s13_1"
></text>

<text 
transform="matrix(1.02, 0, 0, 1, 353, 877)"
dx="0" 
class="s12_1"
>0</text>

<text 
transform="matrix(1.02, 0, 0, 1, 352, 838)"
dx="0" 
class="s12_1"
>1</text>

<text 
transform="matrix(1.02, 0, 0, 1, 351, 861)"
dx="0" 
class="s13_1"
></text>

<text 
x="491" 
y="858" 
dx="0,0" 
class="s3_1"
>. </text>

<text 
x="13" 
y="895" 
dx="0" 
class="s5_1"
>I</text>

<text 
x="23" 
y="895" 
dx="0,0,-0.1,0,0.1,-0.1,0,-0.1,0,0,0,0,0,-0.1,0,0.2,-0.1,0,0,0,-0.1,0,0.2,-0.1,0,0,-0.1,-0.1,0,0.1,-0.1,0,0,-0.1,0,0.1,0,0.1,0,0,-0.1,0,0,0.1,0" 
class="s3_1"
>représente la valeur de l'aire délimitée par </text>

<text 
x="334" 
y="895" 
dx="0" 
class="s5_1"
>C</text>

<text 
x="347" 
y="895" 
dx="0,0,0,0,0,0.1,0,0,0.1,-0.1,0,0,0,0,0,0,0,0,0" 
class="s3_1"
>, D et les droites </text>

<text 
x="471" 
y="895" 
dx="0" 
class="s5_1"
>x</text>

<text 
x="484" 
y="895" 
dx="0,-0.1,0,0,0,-0.1,0" 
class="s3_1"
>= 0 et </text>

<text 
x="530" 
y="895" 
dx="0" 
class="s5_1"
>x</text>

<text 
x="543" 
y="895" 
dx="0,-0.1,0,0.2,0" 
class="s3_1"
>= 1. </text>

<text 
x="13" 
y="939" 
dx="0,0,0,0,0,0,0,0,0,0" 
class="s3_1"
>3.b) Soit </text>

<text 
x="80" 
y="939" 
dx="0" 
class="s5_1"
>g</text>

<text 
x="94" 
y="939" 
dx="0,0,-0.1,0,0,0,0,-0.1,0,0,0,0" 
class="s3_1"
>définie sur </text>

<text 
x="235" 
y="939" 
dx="0,0,0.1,0" 
class="s3_1"
>par </text>

<text 
x="392" 
y="939" 
dx="0,0" 
class="s3_1"
>. </text>

<text 
x="13" 
y="974" 
dx="0,0,0,0,-0.1" 
class="s3_1"
>On a </text>

<text 
x="52" 
y="974" 
dx="0" 
class="s5_1"
>g</text>

<text 
x="61" 
y="974" 
dx="0,0,0,-0.1,0.2,-0.1,0,0,0,-0.1,0" 
class="s3_1"
>(0) = 0 et </text>

<text 
x="339" 
y="974" 
dx="0,0,0,0,0,-0.1,0,0,0,0.1" 
class="s3_1"
>pour tout </text>

<text 
x="410" 
y="974" 
dx="0" 
class="s5_1"
>t</text>

<text 
x="420" 
y="974" 
dx="0,-0.1,0,0,0" 
class="s3_1"
>&gt; 0. </text>

<text 
x="13" 
y="1006" 
dx="0,-0.2,-0.1,0.2,0,0,0,-0.1,0,0.1,0,0" 
class="s3_1"
>La fonction </text>

<text 
x="102" 
y="1006" 
dx="0" 
class="s5_1"
>g</text>

<text 
x="116" 
y="1006" 
dx="0,-0.1,0,0,0,0,0,0,-0.1,0,0,0.2,0,0.1,-0.1,0,0,0,0,-0.1" 
class="s3_1"
>est donc nulle pour </text>

<text 
x="260" 
y="1006" 
dx="0" 
class="s5_1"
>t</text>

<text 
x="270" 
y="1006" 
dx="0,-0.1,0,0,0,-0.1,0,0,0,0,0.1,0,0,0,0,0,0.1,0,0,0,0,0,0,0,0,-0.1,0,0,0.1,-0.2,-0.1,0,0.1,0,-0.1,0,0,0,0,0.2,0" 
class="s3_1"
>= 0 et décroissante, donc négative, pour </text>

<text 
x="566" 
y="1006" 
dx="0" 
class="s5_1"
>t</text>

<text 
x="576" 
y="1006" 
dx="0,-0.1,0,0" 
class="s3_1"
>&gt; 0 </text>

<text 
x="13" 
y="1027" 
dx="0,0,-0.2,0,0,0,0.2,-0.2,0,0,0,0,-0.1,0,0,0,0.1,0,0,0,-0.1,0,0.2" 
class="s3_1"
>d'où l'on déduit que : </text>

<text 
x="174" 
y="1050" 
dx="0,0,0,0,0" 
class="s3_1"
>pour </text>

<text 
x="212" 
y="1050" 
dx="0" 
class="s5_1"
>t</text>

<text 
x="221" 
y="1050" 
dx="0,0,0,0,0,0,-0.1,0" 
class="s4_1"
>≥ 0, et </text>

<text 
x="361" 
y="1050" 
dx="0,0,0,-0.1,0,0,0,0,0" 
class="s3_1"
>(3) pour </text>

<text 
x="425" 
y="1050" 
dx="0" 
class="s5_1"
>t</text>

<text 
x="435" 
y="1050" 
dx="0,0,0,0,0,0,0.1,0,-0.1,0" 
class="s4_1"
>≥ 0. CQFD.</text>

<text 
transform="matrix(1.02, 0, 0, 1, 207, 142)"
dx="0" 
class="s14_1"
>a</text>

<text 
transform="matrix(1.02, 0, 0, 1, 207, 103)"
dx="0" 
class="s14_1"
>b</text>

<text 
transform="matrix(1.02, 0, 0, 1, 206, 126)"
dx="0" 
class="s15_1"
></text>

<text 
transform="matrix(1.02, 0, 0, 1, 226, 124)"
dx="0,0,2.6" 
class="s8_1"
>u x</text>

<text 
transform="matrix(1.02, 0, 0, 1, 235, 124)"
dx="0,0,3.2" 
class="s16_1"
> </text>

<text 
transform="matrix(1.02, 0, 0, 1, 259, 124)"
dx="0" 
class="s11_1"
>d</text>

<text 
transform="matrix(1.02, 0, 0, 1, 272, 124)"
dx="0" 
class="s8_1"
>x</text>

<text 
transform="matrix(1.02, 0, 0, 1, 285, 124)"
dx="0" 
class="s9_1"
></text>

<text 
transform="matrix(1.02, 0, 0, 1, 298, 124)"
dx="0" 
class="s11_1"
>0</text>

<text 
transform="matrix(0.97, 0, -0.32, 0.95, 142, 174)"
dx="0" 
class="s17_1"
></text>

<text 
transform="matrix(1.02, 0, 0, 1, 158, 174)"
dx="0,-0.4,0.2" 
class="s11_1"
>et </text>

<text 
transform="matrix(0.97, 0, -0.32, 0.95, 176, 174)"
dx="0" 
class="s17_1"
></text>

<text 
transform="matrix(1.02, 0, 0, 1, 185, 174)"
dx="0,1.5" 
class="s11_1"
>, </text>

<text 
transform="matrix(0.97, 0, -0.32, 0.95, 219, 174)"
dx="0" 
class="s17_1"
></text>

<text 
transform="matrix(1.02, 0, 0, 1, 230, 174)"
dx="0,0,2.6" 
class="s8_1"
>u x</text>

<text 
transform="matrix(1.02, 0, 0, 1, 239, 174)"
dx="0,0,3.3" 
class="s16_1"
> </text>

<text 
transform="matrix(1.02, 0, 0, 1, 265, 174)"
dx="0" 
class="s9_1"
></text>

<text 
transform="matrix(0.97, 0, -0.32, 0.95, 279, 174)"
dx="0" 
class="s17_1"
></text>

<text 
transform="matrix(1.02, 0, 0, 1, 289, 174)"
dx="0,0,3.7" 
class="s8_1"
>v x</text>

<text 
transform="matrix(1.02, 0, 0, 1, 298, 174)"
dx="0,0,3.3" 
class="s16_1"
> </text>

<text 
transform="matrix(1.02, 0, 0, 1, 212, 175)"
dx="0" 
class="s18_1"
></text>

<text 
transform="matrix(1.02, 0, 0, 1, 320, 175)"
dx="0" 
class="s18_1"
></text>

<text 
transform="matrix(1.02, 0, 0, 1, 201, 192)"
dx="0" 
class="s14_1"
>a</text>

<text 
transform="matrix(1.02, 0, 0, 1, 201, 153)"
dx="0" 
class="s14_1"
>b</text>

<text 
transform="matrix(1.02, 0, 0, 1, 200, 176)"
dx="0" 
class="s15_1"
></text>

<text 
transform="matrix(1.02, 0, 0, 1, 328, 174)"
dx="0" 
class="s11_1"
>d</text>

<text 
transform="matrix(1.02, 0, 0, 1, 340, 174)"
dx="0" 
class="s8_1"
>x</text>

<text 
transform="matrix(1.02, 0, 0, 1, 354, 174)"
dx="0" 
class="s9_1"
></text>

<text 
transform="matrix(0.97, 0, -0.32, 0.95, 368, 174)"
dx="0" 
class="s17_1"
></text>

<text 
transform="matrix(1.02, 0, 0, 1, 398, 174)"
dx="0,0,2.6" 
class="s8_1"
>u x</text>

<text 
transform="matrix(1.02, 0, 0, 1, 407, 174)"
dx="0,0,3.3" 
class="s16_1"
> </text>

<text 
transform="matrix(1.02, 0, 0, 1, 431, 174)"
dx="0" 
class="s11_1"
>d</text>

<text 
transform="matrix(1.02, 0, 0, 1, 443, 174)"
dx="0" 
class="s8_1"
>x</text>

<text 
transform="matrix(1.02, 0, 0, 1, 455, 174)"
dx="0" 
class="s9_1"
></text>

<text 
transform="matrix(0.97, 0, -0.32, 0.95, 469, 174)"
dx="0" 
class="s17_1"
></text>

<text 
transform="matrix(1.02, 0, 0, 1, 385, 192)"
dx="0" 
class="s14_1"
>a</text>

<text 
transform="matrix(1.02, 0, 0, 1, 385, 153)"
dx="0" 
class="s14_1"
>b</text>

<text 
transform="matrix(1.02, 0, 0, 1, 385, 176)"
dx="0" 
class="s15_1"
></text>

<text 
transform="matrix(1.02, 0, 0, 1, 495, 174)"
dx="0,0,3.7" 
class="s8_1"
>v x</text>

<text 
transform="matrix(1.02, 0, 0, 1, 504, 174)"
dx="0,0,3.3" 
class="s16_1"
> </text>

<text 
transform="matrix(1.02, 0, 0, 1, 528, 174)"
dx="0" 
class="s11_1"
>d</text>

<text 
transform="matrix(1.02, 0, 0, 1, 540, 174)"
dx="0" 
class="s8_1"
>x</text>

<text 
transform="matrix(1.02, 0, 0, 1, 484, 192)"
dx="0" 
class="s14_1"
>a</text>

<text 
transform="matrix(1.02, 0, 0, 1, 484, 153)"
dx="0" 
class="s14_1"
>b</text>

<text 
transform="matrix(1.02, 0, 0, 1, 483, 176)"
dx="0" 
class="s15_1"
></text>

<text 
transform="matrix(1.02, 0, 0, 1, 469, 212)"
dx="0,0,6.8" 
class="s19_1"
>f x</text>

<text 
transform="matrix(1.02, 0, 0, 1, 478, 212)"
dx="0,0,3.3" 
class="s20_1"
> </text>

<text 
transform="matrix(1.02, 0, 0, 1, 505, 212)"
dx="0" 
class="s21_1"
></text>

<text 
transform="matrix(1.02, 0, 0, 1, 519, 212)"
dx="0,0,2.7" 
class="s19_1"
>g x</text>

<text 
transform="matrix(1.02, 0, 0, 1, 528, 212)"
dx="0,0,3.3" 
class="s20_1"
> </text>

<text 
transform="matrix(1.02, 0, 0, 1, 32, 292)"
dx="0,0,4.4" 
class="s8_1"
>F x</text>

<text 
transform="matrix(1.02, 0, 0, 1, 44, 292)"
dx="0,0,3.2" 
class="s16_1"
> </text>

<text 
transform="matrix(1.02, 0, 0, 1, 69, 292)"
dx="0" 
class="s11_1"
>d</text>

<text 
transform="matrix(1.02, 0, 0, 1, 81, 292)"
dx="0" 
class="s8_1"
>x</text>

<text 
transform="matrix(1.02, 0, 0, 1, 95, 292)"
dx="0" 
class="s9_1"
></text>

<text 
transform="matrix(1.02, 0, 0, 1, 131, 292)"
dx="0,0,2.6" 
class="s8_1"
>g x</text>

<text 
transform="matrix(1.02, 0, 0, 1, 140, 292)"
dx="0,0,3.3" 
class="s16_1"
> </text>

<text 
transform="matrix(1.02, 0, 0, 1, 167, 292)"
dx="0" 
class="s9_1"
></text>

<text 
transform="matrix(1.02, 0, 0, 1, 184, 292)"
dx="0,0,6.6" 
class="s8_1"
>f x</text>

<text 
transform="matrix(1.02, 0, 0, 1, 193, 292)"
dx="0,0,3.2" 
class="s16_1"
> </text>

<text 
transform="matrix(1.02, 0, 0, 1, 125, 293)"
dx="0" 
class="s18_1"
></text>

<text 
transform="matrix(1.02, 0, 0, 1, 216, 293)"
dx="0" 
class="s18_1"
></text>

<text 
transform="matrix(1.02, 0, 0, 1, 113, 310)"
dx="0" 
class="s14_1"
>a</text>

<text 
transform="matrix(1.02, 0, 0, 1, 113, 271)"
dx="0" 
class="s14_1"
>b</text>

<text 
transform="matrix(1.02, 0, 0, 1, 112, 294)"
dx="0" 
class="s15_1"
></text>

<text 
transform="matrix(1.02, 0, 0, 1, 223, 292)"
dx="0" 
class="s11_1"
>d</text>

<text 
transform="matrix(1.02, 0, 0, 1, 236, 292)"
dx="0" 
class="s8_1"
>x</text>

<text 
transform="matrix(1.02, 0, 0, 1, 19, 310)"
dx="0" 
class="s14_1"
>a</text>

<text 
transform="matrix(1.02, 0, 0, 1, 19, 271)"
dx="0" 
class="s14_1"
>b</text>

<text 
transform="matrix(1.02, 0, 0, 1, 19, 294)"
dx="0" 
class="s15_1"
></text>

<text 
transform="matrix(1.02, 0, 0, 1, 249, 292)"
dx="0" 
class="s9_1"
></text>

<text 
transform="matrix(1.02, 0, 0, 1, 262, 292)"
dx="0" 
class="s11_1"
>0</text>

<text 
transform="matrix(1.02, 0, 0, 1, 32, 342)"
dx="0,0,4.3" 
class="s8_1"
>F x</text>

<text 
transform="matrix(1.02, 0, 0, 1, 44, 342)"
dx="0,0,3.2" 
class="s16_1"
> </text>

<text 
transform="matrix(1.02, 0, 0, 1, 69, 342)"
dx="0" 
class="s11_1"
>d</text>

<text 
transform="matrix(1.02, 0, 0, 1, 81, 342)"
dx="0" 
class="s8_1"
>x</text>

<text 
transform="matrix(1.02, 0, 0, 1, 95, 342)"
dx="0" 
class="s9_1"
></text>

<text 
transform="matrix(1.02, 0, 0, 1, 131, 342)"
dx="0,0,2.6" 
class="s8_1"
>g x</text>

<text 
transform="matrix(1.02, 0, 0, 1, 140, 342)"
dx="0,0,3.3" 
class="s16_1"
> </text>

<text 
transform="matrix(1.02, 0, 0, 1, 167, 342)"
dx="0" 
class="s9_1"
></text>

<text 
transform="matrix(1.02, 0, 0, 1, 184, 342)"
dx="0,0,6.7" 
class="s8_1"
>f x</text>

<text 
transform="matrix(1.02, 0, 0, 1, 193, 342)"
dx="0,0,3.2" 
class="s16_1"
> </text>

<text 
transform="matrix(1.02, 0, 0, 1, 124, 343)"
dx="0" 
class="s18_1"
></text>

<text 
transform="matrix(1.02, 0, 0, 1, 215, 343)"
dx="0" 
class="s18_1"
></text>

<text 
transform="matrix(1.02, 0, 0, 1, 113, 360)"
dx="0" 
class="s14_1"
>a</text>

<text 
transform="matrix(1.02, 0, 0, 1, 113, 321)"
dx="0" 
class="s14_1"
>b</text>

<text 
transform="matrix(1.02, 0, 0, 1, 112, 344)"
dx="0" 
class="s15_1"
></text>

<text 
transform="matrix(1.02, 0, 0, 1, 223, 342)"
dx="0" 
class="s11_1"
>d</text>

<text 
transform="matrix(1.02, 0, 0, 1, 235, 342)"
dx="0" 
class="s8_1"
>x</text>

<text 
transform="matrix(1.02, 0, 0, 1, 19, 360)"
dx="0" 
class="s14_1"
>a</text>

<text 
transform="matrix(1.02, 0, 0, 1, 19, 321)"
dx="0" 
class="s14_1"
>b</text>

<text 
transform="matrix(1.02, 0, 0, 1, 19, 344)"
dx="0" 
class="s15_1"
></text>

<text 
transform="matrix(1.02, 0, 0, 1, 249, 342)"
dx="0" 
class="s9_1"
></text>

<text 
transform="matrix(1.02, 0, 0, 1, 279, 342)"
dx="0,0,2.6" 
class="s8_1"
>g x</text>

<text 
transform="matrix(1.02, 0, 0, 1, 289, 342)"
dx="0,0,3.2" 
class="s16_1"
> </text>

<text 
transform="matrix(1.02, 0, 0, 1, 313, 342)"
dx="0" 
class="s11_1"
>d</text>

<text 
transform="matrix(1.02, 0, 0, 1, 325, 342)"
dx="0" 
class="s8_1"
>x</text>

<text 
transform="matrix(1.02, 0, 0, 1, 267, 360)"
dx="0" 
class="s14_1"
>a</text>

<text 
transform="matrix(1.02, 0, 0, 1, 267, 321)"
dx="0" 
class="s14_1"
>b</text>

<text 
transform="matrix(1.02, 0, 0, 1, 266, 344)"
dx="0" 
class="s15_1"
></text>

<text 
transform="matrix(1.02, 0, 0, 1, 338, 342)"
dx="0" 
class="s9_1"
></text>

<text 
transform="matrix(1.02, 0, 0, 1, 371, 342)"
dx="0,0,6.7" 
class="s8_1"
>f x</text>

<text 
transform="matrix(1.02, 0, 0, 1, 380, 342)"
dx="0,0,3.3" 
class="s16_1"
> </text>

<text 
transform="matrix(1.02, 0, 0, 1, 404, 342)"
dx="0" 
class="s11_1"
>d</text>

<text 
transform="matrix(1.02, 0, 0, 1, 416, 342)"
dx="0" 
class="s8_1"
>x</text>

<text 
transform="matrix(1.02, 0, 0, 1, 356, 360)"
dx="0" 
class="s14_1"
>a</text>

<text 
transform="matrix(1.02, 0, 0, 1, 356, 321)"
dx="0" 
class="s14_1"
>b</text>

<text 
transform="matrix(1.02, 0, 0, 1, 355, 344)"
dx="0" 
class="s15_1"
></text>

<text 
transform="matrix(1.02, 0, 0, 1, 429, 342)"
dx="0" 
class="s9_1"
></text>

<text 
transform="matrix(1.02, 0, 0, 1, 442, 342)"
dx="0" 
class="s11_1"
>0</text>

<text 
transform="matrix(1.02, 0, 0, 1, 79, 391)"
dx="0,0,6.7" 
class="s8_1"
>f x</text>

<text 
transform="matrix(1.02, 0, 0, 1, 88, 392)"
dx="0,0,3.3" 
class="s16_1"
> </text>

<text 
transform="matrix(1.02, 0, 0, 1, 112, 391)"
dx="0" 
class="s11_1"
>d</text>

<text 
transform="matrix(1.02, 0, 0, 1, 124, 391)"
dx="0" 
class="s8_1"
>x</text>

<text 
transform="matrix(1.02, 0, 0, 1, 137, 391)"
dx="0" 
class="s9_1"
></text>

<text 
transform="matrix(1.02, 0, 0, 1, 64, 410)"
dx="0" 
class="s14_1"
>a</text>

<text 
transform="matrix(1.02, 0, 0, 1, 64, 371)"
dx="0" 
class="s14_1"
>b</text>

<text 
transform="matrix(1.02, 0, 0, 1, 63, 394)"
dx="0" 
class="s15_1"
></text>

<text 
transform="matrix(1.02, 0, 0, 1, 164, 391)"
dx="0,0,2.6" 
class="s8_1"
>g x</text>

<text 
transform="matrix(1.02, 0, 0, 1, 173, 392)"
dx="0,0,3.2" 
class="s16_1"
> </text>

<text 
transform="matrix(1.02, 0, 0, 1, 197, 391)"
dx="0" 
class="s11_1"
>d</text>

<text 
transform="matrix(1.02, 0, 0, 1, 210, 391)"
dx="0" 
class="s8_1"
>x</text>

<text 
transform="matrix(1.02, 0, 0, 1, 152, 410)"
dx="0" 
class="s14_1"
>a</text>

<text 
transform="matrix(1.02, 0, 0, 1, 152, 371)"
dx="0" 
class="s14_1"
>b</text>

<text 
transform="matrix(1.02, 0, 0, 1, 151, 394)"
dx="0" 
class="s15_1"
></text>

<text 
transform="matrix(1.01, 0, 0, 1, 183, 494)"
dx="0,-0.8" 
class="s22_1"
>0,</text>

<text 
transform="matrix(1.01, 0, 0, 1, 197, 494)"
dx="0,-0.2" 
class="s21_1"
></text>

<text 
transform="matrix(1.01, 0, 0, 1, 177, 495)"
dx="0" 
class="s20_1"
></text>

<text 
transform="matrix(1.01, 0, 0, 1, 220, 495)"
dx="0" 
class="s20_1"
></text>

<text 
transform="matrix(1.01, 0, 0, 1, 277, 494)"
dx="0,0,6.7" 
class="s23_1"
>f x</text>

<text 
transform="matrix(1.01, 0, 0, 1, 286, 495)"
dx="0,0,3.2" 
class="s24_1"
> </text>

<text 
transform="matrix(1.01, 0, 0, 1, 313, 494)"
dx="0" 
class="s25_1"
></text>

<text 
transform="matrix(1.01, 0, 0, 1, 329, 494)"
dx="0" 
class="s23_1"
>x</text>

<text 
transform="matrix(1.01, 0, 0, 1, 341, 494)"
dx="0" 
class="s25_1"
></text>

<text 
transform="matrix(1.01, 0, 0, 1, 354, 494)"
dx="0,-0.3,0,-0.3" 
class="s26_1"
>ln 1</text>

<text 
transform="matrix(1.01, 0, 0, 1, 383, 494)"
dx="0" 
class="s25_1"
></text>

<text 
transform="matrix(1.01, 0, 0, 1, 396, 494)"
dx="0" 
class="s23_1"
>e</text>

<text 
transform="matrix(1.01, 0, 0, 1, 406, 486)"
dx="0" 
class="s27_1"
></text>

<text 
transform="matrix(1.01, 0, 0, 1, 412, 486)"
dx="0" 
class="s28_1"
>x</text>

<text 
transform="matrix(1.01, 0, 0, 1, 368, 497)"
dx="0" 
class="s29_1"
></text>

<text 
transform="matrix(1.01, 0, 0, 1, 419, 497)"
dx="0" 
class="s29_1"
></text>

<text 
transform="matrix(1.01, 0, 0, 1, 66, 524)"
dx="0,-0.8" 
class="s22_1"
>0,</text>

<text 
transform="matrix(1.01, 0, 0, 1, 80, 524)"
dx="0,-0.2" 
class="s21_1"
></text>

<text 
transform="matrix(1.01, 0, 0, 1, 60, 524)"
dx="0" 
class="s20_1"
></text>

<text 
transform="matrix(1.01, 0, 0, 1, 104, 524)"
dx="0" 
class="s20_1"
></text>

<text 
transform="matrix(1.01, 0, 0, 1, 159, 524)"
dx="0" 
class="s30_1"
>e</text>

<text 
transform="matrix(1.01, 0, 0, 1, 168, 515)"
dx="0" 
class="s31_1"
></text>

<text 
transform="matrix(1.01, 0, 0, 1, 175, 515)"
dx="0" 
class="s32_1"
>x</text>

<text 
transform="matrix(1.01, 0, 0, 1, 186, 524)"
dx="0" 
class="s33_1"
></text>

<text 
transform="matrix(1.01, 0, 0, 1, 200, 524)"
dx="0" 
class="s34_1"
>0</text>

<text 
transform="matrix(1.01, 0, 0, 1, 213, 524)"
dx="0" 
class="s33_1"
></text>

<text 
transform="matrix(1.01, 0, 0, 1, 233, 524)"
dx="0" 
class="s34_1"
>1</text>

<text 
transform="matrix(1.01, 0, 0, 1, 244, 524)"
dx="0" 
class="s33_1"
></text>

<text 
transform="matrix(1.01, 0, 0, 1, 257, 524)"
dx="0" 
class="s30_1"
>e</text>

<text 
transform="matrix(1.01, 0, 0, 1, 266, 515)"
dx="0" 
class="s31_1"
></text>

<text 
transform="matrix(1.01, 0, 0, 1, 273, 515)"
dx="0" 
class="s32_1"
>x</text>

<text 
transform="matrix(1.01, 0, 0, 1, 285, 524)"
dx="0" 
class="s33_1"
></text>

<text 
transform="matrix(1.01, 0, 0, 1, 297, 524)"
dx="0" 
class="s34_1"
>1</text>

<text 
transform="matrix(1.01, 0, 0, 1, 308, 524)"
dx="0" 
class="s33_1"
></text>

<text 
transform="matrix(1.01, 0, 0, 1, 330, 524)"
dx="0,-0.3,0,-0.5" 
class="s34_1"
>ln 1</text>

<text 
transform="matrix(1.01, 0, 0, 1, 360, 524)"
dx="0" 
class="s33_1"
></text>

<text 
transform="matrix(1.01, 0, 0, 1, 373, 524)"
dx="0" 
class="s30_1"
>e</text>

<text 
transform="matrix(1.01, 0, 0, 1, 382, 515)"
dx="0" 
class="s31_1"
></text>

<text 
transform="matrix(1.01, 0, 0, 1, 388, 515)"
dx="0" 
class="s32_1"
>x</text>

<text 
transform="matrix(1.01, 0, 0, 1, 344, 526)"
dx="0" 
class="s35_1"
></text>

<text 
transform="matrix(1.01, 0, 0, 1, 395, 526)"
dx="0" 
class="s35_1"
></text>

<text 
transform="matrix(1.01, 0, 0, 1, 406, 524)"
dx="0" 
class="s33_1"
></text>

<text 
transform="matrix(1.01, 0, 0, 1, 420, 524)"
dx="0,-0.3,0,-0.3" 
class="s34_1"
>ln 1</text>

<text 
transform="matrix(1.01, 0, 0, 1, 434, 524)"
dx="0,0,-1.4" 
class="s36_1"
> </text>

<text 
transform="matrix(1.01, 0, 0, 1, 456, 524)"
dx="0" 
class="s33_1"
></text>

<text 
transform="matrix(1.01, 0, 0, 1, 470, 524)"
dx="0" 
class="s34_1"
>0</text>

<text 
x="106" 
y="564" 
dx="0" 
class="s37_1"
>f</text>

<text 
x="115" 
y="564" 
dx="0" 
class="s38_1"
>'</text>

<text 
x="128" 
y="564" 
dx="0" 
class="s37_1"
>x</text>

<text 
x="120" 
y="564" 
dx="0,0,3.3" 
class="s39_1"
> </text>

<text 
x="147" 
y="564" 
dx="0" 
class="s40_1"
></text>

<text 
x="160" 
y="564" 
dx="0" 
class="s38_1"
>1</text>

<text 
x="170" 
y="564" 
dx="0" 
class="s40_1"
></text>

<text 
x="192" 
y="551" 
dx="0" 
class="s40_1"
></text>

<text 
x="201" 
y="551" 
dx="0" 
class="s37_1"
>e</text>

<text 
x="211" 
y="543" 
dx="0" 
class="s41_1"
></text>

<text 
x="217" 
y="543" 
dx="0" 
class="s42_1"
>x</text>

<text 
x="183" 
y="577" 
dx="0" 
class="s38_1"
>1</text>

<text 
x="194" 
y="577" 
dx="0" 
class="s40_1"
></text>

<text 
x="207" 
y="577" 
dx="0" 
class="s37_1"
>e</text>

<text 
x="216" 
y="569" 
dx="0" 
class="s41_1"
></text>

<text 
x="223" 
y="569" 
dx="0" 
class="s42_1"
>x</text>

<path d="M184.5,558.5l47,0" class="g3_1" />
<text 
x="236" 
y="564" 
dx="0" 
class="s40_1"
></text>

<text 
x="270" 
y="551" 
dx="0" 
class="s38_1"
>1</text>

<text 
x="250" 
y="577" 
dx="0" 
class="s38_1"
>1</text>

<text 
x="261" 
y="577" 
dx="0" 
class="s40_1"
></text>

<text 
x="274" 
y="577" 
dx="0" 
class="s37_1"
>e</text>

<text 
x="283" 
y="569" 
dx="0" 
class="s41_1"
></text>

<text 
x="290" 
y="569" 
dx="0" 
class="s42_1"
>x</text>

<path d="M251.5,558.5l46,0" class="g3_1" />
<text 
transform="matrix(1.01, 0, 0, 1, 541, 579)"
dx="0,-0.8" 
class="s22_1"
>0,</text>

<text 
transform="matrix(1.01, 0, 0, 1, 555, 579)"
dx="0,-0.2" 
class="s21_1"
></text>

<text 
transform="matrix(1.01, 0, 0, 1, 535, 580)"
dx="0" 
class="s20_1"
></text>

<text 
transform="matrix(1.01, 0, 0, 1, 579, 580)"
dx="0" 
class="s20_1"
></text>

<text 
transform="matrix(1.02, 0, 0, 1, 285, 605)"
dx="0,-0.8" 
class="s22_1"
>0,</text>

<text 
transform="matrix(1.02, 0, 0, 1, 299, 605)"
dx="0,-0.2" 
class="s21_1"
></text>

<text 
transform="matrix(1.02, 0, 0, 1, 279, 605)"
dx="0" 
class="s20_1"
></text>

<text 
transform="matrix(1.02, 0, 0, 1, 323, 605)"
dx="0" 
class="s20_1"
></text>

<text 
transform="matrix(1.04, 0, 0, 1, 102, 675)"
dx="0" 
class="s43_1"
>x</text>

<text 
transform="matrix(1.04, 0, 0, 1, 116, 675)"
dx="0,0.1,-0.2" 
class="s44_1"
></text>

<text 
x="213" 
y="675" 
dx="0" 
class="s23_1"
>e</text>

<text 
x="222" 
y="667" 
dx="0" 
class="s27_1"
></text>

<text 
x="229" 
y="667" 
dx="0" 
class="s28_1"
>x</text>

<text 
x="240" 
y="675" 
dx="0" 
class="s25_1"
></text>

<text 
x="259" 
y="675" 
dx="0,0.5,-0.1,-0.5,0.1,2.2,-0.3,0,-0.5" 
class="s26_1"
>0 et ln 1</text>

<text 
x="323" 
y="675" 
dx="0" 
class="s25_1"
></text>

<text 
x="336" 
y="675" 
dx="0" 
class="s23_1"
>e</text>

<text 
x="345" 
y="667" 
dx="0" 
class="s27_1"
></text>

<text 
x="352" 
y="667" 
dx="0" 
class="s28_1"
>x</text>

<text 
x="308" 
y="677" 
dx="0" 
class="s29_1"
></text>

<text 
x="358" 
y="677" 
dx="0" 
class="s29_1"
></text>

<text 
x="369" 
y="675" 
dx="0" 
class="s25_1"
></text>

<text 
x="388" 
y="675" 
dx="0,-0.3,0" 
class="s26_1"
>ln1</text>

<text 
x="415" 
y="675" 
dx="0" 
class="s25_1"
></text>

<text 
x="434" 
y="675" 
dx="0" 
class="s26_1"
>0</text>

<text 
transform="matrix(1.03, 0, 0, 1, 111, 748)"
dx="0" 
class="s45_1"
>e</text>

<text 
transform="matrix(1.03, 0, 0, 1, 120, 740)"
dx="0" 
class="s46_1"
></text>

<text 
transform="matrix(1.03, 0, 0, 1, 127, 740)"
dx="0" 
class="s47_1"
>x</text>

<text 
transform="matrix(1.03, 0, 0, 1, 139, 748)"
dx="0" 
class="s48_1"
></text>

<text 
transform="matrix(1.03, 0, 0, 1, 153, 748)"
dx="0" 
class="s49_1"
>0</text>

<text 
transform="matrix(1.01, 0, 0, 1, 214, 748)"
dx="0,0,6.6" 
class="s30_1"
>f x</text>

<text 
transform="matrix(1.01, 0, 0, 1, 223, 749)"
dx="0,0,3.1" 
class="s36_1"
> </text>

<text 
transform="matrix(1.01, 0, 0, 1, 249, 748)"
dx="0" 
class="s33_1"
></text>

<text 
transform="matrix(1.01, 0, 0, 1, 264, 748)"
dx="0" 
class="s30_1"
>x</text>

<text 
transform="matrix(1.01, 0, 0, 1, 277, 748)"
dx="0" 
class="s33_1"
></text>

<text 
transform="matrix(1.01, 0, 0, 1, 291, 748)"
dx="0,-0.3,0,-0.4" 
class="s34_1"
>ln 1</text>

<text 
transform="matrix(1.01, 0, 0, 1, 320, 748)"
dx="0" 
class="s33_1"
></text>

<text 
transform="matrix(1.01, 0, 0, 1, 334, 748)"
dx="0" 
class="s30_1"
>e</text>

<text 
transform="matrix(1.01, 0, 0, 1, 343, 740)"
dx="0" 
class="s31_1"
></text>

<text 
transform="matrix(1.01, 0, 0, 1, 349, 740)"
dx="0" 
class="s32_1"
>x</text>

<text 
transform="matrix(1.01, 0, 0, 1, 305, 751)"
dx="0" 
class="s35_1"
></text>

<text 
transform="matrix(1.01, 0, 0, 1, 356, 751)"
dx="0" 
class="s35_1"
></text>

<text 
transform="matrix(1.01, 0, 0, 1, 367, 748)"
dx="0" 
class="s33_1"
></text>

<text 
transform="matrix(1.01, 0, 0, 1, 381, 748)"
dx="0" 
class="s34_1"
>0</text>

<text 
transform="matrix(1.02, 0, 0, 1, 70, 809)"
dx="0" 
class="s8_1"
>I</text>

<text 
transform="matrix(1.02, 0, 0, 1, 81, 809)"
dx="0" 
class="s9_1"
></text>

<text 
transform="matrix(1.02, 0, 0, 1, 111, 809)"
dx="0,-0.2,0,-0.4" 
class="s11_1"
>ln 1</text>

<text 
transform="matrix(1.02, 0, 0, 1, 140, 809)"
dx="0" 
class="s9_1"
></text>

<text 
transform="matrix(1.02, 0, 0, 1, 153, 809)"
dx="0" 
class="s8_1"
>e</text>

<text 
transform="matrix(1.02, 0, 0, 1, 163, 801)"
dx="0" 
class="s50_1"
></text>

<text 
transform="matrix(1.02, 0, 0, 1, 169, 801)"
dx="0" 
class="s14_1"
>x</text>

<text 
transform="matrix(1.02, 0, 0, 1, 125, 811)"
dx="0" 
class="s51_1"
></text>

<text 
transform="matrix(1.02, 0, 0, 1, 176, 811)"
dx="0" 
class="s51_1"
></text>

<text 
transform="matrix(1.02, 0, 0, 1, 184, 809)"
dx="0" 
class="s11_1"
>d</text>

<text 
transform="matrix(1.02, 0, 0, 1, 196, 809)"
dx="0" 
class="s8_1"
>x</text>

<text 
transform="matrix(1.02, 0, 0, 1, 210, 809)"
dx="0" 
class="s9_1"
></text>

<text 
transform="matrix(1.02, 0, 0, 1, 250, 809)"
dx="0,0,6.7" 
class="s8_1"
>f x</text>

<text 
transform="matrix(1.02, 0, 0, 1, 259, 809)"
dx="0,0,3.3" 
class="s16_1"
> </text>

<text 
transform="matrix(1.02, 0, 0, 1, 285, 809)"
dx="0" 
class="s9_1"
></text>

<text 
transform="matrix(1.02, 0, 0, 1, 300, 809)"
dx="0" 
class="s8_1"
>x</text>

<text 
transform="matrix(1.02, 0, 0, 1, 240, 810)"
dx="0" 
class="s18_1"
></text>

<text 
transform="matrix(1.02, 0, 0, 1, 309, 810)"
dx="0" 
class="s18_1"
></text>

<text 
transform="matrix(1.02, 0, 0, 1, 229, 827)"
dx="0" 
class="s52_1"
>0</text>

<text 
transform="matrix(1.02, 0, 0, 1, 228, 788)"
dx="0" 
class="s52_1"
>1</text>

<text 
transform="matrix(1.02, 0, 0, 1, 227, 811)"
dx="0" 
class="s15_1"
></text>

<text 
transform="matrix(1.02, 0, 0, 1, 317, 809)"
dx="0" 
class="s11_1"
>d</text>

<text 
transform="matrix(1.02, 0, 0, 1, 329, 809)"
dx="0" 
class="s8_1"
>x</text>

<text 
transform="matrix(1.02, 0, 0, 1, 100, 827)"
dx="0" 
class="s52_1"
>0</text>

<text 
transform="matrix(1.02, 0, 0, 1, 100, 788)"
dx="0" 
class="s52_1"
>1</text>

<text 
transform="matrix(1.02, 0, 0, 1, 99, 811)"
dx="0" 
class="s15_1"
></text>

<text 
transform="matrix(1.02, 0, 0, 1, 185, 939)"
dx="0,-0.8" 
class="s22_1"
>0,</text>

<text 
transform="matrix(1.02, 0, 0, 1, 199, 939)"
dx="0,-0.2" 
class="s21_1"
></text>

<text 
transform="matrix(1.02, 0, 0, 1, 179, 939)"
dx="0" 
class="s20_1"
></text>

<text 
transform="matrix(1.02, 0, 0, 1, 223, 939)"
dx="0" 
class="s20_1"
></text>

<text 
transform="matrix(1.01, 0, 0, 1, 266, 939)"
dx="0,0,1.9" 
class="s19_1"
>g t</text>

<text 
transform="matrix(1.01, 0, 0, 1, 275, 939)"
dx="0,0,-0.5" 
class="s20_1"
> </text>

<text 
transform="matrix(1.01, 0, 0, 1, 298, 939)"
dx="0" 
class="s21_1"
></text>

<text 
transform="matrix(1.01, 0, 0, 1, 312, 939)"
dx="0,-0.2,0,-0.2" 
class="s22_1"
>ln 1</text>

<text 
transform="matrix(1.01, 0, 0, 1, 341, 939)"
dx="0" 
class="s21_1"
></text>

<text 
transform="matrix(1.01, 0, 0, 1, 355, 939)"
dx="0" 
class="s19_1"
>t</text>

<text 
transform="matrix(1.01, 0, 0, 1, 326, 939)"
dx="0" 
class="s20_1"
></text>

<text 
transform="matrix(1.01, 0, 0, 1, 361, 939)"
dx="0" 
class="s20_1"
></text>

<text 
transform="matrix(1.01, 0, 0, 1, 371, 939)"
dx="0" 
class="s21_1"
></text>

<text 
transform="matrix(1.01, 0, 0, 1, 384, 939)"
dx="0" 
class="s19_1"
>t</text>

<text 
x="137" 
y="974" 
dx="0" 
class="s53_1"
>g</text>

<text 
x="146" 
y="974" 
dx="0" 
class="s54_1"
>'</text>

<text 
x="157" 
y="974" 
dx="0" 
class="s53_1"
>t</text>

<text 
x="150" 
y="974" 
dx="0,0,-0.4" 
class="s55_1"
> </text>

<text 
x="174" 
y="974" 
dx="0" 
class="s56_1"
></text>

<text 
x="199" 
y="962" 
dx="0" 
class="s54_1"
>1</text>

<text 
x="188" 
y="987" 
dx="0" 
class="s54_1"
>1</text>

<text 
x="199" 
y="987" 
dx="0" 
class="s56_1"
></text>

<text 
x="212" 
y="987" 
dx="0" 
class="s53_1"
>t</text>

<path d="M189.5,969.5l30,0" class="g3_1" />
<text 
x="224" 
y="974" 
dx="0" 
class="s56_1"
></text>

<text 
x="235" 
y="974" 
dx="0" 
class="s54_1"
>1</text>

<text 
x="247" 
y="974" 
dx="0,0,-0.3" 
class="s56_1"
> </text>

<text 
x="287" 
y="962" 
dx="0" 
class="s53_1"
>t</text>

<text 
x="273" 
y="987" 
dx="0" 
class="s54_1"
>1</text>

<text 
x="284" 
y="987" 
dx="0" 
class="s56_1"
></text>

<text 
x="298" 
y="987" 
dx="0" 
class="s53_1"
>t</text>

<path d="M274.5,969.5l31,0" class="g3_1" />
<text 
x="310" 
y="974" 
dx="0" 
class="s56_1"
></text>

<text 
x="324" 
y="974" 
dx="0" 
class="s54_1"
>0</text>

<text 
transform="matrix(1.02, 0, 0, 1, 16, 1050)"
dx="0,0,2" 
class="s19_1"
>g t</text>

<text 
transform="matrix(1.02, 0, 0, 1, 25, 1050)"
dx="0,0,-0.4" 
class="s20_1"
> </text>

<text 
transform="matrix(1.02, 0, 0, 1, 48, 1050)"
dx="0" 
class="s21_1"
></text>

<text 
transform="matrix(1.02, 0, 0, 1, 62, 1050)"
dx="0,-0.2,0,-0.1" 
class="s22_1"
>ln 1</text>

<text 
transform="matrix(1.02, 0, 0, 1, 92, 1050)"
dx="0" 
class="s21_1"
></text>

<text 
transform="matrix(1.02, 0, 0, 1, 105, 1050)"
dx="0" 
class="s19_1"
>t</text>

<text 
transform="matrix(1.02, 0, 0, 1, 76, 1050)"
dx="0" 
class="s20_1"
></text>

<text 
transform="matrix(1.02, 0, 0, 1, 111, 1050)"
dx="0" 
class="s20_1"
></text>

<text 
transform="matrix(1.02, 0, 0, 1, 121, 1050)"
dx="0" 
class="s21_1"
></text>

<text 
transform="matrix(1.02, 0, 0, 1, 135, 1050)"
dx="0" 
class="s19_1"
>t</text>

<text 
transform="matrix(1.02, 0, 0, 1, 145, 1050)"
dx="0" 
class="s21_1"
></text>

<text 
transform="matrix(1.02, 0, 0, 1, 159, 1050)"
dx="0" 
class="s22_1"
>0</text>

<text 
transform="matrix(1.01, 0, 0, 1, 275, 1050)"
dx="0,-0.2,0,-0.3" 
class="s22_1"
>ln 1</text>

<text 
transform="matrix(1.01, 0, 0, 1, 304, 1050)"
dx="0" 
class="s21_1"
></text>

<text 
transform="matrix(1.01, 0, 0, 1, 318, 1050)"
dx="0" 
class="s19_1"
>t</text>

<text 
transform="matrix(1.01, 0, 0, 1, 289, 1050)"
dx="0" 
class="s20_1"
></text>

<text 
transform="matrix(1.01, 0, 0, 1, 324, 1050)"
dx="0" 
class="s20_1"
></text>

<text 
transform="matrix(1.01, 0, 0, 1, 334, 1050)"
dx="0" 
class="s21_1"
></text>

<text 
transform="matrix(1.01, 0, 0, 1, 348, 1050)"
dx="0" 
class="s19_1"
>t</text>



<!-- Any embedded fonts defined here -->
<style type="text/css" ><![CDATA[

@font-face {
	font-family: Helvetica_d;
	src: url("fonts/Helvetica_d.woff") format("woff");
}

@font-face {
	font-family: Times_k;
	src: url("fonts/Times_k.woff") format("woff");
}

@font-face {
	font-family: CambriaMath_r;
	src: url("fonts/CambriaMath_r.woff") format("woff");
}

@font-face {
	font-family: Times_e;
	src: url("fonts/Times_e.woff") format("woff");
}

@font-face {
	font-family: Times-Italic_l;
	src: url("fonts/Times-Italic_l.woff") format("woff");
}

@font-face {
	font-family: Symbol_x;
	src: url("fonts/Symbol_x.woff") format("woff");
}

]]></style>

</svg>
